<?xml version="1.0" encoding="utf-8" standalone="no"?>
<!DOCTYPE svg PUBLIC "-//W3C//DTD SVG 1.1//EN"
  "http://www.w3.org/Graphics/SVG/1.1/DTD/svg11.dtd">
<svg xmlns:xlink="http://www.w3.org/1999/xlink" width="1052.910455pt" height="695.534375pt" viewBox="0 0 1052.910455 695.534375" xmlns="http://www.w3.org/2000/svg" version="1.1">
 <metadata>
  <rdf:RDF xmlns:dc="http://purl.org/dc/elements/1.1/" xmlns:cc="http://creativecommons.org/ns#" xmlns:rdf="http://www.w3.org/1999/02/22-rdf-syntax-ns#">
   <cc:Work>
    <dc:type rdf:resource="http://purl.org/dc/dcmitype/StillImage"/>
    <dc:date>2026-04-04T10:58:56.551994</dc:date>
    <dc:format>image/svg+xml</dc:format>
    <dc:creator>
     <cc:Agent>
      <dc:title>Matplotlib v3.10.1, https://matplotlib.org/</dc:title>
     </cc:Agent>
    </dc:creator>
   </cc:Work>
  </rdf:RDF>
 </metadata>
 <defs>
  <style type="text/css">*{stroke-linejoin: round; stroke-linecap: butt}</style>
 </defs>
 <g id="figure_1">
  <g id="patch_1">
   <path d="M 0 695.534375 
L 1052.910455 695.534375 
L 1052.910455 0 
L 0 0 
z
" style="fill: #ffffff"/>
  </g>
  <g id="axes_1">
   <g id="patch_2">
    <path d="M 115.75 609.894375 
L 1045.710455 609.894375 
L 1045.710455 54.554375 
L 115.75 54.554375 
z
" style="fill: #ffffff"/>
   </g>
   <g id="matplotlib.axis_1">
    <g id="xtick_1">
     <g id="line2d_1">
      <path d="M 157.315827 609.894375 
L 157.315827 54.554375 
" clip-path="url(#p3dd27eb8ec)" style="fill: none; stroke: #cccccc; stroke-opacity: 0.3; stroke-width: 1.5; stroke-linecap: round"/>
     </g>
     <g id="text_1">
      <!-- 0 -->
      <g style="fill: #262626" transform="translate(147.135827 646.709375) scale(0.32 -0.32)">
       <defs>
        <path id="DejaVuSans-30" d="M 2034 4250 
Q 1547 4250 1301 3770 
Q 1056 3291 1056 2328 
Q 1056 1369 1301 889 
Q 1547 409 2034 409 
Q 2525 409 2770 889 
Q 3016 1369 3016 2328 
Q 3016 3291 2770 3770 
Q 2525 4250 2034 4250 
z
M 2034 4750 
Q 2819 4750 3233 4129 
Q 3647 3509 3647 2328 
Q 3647 1150 3233 529 
Q 2819 -91 2034 -91 
Q 1250 -91 836 529 
Q 422 1150 422 2328 
Q 422 3509 836 4129 
Q 1250 4750 2034 4750 
z
" transform="scale(0.015625)"/>
       </defs>
       <use xlink:href="#DejaVuSans-30"/>
      </g>
     </g>
    </g>
    <g id="xtick_2">
     <g id="line2d_2">
      <path d="M 298.336443 609.894375 
L 298.336443 54.554375 
" clip-path="url(#p3dd27eb8ec)" style="fill: none; stroke: #cccccc; stroke-opacity: 0.3; stroke-width: 1.5; stroke-linecap: round"/>
     </g>
     <g id="text_2">
      <!-- 200 -->
      <g style="fill: #262626" transform="translate(267.796443 646.709375) scale(0.32 -0.32)">
       <defs>
        <path id="DejaVuSans-32" d="M 1228 531 
L 3431 531 
L 3431 0 
L 469 0 
L 469 531 
Q 828 903 1448 1529 
Q 2069 2156 2228 2338 
Q 2531 2678 2651 2914 
Q 2772 3150 2772 3378 
Q 2772 3750 2511 3984 
Q 2250 4219 1831 4219 
Q 1534 4219 1204 4116 
Q 875 4013 500 3803 
L 500 4441 
Q 881 4594 1212 4672 
Q 1544 4750 1819 4750 
Q 2544 4750 2975 4387 
Q 3406 4025 3406 3419 
Q 3406 3131 3298 2873 
Q 3191 2616 2906 2266 
Q 2828 2175 2409 1742 
Q 1991 1309 1228 531 
z
" transform="scale(0.015625)"/>
       </defs>
       <use xlink:href="#DejaVuSans-32"/>
       <use xlink:href="#DejaVuSans-30" transform="translate(63.623047 0)"/>
       <use xlink:href="#DejaVuSans-30" transform="translate(127.246094 0)"/>
      </g>
     </g>
    </g>
    <g id="xtick_3">
     <g id="line2d_3">
      <path d="M 439.357059 609.894375 
L 439.357059 54.554375 
" clip-path="url(#p3dd27eb8ec)" style="fill: none; stroke: #cccccc; stroke-opacity: 0.3; stroke-width: 1.5; stroke-linecap: round"/>
     </g>
     <g id="text_3">
      <!-- 400 -->
      <g style="fill: #262626" transform="translate(408.817059 646.709375) scale(0.32 -0.32)">
       <defs>
        <path id="DejaVuSans-34" d="M 2419 4116 
L 825 1625 
L 2419 1625 
L 2419 4116 
z
M 2253 4666 
L 3047 4666 
L 3047 1625 
L 3713 1625 
L 3713 1100 
L 3047 1100 
L 3047 0 
L 2419 0 
L 2419 1100 
L 313 1100 
L 313 1709 
L 2253 4666 
z
" transform="scale(0.015625)"/>
       </defs>
       <use xlink:href="#DejaVuSans-34"/>
       <use xlink:href="#DejaVuSans-30" transform="translate(63.623047 0)"/>
       <use xlink:href="#DejaVuSans-30" transform="translate(127.246094 0)"/>
      </g>
     </g>
    </g>
    <g id="xtick_4">
     <g id="line2d_4">
      <path d="M 580.377676 609.894375 
L 580.377676 54.554375 
" clip-path="url(#p3dd27eb8ec)" style="fill: none; stroke: #cccccc; stroke-opacity: 0.3; stroke-width: 1.5; stroke-linecap: round"/>
     </g>
     <g id="text_4">
      <!-- 600 -->
      <g style="fill: #262626" transform="translate(549.837676 646.709375) scale(0.32 -0.32)">
       <defs>
        <path id="DejaVuSans-36" d="M 2113 2584 
Q 1688 2584 1439 2293 
Q 1191 2003 1191 1497 
Q 1191 994 1439 701 
Q 1688 409 2113 409 
Q 2538 409 2786 701 
Q 3034 994 3034 1497 
Q 3034 2003 2786 2293 
Q 2538 2584 2113 2584 
z
M 3366 4563 
L 3366 3988 
Q 3128 4100 2886 4159 
Q 2644 4219 2406 4219 
Q 1781 4219 1451 3797 
Q 1122 3375 1075 2522 
Q 1259 2794 1537 2939 
Q 1816 3084 2150 3084 
Q 2853 3084 3261 2657 
Q 3669 2231 3669 1497 
Q 3669 778 3244 343 
Q 2819 -91 2113 -91 
Q 1303 -91 875 529 
Q 447 1150 447 2328 
Q 447 3434 972 4092 
Q 1497 4750 2381 4750 
Q 2619 4750 2861 4703 
Q 3103 4656 3366 4563 
z
" transform="scale(0.015625)"/>
       </defs>
       <use xlink:href="#DejaVuSans-36"/>
       <use xlink:href="#DejaVuSans-30" transform="translate(63.623047 0)"/>
       <use xlink:href="#DejaVuSans-30" transform="translate(127.246094 0)"/>
      </g>
     </g>
    </g>
    <g id="xtick_5">
     <g id="line2d_5">
      <path d="M 721.398292 609.894375 
L 721.398292 54.554375 
" clip-path="url(#p3dd27eb8ec)" style="fill: none; stroke: #cccccc; stroke-opacity: 0.3; stroke-width: 1.5; stroke-linecap: round"/>
     </g>
     <g id="text_5">
      <!-- 800 -->
      <g style="fill: #262626" transform="translate(690.858292 646.709375) scale(0.32 -0.32)">
       <defs>
        <path id="DejaVuSans-38" d="M 2034 2216 
Q 1584 2216 1326 1975 
Q 1069 1734 1069 1313 
Q 1069 891 1326 650 
Q 1584 409 2034 409 
Q 2484 409 2743 651 
Q 3003 894 3003 1313 
Q 3003 1734 2745 1975 
Q 2488 2216 2034 2216 
z
M 1403 2484 
Q 997 2584 770 2862 
Q 544 3141 544 3541 
Q 544 4100 942 4425 
Q 1341 4750 2034 4750 
Q 2731 4750 3128 4425 
Q 3525 4100 3525 3541 
Q 3525 3141 3298 2862 
Q 3072 2584 2669 2484 
Q 3125 2378 3379 2068 
Q 3634 1759 3634 1313 
Q 3634 634 3220 271 
Q 2806 -91 2034 -91 
Q 1263 -91 848 271 
Q 434 634 434 1313 
Q 434 1759 690 2068 
Q 947 2378 1403 2484 
z
M 1172 3481 
Q 1172 3119 1398 2916 
Q 1625 2713 2034 2713 
Q 2441 2713 2670 2916 
Q 2900 3119 2900 3481 
Q 2900 3844 2670 4047 
Q 2441 4250 2034 4250 
Q 1625 4250 1398 4047 
Q 1172 3844 1172 3481 
z
" transform="scale(0.015625)"/>
       </defs>
       <use xlink:href="#DejaVuSans-38"/>
       <use xlink:href="#DejaVuSans-30" transform="translate(63.623047 0)"/>
       <use xlink:href="#DejaVuSans-30" transform="translate(127.246094 0)"/>
      </g>
     </g>
    </g>
    <g id="xtick_6">
     <g id="line2d_6">
      <path d="M 862.418908 609.894375 
L 862.418908 54.554375 
" clip-path="url(#p3dd27eb8ec)" style="fill: none; stroke: #cccccc; stroke-opacity: 0.3; stroke-width: 1.5; stroke-linecap: round"/>
     </g>
     <g id="text_6">
      <!-- 1000 -->
      <g style="fill: #262626" transform="translate(821.698908 646.709375) scale(0.32 -0.32)">
       <defs>
        <path id="DejaVuSans-31" d="M 794 531 
L 1825 531 
L 1825 4091 
L 703 3866 
L 703 4441 
L 1819 4666 
L 2450 4666 
L 2450 531 
L 3481 531 
L 3481 0 
L 794 0 
L 794 531 
z
" transform="scale(0.015625)"/>
       </defs>
       <use xlink:href="#DejaVuSans-31"/>
       <use xlink:href="#DejaVuSans-30" transform="translate(63.623047 0)"/>
       <use xlink:href="#DejaVuSans-30" transform="translate(127.246094 0)"/>
       <use xlink:href="#DejaVuSans-30" transform="translate(190.869141 0)"/>
      </g>
     </g>
    </g>
    <g id="xtick_7">
     <g id="line2d_7">
      <path d="M 1003.439525 609.894375 
L 1003.439525 54.554375 
" clip-path="url(#p3dd27eb8ec)" style="fill: none; stroke: #cccccc; stroke-opacity: 0.3; stroke-width: 1.5; stroke-linecap: round"/>
     </g>
     <g id="text_7">
      <!-- 1200 -->
      <g style="fill: #262626" transform="translate(962.719525 646.709375) scale(0.32 -0.32)">
       <use xlink:href="#DejaVuSans-31"/>
       <use xlink:href="#DejaVuSans-32" transform="translate(63.623047 0)"/>
       <use xlink:href="#DejaVuSans-30" transform="translate(127.246094 0)"/>
       <use xlink:href="#DejaVuSans-30" transform="translate(190.869141 0)"/>
      </g>
     </g>
    </g>
    <g id="text_8">
     <!-- Epoch -->
     <g style="fill: #262626" transform="translate(531.735227 681.679375) scale(0.32 -0.32)">
      <defs>
       <path id="DejaVuSans-45" d="M 628 4666 
L 3578 4666 
L 3578 4134 
L 1259 4134 
L 1259 2753 
L 3481 2753 
L 3481 2222 
L 1259 2222 
L 1259 531 
L 3634 531 
L 3634 0 
L 628 0 
L 628 4666 
z
" transform="scale(0.015625)"/>
       <path id="DejaVuSans-70" d="M 1159 525 
L 1159 -1331 
L 581 -1331 
L 581 3500 
L 1159 3500 
L 1159 2969 
Q 1341 3281 1617 3432 
Q 1894 3584 2278 3584 
Q 2916 3584 3314 3078 
Q 3713 2572 3713 1747 
Q 3713 922 3314 415 
Q 2916 -91 2278 -91 
Q 1894 -91 1617 61 
Q 1341 213 1159 525 
z
M 3116 1747 
Q 3116 2381 2855 2742 
Q 2594 3103 2138 3103 
Q 1681 3103 1420 2742 
Q 1159 2381 1159 1747 
Q 1159 1113 1420 752 
Q 1681 391 2138 391 
Q 2594 391 2855 752 
Q 3116 1113 3116 1747 
z
" transform="scale(0.015625)"/>
       <path id="DejaVuSans-6f" d="M 1959 3097 
Q 1497 3097 1228 2736 
Q 959 2375 959 1747 
Q 959 1119 1226 758 
Q 1494 397 1959 397 
Q 2419 397 2687 759 
Q 2956 1122 2956 1747 
Q 2956 2369 2687 2733 
Q 2419 3097 1959 3097 
z
M 1959 3584 
Q 2709 3584 3137 3096 
Q 3566 2609 3566 1747 
Q 3566 888 3137 398 
Q 2709 -91 1959 -91 
Q 1206 -91 779 398 
Q 353 888 353 1747 
Q 353 2609 779 3096 
Q 1206 3584 1959 3584 
z
" transform="scale(0.015625)"/>
       <path id="DejaVuSans-63" d="M 3122 3366 
L 3122 2828 
Q 2878 2963 2633 3030 
Q 2388 3097 2138 3097 
Q 1578 3097 1268 2742 
Q 959 2388 959 1747 
Q 959 1106 1268 751 
Q 1578 397 2138 397 
Q 2388 397 2633 464 
Q 2878 531 3122 666 
L 3122 134 
Q 2881 22 2623 -34 
Q 2366 -91 2075 -91 
Q 1284 -91 818 406 
Q 353 903 353 1747 
Q 353 2603 823 3093 
Q 1294 3584 2113 3584 
Q 2378 3584 2631 3529 
Q 2884 3475 3122 3366 
z
" transform="scale(0.015625)"/>
       <path id="DejaVuSans-68" d="M 3513 2113 
L 3513 0 
L 2938 0 
L 2938 2094 
Q 2938 2591 2744 2837 
Q 2550 3084 2163 3084 
Q 1697 3084 1428 2787 
Q 1159 2491 1159 1978 
L 1159 0 
L 581 0 
L 581 4863 
L 1159 4863 
L 1159 2956 
Q 1366 3272 1645 3428 
Q 1925 3584 2291 3584 
Q 2894 3584 3203 3211 
Q 3513 2838 3513 2113 
z
" transform="scale(0.015625)"/>
      </defs>
      <use xlink:href="#DejaVuSans-45"/>
      <use xlink:href="#DejaVuSans-70" transform="translate(63.183594 0)"/>
      <use xlink:href="#DejaVuSans-6f" transform="translate(126.660156 0)"/>
      <use xlink:href="#DejaVuSans-63" transform="translate(187.841797 0)"/>
      <use xlink:href="#DejaVuSans-68" transform="translate(242.822266 0)"/>
     </g>
    </g>
   </g>
   <g id="matplotlib.axis_2">
    <g id="ytick_1">
     <g id="line2d_8">
      <path d="M 115.75 589.40303 
L 1045.710455 589.40303 
" clip-path="url(#p3dd27eb8ec)" style="fill: none; stroke: #cccccc; stroke-opacity: 0.3; stroke-width: 1.5; stroke-linecap: round"/>
     </g>
     <g id="text_9">
      <!-- 0 -->
      <g style="fill: #262626" transform="translate(82.89 601.56053) scale(0.32 -0.32)">
       <use xlink:href="#DejaVuSans-30"/>
      </g>
     </g>
    </g>
    <g id="ytick_2">
     <g id="line2d_9">
      <path d="M 115.75 487.481845 
L 1045.710455 487.481845 
" clip-path="url(#p3dd27eb8ec)" style="fill: none; stroke: #cccccc; stroke-opacity: 0.3; stroke-width: 1.5; stroke-linecap: round"/>
     </g>
     <g id="text_10">
      <!-- 20 -->
      <g style="fill: #262626" transform="translate(62.53 499.639345) scale(0.32 -0.32)">
       <use xlink:href="#DejaVuSans-32"/>
       <use xlink:href="#DejaVuSans-30" transform="translate(63.623047 0)"/>
      </g>
     </g>
    </g>
    <g id="ytick_3">
     <g id="line2d_10">
      <path d="M 115.75 385.560659 
L 1045.710455 385.560659 
" clip-path="url(#p3dd27eb8ec)" style="fill: none; stroke: #cccccc; stroke-opacity: 0.3; stroke-width: 1.5; stroke-linecap: round"/>
     </g>
     <g id="text_11">
      <!-- 40 -->
      <g style="fill: #262626" transform="translate(62.53 397.718159) scale(0.32 -0.32)">
       <use xlink:href="#DejaVuSans-34"/>
       <use xlink:href="#DejaVuSans-30" transform="translate(63.623047 0)"/>
      </g>
     </g>
    </g>
    <g id="ytick_4">
     <g id="line2d_11">
      <path d="M 115.75 283.639473 
L 1045.710455 283.639473 
" clip-path="url(#p3dd27eb8ec)" style="fill: none; stroke: #cccccc; stroke-opacity: 0.3; stroke-width: 1.5; stroke-linecap: round"/>
     </g>
     <g id="text_12">
      <!-- 60 -->
      <g style="fill: #262626" transform="translate(62.53 295.796973) scale(0.32 -0.32)">
       <use xlink:href="#DejaVuSans-36"/>
       <use xlink:href="#DejaVuSans-30" transform="translate(63.623047 0)"/>
      </g>
     </g>
    </g>
    <g id="ytick_5">
     <g id="line2d_12">
      <path d="M 115.75 181.718288 
L 1045.710455 181.718288 
" clip-path="url(#p3dd27eb8ec)" style="fill: none; stroke: #cccccc; stroke-opacity: 0.3; stroke-width: 1.5; stroke-linecap: round"/>
     </g>
     <g id="text_13">
      <!-- 80 -->
      <g style="fill: #262626" transform="translate(62.53 193.875788) scale(0.32 -0.32)">
       <use xlink:href="#DejaVuSans-38"/>
       <use xlink:href="#DejaVuSans-30" transform="translate(63.623047 0)"/>
      </g>
     </g>
    </g>
    <g id="ytick_6">
     <g id="line2d_13">
      <path d="M 115.75 79.797102 
L 1045.710455 79.797102 
" clip-path="url(#p3dd27eb8ec)" style="fill: none; stroke: #cccccc; stroke-opacity: 0.3; stroke-width: 1.5; stroke-linecap: round"/>
     </g>
     <g id="text_14">
      <!-- 100 -->
      <g style="fill: #262626" transform="translate(42.17 91.954602) scale(0.32 -0.32)">
       <use xlink:href="#DejaVuSans-31"/>
       <use xlink:href="#DejaVuSans-30" transform="translate(63.623047 0)"/>
       <use xlink:href="#DejaVuSans-30" transform="translate(127.246094 0)"/>
      </g>
     </g>
    </g>
    <g id="text_15">
     <!-- Accuracy (%) -->
     <g style="fill: #262626" transform="translate(31.515 438.046875) rotate(-90) scale(0.32 -0.32)">
      <defs>
       <path id="DejaVuSans-41" d="M 2188 4044 
L 1331 1722 
L 3047 1722 
L 2188 4044 
z
M 1831 4666 
L 2547 4666 
L 4325 0 
L 3669 0 
L 3244 1197 
L 1141 1197 
L 716 0 
L 50 0 
L 1831 4666 
z
" transform="scale(0.015625)"/>
       <path id="DejaVuSans-75" d="M 544 1381 
L 544 3500 
L 1119 3500 
L 1119 1403 
Q 1119 906 1312 657 
Q 1506 409 1894 409 
Q 2359 409 2629 706 
Q 2900 1003 2900 1516 
L 2900 3500 
L 3475 3500 
L 3475 0 
L 2900 0 
L 2900 538 
Q 2691 219 2414 64 
Q 2138 -91 1772 -91 
Q 1169 -91 856 284 
Q 544 659 544 1381 
z
M 1991 3584 
L 1991 3584 
z
" transform="scale(0.015625)"/>
       <path id="DejaVuSans-72" d="M 2631 2963 
Q 2534 3019 2420 3045 
Q 2306 3072 2169 3072 
Q 1681 3072 1420 2755 
Q 1159 2438 1159 1844 
L 1159 0 
L 581 0 
L 581 3500 
L 1159 3500 
L 1159 2956 
Q 1341 3275 1631 3429 
Q 1922 3584 2338 3584 
Q 2397 3584 2469 3576 
Q 2541 3569 2628 3553 
L 2631 2963 
z
" transform="scale(0.015625)"/>
       <path id="DejaVuSans-61" d="M 2194 1759 
Q 1497 1759 1228 1600 
Q 959 1441 959 1056 
Q 959 750 1161 570 
Q 1363 391 1709 391 
Q 2188 391 2477 730 
Q 2766 1069 2766 1631 
L 2766 1759 
L 2194 1759 
z
M 3341 1997 
L 3341 0 
L 2766 0 
L 2766 531 
Q 2569 213 2275 61 
Q 1981 -91 1556 -91 
Q 1019 -91 701 211 
Q 384 513 384 1019 
Q 384 1609 779 1909 
Q 1175 2209 1959 2209 
L 2766 2209 
L 2766 2266 
Q 2766 2663 2505 2880 
Q 2244 3097 1772 3097 
Q 1472 3097 1187 3025 
Q 903 2953 641 2809 
L 641 3341 
Q 956 3463 1253 3523 
Q 1550 3584 1831 3584 
Q 2591 3584 2966 3190 
Q 3341 2797 3341 1997 
z
" transform="scale(0.015625)"/>
       <path id="DejaVuSans-79" d="M 2059 -325 
Q 1816 -950 1584 -1140 
Q 1353 -1331 966 -1331 
L 506 -1331 
L 506 -850 
L 844 -850 
Q 1081 -850 1212 -737 
Q 1344 -625 1503 -206 
L 1606 56 
L 191 3500 
L 800 3500 
L 1894 763 
L 2988 3500 
L 3597 3500 
L 2059 -325 
z
" transform="scale(0.015625)"/>
       <path id="DejaVuSans-20" transform="scale(0.015625)"/>
       <path id="DejaVuSans-28" d="M 1984 4856 
Q 1566 4138 1362 3434 
Q 1159 2731 1159 2009 
Q 1159 1288 1364 580 
Q 1569 -128 1984 -844 
L 1484 -844 
Q 1016 -109 783 600 
Q 550 1309 550 2009 
Q 550 2706 781 3412 
Q 1013 4119 1484 4856 
L 1984 4856 
z
" transform="scale(0.015625)"/>
       <path id="DejaVuSans-25" d="M 4653 2053 
Q 4381 2053 4226 1822 
Q 4072 1591 4072 1178 
Q 4072 772 4226 539 
Q 4381 306 4653 306 
Q 4919 306 5073 539 
Q 5228 772 5228 1178 
Q 5228 1588 5073 1820 
Q 4919 2053 4653 2053 
z
M 4653 2450 
Q 5147 2450 5437 2106 
Q 5728 1763 5728 1178 
Q 5728 594 5436 251 
Q 5144 -91 4653 -91 
Q 4153 -91 3862 251 
Q 3572 594 3572 1178 
Q 3572 1766 3864 2108 
Q 4156 2450 4653 2450 
z
M 1428 4353 
Q 1159 4353 1004 4120 
Q 850 3888 850 3481 
Q 850 3069 1003 2837 
Q 1156 2606 1428 2606 
Q 1700 2606 1854 2837 
Q 2009 3069 2009 3481 
Q 2009 3884 1853 4118 
Q 1697 4353 1428 4353 
z
M 4250 4750 
L 4750 4750 
L 1831 -91 
L 1331 -91 
L 4250 4750 
z
M 1428 4750 
Q 1922 4750 2215 4408 
Q 2509 4066 2509 3481 
Q 2509 2891 2217 2550 
Q 1925 2209 1428 2209 
Q 931 2209 642 2551 
Q 353 2894 353 3481 
Q 353 4063 643 4406 
Q 934 4750 1428 4750 
z
" transform="scale(0.015625)"/>
       <path id="DejaVuSans-29" d="M 513 4856 
L 1013 4856 
Q 1481 4119 1714 3412 
Q 1947 2706 1947 2009 
Q 1947 1309 1714 600 
Q 1481 -109 1013 -844 
L 513 -844 
Q 928 -128 1133 580 
Q 1338 1288 1338 2009 
Q 1338 2731 1133 3434 
Q 928 4138 513 4856 
z
" transform="scale(0.015625)"/>
      </defs>
      <use xlink:href="#DejaVuSans-41"/>
      <use xlink:href="#DejaVuSans-63" transform="translate(66.658203 0)"/>
      <use xlink:href="#DejaVuSans-63" transform="translate(121.638672 0)"/>
      <use xlink:href="#DejaVuSans-75" transform="translate(176.619141 0)"/>
      <use xlink:href="#DejaVuSans-72" transform="translate(239.998047 0)"/>
      <use xlink:href="#DejaVuSans-61" transform="translate(281.111328 0)"/>
      <use xlink:href="#DejaVuSans-63" transform="translate(342.390625 0)"/>
      <use xlink:href="#DejaVuSans-79" transform="translate(397.371094 0)"/>
      <use xlink:href="#DejaVuSans-20" transform="translate(456.550781 0)"/>
      <use xlink:href="#DejaVuSans-28" transform="translate(488.337891 0)"/>
      <use xlink:href="#DejaVuSans-25" transform="translate(527.351562 0)"/>
      <use xlink:href="#DejaVuSans-29" transform="translate(622.371094 0)"/>
     </g>
    </g>
   </g>
   <g id="FillBetweenPolyCollection_1"/>
   <g id="FillBetweenPolyCollection_2"/>
   <g id="line2d_14">
    <path d="M 158.02093 582.718882 
L 158.726033 579.900265 
L 159.431136 579.819733 
L 160.136239 578.370159 
L 160.841342 575.390478 
L 161.546445 570.719627 
L 162.251548 569.028457 
L 162.956651 563.874415 
L 163.661754 560.894734 
L 164.366857 551.472501 
L 165.071961 545.19101 
L 165.777064 536.574097 
L 166.482167 533.755479 
L 167.18727 525.621758 
L 167.892373 519.420802 
L 168.597476 511.528672 
L 169.302579 506.133037 
L 170.007682 497.355054 
L 172.828094 452.901447 
L 173.533198 438.808353 
L 174.238301 428.741874 
L 177.763816 345.793999 
L 179.879125 291.59604 
L 180.584228 269.932948 
L 181.289331 253.26285 
L 181.994435 242.068917 
L 183.404641 210.82252 
L 184.109744 199.548063 
L 184.814847 183.20009 
L 186.225053 168.704316 
L 186.930156 157.349335 
L 187.635259 149.940386 
L 188.340362 144.786346 
L 189.045465 138.665929 
L 189.750568 134.961469 
L 190.455672 129.0021 
L 191.865878 125.217086 
L 192.570981 117.244439 
L 193.276084 114.103707 
L 193.981187 112.009875 
L 194.68629 107.58061 
L 195.391393 107.419532 
L 196.096496 103.634549 
L 197.506702 104.359324 
L 198.211805 100.735388 
L 198.916908 101.218592 
L 199.622012 97.755704 
L 200.327115 98.238907 
L 201.032218 95.742426 
L 201.737321 95.742426 
L 202.442424 97.27253 
L 203.147527 97.916782 
L 203.85263 96.225599 
L 204.557733 95.098175 
L 205.262836 92.52114 
L 205.967939 90.507832 
L 206.673042 89.380407 
L 207.378145 88.977728 
L 208.083249 91.232637 
L 208.788352 90.26626 
L 209.493455 90.66891 
L 210.198558 89.460931 
L 210.903661 89.622009 
L 211.608764 91.957412 
L 212.313867 91.71581 
L 213.01897 93.729118 
L 213.724073 91.071559 
L 214.429176 89.460931 
L 215.134279 87.206052 
L 215.839382 88.252953 
L 216.544486 88.494554 
L 217.249589 88.977728 
L 217.954692 90.66891 
L 218.659795 90.105182 
L 219.364898 92.199014 
L 220.070001 90.66891 
L 220.775104 89.541455 
L 221.480207 87.3671 
L 222.18531 85.998073 
L 222.890413 86.803372 
L 223.595516 84.306891 
L 224.300619 85.11222 
L 225.005723 85.031666 
L 225.710826 84.306891 
L 226.415929 83.984766 
L 227.121032 84.709541 
L 227.826135 83.582116 
L 228.531238 84.467939 
L 229.236341 84.951142 
L 229.941444 84.145813 
L 230.646547 85.836995 
L 232.056753 86.722848 
L 232.761856 88.333476 
L 233.46696 89.541455 
L 234.172063 89.863581 
L 234.877166 88.81668 
L 235.582269 87.125498 
L 236.287372 87.044974 
L 237.697578 84.629017 
L 239.107784 85.836995 
L 239.812887 85.031666 
L 240.51799 85.11222 
L 241.223093 85.353792 
L 242.6333 89.944135 
L 243.338403 89.541455 
L 244.043506 90.024659 
L 244.748609 87.850303 
L 245.453712 86.803372 
L 246.158815 87.769749 
L 246.863918 85.273268 
L 247.569021 83.66264 
L 248.274124 83.743164 
L 248.979227 85.273268 
L 249.68433 85.031666 
L 250.389433 84.306891 
L 251.094537 85.273268 
L 251.79964 84.870619 
L 253.209846 84.467939 
L 255.325155 83.421038 
L 256.030258 83.018389 
L 257.440464 84.709541 
L 258.145567 84.145813 
L 259.555774 85.434346 
L 260.260877 85.11222 
L 261.671083 83.66264 
L 263.786392 84.467939 
L 265.196598 85.675917 
L 266.606804 85.51487 
L 267.311907 84.709541 
L 268.017011 85.273268 
L 268.722114 87.286576 
L 269.427217 88.575078 
L 270.13232 86.722848 
L 270.837423 84.548493 
L 272.247629 85.273268 
L 272.952732 84.870619 
L 273.657835 85.031666 
L 274.362938 84.790095 
L 275.068041 83.823688 
L 275.773144 83.098913 
L 276.478247 83.25996 
L 277.183351 82.776787 
L 277.888454 83.179436 
L 279.29866 82.21306 
L 280.003763 82.132536 
L 281.413969 81.649332 
L 282.824175 82.454661 
L 283.529278 84.145813 
L 284.234381 84.709541 
L 284.939484 85.11222 
L 285.644588 85.031666 
L 286.349691 85.353792 
L 287.054794 85.434346 
L 287.759897 86.722848 
L 288.465 85.836995 
L 289.170103 85.917519 
L 289.875206 84.870619 
L 290.580309 85.51487 
L 291.285412 84.548493 
L 291.990515 85.11222 
L 292.695618 84.790095 
L 293.400721 84.709541 
L 294.105825 85.031666 
L 294.810928 83.501562 
L 295.516031 83.743164 
L 296.221134 82.937835 
L 296.926237 82.374137 
L 297.63134 82.374137 
L 298.336443 82.132536 
L 299.746649 82.051982 
L 300.451752 83.743164 
L 301.156855 81.890934 
L 301.861958 82.374137 
L 302.567062 81.327206 
L 303.272165 81.327206 
L 303.977268 82.21306 
L 304.682371 82.21306 
L 306.092577 83.018389 
L 306.79768 84.226367 
L 307.502783 85.998073 
L 308.207886 85.031666 
L 308.912989 84.467939 
L 309.618092 84.629017 
L 310.323195 83.421038 
L 311.733402 83.179436 
L 312.438505 84.065289 
L 313.143608 82.454661 
L 314.553814 81.890934 
L 315.258917 83.179436 
L 315.96402 83.66264 
L 316.669123 82.535185 
L 317.374226 83.340514 
L 318.079329 83.25996 
L 318.784432 84.467939 
L 319.489535 83.984766 
L 320.194639 83.904242 
L 320.899742 83.984766 
L 321.604845 82.937835 
L 322.309948 82.857311 
L 323.015051 82.615709 
L 323.720154 83.340514 
L 324.425257 82.696263 
L 325.13036 82.293583 
L 325.835463 81.488284 
L 326.540566 82.21306 
L 327.245669 81.890934 
L 327.950772 82.937835 
L 328.655876 82.857311 
L 329.360979 83.501562 
L 330.066082 83.018389 
L 330.771185 82.776787 
L 331.476288 82.696263 
L 332.181391 81.327206 
L 333.591597 83.421038 
L 334.2967 82.454661 
L 335.001803 83.098913 
L 335.706906 84.467939 
L 336.412009 84.226367 
L 337.117113 84.306891 
L 337.822216 82.293583 
L 338.527319 81.488284 
L 339.232422 82.937835 
L 339.937525 82.535185 
L 340.642628 82.937835 
L 342.757937 83.421038 
L 343.46304 83.421038 
L 344.168143 82.696263 
L 344.873246 83.098913 
L 345.57835 83.340514 
L 346.283453 83.340514 
L 346.988556 81.729856 
L 347.693659 81.890934 
L 348.398762 81.649332 
L 349.808968 82.535185 
L 350.514071 81.81041 
L 351.219174 81.890934 
L 351.924277 81.81041 
L 352.62938 82.937835 
L 353.334483 83.582116 
L 354.039586 81.890934 
L 354.74469 83.25996 
L 355.449793 83.179436 
L 356.154896 82.615709 
L 356.859999 81.729856 
L 357.565102 82.696263 
L 358.270205 82.937835 
L 358.975308 82.776787 
L 359.680411 81.085605 
L 360.385514 82.293583 
L 361.090617 81.971458 
L 362.500823 82.776787 
L 363.91103 80.763479 
L 364.616133 81.40773 
L 365.321236 81.085605 
L 366.026339 81.40773 
L 367.436545 80.924557 
L 368.141648 80.521877 
L 368.846751 80.763479 
L 370.256957 81.729856 
L 370.96206 82.535185 
L 371.667164 82.293583 
L 372.372267 82.776787 
L 373.07737 83.018389 
L 373.782473 83.098913 
L 374.487576 81.81041 
L 375.897782 82.535185 
L 376.602885 82.132536 
L 377.307988 85.273268 
L 378.013091 83.582116 
L 378.718194 84.065289 
L 379.423297 83.25996 
L 380.128401 82.857311 
L 380.833504 82.293583 
L 381.538607 81.568808 
L 382.24371 81.40773 
L 382.948813 81.005081 
L 383.653916 80.36083 
L 384.359019 81.246683 
L 385.064122 80.521877 
L 385.769225 80.682955 
L 386.474328 80.602431 
L 387.179431 80.36083 
L 387.884534 80.844003 
L 388.589637 81.488284 
L 389.294741 81.40773 
L 389.999844 82.293583 
L 390.704947 82.374137 
L 391.41005 82.615709 
L 392.115153 83.340514 
L 392.820256 83.904242 
L 394.230462 83.984766 
L 394.935565 83.098913 
L 395.640668 83.340514 
L 397.050874 81.81041 
L 398.461081 81.005081 
L 399.166184 80.924557 
L 399.871287 81.005081 
L 400.57639 81.568808 
L 402.691699 81.40773 
L 403.396802 81.40773 
L 404.101905 80.682955 
L 404.807008 80.521877 
L 405.512111 80.924557 
L 406.217215 81.005081 
L 406.922318 81.729856 
L 407.627421 81.327206 
L 408.332524 81.40773 
L 409.037627 81.729856 
L 410.447833 82.937835 
L 411.152936 81.81041 
L 411.858039 83.098913 
L 412.563142 81.568808 
L 413.268245 82.857311 
L 413.973348 81.890934 
L 414.678452 83.098913 
L 415.383555 81.81041 
L 416.793761 82.051982 
L 417.498864 82.454661 
L 418.203967 82.132536 
L 418.90907 81.246683 
L 419.614173 81.81041 
L 420.319276 81.568808 
L 421.024379 80.682955 
L 422.434585 80.844003 
L 423.139688 80.602431 
L 424.549895 80.682955 
L 425.254998 81.166159 
L 425.960101 81.488284 
L 426.665204 82.293583 
L 427.370307 83.340514 
L 428.07541 81.488284 
L 428.780513 81.890934 
L 429.485616 81.890934 
L 430.190719 82.535185 
L 431.600925 81.971458 
L 432.306029 81.40773 
L 433.716235 80.682955 
L 435.126441 81.085605 
L 435.831544 81.649332 
L 436.536647 82.374137 
L 437.24175 82.132536 
L 437.946853 82.051982 
L 438.651956 82.132536 
L 439.357059 82.051982 
L 440.062162 81.327206 
L 440.767266 81.971458 
L 441.472369 80.924557 
L 442.177472 81.166159 
L 442.882575 81.81041 
L 443.587678 81.971458 
L 444.997884 81.005081 
L 445.702987 81.649332 
L 446.40809 81.246683 
L 447.113193 80.441353 
L 447.818296 81.40773 
L 448.523399 80.36083 
L 449.228503 81.085605 
L 449.933606 80.682955 
L 450.638709 80.602431 
L 451.343812 80.199752 
L 452.048915 80.521877 
L 452.754018 80.280306 
L 453.459121 80.844003 
L 454.164224 80.280306 
L 456.279533 80.441353 
L 456.984636 80.441353 
L 457.68974 82.535185 
L 458.394843 82.293583 
L 459.099946 82.374137 
L 459.805049 82.857311 
L 460.510152 82.21306 
L 461.215255 82.535185 
L 461.920358 81.40773 
L 462.625461 80.924557 
L 464.035667 80.924557 
L 465.445873 81.971458 
L 466.150976 81.40773 
L 466.85608 81.327206 
L 467.561183 81.40773 
L 468.266286 81.005081 
L 468.971389 81.81041 
L 469.676492 80.682955 
L 470.381595 80.521877 
L 471.791801 81.005081 
L 472.496904 80.602431 
L 473.202007 80.844003 
L 473.90711 80.763479 
L 474.612213 80.521877 
L 475.317317 80.602431 
L 476.02242 80.119228 
L 477.432626 80.682955 
L 478.137729 80.280306 
L 478.842832 80.763479 
L 479.547935 80.36083 
L 480.253038 80.521877 
L 480.958141 80.36083 
L 481.663244 80.602431 
L 482.368347 80.602431 
L 483.07345 82.132536 
L 483.778554 81.488284 
L 484.483657 81.649332 
L 485.18876 82.535185 
L 486.598966 80.924557 
L 487.304069 81.971458 
L 488.009172 81.729856 
L 488.714275 81.085605 
L 489.419378 81.085605 
L 490.124481 81.40773 
L 490.829584 80.280306 
L 491.534687 81.568808 
L 492.239791 81.327206 
L 492.944894 81.568808 
L 493.649997 80.602431 
L 494.3551 80.763479 
L 495.060203 80.521877 
L 495.765306 81.166159 
L 496.470409 81.246683 
L 497.880615 81.729856 
L 498.585718 81.488284 
L 499.290821 80.682955 
L 500.701027 81.005081 
L 501.406131 80.682955 
L 502.111234 80.521877 
L 502.816337 80.521877 
L 503.52144 80.199752 
L 504.226543 80.038704 
L 505.636749 79.95818 
L 506.341852 80.280306 
L 507.046955 79.95818 
L 507.752058 80.199752 
L 508.457161 80.682955 
L 509.162264 79.95818 
L 510.572471 80.280306 
L 511.277574 80.038704 
L 512.68778 80.36083 
L 513.392883 80.763479 
L 514.803089 81.166159 
L 515.508192 80.924557 
L 516.213295 80.844003 
L 516.918398 80.602431 
L 517.623501 82.051982 
L 518.328605 81.971458 
L 519.033708 83.098913 
L 519.738811 80.924557 
L 520.443914 81.166159 
L 522.559223 81.327206 
L 523.264326 81.005081 
L 524.674532 81.246683 
L 526.789842 82.21306 
L 527.494945 81.488284 
L 528.200048 81.729856 
L 528.905151 80.280306 
L 530.315357 80.038704 
L 531.02046 80.36083 
L 531.725563 80.441353 
L 532.430666 79.95818 
L 533.135769 80.36083 
L 533.840872 80.038704 
L 534.545975 79.877626 
L 535.251078 80.119228 
L 537.366388 79.877626 
L 538.071491 80.199752 
L 538.776594 80.199752 
L 539.481697 80.36083 
L 540.1868 80.038704 
L 540.891903 80.119228 
L 541.597006 80.441353 
L 543.007212 80.682955 
L 543.712315 81.81041 
L 544.417419 81.327206 
L 545.122522 81.085605 
L 545.827625 81.488284 
L 546.532728 81.40773 
L 547.237831 81.890934 
L 547.942934 81.085605 
L 548.648037 80.763479 
L 549.35314 80.682955 
L 550.058243 80.924557 
L 550.763346 80.441353 
L 551.468449 80.119228 
L 552.878656 80.038704 
L 553.583759 79.877626 
L 554.288862 80.199752 
L 555.699068 80.199752 
L 556.404171 80.36083 
L 557.109274 80.038704 
L 558.51948 80.199752 
L 559.224583 80.441353 
L 559.929686 80.199752 
L 562.750099 80.280306 
L 563.455202 81.005081 
L 564.160305 81.246683 
L 564.865408 81.166159 
L 565.570511 80.924557 
L 566.275614 80.280306 
L 566.980717 81.327206 
L 567.68582 80.602431 
L 568.390923 80.682955 
L 569.096026 81.005081 
L 569.80113 80.199752 
L 570.506233 80.763479 
L 571.211336 80.36083 
L 571.916439 80.602431 
L 572.621542 80.280306 
L 573.326645 80.280306 
L 574.031748 80.602431 
L 574.736851 80.280306 
L 575.441954 80.119228 
L 576.147057 80.36083 
L 576.85216 80.280306 
L 577.557263 80.038704 
L 578.262366 80.441353 
L 578.96747 80.038704 
L 580.377676 80.199752 
L 581.082779 80.038704 
L 582.492985 80.199752 
L 583.198088 80.521877 
L 586.0185 80.521877 
L 586.723603 80.924557 
L 588.13381 81.166159 
L 588.838913 81.166159 
L 589.544016 81.971458 
L 590.954222 80.521877 
L 592.364428 80.602431 
L 593.069531 79.95818 
L 593.774634 80.119228 
L 594.479737 80.602431 
L 595.889944 80.119228 
L 596.595047 80.602431 
L 597.30015 80.280306 
L 598.005253 80.199752 
L 598.710356 79.797102 
L 599.415459 80.119228 
L 600.120562 80.280306 
L 600.825665 79.95818 
L 602.235871 80.521877 
L 602.940974 81.568808 
L 603.646077 81.568808 
L 604.351181 81.005081 
L 605.056284 80.763479 
L 605.761387 80.924557 
L 606.46649 80.844003 
L 607.876696 80.280306 
L 609.286902 79.877626 
L 609.992005 79.95818 
L 611.402211 79.877626 
L 612.107314 79.95818 
L 613.517521 80.441353 
L 614.222624 79.95818 
L 614.927727 80.199752 
L 615.63283 79.797102 
L 616.337933 79.95818 
L 617.043036 80.280306 
L 617.748139 80.038704 
L 618.453242 80.119228 
L 619.158345 80.36083 
L 619.863448 80.763479 
L 620.568551 80.36083 
L 621.273654 80.602431 
L 621.978758 80.521877 
L 622.683861 80.844003 
L 623.388964 81.971458 
L 624.094067 81.166159 
L 624.79917 81.488284 
L 625.504273 81.005081 
L 626.209376 80.280306 
L 626.914479 80.038704 
L 627.619582 80.038704 
L 629.029788 79.797102 
L 629.734891 80.199752 
L 630.439995 79.877626 
L 631.850201 80.441353 
L 632.555304 80.441353 
L 633.260407 80.602431 
L 634.670613 80.682955 
L 635.375716 81.246683 
L 636.080819 80.844003 
L 636.785922 80.682955 
L 638.196128 80.119228 
L 638.901232 80.441353 
L 639.606335 80.119228 
L 641.016541 79.877626 
L 641.721644 79.797102 
L 642.426747 79.95818 
L 643.13185 79.877626 
L 643.836953 79.95818 
L 644.542056 79.797102 
L 645.247159 79.877626 
L 645.952262 80.199752 
L 646.657365 79.797102 
L 647.362468 79.95818 
L 650.182881 80.038704 
L 650.887984 80.36083 
L 652.29819 80.038704 
L 653.003293 80.199752 
L 654.413499 79.95818 
L 655.118602 80.36083 
L 655.823705 80.119228 
L 656.528809 80.36083 
L 657.233912 81.005081 
L 657.939015 81.327206 
L 658.644118 80.682955 
L 659.349221 80.682955 
L 660.054324 80.924557 
L 660.759427 81.005081 
L 662.169633 80.441353 
L 662.874736 80.521877 
L 663.579839 80.280306 
L 664.284942 80.36083 
L 664.990046 80.199752 
L 665.695149 79.797102 
L 667.105355 80.038704 
L 667.810458 80.119228 
L 669.925767 79.877626 
L 671.335973 80.038704 
L 672.041076 79.95818 
L 672.746179 80.36083 
L 673.451283 80.441353 
L 674.156386 80.199752 
L 674.861489 80.36083 
L 675.566592 80.682955 
L 676.271695 80.521877 
L 676.976798 80.199752 
L 677.681901 80.521877 
L 678.387004 80.280306 
L 679.092107 80.682955 
L 679.79721 80.280306 
L 681.207416 80.441353 
L 681.91252 80.038704 
L 682.617623 79.95818 
L 684.027829 80.682955 
L 684.732932 80.280306 
L 685.438035 80.521877 
L 686.143138 80.038704 
L 686.848241 80.119228 
L 688.258447 79.877626 
L 690.373756 80.280306 
L 691.07886 80.280306 
L 691.783963 80.441353 
L 692.489066 79.95818 
L 693.194169 80.924557 
L 693.899272 80.844003 
L 694.604375 80.441353 
L 695.309478 80.36083 
L 696.014581 79.877626 
L 696.719684 80.280306 
L 697.424787 80.038704 
L 698.834993 80.280306 
L 699.540097 80.199752 
L 700.2452 80.280306 
L 702.360509 79.877626 
L 704.475818 80.119228 
L 705.180921 79.95818 
L 709.41154 79.877626 
L 710.116643 79.797102 
L 711.526849 80.038704 
L 712.937055 80.199752 
L 713.642158 80.682955 
L 715.052364 80.280306 
L 716.462571 80.521877 
L 717.167674 80.199752 
L 717.872777 80.521877 
L 718.57788 80.280306 
L 719.988086 80.521877 
L 720.693189 80.038704 
L 721.398292 79.95818 
L 722.103395 80.119228 
L 725.628911 79.797102 
L 734.090148 79.877626 
L 734.795251 80.844003 
L 735.500354 80.844003 
L 736.205457 81.649332 
L 736.91056 80.844003 
L 737.615663 80.36083 
L 738.320766 80.682955 
L 739.025869 80.763479 
L 741.141178 80.119228 
L 741.846281 80.119228 
L 742.551385 80.280306 
L 743.256488 79.877626 
L 744.666694 79.797102 
L 774.281023 79.797102 
L 774.986126 80.119228 
L 775.691229 80.280306 
L 776.396332 80.682955 
L 777.101436 81.40773 
L 777.806539 80.924557 
L 778.511642 81.166159 
L 779.216745 80.682955 
L 779.921848 80.682955 
L 780.626951 80.36083 
L 782.037157 79.95818 
L 782.74226 80.280306 
L 784.857569 80.36083 
L 785.562673 80.521877 
L 786.972879 79.797102 
L 787.677982 79.95818 
L 789.088188 79.95818 
L 789.793291 79.797102 
L 790.498394 79.877626 
L 791.9086 79.797102 
L 795.434116 79.877626 
L 796.139219 79.95818 
L 797.549425 80.521877 
L 798.254528 80.844003 
L 798.959631 81.40773 
L 799.664734 80.763479 
L 800.369837 80.924557 
L 801.07494 80.119228 
L 801.780043 80.844003 
L 803.895353 79.95818 
L 804.600456 80.038704 
L 805.305559 79.797102 
L 806.010662 79.877626 
L 806.715765 79.797102 
L 808.831074 79.95818 
L 809.536177 79.797102 
L 834.214785 79.877626 
L 834.919888 80.36083 
L 835.624991 81.568808 
L 836.330094 81.166159 
L 837.035197 80.521877 
L 837.740301 80.682955 
L 838.445404 81.166159 
L 839.150507 81.005081 
L 839.85561 80.199752 
L 840.560713 79.95818 
L 841.265816 80.038704 
L 841.970919 79.877626 
L 842.676022 80.038704 
L 843.381125 80.038704 
L 844.086228 79.797102 
L 849.02195 79.877626 
L 849.727053 80.119228 
L 850.432156 79.95818 
L 851.137259 80.602431 
L 851.842362 80.844003 
L 852.547465 80.199752 
L 853.252568 80.602431 
L 853.957671 80.038704 
L 854.662775 80.199752 
L 855.367878 79.95818 
L 856.072981 80.038704 
L 856.778084 79.877626 
L 857.483187 79.95818 
L 858.18829 79.797102 
L 858.893393 79.95818 
L 861.008702 79.877626 
L 862.418908 79.797102 
L 885.68731 79.877626 
L 886.392413 80.924557 
L 887.097516 80.441353 
L 887.802619 81.166159 
L 888.507722 81.085605 
L 889.917929 80.441353 
L 891.328135 80.199752 
L 892.033238 80.521877 
L 892.738341 80.038704 
L 894.85365 79.797102 
L 895.558753 80.119228 
L 896.968959 79.877626 
L 907.545506 79.877626 
L 908.955712 80.119228 
L 910.365918 80.199752 
L 911.776124 80.924557 
L 912.481227 80.924557 
L 913.18633 80.280306 
L 913.891433 80.199752 
L 914.596536 79.95818 
L 915.30164 79.95818 
L 916.006743 80.119228 
L 916.711846 80.119228 
L 917.416949 80.441353 
L 918.122052 80.36083 
L 918.827155 79.95818 
L 919.532258 80.038704 
L 922.35267 79.797102 
L 927.993495 79.877626 
L 928.698598 80.119228 
L 930.813907 80.119228 
L 931.51901 80.36083 
L 932.224114 80.038704 
L 932.929217 80.199752 
L 933.63432 79.95818 
L 935.044526 79.797102 
L 935.749629 79.95818 
L 936.454732 79.797102 
L 963.953752 79.797102 
L 964.658855 80.038704 
L 965.363958 80.441353 
L 966.069061 80.682955 
L 966.774165 80.682955 
L 967.479268 80.521877 
L 968.184371 80.682955 
L 968.889474 80.280306 
L 969.594577 80.199752 
L 970.29968 80.280306 
L 971.004783 79.95818 
L 972.414989 80.038704 
L 973.825195 79.797102 
L 980.171123 79.797102 
L 980.876226 80.038704 
L 981.581329 80.521877 
L 982.286432 79.877626 
L 982.991535 79.95818 
L 983.696639 79.877626 
L 984.401742 80.038704 
L 986.517051 79.877626 
L 987.222154 80.038704 
L 987.927257 79.877626 
L 990.747669 79.877626 
L 991.452772 80.038704 
L 992.862979 79.95818 
L 994.978288 80.36083 
L 996.388494 80.119228 
L 997.093597 79.95818 
L 998.503803 79.95818 
L 999.208906 80.199752 
L 1000.619112 79.797102 
L 1001.324216 79.877626 
L 1002.029319 79.797102 
L 1002.734422 79.877626 
L 1003.439525 80.199752 
L 1003.439525 80.199752 
" clip-path="url(#p3dd27eb8ec)" style="fill: none; stroke: #4c72b0; stroke-width: 2; stroke-linecap: round"/>
   </g>
   <g id="line2d_15">
    <path d="M 158.02093 580.866648 
L 158.726033 582.396754 
L 159.431136 582.557818 
L 160.136239 584.087924 
L 160.841342 583.92686 
L 161.546445 584.168456 
L 162.251548 584.248988 
L 162.956651 584.571116 
L 164.366857 584.651648 
L 165.071961 584.410052 
L 165.777064 584.490584 
L 166.482167 584.248988 
L 167.18727 584.168456 
L 167.892373 584.248988 
L 168.597476 584.168456 
L 169.302579 584.410052 
L 170.007682 584.168456 
L 171.417888 584.087924 
L 172.122991 583.765797 
L 172.828094 584.168456 
L 173.533198 583.685265 
L 174.238301 583.846328 
L 176.35361 583.685265 
L 177.058713 583.846328 
L 177.763816 583.282605 
L 178.468919 583.202073 
L 179.174022 583.443669 
L 180.584228 582.63835 
L 181.289331 582.396754 
L 181.994435 582.960477 
L 182.699538 581.994094 
L 183.404641 581.994094 
L 184.109744 582.799414 
L 184.814847 581.913563 
L 185.51995 581.510903 
L 186.930156 581.591435 
L 188.340362 581.027711 
L 189.045465 581.591435 
L 189.750568 581.349839 
L 190.455672 580.786116 
L 191.160775 581.108244 
L 191.865878 581.188775 
L 192.570981 581.510903 
L 193.276084 581.671967 
L 193.981187 580.94718 
L 194.68629 581.269308 
L 196.096496 580.786116 
L 196.801599 580.383456 
L 197.506702 581.269308 
L 198.211805 580.061329 
L 198.916908 580.705584 
L 199.622012 580.786116 
L 200.327115 581.188775 
L 201.032218 581.108244 
L 201.737321 580.705584 
L 203.147527 580.786116 
L 203.85263 580.786116 
L 204.557733 581.108244 
L 205.262836 580.222393 
L 205.967939 580.625053 
L 206.673042 579.980797 
L 207.378145 579.980797 
L 208.083249 580.705584 
L 208.788352 580.383456 
L 209.493455 579.578138 
L 210.198558 579.497605 
L 210.903661 579.980797 
L 211.608764 579.578138 
L 212.313867 579.578138 
L 213.01897 579.980797 
L 213.724073 579.739201 
L 214.429176 579.739201 
L 215.134279 580.061329 
L 216.544486 579.819733 
L 217.249589 579.980797 
L 217.954692 579.578138 
L 218.659795 579.578138 
L 219.364898 579.739201 
L 220.070001 580.061329 
L 220.775104 578.85335 
L 221.480207 579.336542 
L 222.18531 579.094945 
L 222.890413 578.370159 
L 223.595516 578.933882 
L 224.300619 579.175478 
L 225.005723 578.692287 
L 225.710826 577.564839 
L 226.415929 578.209094 
L 227.121032 579.497605 
L 227.826135 578.45069 
L 228.531238 578.209094 
L 229.236341 578.370159 
L 229.941444 578.370159 
L 230.646547 578.85335 
L 231.35165 578.692287 
L 232.056753 578.692287 
L 232.761856 579.175478 
L 233.46696 578.209094 
L 234.172063 578.209094 
L 234.877166 577.725903 
L 235.582269 578.370159 
L 236.287372 578.370159 
L 236.992475 577.16218 
L 237.697578 577.403776 
L 238.402681 577.806435 
L 239.107784 578.048031 
L 239.812887 576.840052 
L 240.51799 577.484308 
L 241.223093 578.370159 
L 241.928196 577.16218 
L 242.6333 577.323244 
L 243.338403 577.323244 
L 244.043506 576.759521 
L 245.453712 577.16218 
L 246.158815 577.645372 
L 247.569021 576.920584 
L 248.274124 576.195797 
L 248.979227 577.081648 
L 249.68433 576.598457 
L 250.389433 577.242712 
L 251.094537 577.564839 
L 251.79964 576.840052 
L 252.504743 576.598457 
L 253.209846 575.873669 
L 253.914949 575.632073 
L 254.620052 575.873669 
L 255.325155 575.068351 
L 256.030258 575.390478 
L 256.735361 574.907287 
L 257.440464 574.665691 
L 258.145567 575.309946 
L 258.85067 574.424095 
L 260.260877 575.632073 
L 260.96598 574.746222 
L 261.671083 574.585158 
L 262.376186 574.746222 
L 263.081289 575.712606 
L 263.786392 574.826755 
L 264.491495 574.343563 
L 265.196598 575.229414 
L 265.901701 574.263031 
L 266.606804 574.504627 
L 267.311907 574.343563 
L 268.017011 573.538244 
L 268.722114 574.101967 
L 269.427217 574.021436 
L 270.13232 571.766541 
L 270.837423 572.410796 
L 271.542526 571.927606 
L 272.247629 572.249734 
L 272.952732 571.363882 
L 273.657835 571.363882 
L 274.362938 570.236435 
L 275.068041 571.766541 
L 275.773144 572.249734 
L 276.478247 570.88069 
L 277.183351 571.283351 
L 277.888454 571.041755 
L 278.593557 569.189521 
L 279.29866 569.672712 
L 280.003763 568.867394 
L 280.708866 570.155904 
L 281.413969 570.3975 
L 282.119072 569.350584 
L 282.824175 568.786861 
L 283.529278 570.800159 
L 284.234381 571.122286 
L 284.939484 568.947925 
L 285.644588 569.108988 
L 286.349691 569.994839 
L 287.054794 569.511649 
L 288.465 569.994839 
L 289.170103 570.478031 
L 289.875206 569.431117 
L 290.580309 568.947925 
L 291.285412 568.706329 
L 291.990515 567.901009 
L 292.695618 567.901009 
L 293.400721 568.142606 
L 294.105825 566.773564 
L 294.810928 566.854096 
L 295.516031 568.625798 
L 296.221134 568.223139 
L 296.926237 568.706329 
L 297.63134 565.082393 
L 298.336443 565.646117 
L 299.041546 566.531968 
L 299.746649 565.646117 
L 300.451752 565.082393 
L 301.156855 566.773564 
L 301.861958 566.129309 
L 302.567062 566.048776 
L 303.272165 566.290372 
L 303.977268 566.048776 
L 304.682371 565.162925 
L 305.387474 564.599201 
L 306.79768 565.646117 
L 307.502783 564.599201 
L 308.207886 564.51867 
L 308.912989 563.632819 
L 309.618092 565.162925 
L 310.323195 563.874415 
L 311.028298 564.035479 
L 311.733402 563.310691 
L 312.438505 561.619522 
L 313.143608 565.646117 
L 313.848711 562.183244 
L 314.553814 562.102712 
L 315.258917 562.585905 
L 315.96402 561.700054 
L 316.669123 561.297393 
L 317.374226 562.42484 
L 318.079329 561.055799 
L 318.784432 561.216861 
L 319.489535 559.84782 
L 320.194639 559.445159 
L 320.899742 558.800904 
L 321.604845 557.75399 
L 322.309948 555.66016 
L 323.015051 557.834522 
L 323.720154 557.109733 
L 324.425257 557.2708 
L 325.13036 553.96899 
L 326.540566 553.405266 
L 327.245669 555.740692 
L 328.655876 552.438882 
L 329.360979 553.807927 
L 330.066082 552.922074 
L 330.771185 552.35835 
L 331.476288 553.485797 
L 332.181391 555.418562 
L 332.886494 551.553032 
L 333.591597 552.277819 
L 334.2967 552.116756 
L 335.001803 550.264522 
L 336.412009 553.324735 
L 337.117113 551.794627 
L 337.822216 548.976012 
L 338.527319 548.653883 
L 339.232422 548.976012 
L 339.937525 545.352077 
L 340.642628 544.385692 
L 341.347731 548.170691 
L 342.052834 547.123779 
L 342.757937 545.593671 
L 343.46304 548.170691 
L 344.168143 547.768034 
L 344.873246 543.338776 
L 345.57835 544.063567 
L 346.283453 543.258245 
L 346.988556 543.741437 
L 347.693659 540.922819 
L 348.398762 541.164417 
L 349.103865 538.909523 
L 349.808968 539.473246 
L 350.514071 540.520162 
L 351.219174 536.413034 
L 351.924277 538.104205 
L 352.62938 538.828991 
L 353.334483 535.44665 
L 354.039586 538.74846 
L 354.74469 536.574097 
L 355.449793 536.73516 
L 356.154896 538.667928 
L 356.859999 533.674947 
L 357.565102 532.064312 
L 358.270205 531.339522 
L 358.975308 530.131543 
L 359.680411 530.775798 
L 360.385514 531.178459 
L 361.090617 533.27229 
L 362.500823 528.279309 
L 363.91103 522.158885 
L 364.616133 521.353563 
L 365.321236 522.803144 
L 366.026339 520.306655 
L 366.731442 526.588139 
L 367.436545 523.205801 
L 368.141648 521.836759 
L 368.846751 515.796866 
L 369.551854 518.051761 
L 370.256957 519.742928 
L 370.96206 521.031438 
L 371.667164 520.306655 
L 372.372267 516.118992 
L 373.07737 521.111969 
L 373.782473 516.763251 
L 374.487576 515.716335 
L 375.192679 512.495056 
L 375.897782 514.347293 
L 376.602885 513.864097 
L 377.307988 515.635803 
L 378.013091 516.03846 
L 378.718194 516.199523 
L 379.423297 513.300378 
L 380.128401 513.058776 
L 382.24371 504.039206 
L 382.948813 503.072821 
L 383.653916 503.878143 
L 384.359019 497.999313 
L 385.064122 495.019628 
L 385.769225 493.731118 
L 386.474328 492.039951 
L 387.179431 492.201014 
L 387.884534 495.905481 
L 388.589637 493.247929 
L 389.294741 491.556762 
L 389.999844 496.308146 
L 390.704947 494.53644 
L 391.41005 490.509847 
L 392.115153 489.865588 
L 392.820256 492.362076 
L 393.525359 493.328461 
L 394.230462 492.281545 
L 394.935565 488.496546 
L 395.640668 483.825695 
L 396.345771 481.087612 
L 397.050874 477.70527 
L 397.755978 475.772501 
L 399.166184 465.38389 
L 399.871287 463.209527 
L 400.57639 468.041441 
L 401.281493 465.222827 
L 401.986596 461.679423 
L 402.691699 462.726339 
L 403.396802 462.162611 
L 404.101905 463.773247 
L 405.512111 454.995278 
L 406.217215 457.330697 
L 406.922318 454.512075 
L 407.627421 454.592614 
L 408.332524 452.418258 
L 409.037627 449.760699 
L 409.74273 449.68016 
L 410.447833 454.834216 
L 411.152936 451.371343 
L 411.858039 451.612929 
L 413.268245 444.365057 
L 413.973348 440.902184 
L 414.678452 436.472935 
L 416.088658 429.869314 
L 417.498864 434.379103 
L 418.203967 429.869314 
L 418.90907 428.178147 
L 419.614173 428.580812 
L 420.319276 426.325917 
L 421.024379 423.265694 
L 421.729482 418.836444 
L 422.434585 410.702719 
L 423.139688 410.541656 
L 423.844792 404.501763 
L 424.549895 407.884097 
L 425.254998 411.910698 
L 425.960101 417.386863 
L 426.665204 413.843466 
L 427.370307 412.393886 
L 428.07541 415.534634 
L 428.780513 413.360278 
L 429.485616 413.360278 
L 430.895822 420.60815 
L 431.600925 416.742612 
L 433.011132 398.622933 
L 433.716235 391.777726 
L 434.421338 392.744103 
L 435.126441 392.663579 
L 435.831544 393.468893 
L 436.536647 396.931766 
L 437.24175 398.139744 
L 437.946853 397.73708 
L 438.651956 390.569747 
L 439.357059 385.174105 
L 440.062162 384.368791 
L 440.767266 377.12092 
L 441.472369 376.31559 
L 442.177472 377.362506 
L 442.882575 380.261652 
L 443.587678 380.744855 
L 444.292781 375.268675 
L 444.997884 364.719008 
L 446.40809 349.578998 
L 447.113193 352.478144 
L 447.818296 353.605599 
L 448.523399 353.444536 
L 449.228503 350.786977 
L 449.933606 344.424958 
L 450.638709 336.452296 
L 451.343812 338.385065 
L 452.048915 336.21071 
L 452.754018 336.613359 
L 453.459121 338.626667 
L 454.164224 336.693898 
L 454.869327 334.358464 
L 455.57443 330.895607 
L 456.279533 338.143463 
L 456.984636 347.001978 
L 457.68974 346.357727 
L 458.394843 360.85347 
L 459.099946 350.303788 
L 459.805049 347.807292 
L 460.510152 342.894854 
L 461.215255 342.411665 
L 461.920358 337.016024 
L 462.625461 335.888584 
L 463.330564 323.647735 
L 464.74077 317.527288 
L 465.445873 317.849444 
L 466.150976 322.117631 
L 466.85608 321.876029 
L 467.561183 317.849444 
L 468.266286 312.373248 
L 468.971389 308.185615 
L 469.676492 305.125376 
L 470.381595 294.736772 
L 471.086698 286.03932 
L 471.791801 286.925173 
L 472.496904 279.757825 
L 473.202007 284.831341 
L 473.90711 284.670294 
L 474.612213 286.361445 
L 475.317317 284.670294 
L 476.02242 278.630401 
L 476.727523 277.261344 
L 477.432626 276.697617 
L 478.842832 271.704654 
L 479.547935 270.738247 
L 480.253038 263.087726 
L 480.958141 262.362951 
L 481.663244 261.154973 
L 482.368347 273.959534 
L 483.07345 282.093258 
L 483.778554 279.435699 
L 484.483657 286.522523 
L 485.18876 278.871972 
L 485.893863 280.402076 
L 486.598966 285.556147 
L 487.304069 277.422422 
L 488.009172 271.704654 
L 488.714275 263.490376 
L 489.419378 266.953264 
L 490.124481 257.531037 
L 490.829584 259.302743 
L 491.534687 255.598253 
L 492.239791 243.921146 
L 492.944894 244.162718 
L 493.649997 244.645921 
L 494.3551 239.008678 
L 495.060203 237.720175 
L 496.470409 244.243272 
L 497.175512 246.095502 
L 497.880615 240.458258 
L 498.585718 245.451251 
L 499.290821 243.196341 
L 499.995924 239.250279 
L 500.701027 234.015716 
L 501.406131 232.485611 
L 502.111234 229.344849 
L 502.816337 229.344849 
L 503.52144 220.486349 
L 504.226543 217.748266 
L 504.931646 212.352624 
L 506.341852 198.501132 
L 507.046955 202.849873 
L 507.752058 205.749004 
L 509.162264 199.870189 
L 509.867368 200.756042 
L 510.572471 198.742734 
L 511.277574 194.071898 
L 511.982677 199.709111 
L 512.68778 200.675488 
L 514.097986 212.433148 
L 514.803089 216.701335 
L 515.508192 213.480079 
L 516.213295 215.090707 
L 516.918398 211.22517 
L 517.623501 212.67475 
L 518.328605 234.982092 
L 519.033708 223.788159 
L 520.443914 208.245485 
L 521.149017 209.856143 
L 521.85412 203.333047 
L 522.559223 204.702103 
L 523.264326 200.192314 
L 523.969429 198.501132 
L 524.674532 199.225938 
L 525.379635 207.601234 
L 526.084738 209.614542 
L 526.789842 208.889766 
L 527.494945 205.024229 
L 528.200048 194.877196 
L 530.315357 172.811456 
L 531.02046 171.603477 
L 531.725563 167.174212 
L 532.430666 165.08038 
L 533.135769 160.248466 
L 533.840872 153.967001 
L 534.545975 154.047525 
L 535.251078 155.497106 
L 535.956182 151.87317 
L 537.366388 157.590937 
L 538.071491 155.658153 
L 538.776594 156.946686 
L 539.481697 156.62453 
L 540.1868 155.658153 
L 540.891903 155.577629 
L 541.597006 152.436897 
L 542.302109 154.128049 
L 543.007212 166.852086 
L 543.712315 163.308705 
L 544.417419 168.543269 
L 545.122522 168.060065 
L 545.827625 175.79114 
L 546.532728 168.623792 
L 547.237831 167.899017 
L 547.942934 166.449437 
L 548.648037 161.939648 
L 549.35314 160.731669 
L 550.058243 148.893485 
L 550.763346 150.181988 
L 551.468449 143.658921 
L 552.173552 142.209341 
L 552.878656 140.437635 
L 553.583759 135.766768 
L 554.288862 134.075616 
L 554.993965 129.485303 
L 555.699068 134.719867 
L 556.404171 131.176455 
L 557.109274 133.914538 
L 557.814377 134.800391 
L 558.51948 131.901261 
L 559.224583 134.317218 
L 559.929686 135.927846 
L 560.634789 130.532204 
L 561.339893 134.880915 
L 562.044996 130.773806 
L 562.750099 141.242964 
L 563.455202 138.263279 
L 564.160305 139.390704 
L 564.865408 141.323488 
L 565.570511 143.981047 
L 566.275614 143.175718 
L 566.980717 139.632306 
L 567.68582 139.31018 
L 568.390923 137.699552 
L 569.096026 133.834014 
L 569.80113 139.149132 
L 570.506233 131.981785 
L 571.916439 128.035723 
L 572.621542 127.471996 
L 573.326645 131.981785 
L 574.031748 127.230394 
L 574.736851 123.364856 
L 575.441954 123.042731 
L 576.147057 119.257747 
L 576.85216 120.304648 
L 577.557263 123.84806 
L 578.262366 120.707328 
L 578.96747 123.928584 
L 579.672573 119.177193 
L 580.377676 116.197539 
L 581.082779 117.163916 
L 581.787882 113.378902 
L 582.492985 118.774544 
L 583.198088 114.98956 
L 584.608294 116.197539 
L 585.313397 113.862105 
L 586.0185 116.600188 
L 586.723603 120.224124 
L 587.428707 116.197539 
L 588.13381 119.177193 
L 588.838913 123.686982 
L 589.544016 122.317956 
L 590.249119 121.834752 
L 590.954222 123.44541 
L 592.364428 113.701027 
L 593.069531 110.640819 
L 593.774634 108.224862 
L 594.479737 107.258485 
L 595.18484 103.312423 
L 596.595047 109.674442 
L 597.30015 110.077091 
L 598.005253 109.110715 
L 598.710356 107.902736 
L 599.415459 104.198276 
L 600.120562 102.265492 
L 600.825665 101.862843 
L 602.940974 112.332001 
L 603.646077 117.324963 
L 604.351181 115.955937 
L 605.056284 110.238169 
L 605.761387 107.902736 
L 606.46649 108.546987 
L 607.171593 107.016883 
L 608.581799 100.97699 
L 609.286902 96.306153 
L 609.992005 96.386677 
L 610.697108 96.145075 
L 612.107314 94.212322 
L 612.812417 97.192006 
L 613.517521 93.97072 
L 614.222624 99.930089 
L 614.927727 97.192006 
L 615.63283 95.82295 
L 616.337933 95.661902 
L 617.043036 96.708803 
L 617.748139 99.205284 
L 618.453242 95.82295 
L 619.158345 100.091137 
L 619.863448 98.963682 
L 620.568551 100.896466 
L 621.273654 99.930089 
L 621.978758 99.930089 
L 622.683861 100.091137 
L 623.388964 102.668172 
L 624.094067 109.271793 
L 624.79917 102.265492 
L 625.504273 100.010613 
L 626.209376 97.030928 
L 626.914479 95.984028 
L 627.619582 96.467201 
L 628.324685 97.594656 
L 629.029788 96.628279 
L 629.734891 91.313161 
L 630.439995 91.393685 
L 631.145098 90.749434 
L 631.850201 93.165391 
L 632.555304 93.004343 
L 635.375716 100.252215 
L 636.080819 100.896466 
L 636.785922 97.594656 
L 637.491025 96.306153 
L 638.196128 96.064552 
L 638.901232 93.648594 
L 639.606335 92.923789 
L 640.311438 92.762741 
L 641.016541 91.313161 
L 641.721644 89.460931 
L 643.13185 87.608701 
L 643.836953 86.56177 
L 644.542056 86.722848 
L 645.247159 87.3671 
L 645.952262 89.460931 
L 646.657365 88.81668 
L 647.362468 87.769749 
L 648.067572 88.736156 
L 648.772675 88.333476 
L 649.477778 88.333476 
L 650.182881 88.977728 
L 650.887984 89.058282 
L 651.593087 88.81668 
L 652.29819 90.185706 
L 653.003293 90.749434 
L 653.708396 88.414031 
L 654.413499 89.783057 
L 655.118602 87.689225 
L 655.823705 91.554763 
L 656.528809 90.991035 
L 657.233912 94.292846 
L 657.939015 95.178699 
L 658.644118 94.453924 
L 659.349221 91.876888 
L 660.054324 90.427308 
L 660.759427 92.762741 
L 661.46453 89.944135 
L 662.169633 91.71581 
L 662.874736 89.380407 
L 663.579839 89.541455 
L 664.284942 87.930827 
L 664.990046 87.206052 
L 665.695149 86.803372 
L 666.400252 85.675917 
L 667.105355 84.306891 
L 667.810458 83.823688 
L 668.515561 84.467939 
L 669.220664 85.353792 
L 669.925767 84.467939 
L 670.63087 84.226367 
L 671.335973 84.145813 
L 672.041076 83.823688 
L 672.746179 85.756472 
L 674.156386 85.836995 
L 674.861489 85.917519 
L 675.566592 88.414031 
L 676.271695 88.333476 
L 676.976798 88.414031 
L 677.681901 87.447623 
L 678.387004 88.011351 
L 679.092107 87.850303 
L 679.79721 88.494554 
L 680.502313 86.722848 
L 681.207416 86.883896 
L 681.91252 88.252953 
L 682.617623 86.56177 
L 683.322726 86.883896 
L 684.027829 86.481247 
L 684.732932 87.689225 
L 685.438035 86.400723 
L 686.143138 85.917519 
L 687.553344 84.065289 
L 688.258447 83.823688 
L 688.96355 83.018389 
L 690.373756 86.159121 
L 691.07886 84.387415 
L 691.783963 83.984766 
L 692.489066 86.239645 
L 693.194169 86.642325 
L 693.899272 86.803372 
L 694.604375 86.642325 
L 696.014581 85.756472 
L 696.719684 85.192744 
L 697.424787 86.642325 
L 698.12989 84.870619 
L 698.834993 84.145813 
L 699.540097 84.145813 
L 700.2452 84.709541 
L 700.950303 86.159121 
L 701.655406 84.951142 
L 703.065612 83.098913 
L 703.770715 82.937835 
L 704.475818 82.535185 
L 705.180921 83.018389 
L 705.886024 83.25996 
L 708.001334 83.179436 
L 708.706437 82.776787 
L 710.116643 82.21306 
L 710.821746 82.535185 
L 711.526849 82.696263 
L 712.231952 82.535185 
L 712.937055 83.421038 
L 713.642158 83.582116 
L 715.052364 84.226367 
L 715.757467 86.56177 
L 716.462571 84.870619 
L 717.167674 84.226367 
L 717.872777 85.353792 
L 718.57788 83.501562 
L 719.282983 84.951142 
L 719.988086 83.66264 
L 721.398292 82.857311 
L 722.103395 81.488284 
L 723.513601 81.40773 
L 724.218704 82.132536 
L 727.039117 80.924557 
L 727.74422 80.924557 
L 729.154426 80.602431 
L 729.859529 80.682955 
L 731.974838 80.36083 
L 732.679941 80.844003 
L 733.385044 80.602431 
L 734.090148 81.166159 
L 736.205457 85.031666 
L 736.91056 85.595394 
L 737.615663 85.756472 
L 738.320766 84.065289 
L 739.025869 86.96445 
L 739.730972 83.098913 
L 740.436075 84.709541 
L 741.141178 84.548493 
L 741.846281 83.66264 
L 742.551385 81.649332 
L 743.256488 81.166159 
L 744.666694 80.763479 
L 746.782003 80.763479 
L 748.192209 80.521877 
L 753.833034 80.441353 
L 757.358549 80.119228 
L 759.473859 80.038704 
L 760.178962 79.877626 
L 773.57592 79.95818 
L 774.986126 80.521877 
L 775.691229 82.696263 
L 776.396332 84.467939 
L 777.101436 83.501562 
L 777.806539 84.467939 
L 778.511642 83.823688 
L 779.216745 84.065289 
L 779.921848 83.179436 
L 780.626951 83.984766 
L 781.332054 81.649332 
L 782.037157 84.145813 
L 782.74226 82.535185 
L 783.447363 81.568808 
L 784.152466 81.729856 
L 784.857569 83.098913 
L 785.562673 81.890934 
L 786.267776 81.246683 
L 786.972879 81.40773 
L 788.383085 80.844003 
L 789.088188 81.246683 
L 789.793291 81.085605 
L 790.498394 80.521877 
L 791.203497 80.682955 
L 791.9086 80.521877 
L 793.318806 80.441353 
L 794.02391 80.280306 
L 794.729013 80.844003 
L 795.434116 81.729856 
L 796.139219 81.568808 
L 796.844322 80.763479 
L 797.549425 81.40773 
L 798.254528 81.649332 
L 798.959631 82.293583 
L 799.664734 82.454661 
L 800.369837 82.374137 
L 801.07494 85.998073 
L 801.780043 81.729856 
L 802.485146 82.21306 
L 803.895353 81.568808 
L 804.600456 81.649332 
L 805.305559 81.40773 
L 806.010662 81.005081 
L 806.715765 81.005081 
L 808.125971 80.441353 
L 809.536177 80.763479 
L 811.651487 80.36083 
L 812.35659 80.36083 
L 813.766796 80.119228 
L 820.112724 80.038704 
L 822.228033 79.877626 
L 833.509682 79.797102 
L 834.214785 80.280306 
L 834.919888 81.649332 
L 835.624991 82.293583 
L 837.035197 82.21306 
L 837.740301 81.649332 
L 838.445404 82.696263 
L 839.150507 81.649332 
L 839.85561 81.568808 
L 840.560713 81.246683 
L 841.265816 81.40773 
L 841.970919 82.051982 
L 842.676022 80.763479 
L 847.611744 80.280306 
L 848.316847 80.602431 
L 849.02195 80.280306 
L 850.432156 81.40773 
L 851.137259 81.729856 
L 851.842362 82.293583 
L 852.547465 81.649332 
L 853.252568 80.844003 
L 853.957671 80.602431 
L 854.662775 80.924557 
L 855.367878 80.36083 
L 856.072981 80.763479 
L 856.778084 80.602431 
L 857.483187 80.038704 
L 858.18829 80.119228 
L 858.893393 79.877626 
L 859.598496 80.441353 
L 860.303599 80.36083 
L 861.008702 80.119228 
L 861.713805 80.280306 
L 863.124012 80.36083 
L 863.829115 79.95818 
L 865.239321 79.877626 
L 865.944424 79.877626 
L 867.35463 80.119228 
L 868.764836 79.877626 
L 884.982207 79.797102 
L 885.68731 80.844003 
L 886.392413 81.327206 
L 887.802619 83.018389 
L 888.507722 81.246683 
L 889.212826 81.568808 
L 889.917929 82.696263 
L 890.623032 81.488284 
L 891.328135 81.166159 
L 892.033238 80.36083 
L 892.738341 80.763479 
L 894.148547 80.119228 
L 894.85365 80.844003 
L 895.558753 80.763479 
L 896.263856 80.844003 
L 896.968959 80.199752 
L 897.674063 80.36083 
L 899.084269 80.119228 
L 899.789372 80.280306 
L 901.199578 80.038704 
L 903.314887 79.95818 
L 905.430196 79.797102 
L 907.545506 79.877626 
L 908.955712 79.95818 
L 909.660815 80.521877 
L 910.365918 80.36083 
L 911.071021 80.36083 
L 911.776124 81.166159 
L 913.18633 81.085605 
L 913.891433 81.327206 
L 915.30164 80.280306 
L 916.006743 80.441353 
L 916.711846 80.280306 
L 917.416949 80.763479 
L 918.122052 80.441353 
L 919.532258 80.844003 
L 920.942464 80.602431 
L 922.35267 80.199752 
L 923.057773 79.95818 
L 925.173083 80.038704 
L 925.878186 80.280306 
L 926.583289 80.038704 
L 927.993495 80.038704 
L 928.698598 80.280306 
L 930.108804 80.199752 
L 930.813907 80.602431 
L 932.224114 81.005081 
L 932.929217 80.199752 
L 934.339423 80.119228 
L 935.044526 80.441353 
L 935.749629 80.038704 
L 936.454732 79.877626 
L 939.275144 79.95818 
L 939.980247 80.038704 
L 941.390454 79.877626 
L 943.505763 80.038704 
L 944.210866 80.038704 
L 944.915969 79.877626 
L 963.248649 79.797102 
L 963.953752 80.441353 
L 964.658855 80.682955 
L 965.363958 81.166159 
L 966.069061 81.166159 
L 966.774165 81.488284 
L 967.479268 81.327206 
L 968.184371 81.729856 
L 970.29968 80.199752 
L 971.709886 80.119228 
L 973.120092 79.797102 
L 974.530298 79.877626 
L 981.581329 79.877626 
L 982.286432 80.602431 
L 982.991535 80.441353 
L 983.696639 80.038704 
L 984.401742 80.36083 
L 985.106845 80.441353 
L 985.811948 80.36083 
L 987.222154 79.95818 
L 987.927257 80.199752 
L 989.337463 80.280306 
L 990.042566 79.877626 
L 990.747669 80.280306 
L 991.452772 80.038704 
L 992.157875 80.119228 
L 992.862979 79.95818 
L 993.568082 80.280306 
L 994.273185 80.119228 
L 994.978288 80.521877 
L 995.683391 80.199752 
L 996.388494 80.038704 
L 997.093597 80.199752 
L 997.7987 80.038704 
L 998.503803 80.682955 
L 999.208906 80.521877 
L 999.914009 80.521877 
L 1000.619112 80.119228 
L 1001.324216 79.95818 
L 1003.439525 79.95818 
L 1003.439525 79.95818 
" clip-path="url(#p3dd27eb8ec)" style="fill: none; stroke: #dd8452; stroke-width: 2; stroke-linecap: round"/>
   </g>
   <g id="line2d_16"/>
   <g id="line2d_17"/>
   <g id="patch_3">
    <path d="M 115.75 609.894375 
L 115.75 54.554375 
" style="fill: none; stroke: #cccccc; stroke-width: 1.875; stroke-linejoin: miter; stroke-linecap: square"/>
   </g>
   <g id="patch_4">
    <path d="M 1045.710455 609.894375 
L 1045.710455 54.554375 
" style="fill: none; stroke: #cccccc; stroke-width: 1.875; stroke-linejoin: miter; stroke-linecap: square"/>
   </g>
   <g id="patch_5">
    <path d="M 115.75 609.894375 
L 1045.710455 609.894375 
" style="fill: none; stroke: #cccccc; stroke-width: 1.875; stroke-linejoin: miter; stroke-linecap: square"/>
   </g>
   <g id="patch_6">
    <path d="M 115.75 54.554375 
L 1045.710455 54.554375 
" style="fill: none; stroke: #cccccc; stroke-width: 1.875; stroke-linejoin: miter; stroke-linecap: square"/>
   </g>
   <g id="text_16">
    <!-- Training Progress: Accuracy -->
    <g style="fill: #262626" transform="translate(297.48054 34.554375) scale(0.36 -0.36)">
     <defs>
      <path id="DejaVuSans-Bold-54" d="M 31 4666 
L 4331 4666 
L 4331 3756 
L 2784 3756 
L 2784 0 
L 1581 0 
L 1581 3756 
L 31 3756 
L 31 4666 
z
" transform="scale(0.015625)"/>
      <path id="DejaVuSans-Bold-72" d="M 3138 2547 
Q 2991 2616 2845 2648 
Q 2700 2681 2553 2681 
Q 2122 2681 1889 2404 
Q 1656 2128 1656 1613 
L 1656 0 
L 538 0 
L 538 3500 
L 1656 3500 
L 1656 2925 
Q 1872 3269 2151 3426 
Q 2431 3584 2822 3584 
Q 2878 3584 2943 3579 
Q 3009 3575 3134 3559 
L 3138 2547 
z
" transform="scale(0.015625)"/>
      <path id="DejaVuSans-Bold-61" d="M 2106 1575 
Q 1756 1575 1579 1456 
Q 1403 1338 1403 1106 
Q 1403 894 1545 773 
Q 1688 653 1941 653 
Q 2256 653 2472 879 
Q 2688 1106 2688 1447 
L 2688 1575 
L 2106 1575 
z
M 3816 1997 
L 3816 0 
L 2688 0 
L 2688 519 
Q 2463 200 2181 54 
Q 1900 -91 1497 -91 
Q 953 -91 614 226 
Q 275 544 275 1050 
Q 275 1666 698 1953 
Q 1122 2241 2028 2241 
L 2688 2241 
L 2688 2328 
Q 2688 2594 2478 2717 
Q 2269 2841 1825 2841 
Q 1466 2841 1156 2769 
Q 847 2697 581 2553 
L 581 3406 
Q 941 3494 1303 3539 
Q 1666 3584 2028 3584 
Q 2975 3584 3395 3211 
Q 3816 2838 3816 1997 
z
" transform="scale(0.015625)"/>
      <path id="DejaVuSans-Bold-69" d="M 538 3500 
L 1656 3500 
L 1656 0 
L 538 0 
L 538 3500 
z
M 538 4863 
L 1656 4863 
L 1656 3950 
L 538 3950 
L 538 4863 
z
" transform="scale(0.015625)"/>
      <path id="DejaVuSans-Bold-6e" d="M 4056 2131 
L 4056 0 
L 2931 0 
L 2931 347 
L 2931 1631 
Q 2931 2084 2911 2256 
Q 2891 2428 2841 2509 
Q 2775 2619 2662 2680 
Q 2550 2741 2406 2741 
Q 2056 2741 1856 2470 
Q 1656 2200 1656 1722 
L 1656 0 
L 538 0 
L 538 3500 
L 1656 3500 
L 1656 2988 
Q 1909 3294 2193 3439 
Q 2478 3584 2822 3584 
Q 3428 3584 3742 3212 
Q 4056 2841 4056 2131 
z
" transform="scale(0.015625)"/>
      <path id="DejaVuSans-Bold-67" d="M 2919 594 
Q 2688 288 2409 144 
Q 2131 0 1766 0 
Q 1125 0 706 504 
Q 288 1009 288 1791 
Q 288 2575 706 3076 
Q 1125 3578 1766 3578 
Q 2131 3578 2409 3434 
Q 2688 3291 2919 2981 
L 2919 3500 
L 4044 3500 
L 4044 353 
Q 4044 -491 3511 -936 
Q 2978 -1381 1966 -1381 
Q 1638 -1381 1331 -1331 
Q 1025 -1281 716 -1178 
L 716 -306 
Q 1009 -475 1290 -558 
Q 1572 -641 1856 -641 
Q 2406 -641 2662 -400 
Q 2919 -159 2919 353 
L 2919 594 
z
M 2181 2772 
Q 1834 2772 1640 2515 
Q 1447 2259 1447 1791 
Q 1447 1309 1634 1061 
Q 1822 813 2181 813 
Q 2531 813 2725 1069 
Q 2919 1325 2919 1791 
Q 2919 2259 2725 2515 
Q 2531 2772 2181 2772 
z
" transform="scale(0.015625)"/>
      <path id="DejaVuSans-Bold-20" transform="scale(0.015625)"/>
      <path id="DejaVuSans-Bold-50" d="M 588 4666 
L 2584 4666 
Q 3475 4666 3951 4270 
Q 4428 3875 4428 3144 
Q 4428 2409 3951 2014 
Q 3475 1619 2584 1619 
L 1791 1619 
L 1791 0 
L 588 0 
L 588 4666 
z
M 1791 3794 
L 1791 2491 
L 2456 2491 
Q 2806 2491 2997 2661 
Q 3188 2831 3188 3144 
Q 3188 3456 2997 3625 
Q 2806 3794 2456 3794 
L 1791 3794 
z
" transform="scale(0.015625)"/>
      <path id="DejaVuSans-Bold-6f" d="M 2203 2784 
Q 1831 2784 1636 2517 
Q 1441 2250 1441 1747 
Q 1441 1244 1636 976 
Q 1831 709 2203 709 
Q 2569 709 2762 976 
Q 2956 1244 2956 1747 
Q 2956 2250 2762 2517 
Q 2569 2784 2203 2784 
z
M 2203 3584 
Q 3106 3584 3614 3096 
Q 4122 2609 4122 1747 
Q 4122 884 3614 396 
Q 3106 -91 2203 -91 
Q 1297 -91 786 396 
Q 275 884 275 1747 
Q 275 2609 786 3096 
Q 1297 3584 2203 3584 
z
" transform="scale(0.015625)"/>
      <path id="DejaVuSans-Bold-65" d="M 4031 1759 
L 4031 1441 
L 1416 1441 
Q 1456 1047 1700 850 
Q 1944 653 2381 653 
Q 2734 653 3104 758 
Q 3475 863 3866 1075 
L 3866 213 
Q 3469 63 3072 -14 
Q 2675 -91 2278 -91 
Q 1328 -91 801 392 
Q 275 875 275 1747 
Q 275 2603 792 3093 
Q 1309 3584 2216 3584 
Q 3041 3584 3536 3087 
Q 4031 2591 4031 1759 
z
M 2881 2131 
Q 2881 2450 2695 2645 
Q 2509 2841 2209 2841 
Q 1884 2841 1681 2658 
Q 1478 2475 1428 2131 
L 2881 2131 
z
" transform="scale(0.015625)"/>
      <path id="DejaVuSans-Bold-73" d="M 3272 3391 
L 3272 2541 
Q 2913 2691 2578 2766 
Q 2244 2841 1947 2841 
Q 1628 2841 1473 2761 
Q 1319 2681 1319 2516 
Q 1319 2381 1436 2309 
Q 1553 2238 1856 2203 
L 2053 2175 
Q 2913 2066 3209 1816 
Q 3506 1566 3506 1031 
Q 3506 472 3093 190 
Q 2681 -91 1863 -91 
Q 1516 -91 1145 -36 
Q 775 19 384 128 
L 384 978 
Q 719 816 1070 734 
Q 1422 653 1784 653 
Q 2113 653 2278 743 
Q 2444 834 2444 1013 
Q 2444 1163 2330 1236 
Q 2216 1309 1875 1350 
L 1678 1375 
Q 931 1469 631 1722 
Q 331 1975 331 2491 
Q 331 3047 712 3315 
Q 1094 3584 1881 3584 
Q 2191 3584 2531 3537 
Q 2872 3491 3272 3391 
z
" transform="scale(0.015625)"/>
      <path id="DejaVuSans-Bold-3a" d="M 716 3500 
L 1844 3500 
L 1844 2291 
L 716 2291 
L 716 3500 
z
M 716 1209 
L 1844 1209 
L 1844 0 
L 716 0 
L 716 1209 
z
" transform="scale(0.015625)"/>
      <path id="DejaVuSans-Bold-41" d="M 3419 850 
L 1538 850 
L 1241 0 
L 31 0 
L 1759 4666 
L 3194 4666 
L 4922 0 
L 3713 0 
L 3419 850 
z
M 1838 1716 
L 3116 1716 
L 2478 3572 
L 1838 1716 
z
" transform="scale(0.015625)"/>
      <path id="DejaVuSans-Bold-63" d="M 3366 3391 
L 3366 2478 
Q 3138 2634 2908 2709 
Q 2678 2784 2431 2784 
Q 1963 2784 1702 2511 
Q 1441 2238 1441 1747 
Q 1441 1256 1702 982 
Q 1963 709 2431 709 
Q 2694 709 2930 787 
Q 3166 866 3366 1019 
L 3366 103 
Q 3103 6 2833 -42 
Q 2563 -91 2291 -91 
Q 1344 -91 809 395 
Q 275 881 275 1747 
Q 275 2613 809 3098 
Q 1344 3584 2291 3584 
Q 2566 3584 2833 3536 
Q 3100 3488 3366 3391 
z
" transform="scale(0.015625)"/>
      <path id="DejaVuSans-Bold-75" d="M 500 1363 
L 500 3500 
L 1625 3500 
L 1625 3150 
Q 1625 2866 1622 2436 
Q 1619 2006 1619 1863 
Q 1619 1441 1641 1255 
Q 1663 1069 1716 984 
Q 1784 875 1895 815 
Q 2006 756 2150 756 
Q 2500 756 2700 1025 
Q 2900 1294 2900 1772 
L 2900 3500 
L 4019 3500 
L 4019 0 
L 2900 0 
L 2900 506 
Q 2647 200 2364 54 
Q 2081 -91 1741 -91 
Q 1134 -91 817 281 
Q 500 653 500 1363 
z
" transform="scale(0.015625)"/>
      <path id="DejaVuSans-Bold-79" d="M 78 3500 
L 1197 3500 
L 2138 1125 
L 2938 3500 
L 4056 3500 
L 2584 -331 
Q 2363 -916 2067 -1148 
Q 1772 -1381 1288 -1381 
L 641 -1381 
L 641 -647 
L 991 -647 
Q 1275 -647 1404 -556 
Q 1534 -466 1606 -231 
L 1638 -134 
L 78 3500 
z
" transform="scale(0.015625)"/>
     </defs>
     <use xlink:href="#DejaVuSans-Bold-54"/>
     <use xlink:href="#DejaVuSans-Bold-72" transform="translate(57.212891 0)"/>
     <use xlink:href="#DejaVuSans-Bold-61" transform="translate(106.529297 0)"/>
     <use xlink:href="#DejaVuSans-Bold-69" transform="translate(174.009766 0)"/>
     <use xlink:href="#DejaVuSans-Bold-6e" transform="translate(208.287109 0)"/>
     <use xlink:href="#DejaVuSans-Bold-69" transform="translate(279.478516 0)"/>
     <use xlink:href="#DejaVuSans-Bold-6e" transform="translate(313.755859 0)"/>
     <use xlink:href="#DejaVuSans-Bold-67" transform="translate(384.947266 0)"/>
     <use xlink:href="#DejaVuSans-Bold-20" transform="translate(456.529297 0)"/>
     <use xlink:href="#DejaVuSans-Bold-50" transform="translate(491.34375 0)"/>
     <use xlink:href="#DejaVuSans-Bold-72" transform="translate(564.634766 0)"/>
     <use xlink:href="#DejaVuSans-Bold-6f" transform="translate(613.951172 0)"/>
     <use xlink:href="#DejaVuSans-Bold-67" transform="translate(682.652344 0)"/>
     <use xlink:href="#DejaVuSans-Bold-72" transform="translate(754.234375 0)"/>
     <use xlink:href="#DejaVuSans-Bold-65" transform="translate(803.550781 0)"/>
     <use xlink:href="#DejaVuSans-Bold-73" transform="translate(871.373047 0)"/>
     <use xlink:href="#DejaVuSans-Bold-73" transform="translate(930.894531 0)"/>
     <use xlink:href="#DejaVuSans-Bold-3a" transform="translate(990.416016 0)"/>
     <use xlink:href="#DejaVuSans-Bold-20" transform="translate(1030.40625 0)"/>
     <use xlink:href="#DejaVuSans-Bold-41" transform="translate(1065.220703 0)"/>
     <use xlink:href="#DejaVuSans-Bold-63" transform="translate(1142.613281 0)"/>
     <use xlink:href="#DejaVuSans-Bold-63" transform="translate(1201.890625 0)"/>
     <use xlink:href="#DejaVuSans-Bold-75" transform="translate(1261.167969 0)"/>
     <use xlink:href="#DejaVuSans-Bold-72" transform="translate(1332.359375 0)"/>
     <use xlink:href="#DejaVuSans-Bold-61" transform="translate(1381.675781 0)"/>
     <use xlink:href="#DejaVuSans-Bold-63" transform="translate(1449.15625 0)"/>
     <use xlink:href="#DejaVuSans-Bold-79" transform="translate(1508.433594 0)"/>
    </g>
   </g>
   <g id="legend_1">
    <g id="patch_7">
     <path d="M 846.430455 593.894375 
L 1023.310455 593.894375 
Q 1029.710455 593.894375 1029.710455 587.494375 
L 1029.710455 496.754375 
Q 1029.710455 490.354375 1023.310455 490.354375 
L 846.430455 490.354375 
Q 840.030455 490.354375 840.030455 496.754375 
L 840.030455 587.494375 
Q 840.030455 593.894375 846.430455 593.894375 
z
" style="fill: #ffffff; opacity: 0.8; stroke: #cccccc; stroke-width: 1.5; stroke-linejoin: miter"/>
    </g>
    <g id="line2d_18">
     <path d="M 852.830455 516.269375 
L 884.830455 516.269375 
L 916.830455 516.269375 
" style="fill: none; stroke: #4c72b0; stroke-width: 2; stroke-linecap: round"/>
    </g>
    <g id="text_17">
     <!-- train -->
     <g style="fill: #262626" transform="translate(942.430455 527.469375) scale(0.32 -0.32)">
      <defs>
       <path id="DejaVuSans-74" d="M 1172 4494 
L 1172 3500 
L 2356 3500 
L 2356 3053 
L 1172 3053 
L 1172 1153 
Q 1172 725 1289 603 
Q 1406 481 1766 481 
L 2356 481 
L 2356 0 
L 1766 0 
Q 1100 0 847 248 
Q 594 497 594 1153 
L 594 3053 
L 172 3053 
L 172 3500 
L 594 3500 
L 594 4494 
L 1172 4494 
z
" transform="scale(0.015625)"/>
       <path id="DejaVuSans-69" d="M 603 3500 
L 1178 3500 
L 1178 0 
L 603 0 
L 603 3500 
z
M 603 4863 
L 1178 4863 
L 1178 4134 
L 603 4134 
L 603 4863 
z
" transform="scale(0.015625)"/>
       <path id="DejaVuSans-6e" d="M 3513 2113 
L 3513 0 
L 2938 0 
L 2938 2094 
Q 2938 2591 2744 2837 
Q 2550 3084 2163 3084 
Q 1697 3084 1428 2787 
Q 1159 2491 1159 1978 
L 1159 0 
L 581 0 
L 581 3500 
L 1159 3500 
L 1159 2956 
Q 1366 3272 1645 3428 
Q 1925 3584 2291 3584 
Q 2894 3584 3203 3211 
Q 3513 2838 3513 2113 
z
" transform="scale(0.015625)"/>
      </defs>
      <use xlink:href="#DejaVuSans-74"/>
      <use xlink:href="#DejaVuSans-72" transform="translate(39.208984 0)"/>
      <use xlink:href="#DejaVuSans-61" transform="translate(80.322266 0)"/>
      <use xlink:href="#DejaVuSans-69" transform="translate(141.601562 0)"/>
      <use xlink:href="#DejaVuSans-6e" transform="translate(169.384766 0)"/>
     </g>
    </g>
    <g id="line2d_19">
     <path d="M 852.830455 563.239375 
L 884.830455 563.239375 
L 916.830455 563.239375 
" style="fill: none; stroke: #dd8452; stroke-width: 2; stroke-linecap: round"/>
    </g>
    <g id="text_18">
     <!-- val -->
     <g style="fill: #262626" transform="translate(942.430455 574.439375) scale(0.32 -0.32)">
      <defs>
       <path id="DejaVuSans-76" d="M 191 3500 
L 800 3500 
L 1894 563 
L 2988 3500 
L 3597 3500 
L 2284 0 
L 1503 0 
L 191 3500 
z
" transform="scale(0.015625)"/>
       <path id="DejaVuSans-6c" d="M 603 4863 
L 1178 4863 
L 1178 0 
L 603 0 
L 603 4863 
z
" transform="scale(0.015625)"/>
      </defs>
      <use xlink:href="#DejaVuSans-76"/>
      <use xlink:href="#DejaVuSans-61" transform="translate(59.179688 0)"/>
      <use xlink:href="#DejaVuSans-6c" transform="translate(120.458984 0)"/>
     </g>
    </g>
   </g>
  </g>
 </g>
 <defs>
  <clipPath id="p3dd27eb8ec">
   <rect x="115.75" y="54.554375" width="929.960455" height="555.34"/>
  </clipPath>
 </defs>
</svg>
