<?xml version="1.0" encoding="utf-8" standalone="no"?>
<!DOCTYPE svg PUBLIC "-//W3C//DTD SVG 1.1//EN"
  "http://www.w3.org/Graphics/SVG/1.1/DTD/svg11.dtd">
<svg xmlns:xlink="http://www.w3.org/1999/xlink" width="1052.910455pt" height="695.534375pt" viewBox="0 0 1052.910455 695.534375" xmlns="http://www.w3.org/2000/svg" version="1.1">
 <metadata>
  <rdf:RDF xmlns:dc="http://purl.org/dc/elements/1.1/" xmlns:cc="http://creativecommons.org/ns#" xmlns:rdf="http://www.w3.org/1999/02/22-rdf-syntax-ns#">
   <cc:Work>
    <dc:type rdf:resource="http://purl.org/dc/dcmitype/StillImage"/>
    <dc:date>2026-04-04T11:05:00.029338</dc:date>
    <dc:format>image/svg+xml</dc:format>
    <dc:creator>
     <cc:Agent>
      <dc:title>Matplotlib v3.10.1, https://matplotlib.org/</dc:title>
     </cc:Agent>
    </dc:creator>
   </cc:Work>
  </rdf:RDF>
 </metadata>
 <defs>
  <style type="text/css">*{stroke-linejoin: round; stroke-linecap: butt}</style>
 </defs>
 <g id="figure_1">
  <g id="patch_1">
   <path d="M 0 695.534375 
L 1052.910455 695.534375 
L 1052.910455 0 
L 0 0 
z
" style="fill: #ffffff"/>
  </g>
  <g id="axes_1">
   <g id="patch_2">
    <path d="M 115.75 609.894375 
L 1045.710455 609.894375 
L 1045.710455 54.554375 
L 115.75 54.554375 
z
" style="fill: #ffffff"/>
   </g>
   <g id="matplotlib.axis_1">
    <g id="xtick_1">
     <g id="line2d_1">
      <path d="M 157.315827 609.894375 
L 157.315827 54.554375 
" clip-path="url(#p857e7565fd)" style="fill: none; stroke: #cccccc; stroke-opacity: 0.3; stroke-width: 1.5; stroke-linecap: round"/>
     </g>
     <g id="text_1">
      <!-- 0 -->
      <g style="fill: #262626" transform="translate(147.135827 646.709375) scale(0.32 -0.32)">
       <defs>
        <path id="DejaVuSans-30" d="M 2034 4250 
Q 1547 4250 1301 3770 
Q 1056 3291 1056 2328 
Q 1056 1369 1301 889 
Q 1547 409 2034 409 
Q 2525 409 2770 889 
Q 3016 1369 3016 2328 
Q 3016 3291 2770 3770 
Q 2525 4250 2034 4250 
z
M 2034 4750 
Q 2819 4750 3233 4129 
Q 3647 3509 3647 2328 
Q 3647 1150 3233 529 
Q 2819 -91 2034 -91 
Q 1250 -91 836 529 
Q 422 1150 422 2328 
Q 422 3509 836 4129 
Q 1250 4750 2034 4750 
z
" transform="scale(0.015625)"/>
       </defs>
       <use xlink:href="#DejaVuSans-30"/>
      </g>
     </g>
    </g>
    <g id="xtick_2">
     <g id="line2d_2">
      <path d="M 298.336443 609.894375 
L 298.336443 54.554375 
" clip-path="url(#p857e7565fd)" style="fill: none; stroke: #cccccc; stroke-opacity: 0.3; stroke-width: 1.5; stroke-linecap: round"/>
     </g>
     <g id="text_2">
      <!-- 200 -->
      <g style="fill: #262626" transform="translate(267.796443 646.709375) scale(0.32 -0.32)">
       <defs>
        <path id="DejaVuSans-32" d="M 1228 531 
L 3431 531 
L 3431 0 
L 469 0 
L 469 531 
Q 828 903 1448 1529 
Q 2069 2156 2228 2338 
Q 2531 2678 2651 2914 
Q 2772 3150 2772 3378 
Q 2772 3750 2511 3984 
Q 2250 4219 1831 4219 
Q 1534 4219 1204 4116 
Q 875 4013 500 3803 
L 500 4441 
Q 881 4594 1212 4672 
Q 1544 4750 1819 4750 
Q 2544 4750 2975 4387 
Q 3406 4025 3406 3419 
Q 3406 3131 3298 2873 
Q 3191 2616 2906 2266 
Q 2828 2175 2409 1742 
Q 1991 1309 1228 531 
z
" transform="scale(0.015625)"/>
       </defs>
       <use xlink:href="#DejaVuSans-32"/>
       <use xlink:href="#DejaVuSans-30" transform="translate(63.623047 0)"/>
       <use xlink:href="#DejaVuSans-30" transform="translate(127.246094 0)"/>
      </g>
     </g>
    </g>
    <g id="xtick_3">
     <g id="line2d_3">
      <path d="M 439.357059 609.894375 
L 439.357059 54.554375 
" clip-path="url(#p857e7565fd)" style="fill: none; stroke: #cccccc; stroke-opacity: 0.3; stroke-width: 1.5; stroke-linecap: round"/>
     </g>
     <g id="text_3">
      <!-- 400 -->
      <g style="fill: #262626" transform="translate(408.817059 646.709375) scale(0.32 -0.32)">
       <defs>
        <path id="DejaVuSans-34" d="M 2419 4116 
L 825 1625 
L 2419 1625 
L 2419 4116 
z
M 2253 4666 
L 3047 4666 
L 3047 1625 
L 3713 1625 
L 3713 1100 
L 3047 1100 
L 3047 0 
L 2419 0 
L 2419 1100 
L 313 1100 
L 313 1709 
L 2253 4666 
z
" transform="scale(0.015625)"/>
       </defs>
       <use xlink:href="#DejaVuSans-34"/>
       <use xlink:href="#DejaVuSans-30" transform="translate(63.623047 0)"/>
       <use xlink:href="#DejaVuSans-30" transform="translate(127.246094 0)"/>
      </g>
     </g>
    </g>
    <g id="xtick_4">
     <g id="line2d_4">
      <path d="M 580.377676 609.894375 
L 580.377676 54.554375 
" clip-path="url(#p857e7565fd)" style="fill: none; stroke: #cccccc; stroke-opacity: 0.3; stroke-width: 1.5; stroke-linecap: round"/>
     </g>
     <g id="text_4">
      <!-- 600 -->
      <g style="fill: #262626" transform="translate(549.837676 646.709375) scale(0.32 -0.32)">
       <defs>
        <path id="DejaVuSans-36" d="M 2113 2584 
Q 1688 2584 1439 2293 
Q 1191 2003 1191 1497 
Q 1191 994 1439 701 
Q 1688 409 2113 409 
Q 2538 409 2786 701 
Q 3034 994 3034 1497 
Q 3034 2003 2786 2293 
Q 2538 2584 2113 2584 
z
M 3366 4563 
L 3366 3988 
Q 3128 4100 2886 4159 
Q 2644 4219 2406 4219 
Q 1781 4219 1451 3797 
Q 1122 3375 1075 2522 
Q 1259 2794 1537 2939 
Q 1816 3084 2150 3084 
Q 2853 3084 3261 2657 
Q 3669 2231 3669 1497 
Q 3669 778 3244 343 
Q 2819 -91 2113 -91 
Q 1303 -91 875 529 
Q 447 1150 447 2328 
Q 447 3434 972 4092 
Q 1497 4750 2381 4750 
Q 2619 4750 2861 4703 
Q 3103 4656 3366 4563 
z
" transform="scale(0.015625)"/>
       </defs>
       <use xlink:href="#DejaVuSans-36"/>
       <use xlink:href="#DejaVuSans-30" transform="translate(63.623047 0)"/>
       <use xlink:href="#DejaVuSans-30" transform="translate(127.246094 0)"/>
      </g>
     </g>
    </g>
    <g id="xtick_5">
     <g id="line2d_5">
      <path d="M 721.398292 609.894375 
L 721.398292 54.554375 
" clip-path="url(#p857e7565fd)" style="fill: none; stroke: #cccccc; stroke-opacity: 0.3; stroke-width: 1.5; stroke-linecap: round"/>
     </g>
     <g id="text_5">
      <!-- 800 -->
      <g style="fill: #262626" transform="translate(690.858292 646.709375) scale(0.32 -0.32)">
       <defs>
        <path id="DejaVuSans-38" d="M 2034 2216 
Q 1584 2216 1326 1975 
Q 1069 1734 1069 1313 
Q 1069 891 1326 650 
Q 1584 409 2034 409 
Q 2484 409 2743 651 
Q 3003 894 3003 1313 
Q 3003 1734 2745 1975 
Q 2488 2216 2034 2216 
z
M 1403 2484 
Q 997 2584 770 2862 
Q 544 3141 544 3541 
Q 544 4100 942 4425 
Q 1341 4750 2034 4750 
Q 2731 4750 3128 4425 
Q 3525 4100 3525 3541 
Q 3525 3141 3298 2862 
Q 3072 2584 2669 2484 
Q 3125 2378 3379 2068 
Q 3634 1759 3634 1313 
Q 3634 634 3220 271 
Q 2806 -91 2034 -91 
Q 1263 -91 848 271 
Q 434 634 434 1313 
Q 434 1759 690 2068 
Q 947 2378 1403 2484 
z
M 1172 3481 
Q 1172 3119 1398 2916 
Q 1625 2713 2034 2713 
Q 2441 2713 2670 2916 
Q 2900 3119 2900 3481 
Q 2900 3844 2670 4047 
Q 2441 4250 2034 4250 
Q 1625 4250 1398 4047 
Q 1172 3844 1172 3481 
z
" transform="scale(0.015625)"/>
       </defs>
       <use xlink:href="#DejaVuSans-38"/>
       <use xlink:href="#DejaVuSans-30" transform="translate(63.623047 0)"/>
       <use xlink:href="#DejaVuSans-30" transform="translate(127.246094 0)"/>
      </g>
     </g>
    </g>
    <g id="xtick_6">
     <g id="line2d_6">
      <path d="M 862.418908 609.894375 
L 862.418908 54.554375 
" clip-path="url(#p857e7565fd)" style="fill: none; stroke: #cccccc; stroke-opacity: 0.3; stroke-width: 1.5; stroke-linecap: round"/>
     </g>
     <g id="text_6">
      <!-- 1000 -->
      <g style="fill: #262626" transform="translate(821.698908 646.709375) scale(0.32 -0.32)">
       <defs>
        <path id="DejaVuSans-31" d="M 794 531 
L 1825 531 
L 1825 4091 
L 703 3866 
L 703 4441 
L 1819 4666 
L 2450 4666 
L 2450 531 
L 3481 531 
L 3481 0 
L 794 0 
L 794 531 
z
" transform="scale(0.015625)"/>
       </defs>
       <use xlink:href="#DejaVuSans-31"/>
       <use xlink:href="#DejaVuSans-30" transform="translate(63.623047 0)"/>
       <use xlink:href="#DejaVuSans-30" transform="translate(127.246094 0)"/>
       <use xlink:href="#DejaVuSans-30" transform="translate(190.869141 0)"/>
      </g>
     </g>
    </g>
    <g id="xtick_7">
     <g id="line2d_7">
      <path d="M 1003.439525 609.894375 
L 1003.439525 54.554375 
" clip-path="url(#p857e7565fd)" style="fill: none; stroke: #cccccc; stroke-opacity: 0.3; stroke-width: 1.5; stroke-linecap: round"/>
     </g>
     <g id="text_7">
      <!-- 1200 -->
      <g style="fill: #262626" transform="translate(962.719525 646.709375) scale(0.32 -0.32)">
       <use xlink:href="#DejaVuSans-31"/>
       <use xlink:href="#DejaVuSans-32" transform="translate(63.623047 0)"/>
       <use xlink:href="#DejaVuSans-30" transform="translate(127.246094 0)"/>
       <use xlink:href="#DejaVuSans-30" transform="translate(190.869141 0)"/>
      </g>
     </g>
    </g>
    <g id="text_8">
     <!-- Epoch -->
     <g style="fill: #262626" transform="translate(531.735227 681.679375) scale(0.32 -0.32)">
      <defs>
       <path id="DejaVuSans-45" d="M 628 4666 
L 3578 4666 
L 3578 4134 
L 1259 4134 
L 1259 2753 
L 3481 2753 
L 3481 2222 
L 1259 2222 
L 1259 531 
L 3634 531 
L 3634 0 
L 628 0 
L 628 4666 
z
" transform="scale(0.015625)"/>
       <path id="DejaVuSans-70" d="M 1159 525 
L 1159 -1331 
L 581 -1331 
L 581 3500 
L 1159 3500 
L 1159 2969 
Q 1341 3281 1617 3432 
Q 1894 3584 2278 3584 
Q 2916 3584 3314 3078 
Q 3713 2572 3713 1747 
Q 3713 922 3314 415 
Q 2916 -91 2278 -91 
Q 1894 -91 1617 61 
Q 1341 213 1159 525 
z
M 3116 1747 
Q 3116 2381 2855 2742 
Q 2594 3103 2138 3103 
Q 1681 3103 1420 2742 
Q 1159 2381 1159 1747 
Q 1159 1113 1420 752 
Q 1681 391 2138 391 
Q 2594 391 2855 752 
Q 3116 1113 3116 1747 
z
" transform="scale(0.015625)"/>
       <path id="DejaVuSans-6f" d="M 1959 3097 
Q 1497 3097 1228 2736 
Q 959 2375 959 1747 
Q 959 1119 1226 758 
Q 1494 397 1959 397 
Q 2419 397 2687 759 
Q 2956 1122 2956 1747 
Q 2956 2369 2687 2733 
Q 2419 3097 1959 3097 
z
M 1959 3584 
Q 2709 3584 3137 3096 
Q 3566 2609 3566 1747 
Q 3566 888 3137 398 
Q 2709 -91 1959 -91 
Q 1206 -91 779 398 
Q 353 888 353 1747 
Q 353 2609 779 3096 
Q 1206 3584 1959 3584 
z
" transform="scale(0.015625)"/>
       <path id="DejaVuSans-63" d="M 3122 3366 
L 3122 2828 
Q 2878 2963 2633 3030 
Q 2388 3097 2138 3097 
Q 1578 3097 1268 2742 
Q 959 2388 959 1747 
Q 959 1106 1268 751 
Q 1578 397 2138 397 
Q 2388 397 2633 464 
Q 2878 531 3122 666 
L 3122 134 
Q 2881 22 2623 -34 
Q 2366 -91 2075 -91 
Q 1284 -91 818 406 
Q 353 903 353 1747 
Q 353 2603 823 3093 
Q 1294 3584 2113 3584 
Q 2378 3584 2631 3529 
Q 2884 3475 3122 3366 
z
" transform="scale(0.015625)"/>
       <path id="DejaVuSans-68" d="M 3513 2113 
L 3513 0 
L 2938 0 
L 2938 2094 
Q 2938 2591 2744 2837 
Q 2550 3084 2163 3084 
Q 1697 3084 1428 2787 
Q 1159 2491 1159 1978 
L 1159 0 
L 581 0 
L 581 4863 
L 1159 4863 
L 1159 2956 
Q 1366 3272 1645 3428 
Q 1925 3584 2291 3584 
Q 2894 3584 3203 3211 
Q 3513 2838 3513 2113 
z
" transform="scale(0.015625)"/>
      </defs>
      <use xlink:href="#DejaVuSans-45"/>
      <use xlink:href="#DejaVuSans-70" transform="translate(63.183594 0)"/>
      <use xlink:href="#DejaVuSans-6f" transform="translate(126.660156 0)"/>
      <use xlink:href="#DejaVuSans-63" transform="translate(187.841797 0)"/>
      <use xlink:href="#DejaVuSans-68" transform="translate(242.822266 0)"/>
     </g>
    </g>
   </g>
   <g id="matplotlib.axis_2">
    <g id="ytick_1">
     <g id="line2d_8">
      <path d="M 115.75 584.730729 
L 1045.710455 584.730729 
" clip-path="url(#p857e7565fd)" style="fill: none; stroke: #cccccc; stroke-opacity: 0.3; stroke-width: 1.5; stroke-linecap: round"/>
     </g>
     <g id="text_9">
      <!-- 0 -->
      <g style="fill: #262626" transform="translate(82.89 596.888229) scale(0.32 -0.32)">
       <use xlink:href="#DejaVuSans-30"/>
      </g>
     </g>
    </g>
    <g id="ytick_2">
     <g id="line2d_9">
      <path d="M 115.75 483.744004 
L 1045.710455 483.744004 
" clip-path="url(#p857e7565fd)" style="fill: none; stroke: #cccccc; stroke-opacity: 0.3; stroke-width: 1.5; stroke-linecap: round"/>
     </g>
     <g id="text_10">
      <!-- 20 -->
      <g style="fill: #262626" transform="translate(62.53 495.901504) scale(0.32 -0.32)">
       <use xlink:href="#DejaVuSans-32"/>
       <use xlink:href="#DejaVuSans-30" transform="translate(63.623047 0)"/>
      </g>
     </g>
    </g>
    <g id="ytick_3">
     <g id="line2d_10">
      <path d="M 115.75 382.757278 
L 1045.710455 382.757278 
" clip-path="url(#p857e7565fd)" style="fill: none; stroke: #cccccc; stroke-opacity: 0.3; stroke-width: 1.5; stroke-linecap: round"/>
     </g>
     <g id="text_11">
      <!-- 40 -->
      <g style="fill: #262626" transform="translate(62.53 394.914778) scale(0.32 -0.32)">
       <use xlink:href="#DejaVuSans-34"/>
       <use xlink:href="#DejaVuSans-30" transform="translate(63.623047 0)"/>
      </g>
     </g>
    </g>
    <g id="ytick_4">
     <g id="line2d_11">
      <path d="M 115.75 281.770553 
L 1045.710455 281.770553 
" clip-path="url(#p857e7565fd)" style="fill: none; stroke: #cccccc; stroke-opacity: 0.3; stroke-width: 1.5; stroke-linecap: round"/>
     </g>
     <g id="text_12">
      <!-- 60 -->
      <g style="fill: #262626" transform="translate(62.53 293.928053) scale(0.32 -0.32)">
       <use xlink:href="#DejaVuSans-36"/>
       <use xlink:href="#DejaVuSans-30" transform="translate(63.623047 0)"/>
      </g>
     </g>
    </g>
    <g id="ytick_5">
     <g id="line2d_12">
      <path d="M 115.75 180.783828 
L 1045.710455 180.783828 
" clip-path="url(#p857e7565fd)" style="fill: none; stroke: #cccccc; stroke-opacity: 0.3; stroke-width: 1.5; stroke-linecap: round"/>
     </g>
     <g id="text_13">
      <!-- 80 -->
      <g style="fill: #262626" transform="translate(62.53 192.941328) scale(0.32 -0.32)">
       <use xlink:href="#DejaVuSans-38"/>
       <use xlink:href="#DejaVuSans-30" transform="translate(63.623047 0)"/>
      </g>
     </g>
    </g>
    <g id="ytick_6">
     <g id="line2d_13">
      <path d="M 115.75 79.797102 
L 1045.710455 79.797102 
" clip-path="url(#p857e7565fd)" style="fill: none; stroke: #cccccc; stroke-opacity: 0.3; stroke-width: 1.5; stroke-linecap: round"/>
     </g>
     <g id="text_14">
      <!-- 100 -->
      <g style="fill: #262626" transform="translate(42.17 91.954602) scale(0.32 -0.32)">
       <use xlink:href="#DejaVuSans-31"/>
       <use xlink:href="#DejaVuSans-30" transform="translate(63.623047 0)"/>
       <use xlink:href="#DejaVuSans-30" transform="translate(127.246094 0)"/>
      </g>
     </g>
    </g>
    <g id="text_15">
     <!-- Accuracy (%) -->
     <g style="fill: #262626" transform="translate(31.515 438.046875) rotate(-90) scale(0.32 -0.32)">
      <defs>
       <path id="DejaVuSans-41" d="M 2188 4044 
L 1331 1722 
L 3047 1722 
L 2188 4044 
z
M 1831 4666 
L 2547 4666 
L 4325 0 
L 3669 0 
L 3244 1197 
L 1141 1197 
L 716 0 
L 50 0 
L 1831 4666 
z
" transform="scale(0.015625)"/>
       <path id="DejaVuSans-75" d="M 544 1381 
L 544 3500 
L 1119 3500 
L 1119 1403 
Q 1119 906 1312 657 
Q 1506 409 1894 409 
Q 2359 409 2629 706 
Q 2900 1003 2900 1516 
L 2900 3500 
L 3475 3500 
L 3475 0 
L 2900 0 
L 2900 538 
Q 2691 219 2414 64 
Q 2138 -91 1772 -91 
Q 1169 -91 856 284 
Q 544 659 544 1381 
z
M 1991 3584 
L 1991 3584 
z
" transform="scale(0.015625)"/>
       <path id="DejaVuSans-72" d="M 2631 2963 
Q 2534 3019 2420 3045 
Q 2306 3072 2169 3072 
Q 1681 3072 1420 2755 
Q 1159 2438 1159 1844 
L 1159 0 
L 581 0 
L 581 3500 
L 1159 3500 
L 1159 2956 
Q 1341 3275 1631 3429 
Q 1922 3584 2338 3584 
Q 2397 3584 2469 3576 
Q 2541 3569 2628 3553 
L 2631 2963 
z
" transform="scale(0.015625)"/>
       <path id="DejaVuSans-61" d="M 2194 1759 
Q 1497 1759 1228 1600 
Q 959 1441 959 1056 
Q 959 750 1161 570 
Q 1363 391 1709 391 
Q 2188 391 2477 730 
Q 2766 1069 2766 1631 
L 2766 1759 
L 2194 1759 
z
M 3341 1997 
L 3341 0 
L 2766 0 
L 2766 531 
Q 2569 213 2275 61 
Q 1981 -91 1556 -91 
Q 1019 -91 701 211 
Q 384 513 384 1019 
Q 384 1609 779 1909 
Q 1175 2209 1959 2209 
L 2766 2209 
L 2766 2266 
Q 2766 2663 2505 2880 
Q 2244 3097 1772 3097 
Q 1472 3097 1187 3025 
Q 903 2953 641 2809 
L 641 3341 
Q 956 3463 1253 3523 
Q 1550 3584 1831 3584 
Q 2591 3584 2966 3190 
Q 3341 2797 3341 1997 
z
" transform="scale(0.015625)"/>
       <path id="DejaVuSans-79" d="M 2059 -325 
Q 1816 -950 1584 -1140 
Q 1353 -1331 966 -1331 
L 506 -1331 
L 506 -850 
L 844 -850 
Q 1081 -850 1212 -737 
Q 1344 -625 1503 -206 
L 1606 56 
L 191 3500 
L 800 3500 
L 1894 763 
L 2988 3500 
L 3597 3500 
L 2059 -325 
z
" transform="scale(0.015625)"/>
       <path id="DejaVuSans-20" transform="scale(0.015625)"/>
       <path id="DejaVuSans-28" d="M 1984 4856 
Q 1566 4138 1362 3434 
Q 1159 2731 1159 2009 
Q 1159 1288 1364 580 
Q 1569 -128 1984 -844 
L 1484 -844 
Q 1016 -109 783 600 
Q 550 1309 550 2009 
Q 550 2706 781 3412 
Q 1013 4119 1484 4856 
L 1984 4856 
z
" transform="scale(0.015625)"/>
       <path id="DejaVuSans-25" d="M 4653 2053 
Q 4381 2053 4226 1822 
Q 4072 1591 4072 1178 
Q 4072 772 4226 539 
Q 4381 306 4653 306 
Q 4919 306 5073 539 
Q 5228 772 5228 1178 
Q 5228 1588 5073 1820 
Q 4919 2053 4653 2053 
z
M 4653 2450 
Q 5147 2450 5437 2106 
Q 5728 1763 5728 1178 
Q 5728 594 5436 251 
Q 5144 -91 4653 -91 
Q 4153 -91 3862 251 
Q 3572 594 3572 1178 
Q 3572 1766 3864 2108 
Q 4156 2450 4653 2450 
z
M 1428 4353 
Q 1159 4353 1004 4120 
Q 850 3888 850 3481 
Q 850 3069 1003 2837 
Q 1156 2606 1428 2606 
Q 1700 2606 1854 2837 
Q 2009 3069 2009 3481 
Q 2009 3884 1853 4118 
Q 1697 4353 1428 4353 
z
M 4250 4750 
L 4750 4750 
L 1831 -91 
L 1331 -91 
L 4250 4750 
z
M 1428 4750 
Q 1922 4750 2215 4408 
Q 2509 4066 2509 3481 
Q 2509 2891 2217 2550 
Q 1925 2209 1428 2209 
Q 931 2209 642 2551 
Q 353 2894 353 3481 
Q 353 4063 643 4406 
Q 934 4750 1428 4750 
z
" transform="scale(0.015625)"/>
       <path id="DejaVuSans-29" d="M 513 4856 
L 1013 4856 
Q 1481 4119 1714 3412 
Q 1947 2706 1947 2009 
Q 1947 1309 1714 600 
Q 1481 -109 1013 -844 
L 513 -844 
Q 928 -128 1133 580 
Q 1338 1288 1338 2009 
Q 1338 2731 1133 3434 
Q 928 4138 513 4856 
z
" transform="scale(0.015625)"/>
      </defs>
      <use xlink:href="#DejaVuSans-41"/>
      <use xlink:href="#DejaVuSans-63" transform="translate(66.658203 0)"/>
      <use xlink:href="#DejaVuSans-63" transform="translate(121.638672 0)"/>
      <use xlink:href="#DejaVuSans-75" transform="translate(176.619141 0)"/>
      <use xlink:href="#DejaVuSans-72" transform="translate(239.998047 0)"/>
      <use xlink:href="#DejaVuSans-61" transform="translate(281.111328 0)"/>
      <use xlink:href="#DejaVuSans-63" transform="translate(342.390625 0)"/>
      <use xlink:href="#DejaVuSans-79" transform="translate(397.371094 0)"/>
      <use xlink:href="#DejaVuSans-20" transform="translate(456.550781 0)"/>
      <use xlink:href="#DejaVuSans-28" transform="translate(488.337891 0)"/>
      <use xlink:href="#DejaVuSans-25" transform="translate(527.351562 0)"/>
      <use xlink:href="#DejaVuSans-29" transform="translate(622.371094 0)"/>
     </g>
    </g>
   </g>
   <g id="FillBetweenPolyCollection_1"/>
   <g id="FillBetweenPolyCollection_2"/>
   <g id="line2d_14">
    <path d="M 158.02093 581.408797 
L 158.726033 580.301487 
L 159.431136 578.956895 
L 160.136239 578.40324 
L 160.841342 576.742274 
L 161.546445 575.951338 
L 162.251548 573.657623 
L 162.956651 572.392125 
L 163.661754 567.804696 
L 164.366857 565.669168 
L 165.777064 559.974428 
L 166.482167 555.782466 
L 167.18727 549.850447 
L 167.892373 545.500296 
L 168.597476 543.997519 
L 169.302579 535.297221 
L 170.007682 529.918853 
L 171.417888 515.919285 
L 172.122991 511.173671 
L 173.533198 491.162988 
L 174.238301 483.33272 
L 175.648507 456.440881 
L 176.35361 438.723919 
L 178.468919 392.770525 
L 179.174022 376.002682 
L 179.879125 354.33104 
L 180.584228 343.099744 
L 181.994435 304.18567 
L 182.699538 289.474284 
L 184.109744 252.933023 
L 184.814847 238.3007 
L 185.51995 220.504645 
L 186.225053 215.759016 
L 186.930156 205.002296 
L 187.635259 197.567495 
L 188.340362 192.426399 
L 190.455672 164.427277 
L 191.865878 155.885169 
L 192.570981 156.122449 
L 193.276084 148.133994 
L 196.096496 131.682525 
L 196.801599 125.987777 
L 197.506702 126.225057 
L 198.211805 122.903108 
L 198.916908 120.609401 
L 199.622012 114.914653 
L 200.327115 113.728253 
L 201.032218 113.570067 
L 201.737321 111.276361 
L 202.442424 109.378121 
L 203.147527 108.745375 
L 203.85263 109.219935 
L 205.262836 104.237026 
L 206.673042 99.649614 
L 208.788352 94.033959 
L 209.493455 94.429425 
L 210.198558 93.084839 
L 210.903661 94.033959 
L 211.608764 93.796679 
L 212.313867 93.163932 
L 213.724073 90.158356 
L 214.429176 89.604703 
L 215.839382 90.237449 
L 216.544486 91.265663 
L 217.249589 91.661159 
L 217.954692 90.870196 
L 218.659795 92.847559 
L 219.364898 92.056626 
L 220.070001 90.553823 
L 220.775104 93.559399 
L 221.480207 92.847559 
L 222.18531 90.553823 
L 222.890413 89.683796 
L 223.595516 89.52561 
L 224.300619 88.971957 
L 225.005723 88.892863 
L 225.710826 88.57649 
L 226.415929 88.971957 
L 227.121032 88.57649 
L 227.826135 89.05105 
L 228.531238 88.497397 
L 229.236341 89.921076 
L 229.941444 88.497397 
L 231.35165 89.446516 
L 232.056753 87.231904 
L 232.761856 87.548277 
L 233.46696 87.706464 
L 234.172063 87.15281 
L 234.877166 86.91553 
L 235.582269 87.39009 
L 236.287372 86.520064 
L 236.992475 88.971957 
L 237.697578 89.05105 
L 238.402681 89.446516 
L 239.107784 89.05105 
L 239.812887 87.15281 
L 240.51799 87.39009 
L 241.223093 86.282784 
L 241.928196 85.887317 
L 242.6333 84.305451 
L 243.338403 84.542731 
L 244.043506 85.808224 
L 244.748609 84.305451 
L 245.453712 85.333664 
L 246.158815 83.909985 
L 246.863918 85.966411 
L 247.569021 84.226358 
L 248.274124 87.943743 
L 248.979227 86.757344 
L 249.68433 86.361877 
L 250.389433 88.181023 
L 251.094537 87.073717 
L 251.79964 87.469184 
L 252.504743 89.921076 
L 253.209846 89.52561 
L 253.914949 90.395636 
L 254.620052 89.28833 
L 255.325155 86.361877 
L 256.030258 86.520064 
L 256.735361 86.045504 
L 257.440464 86.045504 
L 258.145567 83.751798 
L 258.85067 84.621824 
L 259.555774 83.198115 
L 260.260877 83.198115 
L 260.96598 83.514488 
L 261.671083 82.644461 
L 262.376186 83.909985 
L 263.081289 83.909985 
L 263.786392 85.096384 
L 264.491495 86.91553 
L 265.196598 86.520064 
L 266.606804 87.231904 
L 267.311907 86.67825 
L 268.017011 86.440971 
L 268.722114 85.412757 
L 269.427217 86.836437 
L 270.13232 85.570944 
L 270.837423 84.621824 
L 271.542526 84.068171 
L 272.247629 84.384544 
L 272.952732 84.226358 
L 273.657835 83.909985 
L 274.362938 84.859104 
L 275.068041 83.830891 
L 275.773144 85.966411 
L 276.478247 85.729131 
L 277.183351 85.808224 
L 277.888454 87.548277 
L 278.593557 86.203691 
L 279.29866 86.599157 
L 280.003763 87.785557 
L 280.708866 86.757344 
L 282.119072 83.593581 
L 282.824175 84.068171 
L 283.529278 83.989078 
L 284.234381 83.119021 
L 284.939484 82.565368 
L 285.644588 82.644461 
L 286.349691 83.277208 
L 287.054794 83.514488 
L 287.759897 82.407182 
L 288.465 82.802648 
L 289.170103 83.830891 
L 289.875206 84.542731 
L 290.580309 84.305451 
L 291.285412 86.757344 
L 291.990515 85.096384 
L 292.695618 85.096384 
L 293.400721 84.384544 
L 294.105825 84.226358 
L 294.810928 83.909985 
L 295.516031 84.938198 
L 296.221134 86.203691 
L 296.926237 84.859104 
L 297.63134 85.096384 
L 298.336443 84.226358 
L 299.041546 83.593581 
L 299.746649 85.491851 
L 300.451752 84.147265 
L 301.156855 84.780011 
L 301.861958 84.780011 
L 303.272165 84.068171 
L 303.977268 84.938198 
L 304.682371 85.096384 
L 305.387474 85.017291 
L 306.092577 84.068171 
L 306.79768 84.700918 
L 307.502783 85.096384 
L 308.207886 83.514488 
L 308.912989 83.277208 
L 309.618092 83.830891 
L 310.323195 82.407182 
L 311.028298 81.695342 
L 311.733402 82.248995 
L 312.438505 82.011715 
L 313.143608 81.378969 
L 313.848711 83.435395 
L 314.553814 82.644461 
L 315.258917 83.277208 
L 315.96402 82.486275 
L 316.669123 83.277208 
L 317.374226 83.751798 
L 318.079329 84.384544 
L 318.784432 85.570944 
L 319.489535 85.570944 
L 320.194639 85.808224 
L 320.899742 87.943743 
L 321.604845 87.548277 
L 322.309948 85.096384 
L 323.015051 84.542731 
L 323.720154 84.147265 
L 324.425257 83.989078 
L 325.13036 84.542731 
L 325.835463 84.621824 
L 326.540566 82.802648 
L 327.245669 83.198115 
L 327.950772 82.407182 
L 328.655876 82.248995 
L 329.360979 81.853528 
L 330.066082 82.090808 
L 330.771185 81.695342 
L 331.476288 83.356301 
L 332.886494 83.277208 
L 333.591597 84.068171 
L 334.2967 84.384544 
L 335.001803 85.412757 
L 335.706906 84.068171 
L 336.412009 84.780011 
L 337.117113 82.960835 
L 337.822216 81.616248 
L 338.527319 81.932622 
L 339.232422 81.616248 
L 339.937525 82.248995 
L 340.642628 82.328088 
L 341.347731 81.458062 
L 342.052834 82.486275 
L 342.757937 81.141689 
L 343.46304 81.695342 
L 344.873246 81.853528 
L 345.57835 82.407182 
L 346.283453 83.198115 
L 346.988556 84.463638 
L 347.693659 85.017291 
L 348.398762 86.045504 
L 349.103865 85.333664 
L 349.808968 86.67825 
L 350.514071 85.096384 
L 351.219174 84.305451 
L 352.62938 83.593581 
L 353.334483 83.909985 
L 354.039586 83.039928 
L 354.74469 81.458062 
L 355.449793 82.486275 
L 356.154896 81.299875 
L 356.859999 80.667129 
L 357.565102 81.616248 
L 358.270205 81.616248 
L 358.975308 81.378969 
L 359.680411 82.248995 
L 360.385514 81.537155 
L 361.79572 83.356301 
L 362.500823 82.169902 
L 363.205927 82.486275 
L 363.91103 83.514488 
L 364.616133 82.723555 
L 365.321236 85.491851 
L 366.026339 85.096384 
L 366.731442 84.938198 
L 367.436545 83.198115 
L 368.141648 82.644461 
L 368.846751 82.644461 
L 369.551854 83.356301 
L 370.256957 83.198115 
L 370.96206 83.830891 
L 371.667164 83.830891 
L 372.372267 83.435395 
L 373.07737 82.486275 
L 373.782473 82.881741 
L 374.487576 82.723555 
L 375.192679 83.435395 
L 375.897782 82.644461 
L 376.602885 82.723555 
L 377.307988 81.458062 
L 378.013091 82.011715 
L 378.718194 81.774435 
L 379.423297 81.062595 
L 380.128401 81.853528 
L 380.833504 81.062595 
L 381.538607 81.695342 
L 382.948813 81.853528 
L 383.653916 82.486275 
L 384.359019 82.486275 
L 385.064122 82.328088 
L 385.769225 83.751798 
L 386.474328 82.802648 
L 387.179431 83.356301 
L 387.884534 82.169902 
L 388.589637 82.644461 
L 389.294741 82.011715 
L 389.999844 81.537155 
L 390.704947 81.458062 
L 391.41005 81.062595 
L 392.115153 81.378969 
L 392.820256 80.983502 
L 393.525359 81.220782 
L 394.230462 81.616248 
L 394.935565 81.853528 
L 395.640668 82.723555 
L 396.345771 82.248995 
L 397.050874 82.565368 
L 397.755978 82.407182 
L 398.461081 83.039928 
L 399.166184 82.881741 
L 399.871287 82.565368 
L 401.281493 82.565368 
L 401.986596 81.616248 
L 402.691699 82.090808 
L 403.396802 81.537155 
L 404.101905 82.565368 
L 404.807008 82.169902 
L 405.512111 82.011715 
L 406.217215 82.011715 
L 406.922318 81.774435 
L 407.627421 82.090808 
L 408.332524 82.169902 
L 409.037627 81.141689 
L 409.74273 81.141689 
L 410.447833 82.090808 
L 411.152936 81.932622 
L 411.858039 81.932622 
L 412.563142 81.695342 
L 413.268245 82.328088 
L 413.973348 82.090808 
L 414.678452 82.169902 
L 415.383555 81.853528 
L 416.088658 82.248995 
L 416.793761 82.407182 
L 417.498864 81.774435 
L 418.203967 81.695342 
L 418.90907 81.378969 
L 419.614173 81.774435 
L 420.319276 81.695342 
L 421.729482 83.356301 
L 422.434585 82.486275 
L 423.139688 82.090808 
L 423.844792 82.248995 
L 425.254998 82.011715 
L 425.960101 82.248995 
L 426.665204 81.774435 
L 427.370307 82.723555 
L 428.07541 82.090808 
L 428.780513 81.932622 
L 429.485616 81.932622 
L 430.190719 82.565368 
L 430.895822 82.565368 
L 432.306029 81.299875 
L 433.011132 81.141689 
L 433.716235 81.299875 
L 435.126441 80.746222 
L 435.831544 81.220782 
L 436.536647 80.746222 
L 437.24175 81.141689 
L 437.946853 81.378969 
L 438.651956 81.220782 
L 439.357059 81.932622 
L 440.062162 81.220782 
L 440.767266 80.746222 
L 441.472369 81.774435 
L 442.882575 82.011715 
L 444.292781 81.616248 
L 444.997884 81.616248 
L 445.702987 82.644461 
L 446.40809 82.407182 
L 447.113193 81.695342 
L 447.818296 82.011715 
L 448.523399 81.220782 
L 449.933606 81.853528 
L 451.343812 81.616248 
L 452.048915 82.328088 
L 452.754018 81.853528 
L 453.459121 82.090808 
L 454.164224 82.169902 
L 454.869327 83.198115 
L 455.57443 81.616248 
L 456.279533 81.299875 
L 456.984636 81.299875 
L 457.68974 80.429849 
L 458.394843 80.825315 
L 459.099946 81.458062 
L 459.805049 80.825315 
L 460.510152 80.746222 
L 461.215255 81.141689 
L 461.920358 81.062595 
L 462.625461 81.378969 
L 463.330564 81.537155 
L 464.035667 82.011715 
L 464.74077 82.011715 
L 465.445873 82.328088 
L 466.85608 81.141689 
L 467.561183 81.695342 
L 468.266286 81.141689 
L 468.971389 80.904409 
L 469.676492 80.429849 
L 471.086698 80.825315 
L 471.791801 80.350755 
L 472.496904 80.588035 
L 473.202007 80.508942 
L 473.90711 80.271662 
L 474.612213 80.271662 
L 475.317317 80.588035 
L 476.02242 80.508942 
L 477.432626 81.299875 
L 478.137729 81.141689 
L 478.842832 81.458062 
L 479.547935 81.932622 
L 480.253038 82.248995 
L 480.958141 83.989078 
L 481.663244 82.486275 
L 482.368347 82.407182 
L 483.07345 82.644461 
L 483.778554 81.932622 
L 484.483657 81.695342 
L 485.18876 81.220782 
L 485.893863 81.220782 
L 486.598966 80.825315 
L 487.304069 80.271662 
L 488.009172 80.825315 
L 488.714275 80.271662 
L 490.124481 80.350755 
L 490.829584 80.192569 
L 493.649997 80.192569 
L 494.3551 80.350755 
L 495.060203 80.192569 
L 495.765306 80.429849 
L 496.470409 80.508942 
L 497.175512 81.141689 
L 497.880615 80.983502 
L 498.585718 81.378969 
L 499.290821 82.565368 
L 499.995924 81.537155 
L 500.701027 82.169902 
L 501.406131 81.932622 
L 502.111234 81.299875 
L 502.816337 81.299875 
L 503.52144 81.458062 
L 504.226543 80.508942 
L 504.931646 81.141689 
L 505.636749 80.825315 
L 506.341852 81.616248 
L 507.046955 81.616248 
L 507.752058 80.983502 
L 508.457161 81.458062 
L 509.162264 80.904409 
L 509.867368 80.588035 
L 510.572471 81.458062 
L 511.277574 80.667129 
L 511.982677 81.141689 
L 512.68778 80.588035 
L 513.392883 80.429849 
L 514.803089 81.616248 
L 515.508192 81.616248 
L 516.213295 80.904409 
L 516.918398 81.695342 
L 517.623501 81.458062 
L 518.328605 80.746222 
L 519.033708 80.904409 
L 519.738811 80.667129 
L 520.443914 81.141689 
L 521.149017 80.429849 
L 521.85412 80.588035 
L 522.559223 80.271662 
L 523.264326 80.904409 
L 523.969429 80.746222 
L 524.674532 81.378969 
L 525.379635 81.616248 
L 526.084738 81.062595 
L 526.789842 81.378969 
L 527.494945 81.378969 
L 528.200048 81.853528 
L 528.905151 81.220782 
L 529.610254 80.746222 
L 530.315357 80.429849 
L 531.02046 80.429849 
L 531.725563 80.192569 
L 532.430666 80.429849 
L 533.135769 80.113476 
L 534.545975 80.034382 
L 535.251078 80.429849 
L 535.956182 80.192569 
L 536.661285 80.508942 
L 537.366388 80.192569 
L 538.071491 80.825315 
L 538.776594 81.220782 
L 539.481697 80.825315 
L 540.1868 80.588035 
L 540.891903 80.825315 
L 541.597006 81.220782 
L 542.302109 80.825315 
L 543.007212 81.378969 
L 543.712315 80.825315 
L 544.417419 81.220782 
L 545.122522 80.904409 
L 545.827625 81.537155 
L 546.532728 81.695342 
L 547.237831 81.616248 
L 547.942934 82.407182 
L 548.648037 80.983502 
L 549.35314 81.616248 
L 550.058243 81.537155 
L 550.763346 81.299875 
L 551.468449 80.350755 
L 552.878656 80.667129 
L 553.583759 80.588035 
L 554.288862 80.746222 
L 554.993965 80.746222 
L 555.699068 81.378969 
L 556.404171 80.667129 
L 557.109274 81.378969 
L 557.814377 80.271662 
L 558.51948 81.220782 
L 559.224583 80.667129 
L 560.634789 80.746222 
L 561.339893 80.271662 
L 562.044996 80.113476 
L 562.750099 80.350755 
L 564.160305 80.113476 
L 565.570511 80.034382 
L 566.275614 80.588035 
L 566.980717 80.271662 
L 567.68582 80.192569 
L 568.390923 80.271662 
L 569.096026 80.034382 
L 569.80113 80.667129 
L 570.506233 80.667129 
L 571.211336 80.825315 
L 571.916439 81.220782 
L 572.621542 81.062595 
L 573.326645 81.616248 
L 574.031748 80.825315 
L 574.736851 81.220782 
L 575.441954 80.429849 
L 576.147057 80.904409 
L 576.85216 80.825315 
L 577.557263 80.429849 
L 579.672573 80.429849 
L 580.377676 80.034382 
L 581.082779 80.508942 
L 581.787882 80.667129 
L 582.492985 80.508942 
L 583.198088 80.113476 
L 583.903191 79.876196 
L 584.608294 80.034382 
L 585.313397 80.350755 
L 586.0185 80.034382 
L 586.723603 80.746222 
L 588.13381 80.508942 
L 588.838913 80.034382 
L 589.544016 80.825315 
L 590.249119 80.350755 
L 590.954222 80.508942 
L 591.659325 80.350755 
L 592.364428 79.876196 
L 593.069531 80.588035 
L 593.774634 79.876196 
L 594.479737 80.192569 
L 595.18484 80.350755 
L 595.889944 80.271662 
L 597.30015 80.508942 
L 598.005253 80.588035 
L 598.710356 80.508942 
L 599.415459 80.192569 
L 601.530768 80.034382 
L 602.235871 80.192569 
L 603.646077 80.192569 
L 604.351181 80.746222 
L 605.056284 80.588035 
L 605.761387 80.904409 
L 606.46649 80.825315 
L 607.171593 81.220782 
L 607.876696 81.299875 
L 608.581799 81.062595 
L 609.286902 80.667129 
L 609.992005 80.904409 
L 610.697108 80.508942 
L 611.402211 80.904409 
L 612.107314 80.350755 
L 612.812417 80.508942 
L 613.517521 80.271662 
L 614.927727 80.983502 
L 616.337933 80.508942 
L 617.043036 80.983502 
L 617.748139 80.825315 
L 619.158345 80.192569 
L 620.568551 80.113476 
L 621.273654 79.876196 
L 621.978758 79.797102 
L 622.683861 79.955289 
L 623.388964 79.797102 
L 628.324685 79.797102 
L 629.029788 79.955289 
L 629.734891 80.825315 
L 630.439995 80.904409 
L 631.145098 80.746222 
L 631.850201 81.774435 
L 632.555304 81.378969 
L 633.260407 81.458062 
L 633.96551 80.904409 
L 635.375716 80.429849 
L 636.080819 80.904409 
L 636.785922 80.588035 
L 638.196128 80.508942 
L 640.311438 79.797102 
L 641.016541 80.192569 
L 641.721644 79.797102 
L 642.426747 79.876196 
L 643.836953 79.797102 
L 645.952262 79.876196 
L 647.362468 80.034382 
L 648.067572 79.876196 
L 648.772675 79.876196 
L 649.477778 80.113476 
L 650.182881 80.192569 
L 651.593087 80.983502 
L 652.29819 81.141689 
L 653.003293 80.667129 
L 653.708396 81.062595 
L 654.413499 80.508942 
L 655.118602 80.667129 
L 655.823705 80.271662 
L 657.233912 80.113476 
L 657.939015 80.192569 
L 658.644118 80.508942 
L 659.349221 80.667129 
L 662.169633 80.034382 
L 662.874736 80.192569 
L 663.579839 80.113476 
L 664.284942 80.508942 
L 664.990046 80.350755 
L 665.695149 80.034382 
L 666.400252 79.876196 
L 667.105355 79.955289 
L 668.515561 79.797102 
L 669.220664 79.876196 
L 669.925767 79.797102 
L 670.63087 79.876196 
L 672.041076 79.797102 
L 672.746179 79.955289 
L 674.156386 79.876196 
L 674.861489 79.797102 
L 675.566592 79.955289 
L 676.271695 80.271662 
L 676.976798 80.113476 
L 678.387004 80.588035 
L 679.092107 80.429849 
L 679.79721 80.904409 
L 680.502313 81.537155 
L 681.207416 80.429849 
L 681.91252 80.508942 
L 682.617623 80.113476 
L 683.322726 80.271662 
L 684.027829 79.955289 
L 684.732932 80.113476 
L 686.143138 79.876196 
L 686.848241 79.797102 
L 688.258447 79.876196 
L 688.96355 79.876196 
L 689.668653 80.034382 
L 691.07886 79.955289 
L 692.489066 79.955289 
L 693.194169 80.429849 
L 693.899272 80.113476 
L 694.604375 80.034382 
L 695.309478 80.508942 
L 696.014581 80.588035 
L 696.719684 80.429849 
L 697.424787 81.062595 
L 698.12989 80.350755 
L 698.834993 80.429849 
L 699.540097 80.271662 
L 700.2452 80.667129 
L 700.950303 80.271662 
L 701.655406 80.034382 
L 702.360509 80.271662 
L 703.065612 79.876196 
L 703.770715 80.192569 
L 704.475818 80.350755 
L 705.180921 80.034382 
L 706.591127 79.876196 
L 707.29623 79.955289 
L 708.001334 80.271662 
L 708.706437 80.034382 
L 710.116643 80.350755 
L 710.821746 80.034382 
L 711.526849 80.192569 
L 712.231952 79.955289 
L 713.642158 80.192569 
L 714.347261 79.955289 
L 715.052364 80.350755 
L 715.757467 80.034382 
L 717.167674 80.113476 
L 717.872777 80.508942 
L 718.57788 80.271662 
L 719.282983 80.429849 
L 719.988086 80.113476 
L 720.693189 80.904409 
L 721.398292 80.113476 
L 722.103395 80.271662 
L 722.808498 80.192569 
L 723.513601 79.955289 
L 727.039117 79.876196 
L 727.74422 79.797102 
L 728.449323 79.876196 
L 729.859529 79.797102 
L 745.371797 79.797102 
L 746.0769 80.429849 
L 746.782003 80.825315 
L 747.487106 81.458062 
L 748.192209 81.537155 
L 749.602415 80.429849 
L 750.307518 80.588035 
L 751.717725 80.588035 
L 752.422828 80.192569 
L 753.127931 80.113476 
L 753.833034 79.797102 
L 755.24324 79.876196 
L 784.152466 79.876196 
L 784.857569 80.192569 
L 785.562673 80.825315 
L 786.267776 81.299875 
L 786.972879 80.588035 
L 787.677982 80.667129 
L 788.383085 81.062595 
L 789.088188 80.588035 
L 789.793291 80.350755 
L 790.498394 80.508942 
L 791.203497 80.508942 
L 791.9086 80.271662 
L 792.613703 80.192569 
L 793.318806 79.876196 
L 794.02391 80.192569 
L 794.729013 79.955289 
L 795.434116 79.955289 
L 796.139219 79.797102 
L 796.844322 79.876196 
L 798.254528 79.797102 
L 824.343342 79.797102 
L 825.048445 79.955289 
L 825.753548 80.825315 
L 826.458651 80.429849 
L 827.163754 80.588035 
L 827.868857 80.983502 
L 828.573961 80.588035 
L 829.279064 80.746222 
L 829.984167 80.113476 
L 830.68927 80.192569 
L 833.509682 79.797102 
L 834.214785 80.113476 
L 834.919888 79.797102 
L 835.624991 80.034382 
L 836.330094 79.797102 
L 837.035197 79.876196 
L 838.445404 79.797102 
L 858.893393 79.876196 
L 860.303599 79.955289 
L 861.008702 80.271662 
L 861.713805 80.271662 
L 862.418908 80.113476 
L 863.124012 80.113476 
L 863.829115 80.271662 
L 864.534218 80.034382 
L 865.944424 80.113476 
L 867.35463 80.034382 
L 868.059733 79.955289 
L 869.469939 80.034382 
L 870.175042 79.876196 
L 870.880145 80.034382 
L 871.585249 79.797102 
L 872.995455 79.876196 
L 879.341382 79.955289 
L 880.046485 80.034382 
L 880.751589 79.876196 
L 882.866898 80.113476 
L 883.572001 79.876196 
L 884.277104 79.876196 
L 887.097516 80.429849 
L 887.802619 80.192569 
L 892.033238 79.797102 
L 892.738341 79.797102 
L 894.148547 80.034382 
L 894.85365 79.955289 
L 895.558753 80.192569 
L 897.674063 79.797102 
L 899.789372 80.034382 
L 901.199578 79.797102 
L 942.095557 79.797102 
L 943.505763 80.192569 
L 944.210866 80.825315 
L 944.915969 80.825315 
L 945.621072 80.429849 
L 946.326175 80.271662 
L 947.031278 79.955289 
L 948.441484 79.955289 
L 949.146587 79.797102 
L 949.851691 79.876196 
L 951.261897 79.797102 
L 965.363958 79.876196 
L 966.069061 80.113476 
L 966.774165 80.192569 
L 968.184371 80.034382 
L 968.889474 79.797102 
L 969.594577 79.876196 
L 971.004783 79.797102 
L 971.709886 79.955289 
L 973.120092 79.876196 
L 973.825195 80.034382 
L 975.235402 79.797102 
L 975.940505 79.955289 
L 976.645608 79.876196 
L 978.055814 79.955289 
L 979.46602 79.955289 
L 980.171123 80.192569 
L 980.876226 80.034382 
L 981.581329 80.429849 
L 982.286432 79.797102 
L 984.401742 79.797102 
L 985.811948 80.113476 
L 986.517051 80.113476 
L 987.222154 79.876196 
L 987.927257 79.797102 
L 989.337463 80.034382 
L 991.452772 80.034382 
L 992.157875 79.797102 
L 1003.439525 79.797102 
L 1003.439525 79.797102 
" clip-path="url(#p857e7565fd)" style="fill: none; stroke: #4c72b0; stroke-width: 6; stroke-linecap: round"/>
   </g>
   <g id="line2d_15">
    <path d="M 158.02093 581.488399 
L 158.726033 581.251155 
L 159.431136 581.488399 
L 160.136239 583.781754 
L 160.841342 582.83278 
L 161.546445 584.098079 
L 162.251548 584.256242 
L 162.956651 584.018998 
L 163.661754 584.414404 
L 164.366857 584.572567 
L 170.007682 584.572567 
L 170.712785 584.414404 
L 171.417888 584.493485 
L 172.122991 584.335323 
L 172.828094 584.651648 
L 173.533198 584.572567 
L 174.238301 584.335323 
L 174.943404 584.493485 
L 175.648507 584.493485 
L 176.35361 584.651648 
L 177.058713 584.414404 
L 179.174022 584.572567 
L 179.879125 584.256242 
L 181.289331 584.493485 
L 182.699538 584.414404 
L 183.404641 584.256242 
L 184.109744 584.493485 
L 185.51995 584.17716 
L 186.225053 584.572567 
L 186.930156 584.335323 
L 190.455672 584.335323 
L 191.160775 583.939917 
L 191.865878 583.860835 
L 192.570981 584.17716 
L 193.276084 583.939917 
L 193.981187 583.939917 
L 194.68629 584.335323 
L 195.391393 583.939917 
L 196.096496 584.098079 
L 196.801599 583.860835 
L 197.506702 584.018998 
L 198.211805 583.623592 
L 198.916908 584.018998 
L 200.327115 583.939917 
L 201.032218 584.414404 
L 201.737321 583.623592 
L 202.442424 584.018998 
L 203.147527 583.860835 
L 203.85263 583.860835 
L 205.262836 583.544511 
L 205.967939 583.939917 
L 206.673042 583.702673 
L 208.788352 583.781754 
L 210.198558 583.228186 
L 210.903661 583.781754 
L 211.608764 583.544511 
L 212.313867 583.781754 
L 213.01897 583.386348 
L 213.724073 582.753698 
L 214.429176 583.386348 
L 215.839382 583.149104 
L 216.544486 582.674617 
L 217.249589 583.149104 
L 217.954692 583.149104 
L 218.659795 582.437373 
L 219.364898 582.516455 
L 220.070001 583.149104 
L 220.775104 582.516455 
L 221.480207 582.911861 
L 222.890413 582.83278 
L 224.300619 582.753698 
L 225.005723 582.279211 
L 225.710826 582.516455 
L 226.415929 581.883805 
L 227.121032 582.358292 
L 227.826135 582.279211 
L 228.531238 581.646561 
L 229.236341 582.20013 
L 229.941444 583.149104 
L 230.646547 582.83278 
L 231.35165 582.20013 
L 232.056753 582.121048 
L 232.761856 581.409318 
L 233.46696 582.753698 
L 234.172063 582.358292 
L 235.582269 582.121048 
L 236.287372 582.595536 
L 236.992475 582.041967 
L 237.697578 581.804724 
L 238.402681 581.883805 
L 239.107784 582.358292 
L 239.812887 582.279211 
L 240.51799 581.409318 
L 241.223093 581.725642 
L 241.928196 582.358292 
L 243.338403 580.855749 
L 244.043506 580.855749 
L 244.748609 580.618505 
L 245.453712 581.488399 
L 246.158815 581.330236 
L 246.863918 581.646561 
L 247.569021 581.013911 
L 248.274124 581.092992 
L 248.979227 581.013911 
L 249.68433 581.172074 
L 250.389433 580.776668 
L 251.094537 581.013911 
L 252.504743 580.776668 
L 253.209846 580.697587 
L 253.914949 581.172074 
L 254.620052 580.30218 
L 256.030258 582.041967 
L 256.735361 581.013911 
L 258.145567 580.618505 
L 258.85067 579.985855 
L 259.555774 580.144018 
L 260.260877 579.432287 
L 260.96598 580.776668 
L 261.671083 579.827693 
L 262.376186 579.748612 
L 263.081289 580.381262 
L 263.786392 580.30218 
L 264.491495 579.59045 
L 265.196598 579.432287 
L 265.901701 578.562394 
L 266.606804 579.669531 
L 267.311907 579.353206 
L 268.017011 579.906774 
L 268.722114 578.799637 
L 269.427217 579.353206 
L 270.837423 578.799637 
L 271.542526 579.353206 
L 272.952732 579.195043 
L 274.362938 578.246068 
L 275.068041 578.641475 
L 276.478247 578.246068 
L 277.183351 578.166987 
L 277.888454 576.980769 
L 278.593557 577.771581 
L 279.29866 577.05985 
L 280.003763 576.585363 
L 280.708866 577.534338 
L 281.413969 577.05985 
L 282.119072 578.957799 
L 282.824175 576.980769 
L 283.529278 576.664444 
L 284.234381 576.901687 
L 284.939484 576.189957 
L 285.644588 577.455256 
L 286.349691 576.664444 
L 287.054794 576.980769 
L 287.759897 576.4272 
L 288.465 577.376175 
L 289.170103 575.952713 
L 289.875206 575.003739 
L 290.580309 576.110876 
L 291.285412 574.687413 
L 291.990515 572.868546 
L 292.695618 575.952713 
L 293.400721 575.003739 
L 294.105825 574.529251 
L 294.810928 575.557307 
L 295.516031 575.873631 
L 296.221134 575.873631 
L 297.63134 574.292007 
L 298.336443 576.4272 
L 299.041546 573.501195 
L 299.746649 576.189957 
L 300.451752 573.343032 
L 301.861958 573.422114 
L 302.567062 573.817519 
L 303.272165 573.105789 
L 303.977268 572.947627 
L 304.682371 572.947627 
L 305.387474 572.235895 
L 306.092577 573.738438 
L 306.79768 571.919571 
L 307.502783 570.891515 
L 308.207886 573.026708 
L 308.912989 572.947627 
L 309.618092 571.682326 
L 310.323195 571.603245 
L 311.028298 572.473139 
L 311.733402 571.366002 
L 312.438505 571.761408 
L 313.143608 572.710382 
L 313.848711 572.710382 
L 314.553814 571.524164 
L 315.258917 571.366002 
L 315.96402 571.682326 
L 316.669123 570.65427 
L 317.374226 570.021621 
L 318.079329 572.55222 
L 318.784432 571.524164 
L 319.489535 570.970596 
L 320.194639 567.095616 
L 320.899742 567.095616 
L 321.604845 571.524164 
L 322.309948 568.360915 
L 323.015051 568.914484 
L 323.720154 567.807347 
L 324.425257 569.072646 
L 325.13036 567.886429 
L 325.835463 569.388971 
L 326.540566 567.807347 
L 327.245669 567.41194 
L 327.950772 567.33286 
L 328.655876 567.649185 
L 330.066082 567.095616 
L 330.771185 567.253778 
L 331.476288 567.253778 
L 332.181391 565.988479 
L 333.591597 564.644098 
L 334.2967 567.016534 
L 335.001803 565.593073 
L 335.706906 564.485935 
L 336.412009 565.118584 
L 337.117113 563.457879 
L 337.822216 563.695123 
L 338.527319 564.72318 
L 339.232422 566.304803 
L 340.642628 563.536961 
L 341.347731 563.141554 
L 342.052834 562.983392 
L 342.757937 562.587986 
L 343.46304 562.508904 
L 344.168143 559.02933 
L 344.873246 560.848198 
L 345.57835 561.243604 
L 346.283453 561.876255 
L 346.988556 561.876255 
L 347.693659 560.769118 
L 348.398762 562.113499 
L 349.103865 561.639011 
L 349.808968 559.503819 
L 350.514071 557.764031 
L 351.219174 557.368625 
L 351.924277 557.368625 
L 352.62938 556.973218 
L 353.334483 554.838026 
L 354.039586 554.5217 
L 354.74469 554.047213 
L 355.449793 553.177321 
L 356.154896 550.963046 
L 356.859999 551.121207 
L 357.565102 553.572725 
L 358.270205 551.832937 
L 358.975308 552.386508 
L 360.385514 553.889051 
L 361.090617 552.860996 
L 361.79572 552.940075 
L 362.500823 555.391595 
L 363.205927 553.730889 
L 363.91103 553.493645 
L 364.616133 552.149266 
L 365.321236 554.205376 
L 366.026339 554.996188 
L 366.731442 553.809969 
L 367.436545 552.307426 
L 368.141648 553.019157 
L 368.846751 551.358453 
L 369.551854 551.279371 
L 370.256957 550.56764 
L 370.96206 548.511526 
L 372.372267 551.595695 
L 373.07737 547.404389 
L 373.782473 547.404389 
L 374.487576 547.088065 
L 375.192679 547.641635 
L 375.897782 548.353366 
L 376.602885 547.641635 
L 377.307988 545.031955 
L 378.013091 542.975841 
L 378.718194 543.054923 
L 379.423297 542.501353 
L 380.128401 541.55238 
L 380.833504 541.077891 
L 381.538607 542.185028 
L 382.24371 543.845736 
L 382.948813 541.315137 
L 383.653916 536.728425 
L 384.359019 536.965667 
L 385.064122 536.886589 
L 385.769225 541.315137 
L 386.474328 539.891676 
L 387.179431 537.123831 
L 387.884534 538.942699 
L 388.589637 533.881502 
L 389.294741 532.062634 
L 389.999844 531.429982 
L 390.704947 531.429982 
L 391.41005 530.401927 
L 392.115153 529.611114 
L 392.820256 530.00652 
L 393.525359 534.276908 
L 394.230462 532.141713 
L 394.935565 531.429982 
L 395.640668 530.322845 
L 396.345771 530.876415 
L 397.050874 532.062634 
L 397.755978 527.39684 
L 398.461081 527.713164 
L 399.166184 529.532032 
L 399.871287 530.322845 
L 400.57639 530.164684 
L 401.281493 525.577972 
L 401.986596 526.289703 
L 402.691699 525.49889 
L 403.396802 529.927438 
L 404.101905 525.103484 
L 404.807008 527.792246 
L 405.512111 525.182566 
L 406.217215 523.205534 
L 406.922318 522.019319 
L 407.627421 515.218332 
L 408.332524 517.907091 
L 409.037627 514.032113 
L 409.74273 511.027026 
L 410.447833 517.0372 
L 411.152936 509.919893 
L 411.858039 507.784697 
L 412.563142 509.682643 
L 413.268245 510.868862 
L 413.973348 514.664762 
L 414.678452 509.049994 
L 415.383555 509.12908 
L 416.088658 512.924972 
L 416.793761 508.259182 
L 417.498864 507.626533 
L 418.203967 506.598478 
L 418.90907 503.909719 
L 419.614173 502.486258 
L 420.319276 507.389291 
L 421.024379 508.259182 
L 421.729482 502.960742 
L 422.434585 499.876577 
L 423.139688 500.43014 
L 423.844792 498.294952 
L 424.549895 497.187811 
L 425.254998 497.82046 
L 425.960101 496.396998 
L 426.665204 492.917427 
L 427.370307 497.583217 
L 428.07541 491.493965 
L 428.780513 496.634241 
L 429.485616 496.555162 
L 430.190719 492.284778 
L 430.895822 491.41488 
L 431.600925 492.126614 
L 432.306029 488.409793 
L 433.011132 488.805199 
L 433.716235 483.664924 
L 434.421338 482.320541 
L 435.126441 484.218494 
L 435.831544 482.320541 
L 436.536647 478.603727 
L 437.24175 481.529728 
L 437.946853 479.15729 
L 438.651956 480.185345 
L 439.357059 484.297573 
L 440.062162 481.371564 
L 440.767266 480.106267 
L 441.472369 475.519554 
L 442.177472 478.920047 
L 442.882575 477.971071 
L 443.587678 472.909874 
L 444.292781 469.825709 
L 444.997884 463.499207 
L 445.702987 462.866558 
L 446.40809 462.075745 
L 447.113193 467.057864 
L 448.523399 458.912502 
L 449.228503 459.466065 
L 449.933606 457.409955 
L 450.638709 455.749251 
L 451.343812 454.800282 
L 452.048915 459.466065 
L 452.754018 457.963518 
L 453.459121 452.981407 
L 454.164224 449.818156 
L 455.57443 454.64211 
L 456.279533 446.259498 
L 456.984636 440.644731 
L 457.68974 442.463606 
L 458.394843 438.272293 
L 459.099946 431.234071 
L 459.805049 425.777461 
L 460.510152 425.065741 
L 461.215255 423.642272 
L 461.920358 432.103962 
L 462.625461 422.61421 
L 463.330564 427.675414 
L 464.035667 433.685588 
L 464.74077 434.792729 
L 465.445873 426.489195 
L 466.150976 421.981569 
L 466.85608 421.90249 
L 467.561183 417.632099 
L 468.266286 417.55302 
L 468.971389 416.050473 
L 469.676492 411.068362 
L 470.381595 407.114298 
L 471.086698 410.356627 
L 471.791801 405.216345 
L 472.496904 404.662782 
L 473.202007 401.736766 
L 473.90711 396.991904 
L 474.612213 393.116919 
L 475.317317 395.093951 
L 476.02242 393.749575 
L 476.727523 395.331201 
L 477.432626 398.257202 
L 478.137729 396.28017 
L 478.842832 391.9307 
L 479.547935 392.563356 
L 480.253038 391.456215 
L 480.958141 395.014873 
L 481.663244 401.657687 
L 482.368347 401.183203 
L 483.07345 396.833733 
L 483.778554 396.991904 
L 484.483657 398.57353 
L 485.18876 387.343995 
L 485.893863 386.236854 
L 486.598966 378.882305 
L 487.304069 374.216507 
L 488.009172 366.466551 
L 488.714275 366.624708 
L 489.419378 361.642596 
L 490.124481 355.474251 
L 490.829584 355.869658 
L 491.534687 355.711501 
L 494.3551 344.561045 
L 495.060203 341.397794 
L 495.765306 339.816168 
L 496.470409 348.989593 
L 497.175512 354.683438 
L 497.880615 352.943656 
L 498.585718 356.818642 
L 499.290821 353.971719 
L 499.995924 360.219128 
L 500.701027 355.395173 
L 501.406131 348.356952 
L 502.111234 346.696233 
L 502.816337 341.318715 
L 503.52144 331.51265 
L 504.226543 332.382541 
L 504.931646 323.050959 
L 505.636749 324.395335 
L 506.341852 333.252432 
L 507.046955 326.21421 
L 507.752058 330.56368 
L 508.457161 322.10199 
L 509.162264 320.204021 
L 509.867368 320.994834 
L 510.572471 313.323957 
L 511.277574 308.737237 
L 511.982677 310.002549 
L 513.392883 302.015359 
L 514.097986 302.964328 
L 514.803089 305.494923 
L 515.508192 300.82914 
L 516.213295 300.987296 
L 516.918398 295.926107 
L 517.623501 294.977107 
L 518.328605 301.540859 
L 519.033708 291.6557 
L 519.738811 288.334293 
L 520.443914 283.19401 
L 521.149017 292.288356 
L 523.264326 271.094599 
L 523.969429 277.262914 
L 524.674532 275.444069 
L 525.379635 282.561354 
L 526.084738 283.273103 
L 526.789842 269.750193 
L 527.494945 275.206819 
L 528.200048 270.066537 
L 528.905151 267.298692 
L 529.610254 261.68391 
L 530.315357 260.97219 
L 531.02046 250.928875 
L 532.430666 239.303933 
L 533.135769 237.089652 
L 533.840872 235.982526 
L 534.545975 235.11262 
L 535.251078 231.158556 
L 535.956182 233.372838 
L 536.661285 227.520836 
L 537.366388 224.832085 
L 538.071491 229.656024 
L 538.776594 241.043715 
L 539.481697 247.528374 
L 540.1868 244.760529 
L 540.891903 237.405995 
L 541.597006 242.704434 
L 542.302109 244.04881 
L 543.007212 236.615182 
L 543.712315 231.712149 
L 544.417419 228.548898 
L 545.827625 219.454552 
L 546.532728 226.571867 
L 547.237831 224.990241 
L 547.942934 221.431584 
L 548.648037 225.543804 
L 549.35314 223.408616 
L 550.058243 228.232555 
L 550.763346 218.426489 
L 551.468449 211.467331 
L 552.173552 205.773486 
L 552.878656 192.09245 
L 553.583759 186.477667 
L 554.288862 186.082261 
L 554.993965 192.566919 
L 555.699068 187.822043 
L 556.404171 197.707202 
L 557.109274 197.232732 
L 557.814377 196.44192 
L 558.51948 190.273574 
L 559.224583 189.482762 
L 560.634789 177.699664 
L 562.044996 172.480288 
L 562.750099 164.255848 
L 563.455202 159.669128 
L 564.160305 158.641095 
L 564.865408 157.138533 
L 565.570511 156.664063 
L 566.275614 157.771189 
L 566.980717 160.618127 
L 567.68582 158.087502 
L 568.390923 154.607938 
L 569.096026 155.952314 
L 570.506233 166.232879 
L 571.211336 163.385972 
L 572.621542 173.033881 
L 573.326645 175.406319 
L 574.031748 174.852726 
L 574.736851 164.255848 
L 575.441954 164.018598 
L 576.147057 166.786442 
L 577.557263 156.189564 
L 578.262366 154.607938 
L 578.96747 154.449782 
L 579.672573 146.699811 
L 580.377676 147.332467 
L 581.082779 144.485559 
L 582.492985 142.745747 
L 583.198088 142.192184 
L 583.903191 136.972839 
L 584.608294 135.233057 
L 585.313397 137.130995 
L 586.0185 143.694747 
L 586.723603 139.108027 
L 587.428707 132.227962 
L 588.13381 131.1999 
L 588.838913 136.577432 
L 589.544016 134.284057 
L 590.954222 139.266183 
L 591.659325 134.83765 
L 592.364428 136.340182 
L 593.069531 130.7254 
L 593.774634 127.641242 
L 594.479737 125.426961 
L 595.18484 125.426961 
L 595.889944 124.082585 
L 596.595047 123.133616 
L 597.30015 125.426961 
L 598.005253 125.426961 
L 598.710356 125.66421 
L 599.415459 120.444865 
L 600.120562 120.761178 
L 600.825665 116.016301 
L 601.530768 114.118363 
L 602.940974 111.271425 
L 604.351181 112.457644 
L 605.056284 122.184647 
L 605.761387 122.184647 
L 606.46649 124.082585 
L 607.171593 121.472897 
L 607.876696 117.756083 
L 608.581799 115.225488 
L 609.286902 116.332614 
L 609.992005 116.253551 
L 610.697108 116.648957 
L 611.402211 114.355613 
L 612.107314 110.876018 
L 612.812417 109.136236 
L 613.517521 110.796955 
L 614.222624 111.904081 
L 614.927727 110.955112 
L 616.337933 110.243362 
L 617.043036 108.26633 
L 617.748139 105.735736 
L 618.453242 102.018922 
L 619.158345 100.04189 
L 619.863448 97.669452 
L 620.568551 97.511295 
L 621.273654 96.562326 
L 621.978758 94.664388 
L 622.683861 92.371013 
L 623.388964 92.687356 
L 624.094067 92.766419 
L 625.504273 89.682261 
L 626.209376 89.524105 
L 627.619582 87.863386 
L 628.324685 88.496042 
L 629.029788 90.473074 
L 629.734891 96.16692 
L 630.439995 96.878639 
L 631.145098 103.205141 
L 631.850201 102.809735 
L 632.555304 103.679641 
L 633.260407 99.567421 
L 633.96551 98.064858 
L 634.670613 100.27914 
L 635.375716 95.850577 
L 636.080819 97.827608 
L 636.785922 95.138857 
L 637.491025 96.087826 
L 638.196128 95.059764 
L 638.901232 94.664388 
L 641.016541 91.026637 
L 641.721644 92.133763 
L 642.426747 92.529169 
L 643.13185 89.840418 
L 643.836953 88.970512 
L 644.542056 88.733292 
L 645.952262 90.710324 
L 646.657365 89.682261 
L 647.362468 87.072573 
L 648.067572 87.072573 
L 648.772675 88.891449 
L 649.477778 92.450106 
L 650.182881 92.529169 
L 650.887984 93.082762 
L 651.593087 94.189888 
L 652.29819 96.562326 
L 653.003293 96.16692 
L 653.708396 96.641389 
L 654.413499 95.534264 
L 655.118602 96.40417 
L 655.823705 94.110795 
L 656.528809 90.235824 
L 657.233912 88.970512 
L 657.939015 93.636325 
L 658.644118 92.529169 
L 659.349221 92.845512 
L 660.054324 90.86848 
L 660.759427 91.501137 
L 661.46453 90.314918 
L 662.874736 87.072573 
L 663.579839 90.947544 
L 664.284942 92.450106 
L 665.695149 89.998574 
L 666.400252 88.258792 
L 667.105355 87.46798 
L 667.810458 86.99348 
L 668.515561 86.202667 
L 669.220664 85.016448 
L 669.925767 84.937385 
L 670.63087 84.304729 
L 671.335973 83.830259 
L 672.746179 83.434853 
L 673.451283 84.067479 
L 674.156386 84.383822 
L 674.861489 83.513916 
L 675.566592 84.225666 
L 676.271695 84.700135 
L 676.976798 87.547073 
L 677.681901 88.416949 
L 678.387004 87.309823 
L 679.092107 92.133763 
L 679.79721 89.761325 
L 680.502313 88.575106 
L 681.207416 89.128698 
L 681.91252 87.46798 
L 682.617623 86.914417 
L 683.322726 85.886354 
L 684.027829 85.649104 
L 684.732932 86.360854 
L 685.438035 86.598074 
L 686.143138 84.858292 
L 686.848241 83.513916 
L 687.553344 82.88126 
L 688.258447 82.64404 
L 688.96355 83.197603 
L 689.668653 84.067479 
L 690.373756 83.434853 
L 691.07886 83.513916 
L 691.783963 84.383822 
L 692.489066 84.067479 
L 693.194169 85.965448 
L 693.899272 83.988416 
L 694.604375 86.123604 
L 696.014581 85.965448 
L 696.719684 89.919511 
L 697.424787 88.337886 
L 698.12989 87.23073 
L 698.834993 86.360854 
L 699.540097 86.914417 
L 700.2452 86.044511 
L 700.950303 85.728198 
L 701.655406 84.621072 
L 702.360509 84.067479 
L 703.065612 84.937385 
L 703.770715 84.462885 
L 704.475818 83.513916 
L 705.180921 83.039447 
L 705.886024 83.434853 
L 706.591127 83.434853 
L 707.29623 82.248634 
L 708.706437 83.988416 
L 709.41154 83.434853 
L 710.116643 83.35576 
L 711.526849 82.011384 
L 712.231952 83.11851 
L 712.937055 83.197603 
L 713.642158 83.830259 
L 715.052364 82.011384 
L 715.757467 82.564947 
L 716.462571 82.16954 
L 717.167674 82.802197 
L 717.872777 82.485854 
L 718.57788 85.253698 
L 719.282983 83.751166 
L 719.988086 86.360854 
L 720.693189 82.960353 
L 721.398292 83.909322 
L 723.513601 82.64404 
L 724.923807 81.457821 
L 725.628911 81.457821 
L 726.334014 81.141478 
L 727.039117 81.062415 
L 727.74422 81.536884 
L 729.154426 81.457821 
L 731.269735 80.904228 
L 731.974838 80.587915 
L 734.090148 80.429758 
L 741.141178 80.429758 
L 741.846281 80.746072 
L 743.256488 80.350665 
L 743.961591 80.587915 
L 744.666694 81.695041 
L 745.371797 81.220571 
L 746.0769 82.16954 
L 746.782003 82.564947 
L 747.487106 83.672073 
L 748.192209 83.513916 
L 748.897312 82.802197 
L 749.602415 83.751166 
L 750.307518 83.35576 
L 751.012622 82.802197 
L 751.717725 83.11851 
L 752.422828 81.774134 
L 753.127931 81.062415 
L 753.833034 80.508822 
L 754.538137 80.508822 
L 755.24324 80.271602 
L 756.653446 80.350665 
L 760.178962 80.034352 
L 782.74226 79.955259 
L 783.447363 79.876196 
L 784.152466 79.955259 
L 785.562673 81.853227 
L 786.267776 81.853227 
L 786.972879 81.695041 
L 787.677982 82.802197 
L 788.383085 83.35576 
L 789.088188 82.485854 
L 789.793291 82.090447 
L 790.498394 81.220571 
L 791.203497 81.141478 
L 791.9086 81.536884 
L 792.613703 80.983321 
L 793.318806 81.299634 
L 794.02391 81.062415 
L 794.729013 81.062415 
L 795.434116 80.825165 
L 796.139219 80.746072 
L 797.549425 80.034352 
L 798.959631 79.955259 
L 800.369837 79.876196 
L 824.343342 79.797102 
L 825.048445 81.457821 
L 825.753548 80.904228 
L 826.458651 82.248634 
L 827.163754 80.983321 
L 827.868857 81.536884 
L 828.573961 82.248634 
L 829.984167 81.220571 
L 830.68927 81.062415 
L 832.099476 80.350665 
L 832.804579 80.271602 
L 833.509682 80.429758 
L 834.919888 80.350665 
L 835.624991 80.113415 
L 836.330094 80.034352 
L 837.740301 80.271602 
L 839.150507 79.955259 
L 848.316847 79.955259 
L 849.02195 80.113415 
L 850.432156 80.034352 
L 852.547465 80.113415 
L 853.252568 79.876196 
L 856.072981 79.876196 
L 856.778084 80.271602 
L 858.18829 80.113415 
L 859.598496 80.429758 
L 860.303599 80.192509 
L 861.008702 80.904228 
L 861.713805 80.825165 
L 862.418908 81.536884 
L 863.124012 80.904228 
L 863.829115 80.746072 
L 864.534218 80.429758 
L 865.239321 80.983321 
L 866.649527 80.904228 
L 867.35463 80.192509 
L 868.059733 80.192509 
L 868.764836 80.746072 
L 870.175042 80.825165 
L 870.880145 79.955259 
L 871.585249 80.034352 
L 872.290352 80.271602 
L 872.995455 80.113415 
L 873.700558 80.350665 
L 875.815867 79.876196 
L 877.931176 79.876196 
L 878.636279 80.034352 
L 879.341382 80.904228 
L 880.046485 80.192509 
L 881.456692 80.192509 
L 882.161795 80.350665 
L 882.866898 80.113415 
L 883.572001 80.113415 
L 884.277104 79.955259 
L 884.982207 80.271602 
L 885.68731 80.904228 
L 886.392413 80.904228 
L 887.097516 80.587915 
L 887.802619 80.904228 
L 888.507722 80.350665 
L 889.212826 80.587915 
L 889.917929 80.508822 
L 890.623032 80.192509 
L 891.328135 80.350665 
L 892.033238 80.271602 
L 892.738341 80.034352 
L 894.85365 80.350665 
L 895.558753 80.746072 
L 896.263856 80.113415 
L 897.674063 80.034352 
L 899.789372 80.034352 
L 900.494475 80.429758 
L 901.199578 80.350665 
L 902.609784 79.797102 
L 942.095557 79.797102 
L 942.80066 80.034352 
L 943.505763 80.429758 
L 944.915969 80.825165 
L 945.621072 81.141478 
L 946.326175 80.034352 
L 947.736381 80.034352 
L 948.441484 79.876196 
L 949.851691 79.955259 
L 951.967 79.797102 
L 964.658855 79.797102 
L 965.363958 80.034352 
L 966.069061 79.797102 
L 966.774165 80.034352 
L 968.184371 80.113415 
L 968.889474 80.271602 
L 969.594577 79.955259 
L 971.709886 79.797102 
L 973.120092 79.797102 
L 973.825195 79.955259 
L 974.530298 79.797102 
L 975.940505 79.797102 
L 976.645608 80.034352 
L 977.350711 79.876196 
L 978.760917 79.955259 
L 980.876226 79.955259 
L 981.581329 80.113415 
L 984.401742 79.876196 
L 985.811948 79.797102 
L 986.517051 80.192509 
L 987.222154 79.955259 
L 987.927257 80.113415 
L 988.63236 79.876196 
L 990.747669 80.192509 
L 991.452772 79.876196 
L 1003.439525 79.797102 
L 1003.439525 79.797102 
" clip-path="url(#p857e7565fd)" style="fill: none; stroke: #dd8452; stroke-width: 6; stroke-linecap: round"/>
   </g>
   <g id="line2d_16"/>
   <g id="line2d_17"/>
   <g id="patch_3">
    <path d="M 115.75 609.894375 
L 115.75 54.554375 
" style="fill: none; stroke: #cccccc; stroke-width: 1.875; stroke-linejoin: miter; stroke-linecap: square"/>
   </g>
   <g id="patch_4">
    <path d="M 1045.710455 609.894375 
L 1045.710455 54.554375 
" style="fill: none; stroke: #cccccc; stroke-width: 1.875; stroke-linejoin: miter; stroke-linecap: square"/>
   </g>
   <g id="patch_5">
    <path d="M 115.75 609.894375 
L 1045.710455 609.894375 
" style="fill: none; stroke: #cccccc; stroke-width: 1.875; stroke-linejoin: miter; stroke-linecap: square"/>
   </g>
   <g id="patch_6">
    <path d="M 115.75 54.554375 
L 1045.710455 54.554375 
" style="fill: none; stroke: #cccccc; stroke-width: 1.875; stroke-linejoin: miter; stroke-linecap: square"/>
   </g>
   <g id="text_16">
    <!-- Training Progress: Accuracy -->
    <g style="fill: #262626" transform="translate(297.48054 34.554375) scale(0.36 -0.36)">
     <defs>
      <path id="DejaVuSans-Bold-54" d="M 31 4666 
L 4331 4666 
L 4331 3756 
L 2784 3756 
L 2784 0 
L 1581 0 
L 1581 3756 
L 31 3756 
L 31 4666 
z
" transform="scale(0.015625)"/>
      <path id="DejaVuSans-Bold-72" d="M 3138 2547 
Q 2991 2616 2845 2648 
Q 2700 2681 2553 2681 
Q 2122 2681 1889 2404 
Q 1656 2128 1656 1613 
L 1656 0 
L 538 0 
L 538 3500 
L 1656 3500 
L 1656 2925 
Q 1872 3269 2151 3426 
Q 2431 3584 2822 3584 
Q 2878 3584 2943 3579 
Q 3009 3575 3134 3559 
L 3138 2547 
z
" transform="scale(0.015625)"/>
      <path id="DejaVuSans-Bold-61" d="M 2106 1575 
Q 1756 1575 1579 1456 
Q 1403 1338 1403 1106 
Q 1403 894 1545 773 
Q 1688 653 1941 653 
Q 2256 653 2472 879 
Q 2688 1106 2688 1447 
L 2688 1575 
L 2106 1575 
z
M 3816 1997 
L 3816 0 
L 2688 0 
L 2688 519 
Q 2463 200 2181 54 
Q 1900 -91 1497 -91 
Q 953 -91 614 226 
Q 275 544 275 1050 
Q 275 1666 698 1953 
Q 1122 2241 2028 2241 
L 2688 2241 
L 2688 2328 
Q 2688 2594 2478 2717 
Q 2269 2841 1825 2841 
Q 1466 2841 1156 2769 
Q 847 2697 581 2553 
L 581 3406 
Q 941 3494 1303 3539 
Q 1666 3584 2028 3584 
Q 2975 3584 3395 3211 
Q 3816 2838 3816 1997 
z
" transform="scale(0.015625)"/>
      <path id="DejaVuSans-Bold-69" d="M 538 3500 
L 1656 3500 
L 1656 0 
L 538 0 
L 538 3500 
z
M 538 4863 
L 1656 4863 
L 1656 3950 
L 538 3950 
L 538 4863 
z
" transform="scale(0.015625)"/>
      <path id="DejaVuSans-Bold-6e" d="M 4056 2131 
L 4056 0 
L 2931 0 
L 2931 347 
L 2931 1631 
Q 2931 2084 2911 2256 
Q 2891 2428 2841 2509 
Q 2775 2619 2662 2680 
Q 2550 2741 2406 2741 
Q 2056 2741 1856 2470 
Q 1656 2200 1656 1722 
L 1656 0 
L 538 0 
L 538 3500 
L 1656 3500 
L 1656 2988 
Q 1909 3294 2193 3439 
Q 2478 3584 2822 3584 
Q 3428 3584 3742 3212 
Q 4056 2841 4056 2131 
z
" transform="scale(0.015625)"/>
      <path id="DejaVuSans-Bold-67" d="M 2919 594 
Q 2688 288 2409 144 
Q 2131 0 1766 0 
Q 1125 0 706 504 
Q 288 1009 288 1791 
Q 288 2575 706 3076 
Q 1125 3578 1766 3578 
Q 2131 3578 2409 3434 
Q 2688 3291 2919 2981 
L 2919 3500 
L 4044 3500 
L 4044 353 
Q 4044 -491 3511 -936 
Q 2978 -1381 1966 -1381 
Q 1638 -1381 1331 -1331 
Q 1025 -1281 716 -1178 
L 716 -306 
Q 1009 -475 1290 -558 
Q 1572 -641 1856 -641 
Q 2406 -641 2662 -400 
Q 2919 -159 2919 353 
L 2919 594 
z
M 2181 2772 
Q 1834 2772 1640 2515 
Q 1447 2259 1447 1791 
Q 1447 1309 1634 1061 
Q 1822 813 2181 813 
Q 2531 813 2725 1069 
Q 2919 1325 2919 1791 
Q 2919 2259 2725 2515 
Q 2531 2772 2181 2772 
z
" transform="scale(0.015625)"/>
      <path id="DejaVuSans-Bold-20" transform="scale(0.015625)"/>
      <path id="DejaVuSans-Bold-50" d="M 588 4666 
L 2584 4666 
Q 3475 4666 3951 4270 
Q 4428 3875 4428 3144 
Q 4428 2409 3951 2014 
Q 3475 1619 2584 1619 
L 1791 1619 
L 1791 0 
L 588 0 
L 588 4666 
z
M 1791 3794 
L 1791 2491 
L 2456 2491 
Q 2806 2491 2997 2661 
Q 3188 2831 3188 3144 
Q 3188 3456 2997 3625 
Q 2806 3794 2456 3794 
L 1791 3794 
z
" transform="scale(0.015625)"/>
      <path id="DejaVuSans-Bold-6f" d="M 2203 2784 
Q 1831 2784 1636 2517 
Q 1441 2250 1441 1747 
Q 1441 1244 1636 976 
Q 1831 709 2203 709 
Q 2569 709 2762 976 
Q 2956 1244 2956 1747 
Q 2956 2250 2762 2517 
Q 2569 2784 2203 2784 
z
M 2203 3584 
Q 3106 3584 3614 3096 
Q 4122 2609 4122 1747 
Q 4122 884 3614 396 
Q 3106 -91 2203 -91 
Q 1297 -91 786 396 
Q 275 884 275 1747 
Q 275 2609 786 3096 
Q 1297 3584 2203 3584 
z
" transform="scale(0.015625)"/>
      <path id="DejaVuSans-Bold-65" d="M 4031 1759 
L 4031 1441 
L 1416 1441 
Q 1456 1047 1700 850 
Q 1944 653 2381 653 
Q 2734 653 3104 758 
Q 3475 863 3866 1075 
L 3866 213 
Q 3469 63 3072 -14 
Q 2675 -91 2278 -91 
Q 1328 -91 801 392 
Q 275 875 275 1747 
Q 275 2603 792 3093 
Q 1309 3584 2216 3584 
Q 3041 3584 3536 3087 
Q 4031 2591 4031 1759 
z
M 2881 2131 
Q 2881 2450 2695 2645 
Q 2509 2841 2209 2841 
Q 1884 2841 1681 2658 
Q 1478 2475 1428 2131 
L 2881 2131 
z
" transform="scale(0.015625)"/>
      <path id="DejaVuSans-Bold-73" d="M 3272 3391 
L 3272 2541 
Q 2913 2691 2578 2766 
Q 2244 2841 1947 2841 
Q 1628 2841 1473 2761 
Q 1319 2681 1319 2516 
Q 1319 2381 1436 2309 
Q 1553 2238 1856 2203 
L 2053 2175 
Q 2913 2066 3209 1816 
Q 3506 1566 3506 1031 
Q 3506 472 3093 190 
Q 2681 -91 1863 -91 
Q 1516 -91 1145 -36 
Q 775 19 384 128 
L 384 978 
Q 719 816 1070 734 
Q 1422 653 1784 653 
Q 2113 653 2278 743 
Q 2444 834 2444 1013 
Q 2444 1163 2330 1236 
Q 2216 1309 1875 1350 
L 1678 1375 
Q 931 1469 631 1722 
Q 331 1975 331 2491 
Q 331 3047 712 3315 
Q 1094 3584 1881 3584 
Q 2191 3584 2531 3537 
Q 2872 3491 3272 3391 
z
" transform="scale(0.015625)"/>
      <path id="DejaVuSans-Bold-3a" d="M 716 3500 
L 1844 3500 
L 1844 2291 
L 716 2291 
L 716 3500 
z
M 716 1209 
L 1844 1209 
L 1844 0 
L 716 0 
L 716 1209 
z
" transform="scale(0.015625)"/>
      <path id="DejaVuSans-Bold-41" d="M 3419 850 
L 1538 850 
L 1241 0 
L 31 0 
L 1759 4666 
L 3194 4666 
L 4922 0 
L 3713 0 
L 3419 850 
z
M 1838 1716 
L 3116 1716 
L 2478 3572 
L 1838 1716 
z
" transform="scale(0.015625)"/>
      <path id="DejaVuSans-Bold-63" d="M 3366 3391 
L 3366 2478 
Q 3138 2634 2908 2709 
Q 2678 2784 2431 2784 
Q 1963 2784 1702 2511 
Q 1441 2238 1441 1747 
Q 1441 1256 1702 982 
Q 1963 709 2431 709 
Q 2694 709 2930 787 
Q 3166 866 3366 1019 
L 3366 103 
Q 3103 6 2833 -42 
Q 2563 -91 2291 -91 
Q 1344 -91 809 395 
Q 275 881 275 1747 
Q 275 2613 809 3098 
Q 1344 3584 2291 3584 
Q 2566 3584 2833 3536 
Q 3100 3488 3366 3391 
z
" transform="scale(0.015625)"/>
      <path id="DejaVuSans-Bold-75" d="M 500 1363 
L 500 3500 
L 1625 3500 
L 1625 3150 
Q 1625 2866 1622 2436 
Q 1619 2006 1619 1863 
Q 1619 1441 1641 1255 
Q 1663 1069 1716 984 
Q 1784 875 1895 815 
Q 2006 756 2150 756 
Q 2500 756 2700 1025 
Q 2900 1294 2900 1772 
L 2900 3500 
L 4019 3500 
L 4019 0 
L 2900 0 
L 2900 506 
Q 2647 200 2364 54 
Q 2081 -91 1741 -91 
Q 1134 -91 817 281 
Q 500 653 500 1363 
z
" transform="scale(0.015625)"/>
      <path id="DejaVuSans-Bold-79" d="M 78 3500 
L 1197 3500 
L 2138 1125 
L 2938 3500 
L 4056 3500 
L 2584 -331 
Q 2363 -916 2067 -1148 
Q 1772 -1381 1288 -1381 
L 641 -1381 
L 641 -647 
L 991 -647 
Q 1275 -647 1404 -556 
Q 1534 -466 1606 -231 
L 1638 -134 
L 78 3500 
z
" transform="scale(0.015625)"/>
     </defs>
     <use xlink:href="#DejaVuSans-Bold-54"/>
     <use xlink:href="#DejaVuSans-Bold-72" transform="translate(57.212891 0)"/>
     <use xlink:href="#DejaVuSans-Bold-61" transform="translate(106.529297 0)"/>
     <use xlink:href="#DejaVuSans-Bold-69" transform="translate(174.009766 0)"/>
     <use xlink:href="#DejaVuSans-Bold-6e" transform="translate(208.287109 0)"/>
     <use xlink:href="#DejaVuSans-Bold-69" transform="translate(279.478516 0)"/>
     <use xlink:href="#DejaVuSans-Bold-6e" transform="translate(313.755859 0)"/>
     <use xlink:href="#DejaVuSans-Bold-67" transform="translate(384.947266 0)"/>
     <use xlink:href="#DejaVuSans-Bold-20" transform="translate(456.529297 0)"/>
     <use xlink:href="#DejaVuSans-Bold-50" transform="translate(491.34375 0)"/>
     <use xlink:href="#DejaVuSans-Bold-72" transform="translate(564.634766 0)"/>
     <use xlink:href="#DejaVuSans-Bold-6f" transform="translate(613.951172 0)"/>
     <use xlink:href="#DejaVuSans-Bold-67" transform="translate(682.652344 0)"/>
     <use xlink:href="#DejaVuSans-Bold-72" transform="translate(754.234375 0)"/>
     <use xlink:href="#DejaVuSans-Bold-65" transform="translate(803.550781 0)"/>
     <use xlink:href="#DejaVuSans-Bold-73" transform="translate(871.373047 0)"/>
     <use xlink:href="#DejaVuSans-Bold-73" transform="translate(930.894531 0)"/>
     <use xlink:href="#DejaVuSans-Bold-3a" transform="translate(990.416016 0)"/>
     <use xlink:href="#DejaVuSans-Bold-20" transform="translate(1030.40625 0)"/>
     <use xlink:href="#DejaVuSans-Bold-41" transform="translate(1065.220703 0)"/>
     <use xlink:href="#DejaVuSans-Bold-63" transform="translate(1142.613281 0)"/>
     <use xlink:href="#DejaVuSans-Bold-63" transform="translate(1201.890625 0)"/>
     <use xlink:href="#DejaVuSans-Bold-75" transform="translate(1261.167969 0)"/>
     <use xlink:href="#DejaVuSans-Bold-72" transform="translate(1332.359375 0)"/>
     <use xlink:href="#DejaVuSans-Bold-61" transform="translate(1381.675781 0)"/>
     <use xlink:href="#DejaVuSans-Bold-63" transform="translate(1449.15625 0)"/>
     <use xlink:href="#DejaVuSans-Bold-79" transform="translate(1508.433594 0)"/>
    </g>
   </g>
   <g id="legend_1">
    <g id="patch_7">
     <path d="M 846.430455 593.894375 
L 1023.310455 593.894375 
Q 1029.710455 593.894375 1029.710455 587.494375 
L 1029.710455 496.754375 
Q 1029.710455 490.354375 1023.310455 490.354375 
L 846.430455 490.354375 
Q 840.030455 490.354375 840.030455 496.754375 
L 840.030455 587.494375 
Q 840.030455 593.894375 846.430455 593.894375 
z
" style="fill: #ffffff; opacity: 0.8; stroke: #cccccc; stroke-width: 1.5; stroke-linejoin: miter"/>
    </g>
    <g id="line2d_18">
     <path d="M 852.830455 516.269375 
L 884.830455 516.269375 
L 916.830455 516.269375 
" style="fill: none; stroke: #4c72b0; stroke-width: 6; stroke-linecap: round"/>
    </g>
    <g id="text_17">
     <!-- train -->
     <g style="fill: #262626" transform="translate(942.430455 527.469375) scale(0.32 -0.32)">
      <defs>
       <path id="DejaVuSans-74" d="M 1172 4494 
L 1172 3500 
L 2356 3500 
L 2356 3053 
L 1172 3053 
L 1172 1153 
Q 1172 725 1289 603 
Q 1406 481 1766 481 
L 2356 481 
L 2356 0 
L 1766 0 
Q 1100 0 847 248 
Q 594 497 594 1153 
L 594 3053 
L 172 3053 
L 172 3500 
L 594 3500 
L 594 4494 
L 1172 4494 
z
" transform="scale(0.015625)"/>
       <path id="DejaVuSans-69" d="M 603 3500 
L 1178 3500 
L 1178 0 
L 603 0 
L 603 3500 
z
M 603 4863 
L 1178 4863 
L 1178 4134 
L 603 4134 
L 603 4863 
z
" transform="scale(0.015625)"/>
       <path id="DejaVuSans-6e" d="M 3513 2113 
L 3513 0 
L 2938 0 
L 2938 2094 
Q 2938 2591 2744 2837 
Q 2550 3084 2163 3084 
Q 1697 3084 1428 2787 
Q 1159 2491 1159 1978 
L 1159 0 
L 581 0 
L 581 3500 
L 1159 3500 
L 1159 2956 
Q 1366 3272 1645 3428 
Q 1925 3584 2291 3584 
Q 2894 3584 3203 3211 
Q 3513 2838 3513 2113 
z
" transform="scale(0.015625)"/>
      </defs>
      <use xlink:href="#DejaVuSans-74"/>
      <use xlink:href="#DejaVuSans-72" transform="translate(39.208984 0)"/>
      <use xlink:href="#DejaVuSans-61" transform="translate(80.322266 0)"/>
      <use xlink:href="#DejaVuSans-69" transform="translate(141.601562 0)"/>
      <use xlink:href="#DejaVuSans-6e" transform="translate(169.384766 0)"/>
     </g>
    </g>
    <g id="line2d_19">
     <path d="M 852.830455 563.239375 
L 884.830455 563.239375 
L 916.830455 563.239375 
" style="fill: none; stroke: #dd8452; stroke-width: 6; stroke-linecap: round"/>
    </g>
    <g id="text_18">
     <!-- val -->
     <g style="fill: #262626" transform="translate(942.430455 574.439375) scale(0.32 -0.32)">
      <defs>
       <path id="DejaVuSans-76" d="M 191 3500 
L 800 3500 
L 1894 563 
L 2988 3500 
L 3597 3500 
L 2284 0 
L 1503 0 
L 191 3500 
z
" transform="scale(0.015625)"/>
       <path id="DejaVuSans-6c" d="M 603 4863 
L 1178 4863 
L 1178 0 
L 603 0 
L 603 4863 
z
" transform="scale(0.015625)"/>
      </defs>
      <use xlink:href="#DejaVuSans-76"/>
      <use xlink:href="#DejaVuSans-61" transform="translate(59.179688 0)"/>
      <use xlink:href="#DejaVuSans-6c" transform="translate(120.458984 0)"/>
     </g>
    </g>
   </g>
  </g>
 </g>
 <defs>
  <clipPath id="p857e7565fd">
   <rect x="115.75" y="54.554375" width="929.960455" height="555.34"/>
  </clipPath>
 </defs>
</svg>
