<?xml version="1.0" encoding="utf-8" standalone="no"?>
<!DOCTYPE svg PUBLIC "-//W3C//DTD SVG 1.1//EN"
  "http://www.w3.org/Graphics/SVG/1.1/DTD/svg11.dtd">
<svg xmlns:xlink="http://www.w3.org/1999/xlink" width="1055.59pt" height="695.534375pt" viewBox="0 0 1055.59 695.534375" xmlns="http://www.w3.org/2000/svg" version="1.1">
 <metadata>
  <rdf:RDF xmlns:dc="http://purl.org/dc/elements/1.1/" xmlns:cc="http://creativecommons.org/ns#" xmlns:rdf="http://www.w3.org/1999/02/22-rdf-syntax-ns#">
   <cc:Work>
    <dc:type rdf:resource="http://purl.org/dc/dcmitype/StillImage"/>
    <dc:date>2026-04-10T13:50:06.347398</dc:date>
    <dc:format>image/svg+xml</dc:format>
    <dc:creator>
     <cc:Agent>
      <dc:title>Matplotlib v3.10.8, https://matplotlib.org/</dc:title>
     </cc:Agent>
    </dc:creator>
   </cc:Work>
  </rdf:RDF>
 </metadata>
 <defs>
  <style type="text/css">*{stroke-linejoin: round; stroke-linecap: butt}</style>
 </defs>
 <g id="figure_1">
  <g id="patch_1">
   <path d="M 0 695.534375 
L 1055.59 695.534375 
L 1055.59 0 
L 0 0 
z
" style="fill: #ffffff"/>
  </g>
  <g id="axes_1">
   <g id="patch_2">
    <path d="M 115.75 609.894375 
L 1048.39 609.894375 
L 1048.39 54.554375 
L 115.75 54.554375 
z
" style="fill: #ffffff"/>
   </g>
   <g id="matplotlib.axis_1">
    <g id="xtick_1">
     <g id="line2d_1">
      <path d="M 157.082909 609.894375 
L 157.082909 54.554375 
" clip-path="url(#p676d839079)" style="fill: none; stroke: #cccccc; stroke-opacity: 0.3; stroke-width: 1.5; stroke-linecap: round"/>
     </g>
     <g id="text_1">
      <!-- 0 -->
      <g style="fill: #262626" transform="translate(146.902909 646.709375) scale(0.32 -0.32)">
       <defs>
        <path id="DejaVuSans-30" d="M 2034 4250 
Q 1547 4250 1301 3770 
Q 1056 3291 1056 2328 
Q 1056 1369 1301 889 
Q 1547 409 2034 409 
Q 2525 409 2770 889 
Q 3016 1369 3016 2328 
Q 3016 3291 2770 3770 
Q 2525 4250 2034 4250 
z
M 2034 4750 
Q 2819 4750 3233 4129 
Q 3647 3509 3647 2328 
Q 3647 1150 3233 529 
Q 2819 -91 2034 -91 
Q 1250 -91 836 529 
Q 422 1150 422 2328 
Q 422 3509 836 4129 
Q 1250 4750 2034 4750 
z
" transform="scale(0.015625)"/>
       </defs>
       <use xlink:href="#DejaVuSans-30"/>
      </g>
     </g>
    </g>
    <g id="xtick_2">
     <g id="line2d_2">
      <path d="M 263.064727 609.894375 
L 263.064727 54.554375 
" clip-path="url(#p676d839079)" style="fill: none; stroke: #cccccc; stroke-opacity: 0.3; stroke-width: 1.5; stroke-linecap: round"/>
     </g>
     <g id="text_2">
      <!-- 100 -->
      <g style="fill: #262626" transform="translate(232.524727 646.709375) scale(0.32 -0.32)">
       <defs>
        <path id="DejaVuSans-31" d="M 794 531 
L 1825 531 
L 1825 4091 
L 703 3866 
L 703 4441 
L 1819 4666 
L 2450 4666 
L 2450 531 
L 3481 531 
L 3481 0 
L 794 0 
L 794 531 
z
" transform="scale(0.015625)"/>
       </defs>
       <use xlink:href="#DejaVuSans-31"/>
       <use xlink:href="#DejaVuSans-30" transform="translate(63.623047 0)"/>
       <use xlink:href="#DejaVuSans-30" transform="translate(127.246094 0)"/>
      </g>
     </g>
    </g>
    <g id="xtick_3">
     <g id="line2d_3">
      <path d="M 369.046545 609.894375 
L 369.046545 54.554375 
" clip-path="url(#p676d839079)" style="fill: none; stroke: #cccccc; stroke-opacity: 0.3; stroke-width: 1.5; stroke-linecap: round"/>
     </g>
     <g id="text_3">
      <!-- 200 -->
      <g style="fill: #262626" transform="translate(338.506545 646.709375) scale(0.32 -0.32)">
       <defs>
        <path id="DejaVuSans-32" d="M 1228 531 
L 3431 531 
L 3431 0 
L 469 0 
L 469 531 
Q 828 903 1448 1529 
Q 2069 2156 2228 2338 
Q 2531 2678 2651 2914 
Q 2772 3150 2772 3378 
Q 2772 3750 2511 3984 
Q 2250 4219 1831 4219 
Q 1534 4219 1204 4116 
Q 875 4013 500 3803 
L 500 4441 
Q 881 4594 1212 4672 
Q 1544 4750 1819 4750 
Q 2544 4750 2975 4387 
Q 3406 4025 3406 3419 
Q 3406 3131 3298 2873 
Q 3191 2616 2906 2266 
Q 2828 2175 2409 1742 
Q 1991 1309 1228 531 
z
" transform="scale(0.015625)"/>
       </defs>
       <use xlink:href="#DejaVuSans-32"/>
       <use xlink:href="#DejaVuSans-30" transform="translate(63.623047 0)"/>
       <use xlink:href="#DejaVuSans-30" transform="translate(127.246094 0)"/>
      </g>
     </g>
    </g>
    <g id="xtick_4">
     <g id="line2d_4">
      <path d="M 475.028364 609.894375 
L 475.028364 54.554375 
" clip-path="url(#p676d839079)" style="fill: none; stroke: #cccccc; stroke-opacity: 0.3; stroke-width: 1.5; stroke-linecap: round"/>
     </g>
     <g id="text_4">
      <!-- 300 -->
      <g style="fill: #262626" transform="translate(444.488364 646.709375) scale(0.32 -0.32)">
       <defs>
        <path id="DejaVuSans-33" d="M 2597 2516 
Q 3050 2419 3304 2112 
Q 3559 1806 3559 1356 
Q 3559 666 3084 287 
Q 2609 -91 1734 -91 
Q 1441 -91 1130 -33 
Q 819 25 488 141 
L 488 750 
Q 750 597 1062 519 
Q 1375 441 1716 441 
Q 2309 441 2620 675 
Q 2931 909 2931 1356 
Q 2931 1769 2642 2001 
Q 2353 2234 1838 2234 
L 1294 2234 
L 1294 2753 
L 1863 2753 
Q 2328 2753 2575 2939 
Q 2822 3125 2822 3475 
Q 2822 3834 2567 4026 
Q 2313 4219 1838 4219 
Q 1578 4219 1281 4162 
Q 984 4106 628 3988 
L 628 4550 
Q 988 4650 1302 4700 
Q 1616 4750 1894 4750 
Q 2613 4750 3031 4423 
Q 3450 4097 3450 3541 
Q 3450 3153 3228 2886 
Q 3006 2619 2597 2516 
z
" transform="scale(0.015625)"/>
       </defs>
       <use xlink:href="#DejaVuSans-33"/>
       <use xlink:href="#DejaVuSans-30" transform="translate(63.623047 0)"/>
       <use xlink:href="#DejaVuSans-30" transform="translate(127.246094 0)"/>
      </g>
     </g>
    </g>
    <g id="xtick_5">
     <g id="line2d_5">
      <path d="M 581.010182 609.894375 
L 581.010182 54.554375 
" clip-path="url(#p676d839079)" style="fill: none; stroke: #cccccc; stroke-opacity: 0.3; stroke-width: 1.5; stroke-linecap: round"/>
     </g>
     <g id="text_5">
      <!-- 400 -->
      <g style="fill: #262626" transform="translate(550.470182 646.709375) scale(0.32 -0.32)">
       <defs>
        <path id="DejaVuSans-34" d="M 2419 4116 
L 825 1625 
L 2419 1625 
L 2419 4116 
z
M 2253 4666 
L 3047 4666 
L 3047 1625 
L 3713 1625 
L 3713 1100 
L 3047 1100 
L 3047 0 
L 2419 0 
L 2419 1100 
L 313 1100 
L 313 1709 
L 2253 4666 
z
" transform="scale(0.015625)"/>
       </defs>
       <use xlink:href="#DejaVuSans-34"/>
       <use xlink:href="#DejaVuSans-30" transform="translate(63.623047 0)"/>
       <use xlink:href="#DejaVuSans-30" transform="translate(127.246094 0)"/>
      </g>
     </g>
    </g>
    <g id="xtick_6">
     <g id="line2d_6">
      <path d="M 686.992 609.894375 
L 686.992 54.554375 
" clip-path="url(#p676d839079)" style="fill: none; stroke: #cccccc; stroke-opacity: 0.3; stroke-width: 1.5; stroke-linecap: round"/>
     </g>
     <g id="text_6">
      <!-- 500 -->
      <g style="fill: #262626" transform="translate(656.452 646.709375) scale(0.32 -0.32)">
       <defs>
        <path id="DejaVuSans-35" d="M 691 4666 
L 3169 4666 
L 3169 4134 
L 1269 4134 
L 1269 2991 
Q 1406 3038 1543 3061 
Q 1681 3084 1819 3084 
Q 2600 3084 3056 2656 
Q 3513 2228 3513 1497 
Q 3513 744 3044 326 
Q 2575 -91 1722 -91 
Q 1428 -91 1123 -41 
Q 819 9 494 109 
L 494 744 
Q 775 591 1075 516 
Q 1375 441 1709 441 
Q 2250 441 2565 725 
Q 2881 1009 2881 1497 
Q 2881 1984 2565 2268 
Q 2250 2553 1709 2553 
Q 1456 2553 1204 2497 
Q 953 2441 691 2322 
L 691 4666 
z
" transform="scale(0.015625)"/>
       </defs>
       <use xlink:href="#DejaVuSans-35"/>
       <use xlink:href="#DejaVuSans-30" transform="translate(63.623047 0)"/>
       <use xlink:href="#DejaVuSans-30" transform="translate(127.246094 0)"/>
      </g>
     </g>
    </g>
    <g id="xtick_7">
     <g id="line2d_7">
      <path d="M 792.973818 609.894375 
L 792.973818 54.554375 
" clip-path="url(#p676d839079)" style="fill: none; stroke: #cccccc; stroke-opacity: 0.3; stroke-width: 1.5; stroke-linecap: round"/>
     </g>
     <g id="text_7">
      <!-- 600 -->
      <g style="fill: #262626" transform="translate(762.433818 646.709375) scale(0.32 -0.32)">
       <defs>
        <path id="DejaVuSans-36" d="M 2113 2584 
Q 1688 2584 1439 2293 
Q 1191 2003 1191 1497 
Q 1191 994 1439 701 
Q 1688 409 2113 409 
Q 2538 409 2786 701 
Q 3034 994 3034 1497 
Q 3034 2003 2786 2293 
Q 2538 2584 2113 2584 
z
M 3366 4563 
L 3366 3988 
Q 3128 4100 2886 4159 
Q 2644 4219 2406 4219 
Q 1781 4219 1451 3797 
Q 1122 3375 1075 2522 
Q 1259 2794 1537 2939 
Q 1816 3084 2150 3084 
Q 2853 3084 3261 2657 
Q 3669 2231 3669 1497 
Q 3669 778 3244 343 
Q 2819 -91 2113 -91 
Q 1303 -91 875 529 
Q 447 1150 447 2328 
Q 447 3434 972 4092 
Q 1497 4750 2381 4750 
Q 2619 4750 2861 4703 
Q 3103 4656 3366 4563 
z
" transform="scale(0.015625)"/>
       </defs>
       <use xlink:href="#DejaVuSans-36"/>
       <use xlink:href="#DejaVuSans-30" transform="translate(63.623047 0)"/>
       <use xlink:href="#DejaVuSans-30" transform="translate(127.246094 0)"/>
      </g>
     </g>
    </g>
    <g id="xtick_8">
     <g id="line2d_8">
      <path d="M 898.955636 609.894375 
L 898.955636 54.554375 
" clip-path="url(#p676d839079)" style="fill: none; stroke: #cccccc; stroke-opacity: 0.3; stroke-width: 1.5; stroke-linecap: round"/>
     </g>
     <g id="text_8">
      <!-- 700 -->
      <g style="fill: #262626" transform="translate(868.415636 646.709375) scale(0.32 -0.32)">
       <defs>
        <path id="DejaVuSans-37" d="M 525 4666 
L 3525 4666 
L 3525 4397 
L 1831 0 
L 1172 0 
L 2766 4134 
L 525 4134 
L 525 4666 
z
" transform="scale(0.015625)"/>
       </defs>
       <use xlink:href="#DejaVuSans-37"/>
       <use xlink:href="#DejaVuSans-30" transform="translate(63.623047 0)"/>
       <use xlink:href="#DejaVuSans-30" transform="translate(127.246094 0)"/>
      </g>
     </g>
    </g>
    <g id="xtick_9">
     <g id="line2d_9">
      <path d="M 1004.937455 609.894375 
L 1004.937455 54.554375 
" clip-path="url(#p676d839079)" style="fill: none; stroke: #cccccc; stroke-opacity: 0.3; stroke-width: 1.5; stroke-linecap: round"/>
     </g>
     <g id="text_9">
      <!-- 800 -->
      <g style="fill: #262626" transform="translate(974.397455 646.709375) scale(0.32 -0.32)">
       <defs>
        <path id="DejaVuSans-38" d="M 2034 2216 
Q 1584 2216 1326 1975 
Q 1069 1734 1069 1313 
Q 1069 891 1326 650 
Q 1584 409 2034 409 
Q 2484 409 2743 651 
Q 3003 894 3003 1313 
Q 3003 1734 2745 1975 
Q 2488 2216 2034 2216 
z
M 1403 2484 
Q 997 2584 770 2862 
Q 544 3141 544 3541 
Q 544 4100 942 4425 
Q 1341 4750 2034 4750 
Q 2731 4750 3128 4425 
Q 3525 4100 3525 3541 
Q 3525 3141 3298 2862 
Q 3072 2584 2669 2484 
Q 3125 2378 3379 2068 
Q 3634 1759 3634 1313 
Q 3634 634 3220 271 
Q 2806 -91 2034 -91 
Q 1263 -91 848 271 
Q 434 634 434 1313 
Q 434 1759 690 2068 
Q 947 2378 1403 2484 
z
M 1172 3481 
Q 1172 3119 1398 2916 
Q 1625 2713 2034 2713 
Q 2441 2713 2670 2916 
Q 2900 3119 2900 3481 
Q 2900 3844 2670 4047 
Q 2441 4250 2034 4250 
Q 1625 4250 1398 4047 
Q 1172 3844 1172 3481 
z
" transform="scale(0.015625)"/>
       </defs>
       <use xlink:href="#DejaVuSans-38"/>
       <use xlink:href="#DejaVuSans-30" transform="translate(63.623047 0)"/>
       <use xlink:href="#DejaVuSans-30" transform="translate(127.246094 0)"/>
      </g>
     </g>
    </g>
    <g id="text_10">
     <!-- Epoch -->
     <g style="fill: #262626" transform="translate(533.075 681.679375) scale(0.32 -0.32)">
      <defs>
       <path id="DejaVuSans-45" d="M 628 4666 
L 3578 4666 
L 3578 4134 
L 1259 4134 
L 1259 2753 
L 3481 2753 
L 3481 2222 
L 1259 2222 
L 1259 531 
L 3634 531 
L 3634 0 
L 628 0 
L 628 4666 
z
" transform="scale(0.015625)"/>
       <path id="DejaVuSans-70" d="M 1159 525 
L 1159 -1331 
L 581 -1331 
L 581 3500 
L 1159 3500 
L 1159 2969 
Q 1341 3281 1617 3432 
Q 1894 3584 2278 3584 
Q 2916 3584 3314 3078 
Q 3713 2572 3713 1747 
Q 3713 922 3314 415 
Q 2916 -91 2278 -91 
Q 1894 -91 1617 61 
Q 1341 213 1159 525 
z
M 3116 1747 
Q 3116 2381 2855 2742 
Q 2594 3103 2138 3103 
Q 1681 3103 1420 2742 
Q 1159 2381 1159 1747 
Q 1159 1113 1420 752 
Q 1681 391 2138 391 
Q 2594 391 2855 752 
Q 3116 1113 3116 1747 
z
" transform="scale(0.015625)"/>
       <path id="DejaVuSans-6f" d="M 1959 3097 
Q 1497 3097 1228 2736 
Q 959 2375 959 1747 
Q 959 1119 1226 758 
Q 1494 397 1959 397 
Q 2419 397 2687 759 
Q 2956 1122 2956 1747 
Q 2956 2369 2687 2733 
Q 2419 3097 1959 3097 
z
M 1959 3584 
Q 2709 3584 3137 3096 
Q 3566 2609 3566 1747 
Q 3566 888 3137 398 
Q 2709 -91 1959 -91 
Q 1206 -91 779 398 
Q 353 888 353 1747 
Q 353 2609 779 3096 
Q 1206 3584 1959 3584 
z
" transform="scale(0.015625)"/>
       <path id="DejaVuSans-63" d="M 3122 3366 
L 3122 2828 
Q 2878 2963 2633 3030 
Q 2388 3097 2138 3097 
Q 1578 3097 1268 2742 
Q 959 2388 959 1747 
Q 959 1106 1268 751 
Q 1578 397 2138 397 
Q 2388 397 2633 464 
Q 2878 531 3122 666 
L 3122 134 
Q 2881 22 2623 -34 
Q 2366 -91 2075 -91 
Q 1284 -91 818 406 
Q 353 903 353 1747 
Q 353 2603 823 3093 
Q 1294 3584 2113 3584 
Q 2378 3584 2631 3529 
Q 2884 3475 3122 3366 
z
" transform="scale(0.015625)"/>
       <path id="DejaVuSans-68" d="M 3513 2113 
L 3513 0 
L 2938 0 
L 2938 2094 
Q 2938 2591 2744 2837 
Q 2550 3084 2163 3084 
Q 1697 3084 1428 2787 
Q 1159 2491 1159 1978 
L 1159 0 
L 581 0 
L 581 4863 
L 1159 4863 
L 1159 2956 
Q 1366 3272 1645 3428 
Q 1925 3584 2291 3584 
Q 2894 3584 3203 3211 
Q 3513 2838 3513 2113 
z
" transform="scale(0.015625)"/>
      </defs>
      <use xlink:href="#DejaVuSans-45"/>
      <use xlink:href="#DejaVuSans-70" transform="translate(63.183594 0)"/>
      <use xlink:href="#DejaVuSans-6f" transform="translate(126.660156 0)"/>
      <use xlink:href="#DejaVuSans-63" transform="translate(187.841797 0)"/>
      <use xlink:href="#DejaVuSans-68" transform="translate(242.822266 0)"/>
     </g>
    </g>
   </g>
   <g id="matplotlib.axis_2">
    <g id="ytick_1">
     <g id="line2d_10">
      <path d="M 115.75 585.920126 
L 1048.39 585.920126 
" clip-path="url(#p676d839079)" style="fill: none; stroke: #cccccc; stroke-opacity: 0.3; stroke-width: 1.5; stroke-linecap: round"/>
     </g>
     <g id="text_11">
      <!-- 0 -->
      <g style="fill: #262626" transform="translate(82.89 598.077626) scale(0.32 -0.32)">
       <use xlink:href="#DejaVuSans-30"/>
      </g>
     </g>
    </g>
    <g id="ytick_2">
     <g id="line2d_11">
      <path d="M 115.75 484.679663 
L 1048.39 484.679663 
" clip-path="url(#p676d839079)" style="fill: none; stroke: #cccccc; stroke-opacity: 0.3; stroke-width: 1.5; stroke-linecap: round"/>
     </g>
     <g id="text_12">
      <!-- 20 -->
      <g style="fill: #262626" transform="translate(62.53 496.837163) scale(0.32 -0.32)">
       <use xlink:href="#DejaVuSans-32"/>
       <use xlink:href="#DejaVuSans-30" transform="translate(63.623047 0)"/>
      </g>
     </g>
    </g>
    <g id="ytick_3">
     <g id="line2d_12">
      <path d="M 115.75 383.4392 
L 1048.39 383.4392 
" clip-path="url(#p676d839079)" style="fill: none; stroke: #cccccc; stroke-opacity: 0.3; stroke-width: 1.5; stroke-linecap: round"/>
     </g>
     <g id="text_13">
      <!-- 40 -->
      <g style="fill: #262626" transform="translate(62.53 395.5967) scale(0.32 -0.32)">
       <use xlink:href="#DejaVuSans-34"/>
       <use xlink:href="#DejaVuSans-30" transform="translate(63.623047 0)"/>
      </g>
     </g>
    </g>
    <g id="ytick_4">
     <g id="line2d_13">
      <path d="M 115.75 282.198737 
L 1048.39 282.198737 
" clip-path="url(#p676d839079)" style="fill: none; stroke: #cccccc; stroke-opacity: 0.3; stroke-width: 1.5; stroke-linecap: round"/>
     </g>
     <g id="text_14">
      <!-- 60 -->
      <g style="fill: #262626" transform="translate(62.53 294.356237) scale(0.32 -0.32)">
       <use xlink:href="#DejaVuSans-36"/>
       <use xlink:href="#DejaVuSans-30" transform="translate(63.623047 0)"/>
      </g>
     </g>
    </g>
    <g id="ytick_5">
     <g id="line2d_14">
      <path d="M 115.75 180.958273 
L 1048.39 180.958273 
" clip-path="url(#p676d839079)" style="fill: none; stroke: #cccccc; stroke-opacity: 0.3; stroke-width: 1.5; stroke-linecap: round"/>
     </g>
     <g id="text_15">
      <!-- 80 -->
      <g style="fill: #262626" transform="translate(62.53 193.115773) scale(0.32 -0.32)">
       <use xlink:href="#DejaVuSans-38"/>
       <use xlink:href="#DejaVuSans-30" transform="translate(63.623047 0)"/>
      </g>
     </g>
    </g>
    <g id="ytick_6">
     <g id="line2d_15">
      <path d="M 115.75 79.71781 
L 1048.39 79.71781 
" clip-path="url(#p676d839079)" style="fill: none; stroke: #cccccc; stroke-opacity: 0.3; stroke-width: 1.5; stroke-linecap: round"/>
     </g>
     <g id="text_16">
      <!-- 100 -->
      <g style="fill: #262626" transform="translate(42.17 91.87531) scale(0.32 -0.32)">
       <use xlink:href="#DejaVuSans-31"/>
       <use xlink:href="#DejaVuSans-30" transform="translate(63.623047 0)"/>
       <use xlink:href="#DejaVuSans-30" transform="translate(127.246094 0)"/>
      </g>
     </g>
    </g>
    <g id="text_17">
     <!-- Accuracy (%) -->
     <g style="fill: #262626" transform="translate(31.515 438.046875) rotate(-90) scale(0.32 -0.32)">
      <defs>
       <path id="DejaVuSans-41" d="M 2188 4044 
L 1331 1722 
L 3047 1722 
L 2188 4044 
z
M 1831 4666 
L 2547 4666 
L 4325 0 
L 3669 0 
L 3244 1197 
L 1141 1197 
L 716 0 
L 50 0 
L 1831 4666 
z
" transform="scale(0.015625)"/>
       <path id="DejaVuSans-75" d="M 544 1381 
L 544 3500 
L 1119 3500 
L 1119 1403 
Q 1119 906 1312 657 
Q 1506 409 1894 409 
Q 2359 409 2629 706 
Q 2900 1003 2900 1516 
L 2900 3500 
L 3475 3500 
L 3475 0 
L 2900 0 
L 2900 538 
Q 2691 219 2414 64 
Q 2138 -91 1772 -91 
Q 1169 -91 856 284 
Q 544 659 544 1381 
z
M 1991 3584 
L 1991 3584 
z
" transform="scale(0.015625)"/>
       <path id="DejaVuSans-72" d="M 2631 2963 
Q 2534 3019 2420 3045 
Q 2306 3072 2169 3072 
Q 1681 3072 1420 2755 
Q 1159 2438 1159 1844 
L 1159 0 
L 581 0 
L 581 3500 
L 1159 3500 
L 1159 2956 
Q 1341 3275 1631 3429 
Q 1922 3584 2338 3584 
Q 2397 3584 2469 3576 
Q 2541 3569 2628 3553 
L 2631 2963 
z
" transform="scale(0.015625)"/>
       <path id="DejaVuSans-61" d="M 2194 1759 
Q 1497 1759 1228 1600 
Q 959 1441 959 1056 
Q 959 750 1161 570 
Q 1363 391 1709 391 
Q 2188 391 2477 730 
Q 2766 1069 2766 1631 
L 2766 1759 
L 2194 1759 
z
M 3341 1997 
L 3341 0 
L 2766 0 
L 2766 531 
Q 2569 213 2275 61 
Q 1981 -91 1556 -91 
Q 1019 -91 701 211 
Q 384 513 384 1019 
Q 384 1609 779 1909 
Q 1175 2209 1959 2209 
L 2766 2209 
L 2766 2266 
Q 2766 2663 2505 2880 
Q 2244 3097 1772 3097 
Q 1472 3097 1187 3025 
Q 903 2953 641 2809 
L 641 3341 
Q 956 3463 1253 3523 
Q 1550 3584 1831 3584 
Q 2591 3584 2966 3190 
Q 3341 2797 3341 1997 
z
" transform="scale(0.015625)"/>
       <path id="DejaVuSans-79" d="M 2059 -325 
Q 1816 -950 1584 -1140 
Q 1353 -1331 966 -1331 
L 506 -1331 
L 506 -850 
L 844 -850 
Q 1081 -850 1212 -737 
Q 1344 -625 1503 -206 
L 1606 56 
L 191 3500 
L 800 3500 
L 1894 763 
L 2988 3500 
L 3597 3500 
L 2059 -325 
z
" transform="scale(0.015625)"/>
       <path id="DejaVuSans-20" transform="scale(0.015625)"/>
       <path id="DejaVuSans-28" d="M 1984 4856 
Q 1566 4138 1362 3434 
Q 1159 2731 1159 2009 
Q 1159 1288 1364 580 
Q 1569 -128 1984 -844 
L 1484 -844 
Q 1016 -109 783 600 
Q 550 1309 550 2009 
Q 550 2706 781 3412 
Q 1013 4119 1484 4856 
L 1984 4856 
z
" transform="scale(0.015625)"/>
       <path id="DejaVuSans-25" d="M 4653 2053 
Q 4381 2053 4226 1822 
Q 4072 1591 4072 1178 
Q 4072 772 4226 539 
Q 4381 306 4653 306 
Q 4919 306 5073 539 
Q 5228 772 5228 1178 
Q 5228 1588 5073 1820 
Q 4919 2053 4653 2053 
z
M 4653 2450 
Q 5147 2450 5437 2106 
Q 5728 1763 5728 1178 
Q 5728 594 5436 251 
Q 5144 -91 4653 -91 
Q 4153 -91 3862 251 
Q 3572 594 3572 1178 
Q 3572 1766 3864 2108 
Q 4156 2450 4653 2450 
z
M 1428 4353 
Q 1159 4353 1004 4120 
Q 850 3888 850 3481 
Q 850 3069 1003 2837 
Q 1156 2606 1428 2606 
Q 1700 2606 1854 2837 
Q 2009 3069 2009 3481 
Q 2009 3884 1853 4118 
Q 1697 4353 1428 4353 
z
M 4250 4750 
L 4750 4750 
L 1831 -91 
L 1331 -91 
L 4250 4750 
z
M 1428 4750 
Q 1922 4750 2215 4408 
Q 2509 4066 2509 3481 
Q 2509 2891 2217 2550 
Q 1925 2209 1428 2209 
Q 931 2209 642 2551 
Q 353 2894 353 3481 
Q 353 4063 643 4406 
Q 934 4750 1428 4750 
z
" transform="scale(0.015625)"/>
       <path id="DejaVuSans-29" d="M 513 4856 
L 1013 4856 
Q 1481 4119 1714 3412 
Q 1947 2706 1947 2009 
Q 1947 1309 1714 600 
Q 1481 -109 1013 -844 
L 513 -844 
Q 928 -128 1133 580 
Q 1338 1288 1338 2009 
Q 1338 2731 1133 3434 
Q 928 4138 513 4856 
z
" transform="scale(0.015625)"/>
      </defs>
      <use xlink:href="#DejaVuSans-41"/>
      <use xlink:href="#DejaVuSans-63" transform="translate(66.658203 0)"/>
      <use xlink:href="#DejaVuSans-63" transform="translate(121.638672 0)"/>
      <use xlink:href="#DejaVuSans-75" transform="translate(176.619141 0)"/>
      <use xlink:href="#DejaVuSans-72" transform="translate(239.998047 0)"/>
      <use xlink:href="#DejaVuSans-61" transform="translate(281.111328 0)"/>
      <use xlink:href="#DejaVuSans-63" transform="translate(342.390625 0)"/>
      <use xlink:href="#DejaVuSans-79" transform="translate(397.371094 0)"/>
      <use xlink:href="#DejaVuSans-20" transform="translate(456.550781 0)"/>
      <use xlink:href="#DejaVuSans-28" transform="translate(488.337891 0)"/>
      <use xlink:href="#DejaVuSans-25" transform="translate(527.351562 0)"/>
      <use xlink:href="#DejaVuSans-29" transform="translate(622.371094 0)"/>
     </g>
    </g>
   </g>
   <g id="FillBetweenPolyCollection_1"/>
   <g id="FillBetweenPolyCollection_2"/>
   <g id="line2d_16">
    <path d="M 158.142727 581.559048 
L 160.262364 581.559048 
L 161.322182 580.924709 
L 163.441818 578.228769 
L 164.501636 573.154059 
L 165.561455 566.414211 
L 166.621273 557.057714 
L 167.681091 550.476449 
L 170.860545 506.627784 
L 171.920364 496.240489 
L 172.980182 476.734572 
L 174.04 462.38266 
L 175.099818 441.925238 
L 176.159636 419.009748 
L 177.219455 399.583123 
L 178.279273 371.355051 
L 179.339091 347.64664 
L 180.398909 329.250827 
L 183.578364 262.724533 
L 185.698 217.845057 
L 186.757818 204.36538 
L 187.817636 188.82408 
L 188.877455 166.939386 
L 189.937273 159.485904 
L 190.997091 144.023896 
L 192.056909 137.839087 
L 193.116727 126.341711 
L 194.176545 117.857432 
L 195.236364 112.70342 
L 196.296182 111.434747 
L 197.356 107.311531 
L 199.475636 101.126752 
L 200.535455 97.875748 
L 201.595273 97.003535 
L 202.655091 94.06973 
L 203.714909 94.86265 
L 204.774727 94.783358 
L 205.834545 93.276809 
L 206.894364 94.06973 
L 207.954182 92.404597 
L 209.014 90.422266 
L 210.073818 90.818726 
L 211.133636 90.97731 
L 212.193455 90.58085 
L 213.253273 89.153593 
L 215.372909 90.18439 
L 216.432727 91.135894 
L 217.492545 89.232885 
L 218.552364 87.964213 
L 219.612182 87.884921 
L 220.672 86.140496 
L 221.731818 87.964213 
L 222.791636 87.726336 
L 224.911273 88.281381 
L 225.971091 87.884921 
L 227.030909 88.995009 
L 228.090727 88.043505 
L 229.150545 87.567752 
L 230.210364 87.250584 
L 231.270182 87.092 
L 232.33 85.981912 
L 234.449636 87.012708 
L 235.509455 86.616248 
L 236.569273 86.774832 
L 238.688909 86.29908 
L 239.748727 86.774832 
L 240.808545 87.48846 
L 241.868364 87.012708 
L 242.928182 85.90262 
L 243.988 86.29908 
L 246.107636 85.426867 
L 247.167455 84.633947 
L 248.227273 84.951115 
L 249.287091 86.536956 
L 250.346909 86.219788 
L 251.406727 88.915717 
L 252.466545 87.250584 
L 253.526364 89.074301 
L 254.586182 88.281381 
L 255.646 88.202089 
L 256.705818 85.744035 
L 257.765636 86.29908 
L 258.825455 84.475363 
L 259.885273 85.347575 
L 260.945091 85.823328 
L 262.004909 85.426867 
L 263.064727 85.188991 
L 265.184364 83.048076 
L 266.244182 83.920319 
L 267.304 85.981912 
L 268.363818 84.633947 
L 269.423636 86.457664 
L 270.483455 85.744035 
L 271.543273 85.823328 
L 273.662909 85.585451 
L 274.722727 85.981912 
L 275.782545 85.426867 
L 276.842364 83.920319 
L 277.902182 85.426867 
L 278.962 83.920319 
L 281.081636 83.999611 
L 282.141455 85.744035 
L 283.201273 85.188991 
L 284.261091 84.792531 
L 285.320909 85.506159 
L 286.380727 84.475363 
L 287.440545 85.030407 
L 288.500364 85.268283 
L 289.560182 83.999611 
L 291.679818 83.682442 
L 292.739636 84.871823 
L 293.799455 83.20666 
L 294.859273 84.475363 
L 295.919091 84.396071 
L 296.978909 83.444536 
L 298.038727 84.475363 
L 299.098545 83.999611 
L 300.158364 83.999611 
L 301.218182 84.316779 
L 302.278 85.664743 
L 303.337818 83.365244 
L 304.397636 84.158195 
L 305.457455 82.651616 
L 307.577091 83.682442 
L 308.636909 83.841026 
L 309.696727 85.426867 
L 310.756545 84.713239 
L 312.876182 84.078903 
L 313.936 84.475363 
L 314.995818 83.761734 
L 316.055636 82.730908 
L 317.115455 84.396071 
L 318.175273 83.682442 
L 319.235091 84.078903 
L 321.354727 83.365244 
L 322.414545 84.316779 
L 323.474364 83.444536 
L 324.534182 83.920319 
L 325.594 83.999611 
L 326.653818 83.920319 
L 327.713636 83.523828 
L 328.773455 83.523828 
L 329.833273 82.493032 
L 330.893091 82.255156 
L 331.952909 84.078903 
L 333.012727 83.523828 
L 334.072545 84.237487 
L 335.132364 83.761734 
L 336.192182 83.60312 
L 337.252 82.493032 
L 338.311818 83.523828 
L 339.371636 82.889492 
L 341.491273 83.444536 
L 342.551091 83.60312 
L 343.610909 83.048076 
L 344.670727 84.158195 
L 345.730545 83.048076 
L 346.790364 83.841026 
L 347.850182 82.41374 
L 348.91 83.20666 
L 349.969818 82.889492 
L 351.029636 83.365244 
L 353.149273 83.127368 
L 354.209091 83.761734 
L 355.268909 82.8102 
L 357.388545 82.730908 
L 358.448364 82.41374 
L 359.508182 83.048076 
L 360.568 83.444536 
L 361.627818 83.365244 
L 362.687636 82.255156 
L 363.747455 84.158195 
L 364.807273 84.316779 
L 365.867091 83.761734 
L 367.986727 83.127368 
L 369.046545 83.60312 
L 370.106364 82.41374 
L 371.166182 82.493032 
L 372.226 82.8102 
L 373.285818 82.572324 
L 374.345636 82.572324 
L 376.465273 83.444536 
L 377.525091 82.255156 
L 378.584909 82.651616 
L 379.644727 83.444536 
L 380.704545 83.682442 
L 381.764364 82.017279 
L 382.824182 82.730908 
L 383.884 81.858695 
L 384.943818 81.541527 
L 386.003636 82.096571 
L 387.063455 82.334448 
L 388.123273 82.730908 
L 390.242909 82.889492 
L 391.302727 83.365244 
L 392.362545 82.096571 
L 394.482182 83.60312 
L 395.542 83.048076 
L 396.601818 82.730908 
L 397.661636 83.444536 
L 398.721455 83.127368 
L 399.781273 82.968784 
L 400.841091 82.651616 
L 401.900909 82.175863 
L 402.960727 82.096571 
L 405.080364 82.968784 
L 406.140182 82.096571 
L 407.2 82.572324 
L 408.259818 82.255156 
L 409.319636 82.175863 
L 410.379455 81.779403 
L 411.439273 82.889492 
L 412.499091 82.8102 
L 413.558909 83.999611 
L 414.618727 83.048076 
L 415.678545 81.462235 
L 416.738364 83.048076 
L 417.798182 82.41374 
L 418.858 81.462235 
L 419.917818 82.096571 
L 420.977636 83.048076 
L 423.097273 82.493032 
L 424.157091 82.730908 
L 426.276727 82.493032 
L 428.396364 83.285952 
L 429.456182 83.127368 
L 430.516 81.541527 
L 432.635636 82.255156 
L 433.695455 81.937987 
L 434.755273 82.41374 
L 435.815091 82.096571 
L 436.874909 82.017279 
L 437.934727 82.493032 
L 440.054364 82.730908 
L 441.114182 82.017279 
L 442.174 81.700111 
L 443.233818 82.572324 
L 444.293636 81.700111 
L 445.353455 81.224359 
L 446.413273 81.462235 
L 447.473091 81.858695 
L 449.592727 81.620819 
L 450.652545 81.224359 
L 452.772182 81.303651 
L 455.951636 82.175863 
L 457.011455 82.017279 
L 458.071273 82.41374 
L 459.131091 82.017279 
L 460.190909 82.096571 
L 461.250727 81.858695 
L 463.370364 81.937987 
L 465.49 82.8102 
L 466.549818 82.968784 
L 467.609636 81.462235 
L 468.669455 80.907191 
L 469.729273 80.986483 
L 470.789091 81.620819 
L 471.848909 82.017279 
L 472.908727 82.572324 
L 473.968545 82.175863 
L 475.028364 81.937987 
L 476.088182 82.175863 
L 477.148 81.858695 
L 478.207818 81.937987 
L 479.267636 81.620819 
L 480.327455 80.907191 
L 481.387273 82.175863 
L 482.447091 82.017279 
L 483.506909 82.175863 
L 484.566727 81.779403 
L 485.626545 81.858695 
L 486.686364 81.224359 
L 487.746182 81.700111 
L 488.806 81.700111 
L 489.865818 82.334448 
L 490.925636 81.541527 
L 491.985455 82.493032 
L 493.045273 82.096571 
L 494.105091 82.096571 
L 495.164909 81.700111 
L 496.224727 81.858695 
L 497.284545 81.382943 
L 498.344364 82.017279 
L 499.404182 82.017279 
L 500.464 81.858695 
L 501.523818 81.303651 
L 502.583636 81.145067 
L 503.643455 81.224359 
L 504.703273 82.572324 
L 506.822909 82.096571 
L 507.882727 82.096571 
L 508.942545 81.858695 
L 510.002364 82.017279 
L 512.122 81.462235 
L 513.181818 81.303651 
L 514.241636 81.382943 
L 515.301455 81.303651 
L 516.361273 81.541527 
L 517.421091 81.065775 
L 518.480909 81.382943 
L 519.540727 81.462235 
L 520.600545 81.303651 
L 521.660364 81.541527 
L 522.720182 82.017279 
L 523.78 81.779403 
L 524.839818 82.017279 
L 525.899636 81.462235 
L 526.959455 81.145067 
L 528.019273 81.462235 
L 529.079091 81.541527 
L 531.198727 81.145067 
L 532.258545 81.541527 
L 533.318364 81.620819 
L 534.378182 81.858695 
L 535.438 81.779403 
L 536.497818 81.065775 
L 537.557636 81.382943 
L 538.617455 81.462235 
L 539.677273 80.748607 
L 540.737091 81.382943 
L 541.796909 80.986483 
L 542.856727 81.541527 
L 543.916545 81.700111 
L 544.976364 81.620819 
L 546.036182 81.382943 
L 547.096 81.303651 
L 548.155818 81.858695 
L 549.215636 81.462235 
L 550.275455 82.096571 
L 551.335273 81.779403 
L 552.395091 81.858695 
L 553.454909 81.303651 
L 554.514727 82.175863 
L 555.574545 81.303651 
L 556.634364 81.145067 
L 557.694182 81.382943 
L 560.873636 81.145067 
L 561.933455 81.700111 
L 562.993273 80.748607 
L 564.053091 81.224359 
L 565.112909 81.224359 
L 567.232545 81.462235 
L 568.292364 81.065775 
L 569.352182 81.303651 
L 570.412 80.669315 
L 571.471818 81.145067 
L 572.531636 80.590023 
L 573.591455 80.907191 
L 574.651273 81.065775 
L 575.711091 80.986483 
L 576.770909 81.541527 
L 577.830727 81.065775 
L 578.890545 81.541527 
L 581.010182 81.620819 
L 583.129818 81.462235 
L 584.189636 81.541527 
L 585.249455 80.590023 
L 586.309273 81.303651 
L 587.369091 80.748607 
L 588.428909 80.510731 
L 589.488727 80.907191 
L 591.608364 80.827899 
L 592.668182 81.620819 
L 593.728 80.352147 
L 594.787818 81.382943 
L 595.847636 80.907191 
L 597.967273 80.827899 
L 599.027091 81.303651 
L 600.086909 80.748607 
L 602.206545 81.779403 
L 603.266364 80.748607 
L 604.326182 80.986483 
L 605.386 80.669315 
L 606.445818 81.145067 
L 607.505636 81.303651 
L 608.565455 81.065775 
L 609.625273 80.669315 
L 611.744909 80.827899 
L 612.804727 80.669315 
L 613.864545 81.065775 
L 614.924364 80.907191 
L 615.984182 81.541527 
L 617.044 80.827899 
L 618.103818 81.382943 
L 619.163636 81.145067 
L 620.223455 81.462235 
L 621.283273 81.462235 
L 623.402909 80.590023 
L 625.522545 80.272855 
L 626.582364 80.748607 
L 627.642182 80.352147 
L 628.702 81.065775 
L 629.761818 80.590023 
L 630.821636 80.669315 
L 632.941273 81.145067 
L 635.060909 80.986483 
L 636.120727 81.145067 
L 637.180545 81.065775 
L 638.240364 81.303651 
L 639.300182 81.382943 
L 640.36 81.303651 
L 641.419818 80.986483 
L 643.539455 80.748607 
L 644.599273 80.590023 
L 645.659091 80.193562 
L 646.718909 80.986483 
L 647.778727 81.065775 
L 648.838545 80.748607 
L 649.898364 80.748607 
L 650.958182 80.352147 
L 652.018 80.590023 
L 653.077818 81.145067 
L 654.137636 81.065775 
L 655.197455 81.382943 
L 656.257273 81.382943 
L 657.317091 80.669315 
L 658.376909 80.590023 
L 659.436727 80.827899 
L 660.496545 80.431439 
L 661.556364 80.748607 
L 662.616182 80.748607 
L 663.676 81.462235 
L 664.735818 81.145067 
L 665.795636 81.541527 
L 666.855455 81.303651 
L 668.975091 80.590023 
L 670.034909 81.224359 
L 671.094727 80.827899 
L 672.154545 81.145067 
L 673.214364 80.590023 
L 674.274182 80.431439 
L 677.453636 80.431439 
L 678.513455 80.193562 
L 679.573273 80.510731 
L 680.633091 81.065775 
L 681.692909 80.827899 
L 682.752727 81.145067 
L 683.812545 80.748607 
L 684.872364 80.827899 
L 685.932182 81.145067 
L 686.992 80.748607 
L 689.111636 80.907191 
L 690.171455 80.431439 
L 691.231273 80.827899 
L 692.291091 80.431439 
L 693.350909 80.352147 
L 694.410727 80.669315 
L 695.470545 80.272855 
L 696.530364 80.431439 
L 697.590182 80.907191 
L 698.65 80.590023 
L 699.709818 81.065775 
L 700.769636 80.907191 
L 701.829455 81.541527 
L 702.889273 80.669315 
L 703.949091 80.748607 
L 705.008909 80.669315 
L 706.068727 81.065775 
L 707.128545 80.510731 
L 708.188364 80.827899 
L 709.248182 80.510731 
L 710.308 81.224359 
L 711.367818 80.986483 
L 712.427636 81.065775 
L 713.487455 80.510731 
L 714.547273 80.510731 
L 715.607091 79.876394 
L 716.666909 80.748607 
L 717.726727 80.431439 
L 718.786545 80.986483 
L 719.846364 80.510731 
L 720.906182 80.907191 
L 721.966 80.431439 
L 723.025818 80.431439 
L 724.085636 80.193562 
L 725.145455 80.431439 
L 727.265091 80.510731 
L 728.324909 80.669315 
L 729.384727 80.431439 
L 730.444545 80.748607 
L 731.504364 80.590023 
L 732.564182 81.065775 
L 733.624 81.224359 
L 734.683818 80.272855 
L 737.863273 80.431439 
L 738.923091 80.272855 
L 739.982909 80.352147 
L 741.042727 80.034978 
L 743.162364 80.272855 
L 744.222182 79.876394 
L 746.341818 80.590023 
L 748.461455 80.748607 
L 749.521273 81.224359 
L 750.581091 80.669315 
L 751.640909 80.827899 
L 752.700727 80.827899 
L 753.760545 80.352147 
L 755.880182 81.065775 
L 756.94 81.462235 
L 757.999818 80.907191 
L 759.059636 81.303651 
L 760.119455 80.669315 
L 761.179273 80.827899 
L 762.239091 80.272855 
L 763.298909 80.11427 
L 764.358727 80.431439 
L 765.418545 80.11427 
L 766.478364 80.193562 
L 767.538182 80.590023 
L 768.598 80.272855 
L 770.717636 80.590023 
L 771.777455 80.510731 
L 772.837273 80.669315 
L 776.016727 80.352147 
L 777.076545 80.669315 
L 779.196182 80.11427 
L 780.256 80.431439 
L 781.315818 80.193562 
L 782.375636 80.431439 
L 783.435455 80.272855 
L 784.495273 80.986483 
L 785.555091 80.907191 
L 786.614909 80.669315 
L 787.674727 80.748607 
L 788.734545 80.986483 
L 789.794364 80.431439 
L 790.854182 81.224359 
L 791.914 80.590023 
L 792.973818 80.193562 
L 794.033636 80.510731 
L 795.093455 80.590023 
L 796.153273 80.827899 
L 799.332727 80.034978 
L 800.392545 80.11427 
L 801.452364 80.510731 
L 802.512182 79.876394 
L 803.572 80.193562 
L 806.751455 80.510731 
L 807.811273 80.748607 
L 809.930909 80.352147 
L 810.990727 80.748607 
L 812.050545 80.590023 
L 813.110364 80.907191 
L 814.170182 80.590023 
L 815.23 80.431439 
L 816.289818 80.431439 
L 817.349636 80.272855 
L 818.409455 80.669315 
L 819.469273 80.748607 
L 820.529091 81.065775 
L 822.648727 80.510731 
L 823.708545 80.352147 
L 824.768364 80.431439 
L 825.828182 80.272855 
L 826.888 80.352147 
L 827.947818 80.272855 
L 829.007636 79.955686 
L 831.127273 80.272855 
L 832.187091 80.11427 
L 833.246909 80.193562 
L 834.306727 80.590023 
L 835.366545 80.193562 
L 836.426364 80.272855 
L 837.486182 80.590023 
L 838.546 80.510731 
L 839.605818 80.11427 
L 840.665636 80.748607 
L 841.725455 80.272855 
L 842.785273 80.034978 
L 843.845091 80.272855 
L 844.904909 80.272855 
L 845.964727 80.669315 
L 847.024545 80.510731 
L 849.144182 80.748607 
L 850.204 79.955686 
L 851.263818 80.510731 
L 852.323636 80.669315 
L 853.383455 80.193562 
L 854.443273 80.827899 
L 855.503091 80.907191 
L 856.562909 80.034978 
L 857.622727 80.510731 
L 858.682545 79.955686 
L 859.742364 80.352147 
L 860.802182 80.352147 
L 861.862 80.11427 
L 863.981636 80.034978 
L 865.041455 80.510731 
L 866.101273 80.431439 
L 867.161091 80.034978 
L 868.220909 80.193562 
L 869.280727 80.193562 
L 870.340545 80.669315 
L 871.400364 80.669315 
L 872.460182 79.955686 
L 873.52 80.193562 
L 874.579818 80.034978 
L 875.639636 80.11427 
L 876.699455 79.955686 
L 877.759273 80.034978 
L 878.819091 80.272855 
L 879.878909 80.193562 
L 880.938727 80.748607 
L 881.998545 80.510731 
L 883.058364 80.590023 
L 884.118182 80.431439 
L 885.178 80.11427 
L 888.357455 80.193562 
L 889.417273 80.590023 
L 890.477091 80.034978 
L 892.596727 80.193562 
L 893.656545 80.034978 
L 894.716364 80.11427 
L 895.776182 80.986483 
L 896.836 80.590023 
L 900.015455 80.272855 
L 901.075273 80.034978 
L 902.135091 80.11427 
L 903.194909 80.034978 
L 904.254727 80.352147 
L 906.374364 80.034978 
L 907.434182 80.352147 
L 908.494 80.193562 
L 909.553818 80.352147 
L 910.613636 80.193562 
L 911.673455 80.352147 
L 912.733273 80.827899 
L 913.793091 80.510731 
L 914.852909 80.431439 
L 915.912727 80.669315 
L 916.972545 80.193562 
L 921.211818 80.431439 
L 923.331455 80.193562 
L 924.391273 80.748607 
L 925.451091 80.272855 
L 926.510909 80.272855 
L 927.570727 80.431439 
L 928.630545 80.431439 
L 929.690364 80.193562 
L 933.929636 79.955686 
L 934.989455 80.11427 
L 937.109091 79.955686 
L 938.168909 80.034978 
L 939.228727 80.272855 
L 940.288545 80.272855 
L 941.348364 80.11427 
L 942.408182 80.748607 
L 943.468 80.272855 
L 944.527818 80.590023 
L 945.587636 80.193562 
L 946.647455 80.431439 
L 948.767091 80.034978 
L 949.826909 80.352147 
L 950.886727 80.11427 
L 954.066182 80.510731 
L 955.126 80.272855 
L 956.185818 80.272855 
L 957.245636 80.431439 
L 958.305455 80.431439 
L 959.365273 80.11427 
L 960.425091 80.352147 
L 961.484909 80.352147 
L 962.544727 80.193562 
L 963.604545 79.797102 
L 964.664364 80.11427 
L 965.724182 80.272855 
L 966.784 80.034978 
L 967.843818 80.193562 
L 968.903636 80.034978 
L 969.963455 80.11427 
L 971.023273 79.797102 
L 972.083091 80.11427 
L 973.142909 80.669315 
L 974.202727 80.11427 
L 975.262545 80.272855 
L 977.382182 80.907191 
L 978.442 80.748607 
L 979.501818 80.431439 
L 980.561636 80.272855 
L 981.621455 80.272855 
L 983.741091 79.955686 
L 984.800909 80.034978 
L 987.980364 79.876394 
L 989.040182 80.272855 
L 990.1 79.876394 
L 991.159818 80.272855 
L 992.219636 80.352147 
L 993.279455 80.034978 
L 994.339273 80.590023 
L 996.458909 80.431439 
L 997.518727 80.193562 
L 998.578545 80.510731 
L 999.638364 80.193562 
L 1000.698182 80.193562 
L 1001.758 79.955686 
L 1002.817818 80.11427 
L 1003.877636 80.034978 
L 1004.937455 80.431439 
L 1005.997273 80.034978 
L 1005.997273 80.034978 
" clip-path="url(#p676d839079)" style="fill: none; stroke: #4c72b0; stroke-width: 6; stroke-linecap: round"/>
   </g>
   <g id="line2d_17">
    <path d="M 158.142727 582.35253 
L 159.202545 582.82821 
L 160.262364 581.87685 
L 161.322182 582.82821 
L 162.382 583.383169 
L 163.441818 584.651648 
L 164.501636 583.858848 
L 165.561455 583.541729 
L 166.621273 583.066049 
L 167.681091 582.74893 
L 168.740909 581.87685 
L 169.800727 580.529092 
L 171.920364 576.882215 
L 172.980182 572.12542 
L 175.099818 564.990226 
L 176.159636 556.110875 
L 177.219455 546.121606 
L 178.279273 532.326899 
L 179.339091 513.854675 
L 181.458727 479.843586 
L 184.638182 411.345726 
L 185.698 395.80687 
L 186.757818 376.304 
L 188.877455 355.056991 
L 190.997091 342.213642 
L 192.056909 338.408197 
L 194.176545 335.078445 
L 195.236364 334.127091 
L 196.296182 333.809968 
L 197.356 333.730691 
L 198.415818 332.462215 
L 199.475636 331.748677 
L 200.535455 331.748677 
L 201.595273 331.431569 
L 202.655091 332.224369 
L 203.714909 331.907261 
L 204.774727 332.779322 
L 205.834545 331.827969 
L 207.954182 331.590123 
L 209.014 331.273015 
L 210.073818 331.907261 
L 212.193455 331.193723 
L 213.253273 331.590123 
L 214.313091 331.748677 
L 215.372909 330.876615 
L 216.432727 331.352277 
L 217.492545 331.352277 
L 218.552364 330.797323 
L 219.612182 330.797323 
L 220.672 330.638769 
L 221.731818 331.035169 
L 222.791636 330.718061 
L 223.851455 330.876615 
L 224.911273 330.876615 
L 225.971091 329.766677 
L 228.090727 330.797323 
L 229.150545 329.608123 
L 230.210364 330.797323 
L 231.270182 330.638769 
L 232.33 329.766677 
L 233.389818 330.083815 
L 234.449636 329.370278 
L 235.509455 330.004523 
L 236.569273 330.004523 
L 237.629091 330.163077 
L 238.688909 329.528862 
L 239.748727 329.291016 
L 240.808545 330.083815 
L 241.868364 330.004523 
L 242.928182 329.291016 
L 243.988 329.05317 
L 245.047818 329.44957 
L 246.107636 327.943262 
L 247.167455 327.86397 
L 248.227273 327.46757 
L 249.287091 328.418924 
L 250.346909 328.736062 
L 251.406727 328.815324 
L 252.466545 329.44957 
L 253.526364 328.894616 
L 255.646 328.894616 
L 256.705818 328.736062 
L 257.765636 327.943262 
L 258.825455 328.577478 
L 259.885273 329.370278 
L 260.945091 328.181078 
L 262.004909 328.26037 
L 263.064727 327.07117 
L 264.124545 327.229724 
L 265.184364 327.626124 
L 266.244182 328.339662 
L 267.304 326.595509 
L 268.363818 328.577478 
L 269.423636 328.101816 
L 270.483455 326.912617 
L 271.543273 326.119817 
L 272.603091 326.595509 
L 273.662909 325.961263 
L 274.722727 327.07117 
L 275.782545 326.436925 
L 277.902182 326.040525 
L 278.962 326.674771 
L 280.021818 326.991909 
L 281.081636 326.278371 
L 282.141455 327.705416 
L 283.201273 326.674771 
L 284.261091 327.229724 
L 285.320909 327.388308 
L 286.380727 326.991909 
L 287.440545 328.498216 
L 288.500364 326.357663 
L 289.560182 325.247725 
L 290.62 326.119817 
L 292.739636 326.040525 
L 293.799455 324.21711 
L 294.859273 325.406309 
L 295.919091 324.137818 
L 296.978909 323.107172 
L 298.038727 325.089171 
L 299.098545 324.21711 
L 300.158364 325.009909 
L 301.218182 325.644125 
L 302.278 324.375663 
L 303.337818 323.82071 
L 304.397636 324.296371 
L 305.457455 321.997264 
L 306.517273 323.503572 
L 307.577091 323.107172 
L 308.636909 322.869326 
L 309.696727 323.82071 
L 310.756545 323.42431 
L 311.816364 322.63151 
L 312.876182 323.107172 
L 313.936 322.552218 
L 314.995818 322.948618 
L 316.055636 321.997264 
L 317.115455 322.076526 
L 318.175273 323.186464 
L 319.235091 321.917972 
L 320.294909 321.83871 
L 321.354727 321.045911 
L 322.414545 322.948618 
L 323.474364 322.076526 
L 324.534182 322.472926 
L 325.594 323.662126 
L 326.653818 322.948618 
L 327.713636 323.186464 
L 328.773455 322.076526 
L 329.833273 320.173819 
L 330.893091 319.143173 
L 331.952909 319.777419 
L 333.012727 318.905327 
L 334.072545 321.997264 
L 335.132364 318.112528 
L 336.192182 320.411665 
L 337.252 319.381019 
L 338.311818 319.856711 
L 339.371636 319.381019 
L 340.431455 319.618865 
L 341.491273 319.143173 
L 342.551091 319.777419 
L 343.610909 318.508927 
L 344.670727 318.271112 
L 345.730545 316.923358 
L 346.790364 318.350374 
L 347.850182 317.79542 
L 348.91 316.368374 
L 349.969818 317.240466 
L 351.029636 317.636866 
L 352.089455 317.240466 
L 353.149273 318.112528 
L 354.209091 317.953974 
L 355.268909 316.685512 
L 356.328727 315.099913 
L 357.388545 315.971974 
L 358.448364 314.941359 
L 359.508182 312.721514 
L 361.627818 317.39902 
L 362.687636 317.557574 
L 363.747455 316.526958 
L 365.867091 313.355759 
L 366.926909 314.624221 
L 367.986727 312.325114 
L 369.046545 314.862067 
L 370.106364 315.575575 
L 371.166182 314.227821 
L 372.226 313.831421 
L 373.285818 313.831421 
L 374.345636 311.294468 
L 375.405455 310.343115 
L 376.465273 309.074623 
L 377.525091 310.501668 
L 378.584909 308.757515 
L 379.644727 311.294468 
L 380.704545 308.916069 
L 381.764364 309.708869 
L 382.824182 311.849422 
L 383.884 311.611576 
L 384.943818 309.550315 
L 386.003636 310.58096 
L 387.063455 308.757515 
L 388.123273 306.299824 
L 389.183091 307.092624 
L 390.242909 310.422376 
L 391.302727 307.806161 
L 392.362545 308.519669 
L 393.422364 307.013362 
L 394.482182 307.409762 
L 395.542 308.202561 
L 396.601818 305.189916 
L 397.661636 304.555671 
L 398.721455 306.062008 
L 399.781273 303.525025 
L 400.841091 304.555671 
L 402.960727 302.732225 
L 404.020545 304.397117 
L 405.080364 303.207917 
L 406.140182 302.970071 
L 407.2 301.780872 
L 408.259818 301.860164 
L 409.319636 302.09801 
L 410.379455 302.494409 
L 411.439273 301.384472 
L 412.499091 301.543026 
L 413.558909 302.09801 
L 414.618727 298.134011 
L 415.678545 299.957426 
L 416.738364 297.975427 
L 417.798182 300.829518 
L 418.858 297.737611 
L 419.917818 296.786258 
L 420.977636 298.530411 
L 422.037455 300.591672 
L 424.157091 299.085365 
L 425.216909 296.07272 
L 426.276727 295.359212 
L 427.336545 295.27992 
L 428.396364 293.297921 
L 429.456182 293.218659 
L 430.516 291.553767 
L 431.575818 289.571768 
L 432.635636 290.760968 
L 433.695455 291.23666 
L 434.755273 291.950167 
L 435.815091 292.822259 
L 436.874909 289.888876 
L 437.934727 291.553767 
L 438.994545 291.712321 
L 440.054364 293.297921 
L 441.114182 291.078075 
L 442.174 291.23666 
L 443.233818 289.809614 
L 444.293636 282.436571 
L 445.353455 283.387924 
L 446.413273 282.753709 
L 447.473091 284.735708 
L 448.532909 283.308662 
L 449.592727 282.83297 
L 450.652545 280.137464 
L 451.712364 280.692417 
L 452.772182 277.679772 
L 453.832 276.886973 
L 454.891818 279.265372 
L 455.951636 278.868972 
L 458.071273 281.168109 
L 459.131091 279.661772 
L 460.190909 277.124819 
L 461.250727 279.265372 
L 462.310545 277.679772 
L 463.370364 274.667158 
L 464.430182 274.032912 
L 465.49 272.130174 
L 466.549818 271.575221 
L 467.609636 271.813067 
L 468.669455 268.007622 
L 469.729273 264.677869 
L 470.789091 270.782421 
L 471.848909 269.989621 
L 473.968545 268.641868 
L 475.028364 266.025623 
L 476.088182 268.086914 
L 477.148 268.086914 
L 478.207818 260.555317 
L 479.267636 261.268824 
L 480.327455 261.665224 
L 481.387273 259.366117 
L 482.447091 258.731871 
L 483.506909 256.829164 
L 484.566727 252.944457 
L 485.626545 256.829164 
L 486.686364 257.85981 
L 487.746182 254.847165 
L 488.806 257.146272 
L 489.865818 256.67061 
L 490.925636 251.675966 
L 491.985455 251.755258 
L 493.045273 255.164272 
L 494.105091 252.468766 
L 495.164909 248.029075 
L 496.224727 244.382214 
L 497.284545 246.284922 
L 498.344364 242.003815 
L 499.404182 248.187659 
L 500.464 248.108367 
L 501.523818 246.99846 
L 502.583636 243.827261 
L 503.643455 247.157013 
L 504.703273 245.492122 
L 505.763091 245.967814 
L 506.822909 241.607415 
L 507.882727 246.522768 
L 510.002364 236.057817 
L 511.062182 236.295663 
L 512.122 233.837972 
L 513.181818 236.216371 
L 514.241636 233.679418 
L 515.301455 232.410957 
L 516.361273 232.173111 
L 517.421091 231.697419 
L 518.480909 234.15511 
L 519.540727 231.380311 
L 520.600545 231.142465 
L 521.660364 230.428958 
L 522.720182 233.283018 
L 523.78 232.648773 
L 524.839818 229.001912 
L 525.899636 226.147821 
L 526.959455 228.684774 
L 528.019273 226.702775 
L 529.079091 223.214468 
L 530.138909 222.342407 
L 531.198727 221.946007 
L 532.258545 216.079271 
L 533.318364 217.427024 
L 534.378182 214.969363 
L 535.438 211.243211 
L 536.497818 216.87207 
L 537.557636 213.22521 
L 538.617455 212.908072 
L 539.677273 212.273856 
L 540.737091 209.261211 
L 541.796909 205.376505 
L 542.856727 211.322472 
L 543.916545 212.194564 
L 544.976364 209.419765 
L 547.096 205.931458 
L 548.155818 201.016106 
L 549.215636 203.315213 
L 550.275455 201.96746 
L 551.335273 201.96746 
L 552.395091 199.113369 
L 553.454909 201.96746 
L 554.514727 196.021462 
L 555.574545 198.479123 
L 556.634364 193.325955 
L 557.694182 189.599772 
L 558.754 187.934911 
L 560.873636 188.172757 
L 561.933455 185.556512 
L 562.993273 185.952912 
L 564.053091 184.843004 
L 565.112909 185.87362 
L 566.172727 187.776357 
L 567.232545 188.648419 
L 568.292364 183.336667 
L 569.352182 185.318666 
L 570.412 180.086206 
L 571.471818 181.116821 
L 573.591455 174.21947 
L 574.651273 172.316763 
L 575.711091 178.897006 
L 576.770909 180.958267 
L 577.830727 174.695162 
L 578.890545 171.127563 
L 579.950364 175.884361 
L 581.010182 173.505962 
L 582.07 167.084272 
L 583.129818 171.523963 
L 584.189636 166.529319 
L 585.249455 166.687873 
L 586.309273 163.437412 
L 587.369091 167.718518 
L 588.428909 164.309504 
L 589.488727 163.75452 
L 590.548545 163.833812 
L 591.608364 162.96172 
L 592.668182 164.071658 
L 593.728 164.547319 
L 594.787818 161.851812 
L 595.847636 160.028367 
L 596.907455 155.113015 
L 597.967273 155.033753 
L 599.027091 151.069754 
L 600.086909 154.082369 
L 601.146727 154.795907 
L 602.206545 154.240953 
L 603.266364 152.972462 
L 604.326182 149.404863 
L 605.386 149.167017 
L 606.445818 150.435509 
L 607.505636 149.087755 
L 608.565455 149.880555 
L 609.625273 148.849909 
L 610.685091 139.098467 
L 611.744909 136.720067 
L 612.804727 138.702067 
L 613.864545 142.666065 
L 614.924364 141.159758 
L 615.984182 145.837264 
L 617.044 143.379603 
L 618.103818 138.543513 
L 619.163636 139.574159 
L 620.223455 142.903911 
L 621.283273 140.208404 
L 622.343091 138.860621 
L 623.402909 140.44622 
L 624.462727 141.001204 
L 625.522545 139.415605 
L 626.582364 137.195759 
L 627.642182 140.129112 
L 628.702 138.860621 
L 629.761818 139.65342 
L 630.821636 136.720067 
L 631.881455 135.61016 
L 632.941273 132.993915 
L 634.001091 134.579514 
L 635.060909 127.761455 
L 636.120727 130.932654 
L 637.180545 129.98127 
L 638.240364 133.548869 
L 639.300182 129.267762 
L 640.36 129.267762 
L 641.419818 127.920009 
L 642.479636 126.889363 
L 643.539455 124.35241 
L 644.599273 123.16321 
L 645.659091 123.16321 
L 647.778727 125.14521 
L 648.838545 124.986656 
L 649.898364 123.55961 
L 650.958182 127.920009 
L 652.018 125.303764 
L 653.077818 125.14521 
L 654.137636 128.157855 
L 655.197455 126.255117 
L 656.257273 123.16321 
L 657.317091 123.95601 
L 658.376909 120.705519 
L 659.436727 117.93072 
L 660.496545 120.071304 
L 661.556364 121.498319 
L 662.616182 121.181211 
L 664.735818 124.986656 
L 666.855455 124.510964 
L 667.915273 122.608257 
L 668.975091 119.040658 
L 670.034909 116.582967 
L 672.154545 119.278504 
L 673.214364 116.582967 
L 675.334 113.09466 
L 676.393818 111.191953 
L 677.453636 111.509061 
L 678.513455 113.649614 
L 679.573273 109.447769 
L 680.633091 110.002753 
L 681.692909 110.874815 
L 682.752727 113.253214 
L 683.812545 115.235213 
L 684.872364 115.948721 
L 685.932182 108.337862 
L 686.992 109.606353 
L 688.051818 108.813554 
L 689.111636 106.67297 
L 690.171455 106.990108 
L 691.231273 106.831554 
L 692.291091 106.435155 
L 693.350909 104.373863 
L 694.410727 101.916202 
L 695.470545 105.483771 
L 696.530364 105.325217 
L 697.590182 105.008109 
L 698.65 103.898202 
L 699.709818 103.184664 
L 700.769636 104.691001 
L 701.829455 104.294601 
L 702.889273 107.46577 
L 703.949091 104.453155 
L 706.068727 104.453155 
L 707.128545 101.83691 
L 708.188364 104.611709 
L 709.248182 105.721617 
L 710.308 104.770263 
L 711.367818 105.245955 
L 712.427636 104.928817 
L 713.487455 101.757618 
L 714.547273 99.775619 
L 715.607091 98.269311 
L 716.666909 98.982819 
L 717.726727 100.330603 
L 718.786545 99.696357 
L 719.846364 103.501802 
L 720.906182 101.202664 
L 721.966 99.775619 
L 723.025818 97.238666 
L 724.085636 98.507157 
L 725.145455 98.745003 
L 726.205273 98.348604 
L 727.265091 99.854911 
L 728.324909 96.445866 
L 729.384727 98.190019 
L 730.444545 98.110758 
L 732.564182 97.159404 
L 733.624 94.384605 
L 734.683818 94.543159 
L 735.743636 94.067467 
L 736.803455 93.750359 
L 737.863273 94.939559 
L 738.923091 95.098113 
L 739.982909 93.116113 
L 741.042727 93.116113 
L 742.102545 95.018821 
L 743.162364 90.817006 
L 744.222182 91.37196 
L 745.282 92.640452 
L 746.341818 92.799006 
L 747.401636 97.080112 
L 748.461455 96.60442 
L 749.521273 97.39722 
L 750.581091 95.732358 
L 752.700727 93.750359 
L 753.760545 92.323314 
L 754.820364 93.988205 
L 755.880182 93.353959 
L 757.999818 92.878267 
L 759.059636 93.671067 
L 760.119455 93.829651 
L 761.179273 91.76836 
L 762.239091 91.76836 
L 763.298909 92.16476 
L 764.358727 90.18276 
L 765.418545 90.817006 
L 766.478364 89.231407 
L 767.538182 89.231407 
L 768.598 90.262052 
L 769.657818 90.103468 
L 770.717636 90.57916 
L 771.777455 90.262052 
L 772.837273 88.914269 
L 774.956909 91.847652 
L 776.016727 92.56116 
L 777.076545 92.56116 
L 778.136364 90.103468 
L 779.196182 89.627807 
L 780.256 89.310669 
L 781.315818 89.707069 
L 782.375636 87.566515 
L 783.435455 89.707069 
L 784.495273 87.962915 
L 785.555091 90.658452 
L 786.614909 88.993561 
L 787.674727 88.359315 
L 788.734545 89.627807 
L 789.794364 89.469253 
L 790.854182 88.121469 
L 791.914 89.548515 
L 792.973818 88.517869 
L 794.033636 87.249408 
L 795.093455 87.962915 
L 796.153273 88.042207 
L 797.213091 88.835007 
L 798.272909 88.280053 
L 799.332727 86.93227 
L 803.572 85.267408 
L 804.631818 85.505254 
L 805.691636 88.042207 
L 806.751455 87.883653 
L 807.811273 88.835007 
L 808.871091 87.407961 
L 809.930909 88.993561 
L 810.990727 87.407961 
L 812.050545 86.93227 
L 813.110364 88.597161 
L 815.23 85.980916 
L 816.289818 85.584516 
L 817.349636 85.74307 
L 818.409455 86.13947 
L 819.469273 86.298054 
L 820.529091 87.487253 
L 821.588909 86.773716 
L 822.648727 85.34667 
L 823.708545 84.633162 
L 824.768364 85.584516 
L 825.828182 84.553901 
L 826.888 84.316055 
L 827.947818 84.316055 
L 829.007636 86.456608 
L 830.067455 85.029562 
L 831.127273 84.95027 
L 832.187091 84.633162 
L 833.246909 85.663808 
L 834.306727 86.456608 
L 835.366545 85.980916 
L 836.426364 84.95027 
L 837.486182 85.663808 
L 838.546 85.980916 
L 839.605818 85.74307 
L 840.665636 85.980916 
L 841.725455 84.712454 
L 842.785273 84.316055 
L 843.845091 84.157501 
L 844.904909 83.761101 
L 845.964727 84.553901 
L 847.024545 85.901654 
L 848.084364 85.584516 
L 849.144182 84.712454 
L 850.204 84.633162 
L 851.263818 84.395316 
L 852.323636 83.998917 
L 854.443273 83.761101 
L 855.503091 84.553901 
L 856.562909 83.998917 
L 857.622727 82.809717 
L 858.682545 83.681809 
L 859.742364 83.681809 
L 860.802182 82.413317 
L 861.862 83.285409 
L 862.921818 82.968301 
L 863.981636 83.126855 
L 865.041455 82.730455 
L 867.161091 82.254763 
L 868.220909 82.968301 
L 870.340545 82.334055 
L 871.400364 83.523255 
L 872.460182 82.492609 
L 874.579818 83.285409 
L 875.639636 83.523255 
L 876.699455 83.364701 
L 877.759273 83.761101 
L 879.878909 83.285409 
L 880.938727 83.681809 
L 881.998545 84.633162 
L 883.058364 84.474609 
L 884.118182 84.157501 
L 885.178 83.047563 
L 886.237818 83.047563 
L 887.297636 82.334055 
L 888.357455 81.779102 
L 889.417273 82.492609 
L 890.477091 81.779102 
L 891.536909 82.254763 
L 892.596727 81.937655 
L 893.656545 83.443963 
L 894.716364 82.175501 
L 895.776182 82.651163 
L 896.836 82.413317 
L 897.895818 81.858363 
L 898.955636 83.285409 
L 900.015455 82.571901 
L 901.075273 82.889009 
L 902.135091 82.254763 
L 904.254727 82.651163 
L 905.314545 82.651163 
L 906.374364 82.016917 
L 908.494 81.541256 
L 909.553818 81.69981 
L 910.613636 82.730455 
L 911.673455 82.968301 
L 912.733273 82.651163 
L 913.793091 83.285409 
L 914.852909 83.443963 
L 915.912727 83.840363 
L 916.972545 83.998917 
L 918.032364 83.285409 
L 919.092182 82.175501 
L 920.152 83.047563 
L 921.211818 81.541256 
L 922.271636 82.016917 
L 923.331455 82.809717 
L 924.391273 82.651163 
L 925.451091 82.334055 
L 926.510909 81.620517 
L 927.570727 81.779102 
L 928.630545 81.30341 
L 929.690364 81.620517 
L 930.750182 80.90701 
L 931.81 80.669164 
L 932.869818 80.986302 
L 933.929636 81.69981 
L 934.989455 81.065564 
L 936.049273 82.175501 
L 937.109091 81.382702 
L 938.168909 81.382702 
L 939.228727 81.224118 
L 940.288545 81.937655 
L 941.348364 82.492609 
L 942.408182 82.334055 
L 943.468 82.730455 
L 944.527818 82.651163 
L 945.587636 81.69981 
L 946.647455 81.620517 
L 947.707273 80.669164 
L 948.767091 81.461964 
L 950.886727 81.065564 
L 953.006364 81.69981 
L 954.066182 81.382702 
L 955.126 81.620517 
L 956.185818 82.096209 
L 957.245636 82.175501 
L 958.305455 81.620517 
L 959.365273 81.382702 
L 960.425091 81.30341 
L 961.484909 81.541256 
L 962.544727 80.90701 
L 963.604545 80.986302 
L 964.664364 81.224118 
L 965.724182 80.827718 
L 966.784 81.144856 
L 968.903636 80.90701 
L 969.963455 81.541256 
L 971.023273 81.541256 
L 972.083091 81.144856 
L 974.202727 81.224118 
L 976.322364 80.827718 
L 977.382182 82.096209 
L 978.442 81.541256 
L 979.501818 81.144856 
L 981.621455 81.224118 
L 982.681273 80.986302 
L 983.741091 81.779102 
L 984.800909 81.937655 
L 985.860727 80.90701 
L 986.920545 80.589902 
L 987.980364 80.589902 
L 990.1 81.461964 
L 991.159818 81.144856 
L 992.219636 80.986302 
L 993.279455 81.620517 
L 994.339273 80.986302 
L 995.399091 81.224118 
L 996.458909 81.30341 
L 997.518727 81.065564 
L 998.578545 81.30341 
L 999.638364 81.224118 
L 1000.698182 81.461964 
L 1001.758 81.065564 
L 1002.817818 81.30341 
L 1003.877636 80.90701 
L 1005.997273 81.224118 
L 1005.997273 81.224118 
" clip-path="url(#p676d839079)" style="fill: none; stroke: #dd8452; stroke-width: 6; stroke-linecap: round"/>
   </g>
   <g id="line2d_18"/>
   <g id="line2d_19"/>
   <g id="patch_3">
    <path d="M 115.75 609.894375 
L 115.75 54.554375 
" style="fill: none; stroke: #cccccc; stroke-width: 1.875; stroke-linejoin: miter; stroke-linecap: square"/>
   </g>
   <g id="patch_4">
    <path d="M 1048.39 609.894375 
L 1048.39 54.554375 
" style="fill: none; stroke: #cccccc; stroke-width: 1.875; stroke-linejoin: miter; stroke-linecap: square"/>
   </g>
   <g id="patch_5">
    <path d="M 115.75 609.894375 
L 1048.39 609.894375 
" style="fill: none; stroke: #cccccc; stroke-width: 1.875; stroke-linejoin: miter; stroke-linecap: square"/>
   </g>
   <g id="patch_6">
    <path d="M 115.75 54.554375 
L 1048.39 54.554375 
" style="fill: none; stroke: #cccccc; stroke-width: 1.875; stroke-linejoin: miter; stroke-linecap: square"/>
   </g>
   <g id="text_18">
    <!-- Training Progress: Accuracy -->
    <g style="fill: #262626" transform="translate(298.820312 34.554375) scale(0.36 -0.36)">
     <defs>
      <path id="DejaVuSans-Bold-54" d="M 31 4666 
L 4331 4666 
L 4331 3756 
L 2784 3756 
L 2784 0 
L 1581 0 
L 1581 3756 
L 31 3756 
L 31 4666 
z
" transform="scale(0.015625)"/>
      <path id="DejaVuSans-Bold-72" d="M 3138 2547 
Q 2991 2616 2845 2648 
Q 2700 2681 2553 2681 
Q 2122 2681 1889 2404 
Q 1656 2128 1656 1613 
L 1656 0 
L 538 0 
L 538 3500 
L 1656 3500 
L 1656 2925 
Q 1872 3269 2151 3426 
Q 2431 3584 2822 3584 
Q 2878 3584 2943 3579 
Q 3009 3575 3134 3559 
L 3138 2547 
z
" transform="scale(0.015625)"/>
      <path id="DejaVuSans-Bold-61" d="M 2106 1575 
Q 1756 1575 1579 1456 
Q 1403 1338 1403 1106 
Q 1403 894 1545 773 
Q 1688 653 1941 653 
Q 2256 653 2472 879 
Q 2688 1106 2688 1447 
L 2688 1575 
L 2106 1575 
z
M 3816 1997 
L 3816 0 
L 2688 0 
L 2688 519 
Q 2463 200 2181 54 
Q 1900 -91 1497 -91 
Q 953 -91 614 226 
Q 275 544 275 1050 
Q 275 1666 698 1953 
Q 1122 2241 2028 2241 
L 2688 2241 
L 2688 2328 
Q 2688 2594 2478 2717 
Q 2269 2841 1825 2841 
Q 1466 2841 1156 2769 
Q 847 2697 581 2553 
L 581 3406 
Q 941 3494 1303 3539 
Q 1666 3584 2028 3584 
Q 2975 3584 3395 3211 
Q 3816 2838 3816 1997 
z
" transform="scale(0.015625)"/>
      <path id="DejaVuSans-Bold-69" d="M 538 3500 
L 1656 3500 
L 1656 0 
L 538 0 
L 538 3500 
z
M 538 4863 
L 1656 4863 
L 1656 3950 
L 538 3950 
L 538 4863 
z
" transform="scale(0.015625)"/>
      <path id="DejaVuSans-Bold-6e" d="M 4056 2131 
L 4056 0 
L 2931 0 
L 2931 347 
L 2931 1631 
Q 2931 2084 2911 2256 
Q 2891 2428 2841 2509 
Q 2775 2619 2662 2680 
Q 2550 2741 2406 2741 
Q 2056 2741 1856 2470 
Q 1656 2200 1656 1722 
L 1656 0 
L 538 0 
L 538 3500 
L 1656 3500 
L 1656 2988 
Q 1909 3294 2193 3439 
Q 2478 3584 2822 3584 
Q 3428 3584 3742 3212 
Q 4056 2841 4056 2131 
z
" transform="scale(0.015625)"/>
      <path id="DejaVuSans-Bold-67" d="M 2919 594 
Q 2688 288 2409 144 
Q 2131 0 1766 0 
Q 1125 0 706 504 
Q 288 1009 288 1791 
Q 288 2575 706 3076 
Q 1125 3578 1766 3578 
Q 2131 3578 2409 3434 
Q 2688 3291 2919 2981 
L 2919 3500 
L 4044 3500 
L 4044 353 
Q 4044 -491 3511 -936 
Q 2978 -1381 1966 -1381 
Q 1638 -1381 1331 -1331 
Q 1025 -1281 716 -1178 
L 716 -306 
Q 1009 -475 1290 -558 
Q 1572 -641 1856 -641 
Q 2406 -641 2662 -400 
Q 2919 -159 2919 353 
L 2919 594 
z
M 2181 2772 
Q 1834 2772 1640 2515 
Q 1447 2259 1447 1791 
Q 1447 1309 1634 1061 
Q 1822 813 2181 813 
Q 2531 813 2725 1069 
Q 2919 1325 2919 1791 
Q 2919 2259 2725 2515 
Q 2531 2772 2181 2772 
z
" transform="scale(0.015625)"/>
      <path id="DejaVuSans-Bold-20" transform="scale(0.015625)"/>
      <path id="DejaVuSans-Bold-50" d="M 588 4666 
L 2584 4666 
Q 3475 4666 3951 4270 
Q 4428 3875 4428 3144 
Q 4428 2409 3951 2014 
Q 3475 1619 2584 1619 
L 1791 1619 
L 1791 0 
L 588 0 
L 588 4666 
z
M 1791 3794 
L 1791 2491 
L 2456 2491 
Q 2806 2491 2997 2661 
Q 3188 2831 3188 3144 
Q 3188 3456 2997 3625 
Q 2806 3794 2456 3794 
L 1791 3794 
z
" transform="scale(0.015625)"/>
      <path id="DejaVuSans-Bold-6f" d="M 2203 2784 
Q 1831 2784 1636 2517 
Q 1441 2250 1441 1747 
Q 1441 1244 1636 976 
Q 1831 709 2203 709 
Q 2569 709 2762 976 
Q 2956 1244 2956 1747 
Q 2956 2250 2762 2517 
Q 2569 2784 2203 2784 
z
M 2203 3584 
Q 3106 3584 3614 3096 
Q 4122 2609 4122 1747 
Q 4122 884 3614 396 
Q 3106 -91 2203 -91 
Q 1297 -91 786 396 
Q 275 884 275 1747 
Q 275 2609 786 3096 
Q 1297 3584 2203 3584 
z
" transform="scale(0.015625)"/>
      <path id="DejaVuSans-Bold-65" d="M 4031 1759 
L 4031 1441 
L 1416 1441 
Q 1456 1047 1700 850 
Q 1944 653 2381 653 
Q 2734 653 3104 758 
Q 3475 863 3866 1075 
L 3866 213 
Q 3469 63 3072 -14 
Q 2675 -91 2278 -91 
Q 1328 -91 801 392 
Q 275 875 275 1747 
Q 275 2603 792 3093 
Q 1309 3584 2216 3584 
Q 3041 3584 3536 3087 
Q 4031 2591 4031 1759 
z
M 2881 2131 
Q 2881 2450 2695 2645 
Q 2509 2841 2209 2841 
Q 1884 2841 1681 2658 
Q 1478 2475 1428 2131 
L 2881 2131 
z
" transform="scale(0.015625)"/>
      <path id="DejaVuSans-Bold-73" d="M 3272 3391 
L 3272 2541 
Q 2913 2691 2578 2766 
Q 2244 2841 1947 2841 
Q 1628 2841 1473 2761 
Q 1319 2681 1319 2516 
Q 1319 2381 1436 2309 
Q 1553 2238 1856 2203 
L 2053 2175 
Q 2913 2066 3209 1816 
Q 3506 1566 3506 1031 
Q 3506 472 3093 190 
Q 2681 -91 1863 -91 
Q 1516 -91 1145 -36 
Q 775 19 384 128 
L 384 978 
Q 719 816 1070 734 
Q 1422 653 1784 653 
Q 2113 653 2278 743 
Q 2444 834 2444 1013 
Q 2444 1163 2330 1236 
Q 2216 1309 1875 1350 
L 1678 1375 
Q 931 1469 631 1722 
Q 331 1975 331 2491 
Q 331 3047 712 3315 
Q 1094 3584 1881 3584 
Q 2191 3584 2531 3537 
Q 2872 3491 3272 3391 
z
" transform="scale(0.015625)"/>
      <path id="DejaVuSans-Bold-3a" d="M 716 3500 
L 1844 3500 
L 1844 2291 
L 716 2291 
L 716 3500 
z
M 716 1209 
L 1844 1209 
L 1844 0 
L 716 0 
L 716 1209 
z
" transform="scale(0.015625)"/>
      <path id="DejaVuSans-Bold-41" d="M 3419 850 
L 1538 850 
L 1241 0 
L 31 0 
L 1759 4666 
L 3194 4666 
L 4922 0 
L 3713 0 
L 3419 850 
z
M 1838 1716 
L 3116 1716 
L 2478 3572 
L 1838 1716 
z
" transform="scale(0.015625)"/>
      <path id="DejaVuSans-Bold-63" d="M 3366 3391 
L 3366 2478 
Q 3138 2634 2908 2709 
Q 2678 2784 2431 2784 
Q 1963 2784 1702 2511 
Q 1441 2238 1441 1747 
Q 1441 1256 1702 982 
Q 1963 709 2431 709 
Q 2694 709 2930 787 
Q 3166 866 3366 1019 
L 3366 103 
Q 3103 6 2833 -42 
Q 2563 -91 2291 -91 
Q 1344 -91 809 395 
Q 275 881 275 1747 
Q 275 2613 809 3098 
Q 1344 3584 2291 3584 
Q 2566 3584 2833 3536 
Q 3100 3488 3366 3391 
z
" transform="scale(0.015625)"/>
      <path id="DejaVuSans-Bold-75" d="M 500 1363 
L 500 3500 
L 1625 3500 
L 1625 3150 
Q 1625 2866 1622 2436 
Q 1619 2006 1619 1863 
Q 1619 1441 1641 1255 
Q 1663 1069 1716 984 
Q 1784 875 1895 815 
Q 2006 756 2150 756 
Q 2500 756 2700 1025 
Q 2900 1294 2900 1772 
L 2900 3500 
L 4019 3500 
L 4019 0 
L 2900 0 
L 2900 506 
Q 2647 200 2364 54 
Q 2081 -91 1741 -91 
Q 1134 -91 817 281 
Q 500 653 500 1363 
z
" transform="scale(0.015625)"/>
      <path id="DejaVuSans-Bold-79" d="M 78 3500 
L 1197 3500 
L 2138 1125 
L 2938 3500 
L 4056 3500 
L 2584 -331 
Q 2363 -916 2067 -1148 
Q 1772 -1381 1288 -1381 
L 641 -1381 
L 641 -647 
L 991 -647 
Q 1275 -647 1404 -556 
Q 1534 -466 1606 -231 
L 1638 -134 
L 78 3500 
z
" transform="scale(0.015625)"/>
     </defs>
     <use xlink:href="#DejaVuSans-Bold-54"/>
     <use xlink:href="#DejaVuSans-Bold-72" transform="translate(57.212891 0)"/>
     <use xlink:href="#DejaVuSans-Bold-61" transform="translate(106.529297 0)"/>
     <use xlink:href="#DejaVuSans-Bold-69" transform="translate(174.009766 0)"/>
     <use xlink:href="#DejaVuSans-Bold-6e" transform="translate(208.287109 0)"/>
     <use xlink:href="#DejaVuSans-Bold-69" transform="translate(279.478516 0)"/>
     <use xlink:href="#DejaVuSans-Bold-6e" transform="translate(313.755859 0)"/>
     <use xlink:href="#DejaVuSans-Bold-67" transform="translate(384.947266 0)"/>
     <use xlink:href="#DejaVuSans-Bold-20" transform="translate(456.529297 0)"/>
     <use xlink:href="#DejaVuSans-Bold-50" transform="translate(491.34375 0)"/>
     <use xlink:href="#DejaVuSans-Bold-72" transform="translate(564.634766 0)"/>
     <use xlink:href="#DejaVuSans-Bold-6f" transform="translate(613.951172 0)"/>
     <use xlink:href="#DejaVuSans-Bold-67" transform="translate(682.652344 0)"/>
     <use xlink:href="#DejaVuSans-Bold-72" transform="translate(754.234375 0)"/>
     <use xlink:href="#DejaVuSans-Bold-65" transform="translate(803.550781 0)"/>
     <use xlink:href="#DejaVuSans-Bold-73" transform="translate(871.373047 0)"/>
     <use xlink:href="#DejaVuSans-Bold-73" transform="translate(930.894531 0)"/>
     <use xlink:href="#DejaVuSans-Bold-3a" transform="translate(990.416016 0)"/>
     <use xlink:href="#DejaVuSans-Bold-20" transform="translate(1030.40625 0)"/>
     <use xlink:href="#DejaVuSans-Bold-41" transform="translate(1065.220703 0)"/>
     <use xlink:href="#DejaVuSans-Bold-63" transform="translate(1142.613281 0)"/>
     <use xlink:href="#DejaVuSans-Bold-63" transform="translate(1201.890625 0)"/>
     <use xlink:href="#DejaVuSans-Bold-75" transform="translate(1261.167969 0)"/>
     <use xlink:href="#DejaVuSans-Bold-72" transform="translate(1332.359375 0)"/>
     <use xlink:href="#DejaVuSans-Bold-61" transform="translate(1381.675781 0)"/>
     <use xlink:href="#DejaVuSans-Bold-63" transform="translate(1449.15625 0)"/>
     <use xlink:href="#DejaVuSans-Bold-79" transform="translate(1508.433594 0)"/>
    </g>
   </g>
   <g id="legend_1">
    <g id="patch_7">
     <path d="M 849.11 593.894375 
L 1025.99 593.894375 
Q 1032.39 593.894375 1032.39 587.494375 
L 1032.39 496.754375 
Q 1032.39 490.354375 1025.99 490.354375 
L 849.11 490.354375 
Q 842.71 490.354375 842.71 496.754375 
L 842.71 587.494375 
Q 842.71 593.894375 849.11 593.894375 
z
" style="fill: #ffffff; opacity: 0.8; stroke: #cccccc; stroke-width: 1.5; stroke-linejoin: miter"/>
    </g>
    <g id="line2d_20">
     <path d="M 855.51 516.269375 
L 887.51 516.269375 
L 919.51 516.269375 
" style="fill: none; stroke: #4c72b0; stroke-width: 6; stroke-linecap: round"/>
    </g>
    <g id="text_19">
     <!-- train -->
     <g style="fill: #262626" transform="translate(945.11 527.469375) scale(0.32 -0.32)">
      <defs>
       <path id="DejaVuSans-74" d="M 1172 4494 
L 1172 3500 
L 2356 3500 
L 2356 3053 
L 1172 3053 
L 1172 1153 
Q 1172 725 1289 603 
Q 1406 481 1766 481 
L 2356 481 
L 2356 0 
L 1766 0 
Q 1100 0 847 248 
Q 594 497 594 1153 
L 594 3053 
L 172 3053 
L 172 3500 
L 594 3500 
L 594 4494 
L 1172 4494 
z
" transform="scale(0.015625)"/>
       <path id="DejaVuSans-69" d="M 603 3500 
L 1178 3500 
L 1178 0 
L 603 0 
L 603 3500 
z
M 603 4863 
L 1178 4863 
L 1178 4134 
L 603 4134 
L 603 4863 
z
" transform="scale(0.015625)"/>
       <path id="DejaVuSans-6e" d="M 3513 2113 
L 3513 0 
L 2938 0 
L 2938 2094 
Q 2938 2591 2744 2837 
Q 2550 3084 2163 3084 
Q 1697 3084 1428 2787 
Q 1159 2491 1159 1978 
L 1159 0 
L 581 0 
L 581 3500 
L 1159 3500 
L 1159 2956 
Q 1366 3272 1645 3428 
Q 1925 3584 2291 3584 
Q 2894 3584 3203 3211 
Q 3513 2838 3513 2113 
z
" transform="scale(0.015625)"/>
      </defs>
      <use xlink:href="#DejaVuSans-74"/>
      <use xlink:href="#DejaVuSans-72" transform="translate(39.208984 0)"/>
      <use xlink:href="#DejaVuSans-61" transform="translate(80.322266 0)"/>
      <use xlink:href="#DejaVuSans-69" transform="translate(141.601562 0)"/>
      <use xlink:href="#DejaVuSans-6e" transform="translate(169.384766 0)"/>
     </g>
    </g>
    <g id="line2d_21">
     <path d="M 855.51 563.239375 
L 887.51 563.239375 
L 919.51 563.239375 
" style="fill: none; stroke: #dd8452; stroke-width: 6; stroke-linecap: round"/>
    </g>
    <g id="text_20">
     <!-- val -->
     <g style="fill: #262626" transform="translate(945.11 574.439375) scale(0.32 -0.32)">
      <defs>
       <path id="DejaVuSans-76" d="M 191 3500 
L 800 3500 
L 1894 563 
L 2988 3500 
L 3597 3500 
L 2284 0 
L 1503 0 
L 191 3500 
z
" transform="scale(0.015625)"/>
       <path id="DejaVuSans-6c" d="M 603 4863 
L 1178 4863 
L 1178 0 
L 603 0 
L 603 4863 
z
" transform="scale(0.015625)"/>
      </defs>
      <use xlink:href="#DejaVuSans-76"/>
      <use xlink:href="#DejaVuSans-61" transform="translate(59.179688 0)"/>
      <use xlink:href="#DejaVuSans-6c" transform="translate(120.458984 0)"/>
     </g>
    </g>
   </g>
  </g>
 </g>
 <defs>
  <clipPath id="p676d839079">
   <rect x="115.75" y="54.554375" width="932.64" height="555.34"/>
  </clipPath>
 </defs>
</svg>
