<?xml version="1.0" encoding="utf-8" standalone="no"?>
<!DOCTYPE svg PUBLIC "-//W3C//DTD SVG 1.1//EN"
  "http://www.w3.org/Graphics/SVG/1.1/DTD/svg11.dtd">
<svg xmlns:xlink="http://www.w3.org/1999/xlink" width="1055.46pt" height="695.534375pt" viewBox="0 0 1055.46 695.534375" xmlns="http://www.w3.org/2000/svg" version="1.1">
 <metadata>
  <rdf:RDF xmlns:dc="http://purl.org/dc/elements/1.1/" xmlns:cc="http://creativecommons.org/ns#" xmlns:rdf="http://www.w3.org/1999/02/22-rdf-syntax-ns#">
   <cc:Work>
    <dc:type rdf:resource="http://purl.org/dc/dcmitype/StillImage"/>
    <dc:date>2026-04-10T13:50:06.286922</dc:date>
    <dc:format>image/svg+xml</dc:format>
    <dc:creator>
     <cc:Agent>
      <dc:title>Matplotlib v3.10.8, https://matplotlib.org/</dc:title>
     </cc:Agent>
    </dc:creator>
   </cc:Work>
  </rdf:RDF>
 </metadata>
 <defs>
  <style type="text/css">*{stroke-linejoin: round; stroke-linecap: butt}</style>
 </defs>
 <g id="figure_1">
  <g id="patch_1">
   <path d="M 0 695.534375 
L 1055.46 695.534375 
L 1055.46 0 
L 0 0 
z
" style="fill: #ffffff"/>
  </g>
  <g id="axes_1">
   <g id="patch_2">
    <path d="M 75.03 609.894375 
L 1048.26 609.894375 
L 1048.26 54.554375 
L 75.03 54.554375 
z
" style="fill: #ffffff"/>
   </g>
   <g id="matplotlib.axis_1">
    <g id="xtick_1">
     <g id="line2d_1">
      <path d="M 118.161784 609.894375 
L 118.161784 54.554375 
" clip-path="url(#pbe5e8b0522)" style="fill: none; stroke: #cccccc; stroke-opacity: 0.3; stroke-width: 1.5; stroke-linecap: round"/>
     </g>
     <g id="text_1">
      <!-- 0 -->
      <g style="fill: #262626" transform="translate(107.981784 646.709375) scale(0.32 -0.32)">
       <defs>
        <path id="DejaVuSans-30" d="M 2034 4250 
Q 1547 4250 1301 3770 
Q 1056 3291 1056 2328 
Q 1056 1369 1301 889 
Q 1547 409 2034 409 
Q 2525 409 2770 889 
Q 3016 1369 3016 2328 
Q 3016 3291 2770 3770 
Q 2525 4250 2034 4250 
z
M 2034 4750 
Q 2819 4750 3233 4129 
Q 3647 3509 3647 2328 
Q 3647 1150 3233 529 
Q 2819 -91 2034 -91 
Q 1250 -91 836 529 
Q 422 1150 422 2328 
Q 422 3509 836 4129 
Q 1250 4750 2034 4750 
z
" transform="scale(0.015625)"/>
       </defs>
       <use xlink:href="#DejaVuSans-30"/>
      </g>
     </g>
    </g>
    <g id="xtick_2">
     <g id="line2d_2">
      <path d="M 228.756102 609.894375 
L 228.756102 54.554375 
" clip-path="url(#pbe5e8b0522)" style="fill: none; stroke: #cccccc; stroke-opacity: 0.3; stroke-width: 1.5; stroke-linecap: round"/>
     </g>
     <g id="text_2">
      <!-- 100 -->
      <g style="fill: #262626" transform="translate(198.216102 646.709375) scale(0.32 -0.32)">
       <defs>
        <path id="DejaVuSans-31" d="M 794 531 
L 1825 531 
L 1825 4091 
L 703 3866 
L 703 4441 
L 1819 4666 
L 2450 4666 
L 2450 531 
L 3481 531 
L 3481 0 
L 794 0 
L 794 531 
z
" transform="scale(0.015625)"/>
       </defs>
       <use xlink:href="#DejaVuSans-31"/>
       <use xlink:href="#DejaVuSans-30" transform="translate(63.623047 0)"/>
       <use xlink:href="#DejaVuSans-30" transform="translate(127.246094 0)"/>
      </g>
     </g>
    </g>
    <g id="xtick_3">
     <g id="line2d_3">
      <path d="M 339.35042 609.894375 
L 339.35042 54.554375 
" clip-path="url(#pbe5e8b0522)" style="fill: none; stroke: #cccccc; stroke-opacity: 0.3; stroke-width: 1.5; stroke-linecap: round"/>
     </g>
     <g id="text_3">
      <!-- 200 -->
      <g style="fill: #262626" transform="translate(308.81042 646.709375) scale(0.32 -0.32)">
       <defs>
        <path id="DejaVuSans-32" d="M 1228 531 
L 3431 531 
L 3431 0 
L 469 0 
L 469 531 
Q 828 903 1448 1529 
Q 2069 2156 2228 2338 
Q 2531 2678 2651 2914 
Q 2772 3150 2772 3378 
Q 2772 3750 2511 3984 
Q 2250 4219 1831 4219 
Q 1534 4219 1204 4116 
Q 875 4013 500 3803 
L 500 4441 
Q 881 4594 1212 4672 
Q 1544 4750 1819 4750 
Q 2544 4750 2975 4387 
Q 3406 4025 3406 3419 
Q 3406 3131 3298 2873 
Q 3191 2616 2906 2266 
Q 2828 2175 2409 1742 
Q 1991 1309 1228 531 
z
" transform="scale(0.015625)"/>
       </defs>
       <use xlink:href="#DejaVuSans-32"/>
       <use xlink:href="#DejaVuSans-30" transform="translate(63.623047 0)"/>
       <use xlink:href="#DejaVuSans-30" transform="translate(127.246094 0)"/>
      </g>
     </g>
    </g>
    <g id="xtick_4">
     <g id="line2d_4">
      <path d="M 449.944739 609.894375 
L 449.944739 54.554375 
" clip-path="url(#pbe5e8b0522)" style="fill: none; stroke: #cccccc; stroke-opacity: 0.3; stroke-width: 1.5; stroke-linecap: round"/>
     </g>
     <g id="text_4">
      <!-- 300 -->
      <g style="fill: #262626" transform="translate(419.404739 646.709375) scale(0.32 -0.32)">
       <defs>
        <path id="DejaVuSans-33" d="M 2597 2516 
Q 3050 2419 3304 2112 
Q 3559 1806 3559 1356 
Q 3559 666 3084 287 
Q 2609 -91 1734 -91 
Q 1441 -91 1130 -33 
Q 819 25 488 141 
L 488 750 
Q 750 597 1062 519 
Q 1375 441 1716 441 
Q 2309 441 2620 675 
Q 2931 909 2931 1356 
Q 2931 1769 2642 2001 
Q 2353 2234 1838 2234 
L 1294 2234 
L 1294 2753 
L 1863 2753 
Q 2328 2753 2575 2939 
Q 2822 3125 2822 3475 
Q 2822 3834 2567 4026 
Q 2313 4219 1838 4219 
Q 1578 4219 1281 4162 
Q 984 4106 628 3988 
L 628 4550 
Q 988 4650 1302 4700 
Q 1616 4750 1894 4750 
Q 2613 4750 3031 4423 
Q 3450 4097 3450 3541 
Q 3450 3153 3228 2886 
Q 3006 2619 2597 2516 
z
" transform="scale(0.015625)"/>
       </defs>
       <use xlink:href="#DejaVuSans-33"/>
       <use xlink:href="#DejaVuSans-30" transform="translate(63.623047 0)"/>
       <use xlink:href="#DejaVuSans-30" transform="translate(127.246094 0)"/>
      </g>
     </g>
    </g>
    <g id="xtick_5">
     <g id="line2d_5">
      <path d="M 560.539057 609.894375 
L 560.539057 54.554375 
" clip-path="url(#pbe5e8b0522)" style="fill: none; stroke: #cccccc; stroke-opacity: 0.3; stroke-width: 1.5; stroke-linecap: round"/>
     </g>
     <g id="text_5">
      <!-- 400 -->
      <g style="fill: #262626" transform="translate(529.999057 646.709375) scale(0.32 -0.32)">
       <defs>
        <path id="DejaVuSans-34" d="M 2419 4116 
L 825 1625 
L 2419 1625 
L 2419 4116 
z
M 2253 4666 
L 3047 4666 
L 3047 1625 
L 3713 1625 
L 3713 1100 
L 3047 1100 
L 3047 0 
L 2419 0 
L 2419 1100 
L 313 1100 
L 313 1709 
L 2253 4666 
z
" transform="scale(0.015625)"/>
       </defs>
       <use xlink:href="#DejaVuSans-34"/>
       <use xlink:href="#DejaVuSans-30" transform="translate(63.623047 0)"/>
       <use xlink:href="#DejaVuSans-30" transform="translate(127.246094 0)"/>
      </g>
     </g>
    </g>
    <g id="xtick_6">
     <g id="line2d_6">
      <path d="M 671.133375 609.894375 
L 671.133375 54.554375 
" clip-path="url(#pbe5e8b0522)" style="fill: none; stroke: #cccccc; stroke-opacity: 0.3; stroke-width: 1.5; stroke-linecap: round"/>
     </g>
     <g id="text_6">
      <!-- 500 -->
      <g style="fill: #262626" transform="translate(640.593375 646.709375) scale(0.32 -0.32)">
       <defs>
        <path id="DejaVuSans-35" d="M 691 4666 
L 3169 4666 
L 3169 4134 
L 1269 4134 
L 1269 2991 
Q 1406 3038 1543 3061 
Q 1681 3084 1819 3084 
Q 2600 3084 3056 2656 
Q 3513 2228 3513 1497 
Q 3513 744 3044 326 
Q 2575 -91 1722 -91 
Q 1428 -91 1123 -41 
Q 819 9 494 109 
L 494 744 
Q 775 591 1075 516 
Q 1375 441 1709 441 
Q 2250 441 2565 725 
Q 2881 1009 2881 1497 
Q 2881 1984 2565 2268 
Q 2250 2553 1709 2553 
Q 1456 2553 1204 2497 
Q 953 2441 691 2322 
L 691 4666 
z
" transform="scale(0.015625)"/>
       </defs>
       <use xlink:href="#DejaVuSans-35"/>
       <use xlink:href="#DejaVuSans-30" transform="translate(63.623047 0)"/>
       <use xlink:href="#DejaVuSans-30" transform="translate(127.246094 0)"/>
      </g>
     </g>
    </g>
    <g id="xtick_7">
     <g id="line2d_7">
      <path d="M 781.727693 609.894375 
L 781.727693 54.554375 
" clip-path="url(#pbe5e8b0522)" style="fill: none; stroke: #cccccc; stroke-opacity: 0.3; stroke-width: 1.5; stroke-linecap: round"/>
     </g>
     <g id="text_7">
      <!-- 600 -->
      <g style="fill: #262626" transform="translate(751.187693 646.709375) scale(0.32 -0.32)">
       <defs>
        <path id="DejaVuSans-36" d="M 2113 2584 
Q 1688 2584 1439 2293 
Q 1191 2003 1191 1497 
Q 1191 994 1439 701 
Q 1688 409 2113 409 
Q 2538 409 2786 701 
Q 3034 994 3034 1497 
Q 3034 2003 2786 2293 
Q 2538 2584 2113 2584 
z
M 3366 4563 
L 3366 3988 
Q 3128 4100 2886 4159 
Q 2644 4219 2406 4219 
Q 1781 4219 1451 3797 
Q 1122 3375 1075 2522 
Q 1259 2794 1537 2939 
Q 1816 3084 2150 3084 
Q 2853 3084 3261 2657 
Q 3669 2231 3669 1497 
Q 3669 778 3244 343 
Q 2819 -91 2113 -91 
Q 1303 -91 875 529 
Q 447 1150 447 2328 
Q 447 3434 972 4092 
Q 1497 4750 2381 4750 
Q 2619 4750 2861 4703 
Q 3103 4656 3366 4563 
z
" transform="scale(0.015625)"/>
       </defs>
       <use xlink:href="#DejaVuSans-36"/>
       <use xlink:href="#DejaVuSans-30" transform="translate(63.623047 0)"/>
       <use xlink:href="#DejaVuSans-30" transform="translate(127.246094 0)"/>
      </g>
     </g>
    </g>
    <g id="xtick_8">
     <g id="line2d_8">
      <path d="M 892.322011 609.894375 
L 892.322011 54.554375 
" clip-path="url(#pbe5e8b0522)" style="fill: none; stroke: #cccccc; stroke-opacity: 0.3; stroke-width: 1.5; stroke-linecap: round"/>
     </g>
     <g id="text_8">
      <!-- 700 -->
      <g style="fill: #262626" transform="translate(861.782011 646.709375) scale(0.32 -0.32)">
       <defs>
        <path id="DejaVuSans-37" d="M 525 4666 
L 3525 4666 
L 3525 4397 
L 1831 0 
L 1172 0 
L 2766 4134 
L 525 4134 
L 525 4666 
z
" transform="scale(0.015625)"/>
       </defs>
       <use xlink:href="#DejaVuSans-37"/>
       <use xlink:href="#DejaVuSans-30" transform="translate(63.623047 0)"/>
       <use xlink:href="#DejaVuSans-30" transform="translate(127.246094 0)"/>
      </g>
     </g>
    </g>
    <g id="xtick_9">
     <g id="line2d_9">
      <path d="M 1002.91633 609.894375 
L 1002.91633 54.554375 
" clip-path="url(#pbe5e8b0522)" style="fill: none; stroke: #cccccc; stroke-opacity: 0.3; stroke-width: 1.5; stroke-linecap: round"/>
     </g>
     <g id="text_9">
      <!-- 800 -->
      <g style="fill: #262626" transform="translate(972.37633 646.709375) scale(0.32 -0.32)">
       <defs>
        <path id="DejaVuSans-38" d="M 2034 2216 
Q 1584 2216 1326 1975 
Q 1069 1734 1069 1313 
Q 1069 891 1326 650 
Q 1584 409 2034 409 
Q 2484 409 2743 651 
Q 3003 894 3003 1313 
Q 3003 1734 2745 1975 
Q 2488 2216 2034 2216 
z
M 1403 2484 
Q 997 2584 770 2862 
Q 544 3141 544 3541 
Q 544 4100 942 4425 
Q 1341 4750 2034 4750 
Q 2731 4750 3128 4425 
Q 3525 4100 3525 3541 
Q 3525 3141 3298 2862 
Q 3072 2584 2669 2484 
Q 3125 2378 3379 2068 
Q 3634 1759 3634 1313 
Q 3634 634 3220 271 
Q 2806 -91 2034 -91 
Q 1263 -91 848 271 
Q 434 634 434 1313 
Q 434 1759 690 2068 
Q 947 2378 1403 2484 
z
M 1172 3481 
Q 1172 3119 1398 2916 
Q 1625 2713 2034 2713 
Q 2441 2713 2670 2916 
Q 2900 3119 2900 3481 
Q 2900 3844 2670 4047 
Q 2441 4250 2034 4250 
Q 1625 4250 1398 4047 
Q 1172 3844 1172 3481 
z
" transform="scale(0.015625)"/>
       </defs>
       <use xlink:href="#DejaVuSans-38"/>
       <use xlink:href="#DejaVuSans-30" transform="translate(63.623047 0)"/>
       <use xlink:href="#DejaVuSans-30" transform="translate(127.246094 0)"/>
      </g>
     </g>
    </g>
    <g id="text_10">
     <!-- Epoch -->
     <g style="fill: #262626" transform="translate(512.65 681.679375) scale(0.32 -0.32)">
      <defs>
       <path id="DejaVuSans-45" d="M 628 4666 
L 3578 4666 
L 3578 4134 
L 1259 4134 
L 1259 2753 
L 3481 2753 
L 3481 2222 
L 1259 2222 
L 1259 531 
L 3634 531 
L 3634 0 
L 628 0 
L 628 4666 
z
" transform="scale(0.015625)"/>
       <path id="DejaVuSans-70" d="M 1159 525 
L 1159 -1331 
L 581 -1331 
L 581 3500 
L 1159 3500 
L 1159 2969 
Q 1341 3281 1617 3432 
Q 1894 3584 2278 3584 
Q 2916 3584 3314 3078 
Q 3713 2572 3713 1747 
Q 3713 922 3314 415 
Q 2916 -91 2278 -91 
Q 1894 -91 1617 61 
Q 1341 213 1159 525 
z
M 3116 1747 
Q 3116 2381 2855 2742 
Q 2594 3103 2138 3103 
Q 1681 3103 1420 2742 
Q 1159 2381 1159 1747 
Q 1159 1113 1420 752 
Q 1681 391 2138 391 
Q 2594 391 2855 752 
Q 3116 1113 3116 1747 
z
" transform="scale(0.015625)"/>
       <path id="DejaVuSans-6f" d="M 1959 3097 
Q 1497 3097 1228 2736 
Q 959 2375 959 1747 
Q 959 1119 1226 758 
Q 1494 397 1959 397 
Q 2419 397 2687 759 
Q 2956 1122 2956 1747 
Q 2956 2369 2687 2733 
Q 2419 3097 1959 3097 
z
M 1959 3584 
Q 2709 3584 3137 3096 
Q 3566 2609 3566 1747 
Q 3566 888 3137 398 
Q 2709 -91 1959 -91 
Q 1206 -91 779 398 
Q 353 888 353 1747 
Q 353 2609 779 3096 
Q 1206 3584 1959 3584 
z
" transform="scale(0.015625)"/>
       <path id="DejaVuSans-63" d="M 3122 3366 
L 3122 2828 
Q 2878 2963 2633 3030 
Q 2388 3097 2138 3097 
Q 1578 3097 1268 2742 
Q 959 2388 959 1747 
Q 959 1106 1268 751 
Q 1578 397 2138 397 
Q 2388 397 2633 464 
Q 2878 531 3122 666 
L 3122 134 
Q 2881 22 2623 -34 
Q 2366 -91 2075 -91 
Q 1284 -91 818 406 
Q 353 903 353 1747 
Q 353 2603 823 3093 
Q 1294 3584 2113 3584 
Q 2378 3584 2631 3529 
Q 2884 3475 3122 3366 
z
" transform="scale(0.015625)"/>
       <path id="DejaVuSans-68" d="M 3513 2113 
L 3513 0 
L 2938 0 
L 2938 2094 
Q 2938 2591 2744 2837 
Q 2550 3084 2163 3084 
Q 1697 3084 1428 2787 
Q 1159 2491 1159 1978 
L 1159 0 
L 581 0 
L 581 4863 
L 1159 4863 
L 1159 2956 
Q 1366 3272 1645 3428 
Q 1925 3584 2291 3584 
Q 2894 3584 3203 3211 
Q 3513 2838 3513 2113 
z
" transform="scale(0.015625)"/>
      </defs>
      <use xlink:href="#DejaVuSans-45"/>
      <use xlink:href="#DejaVuSans-70" transform="translate(63.183594 0)"/>
      <use xlink:href="#DejaVuSans-6f" transform="translate(126.660156 0)"/>
      <use xlink:href="#DejaVuSans-63" transform="translate(187.841797 0)"/>
      <use xlink:href="#DejaVuSans-68" transform="translate(242.822266 0)"/>
     </g>
    </g>
   </g>
   <g id="matplotlib.axis_2">
    <g id="ytick_1">
     <g id="line2d_10">
      <path d="M 75.03 584.796819 
L 1048.26 584.796819 
" clip-path="url(#pbe5e8b0522)" style="fill: none; stroke: #cccccc; stroke-opacity: 0.3; stroke-width: 1.5; stroke-linecap: round"/>
     </g>
     <g id="text_11">
      <!-- 0 -->
      <g style="fill: #262626" transform="translate(42.17 596.954319) scale(0.32 -0.32)">
       <use xlink:href="#DejaVuSans-30"/>
      </g>
     </g>
    </g>
    <g id="ytick_2">
     <g id="line2d_11">
      <path d="M 75.03 486.950337 
L 1048.26 486.950337 
" clip-path="url(#pbe5e8b0522)" style="fill: none; stroke: #cccccc; stroke-opacity: 0.3; stroke-width: 1.5; stroke-linecap: round"/>
     </g>
     <g id="text_12">
      <!-- 1 -->
      <g style="fill: #262626" transform="translate(42.17 499.107837) scale(0.32 -0.32)">
       <use xlink:href="#DejaVuSans-31"/>
      </g>
     </g>
    </g>
    <g id="ytick_3">
     <g id="line2d_12">
      <path d="M 75.03 389.103854 
L 1048.26 389.103854 
" clip-path="url(#pbe5e8b0522)" style="fill: none; stroke: #cccccc; stroke-opacity: 0.3; stroke-width: 1.5; stroke-linecap: round"/>
     </g>
     <g id="text_13">
      <!-- 2 -->
      <g style="fill: #262626" transform="translate(42.17 401.261354) scale(0.32 -0.32)">
       <use xlink:href="#DejaVuSans-32"/>
      </g>
     </g>
    </g>
    <g id="ytick_4">
     <g id="line2d_13">
      <path d="M 75.03 291.257372 
L 1048.26 291.257372 
" clip-path="url(#pbe5e8b0522)" style="fill: none; stroke: #cccccc; stroke-opacity: 0.3; stroke-width: 1.5; stroke-linecap: round"/>
     </g>
     <g id="text_14">
      <!-- 3 -->
      <g style="fill: #262626" transform="translate(42.17 303.414872) scale(0.32 -0.32)">
       <use xlink:href="#DejaVuSans-33"/>
      </g>
     </g>
    </g>
    <g id="ytick_5">
     <g id="line2d_14">
      <path d="M 75.03 193.41089 
L 1048.26 193.41089 
" clip-path="url(#pbe5e8b0522)" style="fill: none; stroke: #cccccc; stroke-opacity: 0.3; stroke-width: 1.5; stroke-linecap: round"/>
     </g>
     <g id="text_15">
      <!-- 4 -->
      <g style="fill: #262626" transform="translate(42.17 205.56839) scale(0.32 -0.32)">
       <use xlink:href="#DejaVuSans-34"/>
      </g>
     </g>
    </g>
    <g id="ytick_6">
     <g id="line2d_15">
      <path d="M 75.03 95.564408 
L 1048.26 95.564408 
" clip-path="url(#pbe5e8b0522)" style="fill: none; stroke: #cccccc; stroke-opacity: 0.3; stroke-width: 1.5; stroke-linecap: round"/>
     </g>
     <g id="text_16">
      <!-- 5 -->
      <g style="fill: #262626" transform="translate(42.17 107.721908) scale(0.32 -0.32)">
       <use xlink:href="#DejaVuSans-35"/>
      </g>
     </g>
    </g>
    <g id="text_17">
     <!-- Loss -->
     <g style="fill: #262626" transform="translate(31.515 367.319375) rotate(-90) scale(0.32 -0.32)">
      <defs>
       <path id="DejaVuSans-4c" d="M 628 4666 
L 1259 4666 
L 1259 531 
L 3531 531 
L 3531 0 
L 628 0 
L 628 4666 
z
" transform="scale(0.015625)"/>
       <path id="DejaVuSans-73" d="M 2834 3397 
L 2834 2853 
Q 2591 2978 2328 3040 
Q 2066 3103 1784 3103 
Q 1356 3103 1142 2972 
Q 928 2841 928 2578 
Q 928 2378 1081 2264 
Q 1234 2150 1697 2047 
L 1894 2003 
Q 2506 1872 2764 1633 
Q 3022 1394 3022 966 
Q 3022 478 2636 193 
Q 2250 -91 1575 -91 
Q 1294 -91 989 -36 
Q 684 19 347 128 
L 347 722 
Q 666 556 975 473 
Q 1284 391 1588 391 
Q 1994 391 2212 530 
Q 2431 669 2431 922 
Q 2431 1156 2273 1281 
Q 2116 1406 1581 1522 
L 1381 1569 
Q 847 1681 609 1914 
Q 372 2147 372 2553 
Q 372 3047 722 3315 
Q 1072 3584 1716 3584 
Q 2034 3584 2315 3537 
Q 2597 3491 2834 3397 
z
" transform="scale(0.015625)"/>
      </defs>
      <use xlink:href="#DejaVuSans-4c"/>
      <use xlink:href="#DejaVuSans-6f" transform="translate(53.962891 0)"/>
      <use xlink:href="#DejaVuSans-73" transform="translate(115.144531 0)"/>
      <use xlink:href="#DejaVuSans-73" transform="translate(167.244141 0)"/>
     </g>
    </g>
   </g>
   <g id="FillBetweenPolyCollection_1"/>
   <g id="FillBetweenPolyCollection_2"/>
   <g id="line2d_16">
    <path d="M 119.267727 112.872508 
L 120.37367 119.597252 
L 121.479614 120.052949 
L 122.585557 120.725507 
L 123.6915 122.331296 
L 124.797443 124.809381 
L 125.903386 129.878273 
L 129.221216 158.228321 
L 130.327159 169.037917 
L 131.433102 178.449768 
L 132.539045 191.973533 
L 133.644989 202.766426 
L 134.750932 216.651478 
L 136.962818 249.085422 
L 139.174705 285.509833 
L 140.280648 309.005167 
L 141.386591 328.80185 
L 144.70442 393.567094 
L 146.916307 433.275015 
L 148.02225 451.129432 
L 149.128193 465.391716 
L 150.234136 477.5901 
L 151.34008 492.557666 
L 154.657909 521.727831 
L 156.869795 537.233041 
L 157.975739 542.594632 
L 159.081682 546.329349 
L 160.187625 550.480046 
L 161.293568 553.578302 
L 162.399511 557.149819 
L 163.505455 559.882344 
L 164.611398 562.302417 
L 166.823284 565.526219 
L 167.929227 566.347002 
L 169.03517 567.578194 
L 170.141114 568.159127 
L 171.247057 569.907258 
L 172.353 570.137981 
L 175.67083 572.913726 
L 176.776773 573.342674 
L 177.882716 573.122167 
L 180.094602 573.62197 
L 181.200545 574.500633 
L 182.306489 575.529277 
L 184.518375 576.648602 
L 185.624318 576.54764 
L 186.730261 576.216935 
L 187.836205 576.089422 
L 190.048091 577.112724 
L 191.154034 576.31308 
L 192.259977 576.987773 
L 193.36592 577.213089 
L 194.471864 577.590521 
L 195.577807 578.141944 
L 196.68375 578.334398 
L 197.789693 578.242614 
L 201.107523 578.599068 
L 202.213466 578.834165 
L 203.319409 578.829379 
L 204.425352 578.516111 
L 205.531295 578.411119 
L 206.637239 578.740961 
L 208.849125 578.946899 
L 212.166955 580.344541 
L 213.272898 580.263761 
L 215.484784 578.969621 
L 216.590727 578.709771 
L 217.69667 579.309024 
L 218.802614 578.413792 
L 219.908557 578.760566 
L 221.0145 578.413549 
L 222.120443 579.669751 
L 223.226386 579.7558 
L 224.33233 580.400709 
L 225.438273 580.007989 
L 226.544216 580.164481 
L 227.650159 580.072506 
L 228.756102 580.315024 
L 229.862045 581.026903 
L 230.967989 581.292482 
L 232.073932 581.119053 
L 233.179875 580.351535 
L 234.285818 580.864081 
L 235.391761 580.15797 
L 236.497705 579.838356 
L 239.815534 580.314383 
L 240.921477 580.213006 
L 242.02742 580.510926 
L 243.133364 581.220406 
L 244.239307 581.049665 
L 246.451193 581.226513 
L 247.557136 581.218302 
L 249.769023 580.660291 
L 250.874966 580.5911 
L 251.980909 580.745242 
L 253.086852 580.686923 
L 255.298739 580.84505 
L 256.404682 581.269266 
L 257.510625 581.470286 
L 258.616568 581.429906 
L 260.828455 581.761559 
L 263.040341 581.630585 
L 265.252227 581.621629 
L 266.35817 581.344998 
L 267.464114 581.682444 
L 268.570057 581.707013 
L 269.676 581.140373 
L 270.781943 581.816103 
L 271.887886 581.609158 
L 274.099773 582.099803 
L 275.205716 582.061356 
L 276.311659 581.764747 
L 277.417602 581.121165 
L 278.523545 581.394336 
L 279.629489 581.472884 
L 280.735432 581.812001 
L 281.841375 581.671361 
L 282.947318 582.017896 
L 284.053261 582.145193 
L 286.265148 581.749894 
L 288.477034 581.828832 
L 289.582977 581.974011 
L 290.68892 581.793887 
L 291.794864 582.059913 
L 294.00675 581.617872 
L 295.112693 581.89549 
L 296.218636 581.755793 
L 298.430523 582.471051 
L 299.536466 582.707874 
L 300.642409 582.097008 
L 301.748352 581.902877 
L 302.854295 581.93006 
L 303.960239 582.10497 
L 305.066182 582.160209 
L 306.172125 582.505602 
L 307.278068 582.176102 
L 308.384011 582.580493 
L 309.489955 582.113494 
L 310.595898 582.171242 
L 311.701841 582.078296 
L 312.807784 582.156122 
L 313.913727 581.988499 
L 315.01967 582.3917 
L 316.125614 581.806543 
L 317.231557 582.658851 
L 318.3375 582.334396 
L 319.443443 582.654403 
L 320.549386 582.372755 
L 321.65533 581.965943 
L 322.761273 582.441307 
L 323.867216 581.922993 
L 324.973159 582.68431 
L 326.079102 582.576184 
L 328.290989 582.579986 
L 329.396932 582.292191 
L 330.502875 582.497731 
L 331.608818 582.053909 
L 332.714761 582.512749 
L 333.820705 581.995324 
L 336.032591 582.085887 
L 337.138534 581.876692 
L 338.244477 582.432122 
L 339.35042 582.321138 
L 340.456364 582.621764 
L 341.562307 582.796173 
L 342.66825 582.688528 
L 343.774193 582.781256 
L 347.092023 582.406148 
L 348.197966 582.794029 
L 349.303909 582.805332 
L 350.409852 582.415833 
L 351.515795 582.592319 
L 352.621739 582.952336 
L 353.727682 582.877649 
L 354.833625 583.265504 
L 355.939568 583.307436 
L 358.151455 582.933103 
L 362.575227 582.27132 
L 363.68117 582.916914 
L 364.787114 582.480279 
L 365.893057 582.355081 
L 366.999 582.520153 
L 368.104943 582.866055 
L 369.210886 582.419587 
L 370.31683 582.548387 
L 371.422773 582.218852 
L 372.528716 582.86258 
L 373.634659 583.223232 
L 374.740602 583.133257 
L 375.846545 582.843876 
L 376.952489 582.677154 
L 378.058432 583.061092 
L 382.482205 583.182383 
L 383.588148 582.853569 
L 384.694091 583.039412 
L 385.800034 582.204205 
L 386.905977 582.643933 
L 388.01192 583.481578 
L 389.117864 582.819204 
L 390.223807 583.253197 
L 391.32975 583.369095 
L 392.435693 582.964398 
L 393.541636 582.967172 
L 394.64758 582.846883 
L 395.753523 583.070546 
L 397.965409 582.789921 
L 400.177295 582.719383 
L 401.283239 582.446765 
L 402.389182 582.560621 
L 403.495125 583.427062 
L 404.601068 583.239766 
L 406.812955 583.383556 
L 407.918898 583.060603 
L 410.130784 583.034295 
L 411.236727 582.902157 
L 412.34267 583.014551 
L 414.554557 583.088069 
L 415.6605 583.103837 
L 416.766443 582.805851 
L 418.97833 583.475358 
L 420.084273 583.623202 
L 421.190216 583.531463 
L 422.296159 583.320154 
L 424.508045 583.608485 
L 426.719932 583.682722 
L 427.825875 583.610375 
L 428.931818 583.362276 
L 430.037761 583.303924 
L 431.143705 583.053492 
L 432.249648 583.069581 
L 433.355591 583.249145 
L 435.567477 583.156097 
L 436.67342 583.435347 
L 437.779364 583.197179 
L 439.99125 583.059266 
L 441.097193 582.926677 
L 442.203136 583.555987 
L 443.30908 583.797502 
L 444.415023 583.491759 
L 445.520966 583.55678 
L 446.626909 583.26697 
L 447.732852 583.158241 
L 449.944739 583.404919 
L 452.156625 583.299216 
L 455.474455 583.710841 
L 456.580398 583.160608 
L 457.686341 583.252635 
L 458.792284 583.215934 
L 459.898227 583.457547 
L 463.216057 583.481748 
L 465.427943 583.48792 
L 466.533886 583.65284 
L 467.63983 583.198505 
L 469.851716 583.256543 
L 470.957659 583.534552 
L 472.063602 583.452996 
L 473.169545 583.82931 
L 474.275489 583.445978 
L 475.381432 583.566705 
L 476.487375 583.454189 
L 478.699261 583.660715 
L 479.805205 583.680113 
L 480.911148 583.119196 
L 482.017091 583.157732 
L 483.123034 583.310593 
L 485.33492 583.076812 
L 486.440864 583.534317 
L 487.546807 583.695367 
L 489.758693 583.714654 
L 490.864636 583.55438 
L 493.076523 583.649776 
L 494.182466 583.895991 
L 496.394352 583.801646 
L 497.500295 583.730834 
L 499.712182 583.243694 
L 500.818125 583.395417 
L 501.924068 582.823696 
L 503.030011 583.521311 
L 504.135955 583.799896 
L 505.241898 583.506768 
L 506.347841 583.421957 
L 507.453784 583.700295 
L 508.559727 583.778537 
L 509.66567 583.487602 
L 510.771614 583.379013 
L 511.877557 583.616982 
L 512.9835 583.522153 
L 514.089443 583.914099 
L 516.30133 583.74533 
L 517.407273 583.99387 
L 518.513216 583.976521 
L 519.619159 583.732444 
L 520.725102 583.674804 
L 521.831045 583.433491 
L 522.936989 583.450426 
L 524.042932 583.869392 
L 526.254818 583.564125 
L 527.360761 583.703138 
L 528.466705 583.279218 
L 529.572648 583.548752 
L 530.678591 583.389472 
L 531.784534 583.436354 
L 532.890477 583.264703 
L 533.99642 583.83251 
L 535.102364 583.85091 
L 536.208307 583.681003 
L 538.420193 583.973633 
L 539.526136 583.772981 
L 541.738023 583.99557 
L 542.843966 583.828802 
L 543.949909 583.983162 
L 546.161795 583.573944 
L 547.267739 583.696078 
L 548.373682 583.6042 
L 549.479625 583.987609 
L 550.585568 583.739354 
L 551.691511 584.138336 
L 552.797455 584.056179 
L 553.903398 583.615943 
L 555.009341 583.884739 
L 556.115284 583.659786 
L 557.221227 583.980998 
L 558.32717 583.606549 
L 559.433114 583.712941 
L 561.645 583.738133 
L 562.750943 583.997381 
L 563.856886 583.77781 
L 564.96283 584.080157 
L 566.068773 583.912519 
L 568.280659 584.097894 
L 569.386602 584.153443 
L 571.598489 583.823519 
L 572.704432 583.651125 
L 573.810375 584.015553 
L 574.916318 583.593939 
L 576.022261 583.965687 
L 577.128205 583.875771 
L 578.234148 584.050371 
L 579.340091 583.764899 
L 580.446034 583.983851 
L 581.551977 583.824682 
L 582.65792 583.539776 
L 583.763864 583.835144 
L 584.869807 583.840367 
L 585.97575 584.105425 
L 587.081693 584.033452 
L 588.187636 583.467654 
L 589.29358 583.966459 
L 590.399523 583.892608 
L 591.505466 584.1395 
L 592.611409 584.145892 
L 593.717352 583.878617 
L 595.929239 583.907636 
L 597.035182 583.514407 
L 598.141125 584.021061 
L 599.247068 583.822077 
L 600.353011 583.986551 
L 603.670841 583.860245 
L 604.776784 584.211238 
L 605.882727 584.219883 
L 606.98867 584.358342 
L 608.094614 584.169677 
L 609.200557 584.285568 
L 610.3065 583.762818 
L 611.412443 584.052558 
L 612.518386 584.118048 
L 613.62433 584.019194 
L 614.730273 583.769443 
L 615.836216 584.008181 
L 616.942159 583.488438 
L 618.048102 584.0074 
L 619.154045 583.809592 
L 620.259989 583.96088 
L 621.365932 583.73688 
L 622.471875 583.664584 
L 623.577818 584.067258 
L 625.789705 584.157967 
L 626.895648 584.161639 
L 628.001591 584.372769 
L 629.107534 584.093311 
L 630.213477 584.078848 
L 631.31942 584.188801 
L 632.425364 584.132442 
L 633.531307 584.285644 
L 634.63725 584.188469 
L 635.743193 583.899188 
L 636.849136 583.863783 
L 637.95508 583.698549 
L 639.061023 583.864989 
L 640.166966 584.178325 
L 641.272909 584.320448 
L 642.378852 584.153411 
L 643.484795 584.238678 
L 644.590739 584.043694 
L 645.696682 584.133909 
L 646.802625 583.713754 
L 647.908568 583.962932 
L 649.014511 583.592263 
L 650.120455 583.902032 
L 651.226398 584.072523 
L 653.438284 584.069859 
L 654.544227 584.214083 
L 655.65017 584.057227 
L 657.862057 584.274882 
L 658.968 584.247509 
L 660.073943 584.420224 
L 661.179886 584.26023 
L 662.28583 584.383792 
L 664.497716 583.993204 
L 665.603659 584.057193 
L 666.709602 583.843519 
L 667.815545 584.016822 
L 668.921489 584.047454 
L 670.027432 583.779795 
L 671.133375 584.225346 
L 672.239318 584.109086 
L 674.451205 584.2621 
L 676.663091 584.028703 
L 677.769034 584.251539 
L 678.874977 584.227477 
L 679.98092 584.446535 
L 681.086864 584.183412 
L 685.510636 584.18769 
L 686.61658 583.568218 
L 687.722523 583.983394 
L 689.934409 584.268082 
L 691.040352 583.961868 
L 692.146295 584.212566 
L 694.358182 584.145632 
L 695.464125 583.828344 
L 696.570068 584.17584 
L 697.676011 583.958223 
L 698.781955 584.2704 
L 699.887898 584.230024 
L 700.993841 584.501416 
L 702.099784 583.974196 
L 703.205727 584.289644 
L 704.31167 584.098498 
L 705.417614 584.284575 
L 706.523557 584.049316 
L 708.735443 584.201322 
L 709.841386 584.414645 
L 712.053273 584.306888 
L 717.582989 584.208107 
L 718.688932 584.134126 
L 719.794875 583.692461 
L 720.900818 584.246895 
L 722.006761 584.371583 
L 723.112705 584.252566 
L 726.430534 584.356993 
L 727.536477 584.564252 
L 729.748364 584.395491 
L 730.854307 584.566956 
L 735.27808 584.043244 
L 736.384023 583.957249 
L 737.489966 584.130328 
L 738.595909 584.101685 
L 740.807795 584.303176 
L 741.913739 584.121683 
L 743.019682 584.085253 
L 744.125625 583.818044 
L 745.231568 583.81823 
L 746.337511 583.935282 
L 747.443455 584.192803 
L 748.549398 584.148749 
L 749.655341 584.397827 
L 750.761284 584.474527 
L 751.867227 584.384304 
L 752.97317 584.529749 
L 754.079114 584.474143 
L 755.185057 584.28582 
L 756.291 584.257303 
L 757.396943 584.418023 
L 758.502886 584.218409 
L 759.60883 584.293306 
L 760.714773 584.092476 
L 762.926659 584.280291 
L 765.138545 584.252525 
L 766.244489 584.393484 
L 769.562318 584.515129 
L 770.668261 584.241094 
L 771.774205 584.329036 
L 772.880148 583.879812 
L 776.197977 584.231914 
L 777.30392 584.024047 
L 778.409864 584.214842 
L 779.515807 584.092555 
L 780.62175 584.351181 
L 781.727693 584.444278 
L 783.93958 584.107168 
L 785.045523 584.235239 
L 786.151466 584.23348 
L 788.363352 584.563801 
L 789.469295 584.491888 
L 790.575239 584.172491 
L 791.681182 584.60271 
L 793.893068 584.383649 
L 794.999011 584.527013 
L 796.104955 584.360506 
L 797.210898 583.906892 
L 798.316841 584.262986 
L 799.422784 584.363651 
L 801.63467 584.08861 
L 803.846557 584.177137 
L 804.9525 584.435678 
L 807.164386 584.414871 
L 808.27033 584.177807 
L 810.482216 584.050595 
L 811.588159 584.076505 
L 812.694102 584.34035 
L 814.905989 584.34627 
L 817.117875 584.400075 
L 818.223818 584.312542 
L 819.329761 584.567431 
L 821.541648 584.343539 
L 822.647591 584.442492 
L 823.753534 584.413087 
L 824.859477 584.248692 
L 825.96542 584.534422 
L 827.071364 584.494852 
L 828.177307 584.125248 
L 830.389193 584.500393 
L 831.495136 584.345425 
L 833.707023 584.542769 
L 834.812966 584.428625 
L 835.918909 584.504715 
L 839.236739 584.160596 
L 840.342682 584.290426 
L 841.448625 584.550643 
L 842.554568 584.262421 
L 844.766455 584.354299 
L 845.872398 584.118105 
L 848.084284 584.487702 
L 849.190227 584.334361 
L 850.29617 584.49688 
L 851.402114 584.448564 
L 854.719943 584.572557 
L 855.825886 584.547889 
L 856.93183 584.325313 
L 859.143716 584.499157 
L 861.355602 584.35601 
L 865.779375 584.516494 
L 866.885318 584.38636 
L 869.097205 584.500281 
L 870.203148 584.527035 
L 871.309091 584.129865 
L 872.415034 584.488611 
L 873.520977 584.250982 
L 874.62692 584.32876 
L 875.732864 584.10614 
L 879.050693 584.472504 
L 881.26258 584.530088 
L 882.368523 584.278076 
L 883.474466 584.599474 
L 885.686352 584.418577 
L 886.792295 584.593065 
L 887.898239 584.472179 
L 889.004182 584.156817 
L 890.110125 584.256845 
L 891.216068 584.016589 
L 892.322011 584.281898 
L 895.639841 584.58215 
L 896.745784 584.584426 
L 897.851727 584.422471 
L 900.063614 584.592089 
L 902.2755 584.379183 
L 903.381443 584.525845 
L 904.487386 584.334314 
L 906.699273 584.154756 
L 907.805216 584.421338 
L 908.911159 584.34736 
L 910.017102 584.121149 
L 912.228989 584.495924 
L 913.334932 584.414591 
L 914.440875 584.191407 
L 915.546818 584.406654 
L 917.758705 584.502006 
L 918.864648 584.290008 
L 919.970591 584.447083 
L 922.182477 584.322568 
L 927.712193 584.563173 
L 932.135966 584.431869 
L 933.241909 584.586739 
L 936.559739 584.501035 
L 937.665682 584.047391 
L 938.771625 584.290548 
L 939.877568 584.371791 
L 940.983511 584.131266 
L 944.301341 584.584163 
L 946.513227 584.327988 
L 947.61917 584.325419 
L 948.725114 584.464396 
L 954.25483 584.263078 
L 955.360773 584.429665 
L 959.784545 584.651648 
L 961.996432 584.542797 
L 968.632091 584.581442 
L 969.738034 584.079936 
L 970.843977 584.49782 
L 971.94992 584.453472 
L 973.055864 584.114023 
L 980.797466 584.558865 
L 981.903409 584.36528 
L 985.221239 584.589599 
L 986.327182 584.546886 
L 987.433125 584.651476 
L 989.645011 584.435218 
L 990.750955 584.557957 
L 991.856898 583.947453 
L 995.174727 584.545205 
L 996.28067 584.464804 
L 999.5985 584.624694 
L 1000.704443 584.432953 
L 1001.810386 584.614126 
L 1002.91633 584.422103 
L 1004.022273 584.600779 
L 1004.022273 584.600779 
" clip-path="url(#pbe5e8b0522)" style="fill: none; stroke: #4c72b0; stroke-width: 6; stroke-linecap: round"/>
   </g>
   <g id="line2d_17">
    <path d="M 119.267727 118.152336 
L 120.37367 119.093451 
L 121.479614 119.206874 
L 122.585557 118.562776 
L 123.6915 117.372094 
L 124.797443 104.917797 
L 125.903386 98.388966 
L 127.00933 87.54587 
L 128.115273 83.463677 
L 130.327159 79.797102 
L 131.433102 79.943465 
L 132.539045 81.809318 
L 133.644989 84.209953 
L 134.750932 87.133097 
L 135.856875 90.782548 
L 136.962818 96.508462 
L 138.068761 103.058942 
L 139.174705 112.916366 
L 140.280648 125.376494 
L 141.386591 140.568941 
L 142.492534 151.607342 
L 144.70442 181.054713 
L 145.810364 199.183041 
L 146.916307 213.969199 
L 148.02225 225.161708 
L 149.128193 232.59076 
L 150.234136 241.726939 
L 151.34008 248.942722 
L 152.446023 251.478055 
L 153.551966 253.231932 
L 154.657909 255.843619 
L 155.763852 253.397984 
L 156.869795 255.291528 
L 159.081682 251.577574 
L 160.187625 251.225221 
L 161.293568 246.749688 
L 162.399511 243.721985 
L 163.505455 241.128238 
L 165.717341 237.511913 
L 166.823284 233.12771 
L 167.929227 232.245453 
L 171.247057 224.340151 
L 172.353 223.851771 
L 173.458943 216.255758 
L 174.564886 217.346548 
L 175.67083 217.451619 
L 176.776773 214.61563 
L 177.882716 212.584028 
L 178.988659 214.587892 
L 181.200545 207.168312 
L 182.306489 205.656397 
L 183.412432 201.119486 
L 184.518375 203.713536 
L 185.624318 201.737433 
L 186.730261 198.967439 
L 187.836205 201.819945 
L 188.942148 194.861054 
L 190.048091 197.599461 
L 191.154034 195.663529 
L 192.259977 195.722083 
L 193.36592 194.389797 
L 194.471864 195.114564 
L 195.577807 197.983073 
L 196.68375 194.922105 
L 197.789693 195.738786 
L 198.895636 191.289357 
L 200.00158 192.899298 
L 201.107523 186.675649 
L 202.213466 187.775957 
L 203.319409 185.176891 
L 204.425352 189.567859 
L 205.531295 189.748795 
L 206.637239 181.957336 
L 207.743182 191.806454 
L 208.849125 190.568975 
L 209.955068 188.850044 
L 211.061011 188.685065 
L 212.166955 184.014483 
L 213.272898 190.741699 
L 214.378841 189.65842 
L 215.484784 191.82591 
L 216.590727 190.630422 
L 217.69667 191.996488 
L 218.802614 194.626231 
L 219.908557 192.945768 
L 221.0145 193.417002 
L 222.120443 189.891518 
L 223.226386 186.88901 
L 224.33233 187.728647 
L 225.438273 195.45257 
L 226.544216 189.209068 
L 227.650159 194.815611 
L 228.756102 197.642082 
L 229.862045 200.86215 
L 230.967989 192.99723 
L 232.073932 188.224189 
L 233.179875 191.575037 
L 234.285818 187.09486 
L 235.391761 188.510522 
L 236.497705 187.400556 
L 237.603648 190.502489 
L 238.709591 195.403603 
L 239.815534 196.358249 
L 240.921477 195.504639 
L 242.02742 195.509678 
L 243.133364 195.014159 
L 244.239307 195.338494 
L 245.34525 193.47502 
L 246.451193 194.66218 
L 247.557136 196.356429 
L 248.66308 196.505335 
L 249.769023 199.100131 
L 250.874966 199.119634 
L 251.980909 201.60544 
L 253.086852 202.96971 
L 254.192795 202.454245 
L 255.298739 205.275747 
L 256.404682 203.940382 
L 257.510625 204.505583 
L 258.616568 201.93717 
L 259.722511 203.135061 
L 260.828455 200.684388 
L 261.934398 204.032226 
L 263.040341 209.286416 
L 264.146284 208.537037 
L 265.252227 206.168736 
L 266.35817 208.929398 
L 267.464114 210.875968 
L 268.570057 205.603861 
L 269.676 210.146068 
L 270.781943 208.633523 
L 271.887886 208.245408 
L 272.99383 215.394822 
L 274.099773 215.979946 
L 275.205716 212.551158 
L 276.311659 215.223802 
L 277.417602 205.890194 
L 278.523545 213.338562 
L 279.629489 215.684048 
L 280.735432 218.921053 
L 281.841375 225.358763 
L 282.947318 222.624953 
L 285.159205 233.572443 
L 286.265148 231.422333 
L 287.371091 237.983894 
L 288.477034 233.377838 
L 289.582977 230.770513 
L 290.68892 221.961866 
L 291.794864 225.483897 
L 292.900807 225.343413 
L 294.00675 224.9019 
L 295.112693 226.251589 
L 296.218636 227.36811 
L 297.32458 232.609329 
L 298.430523 240.147138 
L 299.536466 243.015834 
L 300.642409 237.075555 
L 301.748352 238.220468 
L 302.854295 234.669579 
L 303.960239 244.597594 
L 305.066182 241.347432 
L 306.172125 242.604787 
L 307.278068 240.743926 
L 308.384011 239.977844 
L 309.489955 239.349936 
L 310.595898 234.021749 
L 311.701841 236.670271 
L 312.807784 242.286728 
L 313.913727 245.554246 
L 315.01967 245.805353 
L 316.125614 243.65018 
L 317.231557 245.908068 
L 318.3375 247.876497 
L 320.549386 245.848977 
L 321.65533 246.378556 
L 322.761273 246.332272 
L 323.867216 248.658675 
L 324.973159 258.558977 
L 326.079102 259.000747 
L 327.185045 258.825037 
L 328.290989 258.409908 
L 329.396932 264.893482 
L 330.502875 262.785386 
L 331.608818 253.147996 
L 332.714761 247.476671 
L 333.820705 257.153556 
L 334.926648 264.11184 
L 336.032591 265.388395 
L 337.138534 270.199135 
L 338.244477 274.342565 
L 339.35042 271.696119 
L 340.456364 273.357173 
L 341.562307 263.854131 
L 342.66825 271.524772 
L 343.774193 268.210037 
L 344.880136 275.511132 
L 345.98608 276.941304 
L 347.092023 279.027892 
L 348.197966 282.959873 
L 349.303909 284.367977 
L 350.409852 280.242672 
L 351.515795 281.276565 
L 352.621739 283.608193 
L 353.727682 277.837349 
L 354.833625 286.857586 
L 355.939568 292.093229 
L 357.045511 289.639616 
L 358.151455 289.713077 
L 359.257398 290.316654 
L 360.363341 287.531124 
L 361.469284 291.723847 
L 362.575227 302.13665 
L 363.68117 299.409185 
L 364.787114 295.457444 
L 365.893057 298.085111 
L 366.999 297.914067 
L 368.104943 294.810967 
L 369.210886 296.078727 
L 370.31683 295.957442 
L 371.422773 303.808248 
L 372.528716 301.876305 
L 373.634659 305.123271 
L 374.740602 305.424558 
L 375.846545 309.393888 
L 376.952489 309.729094 
L 378.058432 310.939466 
L 379.164375 316.136898 
L 380.270318 317.257712 
L 381.376261 310.960952 
L 382.482205 308.861021 
L 383.588148 315.41472 
L 384.694091 318.532493 
L 385.800034 313.684661 
L 386.905977 321.598781 
L 388.01192 321.457551 
L 389.117864 322.932257 
L 390.223807 322.324901 
L 391.32975 326.263485 
L 392.435693 327.113013 
L 394.64758 319.395715 
L 395.753523 318.910624 
L 396.859466 323.752111 
L 397.965409 330.696538 
L 399.071352 333.932539 
L 400.177295 332.019772 
L 401.283239 332.509412 
L 402.389182 334.543861 
L 403.495125 342.466495 
L 404.601068 345.73231 
L 405.707011 343.761829 
L 406.812955 341.074815 
L 407.918898 343.269553 
L 409.024841 342.702649 
L 410.130784 344.737773 
L 411.236727 339.528747 
L 412.34267 345.067474 
L 413.448614 345.272461 
L 414.554557 347.201511 
L 416.766443 354.377006 
L 417.872386 365.260997 
L 418.97833 364.507769 
L 420.084273 364.867703 
L 421.190216 360.972394 
L 422.296159 358.876848 
L 423.402102 363.264831 
L 424.508045 368.750555 
L 425.613989 368.973388 
L 426.719932 371.739229 
L 427.825875 372.654216 
L 428.931818 376.480054 
L 431.143705 372.428 
L 432.249648 364.018432 
L 433.355591 368.107857 
L 434.461534 378.799388 
L 435.567477 376.346848 
L 436.67342 377.616218 
L 437.779364 383.779889 
L 438.885307 382.380161 
L 439.99125 386.51321 
L 441.097193 389.499038 
L 442.203136 388.666213 
L 443.30908 394.57767 
L 444.415023 394.636317 
L 445.520966 389.301306 
L 446.626909 394.801028 
L 447.732852 396.02171 
L 448.838795 395.353934 
L 449.944739 399.658553 
L 451.050682 395.667107 
L 452.156625 392.881285 
L 453.262568 404.902478 
L 454.368511 407.85455 
L 455.474455 407.286001 
L 456.580398 411.23724 
L 457.686341 410.026449 
L 458.792284 412.994325 
L 459.898227 415.333431 
L 461.00417 414.374493 
L 462.110114 414.634278 
L 463.216057 415.347824 
L 464.322 414.735803 
L 465.427943 415.460151 
L 466.533886 419.434625 
L 467.63983 418.778793 
L 468.745773 411.927738 
L 469.851716 417.580891 
L 470.957659 424.142697 
L 472.063602 432.182708 
L 473.169545 428.339806 
L 474.275489 431.863109 
L 475.381432 428.836853 
L 476.487375 428.7706 
L 477.593318 429.295583 
L 478.699261 429.331066 
L 479.805205 427.154792 
L 480.911148 432.852036 
L 482.017091 429.892966 
L 483.123034 433.286504 
L 484.228977 433.12282 
L 485.33492 438.284256 
L 486.440864 444.081765 
L 487.546807 446.596102 
L 488.65275 449.916319 
L 489.758693 446.255181 
L 490.864636 443.825852 
L 491.97058 448.290212 
L 493.076523 444.971989 
L 494.182466 447.988797 
L 495.288409 446.530491 
L 496.394352 450.149709 
L 497.500295 451.056018 
L 498.606239 449.360322 
L 499.712182 446.661223 
L 500.818125 448.226245 
L 501.924068 452.078561 
L 505.241898 458.171734 
L 506.347841 465.030522 
L 507.453784 467.479738 
L 508.559727 462.365694 
L 509.66567 468.087397 
L 510.771614 468.867067 
L 511.877557 471.561313 
L 512.9835 476.492673 
L 514.089443 471.666454 
L 515.195386 474.209182 
L 516.30133 475.207394 
L 517.407273 474.400009 
L 518.513216 476.524178 
L 519.619159 480.708258 
L 520.725102 474.587557 
L 521.831045 472.810445 
L 522.936989 473.961341 
L 524.042932 476.605956 
L 525.148875 480.245107 
L 526.254818 482.80651 
L 527.360761 483.326558 
L 528.466705 486.207443 
L 529.572648 486.414133 
L 530.678591 490.389552 
L 531.784534 486.517559 
L 532.890477 490.214443 
L 533.99642 485.807559 
L 535.102364 493.96647 
L 537.31425 500.158328 
L 538.420193 497.440981 
L 539.526136 499.177362 
L 540.63208 503.719224 
L 541.738023 502.39252 
L 542.843966 505.446408 
L 543.949909 507.060921 
L 545.055852 503.994097 
L 546.161795 501.817037 
L 547.267739 505.746954 
L 548.373682 506.109962 
L 549.479625 508.876082 
L 550.585568 510.77715 
L 551.691511 512.356729 
L 552.797455 515.863358 
L 553.903398 514.52216 
L 555.009341 510.115614 
L 556.115284 509.634804 
L 557.221227 518.342166 
L 558.32717 518.408004 
L 559.433114 513.87629 
L 560.539057 515.084323 
L 561.645 522.974449 
L 562.750943 520.967196 
L 563.856886 524.180085 
L 564.96283 521.93259 
L 566.068773 523.872074 
L 567.174716 523.808883 
L 568.280659 524.942079 
L 569.386602 523.78233 
L 570.492545 521.515221 
L 571.598489 522.596488 
L 572.704432 522.126333 
L 573.810375 521.508555 
L 574.916318 524.891584 
L 576.022261 527.593476 
L 577.128205 531.108048 
L 578.234148 531.95112 
L 579.340091 533.313039 
L 580.446034 531.490104 
L 581.551977 531.948571 
L 582.65792 533.460818 
L 583.763864 533.229669 
L 584.869807 535.949614 
L 585.97575 536.415374 
L 587.081693 535.692298 
L 588.187636 536.868383 
L 589.29358 534.881426 
L 590.399523 537.601972 
L 591.505466 544.179696 
L 592.611409 544.379408 
L 593.717352 543.292047 
L 594.823295 542.009678 
L 595.929239 542.258032 
L 597.035182 539.051947 
L 599.247068 545.061079 
L 600.353011 544.202955 
L 601.458955 543.55278 
L 603.670841 544.624552 
L 604.776784 544.084423 
L 605.882727 543.787936 
L 606.98867 544.318556 
L 608.094614 547.107005 
L 609.200557 543.380538 
L 610.3065 545.329578 
L 612.518386 547.459066 
L 613.62433 547.970101 
L 614.730273 549.254954 
L 615.836216 549.106207 
L 616.942159 551.629271 
L 618.048102 549.446799 
L 619.154045 550.826418 
L 620.259989 548.44754 
L 621.365932 551.506949 
L 622.471875 552.597404 
L 623.577818 551.777725 
L 624.683761 551.663354 
L 625.789705 555.042753 
L 626.895648 556.098542 
L 628.001591 556.749795 
L 629.107534 554.911571 
L 630.213477 554.243302 
L 632.425364 556.435028 
L 633.531307 553.430771 
L 634.63725 553.806084 
L 635.743193 554.836836 
L 636.849136 553.842135 
L 637.95508 554.69779 
L 639.061023 555.139303 
L 640.166966 557.090029 
L 641.272909 559.943024 
L 642.378852 560.644425 
L 643.484795 558.545083 
L 646.802625 557.342786 
L 647.908568 555.607163 
L 649.014511 554.406301 
L 650.120455 553.379361 
L 651.226398 556.432683 
L 652.332341 560.466473 
L 653.438284 561.486699 
L 654.544227 561.735115 
L 655.65017 560.374725 
L 656.756114 561.116798 
L 657.862057 560.976908 
L 658.968 563.809001 
L 660.073943 565.05567 
L 661.179886 565.259027 
L 662.28583 564.030316 
L 663.391773 565.85353 
L 664.497716 565.086064 
L 665.603659 565.904016 
L 666.709602 564.310772 
L 667.815545 564.16703 
L 668.921489 564.137763 
L 670.027432 567.793848 
L 671.133375 566.626011 
L 672.239318 567.720215 
L 673.345261 568.644218 
L 674.451205 567.542171 
L 675.557148 568.538303 
L 676.663091 567.85231 
L 677.769034 569.790221 
L 678.874977 571.36875 
L 679.98092 568.386734 
L 681.086864 568.944097 
L 682.192807 569.950734 
L 683.29875 569.991145 
L 684.404693 570.801739 
L 685.510636 569.577654 
L 686.61658 569.82028 
L 687.722523 568.084621 
L 688.828466 568.92017 
L 689.934409 569.23647 
L 691.040352 569.264091 
L 692.146295 570.583124 
L 693.252239 569.4715 
L 694.358182 569.289574 
L 695.464125 568.722074 
L 696.570068 567.719907 
L 697.676011 569.056356 
L 698.781955 571.351151 
L 699.887898 572.932537 
L 700.993841 573.96687 
L 702.099784 572.88842 
L 703.205727 571.449662 
L 704.31167 572.332643 
L 705.417614 569.653861 
L 706.523557 572.123718 
L 707.6295 572.611276 
L 708.735443 572.69372 
L 709.841386 572.559646 
L 710.94733 572.095581 
L 712.053273 573.240002 
L 713.159216 571.892873 
L 714.265159 573.612242 
L 715.371102 574.403351 
L 716.477045 574.438081 
L 717.582989 573.565759 
L 719.794875 575.679711 
L 720.900818 576.095704 
L 722.006761 575.830524 
L 724.218648 576.161522 
L 725.324591 575.228776 
L 726.430534 576.712655 
L 727.536477 576.743833 
L 728.64242 575.810621 
L 729.748364 577.044297 
L 730.854307 577.047937 
L 733.066193 576.742348 
L 734.172136 573.939366 
L 735.27808 573.976815 
L 736.384023 573.82028 
L 738.595909 576.051128 
L 739.701852 576.513627 
L 740.807795 576.533248 
L 741.913739 576.273669 
L 743.019682 576.933507 
L 744.125625 576.780928 
L 745.231568 577.625378 
L 746.337511 576.619624 
L 747.443455 576.539166 
L 748.549398 577.042611 
L 749.655341 577.731914 
L 750.761284 577.229155 
L 751.867227 578.0092 
L 752.97317 577.996837 
L 754.079114 579.042254 
L 755.185057 578.699131 
L 757.396943 578.415018 
L 758.502886 578.000478 
L 759.60883 578.50838 
L 760.714773 579.455894 
L 761.820716 578.365661 
L 762.926659 577.81303 
L 764.032602 576.89391 
L 765.138545 576.881723 
L 766.244489 578.263099 
L 767.350432 578.449268 
L 768.456375 578.919786 
L 769.562318 579.188534 
L 770.668261 580.455715 
L 771.774205 579.369359 
L 772.880148 579.388285 
L 773.986091 578.678599 
L 775.092034 579.754504 
L 776.197977 579.870164 
L 777.30392 578.988051 
L 778.409864 579.819252 
L 779.515807 580.246716 
L 780.62175 579.143628 
L 781.727693 579.646977 
L 782.833636 580.727563 
L 783.93958 580.564541 
L 785.045523 579.642856 
L 786.151466 579.638384 
L 787.257409 580.106067 
L 788.363352 580.288985 
L 789.469295 580.609837 
L 790.575239 580.256236 
L 791.681182 580.425989 
L 792.787125 581.081663 
L 793.893068 581.151917 
L 796.104955 579.452897 
L 797.210898 579.644381 
L 798.316841 580.300162 
L 799.422784 580.04091 
L 801.63467 580.384488 
L 802.740614 578.863827 
L 803.846557 580.220754 
L 804.9525 581.316979 
L 806.058443 581.48212 
L 807.164386 580.765727 
L 808.27033 581.273242 
L 809.376273 580.417921 
L 810.482216 580.13191 
L 811.588159 580.711323 
L 813.800045 581.585483 
L 814.905989 581.666062 
L 817.117875 582.29311 
L 818.223818 582.350796 
L 819.329761 580.938459 
L 820.435705 581.774332 
L 821.541648 582.043313 
L 822.647591 582.118008 
L 824.859477 580.948686 
L 825.96542 581.267814 
L 827.071364 581.395375 
L 828.177307 581.098865 
L 829.28325 581.103852 
L 830.389193 581.542616 
L 832.60108 581.8149 
L 833.707023 582.134117 
L 834.812966 582.329125 
L 835.918909 582.256146 
L 838.130795 581.36426 
L 840.342682 582.200883 
L 841.448625 582.235396 
L 842.554568 581.972697 
L 843.660511 581.429377 
L 844.766455 581.424858 
L 845.872398 582.168871 
L 846.978341 581.6865 
L 848.084284 581.778825 
L 849.190227 582.321943 
L 850.29617 582.066955 
L 852.508057 582.888409 
L 853.614 582.444682 
L 854.719943 582.450707 
L 856.93183 582.932682 
L 859.143716 583.439053 
L 860.249659 583.194951 
L 861.355602 583.289486 
L 862.461545 583.213932 
L 863.567489 582.718291 
L 864.673432 583.125873 
L 865.779375 583.064743 
L 866.885318 582.036316 
L 867.991261 581.738532 
L 869.097205 582.282123 
L 870.203148 582.180182 
L 871.309091 582.453902 
L 873.520977 581.72467 
L 874.62692 581.376282 
L 875.732864 581.983376 
L 876.838807 582.020559 
L 877.94475 582.4977 
L 879.050693 582.812425 
L 880.156636 583.427215 
L 881.26258 583.427743 
L 882.368523 583.098123 
L 883.474466 583.3213 
L 884.580409 583.139846 
L 885.686352 583.458862 
L 886.792295 582.762567 
L 887.898239 582.708465 
L 889.004182 582.889642 
L 890.110125 583.351081 
L 891.216068 583.304064 
L 892.322011 582.801097 
L 893.427955 583.233943 
L 895.639841 583.40817 
L 896.745784 583.26046 
L 897.851727 582.90397 
L 898.95767 583.277964 
L 901.169557 583.527787 
L 902.2755 583.740471 
L 903.381443 583.55096 
L 904.487386 582.486956 
L 905.59333 582.915796 
L 906.699273 582.917164 
L 907.805216 582.30626 
L 908.911159 582.788412 
L 910.017102 582.651011 
L 911.123045 582.236557 
L 912.228989 582.757908 
L 913.334932 583.564846 
L 914.440875 582.797256 
L 915.546818 583.637318 
L 916.652761 583.697267 
L 917.758705 582.772666 
L 918.864648 583.23143 
L 921.076534 583.63479 
L 923.28842 583.863055 
L 924.394364 583.871745 
L 925.500307 584.186234 
L 927.712193 584.051093 
L 928.818136 583.779433 
L 929.92408 583.838454 
L 931.030023 583.373421 
L 932.135966 583.349053 
L 934.347852 583.575729 
L 935.453795 583.261567 
L 936.559739 583.139198 
L 937.665682 583.334323 
L 938.771625 582.883206 
L 940.983511 583.582506 
L 942.089455 583.240433 
L 943.195398 583.92322 
L 944.301341 583.621247 
L 945.407284 583.817033 
L 947.61917 583.840006 
L 948.725114 583.739917 
L 949.831057 583.762765 
L 952.042943 583.25187 
L 953.148886 583.310242 
L 954.25483 583.799384 
L 956.466716 584.05001 
L 957.572659 583.785227 
L 961.996432 584.169212 
L 963.102375 583.799595 
L 964.208318 583.949118 
L 965.314261 583.936056 
L 967.526148 583.440341 
L 968.632091 583.483402 
L 969.738034 583.936681 
L 970.843977 584.094488 
L 971.94992 583.731405 
L 973.055864 583.656432 
L 974.161807 583.36778 
L 975.26775 583.567729 
L 976.373693 583.940147 
L 977.479636 583.983267 
L 978.58558 583.826321 
L 979.691523 583.932371 
L 980.797466 583.752216 
L 981.903409 583.366318 
L 983.009352 583.967569 
L 984.115295 584.265182 
L 985.221239 584.269422 
L 986.327182 584.137055 
L 987.433125 583.85208 
L 989.645011 583.969411 
L 990.750955 583.73139 
L 991.856898 584.022289 
L 992.962841 583.818846 
L 995.174727 583.974671 
L 996.28067 583.857215 
L 997.386614 584.015548 
L 998.492557 583.864211 
L 1000.704443 584.080614 
L 1004.022273 583.972156 
L 1004.022273 583.972156 
" clip-path="url(#pbe5e8b0522)" style="fill: none; stroke: #dd8452; stroke-width: 6; stroke-linecap: round"/>
   </g>
   <g id="line2d_18"/>
   <g id="line2d_19"/>
   <g id="patch_3">
    <path d="M 75.03 609.894375 
L 75.03 54.554375 
" style="fill: none; stroke: #cccccc; stroke-width: 1.875; stroke-linejoin: miter; stroke-linecap: square"/>
   </g>
   <g id="patch_4">
    <path d="M 1048.26 609.894375 
L 1048.26 54.554375 
" style="fill: none; stroke: #cccccc; stroke-width: 1.875; stroke-linejoin: miter; stroke-linecap: square"/>
   </g>
   <g id="patch_5">
    <path d="M 75.03 609.894375 
L 1048.26 609.894375 
" style="fill: none; stroke: #cccccc; stroke-width: 1.875; stroke-linejoin: miter; stroke-linecap: square"/>
   </g>
   <g id="patch_6">
    <path d="M 75.03 54.554375 
L 1048.26 54.554375 
" style="fill: none; stroke: #cccccc; stroke-width: 1.875; stroke-linejoin: miter; stroke-linecap: square"/>
   </g>
   <g id="text_18">
    <!-- Training Progress: Loss -->
    <g style="fill: #262626" transform="translate(324.646875 34.554375) scale(0.36 -0.36)">
     <defs>
      <path id="DejaVuSans-Bold-54" d="M 31 4666 
L 4331 4666 
L 4331 3756 
L 2784 3756 
L 2784 0 
L 1581 0 
L 1581 3756 
L 31 3756 
L 31 4666 
z
" transform="scale(0.015625)"/>
      <path id="DejaVuSans-Bold-72" d="M 3138 2547 
Q 2991 2616 2845 2648 
Q 2700 2681 2553 2681 
Q 2122 2681 1889 2404 
Q 1656 2128 1656 1613 
L 1656 0 
L 538 0 
L 538 3500 
L 1656 3500 
L 1656 2925 
Q 1872 3269 2151 3426 
Q 2431 3584 2822 3584 
Q 2878 3584 2943 3579 
Q 3009 3575 3134 3559 
L 3138 2547 
z
" transform="scale(0.015625)"/>
      <path id="DejaVuSans-Bold-61" d="M 2106 1575 
Q 1756 1575 1579 1456 
Q 1403 1338 1403 1106 
Q 1403 894 1545 773 
Q 1688 653 1941 653 
Q 2256 653 2472 879 
Q 2688 1106 2688 1447 
L 2688 1575 
L 2106 1575 
z
M 3816 1997 
L 3816 0 
L 2688 0 
L 2688 519 
Q 2463 200 2181 54 
Q 1900 -91 1497 -91 
Q 953 -91 614 226 
Q 275 544 275 1050 
Q 275 1666 698 1953 
Q 1122 2241 2028 2241 
L 2688 2241 
L 2688 2328 
Q 2688 2594 2478 2717 
Q 2269 2841 1825 2841 
Q 1466 2841 1156 2769 
Q 847 2697 581 2553 
L 581 3406 
Q 941 3494 1303 3539 
Q 1666 3584 2028 3584 
Q 2975 3584 3395 3211 
Q 3816 2838 3816 1997 
z
" transform="scale(0.015625)"/>
      <path id="DejaVuSans-Bold-69" d="M 538 3500 
L 1656 3500 
L 1656 0 
L 538 0 
L 538 3500 
z
M 538 4863 
L 1656 4863 
L 1656 3950 
L 538 3950 
L 538 4863 
z
" transform="scale(0.015625)"/>
      <path id="DejaVuSans-Bold-6e" d="M 4056 2131 
L 4056 0 
L 2931 0 
L 2931 347 
L 2931 1631 
Q 2931 2084 2911 2256 
Q 2891 2428 2841 2509 
Q 2775 2619 2662 2680 
Q 2550 2741 2406 2741 
Q 2056 2741 1856 2470 
Q 1656 2200 1656 1722 
L 1656 0 
L 538 0 
L 538 3500 
L 1656 3500 
L 1656 2988 
Q 1909 3294 2193 3439 
Q 2478 3584 2822 3584 
Q 3428 3584 3742 3212 
Q 4056 2841 4056 2131 
z
" transform="scale(0.015625)"/>
      <path id="DejaVuSans-Bold-67" d="M 2919 594 
Q 2688 288 2409 144 
Q 2131 0 1766 0 
Q 1125 0 706 504 
Q 288 1009 288 1791 
Q 288 2575 706 3076 
Q 1125 3578 1766 3578 
Q 2131 3578 2409 3434 
Q 2688 3291 2919 2981 
L 2919 3500 
L 4044 3500 
L 4044 353 
Q 4044 -491 3511 -936 
Q 2978 -1381 1966 -1381 
Q 1638 -1381 1331 -1331 
Q 1025 -1281 716 -1178 
L 716 -306 
Q 1009 -475 1290 -558 
Q 1572 -641 1856 -641 
Q 2406 -641 2662 -400 
Q 2919 -159 2919 353 
L 2919 594 
z
M 2181 2772 
Q 1834 2772 1640 2515 
Q 1447 2259 1447 1791 
Q 1447 1309 1634 1061 
Q 1822 813 2181 813 
Q 2531 813 2725 1069 
Q 2919 1325 2919 1791 
Q 2919 2259 2725 2515 
Q 2531 2772 2181 2772 
z
" transform="scale(0.015625)"/>
      <path id="DejaVuSans-Bold-20" transform="scale(0.015625)"/>
      <path id="DejaVuSans-Bold-50" d="M 588 4666 
L 2584 4666 
Q 3475 4666 3951 4270 
Q 4428 3875 4428 3144 
Q 4428 2409 3951 2014 
Q 3475 1619 2584 1619 
L 1791 1619 
L 1791 0 
L 588 0 
L 588 4666 
z
M 1791 3794 
L 1791 2491 
L 2456 2491 
Q 2806 2491 2997 2661 
Q 3188 2831 3188 3144 
Q 3188 3456 2997 3625 
Q 2806 3794 2456 3794 
L 1791 3794 
z
" transform="scale(0.015625)"/>
      <path id="DejaVuSans-Bold-6f" d="M 2203 2784 
Q 1831 2784 1636 2517 
Q 1441 2250 1441 1747 
Q 1441 1244 1636 976 
Q 1831 709 2203 709 
Q 2569 709 2762 976 
Q 2956 1244 2956 1747 
Q 2956 2250 2762 2517 
Q 2569 2784 2203 2784 
z
M 2203 3584 
Q 3106 3584 3614 3096 
Q 4122 2609 4122 1747 
Q 4122 884 3614 396 
Q 3106 -91 2203 -91 
Q 1297 -91 786 396 
Q 275 884 275 1747 
Q 275 2609 786 3096 
Q 1297 3584 2203 3584 
z
" transform="scale(0.015625)"/>
      <path id="DejaVuSans-Bold-65" d="M 4031 1759 
L 4031 1441 
L 1416 1441 
Q 1456 1047 1700 850 
Q 1944 653 2381 653 
Q 2734 653 3104 758 
Q 3475 863 3866 1075 
L 3866 213 
Q 3469 63 3072 -14 
Q 2675 -91 2278 -91 
Q 1328 -91 801 392 
Q 275 875 275 1747 
Q 275 2603 792 3093 
Q 1309 3584 2216 3584 
Q 3041 3584 3536 3087 
Q 4031 2591 4031 1759 
z
M 2881 2131 
Q 2881 2450 2695 2645 
Q 2509 2841 2209 2841 
Q 1884 2841 1681 2658 
Q 1478 2475 1428 2131 
L 2881 2131 
z
" transform="scale(0.015625)"/>
      <path id="DejaVuSans-Bold-73" d="M 3272 3391 
L 3272 2541 
Q 2913 2691 2578 2766 
Q 2244 2841 1947 2841 
Q 1628 2841 1473 2761 
Q 1319 2681 1319 2516 
Q 1319 2381 1436 2309 
Q 1553 2238 1856 2203 
L 2053 2175 
Q 2913 2066 3209 1816 
Q 3506 1566 3506 1031 
Q 3506 472 3093 190 
Q 2681 -91 1863 -91 
Q 1516 -91 1145 -36 
Q 775 19 384 128 
L 384 978 
Q 719 816 1070 734 
Q 1422 653 1784 653 
Q 2113 653 2278 743 
Q 2444 834 2444 1013 
Q 2444 1163 2330 1236 
Q 2216 1309 1875 1350 
L 1678 1375 
Q 931 1469 631 1722 
Q 331 1975 331 2491 
Q 331 3047 712 3315 
Q 1094 3584 1881 3584 
Q 2191 3584 2531 3537 
Q 2872 3491 3272 3391 
z
" transform="scale(0.015625)"/>
      <path id="DejaVuSans-Bold-3a" d="M 716 3500 
L 1844 3500 
L 1844 2291 
L 716 2291 
L 716 3500 
z
M 716 1209 
L 1844 1209 
L 1844 0 
L 716 0 
L 716 1209 
z
" transform="scale(0.015625)"/>
      <path id="DejaVuSans-Bold-4c" d="M 588 4666 
L 1791 4666 
L 1791 909 
L 3903 909 
L 3903 0 
L 588 0 
L 588 4666 
z
" transform="scale(0.015625)"/>
     </defs>
     <use xlink:href="#DejaVuSans-Bold-54"/>
     <use xlink:href="#DejaVuSans-Bold-72" transform="translate(57.212891 0)"/>
     <use xlink:href="#DejaVuSans-Bold-61" transform="translate(106.529297 0)"/>
     <use xlink:href="#DejaVuSans-Bold-69" transform="translate(174.009766 0)"/>
     <use xlink:href="#DejaVuSans-Bold-6e" transform="translate(208.287109 0)"/>
     <use xlink:href="#DejaVuSans-Bold-69" transform="translate(279.478516 0)"/>
     <use xlink:href="#DejaVuSans-Bold-6e" transform="translate(313.755859 0)"/>
     <use xlink:href="#DejaVuSans-Bold-67" transform="translate(384.947266 0)"/>
     <use xlink:href="#DejaVuSans-Bold-20" transform="translate(456.529297 0)"/>
     <use xlink:href="#DejaVuSans-Bold-50" transform="translate(491.34375 0)"/>
     <use xlink:href="#DejaVuSans-Bold-72" transform="translate(564.634766 0)"/>
     <use xlink:href="#DejaVuSans-Bold-6f" transform="translate(613.951172 0)"/>
     <use xlink:href="#DejaVuSans-Bold-67" transform="translate(682.652344 0)"/>
     <use xlink:href="#DejaVuSans-Bold-72" transform="translate(754.234375 0)"/>
     <use xlink:href="#DejaVuSans-Bold-65" transform="translate(803.550781 0)"/>
     <use xlink:href="#DejaVuSans-Bold-73" transform="translate(871.373047 0)"/>
     <use xlink:href="#DejaVuSans-Bold-73" transform="translate(930.894531 0)"/>
     <use xlink:href="#DejaVuSans-Bold-3a" transform="translate(990.416016 0)"/>
     <use xlink:href="#DejaVuSans-Bold-20" transform="translate(1030.40625 0)"/>
     <use xlink:href="#DejaVuSans-Bold-4c" transform="translate(1065.220703 0)"/>
     <use xlink:href="#DejaVuSans-Bold-6f" transform="translate(1128.941406 0)"/>
     <use xlink:href="#DejaVuSans-Bold-73" transform="translate(1197.642578 0)"/>
     <use xlink:href="#DejaVuSans-Bold-73" transform="translate(1257.164062 0)"/>
    </g>
   </g>
   <g id="legend_1">
    <g id="patch_7">
     <path d="M 848.98 174.094375 
L 1025.86 174.094375 
Q 1032.26 174.094375 1032.26 167.694375 
L 1032.26 76.954375 
Q 1032.26 70.554375 1025.86 70.554375 
L 848.98 70.554375 
Q 842.58 70.554375 842.58 76.954375 
L 842.58 167.694375 
Q 842.58 174.094375 848.98 174.094375 
z
" style="fill: #ffffff; opacity: 0.8; stroke: #cccccc; stroke-width: 1.5; stroke-linejoin: miter"/>
    </g>
    <g id="line2d_20">
     <path d="M 855.38 96.469375 
L 887.38 96.469375 
L 919.38 96.469375 
" style="fill: none; stroke: #4c72b0; stroke-width: 6; stroke-linecap: round"/>
    </g>
    <g id="text_19">
     <!-- train -->
     <g style="fill: #262626" transform="translate(944.98 107.669375) scale(0.32 -0.32)">
      <defs>
       <path id="DejaVuSans-74" d="M 1172 4494 
L 1172 3500 
L 2356 3500 
L 2356 3053 
L 1172 3053 
L 1172 1153 
Q 1172 725 1289 603 
Q 1406 481 1766 481 
L 2356 481 
L 2356 0 
L 1766 0 
Q 1100 0 847 248 
Q 594 497 594 1153 
L 594 3053 
L 172 3053 
L 172 3500 
L 594 3500 
L 594 4494 
L 1172 4494 
z
" transform="scale(0.015625)"/>
       <path id="DejaVuSans-72" d="M 2631 2963 
Q 2534 3019 2420 3045 
Q 2306 3072 2169 3072 
Q 1681 3072 1420 2755 
Q 1159 2438 1159 1844 
L 1159 0 
L 581 0 
L 581 3500 
L 1159 3500 
L 1159 2956 
Q 1341 3275 1631 3429 
Q 1922 3584 2338 3584 
Q 2397 3584 2469 3576 
Q 2541 3569 2628 3553 
L 2631 2963 
z
" transform="scale(0.015625)"/>
       <path id="DejaVuSans-61" d="M 2194 1759 
Q 1497 1759 1228 1600 
Q 959 1441 959 1056 
Q 959 750 1161 570 
Q 1363 391 1709 391 
Q 2188 391 2477 730 
Q 2766 1069 2766 1631 
L 2766 1759 
L 2194 1759 
z
M 3341 1997 
L 3341 0 
L 2766 0 
L 2766 531 
Q 2569 213 2275 61 
Q 1981 -91 1556 -91 
Q 1019 -91 701 211 
Q 384 513 384 1019 
Q 384 1609 779 1909 
Q 1175 2209 1959 2209 
L 2766 2209 
L 2766 2266 
Q 2766 2663 2505 2880 
Q 2244 3097 1772 3097 
Q 1472 3097 1187 3025 
Q 903 2953 641 2809 
L 641 3341 
Q 956 3463 1253 3523 
Q 1550 3584 1831 3584 
Q 2591 3584 2966 3190 
Q 3341 2797 3341 1997 
z
" transform="scale(0.015625)"/>
       <path id="DejaVuSans-69" d="M 603 3500 
L 1178 3500 
L 1178 0 
L 603 0 
L 603 3500 
z
M 603 4863 
L 1178 4863 
L 1178 4134 
L 603 4134 
L 603 4863 
z
" transform="scale(0.015625)"/>
       <path id="DejaVuSans-6e" d="M 3513 2113 
L 3513 0 
L 2938 0 
L 2938 2094 
Q 2938 2591 2744 2837 
Q 2550 3084 2163 3084 
Q 1697 3084 1428 2787 
Q 1159 2491 1159 1978 
L 1159 0 
L 581 0 
L 581 3500 
L 1159 3500 
L 1159 2956 
Q 1366 3272 1645 3428 
Q 1925 3584 2291 3584 
Q 2894 3584 3203 3211 
Q 3513 2838 3513 2113 
z
" transform="scale(0.015625)"/>
      </defs>
      <use xlink:href="#DejaVuSans-74"/>
      <use xlink:href="#DejaVuSans-72" transform="translate(39.208984 0)"/>
      <use xlink:href="#DejaVuSans-61" transform="translate(80.322266 0)"/>
      <use xlink:href="#DejaVuSans-69" transform="translate(141.601562 0)"/>
      <use xlink:href="#DejaVuSans-6e" transform="translate(169.384766 0)"/>
     </g>
    </g>
    <g id="line2d_21">
     <path d="M 855.38 143.439375 
L 887.38 143.439375 
L 919.38 143.439375 
" style="fill: none; stroke: #dd8452; stroke-width: 6; stroke-linecap: round"/>
    </g>
    <g id="text_20">
     <!-- val -->
     <g style="fill: #262626" transform="translate(944.98 154.639375) scale(0.32 -0.32)">
      <defs>
       <path id="DejaVuSans-76" d="M 191 3500 
L 800 3500 
L 1894 563 
L 2988 3500 
L 3597 3500 
L 2284 0 
L 1503 0 
L 191 3500 
z
" transform="scale(0.015625)"/>
       <path id="DejaVuSans-6c" d="M 603 4863 
L 1178 4863 
L 1178 0 
L 603 0 
L 603 4863 
z
" transform="scale(0.015625)"/>
      </defs>
      <use xlink:href="#DejaVuSans-76"/>
      <use xlink:href="#DejaVuSans-61" transform="translate(59.179688 0)"/>
      <use xlink:href="#DejaVuSans-6c" transform="translate(120.458984 0)"/>
     </g>
    </g>
   </g>
  </g>
 </g>
 <defs>
  <clipPath id="pbe5e8b0522">
   <rect x="75.03" y="54.554375" width="973.23" height="555.34"/>
  </clipPath>
 </defs>
</svg>
