<?xml version="1.0" encoding="utf-8" standalone="no"?>
<!DOCTYPE svg PUBLIC "-//W3C//DTD SVG 1.1//EN"
  "http://www.w3.org/Graphics/SVG/1.1/DTD/svg11.dtd">
<svg xmlns:xlink="http://www.w3.org/1999/xlink" width="1052.780455pt" height="695.534375pt" viewBox="0 0 1052.780455 695.534375" xmlns="http://www.w3.org/2000/svg" version="1.1">
 <metadata>
  <rdf:RDF xmlns:dc="http://purl.org/dc/elements/1.1/" xmlns:cc="http://creativecommons.org/ns#" xmlns:rdf="http://www.w3.org/1999/02/22-rdf-syntax-ns#">
   <cc:Work>
    <dc:type rdf:resource="http://purl.org/dc/dcmitype/StillImage"/>
    <dc:date>2026-04-04T10:58:56.518175</dc:date>
    <dc:format>image/svg+xml</dc:format>
    <dc:creator>
     <cc:Agent>
      <dc:title>Matplotlib v3.10.1, https://matplotlib.org/</dc:title>
     </cc:Agent>
    </dc:creator>
   </cc:Work>
  </rdf:RDF>
 </metadata>
 <defs>
  <style type="text/css">*{stroke-linejoin: round; stroke-linecap: butt}</style>
 </defs>
 <g id="figure_1">
  <g id="patch_1">
   <path d="M 0 695.534375 
L 1052.780455 695.534375 
L 1052.780455 0 
L 0 0 
z
" style="fill: #ffffff"/>
  </g>
  <g id="axes_1">
   <g id="patch_2">
    <path d="M 75.03 609.894375 
L 1045.580455 609.894375 
L 1045.580455 54.554375 
L 75.03 54.554375 
z
" style="fill: #ffffff"/>
   </g>
   <g id="matplotlib.axis_1">
    <g id="xtick_1">
     <g id="line2d_1">
      <path d="M 118.410051 609.894375 
L 118.410051 54.554375 
" clip-path="url(#p6da4b923e0)" style="fill: none; stroke: #cccccc; stroke-opacity: 0.3; stroke-width: 1.5; stroke-linecap: round"/>
     </g>
     <g id="text_1">
      <!-- 0 -->
      <g style="fill: #262626" transform="translate(108.230051 646.709375) scale(0.32 -0.32)">
       <defs>
        <path id="DejaVuSans-30" d="M 2034 4250 
Q 1547 4250 1301 3770 
Q 1056 3291 1056 2328 
Q 1056 1369 1301 889 
Q 1547 409 2034 409 
Q 2525 409 2770 889 
Q 3016 1369 3016 2328 
Q 3016 3291 2770 3770 
Q 2525 4250 2034 4250 
z
M 2034 4750 
Q 2819 4750 3233 4129 
Q 3647 3509 3647 2328 
Q 3647 1150 3233 529 
Q 2819 -91 2034 -91 
Q 1250 -91 836 529 
Q 422 1150 422 2328 
Q 422 3509 836 4129 
Q 1250 4750 2034 4750 
z
" transform="scale(0.015625)"/>
       </defs>
       <use xlink:href="#DejaVuSans-30"/>
      </g>
     </g>
    </g>
    <g id="xtick_2">
     <g id="line2d_2">
      <path d="M 265.585797 609.894375 
L 265.585797 54.554375 
" clip-path="url(#p6da4b923e0)" style="fill: none; stroke: #cccccc; stroke-opacity: 0.3; stroke-width: 1.5; stroke-linecap: round"/>
     </g>
     <g id="text_2">
      <!-- 200 -->
      <g style="fill: #262626" transform="translate(235.045797 646.709375) scale(0.32 -0.32)">
       <defs>
        <path id="DejaVuSans-32" d="M 1228 531 
L 3431 531 
L 3431 0 
L 469 0 
L 469 531 
Q 828 903 1448 1529 
Q 2069 2156 2228 2338 
Q 2531 2678 2651 2914 
Q 2772 3150 2772 3378 
Q 2772 3750 2511 3984 
Q 2250 4219 1831 4219 
Q 1534 4219 1204 4116 
Q 875 4013 500 3803 
L 500 4441 
Q 881 4594 1212 4672 
Q 1544 4750 1819 4750 
Q 2544 4750 2975 4387 
Q 3406 4025 3406 3419 
Q 3406 3131 3298 2873 
Q 3191 2616 2906 2266 
Q 2828 2175 2409 1742 
Q 1991 1309 1228 531 
z
" transform="scale(0.015625)"/>
       </defs>
       <use xlink:href="#DejaVuSans-32"/>
       <use xlink:href="#DejaVuSans-30" transform="translate(63.623047 0)"/>
       <use xlink:href="#DejaVuSans-30" transform="translate(127.246094 0)"/>
      </g>
     </g>
    </g>
    <g id="xtick_3">
     <g id="line2d_3">
      <path d="M 412.761542 609.894375 
L 412.761542 54.554375 
" clip-path="url(#p6da4b923e0)" style="fill: none; stroke: #cccccc; stroke-opacity: 0.3; stroke-width: 1.5; stroke-linecap: round"/>
     </g>
     <g id="text_3">
      <!-- 400 -->
      <g style="fill: #262626" transform="translate(382.221542 646.709375) scale(0.32 -0.32)">
       <defs>
        <path id="DejaVuSans-34" d="M 2419 4116 
L 825 1625 
L 2419 1625 
L 2419 4116 
z
M 2253 4666 
L 3047 4666 
L 3047 1625 
L 3713 1625 
L 3713 1100 
L 3047 1100 
L 3047 0 
L 2419 0 
L 2419 1100 
L 313 1100 
L 313 1709 
L 2253 4666 
z
" transform="scale(0.015625)"/>
       </defs>
       <use xlink:href="#DejaVuSans-34"/>
       <use xlink:href="#DejaVuSans-30" transform="translate(63.623047 0)"/>
       <use xlink:href="#DejaVuSans-30" transform="translate(127.246094 0)"/>
      </g>
     </g>
    </g>
    <g id="xtick_4">
     <g id="line2d_4">
      <path d="M 559.937288 609.894375 
L 559.937288 54.554375 
" clip-path="url(#p6da4b923e0)" style="fill: none; stroke: #cccccc; stroke-opacity: 0.3; stroke-width: 1.5; stroke-linecap: round"/>
     </g>
     <g id="text_4">
      <!-- 600 -->
      <g style="fill: #262626" transform="translate(529.397288 646.709375) scale(0.32 -0.32)">
       <defs>
        <path id="DejaVuSans-36" d="M 2113 2584 
Q 1688 2584 1439 2293 
Q 1191 2003 1191 1497 
Q 1191 994 1439 701 
Q 1688 409 2113 409 
Q 2538 409 2786 701 
Q 3034 994 3034 1497 
Q 3034 2003 2786 2293 
Q 2538 2584 2113 2584 
z
M 3366 4563 
L 3366 3988 
Q 3128 4100 2886 4159 
Q 2644 4219 2406 4219 
Q 1781 4219 1451 3797 
Q 1122 3375 1075 2522 
Q 1259 2794 1537 2939 
Q 1816 3084 2150 3084 
Q 2853 3084 3261 2657 
Q 3669 2231 3669 1497 
Q 3669 778 3244 343 
Q 2819 -91 2113 -91 
Q 1303 -91 875 529 
Q 447 1150 447 2328 
Q 447 3434 972 4092 
Q 1497 4750 2381 4750 
Q 2619 4750 2861 4703 
Q 3103 4656 3366 4563 
z
" transform="scale(0.015625)"/>
       </defs>
       <use xlink:href="#DejaVuSans-36"/>
       <use xlink:href="#DejaVuSans-30" transform="translate(63.623047 0)"/>
       <use xlink:href="#DejaVuSans-30" transform="translate(127.246094 0)"/>
      </g>
     </g>
    </g>
    <g id="xtick_5">
     <g id="line2d_5">
      <path d="M 707.113034 609.894375 
L 707.113034 54.554375 
" clip-path="url(#p6da4b923e0)" style="fill: none; stroke: #cccccc; stroke-opacity: 0.3; stroke-width: 1.5; stroke-linecap: round"/>
     </g>
     <g id="text_5">
      <!-- 800 -->
      <g style="fill: #262626" transform="translate(676.573034 646.709375) scale(0.32 -0.32)">
       <defs>
        <path id="DejaVuSans-38" d="M 2034 2216 
Q 1584 2216 1326 1975 
Q 1069 1734 1069 1313 
Q 1069 891 1326 650 
Q 1584 409 2034 409 
Q 2484 409 2743 651 
Q 3003 894 3003 1313 
Q 3003 1734 2745 1975 
Q 2488 2216 2034 2216 
z
M 1403 2484 
Q 997 2584 770 2862 
Q 544 3141 544 3541 
Q 544 4100 942 4425 
Q 1341 4750 2034 4750 
Q 2731 4750 3128 4425 
Q 3525 4100 3525 3541 
Q 3525 3141 3298 2862 
Q 3072 2584 2669 2484 
Q 3125 2378 3379 2068 
Q 3634 1759 3634 1313 
Q 3634 634 3220 271 
Q 2806 -91 2034 -91 
Q 1263 -91 848 271 
Q 434 634 434 1313 
Q 434 1759 690 2068 
Q 947 2378 1403 2484 
z
M 1172 3481 
Q 1172 3119 1398 2916 
Q 1625 2713 2034 2713 
Q 2441 2713 2670 2916 
Q 2900 3119 2900 3481 
Q 2900 3844 2670 4047 
Q 2441 4250 2034 4250 
Q 1625 4250 1398 4047 
Q 1172 3844 1172 3481 
z
" transform="scale(0.015625)"/>
       </defs>
       <use xlink:href="#DejaVuSans-38"/>
       <use xlink:href="#DejaVuSans-30" transform="translate(63.623047 0)"/>
       <use xlink:href="#DejaVuSans-30" transform="translate(127.246094 0)"/>
      </g>
     </g>
    </g>
    <g id="xtick_6">
     <g id="line2d_6">
      <path d="M 854.288779 609.894375 
L 854.288779 54.554375 
" clip-path="url(#p6da4b923e0)" style="fill: none; stroke: #cccccc; stroke-opacity: 0.3; stroke-width: 1.5; stroke-linecap: round"/>
     </g>
     <g id="text_6">
      <!-- 1000 -->
      <g style="fill: #262626" transform="translate(813.568779 646.709375) scale(0.32 -0.32)">
       <defs>
        <path id="DejaVuSans-31" d="M 794 531 
L 1825 531 
L 1825 4091 
L 703 3866 
L 703 4441 
L 1819 4666 
L 2450 4666 
L 2450 531 
L 3481 531 
L 3481 0 
L 794 0 
L 794 531 
z
" transform="scale(0.015625)"/>
       </defs>
       <use xlink:href="#DejaVuSans-31"/>
       <use xlink:href="#DejaVuSans-30" transform="translate(63.623047 0)"/>
       <use xlink:href="#DejaVuSans-30" transform="translate(127.246094 0)"/>
       <use xlink:href="#DejaVuSans-30" transform="translate(190.869141 0)"/>
      </g>
     </g>
    </g>
    <g id="xtick_7">
     <g id="line2d_7">
      <path d="M 1001.464525 609.894375 
L 1001.464525 54.554375 
" clip-path="url(#p6da4b923e0)" style="fill: none; stroke: #cccccc; stroke-opacity: 0.3; stroke-width: 1.5; stroke-linecap: round"/>
     </g>
     <g id="text_7">
      <!-- 1200 -->
      <g style="fill: #262626" transform="translate(960.744525 646.709375) scale(0.32 -0.32)">
       <use xlink:href="#DejaVuSans-31"/>
       <use xlink:href="#DejaVuSans-32" transform="translate(63.623047 0)"/>
       <use xlink:href="#DejaVuSans-30" transform="translate(127.246094 0)"/>
       <use xlink:href="#DejaVuSans-30" transform="translate(190.869141 0)"/>
      </g>
     </g>
    </g>
    <g id="text_8">
     <!-- Epoch -->
     <g style="fill: #262626" transform="translate(511.310227 681.679375) scale(0.32 -0.32)">
      <defs>
       <path id="DejaVuSans-45" d="M 628 4666 
L 3578 4666 
L 3578 4134 
L 1259 4134 
L 1259 2753 
L 3481 2753 
L 3481 2222 
L 1259 2222 
L 1259 531 
L 3634 531 
L 3634 0 
L 628 0 
L 628 4666 
z
" transform="scale(0.015625)"/>
       <path id="DejaVuSans-70" d="M 1159 525 
L 1159 -1331 
L 581 -1331 
L 581 3500 
L 1159 3500 
L 1159 2969 
Q 1341 3281 1617 3432 
Q 1894 3584 2278 3584 
Q 2916 3584 3314 3078 
Q 3713 2572 3713 1747 
Q 3713 922 3314 415 
Q 2916 -91 2278 -91 
Q 1894 -91 1617 61 
Q 1341 213 1159 525 
z
M 3116 1747 
Q 3116 2381 2855 2742 
Q 2594 3103 2138 3103 
Q 1681 3103 1420 2742 
Q 1159 2381 1159 1747 
Q 1159 1113 1420 752 
Q 1681 391 2138 391 
Q 2594 391 2855 752 
Q 3116 1113 3116 1747 
z
" transform="scale(0.015625)"/>
       <path id="DejaVuSans-6f" d="M 1959 3097 
Q 1497 3097 1228 2736 
Q 959 2375 959 1747 
Q 959 1119 1226 758 
Q 1494 397 1959 397 
Q 2419 397 2687 759 
Q 2956 1122 2956 1747 
Q 2956 2369 2687 2733 
Q 2419 3097 1959 3097 
z
M 1959 3584 
Q 2709 3584 3137 3096 
Q 3566 2609 3566 1747 
Q 3566 888 3137 398 
Q 2709 -91 1959 -91 
Q 1206 -91 779 398 
Q 353 888 353 1747 
Q 353 2609 779 3096 
Q 1206 3584 1959 3584 
z
" transform="scale(0.015625)"/>
       <path id="DejaVuSans-63" d="M 3122 3366 
L 3122 2828 
Q 2878 2963 2633 3030 
Q 2388 3097 2138 3097 
Q 1578 3097 1268 2742 
Q 959 2388 959 1747 
Q 959 1106 1268 751 
Q 1578 397 2138 397 
Q 2388 397 2633 464 
Q 2878 531 3122 666 
L 3122 134 
Q 2881 22 2623 -34 
Q 2366 -91 2075 -91 
Q 1284 -91 818 406 
Q 353 903 353 1747 
Q 353 2603 823 3093 
Q 1294 3584 2113 3584 
Q 2378 3584 2631 3529 
Q 2884 3475 3122 3366 
z
" transform="scale(0.015625)"/>
       <path id="DejaVuSans-68" d="M 3513 2113 
L 3513 0 
L 2938 0 
L 2938 2094 
Q 2938 2591 2744 2837 
Q 2550 3084 2163 3084 
Q 1697 3084 1428 2787 
Q 1159 2491 1159 1978 
L 1159 0 
L 581 0 
L 581 4863 
L 1159 4863 
L 1159 2956 
Q 1366 3272 1645 3428 
Q 1925 3584 2291 3584 
Q 2894 3584 3203 3211 
Q 3513 2838 3513 2113 
z
" transform="scale(0.015625)"/>
      </defs>
      <use xlink:href="#DejaVuSans-45"/>
      <use xlink:href="#DejaVuSans-70" transform="translate(63.183594 0)"/>
      <use xlink:href="#DejaVuSans-6f" transform="translate(126.660156 0)"/>
      <use xlink:href="#DejaVuSans-63" transform="translate(187.841797 0)"/>
      <use xlink:href="#DejaVuSans-68" transform="translate(242.822266 0)"/>
     </g>
    </g>
   </g>
   <g id="matplotlib.axis_2">
    <g id="ytick_1">
     <g id="line2d_8">
      <path d="M 75.03 584.652697 
L 1045.580455 584.652697 
" clip-path="url(#p6da4b923e0)" style="fill: none; stroke: #cccccc; stroke-opacity: 0.3; stroke-width: 1.5; stroke-linecap: round"/>
     </g>
     <g id="text_9">
      <!-- 0 -->
      <g style="fill: #262626" transform="translate(42.17 596.810197) scale(0.32 -0.32)">
       <use xlink:href="#DejaVuSans-30"/>
      </g>
     </g>
    </g>
    <g id="ytick_2">
     <g id="line2d_9">
      <path d="M 75.03 466.288732 
L 1045.580455 466.288732 
" clip-path="url(#p6da4b923e0)" style="fill: none; stroke: #cccccc; stroke-opacity: 0.3; stroke-width: 1.5; stroke-linecap: round"/>
     </g>
     <g id="text_10">
      <!-- 2 -->
      <g style="fill: #262626" transform="translate(42.17 478.446232) scale(0.32 -0.32)">
       <use xlink:href="#DejaVuSans-32"/>
      </g>
     </g>
    </g>
    <g id="ytick_3">
     <g id="line2d_10">
      <path d="M 75.03 347.924767 
L 1045.580455 347.924767 
" clip-path="url(#p6da4b923e0)" style="fill: none; stroke: #cccccc; stroke-opacity: 0.3; stroke-width: 1.5; stroke-linecap: round"/>
     </g>
     <g id="text_11">
      <!-- 4 -->
      <g style="fill: #262626" transform="translate(42.17 360.082267) scale(0.32 -0.32)">
       <use xlink:href="#DejaVuSans-34"/>
      </g>
     </g>
    </g>
    <g id="ytick_4">
     <g id="line2d_11">
      <path d="M 75.03 229.560802 
L 1045.580455 229.560802 
" clip-path="url(#p6da4b923e0)" style="fill: none; stroke: #cccccc; stroke-opacity: 0.3; stroke-width: 1.5; stroke-linecap: round"/>
     </g>
     <g id="text_12">
      <!-- 6 -->
      <g style="fill: #262626" transform="translate(42.17 241.718302) scale(0.32 -0.32)">
       <use xlink:href="#DejaVuSans-36"/>
      </g>
     </g>
    </g>
    <g id="ytick_5">
     <g id="line2d_12">
      <path d="M 75.03 111.196837 
L 1045.580455 111.196837 
" clip-path="url(#p6da4b923e0)" style="fill: none; stroke: #cccccc; stroke-opacity: 0.3; stroke-width: 1.5; stroke-linecap: round"/>
     </g>
     <g id="text_13">
      <!-- 8 -->
      <g style="fill: #262626" transform="translate(42.17 123.354337) scale(0.32 -0.32)">
       <use xlink:href="#DejaVuSans-38"/>
      </g>
     </g>
    </g>
    <g id="text_14">
     <!-- Loss -->
     <g style="fill: #262626" transform="translate(31.515 367.319375) rotate(-90) scale(0.32 -0.32)">
      <defs>
       <path id="DejaVuSans-4c" d="M 628 4666 
L 1259 4666 
L 1259 531 
L 3531 531 
L 3531 0 
L 628 0 
L 628 4666 
z
" transform="scale(0.015625)"/>
       <path id="DejaVuSans-73" d="M 2834 3397 
L 2834 2853 
Q 2591 2978 2328 3040 
Q 2066 3103 1784 3103 
Q 1356 3103 1142 2972 
Q 928 2841 928 2578 
Q 928 2378 1081 2264 
Q 1234 2150 1697 2047 
L 1894 2003 
Q 2506 1872 2764 1633 
Q 3022 1394 3022 966 
Q 3022 478 2636 193 
Q 2250 -91 1575 -91 
Q 1294 -91 989 -36 
Q 684 19 347 128 
L 347 722 
Q 666 556 975 473 
Q 1284 391 1588 391 
Q 1994 391 2212 530 
Q 2431 669 2431 922 
Q 2431 1156 2273 1281 
Q 2116 1406 1581 1522 
L 1381 1569 
Q 847 1681 609 1914 
Q 372 2147 372 2553 
Q 372 3047 722 3315 
Q 1072 3584 1716 3584 
Q 2034 3584 2315 3537 
Q 2597 3491 2834 3397 
z
" transform="scale(0.015625)"/>
      </defs>
      <use xlink:href="#DejaVuSans-4c"/>
      <use xlink:href="#DejaVuSans-6f" transform="translate(53.962891 0)"/>
      <use xlink:href="#DejaVuSans-73" transform="translate(115.144531 0)"/>
      <use xlink:href="#DejaVuSans-73" transform="translate(167.244141 0)"/>
     </g>
    </g>
   </g>
   <g id="FillBetweenPolyCollection_1"/>
   <g id="FillBetweenPolyCollection_2"/>
   <g id="line2d_13">
    <path d="M 119.14593 298.155706 
L 119.881808 304.296979 
L 120.617687 307.205463 
L 121.353566 309.282495 
L 122.089445 311.927092 
L 123.561202 320.607559 
L 124.297081 325.963183 
L 125.03296 329.68421 
L 127.976474 352.344074 
L 128.712353 356.18838 
L 129.448232 362.762988 
L 130.919989 378.922251 
L 132.391747 392.489323 
L 133.127626 399.23407 
L 133.863504 407.507617 
L 134.599383 412.28302 
L 136.807019 434.786092 
L 139.014655 455.095823 
L 141.95817 488.795953 
L 144.165807 509.117628 
L 147.109321 532.705364 
L 147.8452 536.17085 
L 149.316958 544.913366 
L 151.524594 553.512274 
L 152.260473 555.147768 
L 152.996351 557.512428 
L 154.468109 560.779436 
L 155.203987 563.339898 
L 155.939866 564.622039 
L 156.675745 565.625621 
L 157.411624 567.561108 
L 158.147502 568.102263 
L 158.883381 569.663985 
L 159.61926 570.500168 
L 160.355139 570.359173 
L 161.091017 571.544334 
L 161.826896 571.688106 
L 162.562775 573.3371 
L 163.298653 573.643528 
L 164.770411 574.561176 
L 165.50629 573.980594 
L 166.242168 574.645123 
L 166.978047 574.355519 
L 167.713926 575.275108 
L 168.449805 575.82626 
L 169.185683 576.748888 
L 169.921562 577.313806 
L 172.129198 577.724784 
L 172.865077 578.141297 
L 173.600956 578.035196 
L 174.336834 578.637879 
L 175.072713 577.156865 
L 175.808592 577.015022 
L 176.544471 576.576924 
L 177.280349 577.701733 
L 178.016228 578.38776 
L 178.752107 579.323279 
L 180.223864 578.680778 
L 180.959743 578.856825 
L 183.167379 577.254918 
L 183.903258 578.324039 
L 184.639137 578.995821 
L 185.375015 579.989125 
L 186.110894 580.487218 
L 186.846773 580.698548 
L 187.582651 581.13321 
L 189.054409 581.426859 
L 189.790288 581.50361 
L 190.526166 581.815958 
L 191.262045 581.521751 
L 191.997924 581.879302 
L 192.733803 581.705916 
L 193.469681 581.871913 
L 194.20556 581.065731 
L 194.941439 581.154831 
L 195.677317 580.258184 
L 196.413196 580.860402 
L 197.884954 579.496701 
L 199.356711 580.437706 
L 200.828469 580.97599 
L 201.564347 581.428663 
L 202.300226 581.643471 
L 203.036105 581.647404 
L 203.771983 581.520579 
L 204.507862 581.78008 
L 205.97962 581.338148 
L 206.715498 580.178709 
L 207.451377 579.554268 
L 208.187256 579.410025 
L 208.923135 579.630896 
L 209.659013 580.615357 
L 210.394892 581.083433 
L 211.130771 581.019406 
L 211.866649 581.752534 
L 212.602528 581.863289 
L 213.338407 581.759226 
L 214.074286 581.482911 
L 214.810164 581.737181 
L 215.546043 581.580804 
L 216.281922 581.878938 
L 217.017801 581.427465 
L 217.753679 581.908672 
L 218.489558 581.945091 
L 219.961316 582.336528 
L 220.697194 582.44344 
L 221.433073 582.349235 
L 222.168952 582.463954 
L 222.90483 581.948243 
L 223.640709 582.347164 
L 224.376588 582.139251 
L 225.848345 582.123998 
L 226.584224 582.103664 
L 227.320103 582.457667 
L 228.055982 582.061904 
L 228.79186 582.18006 
L 229.527739 582.067688 
L 230.263618 581.561999 
L 231.735375 581.759795 
L 232.471254 581.907229 
L 233.207133 581.828223 
L 233.943011 582.014791 
L 234.67889 581.401385 
L 235.414769 580.48216 
L 236.886526 581.921692 
L 237.622405 582.180186 
L 238.358284 582.151727 
L 239.094162 581.866705 
L 239.830041 582.15774 
L 240.56592 582.213238 
L 241.301799 582.654049 
L 242.037677 582.930174 
L 242.773556 582.801335 
L 244.245314 583.023723 
L 247.188828 583.697125 
L 248.660586 583.57842 
L 250.868222 582.376851 
L 251.604101 582.356151 
L 252.33998 582.047792 
L 253.075858 581.605191 
L 253.811737 581.621262 
L 254.547616 581.483302 
L 255.283494 581.969219 
L 256.019373 581.544176 
L 256.755252 581.939025 
L 257.491131 581.424579 
L 258.227009 582.113622 
L 258.962888 582.151477 
L 259.698767 582.341375 
L 260.434646 582.091167 
L 261.906403 582.418448 
L 264.849918 583.404676 
L 265.585797 583.271806 
L 266.321675 583.418164 
L 267.057554 583.332608 
L 267.793433 583.099041 
L 268.529312 583.483391 
L 269.26519 583.473196 
L 270.001069 583.714552 
L 272.944584 583.09059 
L 273.680463 582.853676 
L 275.15222 582.144973 
L 275.888099 582.390774 
L 277.359856 582.372942 
L 279.567492 582.708021 
L 280.303371 582.699898 
L 281.775129 583.362255 
L 282.511007 583.261241 
L 283.246886 582.80656 
L 284.718644 583.244062 
L 285.454522 582.859848 
L 286.190401 583.033539 
L 288.398037 582.596587 
L 289.133916 582.94876 
L 291.341552 583.189168 
L 292.077431 582.841719 
L 292.81331 583.24334 
L 294.285067 583.660088 
L 295.020946 583.395837 
L 295.756825 582.900556 
L 296.492703 582.962333 
L 297.228582 583.136179 
L 297.964461 582.964235 
L 298.700339 583.160188 
L 299.436218 583.104204 
L 300.172097 583.431562 
L 300.907976 583.485761 
L 302.379733 583.069772 
L 303.115612 583.331393 
L 303.851491 582.080359 
L 304.587369 582.372689 
L 305.323248 582.85161 
L 306.059127 582.861356 
L 306.795005 583.347869 
L 307.530884 583.585611 
L 308.266763 583.23282 
L 309.002642 583.275736 
L 310.474399 582.645629 
L 311.210278 583.116393 
L 311.946157 582.891633 
L 312.682035 583.234152 
L 315.62555 583.136553 
L 316.361429 583.601498 
L 317.833186 583.651485 
L 318.569065 583.414515 
L 319.304944 583.390579 
L 320.040823 583.663385 
L 320.776701 583.576181 
L 321.51258 583.809717 
L 322.248459 583.108196 
L 323.720216 583.399592 
L 324.456095 583.160165 
L 325.191974 583.206024 
L 325.927852 583.123445 
L 326.663731 583.430858 
L 327.39961 583.245792 
L 328.135489 583.364049 
L 328.871367 583.298008 
L 329.607246 583.818884 
L 330.343125 583.469844 
L 331.814882 583.432609 
L 332.550761 583.450814 
L 333.28664 583.763987 
L 335.494276 583.975709 
L 336.230155 583.881969 
L 337.701912 583.906965 
L 338.437791 584.082553 
L 340.645427 583.809858 
L 341.381306 583.366439 
L 342.117184 583.310292 
L 342.853063 583.048809 
L 344.324821 583.363657 
L 345.060699 583.613109 
L 346.532457 583.416148 
L 347.268335 582.970953 
L 348.004214 582.676427 
L 348.740093 582.735339 
L 349.475972 582.995185 
L 350.21185 583.099699 
L 350.947729 583.41977 
L 351.683608 583.361874 
L 352.419487 583.681037 
L 354.627123 584.1663 
L 355.363001 584.012718 
L 356.09888 584.151466 
L 357.570638 584.187277 
L 359.042395 584.200653 
L 362.721789 583.263107 
L 363.457667 583.189168 
L 364.193546 582.730156 
L 364.929425 582.542104 
L 365.665304 582.879699 
L 367.137061 583.149213 
L 368.608819 583.770558 
L 369.344697 583.842188 
L 370.080576 584.091245 
L 370.816455 584.059405 
L 372.288212 583.725279 
L 373.75997 583.804973 
L 374.495848 583.950531 
L 377.439363 583.925149 
L 378.175242 584.141017 
L 379.647 583.504043 
L 380.382878 583.742326 
L 382.590514 583.113132 
L 383.326393 583.479055 
L 384.062272 583.381179 
L 384.798151 583.638562 
L 385.534029 583.12511 
L 386.269908 583.656797 
L 387.005787 583.362031 
L 387.741666 583.653162 
L 388.477544 583.789383 
L 389.949302 583.579953 
L 390.68518 583.596615 
L 392.156938 583.87058 
L 392.892817 583.851721 
L 393.628695 584.0494 
L 395.836332 584.23658 
L 398.043968 583.910913 
L 398.779846 583.772994 
L 399.515725 583.798199 
L 400.251604 583.569947 
L 400.987483 583.744364 
L 401.723361 583.388883 
L 402.45924 583.504328 
L 403.930998 583.370254 
L 405.402755 583.923088 
L 407.610391 584.024665 
L 408.34627 583.752692 
L 409.082149 583.905152 
L 409.818027 583.155591 
L 410.553906 583.66439 
L 411.289785 583.526496 
L 412.761542 583.582848 
L 413.497421 583.809225 
L 414.2333 583.864037 
L 414.969178 584.035934 
L 417.176815 583.599394 
L 417.912693 583.841423 
L 419.384451 584.013071 
L 420.12033 583.876111 
L 420.856208 584.151164 
L 421.592087 583.946828 
L 422.327966 584.192562 
L 424.535602 584.24269 
L 425.271481 584.374606 
L 430.422632 584.141258 
L 431.15851 583.497698 
L 431.894389 583.355171 
L 432.630268 583.477567 
L 434.102025 583.360828 
L 434.837904 583.610095 
L 435.573783 583.536996 
L 436.309662 583.625778 
L 437.04554 584.017603 
L 437.781419 583.965859 
L 438.517298 584.097517 
L 439.989055 583.767261 
L 440.724934 583.703831 
L 442.93257 584.050149 
L 443.668449 583.890738 
L 444.404328 584.113035 
L 447.347843 584.222506 
L 448.083721 584.087054 
L 451.027236 584.402717 
L 452.498994 584.297162 
L 453.234872 584.363114 
L 453.970751 584.266772 
L 454.70663 584.392207 
L 455.442509 584.293164 
L 456.178387 584.32073 
L 456.914266 584.107562 
L 457.650145 584.164171 
L 458.386023 583.767069 
L 459.121902 583.791903 
L 459.857781 583.695953 
L 460.59366 583.281332 
L 461.329538 583.704609 
L 462.065417 583.884684 
L 462.801296 583.696367 
L 463.537175 583.760499 
L 464.273053 583.98804 
L 466.480689 584.059098 
L 467.952447 584.059059 
L 468.688326 584.085842 
L 469.424204 584.23376 
L 473.103598 583.751071 
L 473.839477 583.918564 
L 474.575355 583.834981 
L 475.311234 584.195137 
L 476.782992 584.037775 
L 477.51887 584.230096 
L 484.141779 584.504084 
L 484.877658 584.342232 
L 485.613536 584.47128 
L 490.028809 584.189948 
L 490.764687 584.035345 
L 492.236445 584.104325 
L 492.972324 584.06866 
L 493.708202 583.81528 
L 494.444081 583.315415 
L 495.17996 583.612009 
L 495.915839 583.561868 
L 496.651717 583.881859 
L 498.123475 584.016855 
L 500.331111 584.038918 
L 501.06699 583.799155 
L 503.274626 583.439102 
L 506.218141 584.302193 
L 508.425777 584.406382 
L 509.161656 584.371541 
L 509.897534 584.491424 
L 511.369292 584.491983 
L 512.105171 584.549197 
L 514.312807 584.44494 
L 515.048685 584.532584 
L 516.520443 584.448603 
L 518.728079 584.461903 
L 519.463958 584.26176 
L 520.199837 584.270675 
L 520.935715 583.935167 
L 521.671594 583.823305 
L 523.143352 583.943727 
L 525.350988 583.896264 
L 526.086866 584.037862 
L 526.822745 583.961284 
L 527.558624 584.187381 
L 528.294503 584.14872 
L 529.76626 584.395444 
L 531.238018 584.483727 
L 534.181532 584.462848 
L 534.917411 584.298969 
L 537.125047 584.353441 
L 537.860926 584.291972 
L 538.596805 584.459113 
L 541.54032 584.356331 
L 543.012077 584.070627 
L 545.219713 584.2464 
L 545.955592 584.140326 
L 547.42735 584.188393 
L 548.163228 584.171833 
L 548.899107 584.403448 
L 549.634986 584.209462 
L 551.106743 584.384393 
L 553.314379 584.253002 
L 554.786137 584.453122 
L 556.257894 584.327744 
L 556.993773 584.447021 
L 557.729652 584.224432 
L 558.46553 584.46355 
L 559.201409 584.340511 
L 560.673167 584.501824 
L 561.409045 584.407025 
L 562.144924 584.435534 
L 562.880803 584.312786 
L 564.35256 584.372968 
L 565.088439 584.380581 
L 565.824318 584.196085 
L 566.560196 584.242951 
L 567.296075 583.882146 
L 568.031954 583.957473 
L 569.503711 583.676367 
L 570.975469 584.297347 
L 572.447226 584.305563 
L 573.183105 584.461585 
L 575.390741 584.352656 
L 576.12662 584.475697 
L 577.598377 584.410213 
L 581.277771 584.501245 
L 582.01365 584.457267 
L 582.749528 584.159166 
L 584.221286 583.801591 
L 585.693043 584.138799 
L 586.428922 584.082883 
L 587.90068 584.339196 
L 592.315952 584.546591 
L 593.787709 584.405716 
L 595.259467 584.551538 
L 595.995346 584.460859 
L 597.467103 584.527143 
L 601.146497 584.24366 
L 601.882375 584.335305 
L 603.354133 584.29237 
L 605.561769 583.899271 
L 608.505284 584.468976 
L 609.241163 584.374386 
L 610.71292 584.529899 
L 611.448799 584.457959 
L 612.184678 584.574313 
L 613.656435 584.408169 
L 615.128193 584.354147 
L 615.864071 584.16486 
L 616.59995 584.294749 
L 617.335829 584.058596 
L 618.071707 584.243278 
L 619.543465 584.330817 
L 620.279344 584.490245 
L 621.015222 584.361127 
L 622.48698 584.506082 
L 625.430495 584.584949 
L 638.676312 584.434408 
L 640.883948 583.932675 
L 641.619827 584.185719 
L 642.355705 584.27357 
L 643.091584 583.778703 
L 643.827463 584.216321 
L 644.563342 584.144105 
L 648.978614 584.534557 
L 651.18625 584.556894 
L 651.922129 584.50138 
L 653.393886 584.587257 
L 655.601523 584.50611 
L 656.337401 584.319269 
L 657.809159 584.449803 
L 661.488552 584.32383 
L 662.224431 584.378385 
L 662.96031 584.266262 
L 663.696189 584.405789 
L 665.167946 584.418391 
L 665.903825 584.481888 
L 666.639703 584.382884 
L 667.375582 584.430658 
L 668.111461 584.183032 
L 668.84734 584.364044 
L 669.583218 584.270764 
L 670.319097 584.493042 
L 671.790855 584.533493 
L 672.526733 584.586186 
L 673.262612 584.359136 
L 673.998491 584.4356 
L 676.206127 584.354754 
L 676.942006 584.48594 
L 677.677884 584.294874 
L 678.413763 584.222968 
L 680.621399 584.457801 
L 682.093157 584.432356 
L 698.282489 584.427612 
L 700.490125 584.317818 
L 703.43364 584.348915 
L 704.905397 584.388394 
L 705.641276 584.352326 
L 707.848912 584.505164 
L 708.584791 584.480367 
L 709.32067 584.591937 
L 713.735942 584.623599 
L 719.622972 584.620066 
L 720.358851 584.491787 
L 721.094729 583.67346 
L 721.830608 584.147264 
L 722.566487 583.838864 
L 724.038244 584.339894 
L 724.774123 584.23668 
L 726.981759 584.268048 
L 727.717638 584.464849 
L 743.171091 584.647363 
L 763.039817 584.558821 
L 763.775696 584.16136 
L 764.511574 584.335418 
L 765.247453 583.748164 
L 765.983332 584.219634 
L 767.455089 584.217582 
L 770.398604 584.553367 
L 771.134483 584.320475 
L 772.60624 584.476287 
L 774.077998 584.340071 
L 775.549755 584.595998 
L 777.021513 584.514759 
L 779.229149 584.604553 
L 782.908543 584.61788 
L 786.587936 584.391555 
L 787.323815 584.28832 
L 788.059694 584.031683 
L 789.531451 584.037046 
L 790.26733 584.376801 
L 791.003209 584.230585 
L 793.946723 584.54376 
L 797.626117 584.59742 
L 800.569632 584.629928 
L 818.230721 584.650034 
L 824.85363 584.623489 
L 825.589509 584.399701 
L 826.325387 584.016414 
L 827.797145 584.231381 
L 830.004781 584.199197 
L 830.74066 584.428912 
L 831.476539 584.48911 
L 832.212417 584.437552 
L 833.684175 584.536703 
L 838.835326 584.620513 
L 841.778841 584.420355 
L 842.51472 584.223388 
L 843.986477 584.32579 
L 844.722356 584.266477 
L 845.458234 584.427987 
L 846.929992 584.509804 
L 854.288779 584.623665 
L 861.647566 584.646892 
L 878.572777 584.624122 
L 879.308656 584.231533 
L 880.044535 584.323346 
L 881.516292 584.106161 
L 882.98805 584.396363 
L 885.931564 584.50723 
L 888.139201 584.5535 
L 888.875079 584.463216 
L 890.346837 584.589515 
L 894.762109 584.626456 
L 901.385018 584.561773 
L 902.856775 584.505968 
L 903.592654 584.51572 
L 904.328533 584.4107 
L 905.80029 583.897179 
L 906.536169 584.183777 
L 908.743805 584.50382 
L 910.215563 584.455774 
L 910.951441 584.206329 
L 911.68732 584.421624 
L 913.159077 584.527925 
L 917.57435 584.628508 
L 922.725501 584.566354 
L 923.46138 584.500216 
L 924.933137 584.539347 
L 927.876652 584.481701 
L 929.348409 584.561618 
L 933.027803 584.628585 
L 960.991195 584.572298 
L 962.462952 584.286092 
L 963.93471 584.260729 
L 964.670588 584.267155 
L 966.142346 584.504871 
L 966.878225 584.4674 
L 968.349982 584.561052 
L 977.180527 584.64495 
L 978.652284 584.352051 
L 979.388163 584.542383 
L 980.124042 584.46709 
L 981.595799 584.532836 
L 983.803435 584.585088 
L 984.539314 584.506714 
L 986.011072 584.58104 
L 991.898101 584.455852 
L 993.369859 584.437906 
L 994.841616 584.576151 
L 997.049252 584.433063 
L 998.52101 584.60226 
L 1000.728646 584.557544 
L 1001.464525 584.464581 
L 1001.464525 584.464581 
" clip-path="url(#p6da4b923e0)" style="fill: none; stroke: #4c72b0; stroke-width: 2; stroke-linecap: round"/>
   </g>
   <g id="line2d_14">
    <path d="M 119.14593 301.947058 
L 119.881808 304.377604 
L 120.617687 303.239203 
L 121.353566 299.926776 
L 122.089445 289.578073 
L 124.297081 266.746744 
L 125.03296 263.52575 
L 125.768838 259.450419 
L 126.504717 257.163062 
L 127.240596 255.614593 
L 127.976474 255.964974 
L 128.712353 257.418934 
L 129.448232 260.305772 
L 130.184111 267.901315 
L 130.919989 271.17192 
L 131.655868 269.4118 
L 132.391747 268.054974 
L 133.127626 265.993293 
L 133.863504 264.618153 
L 135.335262 262.544845 
L 136.07114 256.915994 
L 136.807019 255.319805 
L 138.278777 251.199745 
L 139.014655 246.98495 
L 140.486413 242.710187 
L 141.222292 239.37002 
L 141.95817 236.639464 
L 142.694049 237.196474 
L 144.165807 228.799365 
L 144.901685 229.516383 
L 145.637564 223.076654 
L 146.373443 220.81842 
L 147.8452 214.551708 
L 148.581079 213.292863 
L 149.316958 209.068021 
L 151.524594 199.669153 
L 152.260473 195.561087 
L 152.996351 192.178787 
L 153.73223 190.486367 
L 154.468109 187.880968 
L 155.939866 178.888752 
L 156.675745 178.675464 
L 157.411624 174.362012 
L 158.883381 167.485265 
L 159.61926 164.819531 
L 160.355139 161.560807 
L 161.091017 160.664027 
L 161.826896 155.770706 
L 162.562775 153.337648 
L 163.298653 153.835677 
L 164.034532 149.790147 
L 164.770411 143.034125 
L 165.50629 140.748292 
L 166.242168 141.175065 
L 166.978047 137.762288 
L 167.713926 137.093667 
L 168.449805 138.136713 
L 169.185683 134.892522 
L 169.921562 130.326555 
L 170.657441 128.546201 
L 171.393319 123.053823 
L 172.129198 123.734239 
L 172.865077 126.264262 
L 173.600956 122.839124 
L 174.336834 121.923521 
L 175.072713 120.005988 
L 175.808592 119.613869 
L 176.544471 116.514081 
L 177.280349 117.981332 
L 178.016228 114.615456 
L 178.752107 112.39357 
L 179.487985 111.805433 
L 180.223864 109.135128 
L 180.959743 107.365385 
L 181.695622 104.064585 
L 182.4315 105.630578 
L 183.167379 106.916966 
L 183.903258 101.5636 
L 184.639137 102.661421 
L 185.375015 101.195214 
L 186.110894 100.920745 
L 186.846773 99.510809 
L 187.582651 97.247721 
L 188.31853 95.415329 
L 189.054409 96.92872 
L 189.790288 95.609258 
L 190.526166 92.158495 
L 191.262045 92.345877 
L 191.997924 89.06929 
L 192.733803 88.88823 
L 193.469681 88.221105 
L 194.20556 86.555381 
L 194.941439 85.398185 
L 195.677317 88.788217 
L 196.413196 88.509571 
L 197.149075 84.701655 
L 197.884954 87.668949 
L 198.620832 91.759293 
L 199.356711 94.038749 
L 200.09259 93.318965 
L 200.828469 93.74492 
L 201.564347 91.642631 
L 202.300226 88.298315 
L 203.036105 85.753025 
L 203.771983 88.646665 
L 204.507862 88.581928 
L 205.243741 88.896696 
L 205.97962 85.022518 
L 206.715498 83.716037 
L 207.451377 80.981277 
L 208.187256 82.015208 
L 208.923135 86.355864 
L 209.659013 86.027438 
L 210.394892 86.318614 
L 211.130771 87.319132 
L 211.866649 86.547762 
L 212.602528 84.368036 
L 213.338407 82.558954 
L 214.074286 84.438756 
L 214.810164 84.013816 
L 215.546043 84.358667 
L 216.281922 79.797102 
L 217.017801 82.752431 
L 218.489558 82.145585 
L 219.225437 83.766156 
L 219.961316 83.898001 
L 220.697194 83.909966 
L 222.168952 82.809323 
L 222.90483 81.373312 
L 223.640709 83.613936 
L 224.376588 83.259209 
L 225.112467 84.993846 
L 225.848345 84.779712 
L 226.584224 86.878389 
L 227.320103 85.794565 
L 228.055982 88.74109 
L 228.79186 87.943418 
L 229.527739 87.440478 
L 230.263618 90.848233 
L 230.999496 88.501049 
L 233.207133 90.195049 
L 233.943011 94.921194 
L 234.67889 94.127925 
L 235.414769 95.21299 
L 236.886526 99.92209 
L 237.622405 99.512728 
L 238.358284 98.239716 
L 239.094162 100.778233 
L 239.830041 100.179514 
L 240.56592 103.488442 
L 241.301799 102.770746 
L 242.037677 104.546924 
L 242.773556 107.612029 
L 243.509435 107.529344 
L 244.245314 107.678459 
L 244.981192 109.193205 
L 245.717071 108.551591 
L 246.45295 110.3241 
L 247.188828 110.067974 
L 247.924707 108.722041 
L 248.660586 108.188228 
L 249.396465 111.911851 
L 250.868222 103.501536 
L 251.604101 112.906302 
L 252.33998 114.420991 
L 253.075858 113.960353 
L 253.811737 110.649987 
L 254.547616 108.627673 
L 255.283494 109.117406 
L 256.019373 113.188362 
L 256.755252 114.527466 
L 257.491131 117.171724 
L 258.227009 118.247449 
L 258.962888 121.55409 
L 260.434646 118.778044 
L 261.170524 120.432988 
L 263.37816 131.370815 
L 264.114039 129.845345 
L 264.849918 131.363167 
L 265.585797 132.175682 
L 266.321675 129.079055 
L 267.057554 128.54623 
L 267.793433 132.436098 
L 268.529312 129.997085 
L 269.26519 133.95406 
L 270.001069 134.989769 
L 270.736948 135.047366 
L 271.472826 135.699845 
L 272.208705 132.116504 
L 272.944584 130.428035 
L 273.680463 133.777938 
L 274.416341 135.009213 
L 275.15222 133.312814 
L 275.888099 140.333709 
L 276.623978 140.469533 
L 277.359856 137.541465 
L 278.831614 143.426386 
L 279.567492 142.731351 
L 280.303371 146.762997 
L 281.03925 145.340532 
L 282.511007 152.15573 
L 283.246886 157.55439 
L 283.982765 157.357554 
L 284.718644 158.161208 
L 285.454522 161.111373 
L 286.190401 161.676256 
L 286.92628 162.43377 
L 287.662158 165.201914 
L 288.398037 165.346289 
L 289.133916 167.828704 
L 289.869795 172.667786 
L 290.605673 178.50112 
L 291.341552 175.180933 
L 292.077431 175.385049 
L 292.81331 176.965294 
L 293.549188 181.593232 
L 294.285067 182.032733 
L 295.020946 183.187164 
L 295.756825 180.474923 
L 296.492703 182.955476 
L 297.228582 187.076072 
L 297.964461 183.817461 
L 298.700339 184.76882 
L 299.436218 182.590364 
L 300.172097 178.364027 
L 300.907976 181.90975 
L 301.643854 187.446264 
L 302.379733 188.782207 
L 303.115612 189.180874 
L 303.851491 193.038571 
L 304.587369 186.566444 
L 305.323248 187.012662 
L 306.059127 187.802375 
L 306.795005 188.353458 
L 307.530884 192.298553 
L 308.266763 192.279025 
L 309.002642 194.523036 
L 309.73852 198.455517 
L 310.474399 197.397063 
L 311.946157 203.841307 
L 312.682035 196.683629 
L 314.153793 206.984357 
L 314.889671 205.140677 
L 315.62555 207.404075 
L 316.361429 208.138477 
L 317.833186 216.874651 
L 318.569065 218.796868 
L 319.304944 216.282253 
L 320.040823 218.480576 
L 320.776701 223.836623 
L 321.51258 224.821958 
L 322.248459 223.449329 
L 322.984337 227.998505 
L 323.720216 226.809759 
L 324.456095 231.290557 
L 325.191974 230.785416 
L 325.927852 230.502311 
L 326.663731 238.184067 
L 327.39961 241.670246 
L 328.135489 239.31293 
L 328.871367 240.775356 
L 329.607246 241.250075 
L 330.343125 244.364651 
L 331.079003 238.060942 
L 331.814882 244.25558 
L 332.550761 246.318672 
L 334.022518 252.133268 
L 334.758397 255.855198 
L 335.494276 258.130788 
L 336.230155 259.486654 
L 336.966033 255.9078 
L 337.701912 261.572801 
L 338.437791 264.243615 
L 339.173669 273.876738 
L 339.909548 271.583511 
L 340.645427 265.578062 
L 341.381306 260.717589 
L 342.117184 264.563152 
L 342.853063 265.538158 
L 343.588942 259.872847 
L 344.324821 266.127085 
L 345.060699 274.153353 
L 345.796578 276.946952 
L 346.532457 275.47146 
L 347.268335 271.35013 
L 348.004214 272.259497 
L 348.740093 270.899595 
L 349.475972 272.145742 
L 350.21185 274.322561 
L 350.947729 279.34163 
L 351.683608 281.419905 
L 352.419487 288.998967 
L 353.155365 290.234305 
L 353.891244 292.4808 
L 354.627123 292.845291 
L 355.363001 298.871567 
L 356.09888 300.293497 
L 356.834759 305.091208 
L 357.570638 308.01541 
L 358.306516 307.183423 
L 359.042395 303.443037 
L 359.778274 304.508094 
L 360.514153 303.794435 
L 361.250031 301.050954 
L 361.98591 303.168709 
L 362.721789 310.285525 
L 363.457667 307.202838 
L 364.193546 301.852464 
L 364.929425 308.248396 
L 365.665304 308.625078 
L 367.137061 324.798621 
L 367.87294 327.827718 
L 369.344697 340.971938 
L 370.080576 346.006388 
L 370.816455 350.201824 
L 371.552334 351.263298 
L 372.288212 345.734713 
L 373.024091 346.150396 
L 373.75997 349.394756 
L 374.495848 349.290002 
L 375.231727 353.277653 
L 375.967606 354.038737 
L 376.703485 357.580312 
L 377.439363 362.237373 
L 378.175242 362.306936 
L 378.911121 364.056036 
L 379.647 361.58687 
L 381.118757 366.350759 
L 381.854636 365.56906 
L 382.590514 363.785391 
L 383.326393 363.375634 
L 384.062272 362.658108 
L 384.798151 365.155381 
L 385.534029 369.110635 
L 386.269908 371.275898 
L 387.005787 378.22606 
L 387.741666 381.884974 
L 388.477544 382.091969 
L 389.213423 383.505263 
L 389.949302 383.902095 
L 390.68518 385.982994 
L 391.421059 389.643263 
L 392.156938 391.623585 
L 393.628695 394.3711 
L 394.364574 397.545023 
L 395.100453 401.944632 
L 395.836332 404.022567 
L 396.57221 407.837553 
L 397.308089 407.544247 
L 399.515725 402.384457 
L 400.251604 404.762938 
L 400.987483 402.726711 
L 401.723361 403.742369 
L 402.45924 403.161838 
L 403.195119 399.951272 
L 403.930998 398.809949 
L 404.666876 402.200673 
L 406.138634 417.413263 
L 406.874512 421.210272 
L 407.610391 421.140004 
L 409.082149 417.318076 
L 409.818027 419.004034 
L 410.553906 416.525668 
L 411.289785 416.42052 
L 412.025664 418.106943 
L 412.761542 421.689169 
L 413.497421 426.678085 
L 414.2333 430.862741 
L 414.969178 430.827043 
L 415.705057 431.377124 
L 416.440936 429.047422 
L 417.176815 429.320791 
L 419.384451 449.130432 
L 420.12033 452.843501 
L 420.856208 446.816929 
L 421.592087 447.417002 
L 422.327966 447.000952 
L 423.063844 450.022091 
L 423.799723 454.657253 
L 424.535602 458.272963 
L 425.271481 460.378963 
L 426.743238 458.040273 
L 427.479117 457.100513 
L 428.214996 458.216988 
L 428.950874 458.546218 
L 429.686753 460.388502 
L 430.422632 455.301153 
L 431.15851 446.818904 
L 431.894389 453.188111 
L 432.630268 441.654162 
L 433.366147 446.384977 
L 434.102025 452.555627 
L 434.837904 453.58009 
L 435.573783 458.161465 
L 436.309662 461.250049 
L 437.04554 462.582916 
L 437.781419 468.798796 
L 438.517298 471.047591 
L 439.253176 471.068735 
L 439.989055 470.146782 
L 440.724934 470.275438 
L 441.460813 469.817297 
L 442.196691 471.472403 
L 442.93257 474.28927 
L 443.668449 480.662322 
L 444.404328 483.721191 
L 445.140206 488.81522 
L 445.876085 492.960516 
L 446.611964 492.715918 
L 447.347843 494.03902 
L 448.083721 492.531351 
L 448.8196 492.892407 
L 449.555479 492.543288 
L 450.291357 494.130651 
L 451.027236 496.654713 
L 451.763115 496.285974 
L 452.498994 496.623995 
L 453.234872 497.714175 
L 453.970751 499.567351 
L 454.70663 499.766402 
L 455.442509 502.360654 
L 456.178387 502.309442 
L 456.914266 503.828378 
L 457.650145 498.31839 
L 458.386023 493.915487 
L 459.121902 496.342351 
L 459.857781 493.407284 
L 460.59366 498.29925 
L 461.329538 497.233127 
L 462.065417 493.793639 
L 462.801296 496.713213 
L 464.273053 504.808196 
L 465.008932 505.487117 
L 465.744811 509.041172 
L 466.480689 509.604539 
L 467.216568 511.337095 
L 467.952447 518.910026 
L 468.688326 518.289211 
L 469.424204 516.584826 
L 470.160083 518.801696 
L 470.895962 519.464948 
L 471.631841 516.387665 
L 472.367719 511.342972 
L 473.103598 512.422266 
L 473.839477 517.223526 
L 474.575355 515.66082 
L 475.311234 515.690578 
L 476.047113 517.291769 
L 476.782992 520.987235 
L 477.51887 520.161055 
L 478.254749 522.261834 
L 478.990628 522.860949 
L 479.726507 527.481546 
L 480.462385 529.157598 
L 481.198264 530.550486 
L 481.934143 533.941217 
L 482.670021 536.51684 
L 484.141779 533.92141 
L 484.877658 535.077329 
L 485.613536 537.289864 
L 487.085294 538.50112 
L 487.821173 538.668846 
L 488.557051 535.662763 
L 489.29293 535.336884 
L 490.028809 532.925516 
L 491.500566 526.384201 
L 492.236445 527.484209 
L 492.972324 527.900055 
L 493.708202 529.109864 
L 494.444081 528.248895 
L 495.17996 517.609641 
L 495.915839 523.40224 
L 497.387596 531.344541 
L 498.123475 530.869649 
L 498.859353 534.56629 
L 499.595232 533.074092 
L 500.331111 534.376428 
L 501.06699 535.068708 
L 501.802868 534.282656 
L 502.538747 529.636174 
L 503.274626 530.458414 
L 504.010505 530.307214 
L 504.746383 533.218145 
L 506.218141 542.039961 
L 506.954019 545.738245 
L 508.425777 550.481766 
L 509.897534 552.305657 
L 510.633413 554.212868 
L 511.369292 555.608628 
L 512.841049 554.939449 
L 513.576928 556.605125 
L 514.312807 556.132859 
L 515.048685 555.08625 
L 516.520443 554.681054 
L 517.256322 554.116471 
L 517.9922 555.823232 
L 518.728079 556.146214 
L 519.463958 555.984743 
L 520.199837 553.886473 
L 520.935715 550.013485 
L 521.671594 551.228666 
L 522.407473 549.996178 
L 523.143352 550.937159 
L 523.87923 547.532568 
L 524.615109 550.039493 
L 525.350988 549.275598 
L 526.086866 550.747396 
L 526.822745 552.940554 
L 527.558624 553.034168 
L 528.294503 557.717404 
L 529.030381 558.186394 
L 529.76626 559.886093 
L 530.502139 560.931825 
L 531.238018 561.125319 
L 531.973896 563.095922 
L 532.709775 564.074557 
L 533.445654 565.578728 
L 534.181532 562.061819 
L 534.917411 564.536977 
L 536.389169 563.736093 
L 537.125047 564.746434 
L 538.596805 562.859183 
L 539.332684 565.159513 
L 540.068562 563.294305 
L 540.804441 564.473195 
L 541.54032 561.083048 
L 542.276198 562.014487 
L 543.012077 561.854254 
L 543.747956 561.465582 
L 544.483835 560.767281 
L 545.219713 560.99567 
L 545.955592 562.545638 
L 546.691471 562.670812 
L 547.42735 562.157367 
L 548.163228 564.007654 
L 548.899107 562.548936 
L 549.634986 565.172186 
L 551.106743 566.155715 
L 551.842622 566.92811 
L 552.578501 565.001218 
L 553.314379 567.063618 
L 554.050258 569.527179 
L 554.786137 568.44787 
L 555.522016 569.806719 
L 556.257894 570.303383 
L 556.993773 567.838925 
L 557.729652 569.934128 
L 558.46553 568.672425 
L 559.201409 570.822176 
L 559.937288 571.812285 
L 560.673167 571.473717 
L 561.409045 573.064709 
L 562.144924 570.849929 
L 562.880803 572.04943 
L 563.616682 571.236199 
L 564.35256 571.925269 
L 565.088439 571.832774 
L 565.824318 571.379091 
L 566.560196 569.494249 
L 567.296075 571.232081 
L 568.031954 570.401613 
L 568.767833 566.70368 
L 569.503711 567.887822 
L 570.23959 568.355231 
L 570.975469 568.198138 
L 571.711348 569.708926 
L 572.447226 572.079642 
L 573.918984 573.875214 
L 574.654862 574.410754 
L 575.390741 575.708204 
L 576.12662 574.68119 
L 576.862499 574.544885 
L 577.598377 574.016703 
L 578.334256 574.282413 
L 579.070135 574.736076 
L 579.806014 576.543031 
L 580.541892 577.199982 
L 581.277771 577.067138 
L 582.01365 575.860079 
L 582.749528 574.358039 
L 583.485407 572.357659 
L 584.221286 570.715644 
L 584.957165 570.967323 
L 585.693043 573.618408 
L 586.428922 574.954677 
L 587.164801 574.193902 
L 587.90068 574.288194 
L 588.636558 575.250593 
L 590.108316 578.124337 
L 590.844194 578.541058 
L 591.580073 578.619733 
L 592.315952 579.293463 
L 593.051831 578.940823 
L 593.787709 577.918108 
L 594.523588 578.788907 
L 595.259467 576.664647 
L 595.995346 577.73419 
L 596.731224 578.354632 
L 597.467103 578.653989 
L 598.202982 578.607809 
L 598.938861 578.150536 
L 599.674739 578.867415 
L 600.410618 577.554703 
L 601.146497 576.804224 
L 601.882375 576.479898 
L 602.618254 576.874109 
L 603.354133 576.635132 
L 604.090012 576.892981 
L 604.82589 576.027794 
L 605.561769 573.732918 
L 606.297648 576.216321 
L 608.505284 578.545304 
L 609.241163 578.826567 
L 609.977041 578.40497 
L 610.71292 578.835587 
L 611.448799 580.033222 
L 612.920556 580.979962 
L 613.656435 579.998202 
L 614.392314 579.758508 
L 615.128193 579.305711 
L 615.864071 578.501766 
L 616.59995 578.204293 
L 617.335829 576.538883 
L 618.071707 576.519861 
L 618.807586 578.070109 
L 619.543465 578.774057 
L 620.279344 579.189928 
L 621.015222 580.046609 
L 621.751101 579.412796 
L 622.48698 579.571485 
L 623.222859 580.195735 
L 623.958737 581.258536 
L 626.902252 582.031332 
L 627.638131 581.820592 
L 628.37401 581.159338 
L 629.109888 581.330968 
L 629.845767 581.882443 
L 630.581646 581.629915 
L 631.317525 582.218534 
L 632.053403 581.419818 
L 632.789282 581.291897 
L 633.525161 580.858086 
L 634.261039 581.049981 
L 635.732797 580.782169 
L 636.468676 581.554063 
L 637.204554 581.307251 
L 637.940433 581.842605 
L 638.676312 580.837295 
L 639.412191 580.456645 
L 640.148069 579.588325 
L 640.883948 579.053085 
L 641.619827 579.255793 
L 642.355705 580.446501 
L 643.091584 580.825284 
L 643.827463 578.92072 
L 644.563342 580.556316 
L 645.29922 580.599558 
L 646.035099 581.020403 
L 646.770978 581.175126 
L 647.506857 581.698217 
L 649.714493 582.809675 
L 650.450371 583.236303 
L 651.18625 583.250023 
L 652.658008 582.827435 
L 654.129765 583.272135 
L 654.865644 582.971593 
L 655.601523 583.291657 
L 656.337401 582.190368 
L 657.07328 582.226912 
L 657.809159 582.462647 
L 658.545037 582.034595 
L 659.280916 581.219501 
L 660.016795 581.23985 
L 660.752674 581.381171 
L 661.488552 581.289985 
L 662.224431 581.439671 
L 662.96031 581.748877 
L 663.696189 581.299089 
L 664.432067 582.239129 
L 665.167946 582.181103 
L 665.903825 581.906052 
L 666.639703 582.141625 
L 668.111461 582.109037 
L 668.84734 582.020533 
L 669.583218 582.400991 
L 670.319097 582.414421 
L 671.054976 583.072587 
L 672.526733 583.195159 
L 673.262612 583.500122 
L 674.734369 582.051699 
L 675.470248 583.057458 
L 676.206127 582.969105 
L 676.942006 582.332977 
L 679.149642 582.026064 
L 679.885521 582.258029 
L 680.621399 582.314276 
L 681.357278 582.24395 
L 682.093157 581.528956 
L 682.829036 582.771415 
L 683.564914 583.230819 
L 684.300793 583.200804 
L 685.036672 582.89474 
L 685.77255 582.465074 
L 686.508429 582.906046 
L 687.244308 583.036147 
L 687.980187 583.344558 
L 689.451944 583.584074 
L 692.395459 583.452755 
L 693.867216 583.705474 
L 696.074853 583.828333 
L 696.810731 583.690806 
L 697.54661 583.812905 
L 698.282489 583.292986 
L 699.754246 583.238034 
L 701.226004 582.632583 
L 701.961882 582.904573 
L 702.697761 582.797111 
L 703.43364 582.949267 
L 704.169519 583.304967 
L 704.905397 583.009009 
L 705.641276 583.265534 
L 706.377155 583.278639 
L 707.848912 584.009437 
L 709.32067 583.986294 
L 710.056548 583.896438 
L 711.528306 584.153366 
L 715.2077 584.393174 
L 717.415336 584.291745 
L 720.358851 584.295406 
L 721.830608 582.9974 
L 722.566487 582.262613 
L 723.302366 582.542405 
L 724.038244 582.521235 
L 724.774123 583.263978 
L 725.510002 581.982827 
L 726.24588 583.174709 
L 727.717638 582.84144 
L 728.453517 583.189823 
L 729.189395 583.877075 
L 730.661153 584.158356 
L 735.076425 584.364401 
L 748.322242 584.535134 
L 761.568059 584.575321 
L 763.039817 584.38785 
L 764.511574 582.893262 
L 765.247453 583.30331 
L 765.983332 582.916511 
L 766.719211 583.289935 
L 767.455089 582.997556 
L 768.190968 583.354512 
L 768.926847 583.199397 
L 769.662725 583.887464 
L 770.398604 583.17987 
L 771.134483 583.770478 
L 771.870362 583.960803 
L 772.60624 584.025109 
L 773.342119 583.357764 
L 774.077998 583.947144 
L 774.813877 584.121106 
L 775.549755 584.019399 
L 780.700906 584.384029 
L 783.644421 584.22235 
L 784.3803 583.938644 
L 785.852057 584.262216 
L 786.587936 584.057797 
L 787.323815 584.058907 
L 788.059694 583.70509 
L 789.531451 583.524244 
L 790.26733 582.686973 
L 791.003209 583.807467 
L 791.739087 583.800801 
L 792.474966 583.999648 
L 793.946723 584.122777 
L 795.418481 584.292796 
L 798.361996 584.359009 
L 799.097875 584.254977 
L 804.249026 584.515257 
L 813.815449 584.611624 
L 824.117751 584.634236 
L 824.85363 584.483935 
L 825.589509 583.69115 
L 826.325387 583.826712 
L 827.061266 583.713349 
L 828.533024 583.919288 
L 829.268902 583.80425 
L 830.004781 584.076226 
L 830.74066 583.910859 
L 831.476539 583.906873 
L 832.212417 584.035645 
L 832.948296 583.88142 
L 833.684175 584.209923 
L 835.155932 584.324262 
L 838.835326 584.505206 
L 839.571205 584.347613 
L 840.307083 584.379104 
L 841.042962 584.12549 
L 843.250598 583.879582 
L 843.986477 583.9321 
L 845.458234 584.354408 
L 846.194113 584.162183 
L 848.401749 584.308309 
L 849.137628 584.506692 
L 850.609386 584.569054 
L 851.345264 584.356226 
L 852.817022 584.481443 
L 877.836898 584.64611 
L 878.572777 584.014212 
L 879.308656 584.004645 
L 880.044535 583.855818 
L 880.780413 583.414826 
L 881.516292 583.973953 
L 882.252171 583.81576 
L 882.98805 583.508171 
L 883.723928 584.039715 
L 884.459807 584.100832 
L 885.195686 584.360979 
L 885.931564 584.324928 
L 887.403322 584.45686 
L 888.139201 583.72035 
L 888.875079 584.107133 
L 890.346837 584.489781 
L 902.856775 584.526861 
L 904.328533 584.352173 
L 905.064411 584.328019 
L 905.80029 584.005428 
L 910.951441 584.400336 
L 911.68732 584.211716 
L 913.159077 584.351475 
L 914.630835 584.295864 
L 919.781986 584.511717 
L 920.517865 584.431336 
L 921.989622 584.507868 
L 923.46138 584.458429 
L 925.669016 584.352559 
L 926.404895 584.271137 
L 927.140773 584.029651 
L 928.612531 584.430523 
L 932.291924 584.576523 
L 941.122469 584.598302 
L 950.688893 584.643279 
L 959.519437 584.650514 
L 960.255316 584.293968 
L 960.991195 584.259212 
L 961.727073 584.052636 
L 962.462952 584.11569 
L 963.93471 583.905889 
L 964.670588 583.878169 
L 966.142346 584.297603 
L 966.878225 584.492456 
L 967.614103 584.436121 
L 969.821739 584.624004 
L 978.652284 584.58768 
L 979.388163 584.423526 
L 983.803435 584.513162 
L 985.275193 584.501067 
L 986.74695 584.465673 
L 987.482829 584.600258 
L 988.954586 584.527751 
L 993.369859 584.495371 
L 995.577495 584.569183 
L 996.313374 584.324279 
L 999.992767 584.601656 
L 1001.464525 584.550517 
L 1001.464525 584.550517 
" clip-path="url(#p6da4b923e0)" style="fill: none; stroke: #dd8452; stroke-width: 2; stroke-linecap: round"/>
   </g>
   <g id="line2d_15"/>
   <g id="line2d_16"/>
   <g id="patch_3">
    <path d="M 75.03 609.894375 
L 75.03 54.554375 
" style="fill: none; stroke: #cccccc; stroke-width: 1.875; stroke-linejoin: miter; stroke-linecap: square"/>
   </g>
   <g id="patch_4">
    <path d="M 1045.580455 609.894375 
L 1045.580455 54.554375 
" style="fill: none; stroke: #cccccc; stroke-width: 1.875; stroke-linejoin: miter; stroke-linecap: square"/>
   </g>
   <g id="patch_5">
    <path d="M 75.03 609.894375 
L 1045.580455 609.894375 
" style="fill: none; stroke: #cccccc; stroke-width: 1.875; stroke-linejoin: miter; stroke-linecap: square"/>
   </g>
   <g id="patch_6">
    <path d="M 75.03 54.554375 
L 1045.580455 54.554375 
" style="fill: none; stroke: #cccccc; stroke-width: 1.875; stroke-linejoin: miter; stroke-linecap: square"/>
   </g>
   <g id="text_15">
    <!-- Training Progress: Loss -->
    <g style="fill: #262626" transform="translate(323.307102 34.554375) scale(0.36 -0.36)">
     <defs>
      <path id="DejaVuSans-Bold-54" d="M 31 4666 
L 4331 4666 
L 4331 3756 
L 2784 3756 
L 2784 0 
L 1581 0 
L 1581 3756 
L 31 3756 
L 31 4666 
z
" transform="scale(0.015625)"/>
      <path id="DejaVuSans-Bold-72" d="M 3138 2547 
Q 2991 2616 2845 2648 
Q 2700 2681 2553 2681 
Q 2122 2681 1889 2404 
Q 1656 2128 1656 1613 
L 1656 0 
L 538 0 
L 538 3500 
L 1656 3500 
L 1656 2925 
Q 1872 3269 2151 3426 
Q 2431 3584 2822 3584 
Q 2878 3584 2943 3579 
Q 3009 3575 3134 3559 
L 3138 2547 
z
" transform="scale(0.015625)"/>
      <path id="DejaVuSans-Bold-61" d="M 2106 1575 
Q 1756 1575 1579 1456 
Q 1403 1338 1403 1106 
Q 1403 894 1545 773 
Q 1688 653 1941 653 
Q 2256 653 2472 879 
Q 2688 1106 2688 1447 
L 2688 1575 
L 2106 1575 
z
M 3816 1997 
L 3816 0 
L 2688 0 
L 2688 519 
Q 2463 200 2181 54 
Q 1900 -91 1497 -91 
Q 953 -91 614 226 
Q 275 544 275 1050 
Q 275 1666 698 1953 
Q 1122 2241 2028 2241 
L 2688 2241 
L 2688 2328 
Q 2688 2594 2478 2717 
Q 2269 2841 1825 2841 
Q 1466 2841 1156 2769 
Q 847 2697 581 2553 
L 581 3406 
Q 941 3494 1303 3539 
Q 1666 3584 2028 3584 
Q 2975 3584 3395 3211 
Q 3816 2838 3816 1997 
z
" transform="scale(0.015625)"/>
      <path id="DejaVuSans-Bold-69" d="M 538 3500 
L 1656 3500 
L 1656 0 
L 538 0 
L 538 3500 
z
M 538 4863 
L 1656 4863 
L 1656 3950 
L 538 3950 
L 538 4863 
z
" transform="scale(0.015625)"/>
      <path id="DejaVuSans-Bold-6e" d="M 4056 2131 
L 4056 0 
L 2931 0 
L 2931 347 
L 2931 1631 
Q 2931 2084 2911 2256 
Q 2891 2428 2841 2509 
Q 2775 2619 2662 2680 
Q 2550 2741 2406 2741 
Q 2056 2741 1856 2470 
Q 1656 2200 1656 1722 
L 1656 0 
L 538 0 
L 538 3500 
L 1656 3500 
L 1656 2988 
Q 1909 3294 2193 3439 
Q 2478 3584 2822 3584 
Q 3428 3584 3742 3212 
Q 4056 2841 4056 2131 
z
" transform="scale(0.015625)"/>
      <path id="DejaVuSans-Bold-67" d="M 2919 594 
Q 2688 288 2409 144 
Q 2131 0 1766 0 
Q 1125 0 706 504 
Q 288 1009 288 1791 
Q 288 2575 706 3076 
Q 1125 3578 1766 3578 
Q 2131 3578 2409 3434 
Q 2688 3291 2919 2981 
L 2919 3500 
L 4044 3500 
L 4044 353 
Q 4044 -491 3511 -936 
Q 2978 -1381 1966 -1381 
Q 1638 -1381 1331 -1331 
Q 1025 -1281 716 -1178 
L 716 -306 
Q 1009 -475 1290 -558 
Q 1572 -641 1856 -641 
Q 2406 -641 2662 -400 
Q 2919 -159 2919 353 
L 2919 594 
z
M 2181 2772 
Q 1834 2772 1640 2515 
Q 1447 2259 1447 1791 
Q 1447 1309 1634 1061 
Q 1822 813 2181 813 
Q 2531 813 2725 1069 
Q 2919 1325 2919 1791 
Q 2919 2259 2725 2515 
Q 2531 2772 2181 2772 
z
" transform="scale(0.015625)"/>
      <path id="DejaVuSans-Bold-20" transform="scale(0.015625)"/>
      <path id="DejaVuSans-Bold-50" d="M 588 4666 
L 2584 4666 
Q 3475 4666 3951 4270 
Q 4428 3875 4428 3144 
Q 4428 2409 3951 2014 
Q 3475 1619 2584 1619 
L 1791 1619 
L 1791 0 
L 588 0 
L 588 4666 
z
M 1791 3794 
L 1791 2491 
L 2456 2491 
Q 2806 2491 2997 2661 
Q 3188 2831 3188 3144 
Q 3188 3456 2997 3625 
Q 2806 3794 2456 3794 
L 1791 3794 
z
" transform="scale(0.015625)"/>
      <path id="DejaVuSans-Bold-6f" d="M 2203 2784 
Q 1831 2784 1636 2517 
Q 1441 2250 1441 1747 
Q 1441 1244 1636 976 
Q 1831 709 2203 709 
Q 2569 709 2762 976 
Q 2956 1244 2956 1747 
Q 2956 2250 2762 2517 
Q 2569 2784 2203 2784 
z
M 2203 3584 
Q 3106 3584 3614 3096 
Q 4122 2609 4122 1747 
Q 4122 884 3614 396 
Q 3106 -91 2203 -91 
Q 1297 -91 786 396 
Q 275 884 275 1747 
Q 275 2609 786 3096 
Q 1297 3584 2203 3584 
z
" transform="scale(0.015625)"/>
      <path id="DejaVuSans-Bold-65" d="M 4031 1759 
L 4031 1441 
L 1416 1441 
Q 1456 1047 1700 850 
Q 1944 653 2381 653 
Q 2734 653 3104 758 
Q 3475 863 3866 1075 
L 3866 213 
Q 3469 63 3072 -14 
Q 2675 -91 2278 -91 
Q 1328 -91 801 392 
Q 275 875 275 1747 
Q 275 2603 792 3093 
Q 1309 3584 2216 3584 
Q 3041 3584 3536 3087 
Q 4031 2591 4031 1759 
z
M 2881 2131 
Q 2881 2450 2695 2645 
Q 2509 2841 2209 2841 
Q 1884 2841 1681 2658 
Q 1478 2475 1428 2131 
L 2881 2131 
z
" transform="scale(0.015625)"/>
      <path id="DejaVuSans-Bold-73" d="M 3272 3391 
L 3272 2541 
Q 2913 2691 2578 2766 
Q 2244 2841 1947 2841 
Q 1628 2841 1473 2761 
Q 1319 2681 1319 2516 
Q 1319 2381 1436 2309 
Q 1553 2238 1856 2203 
L 2053 2175 
Q 2913 2066 3209 1816 
Q 3506 1566 3506 1031 
Q 3506 472 3093 190 
Q 2681 -91 1863 -91 
Q 1516 -91 1145 -36 
Q 775 19 384 128 
L 384 978 
Q 719 816 1070 734 
Q 1422 653 1784 653 
Q 2113 653 2278 743 
Q 2444 834 2444 1013 
Q 2444 1163 2330 1236 
Q 2216 1309 1875 1350 
L 1678 1375 
Q 931 1469 631 1722 
Q 331 1975 331 2491 
Q 331 3047 712 3315 
Q 1094 3584 1881 3584 
Q 2191 3584 2531 3537 
Q 2872 3491 3272 3391 
z
" transform="scale(0.015625)"/>
      <path id="DejaVuSans-Bold-3a" d="M 716 3500 
L 1844 3500 
L 1844 2291 
L 716 2291 
L 716 3500 
z
M 716 1209 
L 1844 1209 
L 1844 0 
L 716 0 
L 716 1209 
z
" transform="scale(0.015625)"/>
      <path id="DejaVuSans-Bold-4c" d="M 588 4666 
L 1791 4666 
L 1791 909 
L 3903 909 
L 3903 0 
L 588 0 
L 588 4666 
z
" transform="scale(0.015625)"/>
     </defs>
     <use xlink:href="#DejaVuSans-Bold-54"/>
     <use xlink:href="#DejaVuSans-Bold-72" transform="translate(57.212891 0)"/>
     <use xlink:href="#DejaVuSans-Bold-61" transform="translate(106.529297 0)"/>
     <use xlink:href="#DejaVuSans-Bold-69" transform="translate(174.009766 0)"/>
     <use xlink:href="#DejaVuSans-Bold-6e" transform="translate(208.287109 0)"/>
     <use xlink:href="#DejaVuSans-Bold-69" transform="translate(279.478516 0)"/>
     <use xlink:href="#DejaVuSans-Bold-6e" transform="translate(313.755859 0)"/>
     <use xlink:href="#DejaVuSans-Bold-67" transform="translate(384.947266 0)"/>
     <use xlink:href="#DejaVuSans-Bold-20" transform="translate(456.529297 0)"/>
     <use xlink:href="#DejaVuSans-Bold-50" transform="translate(491.34375 0)"/>
     <use xlink:href="#DejaVuSans-Bold-72" transform="translate(564.634766 0)"/>
     <use xlink:href="#DejaVuSans-Bold-6f" transform="translate(613.951172 0)"/>
     <use xlink:href="#DejaVuSans-Bold-67" transform="translate(682.652344 0)"/>
     <use xlink:href="#DejaVuSans-Bold-72" transform="translate(754.234375 0)"/>
     <use xlink:href="#DejaVuSans-Bold-65" transform="translate(803.550781 0)"/>
     <use xlink:href="#DejaVuSans-Bold-73" transform="translate(871.373047 0)"/>
     <use xlink:href="#DejaVuSans-Bold-73" transform="translate(930.894531 0)"/>
     <use xlink:href="#DejaVuSans-Bold-3a" transform="translate(990.416016 0)"/>
     <use xlink:href="#DejaVuSans-Bold-20" transform="translate(1030.40625 0)"/>
     <use xlink:href="#DejaVuSans-Bold-4c" transform="translate(1065.220703 0)"/>
     <use xlink:href="#DejaVuSans-Bold-6f" transform="translate(1128.941406 0)"/>
     <use xlink:href="#DejaVuSans-Bold-73" transform="translate(1197.642578 0)"/>
     <use xlink:href="#DejaVuSans-Bold-73" transform="translate(1257.164062 0)"/>
    </g>
   </g>
   <g id="legend_1">
    <g id="patch_7">
     <path d="M 846.300455 174.094375 
L 1023.180455 174.094375 
Q 1029.580455 174.094375 1029.580455 167.694375 
L 1029.580455 76.954375 
Q 1029.580455 70.554375 1023.180455 70.554375 
L 846.300455 70.554375 
Q 839.900455 70.554375 839.900455 76.954375 
L 839.900455 167.694375 
Q 839.900455 174.094375 846.300455 174.094375 
z
" style="fill: #ffffff; opacity: 0.8; stroke: #cccccc; stroke-width: 1.5; stroke-linejoin: miter"/>
    </g>
    <g id="line2d_17">
     <path d="M 852.700455 96.469375 
L 884.700455 96.469375 
L 916.700455 96.469375 
" style="fill: none; stroke: #4c72b0; stroke-width: 2; stroke-linecap: round"/>
    </g>
    <g id="text_16">
     <!-- train -->
     <g style="fill: #262626" transform="translate(942.300455 107.669375) scale(0.32 -0.32)">
      <defs>
       <path id="DejaVuSans-74" d="M 1172 4494 
L 1172 3500 
L 2356 3500 
L 2356 3053 
L 1172 3053 
L 1172 1153 
Q 1172 725 1289 603 
Q 1406 481 1766 481 
L 2356 481 
L 2356 0 
L 1766 0 
Q 1100 0 847 248 
Q 594 497 594 1153 
L 594 3053 
L 172 3053 
L 172 3500 
L 594 3500 
L 594 4494 
L 1172 4494 
z
" transform="scale(0.015625)"/>
       <path id="DejaVuSans-72" d="M 2631 2963 
Q 2534 3019 2420 3045 
Q 2306 3072 2169 3072 
Q 1681 3072 1420 2755 
Q 1159 2438 1159 1844 
L 1159 0 
L 581 0 
L 581 3500 
L 1159 3500 
L 1159 2956 
Q 1341 3275 1631 3429 
Q 1922 3584 2338 3584 
Q 2397 3584 2469 3576 
Q 2541 3569 2628 3553 
L 2631 2963 
z
" transform="scale(0.015625)"/>
       <path id="DejaVuSans-61" d="M 2194 1759 
Q 1497 1759 1228 1600 
Q 959 1441 959 1056 
Q 959 750 1161 570 
Q 1363 391 1709 391 
Q 2188 391 2477 730 
Q 2766 1069 2766 1631 
L 2766 1759 
L 2194 1759 
z
M 3341 1997 
L 3341 0 
L 2766 0 
L 2766 531 
Q 2569 213 2275 61 
Q 1981 -91 1556 -91 
Q 1019 -91 701 211 
Q 384 513 384 1019 
Q 384 1609 779 1909 
Q 1175 2209 1959 2209 
L 2766 2209 
L 2766 2266 
Q 2766 2663 2505 2880 
Q 2244 3097 1772 3097 
Q 1472 3097 1187 3025 
Q 903 2953 641 2809 
L 641 3341 
Q 956 3463 1253 3523 
Q 1550 3584 1831 3584 
Q 2591 3584 2966 3190 
Q 3341 2797 3341 1997 
z
" transform="scale(0.015625)"/>
       <path id="DejaVuSans-69" d="M 603 3500 
L 1178 3500 
L 1178 0 
L 603 0 
L 603 3500 
z
M 603 4863 
L 1178 4863 
L 1178 4134 
L 603 4134 
L 603 4863 
z
" transform="scale(0.015625)"/>
       <path id="DejaVuSans-6e" d="M 3513 2113 
L 3513 0 
L 2938 0 
L 2938 2094 
Q 2938 2591 2744 2837 
Q 2550 3084 2163 3084 
Q 1697 3084 1428 2787 
Q 1159 2491 1159 1978 
L 1159 0 
L 581 0 
L 581 3500 
L 1159 3500 
L 1159 2956 
Q 1366 3272 1645 3428 
Q 1925 3584 2291 3584 
Q 2894 3584 3203 3211 
Q 3513 2838 3513 2113 
z
" transform="scale(0.015625)"/>
      </defs>
      <use xlink:href="#DejaVuSans-74"/>
      <use xlink:href="#DejaVuSans-72" transform="translate(39.208984 0)"/>
      <use xlink:href="#DejaVuSans-61" transform="translate(80.322266 0)"/>
      <use xlink:href="#DejaVuSans-69" transform="translate(141.601562 0)"/>
      <use xlink:href="#DejaVuSans-6e" transform="translate(169.384766 0)"/>
     </g>
    </g>
    <g id="line2d_18">
     <path d="M 852.700455 143.439375 
L 884.700455 143.439375 
L 916.700455 143.439375 
" style="fill: none; stroke: #dd8452; stroke-width: 2; stroke-linecap: round"/>
    </g>
    <g id="text_17">
     <!-- val -->
     <g style="fill: #262626" transform="translate(942.300455 154.639375) scale(0.32 -0.32)">
      <defs>
       <path id="DejaVuSans-76" d="M 191 3500 
L 800 3500 
L 1894 563 
L 2988 3500 
L 3597 3500 
L 2284 0 
L 1503 0 
L 191 3500 
z
" transform="scale(0.015625)"/>
       <path id="DejaVuSans-6c" d="M 603 4863 
L 1178 4863 
L 1178 0 
L 603 0 
L 603 4863 
z
" transform="scale(0.015625)"/>
      </defs>
      <use xlink:href="#DejaVuSans-76"/>
      <use xlink:href="#DejaVuSans-61" transform="translate(59.179688 0)"/>
      <use xlink:href="#DejaVuSans-6c" transform="translate(120.458984 0)"/>
     </g>
    </g>
   </g>
  </g>
 </g>
 <defs>
  <clipPath id="p6da4b923e0">
   <rect x="75.03" y="54.554375" width="970.550455" height="555.34"/>
  </clipPath>
 </defs>
</svg>
