<?xml version="1.0" encoding="utf-8" standalone="no"?>
<!DOCTYPE svg PUBLIC "-//W3C//DTD SVG 1.1//EN"
  "http://www.w3.org/Graphics/SVG/1.1/DTD/svg11.dtd">
<svg xmlns:xlink="http://www.w3.org/1999/xlink" width="1052.845455pt" height="695.534375pt" viewBox="0 0 1052.845455 695.534375" xmlns="http://www.w3.org/2000/svg" version="1.1">
 <metadata>
  <rdf:RDF xmlns:dc="http://purl.org/dc/elements/1.1/" xmlns:cc="http://creativecommons.org/ns#" xmlns:rdf="http://www.w3.org/1999/02/22-rdf-syntax-ns#">
   <cc:Work>
    <dc:type rdf:resource="http://purl.org/dc/dcmitype/StillImage"/>
    <dc:date>2026-04-10T18:34:16.111814</dc:date>
    <dc:format>image/svg+xml</dc:format>
    <dc:creator>
     <cc:Agent>
      <dc:title>Matplotlib v3.10.8, https://matplotlib.org/</dc:title>
     </cc:Agent>
    </dc:creator>
   </cc:Work>
  </rdf:RDF>
 </metadata>
 <defs>
  <style type="text/css">*{stroke-linejoin: round; stroke-linecap: butt}</style>
 </defs>
 <g id="figure_1">
  <g id="patch_1">
   <path d="M 0 695.534375 
L 1052.845455 695.534375 
L 1052.845455 0 
L 0 0 
z
" style="fill: #ffffff"/>
  </g>
  <g id="axes_1">
   <g id="patch_2">
    <path d="M 95.39 609.894375 
L 1045.645455 609.894375 
L 1045.645455 54.554375 
L 95.39 54.554375 
z
" style="fill: #ffffff"/>
   </g>
   <g id="matplotlib.axis_1">
    <g id="xtick_1">
     <g id="line2d_1">
      <path d="M 137.718696 609.894375 
L 137.718696 54.554375 
" clip-path="url(#pc65fb53565)" style="fill: none; stroke: #cccccc; stroke-opacity: 0.3; stroke-width: 1.5; stroke-linecap: round"/>
     </g>
     <g id="text_1">
      <!-- 0 -->
      <g style="fill: #262626" transform="translate(127.538696 646.709375) scale(0.32 -0.32)">
       <defs>
        <path id="DejaVuSans-30" d="M 2034 4250 
Q 1547 4250 1301 3770 
Q 1056 3291 1056 2328 
Q 1056 1369 1301 889 
Q 1547 409 2034 409 
Q 2525 409 2770 889 
Q 3016 1369 3016 2328 
Q 3016 3291 2770 3770 
Q 2525 4250 2034 4250 
z
M 2034 4750 
Q 2819 4750 3233 4129 
Q 3647 3509 3647 2328 
Q 3647 1150 3233 529 
Q 2819 -91 2034 -91 
Q 1250 -91 836 529 
Q 422 1150 422 2328 
Q 422 3509 836 4129 
Q 1250 4750 2034 4750 
z
" transform="scale(0.015625)"/>
       </defs>
       <use xlink:href="#DejaVuSans-30"/>
      </g>
     </g>
    </g>
    <g id="xtick_2">
     <g id="line2d_2">
      <path d="M 310.665362 609.894375 
L 310.665362 54.554375 
" clip-path="url(#pc65fb53565)" style="fill: none; stroke: #cccccc; stroke-opacity: 0.3; stroke-width: 1.5; stroke-linecap: round"/>
     </g>
     <g id="text_2">
      <!-- 200 -->
      <g style="fill: #262626" transform="translate(280.125362 646.709375) scale(0.32 -0.32)">
       <defs>
        <path id="DejaVuSans-32" d="M 1228 531 
L 3431 531 
L 3431 0 
L 469 0 
L 469 531 
Q 828 903 1448 1529 
Q 2069 2156 2228 2338 
Q 2531 2678 2651 2914 
Q 2772 3150 2772 3378 
Q 2772 3750 2511 3984 
Q 2250 4219 1831 4219 
Q 1534 4219 1204 4116 
Q 875 4013 500 3803 
L 500 4441 
Q 881 4594 1212 4672 
Q 1544 4750 1819 4750 
Q 2544 4750 2975 4387 
Q 3406 4025 3406 3419 
Q 3406 3131 3298 2873 
Q 3191 2616 2906 2266 
Q 2828 2175 2409 1742 
Q 1991 1309 1228 531 
z
" transform="scale(0.015625)"/>
       </defs>
       <use xlink:href="#DejaVuSans-32"/>
       <use xlink:href="#DejaVuSans-30" transform="translate(63.623047 0)"/>
       <use xlink:href="#DejaVuSans-30" transform="translate(127.246094 0)"/>
      </g>
     </g>
    </g>
    <g id="xtick_3">
     <g id="line2d_3">
      <path d="M 483.612028 609.894375 
L 483.612028 54.554375 
" clip-path="url(#pc65fb53565)" style="fill: none; stroke: #cccccc; stroke-opacity: 0.3; stroke-width: 1.5; stroke-linecap: round"/>
     </g>
     <g id="text_3">
      <!-- 400 -->
      <g style="fill: #262626" transform="translate(453.072028 646.709375) scale(0.32 -0.32)">
       <defs>
        <path id="DejaVuSans-34" d="M 2419 4116 
L 825 1625 
L 2419 1625 
L 2419 4116 
z
M 2253 4666 
L 3047 4666 
L 3047 1625 
L 3713 1625 
L 3713 1100 
L 3047 1100 
L 3047 0 
L 2419 0 
L 2419 1100 
L 313 1100 
L 313 1709 
L 2253 4666 
z
" transform="scale(0.015625)"/>
       </defs>
       <use xlink:href="#DejaVuSans-34"/>
       <use xlink:href="#DejaVuSans-30" transform="translate(63.623047 0)"/>
       <use xlink:href="#DejaVuSans-30" transform="translate(127.246094 0)"/>
      </g>
     </g>
    </g>
    <g id="xtick_4">
     <g id="line2d_4">
      <path d="M 656.558693 609.894375 
L 656.558693 54.554375 
" clip-path="url(#pc65fb53565)" style="fill: none; stroke: #cccccc; stroke-opacity: 0.3; stroke-width: 1.5; stroke-linecap: round"/>
     </g>
     <g id="text_4">
      <!-- 600 -->
      <g style="fill: #262626" transform="translate(626.018693 646.709375) scale(0.32 -0.32)">
       <defs>
        <path id="DejaVuSans-36" d="M 2113 2584 
Q 1688 2584 1439 2293 
Q 1191 2003 1191 1497 
Q 1191 994 1439 701 
Q 1688 409 2113 409 
Q 2538 409 2786 701 
Q 3034 994 3034 1497 
Q 3034 2003 2786 2293 
Q 2538 2584 2113 2584 
z
M 3366 4563 
L 3366 3988 
Q 3128 4100 2886 4159 
Q 2644 4219 2406 4219 
Q 1781 4219 1451 3797 
Q 1122 3375 1075 2522 
Q 1259 2794 1537 2939 
Q 1816 3084 2150 3084 
Q 2853 3084 3261 2657 
Q 3669 2231 3669 1497 
Q 3669 778 3244 343 
Q 2819 -91 2113 -91 
Q 1303 -91 875 529 
Q 447 1150 447 2328 
Q 447 3434 972 4092 
Q 1497 4750 2381 4750 
Q 2619 4750 2861 4703 
Q 3103 4656 3366 4563 
z
" transform="scale(0.015625)"/>
       </defs>
       <use xlink:href="#DejaVuSans-36"/>
       <use xlink:href="#DejaVuSans-30" transform="translate(63.623047 0)"/>
       <use xlink:href="#DejaVuSans-30" transform="translate(127.246094 0)"/>
      </g>
     </g>
    </g>
    <g id="xtick_5">
     <g id="line2d_5">
      <path d="M 829.505359 609.894375 
L 829.505359 54.554375 
" clip-path="url(#pc65fb53565)" style="fill: none; stroke: #cccccc; stroke-opacity: 0.3; stroke-width: 1.5; stroke-linecap: round"/>
     </g>
     <g id="text_5">
      <!-- 800 -->
      <g style="fill: #262626" transform="translate(798.965359 646.709375) scale(0.32 -0.32)">
       <defs>
        <path id="DejaVuSans-38" d="M 2034 2216 
Q 1584 2216 1326 1975 
Q 1069 1734 1069 1313 
Q 1069 891 1326 650 
Q 1584 409 2034 409 
Q 2484 409 2743 651 
Q 3003 894 3003 1313 
Q 3003 1734 2745 1975 
Q 2488 2216 2034 2216 
z
M 1403 2484 
Q 997 2584 770 2862 
Q 544 3141 544 3541 
Q 544 4100 942 4425 
Q 1341 4750 2034 4750 
Q 2731 4750 3128 4425 
Q 3525 4100 3525 3541 
Q 3525 3141 3298 2862 
Q 3072 2584 2669 2484 
Q 3125 2378 3379 2068 
Q 3634 1759 3634 1313 
Q 3634 634 3220 271 
Q 2806 -91 2034 -91 
Q 1263 -91 848 271 
Q 434 634 434 1313 
Q 434 1759 690 2068 
Q 947 2378 1403 2484 
z
M 1172 3481 
Q 1172 3119 1398 2916 
Q 1625 2713 2034 2713 
Q 2441 2713 2670 2916 
Q 2900 3119 2900 3481 
Q 2900 3844 2670 4047 
Q 2441 4250 2034 4250 
Q 1625 4250 1398 4047 
Q 1172 3844 1172 3481 
z
" transform="scale(0.015625)"/>
       </defs>
       <use xlink:href="#DejaVuSans-38"/>
       <use xlink:href="#DejaVuSans-30" transform="translate(63.623047 0)"/>
       <use xlink:href="#DejaVuSans-30" transform="translate(127.246094 0)"/>
      </g>
     </g>
    </g>
    <g id="xtick_6">
     <g id="line2d_6">
      <path d="M 1002.452025 609.894375 
L 1002.452025 54.554375 
" clip-path="url(#pc65fb53565)" style="fill: none; stroke: #cccccc; stroke-opacity: 0.3; stroke-width: 1.5; stroke-linecap: round"/>
     </g>
     <g id="text_6">
      <!-- 1000 -->
      <g style="fill: #262626" transform="translate(961.732025 646.709375) scale(0.32 -0.32)">
       <defs>
        <path id="DejaVuSans-31" d="M 794 531 
L 1825 531 
L 1825 4091 
L 703 3866 
L 703 4441 
L 1819 4666 
L 2450 4666 
L 2450 531 
L 3481 531 
L 3481 0 
L 794 0 
L 794 531 
z
" transform="scale(0.015625)"/>
       </defs>
       <use xlink:href="#DejaVuSans-31"/>
       <use xlink:href="#DejaVuSans-30" transform="translate(63.623047 0)"/>
       <use xlink:href="#DejaVuSans-30" transform="translate(127.246094 0)"/>
       <use xlink:href="#DejaVuSans-30" transform="translate(190.869141 0)"/>
      </g>
     </g>
    </g>
    <g id="text_7">
     <!-- Epoch -->
     <g style="fill: #262626" transform="translate(521.522727 681.679375) scale(0.32 -0.32)">
      <defs>
       <path id="DejaVuSans-45" d="M 628 4666 
L 3578 4666 
L 3578 4134 
L 1259 4134 
L 1259 2753 
L 3481 2753 
L 3481 2222 
L 1259 2222 
L 1259 531 
L 3634 531 
L 3634 0 
L 628 0 
L 628 4666 
z
" transform="scale(0.015625)"/>
       <path id="DejaVuSans-70" d="M 1159 525 
L 1159 -1331 
L 581 -1331 
L 581 3500 
L 1159 3500 
L 1159 2969 
Q 1341 3281 1617 3432 
Q 1894 3584 2278 3584 
Q 2916 3584 3314 3078 
Q 3713 2572 3713 1747 
Q 3713 922 3314 415 
Q 2916 -91 2278 -91 
Q 1894 -91 1617 61 
Q 1341 213 1159 525 
z
M 3116 1747 
Q 3116 2381 2855 2742 
Q 2594 3103 2138 3103 
Q 1681 3103 1420 2742 
Q 1159 2381 1159 1747 
Q 1159 1113 1420 752 
Q 1681 391 2138 391 
Q 2594 391 2855 752 
Q 3116 1113 3116 1747 
z
" transform="scale(0.015625)"/>
       <path id="DejaVuSans-6f" d="M 1959 3097 
Q 1497 3097 1228 2736 
Q 959 2375 959 1747 
Q 959 1119 1226 758 
Q 1494 397 1959 397 
Q 2419 397 2687 759 
Q 2956 1122 2956 1747 
Q 2956 2369 2687 2733 
Q 2419 3097 1959 3097 
z
M 1959 3584 
Q 2709 3584 3137 3096 
Q 3566 2609 3566 1747 
Q 3566 888 3137 398 
Q 2709 -91 1959 -91 
Q 1206 -91 779 398 
Q 353 888 353 1747 
Q 353 2609 779 3096 
Q 1206 3584 1959 3584 
z
" transform="scale(0.015625)"/>
       <path id="DejaVuSans-63" d="M 3122 3366 
L 3122 2828 
Q 2878 2963 2633 3030 
Q 2388 3097 2138 3097 
Q 1578 3097 1268 2742 
Q 959 2388 959 1747 
Q 959 1106 1268 751 
Q 1578 397 2138 397 
Q 2388 397 2633 464 
Q 2878 531 3122 666 
L 3122 134 
Q 2881 22 2623 -34 
Q 2366 -91 2075 -91 
Q 1284 -91 818 406 
Q 353 903 353 1747 
Q 353 2603 823 3093 
Q 1294 3584 2113 3584 
Q 2378 3584 2631 3529 
Q 2884 3475 3122 3366 
z
" transform="scale(0.015625)"/>
       <path id="DejaVuSans-68" d="M 3513 2113 
L 3513 0 
L 2938 0 
L 2938 2094 
Q 2938 2591 2744 2837 
Q 2550 3084 2163 3084 
Q 1697 3084 1428 2787 
Q 1159 2491 1159 1978 
L 1159 0 
L 581 0 
L 581 4863 
L 1159 4863 
L 1159 2956 
Q 1366 3272 1645 3428 
Q 1925 3584 2291 3584 
Q 2894 3584 3203 3211 
Q 3513 2838 3513 2113 
z
" transform="scale(0.015625)"/>
      </defs>
      <use xlink:href="#DejaVuSans-45"/>
      <use xlink:href="#DejaVuSans-70" transform="translate(63.183594 0)"/>
      <use xlink:href="#DejaVuSans-6f" transform="translate(126.660156 0)"/>
      <use xlink:href="#DejaVuSans-63" transform="translate(187.841797 0)"/>
      <use xlink:href="#DejaVuSans-68" transform="translate(242.822266 0)"/>
     </g>
    </g>
   </g>
   <g id="matplotlib.axis_2">
    <g id="ytick_1">
     <g id="line2d_7">
      <path d="M 95.39 603.314211 
L 1045.645455 603.314211 
" clip-path="url(#pc65fb53565)" style="fill: none; stroke: #cccccc; stroke-opacity: 0.3; stroke-width: 1.5; stroke-linecap: round"/>
     </g>
     <g id="text_8">
      <!-- 0 -->
      <g style="fill: #262626" transform="translate(62.53 615.471711) scale(0.32 -0.32)">
       <use xlink:href="#DejaVuSans-30"/>
      </g>
     </g>
    </g>
    <g id="ytick_2">
     <g id="line2d_8">
      <path d="M 95.39 500.605758 
L 1045.645455 500.605758 
" clip-path="url(#pc65fb53565)" style="fill: none; stroke: #cccccc; stroke-opacity: 0.3; stroke-width: 1.5; stroke-linecap: round"/>
     </g>
     <g id="text_9">
      <!-- 5 -->
      <g style="fill: #262626" transform="translate(62.53 512.763258) scale(0.32 -0.32)">
       <defs>
        <path id="DejaVuSans-35" d="M 691 4666 
L 3169 4666 
L 3169 4134 
L 1269 4134 
L 1269 2991 
Q 1406 3038 1543 3061 
Q 1681 3084 1819 3084 
Q 2600 3084 3056 2656 
Q 3513 2228 3513 1497 
Q 3513 744 3044 326 
Q 2575 -91 1722 -91 
Q 1428 -91 1123 -41 
Q 819 9 494 109 
L 494 744 
Q 775 591 1075 516 
Q 1375 441 1709 441 
Q 2250 441 2565 725 
Q 2881 1009 2881 1497 
Q 2881 1984 2565 2268 
Q 2250 2553 1709 2553 
Q 1456 2553 1204 2497 
Q 953 2441 691 2322 
L 691 4666 
z
" transform="scale(0.015625)"/>
       </defs>
       <use xlink:href="#DejaVuSans-35"/>
      </g>
     </g>
    </g>
    <g id="ytick_3">
     <g id="line2d_9">
      <path d="M 95.39 397.897304 
L 1045.645455 397.897304 
" clip-path="url(#pc65fb53565)" style="fill: none; stroke: #cccccc; stroke-opacity: 0.3; stroke-width: 1.5; stroke-linecap: round"/>
     </g>
     <g id="text_10">
      <!-- 10 -->
      <g style="fill: #262626" transform="translate(42.17 410.054804) scale(0.32 -0.32)">
       <use xlink:href="#DejaVuSans-31"/>
       <use xlink:href="#DejaVuSans-30" transform="translate(63.623047 0)"/>
      </g>
     </g>
    </g>
    <g id="ytick_4">
     <g id="line2d_10">
      <path d="M 95.39 295.188851 
L 1045.645455 295.188851 
" clip-path="url(#pc65fb53565)" style="fill: none; stroke: #cccccc; stroke-opacity: 0.3; stroke-width: 1.5; stroke-linecap: round"/>
     </g>
     <g id="text_11">
      <!-- 15 -->
      <g style="fill: #262626" transform="translate(42.17 307.346351) scale(0.32 -0.32)">
       <use xlink:href="#DejaVuSans-31"/>
       <use xlink:href="#DejaVuSans-35" transform="translate(63.623047 0)"/>
      </g>
     </g>
    </g>
    <g id="ytick_5">
     <g id="line2d_11">
      <path d="M 95.39 192.480397 
L 1045.645455 192.480397 
" clip-path="url(#pc65fb53565)" style="fill: none; stroke: #cccccc; stroke-opacity: 0.3; stroke-width: 1.5; stroke-linecap: round"/>
     </g>
     <g id="text_12">
      <!-- 20 -->
      <g style="fill: #262626" transform="translate(42.17 204.637897) scale(0.32 -0.32)">
       <use xlink:href="#DejaVuSans-32"/>
       <use xlink:href="#DejaVuSans-30" transform="translate(63.623047 0)"/>
      </g>
     </g>
    </g>
    <g id="ytick_6">
     <g id="line2d_12">
      <path d="M 95.39 89.771944 
L 1045.645455 89.771944 
" clip-path="url(#pc65fb53565)" style="fill: none; stroke: #cccccc; stroke-opacity: 0.3; stroke-width: 1.5; stroke-linecap: round"/>
     </g>
     <g id="text_13">
      <!-- 25 -->
      <g style="fill: #262626" transform="translate(42.17 101.929444) scale(0.32 -0.32)">
       <use xlink:href="#DejaVuSans-32"/>
       <use xlink:href="#DejaVuSans-35" transform="translate(63.623047 0)"/>
      </g>
     </g>
    </g>
    <g id="text_14">
     <!-- Accuracy (%) -->
     <g style="fill: #262626" transform="translate(31.515 438.046875) rotate(-90) scale(0.32 -0.32)">
      <defs>
       <path id="DejaVuSans-41" d="M 2188 4044 
L 1331 1722 
L 3047 1722 
L 2188 4044 
z
M 1831 4666 
L 2547 4666 
L 4325 0 
L 3669 0 
L 3244 1197 
L 1141 1197 
L 716 0 
L 50 0 
L 1831 4666 
z
" transform="scale(0.015625)"/>
       <path id="DejaVuSans-75" d="M 544 1381 
L 544 3500 
L 1119 3500 
L 1119 1403 
Q 1119 906 1312 657 
Q 1506 409 1894 409 
Q 2359 409 2629 706 
Q 2900 1003 2900 1516 
L 2900 3500 
L 3475 3500 
L 3475 0 
L 2900 0 
L 2900 538 
Q 2691 219 2414 64 
Q 2138 -91 1772 -91 
Q 1169 -91 856 284 
Q 544 659 544 1381 
z
M 1991 3584 
L 1991 3584 
z
" transform="scale(0.015625)"/>
       <path id="DejaVuSans-72" d="M 2631 2963 
Q 2534 3019 2420 3045 
Q 2306 3072 2169 3072 
Q 1681 3072 1420 2755 
Q 1159 2438 1159 1844 
L 1159 0 
L 581 0 
L 581 3500 
L 1159 3500 
L 1159 2956 
Q 1341 3275 1631 3429 
Q 1922 3584 2338 3584 
Q 2397 3584 2469 3576 
Q 2541 3569 2628 3553 
L 2631 2963 
z
" transform="scale(0.015625)"/>
       <path id="DejaVuSans-61" d="M 2194 1759 
Q 1497 1759 1228 1600 
Q 959 1441 959 1056 
Q 959 750 1161 570 
Q 1363 391 1709 391 
Q 2188 391 2477 730 
Q 2766 1069 2766 1631 
L 2766 1759 
L 2194 1759 
z
M 3341 1997 
L 3341 0 
L 2766 0 
L 2766 531 
Q 2569 213 2275 61 
Q 1981 -91 1556 -91 
Q 1019 -91 701 211 
Q 384 513 384 1019 
Q 384 1609 779 1909 
Q 1175 2209 1959 2209 
L 2766 2209 
L 2766 2266 
Q 2766 2663 2505 2880 
Q 2244 3097 1772 3097 
Q 1472 3097 1187 3025 
Q 903 2953 641 2809 
L 641 3341 
Q 956 3463 1253 3523 
Q 1550 3584 1831 3584 
Q 2591 3584 2966 3190 
Q 3341 2797 3341 1997 
z
" transform="scale(0.015625)"/>
       <path id="DejaVuSans-79" d="M 2059 -325 
Q 1816 -950 1584 -1140 
Q 1353 -1331 966 -1331 
L 506 -1331 
L 506 -850 
L 844 -850 
Q 1081 -850 1212 -737 
Q 1344 -625 1503 -206 
L 1606 56 
L 191 3500 
L 800 3500 
L 1894 763 
L 2988 3500 
L 3597 3500 
L 2059 -325 
z
" transform="scale(0.015625)"/>
       <path id="DejaVuSans-20" transform="scale(0.015625)"/>
       <path id="DejaVuSans-28" d="M 1984 4856 
Q 1566 4138 1362 3434 
Q 1159 2731 1159 2009 
Q 1159 1288 1364 580 
Q 1569 -128 1984 -844 
L 1484 -844 
Q 1016 -109 783 600 
Q 550 1309 550 2009 
Q 550 2706 781 3412 
Q 1013 4119 1484 4856 
L 1984 4856 
z
" transform="scale(0.015625)"/>
       <path id="DejaVuSans-25" d="M 4653 2053 
Q 4381 2053 4226 1822 
Q 4072 1591 4072 1178 
Q 4072 772 4226 539 
Q 4381 306 4653 306 
Q 4919 306 5073 539 
Q 5228 772 5228 1178 
Q 5228 1588 5073 1820 
Q 4919 2053 4653 2053 
z
M 4653 2450 
Q 5147 2450 5437 2106 
Q 5728 1763 5728 1178 
Q 5728 594 5436 251 
Q 5144 -91 4653 -91 
Q 4153 -91 3862 251 
Q 3572 594 3572 1178 
Q 3572 1766 3864 2108 
Q 4156 2450 4653 2450 
z
M 1428 4353 
Q 1159 4353 1004 4120 
Q 850 3888 850 3481 
Q 850 3069 1003 2837 
Q 1156 2606 1428 2606 
Q 1700 2606 1854 2837 
Q 2009 3069 2009 3481 
Q 2009 3884 1853 4118 
Q 1697 4353 1428 4353 
z
M 4250 4750 
L 4750 4750 
L 1831 -91 
L 1331 -91 
L 4250 4750 
z
M 1428 4750 
Q 1922 4750 2215 4408 
Q 2509 4066 2509 3481 
Q 2509 2891 2217 2550 
Q 1925 2209 1428 2209 
Q 931 2209 642 2551 
Q 353 2894 353 3481 
Q 353 4063 643 4406 
Q 934 4750 1428 4750 
z
" transform="scale(0.015625)"/>
       <path id="DejaVuSans-29" d="M 513 4856 
L 1013 4856 
Q 1481 4119 1714 3412 
Q 1947 2706 1947 2009 
Q 1947 1309 1714 600 
Q 1481 -109 1013 -844 
L 513 -844 
Q 928 -128 1133 580 
Q 1338 1288 1338 2009 
Q 1338 2731 1133 3434 
Q 928 4138 513 4856 
z
" transform="scale(0.015625)"/>
      </defs>
      <use xlink:href="#DejaVuSans-41"/>
      <use xlink:href="#DejaVuSans-63" transform="translate(66.658203 0)"/>
      <use xlink:href="#DejaVuSans-63" transform="translate(121.638672 0)"/>
      <use xlink:href="#DejaVuSans-75" transform="translate(176.619141 0)"/>
      <use xlink:href="#DejaVuSans-72" transform="translate(239.998047 0)"/>
      <use xlink:href="#DejaVuSans-61" transform="translate(281.111328 0)"/>
      <use xlink:href="#DejaVuSans-63" transform="translate(342.390625 0)"/>
      <use xlink:href="#DejaVuSans-79" transform="translate(397.371094 0)"/>
      <use xlink:href="#DejaVuSans-20" transform="translate(456.550781 0)"/>
      <use xlink:href="#DejaVuSans-28" transform="translate(488.337891 0)"/>
      <use xlink:href="#DejaVuSans-25" transform="translate(527.351562 0)"/>
      <use xlink:href="#DejaVuSans-29" transform="translate(622.371094 0)"/>
     </g>
    </g>
   </g>
   <g id="FillBetweenPolyCollection_1"/>
   <g id="FillBetweenPolyCollection_2"/>
   <g id="line2d_13">
    <path d="M 138.58343 584.651648 
L 139.448163 571.780914 
L 141.17763 564.702012 
L 142.042363 558.910181 
L 142.907096 559.231948 
L 143.77183 556.014266 
L 144.636563 553.761888 
L 145.501296 556.336033 
L 146.36603 550.222435 
L 147.230763 555.048961 
L 148.095496 549.25713 
L 148.96023 553.761888 
L 149.824963 554.405423 
L 150.689696 553.11835 
L 151.55443 549.900668 
L 152.419163 550.865973 
L 153.283896 564.380241 
L 154.14863 554.083656 
L 155.013363 556.979571 
L 155.878096 549.25713 
L 156.74283 553.761888 
L 157.607563 550.865973 
L 158.472296 546.682985 
L 159.33703 550.544202 
L 160.201763 547.326519 
L 161.066496 550.865973 
L 161.93123 549.25713 
L 162.795963 552.474812 
L 164.52543 547.004752 
L 165.390163 544.430604 
L 166.254896 545.074142 
L 167.11963 547.326519 
L 167.984363 539.604078 
L 168.849096 558.58841 
L 169.71383 543.465299 
L 170.578563 545.395909 
L 171.443296 545.395909 
L 172.30803 542.499994 
L 174.037496 541.856459 
L 174.90223 541.856459 
L 175.766963 543.78707 
L 176.631696 541.212921 
L 177.49643 544.752375 
L 178.361163 541.534689 
L 179.225896 538.960544 
L 180.09063 540.891154 
L 180.955363 537.351701 
L 181.820096 537.351701 
L 182.684829 537.673468 
L 183.549563 540.569383 
L 184.414296 539.282311 
L 185.279029 542.178227 
L 186.143763 533.168713 
L 187.008496 536.708167 
L 187.873229 530.916336 
L 188.737963 534.777556 
L 189.602696 537.351701 
L 190.467429 535.099323 
L 191.332163 535.099323 
L 192.196896 534.777556 
L 193.061629 531.238103 
L 193.926363 531.55987 
L 194.791096 533.49048 
L 195.655829 527.055115 
L 196.520563 526.411581 
L 197.385296 528.985725 
L 198.250029 523.193894 
L 199.114763 528.020416 
L 199.979496 531.238103 
L 200.844229 522.55036 
L 201.708963 524.159203 
L 202.573696 519.332674 
L 203.438429 529.951027 
L 204.303163 519.010907 
L 205.167896 517.080296 
L 206.032629 520.297983 
L 206.897363 520.297983 
L 207.762096 514.506152 
L 208.626829 511.932 
L 209.491563 512.897309 
L 210.356296 520.941517 
L 211.221029 513.219076 
L 212.085763 508.392554 
L 212.950496 508.070787 
L 213.815229 510.323164 
L 214.679963 506.140176 
L 215.544696 507.105478 
L 216.409429 513.219076 
L 217.274163 501.635414 
L 218.138896 502.278956 
L 219.003629 499.383036 
L 219.868363 500.026578 
L 220.733096 501.313647 
L 221.597829 500.99188 
L 222.462563 498.095968 
L 224.192029 500.670112 
L 225.056763 499.704803 
L 225.921496 498.417735 
L 226.786229 500.026578 
L 227.650963 489.086451 
L 228.515696 490.373527 
L 229.380429 486.834073 
L 230.245163 490.05176 
L 231.109896 491.98237 
L 231.974629 489.086451 
L 232.839363 493.591205 
L 233.704096 483.29462 
L 234.568829 485.868764 
L 235.433563 487.477607 
L 236.298296 488.121149 
L 237.163029 485.22523 
L 238.027763 485.868764 
L 238.892496 491.338828 
L 239.757229 488.442916 
L 240.621962 487.799374 
L 241.486696 478.146331 
L 242.351429 481.042242 
L 243.216162 482.329318 
L 244.080896 478.789865 
L 244.945629 481.364009 
L 245.810362 478.146331 
L 246.675096 472.998041 
L 247.539829 473.319809 
L 248.404562 479.755166 
L 249.269296 472.354492 
L 250.134029 473.641576 
L 250.998762 478.146331 
L 251.863496 480.398708 
L 252.728229 482.329318 
L 253.592962 476.859254 
L 254.457696 463.666749 
L 255.322429 464.632051 
L 256.187162 465.919134 
L 257.051896 461.092613 
L 257.916629 461.41438 
L 258.781362 460.127296 
L 259.646096 463.344982 
L 260.510829 465.597367 
L 261.375562 466.884436 
L 262.240296 463.023215 
L 263.969762 457.231392 
L 264.834496 455.944308 
L 265.699229 468.493271 
L 267.428696 455.300774 
L 268.293429 453.370171 
L 269.158162 467.206203 
L 270.022896 463.988516 
L 270.887629 449.187184 
L 271.752362 440.821193 
L 272.617096 452.726622 
L 274.346562 437.603522 
L 276.076029 472.998041 
L 276.940762 458.840227 
L 277.805496 447.9001 
L 278.670229 441.786509 
L 279.534962 458.196693 
L 280.399696 466.562669 
L 281.264429 446.613031 
L 282.129162 437.603522 
L 282.993896 438.89059 
L 283.858629 439.534124 
L 284.723362 446.291264 
L 285.588096 438.247056 
L 286.452829 452.083088 
L 287.317562 452.726622 
L 288.182296 442.108276 
L 289.047029 445.325963 
L 289.911762 438.568823 
L 290.776496 435.029369 
L 291.641229 435.672904 
L 292.505962 439.855891 
L 293.370696 434.064068 
L 294.235429 435.994671 
L 295.100162 434.707602 
L 295.964896 443.395345 
L 296.829629 438.89059 
L 297.694362 426.985161 
L 298.559096 438.247056 
L 299.423829 422.158639 
L 300.288562 420.228021 
L 301.153295 418.619186 
L 302.018029 422.158639 
L 302.882762 428.593997 
L 303.747495 457.874926 
L 304.612229 444.682413 
L 305.476962 425.698093 
L 306.341695 415.723266 
L 307.206429 423.767475 
L 308.071162 426.01986 
L 308.935895 436.316438 
L 309.800629 425.698093 
L 310.665362 409.609676 
L 311.530095 415.079732 
L 312.394829 422.158639 
L 313.259562 420.871571 
L 314.124295 429.237546 
L 314.989029 418.619186 
L 315.853762 422.158639 
L 316.718495 422.480406 
L 317.583229 414.436198 
L 318.447962 415.401499 
L 319.312695 419.26272 
L 320.177429 419.26272 
L 321.042162 413.149129 
L 321.906895 411.540279 
L 322.771629 411.540279 
L 323.636362 411.218511 
L 324.501095 408.966142 
L 325.365829 406.070222 
L 326.230562 408.000825 
L 327.095295 403.174303 
L 327.960029 400.600151 
L 328.824762 399.313082 
L 329.689495 403.817837 
L 330.554229 405.426688 
L 331.418962 413.470897 
L 332.283695 435.672904 
L 333.148429 407.679058 
L 334.013162 390.303573 
L 334.877895 400.278384 
L 335.742629 406.391989 
L 336.607362 399.63485 
L 337.472095 406.713757 
L 338.336829 394.808328 
L 339.201562 401.2437 
L 340.066295 417.975651 
L 340.931029 399.956617 
L 341.795762 399.313082 
L 342.660495 387.729421 
L 343.525229 388.372955 
L 344.389962 386.442352 
L 345.254695 417.653884 
L 346.119429 417.975651 
L 346.984162 413.149129 
L 347.848895 393.199492 
L 348.713629 390.62534 
L 349.578362 399.956617 
L 350.443095 393.521259 
L 351.307829 394.48656 
L 352.172562 384.511734 
L 353.037295 384.511734 
L 353.902029 392.555943 
L 354.766762 384.833517 
L 355.631495 386.764119 
L 356.496229 375.502224 
L 357.360962 386.764119 
L 358.225695 400.600151 
L 359.090428 379.363445 
L 359.955162 404.461372 
L 360.819895 397.060713 
L 361.684628 400.278384 
L 362.549362 391.912408 
L 363.414095 373.249855 
L 364.278828 372.928088 
L 365.143562 369.066867 
L 366.008295 364.24033 
L 366.873028 387.085886 
L 367.737762 389.338271 
L 368.602495 379.685212 
L 369.467228 383.546433 
L 370.331962 385.155284 
L 371.196695 406.391989 
L 372.061428 397.060713 
L 372.926162 381.61583 
L 373.790895 385.477051 
L 374.655628 367.458016 
L 375.520362 365.849181 
L 376.385095 363.275028 
L 377.249828 377.432842 
L 378.114562 381.937597 
L 378.979295 383.224666 
L 379.844028 389.660039 
L 380.708762 388.694737 
L 381.573495 357.804972 
L 382.438228 366.170948 
L 383.302962 352.013134 
L 384.167695 357.161438 
L 385.032428 347.186612 
L 385.897162 363.596795 
L 386.761895 389.016504 
L 387.626628 380.328746 
L 388.491362 370.032168 
L 389.356095 376.789308 
L 390.220828 366.814482 
L 391.085562 360.057342 
L 391.950295 358.126739 
L 392.815028 352.013134 
L 393.679762 355.552587 
L 394.544495 365.205646 
L 395.409228 360.379109 
L 396.273962 352.97845 
L 397.138695 341.394773 
L 398.003428 340.751239 
L 398.868162 355.552587 
L 399.732895 362.309727 
L 400.597628 382.259364 
L 401.462362 360.700891 
L 402.327095 350.726065 
L 403.191828 364.562097 
L 404.056562 357.161438 
L 404.921295 352.334901 
L 405.786028 344.612475 
L 406.650762 338.498869 
L 407.515495 345.577776 
L 408.380228 350.082531 
L 409.244962 363.275028 
L 410.109695 347.186612 
L 410.974428 337.211801 
L 411.839162 350.404298 
L 412.703895 367.458016 
L 413.568628 380.650529 
L 414.433362 384.833517 
L 415.298095 351.691366 
L 416.162828 358.126739 
L 417.027561 338.498869 
L 417.892295 334.959431 
L 418.757028 359.092041 
L 419.621761 344.612475 
L 420.486495 361.98796 
L 421.351228 364.562097 
L 423.080695 346.864845 
L 423.945428 334.637664 
L 424.810161 339.46417 
L 425.674895 342.681872 
L 426.539628 343.325406 
L 427.404361 336.568266 
L 428.269095 358.448506 
L 429.133828 347.830146 
L 429.998561 352.97845 
L 430.863295 340.429472 
L 431.728028 335.602965 
L 432.592761 345.899543 
L 433.457495 343.325406 
L 434.322228 346.22131 
L 435.186961 338.177102 
L 436.051695 331.419962 
L 436.916428 341.394773 
L 437.781161 330.776428 
L 438.645895 321.766918 
L 439.510628 343.968941 
L 440.375361 326.271658 
L 441.240095 326.593455 
L 442.104828 342.360074 
L 442.969561 325.306356 
L 443.834295 323.375754 
L 444.699028 339.785937 
L 445.563761 332.70703 
L 446.428495 337.533568 
L 447.293228 336.246499 
L 448.157961 333.028798 
L 449.022695 320.47985 
L 449.887428 325.949891 
L 450.752161 330.454661 
L 451.616895 316.618614 
L 452.481628 313.400943 
L 453.346361 322.732219 
L 454.211095 301.173731 
L 455.075828 319.836315 
L 455.940561 314.366244 
L 456.805295 324.019288 
L 457.670028 311.148573 
L 459.399495 297.312526 
L 460.264228 314.044477 
L 461.128961 339.46417 
L 461.993695 342.681872 
L 462.858428 336.890033 
L 463.723161 334.637664 
L 464.587895 324.984589 
L 465.452628 304.7132 
L 466.317361 346.543077 
L 467.182095 329.489359 
L 468.046828 298.921361 
L 468.911561 320.801617 
L 469.776295 325.949891 
L 470.641028 314.688011 
L 471.505761 308.896172 
L 472.370495 317.905682 
L 473.235228 303.747899 
L 474.099961 297.95606 
L 474.964694 317.262148 
L 475.829428 306.322036 
L 476.694161 320.801617 
L 477.558894 345.577776 
L 478.423628 322.088685 
L 480.153094 290.233619 
L 481.017828 321.123384 
L 481.882561 326.915222 
L 482.747294 322.732219 
L 483.612028 310.183241 
L 484.476761 361.666193 
L 485.341494 339.46417 
L 486.206228 300.20843 
L 487.070961 295.70369 
L 487.935694 295.381923 
L 488.800428 303.426132 
L 489.665161 305.678501 
L 490.529894 296.347225 
L 491.394628 289.911852 
L 492.259361 292.485989 
L 493.124094 293.45129 
L 493.988828 322.732219 
L 494.853561 316.296847 
L 495.718294 317.262148 
L 496.583028 308.896172 
L 497.447761 309.539707 
L 498.312494 302.782597 
L 499.177228 329.489359 
L 500.041961 299.886663 
L 500.906694 302.139033 
L 501.771428 291.520687 
L 502.636161 288.303016 
L 503.500894 291.19892 
L 504.365628 283.798246 
L 505.230361 306.000268 
L 506.095094 304.391433 
L 506.959828 297.312526 
L 507.824561 310.183241 
L 508.689294 291.520687 
L 509.554028 293.773057 
L 510.418761 311.792107 
L 511.283494 321.766918 
L 512.148228 295.060156 
L 513.012961 282.832945 
L 513.877694 282.511178 
L 514.742428 289.268318 
L 515.607161 277.68464 
L 516.471894 277.041106 
L 517.336628 263.20509 
L 518.201361 274.788736 
L 519.066094 265.135692 
L 519.930828 290.877153 
L 520.795561 285.407082 
L 521.660294 294.094824 
L 522.525028 268.353364 
L 524.254494 293.773057 
L 525.119228 276.397572 
L 525.983961 291.520687 
L 526.848694 297.634293 
L 527.713428 277.041106 
L 528.578161 276.719339 
L 529.442894 299.564896 
L 530.307628 277.041106 
L 531.172361 274.145202 
L 532.037094 265.135692 
L 532.901827 275.110503 
L 533.766561 271.892832 
L 534.631294 262.883323 
L 535.496027 282.18941 
L 536.360761 287.015948 
L 537.225494 271.571065 
L 538.090227 286.050616 
L 538.954961 259.022087 
L 539.819694 264.492158 
L 540.684427 267.388062 
L 541.549161 281.867643 
L 542.413894 265.779227 
L 543.278627 260.952689 
L 544.143361 292.485989 
L 545.008094 291.842454 
L 545.872827 308.252638 
L 546.737561 294.416622 
L 547.602294 256.126183 
L 548.467027 274.466969 
L 549.331761 271.892832 
L 550.196494 254.195549 
L 551.061227 274.145202 
L 551.925961 250.334344 
L 552.790694 265.779227 
L 553.655427 270.283966 
L 554.520161 268.996898 
L 555.384894 268.675131 
L 556.249627 276.397572 
L 557.114361 272.214599 
L 557.979094 274.466969 
L 558.843827 262.561556 
L 559.708561 277.362873 
L 560.573294 250.012577 
L 561.438027 265.45746 
L 562.302761 264.813925 
L 563.167494 261.917991 
L 564.896961 252.586714 
L 565.761694 254.195549 
L 566.626427 264.492158 
L 567.491161 260.952689 
L 568.355894 270.283966 
L 569.220627 257.413251 
L 570.085361 257.735018 
L 570.950094 258.378552 
L 571.814827 262.883323 
L 573.544294 236.498297 
L 574.409027 243.577204 
L 575.273761 236.498297 
L 576.138494 253.873782 
L 577.003227 239.394232 
L 577.867961 253.230248 
L 578.732694 277.68464 
L 580.462161 255.482648 
L 581.326894 313.72271 
L 582.191627 309.21794 
L 583.056361 301.817265 
L 584.785827 231.671791 
L 585.650561 243.898971 
L 586.515294 238.42893 
L 587.380027 243.577204 
L 588.244761 219.766346 
L 589.109494 257.091484 
L 589.974227 228.132322 
L 590.83896 250.334344 
L 591.703694 285.085314 
L 593.43316 268.675131 
L 594.297894 240.6813 
L 595.162627 237.785366 
L 596.02736 223.305815 
L 596.892094 227.810555 
L 597.756827 229.741157 
L 598.62156 247.116673 
L 599.486294 259.022087 
L 600.351027 285.407082 
L 601.21576 250.656111 
L 602.080494 224.271116 
L 602.945227 239.394232 
L 603.80996 242.93367 
L 604.674694 231.993558 
L 605.539427 232.637092 
L 606.40416 231.028256 
L 607.268894 241.003067 
L 608.133627 245.829574 
L 608.99836 255.160881 
L 609.863094 276.719339 
L 610.727827 241.968369 
L 611.59256 237.785366 
L 612.457294 226.845253 
L 613.322027 242.611903 
L 614.18676 264.813925 
L 615.051494 241.324834 
L 615.916227 254.839114 
L 616.78096 256.769717 
L 617.645694 233.280626 
L 618.510427 231.671791 
L 619.37516 247.116673 
L 620.239894 242.611903 
L 621.104627 237.463598 
L 621.96936 247.116673 
L 622.834094 260.630922 
L 623.698827 259.987388 
L 624.56356 256.769717 
L 625.428294 228.454089 
L 626.293027 231.350023 
L 627.15776 247.760207 
L 628.022494 240.6813 
L 628.887227 242.93367 
L 629.75196 236.820064 
L 630.616694 237.141831 
L 631.481427 239.715999 
L 632.34616 247.43844 
L 633.210894 231.350023 
L 634.075627 238.42893 
L 634.94036 249.69081 
L 635.805094 254.517347 
L 636.669827 240.037766 
L 637.53456 241.968369 
L 638.399294 230.384722 
L 639.264027 224.592883 
L 640.12876 206.895631 
L 640.993494 240.359533 
L 641.858227 259.343854 
L 642.72296 249.369043 
L 643.587694 212.365672 
L 645.31716 230.384722 
L 646.181894 225.879952 
L 647.046627 237.463598 
L 647.91136 261.596224 
L 648.776093 218.157511 
L 649.640827 218.157511 
L 650.50556 227.16702 
L 651.370293 249.047276 
L 652.235027 208.826234 
L 653.09976 215.583374 
L 654.829227 250.012577 
L 655.69396 222.984048 
L 656.558693 232.315325 
L 657.423427 229.097623 
L 658.28816 230.706489 
L 659.152893 214.296305 
L 660.017627 203.999697 
L 660.88236 211.078604 
L 661.747093 245.507807 
L 662.611827 220.088113 
L 663.47656 239.394232 
L 664.341293 250.656111 
L 665.206027 211.078604 
L 666.07076 210.435069 
L 666.935493 205.286765 
L 667.800227 209.148001 
L 668.66496 225.558185 
L 669.529693 227.16702 
L 670.394427 204.643231 
L 671.25916 224.592883 
L 672.123893 227.810555 
L 672.988627 228.454089 
L 673.85336 237.141831 
L 674.718093 237.785366 
L 675.582827 234.245927 
L 676.44756 202.712628 
L 677.312293 194.024886 
L 678.177027 214.93984 
L 679.04176 211.078604 
L 679.906493 212.365672 
L 680.771227 214.296305 
L 681.63596 217.192209 
L 682.500693 234.245927 
L 683.365427 214.93984 
L 684.23016 268.996898 
L 685.094893 244.542506 
L 685.959627 240.6813 
L 686.82436 220.731648 
L 687.689093 212.687439 
L 688.553827 190.485447 
L 689.41856 217.835744 
L 690.283293 213.974508 
L 691.148027 221.053415 
L 692.01276 224.914651 
L 692.877493 219.122812 
L 693.742227 208.1827 
L 694.60696 210.435069 
L 695.471693 225.558185 
L 696.336427 207.860933 
L 697.20116 217.192209 
L 698.065893 267.388062 
L 698.930627 230.706489 
L 699.79536 220.088113 
L 700.660093 221.375182 
L 701.524827 195.633721 
L 702.38956 219.122812 
L 703.254293 197.564324 
L 704.119027 186.624211 
L 704.98376 198.529656 
L 705.848493 197.564324 
L 706.713226 193.059584 
L 707.57796 220.088113 
L 708.442693 232.315325 
L 709.307426 256.44795 
L 711.036893 179.545304 
L 711.901626 189.520115 
L 712.76636 208.826234 
L 713.631093 186.624211 
L 714.495826 192.094283 
L 715.36056 210.113302 
L 716.225293 209.469768 
L 717.090026 204.643231 
L 717.95476 195.633721 
L 718.819493 188.554814 
L 719.684226 189.520115 
L 720.54896 181.475907 
L 721.413693 205.286765 
L 722.278426 215.905141 
L 723.14316 208.826234 
L 724.007893 203.034395 
L 724.872626 206.573864 
L 725.73736 203.034395 
L 726.602093 216.226908 
L 727.466826 218.801045 
L 728.33156 241.003067 
L 729.196293 230.706489 
L 730.92576 189.520115 
L 731.790493 173.753466 
L 732.655226 177.292935 
L 733.51996 198.529656 
L 734.384693 205.286765 
L 735.249426 210.435069 
L 736.11416 213.330973 
L 736.978893 220.40988 
L 737.843626 192.094283 
L 738.70836 210.756837 
L 739.573093 189.520115 
L 740.437826 201.747327 
L 741.30256 198.529656 
L 742.167293 187.589513 
L 743.032026 211.078604 
L 744.761493 156.699748 
L 745.626226 175.362332 
L 746.49096 184.050075 
L 747.355693 207.539165 
L 748.220426 226.523486 
L 749.949893 184.693609 
L 750.814626 181.15414 
L 751.67936 197.564324 
L 752.544093 174.718798 
L 753.408826 171.179329 
L 755.138293 236.498297 
L 756.003026 202.390861 
L 756.86776 186.302444 
L 757.732493 184.371842 
L 758.597226 177.614702 
L 759.46196 167.639891 
L 760.326693 180.510606 
L 761.191426 177.614702 
L 762.05616 179.867071 
L 762.920893 176.005866 
L 763.785626 200.782025 
L 764.650359 190.807214 
L 765.515093 200.138491 
L 766.379826 194.990187 
L 767.244559 196.92079 
L 768.109293 190.16368 
L 768.974026 185.980677 
L 769.838759 194.346653 
L 770.703493 181.15414 
L 771.568226 185.015376 
L 772.432959 179.867071 
L 773.297693 190.16368 
L 774.162426 191.772516 
L 775.027159 179.867071 
L 775.891893 173.753466 
L 776.756626 204.964998 
L 777.621359 212.365672 
L 778.486093 190.807214 
L 779.350826 163.778655 
L 780.215559 172.466397 
L 781.080293 167.961658 
L 781.945026 162.813353 
L 782.809759 176.6494 
L 783.674493 160.882751 
L 784.539226 207.860933 
L 785.403959 187.589513 
L 786.268693 197.564324 
L 787.133426 188.233047 
L 787.998159 197.242557 
L 788.862893 165.38749 
L 789.727626 175.684099 
L 790.592359 172.14463 
L 791.457093 174.075264 
L 792.321826 156.699748 
L 793.186559 154.769145 
L 794.051293 180.510606 
L 794.916026 174.397031 
L 795.780759 189.520115 
L 796.645493 162.813353 
L 797.510226 180.832373 
L 798.374959 161.848052 
L 799.239693 169.248726 
L 800.104426 182.763006 
L 800.969159 158.308614 
L 801.833893 169.89226 
L 802.698626 194.346653 
L 803.563359 196.92079 
L 804.428093 180.832373 
L 805.292826 185.337143 
L 806.157559 167.961658 
L 807.022293 182.441239 
L 807.887026 162.491586 
L 808.751759 150.586173 
L 809.616493 156.377981 
L 810.481226 164.422189 
L 811.345959 148.012005 
L 812.210693 169.570493 
L 813.075426 153.16031 
L 813.940159 158.630381 
L 814.804893 195.311954 
L 815.669626 170.857562 
L 816.534359 210.113302 
L 817.399093 166.674589 
L 818.263826 173.753466 
L 819.128559 157.665049 
L 819.993293 166.674589 
L 820.858026 152.195008 
L 821.722759 165.065723 
L 822.587492 166.031055 
L 823.452226 170.535795 
L 824.316959 157.021515 
L 825.181692 154.125611 
L 826.046426 201.42556 
L 826.911159 233.92416 
L 827.775892 187.589513 
L 828.640626 121.62701 
L 829.505359 140.289564 
L 830.370092 150.586173 
L 831.234826 153.482077 
L 832.099559 139.324263 
L 832.964292 160.560984 
L 833.829026 148.977306 
L 834.693759 181.475907 
L 835.558492 175.362332 
L 836.423226 162.813353 
L 837.287959 158.952148 
L 838.152692 151.551474 
L 839.017426 129.671219 
L 840.746892 183.084773 
L 841.611626 182.119472 
L 842.476359 174.075264 
L 843.341092 167.639891 
L 844.205826 155.734446 
L 845.070559 139.324263 
L 845.935292 144.1508 
L 846.800026 144.1508 
L 847.664759 146.40317 
L 848.529492 153.482077 
L 849.394226 141.898399 
L 850.258959 182.119472 
L 851.123692 171.179329 
L 851.988426 148.977306 
L 852.853159 150.264406 
L 853.717892 150.586173 
L 854.582626 168.926959 
L 855.447359 177.292935 
L 856.312092 240.037766 
L 857.176826 208.1827 
L 858.041559 168.283425 
L 858.906292 134.819523 
L 859.771026 136.106591 
L 860.635759 145.116101 
L 861.500492 149.620841 
L 862.365226 157.343282 
L 863.229959 129.992986 
L 864.094692 155.090912 
L 864.959426 138.037194 
L 865.824159 143.829033 
L 866.688892 140.933098 
L 867.553626 151.551474 
L 868.418359 158.952148 
L 869.283092 163.456888 
L 870.147826 178.258236 
L 871.012559 147.690238 
L 871.877292 133.532424 
L 872.742026 152.195008 
L 873.606759 124.844681 
L 874.471492 164.100422 
L 875.336226 172.788164 
L 876.200959 165.38749 
L 877.065692 158.952148 
L 877.930426 148.333772 
L 878.795159 142.541964 
L 879.659892 143.507266 
L 880.524625 138.358961 
L 882.254092 225.236418 
L 883.983559 150.264406 
L 884.848292 126.775315 
L 885.713025 125.488216 
L 886.577759 164.422189 
L 887.442492 168.283425 
L 889.171959 136.106591 
L 890.036692 164.100422 
L 890.901425 161.848052 
L 891.766159 139.002495 
L 892.630892 143.507266 
L 893.495625 123.557613 
L 894.360359 137.39366 
L 895.225092 114.548103 
L 896.089825 125.166448 
L 896.954559 139.967797 
L 897.819292 133.210657 
L 898.684025 143.829033 
L 899.548759 148.012005 
L 900.413492 160.882751 
L 901.278225 142.863731 
L 902.142959 142.863731 
L 903.007692 166.352822 
L 903.872425 148.333772 
L 904.737159 150.264406 
L 905.601892 146.081402 
L 906.466625 132.88889 
L 907.331359 115.513405 
L 908.196092 142.541964 
L 909.060825 149.299074 
L 909.925559 146.724937 
L 910.790292 149.942608 
L 911.655025 121.62701 
L 912.519759 145.437868 
L 913.384492 145.116101 
L 914.249225 134.175989 
L 915.113959 129.992986 
L 915.978692 112.617501 
L 916.843425 132.567123 
L 917.708159 136.106591 
L 918.572892 144.1508 
L 919.437625 142.220197 
L 920.302359 137.715427 
L 921.167092 148.012005 
L 922.031825 170.214028 
L 922.896559 160.882751 
L 923.761292 157.665049 
L 924.626025 142.220197 
L 925.490759 139.324263 
L 926.355492 131.601821 
L 927.220225 126.775315 
L 928.949692 157.665049 
L 929.814425 125.166448 
L 930.679159 130.63652 
L 931.543892 151.873241 
L 932.408625 154.769145 
L 933.273359 154.447378 
L 934.138092 139.64603 
L 935.002825 119.052873 
L 935.867559 120.339942 
L 936.732292 115.513405 
L 937.597025 128.062383 
L 938.461758 117.765774 
L 939.326492 130.314753 
L 940.191225 159.595682 
L 941.055958 161.204518 
L 941.920692 167.318124 
L 942.785425 150.586173 
L 943.650158 138.680728 
L 944.514892 150.264406 
L 945.379625 120.983476 
L 946.244358 125.809983 
L 947.109092 123.557613 
L 947.973825 150.586173 
L 948.838558 126.13178 
L 949.703292 134.819523 
L 950.568025 108.434498 
L 951.432758 104.251525 
L 952.297492 119.696408 
L 953.162225 125.809983 
L 954.026958 121.948777 
L 954.891692 124.522914 
L 955.756425 177.936469 
L 956.621158 189.198348 
L 957.485892 157.986847 
L 958.350625 146.40317 
L 959.215358 140.611331 
L 960.080092 101.033823 
L 960.944825 122.914079 
L 961.809558 138.358961 
L 962.674292 142.863731 
L 963.539025 161.204518 
L 964.403758 185.980677 
L 965.268492 231.028256 
L 966.133225 162.813353 
L 966.997958 153.16031 
L 967.862692 105.860361 
L 968.727425 116.478706 
L 969.592158 108.11273 
L 970.456892 115.191637 
L 971.321625 95.242015 
L 972.186358 123.235846 
L 973.051092 118.409339 
L 973.915825 153.16031 
L 974.780558 148.333772 
L 975.645292 132.567123 
L 976.510025 137.071893 
L 977.374758 129.992986 
L 978.239492 117.444007 
L 979.104225 95.563783 
L 979.968958 107.790963 
L 980.833692 123.87938 
L 981.698425 143.185498 
L 982.563158 136.106591 
L 983.427892 119.696408 
L 984.292625 120.018175 
L 985.157358 92.346081 
L 986.022092 119.37464 
L 986.886825 120.018175 
L 987.751558 172.788164 
L 988.616292 237.785366 
L 989.481025 176.6494 
L 991.210492 106.503895 
L 992.075225 102.320922 
L 992.939958 100.712056 
L 993.804692 89.450177 
L 994.669425 101.033823 
L 995.534158 126.13178 
L 996.398891 118.731106 
L 997.263625 148.977306 
L 998.128358 146.081402 
L 998.993091 134.497756 
L 999.857825 114.226336 
L 1000.722558 124.201147 
L 1001.587291 90.415478 
L 1002.452025 79.797102 
L 1002.452025 79.797102 
" clip-path="url(#pc65fb53565)" style="fill: none; stroke: #4c72b0; stroke-width: 6; stroke-linecap: round"/>
   </g>
   <g id="line2d_14">
    <path d="M 138.58343 584.332852 
L 139.448163 558.917134 
L 140.312896 561.812598 
L 141.17763 559.560572 
L 142.042363 559.238851 
L 142.907096 559.560572 
L 143.77183 556.343391 
L 144.636563 556.986825 
L 145.501296 555.056521 
L 146.36603 554.7348 
L 147.230763 555.056521 
L 148.095496 554.7348 
L 148.96023 554.7348 
L 149.824963 554.413083 
L 150.689696 552.161057 
L 151.55443 554.091365 
L 152.419163 552.804492 
L 153.283896 559.560572 
L 154.14863 553.447931 
L 155.013363 556.343391 
L 155.878096 550.874188 
L 156.74283 551.195905 
L 157.607563 552.804492 
L 158.472296 552.161057 
L 159.33703 552.482775 
L 160.201763 558.273699 
L 161.066496 554.091365 
L 161.93123 554.091365 
L 162.795963 552.804492 
L 163.660696 555.699956 
L 164.52543 552.482775 
L 165.390163 553.126213 
L 166.254896 553.447931 
L 167.11963 551.83934 
L 167.984363 554.413083 
L 169.71383 552.482775 
L 170.578563 552.804492 
L 171.443296 553.769648 
L 172.30803 555.056521 
L 173.172763 551.83934 
L 174.037496 556.665108 
L 174.90223 552.482775 
L 175.766963 553.126213 
L 176.631696 551.83934 
L 177.49643 552.482775 
L 178.361163 550.874188 
L 179.225896 551.195905 
L 180.09063 554.7348 
L 180.955363 550.552467 
L 181.820096 551.517623 
L 182.684829 548.300441 
L 183.549563 550.230749 
L 184.414296 555.378239 
L 185.279029 550.552467 
L 186.143763 555.699956 
L 187.008496 552.482775 
L 187.873229 556.021673 
L 188.737963 555.056521 
L 189.602696 552.482775 
L 190.467429 553.769648 
L 191.332163 552.804492 
L 192.196896 552.161057 
L 193.061629 554.7348 
L 193.926363 553.126213 
L 194.791096 554.7348 
L 195.655829 552.804492 
L 196.520563 554.7348 
L 197.385296 552.161057 
L 198.250029 550.230749 
L 199.114763 554.413083 
L 199.979496 550.552467 
L 200.844229 549.587314 
L 201.708963 551.195905 
L 202.573696 557.951981 
L 203.438429 552.804492 
L 204.303163 550.230749 
L 205.167896 549.909032 
L 206.032629 552.161057 
L 206.897363 550.230749 
L 207.762096 554.413083 
L 208.626829 549.909032 
L 209.491563 553.126213 
L 210.356296 551.195905 
L 212.085763 549.909032 
L 212.950496 548.300441 
L 213.815229 547.335289 
L 214.679963 553.447931 
L 215.544696 548.94388 
L 216.409429 549.909032 
L 217.274163 549.265597 
L 218.138896 551.195905 
L 219.003629 550.552467 
L 219.868363 551.195905 
L 220.733096 552.161057 
L 221.597829 551.83934 
L 222.462563 551.195905 
L 223.327296 570.498982 
L 224.192029 552.482775 
L 225.056763 553.126213 
L 225.921496 546.691854 
L 226.786229 551.83934 
L 227.650963 546.048416 
L 228.515696 547.013572 
L 229.380429 552.161057 
L 230.245163 561.812598 
L 231.109896 550.230749 
L 231.974629 547.657006 
L 232.839363 549.265597 
L 233.704096 549.587314 
L 234.568829 551.83934 
L 235.433563 551.83934 
L 236.298296 552.161057 
L 237.163029 551.195905 
L 238.027763 552.161057 
L 238.892496 550.874188 
L 239.757229 553.126213 
L 240.621962 553.769648 
L 241.486696 549.265597 
L 242.351429 551.83934 
L 243.216162 550.552467 
L 244.080896 551.517623 
L 244.945629 551.83934 
L 245.810362 551.517623 
L 246.675096 548.622162 
L 247.539829 550.874188 
L 248.404562 551.195905 
L 249.269296 549.265597 
L 250.998762 550.552467 
L 251.863496 561.812598 
L 252.728229 547.978724 
L 253.592962 547.978724 
L 254.457696 549.909032 
L 255.322429 551.517623 
L 256.187162 546.691854 
L 257.051896 548.300441 
L 257.916629 550.874188 
L 258.781362 552.161057 
L 259.646096 550.230749 
L 260.510829 553.447931 
L 261.375562 552.482775 
L 262.240296 552.482775 
L 263.105029 551.195905 
L 263.969762 545.726698 
L 264.834496 561.169159 
L 265.699229 546.691854 
L 266.563962 548.622162 
L 267.428696 550.230749 
L 268.293429 554.413083 
L 269.158162 546.691854 
L 270.022896 551.195905 
L 270.887629 549.265597 
L 271.752362 552.804492 
L 272.617096 551.195905 
L 273.481829 548.300441 
L 274.346562 547.335289 
L 275.211296 557.630264 
L 276.076029 545.726698 
L 276.940762 546.048416 
L 277.805496 544.439829 
L 278.670229 551.517623 
L 279.534962 570.820699 
L 280.399696 553.126213 
L 281.264429 548.300441 
L 282.129162 548.622162 
L 282.993896 547.335289 
L 283.858629 547.657006 
L 284.723362 547.335289 
L 285.588096 544.761546 
L 286.452829 545.404981 
L 287.317562 551.195905 
L 288.182296 548.622162 
L 289.047029 538.970622 
L 289.911762 547.013572 
L 290.776496 549.587314 
L 291.641229 547.978724 
L 292.505962 541.866082 
L 293.370696 550.230749 
L 294.235429 547.978724 
L 295.100162 549.587314 
L 295.964896 542.831238 
L 296.829629 547.013572 
L 297.694362 544.118108 
L 298.559096 547.013572 
L 299.423829 546.048416 
L 301.153295 547.978724 
L 302.018029 545.726698 
L 302.882762 555.378239 
L 303.747495 550.230749 
L 304.612229 546.048416 
L 305.476962 542.831238 
L 306.341695 551.195905 
L 307.206429 543.474673 
L 308.071162 559.238851 
L 308.935895 548.622162 
L 309.800629 549.909032 
L 310.665362 545.083264 
L 311.530095 544.439829 
L 312.394829 549.587314 
L 313.259562 548.300441 
L 314.124295 546.691854 
L 314.989029 541.222648 
L 315.853762 548.94388 
L 316.718495 541.544365 
L 317.583229 545.404981 
L 318.447962 546.048416 
L 319.312695 546.048416 
L 320.177429 542.187804 
L 321.042162 546.691854 
L 321.906895 548.300441 
L 322.771629 548.622162 
L 323.636362 545.404981 
L 324.501095 548.622162 
L 325.365829 544.761546 
L 326.230562 543.152956 
L 327.095295 547.335289 
L 327.960029 545.726698 
L 328.824762 547.335289 
L 329.689495 543.474673 
L 330.554229 547.657006 
L 331.418962 562.456032 
L 332.283695 547.335289 
L 333.148429 543.79639 
L 334.013162 545.404981 
L 334.877895 547.978724 
L 335.742629 545.083264 
L 336.607362 545.726698 
L 337.472095 548.300441 
L 338.336829 544.118108 
L 339.201562 550.230749 
L 340.066295 545.726698 
L 340.931029 547.013572 
L 341.795762 546.370133 
L 342.660495 544.118108 
L 343.525229 545.404981 
L 344.389962 549.909032 
L 345.254695 553.126213 
L 346.119429 544.118108 
L 346.984162 550.230749 
L 347.848895 546.691854 
L 348.713629 542.509521 
L 349.578362 544.439829 
L 351.307829 545.083264 
L 352.172562 542.831238 
L 353.037295 546.691854 
L 353.902029 545.404981 
L 354.766762 547.657006 
L 355.631495 543.474673 
L 356.496229 545.404981 
L 357.360962 548.300441 
L 358.225695 542.831238 
L 359.090428 547.335289 
L 359.955162 548.622162 
L 360.819895 546.048416 
L 361.684628 558.273699 
L 363.414095 544.118108 
L 365.143562 545.404981 
L 366.008295 542.509521 
L 366.873028 548.300441 
L 367.737762 546.691854 
L 368.602495 547.657006 
L 369.467228 541.866082 
L 370.331962 549.587314 
L 371.196695 546.691854 
L 372.061428 546.691854 
L 372.926162 545.404981 
L 373.790895 546.048416 
L 374.655628 545.726698 
L 375.520362 543.474673 
L 376.385095 545.083264 
L 377.249828 546.048416 
L 378.114562 551.195905 
L 378.979295 547.013572 
L 379.844028 546.370133 
L 380.708762 544.761546 
L 381.573495 544.118108 
L 382.438228 541.544365 
L 383.302962 542.509521 
L 384.167695 541.866082 
L 385.032428 546.691854 
L 385.897162 543.79639 
L 386.761895 544.761546 
L 387.626628 541.544365 
L 388.491362 545.083264 
L 389.356095 546.370133 
L 390.220828 543.474673 
L 391.085562 544.439829 
L 391.950295 546.370133 
L 392.815028 544.439829 
L 394.544495 547.013572 
L 395.409228 544.761546 
L 396.273962 544.118108 
L 397.138695 550.552467 
L 398.003428 546.370133 
L 398.868162 544.761546 
L 399.732895 545.726698 
L 400.597628 544.761546 
L 401.462362 541.866082 
L 402.327095 544.118108 
L 403.191828 543.79639 
L 404.056562 546.370133 
L 404.921295 543.152956 
L 405.786028 540.90093 
L 406.650762 545.726698 
L 407.515495 541.866082 
L 408.380228 542.831238 
L 409.244962 542.509521 
L 410.109695 543.79639 
L 410.974428 542.187804 
L 411.839162 547.978724 
L 412.703895 547.657006 
L 413.568628 545.404981 
L 414.433362 541.544365 
L 415.298095 544.118108 
L 417.027561 542.187804 
L 417.892295 543.474673 
L 418.757028 547.657006 
L 419.621761 543.474673 
L 420.486495 558.273699 
L 421.351228 554.413083 
L 422.215961 544.761546 
L 423.080695 544.118108 
L 423.945428 546.048416 
L 424.810161 541.544365 
L 425.674895 543.152956 
L 426.539628 546.370133 
L 427.404361 540.579213 
L 428.269095 539.614057 
L 429.133828 546.691854 
L 429.998561 544.439829 
L 430.863295 547.013572 
L 431.728028 547.657006 
L 432.592761 539.29234 
L 433.457495 546.370133 
L 434.322228 543.152956 
L 435.186961 553.769648 
L 436.051695 538.327187 
L 436.916428 541.866082 
L 437.781161 541.544365 
L 438.645895 542.509521 
L 439.510628 542.831238 
L 440.375361 543.79639 
L 441.240095 544.118108 
L 442.104828 541.222648 
L 442.969561 544.439829 
L 443.834295 545.726698 
L 444.699028 540.90093 
L 445.563761 541.866082 
L 446.428495 541.866082 
L 447.293228 546.691854 
L 448.157961 538.327187 
L 449.022695 544.118108 
L 449.887428 542.509521 
L 450.752161 544.118108 
L 451.616895 543.152956 
L 452.481628 543.79639 
L 453.346361 540.90093 
L 454.211095 541.866082 
L 455.075828 544.761546 
L 455.940561 545.404981 
L 456.805295 545.083264 
L 457.670028 543.474673 
L 458.534761 546.048416 
L 459.399495 539.29234 
L 460.264228 539.29234 
L 461.128961 540.579213 
L 461.993695 546.370133 
L 462.858428 545.726698 
L 464.587895 539.614057 
L 465.452628 544.439829 
L 466.317361 543.474673 
L 467.182095 544.761546 
L 468.046828 545.726698 
L 468.911561 544.761546 
L 469.776295 539.614057 
L 470.641028 545.083264 
L 471.505761 542.509521 
L 472.370495 543.152956 
L 473.235228 538.005466 
L 474.099961 547.657006 
L 474.964694 543.474673 
L 475.829428 547.335289 
L 476.694161 543.152956 
L 477.558894 543.152956 
L 478.423628 543.474673 
L 479.288361 541.866082 
L 480.153094 547.013572 
L 481.017828 542.187804 
L 481.882561 543.474673 
L 482.747294 550.874188 
L 483.612028 552.482775 
L 484.476761 541.544365 
L 485.341494 542.509521 
L 486.206228 544.118108 
L 487.070961 542.831238 
L 487.935694 544.761546 
L 488.800428 542.187804 
L 489.665161 541.544365 
L 490.529894 541.866082 
L 491.394628 541.544365 
L 492.259361 546.691854 
L 493.124094 542.509521 
L 493.988828 542.509521 
L 494.853561 544.761546 
L 495.718294 543.152956 
L 496.583028 549.909032 
L 497.447761 545.726698 
L 498.312494 556.343391 
L 499.177228 544.439829 
L 500.041961 540.90093 
L 500.906694 542.187804 
L 501.771428 547.335289 
L 502.636161 541.866082 
L 503.500894 540.579213 
L 504.365628 545.726698 
L 505.230361 546.048416 
L 506.095094 546.048416 
L 506.959828 544.439829 
L 507.824561 543.79639 
L 508.689294 545.404981 
L 509.554028 545.083264 
L 510.418761 545.083264 
L 512.148228 541.222648 
L 513.012961 543.152956 
L 513.877694 547.335289 
L 514.742428 543.474673 
L 515.607161 544.439829 
L 516.471894 542.831238 
L 517.336628 543.79639 
L 518.201361 545.083264 
L 519.066094 542.509521 
L 519.930828 546.048416 
L 520.795561 550.230749 
L 521.660294 544.439829 
L 522.525028 544.118108 
L 523.389761 540.579213 
L 524.254494 541.866082 
L 525.119228 542.509521 
L 525.983961 540.257495 
L 526.848694 542.509521 
L 527.713428 544.439829 
L 528.578161 546.048416 
L 529.442894 548.94388 
L 531.172361 538.648901 
L 532.037094 542.509521 
L 532.901827 543.152956 
L 533.766561 538.970622 
L 534.631294 541.544365 
L 535.496027 542.831238 
L 536.360761 539.29234 
L 537.225494 546.048416 
L 538.090227 546.048416 
L 538.954961 543.474673 
L 539.819694 542.187804 
L 540.684427 538.005466 
L 542.413894 545.404981 
L 543.278627 545.726698 
L 544.143361 547.013572 
L 545.008094 549.587314 
L 545.872827 544.761546 
L 546.737561 547.335289 
L 547.602294 542.831238 
L 548.467027 544.118108 
L 549.331761 546.048416 
L 550.196494 542.187804 
L 551.061227 541.222648 
L 552.790694 545.726698 
L 553.655427 546.048416 
L 554.520161 543.474673 
L 555.384894 545.404981 
L 556.249627 543.152956 
L 557.114361 539.935774 
L 557.979094 546.691854 
L 558.843827 546.691854 
L 559.708561 540.90093 
L 561.438027 545.726698 
L 562.302761 546.370133 
L 563.167494 545.083264 
L 564.032227 543.152956 
L 564.896961 539.614057 
L 565.761694 548.300441 
L 566.626427 539.935774 
L 567.491161 543.79639 
L 568.355894 537.683753 
L 569.220627 544.761546 
L 570.085361 541.222648 
L 570.950094 543.152956 
L 571.814827 544.118108 
L 572.679561 541.222648 
L 573.544294 538.970622 
L 574.409027 543.474673 
L 575.273761 544.761546 
L 576.138494 541.544365 
L 577.003227 545.726698 
L 577.867961 544.439829 
L 578.732694 538.970622 
L 579.597427 545.726698 
L 580.462161 541.866082 
L 582.191627 547.978724 
L 583.056361 547.657006 
L 583.921094 542.509521 
L 584.785827 541.866082 
L 585.650561 538.005466 
L 586.515294 543.474673 
L 587.380027 546.691854 
L 588.244761 543.79639 
L 589.109494 546.370133 
L 589.974227 541.866082 
L 590.83896 553.447931 
L 591.703694 542.831238 
L 592.568427 543.152956 
L 593.43316 544.761546 
L 594.297894 543.79639 
L 595.162627 543.152956 
L 596.02736 543.79639 
L 596.892094 543.152956 
L 597.756827 545.404981 
L 598.62156 545.726698 
L 599.486294 553.769648 
L 600.351027 542.831238 
L 601.21576 541.544365 
L 602.080494 545.404981 
L 602.945227 541.544365 
L 603.80996 546.370133 
L 604.674694 541.544365 
L 605.539427 543.79639 
L 606.40416 544.761546 
L 607.268894 543.79639 
L 608.133627 546.370133 
L 608.99836 544.439829 
L 609.863094 544.439829 
L 610.727827 546.370133 
L 611.59256 543.474673 
L 613.322027 541.544365 
L 614.18676 546.691854 
L 615.051494 542.831238 
L 615.916227 543.79639 
L 616.78096 544.439829 
L 617.645694 542.187804 
L 618.510427 546.048416 
L 619.37516 542.187804 
L 620.239894 539.29234 
L 621.104627 543.474673 
L 621.96936 546.048416 
L 622.834094 543.152956 
L 623.698827 544.439829 
L 624.56356 546.691854 
L 625.428294 544.439829 
L 626.293027 547.335289 
L 627.15776 543.79639 
L 628.022494 544.761546 
L 628.887227 543.474673 
L 629.75196 543.79639 
L 630.616694 542.187804 
L 631.481427 542.187804 
L 632.34616 541.544365 
L 633.210894 541.222648 
L 634.075627 545.404981 
L 634.94036 539.935774 
L 635.805094 541.866082 
L 636.669827 539.29234 
L 637.53456 546.370133 
L 638.399294 543.474673 
L 639.264027 542.509521 
L 640.12876 547.335289 
L 640.993494 541.544365 
L 641.858227 544.439829 
L 643.587694 541.222648 
L 644.452427 542.831238 
L 645.31716 546.370133 
L 646.181894 543.79639 
L 647.046627 551.83934 
L 647.91136 542.509521 
L 648.776093 542.187804 
L 649.640827 547.657006 
L 650.50556 544.439829 
L 651.370293 546.048416 
L 652.235027 543.79639 
L 653.09976 544.761546 
L 653.964493 546.370133 
L 654.829227 544.439829 
L 655.69396 546.048416 
L 656.558693 546.370133 
L 657.423427 542.509521 
L 658.28816 545.404981 
L 659.152893 541.544365 
L 660.017627 542.831238 
L 660.88236 550.552467 
L 661.747093 543.79639 
L 662.611827 547.657006 
L 664.341293 540.90093 
L 666.07076 547.013572 
L 666.935493 546.048416 
L 667.800227 541.544365 
L 668.66496 543.152956 
L 669.529693 546.370133 
L 670.394427 542.831238 
L 671.25916 541.222648 
L 672.123893 545.726698 
L 672.988627 541.544365 
L 673.85336 543.152956 
L 674.718093 547.657006 
L 675.582827 544.118108 
L 676.44756 544.118108 
L 677.312293 545.083264 
L 678.177027 544.118108 
L 679.04176 547.978724 
L 679.906493 545.083264 
L 680.771227 546.048416 
L 681.63596 540.90093 
L 682.500693 542.831238 
L 683.365427 552.161057 
L 684.23016 551.517623 
L 685.094893 549.587314 
L 685.959627 542.187804 
L 686.82436 549.909032 
L 687.689093 546.370133 
L 688.553827 546.370133 
L 690.283293 545.726698 
L 691.148027 547.978724 
L 692.01276 549.909032 
L 692.877493 562.77775 
L 693.742227 547.013572 
L 694.60696 548.94388 
L 695.471693 545.404981 
L 696.336427 544.118108 
L 697.20116 544.761546 
L 698.065893 555.699956 
L 699.79536 542.509521 
L 700.660093 546.370133 
L 701.524827 551.83934 
L 702.38956 545.404981 
L 703.254293 548.94388 
L 704.119027 546.691854 
L 704.98376 544.118108 
L 705.848493 546.370133 
L 707.57796 541.544365 
L 708.442693 542.187804 
L 709.307426 545.726698 
L 710.17216 547.013572 
L 711.036893 547.335289 
L 711.901626 545.726698 
L 713.631093 543.79639 
L 714.495826 545.083264 
L 715.36056 546.048416 
L 716.225293 543.474673 
L 717.090026 544.118108 
L 717.95476 542.831238 
L 718.819493 540.90093 
L 719.684226 546.048416 
L 720.54896 545.083264 
L 721.413693 539.935774 
L 722.278426 542.831238 
L 723.14316 545.083264 
L 724.007893 540.90093 
L 724.872626 547.335289 
L 725.73736 547.335289 
L 726.602093 543.152956 
L 727.466826 545.404981 
L 728.33156 549.909032 
L 729.196293 540.90093 
L 730.061026 547.657006 
L 730.92576 543.152956 
L 731.790493 547.657006 
L 732.655226 546.048416 
L 733.51996 545.083264 
L 734.384693 546.691854 
L 735.249426 544.118108 
L 736.11416 549.909032 
L 736.978893 546.048416 
L 737.843626 546.691854 
L 738.70836 548.300441 
L 739.573093 544.118108 
L 740.437826 546.370133 
L 741.30256 546.691854 
L 742.167293 544.439829 
L 743.032026 542.509521 
L 743.89676 545.404981 
L 744.761493 545.726698 
L 745.626226 546.370133 
L 746.49096 547.335289 
L 747.355693 552.161057 
L 748.220426 546.370133 
L 749.08516 547.335289 
L 749.949893 547.013572 
L 750.814626 547.013572 
L 751.67936 546.370133 
L 752.544093 546.370133 
L 753.408826 547.335289 
L 754.27356 546.691854 
L 755.138293 544.118108 
L 756.003026 544.439829 
L 756.86776 545.083264 
L 757.732493 543.152956 
L 758.597226 550.552467 
L 759.46196 543.152956 
L 760.326693 548.622162 
L 761.191426 544.761546 
L 762.05616 546.048416 
L 762.920893 548.300441 
L 763.785626 545.726698 
L 764.650359 544.439829 
L 765.515093 544.118108 
L 766.379826 547.013572 
L 767.244559 546.370133 
L 768.109293 547.657006 
L 768.974026 545.404981 
L 769.838759 544.761546 
L 770.703493 545.404981 
L 771.568226 542.831238 
L 772.432959 546.370133 
L 773.297693 547.335289 
L 775.027159 542.187804 
L 775.891893 541.544365 
L 776.756626 547.657006 
L 777.621359 545.083264 
L 778.486093 546.370133 
L 779.350826 544.118108 
L 780.215559 547.657006 
L 781.080293 540.90093 
L 781.945026 544.118108 
L 782.809759 541.544365 
L 783.674493 546.048416 
L 784.539226 543.79639 
L 785.403959 539.29234 
L 786.268693 544.761546 
L 787.133426 544.439829 
L 788.862893 546.370133 
L 789.727626 550.230749 
L 790.592359 550.230749 
L 791.457093 545.404981 
L 792.321826 543.474673 
L 793.186559 541.866082 
L 794.051293 543.152956 
L 794.916026 543.79639 
L 796.645493 545.726698 
L 797.510226 546.048416 
L 798.374959 542.831238 
L 799.239693 544.439829 
L 800.104426 541.866082 
L 800.969159 547.335289 
L 801.833893 547.013572 
L 802.698626 545.726698 
L 803.563359 547.978724 
L 804.428093 548.94388 
L 805.292826 548.622162 
L 806.157559 545.726698 
L 807.022293 545.404981 
L 807.887026 547.013572 
L 808.751759 547.657006 
L 809.616493 544.761546 
L 810.481226 545.404981 
L 811.345959 544.118108 
L 812.210693 546.048416 
L 813.075426 544.439829 
L 813.940159 546.370133 
L 814.804893 544.761546 
L 815.669626 546.048416 
L 816.534359 546.370133 
L 817.399093 541.544365 
L 818.263826 546.370133 
L 819.128559 548.300441 
L 819.993293 543.79639 
L 820.858026 546.370133 
L 821.722759 543.79639 
L 822.587492 546.691854 
L 823.452226 546.048416 
L 824.316959 551.517623 
L 825.181692 545.726698 
L 826.046426 545.726698 
L 826.911159 543.79639 
L 827.775892 549.909032 
L 828.640626 543.474673 
L 829.505359 543.474673 
L 830.370092 542.509521 
L 831.234826 546.691854 
L 832.099559 544.118108 
L 832.964292 546.691854 
L 833.829026 547.657006 
L 834.693759 546.370133 
L 835.558492 543.474673 
L 836.423226 545.404981 
L 837.287959 543.79639 
L 838.152692 546.370133 
L 839.017426 545.726698 
L 839.882159 544.118108 
L 840.746892 547.978724 
L 841.611626 541.222648 
L 842.476359 546.370133 
L 843.341092 544.439829 
L 844.205826 544.439829 
L 845.070559 547.657006 
L 845.935292 546.048416 
L 846.800026 544.118108 
L 847.664759 546.691854 
L 848.529492 544.761546 
L 849.394226 542.187804 
L 850.258959 543.474673 
L 851.123692 543.79639 
L 851.988426 545.726698 
L 852.853159 546.048416 
L 853.717892 543.474673 
L 854.582626 545.083264 
L 855.447359 543.79639 
L 856.312092 546.048416 
L 857.176826 548.94388 
L 858.041559 544.439829 
L 858.906292 544.761546 
L 859.771026 541.544365 
L 860.635759 547.013572 
L 861.500492 542.187804 
L 862.365226 542.187804 
L 863.229959 547.013572 
L 864.094692 542.187804 
L 864.959426 545.404981 
L 865.824159 545.726698 
L 866.688892 544.118108 
L 867.553626 541.866082 
L 868.418359 543.152956 
L 869.283092 546.048416 
L 870.147826 544.118108 
L 871.877292 544.761546 
L 872.742026 544.761546 
L 873.606759 547.978724 
L 874.471492 546.370133 
L 875.336226 545.404981 
L 876.200959 547.978724 
L 877.065692 542.831238 
L 877.930426 540.257495 
L 878.795159 544.118108 
L 879.659892 544.118108 
L 880.524625 543.79639 
L 881.389359 547.013572 
L 882.254092 540.90093 
L 883.118825 542.187804 
L 883.983559 543.79639 
L 884.848292 542.187804 
L 886.577759 548.94388 
L 887.442492 547.657006 
L 888.307225 544.761546 
L 889.171959 545.726698 
L 890.036692 545.083264 
L 890.901425 544.761546 
L 891.766159 542.187804 
L 892.630892 544.439829 
L 893.495625 545.404981 
L 894.360359 541.866082 
L 895.225092 546.370133 
L 896.089825 545.404981 
L 896.954559 544.761546 
L 897.819292 542.509521 
L 898.684025 547.013572 
L 899.548759 545.083264 
L 900.413492 549.265597 
L 901.278225 544.439829 
L 902.142959 541.866082 
L 903.007692 545.726698 
L 903.872425 543.152956 
L 904.737159 546.370133 
L 905.601892 550.230749 
L 906.466625 546.691854 
L 907.331359 541.544365 
L 908.196092 544.439829 
L 909.060825 544.439829 
L 909.925559 543.474673 
L 910.790292 541.866082 
L 911.655025 542.187804 
L 912.519759 543.474673 
L 913.384492 546.370133 
L 914.249225 548.622162 
L 915.113959 540.579213 
L 915.978692 546.691854 
L 916.843425 543.152956 
L 917.708159 544.118108 
L 918.572892 542.187804 
L 919.437625 545.726698 
L 920.302359 544.118108 
L 921.167092 546.048416 
L 922.031825 541.866082 
L 922.896559 546.048416 
L 923.761292 549.587314 
L 924.626025 543.474673 
L 925.490759 548.300441 
L 926.355492 542.831238 
L 927.220225 542.187804 
L 928.084959 544.761546 
L 928.949692 543.474673 
L 929.814425 546.691854 
L 930.679159 543.152956 
L 931.543892 546.048416 
L 932.408625 543.79639 
L 933.273359 547.335289 
L 934.138092 543.152956 
L 935.867559 542.509521 
L 936.732292 545.083264 
L 937.597025 541.222648 
L 938.461758 544.439829 
L 939.326492 541.866082 
L 940.191225 551.195905 
L 941.055958 545.726698 
L 941.920692 543.152956 
L 942.785425 543.152956 
L 943.650158 545.726698 
L 944.514892 546.048416 
L 945.379625 541.866082 
L 946.244358 542.509521 
L 947.109092 546.370133 
L 947.973825 545.083264 
L 948.838558 545.726698 
L 949.703292 543.79639 
L 950.568025 544.761546 
L 951.432758 541.866082 
L 952.297492 544.761546 
L 953.162225 538.648901 
L 954.891692 547.978724 
L 955.756425 545.404981 
L 956.621158 543.474673 
L 957.485892 545.083264 
L 958.350625 542.187804 
L 959.215358 546.691854 
L 960.080092 544.118108 
L 961.809558 543.474673 
L 962.674292 542.187804 
L 963.539025 545.083264 
L 964.403758 544.118108 
L 965.268492 544.439829 
L 966.133225 548.622162 
L 966.997958 542.509521 
L 967.862692 544.118108 
L 968.727425 544.761546 
L 969.592158 543.474673 
L 970.456892 544.761546 
L 972.186358 544.118108 
L 973.051092 546.048416 
L 973.915825 546.370133 
L 974.780558 543.474673 
L 975.645292 545.726698 
L 976.510025 538.327187 
L 977.374758 543.474673 
L 978.239492 541.866082 
L 979.104225 541.544365 
L 979.968958 540.90093 
L 980.833692 549.587314 
L 981.698425 543.152956 
L 982.563158 544.439829 
L 983.427892 544.761546 
L 984.292625 545.404981 
L 985.157358 543.474673 
L 986.022092 546.048416 
L 986.886825 544.761546 
L 987.751558 565.994931 
L 988.616292 544.761546 
L 990.345758 539.614057 
L 991.210492 543.152956 
L 992.075225 544.118108 
L 992.939958 542.831238 
L 993.804692 542.187804 
L 994.669425 542.187804 
L 995.534158 546.691854 
L 996.398891 547.657006 
L 997.263625 542.187804 
L 998.128358 544.439829 
L 998.993091 544.118108 
L 999.857825 546.048416 
L 1000.722558 540.90093 
L 1001.587291 539.614057 
L 1002.452025 542.187804 
L 1002.452025 542.187804 
" clip-path="url(#pc65fb53565)" style="fill: none; stroke: #dd8452; stroke-width: 6; stroke-linecap: round"/>
   </g>
   <g id="line2d_15"/>
   <g id="line2d_16"/>
   <g id="patch_3">
    <path d="M 95.39 609.894375 
L 95.39 54.554375 
" style="fill: none; stroke: #cccccc; stroke-width: 1.875; stroke-linejoin: miter; stroke-linecap: square"/>
   </g>
   <g id="patch_4">
    <path d="M 1045.645455 609.894375 
L 1045.645455 54.554375 
" style="fill: none; stroke: #cccccc; stroke-width: 1.875; stroke-linejoin: miter; stroke-linecap: square"/>
   </g>
   <g id="patch_5">
    <path d="M 95.39 609.894375 
L 1045.645455 609.894375 
" style="fill: none; stroke: #cccccc; stroke-width: 1.875; stroke-linejoin: miter; stroke-linecap: square"/>
   </g>
   <g id="patch_6">
    <path d="M 95.39 54.554375 
L 1045.645455 54.554375 
" style="fill: none; stroke: #cccccc; stroke-width: 1.875; stroke-linejoin: miter; stroke-linecap: square"/>
   </g>
   <g id="text_15">
    <!-- Training Progress: Accuracy -->
    <g style="fill: #262626" transform="translate(287.26804 34.554375) scale(0.36 -0.36)">
     <defs>
      <path id="DejaVuSans-Bold-54" d="M 31 4666 
L 4331 4666 
L 4331 3756 
L 2784 3756 
L 2784 0 
L 1581 0 
L 1581 3756 
L 31 3756 
L 31 4666 
z
" transform="scale(0.015625)"/>
      <path id="DejaVuSans-Bold-72" d="M 3138 2547 
Q 2991 2616 2845 2648 
Q 2700 2681 2553 2681 
Q 2122 2681 1889 2404 
Q 1656 2128 1656 1613 
L 1656 0 
L 538 0 
L 538 3500 
L 1656 3500 
L 1656 2925 
Q 1872 3269 2151 3426 
Q 2431 3584 2822 3584 
Q 2878 3584 2943 3579 
Q 3009 3575 3134 3559 
L 3138 2547 
z
" transform="scale(0.015625)"/>
      <path id="DejaVuSans-Bold-61" d="M 2106 1575 
Q 1756 1575 1579 1456 
Q 1403 1338 1403 1106 
Q 1403 894 1545 773 
Q 1688 653 1941 653 
Q 2256 653 2472 879 
Q 2688 1106 2688 1447 
L 2688 1575 
L 2106 1575 
z
M 3816 1997 
L 3816 0 
L 2688 0 
L 2688 519 
Q 2463 200 2181 54 
Q 1900 -91 1497 -91 
Q 953 -91 614 226 
Q 275 544 275 1050 
Q 275 1666 698 1953 
Q 1122 2241 2028 2241 
L 2688 2241 
L 2688 2328 
Q 2688 2594 2478 2717 
Q 2269 2841 1825 2841 
Q 1466 2841 1156 2769 
Q 847 2697 581 2553 
L 581 3406 
Q 941 3494 1303 3539 
Q 1666 3584 2028 3584 
Q 2975 3584 3395 3211 
Q 3816 2838 3816 1997 
z
" transform="scale(0.015625)"/>
      <path id="DejaVuSans-Bold-69" d="M 538 3500 
L 1656 3500 
L 1656 0 
L 538 0 
L 538 3500 
z
M 538 4863 
L 1656 4863 
L 1656 3950 
L 538 3950 
L 538 4863 
z
" transform="scale(0.015625)"/>
      <path id="DejaVuSans-Bold-6e" d="M 4056 2131 
L 4056 0 
L 2931 0 
L 2931 347 
L 2931 1631 
Q 2931 2084 2911 2256 
Q 2891 2428 2841 2509 
Q 2775 2619 2662 2680 
Q 2550 2741 2406 2741 
Q 2056 2741 1856 2470 
Q 1656 2200 1656 1722 
L 1656 0 
L 538 0 
L 538 3500 
L 1656 3500 
L 1656 2988 
Q 1909 3294 2193 3439 
Q 2478 3584 2822 3584 
Q 3428 3584 3742 3212 
Q 4056 2841 4056 2131 
z
" transform="scale(0.015625)"/>
      <path id="DejaVuSans-Bold-67" d="M 2919 594 
Q 2688 288 2409 144 
Q 2131 0 1766 0 
Q 1125 0 706 504 
Q 288 1009 288 1791 
Q 288 2575 706 3076 
Q 1125 3578 1766 3578 
Q 2131 3578 2409 3434 
Q 2688 3291 2919 2981 
L 2919 3500 
L 4044 3500 
L 4044 353 
Q 4044 -491 3511 -936 
Q 2978 -1381 1966 -1381 
Q 1638 -1381 1331 -1331 
Q 1025 -1281 716 -1178 
L 716 -306 
Q 1009 -475 1290 -558 
Q 1572 -641 1856 -641 
Q 2406 -641 2662 -400 
Q 2919 -159 2919 353 
L 2919 594 
z
M 2181 2772 
Q 1834 2772 1640 2515 
Q 1447 2259 1447 1791 
Q 1447 1309 1634 1061 
Q 1822 813 2181 813 
Q 2531 813 2725 1069 
Q 2919 1325 2919 1791 
Q 2919 2259 2725 2515 
Q 2531 2772 2181 2772 
z
" transform="scale(0.015625)"/>
      <path id="DejaVuSans-Bold-20" transform="scale(0.015625)"/>
      <path id="DejaVuSans-Bold-50" d="M 588 4666 
L 2584 4666 
Q 3475 4666 3951 4270 
Q 4428 3875 4428 3144 
Q 4428 2409 3951 2014 
Q 3475 1619 2584 1619 
L 1791 1619 
L 1791 0 
L 588 0 
L 588 4666 
z
M 1791 3794 
L 1791 2491 
L 2456 2491 
Q 2806 2491 2997 2661 
Q 3188 2831 3188 3144 
Q 3188 3456 2997 3625 
Q 2806 3794 2456 3794 
L 1791 3794 
z
" transform="scale(0.015625)"/>
      <path id="DejaVuSans-Bold-6f" d="M 2203 2784 
Q 1831 2784 1636 2517 
Q 1441 2250 1441 1747 
Q 1441 1244 1636 976 
Q 1831 709 2203 709 
Q 2569 709 2762 976 
Q 2956 1244 2956 1747 
Q 2956 2250 2762 2517 
Q 2569 2784 2203 2784 
z
M 2203 3584 
Q 3106 3584 3614 3096 
Q 4122 2609 4122 1747 
Q 4122 884 3614 396 
Q 3106 -91 2203 -91 
Q 1297 -91 786 396 
Q 275 884 275 1747 
Q 275 2609 786 3096 
Q 1297 3584 2203 3584 
z
" transform="scale(0.015625)"/>
      <path id="DejaVuSans-Bold-65" d="M 4031 1759 
L 4031 1441 
L 1416 1441 
Q 1456 1047 1700 850 
Q 1944 653 2381 653 
Q 2734 653 3104 758 
Q 3475 863 3866 1075 
L 3866 213 
Q 3469 63 3072 -14 
Q 2675 -91 2278 -91 
Q 1328 -91 801 392 
Q 275 875 275 1747 
Q 275 2603 792 3093 
Q 1309 3584 2216 3584 
Q 3041 3584 3536 3087 
Q 4031 2591 4031 1759 
z
M 2881 2131 
Q 2881 2450 2695 2645 
Q 2509 2841 2209 2841 
Q 1884 2841 1681 2658 
Q 1478 2475 1428 2131 
L 2881 2131 
z
" transform="scale(0.015625)"/>
      <path id="DejaVuSans-Bold-73" d="M 3272 3391 
L 3272 2541 
Q 2913 2691 2578 2766 
Q 2244 2841 1947 2841 
Q 1628 2841 1473 2761 
Q 1319 2681 1319 2516 
Q 1319 2381 1436 2309 
Q 1553 2238 1856 2203 
L 2053 2175 
Q 2913 2066 3209 1816 
Q 3506 1566 3506 1031 
Q 3506 472 3093 190 
Q 2681 -91 1863 -91 
Q 1516 -91 1145 -36 
Q 775 19 384 128 
L 384 978 
Q 719 816 1070 734 
Q 1422 653 1784 653 
Q 2113 653 2278 743 
Q 2444 834 2444 1013 
Q 2444 1163 2330 1236 
Q 2216 1309 1875 1350 
L 1678 1375 
Q 931 1469 631 1722 
Q 331 1975 331 2491 
Q 331 3047 712 3315 
Q 1094 3584 1881 3584 
Q 2191 3584 2531 3537 
Q 2872 3491 3272 3391 
z
" transform="scale(0.015625)"/>
      <path id="DejaVuSans-Bold-3a" d="M 716 3500 
L 1844 3500 
L 1844 2291 
L 716 2291 
L 716 3500 
z
M 716 1209 
L 1844 1209 
L 1844 0 
L 716 0 
L 716 1209 
z
" transform="scale(0.015625)"/>
      <path id="DejaVuSans-Bold-41" d="M 3419 850 
L 1538 850 
L 1241 0 
L 31 0 
L 1759 4666 
L 3194 4666 
L 4922 0 
L 3713 0 
L 3419 850 
z
M 1838 1716 
L 3116 1716 
L 2478 3572 
L 1838 1716 
z
" transform="scale(0.015625)"/>
      <path id="DejaVuSans-Bold-63" d="M 3366 3391 
L 3366 2478 
Q 3138 2634 2908 2709 
Q 2678 2784 2431 2784 
Q 1963 2784 1702 2511 
Q 1441 2238 1441 1747 
Q 1441 1256 1702 982 
Q 1963 709 2431 709 
Q 2694 709 2930 787 
Q 3166 866 3366 1019 
L 3366 103 
Q 3103 6 2833 -42 
Q 2563 -91 2291 -91 
Q 1344 -91 809 395 
Q 275 881 275 1747 
Q 275 2613 809 3098 
Q 1344 3584 2291 3584 
Q 2566 3584 2833 3536 
Q 3100 3488 3366 3391 
z
" transform="scale(0.015625)"/>
      <path id="DejaVuSans-Bold-75" d="M 500 1363 
L 500 3500 
L 1625 3500 
L 1625 3150 
Q 1625 2866 1622 2436 
Q 1619 2006 1619 1863 
Q 1619 1441 1641 1255 
Q 1663 1069 1716 984 
Q 1784 875 1895 815 
Q 2006 756 2150 756 
Q 2500 756 2700 1025 
Q 2900 1294 2900 1772 
L 2900 3500 
L 4019 3500 
L 4019 0 
L 2900 0 
L 2900 506 
Q 2647 200 2364 54 
Q 2081 -91 1741 -91 
Q 1134 -91 817 281 
Q 500 653 500 1363 
z
" transform="scale(0.015625)"/>
      <path id="DejaVuSans-Bold-79" d="M 78 3500 
L 1197 3500 
L 2138 1125 
L 2938 3500 
L 4056 3500 
L 2584 -331 
Q 2363 -916 2067 -1148 
Q 1772 -1381 1288 -1381 
L 641 -1381 
L 641 -647 
L 991 -647 
Q 1275 -647 1404 -556 
Q 1534 -466 1606 -231 
L 1638 -134 
L 78 3500 
z
" transform="scale(0.015625)"/>
     </defs>
     <use xlink:href="#DejaVuSans-Bold-54"/>
     <use xlink:href="#DejaVuSans-Bold-72" transform="translate(57.212891 0)"/>
     <use xlink:href="#DejaVuSans-Bold-61" transform="translate(106.529297 0)"/>
     <use xlink:href="#DejaVuSans-Bold-69" transform="translate(174.009766 0)"/>
     <use xlink:href="#DejaVuSans-Bold-6e" transform="translate(208.287109 0)"/>
     <use xlink:href="#DejaVuSans-Bold-69" transform="translate(279.478516 0)"/>
     <use xlink:href="#DejaVuSans-Bold-6e" transform="translate(313.755859 0)"/>
     <use xlink:href="#DejaVuSans-Bold-67" transform="translate(384.947266 0)"/>
     <use xlink:href="#DejaVuSans-Bold-20" transform="translate(456.529297 0)"/>
     <use xlink:href="#DejaVuSans-Bold-50" transform="translate(491.34375 0)"/>
     <use xlink:href="#DejaVuSans-Bold-72" transform="translate(564.634766 0)"/>
     <use xlink:href="#DejaVuSans-Bold-6f" transform="translate(613.951172 0)"/>
     <use xlink:href="#DejaVuSans-Bold-67" transform="translate(682.652344 0)"/>
     <use xlink:href="#DejaVuSans-Bold-72" transform="translate(754.234375 0)"/>
     <use xlink:href="#DejaVuSans-Bold-65" transform="translate(803.550781 0)"/>
     <use xlink:href="#DejaVuSans-Bold-73" transform="translate(871.373047 0)"/>
     <use xlink:href="#DejaVuSans-Bold-73" transform="translate(930.894531 0)"/>
     <use xlink:href="#DejaVuSans-Bold-3a" transform="translate(990.416016 0)"/>
     <use xlink:href="#DejaVuSans-Bold-20" transform="translate(1030.40625 0)"/>
     <use xlink:href="#DejaVuSans-Bold-41" transform="translate(1065.220703 0)"/>
     <use xlink:href="#DejaVuSans-Bold-63" transform="translate(1142.613281 0)"/>
     <use xlink:href="#DejaVuSans-Bold-63" transform="translate(1201.890625 0)"/>
     <use xlink:href="#DejaVuSans-Bold-75" transform="translate(1261.167969 0)"/>
     <use xlink:href="#DejaVuSans-Bold-72" transform="translate(1332.359375 0)"/>
     <use xlink:href="#DejaVuSans-Bold-61" transform="translate(1381.675781 0)"/>
     <use xlink:href="#DejaVuSans-Bold-63" transform="translate(1449.15625 0)"/>
     <use xlink:href="#DejaVuSans-Bold-79" transform="translate(1508.433594 0)"/>
    </g>
   </g>
   <g id="legend_1">
    <g id="patch_7">
     <path d="M 117.79 174.094375 
L 294.67 174.094375 
Q 301.07 174.094375 301.07 167.694375 
L 301.07 76.954375 
Q 301.07 70.554375 294.67 70.554375 
L 117.79 70.554375 
Q 111.39 70.554375 111.39 76.954375 
L 111.39 167.694375 
Q 111.39 174.094375 117.79 174.094375 
z
" style="fill: #ffffff; opacity: 0.8; stroke: #cccccc; stroke-width: 1.5; stroke-linejoin: miter"/>
    </g>
    <g id="line2d_17">
     <path d="M 124.19 96.469375 
L 156.19 96.469375 
L 188.19 96.469375 
" style="fill: none; stroke: #4c72b0; stroke-width: 6; stroke-linecap: round"/>
    </g>
    <g id="text_16">
     <!-- train -->
     <g style="fill: #262626" transform="translate(213.79 107.669375) scale(0.32 -0.32)">
      <defs>
       <path id="DejaVuSans-74" d="M 1172 4494 
L 1172 3500 
L 2356 3500 
L 2356 3053 
L 1172 3053 
L 1172 1153 
Q 1172 725 1289 603 
Q 1406 481 1766 481 
L 2356 481 
L 2356 0 
L 1766 0 
Q 1100 0 847 248 
Q 594 497 594 1153 
L 594 3053 
L 172 3053 
L 172 3500 
L 594 3500 
L 594 4494 
L 1172 4494 
z
" transform="scale(0.015625)"/>
       <path id="DejaVuSans-69" d="M 603 3500 
L 1178 3500 
L 1178 0 
L 603 0 
L 603 3500 
z
M 603 4863 
L 1178 4863 
L 1178 4134 
L 603 4134 
L 603 4863 
z
" transform="scale(0.015625)"/>
       <path id="DejaVuSans-6e" d="M 3513 2113 
L 3513 0 
L 2938 0 
L 2938 2094 
Q 2938 2591 2744 2837 
Q 2550 3084 2163 3084 
Q 1697 3084 1428 2787 
Q 1159 2491 1159 1978 
L 1159 0 
L 581 0 
L 581 3500 
L 1159 3500 
L 1159 2956 
Q 1366 3272 1645 3428 
Q 1925 3584 2291 3584 
Q 2894 3584 3203 3211 
Q 3513 2838 3513 2113 
z
" transform="scale(0.015625)"/>
      </defs>
      <use xlink:href="#DejaVuSans-74"/>
      <use xlink:href="#DejaVuSans-72" transform="translate(39.208984 0)"/>
      <use xlink:href="#DejaVuSans-61" transform="translate(80.322266 0)"/>
      <use xlink:href="#DejaVuSans-69" transform="translate(141.601562 0)"/>
      <use xlink:href="#DejaVuSans-6e" transform="translate(169.384766 0)"/>
     </g>
    </g>
    <g id="line2d_18">
     <path d="M 124.19 143.439375 
L 156.19 143.439375 
L 188.19 143.439375 
" style="fill: none; stroke: #dd8452; stroke-width: 6; stroke-linecap: round"/>
    </g>
    <g id="text_17">
     <!-- val -->
     <g style="fill: #262626" transform="translate(213.79 154.639375) scale(0.32 -0.32)">
      <defs>
       <path id="DejaVuSans-76" d="M 191 3500 
L 800 3500 
L 1894 563 
L 2988 3500 
L 3597 3500 
L 2284 0 
L 1503 0 
L 191 3500 
z
" transform="scale(0.015625)"/>
       <path id="DejaVuSans-6c" d="M 603 4863 
L 1178 4863 
L 1178 0 
L 603 0 
L 603 4863 
z
" transform="scale(0.015625)"/>
      </defs>
      <use xlink:href="#DejaVuSans-76"/>
      <use xlink:href="#DejaVuSans-61" transform="translate(59.179688 0)"/>
      <use xlink:href="#DejaVuSans-6c" transform="translate(120.458984 0)"/>
     </g>
    </g>
   </g>
  </g>
 </g>
 <defs>
  <clipPath id="pc65fb53565">
   <rect x="95.39" y="54.554375" width="950.255455" height="555.34"/>
  </clipPath>
 </defs>
</svg>
