<?xml version="1.0" encoding="utf-8" standalone="no"?>
<!DOCTYPE svg PUBLIC "-//W3C//DTD SVG 1.1//EN"
  "http://www.w3.org/Graphics/SVG/1.1/DTD/svg11.dtd">
<svg xmlns:xlink="http://www.w3.org/1999/xlink" width="1052.845455pt" height="695.534375pt" viewBox="0 0 1052.845455 695.534375" xmlns="http://www.w3.org/2000/svg" version="1.1">
 <metadata>
  <rdf:RDF xmlns:dc="http://purl.org/dc/elements/1.1/" xmlns:cc="http://creativecommons.org/ns#" xmlns:rdf="http://www.w3.org/1999/02/22-rdf-syntax-ns#">
   <cc:Work>
    <dc:type rdf:resource="http://purl.org/dc/dcmitype/StillImage"/>
    <dc:date>2026-04-10T18:34:16.056639</dc:date>
    <dc:format>image/svg+xml</dc:format>
    <dc:creator>
     <cc:Agent>
      <dc:title>Matplotlib v3.10.8, https://matplotlib.org/</dc:title>
     </cc:Agent>
    </dc:creator>
   </cc:Work>
  </rdf:RDF>
 </metadata>
 <defs>
  <style type="text/css">*{stroke-linejoin: round; stroke-linecap: butt}</style>
 </defs>
 <g id="figure_1">
  <g id="patch_1">
   <path d="M 0 695.534375 
L 1052.845455 695.534375 
L 1052.845455 0 
L 0 0 
z
" style="fill: #ffffff"/>
  </g>
  <g id="axes_1">
   <g id="patch_2">
    <path d="M 95.39 609.894375 
L 1045.645455 609.894375 
L 1045.645455 54.554375 
L 95.39 54.554375 
z
" style="fill: #ffffff"/>
   </g>
   <g id="matplotlib.axis_1">
    <g id="xtick_1">
     <g id="line2d_1">
      <path d="M 137.718696 609.894375 
L 137.718696 54.554375 
" clip-path="url(#pb9724e890e)" style="fill: none; stroke: #cccccc; stroke-opacity: 0.3; stroke-width: 1.5; stroke-linecap: round"/>
     </g>
     <g id="text_1">
      <!-- 0 -->
      <g style="fill: #262626" transform="translate(127.538696 646.709375) scale(0.32 -0.32)">
       <defs>
        <path id="DejaVuSans-30" d="M 2034 4250 
Q 1547 4250 1301 3770 
Q 1056 3291 1056 2328 
Q 1056 1369 1301 889 
Q 1547 409 2034 409 
Q 2525 409 2770 889 
Q 3016 1369 3016 2328 
Q 3016 3291 2770 3770 
Q 2525 4250 2034 4250 
z
M 2034 4750 
Q 2819 4750 3233 4129 
Q 3647 3509 3647 2328 
Q 3647 1150 3233 529 
Q 2819 -91 2034 -91 
Q 1250 -91 836 529 
Q 422 1150 422 2328 
Q 422 3509 836 4129 
Q 1250 4750 2034 4750 
z
" transform="scale(0.015625)"/>
       </defs>
       <use xlink:href="#DejaVuSans-30"/>
      </g>
     </g>
    </g>
    <g id="xtick_2">
     <g id="line2d_2">
      <path d="M 310.665362 609.894375 
L 310.665362 54.554375 
" clip-path="url(#pb9724e890e)" style="fill: none; stroke: #cccccc; stroke-opacity: 0.3; stroke-width: 1.5; stroke-linecap: round"/>
     </g>
     <g id="text_2">
      <!-- 200 -->
      <g style="fill: #262626" transform="translate(280.125362 646.709375) scale(0.32 -0.32)">
       <defs>
        <path id="DejaVuSans-32" d="M 1228 531 
L 3431 531 
L 3431 0 
L 469 0 
L 469 531 
Q 828 903 1448 1529 
Q 2069 2156 2228 2338 
Q 2531 2678 2651 2914 
Q 2772 3150 2772 3378 
Q 2772 3750 2511 3984 
Q 2250 4219 1831 4219 
Q 1534 4219 1204 4116 
Q 875 4013 500 3803 
L 500 4441 
Q 881 4594 1212 4672 
Q 1544 4750 1819 4750 
Q 2544 4750 2975 4387 
Q 3406 4025 3406 3419 
Q 3406 3131 3298 2873 
Q 3191 2616 2906 2266 
Q 2828 2175 2409 1742 
Q 1991 1309 1228 531 
z
" transform="scale(0.015625)"/>
       </defs>
       <use xlink:href="#DejaVuSans-32"/>
       <use xlink:href="#DejaVuSans-30" transform="translate(63.623047 0)"/>
       <use xlink:href="#DejaVuSans-30" transform="translate(127.246094 0)"/>
      </g>
     </g>
    </g>
    <g id="xtick_3">
     <g id="line2d_3">
      <path d="M 483.612028 609.894375 
L 483.612028 54.554375 
" clip-path="url(#pb9724e890e)" style="fill: none; stroke: #cccccc; stroke-opacity: 0.3; stroke-width: 1.5; stroke-linecap: round"/>
     </g>
     <g id="text_3">
      <!-- 400 -->
      <g style="fill: #262626" transform="translate(453.072028 646.709375) scale(0.32 -0.32)">
       <defs>
        <path id="DejaVuSans-34" d="M 2419 4116 
L 825 1625 
L 2419 1625 
L 2419 4116 
z
M 2253 4666 
L 3047 4666 
L 3047 1625 
L 3713 1625 
L 3713 1100 
L 3047 1100 
L 3047 0 
L 2419 0 
L 2419 1100 
L 313 1100 
L 313 1709 
L 2253 4666 
z
" transform="scale(0.015625)"/>
       </defs>
       <use xlink:href="#DejaVuSans-34"/>
       <use xlink:href="#DejaVuSans-30" transform="translate(63.623047 0)"/>
       <use xlink:href="#DejaVuSans-30" transform="translate(127.246094 0)"/>
      </g>
     </g>
    </g>
    <g id="xtick_4">
     <g id="line2d_4">
      <path d="M 656.558693 609.894375 
L 656.558693 54.554375 
" clip-path="url(#pb9724e890e)" style="fill: none; stroke: #cccccc; stroke-opacity: 0.3; stroke-width: 1.5; stroke-linecap: round"/>
     </g>
     <g id="text_4">
      <!-- 600 -->
      <g style="fill: #262626" transform="translate(626.018693 646.709375) scale(0.32 -0.32)">
       <defs>
        <path id="DejaVuSans-36" d="M 2113 2584 
Q 1688 2584 1439 2293 
Q 1191 2003 1191 1497 
Q 1191 994 1439 701 
Q 1688 409 2113 409 
Q 2538 409 2786 701 
Q 3034 994 3034 1497 
Q 3034 2003 2786 2293 
Q 2538 2584 2113 2584 
z
M 3366 4563 
L 3366 3988 
Q 3128 4100 2886 4159 
Q 2644 4219 2406 4219 
Q 1781 4219 1451 3797 
Q 1122 3375 1075 2522 
Q 1259 2794 1537 2939 
Q 1816 3084 2150 3084 
Q 2853 3084 3261 2657 
Q 3669 2231 3669 1497 
Q 3669 778 3244 343 
Q 2819 -91 2113 -91 
Q 1303 -91 875 529 
Q 447 1150 447 2328 
Q 447 3434 972 4092 
Q 1497 4750 2381 4750 
Q 2619 4750 2861 4703 
Q 3103 4656 3366 4563 
z
" transform="scale(0.015625)"/>
       </defs>
       <use xlink:href="#DejaVuSans-36"/>
       <use xlink:href="#DejaVuSans-30" transform="translate(63.623047 0)"/>
       <use xlink:href="#DejaVuSans-30" transform="translate(127.246094 0)"/>
      </g>
     </g>
    </g>
    <g id="xtick_5">
     <g id="line2d_5">
      <path d="M 829.505359 609.894375 
L 829.505359 54.554375 
" clip-path="url(#pb9724e890e)" style="fill: none; stroke: #cccccc; stroke-opacity: 0.3; stroke-width: 1.5; stroke-linecap: round"/>
     </g>
     <g id="text_5">
      <!-- 800 -->
      <g style="fill: #262626" transform="translate(798.965359 646.709375) scale(0.32 -0.32)">
       <defs>
        <path id="DejaVuSans-38" d="M 2034 2216 
Q 1584 2216 1326 1975 
Q 1069 1734 1069 1313 
Q 1069 891 1326 650 
Q 1584 409 2034 409 
Q 2484 409 2743 651 
Q 3003 894 3003 1313 
Q 3003 1734 2745 1975 
Q 2488 2216 2034 2216 
z
M 1403 2484 
Q 997 2584 770 2862 
Q 544 3141 544 3541 
Q 544 4100 942 4425 
Q 1341 4750 2034 4750 
Q 2731 4750 3128 4425 
Q 3525 4100 3525 3541 
Q 3525 3141 3298 2862 
Q 3072 2584 2669 2484 
Q 3125 2378 3379 2068 
Q 3634 1759 3634 1313 
Q 3634 634 3220 271 
Q 2806 -91 2034 -91 
Q 1263 -91 848 271 
Q 434 634 434 1313 
Q 434 1759 690 2068 
Q 947 2378 1403 2484 
z
M 1172 3481 
Q 1172 3119 1398 2916 
Q 1625 2713 2034 2713 
Q 2441 2713 2670 2916 
Q 2900 3119 2900 3481 
Q 2900 3844 2670 4047 
Q 2441 4250 2034 4250 
Q 1625 4250 1398 4047 
Q 1172 3844 1172 3481 
z
" transform="scale(0.015625)"/>
       </defs>
       <use xlink:href="#DejaVuSans-38"/>
       <use xlink:href="#DejaVuSans-30" transform="translate(63.623047 0)"/>
       <use xlink:href="#DejaVuSans-30" transform="translate(127.246094 0)"/>
      </g>
     </g>
    </g>
    <g id="xtick_6">
     <g id="line2d_6">
      <path d="M 1002.452025 609.894375 
L 1002.452025 54.554375 
" clip-path="url(#pb9724e890e)" style="fill: none; stroke: #cccccc; stroke-opacity: 0.3; stroke-width: 1.5; stroke-linecap: round"/>
     </g>
     <g id="text_6">
      <!-- 1000 -->
      <g style="fill: #262626" transform="translate(961.732025 646.709375) scale(0.32 -0.32)">
       <defs>
        <path id="DejaVuSans-31" d="M 794 531 
L 1825 531 
L 1825 4091 
L 703 3866 
L 703 4441 
L 1819 4666 
L 2450 4666 
L 2450 531 
L 3481 531 
L 3481 0 
L 794 0 
L 794 531 
z
" transform="scale(0.015625)"/>
       </defs>
       <use xlink:href="#DejaVuSans-31"/>
       <use xlink:href="#DejaVuSans-30" transform="translate(63.623047 0)"/>
       <use xlink:href="#DejaVuSans-30" transform="translate(127.246094 0)"/>
       <use xlink:href="#DejaVuSans-30" transform="translate(190.869141 0)"/>
      </g>
     </g>
    </g>
    <g id="text_7">
     <!-- Epoch -->
     <g style="fill: #262626" transform="translate(521.522727 681.679375) scale(0.32 -0.32)">
      <defs>
       <path id="DejaVuSans-45" d="M 628 4666 
L 3578 4666 
L 3578 4134 
L 1259 4134 
L 1259 2753 
L 3481 2753 
L 3481 2222 
L 1259 2222 
L 1259 531 
L 3634 531 
L 3634 0 
L 628 0 
L 628 4666 
z
" transform="scale(0.015625)"/>
       <path id="DejaVuSans-70" d="M 1159 525 
L 1159 -1331 
L 581 -1331 
L 581 3500 
L 1159 3500 
L 1159 2969 
Q 1341 3281 1617 3432 
Q 1894 3584 2278 3584 
Q 2916 3584 3314 3078 
Q 3713 2572 3713 1747 
Q 3713 922 3314 415 
Q 2916 -91 2278 -91 
Q 1894 -91 1617 61 
Q 1341 213 1159 525 
z
M 3116 1747 
Q 3116 2381 2855 2742 
Q 2594 3103 2138 3103 
Q 1681 3103 1420 2742 
Q 1159 2381 1159 1747 
Q 1159 1113 1420 752 
Q 1681 391 2138 391 
Q 2594 391 2855 752 
Q 3116 1113 3116 1747 
z
" transform="scale(0.015625)"/>
       <path id="DejaVuSans-6f" d="M 1959 3097 
Q 1497 3097 1228 2736 
Q 959 2375 959 1747 
Q 959 1119 1226 758 
Q 1494 397 1959 397 
Q 2419 397 2687 759 
Q 2956 1122 2956 1747 
Q 2956 2369 2687 2733 
Q 2419 3097 1959 3097 
z
M 1959 3584 
Q 2709 3584 3137 3096 
Q 3566 2609 3566 1747 
Q 3566 888 3137 398 
Q 2709 -91 1959 -91 
Q 1206 -91 779 398 
Q 353 888 353 1747 
Q 353 2609 779 3096 
Q 1206 3584 1959 3584 
z
" transform="scale(0.015625)"/>
       <path id="DejaVuSans-63" d="M 3122 3366 
L 3122 2828 
Q 2878 2963 2633 3030 
Q 2388 3097 2138 3097 
Q 1578 3097 1268 2742 
Q 959 2388 959 1747 
Q 959 1106 1268 751 
Q 1578 397 2138 397 
Q 2388 397 2633 464 
Q 2878 531 3122 666 
L 3122 134 
Q 2881 22 2623 -34 
Q 2366 -91 2075 -91 
Q 1284 -91 818 406 
Q 353 903 353 1747 
Q 353 2603 823 3093 
Q 1294 3584 2113 3584 
Q 2378 3584 2631 3529 
Q 2884 3475 3122 3366 
z
" transform="scale(0.015625)"/>
       <path id="DejaVuSans-68" d="M 3513 2113 
L 3513 0 
L 2938 0 
L 2938 2094 
Q 2938 2591 2744 2837 
Q 2550 3084 2163 3084 
Q 1697 3084 1428 2787 
Q 1159 2491 1159 1978 
L 1159 0 
L 581 0 
L 581 4863 
L 1159 4863 
L 1159 2956 
Q 1366 3272 1645 3428 
Q 1925 3584 2291 3584 
Q 2894 3584 3203 3211 
Q 3513 2838 3513 2113 
z
" transform="scale(0.015625)"/>
      </defs>
      <use xlink:href="#DejaVuSans-45"/>
      <use xlink:href="#DejaVuSans-70" transform="translate(63.183594 0)"/>
      <use xlink:href="#DejaVuSans-6f" transform="translate(126.660156 0)"/>
      <use xlink:href="#DejaVuSans-63" transform="translate(187.841797 0)"/>
      <use xlink:href="#DejaVuSans-68" transform="translate(242.822266 0)"/>
     </g>
    </g>
   </g>
   <g id="matplotlib.axis_2">
    <g id="ytick_1">
     <g id="line2d_7">
      <path d="M 95.39 532.32277 
L 1045.645455 532.32277 
" clip-path="url(#pb9724e890e)" style="fill: none; stroke: #cccccc; stroke-opacity: 0.3; stroke-width: 1.5; stroke-linecap: round"/>
     </g>
     <g id="text_8">
      <!-- 4 -->
      <g style="fill: #262626" transform="translate(62.53 544.48027) scale(0.32 -0.32)">
       <use xlink:href="#DejaVuSans-34"/>
      </g>
     </g>
    </g>
    <g id="ytick_2">
     <g id="line2d_8">
      <path d="M 95.39 440.597016 
L 1045.645455 440.597016 
" clip-path="url(#pb9724e890e)" style="fill: none; stroke: #cccccc; stroke-opacity: 0.3; stroke-width: 1.5; stroke-linecap: round"/>
     </g>
     <g id="text_9">
      <!-- 6 -->
      <g style="fill: #262626" transform="translate(62.53 452.754516) scale(0.32 -0.32)">
       <use xlink:href="#DejaVuSans-36"/>
      </g>
     </g>
    </g>
    <g id="ytick_3">
     <g id="line2d_9">
      <path d="M 95.39 348.871262 
L 1045.645455 348.871262 
" clip-path="url(#pb9724e890e)" style="fill: none; stroke: #cccccc; stroke-opacity: 0.3; stroke-width: 1.5; stroke-linecap: round"/>
     </g>
     <g id="text_10">
      <!-- 8 -->
      <g style="fill: #262626" transform="translate(62.53 361.028762) scale(0.32 -0.32)">
       <use xlink:href="#DejaVuSans-38"/>
      </g>
     </g>
    </g>
    <g id="ytick_4">
     <g id="line2d_10">
      <path d="M 95.39 257.145507 
L 1045.645455 257.145507 
" clip-path="url(#pb9724e890e)" style="fill: none; stroke: #cccccc; stroke-opacity: 0.3; stroke-width: 1.5; stroke-linecap: round"/>
     </g>
     <g id="text_11">
      <!-- 10 -->
      <g style="fill: #262626" transform="translate(42.17 269.303007) scale(0.32 -0.32)">
       <use xlink:href="#DejaVuSans-31"/>
       <use xlink:href="#DejaVuSans-30" transform="translate(63.623047 0)"/>
      </g>
     </g>
    </g>
    <g id="ytick_5">
     <g id="line2d_11">
      <path d="M 95.39 165.419753 
L 1045.645455 165.419753 
" clip-path="url(#pb9724e890e)" style="fill: none; stroke: #cccccc; stroke-opacity: 0.3; stroke-width: 1.5; stroke-linecap: round"/>
     </g>
     <g id="text_12">
      <!-- 12 -->
      <g style="fill: #262626" transform="translate(42.17 177.577253) scale(0.32 -0.32)">
       <use xlink:href="#DejaVuSans-31"/>
       <use xlink:href="#DejaVuSans-32" transform="translate(63.623047 0)"/>
      </g>
     </g>
    </g>
    <g id="ytick_6">
     <g id="line2d_12">
      <path d="M 95.39 73.693998 
L 1045.645455 73.693998 
" clip-path="url(#pb9724e890e)" style="fill: none; stroke: #cccccc; stroke-opacity: 0.3; stroke-width: 1.5; stroke-linecap: round"/>
     </g>
     <g id="text_13">
      <!-- 14 -->
      <g style="fill: #262626" transform="translate(42.17 85.851498) scale(0.32 -0.32)">
       <use xlink:href="#DejaVuSans-31"/>
       <use xlink:href="#DejaVuSans-34" transform="translate(63.623047 0)"/>
      </g>
     </g>
    </g>
    <g id="text_14">
     <!-- Loss -->
     <g style="fill: #262626" transform="translate(31.515 367.319375) rotate(-90) scale(0.32 -0.32)">
      <defs>
       <path id="DejaVuSans-4c" d="M 628 4666 
L 1259 4666 
L 1259 531 
L 3531 531 
L 3531 0 
L 628 0 
L 628 4666 
z
" transform="scale(0.015625)"/>
       <path id="DejaVuSans-73" d="M 2834 3397 
L 2834 2853 
Q 2591 2978 2328 3040 
Q 2066 3103 1784 3103 
Q 1356 3103 1142 2972 
Q 928 2841 928 2578 
Q 928 2378 1081 2264 
Q 1234 2150 1697 2047 
L 1894 2003 
Q 2506 1872 2764 1633 
Q 3022 1394 3022 966 
Q 3022 478 2636 193 
Q 2250 -91 1575 -91 
Q 1294 -91 989 -36 
Q 684 19 347 128 
L 347 722 
Q 666 556 975 473 
Q 1284 391 1588 391 
Q 1994 391 2212 530 
Q 2431 669 2431 922 
Q 2431 1156 2273 1281 
Q 2116 1406 1581 1522 
L 1381 1569 
Q 847 1681 609 1914 
Q 372 2147 372 2553 
Q 372 3047 722 3315 
Q 1072 3584 1716 3584 
Q 2034 3584 2315 3537 
Q 2597 3491 2834 3397 
z
" transform="scale(0.015625)"/>
      </defs>
      <use xlink:href="#DejaVuSans-4c"/>
      <use xlink:href="#DejaVuSans-6f" transform="translate(53.962891 0)"/>
      <use xlink:href="#DejaVuSans-73" transform="translate(115.144531 0)"/>
      <use xlink:href="#DejaVuSans-73" transform="translate(167.244141 0)"/>
     </g>
    </g>
   </g>
   <g id="FillBetweenPolyCollection_1"/>
   <g id="FillBetweenPolyCollection_2"/>
   <g id="line2d_13">
    <path d="M 138.58343 425.767935 
L 139.448163 491.311646 
L 140.312896 497.218212 
L 141.17763 498.474484 
L 142.042363 498.856428 
L 142.907096 498.822247 
L 143.77183 499.242812 
L 144.636563 499.21436 
L 145.501296 499.631645 
L 147.230763 500.207415 
L 148.095496 500.246976 
L 148.96023 500.690504 
L 149.824963 500.577091 
L 150.689696 501.068293 
L 151.55443 501.107614 
L 153.283896 500.826289 
L 154.14863 501.574935 
L 155.013363 501.183696 
L 155.878096 501.856981 
L 156.74283 501.919505 
L 157.607563 502.437628 
L 158.472296 502.491667 
L 160.201763 502.851567 
L 161.066496 502.640443 
L 161.93123 503.102362 
L 162.795963 502.242359 
L 163.660696 502.753637 
L 165.390163 503.366585 
L 167.11963 503.480173 
L 167.984363 504.018897 
L 168.849096 503.142361 
L 170.578563 503.944214 
L 171.443296 504.418052 
L 172.30803 504.557009 
L 173.172763 504.895193 
L 175.766963 504.157088 
L 176.631696 504.98595 
L 177.49643 505.420992 
L 178.361163 505.611779 
L 179.225896 506.012705 
L 181.820096 506.37442 
L 182.684829 506.810994 
L 183.549563 506.656926 
L 184.414296 506.796145 
L 185.279029 506.411051 
L 186.143763 507.576479 
L 187.008496 507.272717 
L 187.873229 507.811091 
L 189.602696 507.325924 
L 193.061629 508.892388 
L 193.926363 508.852826 
L 194.791096 509.550692 
L 195.655829 509.444736 
L 197.385296 509.981623 
L 198.250029 510.415113 
L 199.979496 509.34744 
L 200.844229 510.733834 
L 202.573696 510.660463 
L 203.438429 510.816849 
L 204.303163 511.60862 
L 205.167896 511.932743 
L 206.032629 511.453109 
L 206.897363 512.306092 
L 207.762096 512.353789 
L 209.491563 512.813041 
L 210.356296 512.369316 
L 211.221029 512.929144 
L 212.085763 513.635188 
L 212.950496 514.040314 
L 213.815229 514.320917 
L 214.679963 514.440103 
L 215.544696 514.237267 
L 218.138896 515.790915 
L 219.003629 516.016408 
L 219.868363 516.605803 
L 221.597829 517.325297 
L 223.327296 516.845751 
L 225.921496 518.219766 
L 226.786229 518.236037 
L 227.650963 519.218179 
L 229.380429 519.996326 
L 231.109896 518.65413 
L 231.974629 520.392638 
L 232.839363 520.843383 
L 234.568829 521.435599 
L 235.433563 520.821426 
L 237.163029 522.040477 
L 238.027763 522.289282 
L 238.892496 521.539783 
L 239.757229 522.070459 
L 240.621962 523.271862 
L 241.486696 523.6631 
L 242.351429 523.575667 
L 243.216162 523.75775 
L 244.080896 523.175309 
L 244.945629 523.69457 
L 245.810362 524.453166 
L 247.539829 524.522447 
L 248.404562 525.053561 
L 249.269296 525.207213 
L 250.134029 525.492518 
L 250.998762 525.458337 
L 251.863496 524.726311 
L 252.728229 524.437442 
L 254.457696 527.285852 
L 255.322429 527.121658 
L 256.187162 527.602539 
L 257.051896 527.865668 
L 257.916629 528.260734 
L 258.781362 527.899521 
L 259.646096 528.130765 
L 260.510829 527.925677 
L 261.375562 527.479262 
L 262.240296 528.134614 
L 263.969762 529.857989 
L 264.834496 529.536163 
L 265.699229 528.157905 
L 266.563962 529.725549 
L 267.428696 529.853462 
L 268.293429 529.503425 
L 269.158162 528.911121 
L 271.752362 531.820283 
L 272.617096 530.776142 
L 274.346562 532.028762 
L 276.076029 528.442882 
L 276.940762 529.776854 
L 277.805496 532.023644 
L 278.670229 532.604499 
L 279.534962 530.171155 
L 280.399696 530.013566 
L 281.264429 531.952045 
L 282.129162 532.688641 
L 282.993896 533.623021 
L 283.858629 533.737867 
L 284.723362 533.208153 
L 285.588096 533.519372 
L 286.452829 533.251902 
L 287.317562 532.465915 
L 288.182296 533.874275 
L 289.047029 533.805956 
L 289.911762 534.138433 
L 290.776496 535.071009 
L 292.505962 534.387172 
L 293.370696 535.343706 
L 294.235429 535.445495 
L 295.100162 534.640143 
L 295.964896 534.562398 
L 296.829629 534.838977 
L 297.694362 535.453587 
L 298.559096 535.390582 
L 300.288562 536.933613 
L 301.153295 537.261737 
L 302.018029 536.921618 
L 302.882762 536.285149 
L 303.747495 533.775777 
L 304.612229 535.006626 
L 305.476962 537.090316 
L 306.341695 537.624152 
L 307.206429 538.325954 
L 308.935895 536.958205 
L 309.800629 538.171274 
L 310.665362 538.573524 
L 311.530095 538.657917 
L 312.394829 538.444682 
L 313.259562 538.014144 
L 314.124295 537.264088 
L 314.989029 538.174871 
L 315.853762 537.587073 
L 316.718495 538.662979 
L 317.583229 539.007156 
L 318.447962 539.038177 
L 319.312695 538.273293 
L 320.177429 538.388522 
L 321.042162 539.743194 
L 321.906895 540.502337 
L 322.771629 540.1688 
L 323.636362 540.605143 
L 324.501095 540.449009 
L 325.365829 540.012381 
L 327.095295 540.929091 
L 327.960029 541.255575 
L 328.824762 541.218485 
L 329.689495 541.454529 
L 330.554229 541.570676 
L 331.418962 540.224249 
L 332.283695 538.242666 
L 333.148429 541.417931 
L 334.013162 542.647851 
L 334.877895 541.751796 
L 335.742629 542.361573 
L 336.607362 542.09735 
L 337.472095 541.977092 
L 338.336829 542.263785 
L 339.201562 542.085453 
L 340.066295 541.455984 
L 340.931029 541.904137 
L 341.795762 543.350342 
L 342.660495 543.728842 
L 343.525229 543.810534 
L 344.389962 543.401209 
L 345.254695 540.335093 
L 346.119429 540.465498 
L 346.984162 542.55599 
L 347.848895 543.778463 
L 348.713629 543.321857 
L 349.578362 543.043846 
L 350.443095 543.786008 
L 351.307829 544.120889 
L 352.172562 545.164648 
L 353.902029 545.010197 
L 355.631495 545.182034 
L 356.496229 545.010165 
L 357.360962 545.007376 
L 358.225695 543.87765 
L 359.090428 544.991773 
L 359.955162 543.0742 
L 360.819895 543.222232 
L 361.684628 543.8704 
L 362.549362 545.396614 
L 363.414095 546.46059 
L 364.278828 547.250962 
L 365.143562 547.465794 
L 366.008295 546.824405 
L 366.873028 545.798678 
L 367.737762 544.962534 
L 368.602495 546.350151 
L 369.467228 546.395431 
L 370.331962 546.754369 
L 371.196695 543.684874 
L 372.061428 544.952135 
L 372.926162 546.652066 
L 373.790895 545.824101 
L 374.655628 546.606501 
L 375.520362 548.244597 
L 378.114562 546.883791 
L 378.979295 545.167753 
L 379.844028 545.346293 
L 380.708762 546.239734 
L 381.573495 547.816454 
L 382.438228 548.566368 
L 383.302962 549.818255 
L 384.167695 549.315823 
L 385.032428 549.288159 
L 385.897162 548.402744 
L 386.761895 545.218523 
L 388.491362 549.361803 
L 389.356095 548.02104 
L 390.220828 548.289123 
L 391.950295 549.221611 
L 392.815028 549.237018 
L 393.679762 549.716936 
L 394.544495 548.877599 
L 395.409228 549.285491 
L 396.273962 550.001322 
L 397.138695 551.010976 
L 398.003428 550.961344 
L 398.868162 549.89764 
L 399.732895 549.486993 
L 400.597628 548.076762 
L 402.327095 550.19775 
L 403.191828 549.557269 
L 404.056562 549.406361 
L 404.921295 550.574435 
L 405.786028 551.010855 
L 406.650762 552.128696 
L 407.515495 551.433039 
L 408.380228 549.619312 
L 409.244962 549.596524 
L 410.109695 551.570628 
L 410.974428 551.488302 
L 411.839162 550.295943 
L 412.703895 548.31238 
L 414.433362 547.235173 
L 415.298095 550.736923 
L 416.162828 551.282361 
L 417.027561 552.153801 
L 417.892295 552.286022 
L 418.757028 550.952049 
L 419.621761 551.77552 
L 420.486495 550.862539 
L 421.351228 550.614149 
L 422.215961 550.961431 
L 423.080695 552.554345 
L 423.945428 552.352264 
L 424.810161 551.438714 
L 425.674895 552.205533 
L 426.539628 551.976399 
L 427.404361 552.864285 
L 428.269095 551.324295 
L 429.133828 551.117511 
L 429.998561 553.296999 
L 430.863295 552.91676 
L 431.728028 552.941451 
L 433.457495 552.418615 
L 434.322228 553.316605 
L 435.186961 553.460569 
L 436.051695 553.367899 
L 436.916428 553.512749 
L 437.781161 554.412095 
L 439.510628 553.370031 
L 440.375361 553.528801 
L 441.240095 554.225179 
L 442.104828 553.39951 
L 442.969561 554.269891 
L 443.834295 554.579361 
L 444.699028 553.716536 
L 445.563761 554.565802 
L 446.428495 553.89068 
L 447.293228 553.618759 
L 448.157961 553.953226 
L 449.022695 554.733844 
L 449.887428 554.659041 
L 450.752161 554.168221 
L 452.481628 556.28594 
L 453.346361 556.072978 
L 454.211095 557.34973 
L 455.075828 555.305962 
L 455.940561 556.008475 
L 456.805295 555.582366 
L 457.670028 556.751391 
L 458.534761 556.758466 
L 459.399495 557.187943 
L 460.264228 555.898856 
L 461.128961 554.301415 
L 461.993695 553.425327 
L 462.858428 554.590087 
L 463.723161 554.511971 
L 465.452628 556.958579 
L 466.317361 554.17488 
L 467.182095 554.993507 
L 468.046828 557.342284 
L 468.911561 556.762796 
L 469.776295 555.450408 
L 470.641028 556.157404 
L 473.235228 557.53857 
L 474.099961 558.190183 
L 474.964694 556.695647 
L 475.829428 557.695525 
L 476.694161 555.965918 
L 477.558894 553.938398 
L 478.423628 556.427061 
L 479.288361 557.748579 
L 480.153094 558.506115 
L 481.017828 557.227602 
L 482.747294 556.755874 
L 483.612028 557.13819 
L 484.476761 550.717918 
L 485.341494 555.54743 
L 486.206228 558.591754 
L 487.070961 558.652627 
L 487.935694 558.894795 
L 488.800428 558.57883 
L 489.665161 559.095685 
L 491.394628 559.734613 
L 492.259361 559.626634 
L 493.124094 558.041385 
L 493.988828 556.879741 
L 494.853561 556.84252 
L 495.718294 558.248201 
L 496.583028 558.646001 
L 497.447761 558.229875 
L 498.312494 558.984196 
L 499.177228 557.41408 
L 500.041961 559.054549 
L 500.906694 559.458789 
L 502.636161 559.695467 
L 503.500894 559.703821 
L 504.365628 560.45672 
L 505.230361 559.024905 
L 506.095094 560.050972 
L 506.959828 560.427044 
L 507.824561 558.593351 
L 508.689294 559.71714 
L 509.554028 559.275329 
L 510.418761 558.638248 
L 511.283494 556.303752 
L 512.148228 559.024348 
L 513.012961 561.042223 
L 514.742428 561.406114 
L 515.607161 561.781672 
L 516.471894 561.63048 
L 517.336628 562.722537 
L 518.201361 562.491096 
L 519.930828 560.026369 
L 520.795561 560.663646 
L 521.660294 560.303866 
L 522.525028 561.838062 
L 523.389761 561.448584 
L 524.254494 561.425326 
L 525.119228 561.528537 
L 525.983961 559.388042 
L 526.848694 560.595994 
L 527.713428 562.098818 
L 528.578161 561.840074 
L 529.442894 561.059127 
L 530.307628 561.97025 
L 531.172361 562.32594 
L 532.037094 563.224149 
L 532.901827 562.363435 
L 533.766561 562.806142 
L 534.631294 562.609342 
L 535.496027 560.990939 
L 536.360761 561.796992 
L 537.225494 562.379421 
L 538.090227 561.712599 
L 538.954961 563.292599 
L 539.819694 563.782785 
L 540.684427 563.200301 
L 541.549161 562.111491 
L 542.413894 563.562377 
L 543.278627 563.158213 
L 544.143361 561.967604 
L 545.008094 561.460644 
L 545.872827 559.414875 
L 546.737561 560.710326 
L 547.602294 563.916536 
L 548.467027 562.698765 
L 549.331761 562.260912 
L 550.196494 564.515936 
L 551.061227 564.282199 
L 551.925961 564.281444 
L 552.790694 562.487542 
L 554.520161 564.087126 
L 555.384894 563.414563 
L 556.249627 563.508535 
L 557.114361 562.419737 
L 557.979094 563.182346 
L 558.843827 564.292598 
L 559.708561 563.550884 
L 560.573294 564.604768 
L 561.438027 563.979869 
L 562.302761 564.086317 
L 563.167494 563.981334 
L 564.032227 564.989654 
L 564.896961 565.50196 
L 565.761694 564.80626 
L 566.626427 563.797809 
L 567.491161 564.340633 
L 568.355894 563.54721 
L 569.220627 564.753325 
L 570.085361 564.29344 
L 570.950094 564.271636 
L 571.814827 564.624779 
L 572.679561 565.583171 
L 573.544294 566.11949 
L 574.409027 565.72976 
L 575.273761 566.747626 
L 576.138494 565.098016 
L 577.003227 566.367835 
L 577.867961 565.350024 
L 578.732694 562.729611 
L 580.462161 565.247393 
L 581.326894 557.395787 
L 582.191627 557.580154 
L 583.056361 559.834096 
L 583.921094 563.762818 
L 584.785827 566.012025 
L 586.515294 566.77997 
L 587.380027 566.776777 
L 588.244761 567.536292 
L 589.109494 565.790764 
L 589.974227 566.721361 
L 590.83896 565.223052 
L 591.703694 562.307636 
L 593.43316 563.457241 
L 594.297894 566.683429 
L 596.02736 566.949499 
L 596.892094 567.846101 
L 597.756827 567.862393 
L 598.62156 566.441808 
L 599.486294 563.784283 
L 600.351027 563.116585 
L 602.080494 567.855319 
L 602.945227 567.337326 
L 603.80996 566.330909 
L 604.674694 566.691072 
L 605.539427 567.874192 
L 606.40416 567.983198 
L 607.268894 567.0685 
L 608.133627 566.343276 
L 608.99836 565.17576 
L 609.863094 563.695079 
L 610.727827 566.910529 
L 611.59256 567.982816 
L 612.457294 568.608119 
L 613.322027 565.94867 
L 614.18676 565.939047 
L 615.051494 567.02685 
L 615.916227 566.804354 
L 616.78096 567.060584 
L 617.645694 567.494555 
L 618.510427 567.496741 
L 619.37516 567.213886 
L 620.239894 567.086214 
L 621.104627 567.323593 
L 621.96936 566.381077 
L 622.834094 566.603191 
L 623.698827 566.115334 
L 624.56356 566.553821 
L 625.428294 568.078012 
L 626.293027 568.024203 
L 627.15776 566.079283 
L 628.022494 567.184439 
L 628.887227 567.595984 
L 629.75196 568.261581 
L 630.616694 568.085797 
L 631.481427 567.142965 
L 632.34616 567.21358 
L 633.210894 567.907312 
L 634.075627 567.027714 
L 634.94036 566.658061 
L 635.805094 567.194958 
L 636.669827 566.752983 
L 637.53456 567.352285 
L 638.399294 568.969452 
L 639.264027 569.794487 
L 640.12876 569.500041 
L 640.993494 567.39493 
L 641.858227 566.94494 
L 642.72296 566.922666 
L 643.587694 569.699411 
L 645.31716 568.028948 
L 646.181894 569.024256 
L 647.046627 568.014908 
L 647.91136 565.967652 
L 648.776093 570.396128 
L 649.640827 569.937303 
L 651.370293 567.267214 
L 652.235027 570.732103 
L 653.09976 570.052028 
L 653.964493 567.786212 
L 654.829227 567.413923 
L 655.69396 568.987188 
L 656.558693 568.399225 
L 657.423427 568.549937 
L 658.28816 568.951377 
L 659.152893 569.766068 
L 660.017627 570.943304 
L 660.88236 570.608182 
L 661.747093 568.204973 
L 662.611827 569.457505 
L 663.47656 568.313488 
L 664.341293 567.588154 
L 665.206027 570.250195 
L 666.07076 570.030258 
L 666.935493 570.966201 
L 667.800227 570.731294 
L 668.66496 568.838008 
L 669.529693 568.934527 
L 670.394427 569.784121 
L 671.25916 569.292503 
L 672.123893 570.066538 
L 672.988627 570.513926 
L 673.85336 568.591007 
L 674.718093 568.222873 
L 675.582827 569.713921 
L 676.44756 570.244728 
L 677.312293 571.546761 
L 678.177027 570.459439 
L 679.04176 571.654532 
L 679.906493 570.643566 
L 680.771227 570.042559 
L 681.63596 570.693942 
L 682.500693 570.275585 
L 683.365427 569.386955 
L 684.23016 564.140301 
L 685.094893 567.875263 
L 685.959627 568.7896 
L 686.82436 571.292336 
L 687.689093 571.769148 
L 688.553827 571.952696 
L 689.41856 571.031229 
L 690.283293 571.247406 
L 691.148027 569.539875 
L 692.01276 569.67881 
L 692.877493 570.843067 
L 693.742227 571.173827 
L 694.60696 571.160421 
L 696.336427 570.878134 
L 697.20116 569.495984 
L 698.065893 565.855628 
L 699.79536 570.073569 
L 700.660093 570.507595 
L 701.524827 571.954194 
L 702.38956 571.076597 
L 704.119027 573.107265 
L 704.98376 571.547811 
L 705.848493 572.792612 
L 706.713226 573.099338 
L 707.57796 570.840684 
L 708.442693 568.946468 
L 709.307426 566.409824 
L 710.17216 570.627689 
L 711.036893 573.921267 
L 711.901626 573.287849 
L 712.76636 572.089739 
L 713.631093 573.177039 
L 715.36056 571.645391 
L 716.225293 572.507122 
L 717.090026 572.406196 
L 717.95476 572.576064 
L 718.819493 572.873058 
L 719.684226 572.671468 
L 720.54896 573.35104 
L 721.413693 572.604385 
L 722.278426 571.238669 
L 723.14316 572.216405 
L 724.007893 572.031162 
L 724.872626 571.072715 
L 725.73736 571.994192 
L 726.602093 570.937979 
L 727.466826 572.416584 
L 728.33156 570.073602 
L 729.196293 569.608555 
L 730.061026 571.569352 
L 730.92576 573.251569 
L 731.790493 574.592715 
L 732.655226 573.949106 
L 733.51996 572.576031 
L 734.384693 572.430624 
L 735.249426 570.620308 
L 736.11416 572.03336 
L 736.978893 571.28864 
L 737.843626 572.681605 
L 738.70836 571.702054 
L 739.573093 572.575321 
L 740.437826 571.699156 
L 741.30256 572.858799 
L 742.167293 574.315119 
L 743.032026 572.104063 
L 743.89676 573.4781 
L 744.761493 574.154348 
L 745.626226 574.633227 
L 746.49096 573.870968 
L 748.220426 570.302736 
L 749.08516 572.396136 
L 749.949893 573.526048 
L 750.814626 573.96249 
L 751.67936 572.438136 
L 752.544093 575.13637 
L 753.408826 574.750303 
L 754.27356 571.064492 
L 755.138293 568.477473 
L 756.003026 572.444379 
L 756.86776 574.006731 
L 757.732493 573.676081 
L 758.597226 574.416526 
L 759.46196 575.357871 
L 761.191426 574.022477 
L 762.05616 574.855078 
L 762.920893 574.813877 
L 764.650359 573.10182 
L 765.515093 572.876327 
L 766.379826 572.970004 
L 767.244559 572.424205 
L 768.109293 573.906702 
L 768.974026 574.565269 
L 769.838759 574.688239 
L 770.703493 573.88656 
L 771.568226 574.044827 
L 772.432959 575.162471 
L 773.297693 572.683748 
L 774.162426 574.137006 
L 775.027159 575.115747 
L 775.891893 575.439771 
L 776.756626 573.086927 
L 777.621359 571.508818 
L 778.486093 573.642534 
L 779.350826 576.297697 
L 780.215559 575.763883 
L 781.080293 576.213741 
L 782.809759 575.855197 
L 783.674493 576.125336 
L 784.539226 573.35373 
L 785.403959 573.748391 
L 786.268693 571.367325 
L 787.133426 574.175288 
L 787.998159 574.357042 
L 788.862893 574.944425 
L 789.727626 575.321755 
L 790.592359 576.187608 
L 791.457093 575.548559 
L 792.321826 577.472517 
L 793.186559 576.850789 
L 794.051293 574.545062 
L 794.916026 575.358014 
L 795.780759 573.767352 
L 796.645493 575.721599 
L 797.510226 575.554322 
L 798.374959 575.906338 
L 799.239693 574.910604 
L 800.104426 573.743132 
L 800.969159 575.842819 
L 801.833893 576.342638 
L 802.698626 572.817029 
L 803.563359 573.168991 
L 804.428093 575.06769 
L 805.292826 574.329913 
L 806.157559 576.052008 
L 807.022293 575.327003 
L 807.887026 576.461136 
L 808.751759 577.185769 
L 809.616493 576.567376 
L 810.481226 576.15815 
L 811.345959 577.362866 
L 812.210693 576.46586 
L 813.075426 577.755537 
L 813.940159 576.605068 
L 814.804893 574.557625 
L 815.669626 576.227158 
L 816.534359 572.648506 
L 817.399093 575.54997 
L 818.263826 576.480523 
L 819.128559 576.955138 
L 819.993293 576.355038 
L 820.858026 577.102623 
L 821.722759 576.787445 
L 822.587492 575.941329 
L 823.452226 576.332611 
L 824.316959 577.196649 
L 825.181692 577.669799 
L 826.046426 573.922973 
L 826.911159 568.066815 
L 827.775892 575.022497 
L 828.640626 579.151027 
L 830.370092 577.798531 
L 831.234826 578.011635 
L 832.099559 577.741136 
L 832.964292 576.866447 
L 833.829026 577.43218 
L 834.693759 575.675848 
L 835.558492 575.330787 
L 836.423226 576.576671 
L 837.287959 576.685273 
L 838.152692 578.787431 
L 839.017426 579.280974 
L 839.882159 577.075144 
L 841.611626 575.050435 
L 842.476359 575.691922 
L 843.341092 577.297532 
L 844.205826 577.753809 
L 845.070559 578.791488 
L 845.935292 578.212579 
L 846.800026 578.667173 
L 847.664759 577.78997 
L 848.529492 577.283885 
L 849.394226 578.150285 
L 850.258959 574.724553 
L 851.123692 574.904087 
L 851.988426 577.079004 
L 852.853159 578.031973 
L 853.717892 576.785214 
L 854.582626 576.060975 
L 855.447359 574.946349 
L 856.312092 568.107437 
L 857.176826 572.064042 
L 858.041559 577.083969 
L 858.906292 579.806587 
L 859.771026 579.785079 
L 860.635759 578.75583 
L 861.500492 578.640646 
L 862.365226 578.87072 
L 863.229959 578.944036 
L 864.094692 577.714663 
L 864.959426 578.305381 
L 865.824159 578.234252 
L 866.688892 579.721986 
L 867.553626 578.158792 
L 868.418359 577.228862 
L 869.283092 576.568699 
L 870.147826 574.922435 
L 871.012559 577.637432 
L 871.877292 579.213485 
L 872.742026 578.85727 
L 873.606759 579.570914 
L 874.471492 577.031406 
L 875.336226 575.914955 
L 876.200959 575.71038 
L 877.065692 577.490931 
L 877.930426 578.071906 
L 878.795159 578.934785 
L 879.659892 577.527398 
L 880.524625 577.502401 
L 881.389359 575.151941 
L 882.254092 569.61423 
L 883.118825 575.330076 
L 883.983559 577.845156 
L 884.848292 579.502278 
L 885.713025 579.960994 
L 886.577759 576.773799 
L 887.442492 576.980068 
L 888.307225 578.932839 
L 889.171959 579.126742 
L 890.036692 577.696206 
L 890.901425 577.653714 
L 891.766159 578.94233 
L 892.630892 579.141952 
L 893.495625 579.623214 
L 894.360359 579.530478 
L 895.225092 581.176633 
L 896.954559 579.117272 
L 897.819292 579.05605 
L 898.684025 579.270695 
L 900.413492 576.728519 
L 901.278225 578.73582 
L 902.142959 578.369031 
L 903.007692 577.018897 
L 903.872425 578.065827 
L 904.737159 578.369775 
L 905.601892 579.344656 
L 906.466625 579.393512 
L 907.331359 580.301562 
L 908.196092 578.7818 
L 909.060825 578.35884 
L 909.925559 578.081791 
L 910.790292 578.815358 
L 911.655025 580.334694 
L 912.519759 579.3688 
L 913.384492 577.740381 
L 914.249225 579.683529 
L 915.113959 580.664349 
L 915.978692 582.087613 
L 916.843425 579.948594 
L 917.708159 579.735851 
L 918.572892 579.132898 
L 919.437625 578.871638 
L 920.302359 578.994226 
L 922.031825 577.281184 
L 922.896559 576.780152 
L 924.626025 578.98 
L 925.490759 579.434539 
L 926.355492 578.732551 
L 927.220225 579.964832 
L 928.084959 578.502061 
L 928.949692 577.727238 
L 929.814425 580.227633 
L 931.543892 578.808272 
L 932.408625 577.372138 
L 933.273359 577.850624 
L 934.138092 580.084369 
L 935.002825 581.200295 
L 935.867559 581.060442 
L 936.732292 581.335862 
L 937.597025 580.86257 
L 938.461758 580.759862 
L 939.326492 580.123022 
L 940.191225 577.465432 
L 941.055958 576.764515 
L 941.920692 577.057463 
L 942.785425 578.989874 
L 943.650158 579.390232 
L 944.514892 578.226652 
L 945.379625 579.92175 
L 946.244358 579.849155 
L 947.109092 580.286844 
L 947.973825 578.71254 
L 948.838558 580.440387 
L 949.703292 580.106872 
L 950.568025 582.019141 
L 952.297492 581.898183 
L 954.026958 580.027246 
L 954.891692 580.418343 
L 955.756425 576.024661 
L 956.621158 573.648493 
L 957.485892 577.754126 
L 958.350625 578.591965 
L 959.215358 578.862245 
L 960.080092 582.909214 
L 961.809558 579.419307 
L 962.674292 578.552251 
L 963.539025 579.207067 
L 964.403758 570.773392 
L 965.268492 570.773294 
L 966.133225 577.11873 
L 967.862692 581.696495 
L 968.727425 581.741906 
L 969.592158 581.589336 
L 971.321625 582.59688 
L 972.186358 580.313994 
L 973.051092 580.592465 
L 973.915825 578.777262 
L 974.780558 578.432419 
L 975.645292 580.156526 
L 976.510025 579.586507 
L 977.374758 580.797357 
L 978.239492 581.772304 
L 979.104225 583.07355 
L 981.698425 580.115565 
L 982.563158 579.645663 
L 983.427892 580.585183 
L 984.292625 581.757663 
L 985.157358 582.659961 
L 986.022092 581.952888 
L 986.886825 580.341692 
L 987.751558 576.763914 
L 988.616292 569.306226 
L 990.345758 581.098342 
L 991.210492 582.427558 
L 992.075225 582.990054 
L 992.939958 582.935457 
L 993.804692 583.908688 
L 995.534158 581.512018 
L 996.398891 581.60307 
L 997.263625 579.132143 
L 998.128358 579.187494 
L 998.993091 580.670964 
L 999.857825 581.380289 
L 1000.722558 581.666906 
L 1001.587291 584.073537 
L 1002.452025 584.651648 
L 1002.452025 584.651648 
" clip-path="url(#pb9724e890e)" style="fill: none; stroke: #4c72b0; stroke-width: 6; stroke-linecap: round"/>
   </g>
   <g id="line2d_14">
    <path d="M 138.58343 485.520286 
L 139.448163 495.708368 
L 140.312896 497.37298 
L 141.17763 497.817535 
L 142.042363 498.406558 
L 142.907096 498.027632 
L 144.636563 498.355253 
L 145.501296 498.81035 
L 146.36603 498.42027 
L 147.230763 499.275287 
L 148.095496 499.322284 
L 148.96023 498.959016 
L 149.824963 498.891594 
L 151.55443 499.760235 
L 152.419163 499.127955 
L 153.283896 499.058586 
L 154.14863 497.664561 
L 155.013363 497.242312 
L 155.878096 499.558055 
L 157.607563 499.849417 
L 159.33703 500.192282 
L 160.201763 499.708383 
L 161.066496 499.970725 
L 161.93123 500.093127 
L 162.795963 499.186586 
L 163.660696 498.677735 
L 164.52543 497.863242 
L 165.390163 500.046655 
L 166.254896 499.486302 
L 167.11963 499.579487 
L 167.984363 500.294257 
L 168.849096 496.845278 
L 169.71383 498.658316 
L 170.578563 499.574501 
L 171.443296 499.940721 
L 172.30803 500.03139 
L 173.172763 499.698914 
L 174.037496 498.71535 
L 174.90223 497.426865 
L 175.766963 498.463965 
L 176.631696 499.04833 
L 177.49643 498.939268 
L 178.361163 498.977933 
L 180.09063 498.106514 
L 180.955363 498.534318 
L 181.820096 497.607963 
L 182.684829 497.763606 
L 183.549563 497.017453 
L 184.414296 497.669044 
L 185.279029 497.693362 
L 186.143763 496.702516 
L 187.008496 495.94696 
L 187.873229 496.562269 
L 188.737963 496.945351 
L 189.602696 492.693468 
L 190.467429 496.300715 
L 191.332163 497.161221 
L 192.196896 494.592277 
L 193.061629 495.864294 
L 193.926363 495.939174 
L 194.791096 494.2158 
L 195.655829 494.621931 
L 196.520563 494.502264 
L 197.385296 494.806179 
L 198.250029 492.817138 
L 199.114763 494.969475 
L 199.979496 494.334593 
L 200.844229 493.986743 
L 201.708963 494.178513 
L 202.573696 491.845296 
L 203.438429 493.194665 
L 204.303163 492.00236 
L 205.167896 492.613821 
L 206.032629 491.577028 
L 206.897363 491.403868 
L 207.762096 493.150927 
L 208.626829 489.620747 
L 209.491563 489.868043 
L 210.356296 489.570535 
L 211.221029 491.519884 
L 212.085763 489.875785 
L 212.950496 490.455623 
L 213.815229 489.918451 
L 214.679963 490.147574 
L 215.544696 488.862544 
L 216.409429 487.894355 
L 217.274163 488.41613 
L 218.138896 487.932801 
L 219.003629 487.679009 
L 219.868363 487.965714 
L 220.733096 486.520952 
L 221.597829 483.827944 
L 222.462563 485.978335 
L 224.192029 482.375353 
L 225.056763 485.381855 
L 226.786229 483.13056 
L 227.650963 482.003491 
L 228.515696 481.881701 
L 229.380429 483.188928 
L 230.245163 482.130659 
L 231.109896 480.217155 
L 231.974629 482.642222 
L 232.839363 477.695623 
L 233.704096 480.344608 
L 234.568829 481.423128 
L 235.433563 476.935868 
L 236.298296 478.863631 
L 237.163029 478.53087 
L 238.027763 477.761427 
L 238.892496 474.394851 
L 239.757229 475.07498 
L 240.621962 477.068067 
L 241.486696 473.324423 
L 242.351429 472.983155 
L 243.216162 472.41423 
L 244.080896 474.162688 
L 244.945629 475.449817 
L 245.810362 474.283296 
L 246.675096 471.720257 
L 247.539829 473.466987 
L 248.404562 473.072118 
L 249.269296 468.206282 
L 250.134029 467.613541 
L 250.998762 469.680983 
L 251.863496 472.741217 
L 252.728229 465.357391 
L 253.592962 469.452035 
L 254.457696 469.999113 
L 255.322429 467.150987 
L 256.187162 467.172004 
L 257.051896 465.871513 
L 257.916629 466.62228 
L 258.781362 466.570581 
L 260.510829 465.056997 
L 261.375562 466.464603 
L 262.240296 464.709715 
L 263.105029 462.171978 
L 263.969762 462.332826 
L 264.834496 461.750976 
L 265.699229 461.423158 
L 266.563962 461.313593 
L 267.428696 461.924486 
L 268.293429 456.168598 
L 269.158162 459.565244 
L 270.022896 460.156476 
L 270.887629 458.987134 
L 271.752362 455.658872 
L 272.617096 458.106027 
L 273.481829 457.978705 
L 275.211296 455.300525 
L 276.076029 448.185121 
L 276.940762 455.959529 
L 277.805496 453.369722 
L 278.670229 448.831091 
L 279.534962 452.894331 
L 280.399696 447.366953 
L 281.264429 453.522652 
L 282.129162 450.722705 
L 282.993896 451.559811 
L 283.858629 448.455883 
L 284.723362 449.928396 
L 285.588096 451.667757 
L 286.452829 449.345868 
L 287.317562 444.601078 
L 288.182296 444.000464 
L 289.047029 446.770123 
L 289.911762 447.504051 
L 290.776496 445.567343 
L 291.641229 446.395221 
L 292.505962 443.774862 
L 293.370696 444.470672 
L 294.235429 443.15824 
L 295.100162 440.670781 
L 296.829629 442.613218 
L 297.694362 443.663679 
L 298.559096 441.869886 
L 299.423829 439.03532 
L 300.288562 439.530328 
L 301.153295 437.492912 
L 302.018029 434.606538 
L 302.882762 440.531693 
L 303.747495 437.180621 
L 304.612229 436.436896 
L 305.476962 438.160446 
L 306.341695 435.734263 
L 307.206429 436.543049 
L 308.071162 437.961437 
L 308.935895 437.654985 
L 309.800629 432.937158 
L 310.665362 430.696186 
L 311.530095 429.240642 
L 312.394829 432.058763 
L 313.259562 430.4317 
L 314.124295 426.711719 
L 314.989029 432.727915 
L 315.853762 434.475804 
L 316.718495 430.902105 
L 317.583229 429.254179 
L 318.447962 428.727068 
L 319.312695 428.498186 
L 320.177429 430.975979 
L 321.042162 424.331483 
L 321.906895 423.024366 
L 322.771629 424.202433 
L 323.636362 424.175775 
L 324.501095 421.493702 
L 325.365829 420.922721 
L 326.230562 420.637963 
L 327.095295 421.561299 
L 327.960029 421.032504 
L 328.824762 420.285783 
L 329.689495 420.458439 
L 330.554229 413.817814 
L 331.418962 421.785283 
L 332.283695 419.687837 
L 333.148429 416.238486 
L 334.013162 416.697956 
L 334.877895 414.317939 
L 335.742629 412.913942 
L 336.607362 405.679482 
L 337.472095 409.874636 
L 338.336829 411.507013 
L 339.201562 411.279181 
L 340.066295 404.979845 
L 340.931029 409.886949 
L 341.795762 408.922805 
L 342.660495 409.910589 
L 343.525229 408.227585 
L 344.389962 397.290333 
L 345.254695 409.190264 
L 346.119429 407.047308 
L 346.984162 410.46121 
L 347.848895 406.162877 
L 348.713629 407.562698 
L 349.578362 407.407821 
L 350.443095 404.312903 
L 351.307829 405.864604 
L 352.172562 403.997812 
L 353.037295 403.922757 
L 353.902029 406.974156 
L 354.766762 400.335303 
L 355.631495 402.083564 
L 356.496229 402.817689 
L 357.360962 394.839176 
L 358.225695 403.130855 
L 359.090428 401.798369 
L 359.955162 399.46607 
L 360.819895 402.250819 
L 361.684628 403.473456 
L 363.414095 396.495369 
L 364.278828 399.66941 
L 365.143562 392.867915 
L 366.008295 395.45138 
L 366.873028 396.887067 
L 367.737762 396.860517 
L 368.602495 390.965957 
L 369.467228 394.298156 
L 370.331962 387.39941 
L 371.196695 390.258491 
L 372.061428 388.57879 
L 372.926162 389.761034 
L 373.790895 391.47693 
L 374.655628 391.726828 
L 375.520362 391.255111 
L 376.385095 392.620925 
L 377.249828 381.992509 
L 378.114562 392.658475 
L 378.979295 393.626271 
L 380.708762 388.473796 
L 381.573495 388.656687 
L 382.438228 383.295362 
L 383.302962 389.231386 
L 384.167695 383.29112 
L 385.032428 386.819659 
L 385.897162 383.89895 
L 386.761895 381.501219 
L 387.626628 382.1431 
L 388.491362 381.502685 
L 389.356095 384.896466 
L 390.220828 382.190906 
L 391.085562 383.051784 
L 391.950295 379.24133 
L 392.815028 381.662548 
L 393.679762 382.47527 
L 394.544495 383.571482 
L 395.409228 377.371498 
L 396.273962 375.850434 
L 397.138695 374.937092 
L 398.003428 380.117953 
L 398.868162 376.859323 
L 399.732895 368.948976 
L 400.597628 370.890145 
L 401.462362 371.344433 
L 402.327095 365.303196 
L 403.191828 370.761883 
L 404.056562 371.900849 
L 404.921295 373.528611 
L 406.650762 366.22404 
L 407.515495 371.153406 
L 408.380228 370.805009 
L 409.244962 368.313766 
L 410.109695 369.528617 
L 410.974428 368.631612 
L 411.839162 372.249311 
L 412.703895 374.276492 
L 413.568628 375.2477 
L 414.433362 368.719657 
L 415.298095 369.801085 
L 416.162828 364.951125 
L 417.027561 365.226676 
L 417.892295 361.426741 
L 418.757028 361.42029 
L 419.621761 367.469639 
L 420.486495 370.119565 
L 421.351228 363.292024 
L 422.215961 368.556338 
L 423.080695 363.401654 
L 423.945428 353.948594 
L 424.810161 362.206135 
L 425.674895 360.051436 
L 426.539628 364.932121 
L 427.404361 352.53657 
L 428.269095 359.545034 
L 429.133828 354.35641 
L 429.998561 356.802406 
L 430.863295 356.3816 
L 431.728028 338.570554 
L 432.592761 350.801737 
L 433.457495 354.946635 
L 434.322228 358.313431 
L 435.186961 358.778215 
L 436.051695 358.093384 
L 436.916428 355.459794 
L 437.781161 347.540657 
L 438.645895 355.72557 
L 439.510628 354.363189 
L 440.375361 346.31065 
L 441.240095 350.651824 
L 442.104828 353.115381 
L 442.969561 354.497159 
L 443.834295 351.029613 
L 444.699028 351.340832 
L 445.563761 353.962787 
L 446.428495 350.463552 
L 447.293228 345.927634 
L 448.157961 346.203753 
L 449.022695 350.351867 
L 449.887428 344.888588 
L 450.752161 343.271585 
L 451.616895 348.795682 
L 452.481628 347.905915 
L 453.346361 343.452792 
L 454.211095 340.482965 
L 455.075828 335.640529 
L 455.940561 338.527297 
L 456.805295 341.890244 
L 457.670028 341.081523 
L 458.534761 340.046414 
L 459.399495 336.721389 
L 460.264228 340.431442 
L 461.128961 340.030493 
L 461.993695 346.767539 
L 462.858428 332.220767 
L 463.723161 343.72983 
L 464.587895 338.855421 
L 465.452628 330.991984 
L 466.317361 334.39307 
L 467.182095 333.611162 
L 468.046828 328.691046 
L 468.911561 328.310349 
L 469.776295 335.046345 
L 470.641028 339.638599 
L 471.505761 339.351413 
L 472.370495 334.957687 
L 473.235228 340.108041 
L 474.099961 335.742527 
L 474.964694 329.359848 
L 475.829428 337.520136 
L 476.694161 328.627888 
L 477.558894 332.344765 
L 478.423628 334.977151 
L 479.288361 335.979457 
L 480.153094 331.741527 
L 481.017828 339.968779 
L 481.882561 334.637873 
L 482.747294 327.636167 
L 483.612028 335.657849 
L 484.476761 332.997558 
L 485.341494 328.279863 
L 486.206228 330.716871 
L 487.070961 328.621896 
L 487.935694 327.44455 
L 488.800428 325.21145 
L 489.665161 326.002412 
L 490.529894 327.406891 
L 491.394628 321.483683 
L 492.259361 322.221197 
L 493.124094 328.753023 
L 493.988828 324.795018 
L 494.853561 324.43479 
L 495.718294 321.241767 
L 496.583028 328.048138 
L 497.447761 324.419744 
L 498.312494 326.176228 
L 499.177228 327.355236 
L 500.041961 322.147061 
L 500.906694 318.002162 
L 501.771428 299.938353 
L 502.636161 317.70846 
L 503.500894 312.546384 
L 504.365628 301.082152 
L 505.230361 322.985436 
L 506.095094 314.721925 
L 506.959828 297.85908 
L 507.824561 316.881151 
L 508.689294 319.447755 
L 509.554028 310.307205 
L 510.418761 318.16115 
L 511.283494 314.809751 
L 512.148228 314.853052 
L 513.012961 311.261748 
L 513.877694 312.953281 
L 514.742428 311.906581 
L 515.607161 307.828952 
L 516.471894 308.902244 
L 517.336628 308.262223 
L 518.201361 306.044387 
L 519.066094 304.931205 
L 519.930828 308.172341 
L 520.795561 286.56932 
L 521.660294 307.123191 
L 522.525028 295.398017 
L 523.389761 293.813424 
L 524.254494 308.566597 
L 525.119228 292.637127 
L 525.983961 308.401748 
L 526.848694 297.180481 
L 527.713428 303.894871 
L 528.578161 288.771235 
L 529.442894 304.816917 
L 530.307628 296.838448 
L 531.172361 298.562391 
L 532.037094 292.675048 
L 532.901827 301.70306 
L 533.766561 300.885286 
L 534.631294 295.752734 
L 535.496027 279.881436 
L 536.360761 294.082108 
L 537.225494 297.599581 
L 538.090227 290.601462 
L 538.954961 289.911272 
L 539.819694 293.468154 
L 540.684427 298.658266 
L 541.549161 283.882917 
L 542.413894 297.694493 
L 543.278627 293.672587 
L 544.143361 278.115067 
L 545.008094 296.300162 
L 545.872827 295.150589 
L 546.737561 298.898432 
L 547.602294 299.540772 
L 548.467027 294.130832 
L 549.331761 291.196564 
L 550.196494 290.441511 
L 551.061227 292.734751 
L 551.925961 287.492241 
L 552.790694 290.069867 
L 553.655427 287.637102 
L 554.520161 290.058189 
L 555.384894 293.91962 
L 556.249627 289.814304 
L 557.114361 287.330191 
L 557.979094 296.546364 
L 558.843827 289.596182 
L 559.708561 283.936802 
L 560.573294 282.873613 
L 561.438027 284.201856 
L 562.302761 281.153956 
L 563.167494 288.47622 
L 564.032227 285.540946 
L 564.896961 285.109425 
L 565.761694 287.506937 
L 566.626427 285.187848 
L 569.220627 281.222057 
L 570.085361 287.297693 
L 570.950094 282.999579 
L 571.814827 281.495858 
L 572.679561 275.018486 
L 573.544294 274.561334 
L 574.409027 278.849038 
L 575.273761 270.956515 
L 576.138494 277.089667 
L 577.003227 277.237634 
L 577.867961 269.727077 
L 578.732694 276.825751 
L 579.597427 275.222831 
L 580.462161 274.769003 
L 581.326894 280.748065 
L 582.191627 271.112267 
L 583.056361 282.518677 
L 583.921094 277.492059 
L 584.785827 275.937164 
L 585.650561 280.018074 
L 586.515294 282.67491 
L 587.380027 279.465091 
L 588.244761 279.2471 
L 589.109494 271.823976 
L 589.974227 275.71926 
L 590.83896 276.141816 
L 591.703694 274.727627 
L 592.568427 278.924137 
L 593.43316 274.637482 
L 594.297894 274.743066 
L 595.162627 272.012706 
L 596.02736 270.182567 
L 596.892094 269.558684 
L 597.756827 270.127019 
L 598.62156 258.204541 
L 599.486294 276.643581 
L 600.351027 273.906791 
L 601.21576 269.733025 
L 602.080494 261.937557 
L 602.945227 268.981821 
L 603.80996 260.594487 
L 604.674694 268.599286 
L 605.539427 266.985607 
L 606.40416 268.148257 
L 607.268894 259.644492 
L 608.133627 269.64791 
L 608.99836 247.677401 
L 609.863094 268.337819 
L 610.727827 258.898055 
L 611.59256 260.52315 
L 612.457294 266.659582 
L 613.322027 254.959951 
L 614.18676 258.580253 
L 615.051494 257.037036 
L 615.916227 254.655839 
L 616.78096 257.797776 
L 617.645694 260.435717 
L 618.510427 244.587513 
L 619.37516 251.908508 
L 620.239894 262.941 
L 621.104627 264.018054 
L 621.96936 236.503547 
L 622.834094 250.966299 
L 623.698827 251.063179 
L 624.56356 250.337693 
L 625.428294 245.107604 
L 626.293027 258.195356 
L 627.15776 252.855004 
L 628.022494 242.621653 
L 628.887227 252.299003 
L 629.75196 249.911157 
L 630.616694 249.656163 
L 631.481427 252.764466 
L 632.34616 250.557127 
L 633.210894 245.592005 
L 634.075627 250.022209 
L 634.94036 251.2649 
L 635.805094 247.884196 
L 636.669827 256.992729 
L 637.53456 257.60957 
L 638.399294 257.711786 
L 639.264027 246.535614 
L 640.12876 243.867406 
L 640.993494 259.05022 
L 641.858227 255.42117 
L 642.72296 252.41141 
L 643.587694 254.8475 
L 644.452427 246.004063 
L 645.31716 242.60254 
L 646.181894 251.749388 
L 647.046627 252.634082 
L 647.91136 242.783091 
L 648.776093 244.328363 
L 650.50556 253.629564 
L 651.370293 246.862645 
L 652.235027 248.404462 
L 653.09976 253.034287 
L 653.964493 238.399556 
L 654.829227 245.988799 
L 655.69396 247.448125 
L 656.558693 241.738009 
L 657.423427 233.458709 
L 658.28816 246.311237 
L 659.152893 247.378931 
L 660.017627 249.549004 
L 660.88236 229.799611 
L 661.747093 248.564938 
L 662.611827 253.116471 
L 663.47656 251.314018 
L 665.206027 241.66103 
L 666.07076 244.679407 
L 666.935493 231.876478 
L 667.800227 245.027738 
L 668.66496 239.404443 
L 669.529693 244.458485 
L 670.394427 238.595723 
L 671.25916 243.005719 
L 672.123893 239.378156 
L 672.988627 238.828716 
L 673.85336 227.586018 
L 674.718093 228.719189 
L 675.582827 245.225216 
L 676.44756 246.073738 
L 677.312293 231.356693 
L 678.177027 227.199241 
L 679.04176 230.958806 
L 679.906493 233.664585 
L 680.771227 230.921847 
L 681.63596 230.560831 
L 682.500693 237.809877 
L 683.365427 235.55469 
L 684.23016 245.348646 
L 685.094893 238.246604 
L 685.959627 232.776217 
L 686.82436 229.392976 
L 687.689093 229.499129 
L 688.553827 236.643991 
L 689.41856 231.564187 
L 690.283293 219.643546 
L 691.148027 238.014354 
L 692.01276 232.154522 
L 692.877493 232.029037 
L 693.742227 238.572672 
L 694.60696 233.646521 
L 695.471693 235.895411 
L 696.336427 235.101474 
L 697.20116 240.353082 
L 698.065893 237.605095 
L 698.930627 241.921885 
L 699.79536 218.308348 
L 700.660093 231.916192 
L 701.524827 235.311724 
L 702.38956 232.577471 
L 703.254293 231.937405 
L 704.119027 222.513125 
L 704.98376 223.381417 
L 705.848493 220.781571 
L 706.713226 223.180046 
L 707.57796 220.844467 
L 708.442693 230.209438 
L 709.307426 221.89834 
L 710.17216 221.336566 
L 711.036893 230.309818 
L 711.901626 229.794056 
L 712.76636 224.452129 
L 713.631093 226.718776 
L 714.495826 216.597133 
L 715.36056 219.427741 
L 716.225293 214.474822 
L 717.95476 215.424904 
L 718.819493 219.020932 
L 719.684226 217.081884 
L 720.54896 219.07145 
L 721.413693 214.81305 
L 722.278426 211.557962 
L 723.14316 214.192361 
L 724.007893 211.735627 
L 724.872626 214.551539 
L 725.73736 215.51553 
L 726.602093 205.049448 
L 727.466826 207.716038 
L 728.33156 218.673913 
L 729.196293 208.652387 
L 730.061026 207.935342 
L 730.92576 212.382953 
L 731.790493 209.883575 
L 732.655226 205.136969 
L 733.51996 213.914404 
L 734.384693 212.571946 
L 735.249426 207.562648 
L 736.11416 204.151109 
L 736.978893 212.662878 
L 737.843626 211.290065 
L 738.70836 216.765526 
L 739.573093 203.601756 
L 740.437826 196.983941 
L 741.30256 215.758102 
L 742.167293 210.988753 
L 743.032026 215.086195 
L 743.89676 206.31414 
L 744.761493 212.819898 
L 745.626226 202.797147 
L 746.49096 201.158057 
L 747.355693 160.430356 
L 748.220426 184.62981 
L 749.08516 194.832412 
L 749.949893 196.043306 
L 750.814626 206.635222 
L 751.67936 195.020662 
L 752.544093 209.023506 
L 753.408826 197.764974 
L 754.27356 215.71642 
L 755.138293 212.408846 
L 756.003026 207.026505 
L 756.86776 211.562861 
L 757.732493 210.330667 
L 758.597226 200.036827 
L 759.46196 210.109439 
L 760.326693 197.830844 
L 761.191426 210.36662 
L 762.05616 206.699911 
L 762.920893 207.838593 
L 764.650359 202.805808 
L 765.515093 200.600481 
L 766.379826 202.041001 
L 767.244559 198.785694 
L 768.109293 206.092868 
L 768.974026 204.497778 
L 769.838759 201.605411 
L 770.703493 204.786932 
L 771.568226 198.812374 
L 772.432959 198.332085 
L 773.297693 196.9961 
L 774.162426 197.104964 
L 775.027159 201.498865 
L 775.891893 198.560005 
L 776.756626 191.942014 
L 777.621359 197.23561 
L 778.486093 201.663058 
L 779.350826 203.048686 
L 780.215559 195.646031 
L 781.080293 201.978149 
L 781.945026 197.046268 
L 782.809759 200.737032 
L 783.674493 187.008383 
L 784.539226 194.727222 
L 785.403959 196.032415 
L 786.268693 194.420267 
L 787.133426 198.384702 
L 787.998159 201.712526 
L 788.862893 198.780445 
L 789.727626 194.53906 
L 790.592359 189.740056 
L 791.457093 188.064618 
L 792.321826 187.759369 
L 793.186559 191.238222 
L 794.051293 191.608116 
L 794.916026 194.52607 
L 795.780759 186.288364 
L 796.645493 180.078758 
L 797.510226 188.094535 
L 798.374959 191.296219 
L 799.239693 184.724153 
L 800.104426 192.237116 
L 800.969159 190.447478 
L 801.833893 195.977786 
L 802.698626 185.395579 
L 803.563359 187.995774 
L 804.428093 183.19069 
L 805.292826 189.860992 
L 806.157559 174.706739 
L 807.022293 171.723921 
L 807.887026 179.60188 
L 808.751759 174.455769 
L 809.616493 182.298124 
L 810.481226 178.685126 
L 811.345959 173.811985 
L 813.075426 177.982996 
L 813.940159 182.891083 
L 814.804893 178.316413 
L 815.669626 181.800864 
L 817.399093 163.894513 
L 819.128559 186.066087 
L 819.993293 175.952142 
L 820.858026 177.785911 
L 821.722759 164.061374 
L 822.587492 158.182822 
L 823.452226 181.151263 
L 824.316959 177.607897 
L 825.181692 167.035006 
L 826.046426 170.619137 
L 826.911159 154.941031 
L 827.775892 158.234083 
L 828.640626 179.970068 
L 829.505359 167.368335 
L 830.370092 159.563857 
L 831.234826 164.203829 
L 832.099559 169.503724 
L 832.964292 152.337205 
L 833.829026 166.047484 
L 834.693759 149.156954 
L 835.558492 160.353377 
L 836.423226 160.499943 
L 837.287959 163.950891 
L 838.152692 175.009757 
L 839.017426 162.782992 
L 839.882159 174.932997 
L 840.746892 171.252686 
L 841.611626 181.90706 
L 842.476359 179.628822 
L 843.341092 182.011813 
L 844.205826 180.006109 
L 845.935292 171.586277 
L 846.800026 178.552643 
L 847.664759 179.818253 
L 848.529492 176.646924 
L 849.394226 175.249749 
L 850.258959 171.909765 
L 851.123692 174.768716 
L 851.988426 173.671979 
L 852.853159 179.612858 
L 853.717892 167.651716 
L 854.582626 169.671854 
L 855.447359 179.962589 
L 856.312092 176.085893 
L 857.176826 183.44341 
L 858.041559 173.606284 
L 858.906292 178.930498 
L 859.771026 180.807831 
L 860.635759 174.005833 
L 861.500492 172.175475 
L 862.365226 167.733375 
L 863.229959 160.915544 
L 864.094692 169.717779 
L 864.959426 161.757768 
L 865.824159 173.956322 
L 866.688892 160.649135 
L 867.553626 179.409431 
L 868.418359 160.540139 
L 869.283092 158.330483 
L 870.147826 161.466952 
L 871.012559 171.703452 
L 872.742026 164.29393 
L 874.471492 170.465528 
L 875.336226 167.434162 
L 876.200959 166.298061 
L 877.065692 152.277853 
L 877.930426 167.15896 
L 878.795159 154.782392 
L 879.659892 159.408849 
L 880.524625 152.423632 
L 881.389359 173.387549 
L 882.254092 157.82032 
L 883.118825 172.159904 
L 883.983559 154.645535 
L 884.848292 165.460298 
L 885.713025 164.289425 
L 886.577759 167.574605 
L 887.442492 169.90546 
L 888.307225 166.798295 
L 889.171959 166.449832 
L 890.036692 170.311657 
L 890.901425 161.849093 
L 891.766159 167.410543 
L 892.630892 165.363637 
L 893.495625 147.31308 
L 894.360359 154.058349 
L 895.225092 151.328164 
L 896.089825 145.992972 
L 896.954559 132.495918 
L 897.819292 141.298984 
L 898.684025 157.991817 
L 899.548759 146.472869 
L 900.413492 125.467269 
L 901.278225 132.846305 
L 902.142959 155.305239 
L 903.007692 136.090108 
L 903.872425 157.904253 
L 904.737159 139.917817 
L 905.601892 150.964349 
L 906.466625 147.73616 
L 907.331359 160.130093 
L 908.196092 136.550497 
L 909.060825 163.204279 
L 910.790292 153.920049 
L 911.655025 143.283301 
L 912.519759 159.348447 
L 913.384492 146.928009 
L 914.249225 129.408916 
L 915.113959 148.337211 
L 915.978692 129.256051 
L 916.843425 155.737242 
L 917.708159 148.991273 
L 918.572892 151.473594 
L 920.302359 158.995348 
L 921.167092 149.48779 
L 922.031825 159.854148 
L 922.896559 153.63212 
L 923.761292 158.404094 
L 924.626025 143.068852 
L 925.490759 148.860146 
L 926.355492 130.624664 
L 927.220225 139.029056 
L 928.084959 153.883615 
L 928.949692 146.279239 
L 929.814425 157.995185 
L 930.679159 141.412878 
L 931.543892 157.389979 
L 932.408625 156.549374 
L 933.273359 150.735904 
L 934.138092 139.016547 
L 935.002825 139.925209 
L 935.867559 127.797599 
L 936.732292 128.507646 
L 937.597025 147.066134 
L 938.461758 145.782504 
L 939.326492 142.389203 
L 940.191225 147.308225 
L 941.055958 131.255851 
L 941.920692 135.189538 
L 942.785425 147.672171 
L 943.650158 132.343971 
L 944.514892 105.153739 
L 945.379625 138.758841 
L 946.244358 144.942205 
L 947.109092 130.971684 
L 947.973825 146.145925 
L 948.838558 135.456822 
L 949.703292 136.070645 
L 950.568025 141.654051 
L 951.432758 137.165982 
L 952.297492 128.602164 
L 953.162225 148.843875 
L 954.026958 116.265529 
L 954.891692 150.135597 
L 955.756425 122.48642 
L 956.621158 133.957519 
L 957.485892 148.337999 
L 958.350625 149.608507 
L 959.215358 134.360261 
L 960.080092 124.864906 
L 960.944825 134.211332 
L 961.809558 115.644183 
L 962.674292 79.797102 
L 964.403758 126.316491 
L 965.268492 150.78183 
L 966.133225 148.361749 
L 966.997958 142.950846 
L 967.862692 143.888288 
L 968.727425 144.274103 
L 969.592158 143.163545 
L 970.456892 147.198399 
L 971.321625 138.861582 
L 972.186358 142.318347 
L 973.051092 141.550522 
L 973.915825 137.563212 
L 974.780558 143.408436 
L 975.645292 147.327733 
L 976.510025 145.499211 
L 977.374758 146.018472 
L 978.239492 144.382355 
L 979.104225 137.826298 
L 979.968958 138.394939 
L 980.833692 139.465914 
L 981.698425 126.237456 
L 982.563158 138.911488 
L 983.427892 133.805091 
L 984.292625 144.050601 
L 985.157358 140.721989 
L 986.022092 131.106529 
L 986.886825 143.938018 
L 987.751558 140.522936 
L 988.616292 120.412527 
L 989.481025 148.481416 
L 990.345758 142.617779 
L 991.210492 145.55419 
L 992.075225 129.548922 
L 992.939958 133.419582 
L 993.804692 138.091002 
L 994.669425 137.855909 
L 995.534158 140.198005 
L 996.398891 138.950502 
L 997.263625 140.238856 
L 998.128358 139.137002 
L 998.993091 137.103042 
L 999.857825 140.067971 
L 1000.722558 136.347508 
L 1001.587291 136.904208 
L 1002.452025 126.445693 
L 1002.452025 126.445693 
" clip-path="url(#pb9724e890e)" style="fill: none; stroke: #dd8452; stroke-width: 6; stroke-linecap: round"/>
   </g>
   <g id="line2d_15"/>
   <g id="line2d_16"/>
   <g id="patch_3">
    <path d="M 95.39 609.894375 
L 95.39 54.554375 
" style="fill: none; stroke: #cccccc; stroke-width: 1.875; stroke-linejoin: miter; stroke-linecap: square"/>
   </g>
   <g id="patch_4">
    <path d="M 1045.645455 609.894375 
L 1045.645455 54.554375 
" style="fill: none; stroke: #cccccc; stroke-width: 1.875; stroke-linejoin: miter; stroke-linecap: square"/>
   </g>
   <g id="patch_5">
    <path d="M 95.39 609.894375 
L 1045.645455 609.894375 
" style="fill: none; stroke: #cccccc; stroke-width: 1.875; stroke-linejoin: miter; stroke-linecap: square"/>
   </g>
   <g id="patch_6">
    <path d="M 95.39 54.554375 
L 1045.645455 54.554375 
" style="fill: none; stroke: #cccccc; stroke-width: 1.875; stroke-linejoin: miter; stroke-linecap: square"/>
   </g>
   <g id="text_15">
    <!-- Training Progress: Loss -->
    <g style="fill: #262626" transform="translate(333.519602 34.554375) scale(0.36 -0.36)">
     <defs>
      <path id="DejaVuSans-Bold-54" d="M 31 4666 
L 4331 4666 
L 4331 3756 
L 2784 3756 
L 2784 0 
L 1581 0 
L 1581 3756 
L 31 3756 
L 31 4666 
z
" transform="scale(0.015625)"/>
      <path id="DejaVuSans-Bold-72" d="M 3138 2547 
Q 2991 2616 2845 2648 
Q 2700 2681 2553 2681 
Q 2122 2681 1889 2404 
Q 1656 2128 1656 1613 
L 1656 0 
L 538 0 
L 538 3500 
L 1656 3500 
L 1656 2925 
Q 1872 3269 2151 3426 
Q 2431 3584 2822 3584 
Q 2878 3584 2943 3579 
Q 3009 3575 3134 3559 
L 3138 2547 
z
" transform="scale(0.015625)"/>
      <path id="DejaVuSans-Bold-61" d="M 2106 1575 
Q 1756 1575 1579 1456 
Q 1403 1338 1403 1106 
Q 1403 894 1545 773 
Q 1688 653 1941 653 
Q 2256 653 2472 879 
Q 2688 1106 2688 1447 
L 2688 1575 
L 2106 1575 
z
M 3816 1997 
L 3816 0 
L 2688 0 
L 2688 519 
Q 2463 200 2181 54 
Q 1900 -91 1497 -91 
Q 953 -91 614 226 
Q 275 544 275 1050 
Q 275 1666 698 1953 
Q 1122 2241 2028 2241 
L 2688 2241 
L 2688 2328 
Q 2688 2594 2478 2717 
Q 2269 2841 1825 2841 
Q 1466 2841 1156 2769 
Q 847 2697 581 2553 
L 581 3406 
Q 941 3494 1303 3539 
Q 1666 3584 2028 3584 
Q 2975 3584 3395 3211 
Q 3816 2838 3816 1997 
z
" transform="scale(0.015625)"/>
      <path id="DejaVuSans-Bold-69" d="M 538 3500 
L 1656 3500 
L 1656 0 
L 538 0 
L 538 3500 
z
M 538 4863 
L 1656 4863 
L 1656 3950 
L 538 3950 
L 538 4863 
z
" transform="scale(0.015625)"/>
      <path id="DejaVuSans-Bold-6e" d="M 4056 2131 
L 4056 0 
L 2931 0 
L 2931 347 
L 2931 1631 
Q 2931 2084 2911 2256 
Q 2891 2428 2841 2509 
Q 2775 2619 2662 2680 
Q 2550 2741 2406 2741 
Q 2056 2741 1856 2470 
Q 1656 2200 1656 1722 
L 1656 0 
L 538 0 
L 538 3500 
L 1656 3500 
L 1656 2988 
Q 1909 3294 2193 3439 
Q 2478 3584 2822 3584 
Q 3428 3584 3742 3212 
Q 4056 2841 4056 2131 
z
" transform="scale(0.015625)"/>
      <path id="DejaVuSans-Bold-67" d="M 2919 594 
Q 2688 288 2409 144 
Q 2131 0 1766 0 
Q 1125 0 706 504 
Q 288 1009 288 1791 
Q 288 2575 706 3076 
Q 1125 3578 1766 3578 
Q 2131 3578 2409 3434 
Q 2688 3291 2919 2981 
L 2919 3500 
L 4044 3500 
L 4044 353 
Q 4044 -491 3511 -936 
Q 2978 -1381 1966 -1381 
Q 1638 -1381 1331 -1331 
Q 1025 -1281 716 -1178 
L 716 -306 
Q 1009 -475 1290 -558 
Q 1572 -641 1856 -641 
Q 2406 -641 2662 -400 
Q 2919 -159 2919 353 
L 2919 594 
z
M 2181 2772 
Q 1834 2772 1640 2515 
Q 1447 2259 1447 1791 
Q 1447 1309 1634 1061 
Q 1822 813 2181 813 
Q 2531 813 2725 1069 
Q 2919 1325 2919 1791 
Q 2919 2259 2725 2515 
Q 2531 2772 2181 2772 
z
" transform="scale(0.015625)"/>
      <path id="DejaVuSans-Bold-20" transform="scale(0.015625)"/>
      <path id="DejaVuSans-Bold-50" d="M 588 4666 
L 2584 4666 
Q 3475 4666 3951 4270 
Q 4428 3875 4428 3144 
Q 4428 2409 3951 2014 
Q 3475 1619 2584 1619 
L 1791 1619 
L 1791 0 
L 588 0 
L 588 4666 
z
M 1791 3794 
L 1791 2491 
L 2456 2491 
Q 2806 2491 2997 2661 
Q 3188 2831 3188 3144 
Q 3188 3456 2997 3625 
Q 2806 3794 2456 3794 
L 1791 3794 
z
" transform="scale(0.015625)"/>
      <path id="DejaVuSans-Bold-6f" d="M 2203 2784 
Q 1831 2784 1636 2517 
Q 1441 2250 1441 1747 
Q 1441 1244 1636 976 
Q 1831 709 2203 709 
Q 2569 709 2762 976 
Q 2956 1244 2956 1747 
Q 2956 2250 2762 2517 
Q 2569 2784 2203 2784 
z
M 2203 3584 
Q 3106 3584 3614 3096 
Q 4122 2609 4122 1747 
Q 4122 884 3614 396 
Q 3106 -91 2203 -91 
Q 1297 -91 786 396 
Q 275 884 275 1747 
Q 275 2609 786 3096 
Q 1297 3584 2203 3584 
z
" transform="scale(0.015625)"/>
      <path id="DejaVuSans-Bold-65" d="M 4031 1759 
L 4031 1441 
L 1416 1441 
Q 1456 1047 1700 850 
Q 1944 653 2381 653 
Q 2734 653 3104 758 
Q 3475 863 3866 1075 
L 3866 213 
Q 3469 63 3072 -14 
Q 2675 -91 2278 -91 
Q 1328 -91 801 392 
Q 275 875 275 1747 
Q 275 2603 792 3093 
Q 1309 3584 2216 3584 
Q 3041 3584 3536 3087 
Q 4031 2591 4031 1759 
z
M 2881 2131 
Q 2881 2450 2695 2645 
Q 2509 2841 2209 2841 
Q 1884 2841 1681 2658 
Q 1478 2475 1428 2131 
L 2881 2131 
z
" transform="scale(0.015625)"/>
      <path id="DejaVuSans-Bold-73" d="M 3272 3391 
L 3272 2541 
Q 2913 2691 2578 2766 
Q 2244 2841 1947 2841 
Q 1628 2841 1473 2761 
Q 1319 2681 1319 2516 
Q 1319 2381 1436 2309 
Q 1553 2238 1856 2203 
L 2053 2175 
Q 2913 2066 3209 1816 
Q 3506 1566 3506 1031 
Q 3506 472 3093 190 
Q 2681 -91 1863 -91 
Q 1516 -91 1145 -36 
Q 775 19 384 128 
L 384 978 
Q 719 816 1070 734 
Q 1422 653 1784 653 
Q 2113 653 2278 743 
Q 2444 834 2444 1013 
Q 2444 1163 2330 1236 
Q 2216 1309 1875 1350 
L 1678 1375 
Q 931 1469 631 1722 
Q 331 1975 331 2491 
Q 331 3047 712 3315 
Q 1094 3584 1881 3584 
Q 2191 3584 2531 3537 
Q 2872 3491 3272 3391 
z
" transform="scale(0.015625)"/>
      <path id="DejaVuSans-Bold-3a" d="M 716 3500 
L 1844 3500 
L 1844 2291 
L 716 2291 
L 716 3500 
z
M 716 1209 
L 1844 1209 
L 1844 0 
L 716 0 
L 716 1209 
z
" transform="scale(0.015625)"/>
      <path id="DejaVuSans-Bold-4c" d="M 588 4666 
L 1791 4666 
L 1791 909 
L 3903 909 
L 3903 0 
L 588 0 
L 588 4666 
z
" transform="scale(0.015625)"/>
     </defs>
     <use xlink:href="#DejaVuSans-Bold-54"/>
     <use xlink:href="#DejaVuSans-Bold-72" transform="translate(57.212891 0)"/>
     <use xlink:href="#DejaVuSans-Bold-61" transform="translate(106.529297 0)"/>
     <use xlink:href="#DejaVuSans-Bold-69" transform="translate(174.009766 0)"/>
     <use xlink:href="#DejaVuSans-Bold-6e" transform="translate(208.287109 0)"/>
     <use xlink:href="#DejaVuSans-Bold-69" transform="translate(279.478516 0)"/>
     <use xlink:href="#DejaVuSans-Bold-6e" transform="translate(313.755859 0)"/>
     <use xlink:href="#DejaVuSans-Bold-67" transform="translate(384.947266 0)"/>
     <use xlink:href="#DejaVuSans-Bold-20" transform="translate(456.529297 0)"/>
     <use xlink:href="#DejaVuSans-Bold-50" transform="translate(491.34375 0)"/>
     <use xlink:href="#DejaVuSans-Bold-72" transform="translate(564.634766 0)"/>
     <use xlink:href="#DejaVuSans-Bold-6f" transform="translate(613.951172 0)"/>
     <use xlink:href="#DejaVuSans-Bold-67" transform="translate(682.652344 0)"/>
     <use xlink:href="#DejaVuSans-Bold-72" transform="translate(754.234375 0)"/>
     <use xlink:href="#DejaVuSans-Bold-65" transform="translate(803.550781 0)"/>
     <use xlink:href="#DejaVuSans-Bold-73" transform="translate(871.373047 0)"/>
     <use xlink:href="#DejaVuSans-Bold-73" transform="translate(930.894531 0)"/>
     <use xlink:href="#DejaVuSans-Bold-3a" transform="translate(990.416016 0)"/>
     <use xlink:href="#DejaVuSans-Bold-20" transform="translate(1030.40625 0)"/>
     <use xlink:href="#DejaVuSans-Bold-4c" transform="translate(1065.220703 0)"/>
     <use xlink:href="#DejaVuSans-Bold-6f" transform="translate(1128.941406 0)"/>
     <use xlink:href="#DejaVuSans-Bold-73" transform="translate(1197.642578 0)"/>
     <use xlink:href="#DejaVuSans-Bold-73" transform="translate(1257.164062 0)"/>
    </g>
   </g>
   <g id="legend_1">
    <g id="patch_7">
     <path d="M 117.79 174.094375 
L 294.67 174.094375 
Q 301.07 174.094375 301.07 167.694375 
L 301.07 76.954375 
Q 301.07 70.554375 294.67 70.554375 
L 117.79 70.554375 
Q 111.39 70.554375 111.39 76.954375 
L 111.39 167.694375 
Q 111.39 174.094375 117.79 174.094375 
z
" style="fill: #ffffff; opacity: 0.8; stroke: #cccccc; stroke-width: 1.5; stroke-linejoin: miter"/>
    </g>
    <g id="line2d_17">
     <path d="M 124.19 96.469375 
L 156.19 96.469375 
L 188.19 96.469375 
" style="fill: none; stroke: #4c72b0; stroke-width: 6; stroke-linecap: round"/>
    </g>
    <g id="text_16">
     <!-- train -->
     <g style="fill: #262626" transform="translate(213.79 107.669375) scale(0.32 -0.32)">
      <defs>
       <path id="DejaVuSans-74" d="M 1172 4494 
L 1172 3500 
L 2356 3500 
L 2356 3053 
L 1172 3053 
L 1172 1153 
Q 1172 725 1289 603 
Q 1406 481 1766 481 
L 2356 481 
L 2356 0 
L 1766 0 
Q 1100 0 847 248 
Q 594 497 594 1153 
L 594 3053 
L 172 3053 
L 172 3500 
L 594 3500 
L 594 4494 
L 1172 4494 
z
" transform="scale(0.015625)"/>
       <path id="DejaVuSans-72" d="M 2631 2963 
Q 2534 3019 2420 3045 
Q 2306 3072 2169 3072 
Q 1681 3072 1420 2755 
Q 1159 2438 1159 1844 
L 1159 0 
L 581 0 
L 581 3500 
L 1159 3500 
L 1159 2956 
Q 1341 3275 1631 3429 
Q 1922 3584 2338 3584 
Q 2397 3584 2469 3576 
Q 2541 3569 2628 3553 
L 2631 2963 
z
" transform="scale(0.015625)"/>
       <path id="DejaVuSans-61" d="M 2194 1759 
Q 1497 1759 1228 1600 
Q 959 1441 959 1056 
Q 959 750 1161 570 
Q 1363 391 1709 391 
Q 2188 391 2477 730 
Q 2766 1069 2766 1631 
L 2766 1759 
L 2194 1759 
z
M 3341 1997 
L 3341 0 
L 2766 0 
L 2766 531 
Q 2569 213 2275 61 
Q 1981 -91 1556 -91 
Q 1019 -91 701 211 
Q 384 513 384 1019 
Q 384 1609 779 1909 
Q 1175 2209 1959 2209 
L 2766 2209 
L 2766 2266 
Q 2766 2663 2505 2880 
Q 2244 3097 1772 3097 
Q 1472 3097 1187 3025 
Q 903 2953 641 2809 
L 641 3341 
Q 956 3463 1253 3523 
Q 1550 3584 1831 3584 
Q 2591 3584 2966 3190 
Q 3341 2797 3341 1997 
z
" transform="scale(0.015625)"/>
       <path id="DejaVuSans-69" d="M 603 3500 
L 1178 3500 
L 1178 0 
L 603 0 
L 603 3500 
z
M 603 4863 
L 1178 4863 
L 1178 4134 
L 603 4134 
L 603 4863 
z
" transform="scale(0.015625)"/>
       <path id="DejaVuSans-6e" d="M 3513 2113 
L 3513 0 
L 2938 0 
L 2938 2094 
Q 2938 2591 2744 2837 
Q 2550 3084 2163 3084 
Q 1697 3084 1428 2787 
Q 1159 2491 1159 1978 
L 1159 0 
L 581 0 
L 581 3500 
L 1159 3500 
L 1159 2956 
Q 1366 3272 1645 3428 
Q 1925 3584 2291 3584 
Q 2894 3584 3203 3211 
Q 3513 2838 3513 2113 
z
" transform="scale(0.015625)"/>
      </defs>
      <use xlink:href="#DejaVuSans-74"/>
      <use xlink:href="#DejaVuSans-72" transform="translate(39.208984 0)"/>
      <use xlink:href="#DejaVuSans-61" transform="translate(80.322266 0)"/>
      <use xlink:href="#DejaVuSans-69" transform="translate(141.601562 0)"/>
      <use xlink:href="#DejaVuSans-6e" transform="translate(169.384766 0)"/>
     </g>
    </g>
    <g id="line2d_18">
     <path d="M 124.19 143.439375 
L 156.19 143.439375 
L 188.19 143.439375 
" style="fill: none; stroke: #dd8452; stroke-width: 6; stroke-linecap: round"/>
    </g>
    <g id="text_17">
     <!-- val -->
     <g style="fill: #262626" transform="translate(213.79 154.639375) scale(0.32 -0.32)">
      <defs>
       <path id="DejaVuSans-76" d="M 191 3500 
L 800 3500 
L 1894 563 
L 2988 3500 
L 3597 3500 
L 2284 0 
L 1503 0 
L 191 3500 
z
" transform="scale(0.015625)"/>
       <path id="DejaVuSans-6c" d="M 603 4863 
L 1178 4863 
L 1178 0 
L 603 0 
L 603 4863 
z
" transform="scale(0.015625)"/>
      </defs>
      <use xlink:href="#DejaVuSans-76"/>
      <use xlink:href="#DejaVuSans-61" transform="translate(59.179688 0)"/>
      <use xlink:href="#DejaVuSans-6c" transform="translate(120.458984 0)"/>
     </g>
    </g>
   </g>
  </g>
 </g>
 <defs>
  <clipPath id="pb9724e890e">
   <rect x="95.39" y="54.554375" width="950.255455" height="555.34"/>
  </clipPath>
 </defs>
</svg>
