<?xml version="1.0" encoding="utf-8" standalone="no"?>
<!DOCTYPE svg PUBLIC "-//W3C//DTD SVG 1.1//EN"
  "http://www.w3.org/Graphics/SVG/1.1/DTD/svg11.dtd">
<svg xmlns:xlink="http://www.w3.org/1999/xlink" width="1052.955455pt" height="695.534375pt" viewBox="0 0 1052.955455 695.534375" xmlns="http://www.w3.org/2000/svg" version="1.1">
 <metadata>
  <rdf:RDF xmlns:dc="http://purl.org/dc/elements/1.1/" xmlns:cc="http://creativecommons.org/ns#" xmlns:rdf="http://www.w3.org/1999/02/22-rdf-syntax-ns#">
   <cc:Work>
    <dc:type rdf:resource="http://purl.org/dc/dcmitype/StillImage"/>
    <dc:date>2026-04-10T15:16:38.945223</dc:date>
    <dc:format>image/svg+xml</dc:format>
    <dc:creator>
     <cc:Agent>
      <dc:title>Matplotlib v3.10.8, https://matplotlib.org/</dc:title>
     </cc:Agent>
    </dc:creator>
   </cc:Work>
  </rdf:RDF>
 </metadata>
 <defs>
  <style type="text/css">*{stroke-linejoin: round; stroke-linecap: butt}</style>
 </defs>
 <g id="figure_1">
  <g id="patch_1">
   <path d="M 0 695.534375 
L 1052.955455 695.534375 
L 1052.955455 0 
L 0 0 
z
" style="fill: #ffffff"/>
  </g>
  <g id="axes_1">
   <g id="patch_2">
    <path d="M 115.75 609.894375 
L 1045.755455 609.894375 
L 1045.755455 54.554375 
L 115.75 54.554375 
z
" style="fill: #ffffff"/>
   </g>
   <g id="matplotlib.axis_1">
    <g id="xtick_1">
     <g id="line2d_1">
      <path d="M 157.176669 609.894375 
L 157.176669 54.554375 
" clip-path="url(#p17f32d987c)" style="fill: none; stroke: #cccccc; stroke-opacity: 0.3; stroke-width: 1.5; stroke-linecap: round"/>
     </g>
     <g id="text_1">
      <!-- 0 -->
      <g style="fill: #262626" transform="translate(146.996669 646.709375) scale(0.32 -0.32)">
       <defs>
        <path id="DejaVuSans-30" d="M 2034 4250 
Q 1547 4250 1301 3770 
Q 1056 3291 1056 2328 
Q 1056 1369 1301 889 
Q 1547 409 2034 409 
Q 2525 409 2770 889 
Q 3016 1369 3016 2328 
Q 3016 3291 2770 3770 
Q 2525 4250 2034 4250 
z
M 2034 4750 
Q 2819 4750 3233 4129 
Q 3647 3509 3647 2328 
Q 3647 1150 3233 529 
Q 2819 -91 2034 -91 
Q 1250 -91 836 529 
Q 422 1150 422 2328 
Q 422 3509 836 4129 
Q 1250 4750 2034 4750 
z
" transform="scale(0.015625)"/>
       </defs>
       <use xlink:href="#DejaVuSans-30"/>
      </g>
     </g>
    </g>
    <g id="xtick_2">
     <g id="line2d_2">
      <path d="M 326.437831 609.894375 
L 326.437831 54.554375 
" clip-path="url(#p17f32d987c)" style="fill: none; stroke: #cccccc; stroke-opacity: 0.3; stroke-width: 1.5; stroke-linecap: round"/>
     </g>
     <g id="text_2">
      <!-- 200 -->
      <g style="fill: #262626" transform="translate(295.897831 646.709375) scale(0.32 -0.32)">
       <defs>
        <path id="DejaVuSans-32" d="M 1228 531 
L 3431 531 
L 3431 0 
L 469 0 
L 469 531 
Q 828 903 1448 1529 
Q 2069 2156 2228 2338 
Q 2531 2678 2651 2914 
Q 2772 3150 2772 3378 
Q 2772 3750 2511 3984 
Q 2250 4219 1831 4219 
Q 1534 4219 1204 4116 
Q 875 4013 500 3803 
L 500 4441 
Q 881 4594 1212 4672 
Q 1544 4750 1819 4750 
Q 2544 4750 2975 4387 
Q 3406 4025 3406 3419 
Q 3406 3131 3298 2873 
Q 3191 2616 2906 2266 
Q 2828 2175 2409 1742 
Q 1991 1309 1228 531 
z
" transform="scale(0.015625)"/>
       </defs>
       <use xlink:href="#DejaVuSans-32"/>
       <use xlink:href="#DejaVuSans-30" transform="translate(63.623047 0)"/>
       <use xlink:href="#DejaVuSans-30" transform="translate(127.246094 0)"/>
      </g>
     </g>
    </g>
    <g id="xtick_3">
     <g id="line2d_3">
      <path d="M 495.698993 609.894375 
L 495.698993 54.554375 
" clip-path="url(#p17f32d987c)" style="fill: none; stroke: #cccccc; stroke-opacity: 0.3; stroke-width: 1.5; stroke-linecap: round"/>
     </g>
     <g id="text_3">
      <!-- 400 -->
      <g style="fill: #262626" transform="translate(465.158993 646.709375) scale(0.32 -0.32)">
       <defs>
        <path id="DejaVuSans-34" d="M 2419 4116 
L 825 1625 
L 2419 1625 
L 2419 4116 
z
M 2253 4666 
L 3047 4666 
L 3047 1625 
L 3713 1625 
L 3713 1100 
L 3047 1100 
L 3047 0 
L 2419 0 
L 2419 1100 
L 313 1100 
L 313 1709 
L 2253 4666 
z
" transform="scale(0.015625)"/>
       </defs>
       <use xlink:href="#DejaVuSans-34"/>
       <use xlink:href="#DejaVuSans-30" transform="translate(63.623047 0)"/>
       <use xlink:href="#DejaVuSans-30" transform="translate(127.246094 0)"/>
      </g>
     </g>
    </g>
    <g id="xtick_4">
     <g id="line2d_4">
      <path d="M 664.960155 609.894375 
L 664.960155 54.554375 
" clip-path="url(#p17f32d987c)" style="fill: none; stroke: #cccccc; stroke-opacity: 0.3; stroke-width: 1.5; stroke-linecap: round"/>
     </g>
     <g id="text_4">
      <!-- 600 -->
      <g style="fill: #262626" transform="translate(634.420155 646.709375) scale(0.32 -0.32)">
       <defs>
        <path id="DejaVuSans-36" d="M 2113 2584 
Q 1688 2584 1439 2293 
Q 1191 2003 1191 1497 
Q 1191 994 1439 701 
Q 1688 409 2113 409 
Q 2538 409 2786 701 
Q 3034 994 3034 1497 
Q 3034 2003 2786 2293 
Q 2538 2584 2113 2584 
z
M 3366 4563 
L 3366 3988 
Q 3128 4100 2886 4159 
Q 2644 4219 2406 4219 
Q 1781 4219 1451 3797 
Q 1122 3375 1075 2522 
Q 1259 2794 1537 2939 
Q 1816 3084 2150 3084 
Q 2853 3084 3261 2657 
Q 3669 2231 3669 1497 
Q 3669 778 3244 343 
Q 2819 -91 2113 -91 
Q 1303 -91 875 529 
Q 447 1150 447 2328 
Q 447 3434 972 4092 
Q 1497 4750 2381 4750 
Q 2619 4750 2861 4703 
Q 3103 4656 3366 4563 
z
" transform="scale(0.015625)"/>
       </defs>
       <use xlink:href="#DejaVuSans-36"/>
       <use xlink:href="#DejaVuSans-30" transform="translate(63.623047 0)"/>
       <use xlink:href="#DejaVuSans-30" transform="translate(127.246094 0)"/>
      </g>
     </g>
    </g>
    <g id="xtick_5">
     <g id="line2d_5">
      <path d="M 834.221317 609.894375 
L 834.221317 54.554375 
" clip-path="url(#p17f32d987c)" style="fill: none; stroke: #cccccc; stroke-opacity: 0.3; stroke-width: 1.5; stroke-linecap: round"/>
     </g>
     <g id="text_5">
      <!-- 800 -->
      <g style="fill: #262626" transform="translate(803.681317 646.709375) scale(0.32 -0.32)">
       <defs>
        <path id="DejaVuSans-38" d="M 2034 2216 
Q 1584 2216 1326 1975 
Q 1069 1734 1069 1313 
Q 1069 891 1326 650 
Q 1584 409 2034 409 
Q 2484 409 2743 651 
Q 3003 894 3003 1313 
Q 3003 1734 2745 1975 
Q 2488 2216 2034 2216 
z
M 1403 2484 
Q 997 2584 770 2862 
Q 544 3141 544 3541 
Q 544 4100 942 4425 
Q 1341 4750 2034 4750 
Q 2731 4750 3128 4425 
Q 3525 4100 3525 3541 
Q 3525 3141 3298 2862 
Q 3072 2584 2669 2484 
Q 3125 2378 3379 2068 
Q 3634 1759 3634 1313 
Q 3634 634 3220 271 
Q 2806 -91 2034 -91 
Q 1263 -91 848 271 
Q 434 634 434 1313 
Q 434 1759 690 2068 
Q 947 2378 1403 2484 
z
M 1172 3481 
Q 1172 3119 1398 2916 
Q 1625 2713 2034 2713 
Q 2441 2713 2670 2916 
Q 2900 3119 2900 3481 
Q 2900 3844 2670 4047 
Q 2441 4250 2034 4250 
Q 1625 4250 1398 4047 
Q 1172 3844 1172 3481 
z
" transform="scale(0.015625)"/>
       </defs>
       <use xlink:href="#DejaVuSans-38"/>
       <use xlink:href="#DejaVuSans-30" transform="translate(63.623047 0)"/>
       <use xlink:href="#DejaVuSans-30" transform="translate(127.246094 0)"/>
      </g>
     </g>
    </g>
    <g id="xtick_6">
     <g id="line2d_6">
      <path d="M 1003.482479 609.894375 
L 1003.482479 54.554375 
" clip-path="url(#p17f32d987c)" style="fill: none; stroke: #cccccc; stroke-opacity: 0.3; stroke-width: 1.5; stroke-linecap: round"/>
     </g>
     <g id="text_6">
      <!-- 1000 -->
      <g style="fill: #262626" transform="translate(962.762479 646.709375) scale(0.32 -0.32)">
       <defs>
        <path id="DejaVuSans-31" d="M 794 531 
L 1825 531 
L 1825 4091 
L 703 3866 
L 703 4441 
L 1819 4666 
L 2450 4666 
L 2450 531 
L 3481 531 
L 3481 0 
L 794 0 
L 794 531 
z
" transform="scale(0.015625)"/>
       </defs>
       <use xlink:href="#DejaVuSans-31"/>
       <use xlink:href="#DejaVuSans-30" transform="translate(63.623047 0)"/>
       <use xlink:href="#DejaVuSans-30" transform="translate(127.246094 0)"/>
       <use xlink:href="#DejaVuSans-30" transform="translate(190.869141 0)"/>
      </g>
     </g>
    </g>
    <g id="text_7">
     <!-- Epoch -->
     <g style="fill: #262626" transform="translate(531.757727 681.679375) scale(0.32 -0.32)">
      <defs>
       <path id="DejaVuSans-45" d="M 628 4666 
L 3578 4666 
L 3578 4134 
L 1259 4134 
L 1259 2753 
L 3481 2753 
L 3481 2222 
L 1259 2222 
L 1259 531 
L 3634 531 
L 3634 0 
L 628 0 
L 628 4666 
z
" transform="scale(0.015625)"/>
       <path id="DejaVuSans-70" d="M 1159 525 
L 1159 -1331 
L 581 -1331 
L 581 3500 
L 1159 3500 
L 1159 2969 
Q 1341 3281 1617 3432 
Q 1894 3584 2278 3584 
Q 2916 3584 3314 3078 
Q 3713 2572 3713 1747 
Q 3713 922 3314 415 
Q 2916 -91 2278 -91 
Q 1894 -91 1617 61 
Q 1341 213 1159 525 
z
M 3116 1747 
Q 3116 2381 2855 2742 
Q 2594 3103 2138 3103 
Q 1681 3103 1420 2742 
Q 1159 2381 1159 1747 
Q 1159 1113 1420 752 
Q 1681 391 2138 391 
Q 2594 391 2855 752 
Q 3116 1113 3116 1747 
z
" transform="scale(0.015625)"/>
       <path id="DejaVuSans-6f" d="M 1959 3097 
Q 1497 3097 1228 2736 
Q 959 2375 959 1747 
Q 959 1119 1226 758 
Q 1494 397 1959 397 
Q 2419 397 2687 759 
Q 2956 1122 2956 1747 
Q 2956 2369 2687 2733 
Q 2419 3097 1959 3097 
z
M 1959 3584 
Q 2709 3584 3137 3096 
Q 3566 2609 3566 1747 
Q 3566 888 3137 398 
Q 2709 -91 1959 -91 
Q 1206 -91 779 398 
Q 353 888 353 1747 
Q 353 2609 779 3096 
Q 1206 3584 1959 3584 
z
" transform="scale(0.015625)"/>
       <path id="DejaVuSans-63" d="M 3122 3366 
L 3122 2828 
Q 2878 2963 2633 3030 
Q 2388 3097 2138 3097 
Q 1578 3097 1268 2742 
Q 959 2388 959 1747 
Q 959 1106 1268 751 
Q 1578 397 2138 397 
Q 2388 397 2633 464 
Q 2878 531 3122 666 
L 3122 134 
Q 2881 22 2623 -34 
Q 2366 -91 2075 -91 
Q 1284 -91 818 406 
Q 353 903 353 1747 
Q 353 2603 823 3093 
Q 1294 3584 2113 3584 
Q 2378 3584 2631 3529 
Q 2884 3475 3122 3366 
z
" transform="scale(0.015625)"/>
       <path id="DejaVuSans-68" d="M 3513 2113 
L 3513 0 
L 2938 0 
L 2938 2094 
Q 2938 2591 2744 2837 
Q 2550 3084 2163 3084 
Q 1697 3084 1428 2787 
Q 1159 2491 1159 1978 
L 1159 0 
L 581 0 
L 581 4863 
L 1159 4863 
L 1159 2956 
Q 1366 3272 1645 3428 
Q 1925 3584 2291 3584 
Q 2894 3584 3203 3211 
Q 3513 2838 3513 2113 
z
" transform="scale(0.015625)"/>
      </defs>
      <use xlink:href="#DejaVuSans-45"/>
      <use xlink:href="#DejaVuSans-70" transform="translate(63.183594 0)"/>
      <use xlink:href="#DejaVuSans-6f" transform="translate(126.660156 0)"/>
      <use xlink:href="#DejaVuSans-63" transform="translate(187.841797 0)"/>
      <use xlink:href="#DejaVuSans-68" transform="translate(242.822266 0)"/>
     </g>
    </g>
   </g>
   <g id="matplotlib.axis_2">
    <g id="ytick_1">
     <g id="line2d_7">
      <path d="M 115.75 587.055335 
L 1045.755455 587.055335 
" clip-path="url(#p17f32d987c)" style="fill: none; stroke: #cccccc; stroke-opacity: 0.3; stroke-width: 1.5; stroke-linecap: round"/>
     </g>
     <g id="text_8">
      <!-- 0 -->
      <g style="fill: #262626" transform="translate(82.89 599.212835) scale(0.32 -0.32)">
       <use xlink:href="#DejaVuSans-30"/>
      </g>
     </g>
    </g>
    <g id="ytick_2">
     <g id="line2d_8">
      <path d="M 115.75 484.738363 
L 1045.755455 484.738363 
" clip-path="url(#p17f32d987c)" style="fill: none; stroke: #cccccc; stroke-opacity: 0.3; stroke-width: 1.5; stroke-linecap: round"/>
     </g>
     <g id="text_9">
      <!-- 20 -->
      <g style="fill: #262626" transform="translate(62.53 496.895863) scale(0.32 -0.32)">
       <use xlink:href="#DejaVuSans-32"/>
       <use xlink:href="#DejaVuSans-30" transform="translate(63.623047 0)"/>
      </g>
     </g>
    </g>
    <g id="ytick_3">
     <g id="line2d_9">
      <path d="M 115.75 382.421391 
L 1045.755455 382.421391 
" clip-path="url(#p17f32d987c)" style="fill: none; stroke: #cccccc; stroke-opacity: 0.3; stroke-width: 1.5; stroke-linecap: round"/>
     </g>
     <g id="text_10">
      <!-- 40 -->
      <g style="fill: #262626" transform="translate(62.53 394.578891) scale(0.32 -0.32)">
       <use xlink:href="#DejaVuSans-34"/>
       <use xlink:href="#DejaVuSans-30" transform="translate(63.623047 0)"/>
      </g>
     </g>
    </g>
    <g id="ytick_4">
     <g id="line2d_10">
      <path d="M 115.75 280.104419 
L 1045.755455 280.104419 
" clip-path="url(#p17f32d987c)" style="fill: none; stroke: #cccccc; stroke-opacity: 0.3; stroke-width: 1.5; stroke-linecap: round"/>
     </g>
     <g id="text_11">
      <!-- 60 -->
      <g style="fill: #262626" transform="translate(62.53 292.261919) scale(0.32 -0.32)">
       <use xlink:href="#DejaVuSans-36"/>
       <use xlink:href="#DejaVuSans-30" transform="translate(63.623047 0)"/>
      </g>
     </g>
    </g>
    <g id="ytick_5">
     <g id="line2d_11">
      <path d="M 115.75 177.787446 
L 1045.755455 177.787446 
" clip-path="url(#p17f32d987c)" style="fill: none; stroke: #cccccc; stroke-opacity: 0.3; stroke-width: 1.5; stroke-linecap: round"/>
     </g>
     <g id="text_12">
      <!-- 80 -->
      <g style="fill: #262626" transform="translate(62.53 189.944946) scale(0.32 -0.32)">
       <use xlink:href="#DejaVuSans-38"/>
       <use xlink:href="#DejaVuSans-30" transform="translate(63.623047 0)"/>
      </g>
     </g>
    </g>
    <g id="ytick_6">
     <g id="line2d_12">
      <path d="M 115.75 75.470474 
L 1045.755455 75.470474 
" clip-path="url(#p17f32d987c)" style="fill: none; stroke: #cccccc; stroke-opacity: 0.3; stroke-width: 1.5; stroke-linecap: round"/>
     </g>
     <g id="text_13">
      <!-- 100 -->
      <g style="fill: #262626" transform="translate(42.17 87.627974) scale(0.32 -0.32)">
       <use xlink:href="#DejaVuSans-31"/>
       <use xlink:href="#DejaVuSans-30" transform="translate(63.623047 0)"/>
       <use xlink:href="#DejaVuSans-30" transform="translate(127.246094 0)"/>
      </g>
     </g>
    </g>
    <g id="text_14">
     <!-- Accuracy (%) -->
     <g style="fill: #262626" transform="translate(31.515 438.046875) rotate(-90) scale(0.32 -0.32)">
      <defs>
       <path id="DejaVuSans-41" d="M 2188 4044 
L 1331 1722 
L 3047 1722 
L 2188 4044 
z
M 1831 4666 
L 2547 4666 
L 4325 0 
L 3669 0 
L 3244 1197 
L 1141 1197 
L 716 0 
L 50 0 
L 1831 4666 
z
" transform="scale(0.015625)"/>
       <path id="DejaVuSans-75" d="M 544 1381 
L 544 3500 
L 1119 3500 
L 1119 1403 
Q 1119 906 1312 657 
Q 1506 409 1894 409 
Q 2359 409 2629 706 
Q 2900 1003 2900 1516 
L 2900 3500 
L 3475 3500 
L 3475 0 
L 2900 0 
L 2900 538 
Q 2691 219 2414 64 
Q 2138 -91 1772 -91 
Q 1169 -91 856 284 
Q 544 659 544 1381 
z
M 1991 3584 
L 1991 3584 
z
" transform="scale(0.015625)"/>
       <path id="DejaVuSans-72" d="M 2631 2963 
Q 2534 3019 2420 3045 
Q 2306 3072 2169 3072 
Q 1681 3072 1420 2755 
Q 1159 2438 1159 1844 
L 1159 0 
L 581 0 
L 581 3500 
L 1159 3500 
L 1159 2956 
Q 1341 3275 1631 3429 
Q 1922 3584 2338 3584 
Q 2397 3584 2469 3576 
Q 2541 3569 2628 3553 
L 2631 2963 
z
" transform="scale(0.015625)"/>
       <path id="DejaVuSans-61" d="M 2194 1759 
Q 1497 1759 1228 1600 
Q 959 1441 959 1056 
Q 959 750 1161 570 
Q 1363 391 1709 391 
Q 2188 391 2477 730 
Q 2766 1069 2766 1631 
L 2766 1759 
L 2194 1759 
z
M 3341 1997 
L 3341 0 
L 2766 0 
L 2766 531 
Q 2569 213 2275 61 
Q 1981 -91 1556 -91 
Q 1019 -91 701 211 
Q 384 513 384 1019 
Q 384 1609 779 1909 
Q 1175 2209 1959 2209 
L 2766 2209 
L 2766 2266 
Q 2766 2663 2505 2880 
Q 2244 3097 1772 3097 
Q 1472 3097 1187 3025 
Q 903 2953 641 2809 
L 641 3341 
Q 956 3463 1253 3523 
Q 1550 3584 1831 3584 
Q 2591 3584 2966 3190 
Q 3341 2797 3341 1997 
z
" transform="scale(0.015625)"/>
       <path id="DejaVuSans-79" d="M 2059 -325 
Q 1816 -950 1584 -1140 
Q 1353 -1331 966 -1331 
L 506 -1331 
L 506 -850 
L 844 -850 
Q 1081 -850 1212 -737 
Q 1344 -625 1503 -206 
L 1606 56 
L 191 3500 
L 800 3500 
L 1894 763 
L 2988 3500 
L 3597 3500 
L 2059 -325 
z
" transform="scale(0.015625)"/>
       <path id="DejaVuSans-20" transform="scale(0.015625)"/>
       <path id="DejaVuSans-28" d="M 1984 4856 
Q 1566 4138 1362 3434 
Q 1159 2731 1159 2009 
Q 1159 1288 1364 580 
Q 1569 -128 1984 -844 
L 1484 -844 
Q 1016 -109 783 600 
Q 550 1309 550 2009 
Q 550 2706 781 3412 
Q 1013 4119 1484 4856 
L 1984 4856 
z
" transform="scale(0.015625)"/>
       <path id="DejaVuSans-25" d="M 4653 2053 
Q 4381 2053 4226 1822 
Q 4072 1591 4072 1178 
Q 4072 772 4226 539 
Q 4381 306 4653 306 
Q 4919 306 5073 539 
Q 5228 772 5228 1178 
Q 5228 1588 5073 1820 
Q 4919 2053 4653 2053 
z
M 4653 2450 
Q 5147 2450 5437 2106 
Q 5728 1763 5728 1178 
Q 5728 594 5436 251 
Q 5144 -91 4653 -91 
Q 4153 -91 3862 251 
Q 3572 594 3572 1178 
Q 3572 1766 3864 2108 
Q 4156 2450 4653 2450 
z
M 1428 4353 
Q 1159 4353 1004 4120 
Q 850 3888 850 3481 
Q 850 3069 1003 2837 
Q 1156 2606 1428 2606 
Q 1700 2606 1854 2837 
Q 2009 3069 2009 3481 
Q 2009 3884 1853 4118 
Q 1697 4353 1428 4353 
z
M 4250 4750 
L 4750 4750 
L 1831 -91 
L 1331 -91 
L 4250 4750 
z
M 1428 4750 
Q 1922 4750 2215 4408 
Q 2509 4066 2509 3481 
Q 2509 2891 2217 2550 
Q 1925 2209 1428 2209 
Q 931 2209 642 2551 
Q 353 2894 353 3481 
Q 353 4063 643 4406 
Q 934 4750 1428 4750 
z
" transform="scale(0.015625)"/>
       <path id="DejaVuSans-29" d="M 513 4856 
L 1013 4856 
Q 1481 4119 1714 3412 
Q 1947 2706 1947 2009 
Q 1947 1309 1714 600 
Q 1481 -109 1013 -844 
L 513 -844 
Q 928 -128 1133 580 
Q 1338 1288 1338 2009 
Q 1338 2731 1133 3434 
Q 928 4138 513 4856 
z
" transform="scale(0.015625)"/>
      </defs>
      <use xlink:href="#DejaVuSans-41"/>
      <use xlink:href="#DejaVuSans-63" transform="translate(66.658203 0)"/>
      <use xlink:href="#DejaVuSans-63" transform="translate(121.638672 0)"/>
      <use xlink:href="#DejaVuSans-75" transform="translate(176.619141 0)"/>
      <use xlink:href="#DejaVuSans-72" transform="translate(239.998047 0)"/>
      <use xlink:href="#DejaVuSans-61" transform="translate(281.111328 0)"/>
      <use xlink:href="#DejaVuSans-63" transform="translate(342.390625 0)"/>
      <use xlink:href="#DejaVuSans-79" transform="translate(397.371094 0)"/>
      <use xlink:href="#DejaVuSans-20" transform="translate(456.550781 0)"/>
      <use xlink:href="#DejaVuSans-28" transform="translate(488.337891 0)"/>
      <use xlink:href="#DejaVuSans-25" transform="translate(527.351562 0)"/>
      <use xlink:href="#DejaVuSans-29" transform="translate(622.371094 0)"/>
     </g>
    </g>
   </g>
   <g id="FillBetweenPolyCollection_1"/>
   <g id="FillBetweenPolyCollection_2"/>
   <g id="line2d_13">
    <path d="M 158.022975 581.926665 
L 158.869281 582.647885 
L 159.715587 582.167072 
L 160.561893 579.36233 
L 161.408198 579.36233 
L 162.254504 578.961653 
L 163.10081 575.355556 
L 163.947116 575.035015 
L 164.793422 572.47068 
L 165.639727 570.627563 
L 166.486033 558.767513 
L 167.332339 556.844263 
L 168.178645 546.346514 
L 169.024951 541.137709 
L 169.871257 533.124162 
L 170.717562 529.117388 
L 171.563868 527.835222 
L 172.410174 521.023706 
L 173.25648 516.776527 
L 174.949091 503.714441 
L 175.795397 506.278782 
L 176.641703 492.735885 
L 177.488009 490.812633 
L 178.334315 482.959356 
L 179.18062 485.363419 
L 180.026926 478.231366 
L 180.873232 475.827296 
L 181.719538 470.458224 
L 182.565844 473.343098 
L 183.41215 477.269737 
L 185.104761 453.549643 
L 185.951067 460.120742 
L 186.797373 458.357768 
L 187.643679 454.671535 
L 188.489984 444.734729 
L 189.33629 444.093648 
L 190.182596 438.564306 
L 191.028902 436.0801 
L 191.875208 439.525928 
L 192.721513 435.519154 
L 193.567819 429.909677 
L 194.414125 428.146688 
L 195.260431 430.310353 
L 196.106737 419.411924 
L 196.953042 422.937887 
L 197.799348 411.959323 
L 198.645654 405.067669 
L 199.49196 410.837431 
L 200.338266 400.820489 
L 201.184572 410.757296 
L 202.030877 398.81711 
L 202.877183 404.346452 
L 203.723489 396.25277 
L 204.569795 382.38934 
L 205.416101 392.486401 
L 206.262406 384.392719 
L 207.108712 391.765185 
L 207.955018 393.688444 
L 208.801324 383.911908 
L 209.64763 386.556384 
L 210.493935 378.462701 
L 211.340241 368.365625 
L 212.186547 375.657955 
L 213.032853 358.108293 
L 213.879159 354.58233 
L 214.725464 361.954796 
L 215.57177 352.33853 
L 216.418076 351.216638 
L 217.264382 351.296773 
L 218.110688 348.171486 
L 218.956994 350.575556 
L 219.803299 321.245978 
L 220.649605 335.349814 
L 221.495911 341.680522 
L 222.342217 333.186149 
L 223.188523 332.625203 
L 224.034828 339.997668 
L 224.881134 340.718885 
L 225.72744 341.600387 
L 226.573746 319.242569 
L 227.420052 316.998784 
L 228.266357 313.793377 
L 229.112663 313.633107 
L 229.958969 319.162433 
L 230.805275 319.002163 
L 231.651581 313.232431 
L 232.497886 326.534899 
L 233.344192 315.716621 
L 234.190498 301.051825 
L 235.036804 309.385913 
L 235.88311 310.507805 
L 236.729416 304.657938 
L 237.575721 296.32385 
L 238.422027 308.023615 
L 239.268333 323.008952 
L 240.114639 298.888175 
L 240.960945 295.041657 
L 241.80725 294.881386 
L 242.653556 292.637602 
L 243.499862 285.345271 
L 244.346168 284.704189 
L 245.192474 273.08456 
L 246.038779 268.196284 
L 246.885085 277.331724 
L 247.731391 274.767398 
L 248.577697 272.844154 
L 249.424003 272.443478 
L 250.270308 281.098107 
L 251.116614 277.491994 
L 251.96292 267.314797 
L 252.809226 273.164695 
L 253.655532 256.656789 
L 254.501838 293.919764 
L 255.348143 288.230167 
L 256.194449 259.30125 
L 257.040755 253.371217 
L 257.887061 255.855438 
L 258.733367 255.454762 
L 259.579672 265.872364 
L 260.425978 262.186116 
L 261.272284 280.937837 
L 262.11859 270.039393 
L 263.811201 264.670337 
L 264.657507 248.723377 
L 265.503813 243.754966 
L 266.350119 249.284323 
L 267.196425 235.020203 
L 268.04273 242.793344 
L 268.889036 231.814796 
L 269.735342 241.110506 
L 270.581648 256.576654 
L 271.427954 240.389289 
L 272.27426 233.177094 
L 273.120565 228.449088 
L 273.966871 225.003276 
L 274.813177 234.699662 
L 275.659483 261.545035 
L 276.505789 251.848649 
L 277.352094 224.201924 
L 278.1984 227.08679 
L 279.044706 229.25044 
L 279.891012 225.564222 
L 280.737318 238.065339 
L 281.583623 244.876859 
L 283.276235 215.467161 
L 284.122541 217.791081 
L 284.968847 206.091285 
L 285.815153 235.340743 
L 286.661458 249.444594 
L 287.507764 235.260608 
L 288.35407 237.263987 
L 290.046682 213.303481 
L 290.892987 210.338479 
L 291.739293 196.635305 
L 292.585599 214.425373 
L 293.431905 226.525844 
L 294.278211 223.080002 
L 295.124516 209.937804 
L 295.970822 257.217735 
L 296.817128 254.252704 
L 297.663434 226.686115 
L 298.50974 205.450204 
L 299.356045 200.962634 
L 300.202351 205.931015 
L 301.048657 209.136452 
L 301.894963 204.408447 
L 302.741269 219.153378 
L 303.587575 210.899426 
L 304.43388 229.891521 
L 305.280186 205.610474 
L 306.126492 207.133042 
L 306.972798 209.617263 
L 307.819104 195.994223 
L 308.665409 210.739155 
L 309.511715 228.929899 
L 310.358021 196.795575 
L 311.204327 196.55517 
L 312.050633 191.90733 
L 312.896938 203.607095 
L 313.743244 201.20304 
L 314.58955 200.241418 
L 315.435856 195.032601 
L 316.282162 207.213177 
L 317.128467 203.286554 
L 317.974773 212.742535 
L 318.821079 215.30686 
L 319.667385 200.561959 
L 320.513691 199.03936 
L 321.359997 205.209798 
L 322.206302 201.603716 
L 323.052608 185.736892 
L 323.898914 179.486318 
L 324.74522 200.561959 
L 325.591526 196.154494 
L 326.437831 189.423109 
L 327.284137 187.41973 
L 328.130443 181.489697 
L 328.976749 199.600337 
L 329.823055 186.057432 
L 330.66936 185.977297 
L 331.515666 200.321553 
L 332.361972 234.379121 
L 333.208278 197.196251 
L 334.054584 185.656756 
L 334.900889 177.082263 
L 335.747195 174.918583 
L 336.593501 174.517907 
L 337.439807 216.108242 
L 338.286113 223.400573 
L 339.132419 223.881384 
L 339.978724 188.381352 
L 340.82503 162.337331 
L 341.671336 164.500981 
L 342.517642 168.748175 
L 343.363948 192.308006 
L 344.210253 205.690609 
L 345.056559 181.089021 
L 345.902865 173.716555 
L 346.749171 178.043885 
L 347.595477 185.977297 
L 348.441782 166.103684 
L 349.288088 170.751554 
L 350.134394 206.01115 
L 350.9807 194.070979 
L 351.827006 167.866688 
L 352.673311 167.305712 
L 353.519617 168.50777 
L 354.365923 169.469392 
L 355.212229 198.157873 
L 356.058535 230.853143 
L 356.904841 209.216587 
L 357.751146 195.513412 
L 358.597452 174.437772 
L 359.443758 174.437772 
L 360.290064 153.522432 
L 361.13637 156.407298 
L 361.982675 183.092401 
L 362.828981 215.627431 
L 363.675287 189.74365 
L 364.521593 233.337364 
L 365.367899 245.35767 
L 366.214204 221.236893 
L 367.06051 186.538243 
L 367.906816 159.372299 
L 368.753122 151.999864 
L 369.599428 157.529191 
L 370.445734 155.525811 
L 371.292039 149.515643 
L 372.138345 159.612735 
L 372.984651 175.399424 
L 373.830957 162.577737 
L 374.677263 159.292164 
L 375.523568 170.591284 
L 376.369874 178.204155 
L 377.21618 174.117231 
L 378.062486 167.385847 
L 378.908792 158.651083 
L 379.755097 207.052907 
L 380.601403 225.243682 
L 381.447709 171.15223 
L 382.294015 156.647704 
L 383.140321 148.634156 
L 383.986626 151.278617 
L 384.832932 143.26507 
L 385.679238 143.986317 
L 386.525544 136.052905 
L 387.37185 143.665776 
L 388.218156 254.012298 
L 389.064461 261.464899 
L 389.910767 185.256081 
L 390.757073 152.24027 
L 391.603379 134.530306 
L 392.449685 139.819258 
L 394.142296 146.791048 
L 394.988602 149.595779 
L 395.834908 159.212029 
L 396.681214 141.902772 
L 397.527519 173.716555 
L 398.373825 230.131927 
L 399.220131 231.173684 
L 400.066437 185.736892 
L 400.912743 161.135304 
L 401.759048 145.989696 
L 402.605354 136.453581 
L 403.45166 139.498717 
L 404.297966 144.867804 
L 405.144272 141.822637 
L 405.990578 132.526927 
L 406.836883 152.40054 
L 407.683189 196.154494 
L 409.375801 170.110473 
L 410.222107 150.557401 
L 411.068412 137.976149 
L 411.914718 129.561926 
L 412.761024 136.213175 
L 413.60733 203.52696 
L 414.453636 232.135337 
L 415.299941 211.460372 
L 416.146247 171.713176 
L 416.992553 152.881351 
L 417.838859 131.565305 
L 418.685165 138.216554 
L 419.53147 150.23686 
L 420.377776 134.289901 
L 421.224082 123.231217 
L 422.070388 135.411793 
L 422.916694 166.34409 
L 423.763 282.38027 
L 424.609305 243.514561 
L 425.455611 191.666924 
L 426.301917 158.971624 
L 427.148223 145.989696 
L 427.994529 128.440033 
L 428.840834 130.122872 
L 429.68714 135.411793 
L 430.533446 134.12963 
L 431.379752 130.443412 
L 432.226058 162.096926 
L 433.072363 225.083411 
L 433.918669 194.712061 
L 434.764975 156.888109 
L 435.611281 137.896014 
L 436.457587 135.732364 
L 437.303892 136.934392 
L 438.150198 149.275238 
L 438.996504 145.108209 
L 439.84281 133.889225 
L 440.689116 140.380204 
L 441.535422 130.924223 
L 442.381727 169.469392 
L 443.228033 199.600337 
L 444.074339 174.758313 
L 444.920645 141.341826 
L 445.766951 141.261691 
L 446.613256 154.003243 
L 448.305868 170.99196 
L 449.152174 139.418582 
L 449.99848 140.94115 
L 450.844785 141.582231 
L 451.691091 225.403952 
L 452.537397 165.462603 
L 453.383703 148.233481 
L 454.230009 141.902772 
L 455.076314 126.116083 
L 455.92262 130.203007 
L 456.768926 142.784259 
L 457.615232 142.944529 
L 458.461538 136.29331 
L 459.307844 142.784259 
L 460.154149 147.191723 
L 461.000455 225.403952 
L 461.846761 235.100338 
L 463.539373 144.066452 
L 464.385678 121.307973 
L 465.231984 114.656723 
L 466.07829 119.304563 
L 466.924596 122.750406 
L 467.770902 116.099156 
L 468.617207 131.48517 
L 469.463513 131.64544 
L 470.309819 194.792196 
L 471.156125 238.466015 
L 472.002431 230.612738 
L 472.848737 158.250407 
L 473.695042 125.875677 
L 474.541348 116.900508 
L 475.387654 114.897129 
L 476.23396 112.332804 
L 477.080266 118.903887 
L 477.926571 122.109325 
L 478.772877 123.631893 
L 479.619183 131.244764 
L 480.465489 134.209765 
L 481.311795 139.017906 
L 482.1581 299.529256 
L 483.004406 208.815911 
L 483.850712 158.490813 
L 484.697018 133.96936 
L 485.543324 122.670271 
L 486.389629 115.698481 
L 487.235935 125.715407 
L 488.082241 125.555137 
L 488.928547 115.057399 
L 491.467464 148.954697 
L 492.31377 190.785407 
L 493.160076 215.867837 
L 494.006382 194.070979 
L 494.852688 153.602567 
L 495.698993 138.136419 
L 497.391605 120.02581 
L 498.237911 130.523548 
L 499.084217 127.478411 
L 499.930522 122.109325 
L 500.776828 134.850847 
L 501.623134 140.94115 
L 502.46944 135.011117 
L 503.315746 140.861015 
L 504.162051 140.139798 
L 505.008357 239.107096 
L 505.854663 241.270776 
L 506.700969 178.765101 
L 507.547275 128.760574 
L 508.393581 111.932128 
L 509.239886 111.531452 
L 510.086192 110.329394 
L 511.778804 117.301184 
L 512.62511 160.093546 
L 513.471415 151.679323 
L 514.317721 132.206386 
L 515.164027 159.051759 
L 516.010333 169.549527 
L 517.702944 121.307973 
L 518.54925 151.599188 
L 519.395556 191.987465 
L 520.241862 251.848649 
L 521.934473 150.958076 
L 522.780779 126.196218 
L 523.627085 114.416318 
L 524.473391 105.761689 
L 525.319697 101.915171 
L 526.166003 104.800067 
L 527.012308 114.416318 
L 527.858614 133.889225 
L 528.70492 214.425373 
L 529.551226 245.598075 
L 530.397532 196.795575 
L 532.090143 120.346351 
L 532.936449 115.057399 
L 533.782755 116.499832 
L 534.629061 112.412939 
L 535.475366 105.521284 
L 536.321672 105.841825 
L 537.167978 108.165744 
L 538.014284 119.785405 
L 538.86059 120.346351 
L 539.706895 133.80909 
L 541.399507 237.664663 
L 542.245813 195.433277 
L 543.092119 147.592399 
L 543.938425 117.54159 
L 545.631036 101.193954 
L 547.323648 109.367772 
L 548.169954 104.719932 
L 549.016259 108.886961 
L 549.862565 161.616115 
L 550.708871 151.839594 
L 551.555177 152.480675 
L 552.401483 140.94115 
L 553.247788 121.388108 
L 554.094094 121.147703 
L 554.9404 147.351994 
L 555.786706 169.789932 
L 556.633012 214.425373 
L 557.479317 166.183819 
L 558.325623 125.875677 
L 559.171929 102.956928 
L 560.018235 107.524663 
L 560.864541 106.723311 
L 561.710847 109.367772 
L 562.557152 120.266216 
L 563.403458 158.170272 
L 564.249764 177.482939 
L 565.09607 163.138683 
L 565.942376 139.658987 
L 566.788681 128.520168 
L 567.634987 114.015642 
L 568.481293 115.297805 
L 569.327599 117.221049 
L 570.173905 256.656789 
L 571.02021 219.393784 
L 571.866516 166.34409 
L 572.712822 122.109325 
L 573.559128 104.719932 
L 574.405434 105.92196 
L 575.25174 107.765069 
L 576.098045 119.224428 
L 576.944351 113.21429 
L 577.790657 104.559662 
L 578.636963 109.207502 
L 579.483269 110.008853 
L 581.17588 187.58 
L 582.022186 186.618378 
L 582.868492 223.080002 
L 583.714798 179.726723 
L 584.561103 144.226722 
L 585.407409 122.670271 
L 586.253715 109.928718 
L 587.100021 102.716523 
L 587.946327 100.713143 
L 588.792632 101.59463 
L 590.485244 120.426486 
L 591.33155 126.677029 
L 592.177856 184.054053 
L 593.024162 210.578885 
L 593.870467 219.634189 
L 594.716773 158.570948 
L 595.563079 123.311352 
L 596.409385 109.447907 
L 597.255691 105.361014 
L 598.101996 101.995306 
L 598.948302 106.08223 
L 599.794608 104.960338 
L 600.640914 111.451317 
L 601.48722 108.56642 
L 602.333525 116.179292 
L 603.179831 158.891488 
L 604.026137 262.346386 
L 605.718749 177.883615 
L 607.41136 132.927603 
L 608.257666 113.05402 
L 609.950278 99.11044 
L 610.796584 102.556252 
L 611.642889 104.800067 
L 612.489195 105.200743 
L 613.335501 152.24027 
L 614.181807 248.883648 
L 615.028113 246.239157 
L 615.874418 175.399424 
L 616.720724 130.924223 
L 618.413336 96.385844 
L 619.259642 98.549494 
L 620.105947 104.399392 
L 620.952253 95.183786 
L 621.798559 95.263921 
L 622.644865 116.019021 
L 623.491171 200.241418 
L 624.337476 253.611622 
L 626.030088 129.561926 
L 626.876394 106.002095 
L 627.7227 101.113819 
L 628.569006 102.315847 
L 629.415311 104.479527 
L 630.261617 103.59804 
L 631.954229 116.499832 
L 632.800535 107.444528 
L 633.64684 120.586756 
L 634.493146 137.815878 
L 635.339452 214.104832 
L 636.185758 164.661251 
L 637.032064 137.655608 
L 637.878369 125.154461 
L 638.724675 106.723311 
L 639.570981 99.991927 
L 640.417287 95.985168 
L 641.263593 95.664628 
L 642.109898 97.828277 
L 642.956204 104.960338 
L 643.80251 101.27409 
L 644.648816 216.188377 
L 645.495122 160.414087 
L 647.187733 115.057399 
L 648.034039 110.73007 
L 648.880345 98.95017 
L 649.726651 100.312467 
L 650.572957 108.56642 
L 651.419262 110.569799 
L 652.265568 129.081115 
L 653.111874 180.528075 
L 653.95818 184.93554 
L 654.804486 128.039357 
L 655.650791 104.800067 
L 656.497097 100.953549 
L 657.343403 93.981759 
L 658.189709 100.873414 
L 659.036015 100.152197 
L 659.882321 95.744763 
L 660.728626 97.187196 
L 661.574932 103.437739 
L 662.421238 229.490846 
L 663.267544 174.197366 
L 664.11385 132.767332 
L 664.960155 117.54159 
L 665.806461 110.649935 
L 666.652767 105.120608 
L 667.499073 98.629629 
L 668.345379 95.744763 
L 669.191684 124.032569 
L 670.03799 156.888109 
L 670.884296 150.39713 
L 671.730602 164.981792 
L 672.576908 136.934392 
L 673.423213 116.579967 
L 674.269519 100.072062 
L 675.115825 92.218785 
L 675.962131 93.500948 
L 676.808437 87.570945 
L 677.654743 104.158986 
L 678.501048 270.279798 
L 679.347354 215.066454 
L 680.19366 145.348615 
L 681.039966 114.256048 
L 681.886272 97.507737 
L 682.732577 91.97838 
L 683.578883 90.215406 
L 684.425189 89.093514 
L 685.271495 90.535947 
L 686.117801 88.933243 
L 686.964106 90.215406 
L 687.810412 109.287637 
L 688.656718 106.322636 
L 689.503024 98.789899 
L 690.34933 118.903887 
L 691.195635 272.363343 
L 692.041941 194.151115 
L 692.888247 126.276353 
L 693.734553 101.59463 
L 694.580859 92.218785 
L 695.427165 88.372297 
L 696.27347 87.731216 
L 697.119776 89.494189 
L 697.966082 95.183786 
L 698.812388 103.437739 
L 699.658694 107.524663 
L 700.504999 103.678175 
L 701.351305 200.802364 
L 702.197611 209.697398 
L 703.043917 195.914088 
L 703.890223 149.916319 
L 704.736528 111.05061 
L 705.582834 93.420813 
L 706.42914 93.581083 
L 707.275446 96.465979 
L 708.121752 94.542705 
L 708.968057 91.818109 
L 709.814363 104.399392 
L 710.660669 105.120608 
L 711.506975 96.305709 
L 712.353281 106.402771 
L 713.199587 122.750406 
L 714.045892 128.760574 
L 714.892198 150.156725 
L 715.738504 176.040506 
L 716.58481 157.849731 
L 717.431116 121.708649 
L 718.277421 99.030305 
L 719.123727 92.779731 
L 719.970033 94.863246 
L 720.816339 93.180407 
L 721.662645 96.385844 
L 722.50895 117.781995 
L 723.355256 143.024664 
L 724.201562 142.463718 
L 725.047868 147.432129 
L 725.894174 188.461487 
L 726.740479 170.751554 
L 727.586785 132.366656 
L 728.433091 102.716523 
L 729.279397 87.250374 
L 730.125703 84.686049 
L 730.972009 90.535947 
L 731.818314 129.000979 
L 732.66462 121.388108 
L 733.510926 155.846352 
L 734.357232 127.879087 
L 735.203538 103.678175 
L 736.896149 93.661218 
L 737.742455 94.943381 
L 738.588761 156.247028 
L 739.435067 243.514561 
L 740.281372 185.256081 
L 741.127678 118.823752 
L 741.973984 97.507737 
L 742.82029 90.455811 
L 743.666596 89.093514 
L 744.512901 88.131892 
L 745.359207 88.612703 
L 746.205513 90.616082 
L 747.051819 88.051756 
L 747.898125 98.549494 
L 748.744431 106.482906 
L 749.590736 129.642061 
L 750.437042 200.802364 
L 751.283348 196.475034 
L 752.129654 140.460339 
L 752.97596 108.24588 
L 753.822265 90.295541 
L 754.668571 86.689428 
L 755.514877 86.208617 
L 756.361183 84.926454 
L 757.207489 87.570945 
L 758.053794 93.420813 
L 758.9001 125.715407 
L 759.746406 128.119493 
L 760.592712 127.879087 
L 761.439018 135.331658 
L 762.285324 152.801216 
L 763.131629 211.139831 
L 763.977935 146.149966 
L 764.824241 111.611587 
L 765.670547 100.873414 
L 766.516853 95.103651 
L 767.363158 90.455811 
L 768.209464 88.853108 
L 769.05577 92.619461 
L 769.902076 95.103651 
L 770.748382 99.350845 
L 771.594687 100.072062 
L 772.440993 234.298986 
L 773.287299 218.993108 
L 774.133605 158.010002 
L 775.826216 104.639797 
L 776.672522 87.090104 
L 777.518828 85.32713 
L 778.365134 82.522399 
L 779.21144 82.281994 
L 780.057746 81.640912 
L 780.904051 84.525778 
L 781.750357 88.372297 
L 782.596663 105.92196 
L 783.442969 101.514495 
L 784.289275 189.58338 
L 785.13558 220.195136 
L 786.828192 133.408414 
L 788.520804 91.818109 
L 789.367109 86.609293 
L 790.213415 83.083345 
L 791.059721 83.163481 
L 791.906027 82.84294 
L 792.752333 86.769563 
L 793.598638 117.70186 
L 794.444944 168.587905 
L 795.29125 226.605979 
L 796.137556 184.77527 
L 796.983862 135.491959 
L 797.830168 105.92196 
L 798.676473 94.222164 
L 799.522779 86.689428 
L 800.369085 82.041588 
L 801.215391 84.605914 
L 802.061697 83.323751 
L 803.754308 108.56642 
L 804.600614 123.712028 
L 805.44692 107.524663 
L 806.293226 112.412939 
L 807.139531 196.87571 
L 807.985837 191.987465 
L 808.832143 126.516759 
L 809.678449 96.94679 
L 810.524755 87.330509 
L 811.37106 86.769563 
L 812.217366 85.086725 
L 813.063672 89.333919 
L 813.909978 91.177028 
L 814.756284 93.821488 
L 815.60259 110.970475 
L 816.448895 125.795542 
L 817.295201 125.314731 
L 818.141507 120.02581 
L 818.987813 160.253817 
L 819.834119 225.724493 
L 820.680424 165.462603 
L 821.52673 120.827162 
L 822.373036 106.402771 
L 823.219342 89.333919 
L 824.065648 82.68267 
L 824.911953 81.320372 
L 825.758259 82.442264 
L 826.604565 81.881318 
L 827.450871 84.205238 
L 828.297177 84.285373 
L 829.143482 112.813615 
L 829.989788 116.419697 
L 830.836094 207.373478 
L 831.6824 215.467161 
L 832.528706 157.929866 
L 833.375012 116.179292 
L 834.221317 100.472738 
L 835.067623 88.772973 
L 835.913929 86.288752 
L 836.760235 88.452432 
L 838.452846 86.128482 
L 839.299152 83.644292 
L 840.145458 83.964832 
L 840.991764 102.556252 
L 841.83807 246.399427 
L 842.684375 209.537128 
L 843.530681 204.969393 
L 844.376987 144.226722 
L 845.223293 101.995306 
L 846.069599 88.772973 
L 846.915904 86.048347 
L 847.76221 84.525778 
L 848.608516 84.926454 
L 849.454822 86.609293 
L 850.301128 86.929834 
L 851.147434 89.333919 
L 851.993739 89.093514 
L 852.840045 85.807941 
L 853.686351 90.455811 
L 854.532657 93.981759 
L 855.378963 194.070979 
L 856.225268 228.929899 
L 857.071574 144.947939 
L 857.91788 104.158986 
L 858.764186 91.016758 
L 859.610492 83.644292 
L 860.456797 81.480642 
L 861.303103 86.208617 
L 862.149409 83.323751 
L 862.995715 85.487401 
L 863.842021 89.734595 
L 864.688327 90.776352 
L 865.534632 94.702975 
L 866.380938 242.633074 
L 867.227244 210.098074 
L 868.07355 134.610441 
L 868.919856 102.235712 
L 869.766161 91.417433 
L 870.612467 89.494189 
L 871.458773 89.013378 
L 872.305079 92.779731 
L 873.151385 98.95017 
L 873.99769 96.145439 
L 874.843996 87.971621 
L 875.690302 88.532567 
L 876.536608 86.368887 
L 877.382914 88.452432 
L 878.229219 141.10142 
L 879.075525 219.714325 
L 879.921831 190.064191 
L 880.768137 139.178176 
L 881.614443 108.005474 
L 882.460749 91.337298 
L 884.15336 83.00321 
L 884.999666 82.522399 
L 885.845972 82.762805 
L 886.692278 82.602534 
L 887.538583 96.546115 
L 888.384889 92.779731 
L 889.231195 93.661218 
L 890.077501 157.449055 
L 890.923807 244.235777 
L 891.770112 179.165777 
L 892.616418 124.994191 
L 893.462724 93.821488 
L 894.30903 88.131892 
L 895.155336 84.285373 
L 896.001641 81.961453 
L 896.847947 81.640912 
L 897.694253 82.362129 
L 898.540559 80.599155 
L 899.386865 83.644292 
L 900.233171 88.051756 
L 901.079476 89.734595 
L 901.925782 94.863246 
L 902.772088 197.917468 
L 903.618394 223.080002 
L 904.4647 156.327163 
L 905.311005 116.019021 
L 906.157311 94.302299 
L 907.003617 84.926454 
L 907.849923 82.281994 
L 908.696229 81.240237 
L 909.542534 80.438885 
L 910.38884 80.759426 
L 911.235146 81.480642 
L 912.081452 87.170239 
L 912.927758 159.131894 
L 913.774063 210.65902 
L 914.620369 139.658987 
L 915.466675 103.517905 
L 916.312981 88.933243 
L 918.005593 84.125103 
L 918.851898 85.32713 
L 919.698204 85.16686 
L 920.54451 95.584493 
L 921.390816 92.539326 
L 922.237122 96.706385 
L 923.083427 140.78088 
L 923.929733 141.421961 
L 924.776039 188.060811 
L 925.622345 168.187229 
L 926.468651 128.840709 
L 927.314956 100.953549 
L 928.161262 86.048347 
L 929.007568 83.00321 
L 929.853874 83.724427 
L 930.70018 85.727806 
L 931.546485 84.365508 
L 932.392791 86.529158 
L 933.239097 97.988548 
L 934.085403 114.175912 
L 934.931709 100.552873 
L 935.778015 100.552873 
L 936.62432 192.868952 
L 937.470626 210.098074 
L 938.316932 150.877941 
L 939.163238 102.636387 
L 940.009544 85.246995 
L 940.855849 82.602534 
L 941.702155 82.762805 
L 942.548461 83.083345 
L 943.394767 81.079966 
L 944.241073 81.480642 
L 945.087378 84.846319 
L 945.933684 86.849698 
L 946.77999 89.574325 
L 947.626296 113.454696 
L 948.472602 301.532636 
L 949.318908 223.721113 
L 950.165213 131.885845 
L 951.011519 95.103651 
L 951.857825 83.00321 
L 952.704131 82.201859 
L 953.550437 82.041588 
L 954.396742 81.079966 
L 955.243048 80.51902 
L 956.089354 81.881318 
L 956.93566 82.68267 
L 957.781966 83.644292 
L 958.628271 82.121723 
L 959.474577 85.807941 
L 960.320883 113.294426 
L 961.167189 208.575506 
L 962.013495 177.402804 
L 962.8598 138.216554 
L 963.706106 106.162365 
L 964.552412 93.500948 
L 965.398718 87.410645 
L 966.245024 89.81473 
L 967.09133 84.285373 
L 967.937635 88.372297 
L 968.783941 93.260542 
L 969.630247 85.888076 
L 970.476553 86.368887 
L 971.322859 171.232365 
L 972.169164 230.853143 
L 973.861776 110.489664 
L 974.708082 92.29892 
L 975.554388 83.323751 
L 976.400693 80.919696 
L 977.246999 82.602534 
L 978.093305 89.253784 
L 978.939611 92.859866 
L 979.785917 88.692838 
L 980.632222 86.208617 
L 981.478528 96.94679 
L 982.324834 147.75267 
L 983.17114 123.391487 
L 984.017446 124.914055 
L 984.863752 189.503244 
L 986.556363 112.012263 
L 989.095281 84.926454 
L 989.941586 83.884697 
L 990.787892 80.759426 
L 991.634198 81.160101 
L 992.480504 87.570945 
L 993.32681 102.235712 
L 994.173115 130.042737 
L 995.019421 177.162398 
L 995.865727 176.441182 
L 996.712033 143.505506 
L 997.558339 123.952433 
L 998.404644 113.294426 
L 999.25095 118.423076 
L 1000.097256 105.92196 
L 1000.943562 90.295541 
L 1001.789868 82.84294 
L 1002.636174 83.964832 
L 1003.482479 101.915171 
L 1003.482479 101.915171 
" clip-path="url(#p17f32d987c)" style="fill: none; stroke: #4c72b0; stroke-width: 6; stroke-linecap: round"/>
   </g>
   <g id="line2d_14">
    <path d="M 158.022975 583.529927 
L 158.869281 584.651648 
L 159.715587 581.046116 
L 160.561893 582.328083 
L 161.408198 580.725624 
L 162.254504 580.084641 
L 163.10081 577.680953 
L 163.947116 579.844272 
L 164.793422 576.318864 
L 165.639727 565.181777 
L 166.486033 565.181777 
L 167.332339 559.49305 
L 168.178645 552.682601 
L 169.024951 534.174205 
L 169.871257 546.433015 
L 170.717562 542.907605 
L 171.563868 527.123389 
L 172.410174 523.998594 
L 173.25648 522.075648 
L 174.102786 499.080369 
L 174.949091 504.528722 
L 175.795397 506.852291 
L 176.641703 503.887739 
L 177.488009 494.593485 
L 178.334315 501.724425 
L 179.18062 489.705987 
L 180.026926 488.82463 
L 180.873232 478.649019 
L 181.719538 479.129761 
L 182.565844 480.091231 
L 183.41215 486.020326 
L 184.258455 463.105175 
L 185.104761 468.15292 
L 185.951067 457.496575 
L 186.797373 471.197592 
L 187.643679 469.675252 
L 188.489984 465.428736 
L 189.33629 458.377924 
L 190.182596 447.481203 
L 191.028902 456.695345 
L 191.875208 445.798624 
L 192.721513 453.089811 
L 193.567819 442.83408 
L 194.414125 441.071366 
L 195.260431 436.263987 
L 196.106737 444.837154 
L 196.953042 425.767897 
L 197.799348 420.159289 
L 198.645654 413.589211 
L 199.49196 423.284088 
L 200.338266 413.989826 
L 201.184572 414.951296 
L 202.030877 404.37507 
L 202.877183 406.137769 
L 203.723489 398.686342 
L 204.569795 414.951296 
L 205.416101 404.29495 
L 206.262406 414.310321 
L 207.108712 412.707862 
L 207.955018 390.75418 
L 208.801324 398.926717 
L 209.64763 405.737154 
L 210.493935 389.712575 
L 211.340241 387.068526 
L 212.186547 369.281233 
L 213.032853 382.822003 
L 213.879159 378.735734 
L 214.725464 392.116264 
L 215.57177 363.592505 
L 216.418076 378.495374 
L 217.264382 365.755819 
L 218.110688 349.330625 
L 218.956994 337.632675 
L 219.803299 357.823657 
L 220.649605 350.77283 
L 221.495911 353.176519 
L 222.342217 360.467706 
L 223.188523 369.040858 
L 224.034828 334.748251 
L 224.881134 361.429191 
L 225.72744 325.7745 
L 226.573746 328.578773 
L 227.420052 329.780618 
L 228.266357 323.85153 
L 229.112663 312.714449 
L 229.958969 330.822222 
L 230.805275 306.705226 
L 231.651581 317.041077 
L 232.497886 353.897629 
L 233.344192 321.207466 
L 234.190498 332.424682 
L 235.036804 286.434139 
L 235.88311 314.076534 
L 236.729416 296.689855 
L 237.575721 309.910145 
L 238.422027 309.50953 
L 239.268333 336.110335 
L 240.114639 323.290675 
L 240.960945 323.21054 
L 241.80725 312.634314 
L 242.653556 291.081247 
L 243.499862 316.079608 
L 245.192474 267.364866 
L 246.038779 291.241518 
L 246.885085 289.558923 
L 247.731391 286.113629 
L 248.577697 266.483532 
L 249.424003 296.529615 
L 250.270308 276.018153 
L 251.116614 310.471 
L 251.96292 281.706866 
L 252.809226 281.466521 
L 253.655532 274.976548 
L 254.501838 297.811595 
L 255.348143 298.933304 
L 256.194449 273.614464 
L 257.040755 302.218358 
L 257.887061 261.756258 
L 258.733367 286.514244 
L 259.579672 262.076769 
L 260.425978 281.065906 
L 261.272284 276.979623 
L 262.11859 271.13064 
L 262.964896 300.936379 
L 263.811201 272.41262 
L 264.657507 256.868775 
L 265.503813 264.320218 
L 266.350119 235.556084 
L 267.196425 264.640698 
L 268.04273 261.035164 
L 268.889036 249.978188 
L 269.735342 276.899488 
L 270.581648 228.825736 
L 271.427954 243.728621 
L 272.27426 253.022867 
L 273.120565 254.144607 
L 273.966871 236.757928 
L 274.813177 260.474309 
L 275.659483 294.606676 
L 276.505789 236.757928 
L 278.1984 227.944401 
L 279.044706 223.056888 
L 279.891012 257.029015 
L 280.737318 233.39277 
L 281.583623 248.455864 
L 282.429929 240.603806 
L 283.276235 215.284966 
L 284.122541 224.499108 
L 284.968847 218.40978 
L 285.815153 232.190925 
L 286.661458 257.75011 
L 288.35407 246.693164 
L 289.200376 212.721037 
L 290.046682 229.226351 
L 290.892987 209.596253 
L 291.739293 235.796428 
L 292.585599 250.699313 
L 293.431905 297.25071 
L 294.278211 210.477588 
L 295.124516 231.95055 
L 295.970822 296.048865 
L 296.817128 268.486606 
L 297.663434 204.86898 
L 298.50974 230.107716 
L 299.356045 201.023102 
L 300.202351 220.733334 
L 301.048657 191.408345 
L 301.894963 228.665496 
L 302.741269 209.996868 
L 303.587575 265.602167 
L 304.43388 218.009165 
L 305.280186 213.201787 
L 306.126492 235.876563 
L 306.972798 209.596253 
L 307.819104 235.155469 
L 308.665409 216.486811 
L 309.511715 203.587031 
L 310.358021 200.862862 
L 311.204327 208.474514 
L 312.050633 224.178628 
L 312.896938 215.284966 
L 313.743244 216.64705 
L 314.58955 192.12944 
L 315.435856 249.096853 
L 316.282162 237.879638 
L 317.128467 229.306486 
L 317.974773 243.648485 
L 318.821079 234.033729 
L 319.667385 205.34973 
L 320.513691 215.445206 
L 321.359997 211.599328 
L 322.206302 216.166331 
L 323.052608 194.533129 
L 323.898914 211.919807 
L 324.74522 235.155469 
L 325.591526 207.272669 
L 326.437831 207.272669 
L 327.284137 199.580882 
L 328.130443 195.013879 
L 328.976749 187.161822 
L 329.823055 174.662657 
L 331.515666 243.968996 
L 333.208278 193.09094 
L 334.054584 204.468365 
L 334.900889 197.898288 
L 335.747195 208.875128 
L 336.593501 190.847491 
L 337.439807 284.03045 
L 338.286113 239.962847 
L 339.132419 222.095418 
L 339.978724 172.659582 
L 340.82503 177.066346 
L 341.671336 170.015518 
L 342.517642 183.396048 
L 343.363948 203.506895 
L 345.056559 183.396048 
L 345.902865 197.177193 
L 346.749171 218.009165 
L 347.595477 173.380677 
L 348.441782 180.191129 
L 349.288088 215.445206 
L 350.134394 213.522267 
L 350.9807 171.377603 
L 351.827006 168.573299 
L 352.673311 182.514714 
L 353.519617 189.886021 
L 354.365923 183.075568 
L 355.212229 212.320422 
L 356.058535 233.633114 
L 356.904841 207.192564 
L 357.751146 193.892139 
L 358.597452 196.696443 
L 359.443758 174.662657 
L 360.290064 160.080282 
L 361.13637 193.892139 
L 361.982675 240.042952 
L 362.828981 229.066111 
L 363.675287 243.40811 
L 364.521593 211.999943 
L 365.367899 230.267955 
L 366.214204 225.380472 
L 367.906816 169.534799 
L 368.753122 158.557958 
L 369.599428 164.24667 
L 370.445734 149.023306 
L 371.292039 149.824536 
L 372.138345 191.568585 
L 372.984651 181.633349 
L 373.830957 163.76592 
L 374.677263 187.642572 
L 375.523568 187.161822 
L 376.369874 181.633349 
L 377.21618 177.867575 
L 378.062486 177.867575 
L 378.908792 175.303646 
L 379.755097 304.301537 
L 380.601403 213.442162 
L 381.447709 167.691964 
L 382.294015 151.266755 
L 383.140321 157.275978 
L 383.986626 157.676593 
L 384.832932 152.708975 
L 385.679238 149.904671 
L 386.525544 157.195843 
L 387.37185 148.061836 
L 388.218156 340.517099 
L 389.064461 224.178628 
L 389.910767 170.976988 
L 390.757073 146.459377 
L 391.603379 141.732134 
L 392.449685 144.776813 
L 393.29599 152.388465 
L 394.142296 162.564076 
L 394.988602 160.400762 
L 395.834908 146.379272 
L 396.681214 155.112664 
L 397.527519 205.269595 
L 398.373825 243.648485 
L 399.220131 214.243361 
L 400.066437 170.175758 
L 400.912743 166.970839 
L 401.759048 132.037242 
L 402.605354 147.661222 
L 403.45166 154.151194 
L 404.297966 150.625765 
L 405.144272 151.82761 
L 405.990578 133.559597 
L 406.836883 163.525576 
L 407.683189 176.425356 
L 408.529495 184.998508 
L 409.375801 179.470035 
L 410.222107 150.145046 
L 411.068412 152.78908 
L 411.914718 143.655073 
L 412.761024 149.343816 
L 413.60733 227.223276 
L 414.453636 200.542352 
L 415.299941 194.453024 
L 416.992553 137.48561 
L 417.838859 139.08807 
L 418.685165 172.499342 
L 419.53147 143.174354 
L 420.377776 143.014083 
L 421.224082 122.342381 
L 422.070388 146.619617 
L 422.916694 227.143172 
L 423.763 264.881073 
L 424.609305 210.557723 
L 425.455611 170.255893 
L 426.301917 161.602606 
L 427.148223 133.559597 
L 427.994529 133.399357 
L 428.840834 137.565746 
L 429.68714 142.853843 
L 430.533446 151.186651 
L 431.379752 138.1266 
L 432.226058 325.29375 
L 433.072363 207.833554 
L 433.918669 186.921447 
L 434.764975 145.898522 
L 435.611281 137.48561 
L 436.457587 140.850769 
L 437.303892 150.705901 
L 438.150198 154.311434 
L 438.996504 158.638062 
L 439.84281 166.890735 
L 440.689116 144.296063 
L 441.535422 190.52698 
L 442.381727 192.44995 
L 443.228033 185.399122 
L 444.074339 160.160417 
L 444.920645 145.738283 
L 445.766951 168.893809 
L 447.459562 197.177193 
L 448.305868 154.311434 
L 449.152174 142.373124 
L 449.99848 138.046465 
L 450.844785 277.860988 
L 451.691091 195.654869 
L 452.537397 145.177428 
L 453.383703 145.578043 
L 454.230009 138.1266 
L 455.076314 133.960212 
L 455.92262 134.440932 
L 456.768926 136.123526 
L 457.615232 154.071059 
L 459.307844 130.194438 
L 460.154149 164.807525 
L 461.000455 214.003017 
L 461.846761 218.24951 
L 463.539373 125.86778 
L 464.385678 125.5473 
L 465.231984 130.034199 
L 466.07829 123.544226 
L 466.924596 133.960212 
L 467.770902 117.615138 
L 469.463513 149.984806 
L 470.309819 233.39277 
L 471.156125 209.035399 
L 472.002431 223.858118 
L 472.848737 149.904671 
L 473.695042 120.419442 
L 474.541348 112.48725 
L 475.387654 122.102006 
L 476.23396 124.826206 
L 477.080266 121.380912 
L 477.926571 133.158982 
L 478.772877 125.70754 
L 479.619183 141.812269 
L 480.465489 138.76759 
L 481.311795 381.620158 
L 482.1581 264.400322 
L 483.004406 174.822896 
L 483.850712 147.340742 
L 484.697018 137.64585 
L 485.543324 126.108155 
L 486.389629 127.550374 
L 487.235935 135.722911 
L 488.082241 124.425591 
L 488.928547 127.550374 
L 489.774853 218.329645 
L 490.621159 150.465526 
L 491.467464 177.78744 
L 492.31377 199.420642 
L 493.160076 239.882712 
L 494.006382 175.223511 
L 495.698993 131.636658 
L 496.545299 147.901597 
L 497.391605 119.778452 
L 498.237911 149.584191 
L 499.084217 148.061836 
L 499.930522 136.604276 
L 500.776828 142.533364 
L 501.623134 155.112664 
L 502.46944 147.741357 
L 503.315746 137.886225 
L 504.162051 180.03089 
L 505.008357 274.896444 
L 505.854663 201.744196 
L 507.547275 117.454898 
L 508.393581 124.26532 
L 509.239886 114.24998 
L 510.086192 112.64752 
L 510.932498 119.538077 
L 511.778804 130.755293 
L 512.62511 176.825971 
L 513.471415 143.094218 
L 514.317721 213.762642 
L 515.164027 190.286636 
L 516.010333 170.976988 
L 516.856639 132.678232 
L 517.702944 127.14976 
L 518.54925 146.379272 
L 519.395556 302.298463 
L 520.241862 199.500747 
L 521.088168 171.377603 
L 521.934473 134.681307 
L 522.780779 124.185216 
L 523.627085 118.336233 
L 524.473391 110.083591 
L 525.319697 113.76923 
L 526.166003 110.564311 
L 527.012308 136.684381 
L 527.858614 153.75058 
L 528.70492 227.383547 
L 529.551226 217.92903 
L 530.397532 193.491524 
L 531.243837 138.92783 
L 532.090143 119.457973 
L 532.936449 127.069624 
L 533.782755 108.080517 
L 534.629061 116.253054 
L 535.475366 102.712254 
L 536.321672 108.160622 
L 537.167978 133.399357 
L 538.014284 130.995668 
L 538.86059 130.915533 
L 539.706895 146.940127 
L 540.553201 258.23086 
L 541.399507 247.574499 
L 542.245813 181.793589 
L 543.092119 134.761442 
L 543.938425 121.380912 
L 544.78473 101.350169 
L 545.631036 108.080517 
L 546.477342 116.894013 
L 547.323648 113.76923 
L 548.169954 114.890939 
L 549.016259 118.736848 
L 549.862565 171.137258 
L 550.708871 157.195843 
L 551.555177 152.4686 
L 552.401483 136.043391 
L 553.247788 133.479462 
L 554.094094 131.476388 
L 554.9404 155.833759 
L 555.786706 220.252584 
L 556.633012 192.28971 
L 557.479317 145.497908 
L 558.325623 111.285405 
L 559.171929 109.041986 
L 560.018235 108.881747 
L 560.864541 114.169844 
L 561.710847 118.656743 
L 562.557152 120.659817 
L 564.249764 191.889095 
L 565.09607 152.388465 
L 565.942376 125.5473 
L 566.788681 118.977223 
L 567.634987 126.98952 
L 568.481293 122.502621 
L 569.327599 192.690325 
L 570.173905 195.574734 
L 571.02021 217.1278 
L 571.866516 145.578043 
L 572.712822 110.964926 
L 573.559128 105.035838 
L 574.405434 113.929469 
L 575.25174 132.758367 
L 576.098045 140.450154 
L 576.944351 108.641372 
L 577.790657 122.021902 
L 578.636963 117.134388 
L 579.483269 122.342381 
L 580.329574 176.825971 
L 581.17588 184.437653 
L 582.022186 197.417568 
L 582.868492 202.705666 
L 583.714798 174.342146 
L 584.561103 123.063476 
L 585.407409 116.172919 
L 586.253715 114.490324 
L 587.100021 98.706135 
L 587.946327 107.199152 
L 588.792632 111.68602 
L 589.638938 133.239087 
L 590.485244 132.277617 
L 591.33155 157.195843 
L 592.177856 149.744431 
L 593.024162 304.221433 
L 593.870467 168.172684 
L 594.716773 142.132749 
L 595.563079 109.202226 
L 596.409385 109.843216 
L 597.255691 103.833993 
L 598.101996 115.692169 
L 598.948302 109.923321 
L 599.794608 112.567385 
L 600.640914 122.903236 
L 601.48722 119.618212 
L 602.333525 137.165131 
L 603.179831 176.024741 
L 604.026137 241.885786 
L 604.872443 183.556288 
L 605.718749 188.043187 
L 606.565054 153.430069 
L 607.41136 125.86778 
L 608.257666 115.531929 
L 609.103972 103.112868 
L 609.950278 103.273139 
L 610.796584 108.481132 
L 611.642889 116.253054 
L 612.489195 92.777017 
L 613.335501 163.926191 
L 614.181807 294.606676 
L 615.028113 230.748705 
L 615.874418 146.459377 
L 616.720724 127.470239 
L 617.56703 100.86945 
L 618.413336 104.154473 
L 619.259642 108.801611 
L 620.105947 97.904906 
L 620.952253 99.42723 
L 621.798559 100.148325 
L 622.644865 173.781292 
L 623.491171 178.10795 
L 624.337476 214.243361 
L 625.183782 156.314509 
L 626.030088 107.279287 
L 626.876394 104.955703 
L 627.7227 112.887865 
L 628.569006 106.878672 
L 629.415311 110.243831 
L 630.261617 108.240757 
L 631.107923 124.345456 
L 631.954229 102.391774 
L 632.800535 141.892374 
L 633.64684 127.309999 
L 634.493146 223.217158 
L 635.339452 171.698113 
L 636.185758 146.058762 
L 637.032064 133.479462 
L 637.878369 122.662861 
L 638.724675 107.679902 
L 639.570981 104.314713 
L 640.417287 95.981936 
L 641.263593 98.14525 
L 642.109898 114.410219 
L 642.956204 111.285405 
L 643.80251 119.217598 
L 644.648816 185.639497 
L 646.341428 134.040317 
L 647.187733 119.698317 
L 648.034039 111.285405 
L 648.880345 105.837068 
L 649.726651 110.644446 
L 650.572957 118.336233 
L 651.419262 111.605915 
L 652.265568 126.18829 
L 653.111874 223.217158 
L 653.95818 157.115738 
L 654.804486 102.311639 
L 655.650791 104.234608 
L 656.497097 98.065146 
L 657.343403 95.180706 
L 658.189709 118.015753 
L 659.036015 104.234608 
L 659.882321 102.151399 
L 660.728626 96.382551 
L 661.574932 225.700952 
L 663.267544 161.522502 
L 664.11385 142.773739 
L 664.960155 108.000382 
L 665.806461 109.923321 
L 666.652767 105.196078 
L 667.499073 98.385625 
L 668.345379 124.585831 
L 669.191684 208.955264 
L 670.03799 152.869215 
L 670.884296 164.72742 
L 671.730602 153.670444 
L 672.576908 136.203661 
L 673.423213 111.205301 
L 674.269519 91.975788 
L 675.115825 96.302446 
L 675.962131 89.972713 
L 676.808437 92.456538 
L 677.654743 286.514244 
L 678.501048 207.112429 
L 679.347354 155.433144 
L 680.19366 137.48561 
L 681.039966 103.193004 
L 681.886272 98.065146 
L 682.732577 95.501217 
L 683.578883 92.136028 
L 684.425189 92.216163 
L 685.271495 95.741561 
L 686.117801 89.732369 
L 686.964106 116.974148 
L 687.810412 116.573534 
L 688.656718 115.211449 
L 689.503024 132.437857 
L 690.34933 217.28804 
L 691.195635 254.144607 
L 692.041941 160.400762 
L 692.888247 103.833993 
L 693.734553 95.741561 
L 694.580859 85.485845 
L 695.427165 87.088305 
L 696.27347 94.058997 
L 697.119776 94.940331 
L 697.966082 99.347095 
L 698.812388 114.570459 
L 699.658694 97.824771 
L 700.504999 187.402197 
L 701.351305 193.731899 
L 702.197611 204.628635 
L 703.043917 190.52698 
L 704.736528 98.706135 
L 705.582834 96.222311 
L 706.42914 99.186855 
L 707.275446 97.824771 
L 708.121752 94.860227 
L 708.968057 102.712254 
L 709.814363 106.558162 
L 710.660669 100.949554 
L 711.506975 101.911024 
L 712.353281 150.465526 
L 713.199587 126.18829 
L 714.045892 114.410219 
L 714.892198 186.120217 
L 715.738504 208.554649 
L 716.58481 147.581117 
L 717.431116 99.26699 
L 718.277421 101.911024 
L 719.123727 92.376403 
L 719.970033 104.955703 
L 720.816339 89.171484 
L 721.662645 102.552014 
L 723.355256 151.66737 
L 724.201562 144.456303 
L 725.047868 211.519192 
L 725.894174 169.935414 
L 726.740479 141.571894 
L 727.586785 121.701391 
L 728.433091 93.337872 
L 729.279397 90.693838 
L 730.125703 85.005095 
L 730.972009 132.117378 
L 731.818314 129.873928 
L 732.66462 171.858353 
L 733.510926 162.083356 
L 734.357232 111.84629 
L 735.203538 102.632149 
L 736.049843 97.263916 
L 736.896149 95.340946 
L 737.742455 116.974148 
L 738.588761 162.804451 
L 739.435067 250.939688 
L 740.281372 120.259202 
L 741.127678 104.234608 
L 741.973984 91.254693 
L 742.82029 86.287075 
L 743.666596 88.610629 
L 744.512901 95.340946 
L 745.359207 91.575173 
L 746.205513 86.767795 
L 747.051819 90.613703 
L 747.898125 118.977223 
L 748.744431 127.63051 
L 750.437042 222.496033 
L 752.129654 113.689094 
L 752.97596 94.299372 
L 753.822265 92.376403 
L 754.668571 87.00817 
L 755.514877 83.723146 
L 756.361183 92.777017 
L 757.207489 87.248545 
L 758.053794 102.391774 
L 758.9001 157.916968 
L 759.746406 139.969435 
L 760.592712 135.803046 
L 761.439018 130.114303 
L 762.285324 222.656273 
L 763.131629 182.915298 
L 763.977935 114.810834 
L 764.824241 106.237683 
L 765.670547 93.738487 
L 766.516853 94.940331 
L 767.363158 88.690764 
L 768.209464 94.139102 
L 769.05577 110.003456 
L 769.902076 100.22846 
L 770.748382 93.418007 
L 771.594687 142.212854 
L 772.440993 295.808521 
L 773.287299 155.593384 
L 774.133605 142.212854 
L 774.979911 132.357753 
L 775.826216 87.00817 
L 776.672522 86.0467 
L 777.518828 93.658382 
L 778.365134 82.040552 
L 780.057746 85.325606 
L 780.904051 85.88646 
L 781.750357 95.100602 
L 782.596663 105.837068 
L 783.442969 107.359392 
L 784.289275 226.982932 
L 785.13558 215.204861 
L 785.981886 151.34689 
L 786.828192 131.957138 
L 787.674498 102.071294 
L 788.520804 92.055923 
L 789.367109 85.485845 
L 790.213415 86.20694 
L 791.059721 83.643011 
L 791.906027 85.646085 
L 792.752333 97.263916 
L 793.598638 148.141972 
L 794.444944 213.522267 
L 795.29125 215.605476 
L 796.137556 171.537873 
L 796.983862 114.490324 
L 797.830168 97.664531 
L 798.676473 89.411859 
L 799.522779 83.643011 
L 800.369085 85.005095 
L 802.061697 84.043626 
L 802.908002 108.801611 
L 803.754308 150.625765 
L 804.600614 117.775378 
L 805.44692 104.394848 
L 806.293226 106.638297 
L 807.139531 311.43247 
L 807.985837 159.839907 
L 808.832143 114.570459 
L 809.678449 97.584396 
L 810.524755 86.126835 
L 811.37106 86.287075 
L 812.217366 86.84793 
L 813.063672 87.809399 
L 813.909978 96.703061 
L 814.756284 90.773943 
L 815.60259 124.26532 
L 816.448895 126.02805 
L 817.295201 119.538077 
L 818.141507 131.877003 
L 818.987813 209.916733 
L 819.834119 214.003017 
L 820.680424 141.732134 
L 821.52673 110.243831 
L 822.373036 108.641372 
L 823.219342 84.284001 
L 824.065648 85.40571 
L 824.911953 82.441166 
L 825.758259 80.037477 
L 826.604565 85.165335 
L 827.450871 85.005095 
L 828.297177 95.180706 
L 829.143482 127.309999 
L 829.989788 119.137462 
L 830.836094 260.394174 
L 831.6824 186.040112 
L 832.528706 141.411654 
L 833.375012 112.887865 
L 834.221317 93.738487 
L 835.067623 88.450389 
L 835.913929 86.68769 
L 836.760235 89.972713 
L 837.606541 88.210014 
L 838.452846 83.402636 
L 839.299152 86.36718 
L 840.145458 94.699987 
L 840.991764 232.190925 
L 841.83807 214.403632 
L 842.684375 200.382112 
L 843.530681 150.625765 
L 844.376987 117.374763 
L 845.223293 94.699987 
L 846.069599 91.334798 
L 847.76221 85.806325 
L 848.608516 85.005095 
L 849.454822 87.889534 
L 850.301128 87.248545 
L 851.147434 88.210014 
L 851.993739 85.40571 
L 852.840045 92.536642 
L 853.686351 102.391774 
L 854.532657 110.323936 
L 855.378963 253.423482 
L 856.225268 175.704261 
L 857.071574 126.50877 
L 857.91788 108.721476 
L 858.764186 87.088305 
L 859.610492 82.681541 
L 860.456797 90.693838 
L 861.303103 86.52745 
L 862.149409 85.40571 
L 862.995715 95.421082 
L 863.842021 101.270064 
L 864.688327 85.40571 
L 865.534632 261.435779 
L 866.380938 283.629835 
L 867.227244 173.941532 
L 868.07355 108.641372 
L 868.919856 104.635223 
L 869.766161 97.744635 
L 870.612467 95.421082 
L 871.458773 90.854078 
L 872.305079 108.320861 
L 873.151385 91.655308 
L 873.99769 87.168409 
L 874.843996 85.72622 
L 875.690302 89.251619 
L 876.536608 82.120687 
L 877.382914 101.830919 
L 878.229219 209.195639 
L 879.075525 194.372889 
L 879.921831 140.049539 
L 880.768137 124.90631 
L 881.614443 101.189929 
L 882.460749 89.011244 
L 883.307054 84.043626 
L 884.15336 83.883386 
L 884.999666 83.963491 
L 885.845972 87.168409 
L 886.692278 86.36718 
L 887.538583 102.471909 
L 888.384889 87.32868 
L 889.231195 98.14525 
L 890.077501 173.380677 
L 890.923807 193.491524 
L 891.770112 133.719837 
L 892.616418 103.914098 
L 893.462724 93.418007 
L 895.155336 83.082156 
L 896.001641 81.720072 
L 896.847947 83.562876 
L 897.694253 82.040552 
L 898.540559 79.877237 
L 899.386865 90.373328 
L 900.233171 89.892609 
L 901.079476 95.180706 
L 901.925782 109.362466 
L 902.772088 239.321857 
L 903.618394 192.690325 
L 904.4647 128.992594 
L 905.311005 105.917172 
L 906.157311 89.411859 
L 907.003617 82.681541 
L 907.849923 84.123761 
L 908.696229 83.562876 
L 909.542534 80.758572 
L 910.38884 81.639937 
L 911.235146 80.998947 
L 912.081452 99.667605 
L 912.927758 209.676358 
L 913.774063 156.234373 
L 914.620369 118.256128 
L 915.466675 95.100602 
L 916.312981 87.809399 
L 917.159287 88.690764 
L 918.005593 84.203866 
L 918.851898 87.729295 
L 919.698204 83.082156 
L 920.54451 89.251619 
L 921.390816 98.14525 
L 922.237122 140.289914 
L 923.083427 123.063476 
L 923.929733 149.023306 
L 924.776039 179.470035 
L 925.622345 144.376198 
L 926.468651 103.112868 
L 927.314956 89.411859 
L 929.007568 80.998947 
L 929.853874 89.892609 
L 930.70018 84.924991 
L 931.546485 86.767795 
L 932.392791 85.24547 
L 933.239097 92.055923 
L 934.085403 110.884821 
L 934.931709 95.421082 
L 935.778015 223.217158 
L 936.62432 203.346656 
L 937.470626 191.408345 
L 938.316932 119.538077 
L 939.163238 90.453463 
L 940.009544 83.162261 
L 940.855849 83.082156 
L 941.702155 82.841781 
L 942.548461 83.803251 
L 943.394767 80.518227 
L 944.241073 84.524376 
L 945.087378 86.447315 
L 945.933684 99.186855 
L 946.77999 89.011244 
L 947.626296 216.326571 
L 948.472602 316.560358 
L 949.318908 156.474748 
L 950.165213 113.528855 
L 951.011519 84.76472 
L 951.857825 82.120687 
L 952.704131 81.720072 
L 953.550437 81.639937 
L 954.396742 82.681541 
L 955.243048 83.162261 
L 956.089354 82.441166 
L 956.93566 84.123761 
L 957.781966 83.963491 
L 958.628271 84.043626 
L 959.474577 85.24547 
L 960.320883 133.799972 
L 961.167189 204.5485 
L 962.8598 124.26532 
L 963.706106 98.626 
L 964.552412 87.729295 
L 965.398718 85.806325 
L 966.245024 85.966565 
L 967.09133 85.24547 
L 967.937635 100.949554 
L 968.783941 87.569024 
L 969.630247 91.895683 
L 970.476553 90.373328 
L 971.322859 254.064472 
L 972.169164 166.570224 
L 973.01547 128.752219 
L 973.861776 99.26699 
L 974.708082 88.450389 
L 975.554388 81.479697 
L 976.400693 81.479697 
L 977.246999 83.482771 
L 978.093305 93.097528 
L 978.939611 91.414933 
L 980.632222 83.082156 
L 981.478528 136.764516 
L 982.324834 135.482536 
L 983.17114 129.232969 
L 984.017446 161.282127 
L 984.863752 246.773269 
L 985.710057 130.675158 
L 986.556363 122.021902 
L 987.402669 92.616778 
L 988.248975 86.84793 
L 989.095281 85.806325 
L 989.941586 79.797102 
L 990.787892 85.005095 
L 991.634198 80.598332 
L 992.480504 93.818622 
L 993.32681 111.045061 
L 994.173115 183.235808 
L 995.019421 138.76759 
L 995.865727 147.741357 
L 996.712033 131.796898 
L 997.558339 152.067985 
L 999.25095 119.137462 
L 1000.097256 91.334798 
L 1000.943562 84.364105 
L 1001.789868 83.482771 
L 1002.636174 120.419442 
L 1003.482479 149.984806 
L 1003.482479 149.984806 
" clip-path="url(#p17f32d987c)" style="fill: none; stroke: #dd8452; stroke-width: 6; stroke-linecap: round"/>
   </g>
   <g id="line2d_15"/>
   <g id="line2d_16"/>
   <g id="patch_3">
    <path d="M 115.75 609.894375 
L 115.75 54.554375 
" style="fill: none; stroke: #cccccc; stroke-width: 1.875; stroke-linejoin: miter; stroke-linecap: square"/>
   </g>
   <g id="patch_4">
    <path d="M 1045.755455 609.894375 
L 1045.755455 54.554375 
" style="fill: none; stroke: #cccccc; stroke-width: 1.875; stroke-linejoin: miter; stroke-linecap: square"/>
   </g>
   <g id="patch_5">
    <path d="M 115.75 609.894375 
L 1045.755455 609.894375 
" style="fill: none; stroke: #cccccc; stroke-width: 1.875; stroke-linejoin: miter; stroke-linecap: square"/>
   </g>
   <g id="patch_6">
    <path d="M 115.75 54.554375 
L 1045.755455 54.554375 
" style="fill: none; stroke: #cccccc; stroke-width: 1.875; stroke-linejoin: miter; stroke-linecap: square"/>
   </g>
   <g id="text_15">
    <!-- Training Progress: Accuracy -->
    <g style="fill: #262626" transform="translate(297.50304 34.554375) scale(0.36 -0.36)">
     <defs>
      <path id="DejaVuSans-Bold-54" d="M 31 4666 
L 4331 4666 
L 4331 3756 
L 2784 3756 
L 2784 0 
L 1581 0 
L 1581 3756 
L 31 3756 
L 31 4666 
z
" transform="scale(0.015625)"/>
      <path id="DejaVuSans-Bold-72" d="M 3138 2547 
Q 2991 2616 2845 2648 
Q 2700 2681 2553 2681 
Q 2122 2681 1889 2404 
Q 1656 2128 1656 1613 
L 1656 0 
L 538 0 
L 538 3500 
L 1656 3500 
L 1656 2925 
Q 1872 3269 2151 3426 
Q 2431 3584 2822 3584 
Q 2878 3584 2943 3579 
Q 3009 3575 3134 3559 
L 3138 2547 
z
" transform="scale(0.015625)"/>
      <path id="DejaVuSans-Bold-61" d="M 2106 1575 
Q 1756 1575 1579 1456 
Q 1403 1338 1403 1106 
Q 1403 894 1545 773 
Q 1688 653 1941 653 
Q 2256 653 2472 879 
Q 2688 1106 2688 1447 
L 2688 1575 
L 2106 1575 
z
M 3816 1997 
L 3816 0 
L 2688 0 
L 2688 519 
Q 2463 200 2181 54 
Q 1900 -91 1497 -91 
Q 953 -91 614 226 
Q 275 544 275 1050 
Q 275 1666 698 1953 
Q 1122 2241 2028 2241 
L 2688 2241 
L 2688 2328 
Q 2688 2594 2478 2717 
Q 2269 2841 1825 2841 
Q 1466 2841 1156 2769 
Q 847 2697 581 2553 
L 581 3406 
Q 941 3494 1303 3539 
Q 1666 3584 2028 3584 
Q 2975 3584 3395 3211 
Q 3816 2838 3816 1997 
z
" transform="scale(0.015625)"/>
      <path id="DejaVuSans-Bold-69" d="M 538 3500 
L 1656 3500 
L 1656 0 
L 538 0 
L 538 3500 
z
M 538 4863 
L 1656 4863 
L 1656 3950 
L 538 3950 
L 538 4863 
z
" transform="scale(0.015625)"/>
      <path id="DejaVuSans-Bold-6e" d="M 4056 2131 
L 4056 0 
L 2931 0 
L 2931 347 
L 2931 1631 
Q 2931 2084 2911 2256 
Q 2891 2428 2841 2509 
Q 2775 2619 2662 2680 
Q 2550 2741 2406 2741 
Q 2056 2741 1856 2470 
Q 1656 2200 1656 1722 
L 1656 0 
L 538 0 
L 538 3500 
L 1656 3500 
L 1656 2988 
Q 1909 3294 2193 3439 
Q 2478 3584 2822 3584 
Q 3428 3584 3742 3212 
Q 4056 2841 4056 2131 
z
" transform="scale(0.015625)"/>
      <path id="DejaVuSans-Bold-67" d="M 2919 594 
Q 2688 288 2409 144 
Q 2131 0 1766 0 
Q 1125 0 706 504 
Q 288 1009 288 1791 
Q 288 2575 706 3076 
Q 1125 3578 1766 3578 
Q 2131 3578 2409 3434 
Q 2688 3291 2919 2981 
L 2919 3500 
L 4044 3500 
L 4044 353 
Q 4044 -491 3511 -936 
Q 2978 -1381 1966 -1381 
Q 1638 -1381 1331 -1331 
Q 1025 -1281 716 -1178 
L 716 -306 
Q 1009 -475 1290 -558 
Q 1572 -641 1856 -641 
Q 2406 -641 2662 -400 
Q 2919 -159 2919 353 
L 2919 594 
z
M 2181 2772 
Q 1834 2772 1640 2515 
Q 1447 2259 1447 1791 
Q 1447 1309 1634 1061 
Q 1822 813 2181 813 
Q 2531 813 2725 1069 
Q 2919 1325 2919 1791 
Q 2919 2259 2725 2515 
Q 2531 2772 2181 2772 
z
" transform="scale(0.015625)"/>
      <path id="DejaVuSans-Bold-20" transform="scale(0.015625)"/>
      <path id="DejaVuSans-Bold-50" d="M 588 4666 
L 2584 4666 
Q 3475 4666 3951 4270 
Q 4428 3875 4428 3144 
Q 4428 2409 3951 2014 
Q 3475 1619 2584 1619 
L 1791 1619 
L 1791 0 
L 588 0 
L 588 4666 
z
M 1791 3794 
L 1791 2491 
L 2456 2491 
Q 2806 2491 2997 2661 
Q 3188 2831 3188 3144 
Q 3188 3456 2997 3625 
Q 2806 3794 2456 3794 
L 1791 3794 
z
" transform="scale(0.015625)"/>
      <path id="DejaVuSans-Bold-6f" d="M 2203 2784 
Q 1831 2784 1636 2517 
Q 1441 2250 1441 1747 
Q 1441 1244 1636 976 
Q 1831 709 2203 709 
Q 2569 709 2762 976 
Q 2956 1244 2956 1747 
Q 2956 2250 2762 2517 
Q 2569 2784 2203 2784 
z
M 2203 3584 
Q 3106 3584 3614 3096 
Q 4122 2609 4122 1747 
Q 4122 884 3614 396 
Q 3106 -91 2203 -91 
Q 1297 -91 786 396 
Q 275 884 275 1747 
Q 275 2609 786 3096 
Q 1297 3584 2203 3584 
z
" transform="scale(0.015625)"/>
      <path id="DejaVuSans-Bold-65" d="M 4031 1759 
L 4031 1441 
L 1416 1441 
Q 1456 1047 1700 850 
Q 1944 653 2381 653 
Q 2734 653 3104 758 
Q 3475 863 3866 1075 
L 3866 213 
Q 3469 63 3072 -14 
Q 2675 -91 2278 -91 
Q 1328 -91 801 392 
Q 275 875 275 1747 
Q 275 2603 792 3093 
Q 1309 3584 2216 3584 
Q 3041 3584 3536 3087 
Q 4031 2591 4031 1759 
z
M 2881 2131 
Q 2881 2450 2695 2645 
Q 2509 2841 2209 2841 
Q 1884 2841 1681 2658 
Q 1478 2475 1428 2131 
L 2881 2131 
z
" transform="scale(0.015625)"/>
      <path id="DejaVuSans-Bold-73" d="M 3272 3391 
L 3272 2541 
Q 2913 2691 2578 2766 
Q 2244 2841 1947 2841 
Q 1628 2841 1473 2761 
Q 1319 2681 1319 2516 
Q 1319 2381 1436 2309 
Q 1553 2238 1856 2203 
L 2053 2175 
Q 2913 2066 3209 1816 
Q 3506 1566 3506 1031 
Q 3506 472 3093 190 
Q 2681 -91 1863 -91 
Q 1516 -91 1145 -36 
Q 775 19 384 128 
L 384 978 
Q 719 816 1070 734 
Q 1422 653 1784 653 
Q 2113 653 2278 743 
Q 2444 834 2444 1013 
Q 2444 1163 2330 1236 
Q 2216 1309 1875 1350 
L 1678 1375 
Q 931 1469 631 1722 
Q 331 1975 331 2491 
Q 331 3047 712 3315 
Q 1094 3584 1881 3584 
Q 2191 3584 2531 3537 
Q 2872 3491 3272 3391 
z
" transform="scale(0.015625)"/>
      <path id="DejaVuSans-Bold-3a" d="M 716 3500 
L 1844 3500 
L 1844 2291 
L 716 2291 
L 716 3500 
z
M 716 1209 
L 1844 1209 
L 1844 0 
L 716 0 
L 716 1209 
z
" transform="scale(0.015625)"/>
      <path id="DejaVuSans-Bold-41" d="M 3419 850 
L 1538 850 
L 1241 0 
L 31 0 
L 1759 4666 
L 3194 4666 
L 4922 0 
L 3713 0 
L 3419 850 
z
M 1838 1716 
L 3116 1716 
L 2478 3572 
L 1838 1716 
z
" transform="scale(0.015625)"/>
      <path id="DejaVuSans-Bold-63" d="M 3366 3391 
L 3366 2478 
Q 3138 2634 2908 2709 
Q 2678 2784 2431 2784 
Q 1963 2784 1702 2511 
Q 1441 2238 1441 1747 
Q 1441 1256 1702 982 
Q 1963 709 2431 709 
Q 2694 709 2930 787 
Q 3166 866 3366 1019 
L 3366 103 
Q 3103 6 2833 -42 
Q 2563 -91 2291 -91 
Q 1344 -91 809 395 
Q 275 881 275 1747 
Q 275 2613 809 3098 
Q 1344 3584 2291 3584 
Q 2566 3584 2833 3536 
Q 3100 3488 3366 3391 
z
" transform="scale(0.015625)"/>
      <path id="DejaVuSans-Bold-75" d="M 500 1363 
L 500 3500 
L 1625 3500 
L 1625 3150 
Q 1625 2866 1622 2436 
Q 1619 2006 1619 1863 
Q 1619 1441 1641 1255 
Q 1663 1069 1716 984 
Q 1784 875 1895 815 
Q 2006 756 2150 756 
Q 2500 756 2700 1025 
Q 2900 1294 2900 1772 
L 2900 3500 
L 4019 3500 
L 4019 0 
L 2900 0 
L 2900 506 
Q 2647 200 2364 54 
Q 2081 -91 1741 -91 
Q 1134 -91 817 281 
Q 500 653 500 1363 
z
" transform="scale(0.015625)"/>
      <path id="DejaVuSans-Bold-79" d="M 78 3500 
L 1197 3500 
L 2138 1125 
L 2938 3500 
L 4056 3500 
L 2584 -331 
Q 2363 -916 2067 -1148 
Q 1772 -1381 1288 -1381 
L 641 -1381 
L 641 -647 
L 991 -647 
Q 1275 -647 1404 -556 
Q 1534 -466 1606 -231 
L 1638 -134 
L 78 3500 
z
" transform="scale(0.015625)"/>
     </defs>
     <use xlink:href="#DejaVuSans-Bold-54"/>
     <use xlink:href="#DejaVuSans-Bold-72" transform="translate(57.212891 0)"/>
     <use xlink:href="#DejaVuSans-Bold-61" transform="translate(106.529297 0)"/>
     <use xlink:href="#DejaVuSans-Bold-69" transform="translate(174.009766 0)"/>
     <use xlink:href="#DejaVuSans-Bold-6e" transform="translate(208.287109 0)"/>
     <use xlink:href="#DejaVuSans-Bold-69" transform="translate(279.478516 0)"/>
     <use xlink:href="#DejaVuSans-Bold-6e" transform="translate(313.755859 0)"/>
     <use xlink:href="#DejaVuSans-Bold-67" transform="translate(384.947266 0)"/>
     <use xlink:href="#DejaVuSans-Bold-20" transform="translate(456.529297 0)"/>
     <use xlink:href="#DejaVuSans-Bold-50" transform="translate(491.34375 0)"/>
     <use xlink:href="#DejaVuSans-Bold-72" transform="translate(564.634766 0)"/>
     <use xlink:href="#DejaVuSans-Bold-6f" transform="translate(613.951172 0)"/>
     <use xlink:href="#DejaVuSans-Bold-67" transform="translate(682.652344 0)"/>
     <use xlink:href="#DejaVuSans-Bold-72" transform="translate(754.234375 0)"/>
     <use xlink:href="#DejaVuSans-Bold-65" transform="translate(803.550781 0)"/>
     <use xlink:href="#DejaVuSans-Bold-73" transform="translate(871.373047 0)"/>
     <use xlink:href="#DejaVuSans-Bold-73" transform="translate(930.894531 0)"/>
     <use xlink:href="#DejaVuSans-Bold-3a" transform="translate(990.416016 0)"/>
     <use xlink:href="#DejaVuSans-Bold-20" transform="translate(1030.40625 0)"/>
     <use xlink:href="#DejaVuSans-Bold-41" transform="translate(1065.220703 0)"/>
     <use xlink:href="#DejaVuSans-Bold-63" transform="translate(1142.613281 0)"/>
     <use xlink:href="#DejaVuSans-Bold-63" transform="translate(1201.890625 0)"/>
     <use xlink:href="#DejaVuSans-Bold-75" transform="translate(1261.167969 0)"/>
     <use xlink:href="#DejaVuSans-Bold-72" transform="translate(1332.359375 0)"/>
     <use xlink:href="#DejaVuSans-Bold-61" transform="translate(1381.675781 0)"/>
     <use xlink:href="#DejaVuSans-Bold-63" transform="translate(1449.15625 0)"/>
     <use xlink:href="#DejaVuSans-Bold-79" transform="translate(1508.433594 0)"/>
    </g>
   </g>
   <g id="legend_1">
    <g id="patch_7">
     <path d="M 138.15 174.094375 
L 315.03 174.094375 
Q 321.43 174.094375 321.43 167.694375 
L 321.43 76.954375 
Q 321.43 70.554375 315.03 70.554375 
L 138.15 70.554375 
Q 131.75 70.554375 131.75 76.954375 
L 131.75 167.694375 
Q 131.75 174.094375 138.15 174.094375 
z
" style="fill: #ffffff; opacity: 0.8; stroke: #cccccc; stroke-width: 1.5; stroke-linejoin: miter"/>
    </g>
    <g id="line2d_17">
     <path d="M 144.55 96.469375 
L 176.55 96.469375 
L 208.55 96.469375 
" style="fill: none; stroke: #4c72b0; stroke-width: 6; stroke-linecap: round"/>
    </g>
    <g id="text_16">
     <!-- train -->
     <g style="fill: #262626" transform="translate(234.15 107.669375) scale(0.32 -0.32)">
      <defs>
       <path id="DejaVuSans-74" d="M 1172 4494 
L 1172 3500 
L 2356 3500 
L 2356 3053 
L 1172 3053 
L 1172 1153 
Q 1172 725 1289 603 
Q 1406 481 1766 481 
L 2356 481 
L 2356 0 
L 1766 0 
Q 1100 0 847 248 
Q 594 497 594 1153 
L 594 3053 
L 172 3053 
L 172 3500 
L 594 3500 
L 594 4494 
L 1172 4494 
z
" transform="scale(0.015625)"/>
       <path id="DejaVuSans-69" d="M 603 3500 
L 1178 3500 
L 1178 0 
L 603 0 
L 603 3500 
z
M 603 4863 
L 1178 4863 
L 1178 4134 
L 603 4134 
L 603 4863 
z
" transform="scale(0.015625)"/>
       <path id="DejaVuSans-6e" d="M 3513 2113 
L 3513 0 
L 2938 0 
L 2938 2094 
Q 2938 2591 2744 2837 
Q 2550 3084 2163 3084 
Q 1697 3084 1428 2787 
Q 1159 2491 1159 1978 
L 1159 0 
L 581 0 
L 581 3500 
L 1159 3500 
L 1159 2956 
Q 1366 3272 1645 3428 
Q 1925 3584 2291 3584 
Q 2894 3584 3203 3211 
Q 3513 2838 3513 2113 
z
" transform="scale(0.015625)"/>
      </defs>
      <use xlink:href="#DejaVuSans-74"/>
      <use xlink:href="#DejaVuSans-72" transform="translate(39.208984 0)"/>
      <use xlink:href="#DejaVuSans-61" transform="translate(80.322266 0)"/>
      <use xlink:href="#DejaVuSans-69" transform="translate(141.601562 0)"/>
      <use xlink:href="#DejaVuSans-6e" transform="translate(169.384766 0)"/>
     </g>
    </g>
    <g id="line2d_18">
     <path d="M 144.55 143.439375 
L 176.55 143.439375 
L 208.55 143.439375 
" style="fill: none; stroke: #dd8452; stroke-width: 6; stroke-linecap: round"/>
    </g>
    <g id="text_17">
     <!-- val -->
     <g style="fill: #262626" transform="translate(234.15 154.639375) scale(0.32 -0.32)">
      <defs>
       <path id="DejaVuSans-76" d="M 191 3500 
L 800 3500 
L 1894 563 
L 2988 3500 
L 3597 3500 
L 2284 0 
L 1503 0 
L 191 3500 
z
" transform="scale(0.015625)"/>
       <path id="DejaVuSans-6c" d="M 603 4863 
L 1178 4863 
L 1178 0 
L 603 0 
L 603 4863 
z
" transform="scale(0.015625)"/>
      </defs>
      <use xlink:href="#DejaVuSans-76"/>
      <use xlink:href="#DejaVuSans-61" transform="translate(59.179688 0)"/>
      <use xlink:href="#DejaVuSans-6c" transform="translate(120.458984 0)"/>
     </g>
    </g>
   </g>
  </g>
 </g>
 <defs>
  <clipPath id="p17f32d987c">
   <rect x="115.75" y="54.554375" width="930.005455" height="555.34"/>
  </clipPath>
 </defs>
</svg>
