<?xml version="1.0" encoding="utf-8" standalone="no"?>
<!DOCTYPE svg PUBLIC "-//W3C//DTD SVG 1.1//EN"
  "http://www.w3.org/Graphics/SVG/1.1/DTD/svg11.dtd">
<svg xmlns:xlink="http://www.w3.org/1999/xlink" width="1052.825455pt" height="695.534375pt" viewBox="0 0 1052.825455 695.534375" xmlns="http://www.w3.org/2000/svg" version="1.1">
 <metadata>
  <rdf:RDF xmlns:dc="http://purl.org/dc/elements/1.1/" xmlns:cc="http://creativecommons.org/ns#" xmlns:rdf="http://www.w3.org/1999/02/22-rdf-syntax-ns#">
   <cc:Work>
    <dc:type rdf:resource="http://purl.org/dc/dcmitype/StillImage"/>
    <dc:date>2026-04-10T15:16:38.890673</dc:date>
    <dc:format>image/svg+xml</dc:format>
    <dc:creator>
     <cc:Agent>
      <dc:title>Matplotlib v3.10.8, https://matplotlib.org/</dc:title>
     </cc:Agent>
    </dc:creator>
   </cc:Work>
  </rdf:RDF>
 </metadata>
 <defs>
  <style type="text/css">*{stroke-linejoin: round; stroke-linecap: butt}</style>
 </defs>
 <g id="figure_1">
  <g id="patch_1">
   <path d="M 0 695.534375 
L 1052.825455 695.534375 
L 1052.825455 0 
L 0 0 
z
" style="fill: #ffffff"/>
  </g>
  <g id="axes_1">
   <g id="patch_2">
    <path d="M 75.03 609.894375 
L 1045.625455 609.894375 
L 1045.625455 54.554375 
L 75.03 54.554375 
z
" style="fill: #ffffff"/>
   </g>
   <g id="matplotlib.axis_1">
    <g id="xtick_1">
     <g id="line2d_1">
      <path d="M 118.264732 609.894375 
L 118.264732 54.554375 
" clip-path="url(#p509faa7d48)" style="fill: none; stroke: #cccccc; stroke-opacity: 0.3; stroke-width: 1.5; stroke-linecap: round"/>
     </g>
     <g id="text_1">
      <!-- 0 -->
      <g style="fill: #262626" transform="translate(108.084732 646.709375) scale(0.32 -0.32)">
       <defs>
        <path id="DejaVuSans-30" d="M 2034 4250 
Q 1547 4250 1301 3770 
Q 1056 3291 1056 2328 
Q 1056 1369 1301 889 
Q 1547 409 2034 409 
Q 2525 409 2770 889 
Q 3016 1369 3016 2328 
Q 3016 3291 2770 3770 
Q 2525 4250 2034 4250 
z
M 2034 4750 
Q 2819 4750 3233 4129 
Q 3647 3509 3647 2328 
Q 3647 1150 3233 529 
Q 2819 -91 2034 -91 
Q 1250 -91 836 529 
Q 422 1150 422 2328 
Q 422 3509 836 4129 
Q 1250 4750 2034 4750 
z
" transform="scale(0.015625)"/>
       </defs>
       <use xlink:href="#DejaVuSans-30"/>
      </g>
     </g>
    </g>
    <g id="xtick_2">
     <g id="line2d_2">
      <path d="M 294.913282 609.894375 
L 294.913282 54.554375 
" clip-path="url(#p509faa7d48)" style="fill: none; stroke: #cccccc; stroke-opacity: 0.3; stroke-width: 1.5; stroke-linecap: round"/>
     </g>
     <g id="text_2">
      <!-- 200 -->
      <g style="fill: #262626" transform="translate(264.373282 646.709375) scale(0.32 -0.32)">
       <defs>
        <path id="DejaVuSans-32" d="M 1228 531 
L 3431 531 
L 3431 0 
L 469 0 
L 469 531 
Q 828 903 1448 1529 
Q 2069 2156 2228 2338 
Q 2531 2678 2651 2914 
Q 2772 3150 2772 3378 
Q 2772 3750 2511 3984 
Q 2250 4219 1831 4219 
Q 1534 4219 1204 4116 
Q 875 4013 500 3803 
L 500 4441 
Q 881 4594 1212 4672 
Q 1544 4750 1819 4750 
Q 2544 4750 2975 4387 
Q 3406 4025 3406 3419 
Q 3406 3131 3298 2873 
Q 3191 2616 2906 2266 
Q 2828 2175 2409 1742 
Q 1991 1309 1228 531 
z
" transform="scale(0.015625)"/>
       </defs>
       <use xlink:href="#DejaVuSans-32"/>
       <use xlink:href="#DejaVuSans-30" transform="translate(63.623047 0)"/>
       <use xlink:href="#DejaVuSans-30" transform="translate(127.246094 0)"/>
      </g>
     </g>
    </g>
    <g id="xtick_3">
     <g id="line2d_3">
      <path d="M 471.561831 609.894375 
L 471.561831 54.554375 
" clip-path="url(#p509faa7d48)" style="fill: none; stroke: #cccccc; stroke-opacity: 0.3; stroke-width: 1.5; stroke-linecap: round"/>
     </g>
     <g id="text_3">
      <!-- 400 -->
      <g style="fill: #262626" transform="translate(441.021831 646.709375) scale(0.32 -0.32)">
       <defs>
        <path id="DejaVuSans-34" d="M 2419 4116 
L 825 1625 
L 2419 1625 
L 2419 4116 
z
M 2253 4666 
L 3047 4666 
L 3047 1625 
L 3713 1625 
L 3713 1100 
L 3047 1100 
L 3047 0 
L 2419 0 
L 2419 1100 
L 313 1100 
L 313 1709 
L 2253 4666 
z
" transform="scale(0.015625)"/>
       </defs>
       <use xlink:href="#DejaVuSans-34"/>
       <use xlink:href="#DejaVuSans-30" transform="translate(63.623047 0)"/>
       <use xlink:href="#DejaVuSans-30" transform="translate(127.246094 0)"/>
      </g>
     </g>
    </g>
    <g id="xtick_4">
     <g id="line2d_4">
      <path d="M 648.210381 609.894375 
L 648.210381 54.554375 
" clip-path="url(#p509faa7d48)" style="fill: none; stroke: #cccccc; stroke-opacity: 0.3; stroke-width: 1.5; stroke-linecap: round"/>
     </g>
     <g id="text_4">
      <!-- 600 -->
      <g style="fill: #262626" transform="translate(617.670381 646.709375) scale(0.32 -0.32)">
       <defs>
        <path id="DejaVuSans-36" d="M 2113 2584 
Q 1688 2584 1439 2293 
Q 1191 2003 1191 1497 
Q 1191 994 1439 701 
Q 1688 409 2113 409 
Q 2538 409 2786 701 
Q 3034 994 3034 1497 
Q 3034 2003 2786 2293 
Q 2538 2584 2113 2584 
z
M 3366 4563 
L 3366 3988 
Q 3128 4100 2886 4159 
Q 2644 4219 2406 4219 
Q 1781 4219 1451 3797 
Q 1122 3375 1075 2522 
Q 1259 2794 1537 2939 
Q 1816 3084 2150 3084 
Q 2853 3084 3261 2657 
Q 3669 2231 3669 1497 
Q 3669 778 3244 343 
Q 2819 -91 2113 -91 
Q 1303 -91 875 529 
Q 447 1150 447 2328 
Q 447 3434 972 4092 
Q 1497 4750 2381 4750 
Q 2619 4750 2861 4703 
Q 3103 4656 3366 4563 
z
" transform="scale(0.015625)"/>
       </defs>
       <use xlink:href="#DejaVuSans-36"/>
       <use xlink:href="#DejaVuSans-30" transform="translate(63.623047 0)"/>
       <use xlink:href="#DejaVuSans-30" transform="translate(127.246094 0)"/>
      </g>
     </g>
    </g>
    <g id="xtick_5">
     <g id="line2d_5">
      <path d="M 824.85893 609.894375 
L 824.85893 54.554375 
" clip-path="url(#p509faa7d48)" style="fill: none; stroke: #cccccc; stroke-opacity: 0.3; stroke-width: 1.5; stroke-linecap: round"/>
     </g>
     <g id="text_5">
      <!-- 800 -->
      <g style="fill: #262626" transform="translate(794.31893 646.709375) scale(0.32 -0.32)">
       <defs>
        <path id="DejaVuSans-38" d="M 2034 2216 
Q 1584 2216 1326 1975 
Q 1069 1734 1069 1313 
Q 1069 891 1326 650 
Q 1584 409 2034 409 
Q 2484 409 2743 651 
Q 3003 894 3003 1313 
Q 3003 1734 2745 1975 
Q 2488 2216 2034 2216 
z
M 1403 2484 
Q 997 2584 770 2862 
Q 544 3141 544 3541 
Q 544 4100 942 4425 
Q 1341 4750 2034 4750 
Q 2731 4750 3128 4425 
Q 3525 4100 3525 3541 
Q 3525 3141 3298 2862 
Q 3072 2584 2669 2484 
Q 3125 2378 3379 2068 
Q 3634 1759 3634 1313 
Q 3634 634 3220 271 
Q 2806 -91 2034 -91 
Q 1263 -91 848 271 
Q 434 634 434 1313 
Q 434 1759 690 2068 
Q 947 2378 1403 2484 
z
M 1172 3481 
Q 1172 3119 1398 2916 
Q 1625 2713 2034 2713 
Q 2441 2713 2670 2916 
Q 2900 3119 2900 3481 
Q 2900 3844 2670 4047 
Q 2441 4250 2034 4250 
Q 1625 4250 1398 4047 
Q 1172 3844 1172 3481 
z
" transform="scale(0.015625)"/>
       </defs>
       <use xlink:href="#DejaVuSans-38"/>
       <use xlink:href="#DejaVuSans-30" transform="translate(63.623047 0)"/>
       <use xlink:href="#DejaVuSans-30" transform="translate(127.246094 0)"/>
      </g>
     </g>
    </g>
    <g id="xtick_6">
     <g id="line2d_6">
      <path d="M 1001.507479 609.894375 
L 1001.507479 54.554375 
" clip-path="url(#p509faa7d48)" style="fill: none; stroke: #cccccc; stroke-opacity: 0.3; stroke-width: 1.5; stroke-linecap: round"/>
     </g>
     <g id="text_6">
      <!-- 1000 -->
      <g style="fill: #262626" transform="translate(960.787479 646.709375) scale(0.32 -0.32)">
       <defs>
        <path id="DejaVuSans-31" d="M 794 531 
L 1825 531 
L 1825 4091 
L 703 3866 
L 703 4441 
L 1819 4666 
L 2450 4666 
L 2450 531 
L 3481 531 
L 3481 0 
L 794 0 
L 794 531 
z
" transform="scale(0.015625)"/>
       </defs>
       <use xlink:href="#DejaVuSans-31"/>
       <use xlink:href="#DejaVuSans-30" transform="translate(63.623047 0)"/>
       <use xlink:href="#DejaVuSans-30" transform="translate(127.246094 0)"/>
       <use xlink:href="#DejaVuSans-30" transform="translate(190.869141 0)"/>
      </g>
     </g>
    </g>
    <g id="text_7">
     <!-- Epoch -->
     <g style="fill: #262626" transform="translate(511.332727 681.679375) scale(0.32 -0.32)">
      <defs>
       <path id="DejaVuSans-45" d="M 628 4666 
L 3578 4666 
L 3578 4134 
L 1259 4134 
L 1259 2753 
L 3481 2753 
L 3481 2222 
L 1259 2222 
L 1259 531 
L 3634 531 
L 3634 0 
L 628 0 
L 628 4666 
z
" transform="scale(0.015625)"/>
       <path id="DejaVuSans-70" d="M 1159 525 
L 1159 -1331 
L 581 -1331 
L 581 3500 
L 1159 3500 
L 1159 2969 
Q 1341 3281 1617 3432 
Q 1894 3584 2278 3584 
Q 2916 3584 3314 3078 
Q 3713 2572 3713 1747 
Q 3713 922 3314 415 
Q 2916 -91 2278 -91 
Q 1894 -91 1617 61 
Q 1341 213 1159 525 
z
M 3116 1747 
Q 3116 2381 2855 2742 
Q 2594 3103 2138 3103 
Q 1681 3103 1420 2742 
Q 1159 2381 1159 1747 
Q 1159 1113 1420 752 
Q 1681 391 2138 391 
Q 2594 391 2855 752 
Q 3116 1113 3116 1747 
z
" transform="scale(0.015625)"/>
       <path id="DejaVuSans-6f" d="M 1959 3097 
Q 1497 3097 1228 2736 
Q 959 2375 959 1747 
Q 959 1119 1226 758 
Q 1494 397 1959 397 
Q 2419 397 2687 759 
Q 2956 1122 2956 1747 
Q 2956 2369 2687 2733 
Q 2419 3097 1959 3097 
z
M 1959 3584 
Q 2709 3584 3137 3096 
Q 3566 2609 3566 1747 
Q 3566 888 3137 398 
Q 2709 -91 1959 -91 
Q 1206 -91 779 398 
Q 353 888 353 1747 
Q 353 2609 779 3096 
Q 1206 3584 1959 3584 
z
" transform="scale(0.015625)"/>
       <path id="DejaVuSans-63" d="M 3122 3366 
L 3122 2828 
Q 2878 2963 2633 3030 
Q 2388 3097 2138 3097 
Q 1578 3097 1268 2742 
Q 959 2388 959 1747 
Q 959 1106 1268 751 
Q 1578 397 2138 397 
Q 2388 397 2633 464 
Q 2878 531 3122 666 
L 3122 134 
Q 2881 22 2623 -34 
Q 2366 -91 2075 -91 
Q 1284 -91 818 406 
Q 353 903 353 1747 
Q 353 2603 823 3093 
Q 1294 3584 2113 3584 
Q 2378 3584 2631 3529 
Q 2884 3475 3122 3366 
z
" transform="scale(0.015625)"/>
       <path id="DejaVuSans-68" d="M 3513 2113 
L 3513 0 
L 2938 0 
L 2938 2094 
Q 2938 2591 2744 2837 
Q 2550 3084 2163 3084 
Q 1697 3084 1428 2787 
Q 1159 2491 1159 1978 
L 1159 0 
L 581 0 
L 581 4863 
L 1159 4863 
L 1159 2956 
Q 1366 3272 1645 3428 
Q 1925 3584 2291 3584 
Q 2894 3584 3203 3211 
Q 3513 2838 3513 2113 
z
" transform="scale(0.015625)"/>
      </defs>
      <use xlink:href="#DejaVuSans-45"/>
      <use xlink:href="#DejaVuSans-70" transform="translate(63.183594 0)"/>
      <use xlink:href="#DejaVuSans-6f" transform="translate(126.660156 0)"/>
      <use xlink:href="#DejaVuSans-63" transform="translate(187.841797 0)"/>
      <use xlink:href="#DejaVuSans-68" transform="translate(242.822266 0)"/>
     </g>
    </g>
   </g>
   <g id="matplotlib.axis_2">
    <g id="ytick_1">
     <g id="line2d_7">
      <path d="M 75.03 588.192687 
L 1045.625455 588.192687 
" clip-path="url(#p509faa7d48)" style="fill: none; stroke: #cccccc; stroke-opacity: 0.3; stroke-width: 1.5; stroke-linecap: round"/>
     </g>
     <g id="text_8">
      <!-- 0 -->
      <g style="fill: #262626" transform="translate(42.17 600.350187) scale(0.32 -0.32)">
       <use xlink:href="#DejaVuSans-30"/>
      </g>
     </g>
    </g>
    <g id="ytick_2">
     <g id="line2d_8">
      <path d="M 75.03 511.323819 
L 1045.625455 511.323819 
" clip-path="url(#p509faa7d48)" style="fill: none; stroke: #cccccc; stroke-opacity: 0.3; stroke-width: 1.5; stroke-linecap: round"/>
     </g>
     <g id="text_9">
      <!-- 1 -->
      <g style="fill: #262626" transform="translate(42.17 523.481319) scale(0.32 -0.32)">
       <use xlink:href="#DejaVuSans-31"/>
      </g>
     </g>
    </g>
    <g id="ytick_3">
     <g id="line2d_9">
      <path d="M 75.03 434.45495 
L 1045.625455 434.45495 
" clip-path="url(#p509faa7d48)" style="fill: none; stroke: #cccccc; stroke-opacity: 0.3; stroke-width: 1.5; stroke-linecap: round"/>
     </g>
     <g id="text_10">
      <!-- 2 -->
      <g style="fill: #262626" transform="translate(42.17 446.61245) scale(0.32 -0.32)">
       <use xlink:href="#DejaVuSans-32"/>
      </g>
     </g>
    </g>
    <g id="ytick_4">
     <g id="line2d_10">
      <path d="M 75.03 357.586081 
L 1045.625455 357.586081 
" clip-path="url(#p509faa7d48)" style="fill: none; stroke: #cccccc; stroke-opacity: 0.3; stroke-width: 1.5; stroke-linecap: round"/>
     </g>
     <g id="text_11">
      <!-- 3 -->
      <g style="fill: #262626" transform="translate(42.17 369.743581) scale(0.32 -0.32)">
       <defs>
        <path id="DejaVuSans-33" d="M 2597 2516 
Q 3050 2419 3304 2112 
Q 3559 1806 3559 1356 
Q 3559 666 3084 287 
Q 2609 -91 1734 -91 
Q 1441 -91 1130 -33 
Q 819 25 488 141 
L 488 750 
Q 750 597 1062 519 
Q 1375 441 1716 441 
Q 2309 441 2620 675 
Q 2931 909 2931 1356 
Q 2931 1769 2642 2001 
Q 2353 2234 1838 2234 
L 1294 2234 
L 1294 2753 
L 1863 2753 
Q 2328 2753 2575 2939 
Q 2822 3125 2822 3475 
Q 2822 3834 2567 4026 
Q 2313 4219 1838 4219 
Q 1578 4219 1281 4162 
Q 984 4106 628 3988 
L 628 4550 
Q 988 4650 1302 4700 
Q 1616 4750 1894 4750 
Q 2613 4750 3031 4423 
Q 3450 4097 3450 3541 
Q 3450 3153 3228 2886 
Q 3006 2619 2597 2516 
z
" transform="scale(0.015625)"/>
       </defs>
       <use xlink:href="#DejaVuSans-33"/>
      </g>
     </g>
    </g>
    <g id="ytick_5">
     <g id="line2d_11">
      <path d="M 75.03 280.717212 
L 1045.625455 280.717212 
" clip-path="url(#p509faa7d48)" style="fill: none; stroke: #cccccc; stroke-opacity: 0.3; stroke-width: 1.5; stroke-linecap: round"/>
     </g>
     <g id="text_12">
      <!-- 4 -->
      <g style="fill: #262626" transform="translate(42.17 292.874712) scale(0.32 -0.32)">
       <use xlink:href="#DejaVuSans-34"/>
      </g>
     </g>
    </g>
    <g id="ytick_6">
     <g id="line2d_12">
      <path d="M 75.03 203.848343 
L 1045.625455 203.848343 
" clip-path="url(#p509faa7d48)" style="fill: none; stroke: #cccccc; stroke-opacity: 0.3; stroke-width: 1.5; stroke-linecap: round"/>
     </g>
     <g id="text_13">
      <!-- 5 -->
      <g style="fill: #262626" transform="translate(42.17 216.005843) scale(0.32 -0.32)">
       <defs>
        <path id="DejaVuSans-35" d="M 691 4666 
L 3169 4666 
L 3169 4134 
L 1269 4134 
L 1269 2991 
Q 1406 3038 1543 3061 
Q 1681 3084 1819 3084 
Q 2600 3084 3056 2656 
Q 3513 2228 3513 1497 
Q 3513 744 3044 326 
Q 2575 -91 1722 -91 
Q 1428 -91 1123 -41 
Q 819 9 494 109 
L 494 744 
Q 775 591 1075 516 
Q 1375 441 1709 441 
Q 2250 441 2565 725 
Q 2881 1009 2881 1497 
Q 2881 1984 2565 2268 
Q 2250 2553 1709 2553 
Q 1456 2553 1204 2497 
Q 953 2441 691 2322 
L 691 4666 
z
" transform="scale(0.015625)"/>
       </defs>
       <use xlink:href="#DejaVuSans-35"/>
      </g>
     </g>
    </g>
    <g id="ytick_7">
     <g id="line2d_13">
      <path d="M 75.03 126.979474 
L 1045.625455 126.979474 
" clip-path="url(#p509faa7d48)" style="fill: none; stroke: #cccccc; stroke-opacity: 0.3; stroke-width: 1.5; stroke-linecap: round"/>
     </g>
     <g id="text_14">
      <!-- 6 -->
      <g style="fill: #262626" transform="translate(42.17 139.136974) scale(0.32 -0.32)">
       <use xlink:href="#DejaVuSans-36"/>
      </g>
     </g>
    </g>
    <g id="text_15">
     <!-- Loss -->
     <g style="fill: #262626" transform="translate(31.515 367.319375) rotate(-90) scale(0.32 -0.32)">
      <defs>
       <path id="DejaVuSans-4c" d="M 628 4666 
L 1259 4666 
L 1259 531 
L 3531 531 
L 3531 0 
L 628 0 
L 628 4666 
z
" transform="scale(0.015625)"/>
       <path id="DejaVuSans-73" d="M 2834 3397 
L 2834 2853 
Q 2591 2978 2328 3040 
Q 2066 3103 1784 3103 
Q 1356 3103 1142 2972 
Q 928 2841 928 2578 
Q 928 2378 1081 2264 
Q 1234 2150 1697 2047 
L 1894 2003 
Q 2506 1872 2764 1633 
Q 3022 1394 3022 966 
Q 3022 478 2636 193 
Q 2250 -91 1575 -91 
Q 1294 -91 989 -36 
Q 684 19 347 128 
L 347 722 
Q 666 556 975 473 
Q 1284 391 1588 391 
Q 1994 391 2212 530 
Q 2431 669 2431 922 
Q 2431 1156 2273 1281 
Q 2116 1406 1581 1522 
L 1381 1569 
Q 847 1681 609 1914 
Q 372 2147 372 2553 
Q 372 3047 722 3315 
Q 1072 3584 1716 3584 
Q 2034 3584 2315 3537 
Q 2597 3491 2834 3397 
z
" transform="scale(0.015625)"/>
      </defs>
      <use xlink:href="#DejaVuSans-4c"/>
      <use xlink:href="#DejaVuSans-6f" transform="translate(53.962891 0)"/>
      <use xlink:href="#DejaVuSans-73" transform="translate(115.144531 0)"/>
      <use xlink:href="#DejaVuSans-73" transform="translate(167.244141 0)"/>
     </g>
    </g>
   </g>
   <g id="FillBetweenPolyCollection_1"/>
   <g id="FillBetweenPolyCollection_2"/>
   <g id="line2d_14">
    <path d="M 119.147975 79.797102 
L 120.031218 211.051574 
L 120.914461 221.364415 
L 121.797703 224.592856 
L 123.564189 229.398774 
L 124.447432 233.524687 
L 125.330674 238.294207 
L 126.213917 249.833341 
L 127.09716 264.318719 
L 129.746888 314.024274 
L 130.630131 328.59216 
L 131.513374 339.344665 
L 134.163102 364.150415 
L 135.046345 370.81093 
L 135.929587 375.741654 
L 136.81283 381.808869 
L 137.696073 385.397729 
L 138.579316 392.153195 
L 140.345801 399.065889 
L 141.229044 401.318731 
L 142.112287 404.649401 
L 142.995529 407.161057 
L 143.878772 411.500699 
L 144.762015 412.562454 
L 146.5285 418.103997 
L 147.411743 421.367883 
L 148.294986 422.245286 
L 150.061471 426.744942 
L 150.944714 430.231757 
L 151.827957 432.841022 
L 153.594442 436.363942 
L 154.477685 438.359143 
L 155.360928 439.515364 
L 156.244171 439.911282 
L 157.127413 442.392148 
L 158.010656 442.302483 
L 158.893899 444.990307 
L 159.777142 446.772348 
L 160.660384 449.845267 
L 161.543627 450.81853 
L 162.42687 451.133415 
L 163.310113 455.399795 
L 164.193355 455.184921 
L 165.959841 455.93179 
L 166.843084 459.482383 
L 167.726326 461.871358 
L 168.609569 462.367534 
L 169.492812 463.308605 
L 170.376055 464.620458 
L 171.259297 465.694153 
L 172.14254 465.869789 
L 173.025783 467.260339 
L 173.909026 468.393688 
L 174.792268 471.421907 
L 175.675511 471.49297 
L 176.558754 475.113728 
L 178.325239 476.655026 
L 179.208482 478.022951 
L 180.091725 476.305274 
L 180.974967 478.878023 
L 181.85821 480.001713 
L 182.741453 481.405495 
L 183.624696 485.277827 
L 184.507938 484.817078 
L 185.391181 483.664128 
L 186.274424 486.670951 
L 187.157667 486.278544 
L 188.040909 485.273584 
L 188.924152 484.601434 
L 189.807395 487.205164 
L 190.690638 491.327733 
L 191.57388 489.745456 
L 192.457123 492.666316 
L 193.340366 492.549958 
L 194.223609 491.860626 
L 195.106851 492.287974 
L 195.990094 495.544667 
L 196.873337 492.772924 
L 197.75658 492.481168 
L 199.523065 497.398201 
L 200.406308 497.56384 
L 201.289551 498.330604 
L 202.172793 499.887764 
L 203.939279 495.145836 
L 204.822522 499.393586 
L 205.705764 501.235474 
L 206.589007 500.73425 
L 207.47225 501.687005 
L 209.238735 504.215805 
L 210.121978 508.739111 
L 211.005221 508.349938 
L 211.888464 507.496882 
L 212.771706 505.786381 
L 214.538192 508.98462 
L 215.421435 506.93856 
L 218.071163 508.662193 
L 218.954406 510.756003 
L 219.837648 504.860007 
L 220.720891 507.303835 
L 221.604134 512.235695 
L 222.487377 515.293504 
L 223.370619 514.008527 
L 224.253862 513.608591 
L 225.137105 511.803852 
L 226.020348 513.485356 
L 226.90359 509.789054 
L 227.786833 513.299401 
L 228.670076 514.295784 
L 229.553319 513.701697 
L 231.319804 517.748011 
L 232.203047 515.572069 
L 233.08629 519.730508 
L 233.969532 518.681651 
L 234.852775 521.134642 
L 235.736018 519.562202 
L 236.619261 516.652719 
L 237.502503 519.434358 
L 238.385746 521.243963 
L 239.268989 521.865952 
L 240.152232 523.041261 
L 241.035474 521.181752 
L 241.918717 517.976833 
L 242.80196 519.332639 
L 243.685203 524.127573 
L 244.568445 524.411733 
L 245.451688 523.088815 
L 246.334931 522.122791 
L 247.218174 521.52815 
L 248.101416 520.337305 
L 248.984659 525.129092 
L 249.867902 528.093149 
L 250.751144 527.038281 
L 251.634387 528.682993 
L 253.400873 519.03702 
L 254.284115 523.799983 
L 255.167358 523.666444 
L 256.050601 526.818866 
L 256.933844 528.961856 
L 257.817086 529.620784 
L 258.700329 532.012971 
L 259.583572 529.453711 
L 260.466815 527.429708 
L 261.350057 526.286316 
L 262.2333 529.734759 
L 263.116543 521.50503 
L 263.999786 522.01222 
L 264.883028 527.032828 
L 265.766271 533.484741 
L 266.649514 534.644462 
L 268.415999 530.036994 
L 269.299242 533.017847 
L 270.182485 530.547372 
L 271.065728 531.902876 
L 271.94897 528.09461 
L 272.832213 532.408462 
L 273.715456 533.783553 
L 274.598699 531.774267 
L 275.481941 536.161234 
L 276.365184 533.835652 
L 277.248427 529.778167 
L 278.13167 534.693097 
L 279.014912 536.413481 
L 279.898155 537.142056 
L 280.781398 535.305534 
L 281.664641 534.866754 
L 282.547883 536.184678 
L 283.431126 537.174779 
L 284.314369 533.529591 
L 285.197612 534.368783 
L 286.964097 531.661079 
L 287.84734 536.923842 
L 288.730583 534.827296 
L 289.613825 534.613874 
L 290.497068 535.841941 
L 291.380311 540.234851 
L 292.263554 542.151856 
L 293.146796 537.49382 
L 294.030039 537.835255 
L 294.913282 539.190997 
L 295.796525 540.889742 
L 296.679767 543.290469 
L 297.56301 538.683056 
L 298.446253 540.32902 
L 299.329496 541.610959 
L 300.212738 536.482652 
L 301.095981 528.542489 
L 301.979224 538.040765 
L 304.628952 544.614854 
L 305.512195 544.889429 
L 306.395438 534.409611 
L 307.27868 532.983603 
L 308.161923 534.66047 
L 309.928409 547.583506 
L 310.811651 547.318127 
L 311.694894 547.654253 
L 312.578137 538.169026 
L 313.46138 537.117127 
L 314.344622 541.55217 
L 315.227865 543.437864 
L 316.111108 542.244078 
L 316.994351 542.780123 
L 317.877593 547.292245 
L 318.760836 546.561196 
L 319.644079 537.879437 
L 320.527321 539.545693 
L 321.410564 546.960124 
L 322.293807 548.390209 
L 323.17705 547.872459 
L 324.060292 546.326574 
L 325.826778 530.62216 
L 327.593263 540.769476 
L 328.476506 545.05521 
L 329.359749 546.965915 
L 330.242992 551.305365 
L 331.126234 551.477678 
L 332.89272 534.784897 
L 333.775963 542.719653 
L 334.659205 527.041543 
L 335.542448 525.45276 
L 338.192176 550.925163 
L 339.075419 553.302471 
L 339.958662 551.739226 
L 340.841905 552.236315 
L 341.725147 554.188261 
L 343.491633 547.935219 
L 344.374876 550.264199 
L 345.258118 550.126497 
L 346.141361 547.667481 
L 347.024604 546.540487 
L 347.907847 547.562875 
L 348.791089 549.98006 
L 349.674332 550.39098 
L 350.557575 536.63297 
L 351.440818 534.443456 
L 352.32406 548.231805 
L 353.207303 552.584764 
L 354.090546 555.343336 
L 354.973789 553.662231 
L 355.857031 555.966655 
L 356.740274 555.119697 
L 357.623517 557.306269 
L 358.50676 557.301204 
L 359.390002 521.17843 
L 360.273245 517.765523 
L 361.156488 540.440938 
L 362.039731 552.501019 
L 362.922973 559.039441 
L 363.806216 558.346622 
L 364.689459 556.926246 
L 365.572702 554.891964 
L 366.455944 554.826262 
L 367.339187 554.293934 
L 368.22243 556.902336 
L 369.105673 547.217705 
L 369.988915 528.14155 
L 370.872158 528.967203 
L 371.755401 545.577964 
L 372.638644 552.636821 
L 373.521886 555.169562 
L 374.405129 558.081713 
L 375.288372 556.97029 
L 376.171615 557.329973 
L 377.054857 557.245183 
L 377.9381 559.983814 
L 378.821343 553.110033 
L 379.704586 540.552654 
L 381.471071 550.154564 
L 382.354314 556.266931 
L 383.237557 557.717799 
L 384.120799 561.817337 
L 385.004042 560.710558 
L 385.887285 536.464669 
L 386.770528 527.868286 
L 387.65377 536.802641 
L 388.537013 549.324527 
L 390.303498 560.980111 
L 391.186741 560.770803 
L 392.069984 556.502157 
L 392.953227 561.134156 
L 393.836469 562.770974 
L 394.719712 559.108522 
L 395.602955 550.278844 
L 396.486198 502.476237 
L 397.36944 518.471569 
L 398.252683 542.703379 
L 399.135926 551.517898 
L 400.019169 556.947423 
L 400.902411 560.693301 
L 401.785654 562.385157 
L 402.668897 560.753491 
L 403.55214 561.814767 
L 404.435382 562.108807 
L 405.318625 548.331018 
L 406.201868 531.628856 
L 407.085111 541.452673 
L 407.968353 555.091565 
L 408.851596 560.681925 
L 409.734839 560.891372 
L 410.618082 560.916253 
L 411.501324 558.016893 
L 412.384567 558.823882 
L 413.26781 560.690779 
L 414.151053 559.063605 
L 415.034295 561.016747 
L 415.917538 553.067865 
L 416.800781 542.497017 
L 418.567266 557.577978 
L 419.450509 557.880932 
L 420.333752 554.85405 
L 421.216995 553.047918 
L 422.100237 550.95735 
L 422.98348 560.241276 
L 423.866723 559.718089 
L 424.749966 559.424138 
L 425.633208 532.918465 
L 426.516451 551.724833 
L 428.282937 560.952353 
L 429.166179 564.119239 
L 430.049422 562.919434 
L 430.932665 559.6673 
L 431.815908 558.371146 
L 432.69915 560.00406 
L 433.582393 560.118618 
L 434.465636 558.253863 
L 435.348879 527.77842 
L 436.232121 526.389698 
L 437.115364 540.965602 
L 437.998607 558.611227 
L 438.88185 564.91377 
L 439.765092 567.132581 
L 440.648335 566.268719 
L 441.531578 566.236347 
L 442.414821 566.319402 
L 443.298063 563.974279 
L 444.181306 563.912428 
L 445.064549 539.325714 
L 445.947792 524.99514 
L 446.831034 524.676709 
L 447.714277 553.188575 
L 448.59752 564.089606 
L 449.480763 567.372656 
L 450.364005 568.390226 
L 451.247248 568.287698 
L 452.130491 567.876478 
L 453.013734 566.04647 
L 453.896976 565.310975 
L 454.780219 563.490466 
L 455.663462 562.955137 
L 456.546705 557.655879 
L 457.429947 484.565375 
L 458.31319 536.237401 
L 459.196433 555.239368 
L 460.079676 561.050597 
L 460.962918 565.795826 
L 461.846161 567.820569 
L 462.729404 566.572968 
L 463.612646 564.710201 
L 464.495889 567.730567 
L 465.379132 563.00213 
L 467.145617 556.934307 
L 468.912103 531.563506 
L 469.795346 542.527284 
L 470.678588 555.634864 
L 471.561831 561.011957 
L 472.445074 564.681492 
L 473.328317 567.233703 
L 474.211559 563.49411 
L 475.094802 563.811811 
L 475.978045 566.212272 
L 476.861288 563.063095 
L 477.74453 561.260035 
L 478.627773 562.872668 
L 479.511016 561.570666 
L 480.394259 560.515786 
L 481.277501 517.764556 
L 482.160744 519.569895 
L 483.043987 547.484371 
L 483.92723 563.320279 
L 484.810472 568.265039 
L 485.693715 569.229335 
L 487.460201 569.813019 
L 488.343443 569.608613 
L 489.226686 555.987346 
L 490.109929 558.41473 
L 490.993172 563.117659 
L 491.876414 554.984577 
L 492.759657 549.029976 
L 493.6429 559.594253 
L 494.526143 566.742141 
L 495.409385 557.001219 
L 496.292628 541.419043 
L 497.175871 517.64034 
L 498.942356 554.968552 
L 499.825599 565.420964 
L 501.592085 571.517152 
L 502.475327 572.712127 
L 503.35857 571.303948 
L 504.241813 569.497534 
L 505.125056 563.325821 
L 506.008298 529.350401 
L 506.891541 515.323647 
L 507.774784 543.619503 
L 508.658027 556.734619 
L 509.541269 567.092035 
L 510.424512 569.105978 
L 511.307755 569.633807 
L 512.190998 570.975333 
L 513.957483 572.846932 
L 514.840726 572.196194 
L 515.723969 568.556914 
L 516.607211 568.397392 
L 517.490454 562.395752 
L 518.373697 545.045304 
L 519.25694 525.157938 
L 521.023425 559.627604 
L 521.906668 566.483175 
L 522.789911 570.983997 
L 523.673153 573.51589 
L 524.556396 572.945075 
L 525.439639 571.152137 
L 526.322882 572.236997 
L 527.206124 571.882805 
L 528.089367 554.35752 
L 528.97261 558.416824 
L 529.855853 556.664999 
L 530.739095 560.144757 
L 531.622338 567.330783 
L 532.505581 568.118733 
L 533.388823 559.034408 
L 534.272066 546.579693 
L 535.155309 532.477706 
L 536.038552 553.99463 
L 536.921794 566.604838 
L 537.805037 572.197242 
L 538.68828 572.301662 
L 540.454765 572.084779 
L 541.338008 566.376743 
L 542.221251 554.438985 
L 543.104494 548.745102 
L 543.987736 554.667172 
L 544.870979 562.206866 
L 545.754222 565.220465 
L 546.637465 569.872803 
L 547.520707 570.657606 
L 548.40395 568.777397 
L 549.287193 514.313121 
L 550.170436 530.204612 
L 551.053678 552.397803 
L 551.936921 566.656747 
L 552.820164 572.031054 
L 553.703407 572.579538 
L 554.586649 571.991839 
L 555.469892 570.539699 
L 556.353135 570.859222 
L 557.236378 572.831865 
L 558.11962 571.679406 
L 559.002863 571.775473 
L 560.769349 540.250342 
L 561.652591 543.249715 
L 562.535834 524.088001 
L 563.419077 548.665031 
L 564.30232 560.637871 
L 565.185562 567.292535 
L 566.068805 570.758172 
L 566.952048 573.186146 
L 567.835291 574.454434 
L 568.718533 574.642688 
L 569.601776 571.949082 
L 570.485019 568.836994 
L 571.368262 567.551744 
L 572.251504 542.911092 
L 573.134747 529.548305 
L 574.01799 525.496951 
L 574.901233 552.935902 
L 575.784475 566.144944 
L 576.667718 571.400615 
L 577.550961 573.408617 
L 578.434204 573.884038 
L 579.317446 573.664885 
L 580.200689 574.284727 
L 581.083932 572.647004 
L 581.967175 572.976916 
L 582.850417 571.595626 
L 583.73366 555.066867 
L 584.616903 504.353322 
L 585.500146 527.056136 
L 586.383388 545.144141 
L 587.266631 553.70031 
L 588.149874 564.096319 
L 589.033117 570.304283 
L 589.916359 573.66698 
L 590.799602 575.376471 
L 591.682845 575.225103 
L 592.566088 574.430091 
L 593.44933 574.31789 
L 594.332573 548.023867 
L 595.215816 500.582457 
L 596.099059 505.128708 
L 596.982301 548.330706 
L 597.865544 564.436753 
L 598.748787 571.663446 
L 599.63203 575.402804 
L 600.515272 575.953909 
L 601.398515 575.425079 
L 602.281758 576.856687 
L 603.165 575.80269 
L 604.048243 570.654279 
L 605.814729 501.17954 
L 606.697971 538.888974 
L 607.581214 564.433031 
L 608.464457 571.688203 
L 609.3477 574.229319 
L 610.230942 574.947547 
L 611.114185 574.396926 
L 611.997428 574.550531 
L 612.880671 572.180099 
L 613.763913 571.386473 
L 614.647156 572.988368 
L 615.530399 569.205078 
L 616.413642 560.731994 
L 617.296884 529.806156 
L 618.180127 552.992287 
L 619.06337 561.600621 
L 619.946613 566.093573 
L 620.829855 572.586303 
L 621.713098 575.643226 
L 622.596341 576.461043 
L 623.479584 576.54217 
L 624.362826 576.328344 
L 625.246069 574.575499 
L 626.129312 575.129778 
L 627.012555 531.419695 
L 627.895797 553.024616 
L 628.77904 562.28393 
L 629.662283 569.858223 
L 630.545526 571.630989 
L 631.428768 574.481 
L 632.312011 575.065959 
L 633.195254 573.478574 
L 634.078497 573.681211 
L 634.961739 567.12334 
L 635.844982 542.039384 
L 636.728225 544.491152 
L 637.611468 564.789419 
L 638.49471 573.744991 
L 639.377953 576.191811 
L 640.261196 577.432164 
L 641.144439 576.451361 
L 642.027681 575.901895 
L 642.910924 576.738152 
L 643.794167 576.948246 
L 644.67741 574.44767 
L 645.560652 520.787704 
L 646.443895 549.492136 
L 647.327138 564.946953 
L 648.210381 569.667734 
L 649.093623 572.354576 
L 649.976866 573.853043 
L 650.860109 576.025886 
L 651.743352 576.087403 
L 652.626594 566.130848 
L 653.509837 552.985004 
L 654.39308 558.644468 
L 655.276323 553.048922 
L 656.159565 562.79873 
L 657.042808 570.002432 
L 657.926051 575.582111 
L 658.809294 577.545576 
L 659.692536 577.726456 
L 660.575779 579.185848 
L 661.459022 571.540814 
L 662.342265 485.642268 
L 663.225507 530.60683 
L 664.10875 560.574384 
L 664.991993 571.230795 
L 665.875236 576.67814 
L 666.758478 578.138798 
L 667.641721 578.323559 
L 668.524964 578.760228 
L 669.408207 578.837741 
L 670.291449 579.38974 
L 671.174692 579.095892 
L 672.057935 572.857842 
L 672.941177 574.329983 
L 673.82442 575.225291 
L 674.707663 569.033496 
L 675.590906 485.424589 
L 676.474148 538.240304 
L 677.357391 564.989625 
L 678.240634 574.514681 
L 679.123877 577.564371 
L 680.007119 579.127202 
L 680.890362 579.639532 
L 681.773605 579.579948 
L 683.54009 575.249228 
L 684.423333 573.974769 
L 685.306576 574.232169 
L 686.189819 534.8685 
L 687.073061 525.764249 
L 687.956304 539.766803 
L 688.839547 557.639428 
L 689.72279 570.698254 
L 690.606032 577.264047 
L 691.489275 577.71463 
L 692.372518 577.388091 
L 693.255761 577.551308 
L 694.139003 578.451331 
L 695.022246 574.603517 
L 695.905489 574.503509 
L 696.788732 577.049486 
L 697.671974 574.722018 
L 698.555217 568.249349 
L 699.43846 566.794238 
L 700.321703 557.183724 
L 701.204945 549.451405 
L 702.088188 553.89817 
L 702.971431 567.364887 
L 703.854674 574.856248 
L 704.737916 577.76936 
L 705.621159 577.636113 
L 706.504402 578.28514 
L 707.387645 577.586599 
L 708.270887 571.730105 
L 709.15413 560.85486 
L 710.037373 561.498778 
L 710.920616 558.529484 
L 711.803858 541.989699 
L 712.687101 547.54546 
L 713.570344 565.842221 
L 714.453587 573.862102 
L 715.336829 579.433746 
L 716.220072 580.62727 
L 717.103315 579.466382 
L 717.986558 565.061419 
L 718.8698 568.425359 
L 719.753043 554.520282 
L 720.636286 567.607245 
L 721.519529 574.765659 
L 722.402771 576.657934 
L 723.286014 578.057366 
L 724.169257 577.943724 
L 725.0525 553.142923 
L 725.935742 507.364754 
L 726.818985 546.264629 
L 727.702228 569.983445 
L 728.585471 577.10481 
L 729.468713 578.970987 
L 731.235199 580.084589 
L 732.118442 580.39822 
L 733.001684 579.860415 
L 733.884927 580.087943 
L 734.76817 576.892223 
L 735.651413 574.551189 
L 736.534655 561.651238 
L 737.417898 529.808388 
L 738.301141 534.229379 
L 739.184384 562.220187 
L 740.067626 573.659697 
L 740.950869 578.762305 
L 742.717355 581.046259 
L 743.600597 581.438507 
L 744.48384 580.980523 
L 745.367083 578.83705 
L 746.250325 566.361834 
L 747.133568 566.043554 
L 748.016811 567.596297 
L 748.900054 563.615932 
L 749.783296 553.094515 
L 750.666539 527.439623 
L 751.549782 558.484237 
L 752.433025 572.029265 
L 753.316267 576.013902 
L 755.082753 579.741489 
L 755.965996 580.317365 
L 756.849238 579.39634 
L 757.732481 579.265651 
L 758.615724 577.173371 
L 759.498967 577.162093 
L 760.382209 503.144924 
L 761.265452 523.661597 
L 762.148695 554.077383 
L 763.91518 573.840559 
L 764.798423 579.531236 
L 765.681666 581.239067 
L 766.564909 582.190653 
L 768.331394 582.567546 
L 769.214637 582.449723 
L 770.09788 580.307058 
L 770.981122 575.637902 
L 771.864365 577.079847 
L 772.747608 518.063712 
L 773.630851 510.679626 
L 774.514093 549.007599 
L 775.397336 565.297168 
L 777.163822 578.479286 
L 778.047064 580.77065 
L 778.930307 582.183892 
L 780.696793 582.565202 
L 781.580035 581.931572 
L 782.463278 567.885121 
L 784.229764 523.022315 
L 785.996249 564.411831 
L 786.879492 574.580214 
L 787.762735 578.589921 
L 788.645977 580.671335 
L 789.52922 582.301193 
L 790.412463 582.179496 
L 791.295706 582.577369 
L 792.178948 578.104845 
L 793.062191 574.240372 
L 793.945434 568.376252 
L 794.828677 575.139176 
L 795.711919 570.306545 
L 796.595162 530.223086 
L 797.478405 537.388838 
L 798.361648 565.418162 
L 799.24489 577.277659 
L 800.128133 580.516593 
L 801.011376 581.599314 
L 801.894619 582.251453 
L 803.661104 580.165762 
L 804.544347 579.743909 
L 805.42759 571.006714 
L 806.310832 567.002581 
L 807.194075 568.546376 
L 808.077318 568.924757 
L 809.843803 514.903483 
L 810.727046 549.349662 
L 811.610289 568.79171 
L 812.493532 575.094735 
L 813.376774 579.883376 
L 814.260017 581.905337 
L 815.14326 583.124435 
L 816.026502 583.265237 
L 816.909745 583.129001 
L 818.676231 582.337982 
L 819.559473 573.265984 
L 820.442716 570.447225 
L 821.325959 526.42895 
L 822.209202 522.452438 
L 823.092444 554.994359 
L 823.975687 570.580967 
L 824.85893 576.888181 
L 825.742173 580.093209 
L 826.625415 581.774214 
L 827.508658 581.010858 
L 828.391901 581.486843 
L 829.275144 582.148985 
L 830.158386 582.107858 
L 831.041629 581.94111 
L 831.924872 576.728831 
L 832.808115 495.639601 
L 833.691357 521.7979 
L 834.5746 532.503909 
L 835.457843 560.886135 
L 836.341086 574.62741 
L 837.224328 580.137801 
L 838.107571 581.634123 
L 838.990814 582.028205 
L 841.640542 581.850127 
L 842.523785 581.200043 
L 843.407028 581.689121 
L 844.29027 582.014783 
L 845.173513 580.532194 
L 846.056756 579.493098 
L 846.939999 532.791981 
L 847.823241 515.283529 
L 848.706484 558.298374 
L 849.589727 574.397415 
L 850.47297 579.604699 
L 851.356212 582.576963 
L 852.239455 583.395087 
L 853.122698 582.432949 
L 854.005941 582.910423 
L 855.772426 581.215532 
L 856.655669 580.735232 
L 857.538912 578.705357 
L 858.422154 494.208182 
L 859.305397 521.054448 
L 860.18864 563.694312 
L 861.071883 576.604312 
L 861.955125 579.623024 
L 862.838368 580.763752 
L 863.721611 581.225894 
L 864.604854 580.002282 
L 865.488096 577.781555 
L 867.254582 581.625066 
L 868.137825 581.711762 
L 869.021067 581.99283 
L 869.90431 581.216475 
L 870.787553 558.118713 
L 871.670796 515.911943 
L 872.554038 542.337646 
L 873.437281 560.654819 
L 874.320524 573.779521 
L 875.203767 579.870915 
L 876.087009 581.503855 
L 876.970252 582.708256 
L 879.61998 583.373505 
L 880.503223 579.678018 
L 881.386466 580.193776 
L 882.269709 579.869099 
L 883.152951 543.845085 
L 884.036194 493.076923 
L 884.919437 542.192304 
L 885.802679 568.147442 
L 886.685922 578.160442 
L 887.569165 581.224242 
L 888.452408 582.652963 
L 889.33565 583.461625 
L 890.218893 583.739198 
L 891.102136 583.741336 
L 891.985379 584.055486 
L 892.868621 583.135132 
L 894.635107 580.787232 
L 895.51835 579.242671 
L 896.401592 524.887446 
L 897.284835 520.71747 
L 898.168078 555.25909 
L 899.051321 571.634783 
L 899.934563 578.423838 
L 900.817806 581.901706 
L 902.584292 583.920744 
L 903.467534 583.988048 
L 904.350777 584.288196 
L 905.23402 583.860642 
L 906.117263 582.611243 
L 907.000505 547.802844 
L 907.883748 519.665544 
L 908.766991 562.512756 
L 909.650234 575.139371 
L 910.533476 579.860356 
L 911.416719 582.020532 
L 912.299962 582.991321 
L 913.183205 582.656738 
L 914.066447 582.651425 
L 914.94969 579.587507 
L 915.832933 580.034253 
L 916.716176 578.987005 
L 917.599418 560.839919 
L 918.482661 561.755071 
L 919.365904 538.727243 
L 920.249147 550.792922 
L 921.132389 566.89787 
L 922.015632 576.472569 
L 922.898875 581.401963 
L 923.782118 583.181148 
L 924.66536 583.381445 
L 925.548603 582.640753 
L 927.315089 582.249873 
L 928.198331 579.020876 
L 929.081574 573.265014 
L 929.964817 577.388827 
L 930.84806 575.233159 
L 931.731302 526.276566 
L 932.614545 521.312634 
L 933.497788 558.155477 
L 934.381031 576.013604 
L 935.264273 581.336356 
L 936.147516 583.331872 
L 937.914002 583.332143 
L 938.797244 584.094986 
L 939.680487 584.109664 
L 940.56373 582.802515 
L 941.446973 581.898071 
L 942.330215 582.050259 
L 943.213458 557.577142 
L 944.096701 416.542631 
L 944.979944 509.003771 
L 945.863186 566.523327 
L 946.746429 578.181394 
L 947.629672 582.797427 
L 948.512915 583.364736 
L 949.396157 583.700886 
L 951.162643 584.651648 
L 952.929128 583.755295 
L 953.812371 583.660297 
L 954.695614 583.359949 
L 955.578857 582.676824 
L 956.462099 568.939545 
L 957.345342 522.127946 
L 958.228585 539.946252 
L 959.111827 562.245036 
L 959.99507 574.527809 
L 960.878313 579.128575 
L 961.761556 581.092547 
L 962.644798 580.818341 
L 963.528041 581.725516 
L 964.411284 582.230397 
L 965.294527 580.814981 
L 966.177769 582.614995 
L 967.061012 582.106639 
L 967.944255 534.786253 
L 968.827498 505.825454 
L 969.71074 548.433804 
L 970.593983 572.519294 
L 971.477226 579.281288 
L 972.360469 582.9308 
L 973.243711 583.988409 
L 974.126954 583.343761 
L 975.010197 581.985541 
L 975.89344 579.736503 
L 976.776682 581.568871 
L 977.659925 582.553908 
L 978.543168 579.223229 
L 979.426411 556.142832 
L 980.309653 567.946457 
L 981.192896 567.609504 
L 982.076139 536.777061 
L 983.842624 572.616303 
L 984.725867 576.08107 
L 985.60911 580.454682 
L 986.492353 582.804353 
L 988.258838 584.523675 
L 989.142081 584.281999 
L 990.025324 582.738637 
L 990.908566 577.325807 
L 991.791809 565.42194 
L 992.675052 541.524895 
L 993.558295 539.880201 
L 994.441537 562.066827 
L 995.32478 569.967935 
L 996.208023 571.388347 
L 997.091266 567.97181 
L 997.974508 574.706596 
L 998.857751 580.456711 
L 999.740994 583.124964 
L 1000.624237 583.258821 
L 1001.507479 576.170903 
L 1001.507479 576.170903 
" clip-path="url(#p509faa7d48)" style="fill: none; stroke: #4c72b0; stroke-width: 6; stroke-linecap: round"/>
   </g>
   <g id="line2d_15">
    <path d="M 119.147975 195.682213 
L 120.031218 218.883493 
L 120.914461 220.001585 
L 121.797703 222.51073 
L 124.447432 231.298547 
L 125.330674 237.734244 
L 126.213917 250.053338 
L 127.980403 284.166274 
L 128.863645 303.531335 
L 129.746888 319.05006 
L 130.630131 332.102746 
L 131.513374 341.143017 
L 133.279859 355.877843 
L 134.163102 363.211965 
L 135.929587 375.761758 
L 136.81283 380.453682 
L 137.696073 386.234667 
L 138.579316 390.446845 
L 139.462558 391.074635 
L 140.345801 392.595224 
L 141.229044 396.849316 
L 142.995529 402.548819 
L 143.878772 404.903174 
L 144.762015 406.794627 
L 146.5285 414.503224 
L 147.411743 416.024931 
L 148.294986 417.052964 
L 149.178229 419.174273 
L 150.061471 421.881826 
L 150.944714 426.678451 
L 151.827957 429.351183 
L 152.7112 430.001277 
L 153.594442 427.252287 
L 154.477685 430.51511 
L 155.360928 431.410804 
L 156.244171 436.602247 
L 157.127413 435.863066 
L 158.010656 436.311554 
L 158.893899 439.004637 
L 160.660384 444.937782 
L 161.543627 442.273087 
L 162.42687 448.411915 
L 163.310113 446.915958 
L 164.193355 447.293091 
L 165.076598 448.756453 
L 165.959841 451.902598 
L 166.843084 458.079546 
L 167.726326 453.962604 
L 168.609569 452.637087 
L 169.492812 453.728733 
L 170.376055 457.078041 
L 171.259297 459.842536 
L 172.14254 461.414403 
L 173.025783 459.14831 
L 173.909026 460.583486 
L 174.792268 463.973379 
L 175.675511 466.294618 
L 176.558754 465.780171 
L 177.441997 468.511548 
L 178.325239 468.51065 
L 179.208482 470.291619 
L 180.091725 468.191624 
L 180.974967 472.958303 
L 181.85821 475.197097 
L 182.741453 479.567346 
L 183.624696 478.948114 
L 184.507938 476.845581 
L 185.391181 475.808687 
L 186.274424 480.82059 
L 187.157667 474.792227 
L 188.040909 480.687838 
L 188.924152 477.932498 
L 189.807395 484.822567 
L 190.690638 481.236529 
L 191.57388 486.46393 
L 192.457123 485.348303 
L 193.340366 488.585194 
L 194.223609 485.798551 
L 195.106851 487.192509 
L 195.990094 490.084166 
L 196.873337 481.633693 
L 197.75658 485.808631 
L 198.639822 484.947493 
L 199.523065 494.658622 
L 200.406308 488.870856 
L 201.289551 491.310038 
L 202.172793 494.753199 
L 203.056036 489.604017 
L 203.939279 486.511232 
L 204.822522 494.498784 
L 205.705764 492.84582 
L 206.589007 494.263777 
L 207.47225 498.851796 
L 208.355493 492.69442 
L 209.238735 500.315974 
L 210.121978 503.300245 
L 211.005221 500.85113 
L 211.888464 501.074994 
L 212.771706 498.153556 
L 213.654949 500.270339 
L 214.538192 501.934831 
L 215.421435 503.275504 
L 216.304677 494.875192 
L 218.071163 504.865011 
L 218.954406 503.600899 
L 219.837648 498.094873 
L 221.604134 507.229767 
L 222.487377 504.908427 
L 223.370619 507.082427 
L 224.253862 500.738337 
L 225.137105 507.629505 
L 226.020348 505.697229 
L 226.90359 505.425541 
L 227.786833 509.133059 
L 228.670076 503.516998 
L 229.553319 510.009592 
L 230.436561 509.974523 
L 231.319804 507.315454 
L 232.203047 513.123637 
L 233.08629 507.609776 
L 233.969532 513.009258 
L 234.852775 513.287356 
L 235.736018 510.104718 
L 236.619261 517.139396 
L 237.502503 515.169613 
L 238.385746 514.686001 
L 239.268989 513.155489 
L 240.152232 515.381244 
L 241.035474 516.077197 
L 241.918717 505.315222 
L 242.80196 516.394446 
L 243.685203 518.647196 
L 244.568445 517.522383 
L 245.451688 515.600792 
L 246.334931 515.060412 
L 247.218174 515.453704 
L 248.101416 514.112743 
L 248.984659 518.14939 
L 249.867902 520.593401 
L 250.751144 520.936358 
L 251.634387 522.992259 
L 252.51763 518.907962 
L 253.400873 513.363294 
L 254.284115 515.475165 
L 255.167358 518.866818 
L 256.050601 524.22302 
L 256.933844 521.645745 
L 257.817086 526.174741 
L 258.700329 521.280259 
L 259.583572 521.510927 
L 260.466815 503.86346 
L 261.350057 523.667823 
L 262.2333 518.540694 
L 263.116543 506.241082 
L 263.999786 511.668118 
L 264.883028 530.0826 
L 265.766271 527.953286 
L 266.649514 526.231298 
L 267.532757 524.109224 
L 268.415999 527.266025 
L 269.299242 522.116945 
L 270.182485 528.223444 
L 271.065728 516.298889 
L 271.94897 526.67526 
L 272.832213 529.462833 
L 273.715456 520.923479 
L 274.598699 528.592476 
L 275.481941 522.721854 
L 276.365184 528.52545 
L 277.248427 528.331289 
L 278.13167 531.583767 
L 279.014912 531.102258 
L 279.898155 526.276942 
L 280.781398 529.081325 
L 281.664641 530.486165 
L 282.547883 530.438625 
L 283.431126 522.594788 
L 284.314369 524.753494 
L 285.197612 524.393864 
L 286.080854 518.624031 
L 286.964097 523.136497 
L 287.84734 532.023527 
L 288.730583 527.918204 
L 289.613825 528.364278 
L 290.497068 529.905832 
L 291.380311 531.729599 
L 292.263554 528.258444 
L 293.146796 527.173644 
L 294.030039 528.059642 
L 294.913282 535.205217 
L 295.796525 537.141222 
L 296.679767 534.358405 
L 297.56301 534.227917 
L 298.446253 538.600196 
L 299.329496 530.146832 
L 300.212738 519.187535 
L 301.979224 536.917093 
L 302.862467 528.064998 
L 303.745709 536.024001 
L 304.628952 535.541411 
L 305.512195 537.523523 
L 306.395438 512.106824 
L 307.27868 528.535942 
L 308.161923 530.049438 
L 309.045166 540.381311 
L 309.928409 538.27404 
L 310.811651 542.221581 
L 311.694894 540.235332 
L 312.578137 530.472969 
L 313.46138 534.496999 
L 314.344622 534.496238 
L 315.227865 534.341009 
L 316.111108 532.431733 
L 316.994351 541.820069 
L 317.877593 541.016895 
L 318.760836 533.101812 
L 319.644079 530.848471 
L 320.527321 540.594669 
L 321.410564 541.001445 
L 322.293807 543.140138 
L 323.17705 540.066307 
L 324.060292 543.401444 
L 324.943535 531.78277 
L 325.826778 526.127494 
L 326.710021 536.635668 
L 327.593263 537.859186 
L 328.476506 540.650145 
L 329.359749 541.217401 
L 330.242992 547.124466 
L 332.009477 525.556898 
L 332.89272 527.502246 
L 333.775963 524.147976 
L 334.659205 532.4574 
L 335.542448 526.702393 
L 336.425691 529.503734 
L 337.308934 540.213193 
L 338.192176 544.305522 
L 339.075419 547.638304 
L 339.958662 543.532647 
L 340.841905 548.258741 
L 341.725147 548.392065 
L 342.60839 541.369167 
L 343.491633 542.017666 
L 344.374876 543.954414 
L 345.258118 539.898088 
L 346.141361 542.648247 
L 347.024604 542.317954 
L 347.907847 545.46364 
L 348.791089 541.109638 
L 349.674332 541.212311 
L 350.557575 502.14057 
L 351.440818 535.38373 
L 352.32406 545.827238 
L 353.207303 551.336173 
L 354.090546 545.812127 
L 354.973789 547.88679 
L 355.857031 550.309803 
L 356.740274 549.937477 
L 358.50676 551.862862 
L 359.390002 479.776686 
L 360.273245 521.531261 
L 361.156488 543.352222 
L 362.039731 551.258228 
L 362.922973 552.715167 
L 363.806216 552.140296 
L 364.689459 550.621462 
L 365.572702 546.257903 
L 366.455944 549.20498 
L 367.339187 551.609872 
L 368.22243 548.476405 
L 369.988915 518.464729 
L 370.872158 528.303341 
L 371.755401 545.368289 
L 372.638644 543.09405 
L 373.521886 552.711983 
L 374.405129 554.211387 
L 375.288372 552.115793 
L 376.171615 549.318158 
L 377.054857 552.005721 
L 377.9381 551.836957 
L 378.821343 546.386742 
L 379.704586 537.387954 
L 380.587828 540.9257 
L 381.471071 545.24948 
L 382.354314 551.265101 
L 383.237557 552.978338 
L 384.120799 555.506199 
L 385.004042 554.08692 
L 385.887285 530.709589 
L 386.770528 535.431436 
L 387.65377 537.063008 
L 388.537013 546.670993 
L 389.420256 553.053265 
L 390.303498 552.872683 
L 391.186741 546.902009 
L 392.069984 552.316901 
L 392.953227 554.072128 
L 393.836469 557.001943 
L 394.719712 549.05567 
L 395.602955 531.804057 
L 396.486198 499.284559 
L 397.36944 533.452297 
L 398.252683 544.862676 
L 399.135926 547.240957 
L 400.019169 553.308425 
L 400.902411 555.714329 
L 401.785654 554.12797 
L 402.668897 556.172783 
L 403.55214 555.366252 
L 404.435382 556.077574 
L 405.318625 485.64597 
L 406.201868 533.007626 
L 407.085111 545.332313 
L 407.968353 554.27873 
L 408.851596 555.891535 
L 410.618082 555.726047 
L 411.501324 550.022899 
L 412.384567 550.761519 
L 413.26781 547.309633 
L 414.151053 554.09089 
L 415.034295 544.293843 
L 415.917538 542.011802 
L 416.800781 540.794094 
L 417.684024 547.13281 
L 418.567266 554.412778 
L 420.333752 540.626168 
L 421.216995 539.563268 
L 422.100237 552.292582 
L 422.98348 551.138239 
L 423.866723 554.185404 
L 424.749966 518.746849 
L 425.633208 537.096963 
L 426.516451 552.780251 
L 427.399694 551.674269 
L 428.282937 558.608221 
L 429.166179 557.882013 
L 430.049422 556.744346 
L 430.932665 552.528976 
L 431.815908 549.496493 
L 432.69915 553.519304 
L 433.582393 558.297204 
L 434.465636 547.217572 
L 435.348879 527.8006 
L 436.232121 531.229919 
L 437.115364 541.871921 
L 437.998607 558.112663 
L 438.88185 559.300534 
L 439.765092 560.045711 
L 440.648335 561.807196 
L 441.531578 558.020059 
L 442.414821 561.666296 
L 443.298063 559.380682 
L 444.181306 554.724284 
L 445.064549 515.927374 
L 445.947792 528.076091 
L 446.831034 529.650125 
L 447.714277 556.331504 
L 448.59752 561.049101 
L 449.480763 561.876637 
L 450.364005 563.01829 
L 451.247248 562.131801 
L 452.130491 562.865534 
L 453.013734 556.459994 
L 453.896976 560.475162 
L 454.780219 557.811395 
L 455.663462 556.947791 
L 456.546705 417.895143 
L 457.429947 502.970479 
L 458.31319 546.679185 
L 459.196433 549.780465 
L 460.962918 562.061166 
L 461.846161 563.259951 
L 462.729404 558.030998 
L 463.612646 561.506333 
L 464.495889 561.183964 
L 465.379132 530.283354 
L 466.262375 554.255102 
L 467.145617 547.252553 
L 468.02886 531.387751 
L 468.912103 520.888974 
L 469.795346 550.076363 
L 470.678588 551.210079 
L 471.561831 558.501442 
L 472.445074 559.099952 
L 473.328317 561.914122 
L 474.211559 556.14318 
L 475.094802 557.464532 
L 475.978045 558.48873 
L 476.861288 556.167626 
L 477.74453 553.065989 
L 478.627773 556.136514 
L 479.511016 557.481967 
L 480.394259 546.453347 
L 481.277501 494.366096 
L 482.160744 529.390505 
L 483.043987 551.933721 
L 483.92723 562.130515 
L 484.810472 562.056003 
L 485.693715 565.842024 
L 486.576958 566.264845 
L 487.460201 564.757301 
L 488.343443 561.242805 
L 489.226686 546.732498 
L 490.109929 557.506175 
L 490.993172 540.598577 
L 491.876414 532.219667 
L 493.6429 559.706286 
L 494.526143 560.319884 
L 495.409385 554.696482 
L 496.292628 493.580859 
L 497.175871 531.677106 
L 498.059114 543.064484 
L 498.942356 558.222258 
L 500.708842 565.476371 
L 501.592085 567.300521 
L 502.475327 566.152467 
L 503.35857 567.212872 
L 505.125056 553.051258 
L 506.008298 526.234776 
L 506.891541 530.618362 
L 507.774784 539.118917 
L 508.658027 556.840059 
L 509.541269 563.74116 
L 510.424512 562.682256 
L 511.307755 565.960634 
L 512.190998 564.853289 
L 513.07424 567.397848 
L 513.957483 568.45627 
L 514.840726 562.586312 
L 515.723969 561.757674 
L 516.607211 560.510462 
L 517.490454 553.221674 
L 518.373697 512.641019 
L 519.25694 524.835567 
L 520.140182 544.497108 
L 521.023425 557.410769 
L 521.906668 563.774034 
L 522.789911 567.553096 
L 523.673153 567.808714 
L 524.556396 564.189848 
L 525.439639 565.487393 
L 526.322882 562.951708 
L 527.206124 565.333863 
L 528.089367 547.547512 
L 528.97261 550.324481 
L 529.855853 552.715776 
L 530.739095 558.764993 
L 531.622338 560.59568 
L 532.505581 561.977728 
L 533.388823 551.517942 
L 534.272066 523.295025 
L 535.155309 540.908257 
L 536.038552 554.542194 
L 536.921794 564.654118 
L 537.805037 567.015101 
L 538.68828 566.459333 
L 539.571523 566.655308 
L 540.454765 564.860212 
L 541.338008 562.187505 
L 542.221251 553.629641 
L 543.104494 538.163304 
L 543.987736 551.655919 
L 544.870979 559.629432 
L 545.754222 563.426979 
L 546.637465 563.955169 
L 547.520707 564.30041 
L 548.40395 539.680392 
L 549.287193 538.530681 
L 550.170436 529.079016 
L 551.053678 553.232205 
L 551.936921 564.432156 
L 552.820164 568.024557 
L 553.703407 567.076922 
L 554.586649 564.096131 
L 555.469892 560.653275 
L 556.353135 567.330549 
L 557.236378 565.566086 
L 558.11962 566.350073 
L 559.002863 563.244163 
L 559.886106 547.680978 
L 560.769349 536.667099 
L 561.652591 527.145878 
L 563.419077 546.319839 
L 564.30232 562.202428 
L 565.185562 564.007151 
L 566.068805 564.466058 
L 566.952048 568.594013 
L 567.835291 567.88467 
L 568.718533 567.526751 
L 569.601776 560.70238 
L 570.485019 561.904604 
L 571.368262 555.358882 
L 572.251504 555.176983 
L 573.134747 463.471852 
L 574.01799 547.365512 
L 574.901233 555.435549 
L 575.784475 564.950534 
L 576.667718 565.860979 
L 577.550961 568.503132 
L 578.434204 567.50995 
L 579.317446 568.759682 
L 580.200689 567.531724 
L 581.083932 565.161349 
L 581.967175 564.954955 
L 582.850417 563.773938 
L 583.73366 544.633415 
L 584.616903 514.188837 
L 585.500146 542.440579 
L 586.383388 538.677288 
L 587.266631 555.289421 
L 588.149874 562.905906 
L 589.916359 570.102594 
L 590.799602 569.998296 
L 591.682845 568.737343 
L 592.566088 567.004416 
L 593.44933 571.31722 
L 594.332573 553.390422 
L 595.215816 473.708206 
L 596.982301 557.009113 
L 597.865544 562.53501 
L 598.748787 568.890788 
L 599.63203 569.658026 
L 600.515272 569.892863 
L 601.398515 571.179785 
L 602.281758 570.758127 
L 603.165 571.451978 
L 604.048243 547.813556 
L 604.931486 541.907393 
L 605.814729 519.173982 
L 606.697971 550.972197 
L 607.581214 564.513823 
L 608.464457 567.591441 
L 609.3477 567.571224 
L 610.230942 568.826573 
L 611.114185 568.655019 
L 611.997428 569.705938 
L 612.880671 564.862702 
L 613.763913 570.625082 
L 614.647156 558.373595 
L 615.530399 563.837695 
L 616.413642 508.104375 
L 617.296884 541.339133 
L 618.180127 555.835255 
L 619.06337 558.759813 
L 619.946613 562.734682 
L 620.829855 569.131538 
L 621.713098 570.839269 
L 622.596341 572.158051 
L 623.479584 571.648033 
L 624.362826 567.364569 
L 625.246069 567.916999 
L 626.129312 565.495905 
L 627.012555 542.436676 
L 628.77904 559.56156 
L 629.662283 563.123908 
L 630.545526 568.062565 
L 631.428768 567.570605 
L 632.312011 569.607209 
L 633.195254 567.545797 
L 634.078497 570.340291 
L 634.961739 559.588524 
L 635.844982 522.66471 
L 636.728225 550.700353 
L 637.611468 568.76813 
L 638.49471 571.453346 
L 639.377953 572.887311 
L 640.261196 573.332678 
L 641.144439 568.185193 
L 642.027681 571.92658 
L 642.910924 570.709114 
L 643.794167 572.148922 
L 644.67741 519.22396 
L 646.443895 552.888048 
L 647.327138 555.537941 
L 648.210381 568.436646 
L 649.093623 568.025925 
L 649.976866 569.290711 
L 650.860109 572.313725 
L 651.743352 566.3105 
L 652.626594 527.745092 
L 653.509837 551.315747 
L 654.39308 540.754723 
L 655.276323 555.188031 
L 656.159565 557.895758 
L 657.042808 568.397101 
L 657.926051 573.195618 
L 658.809294 572.147295 
L 659.692536 574.098903 
L 660.575779 573.06949 
L 661.459022 466.244787 
L 662.342265 514.345995 
L 663.225507 551.588295 
L 664.10875 559.990886 
L 664.991993 570.319273 
L 665.875236 571.49128 
L 666.758478 573.293235 
L 667.641721 573.162464 
L 668.524964 574.747086 
L 669.408207 574.67755 
L 670.291449 574.760812 
L 671.174692 569.235695 
L 672.057935 567.351612 
L 672.941177 567.42234 
L 673.82442 563.782744 
L 674.707663 525.208333 
L 675.590906 501.085605 
L 676.474148 553.047856 
L 677.357391 567.925214 
L 679.123877 575.349984 
L 680.007119 574.157218 
L 680.890362 574.941776 
L 681.773605 574.79147 
L 683.54009 568.194609 
L 684.423333 572.404829 
L 685.306576 542.311777 
L 686.189819 529.091542 
L 687.073061 536.098244 
L 687.956304 532.453107 
L 688.839547 557.479864 
L 689.72279 569.093385 
L 690.606032 573.158294 
L 691.489275 571.490546 
L 692.372518 571.339366 
L 693.255761 573.501166 
L 694.139003 569.359135 
L 695.022246 569.401887 
L 695.905489 571.45813 
L 696.788732 571.800744 
L 697.671974 556.204319 
L 698.555217 565.840446 
L 699.43846 566.139697 
L 700.321703 540.11316 
L 701.204945 525.13053 
L 702.088188 550.741059 
L 702.971431 568.806578 
L 703.854674 571.763139 
L 704.737916 573.347581 
L 705.621159 570.64163 
L 706.504402 575.35833 
L 707.387645 571.937502 
L 708.270887 562.76157 
L 709.15413 551.62373 
L 710.037373 554.566988 
L 710.920616 524.901686 
L 711.803858 541.035982 
L 712.687101 559.851917 
L 713.570344 564.678876 
L 714.453587 573.329875 
L 715.336829 575.512378 
L 716.220072 576.242589 
L 717.103315 557.673026 
L 717.986558 562.771235 
L 718.8698 533.447972 
L 720.636286 567.77198 
L 721.519529 569.798266 
L 722.402771 572.941263 
L 723.286014 573.118437 
L 724.169257 565.984924 
L 725.0525 534.085879 
L 725.935742 509.473537 
L 726.818985 565.13099 
L 728.585471 573.703502 
L 729.468713 575.666958 
L 730.351956 575.332792 
L 731.235199 574.251609 
L 732.118442 575.105651 
L 733.001684 576.441392 
L 733.884927 575.69576 
L 734.76817 567.940299 
L 735.651413 562.506136 
L 736.534655 537.769906 
L 737.417898 509.242251 
L 738.301141 548.797393 
L 739.184384 567.119359 
L 740.067626 573.981021 
L 740.950869 573.095693 
L 741.834112 576.305914 
L 742.717355 577.418319 
L 743.600597 575.903169 
L 744.48384 577.011801 
L 745.367083 572.652647 
L 746.250325 549.478707 
L 747.133568 562.374525 
L 748.900054 558.563286 
L 749.783296 522.26735 
L 750.666539 536.795883 
L 751.549782 565.789059 
L 752.433025 569.240894 
L 753.316267 575.590644 
L 754.19951 574.532822 
L 755.082753 575.688294 
L 755.965996 575.168695 
L 756.849238 571.429443 
L 758.615724 573.636848 
L 759.498967 556.426449 
L 760.382209 474.131192 
L 761.265452 551.21132 
L 762.148695 559.01193 
L 763.031938 560.510565 
L 763.91518 573.913073 
L 764.798423 575.974179 
L 765.681666 575.851636 
L 766.564909 577.55014 
L 767.448151 578.3005 
L 768.331394 577.640392 
L 769.214637 577.4124 
L 770.09788 573.391142 
L 770.981122 571.391587 
L 771.864365 570.66844 
L 772.747608 487.250221 
L 773.630851 527.362256 
L 774.514093 556.34923 
L 775.397336 560.386618 
L 776.280579 570.53825 
L 777.163822 575.451692 
L 778.047064 577.425031 
L 778.930307 577.14382 
L 779.81355 578.253679 
L 780.696793 577.470969 
L 781.580035 573.941551 
L 782.463278 555.455953 
L 783.346521 525.20108 
L 784.229764 524.635175 
L 785.113006 539.362602 
L 785.996249 569.296297 
L 786.879492 571.702521 
L 787.762735 575.30372 
L 788.645977 578.11482 
L 789.52922 577.161922 
L 790.412463 578.323697 
L 791.295706 578.155497 
L 792.178948 570.36764 
L 793.062191 553.60309 
L 793.945434 566.261198 
L 794.828677 571.983898 
L 795.711919 569.098648 
L 796.595162 469.716977 
L 797.478405 549.704871 
L 798.361648 568.331408 
L 799.24489 573.498254 
L 800.128133 577.710937 
L 801.894619 578.43655 
L 802.777861 576.951942 
L 803.661104 575.6867 
L 804.544347 575.932481 
L 805.42759 567.106598 
L 806.310832 562.738098 
L 807.194075 565.575511 
L 808.077318 557.75155 
L 808.960561 527.566775 
L 809.843803 519.594421 
L 810.727046 557.967314 
L 811.610289 569.243134 
L 812.493532 570.049704 
L 813.376774 576.802953 
L 814.260017 578.581012 
L 815.14326 579.036568 
L 816.026502 579.333608 
L 816.909745 577.458426 
L 817.792988 578.773385 
L 818.676231 574.618813 
L 819.559473 562.476645 
L 820.442716 568.374561 
L 821.325959 498.784114 
L 822.209202 538.418497 
L 823.092444 557.624043 
L 823.975687 567.818878 
L 824.85893 573.731618 
L 825.742173 576.331211 
L 826.625415 577.227953 
L 827.508658 575.698882 
L 828.391901 576.973904 
L 829.275144 577.866759 
L 830.158386 577.474028 
L 831.041629 575.408075 
L 831.924872 519.307334 
L 832.808115 524.302669 
L 833.691357 530.484153 
L 834.5746 554.569233 
L 836.341086 573.706538 
L 837.224328 575.753983 
L 839.874057 577.841997 
L 840.757299 576.333462 
L 841.640542 576.828296 
L 842.523785 576.984234 
L 843.407028 577.80013 
L 845.173513 572.971236 
L 846.056756 569.864433 
L 846.939999 501.529035 
L 847.823241 537.217078 
L 848.706484 563.443693 
L 850.47297 577.017175 
L 851.356212 578.583973 
L 852.239455 577.506272 
L 853.122698 577.658575 
L 854.005941 578.449445 
L 854.889183 575.873028 
L 855.772426 572.584595 
L 856.655669 577.602225 
L 857.538912 491.948971 
L 858.422154 465.141632 
L 859.305397 543.318239 
L 860.18864 569.876139 
L 861.071883 573.774015 
L 861.955125 573.703883 
L 862.838368 574.997701 
L 863.721611 575.384258 
L 864.604854 572.840835 
L 865.488096 575.585884 
L 866.371339 577.353097 
L 867.254582 577.380507 
L 868.137825 577.066108 
L 869.021067 578.335246 
L 869.90431 573.594613 
L 870.787553 518.886776 
L 871.670796 532.326229 
L 872.554038 555.386068 
L 873.437281 564.817881 
L 874.320524 572.965703 
L 875.203767 575.901973 
L 876.087009 578.014999 
L 876.970252 577.473476 
L 877.853495 578.488127 
L 878.736738 577.634326 
L 879.61998 578.786645 
L 880.503223 573.320622 
L 881.386466 576.252452 
L 882.269709 575.789283 
L 883.152951 536.390577 
L 884.036194 520.849681 
L 884.919437 556.338122 
L 885.802679 570.326211 
L 886.685922 575.151587 
L 888.452408 578.69602 
L 889.33565 579.051493 
L 890.218893 579.21057 
L 891.102136 579.063826 
L 891.985379 579.167982 
L 892.868621 577.335944 
L 893.751864 577.354412 
L 894.635107 575.023452 
L 895.51835 570.616045 
L 896.401592 503.721784 
L 897.284835 525.550227 
L 898.168078 560.632563 
L 899.051321 570.411391 
L 899.934563 576.654654 
L 900.817806 577.798897 
L 901.701049 578.306258 
L 902.584292 579.25623 
L 903.467534 579.578174 
L 904.350777 579.218776 
L 905.23402 579.731101 
L 906.117263 572.879011 
L 907.000505 506.725079 
L 907.883748 550.691554 
L 908.766991 567.883582 
L 909.650234 572.983556 
L 910.533476 576.956782 
L 911.416719 577.592804 
L 912.299962 577.814257 
L 913.183205 576.657454 
L 914.066447 578.168129 
L 914.94969 576.785085 
L 915.832933 574.003586 
L 916.716176 557.431438 
L 917.599418 563.925843 
L 918.482661 547.424772 
L 919.365904 540.024682 
L 920.249147 554.52873 
L 921.132389 571.254365 
L 922.015632 575.782665 
L 922.898875 577.284975 
L 923.782118 579.191428 
L 924.66536 576.386041 
L 926.431846 577.483 
L 927.315089 576.933286 
L 928.198331 576.986924 
L 929.081574 570.58905 
L 929.964817 574.569521 
L 930.84806 530.486605 
L 931.731302 518.658468 
L 932.614545 536.334854 
L 933.497788 567.152611 
L 934.381031 574.954591 
L 935.264273 578.189028 
L 936.147516 578.071164 
L 937.030759 578.831331 
L 937.914002 578.814686 
L 938.797244 579.744962 
L 939.680487 578.807181 
L 940.56373 577.228686 
L 941.446973 574.628338 
L 942.330215 576.948123 
L 943.213458 519.313977 
L 944.096701 412.213746 
L 944.979944 555.450084 
L 945.863186 567.70346 
L 946.746429 576.746969 
L 947.629672 578.649634 
L 948.512915 578.110659 
L 950.2794 579.416153 
L 951.162643 579.375115 
L 952.045886 578.864127 
L 952.929128 578.895047 
L 953.812371 578.769854 
L 954.695614 577.765916 
L 955.578857 577.944566 
L 956.462099 557.746178 
L 957.345342 496.414181 
L 958.228585 541.706543 
L 959.111827 561.595838 
L 959.99507 571.30983 
L 960.878313 575.312523 
L 961.761556 576.782019 
L 962.644798 577.812741 
L 963.528041 577.87663 
L 964.411284 572.894292 
L 965.294527 577.301907 
L 966.177769 576.52247 
L 967.061012 576.173769 
L 967.944255 460.849007 
L 968.827498 545.406767 
L 969.71074 563.687084 
L 970.593983 572.798463 
L 971.477226 576.114701 
L 972.360469 578.857707 
L 973.243711 578.862559 
L 974.126954 578.446746 
L 975.89344 573.646368 
L 976.776682 577.342337 
L 977.659925 578.533641 
L 978.543168 553.355225 
L 979.426411 562.401578 
L 980.309653 562.042111 
L 981.192896 536.530371 
L 982.076139 506.275381 
L 982.959382 561.399359 
L 983.842624 566.469816 
L 984.725867 574.693912 
L 985.60911 577.293573 
L 986.492353 578.169397 
L 987.375595 580.116878 
L 988.258838 578.698673 
L 989.142081 579.906196 
L 990.025324 575.54459 
L 990.908566 569.680338 
L 991.791809 527.328199 
L 992.675052 557.34036 
L 993.558295 550.621854 
L 994.441537 562.22692 
L 995.32478 557.124291 
L 996.208023 548.031821 
L 997.974508 575.77244 
L 999.740994 579.423997 
L 1000.624237 571.175696 
L 1001.507479 554.37778 
L 1001.507479 554.37778 
" clip-path="url(#p509faa7d48)" style="fill: none; stroke: #dd8452; stroke-width: 6; stroke-linecap: round"/>
   </g>
   <g id="line2d_16"/>
   <g id="line2d_17"/>
   <g id="patch_3">
    <path d="M 75.03 609.894375 
L 75.03 54.554375 
" style="fill: none; stroke: #cccccc; stroke-width: 1.875; stroke-linejoin: miter; stroke-linecap: square"/>
   </g>
   <g id="patch_4">
    <path d="M 1045.625455 609.894375 
L 1045.625455 54.554375 
" style="fill: none; stroke: #cccccc; stroke-width: 1.875; stroke-linejoin: miter; stroke-linecap: square"/>
   </g>
   <g id="patch_5">
    <path d="M 75.03 609.894375 
L 1045.625455 609.894375 
" style="fill: none; stroke: #cccccc; stroke-width: 1.875; stroke-linejoin: miter; stroke-linecap: square"/>
   </g>
   <g id="patch_6">
    <path d="M 75.03 54.554375 
L 1045.625455 54.554375 
" style="fill: none; stroke: #cccccc; stroke-width: 1.875; stroke-linejoin: miter; stroke-linecap: square"/>
   </g>
   <g id="text_16">
    <!-- Training Progress: Loss -->
    <g style="fill: #262626" transform="translate(323.329602 34.554375) scale(0.36 -0.36)">
     <defs>
      <path id="DejaVuSans-Bold-54" d="M 31 4666 
L 4331 4666 
L 4331 3756 
L 2784 3756 
L 2784 0 
L 1581 0 
L 1581 3756 
L 31 3756 
L 31 4666 
z
" transform="scale(0.015625)"/>
      <path id="DejaVuSans-Bold-72" d="M 3138 2547 
Q 2991 2616 2845 2648 
Q 2700 2681 2553 2681 
Q 2122 2681 1889 2404 
Q 1656 2128 1656 1613 
L 1656 0 
L 538 0 
L 538 3500 
L 1656 3500 
L 1656 2925 
Q 1872 3269 2151 3426 
Q 2431 3584 2822 3584 
Q 2878 3584 2943 3579 
Q 3009 3575 3134 3559 
L 3138 2547 
z
" transform="scale(0.015625)"/>
      <path id="DejaVuSans-Bold-61" d="M 2106 1575 
Q 1756 1575 1579 1456 
Q 1403 1338 1403 1106 
Q 1403 894 1545 773 
Q 1688 653 1941 653 
Q 2256 653 2472 879 
Q 2688 1106 2688 1447 
L 2688 1575 
L 2106 1575 
z
M 3816 1997 
L 3816 0 
L 2688 0 
L 2688 519 
Q 2463 200 2181 54 
Q 1900 -91 1497 -91 
Q 953 -91 614 226 
Q 275 544 275 1050 
Q 275 1666 698 1953 
Q 1122 2241 2028 2241 
L 2688 2241 
L 2688 2328 
Q 2688 2594 2478 2717 
Q 2269 2841 1825 2841 
Q 1466 2841 1156 2769 
Q 847 2697 581 2553 
L 581 3406 
Q 941 3494 1303 3539 
Q 1666 3584 2028 3584 
Q 2975 3584 3395 3211 
Q 3816 2838 3816 1997 
z
" transform="scale(0.015625)"/>
      <path id="DejaVuSans-Bold-69" d="M 538 3500 
L 1656 3500 
L 1656 0 
L 538 0 
L 538 3500 
z
M 538 4863 
L 1656 4863 
L 1656 3950 
L 538 3950 
L 538 4863 
z
" transform="scale(0.015625)"/>
      <path id="DejaVuSans-Bold-6e" d="M 4056 2131 
L 4056 0 
L 2931 0 
L 2931 347 
L 2931 1631 
Q 2931 2084 2911 2256 
Q 2891 2428 2841 2509 
Q 2775 2619 2662 2680 
Q 2550 2741 2406 2741 
Q 2056 2741 1856 2470 
Q 1656 2200 1656 1722 
L 1656 0 
L 538 0 
L 538 3500 
L 1656 3500 
L 1656 2988 
Q 1909 3294 2193 3439 
Q 2478 3584 2822 3584 
Q 3428 3584 3742 3212 
Q 4056 2841 4056 2131 
z
" transform="scale(0.015625)"/>
      <path id="DejaVuSans-Bold-67" d="M 2919 594 
Q 2688 288 2409 144 
Q 2131 0 1766 0 
Q 1125 0 706 504 
Q 288 1009 288 1791 
Q 288 2575 706 3076 
Q 1125 3578 1766 3578 
Q 2131 3578 2409 3434 
Q 2688 3291 2919 2981 
L 2919 3500 
L 4044 3500 
L 4044 353 
Q 4044 -491 3511 -936 
Q 2978 -1381 1966 -1381 
Q 1638 -1381 1331 -1331 
Q 1025 -1281 716 -1178 
L 716 -306 
Q 1009 -475 1290 -558 
Q 1572 -641 1856 -641 
Q 2406 -641 2662 -400 
Q 2919 -159 2919 353 
L 2919 594 
z
M 2181 2772 
Q 1834 2772 1640 2515 
Q 1447 2259 1447 1791 
Q 1447 1309 1634 1061 
Q 1822 813 2181 813 
Q 2531 813 2725 1069 
Q 2919 1325 2919 1791 
Q 2919 2259 2725 2515 
Q 2531 2772 2181 2772 
z
" transform="scale(0.015625)"/>
      <path id="DejaVuSans-Bold-20" transform="scale(0.015625)"/>
      <path id="DejaVuSans-Bold-50" d="M 588 4666 
L 2584 4666 
Q 3475 4666 3951 4270 
Q 4428 3875 4428 3144 
Q 4428 2409 3951 2014 
Q 3475 1619 2584 1619 
L 1791 1619 
L 1791 0 
L 588 0 
L 588 4666 
z
M 1791 3794 
L 1791 2491 
L 2456 2491 
Q 2806 2491 2997 2661 
Q 3188 2831 3188 3144 
Q 3188 3456 2997 3625 
Q 2806 3794 2456 3794 
L 1791 3794 
z
" transform="scale(0.015625)"/>
      <path id="DejaVuSans-Bold-6f" d="M 2203 2784 
Q 1831 2784 1636 2517 
Q 1441 2250 1441 1747 
Q 1441 1244 1636 976 
Q 1831 709 2203 709 
Q 2569 709 2762 976 
Q 2956 1244 2956 1747 
Q 2956 2250 2762 2517 
Q 2569 2784 2203 2784 
z
M 2203 3584 
Q 3106 3584 3614 3096 
Q 4122 2609 4122 1747 
Q 4122 884 3614 396 
Q 3106 -91 2203 -91 
Q 1297 -91 786 396 
Q 275 884 275 1747 
Q 275 2609 786 3096 
Q 1297 3584 2203 3584 
z
" transform="scale(0.015625)"/>
      <path id="DejaVuSans-Bold-65" d="M 4031 1759 
L 4031 1441 
L 1416 1441 
Q 1456 1047 1700 850 
Q 1944 653 2381 653 
Q 2734 653 3104 758 
Q 3475 863 3866 1075 
L 3866 213 
Q 3469 63 3072 -14 
Q 2675 -91 2278 -91 
Q 1328 -91 801 392 
Q 275 875 275 1747 
Q 275 2603 792 3093 
Q 1309 3584 2216 3584 
Q 3041 3584 3536 3087 
Q 4031 2591 4031 1759 
z
M 2881 2131 
Q 2881 2450 2695 2645 
Q 2509 2841 2209 2841 
Q 1884 2841 1681 2658 
Q 1478 2475 1428 2131 
L 2881 2131 
z
" transform="scale(0.015625)"/>
      <path id="DejaVuSans-Bold-73" d="M 3272 3391 
L 3272 2541 
Q 2913 2691 2578 2766 
Q 2244 2841 1947 2841 
Q 1628 2841 1473 2761 
Q 1319 2681 1319 2516 
Q 1319 2381 1436 2309 
Q 1553 2238 1856 2203 
L 2053 2175 
Q 2913 2066 3209 1816 
Q 3506 1566 3506 1031 
Q 3506 472 3093 190 
Q 2681 -91 1863 -91 
Q 1516 -91 1145 -36 
Q 775 19 384 128 
L 384 978 
Q 719 816 1070 734 
Q 1422 653 1784 653 
Q 2113 653 2278 743 
Q 2444 834 2444 1013 
Q 2444 1163 2330 1236 
Q 2216 1309 1875 1350 
L 1678 1375 
Q 931 1469 631 1722 
Q 331 1975 331 2491 
Q 331 3047 712 3315 
Q 1094 3584 1881 3584 
Q 2191 3584 2531 3537 
Q 2872 3491 3272 3391 
z
" transform="scale(0.015625)"/>
      <path id="DejaVuSans-Bold-3a" d="M 716 3500 
L 1844 3500 
L 1844 2291 
L 716 2291 
L 716 3500 
z
M 716 1209 
L 1844 1209 
L 1844 0 
L 716 0 
L 716 1209 
z
" transform="scale(0.015625)"/>
      <path id="DejaVuSans-Bold-4c" d="M 588 4666 
L 1791 4666 
L 1791 909 
L 3903 909 
L 3903 0 
L 588 0 
L 588 4666 
z
" transform="scale(0.015625)"/>
     </defs>
     <use xlink:href="#DejaVuSans-Bold-54"/>
     <use xlink:href="#DejaVuSans-Bold-72" transform="translate(57.212891 0)"/>
     <use xlink:href="#DejaVuSans-Bold-61" transform="translate(106.529297 0)"/>
     <use xlink:href="#DejaVuSans-Bold-69" transform="translate(174.009766 0)"/>
     <use xlink:href="#DejaVuSans-Bold-6e" transform="translate(208.287109 0)"/>
     <use xlink:href="#DejaVuSans-Bold-69" transform="translate(279.478516 0)"/>
     <use xlink:href="#DejaVuSans-Bold-6e" transform="translate(313.755859 0)"/>
     <use xlink:href="#DejaVuSans-Bold-67" transform="translate(384.947266 0)"/>
     <use xlink:href="#DejaVuSans-Bold-20" transform="translate(456.529297 0)"/>
     <use xlink:href="#DejaVuSans-Bold-50" transform="translate(491.34375 0)"/>
     <use xlink:href="#DejaVuSans-Bold-72" transform="translate(564.634766 0)"/>
     <use xlink:href="#DejaVuSans-Bold-6f" transform="translate(613.951172 0)"/>
     <use xlink:href="#DejaVuSans-Bold-67" transform="translate(682.652344 0)"/>
     <use xlink:href="#DejaVuSans-Bold-72" transform="translate(754.234375 0)"/>
     <use xlink:href="#DejaVuSans-Bold-65" transform="translate(803.550781 0)"/>
     <use xlink:href="#DejaVuSans-Bold-73" transform="translate(871.373047 0)"/>
     <use xlink:href="#DejaVuSans-Bold-73" transform="translate(930.894531 0)"/>
     <use xlink:href="#DejaVuSans-Bold-3a" transform="translate(990.416016 0)"/>
     <use xlink:href="#DejaVuSans-Bold-20" transform="translate(1030.40625 0)"/>
     <use xlink:href="#DejaVuSans-Bold-4c" transform="translate(1065.220703 0)"/>
     <use xlink:href="#DejaVuSans-Bold-6f" transform="translate(1128.941406 0)"/>
     <use xlink:href="#DejaVuSans-Bold-73" transform="translate(1197.642578 0)"/>
     <use xlink:href="#DejaVuSans-Bold-73" transform="translate(1257.164062 0)"/>
    </g>
   </g>
   <g id="legend_1">
    <g id="patch_7">
     <path d="M 846.345455 174.094375 
L 1023.225455 174.094375 
Q 1029.625455 174.094375 1029.625455 167.694375 
L 1029.625455 76.954375 
Q 1029.625455 70.554375 1023.225455 70.554375 
L 846.345455 70.554375 
Q 839.945455 70.554375 839.945455 76.954375 
L 839.945455 167.694375 
Q 839.945455 174.094375 846.345455 174.094375 
z
" style="fill: #ffffff; opacity: 0.8; stroke: #cccccc; stroke-width: 1.5; stroke-linejoin: miter"/>
    </g>
    <g id="line2d_18">
     <path d="M 852.745455 96.469375 
L 884.745455 96.469375 
L 916.745455 96.469375 
" style="fill: none; stroke: #4c72b0; stroke-width: 6; stroke-linecap: round"/>
    </g>
    <g id="text_17">
     <!-- train -->
     <g style="fill: #262626" transform="translate(942.345455 107.669375) scale(0.32 -0.32)">
      <defs>
       <path id="DejaVuSans-74" d="M 1172 4494 
L 1172 3500 
L 2356 3500 
L 2356 3053 
L 1172 3053 
L 1172 1153 
Q 1172 725 1289 603 
Q 1406 481 1766 481 
L 2356 481 
L 2356 0 
L 1766 0 
Q 1100 0 847 248 
Q 594 497 594 1153 
L 594 3053 
L 172 3053 
L 172 3500 
L 594 3500 
L 594 4494 
L 1172 4494 
z
" transform="scale(0.015625)"/>
       <path id="DejaVuSans-72" d="M 2631 2963 
Q 2534 3019 2420 3045 
Q 2306 3072 2169 3072 
Q 1681 3072 1420 2755 
Q 1159 2438 1159 1844 
L 1159 0 
L 581 0 
L 581 3500 
L 1159 3500 
L 1159 2956 
Q 1341 3275 1631 3429 
Q 1922 3584 2338 3584 
Q 2397 3584 2469 3576 
Q 2541 3569 2628 3553 
L 2631 2963 
z
" transform="scale(0.015625)"/>
       <path id="DejaVuSans-61" d="M 2194 1759 
Q 1497 1759 1228 1600 
Q 959 1441 959 1056 
Q 959 750 1161 570 
Q 1363 391 1709 391 
Q 2188 391 2477 730 
Q 2766 1069 2766 1631 
L 2766 1759 
L 2194 1759 
z
M 3341 1997 
L 3341 0 
L 2766 0 
L 2766 531 
Q 2569 213 2275 61 
Q 1981 -91 1556 -91 
Q 1019 -91 701 211 
Q 384 513 384 1019 
Q 384 1609 779 1909 
Q 1175 2209 1959 2209 
L 2766 2209 
L 2766 2266 
Q 2766 2663 2505 2880 
Q 2244 3097 1772 3097 
Q 1472 3097 1187 3025 
Q 903 2953 641 2809 
L 641 3341 
Q 956 3463 1253 3523 
Q 1550 3584 1831 3584 
Q 2591 3584 2966 3190 
Q 3341 2797 3341 1997 
z
" transform="scale(0.015625)"/>
       <path id="DejaVuSans-69" d="M 603 3500 
L 1178 3500 
L 1178 0 
L 603 0 
L 603 3500 
z
M 603 4863 
L 1178 4863 
L 1178 4134 
L 603 4134 
L 603 4863 
z
" transform="scale(0.015625)"/>
       <path id="DejaVuSans-6e" d="M 3513 2113 
L 3513 0 
L 2938 0 
L 2938 2094 
Q 2938 2591 2744 2837 
Q 2550 3084 2163 3084 
Q 1697 3084 1428 2787 
Q 1159 2491 1159 1978 
L 1159 0 
L 581 0 
L 581 3500 
L 1159 3500 
L 1159 2956 
Q 1366 3272 1645 3428 
Q 1925 3584 2291 3584 
Q 2894 3584 3203 3211 
Q 3513 2838 3513 2113 
z
" transform="scale(0.015625)"/>
      </defs>
      <use xlink:href="#DejaVuSans-74"/>
      <use xlink:href="#DejaVuSans-72" transform="translate(39.208984 0)"/>
      <use xlink:href="#DejaVuSans-61" transform="translate(80.322266 0)"/>
      <use xlink:href="#DejaVuSans-69" transform="translate(141.601562 0)"/>
      <use xlink:href="#DejaVuSans-6e" transform="translate(169.384766 0)"/>
     </g>
    </g>
    <g id="line2d_19">
     <path d="M 852.745455 143.439375 
L 884.745455 143.439375 
L 916.745455 143.439375 
" style="fill: none; stroke: #dd8452; stroke-width: 6; stroke-linecap: round"/>
    </g>
    <g id="text_18">
     <!-- val -->
     <g style="fill: #262626" transform="translate(942.345455 154.639375) scale(0.32 -0.32)">
      <defs>
       <path id="DejaVuSans-76" d="M 191 3500 
L 800 3500 
L 1894 563 
L 2988 3500 
L 3597 3500 
L 2284 0 
L 1503 0 
L 191 3500 
z
" transform="scale(0.015625)"/>
       <path id="DejaVuSans-6c" d="M 603 4863 
L 1178 4863 
L 1178 0 
L 603 0 
L 603 4863 
z
" transform="scale(0.015625)"/>
      </defs>
      <use xlink:href="#DejaVuSans-76"/>
      <use xlink:href="#DejaVuSans-61" transform="translate(59.179688 0)"/>
      <use xlink:href="#DejaVuSans-6c" transform="translate(120.458984 0)"/>
     </g>
    </g>
   </g>
  </g>
 </g>
 <defs>
  <clipPath id="p509faa7d48">
   <rect x="75.03" y="54.554375" width="970.595455" height="555.34"/>
  </clipPath>
 </defs>
</svg>
