<?xml version="1.0" encoding="utf-8" standalone="no"?>
<!DOCTYPE svg PUBLIC "-//W3C//DTD SVG 1.1//EN"
  "http://www.w3.org/Graphics/SVG/1.1/DTD/svg11.dtd">
<svg xmlns:xlink="http://www.w3.org/1999/xlink" width="1052.955455pt" height="695.534375pt" viewBox="0 0 1052.955455 695.534375" xmlns="http://www.w3.org/2000/svg" version="1.1">
 <metadata>
  <rdf:RDF xmlns:dc="http://purl.org/dc/elements/1.1/" xmlns:cc="http://creativecommons.org/ns#" xmlns:rdf="http://www.w3.org/1999/02/22-rdf-syntax-ns#">
   <cc:Work>
    <dc:type rdf:resource="http://purl.org/dc/dcmitype/StillImage"/>
    <dc:date>2026-04-10T14:25:10.194626</dc:date>
    <dc:format>image/svg+xml</dc:format>
    <dc:creator>
     <cc:Agent>
      <dc:title>Matplotlib v3.10.8, https://matplotlib.org/</dc:title>
     </cc:Agent>
    </dc:creator>
   </cc:Work>
  </rdf:RDF>
 </metadata>
 <defs>
  <style type="text/css">*{stroke-linejoin: round; stroke-linecap: butt}</style>
 </defs>
 <g id="figure_1">
  <g id="patch_1">
   <path d="M 0 695.534375 
L 1052.955455 695.534375 
L 1052.955455 0 
L 0 0 
z
" style="fill: #ffffff"/>
  </g>
  <g id="axes_1">
   <g id="patch_2">
    <path d="M 115.75 609.894375 
L 1045.755455 609.894375 
L 1045.755455 54.554375 
L 115.75 54.554375 
z
" style="fill: #ffffff"/>
   </g>
   <g id="matplotlib.axis_1">
    <g id="xtick_1">
     <g id="line2d_1">
      <path d="M 157.176669 609.894375 
L 157.176669 54.554375 
" clip-path="url(#pe2288e20a7)" style="fill: none; stroke: #cccccc; stroke-opacity: 0.3; stroke-width: 1.5; stroke-linecap: round"/>
     </g>
     <g id="text_1">
      <!-- 0 -->
      <g style="fill: #262626" transform="translate(146.996669 646.709375) scale(0.32 -0.32)">
       <defs>
        <path id="DejaVuSans-30" d="M 2034 4250 
Q 1547 4250 1301 3770 
Q 1056 3291 1056 2328 
Q 1056 1369 1301 889 
Q 1547 409 2034 409 
Q 2525 409 2770 889 
Q 3016 1369 3016 2328 
Q 3016 3291 2770 3770 
Q 2525 4250 2034 4250 
z
M 2034 4750 
Q 2819 4750 3233 4129 
Q 3647 3509 3647 2328 
Q 3647 1150 3233 529 
Q 2819 -91 2034 -91 
Q 1250 -91 836 529 
Q 422 1150 422 2328 
Q 422 3509 836 4129 
Q 1250 4750 2034 4750 
z
" transform="scale(0.015625)"/>
       </defs>
       <use xlink:href="#DejaVuSans-30"/>
      </g>
     </g>
    </g>
    <g id="xtick_2">
     <g id="line2d_2">
      <path d="M 326.437831 609.894375 
L 326.437831 54.554375 
" clip-path="url(#pe2288e20a7)" style="fill: none; stroke: #cccccc; stroke-opacity: 0.3; stroke-width: 1.5; stroke-linecap: round"/>
     </g>
     <g id="text_2">
      <!-- 200 -->
      <g style="fill: #262626" transform="translate(295.897831 646.709375) scale(0.32 -0.32)">
       <defs>
        <path id="DejaVuSans-32" d="M 1228 531 
L 3431 531 
L 3431 0 
L 469 0 
L 469 531 
Q 828 903 1448 1529 
Q 2069 2156 2228 2338 
Q 2531 2678 2651 2914 
Q 2772 3150 2772 3378 
Q 2772 3750 2511 3984 
Q 2250 4219 1831 4219 
Q 1534 4219 1204 4116 
Q 875 4013 500 3803 
L 500 4441 
Q 881 4594 1212 4672 
Q 1544 4750 1819 4750 
Q 2544 4750 2975 4387 
Q 3406 4025 3406 3419 
Q 3406 3131 3298 2873 
Q 3191 2616 2906 2266 
Q 2828 2175 2409 1742 
Q 1991 1309 1228 531 
z
" transform="scale(0.015625)"/>
       </defs>
       <use xlink:href="#DejaVuSans-32"/>
       <use xlink:href="#DejaVuSans-30" transform="translate(63.623047 0)"/>
       <use xlink:href="#DejaVuSans-30" transform="translate(127.246094 0)"/>
      </g>
     </g>
    </g>
    <g id="xtick_3">
     <g id="line2d_3">
      <path d="M 495.698993 609.894375 
L 495.698993 54.554375 
" clip-path="url(#pe2288e20a7)" style="fill: none; stroke: #cccccc; stroke-opacity: 0.3; stroke-width: 1.5; stroke-linecap: round"/>
     </g>
     <g id="text_3">
      <!-- 400 -->
      <g style="fill: #262626" transform="translate(465.158993 646.709375) scale(0.32 -0.32)">
       <defs>
        <path id="DejaVuSans-34" d="M 2419 4116 
L 825 1625 
L 2419 1625 
L 2419 4116 
z
M 2253 4666 
L 3047 4666 
L 3047 1625 
L 3713 1625 
L 3713 1100 
L 3047 1100 
L 3047 0 
L 2419 0 
L 2419 1100 
L 313 1100 
L 313 1709 
L 2253 4666 
z
" transform="scale(0.015625)"/>
       </defs>
       <use xlink:href="#DejaVuSans-34"/>
       <use xlink:href="#DejaVuSans-30" transform="translate(63.623047 0)"/>
       <use xlink:href="#DejaVuSans-30" transform="translate(127.246094 0)"/>
      </g>
     </g>
    </g>
    <g id="xtick_4">
     <g id="line2d_4">
      <path d="M 664.960155 609.894375 
L 664.960155 54.554375 
" clip-path="url(#pe2288e20a7)" style="fill: none; stroke: #cccccc; stroke-opacity: 0.3; stroke-width: 1.5; stroke-linecap: round"/>
     </g>
     <g id="text_4">
      <!-- 600 -->
      <g style="fill: #262626" transform="translate(634.420155 646.709375) scale(0.32 -0.32)">
       <defs>
        <path id="DejaVuSans-36" d="M 2113 2584 
Q 1688 2584 1439 2293 
Q 1191 2003 1191 1497 
Q 1191 994 1439 701 
Q 1688 409 2113 409 
Q 2538 409 2786 701 
Q 3034 994 3034 1497 
Q 3034 2003 2786 2293 
Q 2538 2584 2113 2584 
z
M 3366 4563 
L 3366 3988 
Q 3128 4100 2886 4159 
Q 2644 4219 2406 4219 
Q 1781 4219 1451 3797 
Q 1122 3375 1075 2522 
Q 1259 2794 1537 2939 
Q 1816 3084 2150 3084 
Q 2853 3084 3261 2657 
Q 3669 2231 3669 1497 
Q 3669 778 3244 343 
Q 2819 -91 2113 -91 
Q 1303 -91 875 529 
Q 447 1150 447 2328 
Q 447 3434 972 4092 
Q 1497 4750 2381 4750 
Q 2619 4750 2861 4703 
Q 3103 4656 3366 4563 
z
" transform="scale(0.015625)"/>
       </defs>
       <use xlink:href="#DejaVuSans-36"/>
       <use xlink:href="#DejaVuSans-30" transform="translate(63.623047 0)"/>
       <use xlink:href="#DejaVuSans-30" transform="translate(127.246094 0)"/>
      </g>
     </g>
    </g>
    <g id="xtick_5">
     <g id="line2d_5">
      <path d="M 834.221317 609.894375 
L 834.221317 54.554375 
" clip-path="url(#pe2288e20a7)" style="fill: none; stroke: #cccccc; stroke-opacity: 0.3; stroke-width: 1.5; stroke-linecap: round"/>
     </g>
     <g id="text_5">
      <!-- 800 -->
      <g style="fill: #262626" transform="translate(803.681317 646.709375) scale(0.32 -0.32)">
       <defs>
        <path id="DejaVuSans-38" d="M 2034 2216 
Q 1584 2216 1326 1975 
Q 1069 1734 1069 1313 
Q 1069 891 1326 650 
Q 1584 409 2034 409 
Q 2484 409 2743 651 
Q 3003 894 3003 1313 
Q 3003 1734 2745 1975 
Q 2488 2216 2034 2216 
z
M 1403 2484 
Q 997 2584 770 2862 
Q 544 3141 544 3541 
Q 544 4100 942 4425 
Q 1341 4750 2034 4750 
Q 2731 4750 3128 4425 
Q 3525 4100 3525 3541 
Q 3525 3141 3298 2862 
Q 3072 2584 2669 2484 
Q 3125 2378 3379 2068 
Q 3634 1759 3634 1313 
Q 3634 634 3220 271 
Q 2806 -91 2034 -91 
Q 1263 -91 848 271 
Q 434 634 434 1313 
Q 434 1759 690 2068 
Q 947 2378 1403 2484 
z
M 1172 3481 
Q 1172 3119 1398 2916 
Q 1625 2713 2034 2713 
Q 2441 2713 2670 2916 
Q 2900 3119 2900 3481 
Q 2900 3844 2670 4047 
Q 2441 4250 2034 4250 
Q 1625 4250 1398 4047 
Q 1172 3844 1172 3481 
z
" transform="scale(0.015625)"/>
       </defs>
       <use xlink:href="#DejaVuSans-38"/>
       <use xlink:href="#DejaVuSans-30" transform="translate(63.623047 0)"/>
       <use xlink:href="#DejaVuSans-30" transform="translate(127.246094 0)"/>
      </g>
     </g>
    </g>
    <g id="xtick_6">
     <g id="line2d_6">
      <path d="M 1003.482479 609.894375 
L 1003.482479 54.554375 
" clip-path="url(#pe2288e20a7)" style="fill: none; stroke: #cccccc; stroke-opacity: 0.3; stroke-width: 1.5; stroke-linecap: round"/>
     </g>
     <g id="text_6">
      <!-- 1000 -->
      <g style="fill: #262626" transform="translate(962.762479 646.709375) scale(0.32 -0.32)">
       <defs>
        <path id="DejaVuSans-31" d="M 794 531 
L 1825 531 
L 1825 4091 
L 703 3866 
L 703 4441 
L 1819 4666 
L 2450 4666 
L 2450 531 
L 3481 531 
L 3481 0 
L 794 0 
L 794 531 
z
" transform="scale(0.015625)"/>
       </defs>
       <use xlink:href="#DejaVuSans-31"/>
       <use xlink:href="#DejaVuSans-30" transform="translate(63.623047 0)"/>
       <use xlink:href="#DejaVuSans-30" transform="translate(127.246094 0)"/>
       <use xlink:href="#DejaVuSans-30" transform="translate(190.869141 0)"/>
      </g>
     </g>
    </g>
    <g id="text_7">
     <!-- Epoch -->
     <g style="fill: #262626" transform="translate(531.757727 681.679375) scale(0.32 -0.32)">
      <defs>
       <path id="DejaVuSans-45" d="M 628 4666 
L 3578 4666 
L 3578 4134 
L 1259 4134 
L 1259 2753 
L 3481 2753 
L 3481 2222 
L 1259 2222 
L 1259 531 
L 3634 531 
L 3634 0 
L 628 0 
L 628 4666 
z
" transform="scale(0.015625)"/>
       <path id="DejaVuSans-70" d="M 1159 525 
L 1159 -1331 
L 581 -1331 
L 581 3500 
L 1159 3500 
L 1159 2969 
Q 1341 3281 1617 3432 
Q 1894 3584 2278 3584 
Q 2916 3584 3314 3078 
Q 3713 2572 3713 1747 
Q 3713 922 3314 415 
Q 2916 -91 2278 -91 
Q 1894 -91 1617 61 
Q 1341 213 1159 525 
z
M 3116 1747 
Q 3116 2381 2855 2742 
Q 2594 3103 2138 3103 
Q 1681 3103 1420 2742 
Q 1159 2381 1159 1747 
Q 1159 1113 1420 752 
Q 1681 391 2138 391 
Q 2594 391 2855 752 
Q 3116 1113 3116 1747 
z
" transform="scale(0.015625)"/>
       <path id="DejaVuSans-6f" d="M 1959 3097 
Q 1497 3097 1228 2736 
Q 959 2375 959 1747 
Q 959 1119 1226 758 
Q 1494 397 1959 397 
Q 2419 397 2687 759 
Q 2956 1122 2956 1747 
Q 2956 2369 2687 2733 
Q 2419 3097 1959 3097 
z
M 1959 3584 
Q 2709 3584 3137 3096 
Q 3566 2609 3566 1747 
Q 3566 888 3137 398 
Q 2709 -91 1959 -91 
Q 1206 -91 779 398 
Q 353 888 353 1747 
Q 353 2609 779 3096 
Q 1206 3584 1959 3584 
z
" transform="scale(0.015625)"/>
       <path id="DejaVuSans-63" d="M 3122 3366 
L 3122 2828 
Q 2878 2963 2633 3030 
Q 2388 3097 2138 3097 
Q 1578 3097 1268 2742 
Q 959 2388 959 1747 
Q 959 1106 1268 751 
Q 1578 397 2138 397 
Q 2388 397 2633 464 
Q 2878 531 3122 666 
L 3122 134 
Q 2881 22 2623 -34 
Q 2366 -91 2075 -91 
Q 1284 -91 818 406 
Q 353 903 353 1747 
Q 353 2603 823 3093 
Q 1294 3584 2113 3584 
Q 2378 3584 2631 3529 
Q 2884 3475 3122 3366 
z
" transform="scale(0.015625)"/>
       <path id="DejaVuSans-68" d="M 3513 2113 
L 3513 0 
L 2938 0 
L 2938 2094 
Q 2938 2591 2744 2837 
Q 2550 3084 2163 3084 
Q 1697 3084 1428 2787 
Q 1159 2491 1159 1978 
L 1159 0 
L 581 0 
L 581 4863 
L 1159 4863 
L 1159 2956 
Q 1366 3272 1645 3428 
Q 1925 3584 2291 3584 
Q 2894 3584 3203 3211 
Q 3513 2838 3513 2113 
z
" transform="scale(0.015625)"/>
      </defs>
      <use xlink:href="#DejaVuSans-45"/>
      <use xlink:href="#DejaVuSans-70" transform="translate(63.183594 0)"/>
      <use xlink:href="#DejaVuSans-6f" transform="translate(126.660156 0)"/>
      <use xlink:href="#DejaVuSans-63" transform="translate(187.841797 0)"/>
      <use xlink:href="#DejaVuSans-68" transform="translate(242.822266 0)"/>
     </g>
    </g>
   </g>
   <g id="matplotlib.axis_2">
    <g id="ytick_1">
     <g id="line2d_7">
      <path d="M 115.75 588.269236 
L 1045.755455 588.269236 
" clip-path="url(#pe2288e20a7)" style="fill: none; stroke: #cccccc; stroke-opacity: 0.3; stroke-width: 1.5; stroke-linecap: round"/>
     </g>
     <g id="text_8">
      <!-- 0 -->
      <g style="fill: #262626" transform="translate(82.89 600.426736) scale(0.32 -0.32)">
       <use xlink:href="#DejaVuSans-30"/>
      </g>
     </g>
    </g>
    <g id="ytick_2">
     <g id="line2d_8">
      <path d="M 115.75 486.526573 
L 1045.755455 486.526573 
" clip-path="url(#pe2288e20a7)" style="fill: none; stroke: #cccccc; stroke-opacity: 0.3; stroke-width: 1.5; stroke-linecap: round"/>
     </g>
     <g id="text_9">
      <!-- 20 -->
      <g style="fill: #262626" transform="translate(62.53 498.684073) scale(0.32 -0.32)">
       <use xlink:href="#DejaVuSans-32"/>
       <use xlink:href="#DejaVuSans-30" transform="translate(63.623047 0)"/>
      </g>
     </g>
    </g>
    <g id="ytick_3">
     <g id="line2d_9">
      <path d="M 115.75 384.783911 
L 1045.755455 384.783911 
" clip-path="url(#pe2288e20a7)" style="fill: none; stroke: #cccccc; stroke-opacity: 0.3; stroke-width: 1.5; stroke-linecap: round"/>
     </g>
     <g id="text_10">
      <!-- 40 -->
      <g style="fill: #262626" transform="translate(62.53 396.941411) scale(0.32 -0.32)">
       <use xlink:href="#DejaVuSans-34"/>
       <use xlink:href="#DejaVuSans-30" transform="translate(63.623047 0)"/>
      </g>
     </g>
    </g>
    <g id="ytick_4">
     <g id="line2d_10">
      <path d="M 115.75 283.041249 
L 1045.755455 283.041249 
" clip-path="url(#pe2288e20a7)" style="fill: none; stroke: #cccccc; stroke-opacity: 0.3; stroke-width: 1.5; stroke-linecap: round"/>
     </g>
     <g id="text_11">
      <!-- 60 -->
      <g style="fill: #262626" transform="translate(62.53 295.198749) scale(0.32 -0.32)">
       <use xlink:href="#DejaVuSans-36"/>
       <use xlink:href="#DejaVuSans-30" transform="translate(63.623047 0)"/>
      </g>
     </g>
    </g>
    <g id="ytick_5">
     <g id="line2d_11">
      <path d="M 115.75 181.298586 
L 1045.755455 181.298586 
" clip-path="url(#pe2288e20a7)" style="fill: none; stroke: #cccccc; stroke-opacity: 0.3; stroke-width: 1.5; stroke-linecap: round"/>
     </g>
     <g id="text_12">
      <!-- 80 -->
      <g style="fill: #262626" transform="translate(62.53 193.456086) scale(0.32 -0.32)">
       <use xlink:href="#DejaVuSans-38"/>
       <use xlink:href="#DejaVuSans-30" transform="translate(63.623047 0)"/>
      </g>
     </g>
    </g>
    <g id="ytick_6">
     <g id="line2d_12">
      <path d="M 115.75 79.555924 
L 1045.755455 79.555924 
" clip-path="url(#pe2288e20a7)" style="fill: none; stroke: #cccccc; stroke-opacity: 0.3; stroke-width: 1.5; stroke-linecap: round"/>
     </g>
     <g id="text_13">
      <!-- 100 -->
      <g style="fill: #262626" transform="translate(42.17 91.713424) scale(0.32 -0.32)">
       <use xlink:href="#DejaVuSans-31"/>
       <use xlink:href="#DejaVuSans-30" transform="translate(63.623047 0)"/>
       <use xlink:href="#DejaVuSans-30" transform="translate(127.246094 0)"/>
      </g>
     </g>
    </g>
    <g id="text_14">
     <!-- Accuracy (%) -->
     <g style="fill: #262626" transform="translate(31.515 438.046875) rotate(-90) scale(0.32 -0.32)">
      <defs>
       <path id="DejaVuSans-41" d="M 2188 4044 
L 1331 1722 
L 3047 1722 
L 2188 4044 
z
M 1831 4666 
L 2547 4666 
L 4325 0 
L 3669 0 
L 3244 1197 
L 1141 1197 
L 716 0 
L 50 0 
L 1831 4666 
z
" transform="scale(0.015625)"/>
       <path id="DejaVuSans-75" d="M 544 1381 
L 544 3500 
L 1119 3500 
L 1119 1403 
Q 1119 906 1312 657 
Q 1506 409 1894 409 
Q 2359 409 2629 706 
Q 2900 1003 2900 1516 
L 2900 3500 
L 3475 3500 
L 3475 0 
L 2900 0 
L 2900 538 
Q 2691 219 2414 64 
Q 2138 -91 1772 -91 
Q 1169 -91 856 284 
Q 544 659 544 1381 
z
M 1991 3584 
L 1991 3584 
z
" transform="scale(0.015625)"/>
       <path id="DejaVuSans-72" d="M 2631 2963 
Q 2534 3019 2420 3045 
Q 2306 3072 2169 3072 
Q 1681 3072 1420 2755 
Q 1159 2438 1159 1844 
L 1159 0 
L 581 0 
L 581 3500 
L 1159 3500 
L 1159 2956 
Q 1341 3275 1631 3429 
Q 1922 3584 2338 3584 
Q 2397 3584 2469 3576 
Q 2541 3569 2628 3553 
L 2631 2963 
z
" transform="scale(0.015625)"/>
       <path id="DejaVuSans-61" d="M 2194 1759 
Q 1497 1759 1228 1600 
Q 959 1441 959 1056 
Q 959 750 1161 570 
Q 1363 391 1709 391 
Q 2188 391 2477 730 
Q 2766 1069 2766 1631 
L 2766 1759 
L 2194 1759 
z
M 3341 1997 
L 3341 0 
L 2766 0 
L 2766 531 
Q 2569 213 2275 61 
Q 1981 -91 1556 -91 
Q 1019 -91 701 211 
Q 384 513 384 1019 
Q 384 1609 779 1909 
Q 1175 2209 1959 2209 
L 2766 2209 
L 2766 2266 
Q 2766 2663 2505 2880 
Q 2244 3097 1772 3097 
Q 1472 3097 1187 3025 
Q 903 2953 641 2809 
L 641 3341 
Q 956 3463 1253 3523 
Q 1550 3584 1831 3584 
Q 2591 3584 2966 3190 
Q 3341 2797 3341 1997 
z
" transform="scale(0.015625)"/>
       <path id="DejaVuSans-79" d="M 2059 -325 
Q 1816 -950 1584 -1140 
Q 1353 -1331 966 -1331 
L 506 -1331 
L 506 -850 
L 844 -850 
Q 1081 -850 1212 -737 
Q 1344 -625 1503 -206 
L 1606 56 
L 191 3500 
L 800 3500 
L 1894 763 
L 2988 3500 
L 3597 3500 
L 2059 -325 
z
" transform="scale(0.015625)"/>
       <path id="DejaVuSans-20" transform="scale(0.015625)"/>
       <path id="DejaVuSans-28" d="M 1984 4856 
Q 1566 4138 1362 3434 
Q 1159 2731 1159 2009 
Q 1159 1288 1364 580 
Q 1569 -128 1984 -844 
L 1484 -844 
Q 1016 -109 783 600 
Q 550 1309 550 2009 
Q 550 2706 781 3412 
Q 1013 4119 1484 4856 
L 1984 4856 
z
" transform="scale(0.015625)"/>
       <path id="DejaVuSans-25" d="M 4653 2053 
Q 4381 2053 4226 1822 
Q 4072 1591 4072 1178 
Q 4072 772 4226 539 
Q 4381 306 4653 306 
Q 4919 306 5073 539 
Q 5228 772 5228 1178 
Q 5228 1588 5073 1820 
Q 4919 2053 4653 2053 
z
M 4653 2450 
Q 5147 2450 5437 2106 
Q 5728 1763 5728 1178 
Q 5728 594 5436 251 
Q 5144 -91 4653 -91 
Q 4153 -91 3862 251 
Q 3572 594 3572 1178 
Q 3572 1766 3864 2108 
Q 4156 2450 4653 2450 
z
M 1428 4353 
Q 1159 4353 1004 4120 
Q 850 3888 850 3481 
Q 850 3069 1003 2837 
Q 1156 2606 1428 2606 
Q 1700 2606 1854 2837 
Q 2009 3069 2009 3481 
Q 2009 3884 1853 4118 
Q 1697 4353 1428 4353 
z
M 4250 4750 
L 4750 4750 
L 1831 -91 
L 1331 -91 
L 4250 4750 
z
M 1428 4750 
Q 1922 4750 2215 4408 
Q 2509 4066 2509 3481 
Q 2509 2891 2217 2550 
Q 1925 2209 1428 2209 
Q 931 2209 642 2551 
Q 353 2894 353 3481 
Q 353 4063 643 4406 
Q 934 4750 1428 4750 
z
" transform="scale(0.015625)"/>
       <path id="DejaVuSans-29" d="M 513 4856 
L 1013 4856 
Q 1481 4119 1714 3412 
Q 1947 2706 1947 2009 
Q 1947 1309 1714 600 
Q 1481 -109 1013 -844 
L 513 -844 
Q 928 -128 1133 580 
Q 1338 1288 1338 2009 
Q 1338 2731 1133 3434 
Q 928 4138 513 4856 
z
" transform="scale(0.015625)"/>
      </defs>
      <use xlink:href="#DejaVuSans-41"/>
      <use xlink:href="#DejaVuSans-63" transform="translate(66.658203 0)"/>
      <use xlink:href="#DejaVuSans-63" transform="translate(121.638672 0)"/>
      <use xlink:href="#DejaVuSans-75" transform="translate(176.619141 0)"/>
      <use xlink:href="#DejaVuSans-72" transform="translate(239.998047 0)"/>
      <use xlink:href="#DejaVuSans-61" transform="translate(281.111328 0)"/>
      <use xlink:href="#DejaVuSans-63" transform="translate(342.390625 0)"/>
      <use xlink:href="#DejaVuSans-79" transform="translate(397.371094 0)"/>
      <use xlink:href="#DejaVuSans-20" transform="translate(456.550781 0)"/>
      <use xlink:href="#DejaVuSans-28" transform="translate(488.337891 0)"/>
      <use xlink:href="#DejaVuSans-25" transform="translate(527.351562 0)"/>
      <use xlink:href="#DejaVuSans-29" transform="translate(622.371094 0)"/>
     </g>
    </g>
   </g>
   <g id="FillBetweenPolyCollection_1"/>
   <g id="FillBetweenPolyCollection_2"/>
   <g id="line2d_13">
    <path d="M 158.022975 584.410475 
L 158.869281 579.828197 
L 159.715587 579.024288 
L 160.561893 576.934125 
L 161.408198 576.773344 
L 162.254504 575.004746 
L 163.10081 571.547938 
L 163.947116 566.483314 
L 164.793422 564.634325 
L 165.639727 559.891264 
L 166.486033 556.193288 
L 167.332339 549.279673 
L 168.178645 540.677853 
L 169.024951 533.925018 
L 169.871257 530.146649 
L 170.717562 516.560594 
L 171.563868 508.682295 
L 172.410174 496.060927 
L 173.25648 487.378717 
L 174.102786 474.194617 
L 174.949091 455.785115 
L 175.795397 449.353842 
L 176.641703 430.381599 
L 177.488009 416.875946 
L 178.334315 392.758691 
L 180.026926 364.702271 
L 180.873232 338.494852 
L 181.719538 329.732252 
L 182.565844 317.432446 
L 183.41215 299.424917 
L 184.258455 284.150646 
L 185.951067 262.525499 
L 186.797373 250.225693 
L 187.643679 245.080681 
L 188.489984 238.167066 
L 189.33629 232.298548 
L 190.182596 225.626111 
L 191.028902 210.35184 
L 191.875208 205.769568 
L 192.721513 203.920582 
L 193.567819 194.595242 
L 194.414125 190.575679 
L 195.260431 189.289433 
L 196.953042 179.562149 
L 197.799348 177.873929 
L 198.645654 175.38182 
L 199.49196 170.558369 
L 200.338266 163.403576 
L 201.184572 162.278096 
L 202.030877 162.760453 
L 202.877183 154.158648 
L 203.723489 152.068484 
L 204.569795 148.2901 
L 205.416101 145.797992 
L 206.262406 143.707828 
L 207.108712 137.839279 
L 207.955018 138.884377 
L 208.801324 135.990294 
L 209.64763 134.060926 
L 211.340241 126.664953 
L 212.186547 123.368927 
L 213.032853 123.208161 
L 213.879159 120.0729 
L 215.57177 118.625889 
L 216.418076 117.661174 
L 217.264382 114.043586 
L 218.110688 116.69649 
L 219.803299 112.275014 
L 220.649605 113.641642 
L 221.495911 108.898574 
L 222.342217 107.049588 
L 223.188523 107.290767 
L 224.034828 109.702492 
L 224.881134 103.271234 
L 225.72744 103.673179 
L 227.420052 103.753561 
L 228.266357 103.351617 
L 229.112663 105.924108 
L 229.958969 101.261453 
L 230.805275 103.271234 
L 231.651581 103.030056 
L 232.497886 104.477097 
L 233.344192 103.432 
L 234.190498 100.939892 
L 235.036804 99.251672 
L 235.88311 97.885043 
L 236.729416 96.116441 
L 237.575721 100.377152 
L 238.422027 97.241921 
L 239.268333 97.885043 
L 240.114639 94.910578 
L 240.960945 95.794879 
L 241.80725 97.483069 
L 243.499862 96.357619 
L 244.346168 93.624332 
L 245.192474 94.428221 
L 246.038779 94.347838 
L 247.731391 93.945894 
L 248.577697 93.785098 
L 249.424003 93.141975 
L 250.270308 93.704715 
L 251.116614 94.749782 
L 251.96292 94.749782 
L 252.809226 93.624332 
L 253.655532 93.624332 
L 255.348143 93.302771 
L 256.194449 94.267455 
L 257.040755 93.222358 
L 257.887061 94.106659 
L 258.733367 93.061592 
L 260.425978 91.453755 
L 261.272284 94.428221 
L 262.11859 93.302771 
L 262.964896 91.614551 
L 263.811201 90.649867 
L 264.657507 91.534168 
L 265.503813 92.579235 
L 266.350119 92.579235 
L 267.196425 91.85573 
L 268.04273 92.177291 
L 268.889036 91.373372 
L 269.735342 92.900797 
L 270.581648 92.740031 
L 271.427954 91.132194 
L 272.27426 90.569484 
L 273.120565 88.961647 
L 273.966871 90.489071 
L 274.813177 90.408688 
L 275.659483 89.524387 
L 276.505789 89.283208 
L 277.352094 91.29299 
L 278.1984 91.534168 
L 279.044706 89.685183 
L 279.891012 91.936112 
L 280.737318 90.247893 
L 281.583623 90.971428 
L 282.429929 87.675401 
L 283.276235 90.087127 
L 284.122541 88.47932 
L 284.968847 89.122443 
L 285.815153 88.47932 
L 286.661458 90.16751 
L 287.507764 89.283208 
L 288.35407 89.122443 
L 289.200376 90.73025 
L 290.046682 90.569484 
L 290.892987 88.961647 
L 292.585599 89.363621 
L 293.431905 87.836167 
L 294.278211 89.765566 
L 295.124516 87.996963 
L 295.970822 87.112661 
L 296.817128 87.112661 
L 297.663434 87.514606 
L 298.50974 88.881264 
L 299.356045 87.836167 
L 300.202351 88.640086 
L 301.048657 87.193044 
L 301.894963 88.881264 
L 302.741269 87.032279 
L 303.587575 88.077346 
L 304.43388 88.398907 
L 305.280186 88.318524 
L 306.126492 87.595019 
L 306.972798 87.434223 
L 307.819104 88.318524 
L 308.665409 87.595019 
L 309.511715 87.273457 
L 310.358021 89.524387 
L 311.204327 87.755784 
L 312.050633 87.675401 
L 312.896938 86.871483 
L 313.743244 87.434223 
L 314.58955 88.318524 
L 315.435856 87.996963 
L 316.282162 89.444004 
L 317.128467 89.765566 
L 317.974773 88.077346 
L 318.821079 87.675401 
L 319.667385 86.147977 
L 320.513691 86.308743 
L 322.206302 88.318524 
L 323.052608 87.514606 
L 323.898914 86.549922 
L 324.74522 86.7911 
L 325.591526 87.514606 
L 326.437831 87.434223 
L 327.284137 88.157759 
L 328.130443 87.514606 
L 328.976749 87.193044 
L 329.823055 87.273457 
L 330.66936 87.032279 
L 331.515666 87.032279 
L 332.361972 86.22836 
L 333.208278 85.585237 
L 334.900889 86.710717 
L 335.747195 86.22836 
L 336.593501 86.7911 
L 337.439807 86.389156 
L 338.286113 85.344059 
L 339.132419 87.514606 
L 339.978724 87.032279 
L 340.82503 87.35384 
L 341.671336 86.710717 
L 342.517642 86.22836 
L 343.363948 85.504855 
L 344.210253 86.22836 
L 345.056559 86.389156 
L 345.902865 87.273457 
L 346.749171 85.906799 
L 347.595477 87.514606 
L 348.441782 86.389156 
L 349.288088 84.781319 
L 350.134394 85.183293 
L 350.9807 85.424442 
L 351.827006 86.067595 
L 352.673311 86.389156 
L 353.519617 86.469539 
L 354.365923 86.22836 
L 355.212229 87.193044 
L 356.058535 86.630304 
L 356.904841 87.032279 
L 357.751146 85.66562 
L 358.597452 85.987182 
L 359.443758 86.7911 
L 360.290064 84.138196 
L 361.13637 85.504855 
L 361.982675 85.826416 
L 363.675287 84.620553 
L 364.521593 84.218579 
L 365.367899 85.344059 
L 366.214204 85.66562 
L 367.06051 85.10288 
L 367.906816 86.469539 
L 368.753122 85.987182 
L 369.599428 86.308743 
L 370.445734 85.66562 
L 371.292039 87.675401 
L 372.138345 86.389156 
L 373.830957 85.66562 
L 374.677263 84.620553 
L 375.523568 84.379375 
L 376.369874 83.816635 
L 377.21618 84.942115 
L 378.062486 84.620553 
L 378.908792 84.781319 
L 379.755097 86.147977 
L 380.601403 87.032279 
L 381.447709 85.826416 
L 382.294015 86.469539 
L 383.140321 84.861732 
L 383.986626 85.022497 
L 384.832932 85.504855 
L 385.679238 84.379375 
L 386.525544 84.781319 
L 387.37185 83.575456 
L 388.218156 83.575456 
L 389.064461 84.861732 
L 389.910767 85.022497 
L 390.757073 85.906799 
L 391.603379 86.630304 
L 392.449685 85.344059 
L 393.29599 87.434223 
L 394.142296 86.951896 
L 395.834908 85.585237 
L 396.681214 84.057813 
L 398.373825 84.700936 
L 399.220131 85.344059 
L 400.066437 84.298992 
L 400.912743 84.781319 
L 401.759048 83.093129 
L 402.605354 83.816635 
L 403.45166 83.897017 
L 404.297966 85.66562 
L 405.144272 84.54017 
L 405.990578 85.344059 
L 406.836883 84.379375 
L 407.683189 83.736252 
L 408.529495 83.575456 
L 409.375801 83.253895 
L 410.222107 83.093129 
L 411.068412 85.424442 
L 411.914718 85.826416 
L 412.761024 85.746033 
L 413.60733 85.424442 
L 414.453636 84.298992 
L 415.299941 84.379375 
L 416.146247 84.620553 
L 416.992553 83.816635 
L 417.838859 85.987182 
L 418.685165 83.736252 
L 420.377776 85.344059 
L 421.224082 85.585237 
L 422.070388 85.263676 
L 422.916694 83.816635 
L 423.763 84.861732 
L 424.609305 84.298992 
L 425.455611 84.298992 
L 426.301917 86.22836 
L 427.148223 84.781319 
L 427.994529 84.620553 
L 429.68714 83.736252 
L 430.533446 83.655869 
L 431.379752 82.932333 
L 433.072363 82.771568 
L 433.918669 84.54017 
L 434.764975 83.816635 
L 435.611281 84.861732 
L 436.457587 85.183293 
L 437.303892 84.298992 
L 438.996504 84.379375 
L 439.84281 84.620553 
L 440.689116 84.379375 
L 441.535422 83.736252 
L 442.381727 84.459757 
L 443.228033 85.022497 
L 444.920645 84.700936 
L 445.766951 84.218579 
L 446.613256 83.012716 
L 447.459562 82.771568 
L 448.305868 83.253895 
L 449.152174 83.253895 
L 449.99848 84.138196 
L 450.844785 84.459757 
L 451.691091 83.173512 
L 453.383703 83.575456 
L 454.230009 82.932333 
L 455.076314 84.057813 
L 455.92262 82.851951 
L 456.768926 83.816635 
L 457.615232 85.10288 
L 458.461538 84.057813 
L 459.307844 84.138196 
L 460.154149 83.495073 
L 461.000455 84.218579 
L 461.846761 84.138196 
L 462.693067 83.173512 
L 463.539373 82.851951 
L 464.385678 83.012716 
L 465.231984 84.54017 
L 466.924596 82.450006 
L 467.770902 82.128445 
L 468.617207 82.128445 
L 469.463513 83.012716 
L 470.309819 83.093129 
L 471.156125 83.334308 
L 472.002431 83.897017 
L 472.848737 86.147977 
L 473.695042 84.218579 
L 474.541348 83.97743 
L 475.387654 83.97743 
L 476.23396 84.138196 
L 477.080266 83.575456 
L 477.926571 83.173512 
L 478.772877 82.369593 
L 479.619183 82.128445 
L 480.465489 82.691155 
L 481.311795 82.851951 
L 482.1581 83.736252 
L 483.004406 83.012716 
L 483.850712 82.691155 
L 484.697018 83.897017 
L 485.543324 82.530389 
L 487.235935 82.851951 
L 488.082241 82.048032 
L 488.928547 83.495073 
L 489.774853 82.771568 
L 490.621159 83.334308 
L 491.467464 82.450006 
L 492.31377 82.932333 
L 493.160076 83.575456 
L 494.006382 83.897017 
L 494.852688 84.057813 
L 495.698993 83.575456 
L 496.545299 83.575456 
L 497.391605 83.334308 
L 498.237911 82.691155 
L 499.084217 83.575456 
L 499.930522 83.97743 
L 501.623134 82.450006 
L 502.46944 82.691155 
L 503.315746 83.575456 
L 504.162051 83.334308 
L 505.008357 82.450006 
L 505.854663 83.012716 
L 506.700969 83.736252 
L 507.547275 84.138196 
L 508.393581 83.253895 
L 509.239886 83.253895 
L 510.086192 82.932333 
L 510.932498 83.495073 
L 511.778804 83.655869 
L 512.62511 84.138196 
L 513.471415 83.495073 
L 514.317721 83.414691 
L 515.164027 83.093129 
L 516.010333 83.414691 
L 516.856639 82.771568 
L 517.702944 83.655869 
L 518.54925 82.369593 
L 519.395556 82.450006 
L 520.241862 83.173512 
L 521.088168 84.057813 
L 521.934473 82.771568 
L 522.780779 82.932333 
L 523.627085 82.932333 
L 524.473391 83.816635 
L 525.319697 82.369593 
L 526.166003 83.093129 
L 527.012308 82.530389 
L 527.858614 82.128445 
L 528.70492 82.771568 
L 530.397532 82.771568 
L 531.243837 83.816635 
L 532.090143 82.932333 
L 532.936449 81.726471 
L 533.782755 83.173512 
L 534.629061 82.450006 
L 536.321672 83.414691 
L 537.167978 84.379375 
L 538.014284 83.253895 
L 538.86059 84.379375 
L 539.706895 83.495073 
L 541.399507 82.610772 
L 542.245813 82.208828 
L 543.092119 82.610772 
L 543.938425 82.530389 
L 544.78473 82.128445 
L 546.477342 81.887266 
L 547.323648 82.048032 
L 548.169954 81.806853 
L 549.016259 83.495073 
L 549.862565 82.851951 
L 551.555177 83.575456 
L 552.401483 82.289211 
L 553.247788 81.967649 
L 554.094094 82.530389 
L 554.9404 81.646088 
L 557.479317 82.289211 
L 558.325623 82.771568 
L 559.171929 83.495073 
L 560.018235 82.771568 
L 560.864541 82.208828 
L 561.710847 83.495073 
L 562.557152 83.897017 
L 563.403458 83.253895 
L 564.249764 83.093129 
L 565.09607 82.208828 
L 565.942376 82.851951 
L 566.788681 83.012716 
L 567.634987 81.806853 
L 568.481293 82.450006 
L 569.327599 81.485292 
L 571.02021 82.530389 
L 571.866516 81.806853 
L 572.712822 82.932333 
L 573.559128 83.575456 
L 574.405434 82.932333 
L 575.25174 83.253895 
L 576.098045 83.97743 
L 576.944351 82.851951 
L 577.790657 81.967649 
L 578.636963 82.128445 
L 579.483269 81.967649 
L 580.329574 81.485292 
L 581.17588 82.610772 
L 582.022186 81.806853 
L 582.868492 81.967649 
L 583.714798 81.726471 
L 584.561103 82.851951 
L 585.407409 82.691155 
L 586.253715 83.012716 
L 587.100021 82.450006 
L 587.946327 82.048032 
L 588.792632 82.048032 
L 589.638938 82.289211 
L 590.485244 83.173512 
L 591.33155 82.851951 
L 592.177856 82.208828 
L 593.024162 81.967649 
L 593.870467 83.093129 
L 594.716773 81.324526 
L 595.563079 82.289211 
L 596.409385 82.851951 
L 597.255691 81.967649 
L 598.101996 82.691155 
L 598.948302 82.610772 
L 599.794608 82.048032 
L 601.48722 83.495073 
L 602.333525 82.932333 
L 603.179831 83.173512 
L 604.026137 82.369593 
L 604.872443 81.324526 
L 605.718749 81.967649 
L 606.565054 82.048032 
L 607.41136 81.244144 
L 608.257666 82.048032 
L 609.103972 82.128445 
L 609.950278 82.369593 
L 610.796584 82.771568 
L 611.642889 82.530389 
L 612.489195 81.887266 
L 613.335501 81.967649 
L 614.181807 82.450006 
L 615.028113 82.530389 
L 615.874418 83.334308 
L 616.720724 83.253895 
L 617.56703 82.691155 
L 618.413336 83.012716 
L 619.259642 82.610772 
L 620.105947 81.726471 
L 621.798559 81.967649 
L 622.644865 81.565705 
L 623.491171 81.646088 
L 624.337476 81.967649 
L 625.183782 81.244144 
L 626.030088 82.289211 
L 626.876394 81.967649 
L 627.7227 82.369593 
L 628.569006 82.289211 
L 629.415311 81.485292 
L 630.261617 82.289211 
L 631.954229 81.565705 
L 632.800535 81.806853 
L 633.64684 82.208828 
L 634.493146 81.485292 
L 636.185758 81.806853 
L 637.032064 81.485292 
L 637.878369 80.922582 
L 638.724675 82.289211 
L 639.570981 81.806853 
L 641.263593 82.610772 
L 642.109898 82.691155 
L 642.956204 83.012716 
L 643.80251 82.369593 
L 644.648816 81.404909 
L 645.495122 82.048032 
L 646.341428 81.002965 
L 647.187733 82.208828 
L 648.034039 81.887266 
L 648.880345 82.369593 
L 649.726651 82.208828 
L 651.419262 82.691155 
L 652.265568 81.726471 
L 653.111874 82.128445 
L 653.95818 81.244144 
L 654.804486 81.967649 
L 655.650791 81.967649 
L 656.497097 81.565705 
L 657.343403 81.404909 
L 658.189709 81.646088 
L 659.036015 82.128445 
L 659.882321 82.048032 
L 660.728626 81.485292 
L 661.574932 81.404909 
L 662.421238 81.565705 
L 663.267544 81.163731 
L 664.11385 81.324526 
L 664.960155 81.244144 
L 665.806461 81.646088 
L 666.652767 81.565705 
L 667.499073 81.646088 
L 668.345379 81.404909 
L 669.191684 81.565705 
L 670.03799 82.128445 
L 670.884296 81.887266 
L 671.730602 82.369593 
L 672.576908 82.691155 
L 673.423213 83.736252 
L 674.269519 82.128445 
L 675.962131 82.369593 
L 676.808437 82.369593 
L 677.654743 81.244144 
L 680.19366 81.163731 
L 681.039966 82.289211 
L 681.886272 81.324526 
L 682.732577 81.163731 
L 683.578883 81.646088 
L 684.425189 82.369593 
L 685.271495 81.404909 
L 686.117801 82.208828 
L 686.964106 82.691155 
L 687.810412 82.048032 
L 688.656718 82.128445 
L 689.503024 81.726471 
L 690.34933 81.967649 
L 691.195635 82.369593 
L 692.041941 82.530389 
L 692.888247 81.806853 
L 693.734553 81.244144 
L 694.580859 81.726471 
L 695.427165 81.244144 
L 696.27347 81.002965 
L 697.119776 81.083348 
L 697.966082 81.324526 
L 698.812388 80.761786 
L 700.504999 82.128445 
L 701.351305 81.806853 
L 702.197611 82.208828 
L 703.043917 81.646088 
L 703.890223 81.404909 
L 704.736528 82.208828 
L 705.582834 81.083348 
L 707.275446 80.842169 
L 708.968057 81.244144 
L 709.814363 81.806853 
L 710.660669 81.646088 
L 711.506975 81.646088 
L 712.353281 81.967649 
L 713.199587 81.565705 
L 714.045892 81.404909 
L 714.892198 82.208828 
L 715.738504 81.083348 
L 716.58481 81.083348 
L 718.277421 81.565705 
L 719.123727 81.967649 
L 719.970033 82.610772 
L 720.816339 80.761786 
L 721.662645 81.404909 
L 722.50895 80.520608 
L 723.355256 81.163731 
L 724.201562 80.842169 
L 725.047868 81.002965 
L 725.894174 80.520608 
L 726.740479 80.681404 
L 727.586785 81.002965 
L 728.433091 80.440225 
L 729.279397 81.002965 
L 730.125703 81.083348 
L 730.972009 82.048032 
L 731.818314 81.404909 
L 732.66462 82.128445 
L 733.510926 81.646088 
L 734.357232 81.485292 
L 735.203538 80.922582 
L 736.049843 81.083348 
L 736.896149 80.842169 
L 738.588761 80.761786 
L 739.435067 81.083348 
L 740.281372 81.163731 
L 741.127678 81.485292 
L 741.973984 82.048032 
L 742.82029 81.485292 
L 744.512901 81.565705 
L 745.359207 81.083348 
L 746.205513 81.967649 
L 747.051819 81.002965 
L 747.898125 81.806853 
L 748.744431 81.324526 
L 749.590736 81.565705 
L 750.437042 80.199046 
L 751.283348 80.842169 
L 752.129654 80.520608 
L 752.97596 82.208828 
L 753.822265 80.842169 
L 754.668571 81.646088 
L 755.514877 81.726471 
L 757.207489 81.163731 
L 758.9001 81.404909 
L 759.746406 80.922582 
L 760.592712 81.244144 
L 761.439018 80.842169 
L 762.285324 80.600991 
L 763.131629 80.520608 
L 763.977935 80.600991 
L 764.824241 81.565705 
L 765.670547 81.002965 
L 766.516853 81.163731 
L 767.363158 81.485292 
L 768.209464 81.244144 
L 769.05577 82.289211 
L 769.902076 81.565705 
L 770.748382 80.600991 
L 771.594687 80.681404 
L 772.440993 80.922582 
L 773.287299 80.761786 
L 774.133605 81.646088 
L 775.826216 81.324526 
L 776.672522 81.726471 
L 778.365134 81.163731 
L 779.21144 81.565705 
L 780.057746 81.163731 
L 780.904051 81.485292 
L 781.750357 80.761786 
L 782.596663 81.244144 
L 783.442969 81.485292 
L 785.13558 81.404909 
L 785.981886 81.002965 
L 786.828192 81.002965 
L 787.674498 80.440225 
L 788.520804 80.520608 
L 789.367109 80.118664 
L 791.059721 80.681404 
L 792.752333 81.244144 
L 793.598638 80.761786 
L 794.444944 82.610772 
L 795.29125 81.887266 
L 796.137556 80.922582 
L 797.830168 80.359842 
L 798.676473 80.600991 
L 799.522779 81.163731 
L 800.369085 81.083348 
L 801.215391 81.324526 
L 802.061697 81.163731 
L 802.908002 80.761786 
L 803.754308 80.520608 
L 804.600614 81.324526 
L 805.44692 82.369593 
L 807.139531 81.967649 
L 807.985837 81.887266 
L 808.832143 80.600991 
L 809.678449 80.359842 
L 811.37106 80.600991 
L 812.217366 80.681404 
L 813.063672 80.922582 
L 813.909978 80.520608 
L 814.756284 81.002965 
L 815.60259 80.681404 
L 816.448895 80.761786 
L 817.295201 80.279429 
L 818.141507 81.083348 
L 818.987813 80.761786 
L 819.834119 81.565705 
L 820.680424 81.404909 
L 821.52673 81.485292 
L 822.373036 82.691155 
L 823.219342 81.565705 
L 824.065648 81.726471 
L 825.758259 81.083348 
L 826.604565 81.163731 
L 827.450871 80.199046 
L 828.297177 80.118664 
L 829.143482 80.279429 
L 829.989788 80.199046 
L 830.836094 80.761786 
L 831.6824 81.565705 
L 832.528706 81.646088 
L 833.375012 82.048032 
L 835.067623 81.887266 
L 835.913929 81.002965 
L 836.760235 81.163731 
L 837.606541 80.842169 
L 838.452846 80.279429 
L 840.145458 81.244144 
L 840.991764 80.520608 
L 841.83807 81.083348 
L 842.684375 80.359842 
L 844.376987 80.681404 
L 845.223293 80.038281 
L 846.069599 80.279429 
L 846.915904 81.002965 
L 847.76221 80.761786 
L 848.608516 81.163731 
L 849.454822 81.163731 
L 850.301128 80.681404 
L 851.147434 81.485292 
L 851.993739 81.083348 
L 852.840045 81.887266 
L 853.686351 81.404909 
L 854.532657 81.565705 
L 855.378963 81.565705 
L 856.225268 80.842169 
L 857.071574 81.002965 
L 857.91788 80.600991 
L 858.764186 81.404909 
L 859.610492 80.842169 
L 860.456797 81.083348 
L 861.303103 80.520608 
L 862.149409 80.440225 
L 862.995715 80.520608 
L 863.842021 80.761786 
L 864.688327 80.681404 
L 865.534632 81.002965 
L 867.227244 81.163731 
L 868.07355 80.359842 
L 868.919856 81.002965 
L 869.766161 80.761786 
L 870.612467 81.324526 
L 871.458773 80.520608 
L 872.305079 81.163731 
L 873.99769 80.681404 
L 874.843996 81.002965 
L 875.690302 81.002965 
L 876.536608 80.440225 
L 877.382914 80.440225 
L 878.229219 81.083348 
L 879.921831 80.520608 
L 880.768137 80.520608 
L 881.614443 80.842169 
L 882.460749 80.761786 
L 883.307054 81.324526 
L 884.15336 80.440225 
L 884.999666 80.842169 
L 885.845972 81.002965 
L 887.538583 81.083348 
L 888.384889 80.520608 
L 889.231195 81.244144 
L 890.077501 80.842169 
L 890.923807 80.842169 
L 891.770112 81.083348 
L 892.616418 80.440225 
L 893.462724 81.002965 
L 894.30903 80.440225 
L 897.694253 80.199046 
L 898.540559 80.761786 
L 899.386865 80.199046 
L 900.233171 80.520608 
L 901.925782 80.118664 
L 902.772088 80.842169 
L 906.157311 80.440225 
L 907.003617 80.279429 
L 907.849923 80.440225 
L 908.696229 80.199046 
L 910.38884 80.842169 
L 912.081452 81.083348 
L 912.927758 80.761786 
L 913.774063 80.038281 
L 914.620369 80.279429 
L 915.466675 81.163731 
L 916.312981 80.520608 
L 917.159287 80.440225 
L 918.005593 80.118664 
L 918.851898 80.520608 
L 919.698204 80.520608 
L 920.54451 80.359842 
L 921.390816 80.359842 
L 923.083427 80.761786 
L 923.929733 81.083348 
L 924.776039 81.163731 
L 925.622345 80.440225 
L 926.468651 81.002965 
L 927.314956 80.359842 
L 928.161262 80.520608 
L 929.853874 80.118664 
L 930.70018 80.359842 
L 932.392791 80.118664 
L 933.239097 80.440225 
L 934.085403 79.797102 
L 935.778015 80.440225 
L 936.62432 80.359842 
L 938.316932 80.922582 
L 939.163238 80.761786 
L 940.009544 80.440225 
L 940.855849 80.279429 
L 941.702155 80.279429 
L 942.548461 80.842169 
L 943.394767 81.163731 
L 945.087378 80.118664 
L 945.933684 79.877485 
L 948.472602 79.877485 
L 949.318908 80.118664 
L 951.011519 81.404909 
L 951.857825 80.520608 
L 952.704131 80.681404 
L 953.550437 80.279429 
L 954.396742 80.600991 
L 955.243048 80.038281 
L 956.089354 80.038281 
L 956.93566 79.877485 
L 957.781966 80.038281 
L 958.628271 80.038281 
L 960.320883 80.520608 
L 961.167189 80.279429 
L 962.013495 80.922582 
L 962.8598 80.761786 
L 963.706106 80.842169 
L 964.552412 81.083348 
L 967.09133 81.324526 
L 967.937635 80.600991 
L 968.783941 81.083348 
L 969.630247 80.842169 
L 970.476553 80.359842 
L 971.322859 80.440225 
L 973.01547 80.038281 
L 973.861776 80.279429 
L 975.554388 80.359842 
L 976.400693 80.279429 
L 977.246999 80.359842 
L 978.093305 80.600991 
L 980.632222 80.279429 
L 981.478528 80.038281 
L 982.324834 80.520608 
L 983.17114 80.199046 
L 984.017446 80.520608 
L 984.863752 80.520608 
L 985.710057 80.359842 
L 986.556363 80.440225 
L 987.402669 80.199046 
L 988.248975 80.520608 
L 989.095281 80.118664 
L 989.941586 80.359842 
L 990.787892 80.359842 
L 991.634198 80.761786 
L 992.480504 80.118664 
L 993.32681 80.279429 
L 994.173115 80.681404 
L 995.019421 80.279429 
L 995.865727 80.199046 
L 996.712033 80.359842 
L 997.558339 80.279429 
L 998.404644 79.877485 
L 999.25095 80.600991 
L 1000.097256 80.440225 
L 1000.943562 80.440225 
L 1001.789868 80.038281 
L 1002.636174 80.199046 
L 1003.482479 80.600991 
L 1003.482479 80.600991 
" clip-path="url(#pe2288e20a7)" style="fill: none; stroke: #4c72b0; stroke-width: 6; stroke-linecap: round"/>
   </g>
   <g id="line2d_14">
    <path d="M 158.022975 584.651648 
L 158.869281 581.034059 
L 159.715587 580.873277 
L 160.561893 581.757577 
L 161.408198 582.481095 
L 163.10081 583.285003 
L 163.947116 583.204612 
L 164.793422 583.445785 
L 166.486033 583.04383 
L 167.332339 582.883049 
L 168.178645 583.124221 
L 169.871257 583.204612 
L 170.717562 582.641876 
L 173.25648 582.320313 
L 174.102786 581.998749 
L 174.949091 581.436014 
L 175.795397 580.551714 
L 176.641703 580.873277 
L 177.488009 580.792887 
L 178.334315 580.953668 
L 179.18062 580.23015 
L 180.026926 580.310542 
L 180.873232 579.506633 
L 181.719538 579.828197 
L 182.565844 579.587024 
L 183.41215 578.863506 
L 184.258455 579.426242 
L 185.104761 579.506633 
L 186.797373 579.104679 
L 187.643679 579.104679 
L 188.489984 578.702724 
L 189.33629 579.587024 
L 190.182596 579.667415 
L 191.028902 579.185069 
L 191.875208 579.024288 
L 192.721513 579.345852 
L 193.567819 579.426242 
L 194.414125 579.185069 
L 195.260431 579.587024 
L 196.953042 579.345852 
L 197.799348 578.863506 
L 198.645654 579.587024 
L 199.49196 578.783116 
L 200.338266 578.541943 
L 202.030877 579.908587 
L 202.877183 579.426242 
L 203.723489 578.702724 
L 204.569795 579.828197 
L 205.416101 578.943897 
L 206.262406 579.587024 
L 207.108712 579.185069 
L 208.801324 579.104679 
L 209.64763 578.702724 
L 210.493935 579.506633 
L 211.340241 579.024288 
L 212.186547 579.104679 
L 213.032853 579.345852 
L 214.725464 578.541943 
L 215.57177 579.185069 
L 216.418076 578.461552 
L 217.264382 579.587024 
L 218.110688 579.185069 
L 218.956994 579.265461 
L 219.803299 579.667415 
L 220.649605 579.024288 
L 221.495911 579.104679 
L 222.342217 578.863506 
L 223.188523 579.104679 
L 224.034828 579.828197 
L 224.881134 578.461552 
L 225.72744 578.702724 
L 226.573746 578.541943 
L 227.420052 579.024288 
L 228.266357 579.345852 
L 229.112663 578.863506 
L 229.958969 578.943897 
L 230.805275 578.783116 
L 231.651581 578.139988 
L 232.497886 578.461552 
L 233.344192 578.300771 
L 234.190498 578.541943 
L 235.036804 577.979207 
L 235.88311 578.943897 
L 236.729416 577.898816 
L 237.575721 578.300771 
L 238.422027 578.461552 
L 239.268333 577.979207 
L 240.114639 578.541943 
L 240.960945 578.541943 
L 242.653556 577.657643 
L 243.499862 577.577253 
L 244.346168 577.657643 
L 245.192474 578.059598 
L 246.038779 577.657643 
L 246.885085 577.094907 
L 247.731391 577.416471 
L 249.424003 577.175298 
L 250.270308 577.898816 
L 251.116614 577.738035 
L 251.96292 578.541943 
L 252.809226 578.461552 
L 254.501838 577.738035 
L 255.348143 577.979207 
L 256.194449 578.059598 
L 257.040755 577.818425 
L 257.887061 578.300771 
L 258.733367 577.175298 
L 259.579672 577.25569 
L 260.425978 577.496862 
L 261.272284 578.220379 
L 262.11859 578.220379 
L 262.964896 577.657643 
L 263.811201 577.898816 
L 264.657507 577.577253 
L 265.503813 576.853735 
L 267.196425 576.773344 
L 268.04273 576.773344 
L 268.889036 576.37139 
L 269.735342 578.622334 
L 270.581648 577.094907 
L 271.427954 576.130217 
L 272.27426 577.33608 
L 273.120565 576.692953 
L 273.966871 576.773344 
L 274.813177 577.496862 
L 275.659483 577.496862 
L 276.505789 577.014517 
L 277.352094 576.692953 
L 278.1984 577.416471 
L 279.044706 576.934125 
L 279.891012 576.853735 
L 280.737318 576.130217 
L 281.583623 577.094907 
L 282.429929 576.532172 
L 283.276235 576.290999 
L 284.122541 575.889044 
L 284.968847 575.889044 
L 285.815153 576.451781 
L 286.661458 576.612562 
L 287.507764 575.969436 
L 288.35407 577.25569 
L 289.200376 576.532172 
L 290.046682 576.853735 
L 290.892987 576.290999 
L 291.739293 575.889044 
L 292.585599 576.934125 
L 293.431905 576.612562 
L 294.278211 577.094907 
L 295.124516 576.37139 
L 295.970822 576.612562 
L 296.817128 576.049827 
L 297.663434 576.853735 
L 298.50974 577.014517 
L 299.356045 575.969436 
L 300.202351 576.853735 
L 301.048657 576.130217 
L 302.741269 576.37139 
L 303.587575 576.130217 
L 304.43388 575.085136 
L 305.280186 576.532172 
L 306.126492 575.728263 
L 306.972798 576.612562 
L 307.819104 575.808654 
L 310.358021 576.451781 
L 311.204327 576.451781 
L 312.050633 576.692953 
L 312.896938 573.879273 
L 313.743244 574.5224 
L 315.435856 575.567481 
L 316.282162 575.004746 
L 317.128467 574.683182 
L 318.821079 575.567481 
L 319.667385 575.085136 
L 320.513691 576.290999 
L 321.359997 575.567481 
L 322.206302 575.085136 
L 323.052608 575.406699 
L 324.74522 574.5224 
L 325.591526 575.728263 
L 327.284137 574.200837 
L 328.130443 573.798883 
L 329.823055 574.281228 
L 330.66936 574.040055 
L 331.515666 574.120446 
L 332.361972 575.969436 
L 333.208278 574.602791 
L 334.054584 575.487091 
L 334.900889 575.004746 
L 335.747195 573.879273 
L 336.593501 574.843963 
L 337.439807 573.6381 
L 338.286113 573.396928 
L 339.132419 574.683182 
L 339.978724 573.718492 
L 340.82503 573.718492 
L 341.671336 574.120446 
L 342.517642 573.236147 
L 343.363948 573.075365 
L 344.210253 573.959665 
L 345.056559 573.236147 
L 345.902865 573.477319 
L 346.749171 572.914584 
L 348.441782 572.593019 
L 349.288088 573.075365 
L 350.134394 573.718492 
L 350.9807 573.316537 
L 351.827006 573.959665 
L 352.673311 573.798883 
L 354.365923 574.683182 
L 355.212229 572.914584 
L 356.058535 572.432238 
L 357.751146 573.075365 
L 358.597452 574.683182 
L 359.443758 572.432238 
L 360.290064 572.914584 
L 361.13637 573.718492 
L 361.982675 572.673411 
L 363.675287 572.271457 
L 364.521593 572.030284 
L 365.367899 572.593019 
L 366.214204 573.316537 
L 367.06051 572.191065 
L 367.906816 571.708721 
L 368.753122 571.949894 
L 369.599428 572.512629 
L 370.445734 571.467548 
L 371.292039 571.226375 
L 372.984651 571.869502 
L 373.830957 570.985202 
L 374.677263 569.538168 
L 375.523568 570.020512 
L 376.369874 569.779339 
L 377.21618 570.663639 
L 378.062486 570.181295 
L 378.908792 570.502858 
L 379.755097 572.432238 
L 380.601403 570.744031 
L 381.447709 569.618559 
L 382.294015 570.985202 
L 383.140321 569.779339 
L 383.986626 570.663639 
L 384.832932 569.779339 
L 385.679238 570.422468 
L 386.525544 569.618559 
L 387.37185 569.296995 
L 388.218156 569.377386 
L 389.064461 570.744031 
L 389.910767 568.975432 
L 390.757073 569.457776 
L 391.603379 570.100903 
L 392.449685 568.975432 
L 393.29599 568.251913 
L 394.142296 568.171523 
L 394.988602 569.216603 
L 396.681214 568.171523 
L 397.527519 568.814649 
L 398.373825 569.859732 
L 399.220131 569.377386 
L 400.912743 568.653869 
L 401.759048 568.975432 
L 402.605354 568.091133 
L 403.45166 567.608787 
L 404.297966 568.171523 
L 405.144272 568.493086 
L 405.990578 569.296995 
L 406.836883 567.769569 
L 407.683189 568.653869 
L 408.529495 567.608787 
L 409.375801 567.769569 
L 410.222107 568.332306 
L 411.068412 567.126443 
L 411.914718 566.96566 
L 413.60733 568.332306 
L 414.453636 567.046051 
L 415.299941 567.528396 
L 416.146247 566.804878 
L 416.992553 567.126443 
L 417.838859 566.644097 
L 418.685165 566.563707 
L 419.53147 564.875498 
L 420.377776 565.357844 
L 422.070388 564.151981 
L 422.916694 565.116671 
L 423.763 565.840188 
L 424.609305 565.277452 
L 425.455611 563.750026 
L 426.301917 563.750026 
L 427.148223 564.553935 
L 427.994529 565.759797 
L 428.840834 564.714715 
L 429.68714 566.644097 
L 430.533446 565.759797 
L 431.379752 563.910808 
L 432.226058 562.383382 
L 433.072363 562.463772 
L 433.918669 563.428462 
L 434.764975 563.830418 
L 435.611281 563.428462 
L 436.457587 563.187289 
L 437.303892 562.463772 
L 438.150198 563.589245 
L 438.996504 564.473544 
L 439.84281 561.901036 
L 440.689116 561.41869 
L 441.535422 561.25791 
L 442.381727 561.41869 
L 443.228033 561.177519 
L 444.074339 562.463772 
L 444.920645 562.2226 
L 445.766951 562.142209 
L 446.613256 560.534393 
L 448.305868 558.363838 
L 449.152174 559.810874 
L 449.99848 560.37361 
L 450.844785 559.810874 
L 451.691091 559.006965 
L 452.537397 560.614783 
L 453.383703 559.810874 
L 454.230009 558.846184 
L 455.076314 560.534393 
L 455.92262 560.454001 
L 456.768926 560.212828 
L 457.615232 558.685402 
L 458.461538 558.363838 
L 459.307844 557.479539 
L 460.154149 557.399149 
L 461.000455 556.756022 
L 461.846761 557.559931 
L 462.693067 557.961885 
L 463.539373 557.318758 
L 464.385678 557.318758 
L 465.231984 555.710942 
L 466.07829 555.791332 
L 466.924596 554.183514 
L 467.770902 556.514849 
L 468.617207 554.505079 
L 469.463513 556.756022 
L 470.309819 555.148206 
L 471.156125 555.067815 
L 472.002431 556.836412 
L 472.848737 553.781562 
L 473.695042 555.630552 
L 474.541348 554.74625 
L 475.387654 553.299216 
L 476.23396 554.103124 
L 477.080266 551.932569 
L 477.926571 552.414915 
L 478.772877 550.405145 
L 479.619183 552.897261 
L 480.465489 552.414915 
L 481.311795 551.771788 
L 482.1581 554.103124 
L 483.004406 552.254134 
L 483.850712 554.022733 
L 484.697018 554.424689 
L 485.543324 553.299216 
L 486.389629 552.977651 
L 487.235935 553.138432 
L 488.082241 551.369833 
L 488.928547 551.048272 
L 489.774853 551.932569 
L 490.621159 553.138432 
L 492.31377 550.887491 
L 493.160076 548.07381 
L 494.006382 548.314981 
L 494.852688 551.209052 
L 495.698993 549.038502 
L 496.545299 547.913029 
L 497.391605 545.903255 
L 498.237911 545.501304 
L 499.084217 549.681628 
L 500.776828 547.671854 
L 502.46944 543.089578 
L 503.315746 540.999414 
L 504.162051 542.848403 
L 505.008357 543.893485 
L 506.700969 545.340519 
L 507.547275 541.883715 
L 508.393581 543.652314 
L 509.239886 542.044496 
L 510.086192 541.722931 
L 511.778804 543.250359 
L 512.62511 543.973876 
L 513.471415 544.134657 
L 515.164027 539.55238 
L 516.010333 540.597462 
L 516.856639 540.356288 
L 517.702944 540.677853 
L 518.54925 541.803325 
L 519.395556 541.964106 
L 520.241862 538.105343 
L 521.088168 537.864172 
L 521.934473 538.748469 
L 522.780779 537.140655 
L 524.473391 531.995639 
L 525.319697 535.291666 
L 526.166003 536.979874 
L 527.012308 533.442676 
L 527.858614 532.87994 
L 528.70492 535.291666 
L 529.551226 531.995639 
L 530.397532 537.140655 
L 531.243837 534.005412 
L 532.090143 530.22704 
L 532.936449 528.136879 
L 533.782755 528.21727 
L 534.629061 528.056489 
L 535.475366 526.529061 
L 536.321672 527.413363 
L 537.167978 526.770232 
L 538.014284 529.262352 
L 538.86059 532.317204 
L 539.706895 526.28789 
L 540.553201 530.387824 
L 541.399507 525.403589 
L 542.245813 525.725154 
L 543.092119 527.091797 
L 543.938425 526.609452 
L 544.78473 528.458441 
L 545.631036 524.760462 
L 546.477342 524.19773 
L 547.323648 523.233038 
L 548.169954 526.448671 
L 549.016259 524.036942 
L 549.862565 525.082027 
L 550.708871 524.19773 
L 551.555177 521.464435 
L 552.401483 521.946785 
L 553.247788 523.5546 
L 554.094094 519.05271 
L 554.9404 520.660532 
L 555.786706 516.560594 
L 556.633012 516.560594 
L 557.479317 518.489978 
L 558.325623 518.329197 
L 559.171929 516.801765 
L 560.018235 516.319423 
L 560.864541 518.489978 
L 561.710847 516.078252 
L 562.557152 518.248806 
L 563.403458 514.47043 
L 564.249764 515.997862 
L 565.09607 519.374279 
L 565.942376 514.95278 
L 566.788681 515.274341 
L 567.634987 510.772451 
L 568.481293 511.978314 
L 569.327599 513.586136 
L 570.173905 506.913692 
L 571.02021 511.817533 
L 571.866516 511.656753 
L 572.712822 507.315651 
L 573.559128 505.707829 
L 574.405434 506.029391 
L 575.25174 508.843076 
L 576.098045 504.180405 
L 576.944351 505.305878 
L 577.790657 507.074473 
L 578.636963 502.170632 
L 579.483269 504.260796 
L 580.329574 497.427571 
L 582.022186 500.402036 
L 582.868492 501.366728 
L 583.714798 501.76868 
L 584.561103 501.84907 
L 585.407409 504.341186 
L 586.253715 503.054933 
L 587.100021 503.858844 
L 587.946327 495.819756 
L 588.792632 498.151092 
L 589.638938 494.613894 
L 590.485244 498.231482 
L 591.33155 495.658976 
L 592.177856 492.041387 
L 594.716773 496.141318 
L 595.563079 489.951223 
L 596.409385 489.710052 
L 597.255691 491.719826 
L 598.101996 493.327641 
L 598.948302 489.629662 
L 599.794608 485.047382 
L 600.640914 489.066922 
L 601.48722 482.474876 
L 602.333525 483.198389 
L 603.179831 484.56504 
L 604.026137 485.449334 
L 604.872443 478.696507 
L 605.718749 476.124001 
L 606.565054 476.927904 
L 607.41136 477.490644 
L 608.257666 477.410254 
L 609.103972 475.159309 
L 609.950278 481.590575 
L 611.642889 474.83774 
L 612.489195 477.249466 
L 613.335501 469.049605 
L 614.181807 476.686733 
L 615.028113 470.175077 
L 615.874418 474.676959 
L 616.720724 474.998528 
L 617.56703 476.847514 
L 618.413336 470.73781 
L 619.259642 468.165304 
L 620.105947 466.557489 
L 620.952253 468.245694 
L 621.798559 464.547715 
L 622.644865 464.788886 
L 623.491171 459.483086 
L 624.337476 466.15553 
L 625.183782 466.557489 
L 626.030088 465.914359 
L 626.876394 457.553718 
L 627.7227 464.467325 
L 628.569006 458.598784 
L 630.261617 450.881266 
L 631.107923 450.559705 
L 631.954229 458.920361 
L 632.800535 450.479322 
L 633.64684 451.685185 
L 634.493146 454.016512 
L 635.339452 450.881266 
L 636.185758 446.459774 
L 637.032064 453.373389 
L 637.878369 450.479322 
L 638.724675 445.012733 
L 639.570981 447.826418 
L 640.417287 447.344076 
L 641.263593 448.791102 
L 642.109898 449.193061 
L 642.956204 445.655871 
L 643.80251 439.1442 
L 644.648816 445.897034 
L 645.495122 433.034503 
L 646.341428 436.491311 
L 647.187733 440.912803 
L 648.034039 438.099118 
L 648.880345 434.722708 
L 649.726651 433.114886 
L 650.572957 429.497298 
L 651.419262 435.285448 
L 652.265568 436.571694 
L 653.111874 431.265901 
L 653.95818 429.658079 
L 654.804486 427.326751 
L 655.650791 427.16597 
L 656.497097 426.844409 
L 657.343403 421.458218 
L 658.189709 419.689615 
L 659.036015 423.789546 
L 659.882321 424.673847 
L 660.728626 422.824861 
L 661.574932 424.111122 
L 662.421238 422.5033 
L 663.267544 413.821082 
L 664.11385 417.760232 
L 664.960155 411.650535 
L 665.806461 410.605453 
L 666.652767 410.364275 
L 667.499073 411.087795 
L 668.345379 410.525055 
L 669.191684 411.409357 
L 670.03799 415.830864 
L 670.884296 413.017179 
L 671.730602 407.872166 
L 672.576908 411.248576 
L 673.423213 414.142644 
L 674.269519 412.534837 
L 675.115825 403.289879 
L 675.962131 405.460441 
L 676.808437 405.782002 
L 677.654743 400.717373 
L 678.501048 394.044936 
L 679.347354 402.485976 
L 680.19366 399.993867 
L 681.039966 392.999854 
L 681.886272 390.105787 
L 682.732577 391.47243 
L 683.578883 395.41158 
L 684.425189 387.292102 
L 685.271495 389.703827 
L 686.117801 394.84884 
L 686.964106 395.733141 
L 687.810412 386.568581 
L 688.656718 387.050938 
L 689.503024 384.880376 
L 690.34933 377.243256 
L 691.195635 392.356731 
L 692.041941 379.413803 
L 692.888247 382.14709 
L 693.734553 386.407801 
L 694.580859 370.731585 
L 695.427165 376.439337 
L 696.27347 371.455106 
L 697.119776 369.686503 
L 697.966082 366.953216 
L 698.812388 363.657189 
L 699.658694 370.490421 
L 700.504999 376.358954 
L 701.351305 374.911913 
L 702.197611 373.223708 
L 703.043917 374.670734 
L 703.890223 371.294325 
L 704.736528 359.557259 
L 705.582834 358.592575 
L 706.42914 358.994519 
L 707.275446 353.527945 
L 708.121752 352.482863 
L 708.968057 347.659412 
L 709.814363 360.039601 
L 710.660669 362.290546 
L 711.506975 352.000521 
L 712.353281 354.010287 
L 713.199587 350.071138 
L 714.045892 351.277 
L 714.892198 347.980973 
L 715.738504 352.080919 
L 716.58481 346.855509 
L 717.431116 346.61433 
L 718.277421 336.967428 
L 719.123727 342.67518 
L 719.970033 333.189074 
L 720.816339 332.465538 
L 721.662645 330.294992 
L 722.50895 326.677403 
L 723.355256 325.632336 
L 724.201562 328.928333 
L 725.047868 323.863734 
L 725.894174 323.300994 
L 726.740479 323.300994 
L 727.586785 319.924584 
L 728.433091 319.201048 
L 729.279397 317.352063 
L 730.125703 326.436225 
L 730.972009 326.355842 
L 731.818314 330.455787 
L 732.66462 323.461759 
L 733.510926 329.571486 
L 734.357232 324.748035 
L 735.203538 317.995186 
L 736.049843 315.824639 
L 736.896149 318.799104 
L 737.742455 318.879487 
L 738.588761 313.33253 
L 739.435067 308.991406 
L 740.281372 313.493296 
L 741.127678 314.216832 
L 741.973984 319.52261 
L 742.82029 317.352063 
L 743.666596 310.760009 
L 744.512901 306.016941 
L 745.359207 310.840392 
L 746.205513 309.875708 
L 747.898125 295.646533 
L 748.744431 303.685628 
L 749.590736 309.232585 
L 750.437042 293.958313 
L 751.283348 295.646533 
L 752.129654 289.858398 
L 752.97596 289.295658 
L 753.822265 301.595464 
L 754.668571 298.138642 
L 755.514877 292.109328 
L 756.361183 293.556369 
L 758.053794 282.140865 
L 758.9001 291.064261 
L 759.746406 280.211496 
L 760.592712 282.221247 
L 761.439018 275.870372 
L 762.285324 276.272347 
L 763.131629 276.352729 
L 763.977935 273.699825 
L 764.824241 265.821526 
L 765.670547 271.127334 
L 766.516853 269.519497 
L 767.363158 270.082237 
L 768.209464 275.709607 
L 769.05577 284.391825 
L 769.902076 267.429333 
L 770.748382 257.862844 
L 771.594687 262.043172 
L 772.440993 253.762899 
L 773.287299 261.641198 
L 774.133605 261.480432 
L 774.979911 259.71183 
L 775.826216 260.113774 
L 776.672522 258.103992 
L 777.518828 253.360955 
L 778.365134 250.306106 
L 779.21144 250.868816 
L 780.057746 250.627668 
L 780.904051 254.164843 
L 781.750357 251.753117 
L 782.596663 244.839502 
L 783.442969 247.090462 
L 784.289275 257.541283 
L 785.13558 250.788433 
L 785.981886 239.69449 
L 786.828192 239.212163 
L 787.674498 229.886822 
L 788.520804 226.108438 
L 789.367109 231.735808 
L 790.213415 231.655425 
L 791.059721 232.137752 
L 791.906027 228.037837 
L 792.752333 235.112218 
L 793.598638 233.182849 
L 794.444944 234.067151 
L 795.29125 238.167066 
L 796.137556 227.073123 
L 796.983862 221.686962 
L 797.830168 227.796658 
L 798.676473 219.194823 
L 799.522779 220.883043 
L 800.369085 227.475097 
L 801.215391 221.767345 
L 802.061697 220.320303 
L 802.908002 215.255674 
L 803.754308 212.924361 
L 804.600614 223.05359 
L 805.44692 219.034058 
L 806.293226 219.918359 
L 807.139531 220.159538 
L 807.985837 217.185072 
L 808.832143 209.949896 
L 809.678449 201.750005 
L 810.524755 197.730473 
L 811.37106 198.454008 
L 812.217366 200.704938 
L 813.063672 201.669622 
L 813.909978 201.910801 
L 814.756284 202.634306 
L 815.60259 198.373595 
L 816.448895 192.263899 
L 817.295201 194.756007 
L 818.141507 191.218832 
L 818.987813 190.89724 
L 819.834119 192.505077 
L 820.680424 194.83642 
L 821.52673 196.122666 
L 822.373036 194.27368 
L 823.219342 191.540393 
L 824.911953 198.293213 
L 825.758259 187.360065 
L 826.604565 190.656092 
L 827.450871 183.099354 
L 828.297177 176.828862 
L 829.143482 174.738698 
L 829.989788 175.060259 
L 830.836094 181.089573 
L 831.6824 180.44645 
L 832.528706 190.816857 
L 833.375012 193.067817 
L 834.221317 193.952119 
L 835.067623 182.858175 
L 835.913929 177.391602 
L 836.760235 175.864178 
L 838.452846 169.995629 
L 839.299152 169.352507 
L 840.145458 170.960314 
L 840.991764 174.015162 
L 841.83807 171.764232 
L 842.684375 169.915247 
L 843.530681 165.011413 
L 844.376987 165.654536 
L 845.223293 165.091796 
L 846.069599 162.036947 
L 846.915904 166.217276 
L 847.76221 166.378041 
L 848.608516 169.674068 
L 849.454822 166.378041 
L 850.301128 161.313412 
L 851.147434 157.133083 
L 851.993739 160.99185 
L 852.840045 167.583904 
L 853.686351 159.705605 
L 854.532657 154.319414 
L 855.378963 158.419359 
L 856.225268 153.837057 
L 857.071574 155.766455 
L 857.91788 154.640975 
L 858.764186 151.184183 
L 859.610492 157.213496 
L 860.456797 159.384043 
L 862.149409 149.817524 
L 862.995715 147.245033 
L 863.842021 150.460647 
L 864.688327 142.341169 
L 865.534632 142.984292 
L 866.380938 146.03917 
L 867.227244 141.054924 
L 868.07355 137.27657 
L 868.919856 135.749115 
L 869.766161 138.964759 
L 870.612467 140.733362 
L 871.458773 136.954978 
L 872.305079 141.617664 
L 873.151385 139.125555 
L 873.99769 140.894158 
L 874.843996 139.607882 
L 875.690302 136.874595 
L 876.536608 129.880598 
L 877.382914 138.562815 
L 878.229219 134.302104 
L 879.075525 134.945227 
L 879.921831 134.382487 
L 880.768137 135.749115 
L 881.614443 132.533502 
L 882.460749 133.015829 
L 883.307054 135.668733 
L 884.15336 135.105993 
L 884.999666 131.166843 
L 885.845972 133.417803 
L 886.692278 135.990294 
L 887.538583 129.076679 
L 888.384889 124.172845 
L 889.231195 125.619887 
L 890.077501 127.790433 
L 890.923807 127.870816 
L 891.770112 126.263009 
L 892.616418 123.851284 
L 893.462724 126.584571 
L 894.30903 124.172845 
L 895.155336 118.223914 
L 896.001641 117.178847 
L 896.847947 121.600354 
L 897.694253 122.404242 
L 898.540559 124.01208 
L 899.386865 120.957201 
L 900.233171 119.349394 
L 901.079476 119.912134 
L 901.925782 116.857286 
L 902.772088 117.741587 
L 904.4647 121.037614 
L 906.157311 113.802438 
L 907.003617 114.123999 
L 907.849923 114.043586 
L 908.696229 115.57104 
L 909.542534 118.786654 
L 910.38884 115.892602 
L 911.235146 116.13375 
L 912.081452 112.033835 
L 912.927758 110.425998 
L 913.774063 114.606326 
L 914.620369 108.49663 
L 915.466675 109.139752 
L 916.312981 109.461314 
L 917.159287 110.667176 
L 918.005593 109.943671 
L 918.851898 110.747559 
L 919.698204 109.380931 
L 920.54451 110.104436 
L 921.390816 110.506411 
L 922.237122 111.631861 
L 923.083427 112.114218 
L 923.929733 111.069151 
L 924.776039 110.345615 
L 925.622345 109.300548 
L 926.468651 111.873039 
L 927.314956 110.345615 
L 928.161262 106.80841 
L 929.007568 104.075123 
L 929.853874 104.477097 
L 930.70018 103.351617 
L 931.546485 105.039837 
L 932.392791 101.100657 
L 933.239097 103.99474 
L 934.085403 101.583014 
L 934.931709 101.74381 
L 935.778015 100.61833 
L 936.62432 100.859509 
L 937.470626 106.165287 
L 938.316932 108.094685 
L 939.163238 106.406465 
L 940.009544 106.406465 
L 940.855849 104.075123 
L 941.702155 102.226137 
L 942.548461 102.145754 
L 943.394767 103.99474 
L 944.241073 102.788877 
L 945.087378 102.145754 
L 945.933684 96.759563 
L 946.77999 96.357619 
L 947.626296 96.438002 
L 948.472602 95.312522 
L 949.318908 96.196823 
L 950.165213 99.010523 
L 951.011519 102.226137 
L 951.857825 101.984959 
L 952.704131 98.608549 
L 953.550437 99.090906 
L 954.396742 97.322303 
L 955.243048 96.116441 
L 956.089354 93.945894 
L 956.93566 93.463537 
L 957.781966 95.392935 
L 958.628271 92.820414 
L 959.474577 94.589017 
L 960.320883 96.920359 
L 961.167189 97.563482 
L 962.013495 97.241921 
L 962.8598 97.483069 
L 963.706106 96.759563 
L 964.552412 95.875262 
L 965.398718 96.036058 
L 966.245024 94.990961 
L 967.09133 96.196823 
L 967.937635 94.830195 
L 968.783941 93.865481 
L 969.630247 94.830195 
L 970.476553 95.473318 
L 973.01547 92.016495 
L 974.708082 92.177291 
L 975.554388 91.85573 
L 976.400693 92.659618 
L 977.246999 92.820414 
L 978.093305 91.29299 
L 979.785917 90.73025 
L 980.632222 92.257674 
L 981.478528 90.247893 
L 983.17114 91.936112 
L 984.017446 91.614551 
L 984.863752 93.302771 
L 985.710057 90.649867 
L 986.556363 87.35384 
L 987.402669 89.685183 
L 988.248975 91.373372 
L 989.095281 91.051811 
L 989.941586 90.891046 
L 991.634198 91.051811 
L 992.480504 90.810632 
L 993.32681 89.60477 
L 994.173115 90.16751 
L 995.019421 90.569484 
L 995.865727 87.996963 
L 997.558339 88.077346 
L 998.404644 88.47932 
L 999.25095 88.398907 
L 1000.097256 88.559703 
L 1000.943562 87.112661 
L 1001.789868 86.147977 
L 1002.636174 88.800881 
L 1003.482479 87.675401 
L 1003.482479 87.675401 
" clip-path="url(#pe2288e20a7)" style="fill: none; stroke: #dd8452; stroke-width: 6; stroke-linecap: round"/>
   </g>
   <g id="line2d_15"/>
   <g id="line2d_16"/>
   <g id="patch_3">
    <path d="M 115.75 609.894375 
L 115.75 54.554375 
" style="fill: none; stroke: #cccccc; stroke-width: 1.875; stroke-linejoin: miter; stroke-linecap: square"/>
   </g>
   <g id="patch_4">
    <path d="M 1045.755455 609.894375 
L 1045.755455 54.554375 
" style="fill: none; stroke: #cccccc; stroke-width: 1.875; stroke-linejoin: miter; stroke-linecap: square"/>
   </g>
   <g id="patch_5">
    <path d="M 115.75 609.894375 
L 1045.755455 609.894375 
" style="fill: none; stroke: #cccccc; stroke-width: 1.875; stroke-linejoin: miter; stroke-linecap: square"/>
   </g>
   <g id="patch_6">
    <path d="M 115.75 54.554375 
L 1045.755455 54.554375 
" style="fill: none; stroke: #cccccc; stroke-width: 1.875; stroke-linejoin: miter; stroke-linecap: square"/>
   </g>
   <g id="text_15">
    <!-- Training Progress: Accuracy -->
    <g style="fill: #262626" transform="translate(297.50304 34.554375) scale(0.36 -0.36)">
     <defs>
      <path id="DejaVuSans-Bold-54" d="M 31 4666 
L 4331 4666 
L 4331 3756 
L 2784 3756 
L 2784 0 
L 1581 0 
L 1581 3756 
L 31 3756 
L 31 4666 
z
" transform="scale(0.015625)"/>
      <path id="DejaVuSans-Bold-72" d="M 3138 2547 
Q 2991 2616 2845 2648 
Q 2700 2681 2553 2681 
Q 2122 2681 1889 2404 
Q 1656 2128 1656 1613 
L 1656 0 
L 538 0 
L 538 3500 
L 1656 3500 
L 1656 2925 
Q 1872 3269 2151 3426 
Q 2431 3584 2822 3584 
Q 2878 3584 2943 3579 
Q 3009 3575 3134 3559 
L 3138 2547 
z
" transform="scale(0.015625)"/>
      <path id="DejaVuSans-Bold-61" d="M 2106 1575 
Q 1756 1575 1579 1456 
Q 1403 1338 1403 1106 
Q 1403 894 1545 773 
Q 1688 653 1941 653 
Q 2256 653 2472 879 
Q 2688 1106 2688 1447 
L 2688 1575 
L 2106 1575 
z
M 3816 1997 
L 3816 0 
L 2688 0 
L 2688 519 
Q 2463 200 2181 54 
Q 1900 -91 1497 -91 
Q 953 -91 614 226 
Q 275 544 275 1050 
Q 275 1666 698 1953 
Q 1122 2241 2028 2241 
L 2688 2241 
L 2688 2328 
Q 2688 2594 2478 2717 
Q 2269 2841 1825 2841 
Q 1466 2841 1156 2769 
Q 847 2697 581 2553 
L 581 3406 
Q 941 3494 1303 3539 
Q 1666 3584 2028 3584 
Q 2975 3584 3395 3211 
Q 3816 2838 3816 1997 
z
" transform="scale(0.015625)"/>
      <path id="DejaVuSans-Bold-69" d="M 538 3500 
L 1656 3500 
L 1656 0 
L 538 0 
L 538 3500 
z
M 538 4863 
L 1656 4863 
L 1656 3950 
L 538 3950 
L 538 4863 
z
" transform="scale(0.015625)"/>
      <path id="DejaVuSans-Bold-6e" d="M 4056 2131 
L 4056 0 
L 2931 0 
L 2931 347 
L 2931 1631 
Q 2931 2084 2911 2256 
Q 2891 2428 2841 2509 
Q 2775 2619 2662 2680 
Q 2550 2741 2406 2741 
Q 2056 2741 1856 2470 
Q 1656 2200 1656 1722 
L 1656 0 
L 538 0 
L 538 3500 
L 1656 3500 
L 1656 2988 
Q 1909 3294 2193 3439 
Q 2478 3584 2822 3584 
Q 3428 3584 3742 3212 
Q 4056 2841 4056 2131 
z
" transform="scale(0.015625)"/>
      <path id="DejaVuSans-Bold-67" d="M 2919 594 
Q 2688 288 2409 144 
Q 2131 0 1766 0 
Q 1125 0 706 504 
Q 288 1009 288 1791 
Q 288 2575 706 3076 
Q 1125 3578 1766 3578 
Q 2131 3578 2409 3434 
Q 2688 3291 2919 2981 
L 2919 3500 
L 4044 3500 
L 4044 353 
Q 4044 -491 3511 -936 
Q 2978 -1381 1966 -1381 
Q 1638 -1381 1331 -1331 
Q 1025 -1281 716 -1178 
L 716 -306 
Q 1009 -475 1290 -558 
Q 1572 -641 1856 -641 
Q 2406 -641 2662 -400 
Q 2919 -159 2919 353 
L 2919 594 
z
M 2181 2772 
Q 1834 2772 1640 2515 
Q 1447 2259 1447 1791 
Q 1447 1309 1634 1061 
Q 1822 813 2181 813 
Q 2531 813 2725 1069 
Q 2919 1325 2919 1791 
Q 2919 2259 2725 2515 
Q 2531 2772 2181 2772 
z
" transform="scale(0.015625)"/>
      <path id="DejaVuSans-Bold-20" transform="scale(0.015625)"/>
      <path id="DejaVuSans-Bold-50" d="M 588 4666 
L 2584 4666 
Q 3475 4666 3951 4270 
Q 4428 3875 4428 3144 
Q 4428 2409 3951 2014 
Q 3475 1619 2584 1619 
L 1791 1619 
L 1791 0 
L 588 0 
L 588 4666 
z
M 1791 3794 
L 1791 2491 
L 2456 2491 
Q 2806 2491 2997 2661 
Q 3188 2831 3188 3144 
Q 3188 3456 2997 3625 
Q 2806 3794 2456 3794 
L 1791 3794 
z
" transform="scale(0.015625)"/>
      <path id="DejaVuSans-Bold-6f" d="M 2203 2784 
Q 1831 2784 1636 2517 
Q 1441 2250 1441 1747 
Q 1441 1244 1636 976 
Q 1831 709 2203 709 
Q 2569 709 2762 976 
Q 2956 1244 2956 1747 
Q 2956 2250 2762 2517 
Q 2569 2784 2203 2784 
z
M 2203 3584 
Q 3106 3584 3614 3096 
Q 4122 2609 4122 1747 
Q 4122 884 3614 396 
Q 3106 -91 2203 -91 
Q 1297 -91 786 396 
Q 275 884 275 1747 
Q 275 2609 786 3096 
Q 1297 3584 2203 3584 
z
" transform="scale(0.015625)"/>
      <path id="DejaVuSans-Bold-65" d="M 4031 1759 
L 4031 1441 
L 1416 1441 
Q 1456 1047 1700 850 
Q 1944 653 2381 653 
Q 2734 653 3104 758 
Q 3475 863 3866 1075 
L 3866 213 
Q 3469 63 3072 -14 
Q 2675 -91 2278 -91 
Q 1328 -91 801 392 
Q 275 875 275 1747 
Q 275 2603 792 3093 
Q 1309 3584 2216 3584 
Q 3041 3584 3536 3087 
Q 4031 2591 4031 1759 
z
M 2881 2131 
Q 2881 2450 2695 2645 
Q 2509 2841 2209 2841 
Q 1884 2841 1681 2658 
Q 1478 2475 1428 2131 
L 2881 2131 
z
" transform="scale(0.015625)"/>
      <path id="DejaVuSans-Bold-73" d="M 3272 3391 
L 3272 2541 
Q 2913 2691 2578 2766 
Q 2244 2841 1947 2841 
Q 1628 2841 1473 2761 
Q 1319 2681 1319 2516 
Q 1319 2381 1436 2309 
Q 1553 2238 1856 2203 
L 2053 2175 
Q 2913 2066 3209 1816 
Q 3506 1566 3506 1031 
Q 3506 472 3093 190 
Q 2681 -91 1863 -91 
Q 1516 -91 1145 -36 
Q 775 19 384 128 
L 384 978 
Q 719 816 1070 734 
Q 1422 653 1784 653 
Q 2113 653 2278 743 
Q 2444 834 2444 1013 
Q 2444 1163 2330 1236 
Q 2216 1309 1875 1350 
L 1678 1375 
Q 931 1469 631 1722 
Q 331 1975 331 2491 
Q 331 3047 712 3315 
Q 1094 3584 1881 3584 
Q 2191 3584 2531 3537 
Q 2872 3491 3272 3391 
z
" transform="scale(0.015625)"/>
      <path id="DejaVuSans-Bold-3a" d="M 716 3500 
L 1844 3500 
L 1844 2291 
L 716 2291 
L 716 3500 
z
M 716 1209 
L 1844 1209 
L 1844 0 
L 716 0 
L 716 1209 
z
" transform="scale(0.015625)"/>
      <path id="DejaVuSans-Bold-41" d="M 3419 850 
L 1538 850 
L 1241 0 
L 31 0 
L 1759 4666 
L 3194 4666 
L 4922 0 
L 3713 0 
L 3419 850 
z
M 1838 1716 
L 3116 1716 
L 2478 3572 
L 1838 1716 
z
" transform="scale(0.015625)"/>
      <path id="DejaVuSans-Bold-63" d="M 3366 3391 
L 3366 2478 
Q 3138 2634 2908 2709 
Q 2678 2784 2431 2784 
Q 1963 2784 1702 2511 
Q 1441 2238 1441 1747 
Q 1441 1256 1702 982 
Q 1963 709 2431 709 
Q 2694 709 2930 787 
Q 3166 866 3366 1019 
L 3366 103 
Q 3103 6 2833 -42 
Q 2563 -91 2291 -91 
Q 1344 -91 809 395 
Q 275 881 275 1747 
Q 275 2613 809 3098 
Q 1344 3584 2291 3584 
Q 2566 3584 2833 3536 
Q 3100 3488 3366 3391 
z
" transform="scale(0.015625)"/>
      <path id="DejaVuSans-Bold-75" d="M 500 1363 
L 500 3500 
L 1625 3500 
L 1625 3150 
Q 1625 2866 1622 2436 
Q 1619 2006 1619 1863 
Q 1619 1441 1641 1255 
Q 1663 1069 1716 984 
Q 1784 875 1895 815 
Q 2006 756 2150 756 
Q 2500 756 2700 1025 
Q 2900 1294 2900 1772 
L 2900 3500 
L 4019 3500 
L 4019 0 
L 2900 0 
L 2900 506 
Q 2647 200 2364 54 
Q 2081 -91 1741 -91 
Q 1134 -91 817 281 
Q 500 653 500 1363 
z
" transform="scale(0.015625)"/>
      <path id="DejaVuSans-Bold-79" d="M 78 3500 
L 1197 3500 
L 2138 1125 
L 2938 3500 
L 4056 3500 
L 2584 -331 
Q 2363 -916 2067 -1148 
Q 1772 -1381 1288 -1381 
L 641 -1381 
L 641 -647 
L 991 -647 
Q 1275 -647 1404 -556 
Q 1534 -466 1606 -231 
L 1638 -134 
L 78 3500 
z
" transform="scale(0.015625)"/>
     </defs>
     <use xlink:href="#DejaVuSans-Bold-54"/>
     <use xlink:href="#DejaVuSans-Bold-72" transform="translate(57.212891 0)"/>
     <use xlink:href="#DejaVuSans-Bold-61" transform="translate(106.529297 0)"/>
     <use xlink:href="#DejaVuSans-Bold-69" transform="translate(174.009766 0)"/>
     <use xlink:href="#DejaVuSans-Bold-6e" transform="translate(208.287109 0)"/>
     <use xlink:href="#DejaVuSans-Bold-69" transform="translate(279.478516 0)"/>
     <use xlink:href="#DejaVuSans-Bold-6e" transform="translate(313.755859 0)"/>
     <use xlink:href="#DejaVuSans-Bold-67" transform="translate(384.947266 0)"/>
     <use xlink:href="#DejaVuSans-Bold-20" transform="translate(456.529297 0)"/>
     <use xlink:href="#DejaVuSans-Bold-50" transform="translate(491.34375 0)"/>
     <use xlink:href="#DejaVuSans-Bold-72" transform="translate(564.634766 0)"/>
     <use xlink:href="#DejaVuSans-Bold-6f" transform="translate(613.951172 0)"/>
     <use xlink:href="#DejaVuSans-Bold-67" transform="translate(682.652344 0)"/>
     <use xlink:href="#DejaVuSans-Bold-72" transform="translate(754.234375 0)"/>
     <use xlink:href="#DejaVuSans-Bold-65" transform="translate(803.550781 0)"/>
     <use xlink:href="#DejaVuSans-Bold-73" transform="translate(871.373047 0)"/>
     <use xlink:href="#DejaVuSans-Bold-73" transform="translate(930.894531 0)"/>
     <use xlink:href="#DejaVuSans-Bold-3a" transform="translate(990.416016 0)"/>
     <use xlink:href="#DejaVuSans-Bold-20" transform="translate(1030.40625 0)"/>
     <use xlink:href="#DejaVuSans-Bold-41" transform="translate(1065.220703 0)"/>
     <use xlink:href="#DejaVuSans-Bold-63" transform="translate(1142.613281 0)"/>
     <use xlink:href="#DejaVuSans-Bold-63" transform="translate(1201.890625 0)"/>
     <use xlink:href="#DejaVuSans-Bold-75" transform="translate(1261.167969 0)"/>
     <use xlink:href="#DejaVuSans-Bold-72" transform="translate(1332.359375 0)"/>
     <use xlink:href="#DejaVuSans-Bold-61" transform="translate(1381.675781 0)"/>
     <use xlink:href="#DejaVuSans-Bold-63" transform="translate(1449.15625 0)"/>
     <use xlink:href="#DejaVuSans-Bold-79" transform="translate(1508.433594 0)"/>
    </g>
   </g>
   <g id="legend_1">
    <g id="patch_7">
     <path d="M 846.475455 593.894375 
L 1023.355455 593.894375 
Q 1029.755455 593.894375 1029.755455 587.494375 
L 1029.755455 496.754375 
Q 1029.755455 490.354375 1023.355455 490.354375 
L 846.475455 490.354375 
Q 840.075455 490.354375 840.075455 496.754375 
L 840.075455 587.494375 
Q 840.075455 593.894375 846.475455 593.894375 
z
" style="fill: #ffffff; opacity: 0.8; stroke: #cccccc; stroke-width: 1.5; stroke-linejoin: miter"/>
    </g>
    <g id="line2d_17">
     <path d="M 852.875455 516.269375 
L 884.875455 516.269375 
L 916.875455 516.269375 
" style="fill: none; stroke: #4c72b0; stroke-width: 6; stroke-linecap: round"/>
    </g>
    <g id="text_16">
     <!-- train -->
     <g style="fill: #262626" transform="translate(942.475455 527.469375) scale(0.32 -0.32)">
      <defs>
       <path id="DejaVuSans-74" d="M 1172 4494 
L 1172 3500 
L 2356 3500 
L 2356 3053 
L 1172 3053 
L 1172 1153 
Q 1172 725 1289 603 
Q 1406 481 1766 481 
L 2356 481 
L 2356 0 
L 1766 0 
Q 1100 0 847 248 
Q 594 497 594 1153 
L 594 3053 
L 172 3053 
L 172 3500 
L 594 3500 
L 594 4494 
L 1172 4494 
z
" transform="scale(0.015625)"/>
       <path id="DejaVuSans-69" d="M 603 3500 
L 1178 3500 
L 1178 0 
L 603 0 
L 603 3500 
z
M 603 4863 
L 1178 4863 
L 1178 4134 
L 603 4134 
L 603 4863 
z
" transform="scale(0.015625)"/>
       <path id="DejaVuSans-6e" d="M 3513 2113 
L 3513 0 
L 2938 0 
L 2938 2094 
Q 2938 2591 2744 2837 
Q 2550 3084 2163 3084 
Q 1697 3084 1428 2787 
Q 1159 2491 1159 1978 
L 1159 0 
L 581 0 
L 581 3500 
L 1159 3500 
L 1159 2956 
Q 1366 3272 1645 3428 
Q 1925 3584 2291 3584 
Q 2894 3584 3203 3211 
Q 3513 2838 3513 2113 
z
" transform="scale(0.015625)"/>
      </defs>
      <use xlink:href="#DejaVuSans-74"/>
      <use xlink:href="#DejaVuSans-72" transform="translate(39.208984 0)"/>
      <use xlink:href="#DejaVuSans-61" transform="translate(80.322266 0)"/>
      <use xlink:href="#DejaVuSans-69" transform="translate(141.601562 0)"/>
      <use xlink:href="#DejaVuSans-6e" transform="translate(169.384766 0)"/>
     </g>
    </g>
    <g id="line2d_18">
     <path d="M 852.875455 563.239375 
L 884.875455 563.239375 
L 916.875455 563.239375 
" style="fill: none; stroke: #dd8452; stroke-width: 6; stroke-linecap: round"/>
    </g>
    <g id="text_17">
     <!-- val -->
     <g style="fill: #262626" transform="translate(942.475455 574.439375) scale(0.32 -0.32)">
      <defs>
       <path id="DejaVuSans-76" d="M 191 3500 
L 800 3500 
L 1894 563 
L 2988 3500 
L 3597 3500 
L 2284 0 
L 1503 0 
L 191 3500 
z
" transform="scale(0.015625)"/>
       <path id="DejaVuSans-6c" d="M 603 4863 
L 1178 4863 
L 1178 0 
L 603 0 
L 603 4863 
z
" transform="scale(0.015625)"/>
      </defs>
      <use xlink:href="#DejaVuSans-76"/>
      <use xlink:href="#DejaVuSans-61" transform="translate(59.179688 0)"/>
      <use xlink:href="#DejaVuSans-6c" transform="translate(120.458984 0)"/>
     </g>
    </g>
   </g>
  </g>
 </g>
 <defs>
  <clipPath id="pe2288e20a7">
   <rect x="115.75" y="54.554375" width="930.005455" height="555.34"/>
  </clipPath>
 </defs>
</svg>
