<?xml version="1.0" encoding="utf-8" standalone="no"?>
<!DOCTYPE svg PUBLIC "-//W3C//DTD SVG 1.1//EN"
  "http://www.w3.org/Graphics/SVG/1.1/DTD/svg11.dtd">
<svg xmlns:xlink="http://www.w3.org/1999/xlink" width="1052.825455pt" height="695.534375pt" viewBox="0 0 1052.825455 695.534375" xmlns="http://www.w3.org/2000/svg" version="1.1">
 <metadata>
  <rdf:RDF xmlns:dc="http://purl.org/dc/elements/1.1/" xmlns:cc="http://creativecommons.org/ns#" xmlns:rdf="http://www.w3.org/1999/02/22-rdf-syntax-ns#">
   <cc:Work>
    <dc:type rdf:resource="http://purl.org/dc/dcmitype/StillImage"/>
    <dc:date>2026-04-10T14:25:10.136916</dc:date>
    <dc:format>image/svg+xml</dc:format>
    <dc:creator>
     <cc:Agent>
      <dc:title>Matplotlib v3.10.8, https://matplotlib.org/</dc:title>
     </cc:Agent>
    </dc:creator>
   </cc:Work>
  </rdf:RDF>
 </metadata>
 <defs>
  <style type="text/css">*{stroke-linejoin: round; stroke-linecap: butt}</style>
 </defs>
 <g id="figure_1">
  <g id="patch_1">
   <path d="M 0 695.534375 
L 1052.825455 695.534375 
L 1052.825455 0 
L 0 0 
z
" style="fill: #ffffff"/>
  </g>
  <g id="axes_1">
   <g id="patch_2">
    <path d="M 75.03 609.894375 
L 1045.625455 609.894375 
L 1045.625455 54.554375 
L 75.03 54.554375 
z
" style="fill: #ffffff"/>
   </g>
   <g id="matplotlib.axis_1">
    <g id="xtick_1">
     <g id="line2d_1">
      <path d="M 118.264732 609.894375 
L 118.264732 54.554375 
" clip-path="url(#pe5dba893b2)" style="fill: none; stroke: #cccccc; stroke-opacity: 0.3; stroke-width: 1.5; stroke-linecap: round"/>
     </g>
     <g id="text_1">
      <!-- 0 -->
      <g style="fill: #262626" transform="translate(108.084732 646.709375) scale(0.32 -0.32)">
       <defs>
        <path id="DejaVuSans-30" d="M 2034 4250 
Q 1547 4250 1301 3770 
Q 1056 3291 1056 2328 
Q 1056 1369 1301 889 
Q 1547 409 2034 409 
Q 2525 409 2770 889 
Q 3016 1369 3016 2328 
Q 3016 3291 2770 3770 
Q 2525 4250 2034 4250 
z
M 2034 4750 
Q 2819 4750 3233 4129 
Q 3647 3509 3647 2328 
Q 3647 1150 3233 529 
Q 2819 -91 2034 -91 
Q 1250 -91 836 529 
Q 422 1150 422 2328 
Q 422 3509 836 4129 
Q 1250 4750 2034 4750 
z
" transform="scale(0.015625)"/>
       </defs>
       <use xlink:href="#DejaVuSans-30"/>
      </g>
     </g>
    </g>
    <g id="xtick_2">
     <g id="line2d_2">
      <path d="M 294.913282 609.894375 
L 294.913282 54.554375 
" clip-path="url(#pe5dba893b2)" style="fill: none; stroke: #cccccc; stroke-opacity: 0.3; stroke-width: 1.5; stroke-linecap: round"/>
     </g>
     <g id="text_2">
      <!-- 200 -->
      <g style="fill: #262626" transform="translate(264.373282 646.709375) scale(0.32 -0.32)">
       <defs>
        <path id="DejaVuSans-32" d="M 1228 531 
L 3431 531 
L 3431 0 
L 469 0 
L 469 531 
Q 828 903 1448 1529 
Q 2069 2156 2228 2338 
Q 2531 2678 2651 2914 
Q 2772 3150 2772 3378 
Q 2772 3750 2511 3984 
Q 2250 4219 1831 4219 
Q 1534 4219 1204 4116 
Q 875 4013 500 3803 
L 500 4441 
Q 881 4594 1212 4672 
Q 1544 4750 1819 4750 
Q 2544 4750 2975 4387 
Q 3406 4025 3406 3419 
Q 3406 3131 3298 2873 
Q 3191 2616 2906 2266 
Q 2828 2175 2409 1742 
Q 1991 1309 1228 531 
z
" transform="scale(0.015625)"/>
       </defs>
       <use xlink:href="#DejaVuSans-32"/>
       <use xlink:href="#DejaVuSans-30" transform="translate(63.623047 0)"/>
       <use xlink:href="#DejaVuSans-30" transform="translate(127.246094 0)"/>
      </g>
     </g>
    </g>
    <g id="xtick_3">
     <g id="line2d_3">
      <path d="M 471.561831 609.894375 
L 471.561831 54.554375 
" clip-path="url(#pe5dba893b2)" style="fill: none; stroke: #cccccc; stroke-opacity: 0.3; stroke-width: 1.5; stroke-linecap: round"/>
     </g>
     <g id="text_3">
      <!-- 400 -->
      <g style="fill: #262626" transform="translate(441.021831 646.709375) scale(0.32 -0.32)">
       <defs>
        <path id="DejaVuSans-34" d="M 2419 4116 
L 825 1625 
L 2419 1625 
L 2419 4116 
z
M 2253 4666 
L 3047 4666 
L 3047 1625 
L 3713 1625 
L 3713 1100 
L 3047 1100 
L 3047 0 
L 2419 0 
L 2419 1100 
L 313 1100 
L 313 1709 
L 2253 4666 
z
" transform="scale(0.015625)"/>
       </defs>
       <use xlink:href="#DejaVuSans-34"/>
       <use xlink:href="#DejaVuSans-30" transform="translate(63.623047 0)"/>
       <use xlink:href="#DejaVuSans-30" transform="translate(127.246094 0)"/>
      </g>
     </g>
    </g>
    <g id="xtick_4">
     <g id="line2d_4">
      <path d="M 648.210381 609.894375 
L 648.210381 54.554375 
" clip-path="url(#pe5dba893b2)" style="fill: none; stroke: #cccccc; stroke-opacity: 0.3; stroke-width: 1.5; stroke-linecap: round"/>
     </g>
     <g id="text_4">
      <!-- 600 -->
      <g style="fill: #262626" transform="translate(617.670381 646.709375) scale(0.32 -0.32)">
       <defs>
        <path id="DejaVuSans-36" d="M 2113 2584 
Q 1688 2584 1439 2293 
Q 1191 2003 1191 1497 
Q 1191 994 1439 701 
Q 1688 409 2113 409 
Q 2538 409 2786 701 
Q 3034 994 3034 1497 
Q 3034 2003 2786 2293 
Q 2538 2584 2113 2584 
z
M 3366 4563 
L 3366 3988 
Q 3128 4100 2886 4159 
Q 2644 4219 2406 4219 
Q 1781 4219 1451 3797 
Q 1122 3375 1075 2522 
Q 1259 2794 1537 2939 
Q 1816 3084 2150 3084 
Q 2853 3084 3261 2657 
Q 3669 2231 3669 1497 
Q 3669 778 3244 343 
Q 2819 -91 2113 -91 
Q 1303 -91 875 529 
Q 447 1150 447 2328 
Q 447 3434 972 4092 
Q 1497 4750 2381 4750 
Q 2619 4750 2861 4703 
Q 3103 4656 3366 4563 
z
" transform="scale(0.015625)"/>
       </defs>
       <use xlink:href="#DejaVuSans-36"/>
       <use xlink:href="#DejaVuSans-30" transform="translate(63.623047 0)"/>
       <use xlink:href="#DejaVuSans-30" transform="translate(127.246094 0)"/>
      </g>
     </g>
    </g>
    <g id="xtick_5">
     <g id="line2d_5">
      <path d="M 824.85893 609.894375 
L 824.85893 54.554375 
" clip-path="url(#pe5dba893b2)" style="fill: none; stroke: #cccccc; stroke-opacity: 0.3; stroke-width: 1.5; stroke-linecap: round"/>
     </g>
     <g id="text_5">
      <!-- 800 -->
      <g style="fill: #262626" transform="translate(794.31893 646.709375) scale(0.32 -0.32)">
       <defs>
        <path id="DejaVuSans-38" d="M 2034 2216 
Q 1584 2216 1326 1975 
Q 1069 1734 1069 1313 
Q 1069 891 1326 650 
Q 1584 409 2034 409 
Q 2484 409 2743 651 
Q 3003 894 3003 1313 
Q 3003 1734 2745 1975 
Q 2488 2216 2034 2216 
z
M 1403 2484 
Q 997 2584 770 2862 
Q 544 3141 544 3541 
Q 544 4100 942 4425 
Q 1341 4750 2034 4750 
Q 2731 4750 3128 4425 
Q 3525 4100 3525 3541 
Q 3525 3141 3298 2862 
Q 3072 2584 2669 2484 
Q 3125 2378 3379 2068 
Q 3634 1759 3634 1313 
Q 3634 634 3220 271 
Q 2806 -91 2034 -91 
Q 1263 -91 848 271 
Q 434 634 434 1313 
Q 434 1759 690 2068 
Q 947 2378 1403 2484 
z
M 1172 3481 
Q 1172 3119 1398 2916 
Q 1625 2713 2034 2713 
Q 2441 2713 2670 2916 
Q 2900 3119 2900 3481 
Q 2900 3844 2670 4047 
Q 2441 4250 2034 4250 
Q 1625 4250 1398 4047 
Q 1172 3844 1172 3481 
z
" transform="scale(0.015625)"/>
       </defs>
       <use xlink:href="#DejaVuSans-38"/>
       <use xlink:href="#DejaVuSans-30" transform="translate(63.623047 0)"/>
       <use xlink:href="#DejaVuSans-30" transform="translate(127.246094 0)"/>
      </g>
     </g>
    </g>
    <g id="xtick_6">
     <g id="line2d_6">
      <path d="M 1001.507479 609.894375 
L 1001.507479 54.554375 
" clip-path="url(#pe5dba893b2)" style="fill: none; stroke: #cccccc; stroke-opacity: 0.3; stroke-width: 1.5; stroke-linecap: round"/>
     </g>
     <g id="text_6">
      <!-- 1000 -->
      <g style="fill: #262626" transform="translate(960.787479 646.709375) scale(0.32 -0.32)">
       <defs>
        <path id="DejaVuSans-31" d="M 794 531 
L 1825 531 
L 1825 4091 
L 703 3866 
L 703 4441 
L 1819 4666 
L 2450 4666 
L 2450 531 
L 3481 531 
L 3481 0 
L 794 0 
L 794 531 
z
" transform="scale(0.015625)"/>
       </defs>
       <use xlink:href="#DejaVuSans-31"/>
       <use xlink:href="#DejaVuSans-30" transform="translate(63.623047 0)"/>
       <use xlink:href="#DejaVuSans-30" transform="translate(127.246094 0)"/>
       <use xlink:href="#DejaVuSans-30" transform="translate(190.869141 0)"/>
      </g>
     </g>
    </g>
    <g id="text_7">
     <!-- Epoch -->
     <g style="fill: #262626" transform="translate(511.332727 681.679375) scale(0.32 -0.32)">
      <defs>
       <path id="DejaVuSans-45" d="M 628 4666 
L 3578 4666 
L 3578 4134 
L 1259 4134 
L 1259 2753 
L 3481 2753 
L 3481 2222 
L 1259 2222 
L 1259 531 
L 3634 531 
L 3634 0 
L 628 0 
L 628 4666 
z
" transform="scale(0.015625)"/>
       <path id="DejaVuSans-70" d="M 1159 525 
L 1159 -1331 
L 581 -1331 
L 581 3500 
L 1159 3500 
L 1159 2969 
Q 1341 3281 1617 3432 
Q 1894 3584 2278 3584 
Q 2916 3584 3314 3078 
Q 3713 2572 3713 1747 
Q 3713 922 3314 415 
Q 2916 -91 2278 -91 
Q 1894 -91 1617 61 
Q 1341 213 1159 525 
z
M 3116 1747 
Q 3116 2381 2855 2742 
Q 2594 3103 2138 3103 
Q 1681 3103 1420 2742 
Q 1159 2381 1159 1747 
Q 1159 1113 1420 752 
Q 1681 391 2138 391 
Q 2594 391 2855 752 
Q 3116 1113 3116 1747 
z
" transform="scale(0.015625)"/>
       <path id="DejaVuSans-6f" d="M 1959 3097 
Q 1497 3097 1228 2736 
Q 959 2375 959 1747 
Q 959 1119 1226 758 
Q 1494 397 1959 397 
Q 2419 397 2687 759 
Q 2956 1122 2956 1747 
Q 2956 2369 2687 2733 
Q 2419 3097 1959 3097 
z
M 1959 3584 
Q 2709 3584 3137 3096 
Q 3566 2609 3566 1747 
Q 3566 888 3137 398 
Q 2709 -91 1959 -91 
Q 1206 -91 779 398 
Q 353 888 353 1747 
Q 353 2609 779 3096 
Q 1206 3584 1959 3584 
z
" transform="scale(0.015625)"/>
       <path id="DejaVuSans-63" d="M 3122 3366 
L 3122 2828 
Q 2878 2963 2633 3030 
Q 2388 3097 2138 3097 
Q 1578 3097 1268 2742 
Q 959 2388 959 1747 
Q 959 1106 1268 751 
Q 1578 397 2138 397 
Q 2388 397 2633 464 
Q 2878 531 3122 666 
L 3122 134 
Q 2881 22 2623 -34 
Q 2366 -91 2075 -91 
Q 1284 -91 818 406 
Q 353 903 353 1747 
Q 353 2603 823 3093 
Q 1294 3584 2113 3584 
Q 2378 3584 2631 3529 
Q 2884 3475 3122 3366 
z
" transform="scale(0.015625)"/>
       <path id="DejaVuSans-68" d="M 3513 2113 
L 3513 0 
L 2938 0 
L 2938 2094 
Q 2938 2591 2744 2837 
Q 2550 3084 2163 3084 
Q 1697 3084 1428 2787 
Q 1159 2491 1159 1978 
L 1159 0 
L 581 0 
L 581 4863 
L 1159 4863 
L 1159 2956 
Q 1366 3272 1645 3428 
Q 1925 3584 2291 3584 
Q 2894 3584 3203 3211 
Q 3513 2838 3513 2113 
z
" transform="scale(0.015625)"/>
      </defs>
      <use xlink:href="#DejaVuSans-45"/>
      <use xlink:href="#DejaVuSans-70" transform="translate(63.183594 0)"/>
      <use xlink:href="#DejaVuSans-6f" transform="translate(126.660156 0)"/>
      <use xlink:href="#DejaVuSans-63" transform="translate(187.841797 0)"/>
      <use xlink:href="#DejaVuSans-68" transform="translate(242.822266 0)"/>
     </g>
    </g>
   </g>
   <g id="matplotlib.axis_2">
    <g id="ytick_1">
     <g id="line2d_7">
      <path d="M 75.03 584.885844 
L 1045.625455 584.885844 
" clip-path="url(#pe5dba893b2)" style="fill: none; stroke: #cccccc; stroke-opacity: 0.3; stroke-width: 1.5; stroke-linecap: round"/>
     </g>
     <g id="text_8">
      <!-- 0 -->
      <g style="fill: #262626" transform="translate(42.17 597.043344) scale(0.32 -0.32)">
       <use xlink:href="#DejaVuSans-30"/>
      </g>
     </g>
    </g>
    <g id="ytick_2">
     <g id="line2d_8">
      <path d="M 75.03 476.267273 
L 1045.625455 476.267273 
" clip-path="url(#pe5dba893b2)" style="fill: none; stroke: #cccccc; stroke-opacity: 0.3; stroke-width: 1.5; stroke-linecap: round"/>
     </g>
     <g id="text_9">
      <!-- 2 -->
      <g style="fill: #262626" transform="translate(42.17 488.424773) scale(0.32 -0.32)">
       <use xlink:href="#DejaVuSans-32"/>
      </g>
     </g>
    </g>
    <g id="ytick_3">
     <g id="line2d_9">
      <path d="M 75.03 367.648703 
L 1045.625455 367.648703 
" clip-path="url(#pe5dba893b2)" style="fill: none; stroke: #cccccc; stroke-opacity: 0.3; stroke-width: 1.5; stroke-linecap: round"/>
     </g>
     <g id="text_10">
      <!-- 4 -->
      <g style="fill: #262626" transform="translate(42.17 379.806203) scale(0.32 -0.32)">
       <use xlink:href="#DejaVuSans-34"/>
      </g>
     </g>
    </g>
    <g id="ytick_4">
     <g id="line2d_10">
      <path d="M 75.03 259.030132 
L 1045.625455 259.030132 
" clip-path="url(#pe5dba893b2)" style="fill: none; stroke: #cccccc; stroke-opacity: 0.3; stroke-width: 1.5; stroke-linecap: round"/>
     </g>
     <g id="text_11">
      <!-- 6 -->
      <g style="fill: #262626" transform="translate(42.17 271.187632) scale(0.32 -0.32)">
       <use xlink:href="#DejaVuSans-36"/>
      </g>
     </g>
    </g>
    <g id="ytick_5">
     <g id="line2d_11">
      <path d="M 75.03 150.411562 
L 1045.625455 150.411562 
" clip-path="url(#pe5dba893b2)" style="fill: none; stroke: #cccccc; stroke-opacity: 0.3; stroke-width: 1.5; stroke-linecap: round"/>
     </g>
     <g id="text_12">
      <!-- 8 -->
      <g style="fill: #262626" transform="translate(42.17 162.569062) scale(0.32 -0.32)">
       <use xlink:href="#DejaVuSans-38"/>
      </g>
     </g>
    </g>
    <g id="text_13">
     <!-- Loss -->
     <g style="fill: #262626" transform="translate(31.515 367.319375) rotate(-90) scale(0.32 -0.32)">
      <defs>
       <path id="DejaVuSans-4c" d="M 628 4666 
L 1259 4666 
L 1259 531 
L 3531 531 
L 3531 0 
L 628 0 
L 628 4666 
z
" transform="scale(0.015625)"/>
       <path id="DejaVuSans-73" d="M 2834 3397 
L 2834 2853 
Q 2591 2978 2328 3040 
Q 2066 3103 1784 3103 
Q 1356 3103 1142 2972 
Q 928 2841 928 2578 
Q 928 2378 1081 2264 
Q 1234 2150 1697 2047 
L 1894 2003 
Q 2506 1872 2764 1633 
Q 3022 1394 3022 966 
Q 3022 478 2636 193 
Q 2250 -91 1575 -91 
Q 1294 -91 989 -36 
Q 684 19 347 128 
L 347 722 
Q 666 556 975 473 
Q 1284 391 1588 391 
Q 1994 391 2212 530 
Q 2431 669 2431 922 
Q 2431 1156 2273 1281 
Q 2116 1406 1581 1522 
L 1381 1569 
Q 847 1681 609 1914 
Q 372 2147 372 2553 
Q 372 3047 722 3315 
Q 1072 3584 1716 3584 
Q 2034 3584 2315 3537 
Q 2597 3491 2834 3397 
z
" transform="scale(0.015625)"/>
      </defs>
      <use xlink:href="#DejaVuSans-4c"/>
      <use xlink:href="#DejaVuSans-6f" transform="translate(53.962891 0)"/>
      <use xlink:href="#DejaVuSans-73" transform="translate(115.144531 0)"/>
      <use xlink:href="#DejaVuSans-73" transform="translate(167.244141 0)"/>
     </g>
    </g>
   </g>
   <g id="FillBetweenPolyCollection_1"/>
   <g id="FillBetweenPolyCollection_2"/>
   <g id="line2d_12">
    <path d="M 119.147975 323.536419 
L 120.031218 327.102651 
L 120.914461 329.490144 
L 121.797703 330.242599 
L 122.680946 332.039388 
L 123.564189 334.265985 
L 125.330674 341.250347 
L 127.980403 353.414357 
L 128.863645 358.065505 
L 129.746888 363.509299 
L 130.630131 367.896042 
L 132.396616 379.446974 
L 133.279859 384.77229 
L 136.81283 415.501414 
L 140.345801 450.102661 
L 141.229044 459.54458 
L 142.112287 467.358166 
L 142.995529 477.058987 
L 144.762015 490.82606 
L 145.645258 498.312099 
L 146.5285 504.71675 
L 149.178229 520.589839 
L 150.944714 527.635064 
L 154.477685 541.110874 
L 155.360928 542.591154 
L 156.244171 545.228217 
L 157.127413 546.801058 
L 158.010656 547.880212 
L 158.893899 550.13303 
L 159.777142 550.850251 
L 160.660384 552.801356 
L 161.543627 553.469099 
L 162.42687 555.1581 
L 165.076598 558.181472 
L 165.959841 559.249786 
L 166.843084 559.898556 
L 167.726326 561.489493 
L 168.609569 562.223587 
L 169.492812 563.354869 
L 171.259297 564.451229 
L 172.14254 565.428454 
L 173.025783 565.699249 
L 173.909026 566.664939 
L 174.792268 567.013363 
L 175.675511 568.416005 
L 176.558754 568.672798 
L 177.441997 569.366771 
L 178.325239 569.72314 
L 179.208482 570.379561 
L 180.091725 570.100727 
L 180.974967 570.747324 
L 181.85821 570.848254 
L 182.741453 571.628435 
L 183.624696 572.170587 
L 184.507938 572.217118 
L 185.391181 573.368188 
L 187.157667 573.743212 
L 188.040909 573.641904 
L 188.924152 575.031762 
L 189.807395 575.026309 
L 191.57388 575.367624 
L 192.457123 575.311442 
L 193.340366 575.011587 
L 194.223609 575.773962 
L 195.106851 575.480182 
L 195.990094 575.860777 
L 196.873337 575.155851 
L 197.75658 575.606942 
L 198.639822 576.34694 
L 199.523065 576.808376 
L 200.406308 577.462906 
L 201.289551 577.163763 
L 202.172793 576.640359 
L 203.056036 577.697059 
L 203.939279 577.49651 
L 204.822522 578.019861 
L 206.589007 577.837258 
L 207.47225 577.773021 
L 208.355493 578.300755 
L 209.238735 578.688588 
L 212.771706 578.948429 
L 213.654949 579.137249 
L 215.421435 578.988067 
L 216.304677 578.639875 
L 217.18792 579.16306 
L 218.071163 579.003975 
L 218.954406 579.310455 
L 219.837648 579.270175 
L 220.720891 579.025103 
L 221.604134 579.125482 
L 222.487377 579.437476 
L 223.370619 579.063642 
L 224.253862 579.327701 
L 225.137105 579.725083 
L 226.020348 579.843611 
L 226.90359 579.255026 
L 227.786833 579.391306 
L 228.670076 579.778589 
L 229.553319 580.497992 
L 230.436561 580.082978 
L 231.319804 580.124731 
L 232.203047 579.768551 
L 233.08629 579.717804 
L 233.969532 579.888812 
L 235.736018 579.627399 
L 236.619261 579.646133 
L 237.502503 580.364835 
L 239.268989 580.759368 
L 240.152232 580.247502 
L 241.035474 580.480487 
L 241.918717 580.585378 
L 242.80196 580.96152 
L 243.685203 579.886244 
L 246.334931 580.526136 
L 248.101416 580.492234 
L 248.984659 581.161444 
L 249.867902 580.506115 
L 250.751144 581.133113 
L 252.51763 581.177241 
L 253.400873 580.774117 
L 254.284115 580.900528 
L 255.167358 580.887425 
L 256.050601 580.604769 
L 256.933844 580.840617 
L 258.700329 580.619137 
L 259.583572 580.889523 
L 260.466815 581.377957 
L 261.350057 581.135993 
L 262.2333 581.485891 
L 263.999786 581.535225 
L 265.766271 581.051745 
L 266.649514 581.487658 
L 267.532757 581.415391 
L 268.415999 581.567742 
L 269.299242 581.334908 
L 271.065728 581.572302 
L 271.94897 581.463668 
L 272.832213 581.199466 
L 273.715456 581.384629 
L 276.365184 581.455165 
L 277.248427 581.862982 
L 278.13167 581.404399 
L 279.014912 581.681715 
L 281.664641 581.715004 
L 282.547883 581.607945 
L 284.314369 581.039642 
L 285.197612 581.092105 
L 286.080854 581.649572 
L 286.964097 581.503683 
L 287.84734 581.97559 
L 289.613825 581.873456 
L 290.497068 581.488717 
L 291.380311 581.521004 
L 292.263554 582.000216 
L 293.146796 581.639011 
L 294.030039 581.57482 
L 294.913282 581.70778 
L 295.796525 581.500838 
L 296.679767 581.766962 
L 297.56301 581.685991 
L 298.446253 581.783535 
L 299.329496 581.71946 
L 301.979224 582.348258 
L 302.862467 582.04571 
L 305.512195 581.957021 
L 307.27868 582.471599 
L 308.161923 582.065776 
L 310.811651 581.994389 
L 312.578137 582.451762 
L 313.46138 582.474566 
L 314.344622 582.355217 
L 315.227865 582.050873 
L 316.111108 582.203207 
L 316.994351 581.881853 
L 317.877593 582.312803 
L 319.644079 582.588754 
L 320.527321 582.484355 
L 322.293807 582.067095 
L 324.060292 582.072772 
L 324.943535 581.993065 
L 326.710021 582.143979 
L 327.593263 582.511749 
L 329.359749 582.277074 
L 330.242992 582.752148 
L 331.126234 582.475219 
L 332.009477 582.59834 
L 333.775963 582.592691 
L 334.659205 582.796421 
L 335.542448 582.560397 
L 337.308934 582.575757 
L 339.075419 582.580314 
L 339.958662 582.224677 
L 340.841905 582.350915 
L 341.725147 581.988092 
L 344.374876 582.609963 
L 347.024604 582.860321 
L 347.907847 582.724513 
L 348.791089 582.969483 
L 350.557575 582.131639 
L 351.440818 582.131097 
L 352.32406 582.35608 
L 353.207303 582.312848 
L 354.090546 582.730193 
L 355.857031 582.493883 
L 358.50676 583.099092 
L 361.156488 582.647449 
L 362.039731 582.317138 
L 363.806216 582.070674 
L 365.572702 582.129865 
L 366.455944 582.536326 
L 367.339187 582.640204 
L 368.22243 582.97477 
L 369.105673 582.818711 
L 369.988915 582.784068 
L 370.872158 582.58529 
L 371.755401 582.926274 
L 373.521886 583.004902 
L 374.405129 583.191114 
L 375.288372 582.967511 
L 376.171615 582.454112 
L 377.054857 582.634523 
L 377.9381 582.620019 
L 378.821343 582.908817 
L 380.587828 583.086907 
L 381.471071 583.358867 
L 382.354314 583.158186 
L 384.120799 582.50711 
L 385.004042 582.492874 
L 385.887285 582.688652 
L 386.770528 583.01323 
L 387.65377 583.05684 
L 388.537013 582.63989 
L 389.420256 582.920718 
L 390.303498 582.657443 
L 391.186741 582.888308 
L 392.069984 582.922726 
L 392.953227 582.479664 
L 393.836469 582.568402 
L 394.719712 582.492039 
L 395.602955 583.005315 
L 397.36944 583.043167 
L 398.252683 583.010104 
L 399.135926 582.620497 
L 400.019169 582.593229 
L 400.902411 582.959571 
L 401.785654 582.994396 
L 402.668897 583.278929 
L 403.55214 583.268643 
L 404.435382 583.128117 
L 405.318625 583.389133 
L 406.201868 583.31841 
L 407.085111 583.030708 
L 407.968353 583.108932 
L 409.734839 582.910406 
L 412.384567 583.087042 
L 413.26781 583.050718 
L 414.151053 583.130363 
L 415.034295 583.079928 
L 415.917538 583.172617 
L 416.800781 582.573389 
L 419.450509 583.039549 
L 420.333752 583.410831 
L 422.100237 583.353417 
L 422.98348 583.016331 
L 424.749966 583.036341 
L 425.633208 583.274212 
L 426.516451 583.238421 
L 428.282937 583.40428 
L 429.166179 583.143543 
L 430.932665 583.060643 
L 431.815908 582.673234 
L 432.69915 583.004105 
L 438.88185 583.216438 
L 439.765092 583.027796 
L 440.648335 583.325593 
L 442.414821 583.572961 
L 444.181306 583.42884 
L 445.947792 583.099627 
L 446.831034 582.979807 
L 447.714277 582.503472 
L 448.59752 582.922853 
L 449.480763 582.951681 
L 450.364005 583.21484 
L 451.247248 583.089911 
L 453.013734 583.51768 
L 455.663462 583.48494 
L 458.31319 583.385385 
L 459.196433 583.513774 
L 460.079676 583.35642 
L 460.962918 583.471622 
L 462.729404 583.362596 
L 463.612646 583.650302 
L 464.495889 583.541944 
L 465.379132 583.580528 
L 466.262375 583.242906 
L 467.145617 583.535109 
L 468.02886 583.492445 
L 468.912103 583.232398 
L 471.561831 583.125237 
L 474.211559 583.399516 
L 475.978045 583.100999 
L 477.74453 583.557715 
L 478.627773 583.582541 
L 479.511016 583.237741 
L 480.394259 583.315903 
L 483.92723 583.075053 
L 484.810472 583.429968 
L 485.693715 583.36155 
L 486.576958 583.473395 
L 489.226686 583.251558 
L 490.109929 583.464371 
L 491.876414 583.395079 
L 492.759657 583.184586 
L 493.6429 583.416584 
L 494.526143 583.24384 
L 495.409385 583.462551 
L 496.292628 583.518502 
L 497.175871 583.380275 
L 498.059114 583.107024 
L 498.942356 583.46512 
L 499.825599 583.259525 
L 500.708842 583.490958 
L 501.592085 583.371747 
L 502.475327 583.631261 
L 504.241813 583.539791 
L 505.125056 583.751398 
L 506.008298 583.53178 
L 506.891541 583.622963 
L 509.541269 583.295428 
L 510.424512 583.721557 
L 511.307755 583.423692 
L 512.190998 583.669262 
L 513.07424 583.364006 
L 513.957483 583.532809 
L 514.840726 582.969352 
L 515.723969 583.224234 
L 516.607211 582.84573 
L 517.490454 583.412224 
L 519.25694 583.677393 
L 522.789911 583.725395 
L 523.673153 583.79805 
L 524.556396 583.717345 
L 525.439639 583.829328 
L 526.322882 583.775079 
L 527.206124 583.492062 
L 528.089367 583.567048 
L 529.855853 583.377742 
L 530.739095 583.780536 
L 532.505581 583.743187 
L 534.272066 583.844194 
L 535.155309 583.538362 
L 536.921794 583.585669 
L 537.805037 583.476104 
L 538.68828 583.487603 
L 539.571523 583.618757 
L 540.454765 583.196337 
L 541.338008 583.266409 
L 542.221251 583.585014 
L 543.104494 583.383008 
L 543.987736 583.740302 
L 544.870979 583.623566 
L 547.520707 583.823437 
L 548.40395 583.922461 
L 549.287193 583.853752 
L 550.170436 583.53947 
L 551.053678 583.846295 
L 551.936921 583.490402 
L 552.820164 583.411855 
L 553.703407 583.527389 
L 554.586649 583.481317 
L 555.469892 583.188426 
L 557.236378 583.829742 
L 559.002863 583.843116 
L 559.886106 584.006584 
L 560.769349 583.627718 
L 561.652591 583.854999 
L 563.419077 583.877065 
L 564.30232 583.412137 
L 565.185562 583.672302 
L 566.068805 583.570747 
L 568.718533 583.775824 
L 569.601776 583.622509 
L 570.485019 583.677264 
L 571.368262 583.439506 
L 572.251504 583.678468 
L 573.134747 583.794301 
L 574.01799 583.676529 
L 574.901233 583.989988 
L 575.784475 583.66218 
L 576.667718 583.632164 
L 577.550961 583.82721 
L 578.434204 583.669487 
L 580.200689 583.836717 
L 581.083932 583.642862 
L 581.967175 583.629379 
L 582.850417 583.494263 
L 584.616903 583.700728 
L 585.500146 583.960442 
L 586.383388 583.951105 
L 587.266631 583.795105 
L 588.149874 584.057994 
L 589.033117 583.843995 
L 591.682845 583.661408 
L 592.566088 583.685925 
L 594.332573 583.899819 
L 595.215816 583.795064 
L 596.099059 583.554036 
L 599.63203 583.614061 
L 600.515272 583.501654 
L 601.398515 583.760299 
L 602.281758 583.890686 
L 613.763913 583.94597 
L 614.647156 583.998847 
L 615.530399 583.75183 
L 616.413642 583.967632 
L 617.296884 583.999984 
L 618.180127 583.796856 
L 619.946613 584.036628 
L 622.596341 583.595555 
L 623.479584 583.608014 
L 624.362826 583.491647 
L 627.012555 583.848977 
L 627.895797 583.847347 
L 628.77904 584.049529 
L 630.545526 583.772356 
L 631.428768 583.89704 
L 634.078497 583.651457 
L 635.844982 583.903164 
L 637.611468 583.899252 
L 638.49471 583.87135 
L 639.377953 584.005707 
L 641.144439 583.996337 
L 642.027681 583.759028 
L 642.910924 583.715156 
L 643.794167 583.940426 
L 647.327138 584.096751 
L 648.210381 584.129707 
L 649.093623 583.923593 
L 649.976866 583.834967 
L 651.743352 584.085116 
L 657.042808 583.494681 
L 657.926051 583.771247 
L 659.692536 583.757365 
L 660.575779 583.676954 
L 661.459022 584.062191 
L 662.342265 583.995641 
L 663.225507 584.073311 
L 664.10875 584.027616 
L 664.991993 583.847497 
L 665.875236 584.045862 
L 666.758478 584.114126 
L 667.641721 583.902934 
L 668.524964 583.843956 
L 669.408207 583.985853 
L 670.291449 583.640004 
L 672.941177 583.731249 
L 673.82442 583.908167 
L 674.707663 583.930136 
L 675.590906 583.667129 
L 681.773605 584.264491 
L 682.656848 584.116386 
L 683.54009 584.141049 
L 685.306576 583.989666 
L 686.189819 583.969179 
L 687.073061 583.831235 
L 690.606032 584.145027 
L 691.489275 584.065172 
L 694.139003 584.139051 
L 695.905489 583.841654 
L 697.671974 583.904792 
L 698.555217 584.022627 
L 700.321703 583.898583 
L 701.204945 584.120505 
L 703.854674 584.100395 
L 704.737916 583.853712 
L 705.621159 583.764946 
L 706.504402 584.094079 
L 707.387645 584.125557 
L 708.270887 584.310976 
L 709.15413 584.099915 
L 710.037373 584.280625 
L 710.920616 584.181731 
L 712.687101 584.304184 
L 716.220072 584.191393 
L 717.103315 584.02628 
L 717.986558 584.064325 
L 718.8698 583.955482 
L 720.636286 584.042572 
L 721.519529 584.210262 
L 722.402771 584.140289 
L 725.0525 584.238941 
L 726.818985 584.126323 
L 727.702228 583.897019 
L 730.351956 583.980883 
L 731.235199 583.998287 
L 732.118442 584.158653 
L 733.001684 583.928428 
L 733.884927 584.189727 
L 734.76817 584.073854 
L 736.534655 584.084827 
L 737.417898 584.366731 
L 738.301141 584.121421 
L 739.184384 584.352404 
L 740.067626 583.961859 
L 740.950869 584.131142 
L 742.717355 584.021196 
L 746.250325 584.117434 
L 747.133568 584.187852 
L 748.016811 584.03648 
L 748.900054 584.253632 
L 750.666539 584.297585 
L 751.549782 584.36552 
L 752.433025 584.201365 
L 753.316267 584.261497 
L 754.19951 584.132396 
L 755.965996 584.055338 
L 757.732481 583.980347 
L 758.615724 584.277018 
L 759.498967 584.226482 
L 761.265452 584.274787 
L 762.148695 583.87083 
L 763.031938 584.137487 
L 763.91518 584.025904 
L 768.331394 584.146142 
L 769.214637 584.097379 
L 770.09788 584.221143 
L 770.981122 584.088769 
L 772.747608 584.08841 
L 773.630851 583.992678 
L 775.397336 584.293556 
L 777.163822 584.438376 
L 778.930307 584.406379 
L 781.580035 584.081303 
L 782.463278 584.268449 
L 783.346521 583.910257 
L 784.229764 583.967284 
L 785.996249 584.310581 
L 787.762735 584.400019 
L 789.52922 584.162054 
L 793.062191 584.282851 
L 794.828677 583.774252 
L 796.595162 584.006072 
L 797.478405 583.882179 
L 798.361648 584.345219 
L 800.128133 584.443621 
L 806.310832 584.272847 
L 807.194075 584.413159 
L 808.077318 584.263299 
L 808.960561 584.357703 
L 809.843803 584.129104 
L 812.493532 583.768754 
L 813.376774 583.992743 
L 814.260017 584.089728 
L 815.14326 584.063753 
L 816.026502 584.234938 
L 816.909745 584.221785 
L 817.792988 584.416697 
L 819.559473 584.510437 
L 821.325959 584.29504 
L 822.209202 583.957652 
L 823.975687 583.724798 
L 829.275144 584.477496 
L 831.041629 584.237469 
L 831.924872 584.119612 
L 836.341086 584.494998 
L 841.640542 584.092613 
L 843.407028 584.082091 
L 844.29027 583.892287 
L 846.939999 584.047504 
L 847.823241 584.288698 
L 849.589727 584.423933 
L 850.47297 584.234232 
L 851.356212 584.345761 
L 852.239455 584.272778 
L 854.889183 584.432345 
L 855.772426 584.370313 
L 856.655669 584.43496 
L 859.305397 584.154369 
L 860.18864 584.458335 
L 861.071883 584.18753 
L 863.721611 584.337558 
L 864.604854 584.255416 
L 866.371339 584.331237 
L 868.137825 584.3072 
L 869.021067 584.459985 
L 871.670796 584.368322 
L 872.554038 584.462642 
L 880.503223 584.210964 
L 881.386466 584.401221 
L 882.269709 584.26943 
L 886.685922 584.372339 
L 887.569165 584.465021 
L 888.452408 584.418651 
L 890.218893 584.538692 
L 895.51835 584.427898 
L 896.401592 584.287926 
L 900.817806 584.428308 
L 905.23402 584.291744 
L 907.883748 584.509149 
L 908.766991 584.500055 
L 909.650234 584.333618 
L 914.066447 584.462301 
L 916.716176 584.387067 
L 918.482661 584.173895 
L 919.365904 584.239336 
L 920.249147 584.433553 
L 921.132389 584.177991 
L 922.015632 584.452855 
L 923.782118 584.495466 
L 926.431846 584.52009 
L 927.315089 584.456864 
L 929.081574 584.605336 
L 930.84806 584.595449 
L 931.731302 584.333091 
L 933.497788 584.189056 
L 934.381031 584.327852 
L 935.264273 584.334113 
L 936.147516 584.475592 
L 939.680487 584.324818 
L 940.56373 584.548634 
L 942.330215 584.619125 
L 943.213458 584.559892 
L 944.096701 584.651648 
L 944.979944 584.57354 
L 946.746429 583.899939 
L 947.629672 584.336914 
L 950.2794 584.383005 
L 951.162643 584.603435 
L 953.812371 584.649883 
L 956.462099 584.548265 
L 959.99507 584.269188 
L 961.761556 584.298448 
L 963.528041 584.249667 
L 964.411284 584.38047 
L 965.294527 584.2029 
L 969.71074 584.603302 
L 975.89344 584.486906 
L 978.543168 584.383866 
L 981.192896 584.526454 
L 982.959382 584.50371 
L 984.725867 584.528273 
L 985.60911 584.466521 
L 987.375595 584.567101 
L 989.142081 584.351143 
L 990.025324 584.507402 
L 991.791809 584.391055 
L 992.675052 584.531406 
L 1001.507479 584.545588 
L 1001.507479 584.545588 
" clip-path="url(#pe5dba893b2)" style="fill: none; stroke: #4c72b0; stroke-width: 6; stroke-linecap: round"/>
   </g>
   <g id="line2d_13">
    <path d="M 119.147975 326.368843 
L 120.031218 328.001862 
L 120.914461 328.16615 
L 121.797703 326.881261 
L 122.680946 321.919067 
L 123.564189 318.25738 
L 124.447432 307.337369 
L 125.330674 307.662709 
L 126.213917 301.463923 
L 127.09716 300.523821 
L 127.980403 297.928792 
L 128.863645 296.551477 
L 129.746888 295.760437 
L 130.630131 294.681167 
L 131.513374 293.311336 
L 132.396616 292.695564 
L 133.279859 291.870833 
L 134.163102 291.457988 
L 135.046345 290.642475 
L 135.929587 289.613263 
L 136.81283 290.077487 
L 138.579316 291.490566 
L 140.345801 291.767065 
L 141.229044 291.576698 
L 142.112287 294.064463 
L 142.995529 294.605756 
L 143.878772 294.48474 
L 144.762015 294.586307 
L 145.645258 293.551812 
L 147.411743 289.686266 
L 148.294986 288.158206 
L 149.178229 285.796791 
L 150.061471 282.458993 
L 150.944714 281.189408 
L 151.827957 277.735282 
L 152.7112 275.269659 
L 153.594442 272.17731 
L 154.477685 270.896201 
L 155.360928 266.278718 
L 156.244171 264.365652 
L 157.127413 259.975439 
L 158.893899 254.549721 
L 160.660384 246.488446 
L 161.543627 245.118122 
L 163.310113 238.694942 
L 164.193355 235.768435 
L 165.076598 232.022687 
L 165.959841 229.695015 
L 167.726326 224.295452 
L 168.609569 219.311635 
L 169.492812 218.289597 
L 170.376055 214.100601 
L 171.259297 210.858129 
L 172.14254 208.774663 
L 174.792268 198.663146 
L 175.675511 193.706158 
L 176.558754 192.631342 
L 177.441997 190.717888 
L 178.325239 184.920397 
L 179.208482 183.149711 
L 180.091725 181.037578 
L 180.974967 175.713349 
L 181.85821 175.752194 
L 182.741453 174.745382 
L 183.624696 170.928107 
L 184.507938 167.882942 
L 185.391181 165.525256 
L 187.157667 159.894436 
L 188.040909 159.57961 
L 188.924152 158.041114 
L 189.807395 153.756248 
L 190.690638 150.151145 
L 191.57388 150.168237 
L 192.457123 147.72561 
L 193.340366 144.596876 
L 194.223609 144.052994 
L 195.106851 140.288548 
L 195.990094 140.49308 
L 196.873337 138.098103 
L 197.75658 136.689168 
L 198.639822 133.801428 
L 199.523065 130.257778 
L 200.406308 130.512497 
L 201.289551 128.376591 
L 202.172793 127.368174 
L 203.056036 122.91643 
L 203.939279 123.065077 
L 204.822522 119.765684 
L 205.705764 115.186735 
L 206.589007 117.311299 
L 207.47225 114.520051 
L 208.355493 113.543435 
L 209.238735 113.407322 
L 210.121978 108.768087 
L 211.005221 109.75387 
L 211.888464 108.620217 
L 212.771706 108.586758 
L 213.654949 108.025991 
L 214.538192 106.486122 
L 215.421435 105.352728 
L 216.304677 105.957623 
L 217.18792 102.855511 
L 218.071163 102.257453 
L 218.954406 100.602188 
L 219.837648 99.463511 
L 220.720891 101.833265 
L 221.604134 98.893525 
L 222.487377 97.530531 
L 223.370619 98.548633 
L 224.253862 98.226634 
L 226.020348 93.311805 
L 226.90359 97.689277 
L 227.786833 91.562691 
L 228.670076 90.686037 
L 229.553319 91.743088 
L 230.436561 94.719808 
L 231.319804 91.310095 
L 232.203047 89.420466 
L 233.08629 89.776338 
L 233.969532 92.311002 
L 234.852775 91.597341 
L 235.736018 87.975068 
L 236.619261 91.321386 
L 237.502503 93.019639 
L 238.385746 87.19449 
L 239.268989 87.63779 
L 240.152232 86.637349 
L 241.035474 87.101625 
L 241.918717 87.043979 
L 242.80196 88.40573 
L 243.685203 85.443616 
L 244.568445 86.422044 
L 246.334931 89.178643 
L 247.218174 85.101986 
L 248.101416 86.601456 
L 248.984659 83.270832 
L 249.867902 85.248821 
L 250.751144 86.396821 
L 251.634387 86.479328 
L 252.51763 83.175014 
L 253.400873 81.680516 
L 254.284115 82.828827 
L 255.167358 80.340467 
L 256.050601 82.262726 
L 256.933844 83.49432 
L 257.817086 86.232791 
L 258.700329 83.093647 
L 259.583572 83.473655 
L 260.466815 82.37232 
L 261.350057 83.670832 
L 262.2333 85.366288 
L 263.116543 84.22528 
L 263.999786 81.672022 
L 264.883028 81.073498 
L 265.766271 81.250994 
L 266.649514 82.980375 
L 267.532757 87.126538 
L 268.415999 83.961082 
L 269.299242 80.133811 
L 270.182485 81.732465 
L 271.065728 80.18607 
L 271.94897 81.115865 
L 272.832213 79.797102 
L 273.715456 81.884841 
L 274.598699 80.523401 
L 275.481941 82.477565 
L 276.365184 84.01127 
L 277.248427 80.829396 
L 278.13167 81.784517 
L 279.014912 83.196042 
L 279.898155 86.789622 
L 280.781398 86.734255 
L 281.664641 82.330627 
L 282.547883 84.779676 
L 283.431126 84.441207 
L 284.314369 82.989697 
L 285.197612 84.162507 
L 286.964097 88.482747 
L 287.84734 86.896212 
L 288.730583 86.17297 
L 289.613825 88.77481 
L 290.497068 90.990219 
L 291.380311 84.959814 
L 292.263554 89.307505 
L 293.146796 89.014458 
L 294.030039 89.85812 
L 294.913282 91.370072 
L 295.796525 93.82197 
L 296.679767 93.832898 
L 297.56301 92.623886 
L 298.446253 94.575201 
L 299.329496 93.402133 
L 300.212738 92.676974 
L 301.095981 93.894999 
L 301.979224 94.785327 
L 302.862467 95.202367 
L 303.745709 93.103544 
L 305.512195 99.285031 
L 306.395438 100.294898 
L 307.27868 100.567435 
L 308.161923 97.288293 
L 309.045166 97.905308 
L 309.928409 99.951923 
L 310.811651 103.715695 
L 311.694894 101.239713 
L 312.578137 103.010373 
L 313.46138 107.563839 
L 314.344622 104.704534 
L 315.227865 105.304457 
L 316.111108 106.963761 
L 316.994351 106.846967 
L 317.877593 107.49889 
L 318.760836 107.461133 
L 319.644079 106.768552 
L 320.527321 105.764175 
L 321.410564 103.80711 
L 322.293807 104.024798 
L 323.17705 103.187817 
L 324.060292 104.91062 
L 324.943535 105.414828 
L 325.826778 109.013069 
L 326.710021 108.992455 
L 327.593263 108.162467 
L 328.476506 110.964902 
L 329.359749 111.436636 
L 330.242992 111.005405 
L 331.126234 110.105391 
L 332.009477 112.207529 
L 332.89272 112.780208 
L 333.775963 110.204731 
L 334.659205 109.094385 
L 335.542448 109.547473 
L 336.425691 108.952108 
L 337.308934 110.889491 
L 338.192176 111.815816 
L 339.075419 109.22739 
L 339.958662 113.178499 
L 341.725147 118.884212 
L 342.60839 121.238739 
L 343.491633 123.201863 
L 344.374876 123.029236 
L 346.141361 125.733937 
L 347.024604 124.904518 
L 347.907847 123.203779 
L 348.791089 123.522568 
L 349.674332 123.089938 
L 350.557575 124.221364 
L 351.440818 128.8635 
L 352.32406 128.493022 
L 353.207303 127.641176 
L 354.090546 129.291572 
L 354.973789 130.205414 
L 355.857031 126.571229 
L 356.740274 130.510892 
L 357.623517 128.652701 
L 358.50676 132.558491 
L 359.390002 131.806606 
L 360.273245 133.630406 
L 361.156488 132.897945 
L 362.039731 134.464228 
L 362.922973 134.038331 
L 363.806216 131.537851 
L 364.689459 135.760357 
L 365.572702 133.690901 
L 366.455944 137.456745 
L 367.339187 137.810494 
L 368.22243 139.86436 
L 369.105673 138.695902 
L 369.988915 136.045583 
L 370.872158 138.783381 
L 371.755401 141.052966 
L 372.638644 144.85201 
L 373.521886 145.900877 
L 374.405129 148.465323 
L 375.288372 145.97748 
L 376.171615 146.569115 
L 377.054857 146.193976 
L 377.9381 145.43194 
L 378.821343 147.631397 
L 379.704586 151.565933 
L 380.587828 151.406409 
L 381.471071 148.824717 
L 382.354314 148.956065 
L 383.237557 148.494897 
L 384.120799 150.4957 
L 385.004042 153.921935 
L 385.887285 149.099532 
L 386.770528 151.319526 
L 387.65377 150.455379 
L 388.537013 153.266827 
L 389.420256 150.819849 
L 390.303498 150.722763 
L 391.186741 152.36469 
L 392.069984 155.924448 
L 392.953227 156.220422 
L 393.836469 153.654397 
L 394.719712 158.97658 
L 395.602955 161.520541 
L 396.486198 160.46854 
L 397.36944 160.94667 
L 398.252683 160.463412 
L 399.135926 166.316141 
L 400.019169 165.009964 
L 400.902411 164.8666 
L 401.785654 165.307568 
L 402.668897 162.238863 
L 403.55214 164.094801 
L 404.435382 165.369798 
L 405.318625 166.987046 
L 406.201868 167.10239 
L 407.085111 164.209653 
L 407.968353 166.831226 
L 408.851596 168.898688 
L 409.734839 166.553147 
L 410.618082 165.717435 
L 411.501324 165.742969 
L 412.384567 165.396705 
L 413.26781 168.238426 
L 414.151053 173.872198 
L 415.034295 174.786739 
L 415.917538 172.248709 
L 416.800781 171.560841 
L 417.684024 171.406523 
L 418.567266 172.967782 
L 419.450509 176.079864 
L 420.333752 178.114567 
L 421.216995 181.22437 
L 422.100237 181.148156 
L 422.98348 180.511409 
L 423.866723 180.064872 
L 424.749966 180.819786 
L 425.633208 181.397826 
L 426.516451 182.378534 
L 428.282937 186.788273 
L 429.166179 184.734744 
L 430.049422 186.14386 
L 430.932665 184.058607 
L 431.815908 188.897429 
L 432.69915 192.023936 
L 433.582393 193.184133 
L 434.465636 194.122707 
L 435.348879 192.92413 
L 436.232121 191.284663 
L 437.115364 193.927575 
L 437.998607 197.047064 
L 438.88185 196.945808 
L 439.765092 196.431707 
L 440.648335 202.616509 
L 441.531578 201.974426 
L 442.414821 199.828316 
L 443.298063 204.390224 
L 444.181306 201.49974 
L 445.064549 201.666644 
L 445.947792 204.105905 
L 446.831034 202.366295 
L 447.714277 205.934884 
L 448.59752 206.840077 
L 449.480763 208.346772 
L 450.364005 210.185773 
L 451.247248 210.770158 
L 452.130491 210.336932 
L 453.896976 213.136208 
L 454.780219 211.225525 
L 455.663462 209.991133 
L 456.546705 213.150866 
L 457.429947 211.544417 
L 458.31319 212.74711 
L 459.196433 208.746979 
L 460.079676 210.742267 
L 460.962918 209.543872 
L 462.729404 209.789476 
L 463.612646 213.405767 
L 464.495889 213.701921 
L 465.379132 212.879365 
L 466.262375 214.307463 
L 467.145617 213.459321 
L 468.02886 216.410456 
L 468.912103 223.316998 
L 469.795346 223.626308 
L 470.678588 223.385961 
L 471.561831 226.785755 
L 472.445074 225.839257 
L 473.328317 224.270203 
L 474.211559 223.958873 
L 475.094802 224.062874 
L 475.978045 224.34116 
L 476.861288 229.094393 
L 477.74453 232.199742 
L 478.627773 233.332411 
L 479.511016 240.493518 
L 480.394259 239.970043 
L 481.277501 237.389412 
L 482.160744 236.28409 
L 483.043987 231.034288 
L 483.92723 232.686885 
L 484.810472 238.316824 
L 485.693715 241.981594 
L 486.576958 241.486138 
L 487.460201 242.606558 
L 488.343443 239.139251 
L 489.226686 241.176258 
L 490.109929 238.293906 
L 490.993172 239.241828 
L 491.876414 242.956397 
L 492.759657 247.259442 
L 493.6429 246.97015 
L 494.526143 246.322033 
L 495.409385 246.859985 
L 496.292628 241.714133 
L 497.175871 249.522061 
L 500.708842 263.525227 
L 501.592085 263.823713 
L 502.475327 260.896558 
L 503.35857 261.923647 
L 504.241813 265.114869 
L 505.125056 266.670794 
L 506.008298 263.898942 
L 506.891541 264.788649 
L 507.774784 261.989657 
L 508.658027 266.92396 
L 509.541269 271.183058 
L 510.424512 268.280014 
L 511.307755 273.793988 
L 512.190998 274.386452 
L 513.07424 275.333391 
L 513.957483 273.370267 
L 514.840726 273.394299 
L 515.723969 272.666861 
L 516.607211 269.233918 
L 517.490454 277.66676 
L 518.373697 276.414759 
L 519.25694 281.090068 
L 520.140182 282.335647 
L 521.023425 280.465233 
L 521.906668 280.830247 
L 522.789911 279.430971 
L 524.556396 283.444673 
L 525.439639 282.432812 
L 526.322882 282.101619 
L 528.089367 282.916743 
L 528.97261 282.583427 
L 529.855853 287.908407 
L 530.739095 288.086938 
L 531.622338 290.091083 
L 532.505581 291.797467 
L 533.388823 293.213343 
L 534.272066 292.965123 
L 535.155309 294.023909 
L 536.038552 291.182784 
L 536.921794 292.212617 
L 537.805037 292.256382 
L 538.68828 297.53234 
L 539.571523 293.210882 
L 540.454765 299.166783 
L 541.338008 296.495644 
L 542.221251 299.515897 
L 543.104494 300.109086 
L 543.987736 297.422616 
L 544.870979 302.520767 
L 545.754222 302.349305 
L 546.637465 309.937267 
L 547.520707 306.586961 
L 548.40395 307.998615 
L 549.287193 312.450721 
L 550.170436 304.778984 
L 551.053678 302.814772 
L 551.936921 305.700206 
L 552.820164 309.873328 
L 553.703407 311.215139 
L 554.586649 307.303962 
L 555.469892 316.199318 
L 556.353135 313.903965 
L 557.236378 316.571298 
L 558.11962 320.272478 
L 559.002863 320.805095 
L 559.886106 325.427136 
L 560.769349 324.945975 
L 561.652591 326.045859 
L 562.535834 328.604348 
L 563.419077 322.52246 
L 564.30232 322.637648 
L 565.185562 321.434799 
L 566.068805 321.482967 
L 566.952048 320.6926 
L 567.835291 331.629988 
L 568.718533 328.891413 
L 569.601776 333.151211 
L 570.485019 328.710861 
L 571.368262 331.627035 
L 572.251504 335.671787 
L 573.134747 336.265934 
L 574.01799 337.630612 
L 574.901233 334.543365 
L 575.784475 338.981461 
L 576.667718 338.96266 
L 577.550961 340.607565 
L 578.434204 342.901727 
L 580.200689 345.342826 
L 581.083932 346.862703 
L 581.967175 349.509188 
L 582.850417 350.080133 
L 583.73366 348.34565 
L 586.383388 355.730038 
L 587.266631 356.358836 
L 588.149874 356.356868 
L 589.033117 355.628057 
L 589.916359 356.386312 
L 590.799602 352.892047 
L 591.682845 351.116725 
L 592.566088 354.184706 
L 593.44933 355.708674 
L 594.332573 361.792944 
L 595.215816 356.231787 
L 596.099059 362.526364 
L 596.982301 360.585434 
L 597.865544 359.674725 
L 598.748787 355.177196 
L 599.63203 363.707642 
L 600.515272 365.354464 
L 601.398515 367.467737 
L 602.281758 368.606958 
L 603.165 372.093234 
L 604.048243 370.976362 
L 604.931486 374.462341 
L 605.814729 370.298452 
L 606.697971 370.284817 
L 607.581214 372.081814 
L 608.464457 375.345185 
L 609.3477 374.363804 
L 610.230942 380.720327 
L 611.114185 381.804025 
L 611.997428 384.87264 
L 612.880671 383.760183 
L 613.763913 379.633559 
L 614.647156 383.900945 
L 615.530399 385.833407 
L 616.413642 385.452713 
L 617.296884 385.954409 
L 618.180127 386.665286 
L 619.06337 384.392541 
L 619.946613 386.497618 
L 620.829855 388.164083 
L 621.713098 387.266245 
L 622.596341 388.939106 
L 623.479584 388.229809 
L 624.362826 387.906709 
L 625.246069 390.141761 
L 626.129312 396.586203 
L 627.012555 390.394849 
L 627.895797 398.616516 
L 628.77904 400.46945 
L 629.662283 394.270353 
L 630.545526 395.33784 
L 631.428768 398.328752 
L 632.312011 400.20305 
L 633.195254 401.370615 
L 634.078497 398.716464 
L 634.961739 401.069554 
L 635.844982 402.310186 
L 636.728225 404.542273 
L 637.611468 403.6066 
L 638.49471 404.691334 
L 639.377953 406.728005 
L 641.144439 412.960237 
L 642.027681 410.064172 
L 642.910924 408.77743 
L 643.794167 408.804414 
L 644.67741 411.737848 
L 645.560652 412.639403 
L 646.443895 417.895601 
L 647.327138 415.426909 
L 648.210381 421.392741 
L 649.093623 420.803669 
L 649.976866 420.898904 
L 650.860109 422.670419 
L 651.743352 419.606323 
L 652.626594 423.469332 
L 653.509837 418.745025 
L 654.39308 419.318235 
L 655.276323 423.068257 
L 656.159565 419.881398 
L 657.042808 417.700793 
L 657.926051 418.987794 
L 658.809294 422.994503 
L 659.692536 423.662353 
L 660.575779 425.14385 
L 661.459022 428.230321 
L 662.342265 432.403067 
L 663.225507 429.971083 
L 664.10875 429.809837 
L 664.991993 433.856958 
L 665.875236 435.565544 
L 666.758478 434.432836 
L 668.524964 438.409155 
L 669.408207 434.979385 
L 670.291449 429.50748 
L 671.174692 430.630542 
L 672.057935 436.455535 
L 672.941177 436.952557 
L 673.82442 438.017779 
L 674.707663 442.291677 
L 675.590906 430.992112 
L 676.474148 440.92564 
L 677.357391 441.814595 
L 678.240634 439.7162 
L 679.123877 449.000174 
L 680.007119 446.951358 
L 680.890362 448.195772 
L 681.773605 448.558623 
L 682.656848 451.189377 
L 683.54009 451.276687 
L 684.423333 450.241493 
L 685.306576 446.958907 
L 686.189819 446.55892 
L 687.073061 449.695941 
L 687.956304 450.123521 
L 688.839547 452.64345 
L 689.72279 456.98196 
L 690.606032 458.095077 
L 691.489275 456.556555 
L 692.372518 460.67765 
L 693.255761 462.749307 
L 694.139003 464.029173 
L 695.022246 457.852516 
L 695.905489 457.497977 
L 696.788732 461.416923 
L 697.671974 460.330932 
L 698.555217 463.588955 
L 699.43846 460.207677 
L 700.321703 463.207653 
L 701.204945 461.751508 
L 702.088188 464.157258 
L 702.971431 464.267099 
L 703.854674 467.536504 
L 704.737916 466.522752 
L 705.621159 472.129708 
L 706.504402 472.128672 
L 707.387645 475.947151 
L 708.270887 478.348195 
L 709.15413 477.866083 
L 710.037373 476.098802 
L 710.920616 479.60847 
L 712.687101 480.130068 
L 713.570344 481.156704 
L 714.453587 479.733972 
L 715.336829 480.734115 
L 716.220072 477.244634 
L 717.103315 476.437661 
L 717.986558 474.575132 
L 718.8698 480.335882 
L 719.753043 476.676978 
L 720.636286 478.978559 
L 721.519529 482.171608 
L 722.402771 484.527086 
L 723.286014 482.34518 
L 725.0525 483.841762 
L 725.935742 486.468411 
L 726.818985 484.368605 
L 727.702228 484.701843 
L 728.585471 480.593891 
L 729.468713 481.581519 
L 730.351956 485.438215 
L 731.235199 488.418309 
L 732.118442 486.931677 
L 733.001684 487.631995 
L 733.884927 491.566614 
L 734.76817 493.923763 
L 736.534655 485.760998 
L 737.417898 493.414757 
L 738.301141 493.300708 
L 740.067626 498.018068 
L 740.950869 492.322474 
L 741.834112 493.658089 
L 742.717355 496.842378 
L 743.600597 498.209412 
L 744.48384 499.945001 
L 745.367083 503.998486 
L 746.250325 498.618968 
L 747.133568 502.112819 
L 748.016811 502.478001 
L 748.900054 505.594162 
L 749.783296 504.429368 
L 750.666539 504.953698 
L 751.549782 506.807441 
L 752.433025 510.031126 
L 753.316267 508.376068 
L 754.19951 509.771498 
L 755.082753 508.615788 
L 756.849238 501.935116 
L 757.732481 508.913075 
L 758.615724 512.930195 
L 759.498967 511.772639 
L 760.382209 514.379114 
L 761.265452 510.605391 
L 762.148695 511.92864 
L 763.91518 513.216172 
L 764.798423 514.660294 
L 765.681666 517.218394 
L 766.564909 517.94444 
L 767.448151 516.313584 
L 768.331394 517.066989 
L 769.214637 516.348376 
L 770.09788 516.378973 
L 770.981122 518.130165 
L 771.864365 519.499264 
L 772.747608 514.633556 
L 774.514093 520.33005 
L 775.397336 521.113249 
L 776.280579 524.843693 
L 777.163822 527.26379 
L 778.047064 526.38004 
L 778.930307 525.840696 
L 779.81355 523.726141 
L 780.696793 526.074692 
L 781.580035 524.152808 
L 782.463278 524.236804 
L 783.346521 525.189809 
L 784.229764 524.839996 
L 785.113006 529.007394 
L 785.996249 530.124629 
L 786.879492 528.520491 
L 787.762735 530.705314 
L 788.645977 530.260218 
L 789.52922 527.58476 
L 790.412463 530.540219 
L 791.295706 529.927788 
L 792.178948 534.161226 
L 793.062191 533.610944 
L 793.945434 530.709988 
L 794.828677 530.311972 
L 795.711919 530.50397 
L 796.595162 532.777052 
L 797.478405 534.254506 
L 798.361648 535.382022 
L 799.24489 539.224838 
L 800.128133 540.47085 
L 801.011376 540.369274 
L 801.894619 538.31937 
L 803.661104 540.627836 
L 804.544347 539.29907 
L 805.42759 540.953619 
L 806.310832 542.901303 
L 807.194075 541.593708 
L 808.077318 542.746317 
L 808.960561 542.978523 
L 809.843803 541.942908 
L 810.727046 541.181154 
L 811.610289 541.78938 
L 812.493532 543.043281 
L 813.376774 542.698752 
L 814.260017 541.443371 
L 815.14326 541.072424 
L 816.026502 544.610759 
L 816.909745 544.16238 
L 817.792988 547.520854 
L 818.676231 549.169741 
L 819.559473 550.259901 
L 820.442716 549.442436 
L 821.325959 547.002852 
L 822.209202 546.099488 
L 823.092444 543.005084 
L 823.975687 541.192277 
L 824.85893 541.65249 
L 825.742173 546.831594 
L 826.625415 548.757116 
L 828.391901 551.110756 
L 829.275144 550.979812 
L 830.158386 551.703278 
L 831.041629 550.857978 
L 831.924872 551.005324 
L 832.808115 550.983622 
L 834.5746 554.249557 
L 835.457843 555.19489 
L 836.341086 554.564147 
L 837.224328 556.116601 
L 838.107571 553.13454 
L 838.990814 552.859442 
L 839.874057 552.905331 
L 840.757299 553.477994 
L 841.640542 555.739024 
L 842.523785 557.140482 
L 844.29027 553.311964 
L 845.173513 556.099875 
L 846.056756 557.652491 
L 846.939999 556.574218 
L 847.823241 557.359723 
L 848.706484 557.066391 
L 849.589727 557.599656 
L 850.47297 559.670002 
L 852.239455 556.208916 
L 853.122698 557.135885 
L 854.005941 559.27364 
L 854.889183 559.865279 
L 855.772426 559.712144 
L 856.655669 561.762765 
L 857.538912 562.872551 
L 858.422154 561.093374 
L 859.305397 562.665491 
L 860.18864 563.629433 
L 861.071883 564.831817 
L 861.955125 563.313622 
L 862.838368 562.241923 
L 863.721611 563.326588 
L 864.604854 562.26517 
L 865.488096 562.728093 
L 866.371339 562.480122 
L 867.254582 564.389982 
L 868.137825 564.123947 
L 869.021067 566.887359 
L 869.90431 563.965997 
L 870.787553 565.265463 
L 871.670796 564.886198 
L 872.554038 564.711845 
L 873.437281 564.904452 
L 874.320524 565.868684 
L 875.203767 565.401516 
L 876.087009 564.249607 
L 876.970252 565.139238 
L 877.853495 565.384967 
L 878.736738 565.424668 
L 879.61998 564.288917 
L 880.503223 567.919831 
L 881.386466 568.820832 
L 883.152951 567.728045 
L 884.036194 566.859881 
L 884.919437 568.064113 
L 885.802679 569.543505 
L 886.685922 568.329518 
L 887.569165 568.6968 
L 888.452408 570.346763 
L 889.33565 570.820147 
L 890.218893 569.730718 
L 891.102136 570.19817 
L 891.985379 569.721627 
L 892.868621 570.397263 
L 894.635107 570.190949 
L 895.51835 571.122455 
L 896.401592 570.811235 
L 897.284835 570.108747 
L 898.168078 569.698225 
L 899.051321 571.215089 
L 899.934563 572.435512 
L 900.817806 571.659223 
L 902.584292 572.046041 
L 903.467534 571.087171 
L 904.350777 571.930709 
L 905.23402 571.713969 
L 907.000505 573.495678 
L 907.883748 572.711569 
L 908.766991 574.791767 
L 909.650234 574.083851 
L 911.416719 573.528393 
L 912.299962 573.639104 
L 913.183205 573.235304 
L 914.066447 574.617311 
L 914.94969 574.588778 
L 915.832933 574.274285 
L 916.716176 572.992497 
L 917.599418 573.419942 
L 918.482661 573.694853 
L 919.365904 574.470331 
L 920.249147 574.46078 
L 921.132389 573.354895 
L 922.898875 575.01255 
L 923.782118 575.921352 
L 926.431846 575.47827 
L 927.315089 576.647372 
L 928.198331 576.103939 
L 929.081574 576.474356 
L 929.964817 576.616364 
L 930.84806 576.955032 
L 931.731302 576.630512 
L 932.614545 575.331632 
L 933.497788 574.408107 
L 934.381031 575.408706 
L 935.264273 575.448808 
L 936.147516 575.695045 
L 937.030759 576.51555 
L 937.914002 576.631943 
L 938.797244 575.883497 
L 939.680487 576.340863 
L 940.56373 577.215704 
L 941.446973 578.80344 
L 943.213458 578.882404 
L 944.096701 579.261596 
L 944.979944 578.787117 
L 946.746429 577.000208 
L 947.629672 576.635876 
L 948.512915 577.716809 
L 949.396157 577.810326 
L 951.162643 578.388627 
L 952.929128 579.471564 
L 953.812371 578.786717 
L 954.695614 579.597187 
L 955.578857 579.446117 
L 956.462099 578.23458 
L 957.345342 578.373032 
L 958.228585 578.650435 
L 959.111827 578.547768 
L 959.99507 579.056112 
L 960.878313 579.273973 
L 961.761556 579.039996 
L 962.644798 578.940002 
L 963.528041 579.025302 
L 964.411284 579.374093 
L 965.294527 579.902758 
L 966.177769 579.187919 
L 967.061012 579.39611 
L 967.944255 579.915435 
L 968.827498 579.866928 
L 969.71074 580.195407 
L 970.593983 580.057282 
L 971.477226 580.099892 
L 972.360469 580.286124 
L 973.243711 579.760793 
L 974.126954 580.156422 
L 975.89344 580.462071 
L 976.776682 580.823409 
L 977.659925 580.236887 
L 978.543168 581.111916 
L 979.426411 580.784874 
L 980.309653 580.750523 
L 981.192896 580.362202 
L 982.076139 580.298774 
L 982.959382 580.893374 
L 983.842624 581.863768 
L 984.725867 581.479944 
L 985.60911 580.790775 
L 986.492353 580.891454 
L 987.375595 581.365104 
L 989.142081 581.253932 
L 990.025324 581.274712 
L 990.908566 581.48286 
L 992.675052 581.125806 
L 993.558295 582.013598 
L 994.441537 582.163929 
L 995.32478 581.814175 
L 996.208023 582.044504 
L 997.091266 582.15165 
L 997.974508 581.685281 
L 998.857751 582.25273 
L 999.740994 582.371872 
L 1000.624237 581.567228 
L 1001.507479 582.044173 
L 1001.507479 582.044173 
" clip-path="url(#pe5dba893b2)" style="fill: none; stroke: #dd8452; stroke-width: 6; stroke-linecap: round"/>
   </g>
   <g id="line2d_14"/>
   <g id="line2d_15"/>
   <g id="patch_3">
    <path d="M 75.03 609.894375 
L 75.03 54.554375 
" style="fill: none; stroke: #cccccc; stroke-width: 1.875; stroke-linejoin: miter; stroke-linecap: square"/>
   </g>
   <g id="patch_4">
    <path d="M 1045.625455 609.894375 
L 1045.625455 54.554375 
" style="fill: none; stroke: #cccccc; stroke-width: 1.875; stroke-linejoin: miter; stroke-linecap: square"/>
   </g>
   <g id="patch_5">
    <path d="M 75.03 609.894375 
L 1045.625455 609.894375 
" style="fill: none; stroke: #cccccc; stroke-width: 1.875; stroke-linejoin: miter; stroke-linecap: square"/>
   </g>
   <g id="patch_6">
    <path d="M 75.03 54.554375 
L 1045.625455 54.554375 
" style="fill: none; stroke: #cccccc; stroke-width: 1.875; stroke-linejoin: miter; stroke-linecap: square"/>
   </g>
   <g id="text_14">
    <!-- Training Progress: Loss -->
    <g style="fill: #262626" transform="translate(323.329602 34.554375) scale(0.36 -0.36)">
     <defs>
      <path id="DejaVuSans-Bold-54" d="M 31 4666 
L 4331 4666 
L 4331 3756 
L 2784 3756 
L 2784 0 
L 1581 0 
L 1581 3756 
L 31 3756 
L 31 4666 
z
" transform="scale(0.015625)"/>
      <path id="DejaVuSans-Bold-72" d="M 3138 2547 
Q 2991 2616 2845 2648 
Q 2700 2681 2553 2681 
Q 2122 2681 1889 2404 
Q 1656 2128 1656 1613 
L 1656 0 
L 538 0 
L 538 3500 
L 1656 3500 
L 1656 2925 
Q 1872 3269 2151 3426 
Q 2431 3584 2822 3584 
Q 2878 3584 2943 3579 
Q 3009 3575 3134 3559 
L 3138 2547 
z
" transform="scale(0.015625)"/>
      <path id="DejaVuSans-Bold-61" d="M 2106 1575 
Q 1756 1575 1579 1456 
Q 1403 1338 1403 1106 
Q 1403 894 1545 773 
Q 1688 653 1941 653 
Q 2256 653 2472 879 
Q 2688 1106 2688 1447 
L 2688 1575 
L 2106 1575 
z
M 3816 1997 
L 3816 0 
L 2688 0 
L 2688 519 
Q 2463 200 2181 54 
Q 1900 -91 1497 -91 
Q 953 -91 614 226 
Q 275 544 275 1050 
Q 275 1666 698 1953 
Q 1122 2241 2028 2241 
L 2688 2241 
L 2688 2328 
Q 2688 2594 2478 2717 
Q 2269 2841 1825 2841 
Q 1466 2841 1156 2769 
Q 847 2697 581 2553 
L 581 3406 
Q 941 3494 1303 3539 
Q 1666 3584 2028 3584 
Q 2975 3584 3395 3211 
Q 3816 2838 3816 1997 
z
" transform="scale(0.015625)"/>
      <path id="DejaVuSans-Bold-69" d="M 538 3500 
L 1656 3500 
L 1656 0 
L 538 0 
L 538 3500 
z
M 538 4863 
L 1656 4863 
L 1656 3950 
L 538 3950 
L 538 4863 
z
" transform="scale(0.015625)"/>
      <path id="DejaVuSans-Bold-6e" d="M 4056 2131 
L 4056 0 
L 2931 0 
L 2931 347 
L 2931 1631 
Q 2931 2084 2911 2256 
Q 2891 2428 2841 2509 
Q 2775 2619 2662 2680 
Q 2550 2741 2406 2741 
Q 2056 2741 1856 2470 
Q 1656 2200 1656 1722 
L 1656 0 
L 538 0 
L 538 3500 
L 1656 3500 
L 1656 2988 
Q 1909 3294 2193 3439 
Q 2478 3584 2822 3584 
Q 3428 3584 3742 3212 
Q 4056 2841 4056 2131 
z
" transform="scale(0.015625)"/>
      <path id="DejaVuSans-Bold-67" d="M 2919 594 
Q 2688 288 2409 144 
Q 2131 0 1766 0 
Q 1125 0 706 504 
Q 288 1009 288 1791 
Q 288 2575 706 3076 
Q 1125 3578 1766 3578 
Q 2131 3578 2409 3434 
Q 2688 3291 2919 2981 
L 2919 3500 
L 4044 3500 
L 4044 353 
Q 4044 -491 3511 -936 
Q 2978 -1381 1966 -1381 
Q 1638 -1381 1331 -1331 
Q 1025 -1281 716 -1178 
L 716 -306 
Q 1009 -475 1290 -558 
Q 1572 -641 1856 -641 
Q 2406 -641 2662 -400 
Q 2919 -159 2919 353 
L 2919 594 
z
M 2181 2772 
Q 1834 2772 1640 2515 
Q 1447 2259 1447 1791 
Q 1447 1309 1634 1061 
Q 1822 813 2181 813 
Q 2531 813 2725 1069 
Q 2919 1325 2919 1791 
Q 2919 2259 2725 2515 
Q 2531 2772 2181 2772 
z
" transform="scale(0.015625)"/>
      <path id="DejaVuSans-Bold-20" transform="scale(0.015625)"/>
      <path id="DejaVuSans-Bold-50" d="M 588 4666 
L 2584 4666 
Q 3475 4666 3951 4270 
Q 4428 3875 4428 3144 
Q 4428 2409 3951 2014 
Q 3475 1619 2584 1619 
L 1791 1619 
L 1791 0 
L 588 0 
L 588 4666 
z
M 1791 3794 
L 1791 2491 
L 2456 2491 
Q 2806 2491 2997 2661 
Q 3188 2831 3188 3144 
Q 3188 3456 2997 3625 
Q 2806 3794 2456 3794 
L 1791 3794 
z
" transform="scale(0.015625)"/>
      <path id="DejaVuSans-Bold-6f" d="M 2203 2784 
Q 1831 2784 1636 2517 
Q 1441 2250 1441 1747 
Q 1441 1244 1636 976 
Q 1831 709 2203 709 
Q 2569 709 2762 976 
Q 2956 1244 2956 1747 
Q 2956 2250 2762 2517 
Q 2569 2784 2203 2784 
z
M 2203 3584 
Q 3106 3584 3614 3096 
Q 4122 2609 4122 1747 
Q 4122 884 3614 396 
Q 3106 -91 2203 -91 
Q 1297 -91 786 396 
Q 275 884 275 1747 
Q 275 2609 786 3096 
Q 1297 3584 2203 3584 
z
" transform="scale(0.015625)"/>
      <path id="DejaVuSans-Bold-65" d="M 4031 1759 
L 4031 1441 
L 1416 1441 
Q 1456 1047 1700 850 
Q 1944 653 2381 653 
Q 2734 653 3104 758 
Q 3475 863 3866 1075 
L 3866 213 
Q 3469 63 3072 -14 
Q 2675 -91 2278 -91 
Q 1328 -91 801 392 
Q 275 875 275 1747 
Q 275 2603 792 3093 
Q 1309 3584 2216 3584 
Q 3041 3584 3536 3087 
Q 4031 2591 4031 1759 
z
M 2881 2131 
Q 2881 2450 2695 2645 
Q 2509 2841 2209 2841 
Q 1884 2841 1681 2658 
Q 1478 2475 1428 2131 
L 2881 2131 
z
" transform="scale(0.015625)"/>
      <path id="DejaVuSans-Bold-73" d="M 3272 3391 
L 3272 2541 
Q 2913 2691 2578 2766 
Q 2244 2841 1947 2841 
Q 1628 2841 1473 2761 
Q 1319 2681 1319 2516 
Q 1319 2381 1436 2309 
Q 1553 2238 1856 2203 
L 2053 2175 
Q 2913 2066 3209 1816 
Q 3506 1566 3506 1031 
Q 3506 472 3093 190 
Q 2681 -91 1863 -91 
Q 1516 -91 1145 -36 
Q 775 19 384 128 
L 384 978 
Q 719 816 1070 734 
Q 1422 653 1784 653 
Q 2113 653 2278 743 
Q 2444 834 2444 1013 
Q 2444 1163 2330 1236 
Q 2216 1309 1875 1350 
L 1678 1375 
Q 931 1469 631 1722 
Q 331 1975 331 2491 
Q 331 3047 712 3315 
Q 1094 3584 1881 3584 
Q 2191 3584 2531 3537 
Q 2872 3491 3272 3391 
z
" transform="scale(0.015625)"/>
      <path id="DejaVuSans-Bold-3a" d="M 716 3500 
L 1844 3500 
L 1844 2291 
L 716 2291 
L 716 3500 
z
M 716 1209 
L 1844 1209 
L 1844 0 
L 716 0 
L 716 1209 
z
" transform="scale(0.015625)"/>
      <path id="DejaVuSans-Bold-4c" d="M 588 4666 
L 1791 4666 
L 1791 909 
L 3903 909 
L 3903 0 
L 588 0 
L 588 4666 
z
" transform="scale(0.015625)"/>
     </defs>
     <use xlink:href="#DejaVuSans-Bold-54"/>
     <use xlink:href="#DejaVuSans-Bold-72" transform="translate(57.212891 0)"/>
     <use xlink:href="#DejaVuSans-Bold-61" transform="translate(106.529297 0)"/>
     <use xlink:href="#DejaVuSans-Bold-69" transform="translate(174.009766 0)"/>
     <use xlink:href="#DejaVuSans-Bold-6e" transform="translate(208.287109 0)"/>
     <use xlink:href="#DejaVuSans-Bold-69" transform="translate(279.478516 0)"/>
     <use xlink:href="#DejaVuSans-Bold-6e" transform="translate(313.755859 0)"/>
     <use xlink:href="#DejaVuSans-Bold-67" transform="translate(384.947266 0)"/>
     <use xlink:href="#DejaVuSans-Bold-20" transform="translate(456.529297 0)"/>
     <use xlink:href="#DejaVuSans-Bold-50" transform="translate(491.34375 0)"/>
     <use xlink:href="#DejaVuSans-Bold-72" transform="translate(564.634766 0)"/>
     <use xlink:href="#DejaVuSans-Bold-6f" transform="translate(613.951172 0)"/>
     <use xlink:href="#DejaVuSans-Bold-67" transform="translate(682.652344 0)"/>
     <use xlink:href="#DejaVuSans-Bold-72" transform="translate(754.234375 0)"/>
     <use xlink:href="#DejaVuSans-Bold-65" transform="translate(803.550781 0)"/>
     <use xlink:href="#DejaVuSans-Bold-73" transform="translate(871.373047 0)"/>
     <use xlink:href="#DejaVuSans-Bold-73" transform="translate(930.894531 0)"/>
     <use xlink:href="#DejaVuSans-Bold-3a" transform="translate(990.416016 0)"/>
     <use xlink:href="#DejaVuSans-Bold-20" transform="translate(1030.40625 0)"/>
     <use xlink:href="#DejaVuSans-Bold-4c" transform="translate(1065.220703 0)"/>
     <use xlink:href="#DejaVuSans-Bold-6f" transform="translate(1128.941406 0)"/>
     <use xlink:href="#DejaVuSans-Bold-73" transform="translate(1197.642578 0)"/>
     <use xlink:href="#DejaVuSans-Bold-73" transform="translate(1257.164062 0)"/>
    </g>
   </g>
   <g id="legend_1">
    <g id="patch_7">
     <path d="M 846.345455 174.094375 
L 1023.225455 174.094375 
Q 1029.625455 174.094375 1029.625455 167.694375 
L 1029.625455 76.954375 
Q 1029.625455 70.554375 1023.225455 70.554375 
L 846.345455 70.554375 
Q 839.945455 70.554375 839.945455 76.954375 
L 839.945455 167.694375 
Q 839.945455 174.094375 846.345455 174.094375 
z
" style="fill: #ffffff; opacity: 0.8; stroke: #cccccc; stroke-width: 1.5; stroke-linejoin: miter"/>
    </g>
    <g id="line2d_16">
     <path d="M 852.745455 96.469375 
L 884.745455 96.469375 
L 916.745455 96.469375 
" style="fill: none; stroke: #4c72b0; stroke-width: 6; stroke-linecap: round"/>
    </g>
    <g id="text_15">
     <!-- train -->
     <g style="fill: #262626" transform="translate(942.345455 107.669375) scale(0.32 -0.32)">
      <defs>
       <path id="DejaVuSans-74" d="M 1172 4494 
L 1172 3500 
L 2356 3500 
L 2356 3053 
L 1172 3053 
L 1172 1153 
Q 1172 725 1289 603 
Q 1406 481 1766 481 
L 2356 481 
L 2356 0 
L 1766 0 
Q 1100 0 847 248 
Q 594 497 594 1153 
L 594 3053 
L 172 3053 
L 172 3500 
L 594 3500 
L 594 4494 
L 1172 4494 
z
" transform="scale(0.015625)"/>
       <path id="DejaVuSans-72" d="M 2631 2963 
Q 2534 3019 2420 3045 
Q 2306 3072 2169 3072 
Q 1681 3072 1420 2755 
Q 1159 2438 1159 1844 
L 1159 0 
L 581 0 
L 581 3500 
L 1159 3500 
L 1159 2956 
Q 1341 3275 1631 3429 
Q 1922 3584 2338 3584 
Q 2397 3584 2469 3576 
Q 2541 3569 2628 3553 
L 2631 2963 
z
" transform="scale(0.015625)"/>
       <path id="DejaVuSans-61" d="M 2194 1759 
Q 1497 1759 1228 1600 
Q 959 1441 959 1056 
Q 959 750 1161 570 
Q 1363 391 1709 391 
Q 2188 391 2477 730 
Q 2766 1069 2766 1631 
L 2766 1759 
L 2194 1759 
z
M 3341 1997 
L 3341 0 
L 2766 0 
L 2766 531 
Q 2569 213 2275 61 
Q 1981 -91 1556 -91 
Q 1019 -91 701 211 
Q 384 513 384 1019 
Q 384 1609 779 1909 
Q 1175 2209 1959 2209 
L 2766 2209 
L 2766 2266 
Q 2766 2663 2505 2880 
Q 2244 3097 1772 3097 
Q 1472 3097 1187 3025 
Q 903 2953 641 2809 
L 641 3341 
Q 956 3463 1253 3523 
Q 1550 3584 1831 3584 
Q 2591 3584 2966 3190 
Q 3341 2797 3341 1997 
z
" transform="scale(0.015625)"/>
       <path id="DejaVuSans-69" d="M 603 3500 
L 1178 3500 
L 1178 0 
L 603 0 
L 603 3500 
z
M 603 4863 
L 1178 4863 
L 1178 4134 
L 603 4134 
L 603 4863 
z
" transform="scale(0.015625)"/>
       <path id="DejaVuSans-6e" d="M 3513 2113 
L 3513 0 
L 2938 0 
L 2938 2094 
Q 2938 2591 2744 2837 
Q 2550 3084 2163 3084 
Q 1697 3084 1428 2787 
Q 1159 2491 1159 1978 
L 1159 0 
L 581 0 
L 581 3500 
L 1159 3500 
L 1159 2956 
Q 1366 3272 1645 3428 
Q 1925 3584 2291 3584 
Q 2894 3584 3203 3211 
Q 3513 2838 3513 2113 
z
" transform="scale(0.015625)"/>
      </defs>
      <use xlink:href="#DejaVuSans-74"/>
      <use xlink:href="#DejaVuSans-72" transform="translate(39.208984 0)"/>
      <use xlink:href="#DejaVuSans-61" transform="translate(80.322266 0)"/>
      <use xlink:href="#DejaVuSans-69" transform="translate(141.601562 0)"/>
      <use xlink:href="#DejaVuSans-6e" transform="translate(169.384766 0)"/>
     </g>
    </g>
    <g id="line2d_17">
     <path d="M 852.745455 143.439375 
L 884.745455 143.439375 
L 916.745455 143.439375 
" style="fill: none; stroke: #dd8452; stroke-width: 6; stroke-linecap: round"/>
    </g>
    <g id="text_16">
     <!-- val -->
     <g style="fill: #262626" transform="translate(942.345455 154.639375) scale(0.32 -0.32)">
      <defs>
       <path id="DejaVuSans-76" d="M 191 3500 
L 800 3500 
L 1894 563 
L 2988 3500 
L 3597 3500 
L 2284 0 
L 1503 0 
L 191 3500 
z
" transform="scale(0.015625)"/>
       <path id="DejaVuSans-6c" d="M 603 4863 
L 1178 4863 
L 1178 0 
L 603 0 
L 603 4863 
z
" transform="scale(0.015625)"/>
      </defs>
      <use xlink:href="#DejaVuSans-76"/>
      <use xlink:href="#DejaVuSans-61" transform="translate(59.179688 0)"/>
      <use xlink:href="#DejaVuSans-6c" transform="translate(120.458984 0)"/>
     </g>
    </g>
   </g>
  </g>
 </g>
 <defs>
  <clipPath id="pe5dba893b2">
   <rect x="75.03" y="54.554375" width="970.595455" height="555.34"/>
  </clipPath>
 </defs>
</svg>
