<?xml version="1.0" encoding="utf-8" standalone="no"?>
<!DOCTYPE svg PUBLIC "-//W3C//DTD SVG 1.1//EN"
  "http://www.w3.org/Graphics/SVG/1.1/DTD/svg11.dtd">
<svg xmlns:xlink="http://www.w3.org/1999/xlink" width="1052.845455pt" height="695.534375pt" viewBox="0 0 1052.845455 695.534375" xmlns="http://www.w3.org/2000/svg" version="1.1">
 <metadata>
  <rdf:RDF xmlns:dc="http://purl.org/dc/elements/1.1/" xmlns:cc="http://creativecommons.org/ns#" xmlns:rdf="http://www.w3.org/1999/02/22-rdf-syntax-ns#">
   <cc:Work>
    <dc:type rdf:resource="http://purl.org/dc/dcmitype/StillImage"/>
    <dc:date>2026-04-10T17:19:39.193905</dc:date>
    <dc:format>image/svg+xml</dc:format>
    <dc:creator>
     <cc:Agent>
      <dc:title>Matplotlib v3.10.8, https://matplotlib.org/</dc:title>
     </cc:Agent>
    </dc:creator>
   </cc:Work>
  </rdf:RDF>
 </metadata>
 <defs>
  <style type="text/css">*{stroke-linejoin: round; stroke-linecap: butt}</style>
 </defs>
 <g id="figure_1">
  <g id="patch_1">
   <path d="M 0 695.534375 
L 1052.845455 695.534375 
L 1052.845455 0 
L 0 0 
z
" style="fill: #ffffff"/>
  </g>
  <g id="axes_1">
   <g id="patch_2">
    <path d="M 95.39 609.894375 
L 1045.645455 609.894375 
L 1045.645455 54.554375 
L 95.39 54.554375 
z
" style="fill: #ffffff"/>
   </g>
   <g id="matplotlib.axis_1">
    <g id="xtick_1">
     <g id="line2d_1">
      <path d="M 137.718696 609.894375 
L 137.718696 54.554375 
" clip-path="url(#p64c9e56ae2)" style="fill: none; stroke: #cccccc; stroke-opacity: 0.3; stroke-width: 1.5; stroke-linecap: round"/>
     </g>
     <g id="text_1">
      <!-- 0 -->
      <g style="fill: #262626" transform="translate(127.538696 646.709375) scale(0.32 -0.32)">
       <defs>
        <path id="DejaVuSans-30" d="M 2034 4250 
Q 1547 4250 1301 3770 
Q 1056 3291 1056 2328 
Q 1056 1369 1301 889 
Q 1547 409 2034 409 
Q 2525 409 2770 889 
Q 3016 1369 3016 2328 
Q 3016 3291 2770 3770 
Q 2525 4250 2034 4250 
z
M 2034 4750 
Q 2819 4750 3233 4129 
Q 3647 3509 3647 2328 
Q 3647 1150 3233 529 
Q 2819 -91 2034 -91 
Q 1250 -91 836 529 
Q 422 1150 422 2328 
Q 422 3509 836 4129 
Q 1250 4750 2034 4750 
z
" transform="scale(0.015625)"/>
       </defs>
       <use xlink:href="#DejaVuSans-30"/>
      </g>
     </g>
    </g>
    <g id="xtick_2">
     <g id="line2d_2">
      <path d="M 310.665362 609.894375 
L 310.665362 54.554375 
" clip-path="url(#p64c9e56ae2)" style="fill: none; stroke: #cccccc; stroke-opacity: 0.3; stroke-width: 1.5; stroke-linecap: round"/>
     </g>
     <g id="text_2">
      <!-- 200 -->
      <g style="fill: #262626" transform="translate(280.125362 646.709375) scale(0.32 -0.32)">
       <defs>
        <path id="DejaVuSans-32" d="M 1228 531 
L 3431 531 
L 3431 0 
L 469 0 
L 469 531 
Q 828 903 1448 1529 
Q 2069 2156 2228 2338 
Q 2531 2678 2651 2914 
Q 2772 3150 2772 3378 
Q 2772 3750 2511 3984 
Q 2250 4219 1831 4219 
Q 1534 4219 1204 4116 
Q 875 4013 500 3803 
L 500 4441 
Q 881 4594 1212 4672 
Q 1544 4750 1819 4750 
Q 2544 4750 2975 4387 
Q 3406 4025 3406 3419 
Q 3406 3131 3298 2873 
Q 3191 2616 2906 2266 
Q 2828 2175 2409 1742 
Q 1991 1309 1228 531 
z
" transform="scale(0.015625)"/>
       </defs>
       <use xlink:href="#DejaVuSans-32"/>
       <use xlink:href="#DejaVuSans-30" transform="translate(63.623047 0)"/>
       <use xlink:href="#DejaVuSans-30" transform="translate(127.246094 0)"/>
      </g>
     </g>
    </g>
    <g id="xtick_3">
     <g id="line2d_3">
      <path d="M 483.612028 609.894375 
L 483.612028 54.554375 
" clip-path="url(#p64c9e56ae2)" style="fill: none; stroke: #cccccc; stroke-opacity: 0.3; stroke-width: 1.5; stroke-linecap: round"/>
     </g>
     <g id="text_3">
      <!-- 400 -->
      <g style="fill: #262626" transform="translate(453.072028 646.709375) scale(0.32 -0.32)">
       <defs>
        <path id="DejaVuSans-34" d="M 2419 4116 
L 825 1625 
L 2419 1625 
L 2419 4116 
z
M 2253 4666 
L 3047 4666 
L 3047 1625 
L 3713 1625 
L 3713 1100 
L 3047 1100 
L 3047 0 
L 2419 0 
L 2419 1100 
L 313 1100 
L 313 1709 
L 2253 4666 
z
" transform="scale(0.015625)"/>
       </defs>
       <use xlink:href="#DejaVuSans-34"/>
       <use xlink:href="#DejaVuSans-30" transform="translate(63.623047 0)"/>
       <use xlink:href="#DejaVuSans-30" transform="translate(127.246094 0)"/>
      </g>
     </g>
    </g>
    <g id="xtick_4">
     <g id="line2d_4">
      <path d="M 656.558693 609.894375 
L 656.558693 54.554375 
" clip-path="url(#p64c9e56ae2)" style="fill: none; stroke: #cccccc; stroke-opacity: 0.3; stroke-width: 1.5; stroke-linecap: round"/>
     </g>
     <g id="text_4">
      <!-- 600 -->
      <g style="fill: #262626" transform="translate(626.018693 646.709375) scale(0.32 -0.32)">
       <defs>
        <path id="DejaVuSans-36" d="M 2113 2584 
Q 1688 2584 1439 2293 
Q 1191 2003 1191 1497 
Q 1191 994 1439 701 
Q 1688 409 2113 409 
Q 2538 409 2786 701 
Q 3034 994 3034 1497 
Q 3034 2003 2786 2293 
Q 2538 2584 2113 2584 
z
M 3366 4563 
L 3366 3988 
Q 3128 4100 2886 4159 
Q 2644 4219 2406 4219 
Q 1781 4219 1451 3797 
Q 1122 3375 1075 2522 
Q 1259 2794 1537 2939 
Q 1816 3084 2150 3084 
Q 2853 3084 3261 2657 
Q 3669 2231 3669 1497 
Q 3669 778 3244 343 
Q 2819 -91 2113 -91 
Q 1303 -91 875 529 
Q 447 1150 447 2328 
Q 447 3434 972 4092 
Q 1497 4750 2381 4750 
Q 2619 4750 2861 4703 
Q 3103 4656 3366 4563 
z
" transform="scale(0.015625)"/>
       </defs>
       <use xlink:href="#DejaVuSans-36"/>
       <use xlink:href="#DejaVuSans-30" transform="translate(63.623047 0)"/>
       <use xlink:href="#DejaVuSans-30" transform="translate(127.246094 0)"/>
      </g>
     </g>
    </g>
    <g id="xtick_5">
     <g id="line2d_5">
      <path d="M 829.505359 609.894375 
L 829.505359 54.554375 
" clip-path="url(#p64c9e56ae2)" style="fill: none; stroke: #cccccc; stroke-opacity: 0.3; stroke-width: 1.5; stroke-linecap: round"/>
     </g>
     <g id="text_5">
      <!-- 800 -->
      <g style="fill: #262626" transform="translate(798.965359 646.709375) scale(0.32 -0.32)">
       <defs>
        <path id="DejaVuSans-38" d="M 2034 2216 
Q 1584 2216 1326 1975 
Q 1069 1734 1069 1313 
Q 1069 891 1326 650 
Q 1584 409 2034 409 
Q 2484 409 2743 651 
Q 3003 894 3003 1313 
Q 3003 1734 2745 1975 
Q 2488 2216 2034 2216 
z
M 1403 2484 
Q 997 2584 770 2862 
Q 544 3141 544 3541 
Q 544 4100 942 4425 
Q 1341 4750 2034 4750 
Q 2731 4750 3128 4425 
Q 3525 4100 3525 3541 
Q 3525 3141 3298 2862 
Q 3072 2584 2669 2484 
Q 3125 2378 3379 2068 
Q 3634 1759 3634 1313 
Q 3634 634 3220 271 
Q 2806 -91 2034 -91 
Q 1263 -91 848 271 
Q 434 634 434 1313 
Q 434 1759 690 2068 
Q 947 2378 1403 2484 
z
M 1172 3481 
Q 1172 3119 1398 2916 
Q 1625 2713 2034 2713 
Q 2441 2713 2670 2916 
Q 2900 3119 2900 3481 
Q 2900 3844 2670 4047 
Q 2441 4250 2034 4250 
Q 1625 4250 1398 4047 
Q 1172 3844 1172 3481 
z
" transform="scale(0.015625)"/>
       </defs>
       <use xlink:href="#DejaVuSans-38"/>
       <use xlink:href="#DejaVuSans-30" transform="translate(63.623047 0)"/>
       <use xlink:href="#DejaVuSans-30" transform="translate(127.246094 0)"/>
      </g>
     </g>
    </g>
    <g id="xtick_6">
     <g id="line2d_6">
      <path d="M 1002.452025 609.894375 
L 1002.452025 54.554375 
" clip-path="url(#p64c9e56ae2)" style="fill: none; stroke: #cccccc; stroke-opacity: 0.3; stroke-width: 1.5; stroke-linecap: round"/>
     </g>
     <g id="text_6">
      <!-- 1000 -->
      <g style="fill: #262626" transform="translate(961.732025 646.709375) scale(0.32 -0.32)">
       <defs>
        <path id="DejaVuSans-31" d="M 794 531 
L 1825 531 
L 1825 4091 
L 703 3866 
L 703 4441 
L 1819 4666 
L 2450 4666 
L 2450 531 
L 3481 531 
L 3481 0 
L 794 0 
L 794 531 
z
" transform="scale(0.015625)"/>
       </defs>
       <use xlink:href="#DejaVuSans-31"/>
       <use xlink:href="#DejaVuSans-30" transform="translate(63.623047 0)"/>
       <use xlink:href="#DejaVuSans-30" transform="translate(127.246094 0)"/>
       <use xlink:href="#DejaVuSans-30" transform="translate(190.869141 0)"/>
      </g>
     </g>
    </g>
    <g id="text_7">
     <!-- Epoch -->
     <g style="fill: #262626" transform="translate(521.522727 681.679375) scale(0.32 -0.32)">
      <defs>
       <path id="DejaVuSans-45" d="M 628 4666 
L 3578 4666 
L 3578 4134 
L 1259 4134 
L 1259 2753 
L 3481 2753 
L 3481 2222 
L 1259 2222 
L 1259 531 
L 3634 531 
L 3634 0 
L 628 0 
L 628 4666 
z
" transform="scale(0.015625)"/>
       <path id="DejaVuSans-70" d="M 1159 525 
L 1159 -1331 
L 581 -1331 
L 581 3500 
L 1159 3500 
L 1159 2969 
Q 1341 3281 1617 3432 
Q 1894 3584 2278 3584 
Q 2916 3584 3314 3078 
Q 3713 2572 3713 1747 
Q 3713 922 3314 415 
Q 2916 -91 2278 -91 
Q 1894 -91 1617 61 
Q 1341 213 1159 525 
z
M 3116 1747 
Q 3116 2381 2855 2742 
Q 2594 3103 2138 3103 
Q 1681 3103 1420 2742 
Q 1159 2381 1159 1747 
Q 1159 1113 1420 752 
Q 1681 391 2138 391 
Q 2594 391 2855 752 
Q 3116 1113 3116 1747 
z
" transform="scale(0.015625)"/>
       <path id="DejaVuSans-6f" d="M 1959 3097 
Q 1497 3097 1228 2736 
Q 959 2375 959 1747 
Q 959 1119 1226 758 
Q 1494 397 1959 397 
Q 2419 397 2687 759 
Q 2956 1122 2956 1747 
Q 2956 2369 2687 2733 
Q 2419 3097 1959 3097 
z
M 1959 3584 
Q 2709 3584 3137 3096 
Q 3566 2609 3566 1747 
Q 3566 888 3137 398 
Q 2709 -91 1959 -91 
Q 1206 -91 779 398 
Q 353 888 353 1747 
Q 353 2609 779 3096 
Q 1206 3584 1959 3584 
z
" transform="scale(0.015625)"/>
       <path id="DejaVuSans-63" d="M 3122 3366 
L 3122 2828 
Q 2878 2963 2633 3030 
Q 2388 3097 2138 3097 
Q 1578 3097 1268 2742 
Q 959 2388 959 1747 
Q 959 1106 1268 751 
Q 1578 397 2138 397 
Q 2388 397 2633 464 
Q 2878 531 3122 666 
L 3122 134 
Q 2881 22 2623 -34 
Q 2366 -91 2075 -91 
Q 1284 -91 818 406 
Q 353 903 353 1747 
Q 353 2603 823 3093 
Q 1294 3584 2113 3584 
Q 2378 3584 2631 3529 
Q 2884 3475 3122 3366 
z
" transform="scale(0.015625)"/>
       <path id="DejaVuSans-68" d="M 3513 2113 
L 3513 0 
L 2938 0 
L 2938 2094 
Q 2938 2591 2744 2837 
Q 2550 3084 2163 3084 
Q 1697 3084 1428 2787 
Q 1159 2491 1159 1978 
L 1159 0 
L 581 0 
L 581 4863 
L 1159 4863 
L 1159 2956 
Q 1366 3272 1645 3428 
Q 1925 3584 2291 3584 
Q 2894 3584 3203 3211 
Q 3513 2838 3513 2113 
z
" transform="scale(0.015625)"/>
      </defs>
      <use xlink:href="#DejaVuSans-45"/>
      <use xlink:href="#DejaVuSans-70" transform="translate(63.183594 0)"/>
      <use xlink:href="#DejaVuSans-6f" transform="translate(126.660156 0)"/>
      <use xlink:href="#DejaVuSans-63" transform="translate(187.841797 0)"/>
      <use xlink:href="#DejaVuSans-68" transform="translate(242.822266 0)"/>
     </g>
    </g>
   </g>
   <g id="matplotlib.axis_2">
    <g id="ytick_1">
     <g id="line2d_7">
      <path d="M 95.39 598.724248 
L 1045.645455 598.724248 
" clip-path="url(#p64c9e56ae2)" style="fill: none; stroke: #cccccc; stroke-opacity: 0.3; stroke-width: 1.5; stroke-linecap: round"/>
     </g>
     <g id="text_8">
      <!-- 0 -->
      <g style="fill: #262626" transform="translate(62.53 610.881748) scale(0.32 -0.32)">
       <use xlink:href="#DejaVuSans-30"/>
      </g>
     </g>
    </g>
    <g id="ytick_2">
     <g id="line2d_8">
      <path d="M 95.39 487.409979 
L 1045.645455 487.409979 
" clip-path="url(#p64c9e56ae2)" style="fill: none; stroke: #cccccc; stroke-opacity: 0.3; stroke-width: 1.5; stroke-linecap: round"/>
     </g>
     <g id="text_9">
      <!-- 5 -->
      <g style="fill: #262626" transform="translate(62.53 499.567479) scale(0.32 -0.32)">
       <defs>
        <path id="DejaVuSans-35" d="M 691 4666 
L 3169 4666 
L 3169 4134 
L 1269 4134 
L 1269 2991 
Q 1406 3038 1543 3061 
Q 1681 3084 1819 3084 
Q 2600 3084 3056 2656 
Q 3513 2228 3513 1497 
Q 3513 744 3044 326 
Q 2575 -91 1722 -91 
Q 1428 -91 1123 -41 
Q 819 9 494 109 
L 494 744 
Q 775 591 1075 516 
Q 1375 441 1709 441 
Q 2250 441 2565 725 
Q 2881 1009 2881 1497 
Q 2881 1984 2565 2268 
Q 2250 2553 1709 2553 
Q 1456 2553 1204 2497 
Q 953 2441 691 2322 
L 691 4666 
z
" transform="scale(0.015625)"/>
       </defs>
       <use xlink:href="#DejaVuSans-35"/>
      </g>
     </g>
    </g>
    <g id="ytick_3">
     <g id="line2d_9">
      <path d="M 95.39 376.09571 
L 1045.645455 376.09571 
" clip-path="url(#p64c9e56ae2)" style="fill: none; stroke: #cccccc; stroke-opacity: 0.3; stroke-width: 1.5; stroke-linecap: round"/>
     </g>
     <g id="text_10">
      <!-- 10 -->
      <g style="fill: #262626" transform="translate(42.17 388.25321) scale(0.32 -0.32)">
       <use xlink:href="#DejaVuSans-31"/>
       <use xlink:href="#DejaVuSans-30" transform="translate(63.623047 0)"/>
      </g>
     </g>
    </g>
    <g id="ytick_4">
     <g id="line2d_10">
      <path d="M 95.39 264.78144 
L 1045.645455 264.78144 
" clip-path="url(#p64c9e56ae2)" style="fill: none; stroke: #cccccc; stroke-opacity: 0.3; stroke-width: 1.5; stroke-linecap: round"/>
     </g>
     <g id="text_11">
      <!-- 15 -->
      <g style="fill: #262626" transform="translate(42.17 276.93894) scale(0.32 -0.32)">
       <use xlink:href="#DejaVuSans-31"/>
       <use xlink:href="#DejaVuSans-35" transform="translate(63.623047 0)"/>
      </g>
     </g>
    </g>
    <g id="ytick_5">
     <g id="line2d_11">
      <path d="M 95.39 153.467171 
L 1045.645455 153.467171 
" clip-path="url(#p64c9e56ae2)" style="fill: none; stroke: #cccccc; stroke-opacity: 0.3; stroke-width: 1.5; stroke-linecap: round"/>
     </g>
     <g id="text_12">
      <!-- 20 -->
      <g style="fill: #262626" transform="translate(42.17 165.624671) scale(0.32 -0.32)">
       <use xlink:href="#DejaVuSans-32"/>
       <use xlink:href="#DejaVuSans-30" transform="translate(63.623047 0)"/>
      </g>
     </g>
    </g>
    <g id="text_13">
     <!-- Accuracy (%) -->
     <g style="fill: #262626" transform="translate(31.515 438.046875) rotate(-90) scale(0.32 -0.32)">
      <defs>
       <path id="DejaVuSans-41" d="M 2188 4044 
L 1331 1722 
L 3047 1722 
L 2188 4044 
z
M 1831 4666 
L 2547 4666 
L 4325 0 
L 3669 0 
L 3244 1197 
L 1141 1197 
L 716 0 
L 50 0 
L 1831 4666 
z
" transform="scale(0.015625)"/>
       <path id="DejaVuSans-75" d="M 544 1381 
L 544 3500 
L 1119 3500 
L 1119 1403 
Q 1119 906 1312 657 
Q 1506 409 1894 409 
Q 2359 409 2629 706 
Q 2900 1003 2900 1516 
L 2900 3500 
L 3475 3500 
L 3475 0 
L 2900 0 
L 2900 538 
Q 2691 219 2414 64 
Q 2138 -91 1772 -91 
Q 1169 -91 856 284 
Q 544 659 544 1381 
z
M 1991 3584 
L 1991 3584 
z
" transform="scale(0.015625)"/>
       <path id="DejaVuSans-72" d="M 2631 2963 
Q 2534 3019 2420 3045 
Q 2306 3072 2169 3072 
Q 1681 3072 1420 2755 
Q 1159 2438 1159 1844 
L 1159 0 
L 581 0 
L 581 3500 
L 1159 3500 
L 1159 2956 
Q 1341 3275 1631 3429 
Q 1922 3584 2338 3584 
Q 2397 3584 2469 3576 
Q 2541 3569 2628 3553 
L 2631 2963 
z
" transform="scale(0.015625)"/>
       <path id="DejaVuSans-61" d="M 2194 1759 
Q 1497 1759 1228 1600 
Q 959 1441 959 1056 
Q 959 750 1161 570 
Q 1363 391 1709 391 
Q 2188 391 2477 730 
Q 2766 1069 2766 1631 
L 2766 1759 
L 2194 1759 
z
M 3341 1997 
L 3341 0 
L 2766 0 
L 2766 531 
Q 2569 213 2275 61 
Q 1981 -91 1556 -91 
Q 1019 -91 701 211 
Q 384 513 384 1019 
Q 384 1609 779 1909 
Q 1175 2209 1959 2209 
L 2766 2209 
L 2766 2266 
Q 2766 2663 2505 2880 
Q 2244 3097 1772 3097 
Q 1472 3097 1187 3025 
Q 903 2953 641 2809 
L 641 3341 
Q 956 3463 1253 3523 
Q 1550 3584 1831 3584 
Q 2591 3584 2966 3190 
Q 3341 2797 3341 1997 
z
" transform="scale(0.015625)"/>
       <path id="DejaVuSans-79" d="M 2059 -325 
Q 1816 -950 1584 -1140 
Q 1353 -1331 966 -1331 
L 506 -1331 
L 506 -850 
L 844 -850 
Q 1081 -850 1212 -737 
Q 1344 -625 1503 -206 
L 1606 56 
L 191 3500 
L 800 3500 
L 1894 763 
L 2988 3500 
L 3597 3500 
L 2059 -325 
z
" transform="scale(0.015625)"/>
       <path id="DejaVuSans-20" transform="scale(0.015625)"/>
       <path id="DejaVuSans-28" d="M 1984 4856 
Q 1566 4138 1362 3434 
Q 1159 2731 1159 2009 
Q 1159 1288 1364 580 
Q 1569 -128 1984 -844 
L 1484 -844 
Q 1016 -109 783 600 
Q 550 1309 550 2009 
Q 550 2706 781 3412 
Q 1013 4119 1484 4856 
L 1984 4856 
z
" transform="scale(0.015625)"/>
       <path id="DejaVuSans-25" d="M 4653 2053 
Q 4381 2053 4226 1822 
Q 4072 1591 4072 1178 
Q 4072 772 4226 539 
Q 4381 306 4653 306 
Q 4919 306 5073 539 
Q 5228 772 5228 1178 
Q 5228 1588 5073 1820 
Q 4919 2053 4653 2053 
z
M 4653 2450 
Q 5147 2450 5437 2106 
Q 5728 1763 5728 1178 
Q 5728 594 5436 251 
Q 5144 -91 4653 -91 
Q 4153 -91 3862 251 
Q 3572 594 3572 1178 
Q 3572 1766 3864 2108 
Q 4156 2450 4653 2450 
z
M 1428 4353 
Q 1159 4353 1004 4120 
Q 850 3888 850 3481 
Q 850 3069 1003 2837 
Q 1156 2606 1428 2606 
Q 1700 2606 1854 2837 
Q 2009 3069 2009 3481 
Q 2009 3884 1853 4118 
Q 1697 4353 1428 4353 
z
M 4250 4750 
L 4750 4750 
L 1831 -91 
L 1331 -91 
L 4250 4750 
z
M 1428 4750 
Q 1922 4750 2215 4408 
Q 2509 4066 2509 3481 
Q 2509 2891 2217 2550 
Q 1925 2209 1428 2209 
Q 931 2209 642 2551 
Q 353 2894 353 3481 
Q 353 4063 643 4406 
Q 934 4750 1428 4750 
z
" transform="scale(0.015625)"/>
       <path id="DejaVuSans-29" d="M 513 4856 
L 1013 4856 
Q 1481 4119 1714 3412 
Q 1947 2706 1947 2009 
Q 1947 1309 1714 600 
Q 1481 -109 1013 -844 
L 513 -844 
Q 928 -128 1133 580 
Q 1338 1288 1338 2009 
Q 1338 2731 1133 3434 
Q 928 4138 513 4856 
z
" transform="scale(0.015625)"/>
      </defs>
      <use xlink:href="#DejaVuSans-41"/>
      <use xlink:href="#DejaVuSans-63" transform="translate(66.658203 0)"/>
      <use xlink:href="#DejaVuSans-63" transform="translate(121.638672 0)"/>
      <use xlink:href="#DejaVuSans-75" transform="translate(176.619141 0)"/>
      <use xlink:href="#DejaVuSans-72" transform="translate(239.998047 0)"/>
      <use xlink:href="#DejaVuSans-61" transform="translate(281.111328 0)"/>
      <use xlink:href="#DejaVuSans-63" transform="translate(342.390625 0)"/>
      <use xlink:href="#DejaVuSans-79" transform="translate(397.371094 0)"/>
      <use xlink:href="#DejaVuSans-20" transform="translate(456.550781 0)"/>
      <use xlink:href="#DejaVuSans-28" transform="translate(488.337891 0)"/>
      <use xlink:href="#DejaVuSans-25" transform="translate(527.351562 0)"/>
      <use xlink:href="#DejaVuSans-29" transform="translate(622.371094 0)"/>
     </g>
    </g>
   </g>
   <g id="FillBetweenPolyCollection_1"/>
   <g id="FillBetweenPolyCollection_2"/>
   <g id="line2d_12">
    <path d="M 138.58343 584.651648 
L 139.448163 576.559902 
L 140.312896 572.338123 
L 141.17763 571.634492 
L 142.042363 560.728227 
L 142.907096 561.080044 
L 143.77183 558.617338 
L 144.636563 558.617338 
L 145.501296 558.265521 
L 146.36603 558.617338 
L 147.230763 566.357267 
L 148.095496 560.728227 
L 148.96023 557.913708 
L 149.824963 559.672784 
L 150.689696 558.265521 
L 152.419163 559.672784 
L 153.283896 555.802819 
L 154.14863 551.229223 
L 155.013363 555.099189 
L 155.878096 554.747372 
L 156.74283 549.82196 
L 157.607563 550.525594 
L 158.472296 550.173777 
L 159.33703 551.932853 
L 160.201763 552.636483 
L 161.066496 548.062888 
L 161.93123 549.11833 
L 163.660696 546.303811 
L 164.52543 547.007441 
L 165.390163 551.229223 
L 167.11963 544.192922 
L 167.984363 546.655628 
L 168.849096 547.359258 
L 169.71383 544.896552 
L 170.578563 545.951998 
L 171.443296 545.951998 
L 172.30803 542.433846 
L 173.172763 547.359258 
L 174.037496 547.359258 
L 175.766963 541.730216 
L 176.631696 540.674774 
L 177.49643 537.156621 
L 178.361163 534.693915 
L 179.225896 536.452991 
L 180.09063 539.619327 
L 181.820096 536.804808 
L 182.684829 530.472136 
L 183.549563 535.045732 
L 184.414296 532.934842 
L 185.279029 532.583025 
L 186.143763 528.00943 
L 187.008496 526.953984 
L 187.873229 524.139465 
L 188.737963 526.250358 
L 189.602696 532.934842 
L 190.467429 524.139465 
L 191.332163 522.732205 
L 192.196896 523.435839 
L 193.061629 520.62132 
L 193.926363 515.695908 
L 194.791096 517.103167 
L 195.655829 518.158614 
L 196.520563 517.103167 
L 197.385296 516.751355 
L 198.250029 512.529568 
L 199.114763 507.604164 
L 201.708963 511.825942 
L 202.573696 504.789637 
L 203.438429 508.659602 
L 204.303163 500.216046 
L 205.167896 501.623305 
L 206.032629 514.288649 
L 206.897363 503.030565 
L 207.762096 500.216046 
L 208.626829 503.734199 
L 209.491563 498.808786 
L 210.356296 490.717042 
L 211.221029 498.808786 
L 212.085763 503.734199 
L 213.815229 488.606149 
L 214.679963 492.124302 
L 215.544696 493.531561 
L 216.409429 483.680737 
L 217.274163 486.495264 
L 218.138896 488.254336 
L 219.003629 488.957962 
L 219.868363 485.79163 
L 220.733096 484.384371 
L 221.597829 482.625299 
L 222.462563 485.439818 
L 223.327296 474.181734 
L 224.192029 477.699886 
L 225.056763 475.940806 
L 225.921496 471.015402 
L 226.786229 473.829921 
L 227.650963 466.793615 
L 228.515696 478.051699 
L 229.380429 471.367215 
L 230.245163 471.015402 
L 231.109896 469.959955 
L 231.974629 469.959955 
L 232.839363 470.663581 
L 233.704096 465.034543 
L 234.568829 474.181734 
L 235.433563 474.533546 
L 236.298296 464.68273 
L 237.163029 468.552696 
L 238.027763 462.220024 
L 238.892496 460.460952 
L 239.757229 463.979096 
L 240.621962 459.053693 
L 241.486696 453.424655 
L 242.351429 461.164578 
L 243.216162 457.646425 
L 244.080896 452.721013 
L 244.945629 450.961949 
L 245.810362 454.831906 
L 246.675096 449.202868 
L 247.539829 452.721013 
L 248.404562 454.12828 
L 249.269296 455.183719 
L 250.134029 456.942799 
L 250.998762 452.017387 
L 251.863496 441.81475 
L 252.728229 451.665574 
L 255.322429 441.111124 
L 256.187162 448.851055 
L 257.051896 448.851055 
L 257.916629 443.57383 
L 258.781362 447.443788 
L 259.646096 444.981082 
L 261.375562 441.462937 
L 262.240296 438.648418 
L 263.105029 439.000231 
L 263.969762 440.055686 
L 264.834496 441.81475 
L 265.699229 432.315755 
L 266.563962 440.055686 
L 267.428696 442.166563 
L 268.293429 433.01938 
L 269.158162 428.093968 
L 270.022896 431.612113 
L 270.887629 427.742155 
L 271.752362 422.46493 
L 272.617096 420.354037 
L 273.481829 423.520369 
L 274.346562 424.224011 
L 275.211296 437.944793 
L 276.940762 437.24115 
L 278.670229 416.13225 
L 279.534962 420.354037 
L 280.399696 427.742155 
L 281.264429 416.835893 
L 282.129162 417.187705 
L 282.993896 414.021374 
L 283.858629 434.074819 
L 284.723362 422.113118 
L 285.588096 424.224011 
L 286.452829 419.298599 
L 287.317562 411.206855 
L 288.182296 415.780438 
L 289.047029 400.300576 
L 289.911762 411.558668 
L 290.776496 412.614106 
L 291.641229 422.46493 
L 292.505962 421.057663 
L 294.235429 404.874175 
L 295.100162 402.411469 
L 295.964896 406.633255 
L 296.829629 400.652405 
L 297.694362 414.373187 
L 298.559096 412.614106 
L 299.423829 402.411469 
L 300.288562 405.92963 
L 301.153295 412.614106 
L 302.018029 402.411469 
L 302.882762 396.782431 
L 303.747495 401.004218 
L 304.612229 402.411469 
L 305.476962 415.428625 
L 306.341695 406.985068 
L 307.206429 396.782431 
L 308.071162 394.671538 
L 308.935895 400.300576 
L 309.800629 410.503213 
L 310.665362 389.746126 
L 311.530095 402.411469 
L 312.394829 389.746126 
L 313.259562 393.967912 
L 314.124295 402.059656 
L 314.989029 401.004218 
L 317.583229 391.153393 
L 318.447962 390.80158 
L 319.312695 397.134244 
L 320.177429 397.134244 
L 321.042162 395.023351 
L 321.906895 386.227981 
L 322.771629 383.765275 
L 323.636362 385.172543 
L 324.501095 382.358024 
L 325.365829 389.394313 
L 326.230562 381.302569 
L 327.095295 389.394313 
L 327.960029 391.153393 
L 328.824762 390.449768 
L 329.689495 379.895318 
L 330.554229 384.468901 
L 331.418962 370.748119 
L 332.283695 379.895318 
L 333.148429 372.507199 
L 334.013162 378.48805 
L 334.877895 379.191676 
L 335.742629 372.507199 
L 336.607362 379.543505 
L 337.472095 378.839863 
L 338.336829 369.340868 
L 339.201562 370.044493 
L 340.066295 371.803574 
L 340.931029 372.507199 
L 341.795762 379.191676 
L 342.660495 380.950756 
L 343.525229 368.285413 
L 344.389962 387.283419 
L 345.254695 379.543505 
L 346.119429 378.136237 
L 346.984162 360.193669 
L 347.848895 368.989038 
L 348.713629 364.767268 
L 349.578362 363.360001 
L 350.443095 367.229974 
L 351.307829 370.396306 
L 352.172562 365.470894 
L 353.037295 361.249124 
L 353.902029 364.767268 
L 354.766762 359.490043 
L 356.496229 363.711813 
L 357.360962 363.711813 
L 358.225695 358.082776 
L 359.090428 358.786418 
L 359.955162 362.656375 
L 360.819895 367.229974 
L 361.684628 356.675524 
L 362.549362 357.730963 
L 363.414095 352.453738 
L 364.278828 356.323712 
L 365.143562 352.101925 
L 366.008295 353.157363 
L 366.873028 363.360001 
L 367.737762 346.8247 
L 368.602495 346.8247 
L 369.467228 355.268257 
L 370.331962 357.730963 
L 371.196695 352.453738 
L 372.061428 338.732956 
L 372.926162 356.675524 
L 373.790895 352.101925 
L 374.655628 357.37915 
L 375.520362 356.675524 
L 376.385095 353.157363 
L 377.249828 373.210825 
L 378.114562 366.526349 
L 378.979295 348.583781 
L 379.844028 342.602913 
L 380.708762 338.029331 
L 381.573495 342.954743 
L 382.438228 346.121074 
L 383.302962 335.918437 
L 384.167695 359.841856 
L 385.032428 368.637226 
L 385.897162 360.193669 
L 386.761895 354.916444 
L 387.626628 336.973876 
L 388.491362 324.660362 
L 390.220828 344.713807 
L 391.085562 333.103918 
L 391.950295 345.417449 
L 392.815028 346.472887 
L 393.679762 342.251101 
L 394.544495 332.048463 
L 395.409228 328.178506 
L 396.273962 341.195662 
L 397.138695 334.159357 
L 398.003428 332.048463 
L 398.868162 326.067613 
L 399.732895 329.585757 
L 400.597628 332.400293 
L 401.462362 321.494013 
L 402.327095 330.993025 
L 403.191828 322.197656 
L 404.056562 337.677518 
L 404.921295 340.843849 
L 405.786028 330.993025 
L 406.650762 339.436582 
L 407.515495 332.400293 
L 408.380228 321.142201 
L 409.244962 323.95672 
L 410.109695 324.660362 
L 411.839162 338.732956 
L 412.703895 340.492037 
L 413.568628 327.474881 
L 414.433362 329.937587 
L 415.298095 328.882132 
L 417.027561 317.62404 
L 417.892295 319.031324 
L 418.757028 315.16135 
L 419.621761 312.346815 
L 420.486495 323.604907 
L 421.351228 325.7158 
L 422.215961 316.216788 
L 423.080695 309.1805 
L 423.945428 332.048463 
L 424.810161 327.123068 
L 425.674895 333.807544 
L 426.539628 311.291376 
L 427.404361 313.050473 
L 428.269095 310.939563 
L 429.133828 313.754099 
L 429.998561 309.532312 
L 430.863295 324.308532 
L 431.728028 315.864976 
L 432.592761 311.995002 
L 433.457495 324.308532 
L 434.322228 313.050473 
L 435.186961 315.864976 
L 436.916428 305.662338 
L 437.781161 325.363987 
L 438.645895 325.363987 
L 439.510628 328.178506 
L 441.240095 305.310526 
L 442.104828 307.06959 
L 442.969561 322.549468 
L 443.834295 312.346815 
L 444.699028 325.7158 
L 445.563761 321.142201 
L 446.428495 320.790388 
L 447.293228 319.383137 
L 448.157961 315.16135 
L 449.022695 308.476874 
L 449.887428 293.348825 
L 450.752161 313.754099 
L 451.616895 316.920414 
L 452.481628 307.773248 
L 453.346361 303.551462 
L 454.211095 303.551462 
L 455.075828 305.310526 
L 455.940561 297.218798 
L 456.805295 287.719787 
L 457.670028 294.404263 
L 458.534761 290.886102 
L 459.399495 315.513163 
L 460.264228 302.144211 
L 461.128961 297.570611 
L 461.993695 310.939563 
L 462.858428 320.438575 
L 463.723161 309.532312 
L 464.587895 296.163327 
L 465.452628 294.404263 
L 466.317361 284.553439 
L 467.182095 292.293386 
L 468.046828 301.792365 
L 468.911561 301.792365 
L 469.776295 317.272227 
L 470.641028 317.62404 
L 471.505761 305.310526 
L 472.370495 290.182476 
L 473.235228 292.997012 
L 474.099961 284.201626 
L 474.964694 304.6069 
L 475.829428 285.96069 
L 476.694161 288.775225 
L 477.558894 306.365964 
L 478.423628 302.144211 
L 479.288361 305.310526 
L 480.153094 303.551462 
L 481.017828 285.608877 
L 481.882561 285.608877 
L 482.747294 276.813524 
L 483.612028 280.683465 
L 484.476761 281.035277 
L 485.341494 274.702614 
L 486.206228 279.979839 
L 487.070961 281.738936 
L 488.800428 301.440552 
L 489.665161 286.312536 
L 490.529894 281.387123 
L 491.394628 278.924401 
L 492.259361 279.276214 
L 493.124094 278.220775 
L 493.988828 284.553439 
L 494.853561 270.129015 
L 495.718294 285.608877 
L 496.583028 276.813524 
L 497.447761 272.239925 
L 498.312494 307.06959 
L 499.177228 290.886102 
L 500.041961 286.664348 
L 500.906694 288.423412 
L 501.771428 273.647176 
L 502.636161 277.868962 
L 503.500894 261.685475 
L 504.365628 270.129015 
L 505.230361 256.056437 
L 506.095094 279.979839 
L 507.824561 283.498 
L 508.689294 279.979839 
L 509.554028 278.572588 
L 510.418761 270.480827 
L 511.283494 269.777202 
L 512.148228 270.832673 
L 513.012961 271.184486 
L 514.742428 256.056437 
L 515.607161 264.85179 
L 516.471894 276.109898 
L 517.336628 270.480827 
L 519.066094 262.740913 
L 519.930828 262.037287 
L 520.795561 273.998989 
L 521.660294 251.482837 
L 522.525028 292.293386 
L 523.389761 277.868962 
L 524.254494 279.276214 
L 525.119228 278.220775 
L 525.983961 265.907261 
L 526.848694 259.574565 
L 528.578161 277.51715 
L 529.442894 272.239925 
L 530.307628 252.890089 
L 531.172361 260.278223 
L 532.037094 258.167314 
L 532.901827 259.926378 
L 533.766561 271.536299 
L 534.631294 263.092726 
L 535.496027 265.555448 
L 536.360761 274.350801 
L 537.225494 269.425389 
L 538.090227 278.572588 
L 538.954961 271.536299 
L 539.819694 267.314512 
L 540.684427 256.056437 
L 541.549161 254.29734 
L 542.413894 269.425389 
L 543.278627 267.666325 
L 544.143361 258.167314 
L 545.008094 258.870939 
L 545.872827 269.425389 
L 546.737561 263.092726 
L 547.602294 262.740913 
L 548.467027 253.945527 
L 549.331761 273.295363 
L 550.196494 254.29734 
L 551.061227 244.446548 
L 551.925961 259.222752 
L 552.790694 246.909238 
L 553.655427 240.928387 
L 554.520161 260.981849 
L 555.384894 254.29734 
L 556.249627 250.427399 
L 557.114361 253.945527 
L 557.979094 253.593714 
L 558.843827 245.501987 
L 559.708561 251.482837 
L 560.573294 245.501987 
L 561.438027 258.167314 
L 562.302761 231.781189 
L 563.167494 242.335639 
L 564.032227 244.798361 
L 564.896961 271.888112 
L 565.761694 251.482837 
L 566.626427 239.872949 
L 567.491161 238.817478 
L 568.355894 233.18844 
L 569.220627 240.224762 
L 570.085361 257.815501 
L 570.950094 234.595724 
L 571.814827 238.113852 
L 572.679561 240.576575 
L 573.544294 242.687451 
L 574.409027 253.241901 
L 575.273761 258.167314 
L 576.138494 245.150174 
L 577.003227 241.632013 
L 577.867961 253.945527 
L 578.732694 241.632013 
L 579.597427 242.335639 
L 580.462161 249.371928 
L 581.326894 237.762039 
L 582.191627 243.74289 
L 583.056361 251.83465 
L 583.921094 239.521136 
L 584.785827 236.354788 
L 585.650561 229.318499 
L 586.515294 241.632013 
L 588.244761 274.702614 
L 589.109494 240.928387 
L 589.974227 251.131025 
L 590.83896 232.484814 
L 591.703694 224.041274 
L 592.568427 234.595724 
L 593.43316 212.783165 
L 594.297894 218.412236 
L 595.162627 227.911215 
L 596.02736 252.186463 
L 596.892094 247.612864 
L 597.756827 241.2802 
L 598.62156 232.484814 
L 600.351027 238.817478 
L 601.21576 237.410226 
L 602.080494 235.29935 
L 602.945227 230.373937 
L 603.80996 219.467675 
L 604.674694 225.800338 
L 605.539427 215.597701 
L 606.40416 246.557425 
L 607.268894 239.872949 
L 608.133627 239.872949 
L 608.99836 232.836627 
L 609.863094 231.429376 
L 610.727827 239.169324 
L 611.59256 224.393087 
L 612.457294 222.985803 
L 613.322027 231.429376 
L 614.18676 226.855776 
L 615.051494 234.947537 
L 616.78096 240.576575 
L 617.645694 249.020115 
L 618.510427 251.131025 
L 619.37516 211.375914 
L 620.239894 221.226739 
L 621.104627 227.911215 
L 621.96936 221.930364 
L 622.834094 230.373937 
L 623.698827 212.07954 
L 624.56356 219.467675 
L 625.428294 247.964676 
L 626.293027 243.039264 
L 627.15776 242.687451 
L 628.022494 219.115862 
L 628.887227 205.043251 
L 629.75196 197.655149 
L 630.616694 220.1713 
L 631.481427 228.966686 
L 632.34616 228.966686 
L 633.210894 234.595724 
L 634.075627 236.002975 
L 634.94036 203.636 
L 635.805094 209.968663 
L 636.669827 208.913225 
L 637.53456 212.783165 
L 638.399294 236.706601 
L 639.264027 228.263028 
L 640.12876 243.74289 
L 640.993494 233.892099 
L 641.858227 241.2802 
L 642.72296 224.7449 
L 643.587694 205.043251 
L 644.452427 201.52509 
L 645.31716 206.802315 
L 646.181894 213.135011 
L 647.046627 217.708578 
L 647.91136 209.61685 
L 648.776093 213.838637 
L 649.640827 189.915201 
L 650.50556 238.113852 
L 651.370293 224.7449 
L 652.235027 206.098689 
L 653.09976 209.61685 
L 653.964493 206.802315 
L 654.829227 232.484814 
L 655.69396 218.764049 
L 656.558693 199.766026 
L 657.423427 200.821464 
L 658.28816 194.488801 
L 659.152893 215.949514 
L 660.017627 228.614874 
L 660.88236 209.61685 
L 661.747093 210.672289 
L 662.611827 208.913225 
L 663.47656 206.450502 
L 664.341293 208.561412 
L 665.206027 219.467675 
L 666.935493 202.932374 
L 667.800227 205.043251 
L 668.66496 183.582538 
L 669.529693 186.748886 
L 670.394427 218.764049 
L 671.25916 209.968663 
L 672.123893 209.61685 
L 672.988627 191.674265 
L 673.85336 226.503964 
L 674.718093 217.356765 
L 675.582827 221.226739 
L 676.44756 213.135011 
L 677.312293 208.561412 
L 678.177027 214.19045 
L 679.04176 202.932374 
L 679.906493 213.838637 
L 680.771227 204.339625 
L 681.63596 207.154128 
L 682.500693 201.173277 
L 683.365427 190.97064 
L 684.23016 186.39704 
L 685.094893 207.857786 
L 685.959627 207.154128 
L 686.82436 187.100699 
L 687.689093 199.414213 
L 688.553827 187.804325 
L 689.41856 205.043251 
L 690.283293 212.431353 
L 691.148027 224.041274 
L 692.01276 202.932374 
L 692.877493 188.50795 
L 693.742227 196.247865 
L 694.60696 193.785175 
L 695.471693 182.5271 
L 696.336427 181.471661 
L 697.20116 196.247865 
L 698.065893 194.488801 
L 698.930627 212.783165 
L 699.79536 189.563389 
L 700.660093 185.341602 
L 701.524827 186.748886 
L 702.38956 176.546249 
L 703.254293 184.637976 
L 704.119027 202.932374 
L 704.98376 197.303336 
L 705.848493 198.006962 
L 706.713226 197.655149 
L 707.57796 183.934351 
L 708.442693 174.083527 
L 709.307426 188.859763 
L 710.17216 201.173277 
L 711.036893 203.284187 
L 711.901626 201.876903 
L 712.76636 187.100699 
L 713.631093 182.5271 
L 714.495826 174.787152 
L 715.36056 177.601688 
L 716.225293 189.563389 
L 717.090026 194.488801 
L 717.95476 184.286164 
L 718.819493 181.471661 
L 719.684226 180.768003 
L 720.54896 208.561412 
L 721.413693 217.356765 
L 722.278426 197.303336 
L 723.14316 209.265038 
L 724.007893 196.247865 
L 724.872626 199.414213 
L 725.73736 189.915201 
L 726.602093 182.5271 
L 727.466826 182.5271 
L 728.33156 192.377924 
L 729.196293 172.676275 
L 730.061026 169.86174 
L 730.92576 154.73369 
L 731.790493 152.974627 
L 732.655226 187.804325 
L 733.51996 187.100699 
L 734.384693 219.115862 
L 736.11416 184.989789 
L 736.978893 189.563389 
L 737.843626 176.194436 
L 738.70836 180.768003 
L 739.573093 178.305313 
L 740.437826 189.563389 
L 741.30256 183.230725 
L 742.167293 179.712564 
L 743.032026 169.86174 
L 743.89676 221.578551 
L 745.626226 190.618827 
L 746.49096 168.454489 
L 747.355693 161.4182 
L 748.220426 188.156138 
L 749.08516 183.582538 
L 749.949893 170.213553 
L 750.814626 183.230725 
L 751.67936 170.565365 
L 752.544093 167.39905 
L 753.408826 181.119815 
L 754.27356 180.41619 
L 755.138293 161.4182 
L 756.003026 175.84259 
L 756.86776 175.84259 
L 757.732493 174.083527 
L 758.597226 163.177264 
L 759.46196 160.714574 
L 760.326693 171.269024 
L 761.191426 156.492788 
L 762.05616 171.620837 
L 762.920893 175.490778 
L 763.785626 175.138965 
L 764.650359 155.789162 
L 765.515093 157.900039 
L 766.379826 190.97064 
L 767.244559 175.138965 
L 768.109293 167.750863 
L 768.974026 141.716551 
L 769.838759 169.86174 
L 770.703493 171.269024 
L 771.568226 167.39905 
L 773.297693 219.115862 
L 774.162426 181.471661 
L 775.027159 156.140975 
L 775.891893 151.567375 
L 776.756626 138.902016 
L 777.621359 151.567375 
L 778.486093 139.605674 
L 779.350826 168.806302 
L 780.215559 176.194436 
L 781.080293 162.473638 
L 781.945026 176.546249 
L 782.809759 152.974627 
L 783.674493 194.488801 
L 784.539226 162.121825 
L 785.403959 166.343612 
L 786.268693 154.030065 
L 787.998159 159.30729 
L 788.862893 150.86375 
L 789.727626 163.177264 
L 790.592359 163.529077 
L 791.457093 156.8446 
L 792.321826 182.175287 
L 793.186559 160.714574 
L 794.051293 155.789162 
L 794.916026 139.605674 
L 795.780759 164.936328 
L 796.645493 168.806302 
L 797.510226 165.639986 
L 798.374959 148.75284 
L 800.104426 169.509927 
L 800.969159 163.529077 
L 801.833893 172.324463 
L 802.698626 161.770013 
L 803.563359 159.30729 
L 804.428093 157.548226 
L 805.292826 148.75284 
L 806.157559 144.531053 
L 807.022293 168.102676 
L 807.887026 166.695425 
L 808.751759 174.787152 
L 809.616493 160.362761 
L 810.481226 176.194436 
L 813.075426 128.699378 
L 813.940159 136.439326 
L 814.804893 147.345589 
L 815.669626 160.010915 
L 816.534359 168.806302 
L 817.399093 152.974627 
L 818.263826 131.513914 
L 819.128559 140.3093 
L 819.993293 153.678252 
L 820.858026 144.882899 
L 821.722759 166.343612 
L 822.587492 171.620837 
L 823.452226 173.028088 
L 824.316959 174.083527 
L 825.181692 182.175287 
L 826.046426 152.271001 
L 826.911159 130.810288 
L 827.775892 158.251852 
L 828.640626 157.900039 
L 829.505359 168.806302 
L 830.370092 177.601688 
L 831.234826 169.158114 
L 832.099559 142.771989 
L 832.964292 158.251852 
L 834.693759 138.902016 
L 835.558492 150.160124 
L 836.423226 196.95149 
L 837.287959 143.123802 
L 838.152692 148.049214 
L 839.017426 162.825451 
L 839.882159 126.588502 
L 840.746892 136.439326 
L 841.611626 143.123802 
L 842.476359 131.162101 
L 843.341092 144.882899 
L 844.205826 125.533063 
L 845.070559 123.070341 
L 845.935292 140.661113 
L 846.800026 135.032075 
L 847.664759 140.3093 
L 848.529492 156.492788 
L 849.394226 157.900039 
L 850.258959 143.475615 
L 851.123692 150.511937 
L 851.988426 169.509927 
L 852.853159 147.697402 
L 853.717892 153.678252 
L 854.582626 131.513914 
L 855.447359 135.032075 
L 856.312092 124.125812 
L 857.176826 135.7357 
L 858.041559 136.087513 
L 858.906292 140.3093 
L 859.771026 156.492788 
L 860.635759 152.271001 
L 861.500492 163.880889 
L 862.365226 154.73369 
L 863.229959 150.160124 
L 864.094692 146.641963 
L 864.959426 155.085536 
L 866.688892 126.236689 
L 868.418359 123.422153 
L 869.283092 160.010915 
L 870.147826 148.401027 
L 871.012559 156.8446 
L 871.877292 151.919188 
L 872.742026 130.810288 
L 873.606759 124.477625 
L 874.471492 129.051224 
L 875.336226 132.217539 
L 876.200959 147.345589 
L 877.930426 118.144928 
L 878.795159 121.311277 
L 879.659892 132.569352 
L 880.524625 109.349575 
L 881.389359 136.791139 
L 882.254092 135.383888 
L 883.118825 130.810288 
L 883.983559 134.328449 
L 884.848292 129.403037 
L 885.713025 164.584515 
L 886.577759 154.030065 
L 887.442492 161.4182 
L 888.307225 149.104653 
L 889.171959 148.049214 
L 890.036692 149.104653 
L 890.901425 123.773999 
L 891.766159 130.106663 
L 892.630892 125.884876 
L 893.495625 118.144928 
L 894.360359 127.292127 
L 895.225092 117.793116 
L 896.089825 129.75485 
L 896.954559 138.902016 
L 897.819292 138.19839 
L 898.684025 142.420177 
L 899.548759 138.19839 
L 900.413492 137.846577 
L 901.278225 124.477625 
L 902.142959 142.771989 
L 903.007692 137.494764 
L 903.872425 125.18125 
L 904.737159 106.886853 
L 905.601892 125.884876 
L 906.466625 130.458475 
L 907.331359 132.217539 
L 908.196092 112.515891 
L 909.060825 123.422153 
L 909.925559 108.294137 
L 910.790292 135.7357 
L 911.655025 124.477625 
L 912.519759 129.051224 
L 913.384492 138.902016 
L 914.249225 118.144928 
L 915.113959 124.477625 
L 915.978692 135.383888 
L 916.843425 126.588502 
L 917.708159 122.014902 
L 918.572892 130.810288 
L 919.437625 125.884876 
L 920.302359 134.328449 
L 921.167092 140.3093 
L 922.031825 121.311277 
L 922.896559 137.142952 
L 923.761292 123.773999 
L 924.626025 106.183227 
L 925.490759 108.997763 
L 926.355492 119.2004 
L 927.220225 110.053201 
L 928.084959 130.458475 
L 928.949692 136.791139 
L 929.814425 152.271001 
L 930.679159 113.923175 
L 931.543892 134.680262 
L 932.408625 147.697402 
L 933.273359 145.586525 
L 934.138092 117.08949 
L 935.002825 120.607651 
L 935.867559 113.219549 
L 936.732292 101.609628 
L 937.597025 114.274988 
L 938.461758 108.294137 
L 939.326492 116.737677 
L 940.191225 127.64394 
L 941.055958 143.827428 
L 941.920692 129.051224 
L 942.785425 125.18125 
L 943.650158 106.53504 
L 944.514892 94.925152 
L 945.379625 107.238666 
L 947.109092 118.848587 
L 947.973825 117.793116 
L 948.838558 138.19839 
L 949.703292 123.070341 
L 950.568025 126.588502 
L 951.432758 122.366715 
L 952.297492 122.366715 
L 953.162225 114.6268 
L 954.026958 119.904025 
L 954.891692 110.756827 
L 955.756425 100.202377 
L 956.621158 109.701388 
L 957.485892 126.236689 
L 958.350625 132.217539 
L 959.215358 117.441303 
L 960.080092 109.349575 
L 960.944825 122.718528 
L 961.809558 127.292127 
L 962.674292 143.123802 
L 963.539025 113.923175 
L 964.403758 103.720538 
L 965.268492 123.070341 
L 966.133225 128.699378 
L 966.997958 126.940314 
L 967.862692 128.699378 
L 968.727425 103.720538 
L 969.592158 102.665099 
L 970.456892 102.313253 
L 971.321625 118.496774 
L 972.186358 114.274988 
L 973.051092 106.53504 
L 973.915825 101.961441 
L 974.780558 116.034052 
L 975.645292 101.609628 
L 976.510025 112.867703 
L 977.374758 112.164078 
L 978.239492 131.865727 
L 979.104225 129.75485 
L 979.968958 150.511937 
L 980.833692 131.513914 
L 981.698425 96.332403 
L 982.563158 84.722514 
L 983.427892 124.829438 
L 984.292625 125.533063 
L 985.157358 105.831414 
L 986.022092 98.0915 
L 986.886825 111.812265 
L 987.751558 94.573339 
L 988.616292 105.127789 
L 989.481025 106.53504 
L 990.345758 88.944301 
L 991.210492 121.663089 
L 992.075225 98.443313 
L 992.939958 107.238666 
L 993.804692 105.127789 
L 994.669425 113.571362 
L 995.534158 123.773999 
L 996.398891 121.663089 
L 997.263625 115.682239 
L 998.128358 100.202377 
L 998.993091 79.797102 
L 999.857825 94.573339 
L 1000.722558 79.797102 
L 1001.587291 95.276964 
L 1002.452025 88.240676 
L 1002.452025 88.240676 
" clip-path="url(#p64c9e56ae2)" style="fill: none; stroke: #4c72b0; stroke-width: 6; stroke-linecap: round"/>
   </g>
   <g id="line2d_13">
    <path d="M 138.58343 582.188943 
L 139.448163 582.540758 
L 140.312896 567.060898 
L 141.17763 562.487303 
L 142.042363 561.783673 
L 142.907096 561.783673 
L 143.77183 563.894563 
L 144.636563 563.190933 
L 145.501296 566.357267 
L 146.36603 561.431857 
L 147.230763 565.301822 
L 148.095496 567.060898 
L 148.96023 565.301822 
L 149.824963 566.005452 
L 150.689696 566.005452 
L 151.55443 563.894563 
L 152.419163 568.116343 
L 153.283896 569.875417 
L 154.14863 560.024597 
L 155.013363 557.913708 
L 155.878096 560.376414 
L 156.74283 555.451002 
L 157.607563 560.376414 
L 159.33703 555.099189 
L 160.201763 557.210078 
L 161.066496 559.672784 
L 161.93123 553.691925 
L 162.795963 557.561891 
L 163.660696 558.265521 
L 164.52543 564.246377 
L 165.390163 563.190933 
L 166.254896 553.691925 
L 167.11963 557.561891 
L 167.984363 554.043742 
L 168.849096 561.080044 
L 169.71383 558.617338 
L 170.578563 555.451002 
L 171.443296 555.451002 
L 172.30803 557.210078 
L 173.172763 551.932853 
L 174.037496 557.210078 
L 174.90223 557.561891 
L 175.766963 551.932853 
L 176.631696 556.154632 
L 177.49643 555.099189 
L 178.361163 551.932853 
L 179.225896 555.802819 
L 180.09063 550.877407 
L 180.955363 555.802819 
L 181.820096 550.525594 
L 182.684829 552.988296 
L 183.549563 549.470147 
L 184.414296 550.173777 
L 185.279029 550.173777 
L 186.143763 549.470147 
L 187.008496 543.137475 
L 187.873229 549.11833 
L 188.737963 560.024597 
L 190.467429 549.82196 
L 191.332163 543.137475 
L 192.196896 543.489292 
L 193.061629 538.915697 
L 193.926363 543.489292 
L 194.791096 543.841105 
L 195.655829 541.378403 
L 196.520563 539.619327 
L 197.385296 539.26751 
L 198.250029 543.489292 
L 199.114763 537.86025 
L 199.979496 530.120319 
L 200.844229 538.915697 
L 201.708963 536.101178 
L 202.573696 540.674774 
L 203.438429 532.231213 
L 204.303163 530.120319 
L 205.167896 535.397549 
L 206.032629 534.342102 
L 206.897363 535.045732 
L 207.762096 536.101178 
L 209.491563 525.194911 
L 210.356296 531.175766 
L 211.221029 524.139465 
L 212.085763 522.732205 
L 212.950496 525.194911 
L 213.815229 526.250358 
L 214.679963 525.194911 
L 215.544696 517.45498 
L 216.409429 523.084018 
L 217.274163 519.565874 
L 218.138896 522.380392 
L 219.003629 523.787652 
L 220.733096 518.86224 
L 221.597829 519.565874 
L 222.462563 513.233202 
L 223.327296 516.399534 
L 224.192029 518.510427 
L 225.056763 512.881389 
L 225.921496 511.825942 
L 226.786229 513.936827 
L 227.650963 515.344087 
L 228.515696 514.992274 
L 229.380429 520.973133 
L 231.974629 515.695908 
L 232.839363 512.529568 
L 233.704096 513.233202 
L 234.568829 507.604164 
L 235.433563 512.881389 
L 236.298296 514.992274 
L 237.163029 506.548717 
L 238.027763 510.066862 
L 238.892496 512.177755 
L 239.757229 510.770496 
L 240.621962 506.548717 
L 241.486696 505.845084 
L 242.351429 519.214052 
L 243.216162 509.715049 
L 244.080896 505.845084 
L 244.945629 501.271492 
L 245.810362 505.845084 
L 246.675096 506.196905 
L 247.539829 505.493271 
L 248.404562 514.992274 
L 249.269296 504.789637 
L 250.134029 507.252343 
L 250.998762 503.030565 
L 251.863496 503.030565 
L 252.728229 506.196905 
L 253.592962 510.418683 
L 254.457696 501.271492 
L 255.322429 499.512412 
L 256.187162 500.216046 
L 257.051896 499.160599 
L 257.916629 496.697893 
L 258.781362 505.493271 
L 259.646096 502.678752 
L 260.510829 506.90053 
L 262.240296 498.456974 
L 263.105029 503.030565 
L 263.969762 502.326939 
L 264.834496 499.864233 
L 265.699229 496.34608 
L 266.563962 500.567859 
L 267.428696 501.975118 
L 268.293429 501.975118 
L 269.158162 497.75334 
L 270.022896 514.992274 
L 270.887629 499.512412 
L 271.752362 497.049714 
L 272.617096 499.864233 
L 273.481829 493.531561 
L 274.346562 489.661596 
L 275.211296 516.047721 
L 276.076029 507.252343 
L 276.940762 494.938821 
L 277.805496 489.661596 
L 278.670229 497.75334 
L 279.534962 497.75334 
L 280.399696 497.401527 
L 281.264429 494.587008 
L 282.129162 499.160599 
L 282.993896 501.623305 
L 283.858629 508.30779 
L 284.723362 500.216046 
L 285.588096 505.493271 
L 286.452829 496.34608 
L 287.317562 495.290634 
L 288.182296 496.697893 
L 289.047029 495.290634 
L 289.911762 491.772489 
L 290.776496 498.456974 
L 291.641229 495.642446 
L 292.505962 499.512412 
L 293.370696 501.623305 
L 294.235429 495.642446 
L 295.100162 495.290634 
L 295.964896 498.105153 
L 296.829629 491.068855 
L 297.694362 491.420668 
L 298.559096 492.476115 
L 299.423829 495.994267 
L 300.288562 505.845084 
L 301.153295 487.550703 
L 302.018029 490.013409 
L 302.882762 498.105153 
L 303.747495 495.290634 
L 304.612229 495.290634 
L 305.476962 495.994267 
L 307.206429 489.309783 
L 308.071162 500.567859 
L 308.935895 505.493271 
L 309.800629 494.235187 
L 310.665362 493.883374 
L 311.530095 490.365221 
L 312.394829 501.271492 
L 313.259562 491.420668 
L 314.124295 493.531561 
L 314.989029 497.401527 
L 315.853762 490.365221 
L 316.718495 495.642446 
L 317.583229 488.957962 
L 318.447962 493.531561 
L 319.312695 491.420668 
L 320.177429 503.030565 
L 321.042162 494.938821 
L 321.906895 494.587008 
L 322.771629 485.439818 
L 323.636362 490.717042 
L 324.501095 484.384371 
L 325.365829 493.179749 
L 326.230562 491.068855 
L 327.095295 495.290634 
L 327.960029 493.883374 
L 328.824762 489.661596 
L 329.689495 491.772489 
L 330.554229 487.902524 
L 331.418962 488.606149 
L 332.283695 492.124302 
L 333.148429 488.254336 
L 334.013162 492.124302 
L 334.877895 489.309783 
L 335.742629 491.068855 
L 336.607362 488.606149 
L 337.472095 486.847077 
L 338.336829 483.680737 
L 339.201562 486.143443 
L 340.931029 495.290634 
L 341.795762 493.883374 
L 342.660495 500.567859 
L 343.525229 488.254336 
L 344.389962 500.216046 
L 345.254695 495.642446 
L 346.984162 490.365221 
L 347.848895 492.827928 
L 348.713629 488.606149 
L 350.443095 499.160599 
L 351.307829 494.938821 
L 352.172562 495.642446 
L 353.037295 487.19889 
L 353.902029 487.19889 
L 354.766762 495.994267 
L 355.631495 495.290634 
L 356.496229 485.439818 
L 357.360962 493.883374 
L 358.225695 486.847077 
L 359.090428 495.290634 
L 359.955162 500.567859 
L 360.819895 492.476115 
L 361.684628 492.476115 
L 362.549362 495.290634 
L 364.278828 485.087996 
L 365.143562 492.827928 
L 366.008295 496.34608 
L 366.873028 488.606149 
L 367.737762 496.34608 
L 368.602495 490.717042 
L 369.467228 495.994267 
L 370.331962 491.772489 
L 371.196695 486.143443 
L 372.061428 501.271492 
L 372.926162 494.587008 
L 373.790895 482.977111 
L 374.655628 497.75334 
L 375.520362 487.550703 
L 376.385095 512.177755 
L 377.249828 496.697893 
L 378.114562 486.143443 
L 378.979295 490.365221 
L 379.844028 495.994267 
L 380.708762 491.420668 
L 381.573495 494.587008 
L 382.438228 492.476115 
L 383.302962 509.363236 
L 384.167695 509.715049 
L 385.032428 496.697893 
L 386.761895 488.957962 
L 387.626628 499.512412 
L 388.491362 493.883374 
L 389.356095 486.143443 
L 390.220828 498.808786 
L 391.085562 499.512412 
L 391.950295 497.401527 
L 392.815028 494.938821 
L 393.679762 487.550703 
L 394.544495 492.827928 
L 395.409228 499.160599 
L 396.273962 490.717042 
L 397.138695 491.068855 
L 398.003428 488.957962 
L 398.868162 485.79163 
L 399.732895 491.068855 
L 400.597628 492.827928 
L 401.462362 488.254336 
L 402.327095 489.309783 
L 403.191828 494.235187 
L 404.056562 494.938821 
L 404.921295 486.495264 
L 405.786028 499.160599 
L 406.650762 501.975118 
L 407.515495 492.476115 
L 409.244962 489.661596 
L 410.109695 499.160599 
L 410.974428 488.957962 
L 411.839162 492.827928 
L 412.703895 493.883374 
L 413.568628 487.902524 
L 414.433362 491.772489 
L 415.298095 491.420668 
L 416.162828 484.736184 
L 417.027561 493.531561 
L 417.892295 487.902524 
L 418.757028 487.902524 
L 419.621761 493.179749 
L 420.486495 499.160599 
L 421.351228 492.827928 
L 422.215961 487.550703 
L 423.080695 491.772489 
L 423.945428 494.235187 
L 424.810161 494.587008 
L 425.674895 490.717042 
L 426.539628 493.883374 
L 427.404361 493.531561 
L 428.269095 488.606149 
L 429.133828 489.661596 
L 429.998561 487.19889 
L 430.863295 492.476115 
L 431.728028 491.068855 
L 432.592761 480.162593 
L 433.457495 492.827928 
L 434.322228 494.938821 
L 435.186961 487.902524 
L 436.051695 495.290634 
L 436.916428 488.606149 
L 437.781161 492.476115 
L 438.645895 508.30779 
L 439.510628 495.290634 
L 440.375361 494.938821 
L 441.240095 494.235187 
L 442.104828 497.049714 
L 442.969561 495.290634 
L 443.834295 483.328924 
L 444.699028 493.179749 
L 445.563761 489.309783 
L 446.428495 493.179749 
L 447.293228 491.772489 
L 448.157961 498.105153 
L 449.022695 490.013409 
L 449.887428 496.34608 
L 450.752161 489.309783 
L 451.616895 488.606149 
L 452.481628 492.476115 
L 453.346361 491.068855 
L 454.211095 505.493271 
L 455.075828 496.697893 
L 455.940561 497.401527 
L 456.805295 491.772489 
L 457.670028 491.772489 
L 458.534761 490.365221 
L 459.399495 493.531561 
L 460.264228 484.032558 
L 461.128961 497.401527 
L 461.993695 494.938821 
L 462.858428 503.734199 
L 463.723161 491.068855 
L 464.587895 494.587008 
L 465.452628 486.847077 
L 466.317361 494.235187 
L 467.182095 498.456974 
L 468.046828 490.365221 
L 468.911561 493.883374 
L 469.776295 528.361243 
L 470.641028 494.938821 
L 471.505761 496.34608 
L 472.370495 492.124302 
L 473.235228 493.883374 
L 474.099961 501.271492 
L 474.964694 491.772489 
L 475.829428 495.290634 
L 476.694161 495.290634 
L 477.558894 492.827928 
L 478.423628 505.493271 
L 479.288361 501.623305 
L 480.153094 501.271492 
L 481.017828 490.717042 
L 481.882561 488.606149 
L 482.747294 491.420668 
L 483.612028 498.456974 
L 484.476761 495.994267 
L 485.341494 490.013409 
L 486.206228 491.068855 
L 487.070961 495.290634 
L 487.935694 490.013409 
L 488.800428 492.124302 
L 489.665161 499.160599 
L 490.529894 493.179749 
L 491.394628 495.642446 
L 492.259361 496.697893 
L 493.124094 490.365221 
L 493.988828 490.717042 
L 494.853561 497.401527 
L 495.718294 495.994267 
L 496.583028 493.883374 
L 497.447761 486.143443 
L 498.312494 504.086011 
L 499.177228 488.957962 
L 500.906694 497.75334 
L 501.771428 491.420668 
L 502.636161 489.661596 
L 503.500894 500.919671 
L 504.365628 491.772489 
L 505.230361 501.271492 
L 506.095094 495.642446 
L 506.959828 491.772489 
L 507.824561 487.19889 
L 508.689294 491.420668 
L 509.554028 504.437824 
L 510.418761 494.587008 
L 511.283494 494.938821 
L 512.148228 494.938821 
L 513.012961 491.420668 
L 513.877694 494.938821 
L 514.742428 496.34608 
L 515.607161 488.606149 
L 516.471894 490.013409 
L 517.336628 482.977111 
L 518.201361 494.938821 
L 519.066094 491.420668 
L 519.930828 496.34608 
L 520.795561 489.309783 
L 521.660294 499.160599 
L 522.525028 499.160599 
L 523.389761 500.216046 
L 524.254494 493.883374 
L 525.119228 490.365221 
L 525.983961 495.290634 
L 526.848694 494.235187 
L 527.713428 500.567859 
L 528.578161 499.160599 
L 529.442894 487.19889 
L 530.307628 495.290634 
L 531.172361 494.938821 
L 532.037094 490.717042 
L 532.901827 497.401527 
L 533.766561 491.068855 
L 534.631294 487.902524 
L 535.496027 493.531561 
L 536.360761 493.531561 
L 537.225494 510.418683 
L 538.090227 499.512412 
L 538.954961 500.567859 
L 539.819694 499.160599 
L 540.684427 492.476115 
L 541.549161 503.734199 
L 542.413894 498.456974 
L 543.278627 497.401527 
L 544.143361 499.864233 
L 545.008094 501.271492 
L 545.872827 497.75334 
L 546.737561 492.476115 
L 547.602294 499.160599 
L 548.467027 488.254336 
L 549.331761 498.808786 
L 550.196494 498.456974 
L 551.061227 490.365221 
L 551.925961 498.456974 
L 552.790694 495.290634 
L 553.655427 498.808786 
L 554.520161 506.196905 
L 555.384894 498.808786 
L 556.249627 496.697893 
L 557.979094 500.216046 
L 558.843827 491.772489 
L 559.708561 492.476115 
L 560.573294 495.642446 
L 561.438027 495.642446 
L 562.302761 485.79163 
L 564.032227 511.122309 
L 564.896961 500.567859 
L 565.761694 502.326939 
L 566.626427 493.883374 
L 567.491161 498.808786 
L 568.355894 494.587008 
L 569.220627 509.715049 
L 570.085361 495.642446 
L 570.950094 492.476115 
L 571.814827 495.290634 
L 572.679561 486.847077 
L 573.544294 502.678752 
L 574.409027 494.235187 
L 575.273761 493.883374 
L 576.138494 503.030565 
L 577.003227 496.697893 
L 577.867961 496.34608 
L 578.732694 499.864233 
L 580.462161 496.34608 
L 581.326894 497.401527 
L 582.191627 498.105153 
L 583.056361 499.512412 
L 583.921094 489.661596 
L 584.785827 495.290634 
L 585.650561 496.34608 
L 586.515294 511.825942 
L 587.380027 497.75334 
L 588.244761 504.437824 
L 589.109494 495.642446 
L 589.974227 492.827928 
L 590.83896 498.456974 
L 591.703694 496.697893 
L 592.568427 497.049714 
L 593.43316 496.34608 
L 594.297894 497.75334 
L 595.162627 501.975118 
L 596.02736 499.864233 
L 596.892094 498.105153 
L 597.756827 500.919671 
L 598.62156 497.401527 
L 599.486294 499.864233 
L 600.351027 494.235187 
L 601.21576 498.808786 
L 602.080494 511.825942 
L 602.945227 495.994267 
L 603.80996 500.567859 
L 604.674694 493.531561 
L 605.539427 496.697893 
L 606.40416 501.975118 
L 607.268894 496.697893 
L 608.133627 499.512412 
L 608.99836 498.808786 
L 609.863094 501.271492 
L 610.727827 496.697893 
L 611.59256 498.456974 
L 612.457294 492.476115 
L 613.322027 499.864233 
L 614.18676 492.124302 
L 615.051494 503.734199 
L 615.916227 498.456974 
L 616.78096 495.994267 
L 617.645694 498.456974 
L 618.510427 492.827928 
L 619.37516 494.938821 
L 620.239894 494.938821 
L 621.96936 488.957962 
L 622.834094 496.697893 
L 623.698827 498.808786 
L 624.56356 494.235187 
L 625.428294 495.642446 
L 626.293027 495.290634 
L 627.15776 492.476115 
L 628.022494 496.697893 
L 628.887227 492.124302 
L 629.75196 501.271492 
L 630.616694 499.864233 
L 631.481427 504.086011 
L 632.34616 503.382377 
L 633.210894 501.623305 
L 634.075627 499.160599 
L 634.94036 494.938821 
L 635.805094 497.049714 
L 636.669827 498.456974 
L 637.53456 492.476115 
L 638.399294 506.90053 
L 640.12876 494.938821 
L 640.993494 502.326939 
L 641.858227 494.235187 
L 642.72296 503.734199 
L 643.587694 491.420668 
L 644.452427 497.401527 
L 645.31716 501.975118 
L 646.181894 495.290634 
L 647.046627 506.90053 
L 647.91136 495.994267 
L 648.776093 497.75334 
L 649.640827 497.75334 
L 650.50556 495.994267 
L 651.370293 499.512412 
L 652.235027 493.883374 
L 653.09976 497.75334 
L 653.964493 504.437824 
L 654.829227 500.216046 
L 655.69396 499.864233 
L 657.423427 491.772489 
L 658.28816 495.290634 
L 659.152893 495.994267 
L 660.017627 495.994267 
L 660.88236 505.493271 
L 661.747093 498.105153 
L 662.611827 499.512412 
L 663.47656 495.994267 
L 664.341293 503.734199 
L 665.206027 496.697893 
L 666.07076 498.808786 
L 666.935493 501.623305 
L 667.800227 498.105153 
L 668.66496 502.326939 
L 669.529693 507.252343 
L 670.394427 498.808786 
L 671.25916 497.401527 
L 672.123893 495.290634 
L 672.988627 494.938821 
L 673.85336 499.160599 
L 674.718093 506.196905 
L 675.582827 497.049714 
L 676.44756 503.382377 
L 677.312293 492.476115 
L 678.177027 495.994267 
L 679.04176 495.994267 
L 679.906493 497.049714 
L 680.771227 497.75334 
L 681.63596 497.401527 
L 682.500693 492.124302 
L 683.365427 499.160599 
L 684.23016 491.772489 
L 685.094893 501.271492 
L 685.959627 491.068855 
L 686.82436 498.105153 
L 687.689093 500.919671 
L 688.553827 499.512412 
L 689.41856 497.049714 
L 690.283293 501.975118 
L 691.148027 493.883374 
L 692.01276 501.975118 
L 692.877493 499.512412 
L 693.742227 497.75334 
L 694.60696 494.235187 
L 695.471693 492.124302 
L 696.336427 506.90053 
L 697.20116 493.883374 
L 698.065893 498.105153 
L 698.930627 499.160599 
L 699.79536 499.864233 
L 700.660093 496.34608 
L 701.524827 493.531561 
L 702.38956 494.938821 
L 703.254293 495.994267 
L 704.119027 493.531561 
L 704.98376 499.864233 
L 705.848493 502.326939 
L 706.713226 497.049714 
L 707.57796 499.160599 
L 708.442693 500.216046 
L 709.307426 498.808786 
L 710.17216 503.734199 
L 711.036893 497.049714 
L 711.901626 497.049714 
L 712.76636 497.401527 
L 713.631093 501.623305 
L 714.495826 495.642446 
L 715.36056 491.068855 
L 716.225293 499.160599 
L 717.090026 495.290634 
L 717.95476 500.919671 
L 718.819493 501.975118 
L 719.684226 498.808786 
L 720.54896 496.34608 
L 721.413693 511.122309 
L 722.278426 495.642446 
L 723.14316 496.697893 
L 724.007893 503.030565 
L 724.872626 506.196905 
L 725.73736 494.938821 
L 726.602093 504.086011 
L 727.466826 495.994267 
L 728.33156 502.326939 
L 729.196293 493.883374 
L 730.061026 494.587008 
L 730.92576 490.365221 
L 731.790493 494.938821 
L 732.655226 496.697893 
L 733.51996 513.936827 
L 734.384693 497.049714 
L 735.249426 499.864233 
L 736.11416 495.290634 
L 736.978893 495.642446 
L 737.843626 496.697893 
L 738.70836 491.772489 
L 739.573093 510.066862 
L 740.437826 497.401527 
L 741.30256 502.678752 
L 742.167293 497.75334 
L 743.032026 498.808786 
L 743.89676 504.437824 
L 744.761493 512.529568 
L 745.626226 489.309783 
L 746.49096 502.326939 
L 747.355693 501.975118 
L 748.220426 500.216046 
L 749.08516 500.919671 
L 749.949893 505.845084 
L 750.814626 505.493271 
L 751.67936 495.290634 
L 752.544093 490.365221 
L 754.27356 499.160599 
L 755.138293 498.808786 
L 756.003026 493.883374 
L 756.86776 496.697893 
L 757.732493 505.493271 
L 758.597226 494.587008 
L 759.46196 495.994267 
L 760.326693 494.938821 
L 761.191426 503.030565 
L 762.05616 500.567859 
L 762.920893 506.196905 
L 763.785626 501.623305 
L 764.650359 505.845084 
L 765.515093 501.623305 
L 766.379826 496.34608 
L 767.244559 509.011424 
L 768.109293 499.864233 
L 768.974026 494.938821 
L 769.838759 501.271492 
L 770.703493 510.418683 
L 771.568226 500.216046 
L 772.432959 499.512412 
L 773.297693 503.382377 
L 774.162426 493.883374 
L 775.027159 497.049714 
L 775.891893 504.789637 
L 776.756626 493.883374 
L 777.621359 493.883374 
L 778.486093 497.75334 
L 779.350826 495.290634 
L 780.215559 493.883374 
L 781.080293 499.864233 
L 781.945026 492.827928 
L 783.674493 510.418683 
L 784.539226 500.567859 
L 785.403959 497.401527 
L 786.268693 499.864233 
L 787.133426 496.697893 
L 787.998159 494.587008 
L 788.862893 490.365221 
L 789.727626 498.105153 
L 790.592359 501.271492 
L 791.457093 503.382377 
L 792.321826 510.066862 
L 793.186559 496.34608 
L 794.051293 495.290634 
L 794.916026 500.567859 
L 795.780759 499.160599 
L 796.645493 500.216046 
L 797.510226 493.179749 
L 798.374959 492.476115 
L 799.239693 495.290634 
L 800.104426 506.90053 
L 800.969159 510.770496 
L 801.833893 497.401527 
L 802.698626 503.382377 
L 803.563359 499.160599 
L 804.428093 500.216046 
L 805.292826 499.512412 
L 806.157559 495.994267 
L 807.022293 495.642446 
L 807.887026 499.864233 
L 808.751759 498.808786 
L 809.616493 517.45498 
L 810.481226 499.512412 
L 811.345959 497.75334 
L 812.210693 503.030565 
L 813.075426 499.160599 
L 813.940159 494.587008 
L 814.804893 503.382377 
L 815.669626 500.216046 
L 816.534359 498.105153 
L 817.399093 493.531561 
L 818.263826 494.235187 
L 819.128559 495.642446 
L 819.993293 497.401527 
L 820.858026 495.994267 
L 821.722759 500.567859 
L 822.587492 501.975118 
L 823.452226 501.271492 
L 824.316959 495.642446 
L 825.181692 503.382377 
L 826.046426 493.883374 
L 826.911159 499.864233 
L 827.775892 494.235187 
L 828.640626 503.030565 
L 829.505359 494.235187 
L 830.370092 497.401527 
L 831.234826 506.90053 
L 832.099559 503.030565 
L 832.964292 496.34608 
L 833.829026 495.290634 
L 834.693759 499.512412 
L 835.558492 505.493271 
L 837.287959 500.216046 
L 838.152692 503.734199 
L 839.017426 497.75334 
L 839.882159 497.049714 
L 840.746892 501.271492 
L 843.341092 492.827928 
L 844.205826 497.75334 
L 845.070559 497.401527 
L 845.935292 499.512412 
L 846.800026 500.216046 
L 847.664759 495.994267 
L 848.529492 500.919671 
L 849.394226 501.271492 
L 850.258959 501.975118 
L 851.123692 507.252343 
L 851.988426 506.196905 
L 852.853159 517.45498 
L 853.717892 495.290634 
L 854.582626 503.734199 
L 855.447359 498.808786 
L 856.312092 503.734199 
L 857.176826 498.808786 
L 858.041559 500.919671 
L 858.906292 498.105153 
L 859.771026 514.640461 
L 861.500492 495.994267 
L 862.365226 501.975118 
L 863.229959 494.235187 
L 864.094692 493.883374 
L 864.959426 500.567859 
L 865.824159 494.938821 
L 866.688892 501.271492 
L 867.553626 501.975118 
L 868.418359 505.493271 
L 869.283092 504.086011 
L 870.147826 504.789637 
L 871.012559 506.548717 
L 871.877292 498.105153 
L 872.742026 496.697893 
L 873.606759 498.456974 
L 874.471492 502.326939 
L 875.336226 496.34608 
L 876.200959 502.678752 
L 877.065692 501.623305 
L 877.930426 496.697893 
L 878.795159 503.382377 
L 879.659892 499.512412 
L 880.524625 494.587008 
L 882.254092 504.086011 
L 883.118825 493.531561 
L 883.983559 495.994267 
L 884.848292 496.34608 
L 885.713025 499.160599 
L 886.577759 506.196905 
L 887.442492 497.75334 
L 888.307225 517.103167 
L 889.171959 518.510427 
L 890.036692 497.049714 
L 890.901425 497.401527 
L 891.766159 498.105153 
L 892.630892 499.512412 
L 893.495625 503.734199 
L 894.360359 504.789637 
L 895.225092 497.75334 
L 896.089825 504.789637 
L 896.954559 508.30779 
L 897.819292 499.512412 
L 898.684025 493.883374 
L 899.548759 498.808786 
L 900.413492 506.196905 
L 901.278225 504.437824 
L 903.007692 502.326939 
L 903.872425 499.512412 
L 904.737159 499.160599 
L 905.601892 499.160599 
L 906.466625 497.75334 
L 907.331359 500.919671 
L 909.060825 501.623305 
L 909.925559 499.160599 
L 910.790292 497.401527 
L 911.655025 501.623305 
L 912.519759 504.437824 
L 913.384492 497.049714 
L 914.249225 504.086011 
L 915.113959 498.808786 
L 916.843425 500.216046 
L 917.708159 495.642446 
L 918.572892 508.30779 
L 920.302359 494.938821 
L 922.031825 500.919671 
L 922.896559 493.883374 
L 923.761292 499.160599 
L 924.626025 503.382377 
L 925.490759 503.734199 
L 926.355492 495.290634 
L 927.220225 500.216046 
L 928.084959 493.179749 
L 928.949692 500.216046 
L 929.814425 502.326939 
L 930.679159 494.587008 
L 931.543892 500.567859 
L 932.408625 500.567859 
L 933.273359 507.604164 
L 934.138092 504.086011 
L 935.002825 498.456974 
L 935.867559 497.401527 
L 936.732292 496.697893 
L 937.597025 500.216046 
L 938.461758 499.864233 
L 939.326492 502.326939 
L 940.191225 503.030565 
L 941.055958 495.642446 
L 941.920692 503.382377 
L 943.650158 502.678752 
L 944.514892 498.456974 
L 945.379625 511.825942 
L 946.244358 495.290634 
L 947.109092 515.344087 
L 947.973825 504.086011 
L 948.838558 502.678752 
L 949.703292 494.938821 
L 950.568025 498.456974 
L 951.432758 504.437824 
L 952.297492 495.994267 
L 953.162225 508.659602 
L 954.026958 497.401527 
L 954.891692 495.290634 
L 955.756425 499.160599 
L 956.621158 505.493271 
L 957.485892 504.086011 
L 958.350625 502.326939 
L 959.215358 502.678752 
L 960.080092 500.216046 
L 960.944825 495.994267 
L 961.809558 516.047721 
L 962.674292 505.845084 
L 963.539025 499.512412 
L 964.403758 501.271492 
L 965.268492 495.994267 
L 966.133225 504.437824 
L 966.997958 500.567859 
L 967.862692 502.678752 
L 968.727425 500.567859 
L 969.592158 498.808786 
L 970.456892 493.531561 
L 971.321625 500.919671 
L 972.186358 497.049714 
L 973.051092 496.697893 
L 973.915825 506.548717 
L 975.645292 499.864233 
L 977.374758 503.382377 
L 978.239492 500.567859 
L 979.104225 505.493271 
L 979.968958 506.548717 
L 980.833692 504.789637 
L 981.698425 498.808786 
L 982.563158 501.623305 
L 983.427892 501.271492 
L 984.292625 497.75334 
L 985.157358 507.604164 
L 986.022092 506.196905 
L 986.886825 504.086011 
L 987.751558 498.808786 
L 988.616292 503.030565 
L 989.481025 499.512412 
L 990.345758 497.049714 
L 991.210492 498.808786 
L 992.075225 495.642446 
L 992.939958 496.697893 
L 993.804692 505.141458 
L 994.669425 506.90053 
L 995.534158 503.382377 
L 996.398891 502.678752 
L 997.263625 501.271492 
L 998.128358 504.437824 
L 998.993091 498.105153 
L 999.857825 497.049714 
L 1000.722558 500.567859 
L 1001.587291 503.030565 
L 1002.452025 508.30779 
L 1002.452025 508.30779 
" clip-path="url(#p64c9e56ae2)" style="fill: none; stroke: #dd8452; stroke-width: 6; stroke-linecap: round"/>
   </g>
   <g id="line2d_14"/>
   <g id="line2d_15"/>
   <g id="patch_3">
    <path d="M 95.39 609.894375 
L 95.39 54.554375 
" style="fill: none; stroke: #cccccc; stroke-width: 1.875; stroke-linejoin: miter; stroke-linecap: square"/>
   </g>
   <g id="patch_4">
    <path d="M 1045.645455 609.894375 
L 1045.645455 54.554375 
" style="fill: none; stroke: #cccccc; stroke-width: 1.875; stroke-linejoin: miter; stroke-linecap: square"/>
   </g>
   <g id="patch_5">
    <path d="M 95.39 609.894375 
L 1045.645455 609.894375 
" style="fill: none; stroke: #cccccc; stroke-width: 1.875; stroke-linejoin: miter; stroke-linecap: square"/>
   </g>
   <g id="patch_6">
    <path d="M 95.39 54.554375 
L 1045.645455 54.554375 
" style="fill: none; stroke: #cccccc; stroke-width: 1.875; stroke-linejoin: miter; stroke-linecap: square"/>
   </g>
   <g id="text_14">
    <!-- Training Progress: Accuracy -->
    <g style="fill: #262626" transform="translate(287.26804 34.554375) scale(0.36 -0.36)">
     <defs>
      <path id="DejaVuSans-Bold-54" d="M 31 4666 
L 4331 4666 
L 4331 3756 
L 2784 3756 
L 2784 0 
L 1581 0 
L 1581 3756 
L 31 3756 
L 31 4666 
z
" transform="scale(0.015625)"/>
      <path id="DejaVuSans-Bold-72" d="M 3138 2547 
Q 2991 2616 2845 2648 
Q 2700 2681 2553 2681 
Q 2122 2681 1889 2404 
Q 1656 2128 1656 1613 
L 1656 0 
L 538 0 
L 538 3500 
L 1656 3500 
L 1656 2925 
Q 1872 3269 2151 3426 
Q 2431 3584 2822 3584 
Q 2878 3584 2943 3579 
Q 3009 3575 3134 3559 
L 3138 2547 
z
" transform="scale(0.015625)"/>
      <path id="DejaVuSans-Bold-61" d="M 2106 1575 
Q 1756 1575 1579 1456 
Q 1403 1338 1403 1106 
Q 1403 894 1545 773 
Q 1688 653 1941 653 
Q 2256 653 2472 879 
Q 2688 1106 2688 1447 
L 2688 1575 
L 2106 1575 
z
M 3816 1997 
L 3816 0 
L 2688 0 
L 2688 519 
Q 2463 200 2181 54 
Q 1900 -91 1497 -91 
Q 953 -91 614 226 
Q 275 544 275 1050 
Q 275 1666 698 1953 
Q 1122 2241 2028 2241 
L 2688 2241 
L 2688 2328 
Q 2688 2594 2478 2717 
Q 2269 2841 1825 2841 
Q 1466 2841 1156 2769 
Q 847 2697 581 2553 
L 581 3406 
Q 941 3494 1303 3539 
Q 1666 3584 2028 3584 
Q 2975 3584 3395 3211 
Q 3816 2838 3816 1997 
z
" transform="scale(0.015625)"/>
      <path id="DejaVuSans-Bold-69" d="M 538 3500 
L 1656 3500 
L 1656 0 
L 538 0 
L 538 3500 
z
M 538 4863 
L 1656 4863 
L 1656 3950 
L 538 3950 
L 538 4863 
z
" transform="scale(0.015625)"/>
      <path id="DejaVuSans-Bold-6e" d="M 4056 2131 
L 4056 0 
L 2931 0 
L 2931 347 
L 2931 1631 
Q 2931 2084 2911 2256 
Q 2891 2428 2841 2509 
Q 2775 2619 2662 2680 
Q 2550 2741 2406 2741 
Q 2056 2741 1856 2470 
Q 1656 2200 1656 1722 
L 1656 0 
L 538 0 
L 538 3500 
L 1656 3500 
L 1656 2988 
Q 1909 3294 2193 3439 
Q 2478 3584 2822 3584 
Q 3428 3584 3742 3212 
Q 4056 2841 4056 2131 
z
" transform="scale(0.015625)"/>
      <path id="DejaVuSans-Bold-67" d="M 2919 594 
Q 2688 288 2409 144 
Q 2131 0 1766 0 
Q 1125 0 706 504 
Q 288 1009 288 1791 
Q 288 2575 706 3076 
Q 1125 3578 1766 3578 
Q 2131 3578 2409 3434 
Q 2688 3291 2919 2981 
L 2919 3500 
L 4044 3500 
L 4044 353 
Q 4044 -491 3511 -936 
Q 2978 -1381 1966 -1381 
Q 1638 -1381 1331 -1331 
Q 1025 -1281 716 -1178 
L 716 -306 
Q 1009 -475 1290 -558 
Q 1572 -641 1856 -641 
Q 2406 -641 2662 -400 
Q 2919 -159 2919 353 
L 2919 594 
z
M 2181 2772 
Q 1834 2772 1640 2515 
Q 1447 2259 1447 1791 
Q 1447 1309 1634 1061 
Q 1822 813 2181 813 
Q 2531 813 2725 1069 
Q 2919 1325 2919 1791 
Q 2919 2259 2725 2515 
Q 2531 2772 2181 2772 
z
" transform="scale(0.015625)"/>
      <path id="DejaVuSans-Bold-20" transform="scale(0.015625)"/>
      <path id="DejaVuSans-Bold-50" d="M 588 4666 
L 2584 4666 
Q 3475 4666 3951 4270 
Q 4428 3875 4428 3144 
Q 4428 2409 3951 2014 
Q 3475 1619 2584 1619 
L 1791 1619 
L 1791 0 
L 588 0 
L 588 4666 
z
M 1791 3794 
L 1791 2491 
L 2456 2491 
Q 2806 2491 2997 2661 
Q 3188 2831 3188 3144 
Q 3188 3456 2997 3625 
Q 2806 3794 2456 3794 
L 1791 3794 
z
" transform="scale(0.015625)"/>
      <path id="DejaVuSans-Bold-6f" d="M 2203 2784 
Q 1831 2784 1636 2517 
Q 1441 2250 1441 1747 
Q 1441 1244 1636 976 
Q 1831 709 2203 709 
Q 2569 709 2762 976 
Q 2956 1244 2956 1747 
Q 2956 2250 2762 2517 
Q 2569 2784 2203 2784 
z
M 2203 3584 
Q 3106 3584 3614 3096 
Q 4122 2609 4122 1747 
Q 4122 884 3614 396 
Q 3106 -91 2203 -91 
Q 1297 -91 786 396 
Q 275 884 275 1747 
Q 275 2609 786 3096 
Q 1297 3584 2203 3584 
z
" transform="scale(0.015625)"/>
      <path id="DejaVuSans-Bold-65" d="M 4031 1759 
L 4031 1441 
L 1416 1441 
Q 1456 1047 1700 850 
Q 1944 653 2381 653 
Q 2734 653 3104 758 
Q 3475 863 3866 1075 
L 3866 213 
Q 3469 63 3072 -14 
Q 2675 -91 2278 -91 
Q 1328 -91 801 392 
Q 275 875 275 1747 
Q 275 2603 792 3093 
Q 1309 3584 2216 3584 
Q 3041 3584 3536 3087 
Q 4031 2591 4031 1759 
z
M 2881 2131 
Q 2881 2450 2695 2645 
Q 2509 2841 2209 2841 
Q 1884 2841 1681 2658 
Q 1478 2475 1428 2131 
L 2881 2131 
z
" transform="scale(0.015625)"/>
      <path id="DejaVuSans-Bold-73" d="M 3272 3391 
L 3272 2541 
Q 2913 2691 2578 2766 
Q 2244 2841 1947 2841 
Q 1628 2841 1473 2761 
Q 1319 2681 1319 2516 
Q 1319 2381 1436 2309 
Q 1553 2238 1856 2203 
L 2053 2175 
Q 2913 2066 3209 1816 
Q 3506 1566 3506 1031 
Q 3506 472 3093 190 
Q 2681 -91 1863 -91 
Q 1516 -91 1145 -36 
Q 775 19 384 128 
L 384 978 
Q 719 816 1070 734 
Q 1422 653 1784 653 
Q 2113 653 2278 743 
Q 2444 834 2444 1013 
Q 2444 1163 2330 1236 
Q 2216 1309 1875 1350 
L 1678 1375 
Q 931 1469 631 1722 
Q 331 1975 331 2491 
Q 331 3047 712 3315 
Q 1094 3584 1881 3584 
Q 2191 3584 2531 3537 
Q 2872 3491 3272 3391 
z
" transform="scale(0.015625)"/>
      <path id="DejaVuSans-Bold-3a" d="M 716 3500 
L 1844 3500 
L 1844 2291 
L 716 2291 
L 716 3500 
z
M 716 1209 
L 1844 1209 
L 1844 0 
L 716 0 
L 716 1209 
z
" transform="scale(0.015625)"/>
      <path id="DejaVuSans-Bold-41" d="M 3419 850 
L 1538 850 
L 1241 0 
L 31 0 
L 1759 4666 
L 3194 4666 
L 4922 0 
L 3713 0 
L 3419 850 
z
M 1838 1716 
L 3116 1716 
L 2478 3572 
L 1838 1716 
z
" transform="scale(0.015625)"/>
      <path id="DejaVuSans-Bold-63" d="M 3366 3391 
L 3366 2478 
Q 3138 2634 2908 2709 
Q 2678 2784 2431 2784 
Q 1963 2784 1702 2511 
Q 1441 2238 1441 1747 
Q 1441 1256 1702 982 
Q 1963 709 2431 709 
Q 2694 709 2930 787 
Q 3166 866 3366 1019 
L 3366 103 
Q 3103 6 2833 -42 
Q 2563 -91 2291 -91 
Q 1344 -91 809 395 
Q 275 881 275 1747 
Q 275 2613 809 3098 
Q 1344 3584 2291 3584 
Q 2566 3584 2833 3536 
Q 3100 3488 3366 3391 
z
" transform="scale(0.015625)"/>
      <path id="DejaVuSans-Bold-75" d="M 500 1363 
L 500 3500 
L 1625 3500 
L 1625 3150 
Q 1625 2866 1622 2436 
Q 1619 2006 1619 1863 
Q 1619 1441 1641 1255 
Q 1663 1069 1716 984 
Q 1784 875 1895 815 
Q 2006 756 2150 756 
Q 2500 756 2700 1025 
Q 2900 1294 2900 1772 
L 2900 3500 
L 4019 3500 
L 4019 0 
L 2900 0 
L 2900 506 
Q 2647 200 2364 54 
Q 2081 -91 1741 -91 
Q 1134 -91 817 281 
Q 500 653 500 1363 
z
" transform="scale(0.015625)"/>
      <path id="DejaVuSans-Bold-79" d="M 78 3500 
L 1197 3500 
L 2138 1125 
L 2938 3500 
L 4056 3500 
L 2584 -331 
Q 2363 -916 2067 -1148 
Q 1772 -1381 1288 -1381 
L 641 -1381 
L 641 -647 
L 991 -647 
Q 1275 -647 1404 -556 
Q 1534 -466 1606 -231 
L 1638 -134 
L 78 3500 
z
" transform="scale(0.015625)"/>
     </defs>
     <use xlink:href="#DejaVuSans-Bold-54"/>
     <use xlink:href="#DejaVuSans-Bold-72" transform="translate(57.212891 0)"/>
     <use xlink:href="#DejaVuSans-Bold-61" transform="translate(106.529297 0)"/>
     <use xlink:href="#DejaVuSans-Bold-69" transform="translate(174.009766 0)"/>
     <use xlink:href="#DejaVuSans-Bold-6e" transform="translate(208.287109 0)"/>
     <use xlink:href="#DejaVuSans-Bold-69" transform="translate(279.478516 0)"/>
     <use xlink:href="#DejaVuSans-Bold-6e" transform="translate(313.755859 0)"/>
     <use xlink:href="#DejaVuSans-Bold-67" transform="translate(384.947266 0)"/>
     <use xlink:href="#DejaVuSans-Bold-20" transform="translate(456.529297 0)"/>
     <use xlink:href="#DejaVuSans-Bold-50" transform="translate(491.34375 0)"/>
     <use xlink:href="#DejaVuSans-Bold-72" transform="translate(564.634766 0)"/>
     <use xlink:href="#DejaVuSans-Bold-6f" transform="translate(613.951172 0)"/>
     <use xlink:href="#DejaVuSans-Bold-67" transform="translate(682.652344 0)"/>
     <use xlink:href="#DejaVuSans-Bold-72" transform="translate(754.234375 0)"/>
     <use xlink:href="#DejaVuSans-Bold-65" transform="translate(803.550781 0)"/>
     <use xlink:href="#DejaVuSans-Bold-73" transform="translate(871.373047 0)"/>
     <use xlink:href="#DejaVuSans-Bold-73" transform="translate(930.894531 0)"/>
     <use xlink:href="#DejaVuSans-Bold-3a" transform="translate(990.416016 0)"/>
     <use xlink:href="#DejaVuSans-Bold-20" transform="translate(1030.40625 0)"/>
     <use xlink:href="#DejaVuSans-Bold-41" transform="translate(1065.220703 0)"/>
     <use xlink:href="#DejaVuSans-Bold-63" transform="translate(1142.613281 0)"/>
     <use xlink:href="#DejaVuSans-Bold-63" transform="translate(1201.890625 0)"/>
     <use xlink:href="#DejaVuSans-Bold-75" transform="translate(1261.167969 0)"/>
     <use xlink:href="#DejaVuSans-Bold-72" transform="translate(1332.359375 0)"/>
     <use xlink:href="#DejaVuSans-Bold-61" transform="translate(1381.675781 0)"/>
     <use xlink:href="#DejaVuSans-Bold-63" transform="translate(1449.15625 0)"/>
     <use xlink:href="#DejaVuSans-Bold-79" transform="translate(1508.433594 0)"/>
    </g>
   </g>
   <g id="legend_1">
    <g id="patch_7">
     <path d="M 117.79 174.094375 
L 294.67 174.094375 
Q 301.07 174.094375 301.07 167.694375 
L 301.07 76.954375 
Q 301.07 70.554375 294.67 70.554375 
L 117.79 70.554375 
Q 111.39 70.554375 111.39 76.954375 
L 111.39 167.694375 
Q 111.39 174.094375 117.79 174.094375 
z
" style="fill: #ffffff; opacity: 0.8; stroke: #cccccc; stroke-width: 1.5; stroke-linejoin: miter"/>
    </g>
    <g id="line2d_16">
     <path d="M 124.19 96.469375 
L 156.19 96.469375 
L 188.19 96.469375 
" style="fill: none; stroke: #4c72b0; stroke-width: 6; stroke-linecap: round"/>
    </g>
    <g id="text_15">
     <!-- train -->
     <g style="fill: #262626" transform="translate(213.79 107.669375) scale(0.32 -0.32)">
      <defs>
       <path id="DejaVuSans-74" d="M 1172 4494 
L 1172 3500 
L 2356 3500 
L 2356 3053 
L 1172 3053 
L 1172 1153 
Q 1172 725 1289 603 
Q 1406 481 1766 481 
L 2356 481 
L 2356 0 
L 1766 0 
Q 1100 0 847 248 
Q 594 497 594 1153 
L 594 3053 
L 172 3053 
L 172 3500 
L 594 3500 
L 594 4494 
L 1172 4494 
z
" transform="scale(0.015625)"/>
       <path id="DejaVuSans-69" d="M 603 3500 
L 1178 3500 
L 1178 0 
L 603 0 
L 603 3500 
z
M 603 4863 
L 1178 4863 
L 1178 4134 
L 603 4134 
L 603 4863 
z
" transform="scale(0.015625)"/>
       <path id="DejaVuSans-6e" d="M 3513 2113 
L 3513 0 
L 2938 0 
L 2938 2094 
Q 2938 2591 2744 2837 
Q 2550 3084 2163 3084 
Q 1697 3084 1428 2787 
Q 1159 2491 1159 1978 
L 1159 0 
L 581 0 
L 581 3500 
L 1159 3500 
L 1159 2956 
Q 1366 3272 1645 3428 
Q 1925 3584 2291 3584 
Q 2894 3584 3203 3211 
Q 3513 2838 3513 2113 
z
" transform="scale(0.015625)"/>
      </defs>
      <use xlink:href="#DejaVuSans-74"/>
      <use xlink:href="#DejaVuSans-72" transform="translate(39.208984 0)"/>
      <use xlink:href="#DejaVuSans-61" transform="translate(80.322266 0)"/>
      <use xlink:href="#DejaVuSans-69" transform="translate(141.601562 0)"/>
      <use xlink:href="#DejaVuSans-6e" transform="translate(169.384766 0)"/>
     </g>
    </g>
    <g id="line2d_17">
     <path d="M 124.19 143.439375 
L 156.19 143.439375 
L 188.19 143.439375 
" style="fill: none; stroke: #dd8452; stroke-width: 6; stroke-linecap: round"/>
    </g>
    <g id="text_16">
     <!-- val -->
     <g style="fill: #262626" transform="translate(213.79 154.639375) scale(0.32 -0.32)">
      <defs>
       <path id="DejaVuSans-76" d="M 191 3500 
L 800 3500 
L 1894 563 
L 2988 3500 
L 3597 3500 
L 2284 0 
L 1503 0 
L 191 3500 
z
" transform="scale(0.015625)"/>
       <path id="DejaVuSans-6c" d="M 603 4863 
L 1178 4863 
L 1178 0 
L 603 0 
L 603 4863 
z
" transform="scale(0.015625)"/>
      </defs>
      <use xlink:href="#DejaVuSans-76"/>
      <use xlink:href="#DejaVuSans-61" transform="translate(59.179688 0)"/>
      <use xlink:href="#DejaVuSans-6c" transform="translate(120.458984 0)"/>
     </g>
    </g>
   </g>
  </g>
 </g>
 <defs>
  <clipPath id="p64c9e56ae2">
   <rect x="95.39" y="54.554375" width="950.255455" height="555.34"/>
  </clipPath>
 </defs>
</svg>
