<?xml version="1.0" encoding="utf-8" standalone="no"?>
<!DOCTYPE svg PUBLIC "-//W3C//DTD SVG 1.1//EN"
  "http://www.w3.org/Graphics/SVG/1.1/DTD/svg11.dtd">
<svg xmlns:xlink="http://www.w3.org/1999/xlink" width="1052.845455pt" height="695.534375pt" viewBox="0 0 1052.845455 695.534375" xmlns="http://www.w3.org/2000/svg" version="1.1">
 <metadata>
  <rdf:RDF xmlns:dc="http://purl.org/dc/elements/1.1/" xmlns:cc="http://creativecommons.org/ns#" xmlns:rdf="http://www.w3.org/1999/02/22-rdf-syntax-ns#">
   <cc:Work>
    <dc:type rdf:resource="http://purl.org/dc/dcmitype/StillImage"/>
    <dc:date>2026-04-10T17:19:39.138809</dc:date>
    <dc:format>image/svg+xml</dc:format>
    <dc:creator>
     <cc:Agent>
      <dc:title>Matplotlib v3.10.8, https://matplotlib.org/</dc:title>
     </cc:Agent>
    </dc:creator>
   </cc:Work>
  </rdf:RDF>
 </metadata>
 <defs>
  <style type="text/css">*{stroke-linejoin: round; stroke-linecap: butt}</style>
 </defs>
 <g id="figure_1">
  <g id="patch_1">
   <path d="M 0 695.534375 
L 1052.845455 695.534375 
L 1052.845455 0 
L 0 0 
z
" style="fill: #ffffff"/>
  </g>
  <g id="axes_1">
   <g id="patch_2">
    <path d="M 95.39 609.894375 
L 1045.645455 609.894375 
L 1045.645455 54.554375 
L 95.39 54.554375 
z
" style="fill: #ffffff"/>
   </g>
   <g id="matplotlib.axis_1">
    <g id="xtick_1">
     <g id="line2d_1">
      <path d="M 137.718696 609.894375 
L 137.718696 54.554375 
" clip-path="url(#p93cbe8efb0)" style="fill: none; stroke: #cccccc; stroke-opacity: 0.3; stroke-width: 1.5; stroke-linecap: round"/>
     </g>
     <g id="text_1">
      <!-- 0 -->
      <g style="fill: #262626" transform="translate(127.538696 646.709375) scale(0.32 -0.32)">
       <defs>
        <path id="DejaVuSans-30" d="M 2034 4250 
Q 1547 4250 1301 3770 
Q 1056 3291 1056 2328 
Q 1056 1369 1301 889 
Q 1547 409 2034 409 
Q 2525 409 2770 889 
Q 3016 1369 3016 2328 
Q 3016 3291 2770 3770 
Q 2525 4250 2034 4250 
z
M 2034 4750 
Q 2819 4750 3233 4129 
Q 3647 3509 3647 2328 
Q 3647 1150 3233 529 
Q 2819 -91 2034 -91 
Q 1250 -91 836 529 
Q 422 1150 422 2328 
Q 422 3509 836 4129 
Q 1250 4750 2034 4750 
z
" transform="scale(0.015625)"/>
       </defs>
       <use xlink:href="#DejaVuSans-30"/>
      </g>
     </g>
    </g>
    <g id="xtick_2">
     <g id="line2d_2">
      <path d="M 310.665362 609.894375 
L 310.665362 54.554375 
" clip-path="url(#p93cbe8efb0)" style="fill: none; stroke: #cccccc; stroke-opacity: 0.3; stroke-width: 1.5; stroke-linecap: round"/>
     </g>
     <g id="text_2">
      <!-- 200 -->
      <g style="fill: #262626" transform="translate(280.125362 646.709375) scale(0.32 -0.32)">
       <defs>
        <path id="DejaVuSans-32" d="M 1228 531 
L 3431 531 
L 3431 0 
L 469 0 
L 469 531 
Q 828 903 1448 1529 
Q 2069 2156 2228 2338 
Q 2531 2678 2651 2914 
Q 2772 3150 2772 3378 
Q 2772 3750 2511 3984 
Q 2250 4219 1831 4219 
Q 1534 4219 1204 4116 
Q 875 4013 500 3803 
L 500 4441 
Q 881 4594 1212 4672 
Q 1544 4750 1819 4750 
Q 2544 4750 2975 4387 
Q 3406 4025 3406 3419 
Q 3406 3131 3298 2873 
Q 3191 2616 2906 2266 
Q 2828 2175 2409 1742 
Q 1991 1309 1228 531 
z
" transform="scale(0.015625)"/>
       </defs>
       <use xlink:href="#DejaVuSans-32"/>
       <use xlink:href="#DejaVuSans-30" transform="translate(63.623047 0)"/>
       <use xlink:href="#DejaVuSans-30" transform="translate(127.246094 0)"/>
      </g>
     </g>
    </g>
    <g id="xtick_3">
     <g id="line2d_3">
      <path d="M 483.612028 609.894375 
L 483.612028 54.554375 
" clip-path="url(#p93cbe8efb0)" style="fill: none; stroke: #cccccc; stroke-opacity: 0.3; stroke-width: 1.5; stroke-linecap: round"/>
     </g>
     <g id="text_3">
      <!-- 400 -->
      <g style="fill: #262626" transform="translate(453.072028 646.709375) scale(0.32 -0.32)">
       <defs>
        <path id="DejaVuSans-34" d="M 2419 4116 
L 825 1625 
L 2419 1625 
L 2419 4116 
z
M 2253 4666 
L 3047 4666 
L 3047 1625 
L 3713 1625 
L 3713 1100 
L 3047 1100 
L 3047 0 
L 2419 0 
L 2419 1100 
L 313 1100 
L 313 1709 
L 2253 4666 
z
" transform="scale(0.015625)"/>
       </defs>
       <use xlink:href="#DejaVuSans-34"/>
       <use xlink:href="#DejaVuSans-30" transform="translate(63.623047 0)"/>
       <use xlink:href="#DejaVuSans-30" transform="translate(127.246094 0)"/>
      </g>
     </g>
    </g>
    <g id="xtick_4">
     <g id="line2d_4">
      <path d="M 656.558693 609.894375 
L 656.558693 54.554375 
" clip-path="url(#p93cbe8efb0)" style="fill: none; stroke: #cccccc; stroke-opacity: 0.3; stroke-width: 1.5; stroke-linecap: round"/>
     </g>
     <g id="text_4">
      <!-- 600 -->
      <g style="fill: #262626" transform="translate(626.018693 646.709375) scale(0.32 -0.32)">
       <defs>
        <path id="DejaVuSans-36" d="M 2113 2584 
Q 1688 2584 1439 2293 
Q 1191 2003 1191 1497 
Q 1191 994 1439 701 
Q 1688 409 2113 409 
Q 2538 409 2786 701 
Q 3034 994 3034 1497 
Q 3034 2003 2786 2293 
Q 2538 2584 2113 2584 
z
M 3366 4563 
L 3366 3988 
Q 3128 4100 2886 4159 
Q 2644 4219 2406 4219 
Q 1781 4219 1451 3797 
Q 1122 3375 1075 2522 
Q 1259 2794 1537 2939 
Q 1816 3084 2150 3084 
Q 2853 3084 3261 2657 
Q 3669 2231 3669 1497 
Q 3669 778 3244 343 
Q 2819 -91 2113 -91 
Q 1303 -91 875 529 
Q 447 1150 447 2328 
Q 447 3434 972 4092 
Q 1497 4750 2381 4750 
Q 2619 4750 2861 4703 
Q 3103 4656 3366 4563 
z
" transform="scale(0.015625)"/>
       </defs>
       <use xlink:href="#DejaVuSans-36"/>
       <use xlink:href="#DejaVuSans-30" transform="translate(63.623047 0)"/>
       <use xlink:href="#DejaVuSans-30" transform="translate(127.246094 0)"/>
      </g>
     </g>
    </g>
    <g id="xtick_5">
     <g id="line2d_5">
      <path d="M 829.505359 609.894375 
L 829.505359 54.554375 
" clip-path="url(#p93cbe8efb0)" style="fill: none; stroke: #cccccc; stroke-opacity: 0.3; stroke-width: 1.5; stroke-linecap: round"/>
     </g>
     <g id="text_5">
      <!-- 800 -->
      <g style="fill: #262626" transform="translate(798.965359 646.709375) scale(0.32 -0.32)">
       <defs>
        <path id="DejaVuSans-38" d="M 2034 2216 
Q 1584 2216 1326 1975 
Q 1069 1734 1069 1313 
Q 1069 891 1326 650 
Q 1584 409 2034 409 
Q 2484 409 2743 651 
Q 3003 894 3003 1313 
Q 3003 1734 2745 1975 
Q 2488 2216 2034 2216 
z
M 1403 2484 
Q 997 2584 770 2862 
Q 544 3141 544 3541 
Q 544 4100 942 4425 
Q 1341 4750 2034 4750 
Q 2731 4750 3128 4425 
Q 3525 4100 3525 3541 
Q 3525 3141 3298 2862 
Q 3072 2584 2669 2484 
Q 3125 2378 3379 2068 
Q 3634 1759 3634 1313 
Q 3634 634 3220 271 
Q 2806 -91 2034 -91 
Q 1263 -91 848 271 
Q 434 634 434 1313 
Q 434 1759 690 2068 
Q 947 2378 1403 2484 
z
M 1172 3481 
Q 1172 3119 1398 2916 
Q 1625 2713 2034 2713 
Q 2441 2713 2670 2916 
Q 2900 3119 2900 3481 
Q 2900 3844 2670 4047 
Q 2441 4250 2034 4250 
Q 1625 4250 1398 4047 
Q 1172 3844 1172 3481 
z
" transform="scale(0.015625)"/>
       </defs>
       <use xlink:href="#DejaVuSans-38"/>
       <use xlink:href="#DejaVuSans-30" transform="translate(63.623047 0)"/>
       <use xlink:href="#DejaVuSans-30" transform="translate(127.246094 0)"/>
      </g>
     </g>
    </g>
    <g id="xtick_6">
     <g id="line2d_6">
      <path d="M 1002.452025 609.894375 
L 1002.452025 54.554375 
" clip-path="url(#p93cbe8efb0)" style="fill: none; stroke: #cccccc; stroke-opacity: 0.3; stroke-width: 1.5; stroke-linecap: round"/>
     </g>
     <g id="text_6">
      <!-- 1000 -->
      <g style="fill: #262626" transform="translate(961.732025 646.709375) scale(0.32 -0.32)">
       <defs>
        <path id="DejaVuSans-31" d="M 794 531 
L 1825 531 
L 1825 4091 
L 703 3866 
L 703 4441 
L 1819 4666 
L 2450 4666 
L 2450 531 
L 3481 531 
L 3481 0 
L 794 0 
L 794 531 
z
" transform="scale(0.015625)"/>
       </defs>
       <use xlink:href="#DejaVuSans-31"/>
       <use xlink:href="#DejaVuSans-30" transform="translate(63.623047 0)"/>
       <use xlink:href="#DejaVuSans-30" transform="translate(127.246094 0)"/>
       <use xlink:href="#DejaVuSans-30" transform="translate(190.869141 0)"/>
      </g>
     </g>
    </g>
    <g id="text_7">
     <!-- Epoch -->
     <g style="fill: #262626" transform="translate(521.522727 681.679375) scale(0.32 -0.32)">
      <defs>
       <path id="DejaVuSans-45" d="M 628 4666 
L 3578 4666 
L 3578 4134 
L 1259 4134 
L 1259 2753 
L 3481 2753 
L 3481 2222 
L 1259 2222 
L 1259 531 
L 3634 531 
L 3634 0 
L 628 0 
L 628 4666 
z
" transform="scale(0.015625)"/>
       <path id="DejaVuSans-70" d="M 1159 525 
L 1159 -1331 
L 581 -1331 
L 581 3500 
L 1159 3500 
L 1159 2969 
Q 1341 3281 1617 3432 
Q 1894 3584 2278 3584 
Q 2916 3584 3314 3078 
Q 3713 2572 3713 1747 
Q 3713 922 3314 415 
Q 2916 -91 2278 -91 
Q 1894 -91 1617 61 
Q 1341 213 1159 525 
z
M 3116 1747 
Q 3116 2381 2855 2742 
Q 2594 3103 2138 3103 
Q 1681 3103 1420 2742 
Q 1159 2381 1159 1747 
Q 1159 1113 1420 752 
Q 1681 391 2138 391 
Q 2594 391 2855 752 
Q 3116 1113 3116 1747 
z
" transform="scale(0.015625)"/>
       <path id="DejaVuSans-6f" d="M 1959 3097 
Q 1497 3097 1228 2736 
Q 959 2375 959 1747 
Q 959 1119 1226 758 
Q 1494 397 1959 397 
Q 2419 397 2687 759 
Q 2956 1122 2956 1747 
Q 2956 2369 2687 2733 
Q 2419 3097 1959 3097 
z
M 1959 3584 
Q 2709 3584 3137 3096 
Q 3566 2609 3566 1747 
Q 3566 888 3137 398 
Q 2709 -91 1959 -91 
Q 1206 -91 779 398 
Q 353 888 353 1747 
Q 353 2609 779 3096 
Q 1206 3584 1959 3584 
z
" transform="scale(0.015625)"/>
       <path id="DejaVuSans-63" d="M 3122 3366 
L 3122 2828 
Q 2878 2963 2633 3030 
Q 2388 3097 2138 3097 
Q 1578 3097 1268 2742 
Q 959 2388 959 1747 
Q 959 1106 1268 751 
Q 1578 397 2138 397 
Q 2388 397 2633 464 
Q 2878 531 3122 666 
L 3122 134 
Q 2881 22 2623 -34 
Q 2366 -91 2075 -91 
Q 1284 -91 818 406 
Q 353 903 353 1747 
Q 353 2603 823 3093 
Q 1294 3584 2113 3584 
Q 2378 3584 2631 3529 
Q 2884 3475 3122 3366 
z
" transform="scale(0.015625)"/>
       <path id="DejaVuSans-68" d="M 3513 2113 
L 3513 0 
L 2938 0 
L 2938 2094 
Q 2938 2591 2744 2837 
Q 2550 3084 2163 3084 
Q 1697 3084 1428 2787 
Q 1159 2491 1159 1978 
L 1159 0 
L 581 0 
L 581 4863 
L 1159 4863 
L 1159 2956 
Q 1366 3272 1645 3428 
Q 1925 3584 2291 3584 
Q 2894 3584 3203 3211 
Q 3513 2838 3513 2113 
z
" transform="scale(0.015625)"/>
      </defs>
      <use xlink:href="#DejaVuSans-45"/>
      <use xlink:href="#DejaVuSans-70" transform="translate(63.183594 0)"/>
      <use xlink:href="#DejaVuSans-6f" transform="translate(126.660156 0)"/>
      <use xlink:href="#DejaVuSans-63" transform="translate(187.841797 0)"/>
      <use xlink:href="#DejaVuSans-68" transform="translate(242.822266 0)"/>
     </g>
    </g>
   </g>
   <g id="matplotlib.axis_2">
    <g id="ytick_1">
     <g id="line2d_7">
      <path d="M 95.39 536.289049 
L 1045.645455 536.289049 
" clip-path="url(#p93cbe8efb0)" style="fill: none; stroke: #cccccc; stroke-opacity: 0.3; stroke-width: 1.5; stroke-linecap: round"/>
     </g>
     <g id="text_8">
      <!-- 4 -->
      <g style="fill: #262626" transform="translate(62.53 548.446549) scale(0.32 -0.32)">
       <use xlink:href="#DejaVuSans-34"/>
      </g>
     </g>
    </g>
    <g id="ytick_2">
     <g id="line2d_8">
      <path d="M 95.39 438.756747 
L 1045.645455 438.756747 
" clip-path="url(#p93cbe8efb0)" style="fill: none; stroke: #cccccc; stroke-opacity: 0.3; stroke-width: 1.5; stroke-linecap: round"/>
     </g>
     <g id="text_9">
      <!-- 6 -->
      <g style="fill: #262626" transform="translate(62.53 450.914247) scale(0.32 -0.32)">
       <use xlink:href="#DejaVuSans-36"/>
      </g>
     </g>
    </g>
    <g id="ytick_3">
     <g id="line2d_9">
      <path d="M 95.39 341.224444 
L 1045.645455 341.224444 
" clip-path="url(#p93cbe8efb0)" style="fill: none; stroke: #cccccc; stroke-opacity: 0.3; stroke-width: 1.5; stroke-linecap: round"/>
     </g>
     <g id="text_10">
      <!-- 8 -->
      <g style="fill: #262626" transform="translate(62.53 353.381944) scale(0.32 -0.32)">
       <use xlink:href="#DejaVuSans-38"/>
      </g>
     </g>
    </g>
    <g id="ytick_4">
     <g id="line2d_10">
      <path d="M 95.39 243.692141 
L 1045.645455 243.692141 
" clip-path="url(#p93cbe8efb0)" style="fill: none; stroke: #cccccc; stroke-opacity: 0.3; stroke-width: 1.5; stroke-linecap: round"/>
     </g>
     <g id="text_11">
      <!-- 10 -->
      <g style="fill: #262626" transform="translate(42.17 255.849641) scale(0.32 -0.32)">
       <use xlink:href="#DejaVuSans-31"/>
       <use xlink:href="#DejaVuSans-30" transform="translate(63.623047 0)"/>
      </g>
     </g>
    </g>
    <g id="ytick_5">
     <g id="line2d_11">
      <path d="M 95.39 146.159838 
L 1045.645455 146.159838 
" clip-path="url(#p93cbe8efb0)" style="fill: none; stroke: #cccccc; stroke-opacity: 0.3; stroke-width: 1.5; stroke-linecap: round"/>
     </g>
     <g id="text_12">
      <!-- 12 -->
      <g style="fill: #262626" transform="translate(42.17 158.317338) scale(0.32 -0.32)">
       <use xlink:href="#DejaVuSans-31"/>
       <use xlink:href="#DejaVuSans-32" transform="translate(63.623047 0)"/>
      </g>
     </g>
    </g>
    <g id="text_13">
     <!-- Loss -->
     <g style="fill: #262626" transform="translate(31.515 367.319375) rotate(-90) scale(0.32 -0.32)">
      <defs>
       <path id="DejaVuSans-4c" d="M 628 4666 
L 1259 4666 
L 1259 531 
L 3531 531 
L 3531 0 
L 628 0 
L 628 4666 
z
" transform="scale(0.015625)"/>
       <path id="DejaVuSans-73" d="M 2834 3397 
L 2834 2853 
Q 2591 2978 2328 3040 
Q 2066 3103 1784 3103 
Q 1356 3103 1142 2972 
Q 928 2841 928 2578 
Q 928 2378 1081 2264 
Q 1234 2150 1697 2047 
L 1894 2003 
Q 2506 1872 2764 1633 
Q 3022 1394 3022 966 
Q 3022 478 2636 193 
Q 2250 -91 1575 -91 
Q 1294 -91 989 -36 
Q 684 19 347 128 
L 347 722 
Q 666 556 975 473 
Q 1284 391 1588 391 
Q 1994 391 2212 530 
Q 2431 669 2431 922 
Q 2431 1156 2273 1281 
Q 2116 1406 1581 1522 
L 1381 1569 
Q 847 1681 609 1914 
Q 372 2147 372 2553 
Q 372 3047 722 3315 
Q 1072 3584 1716 3584 
Q 2034 3584 2315 3537 
Q 2597 3491 2834 3397 
z
" transform="scale(0.015625)"/>
      </defs>
      <use xlink:href="#DejaVuSans-4c"/>
      <use xlink:href="#DejaVuSans-6f" transform="translate(53.962891 0)"/>
      <use xlink:href="#DejaVuSans-73" transform="translate(115.144531 0)"/>
      <use xlink:href="#DejaVuSans-73" transform="translate(167.244141 0)"/>
     </g>
    </g>
   </g>
   <g id="FillBetweenPolyCollection_1"/>
   <g id="FillBetweenPolyCollection_2"/>
   <g id="line2d_12">
    <path d="M 138.58343 380.257442 
L 139.448163 489.461148 
L 140.312896 498.114269 
L 142.042363 499.882931 
L 142.907096 500.438899 
L 143.77183 500.598 
L 144.636563 500.531495 
L 145.501296 501.000309 
L 146.36603 501.157386 
L 147.230763 501.17864 
L 148.96023 501.712959 
L 149.824963 501.616317 
L 151.55443 501.921334 
L 152.419163 501.617364 
L 153.283896 501.80302 
L 154.14863 502.275089 
L 155.878096 502.672073 
L 156.74283 502.929164 
L 158.472296 502.769947 
L 159.33703 503.124819 
L 160.201763 502.865473 
L 161.93123 503.664371 
L 162.795963 503.396676 
L 163.660696 503.679299 
L 164.52543 503.395048 
L 165.390163 503.433579 
L 166.254896 503.71697 
L 167.11963 503.75692 
L 167.984363 504.13844 
L 168.849096 504.00429 
L 171.443296 503.994966 
L 172.30803 504.336909 
L 173.172763 504.239383 
L 174.037496 504.737939 
L 174.90223 504.641227 
L 175.766963 504.786794 
L 177.49643 505.413035 
L 178.361163 505.376317 
L 179.225896 504.923688 
L 180.09063 505.019748 
L 181.820096 505.803159 
L 182.684829 505.989559 
L 183.549563 505.735259 
L 184.414296 505.645128 
L 186.143763 506.691094 
L 187.008496 506.60887 
L 187.873229 506.885912 
L 189.602696 506.838708 
L 190.467429 507.343495 
L 191.332163 507.497735 
L 192.196896 507.856886 
L 193.926363 508.032217 
L 194.791096 507.866955 
L 195.655829 508.538632 
L 196.520563 508.343326 
L 197.385296 508.840068 
L 198.250029 508.951499 
L 199.114763 508.877808 
L 199.979496 508.979077 
L 200.844229 509.366574 
L 201.708963 509.085555 
L 202.573696 509.690774 
L 203.438429 509.670172 
L 204.303163 510.104431 
L 205.167896 509.920752 
L 206.032629 510.286111 
L 206.897363 510.471185 
L 207.762096 510.97574 
L 208.626829 511.223855 
L 209.491563 511.126586 
L 210.356296 511.963945 
L 211.221029 511.879255 
L 212.085763 510.665655 
L 212.950496 511.894277 
L 214.679963 512.628019 
L 215.544696 512.425457 
L 216.409429 512.928803 
L 217.274163 512.943522 
L 218.138896 513.261328 
L 219.003629 512.854298 
L 219.868363 513.593807 
L 220.733096 513.425568 
L 221.597829 513.437241 
L 223.327296 514.587801 
L 225.056763 514.895097 
L 226.786229 515.481178 
L 227.650963 515.590167 
L 229.380429 515.287895 
L 230.245163 516.082165 
L 231.109896 515.857885 
L 231.974629 516.464732 
L 232.839363 516.37988 
L 233.704096 516.899294 
L 234.568829 516.401041 
L 235.433563 516.341233 
L 236.298296 517.45761 
L 237.163029 517.556973 
L 238.027763 518.280971 
L 238.892496 518.291063 
L 239.757229 517.221657 
L 240.621962 517.759906 
L 241.486696 518.521203 
L 242.351429 518.64733 
L 243.216162 518.403191 
L 244.080896 519.549217 
L 244.945629 519.977849 
L 245.810362 520.06619 
L 247.539829 520.556164 
L 249.269296 519.773777 
L 250.134029 519.649649 
L 251.863496 521.16036 
L 252.728229 521.094181 
L 253.592962 521.702842 
L 254.457696 521.134642 
L 255.322429 521.938353 
L 256.187162 522.268158 
L 257.051896 521.498722 
L 257.916629 522.438559 
L 259.646096 522.602264 
L 260.510829 523.044081 
L 261.375562 523.168906 
L 262.240296 523.704434 
L 263.105029 522.962229 
L 263.969762 523.305683 
L 264.834496 522.568593 
L 265.699229 523.566518 
L 266.563962 524.285609 
L 267.428696 524.351626 
L 268.293429 524.699592 
L 269.158162 524.889666 
L 270.022896 524.825672 
L 271.752362 525.49328 
L 272.617096 526.121428 
L 273.481829 525.646568 
L 274.346562 525.827224 
L 275.211296 523.071567 
L 276.076029 524.529655 
L 276.940762 524.772375 
L 277.805496 525.684587 
L 278.670229 526.800732 
L 279.534962 526.87926 
L 280.399696 526.64412 
L 281.264429 527.1743 
L 282.129162 527.159488 
L 282.993896 527.365444 
L 283.858629 526.300549 
L 284.723362 526.549246 
L 285.588096 527.362909 
L 289.047029 528.625622 
L 289.911762 529.202634 
L 291.641229 528.075606 
L 292.505962 528.098604 
L 293.370696 529.604292 
L 294.235429 529.675053 
L 295.964896 530.669931 
L 296.829629 530.414956 
L 297.694362 529.368641 
L 298.559096 529.019676 
L 299.423829 530.096825 
L 300.288562 530.105964 
L 302.018029 531.137373 
L 302.882762 530.512807 
L 303.747495 531.420089 
L 304.612229 530.72374 
L 305.476962 528.43485 
L 306.341695 529.877288 
L 307.206429 531.591398 
L 308.071162 532.269168 
L 308.935895 532.137204 
L 309.800629 531.643602 
L 310.665362 531.774008 
L 311.530095 531.67339 
L 312.394829 532.038982 
L 313.259562 532.162179 
L 314.124295 531.612001 
L 314.989029 533.090831 
L 315.853762 532.463823 
L 316.718495 533.416682 
L 317.583229 533.912354 
L 318.447962 533.276348 
L 319.312695 533.343201 
L 321.042162 533.210377 
L 321.906895 533.804458 
L 322.771629 534.227416 
L 323.636362 534.350916 
L 324.501095 534.808963 
L 325.365829 534.263296 
L 326.230562 534.860865 
L 327.095295 533.829711 
L 327.960029 533.984254 
L 328.824762 534.910023 
L 329.689495 535.040754 
L 330.554229 534.950089 
L 331.418962 535.689551 
L 333.148429 535.532055 
L 334.013162 535.72957 
L 334.877895 535.029662 
L 335.742629 535.424228 
L 336.607362 536.350253 
L 337.472095 535.991823 
L 338.336829 536.730017 
L 339.201562 536.912895 
L 340.066295 536.604727 
L 340.931029 536.795523 
L 341.795762 536.747458 
L 342.660495 536.069699 
L 343.525229 536.627469 
L 344.389962 535.856441 
L 345.254695 535.558285 
L 346.119429 536.844669 
L 346.984162 537.921202 
L 347.848895 538.165654 
L 348.713629 538.285026 
L 349.578362 537.784948 
L 350.443095 537.919865 
L 351.307829 537.628405 
L 352.172562 538.065257 
L 353.037295 538.65113 
L 353.902029 539.073216 
L 354.766762 539.21269 
L 355.631495 538.942671 
L 356.496229 537.628533 
L 357.360962 539.190472 
L 358.225695 539.261511 
L 359.090428 539.877973 
L 359.955162 539.780111 
L 360.819895 539.344782 
L 361.684628 540.219998 
L 363.414095 539.532682 
L 364.278828 540.391144 
L 365.143562 540.128518 
L 366.008295 540.900512 
L 366.873028 540.313326 
L 367.737762 540.749562 
L 368.602495 540.476961 
L 369.467228 541.019477 
L 370.331962 540.764909 
L 371.196695 541.437726 
L 372.061428 540.914917 
L 372.926162 541.227921 
L 373.790895 541.732604 
L 374.655628 540.693858 
L 375.520362 541.245559 
L 376.385095 541.023837 
L 377.249828 538.695276 
L 378.114562 540.249739 
L 379.844028 542.686521 
L 380.708762 543.237408 
L 381.573495 542.566428 
L 382.438228 543.32097 
L 383.302962 543.210399 
L 384.167695 540.432314 
L 385.032428 540.60139 
L 385.897162 540.936717 
L 386.761895 542.732726 
L 387.626628 543.848057 
L 388.491362 544.317918 
L 389.356095 544.616818 
L 390.220828 542.939263 
L 391.085562 543.172252 
L 391.950295 542.714065 
L 392.815028 543.864509 
L 393.679762 543.920562 
L 394.544495 544.27841 
L 395.409228 544.461066 
L 396.273962 544.380842 
L 397.138695 545.223782 
L 398.003428 545.640496 
L 398.868162 544.188035 
L 399.732895 545.222456 
L 400.597628 545.117687 
L 401.462362 546.597622 
L 403.191828 545.38558 
L 404.056562 544.877479 
L 404.921295 544.606901 
L 405.786028 545.252209 
L 406.650762 543.454957 
L 407.515495 545.553482 
L 408.380228 547.053147 
L 409.244962 547.178658 
L 410.109695 546.705414 
L 410.974428 546.485006 
L 411.839162 544.627899 
L 412.703895 545.583804 
L 413.568628 546.335532 
L 414.433362 546.890872 
L 415.298095 546.341741 
L 417.027561 548.173071 
L 417.892295 547.810944 
L 419.621761 548.556894 
L 420.486495 548.022377 
L 421.351228 547.192831 
L 422.215961 548.007239 
L 423.080695 548.161444 
L 423.945428 546.868875 
L 424.810161 547.30239 
L 425.674895 547.491906 
L 426.539628 549.067692 
L 427.404361 548.732841 
L 428.269095 549.45513 
L 429.133828 548.657721 
L 429.998561 549.74802 
L 431.728028 548.74191 
L 432.592761 549.081598 
L 433.457495 548.456625 
L 434.322228 549.60729 
L 435.186961 549.810991 
L 436.051695 549.892482 
L 436.916428 549.290716 
L 437.781161 548.208137 
L 438.645895 549.025394 
L 439.510628 547.083853 
L 440.375361 548.067663 
L 441.240095 550.833552 
L 442.104828 550.8662 
L 442.969561 549.761984 
L 443.834295 550.210881 
L 444.699028 549.714268 
L 445.563761 549.363349 
L 446.428495 549.749811 
L 447.293228 549.460118 
L 448.157961 550.758246 
L 449.022695 551.202806 
L 449.887428 551.066762 
L 450.752161 549.843638 
L 451.616895 550.594378 
L 452.481628 551.730731 
L 453.346361 551.342792 
L 454.211095 551.538668 
L 455.075828 550.805811 
L 455.940561 551.960045 
L 456.805295 552.551661 
L 457.670028 552.284455 
L 458.534761 552.584484 
L 459.399495 551.369394 
L 461.128961 552.071337 
L 461.993695 550.79787 
L 462.858428 550.297128 
L 463.723161 551.075714 
L 464.587895 553.516763 
L 465.452628 553.185343 
L 466.317361 553.59793 
L 467.182095 553.052635 
L 468.046828 553.27202 
L 468.911561 552.862944 
L 469.776295 549.496243 
L 470.641028 550.079941 
L 471.505761 552.602482 
L 472.370495 553.417052 
L 473.235228 553.790701 
L 474.099961 554.31358 
L 474.964694 553.27652 
L 475.829428 553.965591 
L 476.694161 555.211782 
L 477.558894 552.938414 
L 478.423628 551.913457 
L 479.288361 551.403821 
L 480.153094 553.299889 
L 481.017828 554.530314 
L 481.882561 554.498341 
L 482.747294 555.444317 
L 483.612028 555.581768 
L 484.476761 556.102496 
L 485.341494 556.024538 
L 487.070961 555.498567 
L 487.935694 554.240064 
L 488.800428 553.72601 
L 489.665161 555.209352 
L 490.529894 554.724493 
L 491.394628 555.440747 
L 492.259361 555.745671 
L 493.124094 556.387665 
L 493.988828 555.305424 
L 495.718294 555.718057 
L 496.583028 555.76961 
L 497.447761 555.363104 
L 498.312494 553.634077 
L 500.041961 555.601162 
L 500.906694 555.049565 
L 501.771428 556.145422 
L 502.636161 556.380166 
L 503.500894 556.849375 
L 504.365628 557.081794 
L 505.230361 557.518972 
L 506.095094 556.572914 
L 507.824561 556.11739 
L 508.689294 556.543185 
L 510.418761 556.922275 
L 511.283494 557.344687 
L 512.148228 556.584251 
L 513.012961 556.978746 
L 513.877694 558.267142 
L 514.742428 558.438683 
L 515.607161 557.383137 
L 516.471894 556.878547 
L 517.336628 557.268904 
L 518.201361 558.655313 
L 519.066094 558.82511 
L 519.930828 558.245679 
L 521.660294 558.637466 
L 522.525028 556.560497 
L 523.389761 556.777627 
L 524.254494 556.853863 
L 525.119228 558.196707 
L 525.983961 558.887813 
L 526.848694 559.787236 
L 527.713428 557.679328 
L 528.578161 557.213026 
L 529.442894 558.632746 
L 531.172361 558.928019 
L 532.037094 558.581355 
L 532.901827 558.864967 
L 533.766561 558.469331 
L 534.631294 559.278251 
L 535.496027 559.21642 
L 536.360761 558.051582 
L 537.225494 558.43008 
L 538.090227 557.640704 
L 538.954961 558.351169 
L 539.819694 558.40328 
L 540.684427 559.709348 
L 541.549161 559.438084 
L 542.413894 557.875646 
L 543.278627 559.03409 
L 544.143361 559.695664 
L 545.008094 559.186551 
L 545.872827 559.206828 
L 546.737561 560.082974 
L 547.602294 560.231297 
L 549.331761 559.135126 
L 550.196494 560.30844 
L 551.061227 560.050652 
L 551.925961 559.545876 
L 552.790694 560.043152 
L 553.655427 561.402262 
L 554.520161 559.783434 
L 555.384894 559.991286 
L 556.249627 560.721062 
L 557.114361 561.100269 
L 557.979094 560.749199 
L 558.843827 560.809809 
L 559.708561 561.405483 
L 561.438027 560.907811 
L 562.302761 562.027479 
L 563.167494 562.237575 
L 564.032227 561.285041 
L 564.896961 558.587669 
L 565.761694 560.610747 
L 566.626427 561.418493 
L 567.491161 563.106477 
L 568.355894 562.666509 
L 569.220627 561.488009 
L 570.085361 560.6395 
L 570.950094 562.451124 
L 572.679561 562.270746 
L 573.544294 561.951499 
L 574.409027 560.905997 
L 575.273761 560.723806 
L 576.138494 561.563862 
L 577.867961 561.778039 
L 578.732694 562.422429 
L 579.597427 562.491899 
L 580.462161 562.059209 
L 581.326894 563.057598 
L 583.056361 561.860321 
L 584.785827 563.829545 
L 585.650561 564.007911 
L 586.515294 563.111419 
L 587.380027 560.560938 
L 588.244761 558.773999 
L 589.109494 560.418011 
L 589.974227 561.701907 
L 590.83896 563.587999 
L 591.703694 563.492486 
L 592.568427 564.461948 
L 593.43316 564.485318 
L 594.297894 564.891056 
L 595.162627 563.970996 
L 596.02736 561.446142 
L 596.892094 562.863978 
L 597.756827 563.607695 
L 598.62156 563.799595 
L 599.486294 564.733642 
L 600.351027 563.558165 
L 601.21576 563.485323 
L 602.080494 563.228651 
L 602.945227 564.130376 
L 603.80996 564.479806 
L 604.674694 564.083578 
L 605.539427 565.49895 
L 606.40416 563.230965 
L 608.133627 563.910212 
L 608.99836 564.879302 
L 609.863094 565.139788 
L 610.727827 565.056831 
L 611.59256 565.562711 
L 612.457294 565.387763 
L 613.322027 565.413772 
L 614.18676 564.146281 
L 615.051494 563.588081 
L 615.916227 563.510902 
L 616.78096 563.829848 
L 617.645694 562.614189 
L 618.510427 564.323543 
L 619.37516 566.560356 
L 620.239894 566.135503 
L 621.104627 565.930721 
L 621.96936 564.872361 
L 622.834094 564.857374 
L 623.698827 565.355173 
L 624.56356 564.692227 
L 625.428294 564.251724 
L 626.293027 564.984919 
L 627.15776 563.680781 
L 628.022494 566.13984 
L 628.887227 567.040553 
L 629.75196 567.421108 
L 630.616694 566.318683 
L 631.481427 566.050349 
L 632.34616 566.334042 
L 633.210894 564.967061 
L 634.075627 564.662533 
L 634.94036 566.953004 
L 635.805094 567.301423 
L 636.669827 566.579366 
L 637.53456 567.665898 
L 638.399294 563.596336 
L 639.264027 565.070306 
L 640.12876 562.766778 
L 640.993494 563.220257 
L 641.858227 563.435456 
L 642.72296 565.710348 
L 643.587694 567.169994 
L 644.452427 567.845753 
L 646.181894 566.48076 
L 647.046627 566.742315 
L 647.91136 567.668351 
L 649.640827 568.52779 
L 650.50556 566.677077 
L 651.370293 566.011562 
L 652.235027 566.870489 
L 653.09976 567.189969 
L 653.964493 567.697476 
L 654.829227 565.524517 
L 655.69396 566.643174 
L 656.558693 566.929599 
L 657.423427 568.108436 
L 658.28816 568.839526 
L 659.152893 567.333361 
L 660.017627 565.294586 
L 660.88236 568.398105 
L 662.611827 567.472568 
L 663.47656 567.820255 
L 664.341293 567.949905 
L 665.206027 567.593905 
L 666.07076 566.491759 
L 666.935493 567.541457 
L 667.800227 567.931709 
L 668.66496 568.086891 
L 669.529693 568.479004 
L 671.25916 567.96795 
L 672.123893 568.596364 
L 672.988627 568.928134 
L 673.85336 567.550224 
L 674.718093 567.441734 
L 675.582827 566.352133 
L 676.44756 567.693082 
L 677.312293 567.17011 
L 678.177027 567.739403 
L 679.04176 569.109011 
L 679.906493 567.456245 
L 680.771227 569.22407 
L 681.63596 568.847595 
L 682.500693 569.580279 
L 683.365427 569.786863 
L 684.23016 569.724915 
L 685.094893 568.466435 
L 685.959627 568.633721 
L 686.82436 569.810512 
L 687.689093 569.139799 
L 688.553827 569.814058 
L 689.41856 569.499089 
L 690.283293 567.704534 
L 691.148027 567.554956 
L 692.01276 568.576157 
L 692.877493 570.17887 
L 693.742227 569.695465 
L 694.60696 569.514913 
L 695.471693 570.548136 
L 696.336427 570.095983 
L 697.20116 569.953323 
L 698.065893 569.252253 
L 698.930627 567.790386 
L 699.79536 568.870953 
L 701.524827 571.52361 
L 703.254293 570.415556 
L 704.119027 569.657678 
L 704.98376 567.330199 
L 706.713226 569.24301 
L 707.57796 571.462337 
L 708.442693 571.385181 
L 710.17216 568.681286 
L 711.036893 568.834655 
L 712.76636 570.484596 
L 714.495826 572.296219 
L 715.36056 571.951672 
L 716.225293 570.031966 
L 717.090026 569.34879 
L 717.95476 570.965793 
L 718.819493 571.479916 
L 719.684226 571.518645 
L 720.54896 569.347709 
L 721.413693 568.38456 
L 722.278426 570.100274 
L 724.007893 569.320746 
L 724.872626 570.877918 
L 725.73736 570.322659 
L 727.466826 571.833009 
L 728.33156 570.900741 
L 729.196293 572.586388 
L 730.061026 573.030356 
L 730.92576 573.675908 
L 731.790493 573.508994 
L 732.655226 572.289662 
L 733.51996 571.586231 
L 734.384693 568.800286 
L 735.249426 569.963252 
L 736.11416 572.135758 
L 736.978893 572.559321 
L 737.843626 571.703324 
L 738.70836 572.908496 
L 739.573093 572.080171 
L 740.437826 571.544096 
L 741.30256 571.578302 
L 742.167293 573.449338 
L 743.032026 572.6791 
L 743.89676 568.297185 
L 744.761493 568.555101 
L 745.626226 569.967438 
L 746.49096 572.660706 
L 747.355693 572.925366 
L 748.220426 572.212123 
L 749.08516 572.542544 
L 749.949893 573.149914 
L 750.814626 572.909693 
L 751.67936 574.014363 
L 752.544093 573.037995 
L 753.408826 573.016497 
L 754.27356 573.381321 
L 755.138293 574.040884 
L 756.86776 572.623931 
L 757.732493 572.568704 
L 758.597226 573.730635 
L 759.46196 574.474678 
L 760.326693 573.437316 
L 761.191426 573.327117 
L 762.920893 572.266559 
L 763.785626 572.713829 
L 764.650359 574.002771 
L 765.515093 573.976413 
L 766.379826 572.555972 
L 767.244559 572.465981 
L 768.109293 573.629855 
L 768.974026 574.452529 
L 770.703493 573.324559 
L 771.568226 573.045273 
L 772.432959 570.793938 
L 773.297693 567.132125 
L 774.162426 571.426049 
L 775.027159 573.848938 
L 775.891893 575.388692 
L 776.756626 576.110539 
L 777.621359 575.81615 
L 778.486093 575.236905 
L 779.350826 574.437658 
L 780.215559 574.101145 
L 781.080293 573.633447 
L 781.945026 573.501135 
L 782.809759 574.407592 
L 783.674493 570.351016 
L 784.539226 572.973524 
L 785.403959 573.751412 
L 786.268693 575.239149 
L 787.133426 575.313816 
L 787.998159 574.284732 
L 788.862893 574.806808 
L 789.727626 574.951491 
L 790.592359 574.42795 
L 791.457093 574.689726 
L 792.321826 572.365177 
L 793.186559 573.964112 
L 794.051293 574.796495 
L 794.916026 576.558042 
L 795.780759 574.848106 
L 796.645493 573.711974 
L 797.510226 575.230964 
L 798.374959 575.362009 
L 799.239693 574.961607 
L 800.104426 574.882672 
L 800.969159 574.056743 
L 801.833893 573.989447 
L 802.698626 575.694964 
L 803.563359 574.504722 
L 804.428093 575.303573 
L 805.292826 576.387768 
L 806.157559 576.587562 
L 807.022293 574.870023 
L 808.751759 574.666799 
L 809.616493 575.885713 
L 810.481226 573.83273 
L 811.345959 574.905194 
L 812.210693 575.611763 
L 813.075426 576.085356 
L 813.940159 576.961176 
L 814.804893 576.964699 
L 815.669626 575.230638 
L 816.534359 574.747907 
L 817.399093 575.736518 
L 818.263826 577.182619 
L 819.128559 576.892706 
L 819.993293 575.948486 
L 820.858026 576.281453 
L 821.722759 574.805203 
L 822.587492 572.409313 
L 823.452226 573.896863 
L 824.316959 574.818563 
L 825.181692 573.764609 
L 826.911159 577.328268 
L 827.775892 576.025152 
L 828.640626 576.724583 
L 829.505359 574.326728 
L 830.370092 573.213326 
L 831.234826 574.154024 
L 832.099559 575.670408 
L 832.964292 576.44625 
L 833.829026 576.019967 
L 834.693759 577.068584 
L 835.558492 574.934365 
L 836.423226 572.358655 
L 837.287959 576.380431 
L 838.152692 576.201647 
L 839.017426 575.253229 
L 839.882159 577.630017 
L 840.746892 577.810371 
L 841.611626 577.676373 
L 842.476359 577.166028 
L 844.205826 578.443925 
L 845.070559 578.366549 
L 845.935292 577.723973 
L 846.800026 578.35162 
L 847.664759 577.46108 
L 848.529492 575.663246 
L 850.258959 577.231882 
L 851.123692 576.72606 
L 851.988426 574.628605 
L 852.853159 576.273035 
L 853.717892 577.119928 
L 854.582626 577.320815 
L 855.447359 578.071845 
L 856.312092 579.216651 
L 857.176826 578.149326 
L 858.041559 578.576888 
L 858.906292 576.879568 
L 860.635759 574.838816 
L 861.500492 575.344511 
L 862.365226 576.695842 
L 863.229959 576.268466 
L 864.094692 576.799227 
L 864.959426 576.638731 
L 865.824159 578.645579 
L 866.688892 579.28819 
L 867.553626 578.3181 
L 868.418359 578.640708 
L 869.283092 575.576918 
L 870.147826 576.035431 
L 871.012559 575.225778 
L 871.877292 576.584562 
L 872.742026 578.416067 
L 873.606759 578.200914 
L 874.471492 579.443861 
L 875.336226 578.280022 
L 876.200959 578.1019 
L 877.065692 577.573523 
L 877.930426 579.645329 
L 878.795159 579.166969 
L 879.659892 579.168318 
L 880.524625 579.447465 
L 881.389359 578.796774 
L 883.118825 578.744721 
L 883.983559 578.402103 
L 884.848292 579.104987 
L 885.713025 573.786002 
L 886.577759 576.188334 
L 887.442492 577.006497 
L 888.307225 576.575575 
L 889.171959 576.670484 
L 890.036692 577.053923 
L 890.901425 579.334313 
L 891.766159 579.486624 
L 892.630892 580.164568 
L 893.495625 579.761585 
L 894.360359 579.500902 
L 895.225092 579.528829 
L 896.089825 578.923633 
L 896.954559 579.350661 
L 897.819292 578.291731 
L 898.684025 577.80593 
L 899.548759 578.444657 
L 900.413492 578.919947 
L 901.278225 578.8615 
L 902.142959 577.279319 
L 903.007692 577.775096 
L 903.872425 578.849431 
L 904.737159 580.906879 
L 905.601892 579.292283 
L 906.466625 578.671949 
L 907.331359 579.095953 
L 908.196092 580.251234 
L 909.060825 579.856599 
L 909.925559 579.636818 
L 910.790292 579.057259 
L 911.655025 579.156389 
L 912.519759 577.84624 
L 914.249225 579.571569 
L 915.113959 579.26725 
L 916.843425 579.451709 
L 917.708159 579.256112 
L 919.437625 579.696847 
L 920.302359 579.463742 
L 921.167092 579.817428 
L 922.031825 580.002247 
L 922.896559 579.017891 
L 923.761292 580.289905 
L 924.626025 580.9284 
L 925.490759 580.682599 
L 926.355492 580.940445 
L 927.220225 579.73346 
L 928.084959 579.2323 
L 928.949692 578.912367 
L 930.679159 579.812034 
L 931.543892 578.9294 
L 932.408625 576.919901 
L 933.273359 577.898107 
L 934.138092 579.950706 
L 935.002825 579.807522 
L 935.867559 580.675146 
L 936.732292 581.855331 
L 937.597025 580.238991 
L 938.461758 580.885927 
L 939.326492 580.549123 
L 940.191225 579.790361 
L 941.055958 578.721176 
L 941.920692 579.826997 
L 942.785425 580.296695 
L 943.650158 582.503604 
L 944.514892 581.919093 
L 945.379625 580.616466 
L 946.244358 581.205628 
L 947.109092 580.116817 
L 947.973825 580.779415 
L 948.838558 580.238887 
L 949.703292 580.683552 
L 950.568025 579.85589 
L 951.432758 579.400946 
L 952.297492 580.014211 
L 953.162225 580.136362 
L 954.026958 581.07063 
L 954.891692 581.567685 
L 955.756425 581.796163 
L 957.485892 580.52287 
L 958.350625 580.45554 
L 959.215358 579.930894 
L 960.080092 580.764811 
L 960.944825 579.520097 
L 962.674292 579.565511 
L 963.539025 581.274261 
L 964.403758 580.665147 
L 965.268492 581.143634 
L 966.133225 581.159807 
L 966.997958 580.192089 
L 967.862692 580.53616 
L 968.727425 581.435408 
L 969.592158 582.64266 
L 970.456892 582.807772 
L 971.321625 580.285382 
L 972.186358 581.567453 
L 973.051092 582.182601 
L 973.915825 583.071141 
L 974.780558 582.629499 
L 976.510025 581.387192 
L 977.374758 582.412183 
L 978.239492 580.671076 
L 979.104225 578.611141 
L 979.968958 577.62525 
L 980.833692 579.815719 
L 981.698425 582.835327 
L 982.563158 582.882869 
L 983.427892 580.911192 
L 984.292625 582.35105 
L 985.157358 582.139454 
L 986.022092 582.221493 
L 986.886825 582.176927 
L 987.751558 582.880009 
L 988.616292 582.547856 
L 989.481025 582.860395 
L 990.345758 582.624383 
L 991.210492 581.125683 
L 992.075225 582.803668 
L 992.939958 582.673204 
L 993.804692 581.53563 
L 994.669425 580.870661 
L 995.534158 580.406486 
L 996.398891 579.620553 
L 997.263625 581.124613 
L 998.128358 581.604519 
L 998.993091 583.862226 
L 999.857825 582.875265 
L 1000.722558 584.651648 
L 1001.587291 583.576626 
L 1002.452025 583.308281 
L 1002.452025 583.308281 
" clip-path="url(#p93cbe8efb0)" style="fill: none; stroke: #4c72b0; stroke-width: 6; stroke-linecap: round"/>
   </g>
   <g id="line2d_13">
    <path d="M 138.58343 476.047406 
L 139.448163 496.715733 
L 140.312896 497.337252 
L 141.17763 498.59564 
L 142.042363 499.446207 
L 142.907096 499.533058 
L 143.77183 499.287408 
L 144.636563 499.75685 
L 145.501296 500.046938 
L 146.36603 499.920183 
L 147.230763 500.364302 
L 148.095496 500.198853 
L 149.824963 500.177297 
L 150.689696 499.644536 
L 151.55443 499.435324 
L 152.419163 498.6694 
L 153.283896 499.297524 
L 154.14863 500.661947 
L 155.013363 500.355093 
L 155.878096 500.386393 
L 156.74283 500.637089 
L 157.607563 500.255313 
L 158.472296 500.700083 
L 159.33703 500.444596 
L 160.201763 499.834354 
L 161.066496 500.553981 
L 161.93123 499.713715 
L 162.795963 500.35028 
L 163.660696 500.024103 
L 164.52543 500.119931 
L 165.390163 499.427906 
L 166.254896 500.084632 
L 167.11963 500.398229 
L 167.984363 500.499288 
L 168.849096 500.193923 
L 169.71383 500.744799 
L 171.443296 499.960132 
L 172.30803 498.767553 
L 173.172763 499.317359 
L 174.037496 500.448014 
L 174.90223 498.836383 
L 176.631696 499.550313 
L 177.49643 499.311336 
L 178.361163 499.686253 
L 179.225896 499.28313 
L 180.09063 497.528745 
L 180.955363 499.443207 
L 181.820096 498.346455 
L 182.684829 498.682515 
L 183.549563 497.745189 
L 184.414296 498.80055 
L 185.279029 498.28288 
L 186.143763 496.963824 
L 187.008496 496.943594 
L 187.873229 496.76517 
L 188.737963 497.990304 
L 189.602696 497.632665 
L 190.467429 495.85998 
L 191.332163 496.970149 
L 192.196896 496.935339 
L 193.061629 495.511945 
L 193.926363 495.589681 
L 194.791096 494.906865 
L 195.655829 495.496946 
L 196.520563 493.70417 
L 198.250029 495.213091 
L 199.114763 494.55011 
L 199.979496 493.076209 
L 200.844229 493.70217 
L 201.708963 494.74623 
L 202.573696 493.131855 
L 203.438429 493.339532 
L 204.303163 492.860998 
L 205.167896 493.99749 
L 206.032629 493.002007 
L 206.897363 494.06439 
L 207.762096 492.401392 
L 208.626829 492.107375 
L 209.491563 490.965185 
L 210.356296 491.084987 
L 211.221029 487.182467 
L 212.085763 492.18253 
L 212.950496 493.276003 
L 213.815229 490.685725 
L 214.679963 489.172735 
L 215.544696 488.512474 
L 217.274163 488.329795 
L 218.138896 488.959151 
L 219.003629 489.38304 
L 219.868363 488.168532 
L 220.733096 483.748481 
L 221.597829 488.658553 
L 222.462563 487.332103 
L 223.327296 486.603896 
L 224.192029 488.37493 
L 225.056763 487.474763 
L 225.921496 484.794284 
L 226.786229 485.572254 
L 227.650963 486.656147 
L 229.380429 486.765252 
L 230.245163 483.866376 
L 231.109896 483.506737 
L 231.974629 483.687022 
L 232.839363 483.54671 
L 233.704096 482.46784 
L 234.568829 480.048196 
L 235.433563 481.20071 
L 237.163029 480.085773 
L 238.027763 481.622761 
L 238.892496 482.630731 
L 239.757229 479.214534 
L 240.621962 481.69594 
L 241.486696 481.314931 
L 242.351429 480.516708 
L 243.216162 481.250426 
L 244.080896 477.708334 
L 244.945629 478.506441 
L 245.810362 475.414422 
L 246.675096 478.565808 
L 247.539829 477.517841 
L 248.404562 477.573464 
L 249.269296 474.487025 
L 250.134029 476.797494 
L 250.998762 477.061654 
L 251.863496 475.9383 
L 252.728229 474.312321 
L 253.592962 473.035285 
L 254.457696 474.398964 
L 255.322429 472.85714 
L 256.187162 473.149297 
L 257.051896 471.260856 
L 258.781362 471.043319 
L 259.646096 471.122614 
L 260.510829 471.481741 
L 261.375562 466.383129 
L 262.240296 470.372735 
L 263.105029 469.490659 
L 263.969762 465.358835 
L 264.834496 464.641185 
L 265.699229 466.560716 
L 267.428696 468.257781 
L 268.293429 466.294254 
L 269.158162 467.084246 
L 270.022896 465.676339 
L 270.887629 463.630936 
L 271.752362 463.730066 
L 272.617096 461.681013 
L 273.481829 462.760441 
L 274.346562 457.952894 
L 275.211296 466.473609 
L 276.076029 456.96255 
L 276.940762 465.825533 
L 277.805496 461.702895 
L 278.670229 461.891016 
L 279.534962 460.296825 
L 280.399696 459.743972 
L 281.264429 456.870768 
L 282.129162 459.228093 
L 282.993896 459.801315 
L 283.858629 461.908828 
L 284.723362 460.721503 
L 285.588096 459.166239 
L 286.452829 454.201358 
L 287.317562 457.839998 
L 288.182296 456.504874 
L 289.047029 456.072568 
L 289.911762 451.575106 
L 290.776496 445.767634 
L 291.641229 455.49509 
L 292.505962 450.420546 
L 293.370696 450.199335 
L 294.235429 450.374085 
L 295.100162 452.841469 
L 295.964896 448.895069 
L 296.829629 449.157345 
L 297.694362 449.935059 
L 298.559096 450.928938 
L 299.423829 448.416605 
L 300.288562 443.834895 
L 301.153295 447.89161 
L 302.018029 448.32094 
L 302.882762 443.001908 
L 303.747495 443.302413 
L 304.612229 443.779738 
L 305.476962 440.556289 
L 306.341695 446.212939 
L 307.206429 447.540133 
L 308.071162 447.606569 
L 308.935895 446.270352 
L 309.800629 444.158003 
L 311.530095 446.127413 
L 312.394829 443.108967 
L 313.259562 436.97469 
L 314.124295 443.322644 
L 314.989029 443.69549 
L 315.853762 442.267399 
L 316.718495 441.495685 
L 317.583229 433.045777 
L 318.447962 439.088063 
L 319.312695 436.972667 
L 320.177429 445.252685 
L 321.042162 441.719593 
L 321.906895 430.717821 
L 322.771629 436.933857 
L 323.636362 435.242676 
L 324.501095 435.738534 
L 325.365829 431.425239 
L 326.230562 434.278259 
L 327.095295 429.317774 
L 327.960029 433.31382 
L 328.824762 431.222167 
L 329.689495 431.029674 
L 330.554229 432.528619 
L 331.418962 431.139454 
L 332.283695 432.867957 
L 333.148429 430.871922 
L 334.013162 423.418264 
L 334.877895 432.258715 
L 335.742629 430.545443 
L 336.607362 428.211069 
L 338.336829 425.579144 
L 339.201562 424.828241 
L 340.066295 428.055015 
L 340.931029 428.679348 
L 341.795762 418.464289 
L 342.660495 427.315483 
L 343.525229 427.53302 
L 344.389962 430.207639 
L 345.254695 423.726769 
L 346.119429 424.680349 
L 346.984162 418.030263 
L 347.848895 426.104998 
L 348.713629 423.189938 
L 349.578362 424.240509 
L 351.307829 419.021211 
L 352.172562 418.951846 
L 353.037295 414.066585 
L 353.902029 417.69304 
L 354.766762 417.609932 
L 355.631495 421.264338 
L 356.496229 413.122957 
L 357.360962 411.471865 
L 358.225695 412.631959 
L 359.090428 412.669514 
L 359.955162 411.884964 
L 360.819895 414.401947 
L 361.684628 411.329274 
L 362.549362 407.371852 
L 363.414095 413.255921 
L 364.278828 408.480533 
L 365.143562 411.0247 
L 366.008295 402.479429 
L 366.873028 406.249405 
L 367.737762 408.808291 
L 368.602495 412.227953 
L 369.467228 410.649225 
L 370.331962 403.007005 
L 371.196695 408.134312 
L 372.061428 408.947696 
L 372.926162 408.80864 
L 373.790895 403.165687 
L 374.655628 399.628269 
L 376.385095 406.242941 
L 377.249828 408.510925 
L 378.114562 406.336234 
L 378.979295 403.302464 
L 379.844028 401.20237 
L 381.573495 406.046472 
L 382.438228 401.043176 
L 383.302962 403.949679 
L 384.167695 409.268083 
L 385.032428 402.601905 
L 385.897162 401.905277 
L 388.491362 391.691148 
L 389.356095 396.067645 
L 390.220828 392.828826 
L 391.085562 399.765256 
L 391.950295 396.552597 
L 392.815028 395.840528 
L 393.679762 392.745764 
L 394.544495 390.959662 
L 395.409228 396.048833 
L 396.273962 393.740015 
L 397.138695 389.912952 
L 398.003428 389.006134 
L 398.868162 383.035539 
L 399.732895 388.236257 
L 400.597628 390.481663 
L 401.462362 386.901622 
L 402.327095 385.327591 
L 403.191828 379.312442 
L 404.056562 391.057001 
L 404.921295 384.52674 
L 405.786028 383.474845 
L 406.650762 380.221632 
L 407.515495 387.046677 
L 408.380228 388.526507 
L 409.244962 379.313582 
L 410.109695 374.962175 
L 410.974428 383.807672 
L 411.839162 383.189547 
L 412.703895 385.004344 
L 413.568628 379.463288 
L 414.433362 382.863719 
L 415.298095 380.817224 
L 416.162828 379.554046 
L 417.027561 382.056031 
L 417.892295 377.717019 
L 418.757028 375.321209 
L 419.621761 372.185357 
L 420.486495 373.227742 
L 421.351228 367.431176 
L 422.215961 372.732698 
L 423.080695 368.559204 
L 423.945428 367.719962 
L 424.810161 374.890392 
L 425.674895 375.965518 
L 426.539628 379.183944 
L 427.404361 377.192094 
L 428.269095 374.750312 
L 429.133828 371.866598 
L 429.998561 364.834735 
L 430.863295 367.471358 
L 431.728028 356.927797 
L 432.592761 373.565592 
L 433.457495 369.122195 
L 434.322228 371.548467 
L 435.186961 363.847763 
L 436.051695 365.632354 
L 436.916428 373.429187 
L 437.781161 359.780352 
L 438.645895 367.480915 
L 440.375361 360.793345 
L 441.240095 365.32192 
L 442.104828 352.700773 
L 442.969561 360.75593 
L 443.834295 352.297534 
L 444.699028 361.667793 
L 445.563761 360.072253 
L 446.428495 362.361748 
L 447.293228 360.812738 
L 448.157961 363.86325 
L 449.022695 363.227267 
L 449.887428 365.023135 
L 450.752161 349.5399 
L 451.616895 352.934029 
L 452.481628 358.691901 
L 453.346361 351.17911 
L 454.211095 353.833312 
L 455.075828 352.830877 
L 455.940561 349.749949 
L 456.805295 355.351604 
L 457.670028 352.567228 
L 458.534761 351.8433 
L 459.399495 348.365435 
L 460.264228 348.624153 
L 461.128961 353.590895 
L 461.993695 360.163802 
L 462.858428 351.196201 
L 463.723161 355.976263 
L 464.587895 354.036711 
L 465.452628 351.20141 
L 466.317361 339.555586 
L 467.182095 342.60154 
L 468.046828 342.280921 
L 468.911561 336.25354 
L 469.776295 341.40603 
L 471.505761 348.017772 
L 472.370495 346.649326 
L 473.235228 347.770424 
L 474.099961 349.814245 
L 474.964694 349.832894 
L 475.829428 346.021504 
L 477.558894 345.555713 
L 478.423628 347.550074 
L 480.153094 341.932955 
L 481.017828 329.90268 
L 481.882561 330.869701 
L 482.747294 343.090166 
L 483.612028 346.091497 
L 484.476761 341.309761 
L 485.341494 325.474002 
L 486.206228 333.060042 
L 487.070961 338.794452 
L 487.935694 334.610866 
L 488.800428 334.623888 
L 489.665161 341.209794 
L 491.394628 333.220445 
L 492.259361 325.586596 
L 493.124094 328.130716 
L 493.988828 332.523956 
L 494.853561 320.700568 
L 495.718294 331.539263 
L 496.583028 326.150075 
L 497.447761 317.68668 
L 498.312494 330.234927 
L 499.177228 327.588444 
L 500.041961 327.930782 
L 500.906694 328.108439 
L 501.771428 325.22012 
L 502.636161 327.550448 
L 503.500894 327.412508 
L 504.365628 321.905193 
L 505.230361 319.650439 
L 506.095094 324.508888 
L 506.959828 325.349549 
L 507.824561 323.991079 
L 508.689294 322.095918 
L 510.418761 314.328826 
L 511.283494 328.242845 
L 512.148228 313.096111 
L 513.012961 322.899792 
L 513.877694 315.884905 
L 514.742428 316.553071 
L 515.607161 327.500685 
L 516.471894 313.071136 
L 517.336628 318.235835 
L 518.201361 311.464691 
L 519.066094 321.127688 
L 519.930828 320.467195 
L 520.795561 316.807976 
L 521.660294 320.534724 
L 522.525028 311.739501 
L 523.389761 309.816528 
L 524.254494 309.811552 
L 525.119228 307.568146 
L 525.983961 309.665287 
L 526.848694 314.268785 
L 527.713428 316.115672 
L 528.578161 316.287795 
L 529.442894 306.188608 
L 530.307628 307.921367 
L 531.172361 307.011131 
L 532.037094 303.121656 
L 532.901827 312.5943 
L 533.766561 308.772213 
L 534.631294 304.304469 
L 535.496027 311.849722 
L 536.360761 296.239546 
L 537.225494 315.41337 
L 538.090227 302.306062 
L 538.954961 302.162076 
L 539.819694 306.278971 
L 540.684427 304.107047 
L 541.549161 305.312369 
L 542.413894 299.153444 
L 543.278627 307.752453 
L 544.143361 301.973165 
L 545.008094 307.526894 
L 545.872827 309.209798 
L 546.737561 308.856391 
L 547.602294 307.357702 
L 548.467027 299.441927 
L 549.331761 310.042785 
L 550.196494 302.83508 
L 551.061227 299.13419 
L 551.925961 306.336454 
L 552.790694 300.102094 
L 553.655427 303.846328 
L 554.520161 294.033439 
L 555.384894 301.585529 
L 556.249627 296.980915 
L 557.114361 297.12997 
L 557.979094 295.997431 
L 558.843827 292.286681 
L 559.708561 301.524326 
L 560.573294 295.487434 
L 561.438027 291.227437 
L 562.302761 290.232141 
L 563.167494 287.91623 
L 564.032227 300.155345 
L 564.896961 294.827918 
L 565.761694 292.8523 
L 566.626427 293.152642 
L 567.491161 286.212724 
L 568.355894 295.772476 
L 569.220627 291.435649 
L 570.085361 289.842551 
L 570.950094 279.667837 
L 571.814827 288.67848 
L 572.679561 295.436835 
L 573.544294 280.435528 
L 574.409027 281.325533 
L 575.273761 286.12357 
L 576.138494 287.245134 
L 577.003227 292.985496 
L 577.867961 279.094173 
L 578.732694 291.329613 
L 579.597427 285.931171 
L 580.462161 275.276737 
L 581.326894 279.487622 
L 582.191627 275.7612 
L 583.056361 286.443539 
L 583.921094 285.548185 
L 584.785827 277.307326 
L 585.650561 281.466589 
L 586.515294 273.664152 
L 587.380027 269.297561 
L 588.244761 283.370633 
L 589.974227 275.823845 
L 590.83896 282.040346 
L 591.703694 286.541296 
L 592.568427 285.744352 
L 593.43316 282.859847 
L 594.297894 277.601297 
L 595.162627 278.442842 
L 596.02736 278.265743 
L 596.892094 277.921731 
L 598.62156 282.130291 
L 599.486294 280.216992 
L 600.351027 270.920703 
L 601.21576 263.605287 
L 602.080494 280.270243 
L 602.945227 276.301938 
L 603.80996 266.735675 
L 604.674694 268.695062 
L 605.539427 271.44665 
L 606.40416 275.337382 
L 607.268894 271.041202 
L 608.133627 271.51562 
L 608.99836 278.449632 
L 609.863094 276.707572 
L 610.727827 259.875423 
L 611.59256 267.355706 
L 612.457294 265.405388 
L 613.322027 263.947253 
L 614.18676 264.722339 
L 615.051494 253.703383 
L 615.916227 266.726606 
L 616.78096 268.329145 
L 617.645694 274.838594 
L 618.510427 259.516064 
L 619.37516 264.435623 
L 620.239894 256.696389 
L 621.104627 255.45028 
L 621.96936 257.816278 
L 622.834094 250.935471 
L 624.56356 272.728198 
L 625.428294 260.874999 
L 626.293027 263.634819 
L 627.15776 251.375474 
L 628.022494 252.683344 
L 628.887227 259.051505 
L 629.75196 255.838939 
L 630.616694 264.658438 
L 631.481427 262.296951 
L 632.34616 249.646017 
L 633.210894 265.018868 
L 634.075627 260.369142 
L 634.94036 252.519361 
L 635.805094 250.835853 
L 636.669827 256.254712 
L 637.53456 249.826697 
L 638.399294 250.267769 
L 639.264027 266.636661 
L 640.12876 268.157953 
L 640.993494 244.255341 
L 641.858227 251.719858 
L 642.72296 250.91831 
L 643.587694 261.289888 
L 644.452427 250.732561 
L 645.31716 254.289836 
L 646.181894 253.869087 
L 647.046627 251.104291 
L 647.91136 252.52522 
L 648.776093 251.461558 
L 649.640827 253.166924 
L 650.50556 253.969124 
L 651.370293 242.442218 
L 652.235027 243.3079 
L 653.09976 251.747437 
L 653.964493 245.733334 
L 654.829227 248.365399 
L 655.69396 249.078631 
L 656.558693 246.134643 
L 657.423427 243.665213 
L 658.28816 253.295795 
L 659.152893 251.695721 
L 660.017627 246.063999 
L 660.88236 245.230547 
L 661.747093 250.513792 
L 662.611827 244.408814 
L 663.47656 230.754677 
L 664.341293 238.390712 
L 665.206027 237.235664 
L 666.935493 259.004068 
L 667.800227 249.656853 
L 668.66496 236.307848 
L 669.529693 242.169594 
L 670.394427 238.655663 
L 671.25916 238.389921 
L 672.123893 249.625321 
L 672.988627 228.845936 
L 674.718093 241.089143 
L 675.582827 245.288216 
L 676.44756 230.536652 
L 677.312293 247.809315 
L 678.177027 241.226245 
L 679.04176 230.377365 
L 679.906493 236.396212 
L 680.771227 228.409235 
L 681.63596 228.09508 
L 682.500693 239.122686 
L 683.365427 230.42857 
L 684.23016 241.156159 
L 685.094893 239.317923 
L 685.959627 229.311471 
L 686.82436 232.555754 
L 687.689093 233.257546 
L 688.553827 229.671854 
L 689.41856 240.382003 
L 690.283293 233.601837 
L 691.148027 222.424943 
L 692.01276 234.213823 
L 692.877493 226.607413 
L 693.742227 226.753259 
L 694.60696 224.987201 
L 695.471693 228.375936 
L 696.336427 218.80372 
L 697.20116 225.545983 
L 698.065893 218.724146 
L 698.930627 221.000712 
L 699.79536 235.302041 
L 700.660093 226.943938 
L 701.524827 219.88366 
L 702.38956 222.898896 
L 703.254293 219.955885 
L 704.119027 229.0601 
L 704.98376 224.035156 
L 705.848493 221.428344 
L 706.713226 232.592821 
L 707.57796 229.036289 
L 708.442693 210.249218 
L 709.307426 216.140635 
L 710.17216 225.747126 
L 711.036893 218.359113 
L 711.901626 225.445946 
L 712.76636 227.678935 
L 713.631093 209.538311 
L 714.495826 218.055282 
L 715.36056 205.555356 
L 716.225293 211.654567 
L 717.090026 213.104377 
L 718.819493 214.521074 
L 719.684226 212.753528 
L 720.54896 201.884882 
L 721.413693 210.606205 
L 722.278426 191.121854 
L 723.14316 201.96027 
L 724.007893 220.470439 
L 724.872626 211.698562 
L 725.73736 210.375949 
L 726.602093 214.289283 
L 727.466826 209.768009 
L 728.33156 218.571231 
L 729.196293 212.087361 
L 730.061026 216.256995 
L 730.92576 212.689395 
L 731.790493 206.352533 
L 732.655226 210.18048 
L 733.51996 220.012019 
L 734.384693 200.919164 
L 735.249426 219.712886 
L 736.11416 199.790764 
L 736.978893 205.552659 
L 737.843626 215.444657 
L 738.70836 206.568605 
L 739.573093 214.732634 
L 740.437826 208.749924 
L 741.30256 209.601235 
L 742.167293 212.107034 
L 743.032026 208.541991 
L 743.89676 221.131676 
L 744.761493 197.603213 
L 745.626226 207.288906 
L 746.49096 197.560985 
L 747.355693 196.695954 
L 748.220426 202.38274 
L 749.08516 204.176795 
L 749.949893 199.162222 
L 750.814626 212.763852 
L 751.67936 197.671067 
L 752.544093 193.967061 
L 754.27356 190.452618 
L 755.138293 195.148386 
L 756.003026 198.856763 
L 756.86776 199.666265 
L 757.732493 201.009481 
L 758.597226 198.699756 
L 759.46196 193.127981 
L 760.326693 201.510222 
L 761.191426 190.18325 
L 762.05616 194.711964 
L 762.920893 196.932907 
L 763.785626 194.669271 
L 764.650359 197.165396 
L 765.515093 198.32263 
L 766.379826 197.864071 
L 767.244559 194.19369 
L 768.109293 188.15945 
L 768.974026 194.683409 
L 769.838759 189.361889 
L 770.703493 193.324241 
L 771.568226 185.733085 
L 772.432959 203.915426 
L 773.297693 199.417731 
L 774.162426 189.077591 
L 775.027159 191.89615 
L 775.891893 196.141265 
L 776.756626 182.091213 
L 777.621359 190.571397 
L 778.486093 194.654668 
L 779.350826 182.355373 
L 780.215559 191.02898 
L 781.080293 189.44709 
L 781.945026 178.031894 
L 782.809759 175.627899 
L 783.674493 184.954418 
L 784.539226 186.227362 
L 785.403959 184.050833 
L 786.268693 180.555179 
L 787.133426 188.968579 
L 787.998159 184.121105 
L 788.862893 178.327399 
L 789.727626 185.663278 
L 790.592359 187.280793 
L 791.457093 184.612312 
L 792.321826 187.340089 
L 793.186559 178.66225 
L 794.051293 179.512073 
L 794.916026 184.687421 
L 795.780759 188.589035 
L 796.645493 173.225393 
L 797.510226 179.312325 
L 798.374959 182.865462 
L 799.239693 187.359808 
L 800.104426 182.897831 
L 800.969159 187.498585 
L 801.833893 176.22877 
L 802.698626 181.788173 
L 803.563359 181.993037 
L 804.428093 176.417123 
L 805.292826 177.401305 
L 806.157559 174.332074 
L 807.022293 179.711588 
L 807.887026 176.829269 
L 808.751759 177.487296 
L 809.616493 178.764007 
L 810.481226 185.538174 
L 811.345959 173.954902 
L 812.210693 172.237118 
L 813.075426 180.116013 
L 813.940159 167.949822 
L 814.804893 163.128578 
L 815.669626 177.726901 
L 816.534359 168.08925 
L 817.399093 171.469008 
L 818.263826 172.967 
L 819.128559 162.846699 
L 819.993293 171.744283 
L 820.858026 176.453445 
L 821.722759 159.560791 
L 822.587492 169.880235 
L 823.452226 159.307932 
L 824.316959 187.179965 
L 825.181692 178.450364 
L 826.046426 165.889188 
L 826.911159 171.08886 
L 827.775892 173.491552 
L 828.640626 167.966657 
L 829.505359 169.633515 
L 830.370092 163.812836 
L 831.234826 172.907796 
L 832.099559 179.873944 
L 832.964292 163.661641 
L 833.829026 167.2258 
L 835.558492 172.660332 
L 836.423226 169.561848 
L 837.287959 160.652776 
L 838.152692 168.793738 
L 839.017426 169.468229 
L 839.882159 164.009932 
L 840.746892 171.215359 
L 841.611626 172.142756 
L 842.476359 167.886619 
L 843.341092 152.504838 
L 844.205826 153.062504 
L 845.070559 163.782653 
L 845.935292 157.739437 
L 846.800026 153.541712 
L 847.664759 155.783025 
L 848.529492 164.092017 
L 849.394226 160.865453 
L 850.258959 158.467504 
L 851.123692 150.077497 
L 851.988426 150.228133 
L 852.853159 160.764114 
L 853.717892 162.6656 
L 855.447359 153.238301 
L 856.312092 144.997535 
L 857.176826 155.833858 
L 858.041559 160.739465 
L 858.906292 155.500635 
L 859.771026 154.914507 
L 860.635759 154.183928 
L 861.500492 156.392593 
L 862.365226 162.11784 
L 863.229959 154.75922 
L 864.094692 135.353233 
L 864.959426 153.159239 
L 865.824159 145.127708 
L 866.688892 146.959805 
L 867.553626 158.428531 
L 868.418359 155.313537 
L 869.283092 165.636283 
L 870.147826 141.727114 
L 871.012559 163.56379 
L 871.877292 156.902636 
L 872.742026 153.334198 
L 873.606759 146.471993 
L 874.471492 143.997447 
L 875.336226 148.891707 
L 876.200959 144.428847 
L 877.065692 152.244538 
L 877.930426 151.844764 
L 878.795159 147.747634 
L 879.659892 148.599736 
L 880.524625 146.018596 
L 881.389359 154.46883 
L 882.254092 144.571065 
L 883.118825 144.441171 
L 883.983559 148.779672 
L 884.848292 151.898666 
L 885.713025 138.519431 
L 886.577759 142.359377 
L 887.442492 136.047536 
L 888.307225 138.453903 
L 889.171959 129.089574 
L 890.036692 127.600791 
L 890.901425 142.583634 
L 891.766159 143.280449 
L 892.630892 139.880041 
L 893.495625 133.520391 
L 894.360359 142.506851 
L 895.225092 149.741298 
L 896.089825 134.153538 
L 896.954559 135.75696 
L 897.819292 134.757338 
L 898.684025 134.068755 
L 899.548759 145.377683 
L 901.278225 121.860289 
L 902.142959 124.308093 
L 903.007692 144.301092 
L 903.872425 136.94168 
L 904.737159 141.531877 
L 905.601892 134.819983 
L 906.466625 138.381119 
L 907.331359 137.603475 
L 908.196092 133.98867 
L 909.060825 139.160159 
L 909.925559 141.709255 
L 910.790292 122.517805 
L 911.655025 116.640433 
L 912.519759 136.81253 
L 913.384492 123.951896 
L 914.249225 137.357593 
L 915.113959 140.457612 
L 915.978692 138.43051 
L 916.843425 133.360128 
L 917.708159 141.720789 
L 918.572892 127.682364 
L 919.437625 133.647262 
L 920.302359 125.173636 
L 921.167092 119.05559 
L 922.031825 132.061001 
L 922.896559 129.12557 
L 923.761292 139.405995 
L 924.626025 121.369361 
L 925.490759 120.949588 
L 926.355492 121.936188 
L 927.220225 108.815626 
L 928.084959 118.933881 
L 928.949692 140.161966 
L 929.814425 117.925237 
L 930.679159 122.268481 
L 931.543892 122.097335 
L 932.408625 126.828867 
L 933.273359 126.868119 
L 934.138092 123.466549 
L 935.002825 116.398364 
L 935.867559 123.348049 
L 936.732292 116.042911 
L 937.597025 123.573701 
L 938.461758 123.810887 
L 939.326492 123.395672 
L 940.191225 127.612185 
L 941.055958 101.73628 
L 941.920692 109.7886 
L 942.785425 107.136304 
L 944.514892 123.157882 
L 945.379625 123.380418 
L 946.244358 108.19778 
L 947.109092 115.826235 
L 947.973825 102.648051 
L 948.838558 124.12053 
L 949.703292 118.235996 
L 950.568025 116.327162 
L 951.432758 128.475634 
L 952.297492 102.298876 
L 953.162225 116.927103 
L 954.026958 116.192478 
L 954.891692 122.318011 
L 955.756425 119.971081 
L 956.621158 116.466218 
L 957.485892 112.103254 
L 958.350625 120.156458 
L 959.215358 113.823875 
L 960.080092 115.145558 
L 960.944825 108.844879 
L 961.809558 98.105477 
L 962.674292 120.934241 
L 963.539025 111.124793 
L 964.403758 113.867033 
L 965.268492 128.076325 
L 966.133225 109.3885 
L 966.997958 110.303712 
L 967.862692 119.002618 
L 968.727425 118.449882 
L 969.592158 113.855639 
L 970.456892 118.717298 
L 971.321625 97.431032 
L 972.186358 97.932843 
L 973.051092 101.797204 
L 973.915825 98.839358 
L 974.780558 104.808534 
L 975.645292 106.559338 
L 976.510025 107.19374 
L 977.374758 103.819981 
L 978.239492 95.177766 
L 979.104225 102.727857 
L 979.968958 127.37393 
L 980.833692 102.752226 
L 981.698425 98.100407 
L 982.563158 89.146038 
L 983.427892 105.07209 
L 984.292625 105.129479 
L 985.157358 94.576756 
L 986.022092 109.313391 
L 986.886825 106.137659 
L 987.751558 117.818084 
L 988.616292 99.965758 
L 989.481025 97.676403 
L 990.345758 101.476585 
L 991.210492 102.010997 
L 992.075225 107.313635 
L 992.939958 108.081513 
L 993.804692 106.16054 
L 994.669425 102.276599 
L 995.534158 94.547085 
L 996.398891 79.797102 
L 998.128358 100.630111 
L 998.993091 104.595532 
L 999.857825 98.273507 
L 1000.722558 98.240859 
L 1001.587291 97.318299 
L 1002.452025 112.136879 
L 1002.452025 112.136879 
" clip-path="url(#p93cbe8efb0)" style="fill: none; stroke: #dd8452; stroke-width: 6; stroke-linecap: round"/>
   </g>
   <g id="line2d_14"/>
   <g id="line2d_15"/>
   <g id="patch_3">
    <path d="M 95.39 609.894375 
L 95.39 54.554375 
" style="fill: none; stroke: #cccccc; stroke-width: 1.875; stroke-linejoin: miter; stroke-linecap: square"/>
   </g>
   <g id="patch_4">
    <path d="M 1045.645455 609.894375 
L 1045.645455 54.554375 
" style="fill: none; stroke: #cccccc; stroke-width: 1.875; stroke-linejoin: miter; stroke-linecap: square"/>
   </g>
   <g id="patch_5">
    <path d="M 95.39 609.894375 
L 1045.645455 609.894375 
" style="fill: none; stroke: #cccccc; stroke-width: 1.875; stroke-linejoin: miter; stroke-linecap: square"/>
   </g>
   <g id="patch_6">
    <path d="M 95.39 54.554375 
L 1045.645455 54.554375 
" style="fill: none; stroke: #cccccc; stroke-width: 1.875; stroke-linejoin: miter; stroke-linecap: square"/>
   </g>
   <g id="text_14">
    <!-- Training Progress: Loss -->
    <g style="fill: #262626" transform="translate(333.519602 34.554375) scale(0.36 -0.36)">
     <defs>
      <path id="DejaVuSans-Bold-54" d="M 31 4666 
L 4331 4666 
L 4331 3756 
L 2784 3756 
L 2784 0 
L 1581 0 
L 1581 3756 
L 31 3756 
L 31 4666 
z
" transform="scale(0.015625)"/>
      <path id="DejaVuSans-Bold-72" d="M 3138 2547 
Q 2991 2616 2845 2648 
Q 2700 2681 2553 2681 
Q 2122 2681 1889 2404 
Q 1656 2128 1656 1613 
L 1656 0 
L 538 0 
L 538 3500 
L 1656 3500 
L 1656 2925 
Q 1872 3269 2151 3426 
Q 2431 3584 2822 3584 
Q 2878 3584 2943 3579 
Q 3009 3575 3134 3559 
L 3138 2547 
z
" transform="scale(0.015625)"/>
      <path id="DejaVuSans-Bold-61" d="M 2106 1575 
Q 1756 1575 1579 1456 
Q 1403 1338 1403 1106 
Q 1403 894 1545 773 
Q 1688 653 1941 653 
Q 2256 653 2472 879 
Q 2688 1106 2688 1447 
L 2688 1575 
L 2106 1575 
z
M 3816 1997 
L 3816 0 
L 2688 0 
L 2688 519 
Q 2463 200 2181 54 
Q 1900 -91 1497 -91 
Q 953 -91 614 226 
Q 275 544 275 1050 
Q 275 1666 698 1953 
Q 1122 2241 2028 2241 
L 2688 2241 
L 2688 2328 
Q 2688 2594 2478 2717 
Q 2269 2841 1825 2841 
Q 1466 2841 1156 2769 
Q 847 2697 581 2553 
L 581 3406 
Q 941 3494 1303 3539 
Q 1666 3584 2028 3584 
Q 2975 3584 3395 3211 
Q 3816 2838 3816 1997 
z
" transform="scale(0.015625)"/>
      <path id="DejaVuSans-Bold-69" d="M 538 3500 
L 1656 3500 
L 1656 0 
L 538 0 
L 538 3500 
z
M 538 4863 
L 1656 4863 
L 1656 3950 
L 538 3950 
L 538 4863 
z
" transform="scale(0.015625)"/>
      <path id="DejaVuSans-Bold-6e" d="M 4056 2131 
L 4056 0 
L 2931 0 
L 2931 347 
L 2931 1631 
Q 2931 2084 2911 2256 
Q 2891 2428 2841 2509 
Q 2775 2619 2662 2680 
Q 2550 2741 2406 2741 
Q 2056 2741 1856 2470 
Q 1656 2200 1656 1722 
L 1656 0 
L 538 0 
L 538 3500 
L 1656 3500 
L 1656 2988 
Q 1909 3294 2193 3439 
Q 2478 3584 2822 3584 
Q 3428 3584 3742 3212 
Q 4056 2841 4056 2131 
z
" transform="scale(0.015625)"/>
      <path id="DejaVuSans-Bold-67" d="M 2919 594 
Q 2688 288 2409 144 
Q 2131 0 1766 0 
Q 1125 0 706 504 
Q 288 1009 288 1791 
Q 288 2575 706 3076 
Q 1125 3578 1766 3578 
Q 2131 3578 2409 3434 
Q 2688 3291 2919 2981 
L 2919 3500 
L 4044 3500 
L 4044 353 
Q 4044 -491 3511 -936 
Q 2978 -1381 1966 -1381 
Q 1638 -1381 1331 -1331 
Q 1025 -1281 716 -1178 
L 716 -306 
Q 1009 -475 1290 -558 
Q 1572 -641 1856 -641 
Q 2406 -641 2662 -400 
Q 2919 -159 2919 353 
L 2919 594 
z
M 2181 2772 
Q 1834 2772 1640 2515 
Q 1447 2259 1447 1791 
Q 1447 1309 1634 1061 
Q 1822 813 2181 813 
Q 2531 813 2725 1069 
Q 2919 1325 2919 1791 
Q 2919 2259 2725 2515 
Q 2531 2772 2181 2772 
z
" transform="scale(0.015625)"/>
      <path id="DejaVuSans-Bold-20" transform="scale(0.015625)"/>
      <path id="DejaVuSans-Bold-50" d="M 588 4666 
L 2584 4666 
Q 3475 4666 3951 4270 
Q 4428 3875 4428 3144 
Q 4428 2409 3951 2014 
Q 3475 1619 2584 1619 
L 1791 1619 
L 1791 0 
L 588 0 
L 588 4666 
z
M 1791 3794 
L 1791 2491 
L 2456 2491 
Q 2806 2491 2997 2661 
Q 3188 2831 3188 3144 
Q 3188 3456 2997 3625 
Q 2806 3794 2456 3794 
L 1791 3794 
z
" transform="scale(0.015625)"/>
      <path id="DejaVuSans-Bold-6f" d="M 2203 2784 
Q 1831 2784 1636 2517 
Q 1441 2250 1441 1747 
Q 1441 1244 1636 976 
Q 1831 709 2203 709 
Q 2569 709 2762 976 
Q 2956 1244 2956 1747 
Q 2956 2250 2762 2517 
Q 2569 2784 2203 2784 
z
M 2203 3584 
Q 3106 3584 3614 3096 
Q 4122 2609 4122 1747 
Q 4122 884 3614 396 
Q 3106 -91 2203 -91 
Q 1297 -91 786 396 
Q 275 884 275 1747 
Q 275 2609 786 3096 
Q 1297 3584 2203 3584 
z
" transform="scale(0.015625)"/>
      <path id="DejaVuSans-Bold-65" d="M 4031 1759 
L 4031 1441 
L 1416 1441 
Q 1456 1047 1700 850 
Q 1944 653 2381 653 
Q 2734 653 3104 758 
Q 3475 863 3866 1075 
L 3866 213 
Q 3469 63 3072 -14 
Q 2675 -91 2278 -91 
Q 1328 -91 801 392 
Q 275 875 275 1747 
Q 275 2603 792 3093 
Q 1309 3584 2216 3584 
Q 3041 3584 3536 3087 
Q 4031 2591 4031 1759 
z
M 2881 2131 
Q 2881 2450 2695 2645 
Q 2509 2841 2209 2841 
Q 1884 2841 1681 2658 
Q 1478 2475 1428 2131 
L 2881 2131 
z
" transform="scale(0.015625)"/>
      <path id="DejaVuSans-Bold-73" d="M 3272 3391 
L 3272 2541 
Q 2913 2691 2578 2766 
Q 2244 2841 1947 2841 
Q 1628 2841 1473 2761 
Q 1319 2681 1319 2516 
Q 1319 2381 1436 2309 
Q 1553 2238 1856 2203 
L 2053 2175 
Q 2913 2066 3209 1816 
Q 3506 1566 3506 1031 
Q 3506 472 3093 190 
Q 2681 -91 1863 -91 
Q 1516 -91 1145 -36 
Q 775 19 384 128 
L 384 978 
Q 719 816 1070 734 
Q 1422 653 1784 653 
Q 2113 653 2278 743 
Q 2444 834 2444 1013 
Q 2444 1163 2330 1236 
Q 2216 1309 1875 1350 
L 1678 1375 
Q 931 1469 631 1722 
Q 331 1975 331 2491 
Q 331 3047 712 3315 
Q 1094 3584 1881 3584 
Q 2191 3584 2531 3537 
Q 2872 3491 3272 3391 
z
" transform="scale(0.015625)"/>
      <path id="DejaVuSans-Bold-3a" d="M 716 3500 
L 1844 3500 
L 1844 2291 
L 716 2291 
L 716 3500 
z
M 716 1209 
L 1844 1209 
L 1844 0 
L 716 0 
L 716 1209 
z
" transform="scale(0.015625)"/>
      <path id="DejaVuSans-Bold-4c" d="M 588 4666 
L 1791 4666 
L 1791 909 
L 3903 909 
L 3903 0 
L 588 0 
L 588 4666 
z
" transform="scale(0.015625)"/>
     </defs>
     <use xlink:href="#DejaVuSans-Bold-54"/>
     <use xlink:href="#DejaVuSans-Bold-72" transform="translate(57.212891 0)"/>
     <use xlink:href="#DejaVuSans-Bold-61" transform="translate(106.529297 0)"/>
     <use xlink:href="#DejaVuSans-Bold-69" transform="translate(174.009766 0)"/>
     <use xlink:href="#DejaVuSans-Bold-6e" transform="translate(208.287109 0)"/>
     <use xlink:href="#DejaVuSans-Bold-69" transform="translate(279.478516 0)"/>
     <use xlink:href="#DejaVuSans-Bold-6e" transform="translate(313.755859 0)"/>
     <use xlink:href="#DejaVuSans-Bold-67" transform="translate(384.947266 0)"/>
     <use xlink:href="#DejaVuSans-Bold-20" transform="translate(456.529297 0)"/>
     <use xlink:href="#DejaVuSans-Bold-50" transform="translate(491.34375 0)"/>
     <use xlink:href="#DejaVuSans-Bold-72" transform="translate(564.634766 0)"/>
     <use xlink:href="#DejaVuSans-Bold-6f" transform="translate(613.951172 0)"/>
     <use xlink:href="#DejaVuSans-Bold-67" transform="translate(682.652344 0)"/>
     <use xlink:href="#DejaVuSans-Bold-72" transform="translate(754.234375 0)"/>
     <use xlink:href="#DejaVuSans-Bold-65" transform="translate(803.550781 0)"/>
     <use xlink:href="#DejaVuSans-Bold-73" transform="translate(871.373047 0)"/>
     <use xlink:href="#DejaVuSans-Bold-73" transform="translate(930.894531 0)"/>
     <use xlink:href="#DejaVuSans-Bold-3a" transform="translate(990.416016 0)"/>
     <use xlink:href="#DejaVuSans-Bold-20" transform="translate(1030.40625 0)"/>
     <use xlink:href="#DejaVuSans-Bold-4c" transform="translate(1065.220703 0)"/>
     <use xlink:href="#DejaVuSans-Bold-6f" transform="translate(1128.941406 0)"/>
     <use xlink:href="#DejaVuSans-Bold-73" transform="translate(1197.642578 0)"/>
     <use xlink:href="#DejaVuSans-Bold-73" transform="translate(1257.164062 0)"/>
    </g>
   </g>
   <g id="legend_1">
    <g id="patch_7">
     <path d="M 117.79 174.094375 
L 294.67 174.094375 
Q 301.07 174.094375 301.07 167.694375 
L 301.07 76.954375 
Q 301.07 70.554375 294.67 70.554375 
L 117.79 70.554375 
Q 111.39 70.554375 111.39 76.954375 
L 111.39 167.694375 
Q 111.39 174.094375 117.79 174.094375 
z
" style="fill: #ffffff; opacity: 0.8; stroke: #cccccc; stroke-width: 1.5; stroke-linejoin: miter"/>
    </g>
    <g id="line2d_16">
     <path d="M 124.19 96.469375 
L 156.19 96.469375 
L 188.19 96.469375 
" style="fill: none; stroke: #4c72b0; stroke-width: 6; stroke-linecap: round"/>
    </g>
    <g id="text_15">
     <!-- train -->
     <g style="fill: #262626" transform="translate(213.79 107.669375) scale(0.32 -0.32)">
      <defs>
       <path id="DejaVuSans-74" d="M 1172 4494 
L 1172 3500 
L 2356 3500 
L 2356 3053 
L 1172 3053 
L 1172 1153 
Q 1172 725 1289 603 
Q 1406 481 1766 481 
L 2356 481 
L 2356 0 
L 1766 0 
Q 1100 0 847 248 
Q 594 497 594 1153 
L 594 3053 
L 172 3053 
L 172 3500 
L 594 3500 
L 594 4494 
L 1172 4494 
z
" transform="scale(0.015625)"/>
       <path id="DejaVuSans-72" d="M 2631 2963 
Q 2534 3019 2420 3045 
Q 2306 3072 2169 3072 
Q 1681 3072 1420 2755 
Q 1159 2438 1159 1844 
L 1159 0 
L 581 0 
L 581 3500 
L 1159 3500 
L 1159 2956 
Q 1341 3275 1631 3429 
Q 1922 3584 2338 3584 
Q 2397 3584 2469 3576 
Q 2541 3569 2628 3553 
L 2631 2963 
z
" transform="scale(0.015625)"/>
       <path id="DejaVuSans-61" d="M 2194 1759 
Q 1497 1759 1228 1600 
Q 959 1441 959 1056 
Q 959 750 1161 570 
Q 1363 391 1709 391 
Q 2188 391 2477 730 
Q 2766 1069 2766 1631 
L 2766 1759 
L 2194 1759 
z
M 3341 1997 
L 3341 0 
L 2766 0 
L 2766 531 
Q 2569 213 2275 61 
Q 1981 -91 1556 -91 
Q 1019 -91 701 211 
Q 384 513 384 1019 
Q 384 1609 779 1909 
Q 1175 2209 1959 2209 
L 2766 2209 
L 2766 2266 
Q 2766 2663 2505 2880 
Q 2244 3097 1772 3097 
Q 1472 3097 1187 3025 
Q 903 2953 641 2809 
L 641 3341 
Q 956 3463 1253 3523 
Q 1550 3584 1831 3584 
Q 2591 3584 2966 3190 
Q 3341 2797 3341 1997 
z
" transform="scale(0.015625)"/>
       <path id="DejaVuSans-69" d="M 603 3500 
L 1178 3500 
L 1178 0 
L 603 0 
L 603 3500 
z
M 603 4863 
L 1178 4863 
L 1178 4134 
L 603 4134 
L 603 4863 
z
" transform="scale(0.015625)"/>
       <path id="DejaVuSans-6e" d="M 3513 2113 
L 3513 0 
L 2938 0 
L 2938 2094 
Q 2938 2591 2744 2837 
Q 2550 3084 2163 3084 
Q 1697 3084 1428 2787 
Q 1159 2491 1159 1978 
L 1159 0 
L 581 0 
L 581 3500 
L 1159 3500 
L 1159 2956 
Q 1366 3272 1645 3428 
Q 1925 3584 2291 3584 
Q 2894 3584 3203 3211 
Q 3513 2838 3513 2113 
z
" transform="scale(0.015625)"/>
      </defs>
      <use xlink:href="#DejaVuSans-74"/>
      <use xlink:href="#DejaVuSans-72" transform="translate(39.208984 0)"/>
      <use xlink:href="#DejaVuSans-61" transform="translate(80.322266 0)"/>
      <use xlink:href="#DejaVuSans-69" transform="translate(141.601562 0)"/>
      <use xlink:href="#DejaVuSans-6e" transform="translate(169.384766 0)"/>
     </g>
    </g>
    <g id="line2d_17">
     <path d="M 124.19 143.439375 
L 156.19 143.439375 
L 188.19 143.439375 
" style="fill: none; stroke: #dd8452; stroke-width: 6; stroke-linecap: round"/>
    </g>
    <g id="text_16">
     <!-- val -->
     <g style="fill: #262626" transform="translate(213.79 154.639375) scale(0.32 -0.32)">
      <defs>
       <path id="DejaVuSans-76" d="M 191 3500 
L 800 3500 
L 1894 563 
L 2988 3500 
L 3597 3500 
L 2284 0 
L 1503 0 
L 191 3500 
z
" transform="scale(0.015625)"/>
       <path id="DejaVuSans-6c" d="M 603 4863 
L 1178 4863 
L 1178 0 
L 603 0 
L 603 4863 
z
" transform="scale(0.015625)"/>
      </defs>
      <use xlink:href="#DejaVuSans-76"/>
      <use xlink:href="#DejaVuSans-61" transform="translate(59.179688 0)"/>
      <use xlink:href="#DejaVuSans-6c" transform="translate(120.458984 0)"/>
     </g>
    </g>
   </g>
  </g>
 </g>
 <defs>
  <clipPath id="p93cbe8efb0">
   <rect x="95.39" y="54.554375" width="950.255455" height="555.34"/>
  </clipPath>
 </defs>
</svg>
