<?xml version="1.0" encoding="utf-8" standalone="no"?>
<!DOCTYPE svg PUBLIC "-//W3C//DTD SVG 1.1//EN"
  "http://www.w3.org/Graphics/SVG/1.1/DTD/svg11.dtd">
<svg xmlns:xlink="http://www.w3.org/1999/xlink" width="1052.910455pt" height="695.534375pt" viewBox="0 0 1052.910455 695.534375" xmlns="http://www.w3.org/2000/svg" version="1.1">
 <metadata>
  <rdf:RDF xmlns:dc="http://purl.org/dc/elements/1.1/" xmlns:cc="http://creativecommons.org/ns#" xmlns:rdf="http://www.w3.org/1999/02/22-rdf-syntax-ns#">
   <cc:Work>
    <dc:type rdf:resource="http://purl.org/dc/dcmitype/StillImage"/>
    <dc:date>2026-04-04T11:09:28.363962</dc:date>
    <dc:format>image/svg+xml</dc:format>
    <dc:creator>
     <cc:Agent>
      <dc:title>Matplotlib v3.10.1, https://matplotlib.org/</dc:title>
     </cc:Agent>
    </dc:creator>
   </cc:Work>
  </rdf:RDF>
 </metadata>
 <defs>
  <style type="text/css">*{stroke-linejoin: round; stroke-linecap: butt}</style>
 </defs>
 <g id="figure_1">
  <g id="patch_1">
   <path d="M 0 695.534375 
L 1052.910455 695.534375 
L 1052.910455 0 
L 0 0 
z
" style="fill: #ffffff"/>
  </g>
  <g id="axes_1">
   <g id="patch_2">
    <path d="M 115.75 609.894375 
L 1045.710455 609.894375 
L 1045.710455 54.554375 
L 115.75 54.554375 
z
" style="fill: #ffffff"/>
   </g>
   <g id="matplotlib.axis_1">
    <g id="xtick_1">
     <g id="line2d_1">
      <path d="M 157.315827 609.894375 
L 157.315827 54.554375 
" clip-path="url(#p681500f72c)" style="fill: none; stroke: #cccccc; stroke-opacity: 0.3; stroke-width: 1.5; stroke-linecap: round"/>
     </g>
     <g id="text_1">
      <!-- 0 -->
      <g style="fill: #262626" transform="translate(147.135827 646.709375) scale(0.32 -0.32)">
       <defs>
        <path id="DejaVuSans-30" d="M 2034 4250 
Q 1547 4250 1301 3770 
Q 1056 3291 1056 2328 
Q 1056 1369 1301 889 
Q 1547 409 2034 409 
Q 2525 409 2770 889 
Q 3016 1369 3016 2328 
Q 3016 3291 2770 3770 
Q 2525 4250 2034 4250 
z
M 2034 4750 
Q 2819 4750 3233 4129 
Q 3647 3509 3647 2328 
Q 3647 1150 3233 529 
Q 2819 -91 2034 -91 
Q 1250 -91 836 529 
Q 422 1150 422 2328 
Q 422 3509 836 4129 
Q 1250 4750 2034 4750 
z
" transform="scale(0.015625)"/>
       </defs>
       <use xlink:href="#DejaVuSans-30"/>
      </g>
     </g>
    </g>
    <g id="xtick_2">
     <g id="line2d_2">
      <path d="M 298.336443 609.894375 
L 298.336443 54.554375 
" clip-path="url(#p681500f72c)" style="fill: none; stroke: #cccccc; stroke-opacity: 0.3; stroke-width: 1.5; stroke-linecap: round"/>
     </g>
     <g id="text_2">
      <!-- 200 -->
      <g style="fill: #262626" transform="translate(267.796443 646.709375) scale(0.32 -0.32)">
       <defs>
        <path id="DejaVuSans-32" d="M 1228 531 
L 3431 531 
L 3431 0 
L 469 0 
L 469 531 
Q 828 903 1448 1529 
Q 2069 2156 2228 2338 
Q 2531 2678 2651 2914 
Q 2772 3150 2772 3378 
Q 2772 3750 2511 3984 
Q 2250 4219 1831 4219 
Q 1534 4219 1204 4116 
Q 875 4013 500 3803 
L 500 4441 
Q 881 4594 1212 4672 
Q 1544 4750 1819 4750 
Q 2544 4750 2975 4387 
Q 3406 4025 3406 3419 
Q 3406 3131 3298 2873 
Q 3191 2616 2906 2266 
Q 2828 2175 2409 1742 
Q 1991 1309 1228 531 
z
" transform="scale(0.015625)"/>
       </defs>
       <use xlink:href="#DejaVuSans-32"/>
       <use xlink:href="#DejaVuSans-30" transform="translate(63.623047 0)"/>
       <use xlink:href="#DejaVuSans-30" transform="translate(127.246094 0)"/>
      </g>
     </g>
    </g>
    <g id="xtick_3">
     <g id="line2d_3">
      <path d="M 439.357059 609.894375 
L 439.357059 54.554375 
" clip-path="url(#p681500f72c)" style="fill: none; stroke: #cccccc; stroke-opacity: 0.3; stroke-width: 1.5; stroke-linecap: round"/>
     </g>
     <g id="text_3">
      <!-- 400 -->
      <g style="fill: #262626" transform="translate(408.817059 646.709375) scale(0.32 -0.32)">
       <defs>
        <path id="DejaVuSans-34" d="M 2419 4116 
L 825 1625 
L 2419 1625 
L 2419 4116 
z
M 2253 4666 
L 3047 4666 
L 3047 1625 
L 3713 1625 
L 3713 1100 
L 3047 1100 
L 3047 0 
L 2419 0 
L 2419 1100 
L 313 1100 
L 313 1709 
L 2253 4666 
z
" transform="scale(0.015625)"/>
       </defs>
       <use xlink:href="#DejaVuSans-34"/>
       <use xlink:href="#DejaVuSans-30" transform="translate(63.623047 0)"/>
       <use xlink:href="#DejaVuSans-30" transform="translate(127.246094 0)"/>
      </g>
     </g>
    </g>
    <g id="xtick_4">
     <g id="line2d_4">
      <path d="M 580.377676 609.894375 
L 580.377676 54.554375 
" clip-path="url(#p681500f72c)" style="fill: none; stroke: #cccccc; stroke-opacity: 0.3; stroke-width: 1.5; stroke-linecap: round"/>
     </g>
     <g id="text_4">
      <!-- 600 -->
      <g style="fill: #262626" transform="translate(549.837676 646.709375) scale(0.32 -0.32)">
       <defs>
        <path id="DejaVuSans-36" d="M 2113 2584 
Q 1688 2584 1439 2293 
Q 1191 2003 1191 1497 
Q 1191 994 1439 701 
Q 1688 409 2113 409 
Q 2538 409 2786 701 
Q 3034 994 3034 1497 
Q 3034 2003 2786 2293 
Q 2538 2584 2113 2584 
z
M 3366 4563 
L 3366 3988 
Q 3128 4100 2886 4159 
Q 2644 4219 2406 4219 
Q 1781 4219 1451 3797 
Q 1122 3375 1075 2522 
Q 1259 2794 1537 2939 
Q 1816 3084 2150 3084 
Q 2853 3084 3261 2657 
Q 3669 2231 3669 1497 
Q 3669 778 3244 343 
Q 2819 -91 2113 -91 
Q 1303 -91 875 529 
Q 447 1150 447 2328 
Q 447 3434 972 4092 
Q 1497 4750 2381 4750 
Q 2619 4750 2861 4703 
Q 3103 4656 3366 4563 
z
" transform="scale(0.015625)"/>
       </defs>
       <use xlink:href="#DejaVuSans-36"/>
       <use xlink:href="#DejaVuSans-30" transform="translate(63.623047 0)"/>
       <use xlink:href="#DejaVuSans-30" transform="translate(127.246094 0)"/>
      </g>
     </g>
    </g>
    <g id="xtick_5">
     <g id="line2d_5">
      <path d="M 721.398292 609.894375 
L 721.398292 54.554375 
" clip-path="url(#p681500f72c)" style="fill: none; stroke: #cccccc; stroke-opacity: 0.3; stroke-width: 1.5; stroke-linecap: round"/>
     </g>
     <g id="text_5">
      <!-- 800 -->
      <g style="fill: #262626" transform="translate(690.858292 646.709375) scale(0.32 -0.32)">
       <defs>
        <path id="DejaVuSans-38" d="M 2034 2216 
Q 1584 2216 1326 1975 
Q 1069 1734 1069 1313 
Q 1069 891 1326 650 
Q 1584 409 2034 409 
Q 2484 409 2743 651 
Q 3003 894 3003 1313 
Q 3003 1734 2745 1975 
Q 2488 2216 2034 2216 
z
M 1403 2484 
Q 997 2584 770 2862 
Q 544 3141 544 3541 
Q 544 4100 942 4425 
Q 1341 4750 2034 4750 
Q 2731 4750 3128 4425 
Q 3525 4100 3525 3541 
Q 3525 3141 3298 2862 
Q 3072 2584 2669 2484 
Q 3125 2378 3379 2068 
Q 3634 1759 3634 1313 
Q 3634 634 3220 271 
Q 2806 -91 2034 -91 
Q 1263 -91 848 271 
Q 434 634 434 1313 
Q 434 1759 690 2068 
Q 947 2378 1403 2484 
z
M 1172 3481 
Q 1172 3119 1398 2916 
Q 1625 2713 2034 2713 
Q 2441 2713 2670 2916 
Q 2900 3119 2900 3481 
Q 2900 3844 2670 4047 
Q 2441 4250 2034 4250 
Q 1625 4250 1398 4047 
Q 1172 3844 1172 3481 
z
" transform="scale(0.015625)"/>
       </defs>
       <use xlink:href="#DejaVuSans-38"/>
       <use xlink:href="#DejaVuSans-30" transform="translate(63.623047 0)"/>
       <use xlink:href="#DejaVuSans-30" transform="translate(127.246094 0)"/>
      </g>
     </g>
    </g>
    <g id="xtick_6">
     <g id="line2d_6">
      <path d="M 862.418908 609.894375 
L 862.418908 54.554375 
" clip-path="url(#p681500f72c)" style="fill: none; stroke: #cccccc; stroke-opacity: 0.3; stroke-width: 1.5; stroke-linecap: round"/>
     </g>
     <g id="text_6">
      <!-- 1000 -->
      <g style="fill: #262626" transform="translate(821.698908 646.709375) scale(0.32 -0.32)">
       <defs>
        <path id="DejaVuSans-31" d="M 794 531 
L 1825 531 
L 1825 4091 
L 703 3866 
L 703 4441 
L 1819 4666 
L 2450 4666 
L 2450 531 
L 3481 531 
L 3481 0 
L 794 0 
L 794 531 
z
" transform="scale(0.015625)"/>
       </defs>
       <use xlink:href="#DejaVuSans-31"/>
       <use xlink:href="#DejaVuSans-30" transform="translate(63.623047 0)"/>
       <use xlink:href="#DejaVuSans-30" transform="translate(127.246094 0)"/>
       <use xlink:href="#DejaVuSans-30" transform="translate(190.869141 0)"/>
      </g>
     </g>
    </g>
    <g id="xtick_7">
     <g id="line2d_7">
      <path d="M 1003.439525 609.894375 
L 1003.439525 54.554375 
" clip-path="url(#p681500f72c)" style="fill: none; stroke: #cccccc; stroke-opacity: 0.3; stroke-width: 1.5; stroke-linecap: round"/>
     </g>
     <g id="text_7">
      <!-- 1200 -->
      <g style="fill: #262626" transform="translate(962.719525 646.709375) scale(0.32 -0.32)">
       <use xlink:href="#DejaVuSans-31"/>
       <use xlink:href="#DejaVuSans-32" transform="translate(63.623047 0)"/>
       <use xlink:href="#DejaVuSans-30" transform="translate(127.246094 0)"/>
       <use xlink:href="#DejaVuSans-30" transform="translate(190.869141 0)"/>
      </g>
     </g>
    </g>
    <g id="text_8">
     <!-- Epoch -->
     <g style="fill: #262626" transform="translate(531.735227 681.679375) scale(0.32 -0.32)">
      <defs>
       <path id="DejaVuSans-45" d="M 628 4666 
L 3578 4666 
L 3578 4134 
L 1259 4134 
L 1259 2753 
L 3481 2753 
L 3481 2222 
L 1259 2222 
L 1259 531 
L 3634 531 
L 3634 0 
L 628 0 
L 628 4666 
z
" transform="scale(0.015625)"/>
       <path id="DejaVuSans-70" d="M 1159 525 
L 1159 -1331 
L 581 -1331 
L 581 3500 
L 1159 3500 
L 1159 2969 
Q 1341 3281 1617 3432 
Q 1894 3584 2278 3584 
Q 2916 3584 3314 3078 
Q 3713 2572 3713 1747 
Q 3713 922 3314 415 
Q 2916 -91 2278 -91 
Q 1894 -91 1617 61 
Q 1341 213 1159 525 
z
M 3116 1747 
Q 3116 2381 2855 2742 
Q 2594 3103 2138 3103 
Q 1681 3103 1420 2742 
Q 1159 2381 1159 1747 
Q 1159 1113 1420 752 
Q 1681 391 2138 391 
Q 2594 391 2855 752 
Q 3116 1113 3116 1747 
z
" transform="scale(0.015625)"/>
       <path id="DejaVuSans-6f" d="M 1959 3097 
Q 1497 3097 1228 2736 
Q 959 2375 959 1747 
Q 959 1119 1226 758 
Q 1494 397 1959 397 
Q 2419 397 2687 759 
Q 2956 1122 2956 1747 
Q 2956 2369 2687 2733 
Q 2419 3097 1959 3097 
z
M 1959 3584 
Q 2709 3584 3137 3096 
Q 3566 2609 3566 1747 
Q 3566 888 3137 398 
Q 2709 -91 1959 -91 
Q 1206 -91 779 398 
Q 353 888 353 1747 
Q 353 2609 779 3096 
Q 1206 3584 1959 3584 
z
" transform="scale(0.015625)"/>
       <path id="DejaVuSans-63" d="M 3122 3366 
L 3122 2828 
Q 2878 2963 2633 3030 
Q 2388 3097 2138 3097 
Q 1578 3097 1268 2742 
Q 959 2388 959 1747 
Q 959 1106 1268 751 
Q 1578 397 2138 397 
Q 2388 397 2633 464 
Q 2878 531 3122 666 
L 3122 134 
Q 2881 22 2623 -34 
Q 2366 -91 2075 -91 
Q 1284 -91 818 406 
Q 353 903 353 1747 
Q 353 2603 823 3093 
Q 1294 3584 2113 3584 
Q 2378 3584 2631 3529 
Q 2884 3475 3122 3366 
z
" transform="scale(0.015625)"/>
       <path id="DejaVuSans-68" d="M 3513 2113 
L 3513 0 
L 2938 0 
L 2938 2094 
Q 2938 2591 2744 2837 
Q 2550 3084 2163 3084 
Q 1697 3084 1428 2787 
Q 1159 2491 1159 1978 
L 1159 0 
L 581 0 
L 581 4863 
L 1159 4863 
L 1159 2956 
Q 1366 3272 1645 3428 
Q 1925 3584 2291 3584 
Q 2894 3584 3203 3211 
Q 3513 2838 3513 2113 
z
" transform="scale(0.015625)"/>
      </defs>
      <use xlink:href="#DejaVuSans-45"/>
      <use xlink:href="#DejaVuSans-70" transform="translate(63.183594 0)"/>
      <use xlink:href="#DejaVuSans-6f" transform="translate(126.660156 0)"/>
      <use xlink:href="#DejaVuSans-63" transform="translate(187.841797 0)"/>
      <use xlink:href="#DejaVuSans-68" transform="translate(242.822266 0)"/>
     </g>
    </g>
   </g>
   <g id="matplotlib.axis_2">
    <g id="ytick_1">
     <g id="line2d_8">
      <path d="M 115.75 585.284992 
L 1045.710455 585.284992 
" clip-path="url(#p681500f72c)" style="fill: none; stroke: #cccccc; stroke-opacity: 0.3; stroke-width: 1.5; stroke-linecap: round"/>
     </g>
     <g id="text_9">
      <!-- 0 -->
      <g style="fill: #262626" transform="translate(82.89 597.442492) scale(0.32 -0.32)">
       <use xlink:href="#DejaVuSans-30"/>
      </g>
     </g>
    </g>
    <g id="ytick_2">
     <g id="line2d_9">
      <path d="M 115.75 484.187414 
L 1045.710455 484.187414 
" clip-path="url(#p681500f72c)" style="fill: none; stroke: #cccccc; stroke-opacity: 0.3; stroke-width: 1.5; stroke-linecap: round"/>
     </g>
     <g id="text_10">
      <!-- 20 -->
      <g style="fill: #262626" transform="translate(62.53 496.344914) scale(0.32 -0.32)">
       <use xlink:href="#DejaVuSans-32"/>
       <use xlink:href="#DejaVuSans-30" transform="translate(63.623047 0)"/>
      </g>
     </g>
    </g>
    <g id="ytick_3">
     <g id="line2d_10">
      <path d="M 115.75 383.089836 
L 1045.710455 383.089836 
" clip-path="url(#p681500f72c)" style="fill: none; stroke: #cccccc; stroke-opacity: 0.3; stroke-width: 1.5; stroke-linecap: round"/>
     </g>
     <g id="text_11">
      <!-- 40 -->
      <g style="fill: #262626" transform="translate(62.53 395.247336) scale(0.32 -0.32)">
       <use xlink:href="#DejaVuSans-34"/>
       <use xlink:href="#DejaVuSans-30" transform="translate(63.623047 0)"/>
      </g>
     </g>
    </g>
    <g id="ytick_4">
     <g id="line2d_11">
      <path d="M 115.75 281.992258 
L 1045.710455 281.992258 
" clip-path="url(#p681500f72c)" style="fill: none; stroke: #cccccc; stroke-opacity: 0.3; stroke-width: 1.5; stroke-linecap: round"/>
     </g>
     <g id="text_12">
      <!-- 60 -->
      <g style="fill: #262626" transform="translate(62.53 294.149758) scale(0.32 -0.32)">
       <use xlink:href="#DejaVuSans-36"/>
       <use xlink:href="#DejaVuSans-30" transform="translate(63.623047 0)"/>
      </g>
     </g>
    </g>
    <g id="ytick_5">
     <g id="line2d_12">
      <path d="M 115.75 180.89468 
L 1045.710455 180.89468 
" clip-path="url(#p681500f72c)" style="fill: none; stroke: #cccccc; stroke-opacity: 0.3; stroke-width: 1.5; stroke-linecap: round"/>
     </g>
     <g id="text_13">
      <!-- 80 -->
      <g style="fill: #262626" transform="translate(62.53 193.05218) scale(0.32 -0.32)">
       <use xlink:href="#DejaVuSans-38"/>
       <use xlink:href="#DejaVuSans-30" transform="translate(63.623047 0)"/>
      </g>
     </g>
    </g>
    <g id="ytick_6">
     <g id="line2d_13">
      <path d="M 115.75 79.797102 
L 1045.710455 79.797102 
" clip-path="url(#p681500f72c)" style="fill: none; stroke: #cccccc; stroke-opacity: 0.3; stroke-width: 1.5; stroke-linecap: round"/>
     </g>
     <g id="text_14">
      <!-- 100 -->
      <g style="fill: #262626" transform="translate(42.17 91.954602) scale(0.32 -0.32)">
       <use xlink:href="#DejaVuSans-31"/>
       <use xlink:href="#DejaVuSans-30" transform="translate(63.623047 0)"/>
       <use xlink:href="#DejaVuSans-30" transform="translate(127.246094 0)"/>
      </g>
     </g>
    </g>
    <g id="text_15">
     <!-- Accuracy (%) -->
     <g style="fill: #262626" transform="translate(31.515 438.046875) rotate(-90) scale(0.32 -0.32)">
      <defs>
       <path id="DejaVuSans-41" d="M 2188 4044 
L 1331 1722 
L 3047 1722 
L 2188 4044 
z
M 1831 4666 
L 2547 4666 
L 4325 0 
L 3669 0 
L 3244 1197 
L 1141 1197 
L 716 0 
L 50 0 
L 1831 4666 
z
" transform="scale(0.015625)"/>
       <path id="DejaVuSans-75" d="M 544 1381 
L 544 3500 
L 1119 3500 
L 1119 1403 
Q 1119 906 1312 657 
Q 1506 409 1894 409 
Q 2359 409 2629 706 
Q 2900 1003 2900 1516 
L 2900 3500 
L 3475 3500 
L 3475 0 
L 2900 0 
L 2900 538 
Q 2691 219 2414 64 
Q 2138 -91 1772 -91 
Q 1169 -91 856 284 
Q 544 659 544 1381 
z
M 1991 3584 
L 1991 3584 
z
" transform="scale(0.015625)"/>
       <path id="DejaVuSans-72" d="M 2631 2963 
Q 2534 3019 2420 3045 
Q 2306 3072 2169 3072 
Q 1681 3072 1420 2755 
Q 1159 2438 1159 1844 
L 1159 0 
L 581 0 
L 581 3500 
L 1159 3500 
L 1159 2956 
Q 1341 3275 1631 3429 
Q 1922 3584 2338 3584 
Q 2397 3584 2469 3576 
Q 2541 3569 2628 3553 
L 2631 2963 
z
" transform="scale(0.015625)"/>
       <path id="DejaVuSans-61" d="M 2194 1759 
Q 1497 1759 1228 1600 
Q 959 1441 959 1056 
Q 959 750 1161 570 
Q 1363 391 1709 391 
Q 2188 391 2477 730 
Q 2766 1069 2766 1631 
L 2766 1759 
L 2194 1759 
z
M 3341 1997 
L 3341 0 
L 2766 0 
L 2766 531 
Q 2569 213 2275 61 
Q 1981 -91 1556 -91 
Q 1019 -91 701 211 
Q 384 513 384 1019 
Q 384 1609 779 1909 
Q 1175 2209 1959 2209 
L 2766 2209 
L 2766 2266 
Q 2766 2663 2505 2880 
Q 2244 3097 1772 3097 
Q 1472 3097 1187 3025 
Q 903 2953 641 2809 
L 641 3341 
Q 956 3463 1253 3523 
Q 1550 3584 1831 3584 
Q 2591 3584 2966 3190 
Q 3341 2797 3341 1997 
z
" transform="scale(0.015625)"/>
       <path id="DejaVuSans-79" d="M 2059 -325 
Q 1816 -950 1584 -1140 
Q 1353 -1331 966 -1331 
L 506 -1331 
L 506 -850 
L 844 -850 
Q 1081 -850 1212 -737 
Q 1344 -625 1503 -206 
L 1606 56 
L 191 3500 
L 800 3500 
L 1894 763 
L 2988 3500 
L 3597 3500 
L 2059 -325 
z
" transform="scale(0.015625)"/>
       <path id="DejaVuSans-20" transform="scale(0.015625)"/>
       <path id="DejaVuSans-28" d="M 1984 4856 
Q 1566 4138 1362 3434 
Q 1159 2731 1159 2009 
Q 1159 1288 1364 580 
Q 1569 -128 1984 -844 
L 1484 -844 
Q 1016 -109 783 600 
Q 550 1309 550 2009 
Q 550 2706 781 3412 
Q 1013 4119 1484 4856 
L 1984 4856 
z
" transform="scale(0.015625)"/>
       <path id="DejaVuSans-25" d="M 4653 2053 
Q 4381 2053 4226 1822 
Q 4072 1591 4072 1178 
Q 4072 772 4226 539 
Q 4381 306 4653 306 
Q 4919 306 5073 539 
Q 5228 772 5228 1178 
Q 5228 1588 5073 1820 
Q 4919 2053 4653 2053 
z
M 4653 2450 
Q 5147 2450 5437 2106 
Q 5728 1763 5728 1178 
Q 5728 594 5436 251 
Q 5144 -91 4653 -91 
Q 4153 -91 3862 251 
Q 3572 594 3572 1178 
Q 3572 1766 3864 2108 
Q 4156 2450 4653 2450 
z
M 1428 4353 
Q 1159 4353 1004 4120 
Q 850 3888 850 3481 
Q 850 3069 1003 2837 
Q 1156 2606 1428 2606 
Q 1700 2606 1854 2837 
Q 2009 3069 2009 3481 
Q 2009 3884 1853 4118 
Q 1697 4353 1428 4353 
z
M 4250 4750 
L 4750 4750 
L 1831 -91 
L 1331 -91 
L 4250 4750 
z
M 1428 4750 
Q 1922 4750 2215 4408 
Q 2509 4066 2509 3481 
Q 2509 2891 2217 2550 
Q 1925 2209 1428 2209 
Q 931 2209 642 2551 
Q 353 2894 353 3481 
Q 353 4063 643 4406 
Q 934 4750 1428 4750 
z
" transform="scale(0.015625)"/>
       <path id="DejaVuSans-29" d="M 513 4856 
L 1013 4856 
Q 1481 4119 1714 3412 
Q 1947 2706 1947 2009 
Q 1947 1309 1714 600 
Q 1481 -109 1013 -844 
L 513 -844 
Q 928 -128 1133 580 
Q 1338 1288 1338 2009 
Q 1338 2731 1133 3434 
Q 928 4138 513 4856 
z
" transform="scale(0.015625)"/>
      </defs>
      <use xlink:href="#DejaVuSans-41"/>
      <use xlink:href="#DejaVuSans-63" transform="translate(66.658203 0)"/>
      <use xlink:href="#DejaVuSans-63" transform="translate(121.638672 0)"/>
      <use xlink:href="#DejaVuSans-75" transform="translate(176.619141 0)"/>
      <use xlink:href="#DejaVuSans-72" transform="translate(239.998047 0)"/>
      <use xlink:href="#DejaVuSans-61" transform="translate(281.111328 0)"/>
      <use xlink:href="#DejaVuSans-63" transform="translate(342.390625 0)"/>
      <use xlink:href="#DejaVuSans-79" transform="translate(397.371094 0)"/>
      <use xlink:href="#DejaVuSans-20" transform="translate(456.550781 0)"/>
      <use xlink:href="#DejaVuSans-28" transform="translate(488.337891 0)"/>
      <use xlink:href="#DejaVuSans-25" transform="translate(527.351562 0)"/>
      <use xlink:href="#DejaVuSans-29" transform="translate(622.371094 0)"/>
     </g>
    </g>
   </g>
   <g id="FillBetweenPolyCollection_1"/>
   <g id="FillBetweenPolyCollection_2"/>
   <g id="line2d_14">
    <path d="M 158.02093 581.32597 
L 158.726033 580.692527 
L 159.431136 580.534166 
L 160.136239 580.534166 
L 160.841342 577.208587 
L 161.546445 574.753994 
L 162.251548 569.607266 
L 162.956651 561.926765 
L 163.661754 556.304953 
L 164.366857 544.348709 
L 165.777064 525.978847 
L 167.18727 497.711435 
L 167.892373 486.705351 
L 168.597476 479.420749 
L 172.122991 408.3959 
L 172.828094 385.11685 
L 173.533198 368.013882 
L 175.648507 300.314613 
L 177.058713 245.28421 
L 177.763816 229.923205 
L 178.468919 200.943156 
L 180.584228 151.376213 
L 181.289331 141.637026 
L 181.994435 128.176344 
L 183.404641 111.785996 
L 184.109744 106.639257 
L 186.225053 95.078928 
L 187.635259 90.40727 
L 188.340362 89.140388 
L 189.045465 88.744487 
L 189.750568 88.982028 
L 190.455672 85.577282 
L 191.160775 85.656462 
L 191.865878 84.62712 
L 192.570981 85.102201 
L 193.276084 83.597749 
L 193.981187 82.568407 
L 194.68629 82.330866 
L 195.391393 84.15204 
L 196.096496 82.647587 
L 196.801599 82.964308 
L 197.506702 82.093326 
L 198.211805 81.697425 
L 198.916908 81.618245 
L 199.622012 82.647587 
L 200.327115 82.014146 
L 201.737321 82.014146 
L 202.442424 83.122668 
L 203.147527 82.330866 
L 203.85263 82.014146 
L 204.557733 83.201848 
L 205.262836 83.518568 
L 205.967939 82.647587 
L 206.673042 83.122668 
L 207.378145 81.380705 
L 208.083249 81.697425 
L 208.788352 81.776606 
L 209.493455 82.489227 
L 210.198558 81.934966 
L 211.608764 81.855786 
L 212.313867 81.301525 
L 213.01897 81.459885 
L 214.429176 82.885127 
L 215.134279 81.855786 
L 215.839382 81.776606 
L 216.544486 81.222345 
L 217.249589 80.905624 
L 217.954692 81.380705 
L 218.659795 80.826444 
L 219.364898 82.014146 
L 220.775104 81.539065 
L 221.480207 82.647587 
L 222.18531 82.726767 
L 222.890413 81.855786 
L 223.595516 82.093326 
L 224.300619 81.697425 
L 225.005723 82.410047 
L 225.710826 81.301525 
L 226.415929 81.459885 
L 227.121032 81.063984 
L 227.826135 81.776606 
L 229.236341 81.380705 
L 229.941444 82.014146 
L 230.646547 81.776606 
L 231.35165 81.380705 
L 232.056753 80.826444 
L 232.761856 80.826444 
L 233.46696 80.430543 
L 234.172063 80.668084 
L 234.877166 80.588904 
L 235.582269 81.143165 
L 236.287372 81.934966 
L 236.992475 81.301525 
L 237.697578 81.222345 
L 239.107784 81.934966 
L 239.812887 82.093326 
L 240.51799 82.647587 
L 241.223093 82.805947 
L 241.928196 82.014146 
L 242.6333 82.568407 
L 244.043506 81.934966 
L 244.748609 82.489227 
L 245.453712 81.301525 
L 246.158815 80.905624 
L 247.569021 81.539065 
L 248.274124 80.826444 
L 248.979227 80.430543 
L 249.68433 80.588904 
L 250.389433 80.272183 
L 251.79964 79.955463 
L 252.504743 80.272183 
L 253.209846 80.034643 
L 253.914949 80.113823 
L 254.620052 80.351363 
L 256.030258 80.588904 
L 256.735361 82.014146 
L 257.440464 82.172506 
L 258.145567 82.726767 
L 258.85067 82.805947 
L 259.555774 81.855786 
L 260.260877 82.647587 
L 260.96598 82.964308 
L 261.671083 82.489227 
L 262.376186 82.330866 
L 263.081289 81.301525 
L 263.786392 81.380705 
L 265.196598 81.222345 
L 265.901701 81.380705 
L 266.606804 81.301525 
L 268.017011 80.668084 
L 268.722114 81.222345 
L 269.427217 80.905624 
L 270.13232 80.826444 
L 271.542526 80.272183 
L 272.247629 80.351363 
L 272.952732 80.113823 
L 273.657835 80.193003 
L 274.362938 80.509723 
L 275.068041 80.588904 
L 275.773144 80.905624 
L 276.478247 80.588904 
L 278.593557 80.509723 
L 281.413969 82.172506 
L 282.119072 80.826444 
L 282.824175 81.143165 
L 283.529278 82.330866 
L 284.234381 81.301525 
L 284.939484 81.697425 
L 285.644588 81.063984 
L 287.759897 81.459885 
L 288.465 80.351363 
L 289.170103 80.984804 
L 289.875206 81.143165 
L 290.580309 80.430543 
L 291.285412 80.113823 
L 292.695618 80.509723 
L 293.400721 80.034643 
L 294.105825 80.034643 
L 294.810928 80.509723 
L 296.926237 81.459885 
L 298.336443 81.380705 
L 299.041546 81.539065 
L 299.746649 80.668084 
L 300.451752 80.984804 
L 301.861958 80.747264 
L 302.567062 81.222345 
L 303.272165 80.430543 
L 303.977268 80.668084 
L 305.387474 80.193003 
L 306.092577 80.351363 
L 307.502783 80.113823 
L 308.912989 80.430543 
L 310.323195 80.272183 
L 311.733402 81.697425 
L 312.438505 82.251686 
L 313.143608 82.172506 
L 313.848711 82.330866 
L 315.258917 80.668084 
L 315.96402 81.459885 
L 316.669123 80.747264 
L 317.374226 80.509723 
L 318.079329 80.034643 
L 318.784432 80.113823 
L 319.489535 79.955463 
L 320.899742 80.193003 
L 321.604845 80.588904 
L 323.015051 80.193003 
L 324.425257 80.193003 
L 325.13036 80.034643 
L 325.835463 80.272183 
L 326.540566 80.113823 
L 327.245669 80.430543 
L 327.950772 80.509723 
L 328.655876 80.351363 
L 329.360979 80.509723 
L 330.066082 80.351363 
L 330.771185 80.509723 
L 332.181391 81.459885 
L 334.2967 81.697425 
L 335.001803 81.222345 
L 335.706906 81.380705 
L 336.412009 80.826444 
L 337.822216 80.905624 
L 339.232422 80.747264 
L 339.937525 80.351363 
L 340.642628 80.747264 
L 341.347731 80.905624 
L 342.052834 80.826444 
L 342.757937 80.509723 
L 343.46304 81.063984 
L 344.168143 81.459885 
L 344.873246 81.063984 
L 345.57835 80.509723 
L 346.283453 80.826444 
L 346.988556 80.430543 
L 347.693659 80.747264 
L 348.398762 80.193003 
L 349.103865 80.430543 
L 350.514071 80.034643 
L 351.219174 80.351363 
L 351.924277 79.955463 
L 352.62938 79.876282 
L 354.039586 79.955463 
L 354.74469 79.876282 
L 356.859999 80.034643 
L 357.565102 79.955463 
L 361.090617 80.430543 
L 361.79572 80.272183 
L 363.205927 80.668084 
L 363.91103 81.380705 
L 364.616133 80.984804 
L 365.321236 80.351363 
L 366.026339 80.668084 
L 367.436545 80.193003 
L 368.141648 80.272183 
L 368.846751 80.113823 
L 369.551854 80.272183 
L 370.256957 79.955463 
L 374.487576 79.955463 
L 375.897782 80.193003 
L 376.602885 80.113823 
L 378.718194 80.905624 
L 379.423297 80.905624 
L 380.128401 81.539065 
L 380.833504 81.143165 
L 381.538607 81.301525 
L 382.24371 80.272183 
L 382.948813 80.113823 
L 384.359019 80.351363 
L 385.064122 79.876282 
L 385.769225 79.955463 
L 386.474328 79.797102 
L 387.179431 79.876282 
L 388.589637 79.797102 
L 396.345771 79.797102 
L 399.166184 80.509723 
L 400.57639 81.063984 
L 401.281493 80.668084 
L 401.986596 80.984804 
L 402.691699 80.826444 
L 403.396802 80.826444 
L 404.101905 81.143165 
L 404.807008 80.588904 
L 405.512111 80.905624 
L 406.217215 80.272183 
L 410.447833 79.876282 
L 411.858039 80.034643 
L 412.563142 79.876282 
L 413.268245 80.113823 
L 413.973348 80.668084 
L 414.678452 80.272183 
L 416.088658 80.193003 
L 416.793761 79.876282 
L 417.498864 80.272183 
L 418.203967 80.272183 
L 418.90907 80.509723 
L 419.614173 81.380705 
L 420.319276 80.509723 
L 421.024379 80.747264 
L 421.729482 79.955463 
L 422.434585 80.193003 
L 423.844792 80.193003 
L 424.549895 80.588904 
L 425.254998 80.668084 
L 425.960101 80.272183 
L 426.665204 80.351363 
L 427.370307 80.113823 
L 428.07541 80.113823 
L 428.780513 79.797102 
L 430.190719 80.193003 
L 431.600925 80.113823 
L 432.306029 80.668084 
L 433.011132 80.430543 
L 433.716235 80.351363 
L 434.421338 80.430543 
L 435.126441 80.193003 
L 435.831544 80.113823 
L 436.536647 79.876282 
L 437.946853 79.955463 
L 438.651956 80.113823 
L 439.357059 79.876282 
L 441.472369 79.955463 
L 442.177472 80.113823 
L 444.292781 79.876282 
L 444.997884 80.193003 
L 445.702987 80.272183 
L 447.113193 79.876282 
L 449.228503 79.955463 
L 451.343812 80.193003 
L 452.048915 80.430543 
L 452.754018 80.113823 
L 453.459121 80.430543 
L 454.164224 80.351363 
L 454.869327 80.034643 
L 455.57443 80.351363 
L 457.68974 79.876282 
L 458.394843 80.034643 
L 459.099946 79.797102 
L 460.510152 79.876282 
L 495.060203 79.797102 
L 496.470409 80.351363 
L 497.175512 80.905624 
L 497.880615 81.063984 
L 498.585718 80.747264 
L 499.290821 80.747264 
L 499.995924 80.905624 
L 500.701027 80.272183 
L 501.406131 80.113823 
L 502.111234 80.272183 
L 502.816337 79.876282 
L 509.162264 79.955463 
L 510.572471 80.113823 
L 511.277574 79.797102 
L 512.68778 80.034643 
L 514.097986 79.797102 
L 518.328605 80.351363 
L 519.033708 80.509723 
L 519.738811 80.272183 
L 521.149017 80.193003 
L 521.85412 80.668084 
L 522.559223 80.193003 
L 523.264326 80.351363 
L 523.969429 80.193003 
L 525.379635 80.351363 
L 526.789842 80.193003 
L 527.494945 79.876282 
L 528.200048 79.955463 
L 528.905151 79.876282 
L 529.610254 80.034643 
L 532.430666 80.034643 
L 533.840872 79.797102 
L 534.545975 79.955463 
L 535.251078 79.797102 
L 535.956182 80.113823 
L 536.661285 80.113823 
L 537.366388 79.955463 
L 538.071491 80.826444 
L 538.776594 80.509723 
L 540.1868 80.272183 
L 540.891903 80.905624 
L 541.597006 80.668084 
L 542.302109 80.193003 
L 543.007212 79.955463 
L 544.417419 79.876282 
L 545.122522 79.797102 
L 545.827625 79.955463 
L 546.532728 79.797102 
L 547.237831 79.876282 
L 548.648037 79.797102 
L 574.736851 79.797102 
L 575.441954 80.034643 
L 576.147057 80.668084 
L 576.85216 80.668084 
L 577.557263 80.984804 
L 578.262366 80.905624 
L 578.96747 80.509723 
L 579.672573 81.143165 
L 580.377676 80.034643 
L 583.198088 79.797102 
L 583.903191 79.876282 
L 585.313397 79.797102 
L 624.79917 79.797102 
L 625.504273 79.955463 
L 626.209376 80.984804 
L 627.619582 80.747264 
L 629.029788 80.193003 
L 629.734891 80.351363 
L 630.439995 79.955463 
L 631.850201 79.955463 
L 632.555304 79.797102 
L 633.96551 79.876282 
L 674.156386 79.876282 
L 674.861489 80.747264 
L 675.566592 81.301525 
L 676.976798 80.113823 
L 678.387004 80.430543 
L 679.092107 79.876282 
L 679.79721 80.113823 
L 680.502313 79.876282 
L 681.207416 80.034643 
L 682.617623 79.797102 
L 686.143138 79.876282 
L 686.848241 79.955463 
L 687.553344 79.797102 
L 753.127931 79.876282 
L 754.538137 81.063984 
L 755.24324 80.905624 
L 755.948343 81.063984 
L 756.653446 80.588904 
L 757.358549 80.509723 
L 758.063652 80.193003 
L 758.768755 80.034643 
L 759.473859 80.193003 
L 760.178962 79.876282 
L 760.884065 80.193003 
L 761.589168 79.955463 
L 763.704477 79.797102 
L 765.114683 79.955463 
L 765.819786 79.797102 
L 766.524889 79.955463 
L 767.229992 79.955463 
L 767.935095 80.193003 
L 769.345302 79.955463 
L 770.050405 80.113823 
L 770.755508 80.034643 
L 771.460611 80.113823 
L 772.165714 79.797102 
L 773.57592 79.876282 
L 839.85561 79.876282 
L 840.560713 80.588904 
L 841.265816 80.588904 
L 841.970919 80.430543 
L 842.676022 80.588904 
L 843.381125 80.272183 
L 844.086228 80.113823 
L 844.791331 80.113823 
L 845.496434 80.430543 
L 846.201538 79.876282 
L 846.906641 80.193003 
L 847.611744 79.955463 
L 849.727053 79.797102 
L 851.137259 79.876282 
L 851.842362 79.955463 
L 852.547465 79.876282 
L 853.957671 80.034643 
L 856.072981 79.876282 
L 856.778084 80.272183 
L 858.893393 79.876282 
L 860.303599 79.797102 
L 926.583289 79.876282 
L 927.288392 80.430543 
L 927.993495 80.509723 
L 928.698598 80.747264 
L 929.403701 80.509723 
L 930.813907 80.509723 
L 931.51901 80.193003 
L 932.224114 80.351363 
L 932.929217 80.034643 
L 933.63432 79.876282 
L 934.339423 80.034643 
L 936.454732 79.955463 
L 937.159835 79.797102 
L 1001.324216 79.797102 
L 1002.734422 80.826444 
L 1003.439525 80.905624 
L 1003.439525 80.905624 
" clip-path="url(#p681500f72c)" style="fill: none; stroke: #4c72b0; stroke-width: 6; stroke-linecap: round"/>
   </g>
   <g id="line2d_15">
    <path d="M 158.02093 581.168254 
L 158.726033 582.672447 
L 159.431136 582.989119 
L 160.136239 583.543295 
L 160.841342 583.464127 
L 161.546445 584.651648 
L 162.251548 584.018303 
L 162.956651 584.414144 
L 163.661754 583.701631 
L 164.366857 584.334976 
L 165.071961 583.622463 
L 165.777064 583.305791 
L 166.482167 581.643262 
L 167.18727 581.405758 
L 167.892373 580.772414 
L 168.597476 579.822398 
L 169.302579 578.397373 
L 170.007682 575.547324 
L 170.712785 575.388988 
L 171.417888 572.934779 
L 172.828094 564.938807 
L 173.533198 558.605364 
L 174.238301 551.084402 
L 174.943404 538.338348 
L 175.648507 520.921382 
L 176.35361 508.412834 
L 177.058713 492.262551 
L 178.468919 453.232719 
L 180.584228 414.836215 
L 181.994435 390.769131 
L 182.699538 382.852338 
L 183.404641 378.339748 
L 184.109744 372.085482 
L 185.51995 364.564514 
L 186.225053 358.231068 
L 186.930156 355.61853 
L 187.635259 354.193499 
L 189.045465 348.335073 
L 189.750568 347.860068 
L 190.455672 345.089185 
L 191.160775 345.089185 
L 191.865878 342.397467 
L 192.570981 342.001627 
L 193.276084 340.655775 
L 193.981187 341.051616 
L 194.68629 338.597408 
L 195.391393 339.468254 
L 196.096496 336.459861 
L 196.801599 336.380696 
L 197.506702 337.726547 
L 198.211805 334.243164 
L 198.916908 335.50985 
L 199.622012 334.639004 
L 200.327115 333.451483 
L 201.032218 330.997276 
L 201.737321 329.255584 
L 202.442424 330.997276 
L 203.147527 326.247191 
L 203.85263 327.909702 
L 204.557733 328.780563 
L 205.262836 328.226393 
L 205.967939 327.118052 
L 206.673042 325.13885 
L 207.378145 318.726223 
L 208.083249 321.259596 
L 209.493455 317.222042 
L 210.198558 314.530309 
L 210.903661 315.16366 
L 211.608764 309.226054 
L 212.313867 310.571905 
L 213.01897 305.58434 
L 213.724073 305.74267 
L 214.429176 305.1885 
L 215.134279 303.842648 
L 215.839382 303.525958 
L 216.544486 300.913405 
L 217.249589 300.121724 
L 217.954692 295.29249 
L 218.659795 298.696723 
L 219.364898 292.204947 
L 220.070001 292.679937 
L 220.775104 292.284097 
L 221.480207 286.979841 
L 222.18531 286.821511 
L 222.890413 283.892298 
L 223.595516 275.73798 
L 224.300619 281.358926 
L 225.005723 280.883905 
L 225.710826 276.213 
L 226.415929 269.246203 
L 227.121032 274.392128 
L 227.826135 265.92115 
L 229.236341 267.900352 
L 229.941444 266.39617 
L 230.646547 263.071087 
L 231.35165 253.650098 
L 232.056753 255.391789 
L 232.761856 251.433385 
L 233.46696 245.81247 
L 234.172063 241.458225 
L 234.877166 248.345842 
L 235.582269 246.999991 
L 236.287372 240.904055 
L 236.992475 240.587364 
L 237.697578 242.091576 
L 239.107784 231.720545 
L 239.812887 244.149928 
L 240.51799 236.866471 
L 241.223093 241.933246 
L 241.928196 233.462267 
L 242.6333 228.553822 
L 243.338403 232.037236 
L 244.043506 224.041248 
L 244.748609 222.774576 
L 245.453712 221.112035 
L 246.158815 218.420332 
L 246.863918 210.107684 
L 247.569021 205.120089 
L 248.274124 202.507566 
L 249.68433 196.09494 
L 251.094537 186.83228 
L 251.79964 187.861471 
L 252.504743 184.536418 
L 253.209846 186.67395 
L 253.914949 185.486429 
L 254.620052 178.994652 
L 255.325155 182.715546 
L 256.030258 189.919823 
L 256.735361 200.370004 
L 257.440464 206.94096 
L 258.145567 206.22846 
L 258.85067 202.428386 
L 259.555774 193.324057 
L 260.260877 199.578323 
L 260.96598 189.207323 
L 261.671083 184.615568 
L 262.376186 182.557216 
L 263.081289 182.003045 
L 263.786392 175.432089 
L 264.491495 172.502876 
L 265.196598 169.098642 
L 265.901701 164.111047 
L 266.606804 160.548484 
L 267.311907 160.152643 
L 268.017011 161.656855 
L 268.722114 153.106696 
L 269.427217 151.523335 
L 270.13232 156.74844 
L 270.837423 151.998355 
L 271.542526 156.51093 
L 272.247629 153.819227 
L 272.952732 153.819227 
L 273.657835 143.685707 
L 274.362938 146.219079 
L 275.068041 146.060749 
L 275.773144 150.889984 
L 276.478247 151.285824 
L 277.183351 147.4066 
L 277.888454 147.802441 
L 278.593557 145.823239 
L 279.29866 146.45659 
L 280.003763 147.802441 
L 280.708866 146.6941 
L 281.413969 145.902419 
L 282.119072 144.794048 
L 282.824175 139.568973 
L 283.529278 142.339855 
L 284.234381 146.219079 
L 284.939484 145.189888 
L 286.349691 135.056398 
L 287.054794 137.0356 
L 287.759897 131.414654 
L 288.465 129.277122 
L 289.170103 128.247931 
L 289.875206 132.127185 
L 290.580309 126.110399 
L 291.285412 123.260366 
L 291.990515 119.856133 
L 292.695618 117.797751 
L 293.400721 116.135239 
L 294.105825 120.014463 
L 294.810928 117.56024 
L 295.516031 119.222782 
L 296.221134 125.635378 
L 296.926237 126.8229 
L 297.63134 129.356302 
L 298.336443 126.8229 
L 299.041546 120.489483 
L 299.746649 118.985272 
L 300.451752 113.839347 
L 301.156855 115.026868 
L 301.861958 117.40191 
L 302.567062 110.355963 
L 303.272165 108.376761 
L 303.977268 108.930932 
L 304.682371 105.605878 
L 305.387474 105.447548 
L 306.092577 104.339207 
L 306.79768 106.239229 
L 307.502783 105.922539 
L 308.207886 104.655867 
L 308.912989 104.735047 
L 309.618092 105.289218 
L 310.323195 102.518335 
L 311.028298 108.455941 
L 311.733402 110.514293 
L 312.438505 116.451899 
L 313.143608 116.84774 
L 313.848711 108.851782 
L 314.553814 106.95173 
L 315.258917 104.180847 
L 315.96402 106.555889 
L 316.669123 100.380803 
L 317.374226 101.014124 
L 318.079329 99.589122 
L 318.784432 96.026559 
L 319.489535 95.472358 
L 320.194639 95.393208 
L 320.899742 93.255676 
L 321.604845 94.284867 
L 322.309948 94.205687 
L 323.015051 94.364017 
L 323.720154 93.018166 
L 324.425257 92.463995 
L 325.13036 92.543145 
L 325.835463 91.988975 
L 326.540566 95.314028 
L 327.245669 94.522347 
L 327.950772 94.918187 
L 328.655876 96.580729 
L 329.360979 97.05572 
L 330.066082 95.947379 
L 330.771185 94.205687 
L 331.476288 95.789048 
L 332.181391 96.97657 
L 332.886494 99.589122 
L 333.591597 101.251634 
L 334.2967 100.222443 
L 335.001803 97.68907 
L 336.412009 95.789048 
L 337.117113 93.572336 
L 337.822216 89.376422 
L 338.527319 90.484793 
L 339.232422 88.822251 
L 339.937525 90.959783 
L 340.642628 90.484793 
L 341.347731 90.405613 
L 342.052834 89.138942 
L 342.757937 89.613932 
L 343.46304 91.909825 
L 344.168143 92.305665 
L 344.873246 90.722303 
L 345.57835 91.513984 
L 346.283453 89.930623 
L 346.988556 87.951421 
L 347.693659 88.109751 
L 348.398762 85.893038 
L 349.103865 87.55558 
L 350.514071 85.418018 
L 351.219174 85.893038 
L 351.924277 87.31807 
L 352.62938 85.576378 
L 353.334483 84.547187 
L 354.039586 84.626367 
L 354.74469 83.993017 
L 355.449793 84.388857 
L 356.154896 83.597176 
L 356.859999 83.676326 
L 357.565102 84.151347 
L 358.270205 82.726315 
L 358.975308 83.597176 
L 359.680411 84.072167 
L 360.385514 83.438846 
L 361.090617 83.676326 
L 361.79572 83.280486 
L 362.500823 84.784697 
L 363.91103 88.268081 
L 364.616133 87.31807 
L 365.321236 86.922229 
L 366.026339 84.309677 
L 366.731442 85.338868 
L 367.436545 85.655528 
L 368.141648 84.151347 
L 368.846751 85.101358 
L 369.551854 82.963825 
L 370.256957 83.438846 
L 370.96206 82.884645 
L 371.667164 82.884645 
L 372.372267 82.092965 
L 373.07737 81.934634 
L 373.782473 81.459644 
L 375.192679 82.488805 
L 375.897782 82.488805 
L 376.602885 83.676326 
L 377.307988 83.517996 
L 378.013091 84.547187 
L 378.718194 84.705517 
L 379.423297 85.734708 
L 380.128401 84.705517 
L 380.833504 85.259688 
L 381.538607 86.130549 
L 382.24371 84.547187 
L 382.948813 83.993017 
L 383.653916 83.597176 
L 384.359019 82.409655 
L 385.064122 83.201336 
L 385.769225 82.013815 
L 386.474328 81.142954 
L 387.179431 81.222134 
L 387.884534 80.905443 
L 389.999844 80.747113 
L 391.41005 80.667963 
L 392.820256 80.588783 
L 395.640668 80.509603 
L 396.345771 80.747113 
L 397.050874 81.222134 
L 397.755978 81.459644 
L 398.461081 84.626367 
L 399.166184 83.834686 
L 399.871287 83.517996 
L 400.57639 83.043006 
L 401.281493 83.122156 
L 401.986596 83.043006 
L 402.691699 83.280486 
L 403.396802 82.409655 
L 404.101905 84.072167 
L 404.807008 82.884645 
L 405.512111 83.280486 
L 406.217215 83.122156 
L 406.922318 81.776304 
L 407.627421 82.092965 
L 408.332524 81.538794 
L 409.037627 81.142954 
L 409.74273 81.301284 
L 410.447833 80.826293 
L 411.152936 80.667963 
L 411.858039 80.826293 
L 412.563142 80.747113 
L 413.268245 81.063804 
L 413.973348 82.488805 
L 414.678452 82.251325 
L 415.383555 82.409655 
L 416.088658 82.092965 
L 416.793761 83.201336 
L 417.498864 81.934634 
L 418.203967 81.934634 
L 418.90907 83.280486 
L 419.614173 83.834686 
L 420.319276 83.676326 
L 421.024379 82.251325 
L 421.729482 81.855484 
L 422.434585 81.142954 
L 423.139688 80.747113 
L 423.844792 81.697124 
L 424.549895 82.092965 
L 425.254998 81.776304 
L 425.960101 82.172145 
L 426.665204 81.301284 
L 427.370307 81.697124 
L 428.07541 81.142954 
L 429.485616 82.172145 
L 430.190719 81.459644 
L 430.895822 81.697124 
L 431.600925 81.459644 
L 432.306029 81.934634 
L 433.011132 83.913836 
L 433.716235 82.330475 
L 434.421338 81.776304 
L 435.126441 81.934634 
L 435.831544 81.063804 
L 436.536647 81.301284 
L 437.24175 80.984623 
L 437.946853 81.301284 
L 438.651956 81.380464 
L 439.357059 81.697124 
L 440.062162 81.538794 
L 440.767266 81.142954 
L 441.472369 81.380464 
L 442.177472 81.459644 
L 442.882575 81.776304 
L 443.587678 80.984623 
L 444.292781 81.776304 
L 444.997884 80.905443 
L 445.702987 81.063804 
L 446.40809 81.776304 
L 447.113193 81.063804 
L 447.818296 80.905443 
L 448.523399 80.905443 
L 449.228503 80.588783 
L 450.638709 81.222134 
L 451.343812 80.984623 
L 452.048915 81.776304 
L 452.754018 82.092965 
L 453.459121 82.251325 
L 454.164224 81.538794 
L 455.57443 81.063804 
L 456.984636 81.459644 
L 457.68974 80.667963 
L 459.099946 80.113763 
L 459.805049 80.034613 
L 460.510152 80.351273 
L 461.215255 80.430453 
L 464.74077 80.034613 
L 466.150976 80.113763 
L 467.561183 80.034613 
L 471.086698 79.955432 
L 472.496904 79.876282 
L 495.060203 79.797102 
L 495.765306 80.113763 
L 496.470409 81.222134 
L 497.175512 81.697124 
L 497.880615 82.963825 
L 498.585718 82.567985 
L 499.290821 82.488805 
L 499.995924 81.697124 
L 500.701027 82.092965 
L 502.111234 81.855484 
L 503.52144 81.142954 
L 504.226543 81.063804 
L 504.931646 80.351273 
L 506.341852 80.272123 
L 507.046955 80.272123 
L 507.752058 80.588783 
L 508.457161 80.430453 
L 509.162264 80.509603 
L 509.867368 80.826293 
L 511.277574 80.588783 
L 511.982677 80.192943 
L 512.68778 80.509603 
L 514.097986 80.747113 
L 514.803089 80.430453 
L 516.213295 80.588783 
L 516.918398 80.984623 
L 518.328605 81.301284 
L 519.033708 81.142954 
L 519.738811 82.013815 
L 520.443914 81.934634 
L 521.149017 81.380464 
L 521.85412 81.459644 
L 523.264326 80.667963 
L 523.969429 81.776304 
L 524.674532 81.697124 
L 525.379635 81.063804 
L 526.084738 80.905443 
L 526.789842 80.905443 
L 527.494945 80.747113 
L 528.200048 81.063804 
L 529.610254 80.667963 
L 530.315357 80.588783 
L 531.02046 80.984623 
L 531.725563 80.984623 
L 532.430666 80.747113 
L 533.135769 80.984623 
L 534.545975 80.588783 
L 535.251078 80.905443 
L 535.956182 80.509603 
L 536.661285 80.272123 
L 537.366388 81.063804 
L 538.071491 80.509603 
L 538.776594 81.301284 
L 539.481697 81.538794 
L 540.1868 81.380464 
L 540.891903 81.380464 
L 542.302109 80.588783 
L 543.007212 80.984623 
L 543.712315 81.063804 
L 544.417419 80.588783 
L 545.122522 80.826293 
L 545.827625 80.509603 
L 546.532728 80.984623 
L 547.942934 80.588783 
L 550.058243 80.509603 
L 550.763346 80.430453 
L 552.173552 80.509603 
L 554.288862 80.113763 
L 559.929686 80.034613 
L 561.339893 79.955432 
L 573.326645 80.034613 
L 574.031748 80.430453 
L 574.736851 80.351273 
L 575.441954 81.063804 
L 576.85216 81.301284 
L 577.557263 82.726315 
L 578.262366 80.905443 
L 578.96747 81.142954 
L 579.672573 81.142954 
L 581.082779 80.509603 
L 581.787882 80.747113 
L 583.198088 80.747113 
L 583.903191 80.430453 
L 585.313397 80.192943 
L 589.544016 79.797102 
L 624.79917 79.876282 
L 625.504273 80.034613 
L 626.209376 80.826293 
L 626.914479 81.063804 
L 627.619582 80.826293 
L 628.324685 80.430453 
L 629.734891 80.509603 
L 630.439995 80.905443 
L 631.145098 80.588783 
L 631.850201 80.905443 
L 632.555304 80.351273 
L 633.260407 80.113763 
L 635.375716 79.955432 
L 636.080819 80.113763 
L 638.196128 79.955432 
L 643.836953 79.876282 
L 645.247159 79.797102 
L 673.451283 79.797102 
L 674.156386 80.113763 
L 674.861489 81.142954 
L 675.566592 80.034613 
L 676.976798 81.617974 
L 677.681901 80.588783 
L 679.092107 80.509603 
L 679.79721 80.430453 
L 680.502313 80.509603 
L 681.207416 80.272123 
L 681.91252 80.272123 
L 682.617623 80.034613 
L 684.732932 80.113763 
L 686.143138 80.430453 
L 686.848241 80.351273 
L 687.553344 80.113763 
L 688.258447 80.034613 
L 689.668653 80.113763 
L 691.07886 80.034613 
L 694.604375 79.955432 
L 696.014581 79.876282 
L 752.422828 79.797102 
L 753.127931 80.192943 
L 753.833034 81.380464 
L 754.538137 80.667963 
L 755.24324 81.538794 
L 755.948343 81.459644 
L 756.653446 81.697124 
L 757.358549 80.984623 
L 758.063652 81.142954 
L 759.473859 81.063804 
L 760.178962 81.538794 
L 760.884065 80.826293 
L 761.589168 80.509603 
L 762.294271 80.351273 
L 762.999374 80.509603 
L 764.40958 80.272123 
L 766.524889 80.351273 
L 767.229992 80.984623 
L 767.935095 80.351273 
L 768.640199 80.351273 
L 770.050405 80.747113 
L 770.755508 81.063804 
L 771.460611 80.588783 
L 772.165714 80.588783 
L 774.281023 80.192943 
L 791.9086 80.113763 
L 793.318806 80.034613 
L 800.369837 79.955432 
L 801.780043 79.876282 
L 839.85561 79.797102 
L 840.560713 80.192943 
L 841.265816 81.142954 
L 841.970919 81.222134 
L 842.676022 80.826293 
L 843.381125 81.222134 
L 844.086228 80.667963 
L 844.791331 80.667963 
L 845.496434 81.063804 
L 846.201538 80.588783 
L 847.611744 80.351273 
L 848.316847 80.509603 
L 849.727053 80.272123 
L 850.432156 80.192943 
L 851.137259 79.955432 
L 851.842362 80.826293 
L 852.547465 80.984623 
L 853.252568 80.509603 
L 853.957671 80.826293 
L 855.367878 80.747113 
L 857.483187 80.351273 
L 858.893393 80.430453 
L 859.598496 80.113763 
L 861.008702 80.192943 
L 861.713805 80.351273 
L 862.418908 80.113763 
L 866.649527 80.034613 
L 868.059733 79.955432 
L 885.68731 79.876282 
L 887.097516 79.797102 
L 925.878186 79.797102 
L 926.583289 79.955432 
L 927.288392 80.509603 
L 927.993495 80.667963 
L 928.698598 80.351273 
L 929.403701 80.905443 
L 930.108804 80.430453 
L 930.813907 80.430453 
L 931.51901 80.826293 
L 932.224114 80.430453 
L 932.929217 80.667963 
L 933.63432 80.747113 
L 934.339423 80.351273 
L 935.749629 80.192943 
L 936.454732 80.509603 
L 937.159835 80.430453 
L 937.864938 80.113763 
L 941.390454 79.797102 
L 1000.619112 79.797102 
L 1001.324216 80.984623 
L 1002.029319 80.588783 
L 1003.439525 81.063804 
L 1003.439525 81.063804 
" clip-path="url(#p681500f72c)" style="fill: none; stroke: #dd8452; stroke-width: 6; stroke-linecap: round"/>
   </g>
   <g id="line2d_16"/>
   <g id="line2d_17"/>
   <g id="patch_3">
    <path d="M 115.75 609.894375 
L 115.75 54.554375 
" style="fill: none; stroke: #cccccc; stroke-width: 1.875; stroke-linejoin: miter; stroke-linecap: square"/>
   </g>
   <g id="patch_4">
    <path d="M 1045.710455 609.894375 
L 1045.710455 54.554375 
" style="fill: none; stroke: #cccccc; stroke-width: 1.875; stroke-linejoin: miter; stroke-linecap: square"/>
   </g>
   <g id="patch_5">
    <path d="M 115.75 609.894375 
L 1045.710455 609.894375 
" style="fill: none; stroke: #cccccc; stroke-width: 1.875; stroke-linejoin: miter; stroke-linecap: square"/>
   </g>
   <g id="patch_6">
    <path d="M 115.75 54.554375 
L 1045.710455 54.554375 
" style="fill: none; stroke: #cccccc; stroke-width: 1.875; stroke-linejoin: miter; stroke-linecap: square"/>
   </g>
   <g id="text_16">
    <!-- Training Progress: Accuracy -->
    <g style="fill: #262626" transform="translate(297.48054 34.554375) scale(0.36 -0.36)">
     <defs>
      <path id="DejaVuSans-Bold-54" d="M 31 4666 
L 4331 4666 
L 4331 3756 
L 2784 3756 
L 2784 0 
L 1581 0 
L 1581 3756 
L 31 3756 
L 31 4666 
z
" transform="scale(0.015625)"/>
      <path id="DejaVuSans-Bold-72" d="M 3138 2547 
Q 2991 2616 2845 2648 
Q 2700 2681 2553 2681 
Q 2122 2681 1889 2404 
Q 1656 2128 1656 1613 
L 1656 0 
L 538 0 
L 538 3500 
L 1656 3500 
L 1656 2925 
Q 1872 3269 2151 3426 
Q 2431 3584 2822 3584 
Q 2878 3584 2943 3579 
Q 3009 3575 3134 3559 
L 3138 2547 
z
" transform="scale(0.015625)"/>
      <path id="DejaVuSans-Bold-61" d="M 2106 1575 
Q 1756 1575 1579 1456 
Q 1403 1338 1403 1106 
Q 1403 894 1545 773 
Q 1688 653 1941 653 
Q 2256 653 2472 879 
Q 2688 1106 2688 1447 
L 2688 1575 
L 2106 1575 
z
M 3816 1997 
L 3816 0 
L 2688 0 
L 2688 519 
Q 2463 200 2181 54 
Q 1900 -91 1497 -91 
Q 953 -91 614 226 
Q 275 544 275 1050 
Q 275 1666 698 1953 
Q 1122 2241 2028 2241 
L 2688 2241 
L 2688 2328 
Q 2688 2594 2478 2717 
Q 2269 2841 1825 2841 
Q 1466 2841 1156 2769 
Q 847 2697 581 2553 
L 581 3406 
Q 941 3494 1303 3539 
Q 1666 3584 2028 3584 
Q 2975 3584 3395 3211 
Q 3816 2838 3816 1997 
z
" transform="scale(0.015625)"/>
      <path id="DejaVuSans-Bold-69" d="M 538 3500 
L 1656 3500 
L 1656 0 
L 538 0 
L 538 3500 
z
M 538 4863 
L 1656 4863 
L 1656 3950 
L 538 3950 
L 538 4863 
z
" transform="scale(0.015625)"/>
      <path id="DejaVuSans-Bold-6e" d="M 4056 2131 
L 4056 0 
L 2931 0 
L 2931 347 
L 2931 1631 
Q 2931 2084 2911 2256 
Q 2891 2428 2841 2509 
Q 2775 2619 2662 2680 
Q 2550 2741 2406 2741 
Q 2056 2741 1856 2470 
Q 1656 2200 1656 1722 
L 1656 0 
L 538 0 
L 538 3500 
L 1656 3500 
L 1656 2988 
Q 1909 3294 2193 3439 
Q 2478 3584 2822 3584 
Q 3428 3584 3742 3212 
Q 4056 2841 4056 2131 
z
" transform="scale(0.015625)"/>
      <path id="DejaVuSans-Bold-67" d="M 2919 594 
Q 2688 288 2409 144 
Q 2131 0 1766 0 
Q 1125 0 706 504 
Q 288 1009 288 1791 
Q 288 2575 706 3076 
Q 1125 3578 1766 3578 
Q 2131 3578 2409 3434 
Q 2688 3291 2919 2981 
L 2919 3500 
L 4044 3500 
L 4044 353 
Q 4044 -491 3511 -936 
Q 2978 -1381 1966 -1381 
Q 1638 -1381 1331 -1331 
Q 1025 -1281 716 -1178 
L 716 -306 
Q 1009 -475 1290 -558 
Q 1572 -641 1856 -641 
Q 2406 -641 2662 -400 
Q 2919 -159 2919 353 
L 2919 594 
z
M 2181 2772 
Q 1834 2772 1640 2515 
Q 1447 2259 1447 1791 
Q 1447 1309 1634 1061 
Q 1822 813 2181 813 
Q 2531 813 2725 1069 
Q 2919 1325 2919 1791 
Q 2919 2259 2725 2515 
Q 2531 2772 2181 2772 
z
" transform="scale(0.015625)"/>
      <path id="DejaVuSans-Bold-20" transform="scale(0.015625)"/>
      <path id="DejaVuSans-Bold-50" d="M 588 4666 
L 2584 4666 
Q 3475 4666 3951 4270 
Q 4428 3875 4428 3144 
Q 4428 2409 3951 2014 
Q 3475 1619 2584 1619 
L 1791 1619 
L 1791 0 
L 588 0 
L 588 4666 
z
M 1791 3794 
L 1791 2491 
L 2456 2491 
Q 2806 2491 2997 2661 
Q 3188 2831 3188 3144 
Q 3188 3456 2997 3625 
Q 2806 3794 2456 3794 
L 1791 3794 
z
" transform="scale(0.015625)"/>
      <path id="DejaVuSans-Bold-6f" d="M 2203 2784 
Q 1831 2784 1636 2517 
Q 1441 2250 1441 1747 
Q 1441 1244 1636 976 
Q 1831 709 2203 709 
Q 2569 709 2762 976 
Q 2956 1244 2956 1747 
Q 2956 2250 2762 2517 
Q 2569 2784 2203 2784 
z
M 2203 3584 
Q 3106 3584 3614 3096 
Q 4122 2609 4122 1747 
Q 4122 884 3614 396 
Q 3106 -91 2203 -91 
Q 1297 -91 786 396 
Q 275 884 275 1747 
Q 275 2609 786 3096 
Q 1297 3584 2203 3584 
z
" transform="scale(0.015625)"/>
      <path id="DejaVuSans-Bold-65" d="M 4031 1759 
L 4031 1441 
L 1416 1441 
Q 1456 1047 1700 850 
Q 1944 653 2381 653 
Q 2734 653 3104 758 
Q 3475 863 3866 1075 
L 3866 213 
Q 3469 63 3072 -14 
Q 2675 -91 2278 -91 
Q 1328 -91 801 392 
Q 275 875 275 1747 
Q 275 2603 792 3093 
Q 1309 3584 2216 3584 
Q 3041 3584 3536 3087 
Q 4031 2591 4031 1759 
z
M 2881 2131 
Q 2881 2450 2695 2645 
Q 2509 2841 2209 2841 
Q 1884 2841 1681 2658 
Q 1478 2475 1428 2131 
L 2881 2131 
z
" transform="scale(0.015625)"/>
      <path id="DejaVuSans-Bold-73" d="M 3272 3391 
L 3272 2541 
Q 2913 2691 2578 2766 
Q 2244 2841 1947 2841 
Q 1628 2841 1473 2761 
Q 1319 2681 1319 2516 
Q 1319 2381 1436 2309 
Q 1553 2238 1856 2203 
L 2053 2175 
Q 2913 2066 3209 1816 
Q 3506 1566 3506 1031 
Q 3506 472 3093 190 
Q 2681 -91 1863 -91 
Q 1516 -91 1145 -36 
Q 775 19 384 128 
L 384 978 
Q 719 816 1070 734 
Q 1422 653 1784 653 
Q 2113 653 2278 743 
Q 2444 834 2444 1013 
Q 2444 1163 2330 1236 
Q 2216 1309 1875 1350 
L 1678 1375 
Q 931 1469 631 1722 
Q 331 1975 331 2491 
Q 331 3047 712 3315 
Q 1094 3584 1881 3584 
Q 2191 3584 2531 3537 
Q 2872 3491 3272 3391 
z
" transform="scale(0.015625)"/>
      <path id="DejaVuSans-Bold-3a" d="M 716 3500 
L 1844 3500 
L 1844 2291 
L 716 2291 
L 716 3500 
z
M 716 1209 
L 1844 1209 
L 1844 0 
L 716 0 
L 716 1209 
z
" transform="scale(0.015625)"/>
      <path id="DejaVuSans-Bold-41" d="M 3419 850 
L 1538 850 
L 1241 0 
L 31 0 
L 1759 4666 
L 3194 4666 
L 4922 0 
L 3713 0 
L 3419 850 
z
M 1838 1716 
L 3116 1716 
L 2478 3572 
L 1838 1716 
z
" transform="scale(0.015625)"/>
      <path id="DejaVuSans-Bold-63" d="M 3366 3391 
L 3366 2478 
Q 3138 2634 2908 2709 
Q 2678 2784 2431 2784 
Q 1963 2784 1702 2511 
Q 1441 2238 1441 1747 
Q 1441 1256 1702 982 
Q 1963 709 2431 709 
Q 2694 709 2930 787 
Q 3166 866 3366 1019 
L 3366 103 
Q 3103 6 2833 -42 
Q 2563 -91 2291 -91 
Q 1344 -91 809 395 
Q 275 881 275 1747 
Q 275 2613 809 3098 
Q 1344 3584 2291 3584 
Q 2566 3584 2833 3536 
Q 3100 3488 3366 3391 
z
" transform="scale(0.015625)"/>
      <path id="DejaVuSans-Bold-75" d="M 500 1363 
L 500 3500 
L 1625 3500 
L 1625 3150 
Q 1625 2866 1622 2436 
Q 1619 2006 1619 1863 
Q 1619 1441 1641 1255 
Q 1663 1069 1716 984 
Q 1784 875 1895 815 
Q 2006 756 2150 756 
Q 2500 756 2700 1025 
Q 2900 1294 2900 1772 
L 2900 3500 
L 4019 3500 
L 4019 0 
L 2900 0 
L 2900 506 
Q 2647 200 2364 54 
Q 2081 -91 1741 -91 
Q 1134 -91 817 281 
Q 500 653 500 1363 
z
" transform="scale(0.015625)"/>
      <path id="DejaVuSans-Bold-79" d="M 78 3500 
L 1197 3500 
L 2138 1125 
L 2938 3500 
L 4056 3500 
L 2584 -331 
Q 2363 -916 2067 -1148 
Q 1772 -1381 1288 -1381 
L 641 -1381 
L 641 -647 
L 991 -647 
Q 1275 -647 1404 -556 
Q 1534 -466 1606 -231 
L 1638 -134 
L 78 3500 
z
" transform="scale(0.015625)"/>
     </defs>
     <use xlink:href="#DejaVuSans-Bold-54"/>
     <use xlink:href="#DejaVuSans-Bold-72" transform="translate(57.212891 0)"/>
     <use xlink:href="#DejaVuSans-Bold-61" transform="translate(106.529297 0)"/>
     <use xlink:href="#DejaVuSans-Bold-69" transform="translate(174.009766 0)"/>
     <use xlink:href="#DejaVuSans-Bold-6e" transform="translate(208.287109 0)"/>
     <use xlink:href="#DejaVuSans-Bold-69" transform="translate(279.478516 0)"/>
     <use xlink:href="#DejaVuSans-Bold-6e" transform="translate(313.755859 0)"/>
     <use xlink:href="#DejaVuSans-Bold-67" transform="translate(384.947266 0)"/>
     <use xlink:href="#DejaVuSans-Bold-20" transform="translate(456.529297 0)"/>
     <use xlink:href="#DejaVuSans-Bold-50" transform="translate(491.34375 0)"/>
     <use xlink:href="#DejaVuSans-Bold-72" transform="translate(564.634766 0)"/>
     <use xlink:href="#DejaVuSans-Bold-6f" transform="translate(613.951172 0)"/>
     <use xlink:href="#DejaVuSans-Bold-67" transform="translate(682.652344 0)"/>
     <use xlink:href="#DejaVuSans-Bold-72" transform="translate(754.234375 0)"/>
     <use xlink:href="#DejaVuSans-Bold-65" transform="translate(803.550781 0)"/>
     <use xlink:href="#DejaVuSans-Bold-73" transform="translate(871.373047 0)"/>
     <use xlink:href="#DejaVuSans-Bold-73" transform="translate(930.894531 0)"/>
     <use xlink:href="#DejaVuSans-Bold-3a" transform="translate(990.416016 0)"/>
     <use xlink:href="#DejaVuSans-Bold-20" transform="translate(1030.40625 0)"/>
     <use xlink:href="#DejaVuSans-Bold-41" transform="translate(1065.220703 0)"/>
     <use xlink:href="#DejaVuSans-Bold-63" transform="translate(1142.613281 0)"/>
     <use xlink:href="#DejaVuSans-Bold-63" transform="translate(1201.890625 0)"/>
     <use xlink:href="#DejaVuSans-Bold-75" transform="translate(1261.167969 0)"/>
     <use xlink:href="#DejaVuSans-Bold-72" transform="translate(1332.359375 0)"/>
     <use xlink:href="#DejaVuSans-Bold-61" transform="translate(1381.675781 0)"/>
     <use xlink:href="#DejaVuSans-Bold-63" transform="translate(1449.15625 0)"/>
     <use xlink:href="#DejaVuSans-Bold-79" transform="translate(1508.433594 0)"/>
    </g>
   </g>
   <g id="legend_1">
    <g id="patch_7">
     <path d="M 846.430455 593.894375 
L 1023.310455 593.894375 
Q 1029.710455 593.894375 1029.710455 587.494375 
L 1029.710455 496.754375 
Q 1029.710455 490.354375 1023.310455 490.354375 
L 846.430455 490.354375 
Q 840.030455 490.354375 840.030455 496.754375 
L 840.030455 587.494375 
Q 840.030455 593.894375 846.430455 593.894375 
z
" style="fill: #ffffff; opacity: 0.8; stroke: #cccccc; stroke-width: 1.5; stroke-linejoin: miter"/>
    </g>
    <g id="line2d_18">
     <path d="M 852.830455 516.269375 
L 884.830455 516.269375 
L 916.830455 516.269375 
" style="fill: none; stroke: #4c72b0; stroke-width: 6; stroke-linecap: round"/>
    </g>
    <g id="text_17">
     <!-- train -->
     <g style="fill: #262626" transform="translate(942.430455 527.469375) scale(0.32 -0.32)">
      <defs>
       <path id="DejaVuSans-74" d="M 1172 4494 
L 1172 3500 
L 2356 3500 
L 2356 3053 
L 1172 3053 
L 1172 1153 
Q 1172 725 1289 603 
Q 1406 481 1766 481 
L 2356 481 
L 2356 0 
L 1766 0 
Q 1100 0 847 248 
Q 594 497 594 1153 
L 594 3053 
L 172 3053 
L 172 3500 
L 594 3500 
L 594 4494 
L 1172 4494 
z
" transform="scale(0.015625)"/>
       <path id="DejaVuSans-69" d="M 603 3500 
L 1178 3500 
L 1178 0 
L 603 0 
L 603 3500 
z
M 603 4863 
L 1178 4863 
L 1178 4134 
L 603 4134 
L 603 4863 
z
" transform="scale(0.015625)"/>
       <path id="DejaVuSans-6e" d="M 3513 2113 
L 3513 0 
L 2938 0 
L 2938 2094 
Q 2938 2591 2744 2837 
Q 2550 3084 2163 3084 
Q 1697 3084 1428 2787 
Q 1159 2491 1159 1978 
L 1159 0 
L 581 0 
L 581 3500 
L 1159 3500 
L 1159 2956 
Q 1366 3272 1645 3428 
Q 1925 3584 2291 3584 
Q 2894 3584 3203 3211 
Q 3513 2838 3513 2113 
z
" transform="scale(0.015625)"/>
      </defs>
      <use xlink:href="#DejaVuSans-74"/>
      <use xlink:href="#DejaVuSans-72" transform="translate(39.208984 0)"/>
      <use xlink:href="#DejaVuSans-61" transform="translate(80.322266 0)"/>
      <use xlink:href="#DejaVuSans-69" transform="translate(141.601562 0)"/>
      <use xlink:href="#DejaVuSans-6e" transform="translate(169.384766 0)"/>
     </g>
    </g>
    <g id="line2d_19">
     <path d="M 852.830455 563.239375 
L 884.830455 563.239375 
L 916.830455 563.239375 
" style="fill: none; stroke: #dd8452; stroke-width: 6; stroke-linecap: round"/>
    </g>
    <g id="text_18">
     <!-- val -->
     <g style="fill: #262626" transform="translate(942.430455 574.439375) scale(0.32 -0.32)">
      <defs>
       <path id="DejaVuSans-76" d="M 191 3500 
L 800 3500 
L 1894 563 
L 2988 3500 
L 3597 3500 
L 2284 0 
L 1503 0 
L 191 3500 
z
" transform="scale(0.015625)"/>
       <path id="DejaVuSans-6c" d="M 603 4863 
L 1178 4863 
L 1178 0 
L 603 0 
L 603 4863 
z
" transform="scale(0.015625)"/>
      </defs>
      <use xlink:href="#DejaVuSans-76"/>
      <use xlink:href="#DejaVuSans-61" transform="translate(59.179688 0)"/>
      <use xlink:href="#DejaVuSans-6c" transform="translate(120.458984 0)"/>
     </g>
    </g>
   </g>
  </g>
 </g>
 <defs>
  <clipPath id="p681500f72c">
   <rect x="115.75" y="54.554375" width="929.960455" height="555.34"/>
  </clipPath>
 </defs>
</svg>
