<?xml version="1.0" encoding="utf-8" standalone="no"?>
<!DOCTYPE svg PUBLIC "-//W3C//DTD SVG 1.1//EN"
  "http://www.w3.org/Graphics/SVG/1.1/DTD/svg11.dtd">
<svg xmlns:xlink="http://www.w3.org/1999/xlink" width="1052.780455pt" height="695.534375pt" viewBox="0 0 1052.780455 695.534375" xmlns="http://www.w3.org/2000/svg" version="1.1">
 <metadata>
  <rdf:RDF xmlns:dc="http://purl.org/dc/elements/1.1/" xmlns:cc="http://creativecommons.org/ns#" xmlns:rdf="http://www.w3.org/1999/02/22-rdf-syntax-ns#">
   <cc:Work>
    <dc:type rdf:resource="http://purl.org/dc/dcmitype/StillImage"/>
    <dc:date>2026-04-04T11:09:28.329917</dc:date>
    <dc:format>image/svg+xml</dc:format>
    <dc:creator>
     <cc:Agent>
      <dc:title>Matplotlib v3.10.1, https://matplotlib.org/</dc:title>
     </cc:Agent>
    </dc:creator>
   </cc:Work>
  </rdf:RDF>
 </metadata>
 <defs>
  <style type="text/css">*{stroke-linejoin: round; stroke-linecap: butt}</style>
 </defs>
 <g id="figure_1">
  <g id="patch_1">
   <path d="M 0 695.534375 
L 1052.780455 695.534375 
L 1052.780455 0 
L 0 0 
z
" style="fill: #ffffff"/>
  </g>
  <g id="axes_1">
   <g id="patch_2">
    <path d="M 75.03 609.894375 
L 1045.580455 609.894375 
L 1045.580455 54.554375 
L 75.03 54.554375 
z
" style="fill: #ffffff"/>
   </g>
   <g id="matplotlib.axis_1">
    <g id="xtick_1">
     <g id="line2d_1">
      <path d="M 118.410051 609.894375 
L 118.410051 54.554375 
" clip-path="url(#p9b611da7d5)" style="fill: none; stroke: #cccccc; stroke-opacity: 0.3; stroke-width: 1.5; stroke-linecap: round"/>
     </g>
     <g id="text_1">
      <!-- 0 -->
      <g style="fill: #262626" transform="translate(108.230051 646.709375) scale(0.32 -0.32)">
       <defs>
        <path id="DejaVuSans-30" d="M 2034 4250 
Q 1547 4250 1301 3770 
Q 1056 3291 1056 2328 
Q 1056 1369 1301 889 
Q 1547 409 2034 409 
Q 2525 409 2770 889 
Q 3016 1369 3016 2328 
Q 3016 3291 2770 3770 
Q 2525 4250 2034 4250 
z
M 2034 4750 
Q 2819 4750 3233 4129 
Q 3647 3509 3647 2328 
Q 3647 1150 3233 529 
Q 2819 -91 2034 -91 
Q 1250 -91 836 529 
Q 422 1150 422 2328 
Q 422 3509 836 4129 
Q 1250 4750 2034 4750 
z
" transform="scale(0.015625)"/>
       </defs>
       <use xlink:href="#DejaVuSans-30"/>
      </g>
     </g>
    </g>
    <g id="xtick_2">
     <g id="line2d_2">
      <path d="M 265.585797 609.894375 
L 265.585797 54.554375 
" clip-path="url(#p9b611da7d5)" style="fill: none; stroke: #cccccc; stroke-opacity: 0.3; stroke-width: 1.5; stroke-linecap: round"/>
     </g>
     <g id="text_2">
      <!-- 200 -->
      <g style="fill: #262626" transform="translate(235.045797 646.709375) scale(0.32 -0.32)">
       <defs>
        <path id="DejaVuSans-32" d="M 1228 531 
L 3431 531 
L 3431 0 
L 469 0 
L 469 531 
Q 828 903 1448 1529 
Q 2069 2156 2228 2338 
Q 2531 2678 2651 2914 
Q 2772 3150 2772 3378 
Q 2772 3750 2511 3984 
Q 2250 4219 1831 4219 
Q 1534 4219 1204 4116 
Q 875 4013 500 3803 
L 500 4441 
Q 881 4594 1212 4672 
Q 1544 4750 1819 4750 
Q 2544 4750 2975 4387 
Q 3406 4025 3406 3419 
Q 3406 3131 3298 2873 
Q 3191 2616 2906 2266 
Q 2828 2175 2409 1742 
Q 1991 1309 1228 531 
z
" transform="scale(0.015625)"/>
       </defs>
       <use xlink:href="#DejaVuSans-32"/>
       <use xlink:href="#DejaVuSans-30" transform="translate(63.623047 0)"/>
       <use xlink:href="#DejaVuSans-30" transform="translate(127.246094 0)"/>
      </g>
     </g>
    </g>
    <g id="xtick_3">
     <g id="line2d_3">
      <path d="M 412.761542 609.894375 
L 412.761542 54.554375 
" clip-path="url(#p9b611da7d5)" style="fill: none; stroke: #cccccc; stroke-opacity: 0.3; stroke-width: 1.5; stroke-linecap: round"/>
     </g>
     <g id="text_3">
      <!-- 400 -->
      <g style="fill: #262626" transform="translate(382.221542 646.709375) scale(0.32 -0.32)">
       <defs>
        <path id="DejaVuSans-34" d="M 2419 4116 
L 825 1625 
L 2419 1625 
L 2419 4116 
z
M 2253 4666 
L 3047 4666 
L 3047 1625 
L 3713 1625 
L 3713 1100 
L 3047 1100 
L 3047 0 
L 2419 0 
L 2419 1100 
L 313 1100 
L 313 1709 
L 2253 4666 
z
" transform="scale(0.015625)"/>
       </defs>
       <use xlink:href="#DejaVuSans-34"/>
       <use xlink:href="#DejaVuSans-30" transform="translate(63.623047 0)"/>
       <use xlink:href="#DejaVuSans-30" transform="translate(127.246094 0)"/>
      </g>
     </g>
    </g>
    <g id="xtick_4">
     <g id="line2d_4">
      <path d="M 559.937288 609.894375 
L 559.937288 54.554375 
" clip-path="url(#p9b611da7d5)" style="fill: none; stroke: #cccccc; stroke-opacity: 0.3; stroke-width: 1.5; stroke-linecap: round"/>
     </g>
     <g id="text_4">
      <!-- 600 -->
      <g style="fill: #262626" transform="translate(529.397288 646.709375) scale(0.32 -0.32)">
       <defs>
        <path id="DejaVuSans-36" d="M 2113 2584 
Q 1688 2584 1439 2293 
Q 1191 2003 1191 1497 
Q 1191 994 1439 701 
Q 1688 409 2113 409 
Q 2538 409 2786 701 
Q 3034 994 3034 1497 
Q 3034 2003 2786 2293 
Q 2538 2584 2113 2584 
z
M 3366 4563 
L 3366 3988 
Q 3128 4100 2886 4159 
Q 2644 4219 2406 4219 
Q 1781 4219 1451 3797 
Q 1122 3375 1075 2522 
Q 1259 2794 1537 2939 
Q 1816 3084 2150 3084 
Q 2853 3084 3261 2657 
Q 3669 2231 3669 1497 
Q 3669 778 3244 343 
Q 2819 -91 2113 -91 
Q 1303 -91 875 529 
Q 447 1150 447 2328 
Q 447 3434 972 4092 
Q 1497 4750 2381 4750 
Q 2619 4750 2861 4703 
Q 3103 4656 3366 4563 
z
" transform="scale(0.015625)"/>
       </defs>
       <use xlink:href="#DejaVuSans-36"/>
       <use xlink:href="#DejaVuSans-30" transform="translate(63.623047 0)"/>
       <use xlink:href="#DejaVuSans-30" transform="translate(127.246094 0)"/>
      </g>
     </g>
    </g>
    <g id="xtick_5">
     <g id="line2d_5">
      <path d="M 707.113034 609.894375 
L 707.113034 54.554375 
" clip-path="url(#p9b611da7d5)" style="fill: none; stroke: #cccccc; stroke-opacity: 0.3; stroke-width: 1.5; stroke-linecap: round"/>
     </g>
     <g id="text_5">
      <!-- 800 -->
      <g style="fill: #262626" transform="translate(676.573034 646.709375) scale(0.32 -0.32)">
       <defs>
        <path id="DejaVuSans-38" d="M 2034 2216 
Q 1584 2216 1326 1975 
Q 1069 1734 1069 1313 
Q 1069 891 1326 650 
Q 1584 409 2034 409 
Q 2484 409 2743 651 
Q 3003 894 3003 1313 
Q 3003 1734 2745 1975 
Q 2488 2216 2034 2216 
z
M 1403 2484 
Q 997 2584 770 2862 
Q 544 3141 544 3541 
Q 544 4100 942 4425 
Q 1341 4750 2034 4750 
Q 2731 4750 3128 4425 
Q 3525 4100 3525 3541 
Q 3525 3141 3298 2862 
Q 3072 2584 2669 2484 
Q 3125 2378 3379 2068 
Q 3634 1759 3634 1313 
Q 3634 634 3220 271 
Q 2806 -91 2034 -91 
Q 1263 -91 848 271 
Q 434 634 434 1313 
Q 434 1759 690 2068 
Q 947 2378 1403 2484 
z
M 1172 3481 
Q 1172 3119 1398 2916 
Q 1625 2713 2034 2713 
Q 2441 2713 2670 2916 
Q 2900 3119 2900 3481 
Q 2900 3844 2670 4047 
Q 2441 4250 2034 4250 
Q 1625 4250 1398 4047 
Q 1172 3844 1172 3481 
z
" transform="scale(0.015625)"/>
       </defs>
       <use xlink:href="#DejaVuSans-38"/>
       <use xlink:href="#DejaVuSans-30" transform="translate(63.623047 0)"/>
       <use xlink:href="#DejaVuSans-30" transform="translate(127.246094 0)"/>
      </g>
     </g>
    </g>
    <g id="xtick_6">
     <g id="line2d_6">
      <path d="M 854.288779 609.894375 
L 854.288779 54.554375 
" clip-path="url(#p9b611da7d5)" style="fill: none; stroke: #cccccc; stroke-opacity: 0.3; stroke-width: 1.5; stroke-linecap: round"/>
     </g>
     <g id="text_6">
      <!-- 1000 -->
      <g style="fill: #262626" transform="translate(813.568779 646.709375) scale(0.32 -0.32)">
       <defs>
        <path id="DejaVuSans-31" d="M 794 531 
L 1825 531 
L 1825 4091 
L 703 3866 
L 703 4441 
L 1819 4666 
L 2450 4666 
L 2450 531 
L 3481 531 
L 3481 0 
L 794 0 
L 794 531 
z
" transform="scale(0.015625)"/>
       </defs>
       <use xlink:href="#DejaVuSans-31"/>
       <use xlink:href="#DejaVuSans-30" transform="translate(63.623047 0)"/>
       <use xlink:href="#DejaVuSans-30" transform="translate(127.246094 0)"/>
       <use xlink:href="#DejaVuSans-30" transform="translate(190.869141 0)"/>
      </g>
     </g>
    </g>
    <g id="xtick_7">
     <g id="line2d_7">
      <path d="M 1001.464525 609.894375 
L 1001.464525 54.554375 
" clip-path="url(#p9b611da7d5)" style="fill: none; stroke: #cccccc; stroke-opacity: 0.3; stroke-width: 1.5; stroke-linecap: round"/>
     </g>
     <g id="text_7">
      <!-- 1200 -->
      <g style="fill: #262626" transform="translate(960.744525 646.709375) scale(0.32 -0.32)">
       <use xlink:href="#DejaVuSans-31"/>
       <use xlink:href="#DejaVuSans-32" transform="translate(63.623047 0)"/>
       <use xlink:href="#DejaVuSans-30" transform="translate(127.246094 0)"/>
       <use xlink:href="#DejaVuSans-30" transform="translate(190.869141 0)"/>
      </g>
     </g>
    </g>
    <g id="text_8">
     <!-- Epoch -->
     <g style="fill: #262626" transform="translate(511.310227 681.679375) scale(0.32 -0.32)">
      <defs>
       <path id="DejaVuSans-45" d="M 628 4666 
L 3578 4666 
L 3578 4134 
L 1259 4134 
L 1259 2753 
L 3481 2753 
L 3481 2222 
L 1259 2222 
L 1259 531 
L 3634 531 
L 3634 0 
L 628 0 
L 628 4666 
z
" transform="scale(0.015625)"/>
       <path id="DejaVuSans-70" d="M 1159 525 
L 1159 -1331 
L 581 -1331 
L 581 3500 
L 1159 3500 
L 1159 2969 
Q 1341 3281 1617 3432 
Q 1894 3584 2278 3584 
Q 2916 3584 3314 3078 
Q 3713 2572 3713 1747 
Q 3713 922 3314 415 
Q 2916 -91 2278 -91 
Q 1894 -91 1617 61 
Q 1341 213 1159 525 
z
M 3116 1747 
Q 3116 2381 2855 2742 
Q 2594 3103 2138 3103 
Q 1681 3103 1420 2742 
Q 1159 2381 1159 1747 
Q 1159 1113 1420 752 
Q 1681 391 2138 391 
Q 2594 391 2855 752 
Q 3116 1113 3116 1747 
z
" transform="scale(0.015625)"/>
       <path id="DejaVuSans-6f" d="M 1959 3097 
Q 1497 3097 1228 2736 
Q 959 2375 959 1747 
Q 959 1119 1226 758 
Q 1494 397 1959 397 
Q 2419 397 2687 759 
Q 2956 1122 2956 1747 
Q 2956 2369 2687 2733 
Q 2419 3097 1959 3097 
z
M 1959 3584 
Q 2709 3584 3137 3096 
Q 3566 2609 3566 1747 
Q 3566 888 3137 398 
Q 2709 -91 1959 -91 
Q 1206 -91 779 398 
Q 353 888 353 1747 
Q 353 2609 779 3096 
Q 1206 3584 1959 3584 
z
" transform="scale(0.015625)"/>
       <path id="DejaVuSans-63" d="M 3122 3366 
L 3122 2828 
Q 2878 2963 2633 3030 
Q 2388 3097 2138 3097 
Q 1578 3097 1268 2742 
Q 959 2388 959 1747 
Q 959 1106 1268 751 
Q 1578 397 2138 397 
Q 2388 397 2633 464 
Q 2878 531 3122 666 
L 3122 134 
Q 2881 22 2623 -34 
Q 2366 -91 2075 -91 
Q 1284 -91 818 406 
Q 353 903 353 1747 
Q 353 2603 823 3093 
Q 1294 3584 2113 3584 
Q 2378 3584 2631 3529 
Q 2884 3475 3122 3366 
z
" transform="scale(0.015625)"/>
       <path id="DejaVuSans-68" d="M 3513 2113 
L 3513 0 
L 2938 0 
L 2938 2094 
Q 2938 2591 2744 2837 
Q 2550 3084 2163 3084 
Q 1697 3084 1428 2787 
Q 1159 2491 1159 1978 
L 1159 0 
L 581 0 
L 581 4863 
L 1159 4863 
L 1159 2956 
Q 1366 3272 1645 3428 
Q 1925 3584 2291 3584 
Q 2894 3584 3203 3211 
Q 3513 2838 3513 2113 
z
" transform="scale(0.015625)"/>
      </defs>
      <use xlink:href="#DejaVuSans-45"/>
      <use xlink:href="#DejaVuSans-70" transform="translate(63.183594 0)"/>
      <use xlink:href="#DejaVuSans-6f" transform="translate(126.660156 0)"/>
      <use xlink:href="#DejaVuSans-63" transform="translate(187.841797 0)"/>
      <use xlink:href="#DejaVuSans-68" transform="translate(242.822266 0)"/>
     </g>
    </g>
   </g>
   <g id="matplotlib.axis_2">
    <g id="ytick_1">
     <g id="line2d_8">
      <path d="M 75.03 584.651678 
L 1045.580455 584.651678 
" clip-path="url(#p9b611da7d5)" style="fill: none; stroke: #cccccc; stroke-opacity: 0.3; stroke-width: 1.5; stroke-linecap: round"/>
     </g>
     <g id="text_9">
      <!-- 0 -->
      <g style="fill: #262626" transform="translate(42.17 596.809178) scale(0.32 -0.32)">
       <use xlink:href="#DejaVuSans-30"/>
      </g>
     </g>
    </g>
    <g id="ytick_2">
     <g id="line2d_9">
      <path d="M 75.03 493.121679 
L 1045.580455 493.121679 
" clip-path="url(#p9b611da7d5)" style="fill: none; stroke: #cccccc; stroke-opacity: 0.3; stroke-width: 1.5; stroke-linecap: round"/>
     </g>
     <g id="text_10">
      <!-- 1 -->
      <g style="fill: #262626" transform="translate(42.17 505.279179) scale(0.32 -0.32)">
       <use xlink:href="#DejaVuSans-31"/>
      </g>
     </g>
    </g>
    <g id="ytick_3">
     <g id="line2d_10">
      <path d="M 75.03 401.591681 
L 1045.580455 401.591681 
" clip-path="url(#p9b611da7d5)" style="fill: none; stroke: #cccccc; stroke-opacity: 0.3; stroke-width: 1.5; stroke-linecap: round"/>
     </g>
     <g id="text_11">
      <!-- 2 -->
      <g style="fill: #262626" transform="translate(42.17 413.749181) scale(0.32 -0.32)">
       <use xlink:href="#DejaVuSans-32"/>
      </g>
     </g>
    </g>
    <g id="ytick_4">
     <g id="line2d_11">
      <path d="M 75.03 310.061682 
L 1045.580455 310.061682 
" clip-path="url(#p9b611da7d5)" style="fill: none; stroke: #cccccc; stroke-opacity: 0.3; stroke-width: 1.5; stroke-linecap: round"/>
     </g>
     <g id="text_12">
      <!-- 3 -->
      <g style="fill: #262626" transform="translate(42.17 322.219182) scale(0.32 -0.32)">
       <defs>
        <path id="DejaVuSans-33" d="M 2597 2516 
Q 3050 2419 3304 2112 
Q 3559 1806 3559 1356 
Q 3559 666 3084 287 
Q 2609 -91 1734 -91 
Q 1441 -91 1130 -33 
Q 819 25 488 141 
L 488 750 
Q 750 597 1062 519 
Q 1375 441 1716 441 
Q 2309 441 2620 675 
Q 2931 909 2931 1356 
Q 2931 1769 2642 2001 
Q 2353 2234 1838 2234 
L 1294 2234 
L 1294 2753 
L 1863 2753 
Q 2328 2753 2575 2939 
Q 2822 3125 2822 3475 
Q 2822 3834 2567 4026 
Q 2313 4219 1838 4219 
Q 1578 4219 1281 4162 
Q 984 4106 628 3988 
L 628 4550 
Q 988 4650 1302 4700 
Q 1616 4750 1894 4750 
Q 2613 4750 3031 4423 
Q 3450 4097 3450 3541 
Q 3450 3153 3228 2886 
Q 3006 2619 2597 2516 
z
" transform="scale(0.015625)"/>
       </defs>
       <use xlink:href="#DejaVuSans-33"/>
      </g>
     </g>
    </g>
    <g id="ytick_5">
     <g id="line2d_12">
      <path d="M 75.03 218.531684 
L 1045.580455 218.531684 
" clip-path="url(#p9b611da7d5)" style="fill: none; stroke: #cccccc; stroke-opacity: 0.3; stroke-width: 1.5; stroke-linecap: round"/>
     </g>
     <g id="text_13">
      <!-- 4 -->
      <g style="fill: #262626" transform="translate(42.17 230.689184) scale(0.32 -0.32)">
       <use xlink:href="#DejaVuSans-34"/>
      </g>
     </g>
    </g>
    <g id="ytick_6">
     <g id="line2d_13">
      <path d="M 75.03 127.001685 
L 1045.580455 127.001685 
" clip-path="url(#p9b611da7d5)" style="fill: none; stroke: #cccccc; stroke-opacity: 0.3; stroke-width: 1.5; stroke-linecap: round"/>
     </g>
     <g id="text_14">
      <!-- 5 -->
      <g style="fill: #262626" transform="translate(42.17 139.159185) scale(0.32 -0.32)">
       <defs>
        <path id="DejaVuSans-35" d="M 691 4666 
L 3169 4666 
L 3169 4134 
L 1269 4134 
L 1269 2991 
Q 1406 3038 1543 3061 
Q 1681 3084 1819 3084 
Q 2600 3084 3056 2656 
Q 3513 2228 3513 1497 
Q 3513 744 3044 326 
Q 2575 -91 1722 -91 
Q 1428 -91 1123 -41 
Q 819 9 494 109 
L 494 744 
Q 775 591 1075 516 
Q 1375 441 1709 441 
Q 2250 441 2565 725 
Q 2881 1009 2881 1497 
Q 2881 1984 2565 2268 
Q 2250 2553 1709 2553 
Q 1456 2553 1204 2497 
Q 953 2441 691 2322 
L 691 4666 
z
" transform="scale(0.015625)"/>
       </defs>
       <use xlink:href="#DejaVuSans-35"/>
      </g>
     </g>
    </g>
    <g id="text_15">
     <!-- Loss -->
     <g style="fill: #262626" transform="translate(31.515 367.319375) rotate(-90) scale(0.32 -0.32)">
      <defs>
       <path id="DejaVuSans-4c" d="M 628 4666 
L 1259 4666 
L 1259 531 
L 3531 531 
L 3531 0 
L 628 0 
L 628 4666 
z
" transform="scale(0.015625)"/>
       <path id="DejaVuSans-73" d="M 2834 3397 
L 2834 2853 
Q 2591 2978 2328 3040 
Q 2066 3103 1784 3103 
Q 1356 3103 1142 2972 
Q 928 2841 928 2578 
Q 928 2378 1081 2264 
Q 1234 2150 1697 2047 
L 1894 2003 
Q 2506 1872 2764 1633 
Q 3022 1394 3022 966 
Q 3022 478 2636 193 
Q 2250 -91 1575 -91 
Q 1294 -91 989 -36 
Q 684 19 347 128 
L 347 722 
Q 666 556 975 473 
Q 1284 391 1588 391 
Q 1994 391 2212 530 
Q 2431 669 2431 922 
Q 2431 1156 2273 1281 
Q 2116 1406 1581 1522 
L 1381 1569 
Q 847 1681 609 1914 
Q 372 2147 372 2553 
Q 372 3047 722 3315 
Q 1072 3584 1716 3584 
Q 2034 3584 2315 3537 
Q 2597 3491 2834 3397 
z
" transform="scale(0.015625)"/>
      </defs>
      <use xlink:href="#DejaVuSans-4c"/>
      <use xlink:href="#DejaVuSans-6f" transform="translate(53.962891 0)"/>
      <use xlink:href="#DejaVuSans-73" transform="translate(115.144531 0)"/>
      <use xlink:href="#DejaVuSans-73" transform="translate(167.244141 0)"/>
     </g>
    </g>
   </g>
   <g id="FillBetweenPolyCollection_1"/>
   <g id="FillBetweenPolyCollection_2"/>
   <g id="line2d_14">
    <path d="M 119.14593 141.359942 
L 119.881808 147.99004 
L 120.617687 150.910975 
L 121.353566 151.217406 
L 122.089445 154.101374 
L 122.825323 159.737546 
L 123.561202 166.464186 
L 125.768838 195.233641 
L 127.240596 212.407518 
L 130.919989 265.603935 
L 131.655868 278.826595 
L 132.391747 287.966318 
L 133.863504 316.575553 
L 134.599383 332.486543 
L 135.335262 345.232645 
L 136.07114 360.738632 
L 137.542898 400.431119 
L 140.486413 470.145856 
L 142.694049 507.900881 
L 144.901685 535.002675 
L 145.637564 542.139296 
L 147.109321 552.456163 
L 148.581079 560.020902 
L 149.316958 562.381452 
L 150.052836 565.956761 
L 150.788715 568.126738 
L 151.524594 569.471155 
L 152.260473 571.177982 
L 152.996351 572.596726 
L 153.73223 573.219133 
L 154.468109 574.22568 
L 155.203987 574.917785 
L 155.939866 576.468194 
L 156.675745 577.252765 
L 157.411624 577.723826 
L 158.147502 577.527786 
L 158.883381 578.098428 
L 159.61926 578.526495 
L 160.355139 578.796392 
L 161.091017 579.445908 
L 161.826896 579.386009 
L 164.770411 580.418524 
L 165.50629 580.147148 
L 166.978047 580.391884 
L 168.449805 579.587784 
L 171.393319 581.222104 
L 172.865077 580.636711 
L 174.336834 581.301395 
L 175.072713 581.506612 
L 175.808592 581.874189 
L 176.544471 581.9137 
L 177.280349 581.548945 
L 178.016228 581.577455 
L 178.752107 581.878464 
L 179.487985 581.831616 
L 180.223864 581.945178 
L 180.959743 582.424948 
L 182.4315 582.584465 
L 183.903258 582.190153 
L 184.639137 582.346525 
L 186.110894 581.766768 
L 186.846773 582.018423 
L 189.054409 582.135726 
L 189.790288 582.616579 
L 190.526166 582.839641 
L 191.262045 582.850103 
L 191.997924 582.527369 
L 192.733803 582.783178 
L 193.469681 582.730901 
L 194.20556 582.307966 
L 194.941439 582.446548 
L 195.677317 583.195187 
L 196.413196 583.486028 
L 197.149075 583.430762 
L 198.620832 583.726339 
L 199.356711 583.571582 
L 200.09259 582.884516 
L 202.300226 583.005064 
L 204.507862 582.553111 
L 205.97962 581.876344 
L 206.715498 582.131727 
L 208.187256 582.050929 
L 208.923135 582.448446 
L 209.659013 582.448211 
L 210.394892 583.100118 
L 211.130771 582.876218 
L 211.866649 583.264828 
L 212.602528 583.154838 
L 213.338407 583.560891 
L 214.074286 583.835137 
L 219.225437 584.212366 
L 220.697194 583.973395 
L 221.433073 583.646846 
L 222.168952 583.041819 
L 222.90483 582.881146 
L 223.640709 582.408752 
L 224.376588 582.356542 
L 225.112467 582.747789 
L 225.848345 582.40232 
L 227.320103 582.098845 
L 228.79186 583.28041 
L 229.527739 583.170576 
L 230.263618 583.346443 
L 231.735375 583.274376 
L 232.471254 583.54297 
L 233.207133 583.560082 
L 233.943011 582.682359 
L 234.67889 583.545175 
L 236.150648 583.791206 
L 236.886526 583.68853 
L 237.622405 583.896252 
L 239.830041 584.063519 
L 242.037677 583.731161 
L 242.773556 583.861304 
L 243.509435 583.746036 
L 244.245314 583.850964 
L 245.717071 583.62659 
L 246.45295 583.358212 
L 247.924707 583.358904 
L 248.660586 583.737426 
L 250.132343 582.934152 
L 250.868222 583.316799 
L 251.604101 582.9011 
L 252.33998 583.502984 
L 253.075858 582.990199 
L 253.811737 583.355082 
L 254.547616 583.544218 
L 255.283494 583.941019 
L 256.755252 583.44429 
L 257.491131 583.912061 
L 258.227009 584.123167 
L 258.962888 583.933652 
L 260.434646 584.290302 
L 261.906403 584.151895 
L 264.849918 583.203998 
L 265.585797 583.263437 
L 267.057554 583.687882 
L 267.793433 583.549027 
L 268.529312 583.890826 
L 269.26519 583.898901 
L 270.001069 583.704541 
L 270.736948 583.945664 
L 272.208705 583.946627 
L 272.944584 584.20344 
L 273.680463 584.027918 
L 274.416341 584.253926 
L 275.888099 584.164756 
L 276.623978 584.003102 
L 277.359856 584.197575 
L 278.095735 583.970872 
L 278.831614 583.51571 
L 279.567492 582.312124 
L 281.03925 582.851388 
L 281.775129 582.663031 
L 282.511007 583.347606 
L 283.246886 583.637996 
L 283.982765 583.364653 
L 284.718644 583.577823 
L 285.454522 583.992761 
L 286.190401 584.207027 
L 288.398037 584.382793 
L 289.133916 583.615518 
L 290.605673 584.2589 
L 292.077431 584.247441 
L 294.285067 584.276766 
L 295.020946 584.214976 
L 295.756825 584.029848 
L 298.700339 584.139569 
L 299.436218 583.952755 
L 300.172097 583.493346 
L 301.643854 583.676651 
L 302.379733 583.440388 
L 303.115612 583.348687 
L 304.587369 583.57863 
L 305.323248 583.996198 
L 307.530884 583.804771 
L 309.002642 584.155841 
L 309.73852 583.831828 
L 310.474399 583.806903 
L 311.210278 583.585828 
L 311.946157 583.881734 
L 312.682035 583.529009 
L 313.417914 583.488087 
L 314.153793 583.792803 
L 314.889671 583.919518 
L 315.62555 583.90078 
L 316.361429 584.103336 
L 318.569065 584.169398 
L 323.720216 584.496623 
L 327.39961 584.498441 
L 331.814882 584.287665 
L 333.28664 583.653436 
L 334.022518 583.572054 
L 335.494276 584.150951 
L 336.230155 583.801906 
L 337.701912 584.209404 
L 340.645427 584.455816 
L 341.381306 584.411628 
L 342.853063 584.532562 
L 344.324821 584.548267 
L 345.796578 584.227924 
L 346.532457 584.373566 
L 347.268335 584.344936 
L 349.475972 583.81011 
L 350.21185 583.739306 
L 350.947729 583.321519 
L 352.419487 583.837922 
L 353.891244 584.247093 
L 355.363001 584.266676 
L 356.09888 584.520245 
L 358.306516 584.553375 
L 361.98591 584.626044 
L 367.87294 584.608347 
L 370.816455 584.227284 
L 372.288212 583.831444 
L 373.024091 584.012373 
L 373.75997 583.293245 
L 374.495848 583.82514 
L 375.967606 583.949585 
L 376.703485 584.068235 
L 377.439363 584.06241 
L 378.911121 584.310044 
L 382.590514 584.562445 
L 384.798151 584.501746 
L 385.534029 584.121528 
L 387.741666 584.400293 
L 388.477544 584.278383 
L 389.213423 584.510708 
L 389.949302 584.384904 
L 390.68518 584.105704 
L 392.156938 583.792057 
L 392.892817 584.052831 
L 393.628695 584.058836 
L 394.364574 584.414863 
L 395.836332 584.424882 
L 396.57221 584.325255 
L 398.043968 583.662389 
L 398.779846 584.248637 
L 399.515725 583.711426 
L 400.251604 584.197286 
L 400.987483 584.406164 
L 401.723361 584.461931 
L 402.45924 584.333315 
L 403.930998 584.476943 
L 404.666876 584.239449 
L 405.402755 583.79322 
L 406.138634 584.254496 
L 406.874512 584.163283 
L 408.34627 584.401191 
L 409.082149 584.282718 
L 409.818027 584.439727 
L 411.289785 584.459925 
L 412.025664 584.412733 
L 413.497421 584.493304 
L 414.2333 584.524294 
L 414.969178 584.375533 
L 416.440936 584.462465 
L 417.176815 584.420559 
L 417.912693 584.564412 
L 418.648572 584.128017 
L 419.384451 584.435916 
L 420.12033 584.376936 
L 421.592087 584.532806 
L 422.327966 584.431203 
L 423.063844 584.518594 
L 424.535602 584.380995 
L 425.271481 583.259371 
L 426.007359 584.189083 
L 427.479117 584.315466 
L 428.214996 584.186321 
L 436.309662 584.599753 
L 470.895962 584.649737 
L 471.631841 584.416365 
L 472.367719 583.884762 
L 473.103598 583.744888 
L 473.839477 583.160977 
L 474.575355 583.934001 
L 475.311234 583.781073 
L 476.047113 583.894595 
L 476.782992 584.22729 
L 477.51887 584.398806 
L 478.254749 584.390447 
L 478.990628 584.539825 
L 481.934143 584.603443 
L 485.613536 584.52772 
L 486.349415 584.585048 
L 487.085294 584.488254 
L 487.821173 584.587497 
L 490.028809 584.582904 
L 491.500566 584.602067 
L 492.236445 584.601822 
L 492.972324 584.48934 
L 494.444081 584.49905 
L 495.17996 584.260358 
L 495.915839 583.301185 
L 496.651717 584.271161 
L 498.859353 584.190748 
L 499.595232 584.337029 
L 500.331111 584.249681 
L 501.06699 584.416315 
L 502.538747 584.144496 
L 503.274626 584.346072 
L 504.010505 584.371631 
L 504.746383 584.534177 
L 512.105171 584.535435 
L 512.841049 584.578899 
L 513.576928 584.170573 
L 515.048685 584.526984 
L 515.784564 584.00485 
L 516.520443 583.881465 
L 517.256322 584.208934 
L 518.728079 584.101406 
L 519.463958 584.170782 
L 520.199837 584.392648 
L 521.671594 584.513916 
L 522.407473 584.436207 
L 523.143352 584.579314 
L 523.87923 584.512796 
L 525.350988 584.592942 
L 529.030381 584.639645 
L 554.050258 584.627987 
L 555.522016 583.980858 
L 556.257894 584.086794 
L 556.993773 583.847761 
L 558.46553 584.110953 
L 559.201409 584.067729 
L 559.937288 584.43468 
L 562.144924 584.585862 
L 568.031954 584.642133 
L 593.787709 584.650625 
L 606.297648 584.650234 
L 607.033527 584.517694 
L 607.769405 583.722856 
L 608.505284 582.39087 
L 609.241163 583.879117 
L 609.977041 583.852606 
L 610.71292 584.269098 
L 612.184678 584.512472 
L 613.656435 584.467651 
L 614.392314 584.593458 
L 616.59995 584.599128 
L 649.714493 584.650956 
L 657.809159 584.613622 
L 659.280916 583.25677 
L 660.016795 584.029705 
L 660.752674 584.36862 
L 662.224431 584.159497 
L 662.96031 584.516716 
L 663.696189 584.30146 
L 664.432067 584.590611 
L 665.167946 584.525571 
L 666.639703 584.624888 
L 670.319097 584.599759 
L 671.054976 584.46069 
L 671.790855 584.629991 
L 690.187823 584.650161 
L 740.227576 584.596683 
L 740.963455 583.996904 
L 741.699334 583.888717 
L 742.435212 582.990965 
L 743.171091 583.784015 
L 744.642849 584.336158 
L 745.378727 584.275747 
L 746.114606 584.511172 
L 746.850485 584.397017 
L 747.586364 584.477106 
L 748.322242 584.131319 
L 749.058121 584.432326 
L 749.794 584.589391 
L 753.473393 584.638151 
L 754.209272 584.389275 
L 754.945151 584.52289 
L 755.68103 584.37274 
L 756.416908 584.443601 
L 757.152787 584.191306 
L 757.888666 583.499333 
L 758.624545 584.418305 
L 763.039817 584.630412 
L 765.983332 584.637559 
L 779.229149 584.650158 
L 830.74066 584.627732 
L 831.476539 584.35529 
L 832.212417 583.944453 
L 832.948296 584.206512 
L 833.684175 584.185292 
L 835.155932 584.478651 
L 835.891811 583.920815 
L 836.62769 584.257735 
L 837.363568 584.471299 
L 838.099447 584.357357 
L 838.835326 584.535757 
L 841.778841 584.621957 
L 843.250598 584.517519 
L 843.986477 584.592381 
L 846.194113 584.47004 
L 846.929992 584.58242 
L 848.401749 584.480558 
L 849.137628 584.392439 
L 849.873507 584.581814 
L 888.875079 584.651311 
L 921.253743 584.566004 
L 921.989622 584.264319 
L 922.725501 584.333522 
L 923.46138 583.595027 
L 924.197258 583.999779 
L 924.933137 583.982618 
L 925.669016 584.17672 
L 926.404895 584.078047 
L 927.140773 584.403634 
L 928.612531 584.552935 
L 930.084288 584.445631 
L 930.820167 584.567593 
L 931.556046 584.522721 
L 933.027803 584.616373 
L 941.122469 584.648632 
L 999.256889 584.643501 
L 999.992767 584.399424 
L 1000.728646 583.772117 
L 1001.464525 583.919593 
L 1001.464525 583.919593 
" clip-path="url(#p9b611da7d5)" style="fill: none; stroke: #4c72b0; stroke-width: 6; stroke-linecap: round"/>
   </g>
   <g id="line2d_15">
    <path d="M 119.14593 146.259825 
L 119.881808 147.945915 
L 120.617687 146.983326 
L 121.353566 145.695147 
L 122.089445 142.746803 
L 122.825323 118.903679 
L 123.561202 108.320619 
L 124.297081 102.833363 
L 125.03296 93.654098 
L 125.768838 88.671333 
L 126.504717 86.974114 
L 127.240596 85.898704 
L 127.976474 83.082691 
L 129.448232 81.758111 
L 130.184111 79.797102 
L 130.919989 80.265325 
L 131.655868 82.245276 
L 132.391747 83.487977 
L 133.127626 83.148071 
L 133.863504 88.405318 
L 134.599383 91.061852 
L 135.335262 96.99529 
L 136.07114 105.798423 
L 139.014655 163.580174 
L 140.486413 193.719032 
L 141.95817 216.902638 
L 142.694049 225.90656 
L 143.429928 237.333516 
L 144.901685 252.47426 
L 146.373443 263.164927 
L 147.109321 264.324441 
L 147.8452 271.697353 
L 148.581079 274.717646 
L 149.316958 281.674949 
L 150.052836 284.388855 
L 150.788715 287.584382 
L 151.524594 291.539658 
L 152.260473 292.978303 
L 152.996351 296.823637 
L 153.73223 294.652456 
L 154.468109 301.705254 
L 155.203987 302.40953 
L 155.939866 305.130659 
L 156.675745 306.315094 
L 158.147502 309.474636 
L 158.883381 312.182192 
L 159.61926 312.15607 
L 160.355139 311.28147 
L 161.091017 317.841932 
L 161.826896 320.944757 
L 162.562775 321.08573 
L 163.298653 322.929618 
L 164.034532 334.068584 
L 164.770411 334.762014 
L 165.50629 328.754533 
L 166.242168 343.053476 
L 166.978047 339.076422 
L 167.713926 341.553532 
L 168.449805 346.131031 
L 169.185683 343.966157 
L 169.921562 349.137838 
L 170.657441 360.230169 
L 171.393319 361.721799 
L 172.129198 361.361074 
L 172.865077 370.049967 
L 173.600956 372.661198 
L 174.336834 370.017822 
L 175.072713 379.48163 
L 175.808592 379.957338 
L 176.544471 389.025113 
L 177.280349 388.571206 
L 178.016228 390.890714 
L 178.752107 393.991401 
L 179.487985 394.921583 
L 180.223864 402.466466 
L 180.959743 401.412933 
L 181.695622 407.984819 
L 182.4315 409.763895 
L 183.167379 416.25195 
L 183.903258 413.088611 
L 184.639137 412.929132 
L 185.375015 420.719671 
L 186.110894 423.804297 
L 186.846773 425.675081 
L 187.582651 435.707386 
L 188.31853 432.823843 
L 189.054409 435.867508 
L 190.526166 445.768944 
L 191.262045 442.509597 
L 191.997924 452.364529 
L 192.733803 450.371692 
L 193.469681 451.15131 
L 194.20556 451.256221 
L 194.941439 451.656401 
L 195.677317 462.111735 
L 196.413196 460.805552 
L 197.149075 464.495467 
L 197.884954 471.697902 
L 198.620832 475.434342 
L 199.356711 471.485787 
L 200.09259 473.554687 
L 200.828469 473.598113 
L 201.564347 476.299842 
L 202.300226 474.604979 
L 203.771983 482.316554 
L 204.507862 472.666436 
L 205.243741 481.44191 
L 205.97962 478.398835 
L 206.715498 483.373044 
L 207.451377 487.207435 
L 208.187256 486.260438 
L 209.659013 497.304411 
L 210.394892 495.530627 
L 211.130771 499.591502 
L 211.866649 502.439577 
L 212.602528 509.064274 
L 213.338407 508.657454 
L 214.810164 515.296111 
L 215.546043 519.695529 
L 216.281922 521.050365 
L 217.017801 519.92886 
L 217.753679 524.673514 
L 218.489558 523.27225 
L 219.225437 523.48239 
L 219.961316 525.845467 
L 220.697194 524.658663 
L 221.433073 519.005006 
L 222.90483 504.004362 
L 224.376588 510.816169 
L 225.112467 516.296207 
L 225.848345 510.594911 
L 226.584224 517.743892 
L 227.320103 521.330145 
L 228.055982 524.076822 
L 228.79186 525.159674 
L 229.527739 529.974296 
L 230.263618 531.174635 
L 230.999496 533.930647 
L 231.735375 535.066533 
L 232.471254 539.33372 
L 233.207133 538.463809 
L 233.943011 538.924674 
L 235.414769 543.290283 
L 236.150648 539.903649 
L 236.886526 543.38679 
L 237.622405 542.713928 
L 238.358284 543.897539 
L 239.094162 542.641518 
L 239.830041 550.486542 
L 240.56592 549.225128 
L 241.301799 547.713435 
L 242.037677 544.907062 
L 242.773556 544.986084 
L 243.509435 546.566796 
L 244.245314 546.524665 
L 244.981192 547.584028 
L 245.717071 547.790842 
L 246.45295 547.41638 
L 247.188828 547.844282 
L 247.924707 547.996887 
L 248.660586 547.168133 
L 249.396465 548.428306 
L 250.132343 547.551793 
L 250.868222 545.071729 
L 251.604101 546.274842 
L 252.33998 550.211028 
L 253.075858 553.125398 
L 253.811737 552.042167 
L 254.547616 557.132333 
L 256.019373 557.911034 
L 256.755252 557.397688 
L 257.491131 560.71149 
L 258.962888 562.780788 
L 259.698767 564.571128 
L 260.434646 564.478762 
L 261.170524 561.727407 
L 261.906403 563.443739 
L 262.642282 563.07855 
L 264.114039 557.716315 
L 264.849918 555.993307 
L 265.585797 557.92544 
L 266.321675 561.242777 
L 267.057554 562.671392 
L 267.793433 564.90104 
L 268.529312 564.488133 
L 269.26519 563.315635 
L 270.001069 566.85031 
L 270.736948 568.048785 
L 271.472826 567.680683 
L 272.208705 569.816147 
L 272.944584 570.249746 
L 273.680463 570.456605 
L 274.416341 569.963545 
L 275.888099 570.048494 
L 276.623978 570.59485 
L 277.359856 570.097342 
L 278.095735 571.965251 
L 278.831614 569.511978 
L 280.303371 562.927311 
L 281.03925 564.071945 
L 281.775129 569.380284 
L 282.511007 569.996919 
L 283.246886 570.9004 
L 283.982765 569.033755 
L 284.718644 572.714903 
L 285.454522 572.214367 
L 286.190401 573.308347 
L 286.92628 575.232574 
L 287.662158 575.793606 
L 288.398037 575.694551 
L 289.133916 576.571892 
L 289.869795 575.739947 
L 290.605673 576.721406 
L 291.341552 576.815922 
L 292.077431 577.835131 
L 292.81331 577.587438 
L 293.549188 577.667386 
L 294.285067 576.856021 
L 295.020946 574.899712 
L 295.756825 575.612063 
L 296.492703 575.337233 
L 297.228582 574.217789 
L 297.964461 574.01755 
L 298.700339 574.618467 
L 299.436218 575.946798 
L 300.172097 575.125815 
L 300.907976 573.885748 
L 302.379733 572.697349 
L 303.115612 573.045729 
L 303.851491 573.640963 
L 304.587369 575.359589 
L 305.323248 576.030035 
L 306.059127 576.541321 
L 306.795005 578.987543 
L 307.530884 578.517788 
L 308.266763 579.001215 
L 309.002642 578.009503 
L 309.73852 578.475713 
L 310.474399 578.804961 
L 311.210278 579.397312 
L 311.946157 578.677771 
L 312.682035 577.587471 
L 313.417914 577.620713 
L 314.153793 578.434639 
L 315.62555 578.469134 
L 316.361429 579.937148 
L 317.097308 580.376767 
L 317.833186 581.160864 
L 318.569065 580.265326 
L 319.304944 580.791162 
L 320.040823 581.498541 
L 320.776701 581.399479 
L 321.51258 580.247627 
L 322.248459 581.346041 
L 322.984337 581.767162 
L 323.720216 581.994666 
L 324.456095 582.034408 
L 325.191974 581.245947 
L 325.927852 582.116147 
L 326.663731 582.771517 
L 327.39961 582.401917 
L 328.135489 582.492285 
L 328.871367 582.407566 
L 329.607246 582.150573 
L 330.343125 582.365425 
L 331.814882 582.202529 
L 332.550761 581.944269 
L 333.28664 580.531673 
L 334.022518 579.804722 
L 335.494276 580.626575 
L 336.230155 581.860438 
L 336.966033 581.434721 
L 337.701912 581.331513 
L 338.437791 582.199555 
L 339.173669 581.637283 
L 339.909548 582.435212 
L 340.645427 582.367868 
L 342.853063 583.088877 
L 343.588942 582.926548 
L 344.324821 583.230546 
L 345.060699 583.103363 
L 345.796578 582.722128 
L 346.532457 583.295684 
L 347.268335 581.645674 
L 348.004214 582.595817 
L 348.740093 580.941725 
L 349.475972 581.806892 
L 350.947729 580.895832 
L 351.683608 580.96681 
L 352.419487 581.487223 
L 353.155365 582.285027 
L 354.627123 582.286221 
L 355.363001 582.923939 
L 356.09888 582.784732 
L 356.834759 583.372439 
L 357.570638 583.700292 
L 358.306516 583.879175 
L 359.778274 584.062407 
L 361.250031 584.172966 
L 366.401182 584.289871 
L 367.87294 584.234616 
L 368.608819 583.695497 
L 369.344697 583.539353 
L 370.080576 581.967379 
L 370.816455 582.338661 
L 371.552334 582.409544 
L 372.288212 582.744765 
L 373.75997 582.752964 
L 374.495848 582.357665 
L 375.231727 583.04265 
L 375.967606 582.372574 
L 376.703485 582.743876 
L 377.439363 582.805089 
L 378.175242 582.980904 
L 378.911121 583.342755 
L 379.647 583.221972 
L 380.382878 583.370771 
L 381.118757 583.685715 
L 383.326393 584.059791 
L 384.062272 583.913129 
L 384.798151 584.021274 
L 385.534029 583.88017 
L 386.269908 582.872607 
L 387.005787 582.904039 
L 387.741666 583.191003 
L 388.477544 583.063403 
L 389.213423 581.998032 
L 389.949302 583.303546 
L 390.68518 583.124797 
L 391.421059 581.685536 
L 392.156938 582.340894 
L 392.892817 582.492011 
L 393.628695 583.416794 
L 394.364574 583.426968 
L 395.836332 583.791123 
L 396.57221 583.254265 
L 397.308089 583.181159 
L 398.043968 583.361034 
L 398.779846 583.135387 
L 399.515725 583.497036 
L 401.723361 583.346368 
L 402.45924 582.996106 
L 403.195119 583.573777 
L 403.930998 583.772298 
L 404.666876 583.817882 
L 405.402755 583.483458 
L 406.138634 581.962032 
L 406.874512 583.066203 
L 408.34627 583.254796 
L 409.082149 583.743022 
L 410.553906 583.951518 
L 411.289785 583.645247 
L 412.025664 583.760788 
L 412.761542 583.548646 
L 414.2333 583.663162 
L 414.969178 583.449821 
L 415.705057 583.592358 
L 416.440936 583.405125 
L 417.176815 584.010944 
L 417.912693 583.651975 
L 418.648572 584.06307 
L 419.384451 583.824205 
L 420.12033 583.373216 
L 421.592087 583.940817 
L 423.063844 583.990545 
L 424.535602 583.412996 
L 425.271481 583.510272 
L 426.743238 582.864036 
L 428.214996 583.708433 
L 428.950874 583.79051 
L 429.686753 583.436028 
L 431.15851 583.637956 
L 431.894389 584.119832 
L 432.630268 584.346445 
L 435.573783 584.365205 
L 448.083721 584.61461 
L 470.895962 584.642625 
L 471.631841 584.44796 
L 472.367719 583.998576 
L 473.103598 583.394802 
L 473.839477 582.527666 
L 474.575355 582.844774 
L 475.311234 582.964257 
L 476.047113 583.323333 
L 476.782992 583.086494 
L 477.51887 583.107324 
L 478.254749 583.503899 
L 481.198264 584.340845 
L 481.934143 584.244065 
L 483.4059 584.335824 
L 484.141779 584.083123 
L 485.613536 584.28898 
L 486.349415 583.947742 
L 487.085294 584.003081 
L 487.821173 584.225831 
L 489.29293 584.355152 
L 490.028809 584.220558 
L 492.236445 584.286385 
L 492.972324 584.061852 
L 493.708202 583.998572 
L 494.444081 583.364747 
L 495.915839 583.941375 
L 496.651717 583.154774 
L 497.387596 583.403073 
L 498.123475 583.813276 
L 498.859353 583.742147 
L 499.595232 583.977187 
L 500.331111 584.058493 
L 501.06699 583.580018 
L 504.746383 584.230311 
L 505.482262 584.024206 
L 506.218141 584.271815 
L 507.689898 584.251275 
L 509.161656 583.999182 
L 509.897534 584.058183 
L 510.633413 583.967681 
L 511.369292 584.219824 
L 512.105171 583.819328 
L 512.841049 583.775605 
L 513.576928 584.171862 
L 514.312807 584.3077 
L 515.048685 583.870121 
L 515.784564 584.002512 
L 516.520443 583.630046 
L 517.256322 583.405613 
L 519.463958 583.755222 
L 520.199837 583.813327 
L 520.935715 584.052379 
L 521.671594 583.718757 
L 522.407473 583.974315 
L 523.143352 583.965867 
L 523.87923 584.125342 
L 537.125047 584.526368 
L 550.370864 584.597257 
L 551.842622 584.444934 
L 552.578501 584.487187 
L 553.314379 584.229299 
L 554.050258 584.390192 
L 554.786137 583.873015 
L 556.257894 583.856878 
L 556.993773 582.507817 
L 557.729652 583.783585 
L 558.46553 583.616759 
L 559.201409 583.924677 
L 561.409045 584.084068 
L 563.616682 584.226244 
L 565.824318 584.523799 
L 570.23959 584.602706 
L 605.561769 584.648873 
L 607.033527 584.471175 
L 607.769405 584.227621 
L 608.505284 583.627133 
L 609.241163 583.388238 
L 609.977041 583.890743 
L 610.71292 584.095216 
L 611.448799 584.114017 
L 612.184678 583.944234 
L 612.920556 584.109 
L 613.656435 584.087206 
L 614.392314 584.357765 
L 616.59995 584.533667 
L 623.958737 584.621676 
L 657.07328 584.648164 
L 657.809159 584.511847 
L 658.545037 583.420072 
L 659.280916 584.288102 
L 660.016795 584.009207 
L 660.752674 582.800634 
L 661.488552 583.829969 
L 663.696189 584.203737 
L 664.432067 584.097003 
L 665.167946 584.212735 
L 667.375582 584.258243 
L 669.583218 584.3063 
L 670.319097 584.153048 
L 671.054976 584.386492 
L 672.526733 584.498231 
L 673.998491 584.362477 
L 676.942006 584.545578 
L 679.885521 584.604547 
L 724.038244 584.651599 
L 739.491698 584.65161 
L 740.227576 584.221845 
L 740.963455 583.491339 
L 741.699334 584.054491 
L 742.435212 583.841495 
L 743.171091 582.963905 
L 743.90697 582.932607 
L 744.642849 583.691098 
L 746.114606 583.875999 
L 746.850485 583.583558 
L 748.322242 583.805768 
L 749.058121 584.117105 
L 751.265757 584.33928 
L 754.209272 584.33838 
L 754.945151 583.690669 
L 755.68103 584.37813 
L 760.096302 584.045602 
L 760.832181 584.08388 
L 761.568059 584.250204 
L 767.455089 584.43074 
L 777.757391 584.537646 
L 805.720783 584.649616 
L 830.74066 584.623438 
L 831.476539 584.43184 
L 832.212417 584.039091 
L 834.420054 583.816561 
L 835.155932 584.115035 
L 835.891811 584.175399 
L 836.62769 583.918035 
L 838.099447 584.312397 
L 838.835326 584.337642 
L 839.571205 584.234901 
L 841.778841 584.493849 
L 842.51472 584.522088 
L 843.250598 583.835129 
L 844.722356 584.23717 
L 846.194113 584.160781 
L 847.665871 583.628175 
L 848.401749 583.944852 
L 850.609386 584.307617 
L 852.817022 584.425199 
L 853.5529 584.248679 
L 854.288779 584.460685 
L 861.647566 584.585244 
L 888.139201 584.648153 
L 920.517865 584.651469 
L 921.253743 584.142315 
L 921.989622 583.424778 
L 923.46138 584.26728 
L 924.197258 584.023261 
L 924.933137 584.190607 
L 925.669016 584.228276 
L 926.404895 583.760517 
L 927.140773 584.127524 
L 930.084288 584.497487 
L 930.820167 584.472646 
L 931.556046 584.242106 
L 933.027803 584.507959 
L 937.443075 584.625692 
L 959.519437 584.650428 
L 998.52101 584.648992 
L 999.256889 583.497758 
L 999.992767 584.139711 
L 1000.728646 583.798643 
L 1001.464525 583.907712 
L 1001.464525 583.907712 
" clip-path="url(#p9b611da7d5)" style="fill: none; stroke: #dd8452; stroke-width: 6; stroke-linecap: round"/>
   </g>
   <g id="line2d_16"/>
   <g id="line2d_17"/>
   <g id="patch_3">
    <path d="M 75.03 609.894375 
L 75.03 54.554375 
" style="fill: none; stroke: #cccccc; stroke-width: 1.875; stroke-linejoin: miter; stroke-linecap: square"/>
   </g>
   <g id="patch_4">
    <path d="M 1045.580455 609.894375 
L 1045.580455 54.554375 
" style="fill: none; stroke: #cccccc; stroke-width: 1.875; stroke-linejoin: miter; stroke-linecap: square"/>
   </g>
   <g id="patch_5">
    <path d="M 75.03 609.894375 
L 1045.580455 609.894375 
" style="fill: none; stroke: #cccccc; stroke-width: 1.875; stroke-linejoin: miter; stroke-linecap: square"/>
   </g>
   <g id="patch_6">
    <path d="M 75.03 54.554375 
L 1045.580455 54.554375 
" style="fill: none; stroke: #cccccc; stroke-width: 1.875; stroke-linejoin: miter; stroke-linecap: square"/>
   </g>
   <g id="text_16">
    <!-- Training Progress: Loss -->
    <g style="fill: #262626" transform="translate(323.307102 34.554375) scale(0.36 -0.36)">
     <defs>
      <path id="DejaVuSans-Bold-54" d="M 31 4666 
L 4331 4666 
L 4331 3756 
L 2784 3756 
L 2784 0 
L 1581 0 
L 1581 3756 
L 31 3756 
L 31 4666 
z
" transform="scale(0.015625)"/>
      <path id="DejaVuSans-Bold-72" d="M 3138 2547 
Q 2991 2616 2845 2648 
Q 2700 2681 2553 2681 
Q 2122 2681 1889 2404 
Q 1656 2128 1656 1613 
L 1656 0 
L 538 0 
L 538 3500 
L 1656 3500 
L 1656 2925 
Q 1872 3269 2151 3426 
Q 2431 3584 2822 3584 
Q 2878 3584 2943 3579 
Q 3009 3575 3134 3559 
L 3138 2547 
z
" transform="scale(0.015625)"/>
      <path id="DejaVuSans-Bold-61" d="M 2106 1575 
Q 1756 1575 1579 1456 
Q 1403 1338 1403 1106 
Q 1403 894 1545 773 
Q 1688 653 1941 653 
Q 2256 653 2472 879 
Q 2688 1106 2688 1447 
L 2688 1575 
L 2106 1575 
z
M 3816 1997 
L 3816 0 
L 2688 0 
L 2688 519 
Q 2463 200 2181 54 
Q 1900 -91 1497 -91 
Q 953 -91 614 226 
Q 275 544 275 1050 
Q 275 1666 698 1953 
Q 1122 2241 2028 2241 
L 2688 2241 
L 2688 2328 
Q 2688 2594 2478 2717 
Q 2269 2841 1825 2841 
Q 1466 2841 1156 2769 
Q 847 2697 581 2553 
L 581 3406 
Q 941 3494 1303 3539 
Q 1666 3584 2028 3584 
Q 2975 3584 3395 3211 
Q 3816 2838 3816 1997 
z
" transform="scale(0.015625)"/>
      <path id="DejaVuSans-Bold-69" d="M 538 3500 
L 1656 3500 
L 1656 0 
L 538 0 
L 538 3500 
z
M 538 4863 
L 1656 4863 
L 1656 3950 
L 538 3950 
L 538 4863 
z
" transform="scale(0.015625)"/>
      <path id="DejaVuSans-Bold-6e" d="M 4056 2131 
L 4056 0 
L 2931 0 
L 2931 347 
L 2931 1631 
Q 2931 2084 2911 2256 
Q 2891 2428 2841 2509 
Q 2775 2619 2662 2680 
Q 2550 2741 2406 2741 
Q 2056 2741 1856 2470 
Q 1656 2200 1656 1722 
L 1656 0 
L 538 0 
L 538 3500 
L 1656 3500 
L 1656 2988 
Q 1909 3294 2193 3439 
Q 2478 3584 2822 3584 
Q 3428 3584 3742 3212 
Q 4056 2841 4056 2131 
z
" transform="scale(0.015625)"/>
      <path id="DejaVuSans-Bold-67" d="M 2919 594 
Q 2688 288 2409 144 
Q 2131 0 1766 0 
Q 1125 0 706 504 
Q 288 1009 288 1791 
Q 288 2575 706 3076 
Q 1125 3578 1766 3578 
Q 2131 3578 2409 3434 
Q 2688 3291 2919 2981 
L 2919 3500 
L 4044 3500 
L 4044 353 
Q 4044 -491 3511 -936 
Q 2978 -1381 1966 -1381 
Q 1638 -1381 1331 -1331 
Q 1025 -1281 716 -1178 
L 716 -306 
Q 1009 -475 1290 -558 
Q 1572 -641 1856 -641 
Q 2406 -641 2662 -400 
Q 2919 -159 2919 353 
L 2919 594 
z
M 2181 2772 
Q 1834 2772 1640 2515 
Q 1447 2259 1447 1791 
Q 1447 1309 1634 1061 
Q 1822 813 2181 813 
Q 2531 813 2725 1069 
Q 2919 1325 2919 1791 
Q 2919 2259 2725 2515 
Q 2531 2772 2181 2772 
z
" transform="scale(0.015625)"/>
      <path id="DejaVuSans-Bold-20" transform="scale(0.015625)"/>
      <path id="DejaVuSans-Bold-50" d="M 588 4666 
L 2584 4666 
Q 3475 4666 3951 4270 
Q 4428 3875 4428 3144 
Q 4428 2409 3951 2014 
Q 3475 1619 2584 1619 
L 1791 1619 
L 1791 0 
L 588 0 
L 588 4666 
z
M 1791 3794 
L 1791 2491 
L 2456 2491 
Q 2806 2491 2997 2661 
Q 3188 2831 3188 3144 
Q 3188 3456 2997 3625 
Q 2806 3794 2456 3794 
L 1791 3794 
z
" transform="scale(0.015625)"/>
      <path id="DejaVuSans-Bold-6f" d="M 2203 2784 
Q 1831 2784 1636 2517 
Q 1441 2250 1441 1747 
Q 1441 1244 1636 976 
Q 1831 709 2203 709 
Q 2569 709 2762 976 
Q 2956 1244 2956 1747 
Q 2956 2250 2762 2517 
Q 2569 2784 2203 2784 
z
M 2203 3584 
Q 3106 3584 3614 3096 
Q 4122 2609 4122 1747 
Q 4122 884 3614 396 
Q 3106 -91 2203 -91 
Q 1297 -91 786 396 
Q 275 884 275 1747 
Q 275 2609 786 3096 
Q 1297 3584 2203 3584 
z
" transform="scale(0.015625)"/>
      <path id="DejaVuSans-Bold-65" d="M 4031 1759 
L 4031 1441 
L 1416 1441 
Q 1456 1047 1700 850 
Q 1944 653 2381 653 
Q 2734 653 3104 758 
Q 3475 863 3866 1075 
L 3866 213 
Q 3469 63 3072 -14 
Q 2675 -91 2278 -91 
Q 1328 -91 801 392 
Q 275 875 275 1747 
Q 275 2603 792 3093 
Q 1309 3584 2216 3584 
Q 3041 3584 3536 3087 
Q 4031 2591 4031 1759 
z
M 2881 2131 
Q 2881 2450 2695 2645 
Q 2509 2841 2209 2841 
Q 1884 2841 1681 2658 
Q 1478 2475 1428 2131 
L 2881 2131 
z
" transform="scale(0.015625)"/>
      <path id="DejaVuSans-Bold-73" d="M 3272 3391 
L 3272 2541 
Q 2913 2691 2578 2766 
Q 2244 2841 1947 2841 
Q 1628 2841 1473 2761 
Q 1319 2681 1319 2516 
Q 1319 2381 1436 2309 
Q 1553 2238 1856 2203 
L 2053 2175 
Q 2913 2066 3209 1816 
Q 3506 1566 3506 1031 
Q 3506 472 3093 190 
Q 2681 -91 1863 -91 
Q 1516 -91 1145 -36 
Q 775 19 384 128 
L 384 978 
Q 719 816 1070 734 
Q 1422 653 1784 653 
Q 2113 653 2278 743 
Q 2444 834 2444 1013 
Q 2444 1163 2330 1236 
Q 2216 1309 1875 1350 
L 1678 1375 
Q 931 1469 631 1722 
Q 331 1975 331 2491 
Q 331 3047 712 3315 
Q 1094 3584 1881 3584 
Q 2191 3584 2531 3537 
Q 2872 3491 3272 3391 
z
" transform="scale(0.015625)"/>
      <path id="DejaVuSans-Bold-3a" d="M 716 3500 
L 1844 3500 
L 1844 2291 
L 716 2291 
L 716 3500 
z
M 716 1209 
L 1844 1209 
L 1844 0 
L 716 0 
L 716 1209 
z
" transform="scale(0.015625)"/>
      <path id="DejaVuSans-Bold-4c" d="M 588 4666 
L 1791 4666 
L 1791 909 
L 3903 909 
L 3903 0 
L 588 0 
L 588 4666 
z
" transform="scale(0.015625)"/>
     </defs>
     <use xlink:href="#DejaVuSans-Bold-54"/>
     <use xlink:href="#DejaVuSans-Bold-72" transform="translate(57.212891 0)"/>
     <use xlink:href="#DejaVuSans-Bold-61" transform="translate(106.529297 0)"/>
     <use xlink:href="#DejaVuSans-Bold-69" transform="translate(174.009766 0)"/>
     <use xlink:href="#DejaVuSans-Bold-6e" transform="translate(208.287109 0)"/>
     <use xlink:href="#DejaVuSans-Bold-69" transform="translate(279.478516 0)"/>
     <use xlink:href="#DejaVuSans-Bold-6e" transform="translate(313.755859 0)"/>
     <use xlink:href="#DejaVuSans-Bold-67" transform="translate(384.947266 0)"/>
     <use xlink:href="#DejaVuSans-Bold-20" transform="translate(456.529297 0)"/>
     <use xlink:href="#DejaVuSans-Bold-50" transform="translate(491.34375 0)"/>
     <use xlink:href="#DejaVuSans-Bold-72" transform="translate(564.634766 0)"/>
     <use xlink:href="#DejaVuSans-Bold-6f" transform="translate(613.951172 0)"/>
     <use xlink:href="#DejaVuSans-Bold-67" transform="translate(682.652344 0)"/>
     <use xlink:href="#DejaVuSans-Bold-72" transform="translate(754.234375 0)"/>
     <use xlink:href="#DejaVuSans-Bold-65" transform="translate(803.550781 0)"/>
     <use xlink:href="#DejaVuSans-Bold-73" transform="translate(871.373047 0)"/>
     <use xlink:href="#DejaVuSans-Bold-73" transform="translate(930.894531 0)"/>
     <use xlink:href="#DejaVuSans-Bold-3a" transform="translate(990.416016 0)"/>
     <use xlink:href="#DejaVuSans-Bold-20" transform="translate(1030.40625 0)"/>
     <use xlink:href="#DejaVuSans-Bold-4c" transform="translate(1065.220703 0)"/>
     <use xlink:href="#DejaVuSans-Bold-6f" transform="translate(1128.941406 0)"/>
     <use xlink:href="#DejaVuSans-Bold-73" transform="translate(1197.642578 0)"/>
     <use xlink:href="#DejaVuSans-Bold-73" transform="translate(1257.164062 0)"/>
    </g>
   </g>
   <g id="legend_1">
    <g id="patch_7">
     <path d="M 846.300455 174.094375 
L 1023.180455 174.094375 
Q 1029.580455 174.094375 1029.580455 167.694375 
L 1029.580455 76.954375 
Q 1029.580455 70.554375 1023.180455 70.554375 
L 846.300455 70.554375 
Q 839.900455 70.554375 839.900455 76.954375 
L 839.900455 167.694375 
Q 839.900455 174.094375 846.300455 174.094375 
z
" style="fill: #ffffff; opacity: 0.8; stroke: #cccccc; stroke-width: 1.5; stroke-linejoin: miter"/>
    </g>
    <g id="line2d_18">
     <path d="M 852.700455 96.469375 
L 884.700455 96.469375 
L 916.700455 96.469375 
" style="fill: none; stroke: #4c72b0; stroke-width: 6; stroke-linecap: round"/>
    </g>
    <g id="text_17">
     <!-- train -->
     <g style="fill: #262626" transform="translate(942.300455 107.669375) scale(0.32 -0.32)">
      <defs>
       <path id="DejaVuSans-74" d="M 1172 4494 
L 1172 3500 
L 2356 3500 
L 2356 3053 
L 1172 3053 
L 1172 1153 
Q 1172 725 1289 603 
Q 1406 481 1766 481 
L 2356 481 
L 2356 0 
L 1766 0 
Q 1100 0 847 248 
Q 594 497 594 1153 
L 594 3053 
L 172 3053 
L 172 3500 
L 594 3500 
L 594 4494 
L 1172 4494 
z
" transform="scale(0.015625)"/>
       <path id="DejaVuSans-72" d="M 2631 2963 
Q 2534 3019 2420 3045 
Q 2306 3072 2169 3072 
Q 1681 3072 1420 2755 
Q 1159 2438 1159 1844 
L 1159 0 
L 581 0 
L 581 3500 
L 1159 3500 
L 1159 2956 
Q 1341 3275 1631 3429 
Q 1922 3584 2338 3584 
Q 2397 3584 2469 3576 
Q 2541 3569 2628 3553 
L 2631 2963 
z
" transform="scale(0.015625)"/>
       <path id="DejaVuSans-61" d="M 2194 1759 
Q 1497 1759 1228 1600 
Q 959 1441 959 1056 
Q 959 750 1161 570 
Q 1363 391 1709 391 
Q 2188 391 2477 730 
Q 2766 1069 2766 1631 
L 2766 1759 
L 2194 1759 
z
M 3341 1997 
L 3341 0 
L 2766 0 
L 2766 531 
Q 2569 213 2275 61 
Q 1981 -91 1556 -91 
Q 1019 -91 701 211 
Q 384 513 384 1019 
Q 384 1609 779 1909 
Q 1175 2209 1959 2209 
L 2766 2209 
L 2766 2266 
Q 2766 2663 2505 2880 
Q 2244 3097 1772 3097 
Q 1472 3097 1187 3025 
Q 903 2953 641 2809 
L 641 3341 
Q 956 3463 1253 3523 
Q 1550 3584 1831 3584 
Q 2591 3584 2966 3190 
Q 3341 2797 3341 1997 
z
" transform="scale(0.015625)"/>
       <path id="DejaVuSans-69" d="M 603 3500 
L 1178 3500 
L 1178 0 
L 603 0 
L 603 3500 
z
M 603 4863 
L 1178 4863 
L 1178 4134 
L 603 4134 
L 603 4863 
z
" transform="scale(0.015625)"/>
       <path id="DejaVuSans-6e" d="M 3513 2113 
L 3513 0 
L 2938 0 
L 2938 2094 
Q 2938 2591 2744 2837 
Q 2550 3084 2163 3084 
Q 1697 3084 1428 2787 
Q 1159 2491 1159 1978 
L 1159 0 
L 581 0 
L 581 3500 
L 1159 3500 
L 1159 2956 
Q 1366 3272 1645 3428 
Q 1925 3584 2291 3584 
Q 2894 3584 3203 3211 
Q 3513 2838 3513 2113 
z
" transform="scale(0.015625)"/>
      </defs>
      <use xlink:href="#DejaVuSans-74"/>
      <use xlink:href="#DejaVuSans-72" transform="translate(39.208984 0)"/>
      <use xlink:href="#DejaVuSans-61" transform="translate(80.322266 0)"/>
      <use xlink:href="#DejaVuSans-69" transform="translate(141.601562 0)"/>
      <use xlink:href="#DejaVuSans-6e" transform="translate(169.384766 0)"/>
     </g>
    </g>
    <g id="line2d_19">
     <path d="M 852.700455 143.439375 
L 884.700455 143.439375 
L 916.700455 143.439375 
" style="fill: none; stroke: #dd8452; stroke-width: 6; stroke-linecap: round"/>
    </g>
    <g id="text_18">
     <!-- val -->
     <g style="fill: #262626" transform="translate(942.300455 154.639375) scale(0.32 -0.32)">
      <defs>
       <path id="DejaVuSans-76" d="M 191 3500 
L 800 3500 
L 1894 563 
L 2988 3500 
L 3597 3500 
L 2284 0 
L 1503 0 
L 191 3500 
z
" transform="scale(0.015625)"/>
       <path id="DejaVuSans-6c" d="M 603 4863 
L 1178 4863 
L 1178 0 
L 603 0 
L 603 4863 
z
" transform="scale(0.015625)"/>
      </defs>
      <use xlink:href="#DejaVuSans-76"/>
      <use xlink:href="#DejaVuSans-61" transform="translate(59.179688 0)"/>
      <use xlink:href="#DejaVuSans-6c" transform="translate(120.458984 0)"/>
     </g>
    </g>
   </g>
  </g>
 </g>
 <defs>
  <clipPath id="p9b611da7d5">
   <rect x="75.03" y="54.554375" width="970.550455" height="555.34"/>
  </clipPath>
 </defs>
</svg>
