<?xml version="1.0" encoding="utf-8" standalone="no"?>
<!DOCTYPE svg PUBLIC "-//W3C//DTD SVG 1.1//EN"
  "http://www.w3.org/Graphics/SVG/1.1/DTD/svg11.dtd">
<svg xmlns:xlink="http://www.w3.org/1999/xlink" width="1052.780455pt" height="695.534375pt" viewBox="0 0 1052.780455 695.534375" xmlns="http://www.w3.org/2000/svg" version="1.1">
 <metadata>
  <rdf:RDF xmlns:dc="http://purl.org/dc/elements/1.1/" xmlns:cc="http://creativecommons.org/ns#" xmlns:rdf="http://www.w3.org/1999/02/22-rdf-syntax-ns#">
   <cc:Work>
    <dc:type rdf:resource="http://purl.org/dc/dcmitype/StillImage"/>
    <dc:date>2026-04-04T11:04:59.995293</dc:date>
    <dc:format>image/svg+xml</dc:format>
    <dc:creator>
     <cc:Agent>
      <dc:title>Matplotlib v3.10.1, https://matplotlib.org/</dc:title>
     </cc:Agent>
    </dc:creator>
   </cc:Work>
  </rdf:RDF>
 </metadata>
 <defs>
  <style type="text/css">*{stroke-linejoin: round; stroke-linecap: butt}</style>
 </defs>
 <g id="figure_1">
  <g id="patch_1">
   <path d="M 0 695.534375 
L 1052.780455 695.534375 
L 1052.780455 0 
L 0 0 
z
" style="fill: #ffffff"/>
  </g>
  <g id="axes_1">
   <g id="patch_2">
    <path d="M 75.03 609.894375 
L 1045.580455 609.894375 
L 1045.580455 54.554375 
L 75.03 54.554375 
z
" style="fill: #ffffff"/>
   </g>
   <g id="matplotlib.axis_1">
    <g id="xtick_1">
     <g id="line2d_1">
      <path d="M 118.410051 609.894375 
L 118.410051 54.554375 
" clip-path="url(#p86bea4f579)" style="fill: none; stroke: #cccccc; stroke-opacity: 0.3; stroke-width: 1.5; stroke-linecap: round"/>
     </g>
     <g id="text_1">
      <!-- 0 -->
      <g style="fill: #262626" transform="translate(108.230051 646.709375) scale(0.32 -0.32)">
       <defs>
        <path id="DejaVuSans-30" d="M 2034 4250 
Q 1547 4250 1301 3770 
Q 1056 3291 1056 2328 
Q 1056 1369 1301 889 
Q 1547 409 2034 409 
Q 2525 409 2770 889 
Q 3016 1369 3016 2328 
Q 3016 3291 2770 3770 
Q 2525 4250 2034 4250 
z
M 2034 4750 
Q 2819 4750 3233 4129 
Q 3647 3509 3647 2328 
Q 3647 1150 3233 529 
Q 2819 -91 2034 -91 
Q 1250 -91 836 529 
Q 422 1150 422 2328 
Q 422 3509 836 4129 
Q 1250 4750 2034 4750 
z
" transform="scale(0.015625)"/>
       </defs>
       <use xlink:href="#DejaVuSans-30"/>
      </g>
     </g>
    </g>
    <g id="xtick_2">
     <g id="line2d_2">
      <path d="M 265.585797 609.894375 
L 265.585797 54.554375 
" clip-path="url(#p86bea4f579)" style="fill: none; stroke: #cccccc; stroke-opacity: 0.3; stroke-width: 1.5; stroke-linecap: round"/>
     </g>
     <g id="text_2">
      <!-- 200 -->
      <g style="fill: #262626" transform="translate(235.045797 646.709375) scale(0.32 -0.32)">
       <defs>
        <path id="DejaVuSans-32" d="M 1228 531 
L 3431 531 
L 3431 0 
L 469 0 
L 469 531 
Q 828 903 1448 1529 
Q 2069 2156 2228 2338 
Q 2531 2678 2651 2914 
Q 2772 3150 2772 3378 
Q 2772 3750 2511 3984 
Q 2250 4219 1831 4219 
Q 1534 4219 1204 4116 
Q 875 4013 500 3803 
L 500 4441 
Q 881 4594 1212 4672 
Q 1544 4750 1819 4750 
Q 2544 4750 2975 4387 
Q 3406 4025 3406 3419 
Q 3406 3131 3298 2873 
Q 3191 2616 2906 2266 
Q 2828 2175 2409 1742 
Q 1991 1309 1228 531 
z
" transform="scale(0.015625)"/>
       </defs>
       <use xlink:href="#DejaVuSans-32"/>
       <use xlink:href="#DejaVuSans-30" transform="translate(63.623047 0)"/>
       <use xlink:href="#DejaVuSans-30" transform="translate(127.246094 0)"/>
      </g>
     </g>
    </g>
    <g id="xtick_3">
     <g id="line2d_3">
      <path d="M 412.761542 609.894375 
L 412.761542 54.554375 
" clip-path="url(#p86bea4f579)" style="fill: none; stroke: #cccccc; stroke-opacity: 0.3; stroke-width: 1.5; stroke-linecap: round"/>
     </g>
     <g id="text_3">
      <!-- 400 -->
      <g style="fill: #262626" transform="translate(382.221542 646.709375) scale(0.32 -0.32)">
       <defs>
        <path id="DejaVuSans-34" d="M 2419 4116 
L 825 1625 
L 2419 1625 
L 2419 4116 
z
M 2253 4666 
L 3047 4666 
L 3047 1625 
L 3713 1625 
L 3713 1100 
L 3047 1100 
L 3047 0 
L 2419 0 
L 2419 1100 
L 313 1100 
L 313 1709 
L 2253 4666 
z
" transform="scale(0.015625)"/>
       </defs>
       <use xlink:href="#DejaVuSans-34"/>
       <use xlink:href="#DejaVuSans-30" transform="translate(63.623047 0)"/>
       <use xlink:href="#DejaVuSans-30" transform="translate(127.246094 0)"/>
      </g>
     </g>
    </g>
    <g id="xtick_4">
     <g id="line2d_4">
      <path d="M 559.937288 609.894375 
L 559.937288 54.554375 
" clip-path="url(#p86bea4f579)" style="fill: none; stroke: #cccccc; stroke-opacity: 0.3; stroke-width: 1.5; stroke-linecap: round"/>
     </g>
     <g id="text_4">
      <!-- 600 -->
      <g style="fill: #262626" transform="translate(529.397288 646.709375) scale(0.32 -0.32)">
       <defs>
        <path id="DejaVuSans-36" d="M 2113 2584 
Q 1688 2584 1439 2293 
Q 1191 2003 1191 1497 
Q 1191 994 1439 701 
Q 1688 409 2113 409 
Q 2538 409 2786 701 
Q 3034 994 3034 1497 
Q 3034 2003 2786 2293 
Q 2538 2584 2113 2584 
z
M 3366 4563 
L 3366 3988 
Q 3128 4100 2886 4159 
Q 2644 4219 2406 4219 
Q 1781 4219 1451 3797 
Q 1122 3375 1075 2522 
Q 1259 2794 1537 2939 
Q 1816 3084 2150 3084 
Q 2853 3084 3261 2657 
Q 3669 2231 3669 1497 
Q 3669 778 3244 343 
Q 2819 -91 2113 -91 
Q 1303 -91 875 529 
Q 447 1150 447 2328 
Q 447 3434 972 4092 
Q 1497 4750 2381 4750 
Q 2619 4750 2861 4703 
Q 3103 4656 3366 4563 
z
" transform="scale(0.015625)"/>
       </defs>
       <use xlink:href="#DejaVuSans-36"/>
       <use xlink:href="#DejaVuSans-30" transform="translate(63.623047 0)"/>
       <use xlink:href="#DejaVuSans-30" transform="translate(127.246094 0)"/>
      </g>
     </g>
    </g>
    <g id="xtick_5">
     <g id="line2d_5">
      <path d="M 707.113034 609.894375 
L 707.113034 54.554375 
" clip-path="url(#p86bea4f579)" style="fill: none; stroke: #cccccc; stroke-opacity: 0.3; stroke-width: 1.5; stroke-linecap: round"/>
     </g>
     <g id="text_5">
      <!-- 800 -->
      <g style="fill: #262626" transform="translate(676.573034 646.709375) scale(0.32 -0.32)">
       <defs>
        <path id="DejaVuSans-38" d="M 2034 2216 
Q 1584 2216 1326 1975 
Q 1069 1734 1069 1313 
Q 1069 891 1326 650 
Q 1584 409 2034 409 
Q 2484 409 2743 651 
Q 3003 894 3003 1313 
Q 3003 1734 2745 1975 
Q 2488 2216 2034 2216 
z
M 1403 2484 
Q 997 2584 770 2862 
Q 544 3141 544 3541 
Q 544 4100 942 4425 
Q 1341 4750 2034 4750 
Q 2731 4750 3128 4425 
Q 3525 4100 3525 3541 
Q 3525 3141 3298 2862 
Q 3072 2584 2669 2484 
Q 3125 2378 3379 2068 
Q 3634 1759 3634 1313 
Q 3634 634 3220 271 
Q 2806 -91 2034 -91 
Q 1263 -91 848 271 
Q 434 634 434 1313 
Q 434 1759 690 2068 
Q 947 2378 1403 2484 
z
M 1172 3481 
Q 1172 3119 1398 2916 
Q 1625 2713 2034 2713 
Q 2441 2713 2670 2916 
Q 2900 3119 2900 3481 
Q 2900 3844 2670 4047 
Q 2441 4250 2034 4250 
Q 1625 4250 1398 4047 
Q 1172 3844 1172 3481 
z
" transform="scale(0.015625)"/>
       </defs>
       <use xlink:href="#DejaVuSans-38"/>
       <use xlink:href="#DejaVuSans-30" transform="translate(63.623047 0)"/>
       <use xlink:href="#DejaVuSans-30" transform="translate(127.246094 0)"/>
      </g>
     </g>
    </g>
    <g id="xtick_6">
     <g id="line2d_6">
      <path d="M 854.288779 609.894375 
L 854.288779 54.554375 
" clip-path="url(#p86bea4f579)" style="fill: none; stroke: #cccccc; stroke-opacity: 0.3; stroke-width: 1.5; stroke-linecap: round"/>
     </g>
     <g id="text_6">
      <!-- 1000 -->
      <g style="fill: #262626" transform="translate(813.568779 646.709375) scale(0.32 -0.32)">
       <defs>
        <path id="DejaVuSans-31" d="M 794 531 
L 1825 531 
L 1825 4091 
L 703 3866 
L 703 4441 
L 1819 4666 
L 2450 4666 
L 2450 531 
L 3481 531 
L 3481 0 
L 794 0 
L 794 531 
z
" transform="scale(0.015625)"/>
       </defs>
       <use xlink:href="#DejaVuSans-31"/>
       <use xlink:href="#DejaVuSans-30" transform="translate(63.623047 0)"/>
       <use xlink:href="#DejaVuSans-30" transform="translate(127.246094 0)"/>
       <use xlink:href="#DejaVuSans-30" transform="translate(190.869141 0)"/>
      </g>
     </g>
    </g>
    <g id="xtick_7">
     <g id="line2d_7">
      <path d="M 1001.464525 609.894375 
L 1001.464525 54.554375 
" clip-path="url(#p86bea4f579)" style="fill: none; stroke: #cccccc; stroke-opacity: 0.3; stroke-width: 1.5; stroke-linecap: round"/>
     </g>
     <g id="text_7">
      <!-- 1200 -->
      <g style="fill: #262626" transform="translate(960.744525 646.709375) scale(0.32 -0.32)">
       <use xlink:href="#DejaVuSans-31"/>
       <use xlink:href="#DejaVuSans-32" transform="translate(63.623047 0)"/>
       <use xlink:href="#DejaVuSans-30" transform="translate(127.246094 0)"/>
       <use xlink:href="#DejaVuSans-30" transform="translate(190.869141 0)"/>
      </g>
     </g>
    </g>
    <g id="text_8">
     <!-- Epoch -->
     <g style="fill: #262626" transform="translate(511.310227 681.679375) scale(0.32 -0.32)">
      <defs>
       <path id="DejaVuSans-45" d="M 628 4666 
L 3578 4666 
L 3578 4134 
L 1259 4134 
L 1259 2753 
L 3481 2753 
L 3481 2222 
L 1259 2222 
L 1259 531 
L 3634 531 
L 3634 0 
L 628 0 
L 628 4666 
z
" transform="scale(0.015625)"/>
       <path id="DejaVuSans-70" d="M 1159 525 
L 1159 -1331 
L 581 -1331 
L 581 3500 
L 1159 3500 
L 1159 2969 
Q 1341 3281 1617 3432 
Q 1894 3584 2278 3584 
Q 2916 3584 3314 3078 
Q 3713 2572 3713 1747 
Q 3713 922 3314 415 
Q 2916 -91 2278 -91 
Q 1894 -91 1617 61 
Q 1341 213 1159 525 
z
M 3116 1747 
Q 3116 2381 2855 2742 
Q 2594 3103 2138 3103 
Q 1681 3103 1420 2742 
Q 1159 2381 1159 1747 
Q 1159 1113 1420 752 
Q 1681 391 2138 391 
Q 2594 391 2855 752 
Q 3116 1113 3116 1747 
z
" transform="scale(0.015625)"/>
       <path id="DejaVuSans-6f" d="M 1959 3097 
Q 1497 3097 1228 2736 
Q 959 2375 959 1747 
Q 959 1119 1226 758 
Q 1494 397 1959 397 
Q 2419 397 2687 759 
Q 2956 1122 2956 1747 
Q 2956 2369 2687 2733 
Q 2419 3097 1959 3097 
z
M 1959 3584 
Q 2709 3584 3137 3096 
Q 3566 2609 3566 1747 
Q 3566 888 3137 398 
Q 2709 -91 1959 -91 
Q 1206 -91 779 398 
Q 353 888 353 1747 
Q 353 2609 779 3096 
Q 1206 3584 1959 3584 
z
" transform="scale(0.015625)"/>
       <path id="DejaVuSans-63" d="M 3122 3366 
L 3122 2828 
Q 2878 2963 2633 3030 
Q 2388 3097 2138 3097 
Q 1578 3097 1268 2742 
Q 959 2388 959 1747 
Q 959 1106 1268 751 
Q 1578 397 2138 397 
Q 2388 397 2633 464 
Q 2878 531 3122 666 
L 3122 134 
Q 2881 22 2623 -34 
Q 2366 -91 2075 -91 
Q 1284 -91 818 406 
Q 353 903 353 1747 
Q 353 2603 823 3093 
Q 1294 3584 2113 3584 
Q 2378 3584 2631 3529 
Q 2884 3475 3122 3366 
z
" transform="scale(0.015625)"/>
       <path id="DejaVuSans-68" d="M 3513 2113 
L 3513 0 
L 2938 0 
L 2938 2094 
Q 2938 2591 2744 2837 
Q 2550 3084 2163 3084 
Q 1697 3084 1428 2787 
Q 1159 2491 1159 1978 
L 1159 0 
L 581 0 
L 581 4863 
L 1159 4863 
L 1159 2956 
Q 1366 3272 1645 3428 
Q 1925 3584 2291 3584 
Q 2894 3584 3203 3211 
Q 3513 2838 3513 2113 
z
" transform="scale(0.015625)"/>
      </defs>
      <use xlink:href="#DejaVuSans-45"/>
      <use xlink:href="#DejaVuSans-70" transform="translate(63.183594 0)"/>
      <use xlink:href="#DejaVuSans-6f" transform="translate(126.660156 0)"/>
      <use xlink:href="#DejaVuSans-63" transform="translate(187.841797 0)"/>
      <use xlink:href="#DejaVuSans-68" transform="translate(242.822266 0)"/>
     </g>
    </g>
   </g>
   <g id="matplotlib.axis_2">
    <g id="ytick_1">
     <g id="line2d_8">
      <path d="M 75.03 584.651706 
L 1045.580455 584.651706 
" clip-path="url(#p86bea4f579)" style="fill: none; stroke: #cccccc; stroke-opacity: 0.3; stroke-width: 1.5; stroke-linecap: round"/>
     </g>
     <g id="text_9">
      <!-- 0 -->
      <g style="fill: #262626" transform="translate(42.17 596.809206) scale(0.32 -0.32)">
       <use xlink:href="#DejaVuSans-30"/>
      </g>
     </g>
    </g>
    <g id="ytick_2">
     <g id="line2d_9">
      <path d="M 75.03 478.090642 
L 1045.580455 478.090642 
" clip-path="url(#p86bea4f579)" style="fill: none; stroke: #cccccc; stroke-opacity: 0.3; stroke-width: 1.5; stroke-linecap: round"/>
     </g>
     <g id="text_10">
      <!-- 2 -->
      <g style="fill: #262626" transform="translate(42.17 490.248142) scale(0.32 -0.32)">
       <use xlink:href="#DejaVuSans-32"/>
      </g>
     </g>
    </g>
    <g id="ytick_3">
     <g id="line2d_10">
      <path d="M 75.03 371.529579 
L 1045.580455 371.529579 
" clip-path="url(#p86bea4f579)" style="fill: none; stroke: #cccccc; stroke-opacity: 0.3; stroke-width: 1.5; stroke-linecap: round"/>
     </g>
     <g id="text_11">
      <!-- 4 -->
      <g style="fill: #262626" transform="translate(42.17 383.687079) scale(0.32 -0.32)">
       <use xlink:href="#DejaVuSans-34"/>
      </g>
     </g>
    </g>
    <g id="ytick_4">
     <g id="line2d_11">
      <path d="M 75.03 264.968515 
L 1045.580455 264.968515 
" clip-path="url(#p86bea4f579)" style="fill: none; stroke: #cccccc; stroke-opacity: 0.3; stroke-width: 1.5; stroke-linecap: round"/>
     </g>
     <g id="text_12">
      <!-- 6 -->
      <g style="fill: #262626" transform="translate(42.17 277.126015) scale(0.32 -0.32)">
       <use xlink:href="#DejaVuSans-36"/>
      </g>
     </g>
    </g>
    <g id="ytick_5">
     <g id="line2d_12">
      <path d="M 75.03 158.407451 
L 1045.580455 158.407451 
" clip-path="url(#p86bea4f579)" style="fill: none; stroke: #cccccc; stroke-opacity: 0.3; stroke-width: 1.5; stroke-linecap: round"/>
     </g>
     <g id="text_13">
      <!-- 8 -->
      <g style="fill: #262626" transform="translate(42.17 170.564951) scale(0.32 -0.32)">
       <use xlink:href="#DejaVuSans-38"/>
      </g>
     </g>
    </g>
    <g id="text_14">
     <!-- Loss -->
     <g style="fill: #262626" transform="translate(31.515 367.319375) rotate(-90) scale(0.32 -0.32)">
      <defs>
       <path id="DejaVuSans-4c" d="M 628 4666 
L 1259 4666 
L 1259 531 
L 3531 531 
L 3531 0 
L 628 0 
L 628 4666 
z
" transform="scale(0.015625)"/>
       <path id="DejaVuSans-73" d="M 2834 3397 
L 2834 2853 
Q 2591 2978 2328 3040 
Q 2066 3103 1784 3103 
Q 1356 3103 1142 2972 
Q 928 2841 928 2578 
Q 928 2378 1081 2264 
Q 1234 2150 1697 2047 
L 1894 2003 
Q 2506 1872 2764 1633 
Q 3022 1394 3022 966 
Q 3022 478 2636 193 
Q 2250 -91 1575 -91 
Q 1294 -91 989 -36 
Q 684 19 347 128 
L 347 722 
Q 666 556 975 473 
Q 1284 391 1588 391 
Q 1994 391 2212 530 
Q 2431 669 2431 922 
Q 2431 1156 2273 1281 
Q 2116 1406 1581 1522 
L 1381 1569 
Q 847 1681 609 1914 
Q 372 2147 372 2553 
Q 372 3047 722 3315 
Q 1072 3584 1716 3584 
Q 2034 3584 2315 3537 
Q 2597 3491 2834 3397 
z
" transform="scale(0.015625)"/>
      </defs>
      <use xlink:href="#DejaVuSans-4c"/>
      <use xlink:href="#DejaVuSans-6f" transform="translate(53.962891 0)"/>
      <use xlink:href="#DejaVuSans-73" transform="translate(115.144531 0)"/>
      <use xlink:href="#DejaVuSans-73" transform="translate(167.244141 0)"/>
     </g>
    </g>
   </g>
   <g id="FillBetweenPolyCollection_1"/>
   <g id="FillBetweenPolyCollection_2"/>
   <g id="line2d_13">
    <path d="M 119.14593 326.518999 
L 119.881808 330.577299 
L 120.617687 331.750351 
L 121.353566 332.294144 
L 122.089445 333.143751 
L 122.825323 334.919665 
L 125.03296 344.760046 
L 125.768838 348.937654 
L 127.240596 355.386976 
L 127.976474 359.780383 
L 131.655868 377.843982 
L 133.127626 387.604728 
L 133.863504 391.259744 
L 134.599383 397.3429 
L 135.335262 401.438509 
L 136.807019 411.698943 
L 140.486413 443.746283 
L 141.95817 458.609165 
L 142.694049 465.365635 
L 144.165807 481.336575 
L 145.637564 494.066682 
L 147.8452 513.094081 
L 150.052836 525.31954 
L 150.788715 527.413285 
L 151.524594 531.421672 
L 152.260473 536.368256 
L 152.996351 540.211259 
L 153.73223 541.817044 
L 154.468109 545.078462 
L 155.203987 546.885451 
L 155.939866 550.019768 
L 156.675745 552.399008 
L 157.411624 553.503947 
L 158.147502 556.390948 
L 159.61926 559.69581 
L 161.091017 561.688092 
L 163.298653 566.752706 
L 164.034532 567.38829 
L 164.770411 567.85265 
L 165.50629 568.536036 
L 166.242168 568.902843 
L 166.978047 569.014 
L 167.713926 570.728049 
L 168.449805 571.140243 
L 169.185683 572.393769 
L 169.921562 572.817858 
L 170.657441 574.439981 
L 171.393319 574.786735 
L 172.129198 576.042526 
L 172.865077 575.699551 
L 173.600956 576.849268 
L 174.336834 576.365796 
L 175.072713 577.029911 
L 175.808592 576.875036 
L 176.544471 577.739648 
L 177.280349 578.396126 
L 178.016228 578.707937 
L 178.752107 578.674887 
L 179.487985 578.486036 
L 180.223864 578.586772 
L 180.959743 578.054952 
L 181.695622 578.633208 
L 182.4315 577.96141 
L 183.167379 578.502215 
L 183.903258 578.796056 
L 184.639137 577.931701 
L 185.375015 578.280883 
L 186.110894 578.890677 
L 188.31853 579.592059 
L 189.054409 579.541111 
L 191.262045 580.111947 
L 191.997924 579.82089 
L 192.733803 579.919595 
L 193.469681 579.273643 
L 194.941439 580.021013 
L 195.677317 580.102699 
L 196.413196 580.373083 
L 197.149075 580.293514 
L 198.620832 580.954954 
L 200.828469 580.840207 
L 201.564347 580.474577 
L 203.036105 579.990542 
L 203.771983 580.251681 
L 204.507862 580.75268 
L 205.243741 580.840133 
L 206.715498 581.558056 
L 208.187256 581.816408 
L 208.923135 581.669291 
L 209.659013 582.125614 
L 210.394892 581.805151 
L 211.130771 582.018195 
L 211.866649 581.921368 
L 212.602528 582.032448 
L 213.338407 581.167729 
L 214.074286 581.305537 
L 214.810164 581.311424 
L 215.546043 580.946542 
L 216.281922 581.050945 
L 217.017801 580.458596 
L 217.753679 580.244216 
L 218.489558 580.475146 
L 219.225437 579.92475 
L 219.961316 580.408927 
L 220.697194 581.340662 
L 222.90483 582.072909 
L 223.640709 582.548909 
L 224.376588 582.371894 
L 225.112467 582.855788 
L 225.848345 582.780446 
L 226.584224 583.009973 
L 227.320103 582.904514 
L 228.055982 582.541531 
L 228.79186 582.462362 
L 229.527739 582.249363 
L 230.263618 581.396161 
L 230.999496 581.421799 
L 231.735375 581.158515 
L 232.471254 581.173367 
L 233.207133 581.519558 
L 233.943011 581.54866 
L 234.67889 581.782109 
L 235.414769 581.774421 
L 236.150648 581.965149 
L 236.886526 582.436328 
L 237.622405 582.491014 
L 238.358284 582.661947 
L 239.094162 582.589734 
L 239.830041 582.820019 
L 240.56592 582.339399 
L 241.301799 582.468516 
L 242.037677 582.185869 
L 242.773556 581.775489 
L 244.245314 581.382141 
L 244.981192 581.931832 
L 246.45295 581.503428 
L 247.188828 581.990062 
L 247.924707 582.122154 
L 248.660586 582.711366 
L 250.132343 582.830899 
L 251.604101 583.239916 
L 253.811737 583.07196 
L 254.547616 583.264551 
L 256.019373 582.856498 
L 256.755252 582.485706 
L 257.491131 582.538371 
L 258.227009 582.11577 
L 258.962888 582.441159 
L 260.434646 582.592885 
L 261.170524 582.663889 
L 263.37816 582.004171 
L 264.114039 582.505006 
L 264.849918 582.434575 
L 265.585797 582.777447 
L 266.321675 582.610248 
L 267.057554 582.15776 
L 267.793433 582.53198 
L 268.529312 582.414902 
L 269.26519 582.666886 
L 270.001069 582.5724 
L 270.736948 582.665665 
L 271.472826 582.198662 
L 272.208705 582.598408 
L 272.944584 582.517637 
L 273.680463 582.795658 
L 274.416341 582.683519 
L 275.15222 582.416027 
L 275.888099 582.914512 
L 278.095735 583.346445 
L 278.831614 583.617351 
L 279.567492 583.605583 
L 280.303371 583.456047 
L 281.03925 583.638005 
L 281.775129 583.163656 
L 283.246886 583.186377 
L 283.982765 583.189091 
L 284.718644 583.020853 
L 285.454522 582.515969 
L 286.190401 582.624057 
L 287.662158 582.052351 
L 288.398037 582.055006 
L 289.133916 581.722676 
L 289.869795 581.88418 
L 290.605673 582.533696 
L 292.077431 582.494641 
L 292.81331 582.776513 
L 293.549188 582.33543 
L 294.285067 582.897862 
L 295.020946 583.072251 
L 295.756825 583.128795 
L 296.492703 583.524153 
L 297.964461 583.641453 
L 298.700339 583.727335 
L 299.436218 583.677702 
L 300.172097 583.098978 
L 300.907976 583.204577 
L 301.643854 583.042908 
L 302.379733 582.573937 
L 303.115612 582.755146 
L 303.851491 582.331445 
L 304.587369 582.913459 
L 305.323248 582.880207 
L 306.795005 583.692529 
L 307.530884 583.594851 
L 308.266763 583.653728 
L 309.002642 583.52955 
L 310.474399 583.810608 
L 311.210278 583.618741 
L 311.946157 583.873948 
L 312.682035 583.644591 
L 313.417914 583.645785 
L 314.153793 583.808993 
L 316.361429 582.586257 
L 317.097308 582.593699 
L 317.833186 581.642774 
L 318.569065 582.227656 
L 319.304944 582.18249 
L 320.776701 582.890456 
L 321.51258 582.572856 
L 322.248459 583.032435 
L 322.984337 583.028125 
L 324.456095 583.753215 
L 325.191974 583.628685 
L 326.663731 584.06928 
L 328.135489 583.835196 
L 328.871367 583.792897 
L 329.607246 583.578906 
L 332.550761 583.419403 
L 333.28664 583.535051 
L 334.022518 583.018762 
L 334.758397 582.901345 
L 335.494276 582.434266 
L 337.701912 583.223889 
L 338.437791 583.005024 
L 339.173669 583.229248 
L 339.909548 583.310836 
L 340.645427 582.798902 
L 342.853063 583.06983 
L 343.588942 583.408422 
L 344.324821 583.294364 
L 345.060699 583.535823 
L 345.796578 583.277621 
L 346.532457 583.488116 
L 347.268335 583.454075 
L 348.004214 583.824225 
L 348.740093 583.693746 
L 350.21185 583.941102 
L 350.947729 583.900289 
L 351.683608 584.052708 
L 352.419487 583.714053 
L 353.155365 583.824877 
L 354.627123 583.679368 
L 355.363001 583.368813 
L 356.09888 583.498843 
L 356.834759 582.855984 
L 357.570638 583.472886 
L 358.306516 583.044621 
L 359.042395 583.636194 
L 359.778274 583.422881 
L 360.514153 583.75341 
L 361.250031 583.741207 
L 362.721789 584.007209 
L 366.401182 583.688133 
L 367.137061 583.501259 
L 370.816455 583.466854 
L 373.024091 583.565357 
L 373.75997 583.819835 
L 374.495848 583.576367 
L 377.439363 583.746705 
L 378.911121 583.908459 
L 379.647 583.738284 
L 381.854636 583.97383 
L 382.590514 583.756137 
L 384.062272 583.81596 
L 384.798151 583.807344 
L 385.534029 583.57026 
L 389.213423 583.5963 
L 389.949302 583.884832 
L 390.68518 583.986916 
L 391.421059 583.733434 
L 393.628695 583.574063 
L 394.364574 583.281734 
L 395.100453 583.572977 
L 398.779846 583.694326 
L 399.515725 583.534941 
L 400.251604 583.70006 
L 400.987483 583.546257 
L 401.723361 583.780165 
L 402.45924 583.480117 
L 406.138634 584.007679 
L 406.874512 583.986105 
L 408.34627 584.143385 
L 409.082149 584.068967 
L 410.553906 584.138109 
L 411.289785 583.949468 
L 412.025664 584.0514 
L 412.761542 583.832154 
L 413.497421 584.009332 
L 414.2333 584.066856 
L 414.969178 583.797428 
L 417.912693 583.775445 
L 418.648572 583.8396 
L 419.384451 583.567272 
L 420.856208 583.626738 
L 421.592087 583.909319 
L 422.327966 584.005185 
L 423.063844 583.822501 
L 424.535602 583.776681 
L 425.271481 583.663218 
L 428.214996 583.717934 
L 428.950874 583.447795 
L 429.686753 583.839833 
L 430.422632 584.043568 
L 431.15851 584.051541 
L 431.894389 584.178884 
L 436.309662 584.079245 
L 437.04554 583.853554 
L 437.781419 583.954632 
L 439.253176 583.390007 
L 440.724934 583.724521 
L 441.460813 583.962984 
L 442.196691 583.950413 
L 443.668449 584.149547 
L 450.291357 584.257828 
L 452.498994 584.010556 
L 453.234872 584.069166 
L 454.70663 583.8631 
L 455.442509 583.725667 
L 456.178387 582.840925 
L 456.914266 583.511071 
L 458.386023 583.462913 
L 461.329538 584.125006 
L 463.537175 584.240192 
L 464.273053 584.406164 
L 466.480689 584.443076 
L 468.688326 584.463242 
L 470.895962 584.461896 
L 474.575355 583.918604 
L 475.311234 583.704488 
L 476.782992 583.606103 
L 478.254749 584.035856 
L 478.990628 584.137713 
L 479.726507 583.989514 
L 480.462385 584.207795 
L 484.877658 583.939488 
L 486.349415 584.33533 
L 487.085294 584.081651 
L 487.821173 584.284832 
L 489.29293 584.179267 
L 490.028809 584.292812 
L 491.500566 583.902613 
L 492.972324 584.059749 
L 494.444081 583.876337 
L 495.17996 584.219013 
L 497.387596 584.126287 
L 498.123475 584.327014 
L 498.859353 584.269132 
L 499.595232 584.401064 
L 500.331111 584.160875 
L 501.06699 584.209462 
L 501.802868 583.888583 
L 502.538747 583.735043 
L 503.274626 584.017243 
L 504.010505 583.907096 
L 504.746383 583.988226 
L 505.482262 583.840445 
L 506.218141 584.060872 
L 509.161656 584.405851 
L 515.048685 584.427892 
L 515.784564 584.244741 
L 517.256322 584.187973 
L 517.9922 584.264648 
L 520.199837 584.118337 
L 520.935715 584.07448 
L 521.671594 584.214221 
L 522.407473 584.077378 
L 523.143352 584.137145 
L 523.87923 583.758836 
L 524.615109 583.892468 
L 526.086866 583.56139 
L 526.822745 583.848543 
L 527.558624 583.308155 
L 528.294503 583.891916 
L 529.76626 584.212634 
L 530.502139 584.236286 
L 531.238018 584.123563 
L 531.973896 584.270087 
L 532.709775 584.193698 
L 533.445654 584.249594 
L 534.181532 584.082469 
L 534.917411 584.29968 
L 535.65329 584.076978 
L 538.596805 584.284207 
L 540.068562 584.288941 
L 540.804441 584.42653 
L 548.899107 584.310701 
L 549.634986 584.103582 
L 550.370864 584.251781 
L 551.106743 584.071031 
L 552.578501 584.009216 
L 554.050258 584.155904 
L 556.257894 584.204533 
L 556.993773 584.38146 
L 557.729652 584.248026 
L 558.46553 584.420545 
L 559.201409 584.361255 
L 560.673167 584.401967 
L 562.144924 584.380806 
L 563.616682 584.479701 
L 568.031954 584.386721 
L 568.767833 584.448809 
L 569.503711 584.204151 
L 570.975469 584.370254 
L 571.711348 584.370452 
L 572.447226 584.491569 
L 573.183105 584.369208 
L 573.918984 584.514215 
L 579.070135 584.352795 
L 580.541892 584.448056 
L 582.749528 584.497541 
L 583.485407 584.386255 
L 584.221286 584.461625 
L 584.957165 584.304133 
L 585.693043 584.307698 
L 586.428922 584.121376 
L 587.164801 584.089033 
L 587.90068 584.193871 
L 588.636558 584.024935 
L 590.108316 584.298558 
L 590.844194 584.197227 
L 593.051831 584.406217 
L 593.787709 584.415799 
L 594.523588 584.245568 
L 595.995346 584.256533 
L 596.731224 584.164162 
L 597.467103 584.249162 
L 598.202982 584.166964 
L 599.674739 584.3326 
L 600.410618 584.504484 
L 601.146497 584.414417 
L 604.090012 584.582134 
L 608.505284 584.628518 
L 609.977041 584.609306 
L 610.71292 584.188043 
L 611.448799 584.37062 
L 613.656435 584.018219 
L 614.392314 584.141568 
L 615.128193 584.138665 
L 616.59995 584.356856 
L 617.335829 584.267913 
L 618.071707 584.352025 
L 618.807586 584.261872 
L 619.543465 584.383234 
L 621.751101 584.490367 
L 623.958737 584.575011 
L 625.430495 584.603789 
L 630.581646 584.565566 
L 631.317525 584.600708 
L 633.525161 584.160781 
L 634.261039 584.020096 
L 637.204554 584.314372 
L 640.883948 584.49755 
L 641.619827 584.226743 
L 643.091584 584.374948 
L 644.563342 584.501564 
L 645.29922 584.530244 
L 646.035099 584.425252 
L 646.770978 584.45975 
L 647.506857 584.327978 
L 652.658008 584.6028 
L 658.545037 584.62282 
L 662.96031 584.222904 
L 663.696189 583.958901 
L 664.432067 584.03666 
L 665.167946 584.334432 
L 665.903825 584.291733 
L 666.639703 584.450676 
L 676.942006 584.534053 
L 678.413763 584.402563 
L 679.149642 584.521841 
L 680.621399 584.167869 
L 681.357278 584.372613 
L 682.093157 584.118472 
L 682.829036 584.393999 
L 685.036672 584.338822 
L 686.508429 584.546701 
L 687.244308 584.452158 
L 687.980187 584.556318 
L 688.716065 584.368959 
L 689.451944 584.40352 
L 690.187823 584.554799 
L 692.395459 584.512986 
L 693.131338 584.465209 
L 693.867216 584.56696 
L 694.603095 584.474564 
L 696.074853 584.546635 
L 697.54661 584.528079 
L 699.018368 584.524676 
L 701.961882 584.504871 
L 702.697761 584.409562 
L 703.43364 584.123928 
L 704.169519 584.328571 
L 705.641276 584.370735 
L 706.377155 584.058405 
L 707.113034 584.485229 
L 708.584791 584.509348 
L 712.264185 584.59085 
L 718.887093 584.642273 
L 732.13291 584.629067 
L 734.340546 584.053087 
L 735.076425 584.174673 
L 735.812304 584.156107 
L 737.284061 584.358987 
L 738.01994 584.199477 
L 739.491698 584.432432 
L 741.699334 584.609185 
L 772.60624 584.632068 
L 774.813877 584.165596 
L 775.549755 584.1485 
L 776.285634 584.288194 
L 777.021513 584.208194 
L 778.49327 584.41739 
L 784.3803 584.577308 
L 787.323815 584.631938 
L 815.287207 584.553325 
L 816.023085 584.362482 
L 818.230721 584.228165 
L 818.9666 584.153871 
L 819.702479 584.340073 
L 820.438358 584.332942 
L 821.174236 584.495421 
L 829.268902 584.637213 
L 850.609386 584.620606 
L 857.232294 584.501561 
L 877.10102 584.611876 
L 880.044535 584.260139 
L 880.780413 584.53713 
L 882.252171 584.581202 
L 886.667443 584.577843 
L 887.403322 584.319433 
L 888.139201 584.557789 
L 889.610958 584.542163 
L 891.818594 584.618714 
L 892.554473 584.544248 
L 896.233867 584.635341 
L 910.215563 584.649679 
L 938.178954 584.601493 
L 938.914833 584.341896 
L 940.38659 584.133316 
L 941.122469 584.398287 
L 944.801863 584.610612 
L 957.311801 584.648803 
L 961.727073 584.635649 
L 962.462952 584.420923 
L 963.198831 584.424423 
L 963.93471 584.550886 
L 966.878225 584.617597 
L 972.029376 584.60725 
L 974.972891 584.584183 
L 977.180527 584.53149 
L 982.331678 584.575751 
L 983.067557 584.451138 
L 984.539314 584.576754 
L 985.275193 584.624477 
L 986.011072 584.444765 
L 986.74695 584.410615 
L 987.482829 584.547692 
L 988.954586 584.531684 
L 990.426344 584.615367 
L 998.52101 584.647364 
L 1001.464525 584.649104 
L 1001.464525 584.649104 
" clip-path="url(#p86bea4f579)" style="fill: none; stroke: #4c72b0; stroke-width: 6; stroke-linecap: round"/>
   </g>
   <g id="line2d_14">
    <path d="M 119.14593 329.283313 
L 119.881808 330.776737 
L 121.353566 329.928299 
L 122.089445 328.756085 
L 122.825323 321.953211 
L 123.561202 311.55298 
L 125.768838 294.616969 
L 126.504717 290.689053 
L 127.240596 287.823343 
L 128.712353 281.509638 
L 129.448232 278.224066 
L 130.184111 276.053238 
L 130.919989 273.529977 
L 136.07114 252.164305 
L 136.807019 248.750583 
L 137.542898 246.063732 
L 138.278777 241.954162 
L 139.014655 239.049047 
L 140.486413 232.276025 
L 141.95817 227.012 
L 142.694049 223.822361 
L 143.429928 220.000109 
L 144.165807 215.457771 
L 144.901685 212.763933 
L 145.637564 210.777072 
L 148.581079 192.405335 
L 149.316958 192.283436 
L 150.052836 186.649752 
L 150.788715 183.479803 
L 151.524594 181.639941 
L 152.260473 179.203645 
L 152.996351 173.67532 
L 153.73223 172.505114 
L 154.468109 167.529423 
L 155.203987 165.84553 
L 155.939866 163.811718 
L 156.675745 159.021264 
L 157.411624 158.449473 
L 158.147502 155.942599 
L 158.883381 154.011783 
L 159.61926 151.417613 
L 160.355139 148.187579 
L 161.091017 146.926621 
L 161.826896 145.896453 
L 162.562775 141.040375 
L 163.298653 142.68217 
L 164.034532 138.48345 
L 164.770411 139.470885 
L 165.50629 136.729665 
L 166.242168 131.573083 
L 166.978047 129.633781 
L 167.713926 129.213818 
L 168.449805 126.931432 
L 169.921562 120.765515 
L 170.657441 122.930118 
L 171.393319 122.780679 
L 172.865077 114.720633 
L 173.600956 116.284279 
L 174.336834 116.190327 
L 175.072713 115.098016 
L 175.808592 113.209069 
L 176.544471 109.915164 
L 177.280349 108.009449 
L 178.016228 108.606951 
L 178.752107 104.999228 
L 179.487985 102.699617 
L 180.223864 100.86626 
L 180.959743 101.055637 
L 181.695622 103.366122 
L 183.167379 98.615073 
L 183.903258 97.500048 
L 184.639137 100.113628 
L 185.375015 96.439748 
L 186.110894 95.396064 
L 186.846773 100.025418 
L 187.582651 98.936663 
L 188.31853 95.43524 
L 189.054409 93.749238 
L 189.790288 94.676054 
L 190.526166 92.362063 
L 191.262045 88.79555 
L 191.997924 88.429041 
L 192.733803 90.911728 
L 193.469681 85.915459 
L 194.20556 84.880616 
L 194.941439 82.445438 
L 195.677317 89.011248 
L 196.413196 85.325325 
L 197.884954 90.030542 
L 198.620832 89.56063 
L 199.356711 87.202331 
L 200.09259 90.068041 
L 200.828469 84.828737 
L 201.564347 83.110876 
L 202.300226 82.363529 
L 203.036105 85.624356 
L 203.771983 86.166878 
L 204.507862 83.213364 
L 205.243741 80.916903 
L 205.97962 81.590115 
L 206.715498 85.262572 
L 207.451377 84.861562 
L 208.187256 81.834014 
L 208.923135 83.6942 
L 209.659013 80.757962 
L 210.394892 79.797102 
L 211.130771 81.239358 
L 211.866649 80.57265 
L 212.602528 83.576265 
L 213.338407 83.695471 
L 214.074286 82.394168 
L 214.810164 85.910683 
L 215.546043 86.008446 
L 216.281922 88.358208 
L 217.017801 87.311425 
L 217.753679 86.048892 
L 218.489558 88.298961 
L 219.225437 86.057124 
L 219.961316 88.085042 
L 220.697194 88.184888 
L 221.433073 87.428191 
L 222.168952 84.771472 
L 222.90483 86.069268 
L 223.640709 91.666951 
L 224.376588 91.358673 
L 225.112467 90.852431 
L 225.848345 92.972928 
L 226.584224 92.09535 
L 227.320103 92.716123 
L 228.055982 93.985211 
L 228.79186 92.834363 
L 229.527739 87.184699 
L 230.263618 87.307817 
L 230.999496 87.632355 
L 231.735375 90.49085 
L 232.471254 84.67818 
L 233.207133 89.622621 
L 233.943011 92.663228 
L 234.67889 95.075896 
L 235.414769 99.646511 
L 236.150648 97.70472 
L 237.622405 99.093521 
L 238.358284 99.987106 
L 239.094162 98.33464 
L 239.830041 99.588026 
L 240.56592 99.304697 
L 241.301799 96.768046 
L 242.037677 101.715841 
L 242.773556 97.713104 
L 243.509435 97.660208 
L 244.245314 107.043203 
L 244.981192 107.125773 
L 245.717071 105.720864 
L 246.45295 106.93604 
L 247.188828 105.982243 
L 247.924707 106.979891 
L 248.660586 105.034441 
L 249.396465 114.861027 
L 250.132343 109.692352 
L 250.868222 108.514574 
L 251.604101 109.101303 
L 253.075858 114.079788 
L 253.811737 113.399463 
L 254.547616 113.734824 
L 255.283494 109.654649 
L 256.019373 110.57242 
L 256.755252 117.189855 
L 257.491131 116.171526 
L 258.227009 116.943365 
L 258.962888 119.983311 
L 259.698767 114.989735 
L 260.434646 120.870087 
L 261.170524 123.257654 
L 261.906403 122.593588 
L 262.642282 117.346865 
L 263.37816 119.800234 
L 264.114039 114.957164 
L 264.849918 122.151115 
L 265.585797 121.644567 
L 266.321675 127.965055 
L 267.057554 126.668275 
L 267.793433 127.515265 
L 268.529312 129.771432 
L 269.26519 131.399254 
L 270.001069 133.901708 
L 270.736948 133.135713 
L 271.472826 133.385861 
L 272.208705 135.304228 
L 272.944584 142.188072 
L 273.680463 136.678395 
L 275.15222 141.141745 
L 275.888099 137.85038 
L 276.623978 139.236996 
L 277.359856 139.567073 
L 278.095735 139.734652 
L 278.831614 139.343245 
L 279.567492 137.942554 
L 280.303371 135.546552 
L 281.03925 137.916487 
L 281.775129 143.929612 
L 282.511007 143.388715 
L 283.246886 141.398449 
L 283.982765 140.762686 
L 284.718644 138.475219 
L 285.454522 143.017938 
L 286.190401 135.57333 
L 286.92628 141.094337 
L 287.662158 144.643575 
L 288.398037 143.834593 
L 289.133916 152.065114 
L 289.869795 149.364899 
L 290.605673 155.321266 
L 291.341552 151.533719 
L 292.077431 153.379729 
L 292.81331 155.766738 
L 293.549188 157.382212 
L 294.285067 158.627265 
L 295.020946 159.49143 
L 295.756825 165.119296 
L 296.492703 161.842793 
L 297.228582 168.241583 
L 297.964461 163.60542 
L 298.700339 168.470264 
L 299.436218 168.881462 
L 300.172097 168.943453 
L 300.907976 168.673817 
L 301.643854 170.12588 
L 302.379733 173.727632 
L 303.115612 166.028124 
L 303.851491 165.828533 
L 304.587369 173.3284 
L 306.059127 178.890413 
L 306.795005 178.789728 
L 307.530884 179.102275 
L 308.266763 178.028052 
L 309.002642 181.990216 
L 309.73852 181.192946 
L 310.474399 182.405454 
L 311.210278 189.449 
L 311.946157 187.71963 
L 312.682035 187.675322 
L 313.417914 190.612449 
L 314.153793 191.36221 
L 314.889671 191.736848 
L 315.62555 187.395117 
L 316.361429 184.568227 
L 317.097308 187.355433 
L 317.833186 191.293969 
L 318.569065 192.451269 
L 319.304944 194.664779 
L 320.040823 198.709563 
L 321.51258 202.117415 
L 322.248459 204.213218 
L 322.984337 206.667121 
L 323.720216 209.53245 
L 324.456095 208.65571 
L 325.191974 211.012764 
L 325.927852 215.204802 
L 326.663731 213.798141 
L 327.39961 211.655743 
L 328.135489 216.629172 
L 328.871367 214.058096 
L 329.607246 213.366135 
L 330.343125 210.190215 
L 331.079003 219.646227 
L 331.814882 216.245082 
L 332.550761 213.773903 
L 333.28664 217.246897 
L 334.022518 215.682819 
L 334.758397 215.036436 
L 335.494276 214.938063 
L 336.230155 215.187907 
L 336.966033 216.491191 
L 337.701912 220.468725 
L 338.437791 218.283925 
L 339.173669 221.826734 
L 339.909548 218.651043 
L 340.645427 220.857134 
L 341.381306 221.075627 
L 342.117184 226.866296 
L 342.853063 224.356195 
L 343.588942 227.07333 
L 344.324821 230.644315 
L 345.060699 231.372074 
L 345.796578 231.149161 
L 346.532457 231.094258 
L 347.268335 232.916031 
L 348.004214 236.186563 
L 348.740093 243.450533 
L 349.475972 243.968056 
L 350.21185 242.296688 
L 350.947729 246.062563 
L 351.683608 242.170368 
L 352.419487 246.913821 
L 353.155365 242.496888 
L 353.891244 243.33496 
L 354.627123 249.042221 
L 355.363001 251.071485 
L 356.09888 246.743219 
L 356.834759 244.399833 
L 357.570638 247.023373 
L 358.306516 248.28024 
L 359.042395 250.246675 
L 359.778274 258.546961 
L 360.514153 262.33146 
L 361.250031 268.023247 
L 361.98591 267.918193 
L 362.721789 266.978852 
L 363.457667 265.797517 
L 364.193546 270.919649 
L 364.929425 265.645411 
L 365.665304 263.042908 
L 366.401182 263.040418 
L 367.137061 263.623794 
L 367.87294 269.641288 
L 368.608819 265.83207 
L 369.344697 270.556417 
L 370.080576 272.066329 
L 370.816455 272.828361 
L 371.552334 275.85225 
L 372.288212 275.475731 
L 373.024091 282.754844 
L 373.75997 277.910884 
L 374.495848 281.59795 
L 375.231727 276.791159 
L 375.967606 282.288209 
L 376.703485 280.353811 
L 377.439363 281.988341 
L 378.175242 287.362171 
L 378.911121 291.560281 
L 379.647 297.090587 
L 380.382878 294.117103 
L 381.118757 301.148735 
L 381.854636 301.555284 
L 382.590514 298.036762 
L 384.062272 308.862851 
L 385.534029 301.93536 
L 386.269908 302.987961 
L 387.005787 306.748044 
L 387.741666 306.373177 
L 388.477544 308.820753 
L 389.213423 312.770264 
L 389.949302 309.084266 
L 390.68518 311.300265 
L 391.421059 319.301598 
L 392.156938 319.579084 
L 392.892817 313.118989 
L 393.628695 315.761354 
L 394.364574 317.742906 
L 395.100453 316.949447 
L 395.836332 321.147735 
L 396.57221 323.64216 
L 397.308089 325.621146 
L 398.043968 323.979935 
L 398.779846 327.560701 
L 399.515725 329.258415 
L 400.251604 327.488929 
L 400.987483 333.599511 
L 402.45924 328.569096 
L 403.930998 333.61445 
L 404.666876 336.040635 
L 405.402755 339.525061 
L 406.138634 341.612226 
L 406.874512 350.05964 
L 407.610391 350.593041 
L 408.34627 346.912658 
L 409.082149 346.912327 
L 409.818027 350.370306 
L 410.553906 349.834795 
L 411.289785 350.994281 
L 412.025664 346.597418 
L 412.761542 345.68737 
L 413.497421 348.623786 
L 414.2333 348.44071 
L 414.969178 353.820078 
L 415.705057 352.940137 
L 416.440936 356.318238 
L 417.176815 357.823222 
L 417.912693 364.604983 
L 418.648572 367.682531 
L 419.384451 364.606076 
L 420.12033 366.591439 
L 420.856208 367.104998 
L 421.592087 369.960089 
L 422.327966 373.780753 
L 423.063844 376.104005 
L 423.799723 375.745524 
L 424.535602 379.153872 
L 425.271481 375.673282 
L 426.007359 367.690737 
L 426.743238 377.789156 
L 427.479117 382.775656 
L 428.214996 383.122158 
L 428.950874 380.8134 
L 429.686753 379.74802 
L 430.422632 387.78802 
L 431.15851 393.405139 
L 431.894389 391.882067 
L 432.630268 393.119079 
L 434.837904 405.037632 
L 435.573783 408.468667 
L 436.309662 401.677988 
L 437.04554 407.986179 
L 437.781419 404.030367 
L 438.517298 399.252108 
L 439.253176 399.256059 
L 439.989055 401.286568 
L 440.724934 407.261939 
L 441.460813 408.057875 
L 442.196691 409.86636 
L 442.93257 410.193058 
L 443.668449 411.978207 
L 444.404328 418.144467 
L 445.140206 419.036197 
L 445.876085 421.01874 
L 446.611964 423.42211 
L 447.347843 424.217195 
L 448.083721 427.091848 
L 448.8196 428.839448 
L 449.555479 432.657736 
L 450.291357 429.266804 
L 451.027236 430.307033 
L 451.763115 429.719643 
L 452.498994 428.250597 
L 453.234872 425.394566 
L 453.970751 429.253669 
L 454.70663 431.295192 
L 455.442509 428.422698 
L 456.178387 428.330245 
L 456.914266 420.860206 
L 457.650145 422.406055 
L 458.386023 427.239255 
L 459.121902 427.362487 
L 459.857781 428.133881 
L 460.59366 436.118801 
L 461.329538 438.547171 
L 462.065417 444.107253 
L 462.801296 445.860899 
L 463.537175 448.037278 
L 464.273053 449.479254 
L 465.744811 457.184605 
L 466.480689 457.322611 
L 467.216568 459.378971 
L 467.952447 460.870375 
L 469.424204 464.581018 
L 470.160083 466.928494 
L 470.895962 468.531405 
L 471.631841 469.227864 
L 472.367719 462.619346 
L 473.103598 458.523458 
L 473.839477 458.419216 
L 474.575355 456.606184 
L 475.311234 458.049468 
L 476.047113 451.731965 
L 476.782992 455.005432 
L 477.51887 461.257908 
L 478.254749 462.322653 
L 478.990628 464.372535 
L 479.726507 470.977597 
L 480.462385 470.480856 
L 481.198264 474.989785 
L 481.934143 476.80156 
L 482.670021 472.880263 
L 483.4059 476.594589 
L 484.141779 474.629183 
L 484.877658 479.10645 
L 485.613536 481.703287 
L 486.349415 479.403352 
L 487.085294 484.599047 
L 487.821173 486.387093 
L 488.557051 486.403715 
L 489.29293 488.915391 
L 490.028809 489.922141 
L 490.764687 489.136043 
L 491.500566 489.506903 
L 492.236445 489.49474 
L 492.972324 489.736619 
L 493.708202 492.80864 
L 494.444081 493.822167 
L 495.17996 492.486357 
L 495.915839 495.949391 
L 496.651717 496.307618 
L 497.387596 501.135394 
L 498.123475 495.770583 
L 500.331111 508.670721 
L 501.06699 504.097184 
L 501.802868 504.294291 
L 502.538747 500.895369 
L 503.274626 500.72551 
L 504.010505 506.786722 
L 504.746383 504.580904 
L 506.218141 509.62495 
L 506.954019 512.864258 
L 507.689898 513.419045 
L 508.425777 518.145831 
L 509.897534 523.884163 
L 510.633413 525.353152 
L 511.369292 526.113698 
L 512.105171 525.933333 
L 513.576928 526.701939 
L 514.312807 528.931658 
L 515.048685 530.064625 
L 515.784564 528.57197 
L 516.520443 521.789186 
L 517.256322 519.103687 
L 517.9922 520.805174 
L 518.728079 524.448821 
L 519.463958 521.850986 
L 520.199837 522.64604 
L 520.935715 525.586247 
L 521.671594 525.174395 
L 522.407473 528.21187 
L 523.143352 528.306057 
L 523.87923 530.154709 
L 524.615109 526.161144 
L 525.350988 527.212564 
L 526.086866 531.126958 
L 526.822745 530.431306 
L 527.558624 531.044007 
L 528.294503 528.528316 
L 529.030381 533.499796 
L 530.502139 539.772834 
L 531.238018 544.698408 
L 531.973896 546.63246 
L 532.709775 546.702584 
L 533.445654 544.445928 
L 534.181532 545.947418 
L 534.917411 540.721366 
L 535.65329 541.245943 
L 536.389169 542.344421 
L 537.125047 543.242297 
L 537.860926 544.566798 
L 538.596805 547.422324 
L 539.332684 548.598164 
L 540.068562 550.582504 
L 540.804441 551.880482 
L 541.54032 554.733683 
L 542.276198 555.956179 
L 543.012077 557.453175 
L 543.747956 557.880255 
L 544.483835 556.872254 
L 545.219713 557.324242 
L 545.955592 555.674755 
L 546.691471 557.166254 
L 547.42735 558.932741 
L 548.163228 557.913477 
L 548.899107 556.055672 
L 549.634986 553.708406 
L 550.370864 554.110785 
L 552.578501 549.423632 
L 553.314379 550.945971 
L 554.050258 554.450182 
L 554.786137 555.829145 
L 555.522016 554.670638 
L 556.257894 556.413826 
L 556.993773 559.126241 
L 557.729652 559.390673 
L 558.46553 558.753109 
L 559.201409 561.426997 
L 559.937288 561.611358 
L 560.673167 562.08956 
L 561.409045 563.152607 
L 562.144924 563.790957 
L 562.880803 564.098809 
L 563.616682 565.210966 
L 564.35256 565.725571 
L 565.088439 564.536497 
L 565.824318 562.711056 
L 566.560196 563.790531 
L 567.296075 566.263604 
L 568.031954 567.255346 
L 568.767833 565.674684 
L 569.503711 566.232633 
L 570.23959 565.039956 
L 570.975469 564.222005 
L 571.711348 565.663341 
L 572.447226 565.81713 
L 573.183105 567.809342 
L 573.918984 568.234771 
L 574.654862 569.882337 
L 575.390741 570.508825 
L 576.12662 569.543889 
L 576.862499 569.189928 
L 577.598377 568.979254 
L 578.334256 569.756815 
L 579.070135 569.693782 
L 579.806014 571.145562 
L 580.541892 571.65157 
L 581.277771 573.134227 
L 582.01365 573.414211 
L 582.749528 574.031055 
L 583.485407 574.399624 
L 584.957165 573.747476 
L 585.693043 569.603317 
L 586.428922 570.654007 
L 587.164801 569.640458 
L 587.90068 569.586926 
L 588.636558 572.452373 
L 589.372437 573.207956 
L 590.108316 572.678946 
L 590.844194 572.810857 
L 591.580073 571.927044 
L 592.315952 573.140715 
L 593.051831 574.851103 
L 593.787709 575.496245 
L 594.523588 574.889832 
L 595.259467 572.992283 
L 595.995346 573.571051 
L 596.731224 574.875076 
L 597.467103 574.225546 
L 598.202982 574.868018 
L 598.938861 576.618029 
L 599.674739 577.790876 
L 600.410618 577.999316 
L 601.146497 578.630635 
L 601.882375 578.552108 
L 602.618254 578.852428 
L 604.090012 580.336551 
L 604.82589 580.729166 
L 605.561769 580.896911 
L 607.033527 581.517676 
L 608.505284 581.903396 
L 609.241163 582.032135 
L 609.977041 581.854549 
L 610.71292 581.068304 
L 611.448799 578.992145 
L 612.184678 578.974728 
L 612.920556 576.924467 
L 613.656435 577.468539 
L 614.392314 576.813506 
L 615.128193 578.172119 
L 615.864071 578.616632 
L 616.59995 578.329882 
L 617.335829 579.766424 
L 618.071707 579.009926 
L 618.807586 579.714409 
L 619.543465 579.403358 
L 620.279344 579.747482 
L 621.015222 579.694748 
L 621.751101 580.069254 
L 622.48698 580.618937 
L 623.222859 581.00108 
L 623.958737 580.324262 
L 624.694616 580.361224 
L 626.166373 581.240192 
L 626.902252 581.390413 
L 628.37401 580.768569 
L 629.845767 582.119097 
L 630.581646 582.286191 
L 631.317525 581.982824 
L 632.053403 580.665657 
L 632.789282 580.53101 
L 633.525161 580.617263 
L 634.996918 578.570367 
L 635.732797 579.242958 
L 636.468676 579.229085 
L 637.204554 579.943679 
L 637.940433 579.428844 
L 638.676312 580.120795 
L 639.412191 581.215338 
L 640.148069 581.628572 
L 640.883948 580.025405 
L 642.355705 580.260421 
L 643.091584 580.780172 
L 643.827463 580.928304 
L 644.563342 581.308998 
L 645.29922 581.850262 
L 646.035099 582.154614 
L 646.770978 580.849075 
L 647.506857 580.51717 
L 648.978614 580.751366 
L 649.714493 581.195911 
L 651.922129 582.004018 
L 652.658008 582.549644 
L 654.129765 583.037113 
L 656.337401 583.340061 
L 657.07328 583.042234 
L 658.545037 583.235811 
L 659.280916 583.146083 
L 660.016795 582.906263 
L 660.752674 582.047327 
L 661.488552 581.919911 
L 662.224431 582.098563 
L 662.96031 580.530724 
L 663.696189 581.439628 
L 664.432067 581.425449 
L 665.167946 581.674775 
L 665.903825 582.215746 
L 666.639703 582.233683 
L 667.375582 582.760665 
L 668.111461 582.677314 
L 668.84734 582.420221 
L 669.583218 582.515365 
L 671.054976 583.245945 
L 671.790855 583.442289 
L 672.526733 583.496465 
L 673.998491 582.861386 
L 675.470248 583.337067 
L 676.206127 583.063426 
L 676.942006 583.034917 
L 677.677884 582.796642 
L 678.413763 583.338191 
L 679.149642 582.491815 
L 679.885521 582.485667 
L 680.621399 582.299813 
L 681.357278 581.032324 
L 682.093157 581.876591 
L 683.564914 582.548951 
L 685.036672 582.628553 
L 686.508429 582.860382 
L 687.244308 583.221398 
L 687.980187 583.079723 
L 688.716065 583.068083 
L 689.451944 583.343972 
L 690.923702 583.39989 
L 691.65958 583.216298 
L 692.395459 583.60585 
L 693.131338 583.592194 
L 693.867216 583.251374 
L 694.603095 583.443261 
L 696.074853 583.508699 
L 696.810731 583.658236 
L 698.282489 583.354215 
L 699.018368 583.155092 
L 700.490125 583.840647 
L 701.226004 583.679871 
L 701.961882 583.836423 
L 702.697761 583.710868 
L 703.43364 583.818521 
L 704.169519 582.644143 
L 704.905397 583.11748 
L 705.641276 582.551972 
L 706.377155 583.431875 
L 707.113034 583.030188 
L 707.848912 583.594827 
L 713.000063 584.114275 
L 715.943578 584.130948 
L 719.622972 584.386657 
L 727.717638 584.433614 
L 728.453517 584.168849 
L 729.925274 584.45033 
L 730.661153 584.412397 
L 731.397032 584.052875 
L 732.13291 584.191664 
L 732.868789 583.6677 
L 733.604668 583.705225 
L 734.340546 583.269033 
L 735.812304 583.656221 
L 736.548183 583.266432 
L 740.963455 584.344746 
L 743.171091 584.428563 
L 772.60624 584.596286 
L 773.342119 584.308327 
L 774.077998 583.854875 
L 774.813877 583.695197 
L 775.549755 583.747876 
L 777.021513 583.438034 
L 777.757391 583.764587 
L 778.49327 583.876368 
L 779.229149 584.134256 
L 779.965028 584.186915 
L 781.436785 583.808769 
L 782.172664 583.86191 
L 782.908543 584.255757 
L 785.116179 584.224006 
L 786.587936 584.496937 
L 789.531451 584.573603 
L 814.551328 584.626793 
L 815.287207 583.543084 
L 816.023085 584.298548 
L 816.758964 583.968282 
L 817.494843 584.238088 
L 818.9666 583.830514 
L 819.702479 583.878186 
L 821.910115 584.322853 
L 823.381873 584.454684 
L 824.117751 584.388446 
L 825.589509 584.500554 
L 827.061266 584.534786 
L 829.268902 584.491684 
L 835.891811 584.616057 
L 839.571205 584.568395 
L 840.307083 584.460361 
L 847.665871 584.595603 
L 849.137628 584.401628 
L 852.081143 584.49977 
L 852.817022 584.206256 
L 854.288779 584.055712 
L 855.024658 584.339494 
L 858.704052 584.329021 
L 859.43993 584.446609 
L 862.383445 584.448827 
L 863.119324 584.583899 
L 865.32696 584.483482 
L 866.062839 584.336112 
L 866.798718 584.529105 
L 870.478111 584.606145 
L 871.21399 584.584357 
L 871.949869 584.382081 
L 872.685747 584.547685 
L 874.157505 584.547504 
L 875.629262 584.269412 
L 877.10102 584.485042 
L 879.308656 584.146183 
L 880.044535 584.378478 
L 880.780413 584.259687 
L 881.516292 584.483865 
L 882.98805 584.45282 
L 883.723928 584.521717 
L 885.195686 584.499026 
L 886.667443 584.535984 
L 893.290352 584.567596 
L 894.02623 584.401071 
L 894.762109 584.421595 
L 896.233867 584.612155 
L 900.649139 584.596251 
L 919.046107 584.651319 
L 938.178954 584.571494 
L 938.914833 584.443947 
L 939.650712 584.473858 
L 940.38659 584.234601 
L 941.122469 584.276607 
L 941.858348 584.544937 
L 947.745378 584.640427 
L 960.991195 584.649677 
L 961.727073 584.440722 
L 962.462952 584.627758 
L 963.198831 584.574481 
L 963.93471 584.302853 
L 964.670588 584.471232 
L 969.821739 584.631375 
L 970.557618 584.516142 
L 971.293497 584.63364 
L 974.237012 584.575104 
L 974.972891 584.528692 
L 976.444648 584.604682 
L 977.180527 584.470134 
L 977.916405 584.598069 
L 980.124042 584.582732 
L 983.067557 584.635793 
L 983.803435 584.490381 
L 986.011072 584.630575 
L 988.218708 584.435368 
L 988.954586 584.606244 
L 1001.464525 584.650649 
L 1001.464525 584.650649 
" clip-path="url(#p86bea4f579)" style="fill: none; stroke: #dd8452; stroke-width: 6; stroke-linecap: round"/>
   </g>
   <g id="line2d_15"/>
   <g id="line2d_16"/>
   <g id="patch_3">
    <path d="M 75.03 609.894375 
L 75.03 54.554375 
" style="fill: none; stroke: #cccccc; stroke-width: 1.875; stroke-linejoin: miter; stroke-linecap: square"/>
   </g>
   <g id="patch_4">
    <path d="M 1045.580455 609.894375 
L 1045.580455 54.554375 
" style="fill: none; stroke: #cccccc; stroke-width: 1.875; stroke-linejoin: miter; stroke-linecap: square"/>
   </g>
   <g id="patch_5">
    <path d="M 75.03 609.894375 
L 1045.580455 609.894375 
" style="fill: none; stroke: #cccccc; stroke-width: 1.875; stroke-linejoin: miter; stroke-linecap: square"/>
   </g>
   <g id="patch_6">
    <path d="M 75.03 54.554375 
L 1045.580455 54.554375 
" style="fill: none; stroke: #cccccc; stroke-width: 1.875; stroke-linejoin: miter; stroke-linecap: square"/>
   </g>
   <g id="text_15">
    <!-- Training Progress: Loss -->
    <g style="fill: #262626" transform="translate(323.307102 34.554375) scale(0.36 -0.36)">
     <defs>
      <path id="DejaVuSans-Bold-54" d="M 31 4666 
L 4331 4666 
L 4331 3756 
L 2784 3756 
L 2784 0 
L 1581 0 
L 1581 3756 
L 31 3756 
L 31 4666 
z
" transform="scale(0.015625)"/>
      <path id="DejaVuSans-Bold-72" d="M 3138 2547 
Q 2991 2616 2845 2648 
Q 2700 2681 2553 2681 
Q 2122 2681 1889 2404 
Q 1656 2128 1656 1613 
L 1656 0 
L 538 0 
L 538 3500 
L 1656 3500 
L 1656 2925 
Q 1872 3269 2151 3426 
Q 2431 3584 2822 3584 
Q 2878 3584 2943 3579 
Q 3009 3575 3134 3559 
L 3138 2547 
z
" transform="scale(0.015625)"/>
      <path id="DejaVuSans-Bold-61" d="M 2106 1575 
Q 1756 1575 1579 1456 
Q 1403 1338 1403 1106 
Q 1403 894 1545 773 
Q 1688 653 1941 653 
Q 2256 653 2472 879 
Q 2688 1106 2688 1447 
L 2688 1575 
L 2106 1575 
z
M 3816 1997 
L 3816 0 
L 2688 0 
L 2688 519 
Q 2463 200 2181 54 
Q 1900 -91 1497 -91 
Q 953 -91 614 226 
Q 275 544 275 1050 
Q 275 1666 698 1953 
Q 1122 2241 2028 2241 
L 2688 2241 
L 2688 2328 
Q 2688 2594 2478 2717 
Q 2269 2841 1825 2841 
Q 1466 2841 1156 2769 
Q 847 2697 581 2553 
L 581 3406 
Q 941 3494 1303 3539 
Q 1666 3584 2028 3584 
Q 2975 3584 3395 3211 
Q 3816 2838 3816 1997 
z
" transform="scale(0.015625)"/>
      <path id="DejaVuSans-Bold-69" d="M 538 3500 
L 1656 3500 
L 1656 0 
L 538 0 
L 538 3500 
z
M 538 4863 
L 1656 4863 
L 1656 3950 
L 538 3950 
L 538 4863 
z
" transform="scale(0.015625)"/>
      <path id="DejaVuSans-Bold-6e" d="M 4056 2131 
L 4056 0 
L 2931 0 
L 2931 347 
L 2931 1631 
Q 2931 2084 2911 2256 
Q 2891 2428 2841 2509 
Q 2775 2619 2662 2680 
Q 2550 2741 2406 2741 
Q 2056 2741 1856 2470 
Q 1656 2200 1656 1722 
L 1656 0 
L 538 0 
L 538 3500 
L 1656 3500 
L 1656 2988 
Q 1909 3294 2193 3439 
Q 2478 3584 2822 3584 
Q 3428 3584 3742 3212 
Q 4056 2841 4056 2131 
z
" transform="scale(0.015625)"/>
      <path id="DejaVuSans-Bold-67" d="M 2919 594 
Q 2688 288 2409 144 
Q 2131 0 1766 0 
Q 1125 0 706 504 
Q 288 1009 288 1791 
Q 288 2575 706 3076 
Q 1125 3578 1766 3578 
Q 2131 3578 2409 3434 
Q 2688 3291 2919 2981 
L 2919 3500 
L 4044 3500 
L 4044 353 
Q 4044 -491 3511 -936 
Q 2978 -1381 1966 -1381 
Q 1638 -1381 1331 -1331 
Q 1025 -1281 716 -1178 
L 716 -306 
Q 1009 -475 1290 -558 
Q 1572 -641 1856 -641 
Q 2406 -641 2662 -400 
Q 2919 -159 2919 353 
L 2919 594 
z
M 2181 2772 
Q 1834 2772 1640 2515 
Q 1447 2259 1447 1791 
Q 1447 1309 1634 1061 
Q 1822 813 2181 813 
Q 2531 813 2725 1069 
Q 2919 1325 2919 1791 
Q 2919 2259 2725 2515 
Q 2531 2772 2181 2772 
z
" transform="scale(0.015625)"/>
      <path id="DejaVuSans-Bold-20" transform="scale(0.015625)"/>
      <path id="DejaVuSans-Bold-50" d="M 588 4666 
L 2584 4666 
Q 3475 4666 3951 4270 
Q 4428 3875 4428 3144 
Q 4428 2409 3951 2014 
Q 3475 1619 2584 1619 
L 1791 1619 
L 1791 0 
L 588 0 
L 588 4666 
z
M 1791 3794 
L 1791 2491 
L 2456 2491 
Q 2806 2491 2997 2661 
Q 3188 2831 3188 3144 
Q 3188 3456 2997 3625 
Q 2806 3794 2456 3794 
L 1791 3794 
z
" transform="scale(0.015625)"/>
      <path id="DejaVuSans-Bold-6f" d="M 2203 2784 
Q 1831 2784 1636 2517 
Q 1441 2250 1441 1747 
Q 1441 1244 1636 976 
Q 1831 709 2203 709 
Q 2569 709 2762 976 
Q 2956 1244 2956 1747 
Q 2956 2250 2762 2517 
Q 2569 2784 2203 2784 
z
M 2203 3584 
Q 3106 3584 3614 3096 
Q 4122 2609 4122 1747 
Q 4122 884 3614 396 
Q 3106 -91 2203 -91 
Q 1297 -91 786 396 
Q 275 884 275 1747 
Q 275 2609 786 3096 
Q 1297 3584 2203 3584 
z
" transform="scale(0.015625)"/>
      <path id="DejaVuSans-Bold-65" d="M 4031 1759 
L 4031 1441 
L 1416 1441 
Q 1456 1047 1700 850 
Q 1944 653 2381 653 
Q 2734 653 3104 758 
Q 3475 863 3866 1075 
L 3866 213 
Q 3469 63 3072 -14 
Q 2675 -91 2278 -91 
Q 1328 -91 801 392 
Q 275 875 275 1747 
Q 275 2603 792 3093 
Q 1309 3584 2216 3584 
Q 3041 3584 3536 3087 
Q 4031 2591 4031 1759 
z
M 2881 2131 
Q 2881 2450 2695 2645 
Q 2509 2841 2209 2841 
Q 1884 2841 1681 2658 
Q 1478 2475 1428 2131 
L 2881 2131 
z
" transform="scale(0.015625)"/>
      <path id="DejaVuSans-Bold-73" d="M 3272 3391 
L 3272 2541 
Q 2913 2691 2578 2766 
Q 2244 2841 1947 2841 
Q 1628 2841 1473 2761 
Q 1319 2681 1319 2516 
Q 1319 2381 1436 2309 
Q 1553 2238 1856 2203 
L 2053 2175 
Q 2913 2066 3209 1816 
Q 3506 1566 3506 1031 
Q 3506 472 3093 190 
Q 2681 -91 1863 -91 
Q 1516 -91 1145 -36 
Q 775 19 384 128 
L 384 978 
Q 719 816 1070 734 
Q 1422 653 1784 653 
Q 2113 653 2278 743 
Q 2444 834 2444 1013 
Q 2444 1163 2330 1236 
Q 2216 1309 1875 1350 
L 1678 1375 
Q 931 1469 631 1722 
Q 331 1975 331 2491 
Q 331 3047 712 3315 
Q 1094 3584 1881 3584 
Q 2191 3584 2531 3537 
Q 2872 3491 3272 3391 
z
" transform="scale(0.015625)"/>
      <path id="DejaVuSans-Bold-3a" d="M 716 3500 
L 1844 3500 
L 1844 2291 
L 716 2291 
L 716 3500 
z
M 716 1209 
L 1844 1209 
L 1844 0 
L 716 0 
L 716 1209 
z
" transform="scale(0.015625)"/>
      <path id="DejaVuSans-Bold-4c" d="M 588 4666 
L 1791 4666 
L 1791 909 
L 3903 909 
L 3903 0 
L 588 0 
L 588 4666 
z
" transform="scale(0.015625)"/>
     </defs>
     <use xlink:href="#DejaVuSans-Bold-54"/>
     <use xlink:href="#DejaVuSans-Bold-72" transform="translate(57.212891 0)"/>
     <use xlink:href="#DejaVuSans-Bold-61" transform="translate(106.529297 0)"/>
     <use xlink:href="#DejaVuSans-Bold-69" transform="translate(174.009766 0)"/>
     <use xlink:href="#DejaVuSans-Bold-6e" transform="translate(208.287109 0)"/>
     <use xlink:href="#DejaVuSans-Bold-69" transform="translate(279.478516 0)"/>
     <use xlink:href="#DejaVuSans-Bold-6e" transform="translate(313.755859 0)"/>
     <use xlink:href="#DejaVuSans-Bold-67" transform="translate(384.947266 0)"/>
     <use xlink:href="#DejaVuSans-Bold-20" transform="translate(456.529297 0)"/>
     <use xlink:href="#DejaVuSans-Bold-50" transform="translate(491.34375 0)"/>
     <use xlink:href="#DejaVuSans-Bold-72" transform="translate(564.634766 0)"/>
     <use xlink:href="#DejaVuSans-Bold-6f" transform="translate(613.951172 0)"/>
     <use xlink:href="#DejaVuSans-Bold-67" transform="translate(682.652344 0)"/>
     <use xlink:href="#DejaVuSans-Bold-72" transform="translate(754.234375 0)"/>
     <use xlink:href="#DejaVuSans-Bold-65" transform="translate(803.550781 0)"/>
     <use xlink:href="#DejaVuSans-Bold-73" transform="translate(871.373047 0)"/>
     <use xlink:href="#DejaVuSans-Bold-73" transform="translate(930.894531 0)"/>
     <use xlink:href="#DejaVuSans-Bold-3a" transform="translate(990.416016 0)"/>
     <use xlink:href="#DejaVuSans-Bold-20" transform="translate(1030.40625 0)"/>
     <use xlink:href="#DejaVuSans-Bold-4c" transform="translate(1065.220703 0)"/>
     <use xlink:href="#DejaVuSans-Bold-6f" transform="translate(1128.941406 0)"/>
     <use xlink:href="#DejaVuSans-Bold-73" transform="translate(1197.642578 0)"/>
     <use xlink:href="#DejaVuSans-Bold-73" transform="translate(1257.164062 0)"/>
    </g>
   </g>
   <g id="legend_1">
    <g id="patch_7">
     <path d="M 846.300455 174.094375 
L 1023.180455 174.094375 
Q 1029.580455 174.094375 1029.580455 167.694375 
L 1029.580455 76.954375 
Q 1029.580455 70.554375 1023.180455 70.554375 
L 846.300455 70.554375 
Q 839.900455 70.554375 839.900455 76.954375 
L 839.900455 167.694375 
Q 839.900455 174.094375 846.300455 174.094375 
z
" style="fill: #ffffff; opacity: 0.8; stroke: #cccccc; stroke-width: 1.5; stroke-linejoin: miter"/>
    </g>
    <g id="line2d_17">
     <path d="M 852.700455 96.469375 
L 884.700455 96.469375 
L 916.700455 96.469375 
" style="fill: none; stroke: #4c72b0; stroke-width: 6; stroke-linecap: round"/>
    </g>
    <g id="text_16">
     <!-- train -->
     <g style="fill: #262626" transform="translate(942.300455 107.669375) scale(0.32 -0.32)">
      <defs>
       <path id="DejaVuSans-74" d="M 1172 4494 
L 1172 3500 
L 2356 3500 
L 2356 3053 
L 1172 3053 
L 1172 1153 
Q 1172 725 1289 603 
Q 1406 481 1766 481 
L 2356 481 
L 2356 0 
L 1766 0 
Q 1100 0 847 248 
Q 594 497 594 1153 
L 594 3053 
L 172 3053 
L 172 3500 
L 594 3500 
L 594 4494 
L 1172 4494 
z
" transform="scale(0.015625)"/>
       <path id="DejaVuSans-72" d="M 2631 2963 
Q 2534 3019 2420 3045 
Q 2306 3072 2169 3072 
Q 1681 3072 1420 2755 
Q 1159 2438 1159 1844 
L 1159 0 
L 581 0 
L 581 3500 
L 1159 3500 
L 1159 2956 
Q 1341 3275 1631 3429 
Q 1922 3584 2338 3584 
Q 2397 3584 2469 3576 
Q 2541 3569 2628 3553 
L 2631 2963 
z
" transform="scale(0.015625)"/>
       <path id="DejaVuSans-61" d="M 2194 1759 
Q 1497 1759 1228 1600 
Q 959 1441 959 1056 
Q 959 750 1161 570 
Q 1363 391 1709 391 
Q 2188 391 2477 730 
Q 2766 1069 2766 1631 
L 2766 1759 
L 2194 1759 
z
M 3341 1997 
L 3341 0 
L 2766 0 
L 2766 531 
Q 2569 213 2275 61 
Q 1981 -91 1556 -91 
Q 1019 -91 701 211 
Q 384 513 384 1019 
Q 384 1609 779 1909 
Q 1175 2209 1959 2209 
L 2766 2209 
L 2766 2266 
Q 2766 2663 2505 2880 
Q 2244 3097 1772 3097 
Q 1472 3097 1187 3025 
Q 903 2953 641 2809 
L 641 3341 
Q 956 3463 1253 3523 
Q 1550 3584 1831 3584 
Q 2591 3584 2966 3190 
Q 3341 2797 3341 1997 
z
" transform="scale(0.015625)"/>
       <path id="DejaVuSans-69" d="M 603 3500 
L 1178 3500 
L 1178 0 
L 603 0 
L 603 3500 
z
M 603 4863 
L 1178 4863 
L 1178 4134 
L 603 4134 
L 603 4863 
z
" transform="scale(0.015625)"/>
       <path id="DejaVuSans-6e" d="M 3513 2113 
L 3513 0 
L 2938 0 
L 2938 2094 
Q 2938 2591 2744 2837 
Q 2550 3084 2163 3084 
Q 1697 3084 1428 2787 
Q 1159 2491 1159 1978 
L 1159 0 
L 581 0 
L 581 3500 
L 1159 3500 
L 1159 2956 
Q 1366 3272 1645 3428 
Q 1925 3584 2291 3584 
Q 2894 3584 3203 3211 
Q 3513 2838 3513 2113 
z
" transform="scale(0.015625)"/>
      </defs>
      <use xlink:href="#DejaVuSans-74"/>
      <use xlink:href="#DejaVuSans-72" transform="translate(39.208984 0)"/>
      <use xlink:href="#DejaVuSans-61" transform="translate(80.322266 0)"/>
      <use xlink:href="#DejaVuSans-69" transform="translate(141.601562 0)"/>
      <use xlink:href="#DejaVuSans-6e" transform="translate(169.384766 0)"/>
     </g>
    </g>
    <g id="line2d_18">
     <path d="M 852.700455 143.439375 
L 884.700455 143.439375 
L 916.700455 143.439375 
" style="fill: none; stroke: #dd8452; stroke-width: 6; stroke-linecap: round"/>
    </g>
    <g id="text_17">
     <!-- val -->
     <g style="fill: #262626" transform="translate(942.300455 154.639375) scale(0.32 -0.32)">
      <defs>
       <path id="DejaVuSans-76" d="M 191 3500 
L 800 3500 
L 1894 563 
L 2988 3500 
L 3597 3500 
L 2284 0 
L 1503 0 
L 191 3500 
z
" transform="scale(0.015625)"/>
       <path id="DejaVuSans-6c" d="M 603 4863 
L 1178 4863 
L 1178 0 
L 603 0 
L 603 4863 
z
" transform="scale(0.015625)"/>
      </defs>
      <use xlink:href="#DejaVuSans-76"/>
      <use xlink:href="#DejaVuSans-61" transform="translate(59.179688 0)"/>
      <use xlink:href="#DejaVuSans-6c" transform="translate(120.458984 0)"/>
     </g>
    </g>
   </g>
  </g>
 </g>
 <defs>
  <clipPath id="p86bea4f579">
   <rect x="75.03" y="54.554375" width="970.550455" height="555.34"/>
  </clipPath>
 </defs>
</svg>
