<?xml version="1.0" encoding="utf-8" standalone="no"?>
<!DOCTYPE svg PUBLIC "-//W3C//DTD SVG 1.1//EN"
  "http://www.w3.org/Graphics/SVG/1.1/DTD/svg11.dtd">
<svg xmlns:xlink="http://www.w3.org/1999/xlink" width="1052.845455pt" height="695.534375pt" viewBox="0 0 1052.845455 695.534375" xmlns="http://www.w3.org/2000/svg" version="1.1">
 <metadata>
  <rdf:RDF xmlns:dc="http://purl.org/dc/elements/1.1/" xmlns:cc="http://creativecommons.org/ns#" xmlns:rdf="http://www.w3.org/1999/02/22-rdf-syntax-ns#">
   <cc:Work>
    <dc:type rdf:resource="http://purl.org/dc/dcmitype/StillImage"/>
    <dc:date>2026-04-10T15:25:04.898982</dc:date>
    <dc:format>image/svg+xml</dc:format>
    <dc:creator>
     <cc:Agent>
      <dc:title>Matplotlib v3.10.8, https://matplotlib.org/</dc:title>
     </cc:Agent>
    </dc:creator>
   </cc:Work>
  </rdf:RDF>
 </metadata>
 <defs>
  <style type="text/css">*{stroke-linejoin: round; stroke-linecap: butt}</style>
 </defs>
 <g id="figure_1">
  <g id="patch_1">
   <path d="M 0 695.534375 
L 1052.845455 695.534375 
L 1052.845455 0 
L 0 0 
z
" style="fill: #ffffff"/>
  </g>
  <g id="axes_1">
   <g id="patch_2">
    <path d="M 95.39 609.894375 
L 1045.645455 609.894375 
L 1045.645455 54.554375 
L 95.39 54.554375 
z
" style="fill: #ffffff"/>
   </g>
   <g id="matplotlib.axis_1">
    <g id="xtick_1">
     <g id="line2d_1">
      <path d="M 137.718696 609.894375 
L 137.718696 54.554375 
" clip-path="url(#pefbe823e14)" style="fill: none; stroke: #cccccc; stroke-opacity: 0.3; stroke-width: 1.5; stroke-linecap: round"/>
     </g>
     <g id="text_1">
      <!-- 0 -->
      <g style="fill: #262626" transform="translate(127.538696 646.709375) scale(0.32 -0.32)">
       <defs>
        <path id="DejaVuSans-30" d="M 2034 4250 
Q 1547 4250 1301 3770 
Q 1056 3291 1056 2328 
Q 1056 1369 1301 889 
Q 1547 409 2034 409 
Q 2525 409 2770 889 
Q 3016 1369 3016 2328 
Q 3016 3291 2770 3770 
Q 2525 4250 2034 4250 
z
M 2034 4750 
Q 2819 4750 3233 4129 
Q 3647 3509 3647 2328 
Q 3647 1150 3233 529 
Q 2819 -91 2034 -91 
Q 1250 -91 836 529 
Q 422 1150 422 2328 
Q 422 3509 836 4129 
Q 1250 4750 2034 4750 
z
" transform="scale(0.015625)"/>
       </defs>
       <use xlink:href="#DejaVuSans-30"/>
      </g>
     </g>
    </g>
    <g id="xtick_2">
     <g id="line2d_2">
      <path d="M 310.665362 609.894375 
L 310.665362 54.554375 
" clip-path="url(#pefbe823e14)" style="fill: none; stroke: #cccccc; stroke-opacity: 0.3; stroke-width: 1.5; stroke-linecap: round"/>
     </g>
     <g id="text_2">
      <!-- 200 -->
      <g style="fill: #262626" transform="translate(280.125362 646.709375) scale(0.32 -0.32)">
       <defs>
        <path id="DejaVuSans-32" d="M 1228 531 
L 3431 531 
L 3431 0 
L 469 0 
L 469 531 
Q 828 903 1448 1529 
Q 2069 2156 2228 2338 
Q 2531 2678 2651 2914 
Q 2772 3150 2772 3378 
Q 2772 3750 2511 3984 
Q 2250 4219 1831 4219 
Q 1534 4219 1204 4116 
Q 875 4013 500 3803 
L 500 4441 
Q 881 4594 1212 4672 
Q 1544 4750 1819 4750 
Q 2544 4750 2975 4387 
Q 3406 4025 3406 3419 
Q 3406 3131 3298 2873 
Q 3191 2616 2906 2266 
Q 2828 2175 2409 1742 
Q 1991 1309 1228 531 
z
" transform="scale(0.015625)"/>
       </defs>
       <use xlink:href="#DejaVuSans-32"/>
       <use xlink:href="#DejaVuSans-30" transform="translate(63.623047 0)"/>
       <use xlink:href="#DejaVuSans-30" transform="translate(127.246094 0)"/>
      </g>
     </g>
    </g>
    <g id="xtick_3">
     <g id="line2d_3">
      <path d="M 483.612028 609.894375 
L 483.612028 54.554375 
" clip-path="url(#pefbe823e14)" style="fill: none; stroke: #cccccc; stroke-opacity: 0.3; stroke-width: 1.5; stroke-linecap: round"/>
     </g>
     <g id="text_3">
      <!-- 400 -->
      <g style="fill: #262626" transform="translate(453.072028 646.709375) scale(0.32 -0.32)">
       <defs>
        <path id="DejaVuSans-34" d="M 2419 4116 
L 825 1625 
L 2419 1625 
L 2419 4116 
z
M 2253 4666 
L 3047 4666 
L 3047 1625 
L 3713 1625 
L 3713 1100 
L 3047 1100 
L 3047 0 
L 2419 0 
L 2419 1100 
L 313 1100 
L 313 1709 
L 2253 4666 
z
" transform="scale(0.015625)"/>
       </defs>
       <use xlink:href="#DejaVuSans-34"/>
       <use xlink:href="#DejaVuSans-30" transform="translate(63.623047 0)"/>
       <use xlink:href="#DejaVuSans-30" transform="translate(127.246094 0)"/>
      </g>
     </g>
    </g>
    <g id="xtick_4">
     <g id="line2d_4">
      <path d="M 656.558693 609.894375 
L 656.558693 54.554375 
" clip-path="url(#pefbe823e14)" style="fill: none; stroke: #cccccc; stroke-opacity: 0.3; stroke-width: 1.5; stroke-linecap: round"/>
     </g>
     <g id="text_4">
      <!-- 600 -->
      <g style="fill: #262626" transform="translate(626.018693 646.709375) scale(0.32 -0.32)">
       <defs>
        <path id="DejaVuSans-36" d="M 2113 2584 
Q 1688 2584 1439 2293 
Q 1191 2003 1191 1497 
Q 1191 994 1439 701 
Q 1688 409 2113 409 
Q 2538 409 2786 701 
Q 3034 994 3034 1497 
Q 3034 2003 2786 2293 
Q 2538 2584 2113 2584 
z
M 3366 4563 
L 3366 3988 
Q 3128 4100 2886 4159 
Q 2644 4219 2406 4219 
Q 1781 4219 1451 3797 
Q 1122 3375 1075 2522 
Q 1259 2794 1537 2939 
Q 1816 3084 2150 3084 
Q 2853 3084 3261 2657 
Q 3669 2231 3669 1497 
Q 3669 778 3244 343 
Q 2819 -91 2113 -91 
Q 1303 -91 875 529 
Q 447 1150 447 2328 
Q 447 3434 972 4092 
Q 1497 4750 2381 4750 
Q 2619 4750 2861 4703 
Q 3103 4656 3366 4563 
z
" transform="scale(0.015625)"/>
       </defs>
       <use xlink:href="#DejaVuSans-36"/>
       <use xlink:href="#DejaVuSans-30" transform="translate(63.623047 0)"/>
       <use xlink:href="#DejaVuSans-30" transform="translate(127.246094 0)"/>
      </g>
     </g>
    </g>
    <g id="xtick_5">
     <g id="line2d_5">
      <path d="M 829.505359 609.894375 
L 829.505359 54.554375 
" clip-path="url(#pefbe823e14)" style="fill: none; stroke: #cccccc; stroke-opacity: 0.3; stroke-width: 1.5; stroke-linecap: round"/>
     </g>
     <g id="text_5">
      <!-- 800 -->
      <g style="fill: #262626" transform="translate(798.965359 646.709375) scale(0.32 -0.32)">
       <defs>
        <path id="DejaVuSans-38" d="M 2034 2216 
Q 1584 2216 1326 1975 
Q 1069 1734 1069 1313 
Q 1069 891 1326 650 
Q 1584 409 2034 409 
Q 2484 409 2743 651 
Q 3003 894 3003 1313 
Q 3003 1734 2745 1975 
Q 2488 2216 2034 2216 
z
M 1403 2484 
Q 997 2584 770 2862 
Q 544 3141 544 3541 
Q 544 4100 942 4425 
Q 1341 4750 2034 4750 
Q 2731 4750 3128 4425 
Q 3525 4100 3525 3541 
Q 3525 3141 3298 2862 
Q 3072 2584 2669 2484 
Q 3125 2378 3379 2068 
Q 3634 1759 3634 1313 
Q 3634 634 3220 271 
Q 2806 -91 2034 -91 
Q 1263 -91 848 271 
Q 434 634 434 1313 
Q 434 1759 690 2068 
Q 947 2378 1403 2484 
z
M 1172 3481 
Q 1172 3119 1398 2916 
Q 1625 2713 2034 2713 
Q 2441 2713 2670 2916 
Q 2900 3119 2900 3481 
Q 2900 3844 2670 4047 
Q 2441 4250 2034 4250 
Q 1625 4250 1398 4047 
Q 1172 3844 1172 3481 
z
" transform="scale(0.015625)"/>
       </defs>
       <use xlink:href="#DejaVuSans-38"/>
       <use xlink:href="#DejaVuSans-30" transform="translate(63.623047 0)"/>
       <use xlink:href="#DejaVuSans-30" transform="translate(127.246094 0)"/>
      </g>
     </g>
    </g>
    <g id="xtick_6">
     <g id="line2d_6">
      <path d="M 1002.452025 609.894375 
L 1002.452025 54.554375 
" clip-path="url(#pefbe823e14)" style="fill: none; stroke: #cccccc; stroke-opacity: 0.3; stroke-width: 1.5; stroke-linecap: round"/>
     </g>
     <g id="text_6">
      <!-- 1000 -->
      <g style="fill: #262626" transform="translate(961.732025 646.709375) scale(0.32 -0.32)">
       <defs>
        <path id="DejaVuSans-31" d="M 794 531 
L 1825 531 
L 1825 4091 
L 703 3866 
L 703 4441 
L 1819 4666 
L 2450 4666 
L 2450 531 
L 3481 531 
L 3481 0 
L 794 0 
L 794 531 
z
" transform="scale(0.015625)"/>
       </defs>
       <use xlink:href="#DejaVuSans-31"/>
       <use xlink:href="#DejaVuSans-30" transform="translate(63.623047 0)"/>
       <use xlink:href="#DejaVuSans-30" transform="translate(127.246094 0)"/>
       <use xlink:href="#DejaVuSans-30" transform="translate(190.869141 0)"/>
      </g>
     </g>
    </g>
    <g id="text_7">
     <!-- Epoch -->
     <g style="fill: #262626" transform="translate(521.522727 681.679375) scale(0.32 -0.32)">
      <defs>
       <path id="DejaVuSans-45" d="M 628 4666 
L 3578 4666 
L 3578 4134 
L 1259 4134 
L 1259 2753 
L 3481 2753 
L 3481 2222 
L 1259 2222 
L 1259 531 
L 3634 531 
L 3634 0 
L 628 0 
L 628 4666 
z
" transform="scale(0.015625)"/>
       <path id="DejaVuSans-70" d="M 1159 525 
L 1159 -1331 
L 581 -1331 
L 581 3500 
L 1159 3500 
L 1159 2969 
Q 1341 3281 1617 3432 
Q 1894 3584 2278 3584 
Q 2916 3584 3314 3078 
Q 3713 2572 3713 1747 
Q 3713 922 3314 415 
Q 2916 -91 2278 -91 
Q 1894 -91 1617 61 
Q 1341 213 1159 525 
z
M 3116 1747 
Q 3116 2381 2855 2742 
Q 2594 3103 2138 3103 
Q 1681 3103 1420 2742 
Q 1159 2381 1159 1747 
Q 1159 1113 1420 752 
Q 1681 391 2138 391 
Q 2594 391 2855 752 
Q 3116 1113 3116 1747 
z
" transform="scale(0.015625)"/>
       <path id="DejaVuSans-6f" d="M 1959 3097 
Q 1497 3097 1228 2736 
Q 959 2375 959 1747 
Q 959 1119 1226 758 
Q 1494 397 1959 397 
Q 2419 397 2687 759 
Q 2956 1122 2956 1747 
Q 2956 2369 2687 2733 
Q 2419 3097 1959 3097 
z
M 1959 3584 
Q 2709 3584 3137 3096 
Q 3566 2609 3566 1747 
Q 3566 888 3137 398 
Q 2709 -91 1959 -91 
Q 1206 -91 779 398 
Q 353 888 353 1747 
Q 353 2609 779 3096 
Q 1206 3584 1959 3584 
z
" transform="scale(0.015625)"/>
       <path id="DejaVuSans-63" d="M 3122 3366 
L 3122 2828 
Q 2878 2963 2633 3030 
Q 2388 3097 2138 3097 
Q 1578 3097 1268 2742 
Q 959 2388 959 1747 
Q 959 1106 1268 751 
Q 1578 397 2138 397 
Q 2388 397 2633 464 
Q 2878 531 3122 666 
L 3122 134 
Q 2881 22 2623 -34 
Q 2366 -91 2075 -91 
Q 1284 -91 818 406 
Q 353 903 353 1747 
Q 353 2603 823 3093 
Q 1294 3584 2113 3584 
Q 2378 3584 2631 3529 
Q 2884 3475 3122 3366 
z
" transform="scale(0.015625)"/>
       <path id="DejaVuSans-68" d="M 3513 2113 
L 3513 0 
L 2938 0 
L 2938 2094 
Q 2938 2591 2744 2837 
Q 2550 3084 2163 3084 
Q 1697 3084 1428 2787 
Q 1159 2491 1159 1978 
L 1159 0 
L 581 0 
L 581 4863 
L 1159 4863 
L 1159 2956 
Q 1366 3272 1645 3428 
Q 1925 3584 2291 3584 
Q 2894 3584 3203 3211 
Q 3513 2838 3513 2113 
z
" transform="scale(0.015625)"/>
      </defs>
      <use xlink:href="#DejaVuSans-45"/>
      <use xlink:href="#DejaVuSans-70" transform="translate(63.183594 0)"/>
      <use xlink:href="#DejaVuSans-6f" transform="translate(126.660156 0)"/>
      <use xlink:href="#DejaVuSans-63" transform="translate(187.841797 0)"/>
      <use xlink:href="#DejaVuSans-68" transform="translate(242.822266 0)"/>
     </g>
    </g>
   </g>
   <g id="matplotlib.axis_2">
    <g id="ytick_1">
     <g id="line2d_7">
      <path d="M 95.39 590.962329 
L 1045.645455 590.962329 
" clip-path="url(#pefbe823e14)" style="fill: none; stroke: #cccccc; stroke-opacity: 0.3; stroke-width: 1.5; stroke-linecap: round"/>
     </g>
     <g id="text_8">
      <!-- 0 -->
      <g style="fill: #262626" transform="translate(62.53 603.119829) scale(0.32 -0.32)">
       <use xlink:href="#DejaVuSans-30"/>
      </g>
     </g>
    </g>
    <g id="ytick_2">
     <g id="line2d_8">
      <path d="M 95.39 495.024942 
L 1045.645455 495.024942 
" clip-path="url(#pefbe823e14)" style="fill: none; stroke: #cccccc; stroke-opacity: 0.3; stroke-width: 1.5; stroke-linecap: round"/>
     </g>
     <g id="text_9">
      <!-- 10 -->
      <g style="fill: #262626" transform="translate(42.17 507.182442) scale(0.32 -0.32)">
       <use xlink:href="#DejaVuSans-31"/>
       <use xlink:href="#DejaVuSans-30" transform="translate(63.623047 0)"/>
      </g>
     </g>
    </g>
    <g id="ytick_3">
     <g id="line2d_9">
      <path d="M 95.39 399.087554 
L 1045.645455 399.087554 
" clip-path="url(#pefbe823e14)" style="fill: none; stroke: #cccccc; stroke-opacity: 0.3; stroke-width: 1.5; stroke-linecap: round"/>
     </g>
     <g id="text_10">
      <!-- 20 -->
      <g style="fill: #262626" transform="translate(42.17 411.245054) scale(0.32 -0.32)">
       <use xlink:href="#DejaVuSans-32"/>
       <use xlink:href="#DejaVuSans-30" transform="translate(63.623047 0)"/>
      </g>
     </g>
    </g>
    <g id="ytick_4">
     <g id="line2d_10">
      <path d="M 95.39 303.150166 
L 1045.645455 303.150166 
" clip-path="url(#pefbe823e14)" style="fill: none; stroke: #cccccc; stroke-opacity: 0.3; stroke-width: 1.5; stroke-linecap: round"/>
     </g>
     <g id="text_11">
      <!-- 30 -->
      <g style="fill: #262626" transform="translate(42.17 315.307666) scale(0.32 -0.32)">
       <defs>
        <path id="DejaVuSans-33" d="M 2597 2516 
Q 3050 2419 3304 2112 
Q 3559 1806 3559 1356 
Q 3559 666 3084 287 
Q 2609 -91 1734 -91 
Q 1441 -91 1130 -33 
Q 819 25 488 141 
L 488 750 
Q 750 597 1062 519 
Q 1375 441 1716 441 
Q 2309 441 2620 675 
Q 2931 909 2931 1356 
Q 2931 1769 2642 2001 
Q 2353 2234 1838 2234 
L 1294 2234 
L 1294 2753 
L 1863 2753 
Q 2328 2753 2575 2939 
Q 2822 3125 2822 3475 
Q 2822 3834 2567 4026 
Q 2313 4219 1838 4219 
Q 1578 4219 1281 4162 
Q 984 4106 628 3988 
L 628 4550 
Q 988 4650 1302 4700 
Q 1616 4750 1894 4750 
Q 2613 4750 3031 4423 
Q 3450 4097 3450 3541 
Q 3450 3153 3228 2886 
Q 3006 2619 2597 2516 
z
" transform="scale(0.015625)"/>
       </defs>
       <use xlink:href="#DejaVuSans-33"/>
       <use xlink:href="#DejaVuSans-30" transform="translate(63.623047 0)"/>
      </g>
     </g>
    </g>
    <g id="ytick_5">
     <g id="line2d_11">
      <path d="M 95.39 207.212779 
L 1045.645455 207.212779 
" clip-path="url(#pefbe823e14)" style="fill: none; stroke: #cccccc; stroke-opacity: 0.3; stroke-width: 1.5; stroke-linecap: round"/>
     </g>
     <g id="text_12">
      <!-- 40 -->
      <g style="fill: #262626" transform="translate(42.17 219.370279) scale(0.32 -0.32)">
       <use xlink:href="#DejaVuSans-34"/>
       <use xlink:href="#DejaVuSans-30" transform="translate(63.623047 0)"/>
      </g>
     </g>
    </g>
    <g id="ytick_6">
     <g id="line2d_12">
      <path d="M 95.39 111.275391 
L 1045.645455 111.275391 
" clip-path="url(#pefbe823e14)" style="fill: none; stroke: #cccccc; stroke-opacity: 0.3; stroke-width: 1.5; stroke-linecap: round"/>
     </g>
     <g id="text_13">
      <!-- 50 -->
      <g style="fill: #262626" transform="translate(42.17 123.432891) scale(0.32 -0.32)">
       <defs>
        <path id="DejaVuSans-35" d="M 691 4666 
L 3169 4666 
L 3169 4134 
L 1269 4134 
L 1269 2991 
Q 1406 3038 1543 3061 
Q 1681 3084 1819 3084 
Q 2600 3084 3056 2656 
Q 3513 2228 3513 1497 
Q 3513 744 3044 326 
Q 2575 -91 1722 -91 
Q 1428 -91 1123 -41 
Q 819 9 494 109 
L 494 744 
Q 775 591 1075 516 
Q 1375 441 1709 441 
Q 2250 441 2565 725 
Q 2881 1009 2881 1497 
Q 2881 1984 2565 2268 
Q 2250 2553 1709 2553 
Q 1456 2553 1204 2497 
Q 953 2441 691 2322 
L 691 4666 
z
" transform="scale(0.015625)"/>
       </defs>
       <use xlink:href="#DejaVuSans-35"/>
       <use xlink:href="#DejaVuSans-30" transform="translate(63.623047 0)"/>
      </g>
     </g>
    </g>
    <g id="text_14">
     <!-- Accuracy (%) -->
     <g style="fill: #262626" transform="translate(31.515 438.046875) rotate(-90) scale(0.32 -0.32)">
      <defs>
       <path id="DejaVuSans-41" d="M 2188 4044 
L 1331 1722 
L 3047 1722 
L 2188 4044 
z
M 1831 4666 
L 2547 4666 
L 4325 0 
L 3669 0 
L 3244 1197 
L 1141 1197 
L 716 0 
L 50 0 
L 1831 4666 
z
" transform="scale(0.015625)"/>
       <path id="DejaVuSans-75" d="M 544 1381 
L 544 3500 
L 1119 3500 
L 1119 1403 
Q 1119 906 1312 657 
Q 1506 409 1894 409 
Q 2359 409 2629 706 
Q 2900 1003 2900 1516 
L 2900 3500 
L 3475 3500 
L 3475 0 
L 2900 0 
L 2900 538 
Q 2691 219 2414 64 
Q 2138 -91 1772 -91 
Q 1169 -91 856 284 
Q 544 659 544 1381 
z
M 1991 3584 
L 1991 3584 
z
" transform="scale(0.015625)"/>
       <path id="DejaVuSans-72" d="M 2631 2963 
Q 2534 3019 2420 3045 
Q 2306 3072 2169 3072 
Q 1681 3072 1420 2755 
Q 1159 2438 1159 1844 
L 1159 0 
L 581 0 
L 581 3500 
L 1159 3500 
L 1159 2956 
Q 1341 3275 1631 3429 
Q 1922 3584 2338 3584 
Q 2397 3584 2469 3576 
Q 2541 3569 2628 3553 
L 2631 2963 
z
" transform="scale(0.015625)"/>
       <path id="DejaVuSans-61" d="M 2194 1759 
Q 1497 1759 1228 1600 
Q 959 1441 959 1056 
Q 959 750 1161 570 
Q 1363 391 1709 391 
Q 2188 391 2477 730 
Q 2766 1069 2766 1631 
L 2766 1759 
L 2194 1759 
z
M 3341 1997 
L 3341 0 
L 2766 0 
L 2766 531 
Q 2569 213 2275 61 
Q 1981 -91 1556 -91 
Q 1019 -91 701 211 
Q 384 513 384 1019 
Q 384 1609 779 1909 
Q 1175 2209 1959 2209 
L 2766 2209 
L 2766 2266 
Q 2766 2663 2505 2880 
Q 2244 3097 1772 3097 
Q 1472 3097 1187 3025 
Q 903 2953 641 2809 
L 641 3341 
Q 956 3463 1253 3523 
Q 1550 3584 1831 3584 
Q 2591 3584 2966 3190 
Q 3341 2797 3341 1997 
z
" transform="scale(0.015625)"/>
       <path id="DejaVuSans-79" d="M 2059 -325 
Q 1816 -950 1584 -1140 
Q 1353 -1331 966 -1331 
L 506 -1331 
L 506 -850 
L 844 -850 
Q 1081 -850 1212 -737 
Q 1344 -625 1503 -206 
L 1606 56 
L 191 3500 
L 800 3500 
L 1894 763 
L 2988 3500 
L 3597 3500 
L 2059 -325 
z
" transform="scale(0.015625)"/>
       <path id="DejaVuSans-20" transform="scale(0.015625)"/>
       <path id="DejaVuSans-28" d="M 1984 4856 
Q 1566 4138 1362 3434 
Q 1159 2731 1159 2009 
Q 1159 1288 1364 580 
Q 1569 -128 1984 -844 
L 1484 -844 
Q 1016 -109 783 600 
Q 550 1309 550 2009 
Q 550 2706 781 3412 
Q 1013 4119 1484 4856 
L 1984 4856 
z
" transform="scale(0.015625)"/>
       <path id="DejaVuSans-25" d="M 4653 2053 
Q 4381 2053 4226 1822 
Q 4072 1591 4072 1178 
Q 4072 772 4226 539 
Q 4381 306 4653 306 
Q 4919 306 5073 539 
Q 5228 772 5228 1178 
Q 5228 1588 5073 1820 
Q 4919 2053 4653 2053 
z
M 4653 2450 
Q 5147 2450 5437 2106 
Q 5728 1763 5728 1178 
Q 5728 594 5436 251 
Q 5144 -91 4653 -91 
Q 4153 -91 3862 251 
Q 3572 594 3572 1178 
Q 3572 1766 3864 2108 
Q 4156 2450 4653 2450 
z
M 1428 4353 
Q 1159 4353 1004 4120 
Q 850 3888 850 3481 
Q 850 3069 1003 2837 
Q 1156 2606 1428 2606 
Q 1700 2606 1854 2837 
Q 2009 3069 2009 3481 
Q 2009 3884 1853 4118 
Q 1697 4353 1428 4353 
z
M 4250 4750 
L 4750 4750 
L 1831 -91 
L 1331 -91 
L 4250 4750 
z
M 1428 4750 
Q 1922 4750 2215 4408 
Q 2509 4066 2509 3481 
Q 2509 2891 2217 2550 
Q 1925 2209 1428 2209 
Q 931 2209 642 2551 
Q 353 2894 353 3481 
Q 353 4063 643 4406 
Q 934 4750 1428 4750 
z
" transform="scale(0.015625)"/>
       <path id="DejaVuSans-29" d="M 513 4856 
L 1013 4856 
Q 1481 4119 1714 3412 
Q 1947 2706 1947 2009 
Q 1947 1309 1714 600 
Q 1481 -109 1013 -844 
L 513 -844 
Q 928 -128 1133 580 
Q 1338 1288 1338 2009 
Q 1338 2731 1133 3434 
Q 928 4138 513 4856 
z
" transform="scale(0.015625)"/>
      </defs>
      <use xlink:href="#DejaVuSans-41"/>
      <use xlink:href="#DejaVuSans-63" transform="translate(66.658203 0)"/>
      <use xlink:href="#DejaVuSans-63" transform="translate(121.638672 0)"/>
      <use xlink:href="#DejaVuSans-75" transform="translate(176.619141 0)"/>
      <use xlink:href="#DejaVuSans-72" transform="translate(239.998047 0)"/>
      <use xlink:href="#DejaVuSans-61" transform="translate(281.111328 0)"/>
      <use xlink:href="#DejaVuSans-63" transform="translate(342.390625 0)"/>
      <use xlink:href="#DejaVuSans-79" transform="translate(397.371094 0)"/>
      <use xlink:href="#DejaVuSans-20" transform="translate(456.550781 0)"/>
      <use xlink:href="#DejaVuSans-28" transform="translate(488.337891 0)"/>
      <use xlink:href="#DejaVuSans-25" transform="translate(527.351562 0)"/>
      <use xlink:href="#DejaVuSans-29" transform="translate(622.371094 0)"/>
     </g>
    </g>
   </g>
   <g id="FillBetweenPolyCollection_1"/>
   <g id="FillBetweenPolyCollection_2"/>
   <g id="line2d_13">
    <path d="M 138.58343 582.396491 
L 139.448163 581.043991 
L 141.17763 574.431765 
L 142.042363 565.264815 
L 142.907096 544.977304 
L 143.77183 533.105351 
L 144.636563 515.372567 
L 145.501296 500.795613 
L 146.36603 471.341149 
L 147.230763 460.521142 
L 148.095496 453.157526 
L 148.96023 432.719743 
L 149.824963 437.829185 
L 150.689696 418.142789 
L 151.55443 414.385842 
L 152.419163 408.374722 
L 153.283896 387.33583 
L 154.14863 385.682765 
L 155.013363 375.914713 
L 155.878096 372.608598 
L 156.74283 368.851652 
L 157.607563 356.228302 
L 158.472296 359.684694 
L 159.33703 376.06499 
L 160.201763 363.441641 
L 161.066496 342.252472 
L 161.93123 330.981618 
L 162.795963 317.306327 
L 164.52543 324.669943 
L 165.390163 315.953831 
L 166.254896 303.330511 
L 167.11963 344.807185 
L 167.984363 289.504943 
L 168.849096 283.042991 
L 169.71383 292.811043 
L 170.578563 285.747982 
L 171.443296 270.419641 
L 173.172763 318.508574 
L 174.037496 268.165482 
L 174.90223 262.605194 
L 175.766963 261.252698 
L 176.631696 277.63298 
L 177.49643 276.280484 
L 178.361163 249.981873 
L 179.225896 273.124661 
L 180.955363 233.902117 
L 181.820096 235.254641 
L 182.684829 247.276853 
L 183.549563 251.033814 
L 184.414296 236.607137 
L 185.279029 249.681289 
L 186.143763 238.410464 
L 187.008496 244.421584 
L 187.873229 254.490191 
L 188.737963 221.429073 
L 189.602696 250.582982 
L 190.467429 221.278796 
L 191.332163 207.603505 
L 192.196896 233.902117 
L 193.061629 228.492134 
L 193.926363 232.098789 
L 194.791096 207.603505 
L 195.655829 202.494049 
L 196.520563 211.360438 
L 197.385296 238.560741 
L 198.250029 218.273222 
L 199.114763 232.850176 
L 199.979496 231.347403 
L 200.844229 209.256556 
L 201.708963 197.384593 
L 202.573696 246.525466 
L 203.438429 204.898486 
L 204.303163 191.674056 
L 205.167896 210.759328 
L 206.032629 218.273222 
L 206.897363 222.330737 
L 207.762096 202.043217 
L 208.626829 195.88182 
L 209.491563 196.332651 
L 210.356296 196.032097 
L 211.221029 191.223224 
L 212.085763 211.510715 
L 212.950496 191.674056 
L 213.815229 214.816844 
L 214.679963 218.122944 
L 215.544696 204.597931 
L 216.409429 197.98573 
L 217.274163 212.262101 
L 218.138896 177.547933 
L 219.003629 223.683233 
L 219.868363 199.037671 
L 220.733096 214.967121 
L 221.597829 207.152674 
L 222.462563 181.004311 
L 223.327296 192.275165 
L 224.192029 198.737117 
L 225.056763 218.273222 
L 225.921496 170.03404 
L 226.786229 193.777938 
L 227.650963 184.460717 
L 228.515696 187.766817 
L 229.380429 206.551564 
L 230.245163 252.085755 
L 231.109896 163.271533 
L 232.839363 202.794604 
L 233.704096 226.989333 
L 234.568829 178.29932 
L 235.433563 186.414322 
L 236.298296 219.625717 
L 237.163029 219.024608 
L 238.027763 191.97461 
L 238.892496 216.770449 
L 239.757229 220.527409 
L 240.621962 178.149042 
L 241.486696 179.050706 
L 242.351429 209.406833 
L 243.216162 232.850176 
L 244.080896 191.072946 
L 244.945629 206.701842 
L 245.810362 196.783483 
L 246.675096 178.900429 
L 247.539829 198.286285 
L 248.404562 173.490418 
L 249.269296 247.42713 
L 250.134029 168.080435 
L 250.998762 186.264044 
L 251.863496 177.547933 
L 252.728229 194.379047 
L 253.592962 216.770449 
L 254.457696 218.874331 
L 255.322429 210.458774 
L 256.187162 221.429073 
L 257.051896 267.864927 
L 257.916629 269.217423 
L 259.646096 179.200983 
L 260.510829 174.241804 
L 261.375562 206.401287 
L 262.240296 168.230713 
L 263.105029 238.10991 
L 263.969762 186.564599 
L 264.834496 211.21016 
L 266.563962 222.330737 
L 267.428696 207.753783 
L 268.293429 205.499623 
L 269.158162 184.31044 
L 270.022896 223.382678 
L 270.887629 244.571862 
L 271.752362 183.709331 
L 272.617096 207.152674 
L 273.481829 186.714876 
L 274.346562 188.969036 
L 275.211296 320.913011 
L 276.076029 238.260187 
L 276.940762 170.184317 
L 277.805496 185.813213 
L 278.670229 207.152674 
L 279.534962 220.978241 
L 281.264429 194.980156 
L 282.129162 269.968809 
L 282.993896 190.622114 
L 283.858629 231.948512 
L 284.723362 242.46798 
L 285.588096 184.610994 
L 286.452829 248.178517 
L 287.317562 198.286285 
L 288.182296 173.34014 
L 289.047029 200.089612 
L 289.911762 230.295462 
L 290.776496 214.967121 
L 291.641229 236.907691 
L 292.505962 237.208246 
L 293.370696 139.527636 
L 294.235429 209.55711 
L 295.100162 209.406833 
L 295.964896 192.575719 
L 296.829629 234.803781 
L 298.559096 196.783483 
L 299.423829 210.759328 
L 300.288562 240.814901 
L 301.153295 223.382678 
L 302.018029 191.824333 
L 302.882762 207.753783 
L 303.747495 200.540444 
L 304.612229 232.399344 
L 305.476962 226.839056 
L 306.341695 216.770449 
L 307.206429 243.519921 
L 308.071162 226.989333 
L 308.935895 233.15073 
L 309.800629 225.186005 
L 310.665362 249.380735 
L 311.530095 228.19158 
L 312.394829 234.202671 
L 313.259562 205.649901 
L 314.124295 183.408776 
L 314.989029 266.211877 
L 315.853762 187.917095 
L 316.718495 216.920726 
L 317.583229 257.195183 
L 318.447962 275.979929 
L 319.312695 193.327106 
L 320.177429 168.681544 
L 321.042162 291.30827 
L 321.906895 203.696267 
L 322.771629 237.358523 
L 323.636362 251.484646 
L 324.501095 236.607137 
L 325.365829 264.107966 
L 326.230562 195.88182 
L 327.095295 234.653503 
L 327.960029 248.929903 
L 328.824762 269.818532 
L 329.689495 174.993219 
L 330.554229 174.392081 
L 331.418962 301.527155 
L 332.283695 260.351034 
L 334.013162 211.059883 
L 334.877895 215.417953 
L 335.742629 275.829652 
L 336.607362 245.924357 
L 337.472095 248.328794 
L 338.336829 208.805724 
L 339.201562 264.107966 
L 340.066295 259.299093 
L 340.931029 234.352949 
L 341.795762 245.473525 
L 342.660495 247.276853 
L 343.525229 234.352949 
L 344.389962 233.000453 
L 345.254695 223.983787 
L 346.119429 322.566061 
L 346.984162 296.868559 
L 347.848895 275.37882 
L 348.713629 315.352722 
L 349.578362 192.124887 
L 350.443095 220.527409 
L 351.307829 222.631292 
L 352.172562 337.143015 
L 353.902029 256.894628 
L 354.766762 290.256329 
L 355.631495 263.657135 
L 356.496229 318.809129 
L 357.360962 222.330737 
L 358.225695 275.228543 
L 359.090428 271.02075 
L 359.955162 218.273222 
L 360.819895 304.081897 
L 361.684628 251.634923 
L 362.549362 230.295462 
L 363.414095 295.365786 
L 364.278828 306.035502 
L 365.143562 272.373246 
L 366.008295 243.219366 
L 366.873028 239.312128 
L 367.737762 284.545764 
L 368.602495 257.946598 
L 369.467228 294.764648 
L 370.331962 240.514346 
L 371.196695 268.766591 
L 372.061428 289.504943 
L 372.926162 314.150504 
L 373.790895 300.475213 
L 374.655628 298.521609 
L 375.520362 270.720196 
L 376.385095 280.788831 
L 377.249828 296.568004 
L 378.114562 291.30827 
L 378.979295 239.612682 
L 379.844028 273.274938 
L 380.708762 317.757188 
L 381.573495 331.582727 
L 382.438228 266.512432 
L 383.302962 260.351034 
L 384.167695 294.614371 
L 385.032428 284.996595 
L 385.897162 273.575493 
L 386.761895 291.30827 
L 387.626628 287.401032 
L 388.491362 296.718281 
L 389.356095 226.087669 
L 390.220828 323.768279 
L 391.085562 248.779626 
L 391.950295 275.829652 
L 392.815028 311.59579 
L 393.679762 304.232174 
L 394.544495 292.811043 
L 395.409228 260.952143 
L 396.273962 302.729401 
L 397.138695 303.781342 
L 398.003428 288.302724 
L 398.868162 309.491879 
L 399.732895 304.983561 
L 400.597628 319.109683 
L 401.462362 277.482702 
L 402.327095 291.608825 
L 403.191828 314.601336 
L 404.056562 291.007716 
L 404.921295 243.970752 
L 405.786028 327.52524 
L 406.650762 280.788831 
L 407.515495 303.93162 
L 408.380228 345.258017 
L 409.244962 266.963264 
L 410.109695 339.697729 
L 410.974428 285.146873 
L 411.839162 306.035502 
L 412.703895 310.694126 
L 413.568628 327.675517 
L 414.433362 291.608825 
L 415.298095 335.640242 
L 416.162828 308.439938 
L 417.027561 260.651589 
L 417.892295 366.898033 
L 418.757028 386.734721 
L 419.621761 264.107966 
L 420.486495 310.093017 
L 421.351228 307.688552 
L 422.215961 326.623576 
L 423.080695 333.686637 
L 423.945428 209.106278 
L 424.810161 327.675517 
L 425.674895 347.061345 
L 426.539628 308.289661 
L 427.404361 306.486334 
L 428.269095 333.686637 
L 429.133828 282.291604 
L 429.998561 312.497454 
L 430.863295 363.141086 
L 431.728028 267.564373 
L 432.592761 318.508574 
L 433.457495 317.60691 
L 434.322228 299.423272 
L 435.186961 357.280258 
L 436.051695 287.401032 
L 436.916428 320.011347 
L 437.781161 323.467725 
L 438.645895 336.241351 
L 439.510628 367.799697 
L 440.375361 337.293292 
L 441.240095 296.568004 
L 442.104828 300.775768 
L 442.969561 290.556884 
L 443.834295 328.877736 
L 444.699028 346.460236 
L 445.563761 270.569918 
L 446.428495 331.282172 
L 447.293228 327.52524 
L 448.157961 332.935251 
L 449.887428 269.517977 
L 450.752161 338.194956 
L 451.616895 364.343319 
L 452.481628 363.141086 
L 453.346361 305.885224 
L 455.075828 243.670198 
L 455.940561 393.948045 
L 456.805295 403.26528 
L 457.670028 411.079728 
L 458.534761 302.278541 
L 459.399495 301.2266 
L 460.264228 273.72577 
L 461.128961 372.157767 
L 461.993695 328.126349 
L 462.858428 349.616087 
L 463.723161 343.755244 
L 464.587895 294.163539 
L 465.452628 347.211622 
L 466.317361 302.128264 
L 467.182095 364.794151 
L 468.046828 355.77747 
L 468.911561 365.545537 
L 469.776295 283.6441 
L 470.641028 313.699672 
L 471.505761 362.840532 
L 472.370495 342.402749 
L 473.235228 349.766365 
L 474.099961 247.877962 
L 474.964694 300.625491 
L 475.829428 310.694126 
L 476.694161 326.924131 
L 477.558894 358.031644 
L 478.423628 327.52524 
L 479.288361 279.586584 
L 480.153094 289.955775 
L 481.017828 335.640242 
L 481.882561 393.948045 
L 482.747294 363.141086 
L 483.612028 314.300781 
L 484.476761 327.52524 
L 485.341494 351.269138 
L 486.206228 348.263592 
L 487.070961 343.003858 
L 487.935694 360.285803 
L 488.800428 318.809129 
L 489.665161 306.937166 
L 490.529894 331.282172 
L 491.394628 387.786662 
L 492.259361 288.753556 
L 493.124094 351.11886 
L 493.988828 362.690254 
L 494.853561 334.137469 
L 495.718294 319.25996 
L 496.583028 325.721912 
L 497.447761 310.543849 
L 498.312494 365.545537 
L 499.177228 325.271081 
L 500.041961 340.148589 
L 500.906694 337.744124 
L 501.771428 306.636611 
L 502.636161 371.105811 
L 503.500894 335.18941 
L 504.365628 365.39526 
L 505.230361 280.488277 
L 506.095094 326.623576 
L 506.959828 286.499368 
L 507.824561 345.708849 
L 508.689294 329.478845 
L 509.554028 342.102194 
L 510.418761 371.256089 
L 512.148228 314.000227 
L 513.012961 318.208019 
L 513.877694 376.515822 
L 514.742428 353.222757 
L 515.607161 317.757188 
L 516.471894 378.920259 
L 517.336628 351.870247 
L 518.201361 287.851893 
L 519.066094 357.430535 
L 519.930828 347.361899 
L 520.795561 345.859126 
L 521.660294 353.373034 
L 522.525028 389.740267 
L 523.389761 385.833043 
L 524.254494 327.224685 
L 525.983961 371.857212 
L 526.848694 352.77191 
L 527.713428 311.445513 
L 528.578161 345.408295 
L 529.442894 336.391629 
L 530.307628 321.814674 
L 531.172361 394.549168 
L 532.037094 373.510262 
L 532.901827 366.146646 
L 533.766561 339.09662 
L 534.631294 316.404663 
L 535.496027 355.476916 
L 536.360761 351.11886 
L 537.225494 337.593847 
L 538.090227 303.631065 
L 538.954961 372.308044 
L 539.819694 337.894402 
L 540.684427 327.675517 
L 541.549161 384.630824 
L 542.413894 355.176361 
L 543.278627 378.920259 
L 544.143361 307.989107 
L 545.008094 369.903593 
L 545.872827 311.746067 
L 546.737561 353.523311 
L 547.602294 348.263592 
L 548.467027 306.336056 
L 549.331761 325.271081 
L 550.196494 363.141086 
L 551.061227 379.972214 
L 551.925961 335.790519 
L 552.790694 310.393572 
L 553.655427 367.198587 
L 554.520161 364.343319 
L 555.384894 379.821937 
L 556.249627 326.473299 
L 557.114361 383.578883 
L 557.979094 280.638554 
L 558.843827 355.326639 
L 559.708561 382.526928 
L 560.573294 358.933308 
L 561.438027 277.182148 
L 562.302761 348.263592 
L 563.167494 275.679375 
L 564.032227 390.792222 
L 564.896961 324.669943 
L 565.761694 313.699672 
L 566.626427 355.026084 
L 567.491161 366.146646 
L 568.355894 340.599421 
L 569.220627 359.233862 
L 570.085361 301.527155 
L 570.950094 342.553026 
L 571.814827 355.627193 
L 572.679561 358.783031 
L 573.544294 398.756947 
L 575.273761 345.408295 
L 576.138494 362.089145 
L 577.003227 381.925819 
L 577.867961 373.359985 
L 578.732694 259.900202 
L 579.597427 367.198587 
L 580.462161 353.673588 
L 581.326894 367.04831 
L 582.191627 370.05387 
L 583.056361 322.265506 
L 583.921094 330.83134 
L 584.785827 337.894402 
L 585.650561 391.693886 
L 586.515294 281.540218 
L 587.380027 386.434152 
L 588.244761 290.707161 
L 589.109494 325.721912 
L 589.974227 382.376651 
L 590.83896 373.209708 
L 591.703694 373.209708 
L 592.568427 322.866615 
L 593.43316 347.211622 
L 594.297894 394.398891 
L 595.162627 370.504702 
L 596.02736 358.632753 
L 596.892094 334.438024 
L 597.756827 342.703303 
L 598.62156 386.584429 
L 599.486294 337.293292 
L 600.351027 365.695814 
L 601.21576 374.71248 
L 602.080494 408.374722 
L 602.945227 301.977986 
L 603.80996 291.458548 
L 604.674694 403.415557 
L 606.40416 320.612456 
L 607.268894 335.339688 
L 608.133627 378.018595 
L 608.99836 364.643873 
L 609.863094 301.2266 
L 610.727827 359.684694 
L 611.59256 386.884998 
L 612.457294 309.341602 
L 613.322027 377.116931 
L 614.18676 364.643873 
L 615.051494 323.016893 
L 615.916227 391.543608 
L 616.78096 388.538048 
L 617.645694 441.1353 
L 618.510427 362.539977 
L 619.37516 344.957463 
L 620.239894 359.083585 
L 621.104627 383.278329 
L 622.834094 336.842461 
L 623.698827 346.911068 
L 624.56356 373.961094 
L 625.428294 391.092777 
L 626.293027 398.155838 
L 627.15776 380.723601 
L 628.022494 342.853581 
L 628.887227 315.803554 
L 629.75196 370.204147 
L 630.616694 364.944428 
L 631.481427 386.283875 
L 632.34616 293.111598 
L 633.210894 317.306327 
L 634.075627 391.243054 
L 634.94036 327.825795 
L 636.669827 405.970285 
L 637.53456 379.070536 
L 638.399294 364.493596 
L 639.264027 343.304413 
L 640.12876 376.515822 
L 640.993494 296.868559 
L 641.858227 363.742195 
L 642.72296 378.018595 
L 643.587694 335.039133 
L 644.452427 386.133597 
L 645.31716 391.543608 
L 646.181894 356.528857 
L 647.046627 345.558572 
L 647.91136 355.326639 
L 648.776093 332.033559 
L 649.640827 383.428606 
L 650.50556 270.720196 
L 651.370293 384.630824 
L 652.235027 345.408295 
L 653.09976 369.452761 
L 653.964493 365.244983 
L 654.829227 409.727232 
L 655.69396 361.488036 
L 656.558693 364.193027 
L 657.423427 412.131669 
L 658.28816 358.031644 
L 659.152893 349.616087 
L 660.017627 367.949974 
L 660.88236 306.937166 
L 661.747093 391.243054 
L 662.611827 338.946343 
L 663.47656 372.458321 
L 664.341293 375.914713 
L 665.206027 295.365786 
L 666.07076 359.985249 
L 666.935493 393.948045 
L 667.800227 343.45469 
L 668.66496 362.539977 
L 669.529693 349.315533 
L 670.394427 397.554714 
L 671.25916 359.834972 
L 672.123893 373.810817 
L 672.988627 361.187482 
L 673.85336 332.784974 
L 674.718093 366.597478 
L 675.582827 407.172504 
L 676.44756 312.798008 
L 677.312293 388.387771 
L 678.177027 425.957236 
L 679.04176 351.719969 
L 679.906493 349.916642 
L 680.771227 396.803328 
L 681.63596 375.463867 
L 682.500693 305.58467 
L 683.365427 397.554714 
L 684.23016 375.614158 
L 685.094893 385.98332 
L 685.959627 355.927748 
L 686.82436 372.758876 
L 687.689093 286.048536 
L 688.553827 354.875807 
L 689.41856 362.840532 
L 690.283293 351.269138 
L 691.148027 375.013035 
L 692.01276 388.688326 
L 692.877493 418.743898 
L 693.742227 357.12998 
L 694.60696 383.879438 
L 695.471693 350.668028 
L 696.336427 325.721912 
L 697.20116 418.894175 
L 698.065893 314.300781 
L 698.930627 370.204147 
L 699.79536 359.38414 
L 700.660093 294.614371 
L 701.524827 444.741969 
L 702.38956 363.742195 
L 703.254293 353.072479 
L 704.119027 318.809129 
L 704.98376 345.408295 
L 705.848493 348.113314 
L 706.713226 366.296924 
L 707.57796 394.849723 
L 708.442693 317.306327 
L 709.307426 400.710552 
L 710.17216 405.218885 
L 711.036893 386.884998 
L 711.901626 289.805497 
L 712.76636 386.434152 
L 713.631093 418.443343 
L 715.36056 334.588301 
L 716.225293 370.654979 
L 717.090026 383.879438 
L 717.95476 371.70692 
L 718.819493 404.467498 
L 719.684226 362.089145 
L 720.54896 274.777711 
L 721.413693 371.70692 
L 722.278426 355.326639 
L 723.14316 357.430535 
L 724.007893 376.816377 
L 724.872626 406.571395 
L 725.73736 345.859126 
L 726.602093 315.953831 
L 727.466826 384.33027 
L 728.33156 340.599421 
L 729.196293 395.901664 
L 730.061026 383.879438 
L 730.92576 387.33583 
L 731.790493 372.758876 
L 732.655226 286.048536 
L 733.51996 376.6661 
L 734.384693 315.352722 
L 735.249426 427.460009 
L 736.978893 325.571635 
L 737.843626 330.079954 
L 738.70836 385.682765 
L 739.573093 342.853581 
L 740.437826 368.551097 
L 741.30256 397.855269 
L 742.167293 355.326639 
L 743.032026 374.71248 
L 743.89676 357.881367 
L 744.761493 375.614158 
L 745.626226 356.078025 
L 746.49096 341.951917 
L 747.355693 373.810817 
L 748.220426 376.365545 
L 749.08516 401.762507 
L 749.949893 353.222757 
L 750.814626 373.961094 
L 751.67936 324.82022 
L 752.544093 373.209708 
L 753.408826 380.423046 
L 754.27356 341.651362 
L 755.138293 396.502773 
L 756.003026 351.870247 
L 756.86776 401.161384 
L 757.732493 366.296924 
L 758.597226 379.67166 
L 759.46196 371.857212 
L 760.326693 297.9205 
L 761.191426 413.484178 
L 762.05616 381.024155 
L 762.920893 435.87558 
L 763.785626 388.538048 
L 764.650359 311.59579 
L 765.515093 339.09662 
L 766.379826 343.755244 
L 767.244559 342.853581 
L 768.109293 398.155838 
L 768.974026 260.651589 
L 769.838759 394.699446 
L 770.703493 391.092777 
L 771.568226 291.608825 
L 772.432959 413.484178 
L 773.297693 421.448903 
L 774.162426 345.10774 
L 775.027159 346.159681 
L 775.891893 386.884998 
L 776.756626 374.411926 
L 777.621359 392.745827 
L 778.486093 340.749699 
L 779.350826 355.476916 
L 780.215559 347.512205 
L 781.080293 354.575252 
L 781.945026 334.888856 
L 782.809759 389.289435 
L 783.674493 388.087216 
L 784.539226 422.651122 
L 785.403959 345.258017 
L 786.268693 374.562203 
L 787.133426 374.111371 
L 787.998159 303.480788 
L 788.862893 392.445272 
L 789.727626 367.348865 
L 790.592359 368.100265 
L 791.457093 367.499142 
L 792.321826 307.23772 
L 793.186559 376.6661 
L 794.051293 388.087216 
L 794.916026 332.033559 
L 795.780759 404.166944 
L 796.645493 362.840532 
L 797.510226 358.783031 
L 798.374959 352.922188 
L 799.239693 392.745827 
L 800.104426 324.068834 
L 800.969159 388.98888 
L 801.833893 372.758876 
L 802.698626 369.753316 
L 803.563359 405.820008 
L 804.428093 315.653277 
L 805.292826 366.747756 
L 806.157559 384.179993 
L 807.022293 352.621633 
L 807.887026 385.081656 
L 808.751759 331.43245 
L 809.616493 331.883281 
L 810.481226 372.007489 
L 811.345959 375.31359 
L 812.210693 384.630824 
L 813.075426 386.133597 
L 813.940159 326.473299 
L 814.804893 414.986951 
L 815.669626 330.981618 
L 816.534359 377.567763 
L 817.399093 372.308044 
L 818.263826 293.261875 
L 819.128559 373.510262 
L 820.858026 334.738578 
L 821.722759 349.315533 
L 822.587492 370.805257 
L 823.452226 375.013035 
L 824.316959 395.751387 
L 825.181692 366.747756 
L 826.046426 360.886927 
L 826.911159 301.527155 
L 827.775892 389.740267 
L 828.640626 357.430535 
L 829.505359 379.821937 
L 830.370092 362.990809 
L 831.234826 360.73665 
L 832.099559 369.753316 
L 832.964292 416.790293 
L 833.829026 362.990809 
L 834.693759 317.005773 
L 835.558492 360.285803 
L 836.423226 391.243054 
L 837.287959 335.790519 
L 838.152692 365.996369 
L 839.017426 380.423046 
L 839.882159 364.04275 
L 840.746892 385.081656 
L 841.611626 316.554941 
L 843.341092 400.25972 
L 844.205826 403.115003 
L 845.070559 302.428847 
L 845.935292 393.64749 
L 846.800026 420.847794 
L 847.664759 367.198587 
L 848.529492 342.402749 
L 849.394226 402.814448 
L 850.258959 380.122491 
L 851.123692 324.219111 
L 851.988426 376.966654 
L 853.717892 362.3897 
L 854.582626 374.261649 
L 857.176826 349.165255 
L 858.041559 345.558572 
L 858.906292 380.723601 
L 859.771026 320.462179 
L 860.635759 383.428606 
L 861.500492 427.159455 
L 862.365226 335.640242 
L 863.229959 344.206076 
L 864.094692 397.554714 
L 864.959426 322.115229 
L 865.824159 384.931379 
L 866.688892 392.144718 
L 867.553626 355.77747 
L 868.418359 364.944428 
L 869.283092 328.126349 
L 870.147826 423.252231 
L 871.012559 380.272769 
L 871.877292 312.798008 
L 872.742026 350.367474 
L 873.606759 348.413869 
L 874.471492 305.885224 
L 875.336226 416.038892 
L 876.200959 408.524999 
L 877.065692 372.909153 
L 877.930426 371.556643 
L 878.795159 369.603038 
L 879.659892 373.209708 
L 880.524625 353.523311 
L 881.389359 408.675277 
L 882.254092 355.176361 
L 883.118825 389.439712 
L 883.983559 317.907465 
L 884.848292 337.293292 
L 885.713025 395.901664 
L 886.577759 398.756947 
L 887.442492 410.779173 
L 888.307225 365.846092 
L 889.171959 380.573323 
L 890.036692 356.979703 
L 890.901425 385.833043 
L 891.766159 343.304413 
L 892.630892 372.458321 
L 893.495625 352.170801 
L 894.360359 393.64749 
L 895.225092 336.091074 
L 896.089825 405.970285 
L 896.954559 398.907224 
L 897.819292 302.879679 
L 898.684025 391.844163 
L 899.548759 361.337759 
L 900.413492 387.636385 
L 901.278225 361.488036 
L 902.142959 346.009404 
L 903.007692 362.990809 
L 903.872425 386.434152 
L 904.737159 322.566061 
L 905.601892 373.510262 
L 906.466625 339.998312 
L 907.331359 374.111371 
L 908.196092 388.688326 
L 909.060825 301.376877 
L 909.925559 398.306115 
L 910.790292 398.907224 
L 911.655025 353.673588 
L 912.519759 283.6441 
L 913.384492 397.554714 
L 914.249225 391.693886 
L 915.113959 339.697729 
L 915.978692 306.486334 
L 916.843425 397.404437 
L 917.708159 377.567763 
L 918.572892 369.603038 
L 919.437625 375.163312 
L 920.302359 404.166944 
L 921.167092 366.146646 
L 922.031825 319.560515 
L 922.896559 392.294995 
L 923.761292 388.387771 
L 924.626025 375.614158 
L 925.490759 368.851652 
L 926.355492 379.67166 
L 927.220225 381.925819 
L 928.084959 329.779399 
L 928.949692 383.879438 
L 929.814425 349.165255 
L 930.679159 376.6661 
L 931.543892 382.827483 
L 932.408625 405.369162 
L 933.273359 460.220587 
L 934.138092 416.489724 
L 935.002825 335.940797 
L 935.867559 327.675517 
L 936.732292 334.137469 
L 937.597025 419.495284 
L 938.461758 349.616087 
L 939.326492 383.578883 
L 940.191225 384.179993 
L 941.055958 358.783031 
L 941.920692 364.643873 
L 942.785425 368.551097 
L 943.650158 347.361899 
L 944.514892 395.901664 
L 945.379625 357.12998 
L 946.244358 380.423046 
L 947.109092 369.452761 
L 947.973825 344.055799 
L 948.838558 378.168872 
L 949.703292 370.805257 
L 950.568025 352.471356 
L 951.432758 390.942499 
L 952.297492 400.710552 
L 953.162225 361.788591 
L 954.026958 387.035275 
L 954.891692 391.243054 
L 955.756425 295.966895 
L 956.621158 396.653051 
L 957.485892 346.610513 
L 958.350625 343.905522 
L 959.215358 405.218885 
L 960.080092 379.070536 
L 960.944825 410.628896 
L 961.809558 334.588301 
L 962.674292 376.515822 
L 963.539025 368.701375 
L 964.403758 366.146646 
L 965.268492 410.178064 
L 966.133225 344.957463 
L 966.997958 367.949974 
L 967.862692 310.694126 
L 968.727425 402.513893 
L 969.592158 383.128052 
L 970.456892 405.970285 
L 971.321625 304.683006 
L 972.186358 385.98332 
L 973.051092 378.31915 
L 973.915825 372.909153 
L 974.780558 379.972214 
L 975.645292 304.983561 
L 976.510025 385.98332 
L 977.374758 295.065231 
L 978.239492 398.907224 
L 979.104225 385.98332 
L 979.968958 351.870247 
L 980.833692 361.488036 
L 981.698425 342.402749 
L 982.563158 335.640242 
L 983.427892 388.387771 
L 984.292625 379.972214 
L 985.157358 314.451059 
L 986.022092 388.387771 
L 986.886825 364.944428 
L 987.751558 334.137469 
L 988.616292 387.636385 
L 989.481025 366.447201 
L 990.345758 412.131669 
L 991.210492 313.549395 
L 992.075225 382.827483 
L 992.939958 367.799697 
L 993.804692 362.840532 
L 994.669425 344.506631 
L 995.534158 304.081897 
L 996.398891 413.784733 
L 998.128358 328.426904 
L 998.993091 359.834972 
L 999.857825 373.510262 
L 1000.722558 389.289435 
L 1001.587291 344.807185 
L 1002.452025 364.193027 
L 1002.452025 364.193027 
" clip-path="url(#pefbe823e14)" style="fill: none; stroke: #4c72b0; stroke-width: 6; stroke-linecap: round"/>
   </g>
   <g id="line2d_14">
    <path d="M 138.58343 581.496307 
L 139.448163 584.651648 
L 140.312896 584.351139 
L 141.17763 576.838423 
L 142.042363 563.315532 
L 142.907096 560.4607 
L 143.77183 532.813903 
L 144.636563 529.207799 
L 147.230763 453.028864 
L 148.095496 461.593354 
L 148.96023 457.686745 
L 149.824963 435.899869 
L 150.689696 409.304849 
L 151.55443 417.418579 
L 152.419163 434.247062 
L 153.283896 402.242888 
L 154.14863 375.497619 
L 155.013363 383.611363 
L 155.878096 367.383889 
L 156.74283 383.01034 
L 157.607563 361.523976 
L 158.472296 400.890607 
L 159.33703 385.86518 
L 160.201763 336.581763 
L 161.066496 334.478195 
L 161.93123 351.15643 
L 162.795963 334.92897 
L 163.660696 309.686216 
L 166.254896 356.114822 
L 167.11963 305.779607 
L 167.984363 311.038512 
L 168.849096 336.431514 
L 169.71383 263.858648 
L 170.578563 318.85173 
L 171.443296 286.697308 
L 172.30803 329.369539 
L 173.172763 277.081048 
L 174.037496 268.516558 
L 174.90223 261.905358 
L 175.766963 279.635362 
L 176.631696 258.599772 
L 177.49643 254.843412 
L 178.361163 289.552147 
L 179.225896 334.177698 
L 180.09063 268.666806 
L 180.955363 224.64228 
L 181.820096 292.557236 
L 182.684829 238.615923 
L 183.549563 238.165177 
L 184.414296 231.103231 
L 185.279029 299.769431 
L 186.143763 250.936774 
L 187.008496 288.199852 
L 187.873229 221.637191 
L 188.737963 269.117553 
L 189.602696 234.859563 
L 190.467429 236.96313 
L 191.332163 246.579419 
L 192.196896 221.637191 
L 193.061629 273.174439 
L 193.926363 271.822143 
L 194.791096 203.155915 
L 195.655829 210.217861 
L 196.520563 220.885919 
L 198.250029 298.116638 
L 199.114763 242.973307 
L 199.979496 282.490201 
L 200.844229 203.005667 
L 201.708963 298.417164 
L 202.573696 278.583592 
L 203.438429 270.169351 
L 204.303163 195.19242 
L 205.167896 252.739844 
L 206.032629 238.165177 
L 207.762096 160.333435 
L 208.626829 200.902099 
L 209.491563 247.781437 
L 210.356296 190.534539 
L 211.221029 182.420823 
L 212.085763 239.216947 
L 212.950496 254.693134 
L 213.815229 251.988572 
L 214.679963 171.30199 
L 215.544696 185.57616 
L 216.409429 225.093054 
L 217.274163 172.954783 
L 218.138896 205.259483 
L 219.003629 265.811967 
L 219.868363 230.652456 
L 220.733096 182.120297 
L 221.597829 281.588681 
L 222.462563 195.042171 
L 223.327296 226.144824 
L 225.056763 184.524362 
L 225.921496 186.627929 
L 226.786229 257.097228 
L 227.650963 299.018159 
L 228.515696 193.239129 
L 229.380429 212.321429 
L 230.245163 200.902099 
L 231.109896 266.863736 
L 231.974629 198.798531 
L 232.839363 346.198022 
L 233.704096 170.099972 
L 234.568829 248.081963 
L 235.433563 261.454583 
L 236.298296 250.335779 
L 238.027763 221.637191 
L 238.892496 186.928455 
L 239.757229 252.589595 
L 240.621962 189.933544 
L 241.486696 174.15683 
L 242.351429 303.075045 
L 243.216162 250.936774 
L 244.080896 171.602516 
L 244.945629 273.925711 
L 245.810362 187.829976 
L 246.675096 261.154086 
L 247.539829 190.985313 
L 248.404562 288.800875 
L 249.269296 208.114294 
L 250.134029 181.369025 
L 250.998762 165.291814 
L 251.863496 233.657545 
L 252.728229 218.181357 
L 253.592962 241.170265 
L 254.457696 220.885919 
L 255.322429 221.036168 
L 256.187162 201.953868 
L 257.051896 250.18553 
L 257.916629 190.234041 
L 259.646096 166.944607 
L 260.510829 204.808708 
L 261.375562 172.954783 
L 262.240296 298.417164 
L 263.105029 166.644109 
L 263.969762 230.952954 
L 265.699229 339.887348 
L 266.563962 224.341782 
L 267.428696 217.730582 
L 268.293429 157.779093 
L 269.158162 323.209114 
L 270.022896 293.158259 
L 270.887629 185.876657 
L 271.752362 297.515643 
L 272.617096 151.919194 
L 273.481829 246.579419 
L 274.346562 446.267415 
L 275.211296 394.579919 
L 276.076029 153.121212 
L 276.940762 243.123556 
L 277.805496 217.580333 
L 278.670229 250.786525 
L 279.534962 233.357019 
L 280.399696 170.700967 
L 281.264429 277.081048 
L 282.129162 221.036168 
L 282.993896 223.59051 
L 283.858629 347.850815 
L 284.723362 180.617753 
L 285.588096 203.907187 
L 286.452829 171.903014 
L 287.317562 158.380116 
L 288.182296 196.694964 
L 289.047029 199.099057 
L 289.911762 143.204426 
L 290.776496 230.051433 
L 291.641229 220.885919 
L 292.505962 182.571072 
L 293.370696 228.098143 
L 294.235429 309.535968 
L 295.100162 206.461501 
L 295.964896 157.178098 
L 296.829629 341.389892 
L 297.694362 287.298331 
L 298.559096 150.116123 
L 299.423829 217.730582 
L 300.288562 264.459671 
L 301.153295 273.474936 
L 302.018029 141.100887 
L 302.882762 173.555807 
L 303.747495 291.20494 
L 304.612229 233.507296 
L 305.476962 243.57433 
L 306.341695 185.425911 
L 307.206429 174.457327 
L 308.071162 295.562324 
L 308.935895 213.974222 
L 309.800629 287.749106 
L 310.665362 238.7662 
L 311.530095 408.553577 
L 312.394829 308.033423 
L 313.259562 248.983484 
L 314.124295 327.566498 
L 314.989029 239.517473 
L 315.853762 190.083792 
L 316.718495 293.759283 
L 317.583229 306.080133 
L 318.447962 193.389378 
L 319.312695 171.602516 
L 320.177429 242.522532 
L 321.042162 155.375028 
L 321.906895 199.700052 
L 322.771629 221.637191 
L 323.636362 249.133732 
L 324.501095 271.671895 
L 325.365829 324.561409 
L 326.230562 303.826317 
L 327.095295 287.298331 
L 327.960029 385.264156 
L 328.824762 222.688961 
L 329.689495 331.322858 
L 330.554229 334.92897 
L 331.418962 339.136076 
L 332.283695 293.308508 
L 333.148429 263.257653 
L 334.013162 194.591425 
L 334.877895 343.944206 
L 335.742629 253.941862 
L 336.607362 108.495661 
L 337.472095 366.78288 
L 338.336829 175.809623 
L 339.201562 222.388463 
L 340.066295 129.381031 
L 340.931029 388.269245 
L 341.795762 313.893351 
L 342.660495 344.094483 
L 343.525229 208.865566 
L 344.389962 238.615923 
L 345.254695 225.694049 
L 346.119429 205.109205 
L 346.984162 358.819399 
L 347.848895 393.227638 
L 348.713629 194.441148 
L 349.578362 306.981654 
L 350.443095 360.922952 
L 351.307829 404.045944 
L 352.172562 231.854474 
L 353.037295 356.114822 
L 353.902029 421.926211 
L 354.766762 336.431514 
L 355.631495 431.993245 
L 356.496229 247.631188 
L 357.360962 116.609406 
L 358.225695 154.623756 
L 359.090428 176.260398 
L 359.955162 280.987657 
L 360.819895 328.31777 
L 361.684628 235.160089 
L 362.549362 160.934459 
L 363.414095 119.313997 
L 364.278828 202.104146 
L 365.143562 161.835979 
L 366.008295 222.087966 
L 366.873028 257.097228 
L 367.737762 79.797102 
L 368.602495 292.557236 
L 369.467228 225.994575 
L 370.331962 226.595598 
L 371.196695 229.901184 
L 372.061428 553.398747 
L 372.926162 461.292842 
L 373.790895 438.604446 
L 374.655628 351.006181 
L 375.520362 186.778178 
L 376.385095 362.575759 
L 377.249828 218.932629 
L 378.114562 359.871169 
L 378.979295 473.012684 
L 379.844028 481.577181 
L 380.708762 284.744018 
L 381.573495 218.632103 
L 382.438228 220.73567 
L 383.302962 454.681657 
L 384.167695 175.509125 
L 385.032428 391.875342 
L 385.897162 134.790184 
L 386.761895 220.435173 
L 387.626628 251.387549 
L 388.491362 174.757853 
L 389.356095 242.67281 
L 390.220828 219.83415 
L 391.085562 483.530486 
L 391.950295 198.347785 
L 392.815028 430.039941 
L 393.679762 490.291928 
L 394.544495 421.475451 
L 395.409228 152.36994 
L 396.273962 188.431 
L 397.138695 198.798531 
L 398.003428 319.152256 
L 398.868162 269.117553 
L 399.732895 273.324688 
L 400.597628 362.876257 
L 401.462362 154.022761 
L 402.327095 338.234555 
L 403.191828 232.455498 
L 404.056562 159.88266 
L 404.921295 461.292842 
L 405.786028 189.33252 
L 406.650762 492.245239 
L 407.515495 520.493052 
L 408.380228 202.554892 
L 409.244962 291.20494 
L 410.109695 450.023775 
L 410.974428 454.381145 
L 411.839162 227.046345 
L 412.703895 517.187452 
L 413.568628 189.33252 
L 414.433362 526.803734 
L 415.298095 351.757439 
L 416.162828 86.859048 
L 417.027561 571.429268 
L 417.892295 368.435673 
L 418.757028 310.587766 
L 419.621761 324.561409 
L 420.486495 219.683901 
L 421.351228 442.511055 
L 422.215961 525.451445 
L 423.080695 396.683486 
L 423.945428 545.134761 
L 424.810161 285.345041 
L 425.674895 324.711658 
L 426.539628 133.888664 
L 427.404361 421.325188 
L 428.269095 492.395488 
L 429.133828 309.23547 
L 429.998561 320.204025 
L 430.863295 265.361192 
L 431.728028 145.007496 
L 432.592761 333.426426 
L 433.457495 484.882774 
L 434.322228 165.291814 
L 435.186961 407.351544 
L 436.051695 484.281758 
L 436.916428 535.969247 
L 437.781161 200.451324 
L 438.645895 477.670565 
L 439.510628 181.068527 
L 440.375361 187.228953 
L 441.240095 231.854474 
L 442.104828 473.313189 
L 442.969561 309.23547 
L 443.834295 467.753779 
L 445.563761 137.945521 
L 446.428495 166.944607 
L 447.293228 506.068634 
L 448.157961 377.150426 
L 449.022695 330.872083 
L 449.887428 230.652456 
L 450.752161 560.911464 
L 451.616895 479.323365 
L 452.481628 129.982054 
L 453.346361 339.286325 
L 454.211095 251.537797 
L 455.075828 509.223978 
L 455.940561 219.83415 
L 456.805295 533.414923 
L 457.670028 264.60992 
L 458.534761 215.476766 
L 459.399495 217.730582 
L 460.264228 536.870772 
L 461.128961 299.168436 
L 461.993695 407.501793 
L 462.858428 330.27106 
L 463.723161 331.022332 
L 464.587895 540.92764 
L 465.452628 347.400069 
L 466.317361 543.932725 
L 467.182095 401.191119 
L 468.046828 436.350629 
L 468.911561 242.823058 
L 469.776295 523.648389 
L 470.641028 311.940033 
L 471.505761 453.930385 
L 472.370495 543.031201 
L 473.235228 332.224379 
L 474.099961 268.817055 
L 474.964694 506.66965 
L 475.829428 546.186541 
L 476.694161 401.491616 
L 477.558894 172.353788 
L 478.423628 212.321429 
L 479.288361 541.678909 
L 480.153094 151.017673 
L 481.017828 531.010854 
L 481.882561 239.367195 
L 482.747294 178.96496 
L 483.612028 252.890093 
L 484.476761 183.021846 
L 485.341494 358.969648 
L 486.206228 452.578089 
L 487.070961 293.458757 
L 487.935694 378.051947 
L 488.800428 527.85551 
L 489.665161 465.950724 
L 490.529894 422.226723 
L 491.394628 245.978395 
L 492.259361 503.364058 
L 493.124094 342.892437 
L 493.988828 218.782352 
L 494.853561 211.119382 
L 495.718294 349.503637 
L 496.583028 383.01034 
L 497.447761 398.636791 
L 498.312494 245.527621 
L 499.177228 219.683901 
L 500.041961 286.997834 
L 500.906694 318.100458 
L 501.771428 545.585521 
L 502.636161 323.359363 
L 503.500894 211.870654 
L 504.365628 385.264156 
L 505.230361 258.900269 
L 506.095094 354.161504 
L 506.959828 269.418079 
L 507.824561 356.866095 
L 508.689294 207.813796 
L 509.554028 292.707484 
L 510.418761 436.200366 
L 511.283494 256.195678 
L 512.148228 387.968733 
L 513.012961 309.385719 
L 513.877694 172.654286 
L 514.742428 566.921637 
L 515.607161 380.606275 
L 516.471894 385.714917 
L 517.336628 264.60992 
L 518.201361 213.823973 
L 519.066094 210.818885 
L 519.930828 298.86791 
L 520.795561 452.728352 
L 521.660294 213.823973 
L 522.525028 417.71909 
L 523.389761 206.912276 
L 524.254494 286.39681 
L 525.119228 164.991316 
L 525.983961 383.911861 
L 526.848694 246.879916 
L 527.713428 417.869339 
L 528.578161 170.099972 
L 529.442894 223.891008 
L 530.307628 466.401498 
L 531.172361 268.065783 
L 532.037094 312.541056 
L 532.901827 283.241473 
L 533.766561 339.436574 
L 534.631294 410.807393 
L 535.496027 296.163347 
L 536.360761 198.047259 
L 537.225494 202.404643 
L 538.090227 536.269755 
L 538.954961 336.581763 
L 539.819694 423.128244 
L 540.684427 559.559176 
L 541.549161 207.363022 
L 542.413894 286.847585 
L 543.278627 419.672395 
L 544.143361 283.541971 
L 545.008094 511.327539 
L 545.872827 460.09081 
L 546.737561 510.876771 
L 547.602294 202.104146 
L 548.467027 550.543914 
L 549.331761 316.748191 
L 550.196494 573.833336 
L 551.061227 231.553977 
L 551.925961 308.934944 
L 552.790694 457.386233 
L 553.655427 193.239129 
L 554.520161 310.437488 
L 555.384894 495.25032 
L 556.249627 261.304334 
L 557.114361 272.27289 
L 557.979094 223.139735 
L 558.843827 447.769959 
L 559.708561 506.819906 
L 560.573294 273.174439 
L 561.438027 383.01034 
L 562.302761 201.052348 
L 563.167494 532.062635 
L 564.032227 440.55775 
L 564.896961 404.045944 
L 565.761694 471.810652 
L 566.626427 510.426011 
L 567.491161 292.256738 
L 568.355894 189.933544 
L 569.220627 187.829976 
L 570.085361 532.813903 
L 570.950094 508.472706 
L 572.679561 366.632617 
L 573.544294 274.526706 
L 574.409027 445.36588 
L 575.273761 198.798531 
L 576.138494 388.419493 
L 577.003227 532.363143 
L 577.867961 222.538712 
L 578.732694 303.676068 
L 579.597427 445.215631 
L 580.462161 221.637191 
L 581.326894 291.956212 
L 582.191627 201.352874 
L 583.056361 480.825909 
L 583.921094 537.021027 
L 584.785827 315.696393 
L 585.650561 150.266401 
L 586.515294 420.123155 
L 587.380027 186.928455 
L 588.244761 522.296101 
L 589.109494 330.27106 
L 589.974227 547.238321 
L 590.83896 457.386233 
L 591.703694 253.340867 
L 592.568427 425.231811 
L 593.43316 564.667823 
L 594.297894 302.62427 
L 595.162627 481.727437 
L 596.02736 159.88266 
L 596.892094 273.925711 
L 597.756827 265.962215 
L 598.62156 385.564668 
L 599.486294 181.669551 
L 600.351027 464.297931 
L 601.21576 368.435673 
L 602.080494 309.986742 
L 602.945227 304.126814 
L 603.80996 495.550832 
L 604.674694 546.036285 
L 605.539427 437.853173 
L 606.40416 546.937813 
L 607.268894 432.894781 
L 608.133627 183.172095 
L 608.99836 296.91462 
L 609.863094 548.440354 
L 610.727827 223.139735 
L 611.59256 544.834249 
L 612.457294 384.062124 
L 613.322027 159.582163 
L 614.18676 322.908616 
L 615.051494 564.517569 
L 615.916227 256.195678 
L 616.78096 433.045029 
L 617.645694 349.804134 
L 618.510427 179.716232 
L 619.37516 528.757038 
L 620.239894 508.32245 
L 621.104627 524.399662 
L 621.96936 258.299246 
L 623.698827 439.205455 
L 624.56356 384.963645 
L 625.428294 445.065383 
L 626.293027 422.527234 
L 627.15776 142.75368 
L 628.022494 400.740358 
L 628.887227 560.00994 
L 629.75196 515.384404 
L 630.616694 333.1259 
L 631.481427 443.562838 
L 632.34616 168.597428 
L 633.210894 410.206369 
L 634.075627 185.726409 
L 634.94036 425.231811 
L 635.805094 307.732926 
L 636.669827 392.476365 
L 637.53456 526.653478 
L 638.399294 398.937302 
L 639.264027 438.454183 
L 640.12876 271.822143 
L 640.993494 546.637302 
L 641.858227 180.76803 
L 642.72296 257.247476 
L 643.587694 562.113498 
L 644.452427 509.97525 
L 646.181894 272.723664 
L 647.046627 218.632103 
L 647.91136 231.854474 
L 648.776093 527.85551 
L 649.640827 233.357019 
L 650.50556 439.355718 
L 651.370293 526.653478 
L 652.235027 391.424582 
L 653.09976 212.621926 
L 653.964493 542.730689 
L 654.829227 203.456413 
L 655.69396 479.774126 
L 656.558693 372.943306 
L 657.423427 430.340453 
L 658.28816 186.477681 
L 659.152893 288.650627 
L 660.017627 204.658459 
L 660.88236 516.135676 
L 661.747093 211.119382 
L 662.611827 411.708914 
L 663.47656 398.035767 
L 664.341293 219.082878 
L 665.206027 209.616838 
L 666.07076 289.552147 
L 666.935493 317.799961 
L 667.800227 268.216032 
L 668.66496 560.911464 
L 669.529693 536.420008 
L 670.394427 455.432929 
L 671.25916 289.552147 
L 672.123893 205.109205 
L 672.988627 228.248391 
L 673.85336 309.535968 
L 674.718093 427.185116 
L 675.582827 283.391722 
L 676.44756 381.808308 
L 677.312293 515.684908 
L 678.177027 228.098143 
L 679.04176 495.701088 
L 679.906493 407.051032 
L 680.771227 541.97942 
L 681.63596 330.120811 
L 682.500693 277.081048 
L 683.365427 184.524362 
L 684.23016 480.825909 
L 685.094893 301.872998 
L 685.959627 446.567927 
L 686.82436 262.806878 
L 687.689093 537.17128 
L 688.553827 203.456413 
L 689.41856 478.872605 
L 690.283293 403.294672 
L 691.148027 248.532709 
L 692.01276 472.261412 
L 692.877493 295.562324 
L 693.742227 206.311252 
L 694.60696 330.872083 
L 695.471693 437.402413 
L 696.336427 421.325188 
L 697.20116 387.36771 
L 698.065893 496.001593 
L 698.930627 538.974332 
L 699.79536 226.745847 
L 700.660093 574.133844 
L 701.524827 522.897117 
L 702.38956 203.155915 
L 703.254293 292.707484 
L 704.119027 526.052462 
L 704.98376 436.651141 
L 705.848493 504.415834 
L 706.713226 529.207799 
L 707.57796 286.246562 
L 708.442693 500.058465 
L 709.307426 546.487049 
L 710.17216 486.685823 
L 711.036893 327.416249 
L 711.901626 474.815733 
L 712.76636 528.757038 
L 713.631093 249.885004 
L 714.495826 494.499048 
L 715.36056 529.959071 
L 716.225293 459.039026 
L 717.090026 253.491116 
L 717.95476 542.730689 
L 718.819493 246.128644 
L 719.684226 256.04543 
L 720.54896 223.289984 
L 721.413693 572.481048 
L 722.278426 499.757953 
L 723.14316 362.726008 
L 724.007893 451.225808 
L 724.872626 302.924796 
L 725.73736 273.775434 
L 726.602093 352.508711 
L 727.466826 300.069957 
L 728.33156 567.672909 
L 729.196293 283.992745 
L 730.061026 523.948901 
L 730.92576 304.277063 
L 731.790493 214.274719 
L 732.655226 546.036285 
L 733.51996 220.73567 
L 734.384693 380.456012 
L 735.249426 355.814311 
L 736.11416 428.236899 
L 736.978893 431.993245 
L 737.843626 447.619696 
L 738.70836 379.70474 
L 739.573093 431.392236 
L 740.437826 213.22295 
L 741.30256 230.051433 
L 742.167293 176.410646 
L 743.032026 210.668636 
L 743.89676 464.598442 
L 744.761493 205.710229 
L 745.626226 407.351544 
L 746.49096 522.446357 
L 747.355693 195.943692 
L 748.220426 509.524483 
L 749.08516 249.283981 
L 749.949893 402.843912 
L 750.814626 195.19242 
L 751.67936 548.440354 
L 752.544093 395.932214 
L 753.408826 388.720005 
L 754.27356 531.010854 
L 755.138293 278.132817 
L 756.003026 322.758368 
L 756.86776 341.69039 
L 757.732493 538.974332 
L 758.597226 463.39641 
L 759.46196 307.432429 
L 760.326693 561.211972 
L 761.191426 385.113908 
L 762.05616 501.861513 
L 762.920893 261.905358 
L 763.785626 290.603917 
L 764.650359 245.978395 
L 765.515093 558.507395 
L 766.379826 308.634447 
L 767.244559 472.561916 
L 768.109293 203.456413 
L 768.974026 522.446357 
L 769.838759 457.536482 
L 770.703493 220.435173 
L 771.568226 567.372399 
L 772.432959 532.212887 
L 773.297693 194.741674 
L 774.162426 479.022854 
L 775.027159 344.54523 
L 775.891893 523.047373 
L 776.756626 503.965074 
L 777.621359 405.097728 
L 778.486093 527.705254 
L 779.350826 430.941476 
L 780.215559 504.56609 
L 781.080293 496.151848 
L 781.945026 330.120811 
L 782.809759 443.412575 
L 783.674493 296.313596 
L 784.539226 476.318277 
L 785.403959 396.683486 
L 786.268693 265.210943 
L 787.133426 209.316341 
L 787.998159 567.071891 
L 788.862893 345.597028 
L 789.727626 430.039941 
L 790.592359 232.906272 
L 791.457093 341.239644 
L 792.321826 199.549803 
L 793.186559 498.55592 
L 794.051293 188.881746 
L 794.916026 565.719603 
L 795.780759 268.216032 
L 796.645493 216.077789 
L 797.510226 504.265585 
L 798.374959 282.039427 
L 799.239693 523.648389 
L 800.104426 369.036682 
L 800.969159 459.790298 
L 801.833893 244.475851 
L 802.698626 543.932725 
L 803.563359 317.799961 
L 804.428093 549.341882 
L 805.292826 546.787557 
L 806.157559 474.364972 
L 807.022293 335.529965 
L 807.887026 532.813903 
L 808.751759 384.512884 
L 809.616493 492.395488 
L 810.481226 413.662218 
L 811.345959 360.622441 
L 812.210693 422.827732 
L 813.075426 211.870654 
L 813.940159 449.422752 
L 814.804893 265.210943 
L 815.669626 435.749606 
L 816.534359 225.093054 
L 817.399093 296.313596 
L 818.263826 222.238215 
L 819.128559 313.893351 
L 819.993293 423.879516 
L 820.858026 235.610835 
L 821.722759 393.678398 
L 822.587492 392.175854 
L 823.452226 276.480025 
L 824.316959 506.21889 
L 825.181692 309.385719 
L 826.046426 267.615008 
L 826.911159 568.874943 
L 827.775892 523.047373 
L 828.640626 375.197122 
L 829.505359 196.394466 
L 830.370092 364.078289 
L 831.234826 221.036168 
L 832.099559 270.019073 
L 832.964292 382.55958 
L 833.829026 270.920623 
L 834.693759 534.466703 
L 835.558492 416.216546 
L 836.423226 553.098239 
L 837.287959 543.331709 
L 838.152692 233.507296 
L 839.017426 555.953071 
L 839.882159 355.063039 
L 840.746892 372.793043 
L 841.611626 545.134761 
L 842.476359 283.091225 
L 843.341092 550.393662 
L 844.205826 241.77126 
L 845.070559 513.88186 
L 845.935292 544.383489 
L 846.800026 351.757439 
L 847.664759 453.179112 
L 848.529492 433.796301 
L 849.394226 256.04543 
L 850.258959 360.321943 
L 851.123692 539.425096 
L 851.988426 206.912276 
L 852.853159 218.181357 
L 853.717892 273.775434 
L 854.582626 544.984505 
L 855.447359 527.85551 
L 856.312092 542.880945 
L 857.176826 424.180027 
L 858.041559 457.536482 
L 858.906292 464.147682 
L 859.771026 505.467618 
L 860.635759 372.642794 
L 861.500492 291.20494 
L 862.365226 543.932725 
L 863.229959 542.430181 
L 864.094692 477.370061 
L 864.959426 226.896096 
L 865.824159 542.430181 
L 866.688892 257.247476 
L 867.553626 495.25032 
L 868.418359 266.713488 
L 869.283092 574.885116 
L 870.147826 257.998749 
L 871.012559 161.084707 
L 871.877292 527.104238 
L 872.742026 248.682986 
L 873.606759 367.383889 
L 874.471492 274.526706 
L 875.336226 553.699255 
L 876.200959 196.394466 
L 877.065692 308.934944 
L 877.930426 249.584507 
L 878.795159 209.767115 
L 879.659892 475.717261 
L 880.524625 426.584092 
L 881.389359 194.591425 
L 882.254092 406.29976 
L 883.118825 256.195678 
L 883.983559 549.041374 
L 884.848292 173.255309 
L 885.713025 502.312274 
L 886.577759 498.405665 
L 887.442492 400.590095 
L 888.307225 506.66965 
L 889.171959 221.937689 
L 890.036692 355.36355 
L 890.901425 191.436088 
L 891.766159 223.139735 
L 892.630892 543.932725 
L 893.495625 286.096313 
L 894.360359 245.527621 
L 895.225092 554.450527 
L 896.089825 256.796702 
L 896.954559 314.0436 
L 897.819292 426.584092 
L 898.684025 167.846156 
L 899.548759 378.352459 
L 900.413492 498.856425 
L 901.278225 490.892951 
L 902.142959 548.740862 
L 903.007692 519.591524 
L 903.872425 392.476365 
L 904.737159 229.750935 
L 905.601892 354.762527 
L 906.466625 546.336793 
L 907.331359 512.830083 
L 908.196092 343.643709 
L 909.060825 321.856818 
L 909.925559 567.672909 
L 910.790292 346.198022 
L 911.655025 462.194377 
L 912.519759 193.539627 
L 913.384492 526.503222 
L 914.249225 217.279807 
L 915.113959 438.153685 
L 915.978692 460.992331 
L 916.843425 492.846256 
L 917.708159 273.174439 
L 919.437625 557.305359 
L 920.302359 203.456413 
L 921.167092 269.418079 
L 922.031825 553.699255 
L 922.896559 484.131502 
L 923.761292 318.701481 
L 924.626025 528.757038 
L 925.490759 404.346456 
L 926.355492 565.719603 
L 927.220225 452.878601 
L 928.084959 534.616955 
L 928.949692 361.073215 
L 929.814425 348.151341 
L 930.679159 417.568842 
L 931.543892 241.77126 
L 932.408625 463.997419 
L 933.273359 570.527742 
L 934.138092 411.708914 
L 935.002825 467.15277 
L 935.867559 261.905358 
L 936.732292 566.470875 
L 937.597025 196.845241 
L 938.461758 471.9609 
L 939.326492 351.60719 
L 940.191225 548.59061 
L 941.055958 543.181453 
L 941.920692 229.300161 
L 942.785425 427.034853 
L 943.650158 545.134761 
L 944.514892 235.460586 
L 945.379625 501.110241 
L 946.244358 194.441148 
L 947.109092 488.939639 
L 947.973825 218.331606 
L 948.838558 212.020903 
L 949.703292 518.389492 
L 950.568025 511.327539 
L 951.432758 452.42784 
L 952.297492 321.105546 
L 953.162225 476.168021 
L 954.026958 441.158759 
L 954.891692 442.811566 
L 955.756425 541.97942 
L 956.621158 196.394466 
L 957.485892 512.830083 
L 958.350625 340.338123 
L 959.215358 241.470763 
L 960.080092 532.663651 
L 960.944825 237.864651 
L 962.674292 280.837408 
L 963.539025 340.187846 
L 964.403758 547.538829 
L 965.268492 240.869739 
L 966.133225 306.230382 
L 966.997958 313.292328 
L 967.862692 389.321028 
L 968.727425 543.782469 
L 969.592158 260.252565 
L 970.456892 361.974736 
L 971.321625 321.255824 
L 972.186358 403.144423 
L 973.051092 232.605746 
L 973.915825 424.180027 
L 974.780558 421.174939 
L 975.645292 233.056521 
L 976.510025 224.64228 
L 977.374758 506.819906 
L 978.239492 533.114415 
L 979.104225 204.508211 
L 979.968958 271.521617 
L 980.833692 206.461501 
L 981.698425 518.539741 
L 982.563158 227.196593 
L 983.427892 306.981654 
L 984.292625 224.191505 
L 985.157358 541.228148 
L 986.022092 526.503222 
L 986.886825 469.857347 
L 987.751558 348.151341 
L 988.616292 500.058465 
L 989.481025 555.051547 
L 990.345758 326.364451 
L 991.210492 558.657648 
L 992.075225 335.980739 
L 992.939958 297.665892 
L 993.804692 445.36588 
L 994.669425 195.793443 
L 995.534158 548.290102 
L 996.398891 396.382975 
L 997.263625 414.864265 
L 998.128358 570.377486 
L 998.993091 530.560087 
L 999.857825 470.308107 
L 1000.722558 538.523568 
L 1001.587291 552.346967 
L 1002.452025 520.943813 
L 1002.452025 520.943813 
" clip-path="url(#pefbe823e14)" style="fill: none; stroke: #dd8452; stroke-width: 6; stroke-linecap: round"/>
   </g>
   <g id="line2d_15"/>
   <g id="line2d_16"/>
   <g id="patch_3">
    <path d="M 95.39 609.894375 
L 95.39 54.554375 
" style="fill: none; stroke: #cccccc; stroke-width: 1.875; stroke-linejoin: miter; stroke-linecap: square"/>
   </g>
   <g id="patch_4">
    <path d="M 1045.645455 609.894375 
L 1045.645455 54.554375 
" style="fill: none; stroke: #cccccc; stroke-width: 1.875; stroke-linejoin: miter; stroke-linecap: square"/>
   </g>
   <g id="patch_5">
    <path d="M 95.39 609.894375 
L 1045.645455 609.894375 
" style="fill: none; stroke: #cccccc; stroke-width: 1.875; stroke-linejoin: miter; stroke-linecap: square"/>
   </g>
   <g id="patch_6">
    <path d="M 95.39 54.554375 
L 1045.645455 54.554375 
" style="fill: none; stroke: #cccccc; stroke-width: 1.875; stroke-linejoin: miter; stroke-linecap: square"/>
   </g>
   <g id="text_15">
    <!-- Training Progress: Accuracy -->
    <g style="fill: #262626" transform="translate(287.26804 34.554375) scale(0.36 -0.36)">
     <defs>
      <path id="DejaVuSans-Bold-54" d="M 31 4666 
L 4331 4666 
L 4331 3756 
L 2784 3756 
L 2784 0 
L 1581 0 
L 1581 3756 
L 31 3756 
L 31 4666 
z
" transform="scale(0.015625)"/>
      <path id="DejaVuSans-Bold-72" d="M 3138 2547 
Q 2991 2616 2845 2648 
Q 2700 2681 2553 2681 
Q 2122 2681 1889 2404 
Q 1656 2128 1656 1613 
L 1656 0 
L 538 0 
L 538 3500 
L 1656 3500 
L 1656 2925 
Q 1872 3269 2151 3426 
Q 2431 3584 2822 3584 
Q 2878 3584 2943 3579 
Q 3009 3575 3134 3559 
L 3138 2547 
z
" transform="scale(0.015625)"/>
      <path id="DejaVuSans-Bold-61" d="M 2106 1575 
Q 1756 1575 1579 1456 
Q 1403 1338 1403 1106 
Q 1403 894 1545 773 
Q 1688 653 1941 653 
Q 2256 653 2472 879 
Q 2688 1106 2688 1447 
L 2688 1575 
L 2106 1575 
z
M 3816 1997 
L 3816 0 
L 2688 0 
L 2688 519 
Q 2463 200 2181 54 
Q 1900 -91 1497 -91 
Q 953 -91 614 226 
Q 275 544 275 1050 
Q 275 1666 698 1953 
Q 1122 2241 2028 2241 
L 2688 2241 
L 2688 2328 
Q 2688 2594 2478 2717 
Q 2269 2841 1825 2841 
Q 1466 2841 1156 2769 
Q 847 2697 581 2553 
L 581 3406 
Q 941 3494 1303 3539 
Q 1666 3584 2028 3584 
Q 2975 3584 3395 3211 
Q 3816 2838 3816 1997 
z
" transform="scale(0.015625)"/>
      <path id="DejaVuSans-Bold-69" d="M 538 3500 
L 1656 3500 
L 1656 0 
L 538 0 
L 538 3500 
z
M 538 4863 
L 1656 4863 
L 1656 3950 
L 538 3950 
L 538 4863 
z
" transform="scale(0.015625)"/>
      <path id="DejaVuSans-Bold-6e" d="M 4056 2131 
L 4056 0 
L 2931 0 
L 2931 347 
L 2931 1631 
Q 2931 2084 2911 2256 
Q 2891 2428 2841 2509 
Q 2775 2619 2662 2680 
Q 2550 2741 2406 2741 
Q 2056 2741 1856 2470 
Q 1656 2200 1656 1722 
L 1656 0 
L 538 0 
L 538 3500 
L 1656 3500 
L 1656 2988 
Q 1909 3294 2193 3439 
Q 2478 3584 2822 3584 
Q 3428 3584 3742 3212 
Q 4056 2841 4056 2131 
z
" transform="scale(0.015625)"/>
      <path id="DejaVuSans-Bold-67" d="M 2919 594 
Q 2688 288 2409 144 
Q 2131 0 1766 0 
Q 1125 0 706 504 
Q 288 1009 288 1791 
Q 288 2575 706 3076 
Q 1125 3578 1766 3578 
Q 2131 3578 2409 3434 
Q 2688 3291 2919 2981 
L 2919 3500 
L 4044 3500 
L 4044 353 
Q 4044 -491 3511 -936 
Q 2978 -1381 1966 -1381 
Q 1638 -1381 1331 -1331 
Q 1025 -1281 716 -1178 
L 716 -306 
Q 1009 -475 1290 -558 
Q 1572 -641 1856 -641 
Q 2406 -641 2662 -400 
Q 2919 -159 2919 353 
L 2919 594 
z
M 2181 2772 
Q 1834 2772 1640 2515 
Q 1447 2259 1447 1791 
Q 1447 1309 1634 1061 
Q 1822 813 2181 813 
Q 2531 813 2725 1069 
Q 2919 1325 2919 1791 
Q 2919 2259 2725 2515 
Q 2531 2772 2181 2772 
z
" transform="scale(0.015625)"/>
      <path id="DejaVuSans-Bold-20" transform="scale(0.015625)"/>
      <path id="DejaVuSans-Bold-50" d="M 588 4666 
L 2584 4666 
Q 3475 4666 3951 4270 
Q 4428 3875 4428 3144 
Q 4428 2409 3951 2014 
Q 3475 1619 2584 1619 
L 1791 1619 
L 1791 0 
L 588 0 
L 588 4666 
z
M 1791 3794 
L 1791 2491 
L 2456 2491 
Q 2806 2491 2997 2661 
Q 3188 2831 3188 3144 
Q 3188 3456 2997 3625 
Q 2806 3794 2456 3794 
L 1791 3794 
z
" transform="scale(0.015625)"/>
      <path id="DejaVuSans-Bold-6f" d="M 2203 2784 
Q 1831 2784 1636 2517 
Q 1441 2250 1441 1747 
Q 1441 1244 1636 976 
Q 1831 709 2203 709 
Q 2569 709 2762 976 
Q 2956 1244 2956 1747 
Q 2956 2250 2762 2517 
Q 2569 2784 2203 2784 
z
M 2203 3584 
Q 3106 3584 3614 3096 
Q 4122 2609 4122 1747 
Q 4122 884 3614 396 
Q 3106 -91 2203 -91 
Q 1297 -91 786 396 
Q 275 884 275 1747 
Q 275 2609 786 3096 
Q 1297 3584 2203 3584 
z
" transform="scale(0.015625)"/>
      <path id="DejaVuSans-Bold-65" d="M 4031 1759 
L 4031 1441 
L 1416 1441 
Q 1456 1047 1700 850 
Q 1944 653 2381 653 
Q 2734 653 3104 758 
Q 3475 863 3866 1075 
L 3866 213 
Q 3469 63 3072 -14 
Q 2675 -91 2278 -91 
Q 1328 -91 801 392 
Q 275 875 275 1747 
Q 275 2603 792 3093 
Q 1309 3584 2216 3584 
Q 3041 3584 3536 3087 
Q 4031 2591 4031 1759 
z
M 2881 2131 
Q 2881 2450 2695 2645 
Q 2509 2841 2209 2841 
Q 1884 2841 1681 2658 
Q 1478 2475 1428 2131 
L 2881 2131 
z
" transform="scale(0.015625)"/>
      <path id="DejaVuSans-Bold-73" d="M 3272 3391 
L 3272 2541 
Q 2913 2691 2578 2766 
Q 2244 2841 1947 2841 
Q 1628 2841 1473 2761 
Q 1319 2681 1319 2516 
Q 1319 2381 1436 2309 
Q 1553 2238 1856 2203 
L 2053 2175 
Q 2913 2066 3209 1816 
Q 3506 1566 3506 1031 
Q 3506 472 3093 190 
Q 2681 -91 1863 -91 
Q 1516 -91 1145 -36 
Q 775 19 384 128 
L 384 978 
Q 719 816 1070 734 
Q 1422 653 1784 653 
Q 2113 653 2278 743 
Q 2444 834 2444 1013 
Q 2444 1163 2330 1236 
Q 2216 1309 1875 1350 
L 1678 1375 
Q 931 1469 631 1722 
Q 331 1975 331 2491 
Q 331 3047 712 3315 
Q 1094 3584 1881 3584 
Q 2191 3584 2531 3537 
Q 2872 3491 3272 3391 
z
" transform="scale(0.015625)"/>
      <path id="DejaVuSans-Bold-3a" d="M 716 3500 
L 1844 3500 
L 1844 2291 
L 716 2291 
L 716 3500 
z
M 716 1209 
L 1844 1209 
L 1844 0 
L 716 0 
L 716 1209 
z
" transform="scale(0.015625)"/>
      <path id="DejaVuSans-Bold-41" d="M 3419 850 
L 1538 850 
L 1241 0 
L 31 0 
L 1759 4666 
L 3194 4666 
L 4922 0 
L 3713 0 
L 3419 850 
z
M 1838 1716 
L 3116 1716 
L 2478 3572 
L 1838 1716 
z
" transform="scale(0.015625)"/>
      <path id="DejaVuSans-Bold-63" d="M 3366 3391 
L 3366 2478 
Q 3138 2634 2908 2709 
Q 2678 2784 2431 2784 
Q 1963 2784 1702 2511 
Q 1441 2238 1441 1747 
Q 1441 1256 1702 982 
Q 1963 709 2431 709 
Q 2694 709 2930 787 
Q 3166 866 3366 1019 
L 3366 103 
Q 3103 6 2833 -42 
Q 2563 -91 2291 -91 
Q 1344 -91 809 395 
Q 275 881 275 1747 
Q 275 2613 809 3098 
Q 1344 3584 2291 3584 
Q 2566 3584 2833 3536 
Q 3100 3488 3366 3391 
z
" transform="scale(0.015625)"/>
      <path id="DejaVuSans-Bold-75" d="M 500 1363 
L 500 3500 
L 1625 3500 
L 1625 3150 
Q 1625 2866 1622 2436 
Q 1619 2006 1619 1863 
Q 1619 1441 1641 1255 
Q 1663 1069 1716 984 
Q 1784 875 1895 815 
Q 2006 756 2150 756 
Q 2500 756 2700 1025 
Q 2900 1294 2900 1772 
L 2900 3500 
L 4019 3500 
L 4019 0 
L 2900 0 
L 2900 506 
Q 2647 200 2364 54 
Q 2081 -91 1741 -91 
Q 1134 -91 817 281 
Q 500 653 500 1363 
z
" transform="scale(0.015625)"/>
      <path id="DejaVuSans-Bold-79" d="M 78 3500 
L 1197 3500 
L 2138 1125 
L 2938 3500 
L 4056 3500 
L 2584 -331 
Q 2363 -916 2067 -1148 
Q 1772 -1381 1288 -1381 
L 641 -1381 
L 641 -647 
L 991 -647 
Q 1275 -647 1404 -556 
Q 1534 -466 1606 -231 
L 1638 -134 
L 78 3500 
z
" transform="scale(0.015625)"/>
     </defs>
     <use xlink:href="#DejaVuSans-Bold-54"/>
     <use xlink:href="#DejaVuSans-Bold-72" transform="translate(57.212891 0)"/>
     <use xlink:href="#DejaVuSans-Bold-61" transform="translate(106.529297 0)"/>
     <use xlink:href="#DejaVuSans-Bold-69" transform="translate(174.009766 0)"/>
     <use xlink:href="#DejaVuSans-Bold-6e" transform="translate(208.287109 0)"/>
     <use xlink:href="#DejaVuSans-Bold-69" transform="translate(279.478516 0)"/>
     <use xlink:href="#DejaVuSans-Bold-6e" transform="translate(313.755859 0)"/>
     <use xlink:href="#DejaVuSans-Bold-67" transform="translate(384.947266 0)"/>
     <use xlink:href="#DejaVuSans-Bold-20" transform="translate(456.529297 0)"/>
     <use xlink:href="#DejaVuSans-Bold-50" transform="translate(491.34375 0)"/>
     <use xlink:href="#DejaVuSans-Bold-72" transform="translate(564.634766 0)"/>
     <use xlink:href="#DejaVuSans-Bold-6f" transform="translate(613.951172 0)"/>
     <use xlink:href="#DejaVuSans-Bold-67" transform="translate(682.652344 0)"/>
     <use xlink:href="#DejaVuSans-Bold-72" transform="translate(754.234375 0)"/>
     <use xlink:href="#DejaVuSans-Bold-65" transform="translate(803.550781 0)"/>
     <use xlink:href="#DejaVuSans-Bold-73" transform="translate(871.373047 0)"/>
     <use xlink:href="#DejaVuSans-Bold-73" transform="translate(930.894531 0)"/>
     <use xlink:href="#DejaVuSans-Bold-3a" transform="translate(990.416016 0)"/>
     <use xlink:href="#DejaVuSans-Bold-20" transform="translate(1030.40625 0)"/>
     <use xlink:href="#DejaVuSans-Bold-41" transform="translate(1065.220703 0)"/>
     <use xlink:href="#DejaVuSans-Bold-63" transform="translate(1142.613281 0)"/>
     <use xlink:href="#DejaVuSans-Bold-63" transform="translate(1201.890625 0)"/>
     <use xlink:href="#DejaVuSans-Bold-75" transform="translate(1261.167969 0)"/>
     <use xlink:href="#DejaVuSans-Bold-72" transform="translate(1332.359375 0)"/>
     <use xlink:href="#DejaVuSans-Bold-61" transform="translate(1381.675781 0)"/>
     <use xlink:href="#DejaVuSans-Bold-63" transform="translate(1449.15625 0)"/>
     <use xlink:href="#DejaVuSans-Bold-79" transform="translate(1508.433594 0)"/>
    </g>
   </g>
   <g id="legend_1">
    <g id="patch_7">
     <path d="M 846.365455 174.094375 
L 1023.245455 174.094375 
Q 1029.645455 174.094375 1029.645455 167.694375 
L 1029.645455 76.954375 
Q 1029.645455 70.554375 1023.245455 70.554375 
L 846.365455 70.554375 
Q 839.965455 70.554375 839.965455 76.954375 
L 839.965455 167.694375 
Q 839.965455 174.094375 846.365455 174.094375 
z
" style="fill: #ffffff; opacity: 0.8; stroke: #cccccc; stroke-width: 1.5; stroke-linejoin: miter"/>
    </g>
    <g id="line2d_17">
     <path d="M 852.765455 96.469375 
L 884.765455 96.469375 
L 916.765455 96.469375 
" style="fill: none; stroke: #4c72b0; stroke-width: 6; stroke-linecap: round"/>
    </g>
    <g id="text_16">
     <!-- train -->
     <g style="fill: #262626" transform="translate(942.365455 107.669375) scale(0.32 -0.32)">
      <defs>
       <path id="DejaVuSans-74" d="M 1172 4494 
L 1172 3500 
L 2356 3500 
L 2356 3053 
L 1172 3053 
L 1172 1153 
Q 1172 725 1289 603 
Q 1406 481 1766 481 
L 2356 481 
L 2356 0 
L 1766 0 
Q 1100 0 847 248 
Q 594 497 594 1153 
L 594 3053 
L 172 3053 
L 172 3500 
L 594 3500 
L 594 4494 
L 1172 4494 
z
" transform="scale(0.015625)"/>
       <path id="DejaVuSans-69" d="M 603 3500 
L 1178 3500 
L 1178 0 
L 603 0 
L 603 3500 
z
M 603 4863 
L 1178 4863 
L 1178 4134 
L 603 4134 
L 603 4863 
z
" transform="scale(0.015625)"/>
       <path id="DejaVuSans-6e" d="M 3513 2113 
L 3513 0 
L 2938 0 
L 2938 2094 
Q 2938 2591 2744 2837 
Q 2550 3084 2163 3084 
Q 1697 3084 1428 2787 
Q 1159 2491 1159 1978 
L 1159 0 
L 581 0 
L 581 3500 
L 1159 3500 
L 1159 2956 
Q 1366 3272 1645 3428 
Q 1925 3584 2291 3584 
Q 2894 3584 3203 3211 
Q 3513 2838 3513 2113 
z
" transform="scale(0.015625)"/>
      </defs>
      <use xlink:href="#DejaVuSans-74"/>
      <use xlink:href="#DejaVuSans-72" transform="translate(39.208984 0)"/>
      <use xlink:href="#DejaVuSans-61" transform="translate(80.322266 0)"/>
      <use xlink:href="#DejaVuSans-69" transform="translate(141.601562 0)"/>
      <use xlink:href="#DejaVuSans-6e" transform="translate(169.384766 0)"/>
     </g>
    </g>
    <g id="line2d_18">
     <path d="M 852.765455 143.439375 
L 884.765455 143.439375 
L 916.765455 143.439375 
" style="fill: none; stroke: #dd8452; stroke-width: 6; stroke-linecap: round"/>
    </g>
    <g id="text_17">
     <!-- val -->
     <g style="fill: #262626" transform="translate(942.365455 154.639375) scale(0.32 -0.32)">
      <defs>
       <path id="DejaVuSans-76" d="M 191 3500 
L 800 3500 
L 1894 563 
L 2988 3500 
L 3597 3500 
L 2284 0 
L 1503 0 
L 191 3500 
z
" transform="scale(0.015625)"/>
       <path id="DejaVuSans-6c" d="M 603 4863 
L 1178 4863 
L 1178 0 
L 603 0 
L 603 4863 
z
" transform="scale(0.015625)"/>
      </defs>
      <use xlink:href="#DejaVuSans-76"/>
      <use xlink:href="#DejaVuSans-61" transform="translate(59.179688 0)"/>
      <use xlink:href="#DejaVuSans-6c" transform="translate(120.458984 0)"/>
     </g>
    </g>
   </g>
  </g>
 </g>
 <defs>
  <clipPath id="pefbe823e14">
   <rect x="95.39" y="54.554375" width="950.255455" height="555.34"/>
  </clipPath>
 </defs>
</svg>
