<?xml version="1.0" encoding="utf-8" standalone="no"?>
<!DOCTYPE svg PUBLIC "-//W3C//DTD SVG 1.1//EN"
  "http://www.w3.org/Graphics/SVG/1.1/DTD/svg11.dtd">
<svg xmlns:xlink="http://www.w3.org/1999/xlink" width="1052.845455pt" height="695.534375pt" viewBox="0 0 1052.845455 695.534375" xmlns="http://www.w3.org/2000/svg" version="1.1">
 <metadata>
  <rdf:RDF xmlns:dc="http://purl.org/dc/elements/1.1/" xmlns:cc="http://creativecommons.org/ns#" xmlns:rdf="http://www.w3.org/1999/02/22-rdf-syntax-ns#">
   <cc:Work>
    <dc:type rdf:resource="http://purl.org/dc/dcmitype/StillImage"/>
    <dc:date>2026-04-10T15:25:04.835784</dc:date>
    <dc:format>image/svg+xml</dc:format>
    <dc:creator>
     <cc:Agent>
      <dc:title>Matplotlib v3.10.8, https://matplotlib.org/</dc:title>
     </cc:Agent>
    </dc:creator>
   </cc:Work>
  </rdf:RDF>
 </metadata>
 <defs>
  <style type="text/css">*{stroke-linejoin: round; stroke-linecap: butt}</style>
 </defs>
 <g id="figure_1">
  <g id="patch_1">
   <path d="M 0 695.534375 
L 1052.845455 695.534375 
L 1052.845455 0 
L 0 0 
z
" style="fill: #ffffff"/>
  </g>
  <g id="axes_1">
   <g id="patch_2">
    <path d="M 105.56 609.894375 
L 1045.645455 609.894375 
L 1045.645455 54.554375 
L 105.56 54.554375 
z
" style="fill: #ffffff"/>
   </g>
   <g id="matplotlib.axis_1">
    <g id="xtick_1">
     <g id="line2d_1">
      <path d="M 147.435678 609.894375 
L 147.435678 54.554375 
" clip-path="url(#p70221ff092)" style="fill: none; stroke: #cccccc; stroke-opacity: 0.3; stroke-width: 1.5; stroke-linecap: round"/>
     </g>
     <g id="text_1">
      <!-- 0 -->
      <g style="fill: #262626" transform="translate(137.255678 646.709375) scale(0.32 -0.32)">
       <defs>
        <path id="DejaVuSans-30" d="M 2034 4250 
Q 1547 4250 1301 3770 
Q 1056 3291 1056 2328 
Q 1056 1369 1301 889 
Q 1547 409 2034 409 
Q 2525 409 2770 889 
Q 3016 1369 3016 2328 
Q 3016 3291 2770 3770 
Q 2525 4250 2034 4250 
z
M 2034 4750 
Q 2819 4750 3233 4129 
Q 3647 3509 3647 2328 
Q 3647 1150 3233 529 
Q 2819 -91 2034 -91 
Q 1250 -91 836 529 
Q 422 1150 422 2328 
Q 422 3509 836 4129 
Q 1250 4750 2034 4750 
z
" transform="scale(0.015625)"/>
       </defs>
       <use xlink:href="#DejaVuSans-30"/>
      </g>
     </g>
    </g>
    <g id="xtick_2">
     <g id="line2d_2">
      <path d="M 318.531402 609.894375 
L 318.531402 54.554375 
" clip-path="url(#p70221ff092)" style="fill: none; stroke: #cccccc; stroke-opacity: 0.3; stroke-width: 1.5; stroke-linecap: round"/>
     </g>
     <g id="text_2">
      <!-- 200 -->
      <g style="fill: #262626" transform="translate(287.991402 646.709375) scale(0.32 -0.32)">
       <defs>
        <path id="DejaVuSans-32" d="M 1228 531 
L 3431 531 
L 3431 0 
L 469 0 
L 469 531 
Q 828 903 1448 1529 
Q 2069 2156 2228 2338 
Q 2531 2678 2651 2914 
Q 2772 3150 2772 3378 
Q 2772 3750 2511 3984 
Q 2250 4219 1831 4219 
Q 1534 4219 1204 4116 
Q 875 4013 500 3803 
L 500 4441 
Q 881 4594 1212 4672 
Q 1544 4750 1819 4750 
Q 2544 4750 2975 4387 
Q 3406 4025 3406 3419 
Q 3406 3131 3298 2873 
Q 3191 2616 2906 2266 
Q 2828 2175 2409 1742 
Q 1991 1309 1228 531 
z
" transform="scale(0.015625)"/>
       </defs>
       <use xlink:href="#DejaVuSans-32"/>
       <use xlink:href="#DejaVuSans-30" transform="translate(63.623047 0)"/>
       <use xlink:href="#DejaVuSans-30" transform="translate(127.246094 0)"/>
      </g>
     </g>
    </g>
    <g id="xtick_3">
     <g id="line2d_3">
      <path d="M 489.627126 609.894375 
L 489.627126 54.554375 
" clip-path="url(#p70221ff092)" style="fill: none; stroke: #cccccc; stroke-opacity: 0.3; stroke-width: 1.5; stroke-linecap: round"/>
     </g>
     <g id="text_3">
      <!-- 400 -->
      <g style="fill: #262626" transform="translate(459.087126 646.709375) scale(0.32 -0.32)">
       <defs>
        <path id="DejaVuSans-34" d="M 2419 4116 
L 825 1625 
L 2419 1625 
L 2419 4116 
z
M 2253 4666 
L 3047 4666 
L 3047 1625 
L 3713 1625 
L 3713 1100 
L 3047 1100 
L 3047 0 
L 2419 0 
L 2419 1100 
L 313 1100 
L 313 1709 
L 2253 4666 
z
" transform="scale(0.015625)"/>
       </defs>
       <use xlink:href="#DejaVuSans-34"/>
       <use xlink:href="#DejaVuSans-30" transform="translate(63.623047 0)"/>
       <use xlink:href="#DejaVuSans-30" transform="translate(127.246094 0)"/>
      </g>
     </g>
    </g>
    <g id="xtick_4">
     <g id="line2d_4">
      <path d="M 660.72285 609.894375 
L 660.72285 54.554375 
" clip-path="url(#p70221ff092)" style="fill: none; stroke: #cccccc; stroke-opacity: 0.3; stroke-width: 1.5; stroke-linecap: round"/>
     </g>
     <g id="text_4">
      <!-- 600 -->
      <g style="fill: #262626" transform="translate(630.18285 646.709375) scale(0.32 -0.32)">
       <defs>
        <path id="DejaVuSans-36" d="M 2113 2584 
Q 1688 2584 1439 2293 
Q 1191 2003 1191 1497 
Q 1191 994 1439 701 
Q 1688 409 2113 409 
Q 2538 409 2786 701 
Q 3034 994 3034 1497 
Q 3034 2003 2786 2293 
Q 2538 2584 2113 2584 
z
M 3366 4563 
L 3366 3988 
Q 3128 4100 2886 4159 
Q 2644 4219 2406 4219 
Q 1781 4219 1451 3797 
Q 1122 3375 1075 2522 
Q 1259 2794 1537 2939 
Q 1816 3084 2150 3084 
Q 2853 3084 3261 2657 
Q 3669 2231 3669 1497 
Q 3669 778 3244 343 
Q 2819 -91 2113 -91 
Q 1303 -91 875 529 
Q 447 1150 447 2328 
Q 447 3434 972 4092 
Q 1497 4750 2381 4750 
Q 2619 4750 2861 4703 
Q 3103 4656 3366 4563 
z
" transform="scale(0.015625)"/>
       </defs>
       <use xlink:href="#DejaVuSans-36"/>
       <use xlink:href="#DejaVuSans-30" transform="translate(63.623047 0)"/>
       <use xlink:href="#DejaVuSans-30" transform="translate(127.246094 0)"/>
      </g>
     </g>
    </g>
    <g id="xtick_5">
     <g id="line2d_5">
      <path d="M 831.818574 609.894375 
L 831.818574 54.554375 
" clip-path="url(#p70221ff092)" style="fill: none; stroke: #cccccc; stroke-opacity: 0.3; stroke-width: 1.5; stroke-linecap: round"/>
     </g>
     <g id="text_5">
      <!-- 800 -->
      <g style="fill: #262626" transform="translate(801.278574 646.709375) scale(0.32 -0.32)">
       <defs>
        <path id="DejaVuSans-38" d="M 2034 2216 
Q 1584 2216 1326 1975 
Q 1069 1734 1069 1313 
Q 1069 891 1326 650 
Q 1584 409 2034 409 
Q 2484 409 2743 651 
Q 3003 894 3003 1313 
Q 3003 1734 2745 1975 
Q 2488 2216 2034 2216 
z
M 1403 2484 
Q 997 2584 770 2862 
Q 544 3141 544 3541 
Q 544 4100 942 4425 
Q 1341 4750 2034 4750 
Q 2731 4750 3128 4425 
Q 3525 4100 3525 3541 
Q 3525 3141 3298 2862 
Q 3072 2584 2669 2484 
Q 3125 2378 3379 2068 
Q 3634 1759 3634 1313 
Q 3634 634 3220 271 
Q 2806 -91 2034 -91 
Q 1263 -91 848 271 
Q 434 634 434 1313 
Q 434 1759 690 2068 
Q 947 2378 1403 2484 
z
M 1172 3481 
Q 1172 3119 1398 2916 
Q 1625 2713 2034 2713 
Q 2441 2713 2670 2916 
Q 2900 3119 2900 3481 
Q 2900 3844 2670 4047 
Q 2441 4250 2034 4250 
Q 1625 4250 1398 4047 
Q 1172 3844 1172 3481 
z
" transform="scale(0.015625)"/>
       </defs>
       <use xlink:href="#DejaVuSans-38"/>
       <use xlink:href="#DejaVuSans-30" transform="translate(63.623047 0)"/>
       <use xlink:href="#DejaVuSans-30" transform="translate(127.246094 0)"/>
      </g>
     </g>
    </g>
    <g id="xtick_6">
     <g id="line2d_6">
      <path d="M 1002.914298 609.894375 
L 1002.914298 54.554375 
" clip-path="url(#p70221ff092)" style="fill: none; stroke: #cccccc; stroke-opacity: 0.3; stroke-width: 1.5; stroke-linecap: round"/>
     </g>
     <g id="text_6">
      <!-- 1000 -->
      <g style="fill: #262626" transform="translate(962.194298 646.709375) scale(0.32 -0.32)">
       <defs>
        <path id="DejaVuSans-31" d="M 794 531 
L 1825 531 
L 1825 4091 
L 703 3866 
L 703 4441 
L 1819 4666 
L 2450 4666 
L 2450 531 
L 3481 531 
L 3481 0 
L 794 0 
L 794 531 
z
" transform="scale(0.015625)"/>
       </defs>
       <use xlink:href="#DejaVuSans-31"/>
       <use xlink:href="#DejaVuSans-30" transform="translate(63.623047 0)"/>
       <use xlink:href="#DejaVuSans-30" transform="translate(127.246094 0)"/>
       <use xlink:href="#DejaVuSans-30" transform="translate(190.869141 0)"/>
      </g>
     </g>
    </g>
    <g id="text_7">
     <!-- Epoch -->
     <g style="fill: #262626" transform="translate(526.607727 681.679375) scale(0.32 -0.32)">
      <defs>
       <path id="DejaVuSans-45" d="M 628 4666 
L 3578 4666 
L 3578 4134 
L 1259 4134 
L 1259 2753 
L 3481 2753 
L 3481 2222 
L 1259 2222 
L 1259 531 
L 3634 531 
L 3634 0 
L 628 0 
L 628 4666 
z
" transform="scale(0.015625)"/>
       <path id="DejaVuSans-70" d="M 1159 525 
L 1159 -1331 
L 581 -1331 
L 581 3500 
L 1159 3500 
L 1159 2969 
Q 1341 3281 1617 3432 
Q 1894 3584 2278 3584 
Q 2916 3584 3314 3078 
Q 3713 2572 3713 1747 
Q 3713 922 3314 415 
Q 2916 -91 2278 -91 
Q 1894 -91 1617 61 
Q 1341 213 1159 525 
z
M 3116 1747 
Q 3116 2381 2855 2742 
Q 2594 3103 2138 3103 
Q 1681 3103 1420 2742 
Q 1159 2381 1159 1747 
Q 1159 1113 1420 752 
Q 1681 391 2138 391 
Q 2594 391 2855 752 
Q 3116 1113 3116 1747 
z
" transform="scale(0.015625)"/>
       <path id="DejaVuSans-6f" d="M 1959 3097 
Q 1497 3097 1228 2736 
Q 959 2375 959 1747 
Q 959 1119 1226 758 
Q 1494 397 1959 397 
Q 2419 397 2687 759 
Q 2956 1122 2956 1747 
Q 2956 2369 2687 2733 
Q 2419 3097 1959 3097 
z
M 1959 3584 
Q 2709 3584 3137 3096 
Q 3566 2609 3566 1747 
Q 3566 888 3137 398 
Q 2709 -91 1959 -91 
Q 1206 -91 779 398 
Q 353 888 353 1747 
Q 353 2609 779 3096 
Q 1206 3584 1959 3584 
z
" transform="scale(0.015625)"/>
       <path id="DejaVuSans-63" d="M 3122 3366 
L 3122 2828 
Q 2878 2963 2633 3030 
Q 2388 3097 2138 3097 
Q 1578 3097 1268 2742 
Q 959 2388 959 1747 
Q 959 1106 1268 751 
Q 1578 397 2138 397 
Q 2388 397 2633 464 
Q 2878 531 3122 666 
L 3122 134 
Q 2881 22 2623 -34 
Q 2366 -91 2075 -91 
Q 1284 -91 818 406 
Q 353 903 353 1747 
Q 353 2603 823 3093 
Q 1294 3584 2113 3584 
Q 2378 3584 2631 3529 
Q 2884 3475 3122 3366 
z
" transform="scale(0.015625)"/>
       <path id="DejaVuSans-68" d="M 3513 2113 
L 3513 0 
L 2938 0 
L 2938 2094 
Q 2938 2591 2744 2837 
Q 2550 3084 2163 3084 
Q 1697 3084 1428 2787 
Q 1159 2491 1159 1978 
L 1159 0 
L 581 0 
L 581 4863 
L 1159 4863 
L 1159 2956 
Q 1366 3272 1645 3428 
Q 1925 3584 2291 3584 
Q 2894 3584 3203 3211 
Q 3513 2838 3513 2113 
z
" transform="scale(0.015625)"/>
      </defs>
      <use xlink:href="#DejaVuSans-45"/>
      <use xlink:href="#DejaVuSans-70" transform="translate(63.183594 0)"/>
      <use xlink:href="#DejaVuSans-6f" transform="translate(126.660156 0)"/>
      <use xlink:href="#DejaVuSans-63" transform="translate(187.841797 0)"/>
      <use xlink:href="#DejaVuSans-68" transform="translate(242.822266 0)"/>
     </g>
    </g>
   </g>
   <g id="matplotlib.axis_2">
    <g id="ytick_1">
     <g id="line2d_7">
      <path d="M 105.56 588.520104 
L 1045.645455 588.520104 
" clip-path="url(#p70221ff092)" style="fill: none; stroke: #cccccc; stroke-opacity: 0.3; stroke-width: 1.5; stroke-linecap: round"/>
     </g>
     <g id="text_8">
      <!-- 1.5 -->
      <g style="fill: #262626" transform="translate(42.17 600.677604) scale(0.32 -0.32)">
       <defs>
        <path id="DejaVuSans-2e" d="M 684 794 
L 1344 794 
L 1344 0 
L 684 0 
L 684 794 
z
" transform="scale(0.015625)"/>
        <path id="DejaVuSans-35" d="M 691 4666 
L 3169 4666 
L 3169 4134 
L 1269 4134 
L 1269 2991 
Q 1406 3038 1543 3061 
Q 1681 3084 1819 3084 
Q 2600 3084 3056 2656 
Q 3513 2228 3513 1497 
Q 3513 744 3044 326 
Q 2575 -91 1722 -91 
Q 1428 -91 1123 -41 
Q 819 9 494 109 
L 494 744 
Q 775 591 1075 516 
Q 1375 441 1709 441 
Q 2250 441 2565 725 
Q 2881 1009 2881 1497 
Q 2881 1984 2565 2268 
Q 2250 2553 1709 2553 
Q 1456 2553 1204 2497 
Q 953 2441 691 2322 
L 691 4666 
z
" transform="scale(0.015625)"/>
       </defs>
       <use xlink:href="#DejaVuSans-31"/>
       <use xlink:href="#DejaVuSans-2e" transform="translate(63.623047 0)"/>
       <use xlink:href="#DejaVuSans-35" transform="translate(95.410156 0)"/>
      </g>
     </g>
    </g>
    <g id="ytick_2">
     <g id="line2d_8">
      <path d="M 105.56 514.901775 
L 1045.645455 514.901775 
" clip-path="url(#p70221ff092)" style="fill: none; stroke: #cccccc; stroke-opacity: 0.3; stroke-width: 1.5; stroke-linecap: round"/>
     </g>
     <g id="text_9">
      <!-- 2.0 -->
      <g style="fill: #262626" transform="translate(42.17 527.059275) scale(0.32 -0.32)">
       <use xlink:href="#DejaVuSans-32"/>
       <use xlink:href="#DejaVuSans-2e" transform="translate(63.623047 0)"/>
       <use xlink:href="#DejaVuSans-30" transform="translate(95.410156 0)"/>
      </g>
     </g>
    </g>
    <g id="ytick_3">
     <g id="line2d_9">
      <path d="M 105.56 441.283446 
L 1045.645455 441.283446 
" clip-path="url(#p70221ff092)" style="fill: none; stroke: #cccccc; stroke-opacity: 0.3; stroke-width: 1.5; stroke-linecap: round"/>
     </g>
     <g id="text_10">
      <!-- 2.5 -->
      <g style="fill: #262626" transform="translate(42.17 453.440946) scale(0.32 -0.32)">
       <use xlink:href="#DejaVuSans-32"/>
       <use xlink:href="#DejaVuSans-2e" transform="translate(63.623047 0)"/>
       <use xlink:href="#DejaVuSans-35" transform="translate(95.410156 0)"/>
      </g>
     </g>
    </g>
    <g id="ytick_4">
     <g id="line2d_10">
      <path d="M 105.56 367.665117 
L 1045.645455 367.665117 
" clip-path="url(#p70221ff092)" style="fill: none; stroke: #cccccc; stroke-opacity: 0.3; stroke-width: 1.5; stroke-linecap: round"/>
     </g>
     <g id="text_11">
      <!-- 3.0 -->
      <g style="fill: #262626" transform="translate(42.17 379.822617) scale(0.32 -0.32)">
       <defs>
        <path id="DejaVuSans-33" d="M 2597 2516 
Q 3050 2419 3304 2112 
Q 3559 1806 3559 1356 
Q 3559 666 3084 287 
Q 2609 -91 1734 -91 
Q 1441 -91 1130 -33 
Q 819 25 488 141 
L 488 750 
Q 750 597 1062 519 
Q 1375 441 1716 441 
Q 2309 441 2620 675 
Q 2931 909 2931 1356 
Q 2931 1769 2642 2001 
Q 2353 2234 1838 2234 
L 1294 2234 
L 1294 2753 
L 1863 2753 
Q 2328 2753 2575 2939 
Q 2822 3125 2822 3475 
Q 2822 3834 2567 4026 
Q 2313 4219 1838 4219 
Q 1578 4219 1281 4162 
Q 984 4106 628 3988 
L 628 4550 
Q 988 4650 1302 4700 
Q 1616 4750 1894 4750 
Q 2613 4750 3031 4423 
Q 3450 4097 3450 3541 
Q 3450 3153 3228 2886 
Q 3006 2619 2597 2516 
z
" transform="scale(0.015625)"/>
       </defs>
       <use xlink:href="#DejaVuSans-33"/>
       <use xlink:href="#DejaVuSans-2e" transform="translate(63.623047 0)"/>
       <use xlink:href="#DejaVuSans-30" transform="translate(95.410156 0)"/>
      </g>
     </g>
    </g>
    <g id="ytick_5">
     <g id="line2d_11">
      <path d="M 105.56 294.046788 
L 1045.645455 294.046788 
" clip-path="url(#p70221ff092)" style="fill: none; stroke: #cccccc; stroke-opacity: 0.3; stroke-width: 1.5; stroke-linecap: round"/>
     </g>
     <g id="text_12">
      <!-- 3.5 -->
      <g style="fill: #262626" transform="translate(42.17 306.204288) scale(0.32 -0.32)">
       <use xlink:href="#DejaVuSans-33"/>
       <use xlink:href="#DejaVuSans-2e" transform="translate(63.623047 0)"/>
       <use xlink:href="#DejaVuSans-35" transform="translate(95.410156 0)"/>
      </g>
     </g>
    </g>
    <g id="ytick_6">
     <g id="line2d_12">
      <path d="M 105.56 220.428459 
L 1045.645455 220.428459 
" clip-path="url(#p70221ff092)" style="fill: none; stroke: #cccccc; stroke-opacity: 0.3; stroke-width: 1.5; stroke-linecap: round"/>
     </g>
     <g id="text_13">
      <!-- 4.0 -->
      <g style="fill: #262626" transform="translate(42.17 232.585959) scale(0.32 -0.32)">
       <use xlink:href="#DejaVuSans-34"/>
       <use xlink:href="#DejaVuSans-2e" transform="translate(63.623047 0)"/>
       <use xlink:href="#DejaVuSans-30" transform="translate(95.410156 0)"/>
      </g>
     </g>
    </g>
    <g id="ytick_7">
     <g id="line2d_13">
      <path d="M 105.56 146.810131 
L 1045.645455 146.810131 
" clip-path="url(#p70221ff092)" style="fill: none; stroke: #cccccc; stroke-opacity: 0.3; stroke-width: 1.5; stroke-linecap: round"/>
     </g>
     <g id="text_14">
      <!-- 4.5 -->
      <g style="fill: #262626" transform="translate(42.17 158.967631) scale(0.32 -0.32)">
       <use xlink:href="#DejaVuSans-34"/>
       <use xlink:href="#DejaVuSans-2e" transform="translate(63.623047 0)"/>
       <use xlink:href="#DejaVuSans-35" transform="translate(95.410156 0)"/>
      </g>
     </g>
    </g>
    <g id="ytick_8">
     <g id="line2d_14">
      <path d="M 105.56 73.191802 
L 1045.645455 73.191802 
" clip-path="url(#p70221ff092)" style="fill: none; stroke: #cccccc; stroke-opacity: 0.3; stroke-width: 1.5; stroke-linecap: round"/>
     </g>
     <g id="text_15">
      <!-- 5.0 -->
      <g style="fill: #262626" transform="translate(42.17 85.349302) scale(0.32 -0.32)">
       <use xlink:href="#DejaVuSans-35"/>
       <use xlink:href="#DejaVuSans-2e" transform="translate(63.623047 0)"/>
       <use xlink:href="#DejaVuSans-30" transform="translate(95.410156 0)"/>
      </g>
     </g>
    </g>
    <g id="text_16">
     <!-- Loss -->
     <g style="fill: #262626" transform="translate(31.515 367.319375) rotate(-90) scale(0.32 -0.32)">
      <defs>
       <path id="DejaVuSans-4c" d="M 628 4666 
L 1259 4666 
L 1259 531 
L 3531 531 
L 3531 0 
L 628 0 
L 628 4666 
z
" transform="scale(0.015625)"/>
       <path id="DejaVuSans-73" d="M 2834 3397 
L 2834 2853 
Q 2591 2978 2328 3040 
Q 2066 3103 1784 3103 
Q 1356 3103 1142 2972 
Q 928 2841 928 2578 
Q 928 2378 1081 2264 
Q 1234 2150 1697 2047 
L 1894 2003 
Q 2506 1872 2764 1633 
Q 3022 1394 3022 966 
Q 3022 478 2636 193 
Q 2250 -91 1575 -91 
Q 1294 -91 989 -36 
Q 684 19 347 128 
L 347 722 
Q 666 556 975 473 
Q 1284 391 1588 391 
Q 1994 391 2212 530 
Q 2431 669 2431 922 
Q 2431 1156 2273 1281 
Q 2116 1406 1581 1522 
L 1381 1569 
Q 847 1681 609 1914 
Q 372 2147 372 2553 
Q 372 3047 722 3315 
Q 1072 3584 1716 3584 
Q 2034 3584 2315 3537 
Q 2597 3491 2834 3397 
z
" transform="scale(0.015625)"/>
      </defs>
      <use xlink:href="#DejaVuSans-4c"/>
      <use xlink:href="#DejaVuSans-6f" transform="translate(53.962891 0)"/>
      <use xlink:href="#DejaVuSans-73" transform="translate(115.144531 0)"/>
      <use xlink:href="#DejaVuSans-73" transform="translate(167.244141 0)"/>
     </g>
    </g>
   </g>
   <g id="FillBetweenPolyCollection_1"/>
   <g id="FillBetweenPolyCollection_2"/>
   <g id="line2d_15">
    <path d="M 148.291157 79.797102 
L 149.146636 108.628753 
L 150.002114 113.525052 
L 150.857593 122.77368 
L 151.713072 147.662806 
L 152.56855 196.609373 
L 153.424029 256.824275 
L 154.279507 305.530696 
L 155.134986 336.273757 
L 156.845943 382.173266 
L 157.701422 396.92314 
L 158.5569 413.620898 
L 159.412379 419.699885 
L 161.123336 438.821886 
L 161.978815 444.645036 
L 162.834294 454.853301 
L 163.689772 459.874992 
L 164.545251 468.177674 
L 166.256208 477.008249 
L 167.967165 488.735743 
L 168.822644 483.201113 
L 169.678123 490.251356 
L 170.533601 498.432368 
L 171.38908 501.479076 
L 172.244558 506.757306 
L 173.100037 509.350506 
L 173.955516 510.579565 
L 174.810994 513.74008 
L 175.666473 519.260756 
L 176.521951 511.686955 
L 177.37743 527.405856 
L 178.232909 528.632774 
L 179.088387 529.413995 
L 179.943866 530.001951 
L 180.799345 536.787458 
L 182.510302 529.362498 
L 183.36578 536.736768 
L 184.221259 542.935705 
L 185.076738 545.720274 
L 185.932216 543.205181 
L 186.787695 545.955225 
L 187.643174 551.833487 
L 188.498652 548.083841 
L 189.354131 547.499693 
L 190.209609 553.078958 
L 191.065088 554.321427 
L 191.920567 551.451767 
L 192.776045 557.261612 
L 193.631524 558.737048 
L 194.487002 559.160297 
L 195.342481 563.210573 
L 196.19796 559.654508 
L 197.053438 559.191364 
L 197.908917 563.893907 
L 198.764396 560.021344 
L 199.619874 564.929877 
L 200.475353 567.2159 
L 201.330831 566.259861 
L 202.18631 568.645947 
L 203.041789 564.471946 
L 203.897267 571.8492 
L 204.752746 572.141634 
L 205.608225 572.561389 
L 206.463703 568.850217 
L 207.319182 568.51206 
L 208.17466 567.787252 
L 209.030139 570.899042 
L 209.885618 573.445272 
L 210.741096 573.164352 
L 211.596575 565.133691 
L 212.452053 573.269735 
L 213.307532 575.109094 
L 214.163011 573.455873 
L 215.018489 570.958086 
L 215.873968 571.191914 
L 216.729447 573.479955 
L 217.584925 570.809667 
L 218.440404 573.569294 
L 219.295882 573.823166 
L 220.151361 576.718365 
L 221.00684 575.649291 
L 221.862318 576.06494 
L 222.717797 574.736395 
L 223.573276 571.024573 
L 224.428754 575.428171 
L 225.284233 575.151886 
L 226.139711 575.379816 
L 226.99519 579.502424 
L 227.850669 574.040846 
L 228.706147 578.251144 
L 229.561626 574.744522 
L 230.417104 574.693533 
L 231.272583 578.830587 
L 232.128062 576.691001 
L 232.98354 578.076326 
L 233.839019 574.028787 
L 234.694498 579.428109 
L 235.549976 580.012801 
L 236.405455 578.312154 
L 237.260933 579.807144 
L 238.116412 579.048109 
L 238.971891 570.811018 
L 239.827369 580.752792 
L 240.682848 579.605682 
L 242.393805 573.245759 
L 243.249284 580.660539 
L 244.104762 579.710082 
L 245.81572 572.898282 
L 246.671198 578.478565 
L 247.526677 573.467335 
L 248.382155 572.775646 
L 249.237634 579.591307 
L 250.093113 583.869619 
L 250.948591 573.49884 
L 251.80407 568.426881 
L 252.659549 577.756125 
L 253.515027 574.802057 
L 255.225984 578.903779 
L 256.081463 577.03079 
L 256.936942 578.670109 
L 257.79242 566.17096 
L 258.647899 579.407345 
L 259.503378 578.482409 
L 260.358856 580.800955 
L 261.214335 578.353454 
L 262.069813 574.41974 
L 262.925292 576.679698 
L 263.780771 577.315202 
L 264.636249 573.89362 
L 265.491728 563.02361 
L 266.347206 562.229032 
L 267.202685 573.892408 
L 268.058164 580.861421 
L 268.913642 581.481357 
L 269.769121 575.480248 
L 270.6246 579.54648 
L 271.480078 568.687721 
L 272.335557 577.639598 
L 273.191035 575.403774 
L 274.046514 572.36479 
L 274.901993 574.310233 
L 275.757471 576.976186 
L 276.61295 577.287084 
L 277.468429 578.044943 
L 278.323907 573.18208 
L 279.179386 569.315221 
L 280.034864 577.265635 
L 280.890343 575.861916 
L 281.745822 576.707237 
L 282.6013 579.011197 
L 283.456779 552.546554 
L 284.312257 568.22828 
L 285.167736 578.651732 
L 286.023215 577.259299 
L 286.878693 574.033421 
L 287.734172 573.068993 
L 288.589651 573.541018 
L 289.445129 574.664748 
L 290.300608 563.502814 
L 291.156086 576.643137 
L 292.011565 571.044074 
L 292.867044 569.462342 
L 293.722522 576.687385 
L 294.578001 568.225893 
L 295.43348 576.870189 
L 296.288958 578.16814 
L 297.144437 576.030187 
L 297.999915 571.380738 
L 298.855394 573.443148 
L 299.710873 566.429641 
L 300.566351 570.039311 
L 301.42183 579.702253 
L 302.277308 575.181707 
L 303.132787 574.460197 
L 303.988266 577.573374 
L 304.843744 567.146253 
L 305.699223 573.947188 
L 306.554702 575.543558 
L 307.41018 575.23775 
L 308.265659 568.769706 
L 309.976616 577.234603 
L 310.832095 574.986335 
L 311.687573 575.597917 
L 312.543052 573.294658 
L 313.398531 571.456001 
L 314.254009 573.688384 
L 315.964966 570.128931 
L 316.820445 571.733919 
L 317.675924 572.564057 
L 318.531402 565.534052 
L 319.386881 571.688688 
L 320.242359 568.736673 
L 321.097838 572.110795 
L 321.953317 573.899429 
L 322.808795 565.940661 
L 323.664274 572.215264 
L 324.519753 571.341931 
L 326.23071 559.460049 
L 327.086188 574.256542 
L 327.941667 579.158669 
L 328.797146 559.83861 
L 329.652624 574.036352 
L 330.508103 568.482011 
L 331.363582 564.904216 
L 332.21906 570.447254 
L 333.074539 561.128839 
L 333.930017 573.903712 
L 334.785496 569.123571 
L 335.640975 568.638347 
L 336.496453 559.508967 
L 337.351932 574.739186 
L 338.20741 578.264255 
L 339.062889 555.986636 
L 339.918368 565.830311 
L 340.773846 569.724621 
L 342.484804 570.994963 
L 343.340282 565.978661 
L 344.195761 565.787555 
L 345.051239 566.560263 
L 345.906718 573.790888 
L 346.762197 567.460346 
L 347.617675 564.397421 
L 348.473154 568.820133 
L 349.328633 564.123645 
L 350.184111 563.690146 
L 351.03959 567.724731 
L 351.895068 569.732116 
L 352.750547 569.478665 
L 353.606026 551.213797 
L 354.461504 557.133552 
L 355.316983 558.889013 
L 356.172461 553.648677 
L 357.02794 572.37432 
L 357.883419 567.04547 
L 358.738897 566.823437 
L 359.594376 539.994731 
L 361.305333 558.13319 
L 362.160812 555.716739 
L 363.01629 557.943295 
L 363.871769 547.98906 
L 364.727248 565.426458 
L 365.582726 559.665864 
L 366.438205 559.25248 
L 367.293684 567.599182 
L 368.149162 550.025616 
L 369.004641 559.853459 
L 369.860119 565.521923 
L 370.715598 551.802122 
L 371.571077 546.039562 
L 372.426555 552.759547 
L 373.282034 560.420458 
L 374.137512 564.475878 
L 374.992991 554.502581 
L 375.84847 558.538325 
L 376.703948 551.427562 
L 377.559427 558.969314 
L 378.414906 561.044537 
L 379.270384 551.018812 
L 380.125863 546.52433 
L 380.981341 548.172373 
L 382.692299 553.915222 
L 383.547777 554.805756 
L 384.403256 547.641759 
L 385.258735 550.349766 
L 386.114213 559.01042 
L 386.969692 554.02185 
L 387.82517 545.86327 
L 388.680649 545.983308 
L 389.536128 557.736112 
L 390.391606 554.887759 
L 391.247085 554.937414 
L 392.102563 550.417481 
L 392.958042 553.607518 
L 393.813521 551.146292 
L 394.668999 551.927162 
L 395.524478 552.334684 
L 396.379957 561.852437 
L 397.235435 542.936004 
L 398.090914 555.993393 
L 398.946392 551.725771 
L 399.801871 546.474184 
L 400.65735 547.624488 
L 401.512828 547.374635 
L 402.368307 556.267766 
L 403.223786 549.782433 
L 404.079264 546.473517 
L 404.934743 550.06416 
L 406.6457 549.251117 
L 407.501179 546.549868 
L 408.356657 553.2351 
L 409.212136 546.330661 
L 410.067614 544.894155 
L 410.923093 549.505796 
L 411.778572 553.196363 
L 412.63405 546.823731 
L 413.489529 548.636798 
L 414.345008 546.083652 
L 415.200486 538.156547 
L 416.055965 554.408239 
L 416.911443 540.693387 
L 417.766922 548.483552 
L 418.622401 546.264315 
L 420.333358 536.739418 
L 421.188837 549.576952 
L 422.044315 538.977085 
L 422.899794 543.88109 
L 423.755272 550.789882 
L 424.610751 527.63777 
L 425.46623 521.817675 
L 426.321708 547.438367 
L 427.177187 543.737251 
L 428.032665 540.795733 
L 428.888144 536.949077 
L 429.743623 541.533144 
L 430.599101 555.847572 
L 431.45458 536.560651 
L 432.310059 534.952785 
L 433.165537 543.778814 
L 434.021016 537.617333 
L 434.876494 535.621147 
L 435.731973 545.301255 
L 436.587452 545.14578 
L 437.44293 536.328439 
L 438.298409 549.167394 
L 439.153888 535.84016 
L 440.009366 538.148228 
L 440.864845 541.665346 
L 441.720323 534.634287 
L 442.575802 547.756075 
L 443.431281 538.19718 
L 444.286759 538.186509 
L 445.142238 532.67603 
L 445.997716 519.77631 
L 446.853195 530.925203 
L 447.708674 544.825053 
L 448.564152 544.355186 
L 449.419631 543.626937 
L 450.27511 535.343668 
L 451.130588 528.562251 
L 451.986067 547.741121 
L 452.841545 533.21119 
L 453.697024 531.718078 
L 454.552503 533.24847 
L 455.407981 540.034082 
L 456.26346 547.76794 
L 457.974417 519.603897 
L 458.829896 529.113295 
L 459.685374 540.454786 
L 460.540853 544.970962 
L 461.396332 547.794602 
L 462.25181 513.844093 
L 463.107289 504.879315 
L 463.962767 505.134205 
L 464.818246 537.839664 
L 465.673725 542.948764 
L 466.529203 543.246428 
L 467.384682 530.60932 
L 468.240161 538.517083 
L 469.095639 532.709906 
L 469.951118 529.143203 
L 470.806596 542.586842 
L 471.662075 529.883669 
L 472.517554 536.89105 
L 473.373032 523.379099 
L 474.228511 532.510656 
L 475.08399 535.478046 
L 475.939468 543.805564 
L 477.650425 521.129234 
L 478.505904 531.976145 
L 479.361383 529.110855 
L 480.216861 542.772823 
L 481.07234 534.411868 
L 481.927818 536.766361 
L 482.783297 532.577037 
L 483.638776 530.616323 
L 484.494254 530.416354 
L 485.349733 539.949464 
L 486.205212 539.472068 
L 487.06069 526.880122 
L 487.916169 507.819482 
L 488.771647 528.062458 
L 489.627126 536.463168 
L 490.482605 533.854962 
L 491.338083 530.006024 
L 492.193562 535.325607 
L 493.049041 533.76915 
L 493.904519 533.2355 
L 494.759998 535.088251 
L 495.615476 538.054219 
L 496.470955 531.232959 
L 497.326434 520.038659 
L 498.181912 536.661488 
L 499.037391 535.878178 
L 499.892869 527.251767 
L 500.748348 532.269421 
L 501.603827 532.377559 
L 502.459305 529.48996 
L 503.314784 535.573388 
L 504.170263 526.682978 
L 505.025741 532.063361 
L 505.88122 533.835426 
L 506.736698 533.186688 
L 507.592177 534.518391 
L 508.447656 523.32123 
L 509.303134 529.442781 
L 510.158613 522.576289 
L 511.014092 544.522948 
L 511.86957 530.591277 
L 512.725049 539.575625 
L 513.580527 525.722358 
L 514.436006 534.437722 
L 515.291485 522.851592 
L 516.146963 514.889243 
L 517.002442 532.168234 
L 517.85792 532.881266 
L 518.713399 537.685768 
L 519.568878 526.996684 
L 520.424356 522.669666 
L 521.279835 533.940387 
L 522.135314 517.755761 
L 523.846271 540.625461 
L 524.701749 525.004237 
L 525.557228 524.78431 
L 526.412707 527.455107 
L 527.268185 532.053549 
L 528.123664 526.568451 
L 528.979143 529.959318 
L 529.834621 528.47607 
L 530.6901 526.468668 
L 531.545578 530.294666 
L 532.401057 529.41059 
L 533.256536 529.395583 
L 534.112014 527.314796 
L 534.967493 529.096199 
L 535.822971 529.382279 
L 536.67845 516.468517 
L 537.533929 521.49112 
L 538.389407 523.989241 
L 539.244886 531.876994 
L 540.100365 535.926376 
L 540.955843 525.413777 
L 541.811322 526.550092 
L 542.6668 528.899793 
L 543.522279 531.681518 
L 544.377758 526.920632 
L 545.233236 528.102968 
L 546.088715 530.771202 
L 546.944194 517.06546 
L 547.799672 528.576029 
L 548.655151 527.824137 
L 549.510629 535.847743 
L 550.366108 516.733183 
L 551.221587 535.068593 
L 552.077065 524.929377 
L 552.932544 526.575753 
L 553.788022 530.902965 
L 554.643501 527.434782 
L 555.49898 520.095966 
L 556.354458 518.670061 
L 557.209937 527.618165 
L 558.065416 528.898564 
L 558.920894 519.926783 
L 559.776373 527.660483 
L 560.631851 528.262147 
L 561.48733 530.700397 
L 562.342809 521.066854 
L 563.198287 534.463032 
L 564.053766 523.612277 
L 564.909245 517.381711 
L 565.764723 520.848402 
L 566.620202 536.488478 
L 567.47568 524.139503 
L 568.331159 534.969231 
L 569.186638 511.255773 
L 570.042116 532.890884 
L 570.897595 525.907303 
L 571.753073 527.220507 
L 573.464031 522.828827 
L 574.319509 523.595269 
L 575.174988 531.026267 
L 576.030467 524.912966 
L 576.885945 521.636047 
L 577.741424 523.450272 
L 578.596902 522.810415 
L 579.452381 526.248303 
L 580.30786 530.910863 
L 581.163338 505.842743 
L 582.018817 510.799246 
L 582.874296 523.042786 
L 583.729774 540.427247 
L 584.585253 520.862725 
L 585.440731 524.60872 
L 587.151689 518.993439 
L 588.007167 526.794187 
L 588.862646 527.852185 
L 589.718124 526.510688 
L 590.573603 520.246124 
L 591.429082 532.217889 
L 592.28456 518.635396 
L 593.140039 527.157513 
L 593.995518 528.468681 
L 594.850996 511.433539 
L 595.706475 518.192876 
L 596.561953 519.785419 
L 597.417432 529.407641 
L 598.272911 520.521672 
L 599.128389 515.79159 
L 599.983868 517.652889 
L 600.839347 522.28949 
L 601.694825 525.418411 
L 602.550304 523.393878 
L 603.405782 511.596527 
L 604.261261 528.55688 
L 605.11674 525.376023 
L 605.972218 528.050698 
L 606.827697 520.944921 
L 607.683175 535.660849 
L 608.538654 534.803857 
L 609.394133 502.917109 
L 610.249611 519.082779 
L 611.10509 526.782971 
L 611.960569 524.852763 
L 612.816047 519.191267 
L 613.671526 519.581325 
L 614.527004 530.417056 
L 615.382483 521.46732 
L 616.237962 510.955844 
L 617.09344 529.165021 
L 617.948919 519.956288 
L 618.804398 518.929848 
L 619.659876 526.193681 
L 620.515355 512.972742 
L 621.370833 509.400423 
L 622.226312 495.588 
L 623.081791 522.427799 
L 623.937269 524.271196 
L 624.792748 520.598532 
L 625.648226 510.522767 
L 626.503705 520.738527 
L 627.359184 522.166907 
L 628.214662 525.398805 
L 629.070141 520.563446 
L 629.92562 521.945804 
L 630.781098 522.801288 
L 631.636577 524.182664 
L 632.492055 518.712783 
L 633.347534 528.083678 
L 634.203013 514.548243 
L 635.058491 515.032642 
L 635.91397 507.947085 
L 636.769449 531.704037 
L 637.624927 519.142982 
L 638.480406 511.933525 
L 639.335884 521.138045 
L 640.191363 517.376217 
L 641.046842 508.307216 
L 641.90232 515.9471 
L 642.757799 517.367705 
L 643.613277 522.553945 
L 644.468756 515.901921 
L 645.324235 527.230389 
L 646.179713 519.174979 
L 647.035192 514.839711 
L 647.890671 520.452394 
L 648.746149 510.898801 
L 649.601628 513.788769 
L 650.457106 519.938701 
L 651.312585 518.999635 
L 652.168064 522.444895 
L 653.023542 521.368081 
L 653.879021 511.088011 
L 654.7345 532.758296 
L 655.589978 511.652763 
L 656.445457 515.872961 
L 657.300935 515.19656 
L 658.156414 514.710142 
L 659.011893 506.821933 
L 659.867371 516.642194 
L 660.72285 523.301221 
L 661.578328 518.735794 
L 662.433807 525.156711 
L 663.289286 514.164872 
L 664.144764 514.491374 
L 665.000243 527.354341 
L 665.855722 515.736845 
L 666.7112 516.911564 
L 667.566679 513.626588 
L 668.422157 518.489048 
L 669.277636 529.67645 
L 670.133115 508.241747 
L 670.988593 502.93417 
L 671.844072 522.28963 
L 672.699551 516.634032 
L 673.555029 521.736058 
L 674.410508 508.900438 
L 675.265986 519.240799 
L 676.121465 517.342605 
L 676.976944 519.075898 
L 677.832422 518.755961 
L 678.687901 515.378539 
L 679.543379 507.8053 
L 680.398858 530.512925 
L 681.254337 513.405328 
L 682.109815 505.120374 
L 682.965294 518.994124 
L 683.820773 519.272709 
L 684.676251 509.86864 
L 685.53173 514.021087 
L 686.387208 527.173643 
L 687.242687 508.153777 
L 688.098166 505.797178 
L 688.953644 515.737424 
L 689.809123 519.138857 
L 690.664602 513.888148 
L 691.52008 528.083906 
L 692.375559 514.596265 
L 693.231037 513.181225 
L 694.086516 515.972779 
L 694.941995 513.312268 
L 695.797473 511.937351 
L 696.652952 501.59355 
L 697.50843 520.210616 
L 698.363909 515.824903 
L 699.219388 516.490334 
L 700.074866 523.829149 
L 700.930345 501.99728 
L 701.785824 527.288346 
L 702.641302 513.031506 
L 704.352259 524.992547 
L 705.207738 487.85502 
L 706.063217 517.140582 
L 706.918695 518.727913 
L 707.774174 526.527608 
L 708.629653 513.329574 
L 709.485131 516.322116 
L 710.34061 512.766577 
L 711.196088 510.300032 
L 712.051567 524.517187 
L 712.907046 501.021215 
L 713.762524 505.055817 
L 714.618003 512.048244 
L 715.473481 528.488444 
L 716.32896 511.782613 
L 717.184439 502.129868 
L 718.039917 511.544854 
L 718.895396 523.406919 
L 719.750875 515.619651 
L 720.606353 512.748288 
L 721.461832 510.929341 
L 722.31731 505.979718 
L 723.172789 519.228337 
L 724.028268 525.206576 
L 724.883746 506.695909 
L 725.739225 519.480103 
L 726.594704 513.641508 
L 727.450182 511.20101 
L 728.305661 504.183203 
L 729.161139 517.827093 
L 730.016618 526.395178 
L 730.872097 512.52457 
L 731.727575 521.604717 
L 732.583054 501.537278 
L 733.438532 510.717594 
L 734.294011 509.278753 
L 735.14949 515.400181 
L 736.004968 528.529428 
L 736.860447 514.694942 
L 737.715926 522.646655 
L 738.571404 495.783354 
L 739.426883 514.151077 
L 740.282361 520.145674 
L 741.13784 516.499935 
L 741.993319 510.628254 
L 742.848797 515.996509 
L 743.704276 512.626266 
L 744.559755 504.302487 
L 745.415233 519.797741 
L 746.270712 515.070572 
L 747.12619 515.824781 
L 747.981669 518.503634 
L 748.837148 511.08278 
L 749.692626 519.580096 
L 750.548105 518.974483 
L 751.403584 508.348955 
L 752.259062 504.766034 
L 753.114541 518.739795 
L 753.970019 517.758219 
L 754.825498 520.262359 
L 755.680977 508.409053 
L 756.536455 514.252632 
L 757.391934 521.279479 
L 758.247412 506.483776 
L 759.102891 515.509073 
L 759.95837 502.129447 
L 760.813848 514.753882 
L 761.669327 513.091885 
L 762.524806 514.686026 
L 763.380284 526.974411 
L 764.235763 500.050169 
L 765.091241 507.68061 
L 765.94672 477.502127 
L 767.657677 524.158951 
L 769.368635 517.760448 
L 771.079592 505.802689 
L 771.93507 528.677374 
L 772.790549 506.798939 
L 773.646028 510.085688 
L 774.501506 526.096496 
L 775.356985 492.10969 
L 776.212463 504.283355 
L 777.067942 518.688017 
L 777.923421 516.983281 
L 778.778899 506.424521 
L 779.634378 509.590968 
L 780.489857 510.285675 
L 781.345335 521.949385 
L 782.200814 515.02499 
L 783.911771 512.39114 
L 784.76725 521.548638 
L 785.622728 512.546264 
L 786.478207 513.089358 
L 787.333686 497.116321 
L 788.189164 520.352067 
L 789.044643 515.119805 
L 789.900121 514.701647 
L 790.7556 521.598223 
L 791.611079 504.871241 
L 792.466557 513.837037 
L 793.322036 511.787176 
L 795.032993 524.807409 
L 795.888472 509.897881 
L 797.599429 516.621482 
L 798.454908 504.020988 
L 799.310386 511.119394 
L 800.165865 512.413782 
L 801.021343 520.702563 
L 801.876822 506.69605 
L 802.732301 524.24299 
L 803.587779 510.56942 
L 804.443258 515.887441 
L 805.298737 509.925227 
L 806.154215 505.219367 
L 807.009694 523.745953 
L 807.865172 513.584709 
L 808.720651 505.304424 
L 809.57613 522.074934 
L 810.431608 510.066872 
L 812.142565 523.140445 
L 812.998044 507.558765 
L 813.853523 512.287969 
L 814.709001 512.086087 
L 815.56448 513.337683 
L 816.419959 522.355748 
L 817.275437 510.178467 
L 818.130916 514.007537 
L 818.986394 511.502764 
L 819.841873 514.625752 
L 820.697352 527.00697 
L 821.55283 508.493934 
L 822.408309 513.158863 
L 823.263788 519.737731 
L 824.119266 513.16104 
L 824.974745 509.835853 
L 825.830223 514.02716 
L 826.685702 503.567269 
L 827.541181 516.333103 
L 828.396659 514.452304 
L 829.252138 519.859348 
L 830.107616 505.250223 
L 830.963095 520.383205 
L 831.818574 511.811223 
L 832.674052 512.268346 
L 833.529531 515.402462 
L 834.38501 511.118727 
L 835.240488 499.362834 
L 836.095967 517.395156 
L 836.951445 523.913206 
L 838.662403 504.490854 
L 839.517881 517.286404 
L 840.37336 513.917355 
L 841.228839 509.611503 
L 842.084317 514.338813 
L 842.939796 512.594041 
L 843.795274 519.133662 
L 844.650753 514.997573 
L 845.506232 502.382862 
L 846.36171 507.415049 
L 847.217189 520.807822 
L 848.072667 503.331301 
L 848.928146 495.695243 
L 849.783625 514.369704 
L 850.639103 523.178199 
L 851.494582 512.420206 
L 852.350061 509.657841 
L 853.205539 520.122277 
L 854.061018 512.805261 
L 854.916496 509.703265 
L 855.771975 513.165042 
L 856.627454 509.378062 
L 857.482932 511.418866 
L 858.338411 515.088738 
L 859.19389 517.240909 
L 860.049368 515.127528 
L 860.904847 509.944956 
L 861.760325 521.295995 
L 863.471283 496.61946 
L 864.326761 517.819563 
L 865.18224 515.123158 
L 866.037718 508.277202 
L 866.893197 523.503595 
L 867.748676 505.310778 
L 868.604154 504.829994 
L 869.459633 515.570839 
L 871.17059 519.147036 
L 872.026069 499.537476 
L 872.881547 512.838821 
L 873.737026 521.777235 
L 874.592505 512.39135 
L 875.447983 509.562884 
L 876.303462 523.272102 
L 877.158941 499.861099 
L 878.014419 506.754006 
L 878.869898 514.919239 
L 879.725376 512.75092 
L 880.580855 513.161637 
L 881.436334 511.401138 
L 882.291812 517.499204 
L 883.147291 509.691891 
L 884.002769 511.857525 
L 884.858248 508.507449 
L 885.713727 521.380262 
L 886.569205 513.646422 
L 887.424684 498.537645 
L 888.280163 509.39586 
L 889.135641 505.485595 
L 889.99112 512.221342 
L 890.846598 512.789008 
L 891.702077 514.524618 
L 892.557556 511.099314 
L 893.413034 514.423483 
L 894.268513 508.533145 
L 895.123992 519.369332 
L 895.97947 508.67486 
L 896.834949 517.104267 
L 897.690427 499.181557 
L 898.545906 502.719895 
L 899.401385 528.004326 
L 900.256863 512.435722 
L 901.112342 507.122458 
L 901.96782 505.10047 
L 902.823299 511.3343 
L 903.678778 515.685295 
L 904.534256 510.855939 
L 905.389735 509.185728 
L 906.245214 522.705805 
L 907.100692 509.289635 
L 907.956171 518.323919 
L 908.811649 508.522333 
L 909.667128 505.204764 
L 910.522607 522.404403 
L 911.378085 505.304705 
L 912.233564 507.602996 
L 913.944521 529.570436 
L 914.8 492.550595 
L 915.655478 508.264459 
L 916.510957 517.15257 
L 917.366436 519.080637 
L 918.221914 500.733152 
L 919.077393 509.403407 
L 919.932871 515.922317 
L 920.78835 517.162996 
L 921.643829 503.170946 
L 922.499307 515.506844 
L 923.354786 515.172725 
L 924.210265 500.6396 
L 925.065743 508.690305 
L 925.921222 508.220088 
L 926.7767 514.240697 
L 927.632179 510.211921 
L 928.487658 507.801824 
L 929.343136 517.533079 
L 930.198615 513.179785 
L 931.054094 513.408804 
L 931.909572 509.366864 
L 932.765051 509.988064 
L 933.620529 499.580654 
L 934.476008 473.122908 
L 935.331487 490.483113 
L 936.186965 517.221918 
L 937.042444 520.007048 
L 937.897922 515.977535 
L 938.753401 497.558736 
L 939.60888 512.717361 
L 940.464358 515.066869 
L 941.319837 511.692887 
L 942.175316 513.239532 
L 943.030794 513.171887 
L 943.886273 509.449569 
L 944.741751 511.79346 
L 945.59723 502.854624 
L 946.452709 511.784579 
L 947.308187 511.580941 
L 949.019145 516.094432 
L 949.874623 505.798722 
L 950.730102 510.850989 
L 951.58558 514.822791 
L 952.441059 508.22423 
L 953.296538 513.093149 
L 954.152016 513.320657 
L 955.007495 514.431663 
L 955.862973 514.850909 
L 956.718452 527.234988 
L 957.573931 505.390744 
L 958.429409 513.066119 
L 959.284888 514.850944 
L 960.140367 504.620493 
L 960.995845 505.531265 
L 961.851324 505.968801 
L 962.706802 518.516604 
L 963.562281 510.326431 
L 964.41776 511.978493 
L 965.273238 510.808583 
L 966.128717 504.113487 
L 966.984196 514.852278 
L 967.839674 512.862621 
L 968.695153 523.171354 
L 969.550631 502.761493 
L 970.40611 501.868238 
L 971.261589 501.306961 
L 972.117067 525.382815 
L 972.972546 510.954124 
L 973.828024 511.284137 
L 974.683503 506.69605 
L 975.538982 509.371568 
L 976.39446 524.598874 
L 977.249939 503.896299 
L 978.105418 520.780704 
L 978.960896 500.344902 
L 979.816375 504.82543 
L 980.671853 512.549424 
L 981.527332 511.944056 
L 982.382811 515.093249 
L 983.238289 519.473486 
L 984.093768 508.110809 
L 984.949247 510.722895 
L 985.804725 519.602545 
L 986.660204 500.347464 
L 987.515682 509.954645 
L 988.371161 523.347505 
L 989.22664 504.001821 
L 990.082118 509.881593 
L 990.937597 494.591083 
L 991.793075 520.457011 
L 992.648554 508.461147 
L 993.504033 509.680799 
L 994.359511 512.780197 
L 995.21499 519.173663 
L 996.070469 516.906298 
L 996.925947 498.659807 
L 997.781426 511.297266 
L 998.636904 519.18809 
L 999.492383 511.957501 
L 1000.347862 511.883782 
L 1001.20334 505.297157 
L 1002.058819 515.565011 
L 1002.914298 513.775921 
L 1002.914298 513.775921 
" clip-path="url(#p70221ff092)" style="fill: none; stroke: #4c72b0; stroke-width: 6; stroke-linecap: round"/>
   </g>
   <g id="line2d_16">
    <path d="M 148.291157 104.469425 
L 149.146636 108.726061 
L 150.002114 111.784317 
L 150.857593 123.95872 
L 151.713072 156.440971 
L 153.424029 277.580752 
L 154.279507 312.675369 
L 156.845943 387.229955 
L 157.701422 399.220097 
L 158.5569 404.764451 
L 160.267858 432.224554 
L 161.123336 433.976136 
L 161.978815 445.041605 
L 162.834294 446.067413 
L 164.545251 465.841295 
L 165.400729 471.58525 
L 166.256208 476.562394 
L 167.111687 483.750631 
L 167.967165 472.858821 
L 168.822644 481.081326 
L 169.678123 487.645274 
L 171.38908 502.923498 
L 172.244558 498.554635 
L 173.100037 507.714591 
L 173.955516 505.077582 
L 174.810994 510.533895 
L 175.666473 505.442909 
L 176.521951 516.406032 
L 177.37743 520.17051 
L 178.232909 521.12532 
L 179.088387 530.395186 
L 179.943866 522.717793 
L 180.799345 529.616773 
L 181.654823 521.669712 
L 182.510302 534.970162 
L 183.36578 539.968034 
L 184.221259 541.985933 
L 185.076738 540.609243 
L 185.932216 543.33568 
L 186.787695 540.963916 
L 187.643174 541.695096 
L 188.498652 534.025128 
L 189.354131 547.281452 
L 190.209609 548.186309 
L 191.065088 543.580653 
L 191.920567 553.242279 
L 192.776045 556.741441 
L 193.631524 550.994274 
L 194.487002 554.064554 
L 195.342481 558.711773 
L 196.19796 557.925568 
L 197.053438 556.74009 
L 197.908917 560.043266 
L 198.764396 562.214534 
L 199.619874 562.330658 
L 200.475353 569.675002 
L 202.18631 557.624235 
L 203.041789 565.593974 
L 203.897267 571.199602 
L 204.752746 563.990408 
L 205.608225 568.941522 
L 206.463703 562.166986 
L 207.319182 556.787726 
L 208.17466 564.61675 
L 209.030139 567.012718 
L 209.885618 571.191949 
L 210.741096 548.45438 
L 211.596575 558.332686 
L 212.452053 569.513875 
L 213.307532 569.532673 
L 214.163011 561.884399 
L 215.018489 563.568915 
L 215.873968 569.240204 
L 216.729447 577.347463 
L 217.584925 566.821752 
L 218.440404 563.298509 
L 219.295882 571.913458 
L 220.151361 576.491909 
L 221.00684 564.14153 
L 221.862318 568.228105 
L 222.717797 563.415598 
L 223.573276 572.152814 
L 224.428754 576.195737 
L 225.284233 577.591874 
L 226.139711 579.94182 
L 227.850669 566.864018 
L 228.706147 569.978598 
L 229.561626 573.840279 
L 230.417104 559.389087 
L 231.272583 574.858908 
L 232.128062 573.46335 
L 232.98354 574.936154 
L 233.839019 574.762074 
L 234.694498 576.112295 
L 235.549976 567.305853 
L 236.405455 560.163006 
L 237.260933 579.002333 
L 238.116412 568.077368 
L 238.971891 573.817725 
L 239.827369 565.283953 
L 240.682848 577.859857 
L 241.538327 536.164416 
L 242.393805 580.350255 
L 243.249284 572.021666 
L 244.104762 576.519202 
L 244.960241 560.196214 
L 245.81572 569.617273 
L 246.671198 567.484673 
L 247.526677 574.995831 
L 248.382155 563.924465 
L 249.237634 579.870191 
L 250.093113 578.475528 
L 250.948591 547.01926 
L 251.80407 576.059569 
L 252.659549 579.504056 
L 253.515027 565.540669 
L 254.370506 571.990933 
L 255.225984 563.938226 
L 256.081463 577.028824 
L 256.936942 549.466954 
L 257.79242 572.249157 
L 258.647899 573.667304 
L 259.503378 584.651648 
L 260.358856 573.284496 
L 261.214335 573.368728 
L 262.069813 566.872899 
L 262.925292 571.567912 
L 263.780771 574.910581 
L 264.636249 563.862752 
L 265.491728 559.198349 
L 266.347206 574.677157 
L 267.202685 579.384071 
L 268.058164 577.814573 
L 268.913642 565.860448 
L 269.769121 572.866706 
L 270.6246 562.410519 
L 271.480078 578.184587 
L 272.335557 568.728687 
L 273.191035 565.149488 
L 274.046514 552.740047 
L 274.901993 576.424615 
L 275.757471 574.253698 
L 276.61295 578.796413 
L 277.468429 555.000197 
L 278.323907 553.59037 
L 279.179386 575.091173 
L 280.034864 559.619737 
L 280.890343 579.492788 
L 281.745822 562.332799 
L 282.6013 520.80547 
L 283.456779 513.369663 
L 284.312257 579.005879 
L 285.167736 564.421344 
L 286.023215 572.628491 
L 286.878693 567.479741 
L 287.734172 564.48497 
L 288.589651 571.87795 
L 289.445129 556.582104 
L 290.300608 571.571423 
L 291.156086 570.104358 
L 292.011565 544.750369 
L 292.867044 579.283814 
L 293.722522 570.722943 
L 294.578001 577.095873 
L 295.43348 573.139218 
L 296.288958 577.703153 
L 297.144437 576.218116 
L 297.999915 580.029194 
L 298.855394 568.801352 
L 299.710873 572.263532 
L 300.566351 569.231604 
L 301.42183 567.174056 
L 302.277308 564.657102 
L 303.132787 569.885169 
L 303.988266 580.446633 
L 304.843744 550.836447 
L 305.699223 557.704501 
L 306.554702 579.036665 
L 307.41018 576.343226 
L 308.265659 564.979602 
L 309.121137 560.611196 
L 309.976616 577.166291 
L 310.832095 582.658041 
L 311.687573 558.878166 
L 312.543052 576.934816 
L 313.398531 570.371956 
L 315.109488 576.592078 
L 315.964966 562.884124 
L 316.820445 575.539433 
L 317.675924 560.947299 
L 318.531402 569.293738 
L 319.386881 536.935527 
L 320.242359 555.521807 
L 321.097838 563.786191 
L 321.953317 551.727789 
L 322.808795 567.947677 
L 323.664274 574.366663 
L 324.519753 561.668264 
L 325.375231 556.012455 
L 326.23071 569.920273 
L 327.086188 577.447877 
L 327.941667 570.290971 
L 328.797146 577.994464 
L 329.652624 578.215548 
L 330.508103 569.550119 
L 331.363582 568.78638 
L 332.21906 551.644136 
L 333.074539 556.408182 
L 333.930017 558.565952 
L 334.785496 563.690901 
L 335.640975 535.819554 
L 336.496453 567.846068 
L 337.351932 559.200772 
L 338.20741 557.556292 
L 339.918368 552.56056 
L 340.773846 565.863397 
L 341.629325 569.999257 
L 342.484804 553.962805 
L 343.340282 568.80316 
L 344.195761 580.134208 
L 345.051239 552.149054 
L 345.906718 574.770271 
L 346.762197 567.311681 
L 347.617675 580.848836 
L 348.473154 538.229581 
L 349.328633 552.051781 
L 350.184111 552.420443 
L 351.03959 575.522531 
L 351.895068 571.678349 
L 352.750547 567.1039 
L 353.606026 572.341972 
L 354.461504 548.441234 
L 355.316983 528.203014 
L 356.172461 568.529665 
L 357.02794 558.650271 
L 357.883419 546.419474 
L 358.738897 544.3353 
L 359.594376 564.792042 
L 360.449855 547.779103 
L 361.305333 526.31716 
L 362.160812 544.803657 
L 363.01629 508.209487 
L 363.871769 563.482805 
L 364.727248 575.602147 
L 365.582726 572.878659 
L 366.438205 571.049409 
L 368.149162 550.257284 
L 369.860119 575.525146 
L 370.715598 572.42143 
L 371.571077 566.810308 
L 372.426555 568.063274 
L 373.282034 564.993819 
L 374.137512 565.275441 
L 374.992991 577.343355 
L 375.84847 555.855839 
L 376.703948 548.572856 
L 377.559427 567.399967 
L 378.414906 566.545098 
L 379.270384 481.586366 
L 380.125863 515.981379 
L 381.83682 541.780399 
L 382.692299 566.124465 
L 383.547777 549.247765 
L 384.403256 565.499702 
L 385.258735 550.081238 
L 386.114213 523.296341 
L 386.969692 501.414309 
L 387.82517 555.17677 
L 388.680649 563.954742 
L 389.536128 563.351253 
L 390.391606 519.950706 
L 391.247085 570.474565 
L 392.102563 529.676134 
L 392.958042 569.29946 
L 393.813521 566.676352 
L 394.668999 561.509875 
L 395.524478 562.097164 
L 396.379957 559.909485 
L 397.235435 560.249502 
L 398.090914 482.953666 
L 398.946392 568.287851 
L 399.801871 515.746077 
L 400.65735 513.663658 
L 401.512828 525.739155 
L 402.368307 570.219903 
L 403.223786 565.603505 
L 404.079264 564.647097 
L 404.934743 551.081192 
L 405.790221 559.966389 
L 407.501179 536.341971 
L 408.356657 569.946917 
L 409.212136 540.656177 
L 410.067614 560.655321 
L 410.923093 568.545146 
L 411.778572 526.964371 
L 412.63405 566.071721 
L 413.489529 506.261954 
L 414.345008 501.054353 
L 415.200486 559.106798 
L 416.055965 550.67188 
L 416.911443 520.38933 
L 417.766922 509.421731 
L 418.622401 561.307237 
L 419.477879 489.165907 
L 420.333358 561.922785 
L 421.188837 510.785064 
L 422.044315 529.078524 
L 422.899794 567.30875 
L 423.755272 478.382113 
L 424.610751 528.400948 
L 425.46623 526.834785 
L 426.321708 544.030334 
L 427.177187 554.267876 
L 428.032665 524.440221 
L 428.888144 503.779754 
L 429.743623 530.162008 
L 430.599101 484.933213 
L 431.45458 541.892679 
L 432.310059 543.980065 
L 433.165537 562.49182 
L 434.021016 520.181146 
L 434.876494 504.576824 
L 435.731973 536.64548 
L 436.587452 547.527074 
L 437.44293 551.709886 
L 438.298409 565.722367 
L 439.153888 544.051414 
L 440.009366 489.718338 
L 440.864845 565.879966 
L 441.720323 522.46264 
L 442.575802 501.31679 
L 443.431281 499.318954 
L 444.286759 554.793224 
L 445.142238 467.805326 
L 445.997716 557.790505 
L 446.853195 556.051052 
L 447.708674 549.942016 
L 448.564152 518.30477 
L 449.419631 547.931244 
L 450.27511 507.418243 
L 451.130588 547.469012 
L 451.986067 562.643416 
L 452.841545 560.307529 
L 453.697024 482.515954 
L 454.552503 519.191811 
L 455.407981 533.745174 
L 456.26346 551.404938 
L 457.118939 466.420826 
L 457.974417 467.186865 
L 458.829896 558.365859 
L 459.685374 536.83971 
L 460.540853 552.951829 
L 461.396332 499.348301 
L 462.25181 553.597829 
L 463.107289 480.234232 
L 463.962767 544.096417 
L 464.818246 545.042136 
L 465.673725 552.986196 
L 466.529203 487.609433 
L 467.384682 542.587246 
L 468.240161 535.174449 
L 469.095639 533.953358 
L 469.951118 536.874937 
L 470.806596 480.742222 
L 471.662075 535.046741 
L 472.517554 495.415675 
L 473.373032 516.950617 
L 474.228511 526.899341 
L 475.08399 547.349413 
L 475.939468 485.543144 
L 476.794947 540.338995 
L 477.650425 523.553653 
L 478.505904 476.852563 
L 479.361383 530.902701 
L 480.216861 546.113263 
L 481.07234 491.54915 
L 481.927818 473.203121 
L 482.783297 525.785071 
L 483.638776 558.771713 
L 484.494254 552.370226 
L 485.349733 491.948668 
L 486.205212 557.361939 
L 487.06069 438.263979 
L 487.916169 549.785926 
L 488.771647 556.635217 
L 489.627126 551.547302 
L 490.482605 554.790539 
L 491.338083 533.272043 
L 492.193562 498.581736 
L 493.049041 549.400221 
L 493.904519 522.690588 
L 494.759998 490.387033 
L 495.615476 506.26557 
L 497.326434 547.968752 
L 498.181912 505.772043 
L 499.037391 539.072217 
L 499.892869 554.363447 
L 500.748348 547.648657 
L 501.603827 531.22736 
L 502.459305 534.059477 
L 503.314784 525.500361 
L 504.170263 544.468958 
L 505.025741 552.951039 
L 505.88122 540.929093 
L 506.736698 534.675534 
L 507.592177 482.018005 
L 508.447656 534.046401 
L 509.303134 553.362089 
L 510.158613 533.794828 
L 511.014092 548.887124 
L 511.86957 524.382335 
L 512.725049 546.22907 
L 513.580527 528.86611 
L 514.436006 548.437355 
L 515.291485 544.555735 
L 516.146963 514.864565 
L 517.002442 546.915072 
L 517.85792 523.943097 
L 519.568878 555.233621 
L 520.424356 458.759318 
L 521.279835 524.060203 
L 522.135314 532.318514 
L 522.990792 549.23934 
L 523.846271 549.543375 
L 524.701749 550.429224 
L 525.557228 542.647467 
L 526.412707 510.1573 
L 527.268185 545.931793 
L 528.123664 521.534667 
L 528.979143 552.024909 
L 529.834621 540.586724 
L 530.6901 554.012723 
L 531.545578 532.976046 
L 532.401057 547.266041 
L 533.256536 512.715957 
L 534.112014 555.165326 
L 534.967493 546.554133 
L 535.822971 516.433097 
L 536.67845 547.282277 
L 537.533929 537.593462 
L 538.389407 536.944355 
L 539.244886 538.135204 
L 540.100365 527.403732 
L 540.955843 541.464305 
L 541.811322 551.629761 
L 542.6668 548.860235 
L 543.522279 484.995452 
L 544.377758 536.46638 
L 545.233236 512.554865 
L 546.088715 459.269097 
L 546.944194 552.130853 
L 547.799672 543.272036 
L 548.655151 518.085703 
L 549.510629 541.371719 
L 550.366108 498.810824 
L 551.221587 515.680064 
L 552.077065 500.830635 
L 552.932544 549.203306 
L 553.788022 462.289687 
L 554.643501 532.652177 
L 555.49898 454.10327 
L 556.354458 546.316234 
L 557.209937 533.47956 
L 558.065416 484.640726 
L 558.920894 547.952938 
L 559.776373 533.173769 
L 560.631851 493.755117 
L 561.48733 547.240854 
L 562.342809 543.209218 
L 563.198287 549.534318 
L 564.053766 513.801582 
L 564.909245 468.335185 
L 565.764723 542.883593 
L 566.620202 522.70233 
L 567.47568 553.882944 
L 568.331159 485.184662 
L 569.186638 513.897837 
L 570.042116 521.024659 
L 571.753073 486.512961 
L 572.608552 541.223457 
L 573.464031 547.481966 
L 574.319509 551.133093 
L 575.174988 453.781542 
L 576.030467 495.862864 
L 576.885945 503.709932 
L 577.741424 530.417635 
L 578.596902 540.016039 
L 579.452381 509.88398 
L 580.30786 550.277416 
L 581.163338 525.014382 
L 582.018817 487.928668 
L 582.874296 545.572451 
L 583.729774 539.563953 
L 584.585253 513.917495 
L 585.440731 546.655812 
L 586.29621 543.647227 
L 587.151689 548.123824 
L 588.007167 499.668414 
L 588.862646 469.777572 
L 589.718124 536.037216 
L 590.573603 548.388613 
L 591.429082 516.090412 
L 592.28456 552.748647 
L 593.140039 490.602326 
L 593.995518 538.291136 
L 594.850996 467.76787 
L 595.706475 503.346255 
L 596.561953 544.018873 
L 597.417432 510.835438 
L 598.272911 451.867604 
L 599.128389 537.066254 
L 599.983868 504.193945 
L 600.839347 547.678249 
L 601.694825 536.392117 
L 602.550304 541.610829 
L 603.405782 526.123403 
L 604.261261 547.418761 
L 605.11674 512.588038 
L 605.972218 525.948779 
L 606.827697 537.27772 
L 607.683175 540.215342 
L 608.538654 491.478836 
L 609.394133 482.77295 
L 610.249611 510.988245 
L 611.10509 458.202078 
L 611.960569 517.304535 
L 612.816047 550.143232 
L 613.671526 537.29134 
L 614.527004 474.907348 
L 615.382483 548.520569 
L 616.237962 472.275464 
L 617.09344 527.221121 
L 617.948919 550.326913 
L 618.804398 534.34747 
L 619.659876 455.913054 
L 620.515355 541.744417 
L 621.370833 512.651681 
L 623.081791 544.703593 
L 623.937269 478.69194 
L 624.792748 471.572718 
L 625.648226 491.018764 
L 626.503705 539.179512 
L 627.359184 526.614753 
L 628.214662 512.106833 
L 629.070141 525.862949 
L 629.92562 515.739302 
L 630.781098 508.348955 
L 631.636577 548.591725 
L 632.492055 520.792324 
L 633.347534 444.967255 
L 634.203013 473.054877 
L 635.058491 525.901634 
L 635.91397 513.165322 
L 636.769449 548.085982 
L 637.624927 510.638013 
L 638.480406 545.71908 
L 639.335884 516.102734 
L 640.191363 532.970149 
L 641.90232 484.195959 
L 642.757799 521.099202 
L 643.613277 508.532654 
L 644.468756 538.609301 
L 645.324235 468.482306 
L 646.179713 544.653149 
L 647.035192 539.581996 
L 647.890671 466.089094 
L 648.746149 489.133506 
L 649.601628 519.390517 
L 650.457106 535.799141 
L 651.312585 545.025408 
L 652.168064 541.627995 
L 653.023542 484.897617 
L 653.879021 540.966444 
L 654.7345 505.693727 
L 655.589978 475.926802 
L 656.445457 522.966171 
L 657.300935 542.236592 
L 658.156414 472.663608 
L 659.011893 540.283163 
L 659.867371 502.542374 
L 660.72285 523.968424 
L 661.578328 502.136889 
L 662.433807 545.061917 
L 663.289286 536.334705 
L 664.144764 541.966239 
L 665.000243 489.664594 
L 665.855722 543.371433 
L 666.7112 506.604113 
L 667.566679 518.304401 
L 668.422157 543.153613 
L 669.277636 546.08109 
L 670.133115 534.68431 
L 670.988593 527.143296 
L 671.844072 536.505047 
L 672.699551 470.57401 
L 673.555029 465.342117 
L 674.410508 511.280977 
L 675.265986 534.951714 
L 676.121465 542.696823 
L 676.976944 539.98606 
L 677.832422 520.893879 
L 678.687901 520.872659 
L 679.543379 533.236798 
L 680.398858 523.027726 
L 681.254337 477.139573 
L 682.109815 541.56114 
L 682.965294 486.538832 
L 683.820773 518.632395 
L 684.676251 460.048511 
L 685.53173 528.933054 
L 686.387208 534.162753 
L 687.242687 543.357865 
L 688.098166 498.901111 
L 688.953644 524.070664 
L 689.809123 498.361669 
L 690.664602 538.303071 
L 691.52008 479.641502 
L 692.375559 540.594008 
L 693.231037 459.05384 
L 694.086516 511.773837 
L 694.941995 537.176603 
L 695.797473 503.55579 
L 696.652952 529.530769 
L 697.50843 538.014938 
L 698.363909 522.55814 
L 699.219388 509.598339 
L 700.074866 514.025861 
L 700.930345 519.234638 
L 701.785824 484.001659 
L 702.641302 463.456227 
L 703.496781 540.135182 
L 704.352259 461.420689 
L 705.207738 481.558775 
L 706.063217 540.407922 
L 706.918695 527.789402 
L 707.774174 478.5028 
L 708.629653 504.72082 
L 709.485131 484.697876 
L 710.34061 481.66693 
L 711.196088 534.621597 
L 712.051567 472.460356 
L 712.907046 472.089729 
L 714.618003 524.673329 
L 715.473481 492.722605 
L 716.32896 476.748936 
L 717.184439 533.458339 
L 718.039917 477.630572 
L 718.895396 485.523556 
L 719.750875 503.429978 
L 720.606353 534.490764 
L 721.461832 473.931879 
L 722.31731 538.649091 
L 723.172789 531.456958 
L 724.028268 533.957781 
L 724.883746 448.566393 
L 725.739225 496.146188 
L 726.594704 524.517046 
L 727.450182 501.275964 
L 728.305661 528.380043 
L 729.161139 534.359019 
L 730.016618 523.548405 
L 730.872097 529.238037 
L 731.727575 447.874915 
L 732.583054 531.858477 
L 733.438532 461.99327 
L 734.294011 527.897662 
L 735.14949 537.218886 
L 736.004968 463.097781 
L 736.860447 541.30474 
L 737.715926 521.45305 
L 738.571404 519.897612 
L 739.426883 509.010102 
L 740.282361 504.209742 
L 741.13784 515.073275 
L 741.993319 521.52468 
L 742.848797 513.201901 
L 743.704276 538.346425 
L 744.559755 539.082625 
L 745.415233 542.046978 
L 746.270712 536.787879 
L 747.12619 501.570241 
L 747.981669 540.152997 
L 748.837148 516.061451 
L 749.692626 484.685835 
L 750.548105 538.704608 
L 751.403584 492.520055 
L 752.259062 538.056133 
L 753.114541 523.12112 
L 753.970019 540.236492 
L 754.825498 448.76631 
L 755.680977 519.032896 
L 756.536455 522.710298 
L 757.391934 452.203198 
L 758.247412 533.780769 
L 759.102891 530.554154 
L 759.95837 520.999735 
L 760.813848 486.278537 
L 761.669327 505.797985 
L 762.524806 528.470208 
L 763.380284 449.444448 
L 764.235763 517.657593 
L 765.091241 462.650872 
L 765.94672 528.007959 
L 766.802199 526.160508 
L 767.657677 530.504816 
L 768.513156 482.496577 
L 769.368635 526.674465 
L 770.224113 474.981277 
L 771.079592 533.365016 
L 771.93507 491.979384 
L 772.790549 502.039229 
L 773.646028 536.695468 
L 774.501506 438.687333 
L 775.356985 474.698444 
L 776.212463 536.974159 
L 777.067942 496.153033 
L 777.923421 516.106104 
L 778.778899 461.641247 
L 779.634378 492.01182 
L 780.489857 507.028519 
L 781.345335 444.642403 
L 782.200814 514.112076 
L 783.056292 496.081316 
L 783.911771 492.269307 
L 784.76725 527.297876 
L 785.622728 506.717288 
L 786.478207 532.840931 
L 787.333686 493.624706 
L 788.189164 517.216214 
L 789.044643 532.193702 
L 789.900121 538.408489 
L 790.7556 458.592644 
L 791.611079 526.003787 
L 792.466557 507.839175 
L 793.322036 533.7414 
L 794.177514 523.329304 
L 795.032993 541.306215 
L 795.888472 493.572085 
L 796.74395 540.522905 
L 797.599429 449.554675 
L 798.454908 531.313084 
L 799.310386 538.406312 
L 800.165865 478.677232 
L 801.021343 528.380798 
L 801.876822 482.422824 
L 802.732301 526.494013 
L 803.587779 499.041457 
L 804.443258 536.875745 
L 805.298737 470.88475 
L 806.154215 524.110314 
L 807.009694 458.634067 
L 807.865172 454.252707 
L 808.720651 493.268155 
L 809.57613 525.878834 
L 810.431608 479.724663 
L 811.287087 518.784149 
L 812.142565 486.416179 
L 812.998044 519.584133 
L 813.853523 524.484294 
L 814.709001 511.910075 
L 815.56448 536.72915 
L 816.419959 513.576951 
L 817.275437 538.314041 
L 818.130916 514.340743 
L 818.986394 537.844772 
L 819.841873 528.512771 
L 820.697352 537.330534 
L 821.55283 525.510962 
L 822.408309 504.180571 
L 823.263788 535.239339 
L 824.119266 502.569931 
L 824.974745 512.548441 
L 825.830223 535.47027 
L 826.685702 491.401783 
L 827.541181 525.787616 
L 828.396659 529.556728 
L 829.252138 439.036723 
L 830.107616 490.498243 
L 831.818574 538.886131 
L 832.674052 516.154073 
L 833.529531 537.687945 
L 834.38501 530.565177 
L 835.240488 518.033434 
L 836.095967 532.9183 
L 836.951445 481.165154 
L 837.806924 514.056401 
L 838.662403 451.84591 
L 839.517881 456.140493 
L 840.37336 536.698206 
L 841.228839 462.98959 
L 842.084317 526.805614 
L 842.939796 521.225401 
L 843.795274 463.337716 
L 844.650753 530.790808 
L 845.506232 445.146847 
L 846.36171 535.111753 
L 847.217189 481.659383 
L 848.072667 460.094532 
L 848.928146 527.251469 
L 849.783625 502.411753 
L 850.639103 507.146469 
L 851.494582 533.31343 
L 852.350061 520.389857 
L 853.205539 448.015366 
L 854.061018 537.449396 
L 854.916496 536.122712 
L 855.771975 528.036235 
L 856.627454 475.467677 
L 857.482932 461.658975 
L 858.338411 466.40847 
L 859.19389 507.631535 
L 860.049368 473.361896 
L 860.904847 469.019045 
L 861.760325 487.758695 
L 862.615804 516.897171 
L 863.471283 527.665994 
L 864.326761 471.048826 
L 865.18224 462.676673 
L 866.037718 503.805204 
L 866.893197 537.095881 
L 867.748676 467.221618 
L 868.604154 530.365716 
L 869.459633 488.213923 
L 870.315112 532.131498 
L 871.17059 446.815127 
L 872.026069 533.006201 
L 872.881547 538.832053 
L 873.737026 454.7601 
L 874.592505 529.018848 
L 875.447983 520.107077 
L 876.303462 532.607578 
L 877.158941 459.118958 
L 878.014419 536.895736 
L 878.869898 528.517107 
L 879.725376 530.909705 
L 880.580855 535.737639 
L 881.436334 502.929887 
L 882.291812 511.799498 
L 883.147291 538.659271 
L 884.002769 511.512909 
L 884.858248 534.527571 
L 885.713727 464.887029 
L 886.569205 535.527735 
L 887.424684 486.234727 
L 888.280163 490.800523 
L 889.135641 515.407675 
L 889.99112 481.268254 
L 890.846598 534.596515 
L 891.702077 521.207463 
L 892.557556 536.847539 
L 893.413034 535.203673 
L 894.268513 479.808456 
L 895.123992 529.929374 
L 895.97947 530.479348 
L 896.834949 445.260689 
L 897.690427 532.422194 
L 898.545906 527.018221 
L 899.401385 511.27171 
L 900.256863 538.450894 
L 901.112342 514.354188 
L 901.96782 469.387953 
L 902.823299 490.536857 
L 903.678778 472.862577 
L 904.534256 469.289486 
L 905.389735 507.557325 
L 906.245214 535.418316 
L 907.100692 517.256144 
L 907.956171 441.994933 
L 908.811649 448.001992 
L 909.667128 516.308724 
L 910.522607 519.209943 
L 911.378085 453.383323 
L 912.233564 519.161587 
L 913.089043 496.791013 
L 913.944521 538.596628 
L 914.8 471.192472 
L 915.655478 537.2109 
L 916.510957 480.464444 
L 917.366436 504.253341 
L 918.221914 488.050058 
L 919.077393 527.868737 
L 919.932871 508.49425 
L 920.78835 462.498205 
L 921.643829 536.676881 
L 922.499307 532.927919 
L 923.354786 480.758089 
L 924.210265 487.440407 
L 925.065743 530.377125 
L 925.921222 474.703394 
L 926.7767 512.437758 
L 927.632179 454.331375 
L 928.487658 492.753145 
L 929.343136 478.358523 
L 930.198615 517.226341 
L 931.054094 522.006727 
L 931.909572 507.394513 
L 932.765051 534.588634 
L 933.620529 493.216482 
L 934.476008 417.361119 
L 935.331487 501.084051 
L 936.186965 493.610208 
L 937.042444 531.517951 
L 937.897922 450.033949 
L 938.753401 532.36113 
L 939.60888 491.433552 
L 940.464358 519.514083 
L 941.319837 463.942838 
L 942.175316 466.962761 
L 943.030794 532.063572 
L 943.886273 502.443627 
L 944.741751 437.357806 
L 945.59723 530.973225 
L 946.452709 485.640628 
L 947.308187 535.639611 
L 948.163666 496.89808 
L 949.019145 532.608174 
L 949.874623 537.335905 
L 950.730102 455.095694 
L 951.58558 469.45781 
L 953.296538 524.348284 
L 954.152016 492.84582 
L 955.007495 496.740393 
L 955.862973 512.747656 
L 956.718452 487.787515 
L 957.573931 537.388842 
L 958.429409 468.597798 
L 959.284888 527.725495 
L 960.140367 533.653114 
L 960.995845 451.398054 
L 961.851324 531.913414 
L 962.706802 531.988239 
L 963.562281 525.876745 
L 964.41776 527.204623 
L 965.273238 466.101345 
L 966.128717 533.941177 
L 966.984196 527.294103 
L 967.839674 528.221216 
L 968.695153 519.54666 
L 969.550631 434.05842 
L 970.40611 530.167818 
L 971.261589 515.574893 
L 972.117067 518.736899 
L 972.972546 507.185013 
L 973.828024 535.645123 
L 974.683503 503.206541 
L 975.538982 506.968211 
L 976.39446 533.879394 
L 977.249939 533.214911 
L 978.105418 484.647853 
L 978.960896 458.443979 
L 979.816375 534.700037 
L 980.671853 528.542171 
L 981.527332 533.462359 
L 982.382811 489.570199 
L 983.238289 534.904658 
L 984.093768 524.146313 
L 984.949247 537.262309 
L 985.804725 434.572588 
L 986.660204 443.414396 
L 987.515682 498.043557 
L 988.371161 520.560058 
L 989.22664 477.286975 
L 990.082118 423.681235 
L 990.937597 517.947727 
L 991.793075 460.361462 
L 992.648554 521.152876 
L 993.504033 527.013587 
L 994.359511 502.980682 
L 995.21499 537.540771 
L 996.070469 445.396962 
L 996.925947 512.500734 
L 997.781426 509.786251 
L 998.636904 444.814237 
L 999.492383 480.379387 
L 1000.347862 495.237979 
L 1001.20334 466.270932 
L 1002.058819 462.005591 
L 1002.914298 444.053534 
L 1002.914298 444.053534 
" clip-path="url(#p70221ff092)" style="fill: none; stroke: #dd8452; stroke-width: 6; stroke-linecap: round"/>
   </g>
   <g id="line2d_17"/>
   <g id="line2d_18"/>
   <g id="patch_3">
    <path d="M 105.56 609.894375 
L 105.56 54.554375 
" style="fill: none; stroke: #cccccc; stroke-width: 1.875; stroke-linejoin: miter; stroke-linecap: square"/>
   </g>
   <g id="patch_4">
    <path d="M 1045.645455 609.894375 
L 1045.645455 54.554375 
" style="fill: none; stroke: #cccccc; stroke-width: 1.875; stroke-linejoin: miter; stroke-linecap: square"/>
   </g>
   <g id="patch_5">
    <path d="M 105.56 609.894375 
L 1045.645455 609.894375 
" style="fill: none; stroke: #cccccc; stroke-width: 1.875; stroke-linejoin: miter; stroke-linecap: square"/>
   </g>
   <g id="patch_6">
    <path d="M 105.56 54.554375 
L 1045.645455 54.554375 
" style="fill: none; stroke: #cccccc; stroke-width: 1.875; stroke-linejoin: miter; stroke-linecap: square"/>
   </g>
   <g id="text_17">
    <!-- Training Progress: Loss -->
    <g style="fill: #262626" transform="translate(338.604602 34.554375) scale(0.36 -0.36)">
     <defs>
      <path id="DejaVuSans-Bold-54" d="M 31 4666 
L 4331 4666 
L 4331 3756 
L 2784 3756 
L 2784 0 
L 1581 0 
L 1581 3756 
L 31 3756 
L 31 4666 
z
" transform="scale(0.015625)"/>
      <path id="DejaVuSans-Bold-72" d="M 3138 2547 
Q 2991 2616 2845 2648 
Q 2700 2681 2553 2681 
Q 2122 2681 1889 2404 
Q 1656 2128 1656 1613 
L 1656 0 
L 538 0 
L 538 3500 
L 1656 3500 
L 1656 2925 
Q 1872 3269 2151 3426 
Q 2431 3584 2822 3584 
Q 2878 3584 2943 3579 
Q 3009 3575 3134 3559 
L 3138 2547 
z
" transform="scale(0.015625)"/>
      <path id="DejaVuSans-Bold-61" d="M 2106 1575 
Q 1756 1575 1579 1456 
Q 1403 1338 1403 1106 
Q 1403 894 1545 773 
Q 1688 653 1941 653 
Q 2256 653 2472 879 
Q 2688 1106 2688 1447 
L 2688 1575 
L 2106 1575 
z
M 3816 1997 
L 3816 0 
L 2688 0 
L 2688 519 
Q 2463 200 2181 54 
Q 1900 -91 1497 -91 
Q 953 -91 614 226 
Q 275 544 275 1050 
Q 275 1666 698 1953 
Q 1122 2241 2028 2241 
L 2688 2241 
L 2688 2328 
Q 2688 2594 2478 2717 
Q 2269 2841 1825 2841 
Q 1466 2841 1156 2769 
Q 847 2697 581 2553 
L 581 3406 
Q 941 3494 1303 3539 
Q 1666 3584 2028 3584 
Q 2975 3584 3395 3211 
Q 3816 2838 3816 1997 
z
" transform="scale(0.015625)"/>
      <path id="DejaVuSans-Bold-69" d="M 538 3500 
L 1656 3500 
L 1656 0 
L 538 0 
L 538 3500 
z
M 538 4863 
L 1656 4863 
L 1656 3950 
L 538 3950 
L 538 4863 
z
" transform="scale(0.015625)"/>
      <path id="DejaVuSans-Bold-6e" d="M 4056 2131 
L 4056 0 
L 2931 0 
L 2931 347 
L 2931 1631 
Q 2931 2084 2911 2256 
Q 2891 2428 2841 2509 
Q 2775 2619 2662 2680 
Q 2550 2741 2406 2741 
Q 2056 2741 1856 2470 
Q 1656 2200 1656 1722 
L 1656 0 
L 538 0 
L 538 3500 
L 1656 3500 
L 1656 2988 
Q 1909 3294 2193 3439 
Q 2478 3584 2822 3584 
Q 3428 3584 3742 3212 
Q 4056 2841 4056 2131 
z
" transform="scale(0.015625)"/>
      <path id="DejaVuSans-Bold-67" d="M 2919 594 
Q 2688 288 2409 144 
Q 2131 0 1766 0 
Q 1125 0 706 504 
Q 288 1009 288 1791 
Q 288 2575 706 3076 
Q 1125 3578 1766 3578 
Q 2131 3578 2409 3434 
Q 2688 3291 2919 2981 
L 2919 3500 
L 4044 3500 
L 4044 353 
Q 4044 -491 3511 -936 
Q 2978 -1381 1966 -1381 
Q 1638 -1381 1331 -1331 
Q 1025 -1281 716 -1178 
L 716 -306 
Q 1009 -475 1290 -558 
Q 1572 -641 1856 -641 
Q 2406 -641 2662 -400 
Q 2919 -159 2919 353 
L 2919 594 
z
M 2181 2772 
Q 1834 2772 1640 2515 
Q 1447 2259 1447 1791 
Q 1447 1309 1634 1061 
Q 1822 813 2181 813 
Q 2531 813 2725 1069 
Q 2919 1325 2919 1791 
Q 2919 2259 2725 2515 
Q 2531 2772 2181 2772 
z
" transform="scale(0.015625)"/>
      <path id="DejaVuSans-Bold-20" transform="scale(0.015625)"/>
      <path id="DejaVuSans-Bold-50" d="M 588 4666 
L 2584 4666 
Q 3475 4666 3951 4270 
Q 4428 3875 4428 3144 
Q 4428 2409 3951 2014 
Q 3475 1619 2584 1619 
L 1791 1619 
L 1791 0 
L 588 0 
L 588 4666 
z
M 1791 3794 
L 1791 2491 
L 2456 2491 
Q 2806 2491 2997 2661 
Q 3188 2831 3188 3144 
Q 3188 3456 2997 3625 
Q 2806 3794 2456 3794 
L 1791 3794 
z
" transform="scale(0.015625)"/>
      <path id="DejaVuSans-Bold-6f" d="M 2203 2784 
Q 1831 2784 1636 2517 
Q 1441 2250 1441 1747 
Q 1441 1244 1636 976 
Q 1831 709 2203 709 
Q 2569 709 2762 976 
Q 2956 1244 2956 1747 
Q 2956 2250 2762 2517 
Q 2569 2784 2203 2784 
z
M 2203 3584 
Q 3106 3584 3614 3096 
Q 4122 2609 4122 1747 
Q 4122 884 3614 396 
Q 3106 -91 2203 -91 
Q 1297 -91 786 396 
Q 275 884 275 1747 
Q 275 2609 786 3096 
Q 1297 3584 2203 3584 
z
" transform="scale(0.015625)"/>
      <path id="DejaVuSans-Bold-65" d="M 4031 1759 
L 4031 1441 
L 1416 1441 
Q 1456 1047 1700 850 
Q 1944 653 2381 653 
Q 2734 653 3104 758 
Q 3475 863 3866 1075 
L 3866 213 
Q 3469 63 3072 -14 
Q 2675 -91 2278 -91 
Q 1328 -91 801 392 
Q 275 875 275 1747 
Q 275 2603 792 3093 
Q 1309 3584 2216 3584 
Q 3041 3584 3536 3087 
Q 4031 2591 4031 1759 
z
M 2881 2131 
Q 2881 2450 2695 2645 
Q 2509 2841 2209 2841 
Q 1884 2841 1681 2658 
Q 1478 2475 1428 2131 
L 2881 2131 
z
" transform="scale(0.015625)"/>
      <path id="DejaVuSans-Bold-73" d="M 3272 3391 
L 3272 2541 
Q 2913 2691 2578 2766 
Q 2244 2841 1947 2841 
Q 1628 2841 1473 2761 
Q 1319 2681 1319 2516 
Q 1319 2381 1436 2309 
Q 1553 2238 1856 2203 
L 2053 2175 
Q 2913 2066 3209 1816 
Q 3506 1566 3506 1031 
Q 3506 472 3093 190 
Q 2681 -91 1863 -91 
Q 1516 -91 1145 -36 
Q 775 19 384 128 
L 384 978 
Q 719 816 1070 734 
Q 1422 653 1784 653 
Q 2113 653 2278 743 
Q 2444 834 2444 1013 
Q 2444 1163 2330 1236 
Q 2216 1309 1875 1350 
L 1678 1375 
Q 931 1469 631 1722 
Q 331 1975 331 2491 
Q 331 3047 712 3315 
Q 1094 3584 1881 3584 
Q 2191 3584 2531 3537 
Q 2872 3491 3272 3391 
z
" transform="scale(0.015625)"/>
      <path id="DejaVuSans-Bold-3a" d="M 716 3500 
L 1844 3500 
L 1844 2291 
L 716 2291 
L 716 3500 
z
M 716 1209 
L 1844 1209 
L 1844 0 
L 716 0 
L 716 1209 
z
" transform="scale(0.015625)"/>
      <path id="DejaVuSans-Bold-4c" d="M 588 4666 
L 1791 4666 
L 1791 909 
L 3903 909 
L 3903 0 
L 588 0 
L 588 4666 
z
" transform="scale(0.015625)"/>
     </defs>
     <use xlink:href="#DejaVuSans-Bold-54"/>
     <use xlink:href="#DejaVuSans-Bold-72" transform="translate(57.212891 0)"/>
     <use xlink:href="#DejaVuSans-Bold-61" transform="translate(106.529297 0)"/>
     <use xlink:href="#DejaVuSans-Bold-69" transform="translate(174.009766 0)"/>
     <use xlink:href="#DejaVuSans-Bold-6e" transform="translate(208.287109 0)"/>
     <use xlink:href="#DejaVuSans-Bold-69" transform="translate(279.478516 0)"/>
     <use xlink:href="#DejaVuSans-Bold-6e" transform="translate(313.755859 0)"/>
     <use xlink:href="#DejaVuSans-Bold-67" transform="translate(384.947266 0)"/>
     <use xlink:href="#DejaVuSans-Bold-20" transform="translate(456.529297 0)"/>
     <use xlink:href="#DejaVuSans-Bold-50" transform="translate(491.34375 0)"/>
     <use xlink:href="#DejaVuSans-Bold-72" transform="translate(564.634766 0)"/>
     <use xlink:href="#DejaVuSans-Bold-6f" transform="translate(613.951172 0)"/>
     <use xlink:href="#DejaVuSans-Bold-67" transform="translate(682.652344 0)"/>
     <use xlink:href="#DejaVuSans-Bold-72" transform="translate(754.234375 0)"/>
     <use xlink:href="#DejaVuSans-Bold-65" transform="translate(803.550781 0)"/>
     <use xlink:href="#DejaVuSans-Bold-73" transform="translate(871.373047 0)"/>
     <use xlink:href="#DejaVuSans-Bold-73" transform="translate(930.894531 0)"/>
     <use xlink:href="#DejaVuSans-Bold-3a" transform="translate(990.416016 0)"/>
     <use xlink:href="#DejaVuSans-Bold-20" transform="translate(1030.40625 0)"/>
     <use xlink:href="#DejaVuSans-Bold-4c" transform="translate(1065.220703 0)"/>
     <use xlink:href="#DejaVuSans-Bold-6f" transform="translate(1128.941406 0)"/>
     <use xlink:href="#DejaVuSans-Bold-73" transform="translate(1197.642578 0)"/>
     <use xlink:href="#DejaVuSans-Bold-73" transform="translate(1257.164062 0)"/>
    </g>
   </g>
   <g id="legend_1">
    <g id="patch_7">
     <path d="M 846.365455 174.094375 
L 1023.245455 174.094375 
Q 1029.645455 174.094375 1029.645455 167.694375 
L 1029.645455 76.954375 
Q 1029.645455 70.554375 1023.245455 70.554375 
L 846.365455 70.554375 
Q 839.965455 70.554375 839.965455 76.954375 
L 839.965455 167.694375 
Q 839.965455 174.094375 846.365455 174.094375 
z
" style="fill: #ffffff; opacity: 0.8; stroke: #cccccc; stroke-width: 1.5; stroke-linejoin: miter"/>
    </g>
    <g id="line2d_19">
     <path d="M 852.765455 96.469375 
L 884.765455 96.469375 
L 916.765455 96.469375 
" style="fill: none; stroke: #4c72b0; stroke-width: 6; stroke-linecap: round"/>
    </g>
    <g id="text_18">
     <!-- train -->
     <g style="fill: #262626" transform="translate(942.365455 107.669375) scale(0.32 -0.32)">
      <defs>
       <path id="DejaVuSans-74" d="M 1172 4494 
L 1172 3500 
L 2356 3500 
L 2356 3053 
L 1172 3053 
L 1172 1153 
Q 1172 725 1289 603 
Q 1406 481 1766 481 
L 2356 481 
L 2356 0 
L 1766 0 
Q 1100 0 847 248 
Q 594 497 594 1153 
L 594 3053 
L 172 3053 
L 172 3500 
L 594 3500 
L 594 4494 
L 1172 4494 
z
" transform="scale(0.015625)"/>
       <path id="DejaVuSans-72" d="M 2631 2963 
Q 2534 3019 2420 3045 
Q 2306 3072 2169 3072 
Q 1681 3072 1420 2755 
Q 1159 2438 1159 1844 
L 1159 0 
L 581 0 
L 581 3500 
L 1159 3500 
L 1159 2956 
Q 1341 3275 1631 3429 
Q 1922 3584 2338 3584 
Q 2397 3584 2469 3576 
Q 2541 3569 2628 3553 
L 2631 2963 
z
" transform="scale(0.015625)"/>
       <path id="DejaVuSans-61" d="M 2194 1759 
Q 1497 1759 1228 1600 
Q 959 1441 959 1056 
Q 959 750 1161 570 
Q 1363 391 1709 391 
Q 2188 391 2477 730 
Q 2766 1069 2766 1631 
L 2766 1759 
L 2194 1759 
z
M 3341 1997 
L 3341 0 
L 2766 0 
L 2766 531 
Q 2569 213 2275 61 
Q 1981 -91 1556 -91 
Q 1019 -91 701 211 
Q 384 513 384 1019 
Q 384 1609 779 1909 
Q 1175 2209 1959 2209 
L 2766 2209 
L 2766 2266 
Q 2766 2663 2505 2880 
Q 2244 3097 1772 3097 
Q 1472 3097 1187 3025 
Q 903 2953 641 2809 
L 641 3341 
Q 956 3463 1253 3523 
Q 1550 3584 1831 3584 
Q 2591 3584 2966 3190 
Q 3341 2797 3341 1997 
z
" transform="scale(0.015625)"/>
       <path id="DejaVuSans-69" d="M 603 3500 
L 1178 3500 
L 1178 0 
L 603 0 
L 603 3500 
z
M 603 4863 
L 1178 4863 
L 1178 4134 
L 603 4134 
L 603 4863 
z
" transform="scale(0.015625)"/>
       <path id="DejaVuSans-6e" d="M 3513 2113 
L 3513 0 
L 2938 0 
L 2938 2094 
Q 2938 2591 2744 2837 
Q 2550 3084 2163 3084 
Q 1697 3084 1428 2787 
Q 1159 2491 1159 1978 
L 1159 0 
L 581 0 
L 581 3500 
L 1159 3500 
L 1159 2956 
Q 1366 3272 1645 3428 
Q 1925 3584 2291 3584 
Q 2894 3584 3203 3211 
Q 3513 2838 3513 2113 
z
" transform="scale(0.015625)"/>
      </defs>
      <use xlink:href="#DejaVuSans-74"/>
      <use xlink:href="#DejaVuSans-72" transform="translate(39.208984 0)"/>
      <use xlink:href="#DejaVuSans-61" transform="translate(80.322266 0)"/>
      <use xlink:href="#DejaVuSans-69" transform="translate(141.601562 0)"/>
      <use xlink:href="#DejaVuSans-6e" transform="translate(169.384766 0)"/>
     </g>
    </g>
    <g id="line2d_20">
     <path d="M 852.765455 143.439375 
L 884.765455 143.439375 
L 916.765455 143.439375 
" style="fill: none; stroke: #dd8452; stroke-width: 6; stroke-linecap: round"/>
    </g>
    <g id="text_19">
     <!-- val -->
     <g style="fill: #262626" transform="translate(942.365455 154.639375) scale(0.32 -0.32)">
      <defs>
       <path id="DejaVuSans-76" d="M 191 3500 
L 800 3500 
L 1894 563 
L 2988 3500 
L 3597 3500 
L 2284 0 
L 1503 0 
L 191 3500 
z
" transform="scale(0.015625)"/>
       <path id="DejaVuSans-6c" d="M 603 4863 
L 1178 4863 
L 1178 0 
L 603 0 
L 603 4863 
z
" transform="scale(0.015625)"/>
      </defs>
      <use xlink:href="#DejaVuSans-76"/>
      <use xlink:href="#DejaVuSans-61" transform="translate(59.179688 0)"/>
      <use xlink:href="#DejaVuSans-6c" transform="translate(120.458984 0)"/>
     </g>
    </g>
   </g>
  </g>
 </g>
 <defs>
  <clipPath id="p70221ff092">
   <rect x="105.56" y="54.554375" width="940.085455" height="555.34"/>
  </clipPath>
 </defs>
</svg>
