<?xml version="1.0" encoding="utf-8" standalone="no"?>
<!DOCTYPE svg PUBLIC "-//W3C//DTD SVG 1.1//EN"
  "http://www.w3.org/Graphics/SVG/1.1/DTD/svg11.dtd">
<svg xmlns:xlink="http://www.w3.org/1999/xlink" width="1052.955455pt" height="695.534375pt" viewBox="0 0 1052.955455 695.534375" xmlns="http://www.w3.org/2000/svg" version="1.1">
 <metadata>
  <rdf:RDF xmlns:dc="http://purl.org/dc/elements/1.1/" xmlns:cc="http://creativecommons.org/ns#" xmlns:rdf="http://www.w3.org/1999/02/22-rdf-syntax-ns#">
   <cc:Work>
    <dc:type rdf:resource="http://purl.org/dc/dcmitype/StillImage"/>
    <dc:date>2026-04-10T14:00:34.054929</dc:date>
    <dc:format>image/svg+xml</dc:format>
    <dc:creator>
     <cc:Agent>
      <dc:title>Matplotlib v3.10.8, https://matplotlib.org/</dc:title>
     </cc:Agent>
    </dc:creator>
   </cc:Work>
  </rdf:RDF>
 </metadata>
 <defs>
  <style type="text/css">*{stroke-linejoin: round; stroke-linecap: butt}</style>
 </defs>
 <g id="figure_1">
  <g id="patch_1">
   <path d="M 0 695.534375 
L 1052.955455 695.534375 
L 1052.955455 0 
L 0 0 
z
" style="fill: #ffffff"/>
  </g>
  <g id="axes_1">
   <g id="patch_2">
    <path d="M 115.75 609.894375 
L 1045.755455 609.894375 
L 1045.755455 54.554375 
L 115.75 54.554375 
z
" style="fill: #ffffff"/>
   </g>
   <g id="matplotlib.axis_1">
    <g id="xtick_1">
     <g id="line2d_1">
      <path d="M 157.176669 609.894375 
L 157.176669 54.554375 
" clip-path="url(#p22c29107a2)" style="fill: none; stroke: #cccccc; stroke-opacity: 0.3; stroke-width: 1.5; stroke-linecap: round"/>
     </g>
     <g id="text_1">
      <!-- 0 -->
      <g style="fill: #262626" transform="translate(146.996669 646.709375) scale(0.32 -0.32)">
       <defs>
        <path id="DejaVuSans-30" d="M 2034 4250 
Q 1547 4250 1301 3770 
Q 1056 3291 1056 2328 
Q 1056 1369 1301 889 
Q 1547 409 2034 409 
Q 2525 409 2770 889 
Q 3016 1369 3016 2328 
Q 3016 3291 2770 3770 
Q 2525 4250 2034 4250 
z
M 2034 4750 
Q 2819 4750 3233 4129 
Q 3647 3509 3647 2328 
Q 3647 1150 3233 529 
Q 2819 -91 2034 -91 
Q 1250 -91 836 529 
Q 422 1150 422 2328 
Q 422 3509 836 4129 
Q 1250 4750 2034 4750 
z
" transform="scale(0.015625)"/>
       </defs>
       <use xlink:href="#DejaVuSans-30"/>
      </g>
     </g>
    </g>
    <g id="xtick_2">
     <g id="line2d_2">
      <path d="M 326.437831 609.894375 
L 326.437831 54.554375 
" clip-path="url(#p22c29107a2)" style="fill: none; stroke: #cccccc; stroke-opacity: 0.3; stroke-width: 1.5; stroke-linecap: round"/>
     </g>
     <g id="text_2">
      <!-- 200 -->
      <g style="fill: #262626" transform="translate(295.897831 646.709375) scale(0.32 -0.32)">
       <defs>
        <path id="DejaVuSans-32" d="M 1228 531 
L 3431 531 
L 3431 0 
L 469 0 
L 469 531 
Q 828 903 1448 1529 
Q 2069 2156 2228 2338 
Q 2531 2678 2651 2914 
Q 2772 3150 2772 3378 
Q 2772 3750 2511 3984 
Q 2250 4219 1831 4219 
Q 1534 4219 1204 4116 
Q 875 4013 500 3803 
L 500 4441 
Q 881 4594 1212 4672 
Q 1544 4750 1819 4750 
Q 2544 4750 2975 4387 
Q 3406 4025 3406 3419 
Q 3406 3131 3298 2873 
Q 3191 2616 2906 2266 
Q 2828 2175 2409 1742 
Q 1991 1309 1228 531 
z
" transform="scale(0.015625)"/>
       </defs>
       <use xlink:href="#DejaVuSans-32"/>
       <use xlink:href="#DejaVuSans-30" transform="translate(63.623047 0)"/>
       <use xlink:href="#DejaVuSans-30" transform="translate(127.246094 0)"/>
      </g>
     </g>
    </g>
    <g id="xtick_3">
     <g id="line2d_3">
      <path d="M 495.698993 609.894375 
L 495.698993 54.554375 
" clip-path="url(#p22c29107a2)" style="fill: none; stroke: #cccccc; stroke-opacity: 0.3; stroke-width: 1.5; stroke-linecap: round"/>
     </g>
     <g id="text_3">
      <!-- 400 -->
      <g style="fill: #262626" transform="translate(465.158993 646.709375) scale(0.32 -0.32)">
       <defs>
        <path id="DejaVuSans-34" d="M 2419 4116 
L 825 1625 
L 2419 1625 
L 2419 4116 
z
M 2253 4666 
L 3047 4666 
L 3047 1625 
L 3713 1625 
L 3713 1100 
L 3047 1100 
L 3047 0 
L 2419 0 
L 2419 1100 
L 313 1100 
L 313 1709 
L 2253 4666 
z
" transform="scale(0.015625)"/>
       </defs>
       <use xlink:href="#DejaVuSans-34"/>
       <use xlink:href="#DejaVuSans-30" transform="translate(63.623047 0)"/>
       <use xlink:href="#DejaVuSans-30" transform="translate(127.246094 0)"/>
      </g>
     </g>
    </g>
    <g id="xtick_4">
     <g id="line2d_4">
      <path d="M 664.960155 609.894375 
L 664.960155 54.554375 
" clip-path="url(#p22c29107a2)" style="fill: none; stroke: #cccccc; stroke-opacity: 0.3; stroke-width: 1.5; stroke-linecap: round"/>
     </g>
     <g id="text_4">
      <!-- 600 -->
      <g style="fill: #262626" transform="translate(634.420155 646.709375) scale(0.32 -0.32)">
       <defs>
        <path id="DejaVuSans-36" d="M 2113 2584 
Q 1688 2584 1439 2293 
Q 1191 2003 1191 1497 
Q 1191 994 1439 701 
Q 1688 409 2113 409 
Q 2538 409 2786 701 
Q 3034 994 3034 1497 
Q 3034 2003 2786 2293 
Q 2538 2584 2113 2584 
z
M 3366 4563 
L 3366 3988 
Q 3128 4100 2886 4159 
Q 2644 4219 2406 4219 
Q 1781 4219 1451 3797 
Q 1122 3375 1075 2522 
Q 1259 2794 1537 2939 
Q 1816 3084 2150 3084 
Q 2853 3084 3261 2657 
Q 3669 2231 3669 1497 
Q 3669 778 3244 343 
Q 2819 -91 2113 -91 
Q 1303 -91 875 529 
Q 447 1150 447 2328 
Q 447 3434 972 4092 
Q 1497 4750 2381 4750 
Q 2619 4750 2861 4703 
Q 3103 4656 3366 4563 
z
" transform="scale(0.015625)"/>
       </defs>
       <use xlink:href="#DejaVuSans-36"/>
       <use xlink:href="#DejaVuSans-30" transform="translate(63.623047 0)"/>
       <use xlink:href="#DejaVuSans-30" transform="translate(127.246094 0)"/>
      </g>
     </g>
    </g>
    <g id="xtick_5">
     <g id="line2d_5">
      <path d="M 834.221317 609.894375 
L 834.221317 54.554375 
" clip-path="url(#p22c29107a2)" style="fill: none; stroke: #cccccc; stroke-opacity: 0.3; stroke-width: 1.5; stroke-linecap: round"/>
     </g>
     <g id="text_5">
      <!-- 800 -->
      <g style="fill: #262626" transform="translate(803.681317 646.709375) scale(0.32 -0.32)">
       <defs>
        <path id="DejaVuSans-38" d="M 2034 2216 
Q 1584 2216 1326 1975 
Q 1069 1734 1069 1313 
Q 1069 891 1326 650 
Q 1584 409 2034 409 
Q 2484 409 2743 651 
Q 3003 894 3003 1313 
Q 3003 1734 2745 1975 
Q 2488 2216 2034 2216 
z
M 1403 2484 
Q 997 2584 770 2862 
Q 544 3141 544 3541 
Q 544 4100 942 4425 
Q 1341 4750 2034 4750 
Q 2731 4750 3128 4425 
Q 3525 4100 3525 3541 
Q 3525 3141 3298 2862 
Q 3072 2584 2669 2484 
Q 3125 2378 3379 2068 
Q 3634 1759 3634 1313 
Q 3634 634 3220 271 
Q 2806 -91 2034 -91 
Q 1263 -91 848 271 
Q 434 634 434 1313 
Q 434 1759 690 2068 
Q 947 2378 1403 2484 
z
M 1172 3481 
Q 1172 3119 1398 2916 
Q 1625 2713 2034 2713 
Q 2441 2713 2670 2916 
Q 2900 3119 2900 3481 
Q 2900 3844 2670 4047 
Q 2441 4250 2034 4250 
Q 1625 4250 1398 4047 
Q 1172 3844 1172 3481 
z
" transform="scale(0.015625)"/>
       </defs>
       <use xlink:href="#DejaVuSans-38"/>
       <use xlink:href="#DejaVuSans-30" transform="translate(63.623047 0)"/>
       <use xlink:href="#DejaVuSans-30" transform="translate(127.246094 0)"/>
      </g>
     </g>
    </g>
    <g id="xtick_6">
     <g id="line2d_6">
      <path d="M 1003.482479 609.894375 
L 1003.482479 54.554375 
" clip-path="url(#p22c29107a2)" style="fill: none; stroke: #cccccc; stroke-opacity: 0.3; stroke-width: 1.5; stroke-linecap: round"/>
     </g>
     <g id="text_6">
      <!-- 1000 -->
      <g style="fill: #262626" transform="translate(962.762479 646.709375) scale(0.32 -0.32)">
       <defs>
        <path id="DejaVuSans-31" d="M 794 531 
L 1825 531 
L 1825 4091 
L 703 3866 
L 703 4441 
L 1819 4666 
L 2450 4666 
L 2450 531 
L 3481 531 
L 3481 0 
L 794 0 
L 794 531 
z
" transform="scale(0.015625)"/>
       </defs>
       <use xlink:href="#DejaVuSans-31"/>
       <use xlink:href="#DejaVuSans-30" transform="translate(63.623047 0)"/>
       <use xlink:href="#DejaVuSans-30" transform="translate(127.246094 0)"/>
       <use xlink:href="#DejaVuSans-30" transform="translate(190.869141 0)"/>
      </g>
     </g>
    </g>
    <g id="text_7">
     <!-- Epoch -->
     <g style="fill: #262626" transform="translate(531.757727 681.679375) scale(0.32 -0.32)">
      <defs>
       <path id="DejaVuSans-45" d="M 628 4666 
L 3578 4666 
L 3578 4134 
L 1259 4134 
L 1259 2753 
L 3481 2753 
L 3481 2222 
L 1259 2222 
L 1259 531 
L 3634 531 
L 3634 0 
L 628 0 
L 628 4666 
z
" transform="scale(0.015625)"/>
       <path id="DejaVuSans-70" d="M 1159 525 
L 1159 -1331 
L 581 -1331 
L 581 3500 
L 1159 3500 
L 1159 2969 
Q 1341 3281 1617 3432 
Q 1894 3584 2278 3584 
Q 2916 3584 3314 3078 
Q 3713 2572 3713 1747 
Q 3713 922 3314 415 
Q 2916 -91 2278 -91 
Q 1894 -91 1617 61 
Q 1341 213 1159 525 
z
M 3116 1747 
Q 3116 2381 2855 2742 
Q 2594 3103 2138 3103 
Q 1681 3103 1420 2742 
Q 1159 2381 1159 1747 
Q 1159 1113 1420 752 
Q 1681 391 2138 391 
Q 2594 391 2855 752 
Q 3116 1113 3116 1747 
z
" transform="scale(0.015625)"/>
       <path id="DejaVuSans-6f" d="M 1959 3097 
Q 1497 3097 1228 2736 
Q 959 2375 959 1747 
Q 959 1119 1226 758 
Q 1494 397 1959 397 
Q 2419 397 2687 759 
Q 2956 1122 2956 1747 
Q 2956 2369 2687 2733 
Q 2419 3097 1959 3097 
z
M 1959 3584 
Q 2709 3584 3137 3096 
Q 3566 2609 3566 1747 
Q 3566 888 3137 398 
Q 2709 -91 1959 -91 
Q 1206 -91 779 398 
Q 353 888 353 1747 
Q 353 2609 779 3096 
Q 1206 3584 1959 3584 
z
" transform="scale(0.015625)"/>
       <path id="DejaVuSans-63" d="M 3122 3366 
L 3122 2828 
Q 2878 2963 2633 3030 
Q 2388 3097 2138 3097 
Q 1578 3097 1268 2742 
Q 959 2388 959 1747 
Q 959 1106 1268 751 
Q 1578 397 2138 397 
Q 2388 397 2633 464 
Q 2878 531 3122 666 
L 3122 134 
Q 2881 22 2623 -34 
Q 2366 -91 2075 -91 
Q 1284 -91 818 406 
Q 353 903 353 1747 
Q 353 2603 823 3093 
Q 1294 3584 2113 3584 
Q 2378 3584 2631 3529 
Q 2884 3475 3122 3366 
z
" transform="scale(0.015625)"/>
       <path id="DejaVuSans-68" d="M 3513 2113 
L 3513 0 
L 2938 0 
L 2938 2094 
Q 2938 2591 2744 2837 
Q 2550 3084 2163 3084 
Q 1697 3084 1428 2787 
Q 1159 2491 1159 1978 
L 1159 0 
L 581 0 
L 581 4863 
L 1159 4863 
L 1159 2956 
Q 1366 3272 1645 3428 
Q 1925 3584 2291 3584 
Q 2894 3584 3203 3211 
Q 3513 2838 3513 2113 
z
" transform="scale(0.015625)"/>
      </defs>
      <use xlink:href="#DejaVuSans-45"/>
      <use xlink:href="#DejaVuSans-70" transform="translate(63.183594 0)"/>
      <use xlink:href="#DejaVuSans-6f" transform="translate(126.660156 0)"/>
      <use xlink:href="#DejaVuSans-63" transform="translate(187.841797 0)"/>
      <use xlink:href="#DejaVuSans-68" transform="translate(242.822266 0)"/>
     </g>
    </g>
   </g>
   <g id="matplotlib.axis_2">
    <g id="ytick_1">
     <g id="line2d_7">
      <path d="M 115.75 585.681963 
L 1045.755455 585.681963 
" clip-path="url(#p22c29107a2)" style="fill: none; stroke: #cccccc; stroke-opacity: 0.3; stroke-width: 1.5; stroke-linecap: round"/>
     </g>
     <g id="text_8">
      <!-- 0 -->
      <g style="fill: #262626" transform="translate(82.89 597.839463) scale(0.32 -0.32)">
       <use xlink:href="#DejaVuSans-30"/>
      </g>
     </g>
    </g>
    <g id="ytick_2">
     <g id="line2d_8">
      <path d="M 115.75 484.473284 
L 1045.755455 484.473284 
" clip-path="url(#p22c29107a2)" style="fill: none; stroke: #cccccc; stroke-opacity: 0.3; stroke-width: 1.5; stroke-linecap: round"/>
     </g>
     <g id="text_9">
      <!-- 20 -->
      <g style="fill: #262626" transform="translate(62.53 496.630784) scale(0.32 -0.32)">
       <use xlink:href="#DejaVuSans-32"/>
       <use xlink:href="#DejaVuSans-30" transform="translate(63.623047 0)"/>
      </g>
     </g>
    </g>
    <g id="ytick_3">
     <g id="line2d_9">
      <path d="M 115.75 383.264605 
L 1045.755455 383.264605 
" clip-path="url(#p22c29107a2)" style="fill: none; stroke: #cccccc; stroke-opacity: 0.3; stroke-width: 1.5; stroke-linecap: round"/>
     </g>
     <g id="text_10">
      <!-- 40 -->
      <g style="fill: #262626" transform="translate(62.53 395.422105) scale(0.32 -0.32)">
       <use xlink:href="#DejaVuSans-34"/>
       <use xlink:href="#DejaVuSans-30" transform="translate(63.623047 0)"/>
      </g>
     </g>
    </g>
    <g id="ytick_4">
     <g id="line2d_10">
      <path d="M 115.75 282.055926 
L 1045.755455 282.055926 
" clip-path="url(#p22c29107a2)" style="fill: none; stroke: #cccccc; stroke-opacity: 0.3; stroke-width: 1.5; stroke-linecap: round"/>
     </g>
     <g id="text_11">
      <!-- 60 -->
      <g style="fill: #262626" transform="translate(62.53 294.213426) scale(0.32 -0.32)">
       <use xlink:href="#DejaVuSans-36"/>
       <use xlink:href="#DejaVuSans-30" transform="translate(63.623047 0)"/>
      </g>
     </g>
    </g>
    <g id="ytick_5">
     <g id="line2d_11">
      <path d="M 115.75 180.847247 
L 1045.755455 180.847247 
" clip-path="url(#p22c29107a2)" style="fill: none; stroke: #cccccc; stroke-opacity: 0.3; stroke-width: 1.5; stroke-linecap: round"/>
     </g>
     <g id="text_12">
      <!-- 80 -->
      <g style="fill: #262626" transform="translate(62.53 193.004747) scale(0.32 -0.32)">
       <use xlink:href="#DejaVuSans-38"/>
       <use xlink:href="#DejaVuSans-30" transform="translate(63.623047 0)"/>
      </g>
     </g>
    </g>
    <g id="ytick_6">
     <g id="line2d_12">
      <path d="M 115.75 79.638568 
L 1045.755455 79.638568 
" clip-path="url(#p22c29107a2)" style="fill: none; stroke: #cccccc; stroke-opacity: 0.3; stroke-width: 1.5; stroke-linecap: round"/>
     </g>
     <g id="text_13">
      <!-- 100 -->
      <g style="fill: #262626" transform="translate(42.17 91.796068) scale(0.32 -0.32)">
       <use xlink:href="#DejaVuSans-31"/>
       <use xlink:href="#DejaVuSans-30" transform="translate(63.623047 0)"/>
       <use xlink:href="#DejaVuSans-30" transform="translate(127.246094 0)"/>
      </g>
     </g>
    </g>
    <g id="text_14">
     <!-- Accuracy (%) -->
     <g style="fill: #262626" transform="translate(31.515 438.046875) rotate(-90) scale(0.32 -0.32)">
      <defs>
       <path id="DejaVuSans-41" d="M 2188 4044 
L 1331 1722 
L 3047 1722 
L 2188 4044 
z
M 1831 4666 
L 2547 4666 
L 4325 0 
L 3669 0 
L 3244 1197 
L 1141 1197 
L 716 0 
L 50 0 
L 1831 4666 
z
" transform="scale(0.015625)"/>
       <path id="DejaVuSans-75" d="M 544 1381 
L 544 3500 
L 1119 3500 
L 1119 1403 
Q 1119 906 1312 657 
Q 1506 409 1894 409 
Q 2359 409 2629 706 
Q 2900 1003 2900 1516 
L 2900 3500 
L 3475 3500 
L 3475 0 
L 2900 0 
L 2900 538 
Q 2691 219 2414 64 
Q 2138 -91 1772 -91 
Q 1169 -91 856 284 
Q 544 659 544 1381 
z
M 1991 3584 
L 1991 3584 
z
" transform="scale(0.015625)"/>
       <path id="DejaVuSans-72" d="M 2631 2963 
Q 2534 3019 2420 3045 
Q 2306 3072 2169 3072 
Q 1681 3072 1420 2755 
Q 1159 2438 1159 1844 
L 1159 0 
L 581 0 
L 581 3500 
L 1159 3500 
L 1159 2956 
Q 1341 3275 1631 3429 
Q 1922 3584 2338 3584 
Q 2397 3584 2469 3576 
Q 2541 3569 2628 3553 
L 2631 2963 
z
" transform="scale(0.015625)"/>
       <path id="DejaVuSans-61" d="M 2194 1759 
Q 1497 1759 1228 1600 
Q 959 1441 959 1056 
Q 959 750 1161 570 
Q 1363 391 1709 391 
Q 2188 391 2477 730 
Q 2766 1069 2766 1631 
L 2766 1759 
L 2194 1759 
z
M 3341 1997 
L 3341 0 
L 2766 0 
L 2766 531 
Q 2569 213 2275 61 
Q 1981 -91 1556 -91 
Q 1019 -91 701 211 
Q 384 513 384 1019 
Q 384 1609 779 1909 
Q 1175 2209 1959 2209 
L 2766 2209 
L 2766 2266 
Q 2766 2663 2505 2880 
Q 2244 3097 1772 3097 
Q 1472 3097 1187 3025 
Q 903 2953 641 2809 
L 641 3341 
Q 956 3463 1253 3523 
Q 1550 3584 1831 3584 
Q 2591 3584 2966 3190 
Q 3341 2797 3341 1997 
z
" transform="scale(0.015625)"/>
       <path id="DejaVuSans-79" d="M 2059 -325 
Q 1816 -950 1584 -1140 
Q 1353 -1331 966 -1331 
L 506 -1331 
L 506 -850 
L 844 -850 
Q 1081 -850 1212 -737 
Q 1344 -625 1503 -206 
L 1606 56 
L 191 3500 
L 800 3500 
L 1894 763 
L 2988 3500 
L 3597 3500 
L 2059 -325 
z
" transform="scale(0.015625)"/>
       <path id="DejaVuSans-20" transform="scale(0.015625)"/>
       <path id="DejaVuSans-28" d="M 1984 4856 
Q 1566 4138 1362 3434 
Q 1159 2731 1159 2009 
Q 1159 1288 1364 580 
Q 1569 -128 1984 -844 
L 1484 -844 
Q 1016 -109 783 600 
Q 550 1309 550 2009 
Q 550 2706 781 3412 
Q 1013 4119 1484 4856 
L 1984 4856 
z
" transform="scale(0.015625)"/>
       <path id="DejaVuSans-25" d="M 4653 2053 
Q 4381 2053 4226 1822 
Q 4072 1591 4072 1178 
Q 4072 772 4226 539 
Q 4381 306 4653 306 
Q 4919 306 5073 539 
Q 5228 772 5228 1178 
Q 5228 1588 5073 1820 
Q 4919 2053 4653 2053 
z
M 4653 2450 
Q 5147 2450 5437 2106 
Q 5728 1763 5728 1178 
Q 5728 594 5436 251 
Q 5144 -91 4653 -91 
Q 4153 -91 3862 251 
Q 3572 594 3572 1178 
Q 3572 1766 3864 2108 
Q 4156 2450 4653 2450 
z
M 1428 4353 
Q 1159 4353 1004 4120 
Q 850 3888 850 3481 
Q 850 3069 1003 2837 
Q 1156 2606 1428 2606 
Q 1700 2606 1854 2837 
Q 2009 3069 2009 3481 
Q 2009 3884 1853 4118 
Q 1697 4353 1428 4353 
z
M 4250 4750 
L 4750 4750 
L 1831 -91 
L 1331 -91 
L 4250 4750 
z
M 1428 4750 
Q 1922 4750 2215 4408 
Q 2509 4066 2509 3481 
Q 2509 2891 2217 2550 
Q 1925 2209 1428 2209 
Q 931 2209 642 2551 
Q 353 2894 353 3481 
Q 353 4063 643 4406 
Q 934 4750 1428 4750 
z
" transform="scale(0.015625)"/>
       <path id="DejaVuSans-29" d="M 513 4856 
L 1013 4856 
Q 1481 4119 1714 3412 
Q 1947 2706 1947 2009 
Q 1947 1309 1714 600 
Q 1481 -109 1013 -844 
L 513 -844 
Q 928 -128 1133 580 
Q 1338 1288 1338 2009 
Q 1338 2731 1133 3434 
Q 928 4138 513 4856 
z
" transform="scale(0.015625)"/>
      </defs>
      <use xlink:href="#DejaVuSans-41"/>
      <use xlink:href="#DejaVuSans-63" transform="translate(66.658203 0)"/>
      <use xlink:href="#DejaVuSans-63" transform="translate(121.638672 0)"/>
      <use xlink:href="#DejaVuSans-75" transform="translate(176.619141 0)"/>
      <use xlink:href="#DejaVuSans-72" transform="translate(239.998047 0)"/>
      <use xlink:href="#DejaVuSans-61" transform="translate(281.111328 0)"/>
      <use xlink:href="#DejaVuSans-63" transform="translate(342.390625 0)"/>
      <use xlink:href="#DejaVuSans-79" transform="translate(397.371094 0)"/>
      <use xlink:href="#DejaVuSans-20" transform="translate(456.550781 0)"/>
      <use xlink:href="#DejaVuSans-28" transform="translate(488.337891 0)"/>
      <use xlink:href="#DejaVuSans-25" transform="translate(527.351562 0)"/>
      <use xlink:href="#DejaVuSans-29" transform="translate(622.371094 0)"/>
     </g>
    </g>
   </g>
   <g id="FillBetweenPolyCollection_1"/>
   <g id="FillBetweenPolyCollection_2"/>
   <g id="line2d_13">
    <path d="M 158.022975 581.322254 
L 158.869281 580.371044 
L 159.715587 580.688114 
L 160.561893 580.212509 
L 161.408198 577.755218 
L 162.254504 576.011335 
L 163.10081 570.304078 
L 163.947116 561.188321 
L 165.639727 537.249552 
L 166.486033 523.06068 
L 167.332339 506.731583 
L 168.178645 493.335383 
L 169.024951 473.439254 
L 169.871257 459.171114 
L 171.563868 420.409329 
L 173.25648 376.415897 
L 175.795397 315.062899 
L 176.641703 295.087487 
L 178.334315 251.411139 
L 180.026926 217.088313 
L 180.873232 201.551892 
L 181.719538 182.924052 
L 182.565844 172.69856 
L 183.41215 159.936489 
L 185.951067 128.705113 
L 186.797373 119.668628 
L 187.643679 117.132079 
L 188.489984 112.772356 
L 189.33629 111.583349 
L 190.182596 107.93706 
L 191.028902 102.150528 
L 191.875208 103.181001 
L 193.567819 96.126195 
L 194.414125 98.187141 
L 195.260431 97.632271 
L 196.106737 96.205462 
L 196.953042 93.351845 
L 197.799348 93.034776 
L 198.645654 93.74818 
L 199.49196 92.004303 
L 200.338266 92.559173 
L 201.184572 91.845769 
L 202.030877 90.022594 
L 202.877183 92.08357 
L 203.723489 91.687235 
L 204.569795 92.479906 
L 205.416101 90.894533 
L 206.262406 90.9738 
L 207.955018 90.577464 
L 208.801324 89.388457 
L 209.64763 89.705526 
L 210.493935 88.516519 
L 211.340241 88.675053 
L 213.032853 88.516519 
L 213.879159 90.339663 
L 214.725464 88.120183 
L 215.57177 88.833587 
L 216.418076 88.040916 
L 217.264382 89.150656 
L 218.956994 88.516519 
L 219.803299 89.071389 
L 220.649605 88.040916 
L 221.495911 88.595786 
L 222.342217 88.040916 
L 223.188523 88.120183 
L 224.034828 87.248244 
L 224.881134 87.882381 
L 225.72744 87.723847 
L 226.573746 86.772641 
L 227.420052 86.376306 
L 228.266357 85.4251 
L 229.112663 85.504367 
L 229.958969 86.297038 
L 230.805275 87.327511 
L 231.651581 90.181129 
L 232.497886 87.565313 
L 233.344192 88.278717 
L 234.190498 88.278717 
L 235.036804 86.851908 
L 235.88311 86.53484 
L 236.729416 85.504367 
L 237.575721 86.455573 
L 238.422027 86.059237 
L 239.268333 85.504367 
L 240.114639 86.693374 
L 240.960945 85.504367 
L 241.80725 86.455573 
L 242.653556 87.64458 
L 243.499862 86.53484 
L 244.346168 85.742168 
L 245.192474 88.040916 
L 246.038779 87.803114 
L 246.885085 87.803114 
L 247.731391 86.53484 
L 248.577697 84.394627 
L 249.424003 85.900703 
L 250.270308 84.711696 
L 251.116614 84.077558 
L 251.96292 84.949497 
L 252.809226 85.108031 
L 253.655532 84.949497 
L 254.501838 86.614107 
L 256.194449 87.168977 
L 257.040755 86.376306 
L 257.887061 85.821436 
L 258.733367 84.711696 
L 259.579672 85.345833 
L 260.425978 84.156826 
L 261.272284 84.711696 
L 262.11859 83.839757 
L 262.964896 85.345833 
L 263.811201 84.949497 
L 264.657507 84.87023 
L 265.503813 83.364124 
L 266.350119 84.790963 
L 267.196425 85.266566 
L 268.04273 86.217771 
L 269.735342 85.187298 
L 270.581648 85.821436 
L 271.427954 86.059237 
L 272.27426 85.266566 
L 273.966871 85.266566 
L 274.813177 84.156826 
L 276.505789 85.187298 
L 277.352094 84.711696 
L 278.1984 84.473894 
L 279.044706 84.87023 
L 279.891012 84.394627 
L 280.737318 85.583634 
L 281.583623 85.900703 
L 282.429929 84.077558 
L 283.276235 84.790963 
L 284.122541 82.65072 
L 284.968847 83.284857 
L 285.815153 83.047055 
L 286.661458 84.236093 
L 287.507764 83.919024 
L 288.35407 85.345833 
L 289.200376 84.31536 
L 290.046682 84.553161 
L 290.892987 85.504367 
L 291.739293 84.632428 
L 292.585599 85.345833 
L 293.431905 85.662901 
L 294.278211 84.394627 
L 295.124516 84.632428 
L 295.970822 83.443391 
L 296.817128 84.077558 
L 297.663434 83.047055 
L 298.50974 83.126322 
L 299.356045 84.711696 
L 300.202351 82.65072 
L 301.048657 83.998291 
L 302.741269 84.077558 
L 303.587575 84.473894 
L 304.43388 83.919024 
L 305.280186 83.126322 
L 306.126492 83.126322 
L 306.972798 83.364124 
L 307.819104 83.443391 
L 308.665409 83.126322 
L 309.511715 83.998291 
L 310.358021 83.126322 
L 311.204327 82.967788 
L 312.050633 84.236093 
L 312.896938 83.047055 
L 313.743244 83.998291 
L 314.58955 84.31536 
L 315.435856 84.31536 
L 316.282162 83.522658 
L 317.128467 83.998291 
L 318.821079 83.047055 
L 319.667385 84.394627 
L 320.513691 83.522658 
L 321.359997 83.443391 
L 322.206302 84.236093 
L 323.052608 83.998291 
L 323.898914 83.126322 
L 324.74522 83.681223 
L 325.591526 83.76049 
L 326.437831 82.888521 
L 327.284137 84.156826 
L 328.130443 83.047055 
L 328.976749 83.601955 
L 329.823055 83.522658 
L 330.66936 83.919024 
L 331.515666 85.187298 
L 332.361972 83.998291 
L 333.208278 82.333651 
L 334.054584 83.047055 
L 334.900889 83.443391 
L 335.747195 84.553161 
L 336.593501 84.632428 
L 337.439807 85.4251 
L 338.286113 84.87023 
L 339.132419 83.839757 
L 340.82503 82.571452 
L 341.671336 82.492185 
L 342.517642 83.919024 
L 343.363948 83.364124 
L 344.210253 82.571452 
L 345.056559 82.65072 
L 345.902865 83.047055 
L 346.749171 83.047055 
L 347.595477 82.254384 
L 349.288088 84.31536 
L 350.134394 83.126322 
L 351.827006 83.126322 
L 352.673311 83.998291 
L 353.519617 83.522658 
L 354.365923 83.364124 
L 355.212229 82.888521 
L 356.904841 83.20559 
L 357.751146 82.65072 
L 358.597452 83.364124 
L 359.443758 82.65072 
L 360.290064 82.65072 
L 361.13637 81.699514 
L 362.828981 83.839757 
L 363.675287 82.729987 
L 364.521593 83.126322 
L 365.367899 83.681223 
L 366.214204 83.284857 
L 367.06051 83.601955 
L 367.906816 83.681223 
L 368.753122 83.126322 
L 369.599428 83.20559 
L 370.445734 82.412918 
L 372.138345 82.65072 
L 372.984651 82.254384 
L 373.830957 82.254384 
L 374.677263 82.729987 
L 375.523568 81.858048 
L 376.369874 82.333651 
L 377.21618 82.967788 
L 378.062486 82.809254 
L 378.908792 83.443391 
L 379.755097 83.047055 
L 380.601403 82.492185 
L 381.447709 82.65072 
L 382.294015 83.284857 
L 383.140321 82.254384 
L 383.986626 82.729987 
L 385.679238 82.888521 
L 386.525544 82.492185 
L 387.37185 83.681223 
L 388.218156 82.412918 
L 389.064461 83.443391 
L 389.910767 82.65072 
L 390.757073 82.016582 
L 391.603379 82.571452 
L 392.449685 83.443391 
L 393.29599 82.412918 
L 394.142296 82.492185 
L 394.988602 82.412918 
L 395.834908 81.620247 
L 396.681214 82.016582 
L 397.527519 81.620247 
L 399.220131 82.571452 
L 400.066437 83.20559 
L 400.912743 83.601955 
L 401.759048 82.888521 
L 402.605354 83.20559 
L 403.45166 82.09585 
L 405.144272 82.254384 
L 405.990578 82.967788 
L 406.836883 82.254384 
L 407.683189 82.888521 
L 408.529495 82.333651 
L 409.375801 82.65072 
L 410.222107 82.729987 
L 411.068412 82.571452 
L 411.914718 82.09585 
L 412.761024 82.65072 
L 413.60733 82.729987 
L 414.453636 82.571452 
L 415.299941 81.858048 
L 416.146247 81.620247 
L 416.992553 81.858048 
L 417.838859 82.333651 
L 418.685165 83.126322 
L 419.53147 82.492185 
L 420.377776 83.047055 
L 421.224082 82.729987 
L 422.070388 83.047055 
L 422.916694 82.65072 
L 423.763 82.571452 
L 424.609305 81.382445 
L 425.455611 82.333651 
L 426.301917 81.620247 
L 427.148223 82.65072 
L 427.994529 82.333651 
L 428.840834 82.729987 
L 429.68714 82.175117 
L 430.533446 82.09585 
L 431.379752 81.620247 
L 432.226058 81.858048 
L 433.072363 82.571452 
L 433.918669 82.571452 
L 434.764975 82.333651 
L 435.611281 82.254384 
L 437.303892 82.492185 
L 438.150198 82.016582 
L 438.996504 83.126322 
L 439.84281 82.967788 
L 440.689116 82.492185 
L 441.535422 82.967788 
L 442.381727 82.016582 
L 443.228033 82.492185 
L 444.074339 81.54098 
L 444.920645 81.778781 
L 445.766951 81.461712 
L 446.613256 81.778781 
L 447.459562 81.699514 
L 449.152174 82.016582 
L 449.99848 81.065377 
L 450.844785 83.20559 
L 451.691091 81.778781 
L 452.537397 82.09585 
L 453.383703 81.858048 
L 454.230009 82.016582 
L 455.076314 81.699514 
L 455.92262 82.888521 
L 456.768926 82.729987 
L 458.461538 81.858048 
L 460.154149 81.937315 
L 461.000455 81.54098 
L 461.846761 81.54098 
L 462.693067 81.303178 
L 463.539373 81.54098 
L 464.385678 80.906842 
L 465.231984 81.620247 
L 466.07829 83.126322 
L 466.924596 82.492185 
L 467.770902 82.016582 
L 468.617207 82.016582 
L 469.463513 81.620247 
L 470.309819 82.412918 
L 471.156125 81.937315 
L 472.002431 81.937315 
L 472.848737 81.54098 
L 473.695042 81.937315 
L 474.541348 81.699514 
L 475.387654 81.223911 
L 476.23396 81.620247 
L 477.080266 82.888521 
L 477.926571 81.937315 
L 478.772877 82.175117 
L 479.619183 81.858048 
L 480.465489 81.858048 
L 481.311795 82.175117 
L 482.1581 80.986109 
L 483.004406 81.858048 
L 483.850712 81.699514 
L 484.697018 82.09585 
L 485.543324 81.144644 
L 486.389629 80.906842 
L 487.235935 81.620247 
L 488.082241 81.461712 
L 488.928547 81.54098 
L 489.774853 82.09585 
L 490.621159 81.858048 
L 491.467464 81.382445 
L 492.31377 82.09585 
L 494.006382 81.461712 
L 494.852688 81.54098 
L 495.698993 81.858048 
L 496.545299 80.906842 
L 497.391605 81.303178 
L 498.237911 81.223911 
L 499.084217 81.303178 
L 499.930522 82.254384 
L 500.776828 81.620247 
L 501.623134 82.571452 
L 502.46944 81.778781 
L 503.315746 81.699514 
L 504.162051 82.175117 
L 505.008357 82.412918 
L 505.854663 81.54098 
L 506.700969 81.858048 
L 508.393581 81.303178 
L 509.239886 82.09585 
L 510.086192 81.382445 
L 510.932498 81.54098 
L 511.778804 81.461712 
L 512.62511 81.778781 
L 513.471415 81.461712 
L 514.317721 81.699514 
L 515.164027 81.065377 
L 516.010333 81.461712 
L 516.856639 81.223911 
L 517.702944 82.254384 
L 518.54925 81.065377 
L 519.395556 81.699514 
L 520.241862 82.175117 
L 521.088168 81.223911 
L 521.934473 82.333651 
L 522.780779 82.809254 
L 523.627085 81.858048 
L 524.473391 81.303178 
L 525.319697 81.303178 
L 526.166003 81.858048 
L 527.012308 81.144644 
L 527.858614 81.382445 
L 528.70492 80.748308 
L 529.551226 81.303178 
L 530.397532 81.620247 
L 532.090143 81.858048 
L 532.936449 81.223911 
L 533.782755 81.620247 
L 535.475366 81.223911 
L 536.321672 81.937315 
L 537.167978 81.144644 
L 538.014284 81.54098 
L 538.86059 80.669041 
L 539.706895 81.382445 
L 541.399507 81.461712 
L 542.245813 82.175117 
L 543.092119 81.223911 
L 543.938425 80.589774 
L 544.78473 81.223911 
L 545.631036 81.223911 
L 546.477342 80.906842 
L 547.323648 81.144644 
L 548.169954 80.748308 
L 549.862565 81.382445 
L 550.708871 82.254384 
L 551.555177 80.906842 
L 552.401483 81.54098 
L 553.247788 81.382445 
L 554.094094 80.748308 
L 554.9404 81.461712 
L 555.786706 81.065377 
L 556.633012 81.778781 
L 557.479317 81.065377 
L 558.325623 81.144644 
L 559.171929 80.906842 
L 560.018235 81.461712 
L 560.864541 81.065377 
L 561.710847 81.858048 
L 562.557152 80.986109 
L 564.249764 81.223911 
L 565.09607 80.906842 
L 565.942376 81.620247 
L 567.634987 80.906842 
L 568.481293 80.906842 
L 569.327599 80.589774 
L 570.173905 81.065377 
L 571.02021 81.303178 
L 571.866516 81.699514 
L 572.712822 81.303178 
L 573.559128 82.333651 
L 574.405434 81.223911 
L 576.098045 81.620247 
L 576.944351 80.986109 
L 577.790657 80.589774 
L 579.483269 81.778781 
L 580.329574 81.937315 
L 581.17588 81.144644 
L 582.022186 81.699514 
L 582.868492 80.827575 
L 583.714798 80.986109 
L 584.561103 80.748308 
L 585.407409 80.748308 
L 586.253715 80.986109 
L 587.100021 80.510507 
L 587.946327 81.223911 
L 588.792632 81.382445 
L 589.638938 81.778781 
L 590.485244 81.065377 
L 591.33155 81.303178 
L 592.177856 81.144644 
L 593.024162 81.54098 
L 593.870467 81.303178 
L 594.716773 81.382445 
L 595.563079 80.986109 
L 596.409385 81.223911 
L 597.255691 81.144644 
L 598.101996 80.748308 
L 598.948302 80.986109 
L 600.640914 80.748308 
L 601.48722 80.351972 
L 602.333525 80.986109 
L 603.179831 80.748308 
L 604.026137 81.065377 
L 604.872443 80.986109 
L 605.718749 80.669041 
L 606.565054 80.827575 
L 607.41136 81.303178 
L 609.103972 81.620247 
L 609.950278 81.303178 
L 610.796584 81.54098 
L 611.642889 80.827575 
L 612.489195 81.144644 
L 613.335501 81.699514 
L 614.181807 81.461712 
L 615.028113 81.382445 
L 615.874418 82.09585 
L 616.720724 81.223911 
L 617.56703 80.748308 
L 618.413336 80.748308 
L 619.259642 80.906842 
L 620.105947 80.669041 
L 621.798559 81.223911 
L 622.644865 80.906842 
L 624.337476 80.827575 
L 625.183782 80.827575 
L 626.030088 81.144644 
L 626.876394 80.986109 
L 629.415311 81.461712 
L 630.261617 80.669041 
L 631.107923 81.303178 
L 631.954229 81.065377 
L 632.800535 81.461712 
L 633.64684 80.827575 
L 634.493146 80.589774 
L 635.339452 80.748308 
L 636.185758 81.223911 
L 637.878369 81.065377 
L 638.724675 80.827575 
L 640.417287 80.589774 
L 641.263593 80.906842 
L 642.109898 80.906842 
L 642.956204 80.272705 
L 643.80251 80.827575 
L 645.495122 81.382445 
L 646.341428 80.827575 
L 647.187733 80.906842 
L 648.034039 81.382445 
L 648.880345 81.303178 
L 649.726651 80.748308 
L 650.572957 80.669041 
L 651.419262 81.382445 
L 652.265568 81.778781 
L 653.111874 81.065377 
L 653.95818 81.461712 
L 655.650791 80.748308 
L 656.497097 80.986109 
L 657.343403 80.906842 
L 658.189709 80.669041 
L 659.036015 80.906842 
L 659.882321 80.510507 
L 660.728626 80.589774 
L 661.574932 80.272705 
L 662.421238 80.431239 
L 663.267544 81.144644 
L 664.11385 80.589774 
L 664.960155 80.827575 
L 665.806461 80.193438 
L 666.652767 80.906842 
L 667.499073 81.303178 
L 668.345379 81.303178 
L 669.191684 81.461712 
L 670.03799 80.986109 
L 670.884296 80.827575 
L 672.576908 80.827575 
L 673.423213 81.144644 
L 674.269519 81.223911 
L 675.115825 81.461712 
L 675.962131 80.986109 
L 676.808437 80.906842 
L 677.654743 81.144644 
L 678.501048 80.986109 
L 679.347354 80.510507 
L 680.19366 80.431239 
L 681.886272 80.669041 
L 682.732577 80.510507 
L 684.425189 80.906842 
L 685.271495 80.986109 
L 686.117801 81.461712 
L 686.964106 80.669041 
L 687.810412 81.620247 
L 688.656718 80.906842 
L 689.503024 81.382445 
L 690.34933 80.748308 
L 691.195635 81.065377 
L 692.041941 80.431239 
L 692.888247 80.669041 
L 693.734553 80.748308 
L 694.580859 80.510507 
L 695.427165 80.669041 
L 696.27347 80.510507 
L 697.119776 80.748308 
L 697.966082 80.669041 
L 698.812388 80.906842 
L 700.504999 80.906842 
L 702.197611 80.669041 
L 703.043917 81.065377 
L 703.890223 80.510507 
L 704.736528 80.906842 
L 706.42914 80.906842 
L 707.275446 81.144644 
L 708.121752 80.669041 
L 708.968057 80.986109 
L 709.814363 80.906842 
L 710.660669 80.986109 
L 711.506975 80.431239 
L 712.353281 80.906842 
L 714.892198 80.827575 
L 715.738504 80.510507 
L 716.58481 80.906842 
L 717.431116 80.669041 
L 718.277421 80.986109 
L 719.123727 80.114171 
L 720.816339 80.510507 
L 721.662645 80.669041 
L 723.355256 80.193438 
L 724.201562 81.382445 
L 725.047868 80.589774 
L 725.894174 80.748308 
L 726.740479 81.065377 
L 727.586785 80.827575 
L 729.279397 80.669041 
L 730.125703 80.906842 
L 730.972009 81.303178 
L 731.818314 80.986109 
L 732.66462 80.827575 
L 733.510926 81.620247 
L 734.357232 81.065377 
L 736.049843 80.827575 
L 736.896149 80.827575 
L 737.742455 80.589774 
L 738.588761 80.193438 
L 739.435067 80.431239 
L 741.127678 80.034904 
L 741.973984 80.431239 
L 742.82029 80.510507 
L 743.666596 79.876369 
L 744.512901 80.114171 
L 745.359207 80.114171 
L 746.205513 80.986109 
L 747.051819 80.827575 
L 747.898125 81.065377 
L 748.744431 81.065377 
L 749.590736 80.589774 
L 752.97596 80.669041 
L 753.822265 81.382445 
L 754.668571 80.669041 
L 755.514877 80.748308 
L 756.361183 80.986109 
L 757.207489 80.669041 
L 758.053794 80.510507 
L 758.9001 80.906842 
L 759.746406 80.669041 
L 760.592712 80.827575 
L 762.285324 80.272705 
L 763.131629 80.589774 
L 763.977935 80.589774 
L 764.824241 80.986109 
L 765.670547 80.748308 
L 766.516853 80.748308 
L 767.363158 80.589774 
L 769.05577 80.906842 
L 769.902076 80.193438 
L 770.748382 80.589774 
L 771.594687 80.193438 
L 772.440993 80.431239 
L 773.287299 81.223911 
L 774.133605 80.431239 
L 774.979911 81.54098 
L 775.826216 80.748308 
L 776.672522 80.669041 
L 777.518828 80.986109 
L 778.365134 80.351972 
L 779.21144 80.827575 
L 780.057746 80.351972 
L 781.750357 80.510507 
L 782.596663 80.272705 
L 783.442969 80.827575 
L 784.289275 79.955637 
L 785.13558 80.827575 
L 785.981886 80.669041 
L 786.828192 80.272705 
L 787.674498 80.034904 
L 788.520804 80.431239 
L 789.367109 80.431239 
L 790.213415 80.748308 
L 791.059721 80.589774 
L 791.906027 81.223911 
L 792.752333 80.748308 
L 793.598638 81.223911 
L 794.444944 81.065377 
L 795.29125 80.669041 
L 796.137556 80.906842 
L 797.830168 80.589774 
L 798.676473 80.034904 
L 799.522779 80.114171 
L 800.369085 80.034904 
L 801.215391 80.351972 
L 802.061697 80.193438 
L 806.293226 80.510507 
L 807.139531 79.876369 
L 807.985837 80.114171 
L 808.832143 80.193438 
L 809.678449 80.431239 
L 812.217366 80.589774 
L 813.063672 80.351972 
L 814.756284 80.986109 
L 815.60259 80.589774 
L 816.448895 80.986109 
L 817.295201 80.669041 
L 818.141507 80.589774 
L 818.987813 80.272705 
L 819.834119 80.431239 
L 820.680424 80.193438 
L 821.52673 80.748308 
L 822.373036 80.431239 
L 823.219342 81.144644 
L 824.065648 81.065377 
L 824.911953 80.669041 
L 825.758259 80.986109 
L 828.297177 80.114171 
L 829.143482 80.114171 
L 829.989788 80.431239 
L 830.836094 80.351972 
L 831.6824 80.510507 
L 832.528706 80.827575 
L 833.375012 80.669041 
L 835.067623 81.382445 
L 835.913929 80.986109 
L 836.760235 81.223911 
L 837.606541 80.589774 
L 838.452846 80.986109 
L 839.299152 80.431239 
L 840.991764 80.272705 
L 841.83807 80.669041 
L 842.684375 80.589774 
L 843.530681 80.906842 
L 844.376987 80.351972 
L 845.223293 80.589774 
L 846.069599 80.589774 
L 846.915904 80.193438 
L 849.454822 80.351972 
L 850.301128 80.669041 
L 851.147434 80.351972 
L 851.993739 79.876369 
L 852.840045 80.589774 
L 853.686351 80.351972 
L 855.378963 80.193438 
L 856.225268 80.431239 
L 857.071574 80.906842 
L 857.91788 80.827575 
L 858.764186 80.906842 
L 859.610492 80.351972 
L 860.456797 80.351972 
L 861.303103 80.510507 
L 862.995715 80.510507 
L 863.842021 80.193438 
L 864.688327 80.351972 
L 866.380938 80.272705 
L 867.227244 80.748308 
L 868.07355 80.669041 
L 868.919856 80.748308 
L 869.766161 80.431239 
L 870.612467 79.955637 
L 871.458773 80.669041 
L 872.305079 80.351972 
L 873.151385 80.431239 
L 873.99769 80.351972 
L 874.843996 80.431239 
L 875.690302 80.669041 
L 876.536608 81.303178 
L 877.382914 80.351972 
L 878.229219 80.431239 
L 879.075525 80.272705 
L 879.921831 80.589774 
L 881.614443 80.114171 
L 882.460749 80.193438 
L 883.307054 79.876369 
L 884.15336 80.351972 
L 884.999666 80.034904 
L 885.845972 80.114171 
L 886.692278 80.589774 
L 887.538583 80.351972 
L 888.384889 80.431239 
L 889.231195 79.876369 
L 890.923807 79.955637 
L 891.770112 80.034904 
L 892.616418 80.272705 
L 893.462724 80.669041 
L 894.30903 80.193438 
L 895.155336 80.510507 
L 896.001641 80.589774 
L 896.847947 80.510507 
L 897.694253 80.827575 
L 899.386865 80.431239 
L 900.233171 80.510507 
L 901.079476 80.193438 
L 901.925782 80.193438 
L 902.772088 80.589774 
L 903.618394 80.272705 
L 906.157311 80.193438 
L 907.003617 80.114171 
L 908.696229 80.827575 
L 909.542534 81.065377 
L 910.38884 80.351972 
L 911.235146 80.193438 
L 912.927758 80.589774 
L 913.774063 80.510507 
L 914.620369 80.589774 
L 915.466675 80.351972 
L 917.159287 80.193438 
L 918.005593 80.351972 
L 918.851898 80.351972 
L 919.698204 80.669041 
L 920.54451 80.114171 
L 921.390816 80.669041 
L 922.237122 80.431239 
L 923.083427 80.510507 
L 923.929733 80.431239 
L 924.776039 80.510507 
L 925.622345 80.272705 
L 927.314956 80.827575 
L 928.161262 80.351972 
L 929.007568 80.034904 
L 929.853874 80.034904 
L 930.70018 79.876369 
L 932.392791 80.034904 
L 934.085403 79.797102 
L 934.931709 80.193438 
L 937.470626 80.510507 
L 938.316932 80.827575 
L 939.163238 81.461712 
L 940.009544 80.906842 
L 940.855849 80.114171 
L 941.702155 80.272705 
L 942.548461 80.114171 
L 943.394767 80.114171 
L 944.241073 80.431239 
L 945.087378 79.955637 
L 945.933684 80.351972 
L 946.77999 79.876369 
L 949.318908 80.034904 
L 950.165213 80.589774 
L 951.857825 80.034904 
L 952.704131 80.986109 
L 953.550437 80.272705 
L 955.243048 80.510507 
L 956.089354 80.351972 
L 956.93566 80.589774 
L 957.781966 80.034904 
L 958.628271 79.955637 
L 959.474577 80.114171 
L 961.167189 80.114171 
L 962.013495 80.510507 
L 962.8598 80.193438 
L 966.245024 80.114171 
L 967.09133 79.876369 
L 967.937635 80.193438 
L 968.783941 80.114171 
L 969.630247 79.797102 
L 970.476553 80.114171 
L 971.322859 79.797102 
L 972.169164 80.272705 
L 973.01547 80.351972 
L 973.861776 80.034904 
L 974.708082 80.272705 
L 975.554388 80.034904 
L 976.400693 80.589774 
L 977.246999 80.589774 
L 978.093305 79.876369 
L 978.939611 80.272705 
L 980.632222 80.193438 
L 981.478528 80.669041 
L 982.324834 80.034904 
L 983.17114 79.955637 
L 984.017446 80.272705 
L 984.863752 80.748308 
L 985.710057 80.748308 
L 987.402669 80.034904 
L 988.248975 80.351972 
L 989.095281 79.876369 
L 992.480504 79.955637 
L 993.32681 80.193438 
L 994.173115 79.797102 
L 995.019421 79.955637 
L 995.865727 79.797102 
L 996.712033 79.876369 
L 997.558339 80.114171 
L 998.404644 79.876369 
L 1000.097256 80.272705 
L 1001.789868 80.114171 
L 1002.636174 80.351972 
L 1003.482479 80.431239 
L 1003.482479 80.431239 
" clip-path="url(#p22c29107a2)" style="fill: none; stroke: #4c72b0; stroke-width: 6; stroke-linecap: round"/>
   </g>
   <g id="line2d_14">
    <path d="M 158.022975 582.749527 
L 158.869281 582.353252 
L 160.561893 583.938353 
L 161.408198 584.651648 
L 162.254504 583.304312 
L 163.10081 584.334628 
L 163.947116 583.859097 
L 164.793422 582.749527 
L 165.639727 582.194742 
L 166.486033 580.292621 
L 167.332339 577.360184 
L 168.178645 576.012849 
L 169.024951 572.842648 
L 169.871257 567.928835 
L 170.717562 563.966083 
L 171.563868 557.863446 
L 173.25648 536.702351 
L 174.102786 524.893352 
L 178.334315 430.342094 
L 179.18062 409.498016 
L 180.026926 393.092235 
L 181.719538 366.858806 
L 183.41215 352.275883 
L 185.104761 342.923793 
L 185.951067 340.942416 
L 186.797373 339.357314 
L 187.643679 338.089236 
L 188.489984 338.327007 
L 189.33629 338.406259 
L 190.182596 336.979662 
L 191.028902 337.534456 
L 191.875208 335.949355 
L 192.721513 334.681276 
L 193.567819 334.83978 
L 194.414125 335.236056 
L 195.260431 334.522757 
L 196.106737 335.077552 
L 196.953042 334.681276 
L 197.799348 334.522757 
L 198.645654 333.730206 
L 199.49196 334.998284 
L 200.338266 333.254679 
L 201.184572 333.730206 
L 202.030877 333.49245 
L 202.877183 333.49245 
L 203.723489 333.730206 
L 204.569795 333.650954 
L 205.416101 333.809458 
L 206.262406 333.254679 
L 208.801324 333.650954 
L 209.64763 333.254679 
L 211.340241 333.016907 
L 212.186547 333.333931 
L 213.032853 333.809458 
L 214.725464 333.809458 
L 215.57177 332.224357 
L 217.264382 333.096175 
L 218.110688 332.858403 
L 218.956994 332.937655 
L 219.803299 333.175427 
L 220.649605 332.620632 
L 221.495911 332.224357 
L 222.342217 333.016907 
L 223.188523 332.699899 
L 224.034828 332.699899 
L 224.881134 332.303624 
L 225.72744 332.779151 
L 226.573746 332.303624 
L 227.420052 331.669577 
L 228.266357 331.669577 
L 229.112663 332.065852 
L 229.958969 332.065852 
L 230.805275 333.413183 
L 231.651581 333.254679 
L 232.497886 332.541395 
L 233.344192 332.858403 
L 234.190498 331.986585 
L 235.036804 331.748844 
L 235.88311 331.669577 
L 236.729416 331.907348 
L 237.575721 331.511073 
L 238.422027 331.431806 
L 239.268333 331.986585 
L 240.114639 331.511073 
L 240.960945 331.431806 
L 241.80725 331.828081 
L 242.653556 330.956293 
L 245.192474 331.59031 
L 246.038779 330.956293 
L 246.885085 331.669577 
L 247.731391 331.431806 
L 248.577697 331.03553 
L 249.424003 330.797759 
L 250.270308 331.511073 
L 251.116614 331.03553 
L 251.96292 331.511073 
L 253.655532 330.639255 
L 254.501838 331.194035 
L 255.348143 331.511073 
L 256.194449 331.431806 
L 257.040755 330.797759 
L 257.887061 331.03553 
L 258.733367 330.401484 
L 259.579672 330.24298 
L 260.425978 330.877026 
L 261.272284 330.639255 
L 262.11859 330.163743 
L 263.811201 330.560018 
L 264.657507 330.877026 
L 265.503813 330.480751 
L 266.350119 331.986585 
L 267.196425 331.352569 
L 268.04273 331.511073 
L 268.889036 330.322247 
L 269.735342 331.114798 
L 270.581648 330.084475 
L 271.427954 330.639255 
L 272.27426 330.718522 
L 273.120565 330.560018 
L 273.966871 329.925971 
L 274.813177 331.431806 
L 275.659483 330.163743 
L 276.505789 330.480751 
L 277.352094 329.371192 
L 278.1984 330.084475 
L 279.891012 330.163743 
L 281.583623 330.877026 
L 282.429929 330.639255 
L 283.276235 330.24298 
L 284.122541 329.054153 
L 284.968847 328.657878 
L 285.815153 329.925971 
L 286.661458 329.450429 
L 287.507764 330.163743 
L 288.35407 330.718522 
L 289.200376 331.03553 
L 290.046682 329.529696 
L 290.892987 329.925971 
L 292.585599 329.212657 
L 293.431905 328.895649 
L 294.278211 328.895649 
L 295.124516 329.371192 
L 295.970822 329.054153 
L 296.817128 329.291925 
L 297.663434 328.657878 
L 298.50974 328.974916 
L 299.356045 328.34087 
L 300.202351 328.023831 
L 301.048657 329.13342 
L 302.741269 328.578641 
L 303.587575 329.371192 
L 304.43388 329.608933 
L 305.280186 328.420107 
L 306.126492 328.657878 
L 306.972798 328.261603 
L 307.819104 328.499374 
L 308.665409 327.944594 
L 309.511715 328.103098 
L 310.358021 329.291925 
L 311.204327 329.450429 
L 312.050633 327.944594 
L 312.896938 326.755768 
L 313.743244 327.310548 
L 314.58955 327.231311 
L 315.435856 326.993539 
L 316.282162 327.865327 
L 317.128467 326.835035 
L 317.974773 326.43876 
L 318.821079 327.389815 
L 319.667385 327.072776 
L 320.513691 327.389815 
L 321.359997 326.121721 
L 322.206302 326.517997 
L 323.052608 326.359493 
L 323.898914 326.993539 
L 324.74522 326.914272 
L 325.591526 326.597264 
L 326.437831 327.627556 
L 327.284137 325.963217 
L 328.130443 326.676501 
L 328.976749 325.725446 
L 329.823055 326.359493 
L 330.66936 325.646209 
L 331.515666 326.755768 
L 332.361972 325.963217 
L 333.208278 325.963217 
L 334.054584 326.43876 
L 334.900889 324.853658 
L 335.747195 325.012162 
L 336.593501 325.963217 
L 337.439807 325.170666 
L 339.132419 324.615887 
L 339.978724 325.646209 
L 340.82503 325.091399 
L 341.671336 324.298848 
L 342.517642 324.53662 
L 343.363948 325.804713 
L 344.210253 324.774391 
L 345.056559 327.310548 
L 345.902865 326.280225 
L 346.749171 324.457383 
L 349.288088 323.347793 
L 350.134394 324.219611 
L 350.9807 324.53662 
L 351.827006 322.951518 
L 352.673311 323.744069 
L 353.519617 323.110022 
L 354.365923 323.427061 
L 355.212229 324.298848 
L 356.058535 324.298848 
L 356.904841 324.140344 
L 357.751146 322.555243 
L 358.597452 322.07973 
L 359.443758 322.07973 
L 360.290064 322.555243 
L 361.13637 322.872281 
L 361.982675 323.506298 
L 362.828981 322.396739 
L 363.675287 321.921196 
L 364.521593 321.762692 
L 365.367899 320.970141 
L 366.214204 323.427061 
L 367.06051 322.158967 
L 368.753122 322.158967 
L 370.445734 320.256857 
L 371.292039 320.653133 
L 372.138345 320.098353 
L 372.984651 320.098353 
L 373.830957 320.573866 
L 374.677263 317.958442 
L 375.523568 319.464307 
L 376.369874 319.226535 
L 377.21618 319.226535 
L 378.062486 320.256857 
L 379.755097 319.702078 
L 380.601403 318.988764 
L 381.447709 319.068031 
L 382.294015 318.037709 
L 383.140321 319.622811 
L 383.986626 317.799938 
L 384.832932 317.007387 
L 385.679238 316.690379 
L 386.525544 315.897828 
L 387.37185 318.592489 
L 388.218156 318.592489 
L 389.064461 317.245158 
L 389.910767 317.165921 
L 390.757073 317.562166 
L 391.603379 316.294103 
L 392.449685 315.897828 
L 393.29599 317.086654 
L 394.142296 315.58082 
L 394.988602 316.135599 
L 395.834908 316.92815 
L 396.681214 317.086654 
L 398.373825 315.422285 
L 400.066437 314.788269 
L 400.912743 316.769646 
L 401.759048 312.886129 
L 402.605354 311.142523 
L 403.45166 311.855807 
L 404.297966 311.22179 
L 405.990578 315.263781 
L 406.836883 313.837184 
L 408.529495 315.02601 
L 409.375801 313.599443 
L 410.222107 314.47123 
L 411.068412 313.044633 
L 411.914718 312.252082 
L 412.761024 309.795193 
L 413.60733 310.270705 
L 414.453636 309.636688 
L 415.299941 308.606366 
L 416.146247 308.764871 
L 416.992553 308.130824 
L 417.838859 309.398917 
L 418.685165 307.734548 
L 419.53147 309.715925 
L 420.377776 308.606366 
L 421.224082 311.22179 
L 422.070388 307.576044 
L 422.916694 306.862761 
L 423.763 306.624989 
L 424.609305 304.643612 
L 425.455611 307.338273 
L 426.301917 306.307981 
L 427.148223 306.624989 
L 427.994529 306.545722 
L 428.840834 307.734548 
L 429.68714 307.576044 
L 430.533446 307.259036 
L 432.226058 305.832439 
L 433.072363 306.704256 
L 433.918669 306.07021 
L 434.764975 303.296282 
L 435.611281 307.496777 
L 436.457587 304.881384 
L 437.303892 304.326604 
L 438.150198 302.503731 
L 438.996504 303.61329 
L 440.689116 301.552676 
L 441.535422 301.394142 
L 442.381727 300.443087 
L 443.228033 302.26596 
L 444.074339 302.741502 
L 444.920645 300.680858 
L 445.766951 300.36385 
L 447.459562 299.095757 
L 448.305868 299.095757 
L 449.152174 296.876608 
L 449.99848 299.254261 
L 450.844785 297.193647 
L 451.691091 298.303206 
L 452.537397 300.839362 
L 453.383703 299.80904 
L 454.230009 295.687782 
L 455.076314 295.608545 
L 455.92262 296.084057 
L 456.768926 298.699481 
L 457.615232 298.620214 
L 458.461538 294.895231 
L 459.307844 293.389397 
L 460.154149 293.468664 
L 461.000455 296.638867 
L 461.846761 295.370774 
L 462.693067 293.072388 
L 463.539373 290.060689 
L 464.385678 291.170248 
L 465.231984 291.487287 
L 466.07829 290.615469 
L 466.924596 291.883562 
L 467.770902 292.834617 
L 468.617207 290.139926 
L 469.463513 289.822918 
L 470.309819 292.042066 
L 471.156125 292.834617 
L 472.002431 293.072388 
L 472.848737 288.871863 
L 473.695042 286.890486 
L 474.541348 288.396321 
L 476.23396 287.04899 
L 477.080266 287.683037 
L 477.926571 285.226117 
L 479.619183 287.128257 
L 480.465489 284.275062 
L 481.311795 283.086236 
L 482.1581 284.037291 
L 483.004406 281.976677 
L 483.850712 283.720283 
L 484.697018 282.769228 
L 485.543324 283.958054 
L 486.389629 284.037291 
L 487.235935 286.256439 
L 488.082241 288.792596 
L 488.928547 286.811219 
L 489.774853 285.463889 
L 490.621159 285.384652 
L 491.467464 283.006999 
L 492.31377 278.885711 
L 493.160076 283.006999 
L 494.852688 274.447444 
L 495.698993 273.496389 
L 496.545299 273.100114 
L 497.391605 273.179351 
L 498.237911 276.032546 
L 499.084217 277.221372 
L 499.930522 275.002224 
L 500.776828 274.764453 
L 501.623134 274.84372 
L 502.46944 278.727207 
L 503.315746 275.794775 
L 504.162051 274.526711 
L 505.008357 272.862343 
L 505.854663 273.971902 
L 506.700969 276.111813 
L 507.547275 274.368177 
L 508.393581 274.764453 
L 509.239886 271.03947 
L 510.086192 268.978856 
L 510.932498 269.692139 
L 511.778804 270.801698 
L 512.62511 272.228296 
L 513.471415 273.337885 
L 514.317721 268.424046 
L 515.164027 265.095339 
L 516.856639 267.155983 
L 517.702944 266.601203 
L 518.54925 267.631495 
L 519.395556 266.838975 
L 520.241862 266.284165 
L 521.088168 264.936834 
L 521.934473 265.33311 
L 522.780779 266.363432 
L 523.627085 262.08367 
L 524.473391 263.193229 
L 525.319697 260.97408 
L 526.166003 262.87622 
L 527.012308 258.358657 
L 527.858614 259.547483 
L 528.70492 260.498568 
L 529.551226 259.706017 
L 530.397532 261.211852 
L 531.243837 259.151207 
L 532.090143 261.766631 
L 532.936449 261.766631 
L 534.629061 259.230475 
L 536.321672 259.706017 
L 537.167978 258.200153 
L 538.014284 255.663996 
L 538.86059 254.554437 
L 539.706895 252.652297 
L 540.553201 252.890068 
L 541.399507 252.731564 
L 542.245813 250.353911 
L 543.092119 250.11614 
L 543.938425 249.482094 
L 544.78473 250.195407 
L 545.631036 254.950712 
L 546.477342 251.067195 
L 547.323648 246.549662 
L 548.169954 247.976259 
L 549.016259 250.195407 
L 549.862565 247.817755 
L 550.708871 249.561361 
L 551.555177 248.531039 
L 553.247788 243.300221 
L 554.094094 243.458725 
L 554.9404 242.50767 
L 555.786706 241.318844 
L 556.633012 247.738488 
L 557.479317 247.104441 
L 558.325623 247.817755 
L 559.171929 244.806056 
L 560.018235 240.367789 
L 560.864541 238.069374 
L 561.710847 241.477348 
L 562.557152 240.130018 
L 563.403458 238.069374 
L 564.249764 233.948116 
L 565.09607 237.118319 
L 565.942376 235.45398 
L 566.788681 232.997061 
L 567.634987 229.668353 
L 568.481293 228.321023 
L 569.327599 231.174188 
L 570.173905 230.3024 
L 571.02021 235.770989 
L 571.866516 236.880548 
L 572.712822 236.801311 
L 573.559128 236.167264 
L 574.405434 238.624153 
L 575.25174 236.801311 
L 576.098045 236.167264 
L 576.944351 232.442281 
L 577.790657 230.064629 
L 578.636963 230.777912 
L 579.483269 227.84548 
L 580.329574 226.339646 
L 581.17588 227.449205 
L 582.022186 224.279002 
L 582.868492 223.724222 
L 584.561103 220.554019 
L 585.407409 221.425837 
L 586.253715 221.34657 
L 587.100021 220.157743 
L 588.792632 220.871027 
L 589.638938 223.010938 
L 590.485244 221.980616 
L 591.33155 216.194989 
L 593.024162 223.169443 
L 593.870467 219.840735 
L 594.716773 215.798714 
L 595.563079 216.036485 
L 596.409385 217.225311 
L 597.255691 217.463083 
L 598.101996 218.334871 
L 599.794608 211.043409 
L 600.640914 214.609888 
L 602.333525 210.092354 
L 603.179831 210.964172 
L 604.026137 212.866282 
L 604.872443 210.647134 
L 605.718749 214.847659 
L 606.565054 213.579566 
L 607.41136 213.500329 
L 608.257666 211.598189 
L 609.103972 214.926926 
L 609.950278 215.08543 
L 610.796584 213.896604 
L 611.642889 210.647134 
L 612.489195 211.122676 
L 613.335501 205.812592 
L 614.181807 205.337049 
L 615.028113 206.050363 
L 615.874418 207.952473 
L 616.720724 206.922151 
L 618.413336 203.276435 
L 619.259642 202.404617 
L 620.105947 202.483884 
L 620.952253 205.178545 
L 621.798559 207.239159 
L 622.644865 204.78227 
L 623.491171 205.733325 
L 624.337476 203.989719 
L 625.183782 200.106232 
L 626.030088 201.929075 
L 626.876394 203.038664 
L 627.7227 203.514176 
L 628.569006 202.88016 
L 629.415311 201.691334 
L 630.261617 198.917406 
L 631.107923 195.509431 
L 632.800535 196.539753 
L 633.64684 194.558376 
L 634.493146 193.765825 
L 635.339452 192.81477 
L 636.185758 193.36955 
L 637.032064 192.259961 
L 637.878369 194.003597 
L 638.724675 187.266915 
L 639.570981 186.553601 
L 640.417287 185.998821 
L 641.263593 186.078088 
L 642.956204 185.840317 
L 643.80251 187.504656 
L 644.648816 184.889262 
L 645.495122 183.541932 
L 646.341428 185.047766 
L 647.187733 188.059465 
L 648.034039 188.931253 
L 648.880345 188.138702 
L 649.726651 187.504656 
L 650.572957 187.346152 
L 651.419262 189.406796 
L 652.265568 188.059465 
L 653.111874 188.693482 
L 653.95818 185.285538 
L 654.804486 186.949876 
L 655.650791 182.749381 
L 656.497097 180.60947 
L 657.343403 179.737682 
L 658.189709 178.073313 
L 659.882321 178.231817 
L 660.728626 177.597801 
L 661.574932 177.122258 
L 662.421238 174.506834 
L 663.267544 176.646716 
L 664.11385 177.756305 
L 664.960155 181.481288 
L 665.806461 181.164279 
L 666.652767 175.695661 
L 667.499073 178.231817 
L 670.03799 180.371729 
L 671.730602 182.353106 
L 672.576908 174.823873 
L 673.423213 173.318008 
L 674.269519 172.049945 
L 675.115825 173.635047 
L 675.962131 173.952055 
L 676.808437 172.049945 
L 677.654743 173.55578 
L 678.501048 169.989301 
L 679.347354 170.54408 
L 680.19366 167.136136 
L 681.039966 164.916988 
L 681.886272 167.532411 
L 682.732577 166.185051 
L 683.578883 163.173382 
L 684.425189 167.928687 
L 685.271495 168.324962 
L 686.117801 170.464843 
L 686.964106 171.891441 
L 687.810412 165.868043 
L 688.656718 166.739861 
L 689.503024 165.154759 
L 690.34933 163.014878 
L 691.195635 164.837721 
L 692.041941 166.264318 
L 692.888247 162.539335 
L 693.734553 160.003179 
L 694.580859 160.161683 
L 695.427165 159.289865 
L 696.27347 160.954234 
L 697.119776 159.131361 
L 697.966082 155.723386 
L 698.812388 156.040425 
L 699.658694 161.112738 
L 700.504999 161.112738 
L 701.351305 160.399454 
L 702.197611 160.478691 
L 703.043917 156.198929 
L 703.890223 154.296819 
L 704.736528 153.425001 
L 705.582834 153.742039 
L 706.42914 155.723386 
L 707.275446 162.14306 
L 708.121752 158.814352 
L 708.968057 154.851598 
L 709.814363 150.096293 
L 710.660669 152.394679 
L 711.506975 149.224475 
L 712.353281 150.968111 
L 713.199587 148.194184 
L 714.045892 153.504268 
L 714.892198 153.821276 
L 715.738504 155.88192 
L 716.58481 152.07767 
L 717.431116 150.571836 
L 718.277421 149.541514 
L 719.123727 147.639374 
L 719.970033 148.114916 
L 720.816339 145.895768 
L 721.662645 147.322366 
L 722.50895 147.877145 
L 723.355256 145.182484 
L 724.201562 147.877145 
L 725.047868 148.114916 
L 725.894174 151.047348 
L 726.740479 146.212806 
L 728.433091 147.401633 
L 729.279397 147.639374 
L 730.125703 146.767586 
L 730.972009 147.005357 
L 731.818314 146.371311 
L 732.66462 145.340989 
L 733.510926 142.329289 
L 734.357232 147.163861 
L 735.203538 145.657997 
L 736.896149 144.706942 
L 737.742455 140.427179 
L 738.588761 140.902722 
L 739.435067 137.494747 
L 740.281372 137.97026 
L 741.127678 137.97026 
L 741.973984 137.336243 
L 742.82029 134.324544 
L 743.666596 134.879324 
L 745.359207 133.928269 
L 746.205513 133.928269 
L 747.051819 137.97026 
L 747.898125 137.97026 
L 748.744431 138.287298 
L 749.590736 136.702197 
L 750.437042 137.256976 
L 751.283348 135.434103 
L 752.129654 138.445802 
L 752.97596 135.751142 
L 753.822265 134.324544 
L 754.668571 136.226654 
L 755.514877 134.958591 
L 756.361183 134.007536 
L 757.207489 130.599561 
L 758.053794 128.618184 
L 758.9001 134.245277 
L 759.746406 135.354866 
L 760.592712 133.214985 
L 761.439018 128.776688 
L 762.285324 133.769765 
L 763.131629 132.343167 
L 763.977935 131.154341 
L 764.824241 131.075074 
L 765.670547 134.324544 
L 766.516853 134.007536 
L 768.209464 127.984138 
L 769.05577 131.233608 
L 769.902076 129.807011 
L 770.748382 127.429358 
L 771.594687 126.478303 
L 772.440993 127.191587 
L 773.287299 126.874579 
L 774.133605 127.587862 
L 774.979911 127.270854 
L 775.826216 129.807011 
L 776.672522 129.569239 
L 777.518828 127.191587 
L 778.365134 128.697421 
L 779.21144 126.002761 
L 780.057746 125.447981 
L 780.904051 126.240532 
L 781.750357 124.813934 
L 782.596663 123.783612 
L 783.442969 117.60174 
L 784.289275 121.326723 
L 785.13558 122.436282 
L 786.828192 115.6996 
L 787.674498 116.412914 
L 788.520804 120.296401 
L 789.367109 117.522473 
L 791.059721 118.077252 
L 791.906027 119.028307 
L 792.752333 119.50385 
L 793.598638 115.224088 
L 795.29125 120.692676 
L 796.137556 121.40596 
L 796.983862 121.168219 
L 797.830168 119.107575 
L 798.676473 118.790566 
L 799.522779 115.065553 
L 800.369085 113.163443 
L 801.215391 108.883681 
L 802.061697 108.962918 
L 802.908002 108.249634 
L 803.754308 111.816113 
L 804.600614 114.510774 
L 805.44692 112.925672 
L 806.293226 115.224088 
L 807.985837 112.608664 
L 808.832143 110.072507 
L 809.678449 113.163443 
L 810.524755 113.242711 
L 811.37106 114.510774 
L 812.217366 110.389516 
L 813.063672 112.291656 
L 813.909978 113.163443 
L 814.756284 113.480482 
L 815.60259 111.89538 
L 816.448895 113.321948 
L 817.295201 111.340571 
L 818.987813 105.634211 
L 819.834119 105.951249 
L 820.680424 107.219312 
L 821.52673 105.000164 
L 822.373036 107.377816 
L 823.219342 107.060808 
L 824.065648 106.426761 
L 824.911953 109.596965 
L 825.758259 106.823037 
L 826.604565 107.774092 
L 827.450871 106.7438 
L 828.297177 105.475707 
L 829.143482 106.902304 
L 829.989788 104.128376 
L 830.836094 103.890605 
L 831.6824 107.932626 
L 832.528706 106.823037 
L 833.375012 106.426761 
L 834.221317 104.128376 
L 835.067623 108.170367 
L 835.913929 111.261334 
L 836.760235 107.060808 
L 837.606541 108.170367 
L 838.452846 105.634211 
L 840.145458 103.890605 
L 840.991764 103.969872 
L 841.83807 105.158698 
L 842.684375 106.030486 
L 843.530681 104.920927 
L 844.376987 107.219312 
L 845.223293 109.121452 
L 846.069599 104.049109 
L 846.915904 103.494329 
L 847.76221 101.750724 
L 848.608516 102.622542 
L 849.454822 102.146999 
L 850.301128 102.464007 
L 851.147434 103.098054 
L 851.993739 104.603919 
L 852.840045 102.701779 
L 853.686351 104.762423 
L 854.532657 102.38477 
L 855.378963 102.146999 
L 856.225268 102.701779 
L 857.071574 101.829991 
L 857.91788 103.415092 
L 858.764186 103.652834 
L 859.610492 99.769347 
L 860.456797 102.146999 
L 861.303103 101.354448 
L 862.149409 103.256558 
L 862.995715 103.335825 
L 863.842021 99.531575 
L 864.688327 100.324126 
L 865.534632 99.927851 
L 866.380938 102.146999 
L 867.227244 101.671457 
L 868.07355 104.366147 
L 868.919856 103.811368 
L 869.766161 101.512952 
L 870.612467 102.067732 
L 871.458773 101.433715 
L 872.305079 103.256558 
L 873.151385 103.732101 
L 873.99769 102.622542 
L 874.843996 103.969872 
L 875.690302 103.335825 
L 876.536608 99.927851 
L 877.382914 102.146999 
L 878.229219 101.354448 
L 879.921831 100.324126 
L 880.768137 100.561897 
L 881.614443 102.464007 
L 882.460749 102.067732 
L 883.307054 102.701779 
L 884.15336 101.433715 
L 884.999666 101.433715 
L 885.845972 100.958173 
L 886.692278 99.373071 
L 887.538583 97.391694 
L 888.384889 97.470961 
L 889.231195 96.916152 
L 890.077501 96.044364 
L 890.923807 96.678411 
L 891.770112 96.361372 
L 892.616418 94.379995 
L 893.462724 94.934775 
L 894.30903 99.214567 
L 895.155336 97.550198 
L 896.001641 98.342749 
L 896.847947 97.946474 
L 897.694253 97.153923 
L 898.540559 98.818292 
L 899.386865 101.03744 
L 900.233171 100.878906 
L 901.079476 100.244889 
L 901.925782 99.293804 
L 902.772088 98.897529 
L 903.618394 101.512952 
L 904.4647 99.452338 
L 905.311005 93.904483 
L 906.157311 95.33105 
L 907.003617 96.519876 
L 907.849923 95.965097 
L 908.696229 97.391694 
L 909.542534 96.440639 
L 910.38884 96.678411 
L 911.235146 95.33105 
L 912.081452 93.666711 
L 912.927758 96.044364 
L 913.774063 96.282135 
L 914.620369 94.617766 
L 915.466675 94.77627 
L 916.312981 95.568821 
L 917.159287 96.836915 
L 918.005593 94.697034 
L 918.851898 94.459262 
L 919.698204 92.557152 
L 920.54451 93.349703 
L 921.390816 92.002343 
L 922.237122 95.172546 
L 923.083427 95.489584 
L 923.929733 98.818292 
L 924.776039 96.678411 
L 925.622345 97.470961 
L 926.468651 96.361372 
L 927.314956 94.459262 
L 928.161262 97.153923 
L 929.007568 94.459262 
L 929.853874 92.477885 
L 930.70018 92.08161 
L 931.546485 90.338004 
L 932.392791 90.496508 
L 933.239097 91.209792 
L 934.085403 92.477885 
L 934.931709 92.319381 
L 935.778015 92.636389 
L 936.62432 92.002343 
L 937.470626 91.843839 
L 938.316932 92.398618 
L 939.163238 93.508207 
L 940.009544 91.289059 
L 940.855849 92.715656 
L 941.702155 92.953428 
L 942.548461 91.52683 
L 943.394767 89.703957 
L 944.241073 89.941729 
L 945.087378 89.862461 
L 945.933684 88.673635 
L 946.77999 90.1795 
L 947.626296 90.100233 
L 948.472602 88.752902 
L 949.318908 89.941729 
L 950.165213 89.783224 
L 951.011519 90.734279 
L 951.857825 93.191169 
L 952.704131 92.874161 
L 953.550437 92.953428 
L 954.396742 91.447563 
L 955.243048 91.447563 
L 956.089354 91.289059 
L 956.93566 88.832139 
L 958.628271 89.783224 
L 959.474577 89.069911 
L 960.320883 90.338004 
L 961.167189 89.941729 
L 962.013495 90.813516 
L 962.8598 90.258737 
L 963.706106 90.1795 
L 964.552412 91.764602 
L 965.398718 90.1795 
L 966.245024 90.655012 
L 967.09133 90.417241 
L 967.937635 91.051288 
L 969.630247 88.752902 
L 970.476553 88.594398 
L 971.322859 89.069911 
L 972.169164 88.752902 
L 973.01547 88.198123 
L 973.861776 88.911407 
L 974.708082 88.990674 
L 975.554388 90.734279 
L 976.400693 90.020966 
L 977.246999 88.039589 
L 978.939611 87.801847 
L 979.785917 88.27736 
L 980.632222 87.326305 
L 981.478528 88.515131 
L 982.324834 88.990674 
L 983.17114 88.198123 
L 984.017446 88.594398 
L 984.863752 87.167801 
L 985.710057 88.198123 
L 986.556363 88.911407 
L 987.402669 88.673635 
L 988.248975 88.118856 
L 989.941586 85.503432 
L 990.787892 85.107157 
L 991.634198 86.137479 
L 993.32681 84.790148 
L 994.173115 84.393873 
L 995.019421 85.02792 
L 995.865727 85.503432 
L 997.558339 86.137479 
L 998.404644 86.771525 
L 999.25095 86.771525 
L 1000.097256 86.37525 
L 1000.943562 86.771525 
L 1001.789868 86.058212 
L 1002.636174 87.088534 
L 1003.482479 86.613021 
L 1003.482479 86.613021 
" clip-path="url(#p22c29107a2)" style="fill: none; stroke: #dd8452; stroke-width: 6; stroke-linecap: round"/>
   </g>
   <g id="line2d_15"/>
   <g id="line2d_16"/>
   <g id="patch_3">
    <path d="M 115.75 609.894375 
L 115.75 54.554375 
" style="fill: none; stroke: #cccccc; stroke-width: 1.875; stroke-linejoin: miter; stroke-linecap: square"/>
   </g>
   <g id="patch_4">
    <path d="M 1045.755455 609.894375 
L 1045.755455 54.554375 
" style="fill: none; stroke: #cccccc; stroke-width: 1.875; stroke-linejoin: miter; stroke-linecap: square"/>
   </g>
   <g id="patch_5">
    <path d="M 115.75 609.894375 
L 1045.755455 609.894375 
" style="fill: none; stroke: #cccccc; stroke-width: 1.875; stroke-linejoin: miter; stroke-linecap: square"/>
   </g>
   <g id="patch_6">
    <path d="M 115.75 54.554375 
L 1045.755455 54.554375 
" style="fill: none; stroke: #cccccc; stroke-width: 1.875; stroke-linejoin: miter; stroke-linecap: square"/>
   </g>
   <g id="text_15">
    <!-- Training Progress: Accuracy -->
    <g style="fill: #262626" transform="translate(297.50304 34.554375) scale(0.36 -0.36)">
     <defs>
      <path id="DejaVuSans-Bold-54" d="M 31 4666 
L 4331 4666 
L 4331 3756 
L 2784 3756 
L 2784 0 
L 1581 0 
L 1581 3756 
L 31 3756 
L 31 4666 
z
" transform="scale(0.015625)"/>
      <path id="DejaVuSans-Bold-72" d="M 3138 2547 
Q 2991 2616 2845 2648 
Q 2700 2681 2553 2681 
Q 2122 2681 1889 2404 
Q 1656 2128 1656 1613 
L 1656 0 
L 538 0 
L 538 3500 
L 1656 3500 
L 1656 2925 
Q 1872 3269 2151 3426 
Q 2431 3584 2822 3584 
Q 2878 3584 2943 3579 
Q 3009 3575 3134 3559 
L 3138 2547 
z
" transform="scale(0.015625)"/>
      <path id="DejaVuSans-Bold-61" d="M 2106 1575 
Q 1756 1575 1579 1456 
Q 1403 1338 1403 1106 
Q 1403 894 1545 773 
Q 1688 653 1941 653 
Q 2256 653 2472 879 
Q 2688 1106 2688 1447 
L 2688 1575 
L 2106 1575 
z
M 3816 1997 
L 3816 0 
L 2688 0 
L 2688 519 
Q 2463 200 2181 54 
Q 1900 -91 1497 -91 
Q 953 -91 614 226 
Q 275 544 275 1050 
Q 275 1666 698 1953 
Q 1122 2241 2028 2241 
L 2688 2241 
L 2688 2328 
Q 2688 2594 2478 2717 
Q 2269 2841 1825 2841 
Q 1466 2841 1156 2769 
Q 847 2697 581 2553 
L 581 3406 
Q 941 3494 1303 3539 
Q 1666 3584 2028 3584 
Q 2975 3584 3395 3211 
Q 3816 2838 3816 1997 
z
" transform="scale(0.015625)"/>
      <path id="DejaVuSans-Bold-69" d="M 538 3500 
L 1656 3500 
L 1656 0 
L 538 0 
L 538 3500 
z
M 538 4863 
L 1656 4863 
L 1656 3950 
L 538 3950 
L 538 4863 
z
" transform="scale(0.015625)"/>
      <path id="DejaVuSans-Bold-6e" d="M 4056 2131 
L 4056 0 
L 2931 0 
L 2931 347 
L 2931 1631 
Q 2931 2084 2911 2256 
Q 2891 2428 2841 2509 
Q 2775 2619 2662 2680 
Q 2550 2741 2406 2741 
Q 2056 2741 1856 2470 
Q 1656 2200 1656 1722 
L 1656 0 
L 538 0 
L 538 3500 
L 1656 3500 
L 1656 2988 
Q 1909 3294 2193 3439 
Q 2478 3584 2822 3584 
Q 3428 3584 3742 3212 
Q 4056 2841 4056 2131 
z
" transform="scale(0.015625)"/>
      <path id="DejaVuSans-Bold-67" d="M 2919 594 
Q 2688 288 2409 144 
Q 2131 0 1766 0 
Q 1125 0 706 504 
Q 288 1009 288 1791 
Q 288 2575 706 3076 
Q 1125 3578 1766 3578 
Q 2131 3578 2409 3434 
Q 2688 3291 2919 2981 
L 2919 3500 
L 4044 3500 
L 4044 353 
Q 4044 -491 3511 -936 
Q 2978 -1381 1966 -1381 
Q 1638 -1381 1331 -1331 
Q 1025 -1281 716 -1178 
L 716 -306 
Q 1009 -475 1290 -558 
Q 1572 -641 1856 -641 
Q 2406 -641 2662 -400 
Q 2919 -159 2919 353 
L 2919 594 
z
M 2181 2772 
Q 1834 2772 1640 2515 
Q 1447 2259 1447 1791 
Q 1447 1309 1634 1061 
Q 1822 813 2181 813 
Q 2531 813 2725 1069 
Q 2919 1325 2919 1791 
Q 2919 2259 2725 2515 
Q 2531 2772 2181 2772 
z
" transform="scale(0.015625)"/>
      <path id="DejaVuSans-Bold-20" transform="scale(0.015625)"/>
      <path id="DejaVuSans-Bold-50" d="M 588 4666 
L 2584 4666 
Q 3475 4666 3951 4270 
Q 4428 3875 4428 3144 
Q 4428 2409 3951 2014 
Q 3475 1619 2584 1619 
L 1791 1619 
L 1791 0 
L 588 0 
L 588 4666 
z
M 1791 3794 
L 1791 2491 
L 2456 2491 
Q 2806 2491 2997 2661 
Q 3188 2831 3188 3144 
Q 3188 3456 2997 3625 
Q 2806 3794 2456 3794 
L 1791 3794 
z
" transform="scale(0.015625)"/>
      <path id="DejaVuSans-Bold-6f" d="M 2203 2784 
Q 1831 2784 1636 2517 
Q 1441 2250 1441 1747 
Q 1441 1244 1636 976 
Q 1831 709 2203 709 
Q 2569 709 2762 976 
Q 2956 1244 2956 1747 
Q 2956 2250 2762 2517 
Q 2569 2784 2203 2784 
z
M 2203 3584 
Q 3106 3584 3614 3096 
Q 4122 2609 4122 1747 
Q 4122 884 3614 396 
Q 3106 -91 2203 -91 
Q 1297 -91 786 396 
Q 275 884 275 1747 
Q 275 2609 786 3096 
Q 1297 3584 2203 3584 
z
" transform="scale(0.015625)"/>
      <path id="DejaVuSans-Bold-65" d="M 4031 1759 
L 4031 1441 
L 1416 1441 
Q 1456 1047 1700 850 
Q 1944 653 2381 653 
Q 2734 653 3104 758 
Q 3475 863 3866 1075 
L 3866 213 
Q 3469 63 3072 -14 
Q 2675 -91 2278 -91 
Q 1328 -91 801 392 
Q 275 875 275 1747 
Q 275 2603 792 3093 
Q 1309 3584 2216 3584 
Q 3041 3584 3536 3087 
Q 4031 2591 4031 1759 
z
M 2881 2131 
Q 2881 2450 2695 2645 
Q 2509 2841 2209 2841 
Q 1884 2841 1681 2658 
Q 1478 2475 1428 2131 
L 2881 2131 
z
" transform="scale(0.015625)"/>
      <path id="DejaVuSans-Bold-73" d="M 3272 3391 
L 3272 2541 
Q 2913 2691 2578 2766 
Q 2244 2841 1947 2841 
Q 1628 2841 1473 2761 
Q 1319 2681 1319 2516 
Q 1319 2381 1436 2309 
Q 1553 2238 1856 2203 
L 2053 2175 
Q 2913 2066 3209 1816 
Q 3506 1566 3506 1031 
Q 3506 472 3093 190 
Q 2681 -91 1863 -91 
Q 1516 -91 1145 -36 
Q 775 19 384 128 
L 384 978 
Q 719 816 1070 734 
Q 1422 653 1784 653 
Q 2113 653 2278 743 
Q 2444 834 2444 1013 
Q 2444 1163 2330 1236 
Q 2216 1309 1875 1350 
L 1678 1375 
Q 931 1469 631 1722 
Q 331 1975 331 2491 
Q 331 3047 712 3315 
Q 1094 3584 1881 3584 
Q 2191 3584 2531 3537 
Q 2872 3491 3272 3391 
z
" transform="scale(0.015625)"/>
      <path id="DejaVuSans-Bold-3a" d="M 716 3500 
L 1844 3500 
L 1844 2291 
L 716 2291 
L 716 3500 
z
M 716 1209 
L 1844 1209 
L 1844 0 
L 716 0 
L 716 1209 
z
" transform="scale(0.015625)"/>
      <path id="DejaVuSans-Bold-41" d="M 3419 850 
L 1538 850 
L 1241 0 
L 31 0 
L 1759 4666 
L 3194 4666 
L 4922 0 
L 3713 0 
L 3419 850 
z
M 1838 1716 
L 3116 1716 
L 2478 3572 
L 1838 1716 
z
" transform="scale(0.015625)"/>
      <path id="DejaVuSans-Bold-63" d="M 3366 3391 
L 3366 2478 
Q 3138 2634 2908 2709 
Q 2678 2784 2431 2784 
Q 1963 2784 1702 2511 
Q 1441 2238 1441 1747 
Q 1441 1256 1702 982 
Q 1963 709 2431 709 
Q 2694 709 2930 787 
Q 3166 866 3366 1019 
L 3366 103 
Q 3103 6 2833 -42 
Q 2563 -91 2291 -91 
Q 1344 -91 809 395 
Q 275 881 275 1747 
Q 275 2613 809 3098 
Q 1344 3584 2291 3584 
Q 2566 3584 2833 3536 
Q 3100 3488 3366 3391 
z
" transform="scale(0.015625)"/>
      <path id="DejaVuSans-Bold-75" d="M 500 1363 
L 500 3500 
L 1625 3500 
L 1625 3150 
Q 1625 2866 1622 2436 
Q 1619 2006 1619 1863 
Q 1619 1441 1641 1255 
Q 1663 1069 1716 984 
Q 1784 875 1895 815 
Q 2006 756 2150 756 
Q 2500 756 2700 1025 
Q 2900 1294 2900 1772 
L 2900 3500 
L 4019 3500 
L 4019 0 
L 2900 0 
L 2900 506 
Q 2647 200 2364 54 
Q 2081 -91 1741 -91 
Q 1134 -91 817 281 
Q 500 653 500 1363 
z
" transform="scale(0.015625)"/>
      <path id="DejaVuSans-Bold-79" d="M 78 3500 
L 1197 3500 
L 2138 1125 
L 2938 3500 
L 4056 3500 
L 2584 -331 
Q 2363 -916 2067 -1148 
Q 1772 -1381 1288 -1381 
L 641 -1381 
L 641 -647 
L 991 -647 
Q 1275 -647 1404 -556 
Q 1534 -466 1606 -231 
L 1638 -134 
L 78 3500 
z
" transform="scale(0.015625)"/>
     </defs>
     <use xlink:href="#DejaVuSans-Bold-54"/>
     <use xlink:href="#DejaVuSans-Bold-72" transform="translate(57.212891 0)"/>
     <use xlink:href="#DejaVuSans-Bold-61" transform="translate(106.529297 0)"/>
     <use xlink:href="#DejaVuSans-Bold-69" transform="translate(174.009766 0)"/>
     <use xlink:href="#DejaVuSans-Bold-6e" transform="translate(208.287109 0)"/>
     <use xlink:href="#DejaVuSans-Bold-69" transform="translate(279.478516 0)"/>
     <use xlink:href="#DejaVuSans-Bold-6e" transform="translate(313.755859 0)"/>
     <use xlink:href="#DejaVuSans-Bold-67" transform="translate(384.947266 0)"/>
     <use xlink:href="#DejaVuSans-Bold-20" transform="translate(456.529297 0)"/>
     <use xlink:href="#DejaVuSans-Bold-50" transform="translate(491.34375 0)"/>
     <use xlink:href="#DejaVuSans-Bold-72" transform="translate(564.634766 0)"/>
     <use xlink:href="#DejaVuSans-Bold-6f" transform="translate(613.951172 0)"/>
     <use xlink:href="#DejaVuSans-Bold-67" transform="translate(682.652344 0)"/>
     <use xlink:href="#DejaVuSans-Bold-72" transform="translate(754.234375 0)"/>
     <use xlink:href="#DejaVuSans-Bold-65" transform="translate(803.550781 0)"/>
     <use xlink:href="#DejaVuSans-Bold-73" transform="translate(871.373047 0)"/>
     <use xlink:href="#DejaVuSans-Bold-73" transform="translate(930.894531 0)"/>
     <use xlink:href="#DejaVuSans-Bold-3a" transform="translate(990.416016 0)"/>
     <use xlink:href="#DejaVuSans-Bold-20" transform="translate(1030.40625 0)"/>
     <use xlink:href="#DejaVuSans-Bold-41" transform="translate(1065.220703 0)"/>
     <use xlink:href="#DejaVuSans-Bold-63" transform="translate(1142.613281 0)"/>
     <use xlink:href="#DejaVuSans-Bold-63" transform="translate(1201.890625 0)"/>
     <use xlink:href="#DejaVuSans-Bold-75" transform="translate(1261.167969 0)"/>
     <use xlink:href="#DejaVuSans-Bold-72" transform="translate(1332.359375 0)"/>
     <use xlink:href="#DejaVuSans-Bold-61" transform="translate(1381.675781 0)"/>
     <use xlink:href="#DejaVuSans-Bold-63" transform="translate(1449.15625 0)"/>
     <use xlink:href="#DejaVuSans-Bold-79" transform="translate(1508.433594 0)"/>
    </g>
   </g>
   <g id="legend_1">
    <g id="patch_7">
     <path d="M 846.475455 593.894375 
L 1023.355455 593.894375 
Q 1029.755455 593.894375 1029.755455 587.494375 
L 1029.755455 496.754375 
Q 1029.755455 490.354375 1023.355455 490.354375 
L 846.475455 490.354375 
Q 840.075455 490.354375 840.075455 496.754375 
L 840.075455 587.494375 
Q 840.075455 593.894375 846.475455 593.894375 
z
" style="fill: #ffffff; opacity: 0.8; stroke: #cccccc; stroke-width: 1.5; stroke-linejoin: miter"/>
    </g>
    <g id="line2d_17">
     <path d="M 852.875455 516.269375 
L 884.875455 516.269375 
L 916.875455 516.269375 
" style="fill: none; stroke: #4c72b0; stroke-width: 6; stroke-linecap: round"/>
    </g>
    <g id="text_16">
     <!-- train -->
     <g style="fill: #262626" transform="translate(942.475455 527.469375) scale(0.32 -0.32)">
      <defs>
       <path id="DejaVuSans-74" d="M 1172 4494 
L 1172 3500 
L 2356 3500 
L 2356 3053 
L 1172 3053 
L 1172 1153 
Q 1172 725 1289 603 
Q 1406 481 1766 481 
L 2356 481 
L 2356 0 
L 1766 0 
Q 1100 0 847 248 
Q 594 497 594 1153 
L 594 3053 
L 172 3053 
L 172 3500 
L 594 3500 
L 594 4494 
L 1172 4494 
z
" transform="scale(0.015625)"/>
       <path id="DejaVuSans-69" d="M 603 3500 
L 1178 3500 
L 1178 0 
L 603 0 
L 603 3500 
z
M 603 4863 
L 1178 4863 
L 1178 4134 
L 603 4134 
L 603 4863 
z
" transform="scale(0.015625)"/>
       <path id="DejaVuSans-6e" d="M 3513 2113 
L 3513 0 
L 2938 0 
L 2938 2094 
Q 2938 2591 2744 2837 
Q 2550 3084 2163 3084 
Q 1697 3084 1428 2787 
Q 1159 2491 1159 1978 
L 1159 0 
L 581 0 
L 581 3500 
L 1159 3500 
L 1159 2956 
Q 1366 3272 1645 3428 
Q 1925 3584 2291 3584 
Q 2894 3584 3203 3211 
Q 3513 2838 3513 2113 
z
" transform="scale(0.015625)"/>
      </defs>
      <use xlink:href="#DejaVuSans-74"/>
      <use xlink:href="#DejaVuSans-72" transform="translate(39.208984 0)"/>
      <use xlink:href="#DejaVuSans-61" transform="translate(80.322266 0)"/>
      <use xlink:href="#DejaVuSans-69" transform="translate(141.601562 0)"/>
      <use xlink:href="#DejaVuSans-6e" transform="translate(169.384766 0)"/>
     </g>
    </g>
    <g id="line2d_18">
     <path d="M 852.875455 563.239375 
L 884.875455 563.239375 
L 916.875455 563.239375 
" style="fill: none; stroke: #dd8452; stroke-width: 6; stroke-linecap: round"/>
    </g>
    <g id="text_17">
     <!-- val -->
     <g style="fill: #262626" transform="translate(942.475455 574.439375) scale(0.32 -0.32)">
      <defs>
       <path id="DejaVuSans-76" d="M 191 3500 
L 800 3500 
L 1894 563 
L 2988 3500 
L 3597 3500 
L 2284 0 
L 1503 0 
L 191 3500 
z
" transform="scale(0.015625)"/>
       <path id="DejaVuSans-6c" d="M 603 4863 
L 1178 4863 
L 1178 0 
L 603 0 
L 603 4863 
z
" transform="scale(0.015625)"/>
      </defs>
      <use xlink:href="#DejaVuSans-76"/>
      <use xlink:href="#DejaVuSans-61" transform="translate(59.179688 0)"/>
      <use xlink:href="#DejaVuSans-6c" transform="translate(120.458984 0)"/>
     </g>
    </g>
   </g>
  </g>
 </g>
 <defs>
  <clipPath id="p22c29107a2">
   <rect x="115.75" y="54.554375" width="930.005455" height="555.34"/>
  </clipPath>
 </defs>
</svg>
