<?xml version="1.0" encoding="utf-8" standalone="no"?>
<!DOCTYPE svg PUBLIC "-//W3C//DTD SVG 1.1//EN"
  "http://www.w3.org/Graphics/SVG/1.1/DTD/svg11.dtd">
<svg xmlns:xlink="http://www.w3.org/1999/xlink" width="1052.825455pt" height="695.534375pt" viewBox="0 0 1052.825455 695.534375" xmlns="http://www.w3.org/2000/svg" version="1.1">
 <metadata>
  <rdf:RDF xmlns:dc="http://purl.org/dc/elements/1.1/" xmlns:cc="http://creativecommons.org/ns#" xmlns:rdf="http://www.w3.org/1999/02/22-rdf-syntax-ns#">
   <cc:Work>
    <dc:type rdf:resource="http://purl.org/dc/dcmitype/StillImage"/>
    <dc:date>2026-04-10T14:00:33.998394</dc:date>
    <dc:format>image/svg+xml</dc:format>
    <dc:creator>
     <cc:Agent>
      <dc:title>Matplotlib v3.10.8, https://matplotlib.org/</dc:title>
     </cc:Agent>
    </dc:creator>
   </cc:Work>
  </rdf:RDF>
 </metadata>
 <defs>
  <style type="text/css">*{stroke-linejoin: round; stroke-linecap: butt}</style>
 </defs>
 <g id="figure_1">
  <g id="patch_1">
   <path d="M 0 695.534375 
L 1052.825455 695.534375 
L 1052.825455 0 
L 0 0 
z
" style="fill: #ffffff"/>
  </g>
  <g id="axes_1">
   <g id="patch_2">
    <path d="M 75.03 609.894375 
L 1045.625455 609.894375 
L 1045.625455 54.554375 
L 75.03 54.554375 
z
" style="fill: #ffffff"/>
   </g>
   <g id="matplotlib.axis_1">
    <g id="xtick_1">
     <g id="line2d_1">
      <path d="M 118.264732 609.894375 
L 118.264732 54.554375 
" clip-path="url(#p3ef615d20c)" style="fill: none; stroke: #cccccc; stroke-opacity: 0.3; stroke-width: 1.5; stroke-linecap: round"/>
     </g>
     <g id="text_1">
      <!-- 0 -->
      <g style="fill: #262626" transform="translate(108.084732 646.709375) scale(0.32 -0.32)">
       <defs>
        <path id="DejaVuSans-30" d="M 2034 4250 
Q 1547 4250 1301 3770 
Q 1056 3291 1056 2328 
Q 1056 1369 1301 889 
Q 1547 409 2034 409 
Q 2525 409 2770 889 
Q 3016 1369 3016 2328 
Q 3016 3291 2770 3770 
Q 2525 4250 2034 4250 
z
M 2034 4750 
Q 2819 4750 3233 4129 
Q 3647 3509 3647 2328 
Q 3647 1150 3233 529 
Q 2819 -91 2034 -91 
Q 1250 -91 836 529 
Q 422 1150 422 2328 
Q 422 3509 836 4129 
Q 1250 4750 2034 4750 
z
" transform="scale(0.015625)"/>
       </defs>
       <use xlink:href="#DejaVuSans-30"/>
      </g>
     </g>
    </g>
    <g id="xtick_2">
     <g id="line2d_2">
      <path d="M 294.913282 609.894375 
L 294.913282 54.554375 
" clip-path="url(#p3ef615d20c)" style="fill: none; stroke: #cccccc; stroke-opacity: 0.3; stroke-width: 1.5; stroke-linecap: round"/>
     </g>
     <g id="text_2">
      <!-- 200 -->
      <g style="fill: #262626" transform="translate(264.373282 646.709375) scale(0.32 -0.32)">
       <defs>
        <path id="DejaVuSans-32" d="M 1228 531 
L 3431 531 
L 3431 0 
L 469 0 
L 469 531 
Q 828 903 1448 1529 
Q 2069 2156 2228 2338 
Q 2531 2678 2651 2914 
Q 2772 3150 2772 3378 
Q 2772 3750 2511 3984 
Q 2250 4219 1831 4219 
Q 1534 4219 1204 4116 
Q 875 4013 500 3803 
L 500 4441 
Q 881 4594 1212 4672 
Q 1544 4750 1819 4750 
Q 2544 4750 2975 4387 
Q 3406 4025 3406 3419 
Q 3406 3131 3298 2873 
Q 3191 2616 2906 2266 
Q 2828 2175 2409 1742 
Q 1991 1309 1228 531 
z
" transform="scale(0.015625)"/>
       </defs>
       <use xlink:href="#DejaVuSans-32"/>
       <use xlink:href="#DejaVuSans-30" transform="translate(63.623047 0)"/>
       <use xlink:href="#DejaVuSans-30" transform="translate(127.246094 0)"/>
      </g>
     </g>
    </g>
    <g id="xtick_3">
     <g id="line2d_3">
      <path d="M 471.561831 609.894375 
L 471.561831 54.554375 
" clip-path="url(#p3ef615d20c)" style="fill: none; stroke: #cccccc; stroke-opacity: 0.3; stroke-width: 1.5; stroke-linecap: round"/>
     </g>
     <g id="text_3">
      <!-- 400 -->
      <g style="fill: #262626" transform="translate(441.021831 646.709375) scale(0.32 -0.32)">
       <defs>
        <path id="DejaVuSans-34" d="M 2419 4116 
L 825 1625 
L 2419 1625 
L 2419 4116 
z
M 2253 4666 
L 3047 4666 
L 3047 1625 
L 3713 1625 
L 3713 1100 
L 3047 1100 
L 3047 0 
L 2419 0 
L 2419 1100 
L 313 1100 
L 313 1709 
L 2253 4666 
z
" transform="scale(0.015625)"/>
       </defs>
       <use xlink:href="#DejaVuSans-34"/>
       <use xlink:href="#DejaVuSans-30" transform="translate(63.623047 0)"/>
       <use xlink:href="#DejaVuSans-30" transform="translate(127.246094 0)"/>
      </g>
     </g>
    </g>
    <g id="xtick_4">
     <g id="line2d_4">
      <path d="M 648.210381 609.894375 
L 648.210381 54.554375 
" clip-path="url(#p3ef615d20c)" style="fill: none; stroke: #cccccc; stroke-opacity: 0.3; stroke-width: 1.5; stroke-linecap: round"/>
     </g>
     <g id="text_4">
      <!-- 600 -->
      <g style="fill: #262626" transform="translate(617.670381 646.709375) scale(0.32 -0.32)">
       <defs>
        <path id="DejaVuSans-36" d="M 2113 2584 
Q 1688 2584 1439 2293 
Q 1191 2003 1191 1497 
Q 1191 994 1439 701 
Q 1688 409 2113 409 
Q 2538 409 2786 701 
Q 3034 994 3034 1497 
Q 3034 2003 2786 2293 
Q 2538 2584 2113 2584 
z
M 3366 4563 
L 3366 3988 
Q 3128 4100 2886 4159 
Q 2644 4219 2406 4219 
Q 1781 4219 1451 3797 
Q 1122 3375 1075 2522 
Q 1259 2794 1537 2939 
Q 1816 3084 2150 3084 
Q 2853 3084 3261 2657 
Q 3669 2231 3669 1497 
Q 3669 778 3244 343 
Q 2819 -91 2113 -91 
Q 1303 -91 875 529 
Q 447 1150 447 2328 
Q 447 3434 972 4092 
Q 1497 4750 2381 4750 
Q 2619 4750 2861 4703 
Q 3103 4656 3366 4563 
z
" transform="scale(0.015625)"/>
       </defs>
       <use xlink:href="#DejaVuSans-36"/>
       <use xlink:href="#DejaVuSans-30" transform="translate(63.623047 0)"/>
       <use xlink:href="#DejaVuSans-30" transform="translate(127.246094 0)"/>
      </g>
     </g>
    </g>
    <g id="xtick_5">
     <g id="line2d_5">
      <path d="M 824.85893 609.894375 
L 824.85893 54.554375 
" clip-path="url(#p3ef615d20c)" style="fill: none; stroke: #cccccc; stroke-opacity: 0.3; stroke-width: 1.5; stroke-linecap: round"/>
     </g>
     <g id="text_5">
      <!-- 800 -->
      <g style="fill: #262626" transform="translate(794.31893 646.709375) scale(0.32 -0.32)">
       <defs>
        <path id="DejaVuSans-38" d="M 2034 2216 
Q 1584 2216 1326 1975 
Q 1069 1734 1069 1313 
Q 1069 891 1326 650 
Q 1584 409 2034 409 
Q 2484 409 2743 651 
Q 3003 894 3003 1313 
Q 3003 1734 2745 1975 
Q 2488 2216 2034 2216 
z
M 1403 2484 
Q 997 2584 770 2862 
Q 544 3141 544 3541 
Q 544 4100 942 4425 
Q 1341 4750 2034 4750 
Q 2731 4750 3128 4425 
Q 3525 4100 3525 3541 
Q 3525 3141 3298 2862 
Q 3072 2584 2669 2484 
Q 3125 2378 3379 2068 
Q 3634 1759 3634 1313 
Q 3634 634 3220 271 
Q 2806 -91 2034 -91 
Q 1263 -91 848 271 
Q 434 634 434 1313 
Q 434 1759 690 2068 
Q 947 2378 1403 2484 
z
M 1172 3481 
Q 1172 3119 1398 2916 
Q 1625 2713 2034 2713 
Q 2441 2713 2670 2916 
Q 2900 3119 2900 3481 
Q 2900 3844 2670 4047 
Q 2441 4250 2034 4250 
Q 1625 4250 1398 4047 
Q 1172 3844 1172 3481 
z
" transform="scale(0.015625)"/>
       </defs>
       <use xlink:href="#DejaVuSans-38"/>
       <use xlink:href="#DejaVuSans-30" transform="translate(63.623047 0)"/>
       <use xlink:href="#DejaVuSans-30" transform="translate(127.246094 0)"/>
      </g>
     </g>
    </g>
    <g id="xtick_6">
     <g id="line2d_6">
      <path d="M 1001.507479 609.894375 
L 1001.507479 54.554375 
" clip-path="url(#p3ef615d20c)" style="fill: none; stroke: #cccccc; stroke-opacity: 0.3; stroke-width: 1.5; stroke-linecap: round"/>
     </g>
     <g id="text_6">
      <!-- 1000 -->
      <g style="fill: #262626" transform="translate(960.787479 646.709375) scale(0.32 -0.32)">
       <defs>
        <path id="DejaVuSans-31" d="M 794 531 
L 1825 531 
L 1825 4091 
L 703 3866 
L 703 4441 
L 1819 4666 
L 2450 4666 
L 2450 531 
L 3481 531 
L 3481 0 
L 794 0 
L 794 531 
z
" transform="scale(0.015625)"/>
       </defs>
       <use xlink:href="#DejaVuSans-31"/>
       <use xlink:href="#DejaVuSans-30" transform="translate(63.623047 0)"/>
       <use xlink:href="#DejaVuSans-30" transform="translate(127.246094 0)"/>
       <use xlink:href="#DejaVuSans-30" transform="translate(190.869141 0)"/>
      </g>
     </g>
    </g>
    <g id="text_7">
     <!-- Epoch -->
     <g style="fill: #262626" transform="translate(511.332727 681.679375) scale(0.32 -0.32)">
      <defs>
       <path id="DejaVuSans-45" d="M 628 4666 
L 3578 4666 
L 3578 4134 
L 1259 4134 
L 1259 2753 
L 3481 2753 
L 3481 2222 
L 1259 2222 
L 1259 531 
L 3634 531 
L 3634 0 
L 628 0 
L 628 4666 
z
" transform="scale(0.015625)"/>
       <path id="DejaVuSans-70" d="M 1159 525 
L 1159 -1331 
L 581 -1331 
L 581 3500 
L 1159 3500 
L 1159 2969 
Q 1341 3281 1617 3432 
Q 1894 3584 2278 3584 
Q 2916 3584 3314 3078 
Q 3713 2572 3713 1747 
Q 3713 922 3314 415 
Q 2916 -91 2278 -91 
Q 1894 -91 1617 61 
Q 1341 213 1159 525 
z
M 3116 1747 
Q 3116 2381 2855 2742 
Q 2594 3103 2138 3103 
Q 1681 3103 1420 2742 
Q 1159 2381 1159 1747 
Q 1159 1113 1420 752 
Q 1681 391 2138 391 
Q 2594 391 2855 752 
Q 3116 1113 3116 1747 
z
" transform="scale(0.015625)"/>
       <path id="DejaVuSans-6f" d="M 1959 3097 
Q 1497 3097 1228 2736 
Q 959 2375 959 1747 
Q 959 1119 1226 758 
Q 1494 397 1959 397 
Q 2419 397 2687 759 
Q 2956 1122 2956 1747 
Q 2956 2369 2687 2733 
Q 2419 3097 1959 3097 
z
M 1959 3584 
Q 2709 3584 3137 3096 
Q 3566 2609 3566 1747 
Q 3566 888 3137 398 
Q 2709 -91 1959 -91 
Q 1206 -91 779 398 
Q 353 888 353 1747 
Q 353 2609 779 3096 
Q 1206 3584 1959 3584 
z
" transform="scale(0.015625)"/>
       <path id="DejaVuSans-63" d="M 3122 3366 
L 3122 2828 
Q 2878 2963 2633 3030 
Q 2388 3097 2138 3097 
Q 1578 3097 1268 2742 
Q 959 2388 959 1747 
Q 959 1106 1268 751 
Q 1578 397 2138 397 
Q 2388 397 2633 464 
Q 2878 531 3122 666 
L 3122 134 
Q 2881 22 2623 -34 
Q 2366 -91 2075 -91 
Q 1284 -91 818 406 
Q 353 903 353 1747 
Q 353 2603 823 3093 
Q 1294 3584 2113 3584 
Q 2378 3584 2631 3529 
Q 2884 3475 3122 3366 
z
" transform="scale(0.015625)"/>
       <path id="DejaVuSans-68" d="M 3513 2113 
L 3513 0 
L 2938 0 
L 2938 2094 
Q 2938 2591 2744 2837 
Q 2550 3084 2163 3084 
Q 1697 3084 1428 2787 
Q 1159 2491 1159 1978 
L 1159 0 
L 581 0 
L 581 4863 
L 1159 4863 
L 1159 2956 
Q 1366 3272 1645 3428 
Q 1925 3584 2291 3584 
Q 2894 3584 3203 3211 
Q 3513 2838 3513 2113 
z
" transform="scale(0.015625)"/>
      </defs>
      <use xlink:href="#DejaVuSans-45"/>
      <use xlink:href="#DejaVuSans-70" transform="translate(63.183594 0)"/>
      <use xlink:href="#DejaVuSans-6f" transform="translate(126.660156 0)"/>
      <use xlink:href="#DejaVuSans-63" transform="translate(187.841797 0)"/>
      <use xlink:href="#DejaVuSans-68" transform="translate(242.822266 0)"/>
     </g>
    </g>
   </g>
   <g id="matplotlib.axis_2">
    <g id="ytick_1">
     <g id="line2d_7">
      <path d="M 75.03 584.793423 
L 1045.625455 584.793423 
" clip-path="url(#p3ef615d20c)" style="fill: none; stroke: #cccccc; stroke-opacity: 0.3; stroke-width: 1.5; stroke-linecap: round"/>
     </g>
     <g id="text_8">
      <!-- 0 -->
      <g style="fill: #262626" transform="translate(42.17 596.950923) scale(0.32 -0.32)">
       <use xlink:href="#DejaVuSans-30"/>
      </g>
     </g>
    </g>
    <g id="ytick_2">
     <g id="line2d_8">
      <path d="M 75.03 487.343119 
L 1045.625455 487.343119 
" clip-path="url(#p3ef615d20c)" style="fill: none; stroke: #cccccc; stroke-opacity: 0.3; stroke-width: 1.5; stroke-linecap: round"/>
     </g>
     <g id="text_9">
      <!-- 1 -->
      <g style="fill: #262626" transform="translate(42.17 499.500619) scale(0.32 -0.32)">
       <use xlink:href="#DejaVuSans-31"/>
      </g>
     </g>
    </g>
    <g id="ytick_3">
     <g id="line2d_9">
      <path d="M 75.03 389.892815 
L 1045.625455 389.892815 
" clip-path="url(#p3ef615d20c)" style="fill: none; stroke: #cccccc; stroke-opacity: 0.3; stroke-width: 1.5; stroke-linecap: round"/>
     </g>
     <g id="text_10">
      <!-- 2 -->
      <g style="fill: #262626" transform="translate(42.17 402.050315) scale(0.32 -0.32)">
       <use xlink:href="#DejaVuSans-32"/>
      </g>
     </g>
    </g>
    <g id="ytick_4">
     <g id="line2d_10">
      <path d="M 75.03 292.442511 
L 1045.625455 292.442511 
" clip-path="url(#p3ef615d20c)" style="fill: none; stroke: #cccccc; stroke-opacity: 0.3; stroke-width: 1.5; stroke-linecap: round"/>
     </g>
     <g id="text_11">
      <!-- 3 -->
      <g style="fill: #262626" transform="translate(42.17 304.600011) scale(0.32 -0.32)">
       <defs>
        <path id="DejaVuSans-33" d="M 2597 2516 
Q 3050 2419 3304 2112 
Q 3559 1806 3559 1356 
Q 3559 666 3084 287 
Q 2609 -91 1734 -91 
Q 1441 -91 1130 -33 
Q 819 25 488 141 
L 488 750 
Q 750 597 1062 519 
Q 1375 441 1716 441 
Q 2309 441 2620 675 
Q 2931 909 2931 1356 
Q 2931 1769 2642 2001 
Q 2353 2234 1838 2234 
L 1294 2234 
L 1294 2753 
L 1863 2753 
Q 2328 2753 2575 2939 
Q 2822 3125 2822 3475 
Q 2822 3834 2567 4026 
Q 2313 4219 1838 4219 
Q 1578 4219 1281 4162 
Q 984 4106 628 3988 
L 628 4550 
Q 988 4650 1302 4700 
Q 1616 4750 1894 4750 
Q 2613 4750 3031 4423 
Q 3450 4097 3450 3541 
Q 3450 3153 3228 2886 
Q 3006 2619 2597 2516 
z
" transform="scale(0.015625)"/>
       </defs>
       <use xlink:href="#DejaVuSans-33"/>
      </g>
     </g>
    </g>
    <g id="ytick_5">
     <g id="line2d_11">
      <path d="M 75.03 194.992206 
L 1045.625455 194.992206 
" clip-path="url(#p3ef615d20c)" style="fill: none; stroke: #cccccc; stroke-opacity: 0.3; stroke-width: 1.5; stroke-linecap: round"/>
     </g>
     <g id="text_12">
      <!-- 4 -->
      <g style="fill: #262626" transform="translate(42.17 207.149706) scale(0.32 -0.32)">
       <use xlink:href="#DejaVuSans-34"/>
      </g>
     </g>
    </g>
    <g id="ytick_6">
     <g id="line2d_12">
      <path d="M 75.03 97.541902 
L 1045.625455 97.541902 
" clip-path="url(#p3ef615d20c)" style="fill: none; stroke: #cccccc; stroke-opacity: 0.3; stroke-width: 1.5; stroke-linecap: round"/>
     </g>
     <g id="text_13">
      <!-- 5 -->
      <g style="fill: #262626" transform="translate(42.17 109.699402) scale(0.32 -0.32)">
       <defs>
        <path id="DejaVuSans-35" d="M 691 4666 
L 3169 4666 
L 3169 4134 
L 1269 4134 
L 1269 2991 
Q 1406 3038 1543 3061 
Q 1681 3084 1819 3084 
Q 2600 3084 3056 2656 
Q 3513 2228 3513 1497 
Q 3513 744 3044 326 
Q 2575 -91 1722 -91 
Q 1428 -91 1123 -41 
Q 819 9 494 109 
L 494 744 
Q 775 591 1075 516 
Q 1375 441 1709 441 
Q 2250 441 2565 725 
Q 2881 1009 2881 1497 
Q 2881 1984 2565 2268 
Q 2250 2553 1709 2553 
Q 1456 2553 1204 2497 
Q 953 2441 691 2322 
L 691 4666 
z
" transform="scale(0.015625)"/>
       </defs>
       <use xlink:href="#DejaVuSans-35"/>
      </g>
     </g>
    </g>
    <g id="text_14">
     <!-- Loss -->
     <g style="fill: #262626" transform="translate(31.515 367.319375) rotate(-90) scale(0.32 -0.32)">
      <defs>
       <path id="DejaVuSans-4c" d="M 628 4666 
L 1259 4666 
L 1259 531 
L 3531 531 
L 3531 0 
L 628 0 
L 628 4666 
z
" transform="scale(0.015625)"/>
       <path id="DejaVuSans-73" d="M 2834 3397 
L 2834 2853 
Q 2591 2978 2328 3040 
Q 2066 3103 1784 3103 
Q 1356 3103 1142 2972 
Q 928 2841 928 2578 
Q 928 2378 1081 2264 
Q 1234 2150 1697 2047 
L 1894 2003 
Q 2506 1872 2764 1633 
Q 3022 1394 3022 966 
Q 3022 478 2636 193 
Q 2250 -91 1575 -91 
Q 1294 -91 989 -36 
Q 684 19 347 128 
L 347 722 
Q 666 556 975 473 
Q 1284 391 1588 391 
Q 1994 391 2212 530 
Q 2431 669 2431 922 
Q 2431 1156 2273 1281 
Q 2116 1406 1581 1522 
L 1381 1569 
Q 847 1681 609 1914 
Q 372 2147 372 2553 
Q 372 3047 722 3315 
Q 1072 3584 1716 3584 
Q 2034 3584 2315 3537 
Q 2597 3491 2834 3397 
z
" transform="scale(0.015625)"/>
      </defs>
      <use xlink:href="#DejaVuSans-4c"/>
      <use xlink:href="#DejaVuSans-6f" transform="translate(53.962891 0)"/>
      <use xlink:href="#DejaVuSans-73" transform="translate(115.144531 0)"/>
      <use xlink:href="#DejaVuSans-73" transform="translate(167.244141 0)"/>
     </g>
    </g>
   </g>
   <g id="FillBetweenPolyCollection_1"/>
   <g id="FillBetweenPolyCollection_2"/>
   <g id="line2d_13">
    <path d="M 119.147975 115.082383 
L 120.031218 121.563868 
L 121.797703 123.423747 
L 122.680946 125.557972 
L 123.564189 128.499299 
L 124.447432 137.15014 
L 125.330674 146.91965 
L 128.863645 193.525632 
L 130.630131 220.432769 
L 131.513374 235.237752 
L 134.163102 286.342596 
L 135.929587 327.244292 
L 137.696073 367.494066 
L 138.579316 384.103074 
L 139.462558 405.315369 
L 142.995529 468.655659 
L 143.878772 483.57974 
L 147.411743 521.952587 
L 149.178229 537.338896 
L 150.061471 542.108294 
L 150.944714 546.216709 
L 151.827957 549.777035 
L 152.7112 552.207932 
L 153.594442 555.959172 
L 156.244171 563.13965 
L 157.127413 564.069344 
L 158.010656 565.785262 
L 158.893899 566.353243 
L 159.777142 568.296168 
L 160.660384 569.688388 
L 161.543627 569.933511 
L 162.42687 571.336926 
L 163.310113 570.976849 
L 165.076598 572.707053 
L 165.959841 572.953837 
L 167.726326 572.878509 
L 168.609569 573.122972 
L 169.492812 574.003589 
L 170.376055 574.318475 
L 171.259297 574.753601 
L 172.14254 575.348152 
L 173.025783 575.548435 
L 173.909026 576.268159 
L 174.792268 576.301375 
L 175.675511 576.54414 
L 176.558754 576.28646 
L 177.441997 575.902688 
L 178.325239 576.65246 
L 180.091725 577.096827 
L 181.85821 576.707396 
L 182.741453 577.229053 
L 183.624696 577.204587 
L 184.507938 577.647519 
L 187.157667 578.282818 
L 188.040909 578.249975 
L 188.924152 577.956735 
L 189.807395 578.216418 
L 190.690638 579.03165 
L 191.57388 579.425071 
L 193.340366 580.372857 
L 194.223609 579.502983 
L 195.106851 578.868475 
L 195.990094 577.782013 
L 197.75658 578.602662 
L 198.639822 578.41679 
L 199.523065 578.857214 
L 200.406308 579.559564 
L 203.056036 579.7911 
L 203.939279 580.156826 
L 204.822522 579.736042 
L 205.705764 580.349803 
L 207.47225 579.585717 
L 209.238735 579.787768 
L 210.121978 579.335197 
L 211.005221 578.737317 
L 211.888464 578.689682 
L 212.771706 579.90068 
L 213.654949 580.618604 
L 214.538192 580.252543 
L 216.304677 581.264898 
L 217.18792 580.835464 
L 218.071163 580.922823 
L 218.954406 580.778569 
L 219.837648 579.998019 
L 221.604134 579.596144 
L 222.487377 579.838107 
L 223.370619 580.462744 
L 224.253862 580.873337 
L 225.137105 581.090289 
L 226.020348 580.801553 
L 227.786833 581.549155 
L 228.670076 580.894755 
L 229.553319 581.223898 
L 230.436561 581.044677 
L 231.319804 581.478132 
L 233.08629 580.563403 
L 233.969532 580.658821 
L 234.852775 580.421568 
L 235.736018 580.681508 
L 236.619261 580.689092 
L 237.502503 580.909204 
L 239.268989 581.079319 
L 240.152232 580.584116 
L 241.035474 581.273935 
L 241.918717 581.138768 
L 243.685203 581.467497 
L 245.451688 581.439511 
L 246.334931 581.068081 
L 247.218174 581.016299 
L 248.101416 580.547528 
L 248.984659 581.553335 
L 249.867902 580.943794 
L 250.751144 582.111847 
L 252.51763 582.258346 
L 253.400873 581.70573 
L 254.284115 581.698642 
L 255.167358 581.348619 
L 256.050601 581.291164 
L 256.933844 581.494282 
L 257.817086 581.279372 
L 259.583572 581.206917 
L 260.466815 580.693467 
L 261.350057 581.560375 
L 262.2333 581.334079 
L 263.116543 581.876097 
L 263.999786 581.877069 
L 264.883028 582.429468 
L 266.649514 581.803566 
L 267.532757 582.289606 
L 268.415999 581.787863 
L 269.299242 582.115489 
L 270.182485 581.935464 
L 271.065728 581.484562 
L 272.832213 582.201216 
L 273.715456 582.241127 
L 275.481941 581.985687 
L 276.365184 582.200675 
L 277.248427 582.151922 
L 279.014912 582.439599 
L 279.898155 581.826776 
L 280.781398 582.278573 
L 281.664641 581.706423 
L 282.547883 581.571302 
L 283.431126 581.739653 
L 284.314369 582.163316 
L 285.197612 581.627976 
L 286.080854 582.348562 
L 286.964097 582.17289 
L 287.84734 581.872677 
L 288.730583 582.24406 
L 290.497068 582.030874 
L 291.380311 582.086372 
L 292.263554 581.98521 
L 293.146796 582.009936 
L 294.030039 581.881084 
L 294.913282 582.674392 
L 295.796525 582.047795 
L 296.679767 582.416481 
L 297.56301 582.274141 
L 298.446253 582.364102 
L 299.329496 582.020964 
L 300.212738 581.538529 
L 301.095981 581.96329 
L 301.979224 582.708668 
L 302.862467 582.718721 
L 303.745709 582.193443 
L 305.512195 581.641921 
L 306.395438 581.214086 
L 307.27868 581.51291 
L 309.045166 582.539555 
L 310.811651 582.830953 
L 311.694894 582.104864 
L 312.578137 582.533037 
L 315.227865 582.731822 
L 316.111108 582.642938 
L 316.994351 582.798348 
L 317.877593 582.473357 
L 318.760836 581.591621 
L 319.644079 582.334048 
L 320.527321 582.076117 
L 321.410564 582.38563 
L 322.293807 582.005061 
L 324.943535 582.698525 
L 325.826778 582.697553 
L 326.710021 582.466395 
L 327.593263 582.796609 
L 328.476506 582.27148 
L 329.359749 582.797404 
L 330.242992 582.784563 
L 331.126234 582.893218 
L 332.009477 582.8123 
L 332.89272 582.394157 
L 333.775963 582.368885 
L 334.659205 582.637473 
L 336.425691 581.996979 
L 337.308934 582.016546 
L 339.075419 582.741953 
L 339.958662 582.60149 
L 340.841905 583.040366 
L 341.725147 582.958895 
L 342.60839 582.692659 
L 345.258118 582.666108 
L 346.141361 583.114089 
L 347.024604 583.143604 
L 347.907847 582.498386 
L 348.791089 582.604232 
L 349.674332 582.481891 
L 350.557575 582.543598 
L 351.440818 582.938158 
L 352.32406 582.972651 
L 353.207303 582.612704 
L 354.090546 582.899204 
L 354.973789 582.974433 
L 355.857031 582.69695 
L 356.740274 582.905268 
L 358.50676 582.630464 
L 359.390002 583.048401 
L 360.273245 582.709383 
L 361.156488 582.778198 
L 362.039731 583.018015 
L 362.922973 583.118783 
L 363.806216 582.589074 
L 364.689459 582.98002 
L 366.455944 582.905548 
L 367.339187 583.436635 
L 368.22243 583.168511 
L 369.105673 583.314529 
L 369.988915 583.289494 
L 370.872158 582.680086 
L 371.755401 582.673204 
L 372.638644 582.55426 
L 373.521886 582.877687 
L 374.405129 582.485169 
L 375.288372 583.134369 
L 377.054857 582.857813 
L 378.821343 583.025006 
L 379.704586 582.639134 
L 380.587828 582.985012 
L 381.471071 582.963605 
L 382.354314 582.69915 
L 383.237557 582.877481 
L 386.770528 583.115396 
L 387.65377 583.357389 
L 389.420256 583.369583 
L 390.303498 583.011853 
L 391.186741 582.493338 
L 392.069984 582.919407 
L 392.953227 582.698279 
L 393.836469 582.754744 
L 394.719712 582.699017 
L 395.602955 582.866166 
L 396.486198 583.233729 
L 399.135926 583.480923 
L 400.019169 582.971126 
L 400.902411 583.026694 
L 401.785654 582.856399 
L 402.668897 583.243549 
L 403.55214 583.255711 
L 404.435382 583.487205 
L 406.201868 582.934586 
L 407.085111 583.038133 
L 407.968353 582.951823 
L 408.851596 583.206345 
L 409.734839 582.809886 
L 410.618082 582.932182 
L 411.501324 582.683895 
L 412.384567 582.836239 
L 413.26781 582.795289 
L 414.151053 582.913306 
L 415.034295 582.81808 
L 415.917538 583.110059 
L 416.800781 583.204613 
L 418.567266 583.661602 
L 419.450509 583.657924 
L 420.333752 583.276369 
L 422.98348 583.352845 
L 423.866723 583.630702 
L 424.749966 582.623146 
L 425.633208 583.237348 
L 426.516451 583.154621 
L 427.399694 583.316617 
L 428.282937 583.081338 
L 429.166179 583.459657 
L 430.049422 582.700895 
L 430.932665 583.133652 
L 431.815908 583.175281 
L 432.69915 582.882323 
L 433.582393 583.399973 
L 436.232121 583.747449 
L 437.115364 583.527424 
L 438.88185 583.554205 
L 439.765092 583.33924 
L 440.648335 582.95652 
L 442.414821 583.327098 
L 443.298063 583.321935 
L 444.181306 583.573977 
L 445.064549 583.244742 
L 445.947792 583.559999 
L 446.831034 583.501645 
L 447.714277 583.61193 
L 448.59752 583.308358 
L 449.480763 583.540309 
L 451.247248 583.441126 
L 452.130491 583.061331 
L 453.013734 583.492386 
L 453.896976 583.288179 
L 455.663462 583.321577 
L 456.546705 583.308629 
L 457.429947 583.728614 
L 458.31319 583.447229 
L 459.196433 583.509742 
L 460.079676 583.381928 
L 460.962918 583.767706 
L 461.846161 583.782939 
L 462.729404 583.46863 
L 464.495889 583.59892 
L 465.379132 583.36233 
L 466.262375 583.517931 
L 467.145617 583.813825 
L 468.02886 583.413344 
L 468.912103 583.277976 
L 469.795346 583.536467 
L 470.678588 583.635954 
L 471.561831 583.542807 
L 472.445074 583.779784 
L 474.211559 583.658716 
L 475.094802 583.766592 
L 475.978045 583.37641 
L 476.861288 583.542458 
L 477.74453 583.112482 
L 478.627773 583.176771 
L 479.511016 583.462334 
L 481.277501 583.248102 
L 482.160744 583.405955 
L 483.043987 583.117234 
L 483.92723 583.633943 
L 484.810472 583.431911 
L 485.693715 583.641378 
L 486.576958 583.734126 
L 487.460201 583.507346 
L 488.343443 583.649942 
L 489.226686 583.469066 
L 490.109929 583.525902 
L 490.993172 583.466573 
L 491.876414 583.761145 
L 492.759657 583.665543 
L 493.6429 583.725047 
L 494.526143 583.481978 
L 495.409385 583.805791 
L 496.292628 583.229574 
L 497.175871 583.562731 
L 498.059114 583.737228 
L 499.825599 583.032515 
L 500.708842 583.12163 
L 501.592085 583.840745 
L 503.35857 583.611708 
L 506.008298 583.958468 
L 506.891541 583.679845 
L 507.774784 583.782778 
L 508.658027 583.442981 
L 509.541269 583.535488 
L 510.424512 583.748653 
L 511.307755 583.601729 
L 513.957483 583.539094 
L 514.840726 583.746789 
L 515.723969 583.541509 
L 516.607211 583.895324 
L 517.490454 583.690917 
L 520.140182 583.623553 
L 521.906668 584.023315 
L 522.789911 583.651752 
L 523.673153 583.644919 
L 524.556396 583.929134 
L 525.439639 584.073266 
L 527.206124 583.875038 
L 528.089367 583.684542 
L 528.97261 583.17381 
L 529.855853 583.904169 
L 530.739095 583.616149 
L 531.622338 583.622917 
L 532.505581 584.022665 
L 533.388823 583.860155 
L 534.272066 583.901002 
L 535.155309 583.574879 
L 536.038552 583.791103 
L 537.805037 583.978837 
L 538.68828 583.843835 
L 539.571523 583.844994 
L 540.454765 583.525117 
L 541.338008 583.857113 
L 543.987736 583.85141 
L 544.870979 583.530834 
L 546.637465 583.927988 
L 547.520707 583.913538 
L 548.40395 584.159863 
L 552.820164 583.063866 
L 553.703407 583.64618 
L 554.586649 583.650433 
L 555.469892 583.474385 
L 557.236378 583.914835 
L 559.002863 583.625626 
L 559.886106 583.348062 
L 560.769349 583.770101 
L 561.652591 583.489313 
L 562.535834 583.87591 
L 563.419077 583.902271 
L 564.30232 584.105922 
L 565.185562 584.061911 
L 566.068805 583.864378 
L 566.952048 584.172526 
L 567.835291 583.685053 
L 572.251504 583.780396 
L 573.134747 583.560773 
L 574.901233 583.516369 
L 575.784475 583.914015 
L 578.434204 583.983522 
L 580.200689 583.929533 
L 581.083932 583.960743 
L 581.967175 584.110895 
L 585.500146 583.965083 
L 586.383388 584.056635 
L 587.266631 583.963333 
L 588.149874 583.755829 
L 589.033117 583.972542 
L 589.916359 583.736695 
L 590.799602 583.827594 
L 591.682845 583.641856 
L 592.566088 584.051452 
L 594.332573 583.550919 
L 595.215816 583.588981 
L 596.099059 583.765232 
L 596.982301 583.666403 
L 597.865544 583.969105 
L 598.748787 583.971504 
L 599.63203 584.27995 
L 600.515272 583.840062 
L 601.398515 583.819667 
L 602.281758 583.938 
L 603.165 583.769572 
L 604.048243 584.142083 
L 606.697971 584.105115 
L 607.581214 583.894878 
L 608.464457 584.038924 
L 609.3477 583.669178 
L 610.230942 583.81541 
L 611.114185 583.746507 
L 611.997428 583.98722 
L 612.880671 583.767515 
L 613.763913 584.022479 
L 614.647156 583.790208 
L 616.413642 584.0459 
L 618.180127 583.754937 
L 619.06337 583.824169 
L 619.946613 583.760479 
L 620.829855 583.955016 
L 621.713098 584.012595 
L 622.596341 584.305367 
L 623.479584 584.004837 
L 624.362826 583.874539 
L 625.246069 584.273775 
L 626.129312 583.95557 
L 627.012555 583.806697 
L 627.895797 583.861941 
L 628.77904 584.051618 
L 630.545526 583.766992 
L 631.428768 583.994209 
L 632.312011 583.677543 
L 633.195254 584.05298 
L 634.078497 583.579804 
L 634.961739 583.57991 
L 635.844982 583.876403 
L 636.728225 583.66838 
L 638.49471 584.129831 
L 639.377953 583.941567 
L 642.027681 584.147538 
L 642.910924 584.301385 
L 643.794167 584.153099 
L 644.67741 584.442841 
L 645.560652 584.042561 
L 647.327138 584.220327 
L 648.210381 584.136117 
L 649.093623 584.214651 
L 649.976866 584.039708 
L 650.860109 583.748113 
L 651.743352 583.841451 
L 652.626594 583.799655 
L 653.509837 584.000712 
L 655.276323 584.017556 
L 657.042808 583.892836 
L 657.926051 583.95602 
L 658.809294 583.770444 
L 659.692536 583.798197 
L 660.575779 584.08215 
L 661.459022 583.928105 
L 663.225507 584.238797 
L 664.991993 584.094168 
L 665.875236 584.285233 
L 666.758478 584.258226 
L 667.641721 584.08149 
L 669.408207 583.993022 
L 670.291449 583.770746 
L 671.174692 584.053279 
L 672.057935 583.692554 
L 672.941177 584.050162 
L 673.82442 583.804466 
L 674.707663 583.976574 
L 675.590906 583.899767 
L 676.474148 584.267522 
L 678.240634 584.036169 
L 679.123877 584.182595 
L 680.007119 584.02617 
L 680.890362 584.204567 
L 682.656848 584.035655 
L 686.189819 583.919736 
L 687.073061 584.12179 
L 687.956304 583.906251 
L 688.839547 584.151586 
L 689.72279 584.051188 
L 690.606032 584.230062 
L 692.372518 583.931437 
L 693.255761 584.068983 
L 695.022246 584.056597 
L 696.788732 584.202407 
L 697.671974 584.222661 
L 698.555217 583.859155 
L 699.43846 584.009111 
L 700.321703 583.96255 
L 701.204945 584.239217 
L 702.088188 584.153973 
L 702.971431 584.292672 
L 703.854674 584.237043 
L 704.737916 584.374513 
L 707.387645 584.213873 
L 708.270887 584.199565 
L 709.15413 584.386707 
L 710.037373 583.91168 
L 710.920616 583.913079 
L 711.803858 584.028282 
L 712.687101 583.844967 
L 714.453587 584.076293 
L 715.336829 584.173539 
L 717.103315 583.883942 
L 717.986558 584.13559 
L 718.8698 584.202682 
L 719.753043 583.675332 
L 720.636286 584.027702 
L 721.519529 584.023927 
L 722.402771 584.167391 
L 723.286014 584.050179 
L 724.169257 584.330698 
L 725.0525 584.447652 
L 726.818985 584.453264 
L 727.702228 584.44308 
L 728.585471 583.953446 
L 729.468713 584.310365 
L 730.351956 584.483917 
L 731.235199 584.388121 
L 732.118442 584.487723 
L 733.001684 584.068912 
L 733.884927 584.110658 
L 735.651413 583.970323 
L 736.534655 584.16656 
L 738.301141 584.1789 
L 741.834112 584.006608 
L 742.717355 584.184652 
L 743.600597 583.985525 
L 745.367083 584.227108 
L 746.250325 584.17377 
L 747.133568 584.271716 
L 749.783296 584.242 
L 750.666539 584.311241 
L 752.433025 583.902182 
L 753.316267 584.149156 
L 755.082753 584.206222 
L 755.965996 584.005717 
L 756.849238 583.99803 
L 757.732481 584.339241 
L 758.615724 584.141836 
L 759.498967 584.428403 
L 760.382209 584.105242 
L 761.265452 583.968445 
L 762.148695 584.260518 
L 763.031938 583.737735 
L 763.91518 584.054429 
L 764.798423 584.085994 
L 765.681666 583.917671 
L 766.564909 584.215843 
L 767.448151 584.194495 
L 768.331394 584.3515 
L 769.214637 584.121236 
L 770.09788 584.200828 
L 770.981122 584.461623 
L 771.864365 584.140773 
L 772.747608 584.530079 
L 773.630851 584.212862 
L 774.514093 584.134499 
L 776.280579 584.439134 
L 777.163822 584.307212 
L 778.047064 584.354444 
L 778.930307 584.170557 
L 779.81355 584.393233 
L 780.696793 583.993233 
L 783.346521 583.890775 
L 784.229764 584.192346 
L 785.113006 583.645739 
L 785.996249 584.032299 
L 786.879492 584.027718 
L 787.762735 584.475504 
L 788.645977 584.443164 
L 789.52922 584.567566 
L 790.412463 584.451395 
L 791.295706 584.540072 
L 794.828677 584.23871 
L 795.711919 584.250043 
L 797.478405 584.517558 
L 801.894619 584.112644 
L 802.777861 584.284738 
L 803.661104 584.157204 
L 804.544347 583.761467 
L 805.42759 584.092711 
L 806.310832 583.891201 
L 807.194075 584.252743 
L 808.077318 584.111183 
L 808.960561 584.395481 
L 809.843803 584.247887 
L 810.727046 584.450592 
L 811.610289 584.218585 
L 813.376774 584.141857 
L 814.260017 583.906143 
L 815.14326 584.112393 
L 816.026502 584.109502 
L 816.909745 584.273514 
L 817.792988 584.251404 
L 819.559473 584.482719 
L 820.442716 584.306357 
L 822.209202 584.329149 
L 823.092444 584.192705 
L 823.975687 584.321107 
L 825.742173 583.88163 
L 826.625415 583.999626 
L 827.508658 583.774687 
L 828.391901 584.291343 
L 829.275144 584.133849 
L 831.924872 584.359812 
L 834.5746 584.209839 
L 835.457843 584.447756 
L 836.341086 584.166158 
L 837.224328 584.140023 
L 838.107571 584.492232 
L 839.874057 584.329598 
L 840.757299 584.367038 
L 841.640542 584.283091 
L 842.523785 584.329141 
L 843.407028 584.591147 
L 844.29027 584.307287 
L 846.939999 584.420286 
L 848.706484 583.935433 
L 849.589727 584.125344 
L 850.47297 584.125399 
L 851.356212 584.326765 
L 852.239455 584.32548 
L 853.122698 584.162022 
L 854.005941 584.325453 
L 854.889183 584.235624 
L 856.655669 584.422337 
L 857.538912 584.167151 
L 858.422154 584.36344 
L 860.18864 584.182372 
L 861.071883 584.249816 
L 861.955125 584.143496 
L 862.838368 584.329215 
L 864.604854 584.23246 
L 865.488096 584.394667 
L 868.137825 584.250104 
L 869.021067 583.613823 
L 869.90431 584.360458 
L 873.437281 584.29253 
L 876.087009 584.640058 
L 876.970252 584.398759 
L 878.736738 584.457424 
L 879.61998 584.237508 
L 880.503223 584.423492 
L 881.386466 584.276316 
L 882.269709 584.593767 
L 884.919437 584.557649 
L 885.802679 584.449963 
L 886.685922 583.870039 
L 887.569165 584.482753 
L 888.452408 584.260395 
L 889.33565 584.291675 
L 890.218893 584.136952 
L 891.102136 584.204679 
L 892.868621 584.126882 
L 893.751864 584.219539 
L 894.635107 584.474111 
L 896.401592 584.272528 
L 897.284835 584.530455 
L 899.051321 584.352304 
L 900.817806 584.53144 
L 901.701049 584.235368 
L 902.584292 584.298738 
L 903.467534 584.11209 
L 904.350777 584.36323 
L 905.23402 584.435573 
L 906.117263 584.31968 
L 907.000505 584.355086 
L 907.883748 584.240968 
L 910.533476 584.39053 
L 913.183205 584.405918 
L 914.066447 584.319488 
L 914.94969 584.466812 
L 918.482661 584.285243 
L 919.365904 584.053113 
L 920.249147 584.437212 
L 921.132389 584.241941 
L 922.015632 584.185566 
L 926.431846 584.625528 
L 927.315089 584.490549 
L 928.198331 584.630627 
L 929.964817 584.516708 
L 930.84806 584.317612 
L 931.731302 584.428196 
L 932.614545 584.273549 
L 933.497788 584.273292 
L 934.381031 583.756418 
L 935.264273 584.235766 
L 936.147516 584.458985 
L 937.030759 584.327634 
L 937.914002 584.550799 
L 939.680487 584.367969 
L 940.56373 584.509282 
L 941.446973 584.455718 
L 942.330215 584.651648 
L 943.213458 584.544665 
L 944.096701 584.216687 
L 944.979944 584.508289 
L 946.746429 584.372243 
L 947.629672 584.560404 
L 948.512915 584.075514 
L 949.396157 584.465991 
L 950.2794 584.229207 
L 951.162643 584.241061 
L 952.045886 584.427602 
L 957.345342 584.441626 
L 958.228585 584.274129 
L 959.111827 584.537739 
L 959.99507 584.571797 
L 960.878313 584.343748 
L 962.644798 584.465822 
L 963.528041 584.536889 
L 964.411284 584.431676 
L 966.177769 584.541597 
L 967.944255 584.521359 
L 968.827498 584.329536 
L 969.71074 584.352505 
L 970.593983 584.556591 
L 971.477226 584.316023 
L 972.360469 584.494196 
L 973.243711 584.17542 
L 974.126954 584.15892 
L 975.010197 584.513643 
L 980.309653 584.470879 
L 981.192896 584.134421 
L 982.076139 583.968388 
L 982.959382 584.038526 
L 984.725867 584.433666 
L 985.60911 584.382736 
L 986.492353 584.591824 
L 1001.507479 584.423577 
L 1001.507479 584.423577 
" clip-path="url(#p3ef615d20c)" style="fill: none; stroke: #4c72b0; stroke-width: 6; stroke-linecap: round"/>
   </g>
   <g id="line2d_14">
    <path d="M 119.147975 120.053847 
L 120.031218 120.759973 
L 120.914461 120.611833 
L 121.797703 119.319421 
L 122.680946 113.496618 
L 123.564189 104.073387 
L 124.447432 90.886069 
L 125.330674 85.278645 
L 126.213917 81.790251 
L 127.09716 83.517789 
L 127.980403 83.177737 
L 129.746888 85.885423 
L 130.630131 87.844278 
L 131.513374 90.17037 
L 133.279859 99.75582 
L 135.046345 113.196528 
L 136.81283 132.534109 
L 137.696073 142.666487 
L 139.462558 155.731177 
L 140.345801 166.416151 
L 142.112287 182.532947 
L 142.995529 182.975694 
L 143.878772 190.707678 
L 144.762015 192.893483 
L 146.5285 195.138487 
L 147.411743 195.300939 
L 149.178229 191.457577 
L 150.061471 188.544363 
L 150.944714 184.933155 
L 151.827957 177.735087 
L 152.7112 178.690003 
L 153.594442 175.656484 
L 154.477685 170.128009 
L 155.360928 168.156329 
L 156.244171 165.51077 
L 157.127413 160.779499 
L 158.010656 157.392219 
L 158.893899 156.467508 
L 159.777142 150.99642 
L 161.543627 152.445662 
L 162.42687 144.916975 
L 163.310113 141.848047 
L 164.193355 142.735771 
L 165.076598 141.142571 
L 166.843084 129.714528 
L 167.726326 132.362968 
L 168.609569 125.638966 
L 169.492812 122.662974 
L 170.376055 121.701135 
L 171.259297 121.982591 
L 172.14254 116.31513 
L 173.025783 112.564518 
L 173.909026 112.775204 
L 174.792268 111.704722 
L 175.675511 105.363848 
L 176.558754 108.062938 
L 177.441997 105.702646 
L 178.325239 102.851188 
L 179.208482 107.845189 
L 180.091725 106.745061 
L 180.974967 103.722369 
L 181.85821 105.192521 
L 182.741453 100.793124 
L 183.624696 103.077719 
L 184.507938 98.244125 
L 185.391181 98.527766 
L 186.274424 101.325832 
L 187.157667 98.225259 
L 188.040909 100.304746 
L 188.924152 100.236577 
L 189.807395 98.049239 
L 190.690638 94.686541 
L 191.57388 91.893493 
L 192.457123 92.673504 
L 193.340366 91.786292 
L 194.223609 92.752918 
L 195.990094 85.865813 
L 196.873337 89.050818 
L 197.75658 89.525348 
L 198.639822 83.403339 
L 199.523065 79.797102 
L 200.406308 83.032989 
L 201.289551 87.922251 
L 202.172793 87.084481 
L 203.056036 86.64666 
L 203.939279 85.912328 
L 204.822522 86.056471 
L 205.705764 88.608536 
L 206.589007 88.229126 
L 207.47225 87.302648 
L 208.355493 88.715134 
L 209.238735 83.821596 
L 210.121978 84.165134 
L 211.005221 86.945217 
L 211.888464 86.694337 
L 212.771706 88.304404 
L 213.654949 92.72578 
L 214.538192 94.313868 
L 215.421435 91.597632 
L 216.304677 86.787272 
L 217.18792 87.657477 
L 218.071163 84.898769 
L 218.954406 87.476392 
L 219.837648 83.433496 
L 220.720891 83.850221 
L 221.604134 90.20062 
L 222.487377 97.92266 
L 223.370619 101.07523 
L 224.253862 96.343494 
L 225.137105 89.807781 
L 226.90359 93.006493 
L 228.670076 87.507572 
L 229.553319 91.140062 
L 230.436561 91.270498 
L 231.319804 93.314529 
L 232.203047 91.296985 
L 233.08629 92.294326 
L 233.969532 92.849106 
L 234.852775 96.292147 
L 235.736018 93.797517 
L 236.619261 96.633268 
L 237.502503 90.290257 
L 238.385746 94.517258 
L 239.268989 93.678234 
L 240.152232 96.90413 
L 241.035474 96.44419 
L 241.918717 100.754323 
L 242.80196 96.592934 
L 243.685203 102.753001 
L 244.568445 96.785033 
L 245.451688 96.679922 
L 246.334931 98.443519 
L 247.218174 98.689102 
L 248.101416 102.611599 
L 248.984659 102.561182 
L 249.867902 104.697684 
L 250.751144 107.821444 
L 251.634387 103.827897 
L 252.51763 103.707081 
L 253.400873 102.096502 
L 254.284115 103.121353 
L 255.167358 98.882688 
L 256.050601 107.294498 
L 256.933844 111.085583 
L 257.817086 113.455308 
L 258.700329 114.652554 
L 259.583572 111.636879 
L 260.466815 111.914803 
L 261.350057 104.870312 
L 262.2333 104.591458 
L 263.116543 103.629061 
L 263.999786 106.153803 
L 264.883028 110.436798 
L 265.766271 110.701387 
L 266.649514 114.830341 
L 267.532757 116.238737 
L 268.415999 118.272592 
L 269.299242 121.500254 
L 270.182485 118.99145 
L 271.065728 120.067741 
L 271.94897 120.827445 
L 272.832213 125.822003 
L 273.715456 124.129548 
L 274.598699 131.751682 
L 275.481941 126.597367 
L 276.365184 122.31256 
L 277.248427 121.241567 
L 278.13167 120.705513 
L 279.014912 122.192858 
L 279.898155 125.050682 
L 281.664641 134.57433 
L 282.547883 131.675196 
L 283.431126 132.522353 
L 284.314369 131.649406 
L 285.197612 134.415874 
L 286.080854 132.089411 
L 286.964097 131.464696 
L 287.84734 135.041426 
L 288.730583 140.093837 
L 289.613825 144.402436 
L 290.497068 139.948717 
L 291.380311 137.1908 
L 292.263554 138.218438 
L 293.146796 136.036629 
L 294.030039 138.217694 
L 294.913282 138.624149 
L 295.796525 146.854966 
L 296.679767 147.388511 
L 297.56301 147.025876 
L 298.446253 149.290165 
L 299.329496 150.675699 
L 300.212738 147.578333 
L 301.095981 152.230004 
L 301.979224 152.385068 
L 302.862467 157.267081 
L 303.745709 151.2848 
L 304.628952 148.644493 
L 305.512195 148.278279 
L 306.395438 153.424184 
L 307.27868 153.634265 
L 308.161923 156.013888 
L 309.045166 154.60814 
L 309.928409 152.437344 
L 310.811651 153.789096 
L 311.694894 157.26513 
L 312.578137 162.258248 
L 313.46138 161.30217 
L 314.344622 155.904223 
L 316.111108 168.723237 
L 316.994351 167.62836 
L 317.877593 165.642739 
L 318.760836 169.633079 
L 319.644079 168.347776 
L 320.527321 171.470096 
L 321.410564 174.136425 
L 322.293807 175.827161 
L 323.17705 176.487795 
L 324.060292 179.306168 
L 324.943535 174.471459 
L 325.826778 176.699503 
L 326.710021 172.821894 
L 327.593263 181.648059 
L 328.476506 186.983878 
L 329.359749 187.02858 
L 330.242992 187.329413 
L 331.126234 184.768566 
L 332.009477 189.196355 
L 332.89272 192.450876 
L 333.775963 193.144688 
L 334.659205 185.440306 
L 335.542448 195.409581 
L 336.425691 193.090181 
L 337.308934 191.894283 
L 339.958662 199.307636 
L 340.841905 191.324586 
L 341.725147 192.901568 
L 342.60839 199.581565 
L 343.491633 198.575464 
L 344.374876 196.187501 
L 345.258118 206.102037 
L 346.141361 206.915621 
L 347.024604 201.436704 
L 347.907847 204.68365 
L 349.674332 199.506844 
L 350.557575 203.532663 
L 351.440818 202.621334 
L 352.32406 201.345348 
L 353.207303 210.598994 
L 354.090546 206.491415 
L 354.973789 207.075401 
L 355.857031 210.762979 
L 356.740274 211.799307 
L 358.50676 202.615711 
L 359.390002 203.340146 
L 360.273245 204.394225 
L 361.156488 208.595901 
L 362.039731 211.860575 
L 362.922973 211.570824 
L 363.806216 214.880154 
L 364.689459 210.906844 
L 365.572702 220.518827 
L 366.455944 226.474552 
L 367.339187 222.699149 
L 368.22243 217.678615 
L 369.105673 217.805751 
L 369.988915 222.914063 
L 370.872158 224.279058 
L 371.755401 229.083633 
L 372.638644 224.299016 
L 373.521886 228.68524 
L 374.405129 238.005893 
L 375.288372 237.982287 
L 376.171615 239.445609 
L 377.054857 234.085859 
L 377.9381 230.465821 
L 378.821343 228.391191 
L 379.704586 227.184326 
L 380.587828 226.445974 
L 382.354314 235.81335 
L 383.237557 242.236286 
L 385.004042 247.026154 
L 385.887285 244.651689 
L 386.770528 248.210528 
L 388.537013 256.638486 
L 389.420256 256.542715 
L 390.303498 254.642688 
L 391.186741 263.861855 
L 392.069984 259.305419 
L 392.953227 258.72766 
L 393.836469 259.695216 
L 394.719712 263.546454 
L 395.602955 262.20058 
L 397.36944 261.508069 
L 398.252683 261.585926 
L 399.135926 263.890177 
L 400.019169 265.587163 
L 400.902411 269.519557 
L 401.785654 268.058164 
L 402.668897 269.131341 
L 404.435382 275.876114 
L 405.318625 272.195274 
L 407.085111 277.917915 
L 407.968353 279.820823 
L 408.851596 272.918268 
L 409.734839 277.189019 
L 410.618082 282.118685 
L 411.501324 284.085184 
L 412.384567 277.203865 
L 413.26781 274.737464 
L 414.151053 273.746048 
L 415.034295 282.184646 
L 415.917538 285.820808 
L 416.800781 281.919709 
L 417.684024 282.708177 
L 418.567266 285.485983 
L 419.450509 290.011123 
L 420.333752 287.821066 
L 421.216995 286.731533 
L 422.100237 290.815366 
L 422.98348 290.547781 
L 423.866723 289.607224 
L 424.749966 301.237123 
L 425.633208 296.667769 
L 426.516451 295.16272 
L 427.399694 295.530513 
L 428.282937 299.808049 
L 429.166179 296.183202 
L 430.049422 298.186829 
L 430.932665 291.220962 
L 431.815908 290.591252 
L 433.582393 309.576443 
L 434.465636 311.406141 
L 435.348879 310.838559 
L 436.232121 311.919565 
L 437.115364 310.997595 
L 437.998607 313.387835 
L 438.88185 315.322713 
L 439.765092 315.109774 
L 440.648335 318.018434 
L 441.531578 316.318568 
L 442.414821 318.873142 
L 443.298063 317.329593 
L 444.181306 316.349143 
L 445.064549 320.08549 
L 445.947792 318.035116 
L 446.831034 318.139971 
L 447.714277 324.897708 
L 448.59752 325.521866 
L 449.480763 323.662289 
L 450.364005 326.555707 
L 451.247248 325.304628 
L 452.130491 326.316862 
L 453.013734 329.49571 
L 453.896976 329.461765 
L 454.780219 329.734624 
L 455.663462 331.068695 
L 456.546705 335.71816 
L 457.429947 338.435302 
L 458.31319 340.254824 
L 459.196433 338.465506 
L 460.079676 338.804513 
L 460.962918 336.528932 
L 461.846161 335.331384 
L 462.729404 330.67014 
L 463.612646 326.670901 
L 464.495889 324.692692 
L 465.379132 329.042369 
L 466.262375 329.400706 
L 467.145617 336.34083 
L 468.02886 340.061889 
L 468.912103 337.280295 
L 469.795346 344.293746 
L 470.678588 352.951511 
L 471.561831 354.850051 
L 472.445074 357.323469 
L 473.328317 357.599651 
L 474.211559 351.665766 
L 475.094802 352.269803 
L 475.978045 355.060806 
L 476.861288 351.225831 
L 477.74453 355.706129 
L 478.627773 350.768238 
L 479.511016 354.397987 
L 480.394259 359.379047 
L 481.277501 355.749321 
L 482.160744 357.208879 
L 483.043987 356.991966 
L 483.92723 362.754431 
L 484.810472 358.295694 
L 485.693715 365.199178 
L 486.576958 369.72599 
L 487.460201 366.146241 
L 488.343443 363.25496 
L 489.226686 358.845014 
L 490.109929 358.165514 
L 490.993172 371.038291 
L 491.876414 379.326357 
L 492.759657 374.258216 
L 493.6429 371.859124 
L 494.526143 371.573904 
L 495.409385 369.527317 
L 496.292628 378.200555 
L 497.175871 375.919724 
L 498.059114 382.952249 
L 498.942356 383.15859 
L 499.825599 377.970934 
L 500.708842 383.503405 
L 501.592085 382.547978 
L 502.475327 389.793211 
L 503.35857 388.501426 
L 504.241813 390.219055 
L 505.125056 393.465432 
L 506.008298 391.586559 
L 506.891541 390.169694 
L 507.774784 387.39305 
L 508.658027 390.93286 
L 509.541269 391.792877 
L 510.424512 390.586395 
L 511.307755 392.414571 
L 512.190998 392.068188 
L 513.957483 398.291509 
L 514.840726 399.931432 
L 515.723969 399.150585 
L 516.607211 400.214991 
L 517.490454 404.486206 
L 518.373697 407.080011 
L 519.25694 406.955884 
L 520.140182 407.372178 
L 521.023425 411.15411 
L 522.789911 411.61815 
L 523.673153 405.20445 
L 524.556396 407.522827 
L 525.439639 411.635483 
L 526.322882 413.392005 
L 527.206124 411.744218 
L 528.089367 409.481299 
L 528.97261 408.253919 
L 529.855853 408.9238 
L 530.739095 412.494988 
L 531.622338 412.79768 
L 532.505581 412.901153 
L 533.388823 417.77134 
L 534.272066 418.639001 
L 535.155309 413.593362 
L 536.038552 419.380466 
L 536.921794 416.887485 
L 538.68828 423.619979 
L 539.571523 423.897939 
L 540.454765 424.397353 
L 541.338008 425.440023 
L 542.221251 427.277888 
L 543.104494 430.037943 
L 543.987736 429.600366 
L 544.870979 429.419292 
L 545.754222 433.558841 
L 546.637465 438.477959 
L 547.520707 439.692933 
L 548.40395 439.478518 
L 549.287193 439.767107 
L 550.170436 433.072415 
L 551.053678 429.004369 
L 551.936921 427.914963 
L 552.820164 428.379677 
L 553.703407 426.467452 
L 554.586649 426.946269 
L 555.469892 429.607627 
L 556.353135 435.932469 
L 557.236378 441.225701 
L 558.11962 441.561884 
L 559.002863 443.669495 
L 559.886106 444.248706 
L 560.769349 443.465687 
L 561.652591 449.634316 
L 562.535834 450.518658 
L 563.419077 455.428425 
L 564.30232 452.304897 
L 565.185562 452.645809 
L 566.068805 453.671112 
L 566.952048 455.031984 
L 567.835291 453.027253 
L 568.718533 451.836686 
L 569.601776 449.37758 
L 570.485019 448.709511 
L 571.368262 453.839071 
L 572.251504 450.31988 
L 573.134747 444.26339 
L 574.01799 447.341205 
L 574.901233 454.97786 
L 575.784475 455.371908 
L 576.667718 455.965791 
L 577.550961 453.07666 
L 578.434204 457.003292 
L 580.200689 462.670881 
L 581.083932 458.688243 
L 582.850417 467.970861 
L 583.73366 467.601046 
L 584.616903 466.489859 
L 585.500146 466.902889 
L 586.383388 462.819694 
L 587.266631 465.669142 
L 588.149874 468.902671 
L 589.033117 465.292822 
L 589.916359 458.316395 
L 590.799602 458.074552 
L 591.682845 463.510916 
L 592.566088 466.828935 
L 593.44933 468.064622 
L 594.332573 473.874611 
L 595.215816 473.673185 
L 596.099059 472.561695 
L 596.982301 470.504513 
L 597.865544 468.738395 
L 598.748787 471.816419 
L 599.63203 472.462742 
L 600.515272 473.96994 
L 601.398515 475.791204 
L 602.281758 475.784792 
L 603.165 473.135249 
L 604.048243 476.229316 
L 604.931486 473.855501 
L 605.814729 474.978445 
L 606.697971 479.690897 
L 607.581214 480.813225 
L 608.464457 477.739988 
L 609.3477 477.045408 
L 610.230942 475.437258 
L 611.114185 476.938126 
L 612.880671 487.31281 
L 613.763913 483.158334 
L 614.647156 482.950901 
L 615.530399 485.877405 
L 616.413642 488.321008 
L 617.296884 488.345537 
L 618.180127 487.729726 
L 619.06337 486.586563 
L 619.946613 486.535402 
L 620.829855 493.618705 
L 621.713098 495.144544 
L 622.596341 493.709295 
L 623.479584 495.35599 
L 624.362826 496.077753 
L 625.246069 495.666297 
L 626.129312 494.531812 
L 627.012555 497.585033 
L 627.895797 498.561348 
L 628.77904 496.098768 
L 629.662283 493.059296 
L 630.545526 491.884987 
L 631.428768 492.536601 
L 632.312011 494.09517 
L 633.195254 493.966094 
L 634.078497 491.112504 
L 634.961739 494.489474 
L 635.844982 491.892834 
L 636.728225 494.558113 
L 637.611468 494.444011 
L 638.49471 499.874049 
L 639.377953 502.454971 
L 640.261196 501.413892 
L 641.144439 505.038024 
L 642.910924 504.884244 
L 643.794167 505.533686 
L 644.67741 502.637909 
L 645.560652 505.49614 
L 646.443895 505.113726 
L 648.210381 499.647106 
L 649.093623 500.829453 
L 649.976866 502.622941 
L 650.860109 499.275502 
L 651.743352 500.314786 
L 652.626594 498.969534 
L 653.509837 499.196291 
L 654.39308 500.308739 
L 655.276323 499.751839 
L 656.159565 507.35093 
L 657.042808 508.075388 
L 657.926051 508.147431 
L 658.809294 507.224317 
L 659.692536 507.957261 
L 660.575779 510.765846 
L 661.459022 510.492906 
L 662.342265 513.371594 
L 663.225507 515.402834 
L 664.10875 518.436708 
L 664.991993 519.007834 
L 665.875236 517.160246 
L 666.758478 517.726579 
L 667.641721 517.823627 
L 668.524964 516.97406 
L 669.408207 517.297756 
L 670.291449 515.466193 
L 671.174692 514.827649 
L 672.057935 519.430953 
L 672.941177 517.264618 
L 673.82442 519.744019 
L 674.707663 521.243737 
L 675.590906 520.989737 
L 676.474148 519.263198 
L 678.240634 524.170658 
L 679.123877 525.658881 
L 680.007119 525.554328 
L 680.890362 521.452012 
L 681.773605 524.429967 
L 682.656848 524.500668 
L 683.54009 524.104656 
L 684.423333 522.611857 
L 685.306576 523.079051 
L 686.189819 522.899598 
L 687.073061 520.408365 
L 687.956304 524.457354 
L 688.839547 527.721139 
L 689.72279 528.433794 
L 690.606032 526.960105 
L 691.489275 527.367472 
L 692.372518 524.287275 
L 693.255761 525.096834 
L 694.139003 528.082677 
L 695.022246 532.197824 
L 695.905489 529.983784 
L 696.788732 533.381258 
L 697.671974 530.188394 
L 698.555217 533.104814 
L 699.43846 529.185645 
L 700.321703 528.887646 
L 701.204945 526.670429 
L 702.971431 530.804268 
L 703.854674 530.351694 
L 704.737916 532.481476 
L 705.621159 533.215141 
L 706.504402 534.602272 
L 707.387645 532.628047 
L 708.270887 531.729474 
L 709.15413 533.365325 
L 710.037373 533.192122 
L 710.920616 533.281241 
L 711.803858 529.591577 
L 712.687101 532.83699 
L 713.570344 532.932592 
L 714.453587 532.594405 
L 715.336829 532.389992 
L 716.220072 534.712122 
L 717.103315 535.173043 
L 717.986558 535.810328 
L 718.8698 534.379127 
L 719.753043 537.173836 
L 720.636286 531.750535 
L 721.519529 537.241778 
L 722.402771 538.241599 
L 723.286014 539.054849 
L 724.169257 540.444275 
L 725.0525 541.143501 
L 725.935742 543.144279 
L 726.818985 542.915712 
L 727.702228 543.438558 
L 728.585471 543.662402 
L 729.468713 545.33688 
L 730.351956 545.36188 
L 731.235199 544.807718 
L 732.118442 545.448203 
L 733.001684 545.770246 
L 733.884927 542.953743 
L 735.651413 540.897517 
L 736.534655 542.388298 
L 738.301141 544.631921 
L 739.184384 542.438208 
L 740.067626 544.678737 
L 740.950869 542.859405 
L 741.834112 542.835738 
L 742.717355 544.305821 
L 743.600597 545.153654 
L 744.48384 547.993846 
L 745.367083 549.053896 
L 746.250325 547.002468 
L 747.133568 545.657053 
L 748.016811 546.834469 
L 748.900054 550.89136 
L 749.783296 546.270935 
L 750.666539 546.338615 
L 751.549782 547.51234 
L 752.433025 547.528342 
L 753.316267 545.711931 
L 754.19951 548.095454 
L 755.082753 548.66843 
L 755.965996 550.546016 
L 756.849238 546.737583 
L 757.732481 548.667637 
L 758.615724 551.560881 
L 759.498967 552.699168 
L 760.382209 551.663334 
L 761.265452 552.402897 
L 762.148695 551.843191 
L 763.031938 551.648218 
L 763.91518 550.130532 
L 764.798423 550.002414 
L 765.681666 552.691565 
L 766.564909 551.45681 
L 767.448151 554.933825 
L 768.331394 555.371449 
L 769.214637 554.935237 
L 770.09788 555.089182 
L 770.981122 554.28452 
L 771.864365 558.672443 
L 772.747608 555.731671 
L 773.630851 556.89307 
L 774.514093 559.751782 
L 775.397336 559.916825 
L 776.280579 559.280441 
L 777.163822 558.096122 
L 778.047064 558.747073 
L 779.81355 559.021016 
L 780.696793 556.987098 
L 781.580035 558.522909 
L 782.463278 560.709001 
L 783.346521 559.059858 
L 784.229764 556.784492 
L 785.113006 557.44571 
L 785.996249 555.614168 
L 786.879492 557.734903 
L 787.762735 558.664546 
L 788.645977 562.095649 
L 789.52922 562.405152 
L 790.412463 564.856865 
L 791.295706 565.699385 
L 792.178948 565.381656 
L 793.062191 564.290678 
L 793.945434 562.320784 
L 794.828677 561.392208 
L 795.711919 559.8827 
L 796.595162 562.085644 
L 797.478405 562.894286 
L 798.361648 565.008422 
L 799.24489 563.321357 
L 800.128133 562.576328 
L 801.011376 560.278932 
L 801.894619 562.414387 
L 802.777861 563.887165 
L 803.661104 562.888296 
L 804.544347 561.694468 
L 805.42759 561.563931 
L 806.310832 559.973199 
L 807.194075 562.236801 
L 808.077318 564.933434 
L 808.960561 566.617363 
L 809.843803 566.291173 
L 810.727046 565.658836 
L 811.610289 567.254568 
L 812.493532 566.012717 
L 813.376774 566.056594 
L 814.260017 565.91044 
L 815.14326 564.479265 
L 816.026502 566.466695 
L 816.909745 565.302611 
L 818.676231 567.161493 
L 819.559473 567.153496 
L 820.442716 568.318936 
L 821.325959 568.656206 
L 822.209202 566.675835 
L 823.092444 567.852012 
L 823.975687 567.04867 
L 824.85893 567.386158 
L 825.742173 565.648628 
L 826.625415 563.644162 
L 827.508658 566.999739 
L 828.391901 565.895789 
L 829.275144 568.876393 
L 831.041629 569.60675 
L 831.924872 569.1949 
L 832.808115 569.140853 
L 833.691357 567.97787 
L 834.5746 569.093655 
L 835.457843 567.903452 
L 836.341086 565.470833 
L 837.224328 569.46574 
L 838.107571 569.73054 
L 838.990814 571.027232 
L 839.874057 570.408665 
L 841.640542 569.599348 
L 842.523785 568.329862 
L 843.407028 568.170063 
L 844.29027 569.134458 
L 845.173513 569.456392 
L 846.056756 569.10515 
L 846.939999 570.565888 
L 847.823241 569.085043 
L 848.706484 570.589368 
L 850.47297 569.161476 
L 851.356212 570.120418 
L 852.239455 567.788015 
L 853.122698 570.254145 
L 854.005941 569.951148 
L 854.889183 570.474737 
L 855.772426 571.808282 
L 856.655669 570.010191 
L 857.538912 569.728307 
L 858.422154 569.631006 
L 859.305397 569.166499 
L 860.18864 567.163453 
L 861.071883 568.211782 
L 861.955125 569.782654 
L 862.838368 569.694182 
L 863.721611 570.119067 
L 864.604854 568.185595 
L 865.488096 568.340471 
L 866.371339 569.10275 
L 867.254582 567.321226 
L 868.137825 568.70103 
L 869.021067 570.419519 
L 869.90431 569.352711 
L 871.670796 570.944905 
L 872.554038 570.971089 
L 873.437281 571.145732 
L 874.320524 569.562312 
L 875.203767 569.703435 
L 876.087009 569.475751 
L 876.970252 569.03104 
L 877.853495 570.167931 
L 878.736738 570.433096 
L 879.61998 571.796559 
L 880.503223 573.545553 
L 881.386466 573.308679 
L 882.269709 573.524383 
L 883.152951 574.499856 
L 884.036194 574.982334 
L 884.919437 574.467406 
L 885.802679 575.504085 
L 886.685922 575.539652 
L 887.569165 573.005624 
L 888.452408 573.170888 
L 889.33565 572.896764 
L 890.218893 573.623529 
L 891.102136 573.221936 
L 891.985379 571.621969 
L 892.868621 569.661736 
L 893.751864 569.33819 
L 894.635107 569.337896 
L 896.401592 572.261631 
L 897.284835 570.123798 
L 898.168078 572.155922 
L 899.051321 576.253606 
L 899.934563 576.013495 
L 900.817806 574.572489 
L 901.701049 573.431343 
L 902.584292 573.372994 
L 903.467534 574.577288 
L 904.350777 574.198764 
L 905.23402 574.553951 
L 906.117263 576.149187 
L 907.000505 575.776591 
L 907.883748 573.647648 
L 908.766991 573.95364 
L 909.650234 573.873095 
L 910.533476 574.517519 
L 911.416719 574.016712 
L 912.299962 573.951995 
L 914.066447 576.411823 
L 914.94969 576.243899 
L 915.832933 576.352117 
L 916.716176 574.202435 
L 918.482661 573.105106 
L 919.365904 573.489762 
L 920.249147 573.654669 
L 921.132389 574.521264 
L 922.015632 573.458522 
L 922.898875 572.870022 
L 923.782118 575.001106 
L 924.66536 576.244171 
L 925.548603 576.328387 
L 927.315089 577.838217 
L 928.198331 577.817846 
L 929.964817 576.528 
L 930.84806 576.876214 
L 931.731302 576.743668 
L 932.614545 576.471729 
L 933.497788 575.253769 
L 934.381031 575.227471 
L 935.264273 577.179905 
L 936.147516 575.828072 
L 937.030759 576.347454 
L 937.914002 576.679617 
L 938.797244 577.253771 
L 939.680487 578.039968 
L 940.56373 578.410479 
L 941.446973 578.349248 
L 942.330215 576.982912 
L 943.213458 577.019166 
L 944.096701 577.411338 
L 944.979944 576.897089 
L 945.863186 577.483858 
L 946.746429 577.193389 
L 947.629672 576.603353 
L 948.512915 575.702965 
L 949.396157 575.636771 
L 950.2794 575.816275 
L 951.162643 577.067325 
L 952.045886 577.696794 
L 952.929128 578.963082 
L 954.695614 577.901762 
L 955.578857 578.437148 
L 956.462099 577.722487 
L 957.345342 577.787841 
L 958.228585 576.987625 
L 959.111827 577.01327 
L 959.99507 577.811817 
L 960.878313 577.359083 
L 961.761556 577.760538 
L 963.528041 576.620451 
L 964.411284 576.575457 
L 965.294527 577.40714 
L 966.177769 578.54589 
L 967.061012 578.80134 
L 967.944255 578.572968 
L 969.71074 579.196957 
L 970.593983 578.759506 
L 971.477226 579.27541 
L 972.360469 577.683062 
L 973.243711 577.781414 
L 974.126954 579.424865 
L 975.010197 579.915326 
L 975.89344 579.69974 
L 976.776682 579.293159 
L 977.659925 579.496485 
L 978.543168 579.12629 
L 979.426411 578.97539 
L 980.309653 579.544548 
L 981.192896 579.362962 
L 982.076139 579.496489 
L 982.959382 578.779706 
L 983.842624 578.473468 
L 984.725867 578.978986 
L 985.60911 579.073585 
L 986.492353 580.385996 
L 988.258838 581.503932 
L 989.142081 581.168239 
L 990.025324 581.359619 
L 990.908566 581.722588 
L 991.791809 581.962893 
L 992.675052 581.570373 
L 993.558295 581.683486 
L 994.441537 581.512847 
L 995.32478 580.601897 
L 996.208023 579.966606 
L 997.091266 579.94517 
L 997.974508 580.325721 
L 998.857751 580.125454 
L 999.740994 581.162252 
L 1001.507479 580.76836 
L 1001.507479 580.76836 
" clip-path="url(#p3ef615d20c)" style="fill: none; stroke: #dd8452; stroke-width: 6; stroke-linecap: round"/>
   </g>
   <g id="line2d_15"/>
   <g id="line2d_16"/>
   <g id="patch_3">
    <path d="M 75.03 609.894375 
L 75.03 54.554375 
" style="fill: none; stroke: #cccccc; stroke-width: 1.875; stroke-linejoin: miter; stroke-linecap: square"/>
   </g>
   <g id="patch_4">
    <path d="M 1045.625455 609.894375 
L 1045.625455 54.554375 
" style="fill: none; stroke: #cccccc; stroke-width: 1.875; stroke-linejoin: miter; stroke-linecap: square"/>
   </g>
   <g id="patch_5">
    <path d="M 75.03 609.894375 
L 1045.625455 609.894375 
" style="fill: none; stroke: #cccccc; stroke-width: 1.875; stroke-linejoin: miter; stroke-linecap: square"/>
   </g>
   <g id="patch_6">
    <path d="M 75.03 54.554375 
L 1045.625455 54.554375 
" style="fill: none; stroke: #cccccc; stroke-width: 1.875; stroke-linejoin: miter; stroke-linecap: square"/>
   </g>
   <g id="text_15">
    <!-- Training Progress: Loss -->
    <g style="fill: #262626" transform="translate(323.329602 34.554375) scale(0.36 -0.36)">
     <defs>
      <path id="DejaVuSans-Bold-54" d="M 31 4666 
L 4331 4666 
L 4331 3756 
L 2784 3756 
L 2784 0 
L 1581 0 
L 1581 3756 
L 31 3756 
L 31 4666 
z
" transform="scale(0.015625)"/>
      <path id="DejaVuSans-Bold-72" d="M 3138 2547 
Q 2991 2616 2845 2648 
Q 2700 2681 2553 2681 
Q 2122 2681 1889 2404 
Q 1656 2128 1656 1613 
L 1656 0 
L 538 0 
L 538 3500 
L 1656 3500 
L 1656 2925 
Q 1872 3269 2151 3426 
Q 2431 3584 2822 3584 
Q 2878 3584 2943 3579 
Q 3009 3575 3134 3559 
L 3138 2547 
z
" transform="scale(0.015625)"/>
      <path id="DejaVuSans-Bold-61" d="M 2106 1575 
Q 1756 1575 1579 1456 
Q 1403 1338 1403 1106 
Q 1403 894 1545 773 
Q 1688 653 1941 653 
Q 2256 653 2472 879 
Q 2688 1106 2688 1447 
L 2688 1575 
L 2106 1575 
z
M 3816 1997 
L 3816 0 
L 2688 0 
L 2688 519 
Q 2463 200 2181 54 
Q 1900 -91 1497 -91 
Q 953 -91 614 226 
Q 275 544 275 1050 
Q 275 1666 698 1953 
Q 1122 2241 2028 2241 
L 2688 2241 
L 2688 2328 
Q 2688 2594 2478 2717 
Q 2269 2841 1825 2841 
Q 1466 2841 1156 2769 
Q 847 2697 581 2553 
L 581 3406 
Q 941 3494 1303 3539 
Q 1666 3584 2028 3584 
Q 2975 3584 3395 3211 
Q 3816 2838 3816 1997 
z
" transform="scale(0.015625)"/>
      <path id="DejaVuSans-Bold-69" d="M 538 3500 
L 1656 3500 
L 1656 0 
L 538 0 
L 538 3500 
z
M 538 4863 
L 1656 4863 
L 1656 3950 
L 538 3950 
L 538 4863 
z
" transform="scale(0.015625)"/>
      <path id="DejaVuSans-Bold-6e" d="M 4056 2131 
L 4056 0 
L 2931 0 
L 2931 347 
L 2931 1631 
Q 2931 2084 2911 2256 
Q 2891 2428 2841 2509 
Q 2775 2619 2662 2680 
Q 2550 2741 2406 2741 
Q 2056 2741 1856 2470 
Q 1656 2200 1656 1722 
L 1656 0 
L 538 0 
L 538 3500 
L 1656 3500 
L 1656 2988 
Q 1909 3294 2193 3439 
Q 2478 3584 2822 3584 
Q 3428 3584 3742 3212 
Q 4056 2841 4056 2131 
z
" transform="scale(0.015625)"/>
      <path id="DejaVuSans-Bold-67" d="M 2919 594 
Q 2688 288 2409 144 
Q 2131 0 1766 0 
Q 1125 0 706 504 
Q 288 1009 288 1791 
Q 288 2575 706 3076 
Q 1125 3578 1766 3578 
Q 2131 3578 2409 3434 
Q 2688 3291 2919 2981 
L 2919 3500 
L 4044 3500 
L 4044 353 
Q 4044 -491 3511 -936 
Q 2978 -1381 1966 -1381 
Q 1638 -1381 1331 -1331 
Q 1025 -1281 716 -1178 
L 716 -306 
Q 1009 -475 1290 -558 
Q 1572 -641 1856 -641 
Q 2406 -641 2662 -400 
Q 2919 -159 2919 353 
L 2919 594 
z
M 2181 2772 
Q 1834 2772 1640 2515 
Q 1447 2259 1447 1791 
Q 1447 1309 1634 1061 
Q 1822 813 2181 813 
Q 2531 813 2725 1069 
Q 2919 1325 2919 1791 
Q 2919 2259 2725 2515 
Q 2531 2772 2181 2772 
z
" transform="scale(0.015625)"/>
      <path id="DejaVuSans-Bold-20" transform="scale(0.015625)"/>
      <path id="DejaVuSans-Bold-50" d="M 588 4666 
L 2584 4666 
Q 3475 4666 3951 4270 
Q 4428 3875 4428 3144 
Q 4428 2409 3951 2014 
Q 3475 1619 2584 1619 
L 1791 1619 
L 1791 0 
L 588 0 
L 588 4666 
z
M 1791 3794 
L 1791 2491 
L 2456 2491 
Q 2806 2491 2997 2661 
Q 3188 2831 3188 3144 
Q 3188 3456 2997 3625 
Q 2806 3794 2456 3794 
L 1791 3794 
z
" transform="scale(0.015625)"/>
      <path id="DejaVuSans-Bold-6f" d="M 2203 2784 
Q 1831 2784 1636 2517 
Q 1441 2250 1441 1747 
Q 1441 1244 1636 976 
Q 1831 709 2203 709 
Q 2569 709 2762 976 
Q 2956 1244 2956 1747 
Q 2956 2250 2762 2517 
Q 2569 2784 2203 2784 
z
M 2203 3584 
Q 3106 3584 3614 3096 
Q 4122 2609 4122 1747 
Q 4122 884 3614 396 
Q 3106 -91 2203 -91 
Q 1297 -91 786 396 
Q 275 884 275 1747 
Q 275 2609 786 3096 
Q 1297 3584 2203 3584 
z
" transform="scale(0.015625)"/>
      <path id="DejaVuSans-Bold-65" d="M 4031 1759 
L 4031 1441 
L 1416 1441 
Q 1456 1047 1700 850 
Q 1944 653 2381 653 
Q 2734 653 3104 758 
Q 3475 863 3866 1075 
L 3866 213 
Q 3469 63 3072 -14 
Q 2675 -91 2278 -91 
Q 1328 -91 801 392 
Q 275 875 275 1747 
Q 275 2603 792 3093 
Q 1309 3584 2216 3584 
Q 3041 3584 3536 3087 
Q 4031 2591 4031 1759 
z
M 2881 2131 
Q 2881 2450 2695 2645 
Q 2509 2841 2209 2841 
Q 1884 2841 1681 2658 
Q 1478 2475 1428 2131 
L 2881 2131 
z
" transform="scale(0.015625)"/>
      <path id="DejaVuSans-Bold-73" d="M 3272 3391 
L 3272 2541 
Q 2913 2691 2578 2766 
Q 2244 2841 1947 2841 
Q 1628 2841 1473 2761 
Q 1319 2681 1319 2516 
Q 1319 2381 1436 2309 
Q 1553 2238 1856 2203 
L 2053 2175 
Q 2913 2066 3209 1816 
Q 3506 1566 3506 1031 
Q 3506 472 3093 190 
Q 2681 -91 1863 -91 
Q 1516 -91 1145 -36 
Q 775 19 384 128 
L 384 978 
Q 719 816 1070 734 
Q 1422 653 1784 653 
Q 2113 653 2278 743 
Q 2444 834 2444 1013 
Q 2444 1163 2330 1236 
Q 2216 1309 1875 1350 
L 1678 1375 
Q 931 1469 631 1722 
Q 331 1975 331 2491 
Q 331 3047 712 3315 
Q 1094 3584 1881 3584 
Q 2191 3584 2531 3537 
Q 2872 3491 3272 3391 
z
" transform="scale(0.015625)"/>
      <path id="DejaVuSans-Bold-3a" d="M 716 3500 
L 1844 3500 
L 1844 2291 
L 716 2291 
L 716 3500 
z
M 716 1209 
L 1844 1209 
L 1844 0 
L 716 0 
L 716 1209 
z
" transform="scale(0.015625)"/>
      <path id="DejaVuSans-Bold-4c" d="M 588 4666 
L 1791 4666 
L 1791 909 
L 3903 909 
L 3903 0 
L 588 0 
L 588 4666 
z
" transform="scale(0.015625)"/>
     </defs>
     <use xlink:href="#DejaVuSans-Bold-54"/>
     <use xlink:href="#DejaVuSans-Bold-72" transform="translate(57.212891 0)"/>
     <use xlink:href="#DejaVuSans-Bold-61" transform="translate(106.529297 0)"/>
     <use xlink:href="#DejaVuSans-Bold-69" transform="translate(174.009766 0)"/>
     <use xlink:href="#DejaVuSans-Bold-6e" transform="translate(208.287109 0)"/>
     <use xlink:href="#DejaVuSans-Bold-69" transform="translate(279.478516 0)"/>
     <use xlink:href="#DejaVuSans-Bold-6e" transform="translate(313.755859 0)"/>
     <use xlink:href="#DejaVuSans-Bold-67" transform="translate(384.947266 0)"/>
     <use xlink:href="#DejaVuSans-Bold-20" transform="translate(456.529297 0)"/>
     <use xlink:href="#DejaVuSans-Bold-50" transform="translate(491.34375 0)"/>
     <use xlink:href="#DejaVuSans-Bold-72" transform="translate(564.634766 0)"/>
     <use xlink:href="#DejaVuSans-Bold-6f" transform="translate(613.951172 0)"/>
     <use xlink:href="#DejaVuSans-Bold-67" transform="translate(682.652344 0)"/>
     <use xlink:href="#DejaVuSans-Bold-72" transform="translate(754.234375 0)"/>
     <use xlink:href="#DejaVuSans-Bold-65" transform="translate(803.550781 0)"/>
     <use xlink:href="#DejaVuSans-Bold-73" transform="translate(871.373047 0)"/>
     <use xlink:href="#DejaVuSans-Bold-73" transform="translate(930.894531 0)"/>
     <use xlink:href="#DejaVuSans-Bold-3a" transform="translate(990.416016 0)"/>
     <use xlink:href="#DejaVuSans-Bold-20" transform="translate(1030.40625 0)"/>
     <use xlink:href="#DejaVuSans-Bold-4c" transform="translate(1065.220703 0)"/>
     <use xlink:href="#DejaVuSans-Bold-6f" transform="translate(1128.941406 0)"/>
     <use xlink:href="#DejaVuSans-Bold-73" transform="translate(1197.642578 0)"/>
     <use xlink:href="#DejaVuSans-Bold-73" transform="translate(1257.164062 0)"/>
    </g>
   </g>
   <g id="legend_1">
    <g id="patch_7">
     <path d="M 846.345455 174.094375 
L 1023.225455 174.094375 
Q 1029.625455 174.094375 1029.625455 167.694375 
L 1029.625455 76.954375 
Q 1029.625455 70.554375 1023.225455 70.554375 
L 846.345455 70.554375 
Q 839.945455 70.554375 839.945455 76.954375 
L 839.945455 167.694375 
Q 839.945455 174.094375 846.345455 174.094375 
z
" style="fill: #ffffff; opacity: 0.8; stroke: #cccccc; stroke-width: 1.5; stroke-linejoin: miter"/>
    </g>
    <g id="line2d_17">
     <path d="M 852.745455 96.469375 
L 884.745455 96.469375 
L 916.745455 96.469375 
" style="fill: none; stroke: #4c72b0; stroke-width: 6; stroke-linecap: round"/>
    </g>
    <g id="text_16">
     <!-- train -->
     <g style="fill: #262626" transform="translate(942.345455 107.669375) scale(0.32 -0.32)">
      <defs>
       <path id="DejaVuSans-74" d="M 1172 4494 
L 1172 3500 
L 2356 3500 
L 2356 3053 
L 1172 3053 
L 1172 1153 
Q 1172 725 1289 603 
Q 1406 481 1766 481 
L 2356 481 
L 2356 0 
L 1766 0 
Q 1100 0 847 248 
Q 594 497 594 1153 
L 594 3053 
L 172 3053 
L 172 3500 
L 594 3500 
L 594 4494 
L 1172 4494 
z
" transform="scale(0.015625)"/>
       <path id="DejaVuSans-72" d="M 2631 2963 
Q 2534 3019 2420 3045 
Q 2306 3072 2169 3072 
Q 1681 3072 1420 2755 
Q 1159 2438 1159 1844 
L 1159 0 
L 581 0 
L 581 3500 
L 1159 3500 
L 1159 2956 
Q 1341 3275 1631 3429 
Q 1922 3584 2338 3584 
Q 2397 3584 2469 3576 
Q 2541 3569 2628 3553 
L 2631 2963 
z
" transform="scale(0.015625)"/>
       <path id="DejaVuSans-61" d="M 2194 1759 
Q 1497 1759 1228 1600 
Q 959 1441 959 1056 
Q 959 750 1161 570 
Q 1363 391 1709 391 
Q 2188 391 2477 730 
Q 2766 1069 2766 1631 
L 2766 1759 
L 2194 1759 
z
M 3341 1997 
L 3341 0 
L 2766 0 
L 2766 531 
Q 2569 213 2275 61 
Q 1981 -91 1556 -91 
Q 1019 -91 701 211 
Q 384 513 384 1019 
Q 384 1609 779 1909 
Q 1175 2209 1959 2209 
L 2766 2209 
L 2766 2266 
Q 2766 2663 2505 2880 
Q 2244 3097 1772 3097 
Q 1472 3097 1187 3025 
Q 903 2953 641 2809 
L 641 3341 
Q 956 3463 1253 3523 
Q 1550 3584 1831 3584 
Q 2591 3584 2966 3190 
Q 3341 2797 3341 1997 
z
" transform="scale(0.015625)"/>
       <path id="DejaVuSans-69" d="M 603 3500 
L 1178 3500 
L 1178 0 
L 603 0 
L 603 3500 
z
M 603 4863 
L 1178 4863 
L 1178 4134 
L 603 4134 
L 603 4863 
z
" transform="scale(0.015625)"/>
       <path id="DejaVuSans-6e" d="M 3513 2113 
L 3513 0 
L 2938 0 
L 2938 2094 
Q 2938 2591 2744 2837 
Q 2550 3084 2163 3084 
Q 1697 3084 1428 2787 
Q 1159 2491 1159 1978 
L 1159 0 
L 581 0 
L 581 3500 
L 1159 3500 
L 1159 2956 
Q 1366 3272 1645 3428 
Q 1925 3584 2291 3584 
Q 2894 3584 3203 3211 
Q 3513 2838 3513 2113 
z
" transform="scale(0.015625)"/>
      </defs>
      <use xlink:href="#DejaVuSans-74"/>
      <use xlink:href="#DejaVuSans-72" transform="translate(39.208984 0)"/>
      <use xlink:href="#DejaVuSans-61" transform="translate(80.322266 0)"/>
      <use xlink:href="#DejaVuSans-69" transform="translate(141.601562 0)"/>
      <use xlink:href="#DejaVuSans-6e" transform="translate(169.384766 0)"/>
     </g>
    </g>
    <g id="line2d_18">
     <path d="M 852.745455 143.439375 
L 884.745455 143.439375 
L 916.745455 143.439375 
" style="fill: none; stroke: #dd8452; stroke-width: 6; stroke-linecap: round"/>
    </g>
    <g id="text_17">
     <!-- val -->
     <g style="fill: #262626" transform="translate(942.345455 154.639375) scale(0.32 -0.32)">
      <defs>
       <path id="DejaVuSans-76" d="M 191 3500 
L 800 3500 
L 1894 563 
L 2988 3500 
L 3597 3500 
L 2284 0 
L 1503 0 
L 191 3500 
z
" transform="scale(0.015625)"/>
       <path id="DejaVuSans-6c" d="M 603 4863 
L 1178 4863 
L 1178 0 
L 603 0 
L 603 4863 
z
" transform="scale(0.015625)"/>
      </defs>
      <use xlink:href="#DejaVuSans-76"/>
      <use xlink:href="#DejaVuSans-61" transform="translate(59.179688 0)"/>
      <use xlink:href="#DejaVuSans-6c" transform="translate(120.458984 0)"/>
     </g>
    </g>
   </g>
  </g>
 </g>
 <defs>
  <clipPath id="p3ef615d20c">
   <rect x="75.03" y="54.554375" width="970.595455" height="555.34"/>
  </clipPath>
 </defs>
</svg>
