<?xml version="1.0" encoding="utf-8" standalone="no"?>
<!DOCTYPE svg PUBLIC "-//W3C//DTD SVG 1.1//EN"
  "http://www.w3.org/Graphics/SVG/1.1/DTD/svg11.dtd">
<svg xmlns:xlink="http://www.w3.org/1999/xlink" width="1052.955455pt" height="695.534375pt" viewBox="0 0 1052.955455 695.534375" xmlns="http://www.w3.org/2000/svg" version="1.1">
 <metadata>
  <rdf:RDF xmlns:dc="http://purl.org/dc/elements/1.1/" xmlns:cc="http://creativecommons.org/ns#" xmlns:rdf="http://www.w3.org/1999/02/22-rdf-syntax-ns#">
   <cc:Work>
    <dc:type rdf:resource="http://purl.org/dc/dcmitype/StillImage"/>
    <dc:date>2026-04-10T15:43:57.405771</dc:date>
    <dc:format>image/svg+xml</dc:format>
    <dc:creator>
     <cc:Agent>
      <dc:title>Matplotlib v3.10.8, https://matplotlib.org/</dc:title>
     </cc:Agent>
    </dc:creator>
   </cc:Work>
  </rdf:RDF>
 </metadata>
 <defs>
  <style type="text/css">*{stroke-linejoin: round; stroke-linecap: butt}</style>
 </defs>
 <g id="figure_1">
  <g id="patch_1">
   <path d="M 0 695.534375 
L 1052.955455 695.534375 
L 1052.955455 0 
L 0 0 
z
" style="fill: #ffffff"/>
  </g>
  <g id="axes_1">
   <g id="patch_2">
    <path d="M 115.75 609.894375 
L 1045.755455 609.894375 
L 1045.755455 54.554375 
L 115.75 54.554375 
z
" style="fill: #ffffff"/>
   </g>
   <g id="matplotlib.axis_1">
    <g id="xtick_1">
     <g id="line2d_1">
      <path d="M 157.176669 609.894375 
L 157.176669 54.554375 
" clip-path="url(#p38e562e555)" style="fill: none; stroke: #cccccc; stroke-opacity: 0.3; stroke-width: 1.5; stroke-linecap: round"/>
     </g>
     <g id="text_1">
      <!-- 0 -->
      <g style="fill: #262626" transform="translate(146.996669 646.709375) scale(0.32 -0.32)">
       <defs>
        <path id="DejaVuSans-30" d="M 2034 4250 
Q 1547 4250 1301 3770 
Q 1056 3291 1056 2328 
Q 1056 1369 1301 889 
Q 1547 409 2034 409 
Q 2525 409 2770 889 
Q 3016 1369 3016 2328 
Q 3016 3291 2770 3770 
Q 2525 4250 2034 4250 
z
M 2034 4750 
Q 2819 4750 3233 4129 
Q 3647 3509 3647 2328 
Q 3647 1150 3233 529 
Q 2819 -91 2034 -91 
Q 1250 -91 836 529 
Q 422 1150 422 2328 
Q 422 3509 836 4129 
Q 1250 4750 2034 4750 
z
" transform="scale(0.015625)"/>
       </defs>
       <use xlink:href="#DejaVuSans-30"/>
      </g>
     </g>
    </g>
    <g id="xtick_2">
     <g id="line2d_2">
      <path d="M 326.437831 609.894375 
L 326.437831 54.554375 
" clip-path="url(#p38e562e555)" style="fill: none; stroke: #cccccc; stroke-opacity: 0.3; stroke-width: 1.5; stroke-linecap: round"/>
     </g>
     <g id="text_2">
      <!-- 200 -->
      <g style="fill: #262626" transform="translate(295.897831 646.709375) scale(0.32 -0.32)">
       <defs>
        <path id="DejaVuSans-32" d="M 1228 531 
L 3431 531 
L 3431 0 
L 469 0 
L 469 531 
Q 828 903 1448 1529 
Q 2069 2156 2228 2338 
Q 2531 2678 2651 2914 
Q 2772 3150 2772 3378 
Q 2772 3750 2511 3984 
Q 2250 4219 1831 4219 
Q 1534 4219 1204 4116 
Q 875 4013 500 3803 
L 500 4441 
Q 881 4594 1212 4672 
Q 1544 4750 1819 4750 
Q 2544 4750 2975 4387 
Q 3406 4025 3406 3419 
Q 3406 3131 3298 2873 
Q 3191 2616 2906 2266 
Q 2828 2175 2409 1742 
Q 1991 1309 1228 531 
z
" transform="scale(0.015625)"/>
       </defs>
       <use xlink:href="#DejaVuSans-32"/>
       <use xlink:href="#DejaVuSans-30" transform="translate(63.623047 0)"/>
       <use xlink:href="#DejaVuSans-30" transform="translate(127.246094 0)"/>
      </g>
     </g>
    </g>
    <g id="xtick_3">
     <g id="line2d_3">
      <path d="M 495.698993 609.894375 
L 495.698993 54.554375 
" clip-path="url(#p38e562e555)" style="fill: none; stroke: #cccccc; stroke-opacity: 0.3; stroke-width: 1.5; stroke-linecap: round"/>
     </g>
     <g id="text_3">
      <!-- 400 -->
      <g style="fill: #262626" transform="translate(465.158993 646.709375) scale(0.32 -0.32)">
       <defs>
        <path id="DejaVuSans-34" d="M 2419 4116 
L 825 1625 
L 2419 1625 
L 2419 4116 
z
M 2253 4666 
L 3047 4666 
L 3047 1625 
L 3713 1625 
L 3713 1100 
L 3047 1100 
L 3047 0 
L 2419 0 
L 2419 1100 
L 313 1100 
L 313 1709 
L 2253 4666 
z
" transform="scale(0.015625)"/>
       </defs>
       <use xlink:href="#DejaVuSans-34"/>
       <use xlink:href="#DejaVuSans-30" transform="translate(63.623047 0)"/>
       <use xlink:href="#DejaVuSans-30" transform="translate(127.246094 0)"/>
      </g>
     </g>
    </g>
    <g id="xtick_4">
     <g id="line2d_4">
      <path d="M 664.960155 609.894375 
L 664.960155 54.554375 
" clip-path="url(#p38e562e555)" style="fill: none; stroke: #cccccc; stroke-opacity: 0.3; stroke-width: 1.5; stroke-linecap: round"/>
     </g>
     <g id="text_4">
      <!-- 600 -->
      <g style="fill: #262626" transform="translate(634.420155 646.709375) scale(0.32 -0.32)">
       <defs>
        <path id="DejaVuSans-36" d="M 2113 2584 
Q 1688 2584 1439 2293 
Q 1191 2003 1191 1497 
Q 1191 994 1439 701 
Q 1688 409 2113 409 
Q 2538 409 2786 701 
Q 3034 994 3034 1497 
Q 3034 2003 2786 2293 
Q 2538 2584 2113 2584 
z
M 3366 4563 
L 3366 3988 
Q 3128 4100 2886 4159 
Q 2644 4219 2406 4219 
Q 1781 4219 1451 3797 
Q 1122 3375 1075 2522 
Q 1259 2794 1537 2939 
Q 1816 3084 2150 3084 
Q 2853 3084 3261 2657 
Q 3669 2231 3669 1497 
Q 3669 778 3244 343 
Q 2819 -91 2113 -91 
Q 1303 -91 875 529 
Q 447 1150 447 2328 
Q 447 3434 972 4092 
Q 1497 4750 2381 4750 
Q 2619 4750 2861 4703 
Q 3103 4656 3366 4563 
z
" transform="scale(0.015625)"/>
       </defs>
       <use xlink:href="#DejaVuSans-36"/>
       <use xlink:href="#DejaVuSans-30" transform="translate(63.623047 0)"/>
       <use xlink:href="#DejaVuSans-30" transform="translate(127.246094 0)"/>
      </g>
     </g>
    </g>
    <g id="xtick_5">
     <g id="line2d_5">
      <path d="M 834.221317 609.894375 
L 834.221317 54.554375 
" clip-path="url(#p38e562e555)" style="fill: none; stroke: #cccccc; stroke-opacity: 0.3; stroke-width: 1.5; stroke-linecap: round"/>
     </g>
     <g id="text_5">
      <!-- 800 -->
      <g style="fill: #262626" transform="translate(803.681317 646.709375) scale(0.32 -0.32)">
       <defs>
        <path id="DejaVuSans-38" d="M 2034 2216 
Q 1584 2216 1326 1975 
Q 1069 1734 1069 1313 
Q 1069 891 1326 650 
Q 1584 409 2034 409 
Q 2484 409 2743 651 
Q 3003 894 3003 1313 
Q 3003 1734 2745 1975 
Q 2488 2216 2034 2216 
z
M 1403 2484 
Q 997 2584 770 2862 
Q 544 3141 544 3541 
Q 544 4100 942 4425 
Q 1341 4750 2034 4750 
Q 2731 4750 3128 4425 
Q 3525 4100 3525 3541 
Q 3525 3141 3298 2862 
Q 3072 2584 2669 2484 
Q 3125 2378 3379 2068 
Q 3634 1759 3634 1313 
Q 3634 634 3220 271 
Q 2806 -91 2034 -91 
Q 1263 -91 848 271 
Q 434 634 434 1313 
Q 434 1759 690 2068 
Q 947 2378 1403 2484 
z
M 1172 3481 
Q 1172 3119 1398 2916 
Q 1625 2713 2034 2713 
Q 2441 2713 2670 2916 
Q 2900 3119 2900 3481 
Q 2900 3844 2670 4047 
Q 2441 4250 2034 4250 
Q 1625 4250 1398 4047 
Q 1172 3844 1172 3481 
z
" transform="scale(0.015625)"/>
       </defs>
       <use xlink:href="#DejaVuSans-38"/>
       <use xlink:href="#DejaVuSans-30" transform="translate(63.623047 0)"/>
       <use xlink:href="#DejaVuSans-30" transform="translate(127.246094 0)"/>
      </g>
     </g>
    </g>
    <g id="xtick_6">
     <g id="line2d_6">
      <path d="M 1003.482479 609.894375 
L 1003.482479 54.554375 
" clip-path="url(#p38e562e555)" style="fill: none; stroke: #cccccc; stroke-opacity: 0.3; stroke-width: 1.5; stroke-linecap: round"/>
     </g>
     <g id="text_6">
      <!-- 1000 -->
      <g style="fill: #262626" transform="translate(962.762479 646.709375) scale(0.32 -0.32)">
       <defs>
        <path id="DejaVuSans-31" d="M 794 531 
L 1825 531 
L 1825 4091 
L 703 3866 
L 703 4441 
L 1819 4666 
L 2450 4666 
L 2450 531 
L 3481 531 
L 3481 0 
L 794 0 
L 794 531 
z
" transform="scale(0.015625)"/>
       </defs>
       <use xlink:href="#DejaVuSans-31"/>
       <use xlink:href="#DejaVuSans-30" transform="translate(63.623047 0)"/>
       <use xlink:href="#DejaVuSans-30" transform="translate(127.246094 0)"/>
       <use xlink:href="#DejaVuSans-30" transform="translate(190.869141 0)"/>
      </g>
     </g>
    </g>
    <g id="text_7">
     <!-- Epoch -->
     <g style="fill: #262626" transform="translate(531.757727 681.679375) scale(0.32 -0.32)">
      <defs>
       <path id="DejaVuSans-45" d="M 628 4666 
L 3578 4666 
L 3578 4134 
L 1259 4134 
L 1259 2753 
L 3481 2753 
L 3481 2222 
L 1259 2222 
L 1259 531 
L 3634 531 
L 3634 0 
L 628 0 
L 628 4666 
z
" transform="scale(0.015625)"/>
       <path id="DejaVuSans-70" d="M 1159 525 
L 1159 -1331 
L 581 -1331 
L 581 3500 
L 1159 3500 
L 1159 2969 
Q 1341 3281 1617 3432 
Q 1894 3584 2278 3584 
Q 2916 3584 3314 3078 
Q 3713 2572 3713 1747 
Q 3713 922 3314 415 
Q 2916 -91 2278 -91 
Q 1894 -91 1617 61 
Q 1341 213 1159 525 
z
M 3116 1747 
Q 3116 2381 2855 2742 
Q 2594 3103 2138 3103 
Q 1681 3103 1420 2742 
Q 1159 2381 1159 1747 
Q 1159 1113 1420 752 
Q 1681 391 2138 391 
Q 2594 391 2855 752 
Q 3116 1113 3116 1747 
z
" transform="scale(0.015625)"/>
       <path id="DejaVuSans-6f" d="M 1959 3097 
Q 1497 3097 1228 2736 
Q 959 2375 959 1747 
Q 959 1119 1226 758 
Q 1494 397 1959 397 
Q 2419 397 2687 759 
Q 2956 1122 2956 1747 
Q 2956 2369 2687 2733 
Q 2419 3097 1959 3097 
z
M 1959 3584 
Q 2709 3584 3137 3096 
Q 3566 2609 3566 1747 
Q 3566 888 3137 398 
Q 2709 -91 1959 -91 
Q 1206 -91 779 398 
Q 353 888 353 1747 
Q 353 2609 779 3096 
Q 1206 3584 1959 3584 
z
" transform="scale(0.015625)"/>
       <path id="DejaVuSans-63" d="M 3122 3366 
L 3122 2828 
Q 2878 2963 2633 3030 
Q 2388 3097 2138 3097 
Q 1578 3097 1268 2742 
Q 959 2388 959 1747 
Q 959 1106 1268 751 
Q 1578 397 2138 397 
Q 2388 397 2633 464 
Q 2878 531 3122 666 
L 3122 134 
Q 2881 22 2623 -34 
Q 2366 -91 2075 -91 
Q 1284 -91 818 406 
Q 353 903 353 1747 
Q 353 2603 823 3093 
Q 1294 3584 2113 3584 
Q 2378 3584 2631 3529 
Q 2884 3475 3122 3366 
z
" transform="scale(0.015625)"/>
       <path id="DejaVuSans-68" d="M 3513 2113 
L 3513 0 
L 2938 0 
L 2938 2094 
Q 2938 2591 2744 2837 
Q 2550 3084 2163 3084 
Q 1697 3084 1428 2787 
Q 1159 2491 1159 1978 
L 1159 0 
L 581 0 
L 581 4863 
L 1159 4863 
L 1159 2956 
Q 1366 3272 1645 3428 
Q 1925 3584 2291 3584 
Q 2894 3584 3203 3211 
Q 3513 2838 3513 2113 
z
" transform="scale(0.015625)"/>
      </defs>
      <use xlink:href="#DejaVuSans-45"/>
      <use xlink:href="#DejaVuSans-70" transform="translate(63.183594 0)"/>
      <use xlink:href="#DejaVuSans-6f" transform="translate(126.660156 0)"/>
      <use xlink:href="#DejaVuSans-63" transform="translate(187.841797 0)"/>
      <use xlink:href="#DejaVuSans-68" transform="translate(242.822266 0)"/>
     </g>
    </g>
   </g>
   <g id="matplotlib.axis_2">
    <g id="ytick_1">
     <g id="line2d_7">
      <path d="M 115.75 588.400765 
L 1045.755455 588.400765 
" clip-path="url(#p38e562e555)" style="fill: none; stroke: #cccccc; stroke-opacity: 0.3; stroke-width: 1.5; stroke-linecap: round"/>
     </g>
     <g id="text_8">
      <!-- 0 -->
      <g style="fill: #262626" transform="translate(82.89 600.558265) scale(0.32 -0.32)">
       <use xlink:href="#DejaVuSans-30"/>
      </g>
     </g>
    </g>
    <g id="ytick_2">
     <g id="line2d_8">
      <path d="M 115.75 486.536452 
L 1045.755455 486.536452 
" clip-path="url(#p38e562e555)" style="fill: none; stroke: #cccccc; stroke-opacity: 0.3; stroke-width: 1.5; stroke-linecap: round"/>
     </g>
     <g id="text_9">
      <!-- 20 -->
      <g style="fill: #262626" transform="translate(62.53 498.693952) scale(0.32 -0.32)">
       <use xlink:href="#DejaVuSans-32"/>
       <use xlink:href="#DejaVuSans-30" transform="translate(63.623047 0)"/>
      </g>
     </g>
    </g>
    <g id="ytick_3">
     <g id="line2d_9">
      <path d="M 115.75 384.672138 
L 1045.755455 384.672138 
" clip-path="url(#p38e562e555)" style="fill: none; stroke: #cccccc; stroke-opacity: 0.3; stroke-width: 1.5; stroke-linecap: round"/>
     </g>
     <g id="text_10">
      <!-- 40 -->
      <g style="fill: #262626" transform="translate(62.53 396.829638) scale(0.32 -0.32)">
       <use xlink:href="#DejaVuSans-34"/>
       <use xlink:href="#DejaVuSans-30" transform="translate(63.623047 0)"/>
      </g>
     </g>
    </g>
    <g id="ytick_4">
     <g id="line2d_10">
      <path d="M 115.75 282.807825 
L 1045.755455 282.807825 
" clip-path="url(#p38e562e555)" style="fill: none; stroke: #cccccc; stroke-opacity: 0.3; stroke-width: 1.5; stroke-linecap: round"/>
     </g>
     <g id="text_11">
      <!-- 60 -->
      <g style="fill: #262626" transform="translate(62.53 294.965325) scale(0.32 -0.32)">
       <use xlink:href="#DejaVuSans-36"/>
       <use xlink:href="#DejaVuSans-30" transform="translate(63.623047 0)"/>
      </g>
     </g>
    </g>
    <g id="ytick_5">
     <g id="line2d_11">
      <path d="M 115.75 180.943511 
L 1045.755455 180.943511 
" clip-path="url(#p38e562e555)" style="fill: none; stroke: #cccccc; stroke-opacity: 0.3; stroke-width: 1.5; stroke-linecap: round"/>
     </g>
     <g id="text_12">
      <!-- 80 -->
      <g style="fill: #262626" transform="translate(62.53 193.101011) scale(0.32 -0.32)">
       <use xlink:href="#DejaVuSans-38"/>
       <use xlink:href="#DejaVuSans-30" transform="translate(63.623047 0)"/>
      </g>
     </g>
    </g>
    <g id="ytick_6">
     <g id="line2d_12">
      <path d="M 115.75 79.079198 
L 1045.755455 79.079198 
" clip-path="url(#p38e562e555)" style="fill: none; stroke: #cccccc; stroke-opacity: 0.3; stroke-width: 1.5; stroke-linecap: round"/>
     </g>
     <g id="text_13">
      <!-- 100 -->
      <g style="fill: #262626" transform="translate(42.17 91.236698) scale(0.32 -0.32)">
       <use xlink:href="#DejaVuSans-31"/>
       <use xlink:href="#DejaVuSans-30" transform="translate(63.623047 0)"/>
       <use xlink:href="#DejaVuSans-30" transform="translate(127.246094 0)"/>
      </g>
     </g>
    </g>
    <g id="text_14">
     <!-- Accuracy (%) -->
     <g style="fill: #262626" transform="translate(31.515 438.046875) rotate(-90) scale(0.32 -0.32)">
      <defs>
       <path id="DejaVuSans-41" d="M 2188 4044 
L 1331 1722 
L 3047 1722 
L 2188 4044 
z
M 1831 4666 
L 2547 4666 
L 4325 0 
L 3669 0 
L 3244 1197 
L 1141 1197 
L 716 0 
L 50 0 
L 1831 4666 
z
" transform="scale(0.015625)"/>
       <path id="DejaVuSans-75" d="M 544 1381 
L 544 3500 
L 1119 3500 
L 1119 1403 
Q 1119 906 1312 657 
Q 1506 409 1894 409 
Q 2359 409 2629 706 
Q 2900 1003 2900 1516 
L 2900 3500 
L 3475 3500 
L 3475 0 
L 2900 0 
L 2900 538 
Q 2691 219 2414 64 
Q 2138 -91 1772 -91 
Q 1169 -91 856 284 
Q 544 659 544 1381 
z
M 1991 3584 
L 1991 3584 
z
" transform="scale(0.015625)"/>
       <path id="DejaVuSans-72" d="M 2631 2963 
Q 2534 3019 2420 3045 
Q 2306 3072 2169 3072 
Q 1681 3072 1420 2755 
Q 1159 2438 1159 1844 
L 1159 0 
L 581 0 
L 581 3500 
L 1159 3500 
L 1159 2956 
Q 1341 3275 1631 3429 
Q 1922 3584 2338 3584 
Q 2397 3584 2469 3576 
Q 2541 3569 2628 3553 
L 2631 2963 
z
" transform="scale(0.015625)"/>
       <path id="DejaVuSans-61" d="M 2194 1759 
Q 1497 1759 1228 1600 
Q 959 1441 959 1056 
Q 959 750 1161 570 
Q 1363 391 1709 391 
Q 2188 391 2477 730 
Q 2766 1069 2766 1631 
L 2766 1759 
L 2194 1759 
z
M 3341 1997 
L 3341 0 
L 2766 0 
L 2766 531 
Q 2569 213 2275 61 
Q 1981 -91 1556 -91 
Q 1019 -91 701 211 
Q 384 513 384 1019 
Q 384 1609 779 1909 
Q 1175 2209 1959 2209 
L 2766 2209 
L 2766 2266 
Q 2766 2663 2505 2880 
Q 2244 3097 1772 3097 
Q 1472 3097 1187 3025 
Q 903 2953 641 2809 
L 641 3341 
Q 956 3463 1253 3523 
Q 1550 3584 1831 3584 
Q 2591 3584 2966 3190 
Q 3341 2797 3341 1997 
z
" transform="scale(0.015625)"/>
       <path id="DejaVuSans-79" d="M 2059 -325 
Q 1816 -950 1584 -1140 
Q 1353 -1331 966 -1331 
L 506 -1331 
L 506 -850 
L 844 -850 
Q 1081 -850 1212 -737 
Q 1344 -625 1503 -206 
L 1606 56 
L 191 3500 
L 800 3500 
L 1894 763 
L 2988 3500 
L 3597 3500 
L 2059 -325 
z
" transform="scale(0.015625)"/>
       <path id="DejaVuSans-20" transform="scale(0.015625)"/>
       <path id="DejaVuSans-28" d="M 1984 4856 
Q 1566 4138 1362 3434 
Q 1159 2731 1159 2009 
Q 1159 1288 1364 580 
Q 1569 -128 1984 -844 
L 1484 -844 
Q 1016 -109 783 600 
Q 550 1309 550 2009 
Q 550 2706 781 3412 
Q 1013 4119 1484 4856 
L 1984 4856 
z
" transform="scale(0.015625)"/>
       <path id="DejaVuSans-25" d="M 4653 2053 
Q 4381 2053 4226 1822 
Q 4072 1591 4072 1178 
Q 4072 772 4226 539 
Q 4381 306 4653 306 
Q 4919 306 5073 539 
Q 5228 772 5228 1178 
Q 5228 1588 5073 1820 
Q 4919 2053 4653 2053 
z
M 4653 2450 
Q 5147 2450 5437 2106 
Q 5728 1763 5728 1178 
Q 5728 594 5436 251 
Q 5144 -91 4653 -91 
Q 4153 -91 3862 251 
Q 3572 594 3572 1178 
Q 3572 1766 3864 2108 
Q 4156 2450 4653 2450 
z
M 1428 4353 
Q 1159 4353 1004 4120 
Q 850 3888 850 3481 
Q 850 3069 1003 2837 
Q 1156 2606 1428 2606 
Q 1700 2606 1854 2837 
Q 2009 3069 2009 3481 
Q 2009 3884 1853 4118 
Q 1697 4353 1428 4353 
z
M 4250 4750 
L 4750 4750 
L 1831 -91 
L 1331 -91 
L 4250 4750 
z
M 1428 4750 
Q 1922 4750 2215 4408 
Q 2509 4066 2509 3481 
Q 2509 2891 2217 2550 
Q 1925 2209 1428 2209 
Q 931 2209 642 2551 
Q 353 2894 353 3481 
Q 353 4063 643 4406 
Q 934 4750 1428 4750 
z
" transform="scale(0.015625)"/>
       <path id="DejaVuSans-29" d="M 513 4856 
L 1013 4856 
Q 1481 4119 1714 3412 
Q 1947 2706 1947 2009 
Q 1947 1309 1714 600 
Q 1481 -109 1013 -844 
L 513 -844 
Q 928 -128 1133 580 
Q 1338 1288 1338 2009 
Q 1338 2731 1133 3434 
Q 928 4138 513 4856 
z
" transform="scale(0.015625)"/>
      </defs>
      <use xlink:href="#DejaVuSans-41"/>
      <use xlink:href="#DejaVuSans-63" transform="translate(66.658203 0)"/>
      <use xlink:href="#DejaVuSans-63" transform="translate(121.638672 0)"/>
      <use xlink:href="#DejaVuSans-75" transform="translate(176.619141 0)"/>
      <use xlink:href="#DejaVuSans-72" transform="translate(239.998047 0)"/>
      <use xlink:href="#DejaVuSans-61" transform="translate(281.111328 0)"/>
      <use xlink:href="#DejaVuSans-63" transform="translate(342.390625 0)"/>
      <use xlink:href="#DejaVuSans-79" transform="translate(397.371094 0)"/>
      <use xlink:href="#DejaVuSans-20" transform="translate(456.550781 0)"/>
      <use xlink:href="#DejaVuSans-28" transform="translate(488.337891 0)"/>
      <use xlink:href="#DejaVuSans-25" transform="translate(527.351562 0)"/>
      <use xlink:href="#DejaVuSans-29" transform="translate(622.371094 0)"/>
     </g>
    </g>
   </g>
   <g id="FillBetweenPolyCollection_1"/>
   <g id="FillBetweenPolyCollection_2"/>
   <g id="line2d_13">
    <path d="M 158.022975 584.491498 
L 158.869281 583.933032 
L 159.715587 583.77347 
L 160.561893 582.337413 
L 161.408198 580.34289 
L 162.254504 580.901356 
L 163.10081 579.864204 
L 164.793422 574.51888 
L 165.639727 560.796558 
L 167.332339 547.393359 
L 168.178645 533.112567 
L 169.024951 522.501703 
L 169.871257 518.353095 
L 170.717562 516.438352 
L 171.563868 504.311649 
L 172.410174 499.445007 
L 173.25648 499.524787 
L 174.102786 495.615521 
L 174.949091 477.744588 
L 175.795397 480.856049 
L 176.641703 492.583849 
L 177.488009 481.254952 
L 178.334315 465.538104 
L 180.026926 448.704328 
L 180.873232 460.511909 
L 181.719538 468.809126 
L 182.565844 444.396158 
L 183.41215 454.767672 
L 184.258455 448.066083 
L 185.104761 435.221354 
L 185.951067 428.041066 
L 186.797373 446.151332 
L 187.643679 440.965575 
L 188.489984 439.050825 
L 189.33629 435.540476 
L 190.182596 426.924121 
L 191.028902 409.212758 
L 191.875208 430.514266 
L 192.721513 416.951511 
L 193.567819 417.589756 
L 194.414125 411.366851 
L 195.260431 438.651921 
L 196.106737 411.287055 
L 196.953042 375.226068 
L 197.799348 398.522106 
L 198.645654 401.154883 
L 199.49196 393.655472 
L 201.184572 385.916719 
L 202.030877 387.83147 
L 202.877183 378.098186 
L 203.723489 412.005096 
L 204.569795 365.492799 
L 205.416101 369.162723 
L 206.262406 369.242504 
L 207.108712 369.481846 
L 207.955018 401.075102 
L 209.64763 352.009825 
L 210.493935 377.140818 
L 211.340241 375.864328 
L 212.186547 377.938625 
L 213.032853 369.800969 
L 214.725464 343.074347 
L 215.57177 346.664491 
L 216.418076 348.3399 
L 217.264382 368.76382 
L 218.110688 347.382517 
L 218.956994 344.430633 
L 219.803299 350.174855 
L 220.649605 336.053635 
L 221.495911 341.558515 
L 222.342217 360.386822 
L 223.188523 335.654717 
L 224.034828 290.33916 
L 224.881134 355.041489 
L 225.72744 321.453702 
L 226.573746 313.236265 
L 227.420052 347.063394 
L 228.266357 348.738803 
L 229.112663 335.654717 
L 229.958969 307.571839 
L 230.805275 294.966437 
L 231.651581 334.298446 
L 232.497886 329.032893 
L 233.344192 295.28556 
L 234.190498 309.327014 
L 235.036804 296.881173 
L 235.88311 314.273444 
L 236.729416 336.292977 
L 237.575721 309.486575 
L 238.422027 277.015732 
L 239.268333 301.907383 
L 240.114639 296.960953 
L 240.960945 278.850687 
L 242.653556 310.603504 
L 243.499862 302.784971 
L 244.346168 272.069302 
L 245.192474 299.03528 
L 246.038779 277.574196 
L 246.885085 328.713771 
L 247.731391 318.74116 
L 248.577697 271.82996 
L 249.424003 303.98168 
L 250.270308 303.9019 
L 251.116614 297.439637 
L 251.96292 264.330549 
L 252.809226 288.504175 
L 253.655532 286.429878 
L 254.501838 248.693482 
L 255.348143 252.443203 
L 256.194449 314.592566 
L 257.040755 247.736114 
L 257.887061 262.734936 
L 258.733367 249.331727 
L 259.579672 307.731401 
L 260.425978 326.639474 
L 261.272284 287.307465 
L 262.11859 263.21362 
L 262.964896 229.466287 
L 263.811201 276.297706 
L 264.657507 334.77713 
L 267.196425 205.21288 
L 268.04273 253.161229 
L 268.889036 290.817844 
L 269.735342 284.674704 
L 270.581648 254.996183 
L 271.427954 267.761147 
L 272.27426 247.576553 
L 273.120565 233.215977 
L 273.966871 234.253125 
L 274.813177 261.93713 
L 275.659483 271.271495 
L 276.505789 227.551551 
L 277.352094 225.477224 
L 278.1984 314.353224 
L 279.044706 285.711852 
L 279.891012 225.636785 
L 280.737318 202.420527 
L 281.583623 260.820201 
L 282.429929 236.00833 
L 283.276235 191.011865 
L 284.122541 272.149082 
L 284.968847 307.013375 
L 285.815153 223.642269 
L 286.661458 183.432673 
L 287.507764 221.966876 
L 288.35407 299.194842 
L 289.200376 213.190975 
L 290.046682 215.424833 
L 290.892987 246.539405 
L 291.739293 268.558953 
L 292.585599 229.226945 
L 293.431905 214.786588 
L 294.278211 246.220282 
L 295.124516 228.66848 
L 295.970822 265.287917 
L 296.817128 201.223818 
L 297.663434 191.011865 
L 298.50974 286.749001 
L 299.356045 222.52534 
L 300.202351 186.783491 
L 301.048657 240.954729 
L 301.894963 217.020446 
L 302.741269 206.010686 
L 303.587575 225.796347 
L 304.43388 236.327452 
L 305.280186 232.099048 
L 306.126492 186.62393 
L 306.972798 163.008768 
L 307.819104 322.4111 
L 308.665409 276.457267 
L 309.511715 215.983297 
L 310.358021 217.738471 
L 311.204327 227.232429 
L 312.050633 217.738471 
L 312.896938 165.242626 
L 313.743244 145.456936 
L 314.58955 345.547562 
L 315.435856 244.225766 
L 316.282162 177.129972 
L 317.128467 168.114729 
L 317.974773 143.46242 
L 318.821079 251.007151 
L 319.667385 335.814293 
L 320.513691 222.52534 
L 321.359997 161.732248 
L 322.206302 134.447177 
L 323.052608 125.272372 
L 323.898914 202.819461 
L 324.74522 317.145547 
L 325.591526 257.549164 
L 326.437831 213.749439 
L 327.284137 196.51676 
L 328.130443 158.062338 
L 328.976749 163.806575 
L 329.823055 231.779925 
L 330.66936 258.825685 
L 331.515666 196.756102 
L 332.361972 166.678678 
L 333.208278 142.505052 
L 334.054584 276.616829 
L 334.900889 343.553031 
L 335.747195 275.4999 
L 336.593501 197.79325 
L 337.439807 139.79251 
L 338.286113 116.496471 
L 339.132419 131.17617 
L 339.978724 252.921887 
L 340.82503 321.054798 
L 342.517642 167.476484 
L 343.363948 123.995882 
L 344.210253 127.266888 
L 345.056559 141.228562 
L 345.902865 323.448248 
L 346.749171 272.149082 
L 347.595477 199.309082 
L 348.441782 160.85466 
L 349.288088 153.195688 
L 350.134394 161.333344 
L 350.9807 125.990398 
L 351.827006 126.788205 
L 352.673311 345.068878 
L 353.519617 287.307465 
L 354.365923 216.621542 
L 355.212229 159.179267 
L 356.058535 126.788205 
L 356.904841 120.325942 
L 357.751146 121.602432 
L 358.597452 130.777237 
L 359.443758 325.043861 
L 360.290064 355.12127 
L 361.13637 242.311031 
L 361.982675 172.742037 
L 362.828981 137.079938 
L 363.675287 117.693181 
L 364.521593 111.151138 
L 365.367899 114.501925 
L 366.214204 323.368467 
L 367.06051 332.942175 
L 367.906816 224.759198 
L 368.753122 156.227383 
L 369.599428 144.020884 
L 370.445734 129.89965 
L 371.292039 110.273551 
L 372.984651 134.606738 
L 373.830957 301.747822 
L 374.677263 281.084545 
L 375.523568 194.282871 
L 378.062486 117.214497 
L 378.908792 103.093262 
L 379.755097 117.214497 
L 380.601403 386.07628 
L 381.447709 281.962132 
L 382.294015 192.9266 
L 383.986626 124.075663 
L 384.832932 113.305215 
L 385.679238 110.273551 
L 386.525544 108.438596 
L 387.37185 337.808809 
L 388.218156 273.824476 
L 389.064461 178.326682 
L 389.910767 133.410028 
L 390.757073 112.188286 
L 391.603379 111.071357 
L 392.449685 113.145654 
L 393.29599 109.954428 
L 394.142296 302.545629 
L 394.988602 267.282463 
L 395.834908 163.088549 
L 396.681214 120.804626 
L 398.373825 108.358815 
L 399.220131 118.490987 
L 400.066437 321.21436 
L 400.912743 298.636377 
L 401.759048 185.586751 
L 402.605354 129.819869 
L 403.45166 107.561009 
L 404.297966 110.113989 
L 405.144272 117.374058 
L 405.990578 118.650549 
L 406.836883 278.770906 
L 407.683189 308.84833 
L 408.529495 195.32005 
L 409.375801 191.011865 
L 410.222107 203.298145 
L 411.068412 167.157362 
L 411.914718 148.329069 
L 412.761024 148.648192 
L 413.60733 130.458114 
L 414.453636 128.942282 
L 415.299941 115.06042 
L 416.146247 243.50774 
L 416.992553 264.091207 
L 417.838859 181.677499 
L 418.685165 142.026368 
L 419.53147 120.884407 
L 420.377776 111.629822 
L 421.224082 115.858226 
L 422.070388 220.371263 
L 422.916694 384.560448 
L 423.763 261.93713 
L 424.609305 172.422914 
L 425.455611 120.724845 
L 426.301917 106.683391 
L 427.148223 100.620063 
L 427.994529 107.72057 
L 428.840834 104.210191 
L 429.68714 116.895374 
L 430.533446 372.832648 
L 432.226058 187.501517 
L 433.072363 130.298553 
L 433.918669 105.087779 
L 434.764975 94.796045 
L 435.611281 91.365478 
L 436.457587 102.614579 
L 437.303892 154.791332 
L 438.150198 379.773595 
L 438.996504 276.377487 
L 439.84281 192.208575 
L 440.689116 127.187108 
L 441.535422 103.173043 
L 442.381727 96.870342 
L 443.228033 95.833194 
L 444.074339 93.359994 
L 444.920645 95.274729 
L 445.766951 342.037199 
L 446.613256 292.333676 
L 447.459562 194.841366 
L 448.305868 129.89965 
L 449.152174 104.210191 
L 449.99848 98.226613 
L 450.844785 96.072536 
L 451.691091 114.023241 
L 452.537397 116.975155 
L 453.383703 131.255951 
L 454.230009 350.493977 
L 455.076314 284.754485 
L 455.92262 185.108067 
L 456.768926 145.377155 
L 457.615232 114.103022 
L 458.461538 103.173043 
L 459.307844 104.609095 
L 460.154149 103.731508 
L 461.000455 197.155005 
L 461.846761 309.087672 
L 462.693067 202.73968 
L 463.539373 167.476484 
L 464.385678 143.701762 
L 465.231984 155.668919 
L 466.07829 138.835142 
L 466.924596 126.548863 
L 467.770902 98.226613 
L 468.617207 94.955607 
L 469.463513 94.317361 
L 471.156125 357.913607 
L 472.002431 231.700145 
L 472.848737 164.285258 
L 473.695042 113.305215 
L 474.541348 101.018966 
L 475.387654 95.753413 
L 476.23396 105.167559 
L 477.080266 98.386174 
L 477.926571 100.859404 
L 478.772877 158.221899 
L 479.619183 331.825246 
L 480.465489 217.738471 
L 481.311795 157.184751 
L 482.1581 120.804626 
L 483.004406 95.43429 
L 484.697018 88.652905 
L 485.543324 94.636484 
L 486.389629 270.234347 
L 487.235935 327.43728 
L 488.082241 200.34623 
L 488.928547 127.50623 
L 489.774853 108.677938 
L 490.621159 95.593852 
L 491.467464 94.716265 
L 492.31377 103.412385 
L 493.160076 101.736992 
L 494.006382 100.859404 
L 494.852688 96.072536 
L 495.698993 332.862394 
L 496.545299 339.883121 
L 497.391605 210.797555 
L 498.237911 128.623159 
L 499.084217 100.221159 
L 499.930522 93.599336 
L 500.776828 90.886763 
L 501.623134 94.556703 
L 502.46944 92.641968 
L 503.315746 91.60482 
L 504.162051 93.120652 
L 505.008357 342.356321 
L 506.700969 168.992316 
L 507.547275 124.634127 
L 508.393581 117.772962 
L 509.239886 98.545735 
L 510.086192 98.785077 
L 510.932498 93.359994 
L 511.778804 110.034209 
L 513.471415 253.560132 
L 514.317721 199.309082 
L 515.164027 172.263353 
L 516.010333 135.404544 
L 516.856639 108.039693 
L 517.702944 96.551219 
L 518.54925 96.311877 
L 519.395556 105.965366 
L 521.088168 314.99147 
L 521.934473 241.672755 
L 522.780779 141.069 
L 523.627085 102.455017 
L 524.473391 93.838678 
L 525.319697 91.205916 
L 526.166003 87.456196 
L 527.012308 89.21137 
L 527.858614 99.263792 
L 528.70492 110.752235 
L 529.551226 378.257747 
L 530.397532 246.619185 
L 531.243837 168.673194 
L 532.090143 116.895374 
L 532.936449 97.109684 
L 533.782755 90.009176 
L 534.629061 87.775318 
L 535.475366 86.897731 
L 536.321672 87.535976 
L 537.167978 90.088957 
L 538.014284 356.238214 
L 538.86059 339.484203 
L 539.706895 234.253125 
L 540.553201 159.897293 
L 541.399507 121.28331 
L 542.245813 95.992755 
L 543.092119 90.088957 
L 543.938425 87.535976 
L 544.78473 88.333783 
L 545.631036 87.775318 
L 546.477342 88.493344 
L 547.323648 143.302858 
L 548.169954 300.23199 
L 549.016259 201.862063 
L 549.862565 149.924682 
L 550.708871 109.555525 
L 551.555177 105.087779 
L 552.401483 94.237581 
L 553.247788 87.855099 
L 554.9404 92.322845 
L 555.786706 92.163284 
L 556.633012 146.653645 
L 557.479317 402.03247 
L 558.325623 282.121723 
L 559.171929 191.969233 
L 560.018235 119.767478 
L 560.864541 93.998239 
L 561.710847 90.088957 
L 562.557152 85.46168 
L 563.403458 86.578609 
L 564.249764 87.216854 
L 565.09607 86.977512 
L 565.942376 90.806983 
L 566.788681 246.698966 
L 567.634987 301.668042 
L 568.481293 214.228123 
L 569.327599 149.047095 
L 570.173905 108.598157 
L 571.02021 93.280213 
L 571.866516 93.280213 
L 572.712822 91.525039 
L 573.559128 92.562187 
L 574.405434 88.652905 
L 575.25174 90.088957 
L 576.098045 94.796045 
L 576.944351 349.61639 
L 577.790657 232.099048 
L 578.636963 180.56057 
L 579.483269 117.852742 
L 580.329574 95.115168 
L 581.17588 89.690054 
L 582.022186 85.940364 
L 583.714798 86.179705 
L 584.561103 92.96109 
L 585.407409 274.063848 
L 586.253715 284.19602 
L 587.100021 194.761585 
L 587.946327 124.474566 
L 588.792632 92.243065 
L 589.638938 85.940364 
L 590.485244 86.099925 
L 591.33155 83.148041 
L 592.177856 83.467164 
L 593.024162 86.020144 
L 593.870467 248.693482 
L 594.716773 240.476046 
L 596.409385 173.699405 
L 597.255691 112.427628 
L 598.101996 103.731508 
L 598.948302 103.97085 
L 599.794608 93.120652 
L 600.640914 85.302118 
L 602.333525 84.185189 
L 603.179831 104.848437 
L 604.026137 294.328192 
L 604.872443 197.952811 
L 605.718749 136.12257 
L 606.565054 105.087779 
L 607.41136 91.126136 
L 608.257666 91.285697 
L 609.103972 87.615757 
L 609.950278 89.131589 
L 610.796584 183.432673 
L 611.642889 348.020777 
L 614.181807 118.331426 
L 615.028113 89.690054 
L 615.874418 85.54146 
L 616.720724 83.706506 
L 617.56703 84.903215 
L 618.413336 83.227822 
L 619.259642 84.823435 
L 620.105947 89.450712 
L 620.952253 112.507409 
L 621.798559 354.722366 
L 622.644865 229.625848 
L 623.491171 141.547684 
L 624.337476 103.891069 
L 625.183782 93.040871 
L 626.030088 89.370931 
L 626.876394 92.322845 
L 627.7227 87.775318 
L 628.569006 92.641968 
L 629.415311 98.625516 
L 630.261617 331.984807 
L 631.107923 277.893319 
L 631.954229 190.533181 
L 632.800535 140.510536 
L 633.64684 127.825353 
L 634.493146 102.534798 
L 635.339452 95.673632 
L 636.185758 94.1578 
L 637.032064 87.456196 
L 637.878369 87.216854 
L 638.724675 86.578609 
L 639.570981 86.339267 
L 640.417287 290.099818 
L 641.263593 272.707547 
L 642.109898 155.110454 
L 642.956204 109.076841 
L 643.80251 89.769834 
L 644.648816 84.663873 
L 645.495122 83.786286 
L 646.341428 84.025628 
L 647.187733 83.387383 
L 648.880345 113.065873 
L 649.726651 333.979323 
L 651.419262 129.261404 
L 652.265568 105.406901 
L 653.111874 91.046355 
L 653.95818 86.339267 
L 654.804486 85.381899 
L 655.650791 85.222338 
L 656.497097 84.584093 
L 657.343403 85.940364 
L 658.189709 251.645396 
L 659.036015 319.937869 
L 659.882321 216.222639 
L 660.728626 126.309521 
L 661.574932 94.955607 
L 662.421238 88.812467 
L 663.267544 85.621241 
L 664.11385 83.148041 
L 664.960155 84.185189 
L 665.806461 83.866067 
L 666.652767 94.1578 
L 667.499073 106.763172 
L 668.345379 336.213197 
L 669.191684 260.261736 
L 670.03799 206.808493 
L 670.884296 165.162846 
L 671.730602 117.772962 
L 672.576908 95.833194 
L 673.423213 91.126136 
L 674.269519 88.493344 
L 675.115825 89.450712 
L 676.808437 139.313826 
L 677.654743 139.393607 
L 678.501048 96.870342 
L 679.347354 88.652905 
L 680.19366 83.786286 
L 681.039966 85.54146 
L 681.886272 137.877744 
L 682.732577 369.003162 
L 683.578883 212.313388 
L 684.425189 123.916101 
L 685.271495 96.232097 
L 686.117801 86.020144 
L 686.964106 85.701022 
L 687.810412 85.062776 
L 688.656718 82.908669 
L 689.503024 83.148041 
L 690.34933 82.110862 
L 691.195635 84.185189 
L 692.041941 251.645396 
L 692.888247 355.75953 
L 694.580859 138.914923 
L 695.427165 99.902037 
L 696.27347 85.780802 
L 697.119776 81.79174 
L 697.966082 84.584093 
L 698.812388 83.387383 
L 699.658694 83.626725 
L 700.504999 83.626725 
L 701.351305 83.866067 
L 702.197611 92.163284 
L 703.043917 89.370931 
L 703.890223 270.872592 
L 704.736528 340.122463 
L 706.42914 172.422914 
L 707.275446 111.310699 
L 708.121752 87.137073 
L 708.968057 84.26497 
L 709.814363 84.424531 
L 710.660669 82.669327 
L 712.353281 82.270424 
L 713.199587 83.866067 
L 714.045892 87.057293 
L 714.892198 92.243065 
L 715.738504 276.217925 
L 716.58481 357.434923 
L 718.277421 136.361912 
L 719.123727 99.10423 
L 719.970033 87.216854 
L 720.816339 84.185189 
L 721.662645 84.504312 
L 722.50895 84.185189 
L 723.355256 84.025628 
L 724.201562 86.73817 
L 725.047868 86.259486 
L 725.894174 96.471439 
L 726.740479 354.722366 
L 727.586785 214.467465 
L 728.433091 141.069 
L 729.279397 96.471439 
L 730.125703 85.780802 
L 730.972009 83.06826 
L 731.818314 83.148041 
L 732.66462 85.062776 
L 733.510926 83.307602 
L 734.357232 85.940364 
L 735.203538 86.817951 
L 736.049843 232.896854 
L 736.896149 289.780665 
L 737.742455 193.165942 
L 738.588761 130.378333 
L 739.435067 95.912974 
L 740.281372 85.780802 
L 741.127678 84.584093 
L 741.973984 82.589546 
L 742.82029 81.79174 
L 743.666596 81.632178 
L 744.512901 83.227822 
L 745.359207 86.578609 
L 746.205513 290.578502 
L 747.051819 310.842846 
L 747.898125 185.666531 
L 748.744431 103.173043 
L 749.590736 85.860583 
L 750.437042 82.908669 
L 751.283348 82.669327 
L 752.129654 83.786286 
L 752.97596 82.031082 
L 753.822265 83.06826 
L 754.668571 82.988449 
L 755.514877 87.615757 
L 756.361183 252.0443 
L 757.207489 229.466287 
L 758.053794 145.696278 
L 758.9001 103.731508 
L 759.746406 89.131589 
L 760.592712 83.148041 
L 761.439018 82.429985 
L 762.285324 82.429985 
L 763.131629 88.254002 
L 764.824241 84.743654 
L 765.670547 221.328631 
L 766.516853 278.372003 
L 767.363158 192.607478 
L 768.209464 119.129232 
L 769.05577 91.205916 
L 769.902076 89.291151 
L 770.748382 82.669327 
L 771.594687 82.509766 
L 774.133605 84.26497 
L 774.979911 84.584093 
L 775.826216 83.866067 
L 776.672522 209.122132 
L 777.518828 360.307042 
L 778.365134 233.215977 
L 779.21144 135.963009 
L 780.057746 97.269245 
L 780.904051 85.54146 
L 781.750357 82.988449 
L 782.596663 83.945847 
L 783.442969 83.387383 
L 784.289275 84.424531 
L 785.13558 86.897731 
L 785.981886 87.216854 
L 786.828192 86.658389 
L 787.674498 116.656033 
L 788.520804 328.394648 
L 789.367109 230.423654 
L 791.059721 110.832015 
L 791.906027 90.567641 
L 792.752333 84.025628 
L 793.598638 84.105409 
L 794.444944 82.749107 
L 795.29125 82.350204 
L 796.137556 84.584093 
L 796.983862 87.216854 
L 797.830168 278.691125 
L 798.676473 278.372003 
L 800.369085 113.783899 
L 801.215391 88.333783 
L 802.061697 85.142557 
L 802.908002 83.387383 
L 803.754308 83.626725 
L 804.600614 83.148041 
L 805.44692 84.823435 
L 806.293226 87.456196 
L 807.139531 264.569891 
L 807.985837 234.81162 
L 808.832143 217.818252 
L 809.678449 185.666531 
L 810.524755 123.596979 
L 811.37106 111.230918 
L 812.217366 92.96109 
L 813.063672 83.945847 
L 814.756284 82.270424 
L 815.60259 83.06826 
L 816.448895 81.313056 
L 817.295201 83.307602 
L 818.141507 83.307602 
L 818.987813 227.950454 
L 819.834119 322.171758 
L 820.680424 202.260966 
L 821.52673 122.240678 
L 822.373036 92.402626 
L 823.219342 83.06826 
L 824.065648 81.951301 
L 824.911953 82.190643 
L 825.758259 81.87152 
L 826.604565 82.429985 
L 827.450871 82.589546 
L 828.297177 83.866067 
L 829.143482 86.498828 
L 829.989788 222.365779 
L 830.836094 339.883121 
L 831.6824 213.909 
L 832.528706 117.6134 
L 833.375012 86.658389 
L 834.221317 82.110862 
L 835.067623 82.110862 
L 835.913929 81.233275 
L 836.760235 80.993933 
L 837.606541 81.951301 
L 838.452846 95.593852 
L 839.299152 138.117086 
L 840.145458 242.311031 
L 840.991764 200.984476 
L 841.83807 144.180445 
L 842.684375 100.779624 
L 843.530681 86.817951 
L 844.376987 83.626725 
L 845.223293 85.46168 
L 846.915904 82.908669 
L 847.76221 80.914153 
L 848.608516 83.945847 
L 849.454822 83.467164 
L 850.301128 83.626725 
L 851.147434 181.039254 
L 851.993739 338.606616 
L 852.840045 216.541762 
L 853.686351 127.984914 
L 854.532657 93.758897 
L 855.378963 83.786286 
L 856.225268 81.87152 
L 857.071574 81.711959 
L 857.91788 81.392837 
L 858.764186 81.552398 
L 859.610492 83.467164 
L 860.456797 87.296634 
L 861.303103 232.099048 
L 862.149409 306.135788 
L 862.995715 175.295018 
L 863.842021 110.832015 
L 864.688327 92.083503 
L 865.534632 83.706506 
L 866.380938 82.190643 
L 867.227244 81.951301 
L 868.07355 80.914153 
L 868.919856 84.105409 
L 869.766161 83.387383 
L 870.612467 85.54146 
L 871.458773 92.801529 
L 872.305079 225.955908 
L 873.151385 263.692304 
L 873.99769 158.620802 
L 874.843996 121.123749 
L 875.690302 193.883968 
L 876.536608 228.189796 
L 877.382914 122.719361 
L 878.229219 87.855099 
L 879.075525 81.79174 
L 879.921831 82.190643 
L 880.768137 82.110862 
L 882.460749 81.392837 
L 883.307054 81.153495 
L 884.15336 95.673632 
L 884.999666 167.316923 
L 885.845972 285.711852 
L 886.692278 188.059981 
L 887.538583 109.794867 
L 888.384889 86.73817 
L 889.231195 82.669327 
L 890.077501 81.79174 
L 890.923807 81.153495 
L 891.770112 82.110862 
L 892.616418 86.020144 
L 893.462724 155.429577 
L 894.30903 254.836622 
L 895.155336 185.347409 
L 896.001641 125.751056 
L 896.847947 92.083503 
L 897.694253 86.897731 
L 898.540559 83.06826 
L 899.386865 81.632178 
L 900.233171 81.552398 
L 901.079476 88.573125 
L 901.925782 181.916841 
L 902.772088 225.237882 
L 903.618394 179.363861 
L 904.4647 184.948506 
L 905.311005 205.771345 
L 906.157311 123.517198 
L 907.003617 94.1578 
L 907.849923 86.578609 
L 908.696229 85.701022 
L 909.542534 83.148041 
L 911.235146 83.866067 
L 912.081452 91.6846 
L 912.927758 90.966544 
L 913.774063 169.710342 
L 914.620369 282.041943 
L 915.466675 190.134278 
L 916.312981 116.416691 
L 917.159287 87.695538 
L 918.005593 81.87152 
L 918.851898 83.227822 
L 919.698204 81.313056 
L 920.54451 81.233275 
L 921.390816 83.626725 
L 922.237122 87.775318 
L 923.083427 86.73817 
L 923.929733 98.146832 
L 924.776039 311.800214 
L 925.622345 188.698226 
L 926.468651 120.246161 
L 927.314956 94.556703 
L 928.161262 83.148041 
L 929.007568 81.073714 
L 929.853874 80.754591 
L 930.70018 80.674811 
L 931.546485 80.914153 
L 932.392791 82.110862 
L 933.239097 83.546944 
L 934.085403 99.184011 
L 934.931709 325.522545 
L 936.62432 140.191413 
L 937.470626 96.870342 
L 938.316932 84.424531 
L 939.163238 82.110862 
L 940.009544 81.313056 
L 940.855849 81.552398 
L 941.702155 80.914153 
L 942.548461 81.392837 
L 943.394767 83.866067 
L 944.241073 84.025628 
L 945.087378 179.603203 
L 945.933684 309.725917 
L 946.77999 202.580119 
L 947.626296 116.33691 
L 948.472602 88.333783 
L 949.318908 85.940364 
L 950.165213 82.589546 
L 951.011519 83.626725 
L 951.857825 81.87152 
L 952.704131 81.951301 
L 954.396742 81.153495 
L 955.243048 81.472617 
L 956.089354 83.06826 
L 956.93566 86.977512 
L 957.781966 325.442764 
L 958.628271 232.258609 
L 959.474577 151.520295 
L 960.320883 101.57743 
L 961.167189 89.21137 
L 962.013495 84.504312 
L 962.8598 82.988449 
L 963.706106 80.754591 
L 964.552412 81.472617 
L 965.398718 81.073714 
L 966.245024 84.504312 
L 967.09133 139.952071 
L 967.937635 289.541323 
L 968.783941 190.772523 
L 969.630247 122.878953 
L 970.476553 93.918458 
L 971.322859 84.823435 
L 972.169164 83.626725 
L 973.01547 83.06826 
L 973.861776 81.233275 
L 974.708082 82.270424 
L 975.554388 91.126136 
L 976.400693 86.259486 
L 977.246999 191.091646 
L 978.093305 261.538226 
L 978.939611 144.659129 
L 979.785917 96.232097 
L 980.632222 84.424531 
L 981.478528 81.632178 
L 982.324834 80.515249 
L 983.17114 79.877004 
L 984.017446 81.951301 
L 984.863752 90.009176 
L 985.710057 134.92586 
L 986.556363 250.209345 
L 987.402669 144.579349 
L 988.248975 103.571946 
L 989.095281 86.817951 
L 990.787892 81.951301 
L 991.634198 80.914153 
L 992.480504 81.392837 
L 993.32681 81.632178 
L 994.173115 133.489809 
L 995.019421 298.716158 
L 995.865727 174.576992 
L 996.712033 107.481228 
L 997.558339 88.413563 
L 998.404644 83.307602 
L 999.25095 81.313056 
L 1000.097256 81.233275 
L 1000.943562 80.834372 
L 1001.789868 80.59503 
L 1002.636174 81.632178 
L 1003.482479 85.062776 
L 1003.482479 85.062776 
" clip-path="url(#p38e562e555)" style="fill: none; stroke: #4c72b0; stroke-width: 6; stroke-linecap: round"/>
   </g>
   <g id="line2d_14">
    <path d="M 158.022975 583.614658 
L 159.715587 584.412342 
L 160.561893 584.651648 
L 162.254504 582.258594 
L 163.10081 579.945309 
L 163.947116 576.036655 
L 164.793422 563.433239 
L 165.639727 567.980042 
L 166.486033 547.718853 
L 167.332339 540.140853 
L 168.178645 526.021835 
L 169.024951 523.788318 
L 169.871257 504.962963 
L 170.717562 496.268201 
L 171.563868 507.595322 
L 172.410174 503.846208 
L 173.25648 517.087769 
L 174.102786 487.573439 
L 174.949091 486.775754 
L 176.641703 489.567651 
L 177.488009 472.896047 
L 178.334315 446.014084 
L 180.873232 493.316772 
L 182.565844 442.105425 
L 183.41215 450.321571 
L 184.258455 443.142421 
L 185.104761 448.805966 
L 185.951067 436.202553 
L 186.797373 477.283315 
L 187.643679 432.692751 
L 188.489984 459.335402 
L 189.33629 440.350524 
L 190.182596 412.591095 
L 191.028902 416.499754 
L 191.875208 430.14015 
L 192.721513 416.739051 
L 193.567819 415.382992 
L 194.414125 404.215402 
L 195.260431 409.400355 
L 196.106737 382.997 
L 196.953042 426.869644 
L 197.799348 415.542523 
L 198.645654 413.947153 
L 199.49196 373.025937 
L 201.184572 412.989937 
L 202.030877 374.142699 
L 202.877183 475.528406 
L 203.723489 358.986699 
L 204.569795 403.89634 
L 205.416101 385.070978 
L 206.262406 341.43763 
L 207.108712 418.095124 
L 207.955018 393.925278 
L 208.801324 355.556648 
L 209.64763 386.825894 
L 210.493935 390.97385 
L 211.340241 369.43637 
L 212.186547 388.580795 
L 213.032853 351.089615 
L 213.879159 351.967065 
L 214.725464 367.043315 
L 215.57177 342.873469 
L 216.418076 420.488179 
L 217.264382 349.254949 
L 218.110688 377.173908 
L 218.956994 308.971887 
L 219.803299 358.986699 
L 220.649605 348.138187 
L 221.495911 375.578538 
L 222.342217 365.926553 
L 223.188523 300.436663 
L 224.034828 423.678904 
L 224.881134 324.686275 
L 225.72744 309.131417 
L 226.573746 358.26878 
L 227.420052 305.142992 
L 228.266357 402.380736 
L 229.112663 354.758963 
L 229.958969 287.19508 
L 230.805275 372.387798 
L 231.651581 314.635432 
L 232.497886 313.119842 
L 233.344192 306.738362 
L 234.190498 311.604223 
L 235.036804 359.066465 
L 235.88311 349.414479 
L 236.729416 402.460501 
L 237.575721 339.363652 
L 238.422027 290.545351 
L 239.268333 316.071271 
L 240.114639 278.021703 
L 240.960945 288.471388 
L 241.80725 234.228839 
L 242.653556 270.922318 
L 243.499862 260.632194 
L 244.346168 413.947153 
L 245.192474 297.804297 
L 246.038779 427.348267 
L 246.885085 307.456267 
L 247.731391 301.633191 
L 248.577697 280.654069 
L 249.424003 293.49681 
L 250.270308 326.201864 
L 251.116614 280.574319 
L 251.96292 324.367183 
L 252.809226 210.138758 
L 253.655532 252.655344 
L 254.501838 206.868268 
L 255.348143 413.548311 
L 256.194449 254.410245 
L 257.040755 271.480692 
L 257.887061 294.294495 
L 258.733367 269.56626 
L 259.579672 337.289674 
L 260.425978 311.923315 
L 261.272284 256.484238 
L 262.11859 236.302832 
L 262.964896 205.113367 
L 263.811201 379.646729 
L 264.657507 310.327945 
L 265.503813 287.593923 
L 266.350119 247.789484 
L 267.196425 247.23108 
L 268.04273 368.399373 
L 268.889036 226.012677 
L 269.735342 281.451754 
L 270.581648 355.317351 
L 271.427954 340.480414 
L 272.27426 191.951564 
L 273.120565 292.140721 
L 273.966871 256.165176 
L 274.813177 316.390333 
L 275.659483 231.19763 
L 276.505789 266.215989 
L 277.352094 276.426363 
L 278.1984 236.701674 
L 279.044706 234.308619 
L 279.891012 186.607081 
L 280.737318 200.96538 
L 281.583623 357.391329 
L 282.429929 198.333044 
L 283.276235 205.113367 
L 284.122541 326.441176 
L 284.968847 244.199901 
L 285.815153 203.757278 
L 286.661458 186.846362 
L 287.507764 323.729029 
L 288.35407 203.278685 
L 289.200376 208.064795 
L 290.046682 179.507666 
L 290.892987 233.670465 
L 291.739293 267.492297 
L 292.585599 247.629922 
L 293.431905 313.199593 
L 294.278211 218.43467 
L 295.124516 315.592648 
L 295.970822 225.055461 
L 296.817128 197.216267 
L 297.663434 316.549894 
L 298.50974 230.559476 
L 299.356045 199.848634 
L 300.202351 201.922627 
L 301.048657 198.173483 
L 301.894963 227.448516 
L 302.741269 179.587447 
L 303.587575 172.886905 
L 304.43388 252.814875 
L 306.126492 179.188604 
L 307.819104 396.477864 
L 308.665409 258.957043 
L 309.511715 213.090186 
L 310.358021 254.649556 
L 311.204327 204.634744 
L 312.050633 190.356194 
L 312.896938 158.369044 
L 313.743244 223.619622 
L 314.58955 278.500326 
L 315.435856 256.324707 
L 316.282162 164.830274 
L 317.128467 150.471975 
L 317.974773 127.817733 
L 318.821079 471.380443 
L 319.667385 220.987286 
L 320.513691 180.385132 
L 321.359997 152.226876 
L 322.206302 143.611872 
L 323.052608 128.854699 
L 323.898914 334.896619 
L 324.74522 342.554392 
L 325.591526 226.251989 
L 326.437831 203.438216 
L 327.284137 173.923902 
L 328.130443 161.081161 
L 328.976749 159.32626 
L 329.823055 362.975124 
L 330.66936 217.557234 
L 331.515666 176.636018 
L 332.361972 166.984018 
L 333.208278 144.569088 
L 334.054584 476.804699 
L 334.900889 263.663403 
L 335.747195 244.199901 
L 336.593501 152.785249 
L 337.439807 112.98078 
L 338.286113 129.333322 
L 339.132419 181.581659 
L 339.978724 299.080574 
L 340.82503 282.887593 
L 341.671336 171.530847 
L 342.517642 125.903271 
L 343.363948 120.159945 
L 344.210253 125.584209 
L 345.056559 179.507666 
L 345.902865 296.527988 
L 346.749171 264.7004 
L 347.595477 169.616384 
L 348.441782 148.956355 
L 349.288088 216.91908 
L 350.134394 147.121674 
L 350.9807 148.318201 
L 351.827006 198.811637 
L 352.673311 342.713938 
L 353.519617 238.217264 
L 354.365923 167.861483 
L 355.212229 127.498641 
L 356.058535 119.681352 
L 356.904841 118.803886 
L 357.751146 121.356472 
L 358.597452 145.606084 
L 359.443758 411.394567 
L 360.290064 290.146508 
L 361.982675 151.828033 
L 362.828981 129.173791 
L 363.675287 112.183095 
L 364.521593 115.054773 
L 365.367899 143.133279 
L 366.214204 465.716882 
L 367.06051 233.750216 
L 367.906816 148.238451 
L 368.753122 137.150641 
L 369.599428 153.184092 
L 370.445734 122.792311 
L 371.292039 104.286026 
L 372.138345 138.905542 
L 372.984651 115.373835 
L 373.830957 285.440179 
L 374.677263 213.090186 
L 375.523568 165.149367 
L 376.369874 147.839608 
L 377.21618 135.076648 
L 378.062486 107.716077 
L 378.908792 101.972751 
L 379.755097 413.468545 
L 380.601403 405.890553 
L 381.447709 197.854421 
L 382.294015 166.744737 
L 383.140321 157.73089 
L 383.986626 105.482553 
L 384.832932 112.98078 
L 385.679238 109.311447 
L 386.525544 119.043198 
L 387.37185 316.948737 
L 389.064461 142.335594 
L 389.910767 126.541425 
L 390.757073 115.214304 
L 391.603379 115.852458 
L 392.449685 118.405044 
L 393.29599 114.815461 
L 394.142296 269.725791 
L 394.988602 194.743462 
L 395.834908 131.806158 
L 396.681214 120.558787 
L 397.527519 118.883667 
L 398.373825 97.106861 
L 399.220131 104.046714 
L 400.066437 348.217952 
L 400.912743 196.259051 
L 401.759048 155.178304 
L 402.605354 106.200457 
L 403.45166 116.09177 
L 404.297966 142.495125 
L 405.144272 114.416619 
L 405.990578 129.971476 
L 406.836883 273.395154 
L 407.683189 213.967652 
L 408.529495 169.377073 
L 409.375801 177.353923 
L 410.222107 170.095008 
L 411.068412 160.602568 
L 411.914718 144.250026 
L 412.761024 137.549484 
L 413.60733 160.443007 
L 414.453636 132.444282 
L 415.299941 118.644356 
L 416.146247 311.364942 
L 416.992553 174.881117 
L 417.838859 155.098523 
L 418.685165 138.426919 
L 419.53147 107.716077 
L 420.377776 118.405044 
L 421.224082 118.484825 
L 422.070388 521.794106 
L 422.916694 315.114055 
L 423.763 198.971168 
L 424.609305 134.996898 
L 426.301917 96.069864 
L 427.148223 123.510216 
L 427.994529 120.080195 
L 428.840834 107.476766 
L 429.68714 240.211476 
L 430.533446 420.248868 
L 431.379752 217.238142 
L 432.226058 133.880121 
L 433.072363 111.465191 
L 433.918669 92.320751 
L 434.764975 96.787799 
L 435.611281 103.568121 
L 436.457587 146.244238 
L 437.303892 479.117989 
L 438.150198 283.605498 
L 438.996504 267.651828 
L 439.84281 162.277688 
L 440.689116 108.354231 
L 441.535422 96.069864 
L 442.381727 97.425953 
L 443.228033 101.573909 
L 444.074339 95.192429 
L 444.920645 100.297601 
L 445.766951 322.692062 
L 446.613256 210.059008 
L 447.459562 138.985293 
L 448.305868 126.142582 
L 449.152174 96.867549 
L 449.99848 100.13807 
L 450.844785 99.420165 
L 451.691091 143.053498 
L 452.537397 146.403769 
L 453.383703 244.758275 
L 454.230009 318.225014 
L 455.076314 210.936443 
L 455.92262 168.89848 
L 456.768926 164.431432 
L 457.615232 105.801615 
L 458.461538 116.17152 
L 459.307844 100.616693 
L 460.154149 105.163491 
L 461.000455 451.03949 
L 461.846761 247.869234 
L 462.693067 192.190876 
L 463.539373 149.833821 
L 464.385678 141.617659 
L 465.231984 188.760824 
L 466.07829 125.105586 
L 466.924596 110.268663 
L 467.770902 97.585484 
L 468.617207 89.209791 
L 469.463513 97.984326 
L 470.309819 495.39075 
L 471.156125 298.442451 
L 472.002431 196.498363 
L 472.848737 122.074407 
L 474.541348 94.075682 
L 475.387654 98.702231 
L 476.23396 99.260604 
L 477.080266 94.873337 
L 477.926571 128.535637 
L 478.772877 411.314802 
L 479.619183 216.280926 
L 480.465489 151.828033 
L 481.311795 142.973718 
L 482.1581 101.175066 
L 483.004406 91.283784 
L 483.850712 91.124223 
L 484.697018 96.548487 
L 485.543324 108.19467 
L 486.389629 444.259168 
L 487.235935 273.554685 
L 488.082241 130.051227 
L 488.928547 119.28251 
L 489.774853 98.782011 
L 490.621159 93.995901 
L 491.467464 102.531125 
L 492.31377 103.40859 
L 493.160076 96.388956 
L 494.006382 104.286026 
L 494.852688 93.198216 
L 495.698993 423.519373 
L 496.545299 273.474904 
L 497.391605 144.409557 
L 498.237911 111.544971 
L 499.084217 96.388956 
L 499.930522 91.762377 
L 500.776828 89.130011 
L 501.623134 94.394744 
L 502.46944 96.229425 
L 503.315746 95.272179 
L 504.162051 107.157704 
L 505.008357 374.142699 
L 505.854663 196.259051 
L 506.700969 150.152883 
L 507.547275 148.637293 
L 508.393581 112.262876 
L 509.239886 93.277997 
L 510.086192 91.682627 
L 510.932498 98.462919 
L 511.778804 112.661718 
L 512.62511 212.850905 
L 513.471415 198.492575 
L 514.317721 197.375798 
L 515.164027 147.999139 
L 516.010333 128.376106 
L 516.856639 105.642084 
L 517.702944 100.377381 
L 518.54925 103.647872 
L 519.395556 123.510216 
L 520.241862 284.881806 
L 521.088168 256.165176 
L 521.934473 210.218539 
L 522.780779 121.914846 
L 523.627085 96.867549 
L 524.473391 95.591271 
L 525.319697 90.007476 
L 526.166003 91.842158 
L 527.012308 90.326538 
L 527.858614 99.101073 
L 528.70492 306.100208 
L 529.551226 295.09218 
L 530.397532 200.646319 
L 531.243837 129.253542 
L 532.936449 92.958905 
L 533.782755 86.816736 
L 534.629061 92.480312 
L 535.475366 87.295359 
L 536.321672 88.491887 
L 537.167978 94.235213 
L 538.014284 402.540267 
L 538.86059 320.618069 
L 539.706895 184.293776 
L 540.553201 122.553 
L 541.399507 120.319476 
L 542.245813 90.805161 
L 543.092119 88.332326 
L 543.938425 88.332326 
L 544.78473 88.491887 
L 545.631036 93.357747 
L 546.477342 89.768165 
L 547.323648 441.30774 
L 548.169954 199.050949 
L 549.016259 138.5067 
L 549.862565 115.373835 
L 550.708871 119.840883 
L 551.555177 114.416619 
L 552.401483 88.093044 
L 553.247788 85.85952 
L 554.094094 88.491887 
L 554.9404 95.112648 
L 555.786706 95.750802 
L 557.479317 366.405161 
L 558.325623 270.683007 
L 559.171929 149.036136 
L 560.018235 97.665234 
L 560.864541 90.087257 
L 561.710847 86.896517 
L 562.557152 86.417894 
L 563.403458 85.699989 
L 564.249764 85.301147 
L 565.09607 88.093044 
L 565.942376 101.254817 
L 566.788681 445.854538 
L 567.634987 279.377791 
L 568.481293 179.188604 
L 569.327599 128.136795 
L 570.173905 99.659447 
L 571.866516 89.528853 
L 572.712822 98.462919 
L 573.559128 89.369322 
L 574.405434 91.443315 
L 575.25174 90.406319 
L 576.098045 172.886905 
L 576.944351 282.488751 
L 577.790657 133.959901 
L 578.636963 146.004927 
L 579.483269 105.083711 
L 580.329574 90.087257 
L 581.17588 90.167007 
L 582.022186 86.019051 
L 582.868492 87.45489 
L 583.714798 89.768165 
L 584.561103 108.832824 
L 585.407409 296.208927 
L 586.253715 248.028765 
L 587.100021 185.729615 
L 587.946327 109.151916 
L 588.792632 85.540428 
L 589.638938 85.85952 
L 590.485244 82.748561 
L 591.33155 83.147404 
L 592.177856 83.705777 
L 593.024162 86.577425 
L 593.870467 341.43763 
L 594.716773 168.738949 
L 595.563079 237.260048 
L 596.409385 131.646597 
L 597.255691 109.470978 
L 598.101996 97.824795 
L 598.948302 109.869821 
L 599.794608 85.540428 
L 600.640914 83.147404 
L 601.48722 84.742743 
L 602.333525 98.064077 
L 603.179831 291.741878 
L 604.026137 295.570773 
L 604.872443 149.036136 
L 605.718749 129.253542 
L 606.565054 98.462919 
L 607.41136 89.608634 
L 608.257666 88.571637 
L 609.103972 87.773952 
L 609.950278 103.966964 
L 610.796584 394.802728 
L 611.642889 269.64604 
L 612.489195 241.886597 
L 613.335501 153.263872 
L 614.181807 116.969205 
L 615.028113 87.056048 
L 615.874418 84.982055 
L 616.720724 85.540428 
L 617.56703 83.945089 
L 618.413336 82.748561 
L 619.259642 89.05026 
L 620.105947 94.075682 
L 620.952253 460.771241 
L 621.798559 270.363945 
L 622.644865 184.054495 
L 623.491171 124.307901 
L 624.337476 101.254817 
L 625.183782 87.135798 
L 626.030088 90.326538 
L 626.876394 87.853733 
L 627.7227 99.978539 
L 628.569006 91.762377 
L 629.415311 114.735681 
L 630.261617 301.393879 
L 631.107923 191.23363 
L 631.954229 183.416341 
L 632.800535 141.139066 
L 633.64684 107.795827 
L 634.493146 95.511491 
L 635.339452 90.884942 
L 636.185758 89.209791 
L 637.032064 89.369322 
L 637.878369 88.890729 
L 638.724675 84.902304 
L 639.570981 91.762377 
L 640.417287 260.552413 
L 641.263593 209.022011 
L 642.109898 128.535637 
L 642.956204 92.320751 
L 643.80251 89.608634 
L 644.648816 84.18437 
L 645.495122 84.423681 
L 646.341428 83.147404 
L 647.187733 83.386685 
L 648.034039 115.054773 
L 648.880345 264.620619 
L 649.726651 318.225014 
L 650.572957 142.734436 
L 651.419262 115.214304 
L 652.265568 84.024839 
L 653.111874 86.019051 
L 653.95818 85.380897 
L 654.804486 86.497674 
L 655.650791 84.902304 
L 656.497097 91.842158 
L 657.343403 88.412106 
L 658.189709 299.319886 
L 659.036015 250.501601 
L 659.882321 158.927418 
L 660.728626 96.149645 
L 661.574932 92.16122 
L 662.421238 86.976267 
L 663.267544 86.657205 
L 664.11385 82.908092 
L 664.960155 84.742743 
L 665.806461 83.067623 
L 666.652767 92.560062 
L 667.499073 232.473938 
L 668.345379 297.564985 
L 669.191684 205.352648 
L 670.03799 185.889146 
L 670.884296 155.258085 
L 671.730602 108.673293 
L 672.576908 97.106861 
L 673.423213 96.548487 
L 674.269519 82.66878 
L 675.115825 94.155432 
L 675.962131 110.428194 
L 676.808437 155.656897 
L 677.654743 121.037411 
L 678.501048 92.001689 
L 679.347354 83.067623 
L 680.19366 86.019051 
L 681.039966 82.66878 
L 681.886272 487.25437 
L 683.578883 148.956355 
L 684.425189 101.334597 
L 685.271495 86.258363 
L 686.117801 84.742743 
L 686.964106 87.534641 
L 687.810412 84.583212 
L 688.656718 82.908092 
L 689.503024 80.275725 
L 690.34933 83.147404 
L 691.195635 88.890729 
L 692.041941 421.126318 
L 692.888247 285.679491 
L 693.734553 180.704194 
L 694.580859 111.146129 
L 695.427165 91.044473 
L 696.27347 83.785527 
L 697.119776 84.104619 
L 697.966082 84.742743 
L 698.812388 84.742743 
L 699.658694 83.306934 
L 700.504999 83.386685 
L 701.351305 91.762377 
L 702.197611 88.651418 
L 703.043917 95.990114 
L 703.890223 443.700795 
L 704.736528 341.43763 
L 705.582834 171.690377 
L 706.42914 121.994626 
L 707.275446 89.369322 
L 708.121752 84.583212 
L 708.968057 83.705777 
L 709.814363 84.822524 
L 710.660669 82.030626 
L 711.506975 82.349719 
L 712.353281 81.950876 
L 713.199587 90.64563 
L 714.045892 85.301147 
L 714.892198 96.787799 
L 715.738504 422.881219 
L 716.58481 267.093455 
L 717.431116 162.517 
L 718.277421 101.573909 
L 719.123727 84.662993 
L 719.970033 83.227154 
L 720.816339 83.466465 
L 721.662645 84.503462 
L 722.50895 80.834099 
L 723.355256 84.343901 
L 724.201562 86.736956 
L 725.047868 94.155432 
L 725.894174 305.462054 
L 726.740479 239.094699 
L 727.586785 204.554963 
L 728.433091 100.616693 
L 729.279397 84.742743 
L 730.125703 86.497674 
L 730.972009 82.269938 
L 731.818314 85.85952 
L 732.66462 81.871095 
L 733.510926 84.343901 
L 734.357232 91.124223 
L 735.203538 85.301147 
L 736.049843 428.54478 
L 736.896149 242.843843 
L 737.742455 154.938993 
L 738.588761 101.494128 
L 739.435067 89.927696 
L 740.281372 84.423681 
L 741.127678 80.594787 
L 741.973984 82.190157 
L 742.82029 81.312722 
L 743.666596 80.754349 
L 744.512901 84.982055 
L 745.359207 94.474494 
L 746.205513 463.563139 
L 747.051819 284.084121 
L 747.898125 135.555271 
L 748.744431 85.380897 
L 749.590736 85.141586 
L 750.437042 82.190157 
L 751.283348 83.067623 
L 752.129654 81.232941 
L 753.822265 82.828311 
L 754.668571 82.748561 
L 755.514877 92.400531 
L 756.361183 219.152604 
L 757.207489 180.305351 
L 758.053794 110.906817 
L 758.9001 100.776224 
L 759.746406 82.748561 
L 760.592712 82.748561 
L 761.439018 84.26415 
L 762.285324 89.608634 
L 763.131629 85.460678 
L 763.977935 82.429469 
L 764.824241 86.019051 
L 765.670547 295.17193 
L 766.516853 239.413791 
L 767.363158 122.712531 
L 768.209464 96.787799 
L 769.05577 91.044473 
L 769.902076 84.024839 
L 770.748382 82.908092 
L 771.594687 82.589 
L 772.440993 85.460678 
L 773.287299 85.939271 
L 774.133605 83.546246 
L 774.979911 90.964692 
L 775.826216 86.657205 
L 776.672522 518.364062 
L 777.518828 292.938406 
L 778.365134 173.525059 
L 779.21144 107.556546 
L 780.057746 89.608634 
L 780.904051 84.902304 
L 781.750357 81.791315 
L 782.596663 81.711564 
L 784.289275 85.301147 
L 785.13558 89.768165 
L 785.981886 85.301147 
L 786.828192 84.104619 
L 787.674498 455.8256 
L 788.520804 278.899168 
L 789.367109 174.641806 
L 790.213415 107.077923 
L 791.059721 107.875608 
L 791.906027 83.945089 
L 792.752333 84.104619 
L 793.598638 82.030626 
L 794.444944 80.913879 
L 795.29125 81.472253 
L 796.137556 86.816736 
L 796.983862 84.583212 
L 797.830168 298.442451 
L 798.676473 222.662406 
L 799.522779 127.099798 
L 800.369085 97.266392 
L 801.215391 88.731168 
L 802.061697 86.178582 
L 802.908002 84.18437 
L 803.754308 85.221366 
L 804.600614 91.682627 
L 805.44692 87.37511 
L 806.293226 105.323022 
L 807.139531 244.279652 
L 807.985837 249.305073 
L 808.832143 291.662128 
L 809.678449 148.15867 
L 810.524755 97.505703 
L 811.37106 102.770436 
L 812.217366 86.178582 
L 813.063672 84.822524 
L 813.909978 82.269938 
L 814.756284 83.227154 
L 815.60259 80.754349 
L 816.448895 83.546246 
L 817.295201 81.392472 
L 818.141507 85.540428 
L 818.987813 397.036253 
L 819.834119 223.858934 
L 820.680424 115.054773 
L 821.52673 97.186641 
L 822.373036 83.386685 
L 823.219342 82.110407 
L 824.065648 84.343901 
L 824.911953 80.754349 
L 826.604565 83.306934 
L 827.450871 84.822524 
L 828.297177 84.583212 
L 829.143482 82.589 
L 829.989788 453.113468 
L 830.836094 313.518685 
L 831.6824 140.10207 
L 832.528706 89.688414 
L 833.375012 83.306934 
L 835.067623 80.594787 
L 835.913929 81.711564 
L 836.760235 81.950876 
L 837.606541 83.067623 
L 838.452846 91.921908 
L 839.299152 226.012677 
L 840.145458 197.934202 
L 840.991764 214.286714 
L 841.83807 123.909058 
L 842.684375 91.762377 
L 843.530681 85.141586 
L 844.376987 84.902304 
L 845.223293 83.466465 
L 846.069599 81.631784 
L 846.915904 80.834099 
L 847.76221 82.908092 
L 848.608516 86.338113 
L 849.454822 84.104619 
L 850.301128 87.37511 
L 851.147434 392.329908 
L 851.993739 223.30056 
L 853.686351 108.19467 
L 854.532657 87.215579 
L 855.378963 83.865308 
L 856.225268 82.908092 
L 857.071574 82.190157 
L 857.91788 81.711564 
L 858.764186 81.871095 
L 859.610492 83.546246 
L 860.456797 115.214304 
L 861.303103 404.055871 
L 862.149409 206.070583 
L 862.995715 126.860487 
L 863.842021 94.793586 
L 864.688327 84.503462 
L 865.534632 81.631784 
L 866.380938 82.110407 
L 867.227244 81.153191 
L 868.07355 83.386685 
L 868.919856 83.306934 
L 869.766161 82.908092 
L 870.612467 92.081469 
L 871.458773 91.124223 
L 872.305079 312.561469 
L 873.151385 159.406041 
L 873.99769 117.128736 
L 874.843996 168.579388 
L 875.690302 263.10503 
L 876.536608 142.893967 
L 877.382914 91.044473 
L 878.229219 81.232941 
L 879.075525 81.631784 
L 879.921831 81.153191 
L 880.768137 81.711564 
L 881.614443 81.631784 
L 882.460749 80.834099 
L 883.307054 89.130011 
L 884.15336 132.444282 
L 884.999666 251.139755 
L 885.845972 157.890421 
L 886.692278 144.88818 
L 887.538583 97.505703 
L 888.384889 82.748561 
L 889.231195 81.631784 
L 890.077501 82.110407 
L 890.923807 82.030626 
L 891.770112 83.466465 
L 892.616418 90.725381 
L 893.462724 297.644766 
L 894.30903 275.389366 
L 895.155336 119.761102 
L 896.001641 111.864033 
L 896.847947 86.816736 
L 897.694253 93.437528 
L 898.540559 84.982055 
L 899.386865 82.509249 
L 900.233171 82.66878 
L 901.079476 113.220092 
L 901.925782 287.274861 
L 903.618394 168.499638 
L 904.4647 298.761513 
L 905.311005 133.082436 
L 907.003617 89.289572 
L 907.849923 90.486099 
L 908.696229 84.343901 
L 909.542534 85.221366 
L 910.38884 81.950876 
L 911.235146 84.822524 
L 912.081452 89.688414 
L 912.927758 101.972751 
L 913.774063 302.590407 
L 914.620369 202.959593 
L 915.466675 135.236179 
L 916.312981 105.801615 
L 917.159287 80.99363 
L 918.005593 81.791315 
L 918.851898 83.306934 
L 919.698204 81.472253 
L 920.54451 81.472253 
L 921.390816 91.842158 
L 922.237122 86.098832 
L 923.083427 84.18437 
L 923.929733 318.703637 
L 925.622345 156.773674 
L 926.468651 104.684868 
L 927.314956 83.785527 
L 928.161262 82.908092 
L 929.007568 80.594787 
L 930.70018 81.711564 
L 931.546485 81.232941 
L 933.239097 85.061835 
L 934.085403 237.180267 
L 934.931709 285.280648 
L 936.62432 119.202729 
L 937.470626 87.933483 
L 938.316932 82.509249 
L 939.163238 81.312722 
L 940.009544 81.950876 
L 940.855849 80.674568 
L 941.702155 81.232941 
L 942.548461 82.748561 
L 943.394767 83.705777 
L 944.241073 89.05026 
L 945.087378 296.7673 
L 945.933684 254.968649 
L 946.77999 141.77719 
L 947.626296 98.782011 
L 948.472602 88.172795 
L 949.318908 83.147404 
L 951.011519 82.429469 
L 951.857825 80.99363 
L 952.704131 82.589 
L 953.550437 81.232941 
L 954.396742 82.908092 
L 955.243048 80.754349 
L 956.089354 89.449103 
L 956.93566 104.286026 
L 957.781966 293.018187 
L 958.628271 169.696165 
L 959.474577 125.344897 
L 960.320883 92.16122 
L 961.167189 84.662993 
L 962.8598 81.07341 
L 963.706106 80.594787 
L 965.398718 81.392472 
L 966.245024 108.673293 
L 967.09133 342.953234 
L 967.937635 263.743153 
L 968.783941 163.553997 
L 969.630247 112.821249 
L 970.476553 90.007476 
L 971.322859 82.349719 
L 972.169164 82.589 
L 973.01547 82.349719 
L 973.861776 80.275725 
L 974.708082 84.343901 
L 975.554388 94.155432 
L 976.400693 83.865308 
L 977.246999 401.343739 
L 978.093305 193.148092 
L 978.939611 110.827037 
L 979.785917 86.816736 
L 980.632222 85.221366 
L 981.478528 80.515037 
L 982.324834 79.797102 
L 983.17114 83.147404 
L 984.017446 88.093044 
L 984.863752 95.671022 
L 985.710057 315.99149 
L 986.556363 147.520516 
L 987.402669 134.837337 
L 988.248975 93.277997 
L 989.095281 93.517278 
L 989.941586 83.227154 
L 990.787892 81.472253 
L 991.634198 80.355506 
L 992.480504 80.99363 
L 993.32681 82.828311 
L 994.173115 359.305776 
L 995.019421 267.013674 
L 995.865727 115.692927 
L 996.712033 93.517278 
L 997.558339 84.343901 
L 998.404644 80.674568 
L 999.25095 80.195945 
L 1000.097256 80.99363 
L 1000.943562 81.232941 
L 1001.789868 81.153191 
L 1002.636174 82.987842 
L 1003.482479 90.406319 
L 1003.482479 90.406319 
" clip-path="url(#p38e562e555)" style="fill: none; stroke: #dd8452; stroke-width: 6; stroke-linecap: round"/>
   </g>
   <g id="line2d_15"/>
   <g id="line2d_16"/>
   <g id="patch_3">
    <path d="M 115.75 609.894375 
L 115.75 54.554375 
" style="fill: none; stroke: #cccccc; stroke-width: 1.875; stroke-linejoin: miter; stroke-linecap: square"/>
   </g>
   <g id="patch_4">
    <path d="M 1045.755455 609.894375 
L 1045.755455 54.554375 
" style="fill: none; stroke: #cccccc; stroke-width: 1.875; stroke-linejoin: miter; stroke-linecap: square"/>
   </g>
   <g id="patch_5">
    <path d="M 115.75 609.894375 
L 1045.755455 609.894375 
" style="fill: none; stroke: #cccccc; stroke-width: 1.875; stroke-linejoin: miter; stroke-linecap: square"/>
   </g>
   <g id="patch_6">
    <path d="M 115.75 54.554375 
L 1045.755455 54.554375 
" style="fill: none; stroke: #cccccc; stroke-width: 1.875; stroke-linejoin: miter; stroke-linecap: square"/>
   </g>
   <g id="text_15">
    <!-- Training Progress: Accuracy -->
    <g style="fill: #262626" transform="translate(297.50304 34.554375) scale(0.36 -0.36)">
     <defs>
      <path id="DejaVuSans-Bold-54" d="M 31 4666 
L 4331 4666 
L 4331 3756 
L 2784 3756 
L 2784 0 
L 1581 0 
L 1581 3756 
L 31 3756 
L 31 4666 
z
" transform="scale(0.015625)"/>
      <path id="DejaVuSans-Bold-72" d="M 3138 2547 
Q 2991 2616 2845 2648 
Q 2700 2681 2553 2681 
Q 2122 2681 1889 2404 
Q 1656 2128 1656 1613 
L 1656 0 
L 538 0 
L 538 3500 
L 1656 3500 
L 1656 2925 
Q 1872 3269 2151 3426 
Q 2431 3584 2822 3584 
Q 2878 3584 2943 3579 
Q 3009 3575 3134 3559 
L 3138 2547 
z
" transform="scale(0.015625)"/>
      <path id="DejaVuSans-Bold-61" d="M 2106 1575 
Q 1756 1575 1579 1456 
Q 1403 1338 1403 1106 
Q 1403 894 1545 773 
Q 1688 653 1941 653 
Q 2256 653 2472 879 
Q 2688 1106 2688 1447 
L 2688 1575 
L 2106 1575 
z
M 3816 1997 
L 3816 0 
L 2688 0 
L 2688 519 
Q 2463 200 2181 54 
Q 1900 -91 1497 -91 
Q 953 -91 614 226 
Q 275 544 275 1050 
Q 275 1666 698 1953 
Q 1122 2241 2028 2241 
L 2688 2241 
L 2688 2328 
Q 2688 2594 2478 2717 
Q 2269 2841 1825 2841 
Q 1466 2841 1156 2769 
Q 847 2697 581 2553 
L 581 3406 
Q 941 3494 1303 3539 
Q 1666 3584 2028 3584 
Q 2975 3584 3395 3211 
Q 3816 2838 3816 1997 
z
" transform="scale(0.015625)"/>
      <path id="DejaVuSans-Bold-69" d="M 538 3500 
L 1656 3500 
L 1656 0 
L 538 0 
L 538 3500 
z
M 538 4863 
L 1656 4863 
L 1656 3950 
L 538 3950 
L 538 4863 
z
" transform="scale(0.015625)"/>
      <path id="DejaVuSans-Bold-6e" d="M 4056 2131 
L 4056 0 
L 2931 0 
L 2931 347 
L 2931 1631 
Q 2931 2084 2911 2256 
Q 2891 2428 2841 2509 
Q 2775 2619 2662 2680 
Q 2550 2741 2406 2741 
Q 2056 2741 1856 2470 
Q 1656 2200 1656 1722 
L 1656 0 
L 538 0 
L 538 3500 
L 1656 3500 
L 1656 2988 
Q 1909 3294 2193 3439 
Q 2478 3584 2822 3584 
Q 3428 3584 3742 3212 
Q 4056 2841 4056 2131 
z
" transform="scale(0.015625)"/>
      <path id="DejaVuSans-Bold-67" d="M 2919 594 
Q 2688 288 2409 144 
Q 2131 0 1766 0 
Q 1125 0 706 504 
Q 288 1009 288 1791 
Q 288 2575 706 3076 
Q 1125 3578 1766 3578 
Q 2131 3578 2409 3434 
Q 2688 3291 2919 2981 
L 2919 3500 
L 4044 3500 
L 4044 353 
Q 4044 -491 3511 -936 
Q 2978 -1381 1966 -1381 
Q 1638 -1381 1331 -1331 
Q 1025 -1281 716 -1178 
L 716 -306 
Q 1009 -475 1290 -558 
Q 1572 -641 1856 -641 
Q 2406 -641 2662 -400 
Q 2919 -159 2919 353 
L 2919 594 
z
M 2181 2772 
Q 1834 2772 1640 2515 
Q 1447 2259 1447 1791 
Q 1447 1309 1634 1061 
Q 1822 813 2181 813 
Q 2531 813 2725 1069 
Q 2919 1325 2919 1791 
Q 2919 2259 2725 2515 
Q 2531 2772 2181 2772 
z
" transform="scale(0.015625)"/>
      <path id="DejaVuSans-Bold-20" transform="scale(0.015625)"/>
      <path id="DejaVuSans-Bold-50" d="M 588 4666 
L 2584 4666 
Q 3475 4666 3951 4270 
Q 4428 3875 4428 3144 
Q 4428 2409 3951 2014 
Q 3475 1619 2584 1619 
L 1791 1619 
L 1791 0 
L 588 0 
L 588 4666 
z
M 1791 3794 
L 1791 2491 
L 2456 2491 
Q 2806 2491 2997 2661 
Q 3188 2831 3188 3144 
Q 3188 3456 2997 3625 
Q 2806 3794 2456 3794 
L 1791 3794 
z
" transform="scale(0.015625)"/>
      <path id="DejaVuSans-Bold-6f" d="M 2203 2784 
Q 1831 2784 1636 2517 
Q 1441 2250 1441 1747 
Q 1441 1244 1636 976 
Q 1831 709 2203 709 
Q 2569 709 2762 976 
Q 2956 1244 2956 1747 
Q 2956 2250 2762 2517 
Q 2569 2784 2203 2784 
z
M 2203 3584 
Q 3106 3584 3614 3096 
Q 4122 2609 4122 1747 
Q 4122 884 3614 396 
Q 3106 -91 2203 -91 
Q 1297 -91 786 396 
Q 275 884 275 1747 
Q 275 2609 786 3096 
Q 1297 3584 2203 3584 
z
" transform="scale(0.015625)"/>
      <path id="DejaVuSans-Bold-65" d="M 4031 1759 
L 4031 1441 
L 1416 1441 
Q 1456 1047 1700 850 
Q 1944 653 2381 653 
Q 2734 653 3104 758 
Q 3475 863 3866 1075 
L 3866 213 
Q 3469 63 3072 -14 
Q 2675 -91 2278 -91 
Q 1328 -91 801 392 
Q 275 875 275 1747 
Q 275 2603 792 3093 
Q 1309 3584 2216 3584 
Q 3041 3584 3536 3087 
Q 4031 2591 4031 1759 
z
M 2881 2131 
Q 2881 2450 2695 2645 
Q 2509 2841 2209 2841 
Q 1884 2841 1681 2658 
Q 1478 2475 1428 2131 
L 2881 2131 
z
" transform="scale(0.015625)"/>
      <path id="DejaVuSans-Bold-73" d="M 3272 3391 
L 3272 2541 
Q 2913 2691 2578 2766 
Q 2244 2841 1947 2841 
Q 1628 2841 1473 2761 
Q 1319 2681 1319 2516 
Q 1319 2381 1436 2309 
Q 1553 2238 1856 2203 
L 2053 2175 
Q 2913 2066 3209 1816 
Q 3506 1566 3506 1031 
Q 3506 472 3093 190 
Q 2681 -91 1863 -91 
Q 1516 -91 1145 -36 
Q 775 19 384 128 
L 384 978 
Q 719 816 1070 734 
Q 1422 653 1784 653 
Q 2113 653 2278 743 
Q 2444 834 2444 1013 
Q 2444 1163 2330 1236 
Q 2216 1309 1875 1350 
L 1678 1375 
Q 931 1469 631 1722 
Q 331 1975 331 2491 
Q 331 3047 712 3315 
Q 1094 3584 1881 3584 
Q 2191 3584 2531 3537 
Q 2872 3491 3272 3391 
z
" transform="scale(0.015625)"/>
      <path id="DejaVuSans-Bold-3a" d="M 716 3500 
L 1844 3500 
L 1844 2291 
L 716 2291 
L 716 3500 
z
M 716 1209 
L 1844 1209 
L 1844 0 
L 716 0 
L 716 1209 
z
" transform="scale(0.015625)"/>
      <path id="DejaVuSans-Bold-41" d="M 3419 850 
L 1538 850 
L 1241 0 
L 31 0 
L 1759 4666 
L 3194 4666 
L 4922 0 
L 3713 0 
L 3419 850 
z
M 1838 1716 
L 3116 1716 
L 2478 3572 
L 1838 1716 
z
" transform="scale(0.015625)"/>
      <path id="DejaVuSans-Bold-63" d="M 3366 3391 
L 3366 2478 
Q 3138 2634 2908 2709 
Q 2678 2784 2431 2784 
Q 1963 2784 1702 2511 
Q 1441 2238 1441 1747 
Q 1441 1256 1702 982 
Q 1963 709 2431 709 
Q 2694 709 2930 787 
Q 3166 866 3366 1019 
L 3366 103 
Q 3103 6 2833 -42 
Q 2563 -91 2291 -91 
Q 1344 -91 809 395 
Q 275 881 275 1747 
Q 275 2613 809 3098 
Q 1344 3584 2291 3584 
Q 2566 3584 2833 3536 
Q 3100 3488 3366 3391 
z
" transform="scale(0.015625)"/>
      <path id="DejaVuSans-Bold-75" d="M 500 1363 
L 500 3500 
L 1625 3500 
L 1625 3150 
Q 1625 2866 1622 2436 
Q 1619 2006 1619 1863 
Q 1619 1441 1641 1255 
Q 1663 1069 1716 984 
Q 1784 875 1895 815 
Q 2006 756 2150 756 
Q 2500 756 2700 1025 
Q 2900 1294 2900 1772 
L 2900 3500 
L 4019 3500 
L 4019 0 
L 2900 0 
L 2900 506 
Q 2647 200 2364 54 
Q 2081 -91 1741 -91 
Q 1134 -91 817 281 
Q 500 653 500 1363 
z
" transform="scale(0.015625)"/>
      <path id="DejaVuSans-Bold-79" d="M 78 3500 
L 1197 3500 
L 2138 1125 
L 2938 3500 
L 4056 3500 
L 2584 -331 
Q 2363 -916 2067 -1148 
Q 1772 -1381 1288 -1381 
L 641 -1381 
L 641 -647 
L 991 -647 
Q 1275 -647 1404 -556 
Q 1534 -466 1606 -231 
L 1638 -134 
L 78 3500 
z
" transform="scale(0.015625)"/>
     </defs>
     <use xlink:href="#DejaVuSans-Bold-54"/>
     <use xlink:href="#DejaVuSans-Bold-72" transform="translate(57.212891 0)"/>
     <use xlink:href="#DejaVuSans-Bold-61" transform="translate(106.529297 0)"/>
     <use xlink:href="#DejaVuSans-Bold-69" transform="translate(174.009766 0)"/>
     <use xlink:href="#DejaVuSans-Bold-6e" transform="translate(208.287109 0)"/>
     <use xlink:href="#DejaVuSans-Bold-69" transform="translate(279.478516 0)"/>
     <use xlink:href="#DejaVuSans-Bold-6e" transform="translate(313.755859 0)"/>
     <use xlink:href="#DejaVuSans-Bold-67" transform="translate(384.947266 0)"/>
     <use xlink:href="#DejaVuSans-Bold-20" transform="translate(456.529297 0)"/>
     <use xlink:href="#DejaVuSans-Bold-50" transform="translate(491.34375 0)"/>
     <use xlink:href="#DejaVuSans-Bold-72" transform="translate(564.634766 0)"/>
     <use xlink:href="#DejaVuSans-Bold-6f" transform="translate(613.951172 0)"/>
     <use xlink:href="#DejaVuSans-Bold-67" transform="translate(682.652344 0)"/>
     <use xlink:href="#DejaVuSans-Bold-72" transform="translate(754.234375 0)"/>
     <use xlink:href="#DejaVuSans-Bold-65" transform="translate(803.550781 0)"/>
     <use xlink:href="#DejaVuSans-Bold-73" transform="translate(871.373047 0)"/>
     <use xlink:href="#DejaVuSans-Bold-73" transform="translate(930.894531 0)"/>
     <use xlink:href="#DejaVuSans-Bold-3a" transform="translate(990.416016 0)"/>
     <use xlink:href="#DejaVuSans-Bold-20" transform="translate(1030.40625 0)"/>
     <use xlink:href="#DejaVuSans-Bold-41" transform="translate(1065.220703 0)"/>
     <use xlink:href="#DejaVuSans-Bold-63" transform="translate(1142.613281 0)"/>
     <use xlink:href="#DejaVuSans-Bold-63" transform="translate(1201.890625 0)"/>
     <use xlink:href="#DejaVuSans-Bold-75" transform="translate(1261.167969 0)"/>
     <use xlink:href="#DejaVuSans-Bold-72" transform="translate(1332.359375 0)"/>
     <use xlink:href="#DejaVuSans-Bold-61" transform="translate(1381.675781 0)"/>
     <use xlink:href="#DejaVuSans-Bold-63" transform="translate(1449.15625 0)"/>
     <use xlink:href="#DejaVuSans-Bold-79" transform="translate(1508.433594 0)"/>
    </g>
   </g>
   <g id="legend_1">
    <g id="patch_7">
     <path d="M 846.475455 593.894375 
L 1023.355455 593.894375 
Q 1029.755455 593.894375 1029.755455 587.494375 
L 1029.755455 496.754375 
Q 1029.755455 490.354375 1023.355455 490.354375 
L 846.475455 490.354375 
Q 840.075455 490.354375 840.075455 496.754375 
L 840.075455 587.494375 
Q 840.075455 593.894375 846.475455 593.894375 
z
" style="fill: #ffffff; opacity: 0.8; stroke: #cccccc; stroke-width: 1.5; stroke-linejoin: miter"/>
    </g>
    <g id="line2d_17">
     <path d="M 852.875455 516.269375 
L 884.875455 516.269375 
L 916.875455 516.269375 
" style="fill: none; stroke: #4c72b0; stroke-width: 6; stroke-linecap: round"/>
    </g>
    <g id="text_16">
     <!-- train -->
     <g style="fill: #262626" transform="translate(942.475455 527.469375) scale(0.32 -0.32)">
      <defs>
       <path id="DejaVuSans-74" d="M 1172 4494 
L 1172 3500 
L 2356 3500 
L 2356 3053 
L 1172 3053 
L 1172 1153 
Q 1172 725 1289 603 
Q 1406 481 1766 481 
L 2356 481 
L 2356 0 
L 1766 0 
Q 1100 0 847 248 
Q 594 497 594 1153 
L 594 3053 
L 172 3053 
L 172 3500 
L 594 3500 
L 594 4494 
L 1172 4494 
z
" transform="scale(0.015625)"/>
       <path id="DejaVuSans-69" d="M 603 3500 
L 1178 3500 
L 1178 0 
L 603 0 
L 603 3500 
z
M 603 4863 
L 1178 4863 
L 1178 4134 
L 603 4134 
L 603 4863 
z
" transform="scale(0.015625)"/>
       <path id="DejaVuSans-6e" d="M 3513 2113 
L 3513 0 
L 2938 0 
L 2938 2094 
Q 2938 2591 2744 2837 
Q 2550 3084 2163 3084 
Q 1697 3084 1428 2787 
Q 1159 2491 1159 1978 
L 1159 0 
L 581 0 
L 581 3500 
L 1159 3500 
L 1159 2956 
Q 1366 3272 1645 3428 
Q 1925 3584 2291 3584 
Q 2894 3584 3203 3211 
Q 3513 2838 3513 2113 
z
" transform="scale(0.015625)"/>
      </defs>
      <use xlink:href="#DejaVuSans-74"/>
      <use xlink:href="#DejaVuSans-72" transform="translate(39.208984 0)"/>
      <use xlink:href="#DejaVuSans-61" transform="translate(80.322266 0)"/>
      <use xlink:href="#DejaVuSans-69" transform="translate(141.601562 0)"/>
      <use xlink:href="#DejaVuSans-6e" transform="translate(169.384766 0)"/>
     </g>
    </g>
    <g id="line2d_18">
     <path d="M 852.875455 563.239375 
L 884.875455 563.239375 
L 916.875455 563.239375 
" style="fill: none; stroke: #dd8452; stroke-width: 6; stroke-linecap: round"/>
    </g>
    <g id="text_17">
     <!-- val -->
     <g style="fill: #262626" transform="translate(942.475455 574.439375) scale(0.32 -0.32)">
      <defs>
       <path id="DejaVuSans-76" d="M 191 3500 
L 800 3500 
L 1894 563 
L 2988 3500 
L 3597 3500 
L 2284 0 
L 1503 0 
L 191 3500 
z
" transform="scale(0.015625)"/>
       <path id="DejaVuSans-6c" d="M 603 4863 
L 1178 4863 
L 1178 0 
L 603 0 
L 603 4863 
z
" transform="scale(0.015625)"/>
      </defs>
      <use xlink:href="#DejaVuSans-76"/>
      <use xlink:href="#DejaVuSans-61" transform="translate(59.179688 0)"/>
      <use xlink:href="#DejaVuSans-6c" transform="translate(120.458984 0)"/>
     </g>
    </g>
   </g>
  </g>
 </g>
 <defs>
  <clipPath id="p38e562e555">
   <rect x="115.75" y="54.554375" width="930.005455" height="555.34"/>
  </clipPath>
 </defs>
</svg>
