<?xml version="1.0" encoding="utf-8" standalone="no"?>
<!DOCTYPE svg PUBLIC "-//W3C//DTD SVG 1.1//EN"
  "http://www.w3.org/Graphics/SVG/1.1/DTD/svg11.dtd">
<svg xmlns:xlink="http://www.w3.org/1999/xlink" width="1052.825455pt" height="695.534375pt" viewBox="0 0 1052.825455 695.534375" xmlns="http://www.w3.org/2000/svg" version="1.1">
 <metadata>
  <rdf:RDF xmlns:dc="http://purl.org/dc/elements/1.1/" xmlns:cc="http://creativecommons.org/ns#" xmlns:rdf="http://www.w3.org/1999/02/22-rdf-syntax-ns#">
   <cc:Work>
    <dc:type rdf:resource="http://purl.org/dc/dcmitype/StillImage"/>
    <dc:date>2026-04-10T15:43:57.347151</dc:date>
    <dc:format>image/svg+xml</dc:format>
    <dc:creator>
     <cc:Agent>
      <dc:title>Matplotlib v3.10.8, https://matplotlib.org/</dc:title>
     </cc:Agent>
    </dc:creator>
   </cc:Work>
  </rdf:RDF>
 </metadata>
 <defs>
  <style type="text/css">*{stroke-linejoin: round; stroke-linecap: butt}</style>
 </defs>
 <g id="figure_1">
  <g id="patch_1">
   <path d="M 0 695.534375 
L 1052.825455 695.534375 
L 1052.825455 0 
L 0 0 
z
" style="fill: #ffffff"/>
  </g>
  <g id="axes_1">
   <g id="patch_2">
    <path d="M 75.03 609.894375 
L 1045.625455 609.894375 
L 1045.625455 54.554375 
L 75.03 54.554375 
z
" style="fill: #ffffff"/>
   </g>
   <g id="matplotlib.axis_1">
    <g id="xtick_1">
     <g id="line2d_1">
      <path d="M 118.264732 609.894375 
L 118.264732 54.554375 
" clip-path="url(#pd5155f373a)" style="fill: none; stroke: #cccccc; stroke-opacity: 0.3; stroke-width: 1.5; stroke-linecap: round"/>
     </g>
     <g id="text_1">
      <!-- 0 -->
      <g style="fill: #262626" transform="translate(108.084732 646.709375) scale(0.32 -0.32)">
       <defs>
        <path id="DejaVuSans-30" d="M 2034 4250 
Q 1547 4250 1301 3770 
Q 1056 3291 1056 2328 
Q 1056 1369 1301 889 
Q 1547 409 2034 409 
Q 2525 409 2770 889 
Q 3016 1369 3016 2328 
Q 3016 3291 2770 3770 
Q 2525 4250 2034 4250 
z
M 2034 4750 
Q 2819 4750 3233 4129 
Q 3647 3509 3647 2328 
Q 3647 1150 3233 529 
Q 2819 -91 2034 -91 
Q 1250 -91 836 529 
Q 422 1150 422 2328 
Q 422 3509 836 4129 
Q 1250 4750 2034 4750 
z
" transform="scale(0.015625)"/>
       </defs>
       <use xlink:href="#DejaVuSans-30"/>
      </g>
     </g>
    </g>
    <g id="xtick_2">
     <g id="line2d_2">
      <path d="M 294.913282 609.894375 
L 294.913282 54.554375 
" clip-path="url(#pd5155f373a)" style="fill: none; stroke: #cccccc; stroke-opacity: 0.3; stroke-width: 1.5; stroke-linecap: round"/>
     </g>
     <g id="text_2">
      <!-- 200 -->
      <g style="fill: #262626" transform="translate(264.373282 646.709375) scale(0.32 -0.32)">
       <defs>
        <path id="DejaVuSans-32" d="M 1228 531 
L 3431 531 
L 3431 0 
L 469 0 
L 469 531 
Q 828 903 1448 1529 
Q 2069 2156 2228 2338 
Q 2531 2678 2651 2914 
Q 2772 3150 2772 3378 
Q 2772 3750 2511 3984 
Q 2250 4219 1831 4219 
Q 1534 4219 1204 4116 
Q 875 4013 500 3803 
L 500 4441 
Q 881 4594 1212 4672 
Q 1544 4750 1819 4750 
Q 2544 4750 2975 4387 
Q 3406 4025 3406 3419 
Q 3406 3131 3298 2873 
Q 3191 2616 2906 2266 
Q 2828 2175 2409 1742 
Q 1991 1309 1228 531 
z
" transform="scale(0.015625)"/>
       </defs>
       <use xlink:href="#DejaVuSans-32"/>
       <use xlink:href="#DejaVuSans-30" transform="translate(63.623047 0)"/>
       <use xlink:href="#DejaVuSans-30" transform="translate(127.246094 0)"/>
      </g>
     </g>
    </g>
    <g id="xtick_3">
     <g id="line2d_3">
      <path d="M 471.561831 609.894375 
L 471.561831 54.554375 
" clip-path="url(#pd5155f373a)" style="fill: none; stroke: #cccccc; stroke-opacity: 0.3; stroke-width: 1.5; stroke-linecap: round"/>
     </g>
     <g id="text_3">
      <!-- 400 -->
      <g style="fill: #262626" transform="translate(441.021831 646.709375) scale(0.32 -0.32)">
       <defs>
        <path id="DejaVuSans-34" d="M 2419 4116 
L 825 1625 
L 2419 1625 
L 2419 4116 
z
M 2253 4666 
L 3047 4666 
L 3047 1625 
L 3713 1625 
L 3713 1100 
L 3047 1100 
L 3047 0 
L 2419 0 
L 2419 1100 
L 313 1100 
L 313 1709 
L 2253 4666 
z
" transform="scale(0.015625)"/>
       </defs>
       <use xlink:href="#DejaVuSans-34"/>
       <use xlink:href="#DejaVuSans-30" transform="translate(63.623047 0)"/>
       <use xlink:href="#DejaVuSans-30" transform="translate(127.246094 0)"/>
      </g>
     </g>
    </g>
    <g id="xtick_4">
     <g id="line2d_4">
      <path d="M 648.210381 609.894375 
L 648.210381 54.554375 
" clip-path="url(#pd5155f373a)" style="fill: none; stroke: #cccccc; stroke-opacity: 0.3; stroke-width: 1.5; stroke-linecap: round"/>
     </g>
     <g id="text_4">
      <!-- 600 -->
      <g style="fill: #262626" transform="translate(617.670381 646.709375) scale(0.32 -0.32)">
       <defs>
        <path id="DejaVuSans-36" d="M 2113 2584 
Q 1688 2584 1439 2293 
Q 1191 2003 1191 1497 
Q 1191 994 1439 701 
Q 1688 409 2113 409 
Q 2538 409 2786 701 
Q 3034 994 3034 1497 
Q 3034 2003 2786 2293 
Q 2538 2584 2113 2584 
z
M 3366 4563 
L 3366 3988 
Q 3128 4100 2886 4159 
Q 2644 4219 2406 4219 
Q 1781 4219 1451 3797 
Q 1122 3375 1075 2522 
Q 1259 2794 1537 2939 
Q 1816 3084 2150 3084 
Q 2853 3084 3261 2657 
Q 3669 2231 3669 1497 
Q 3669 778 3244 343 
Q 2819 -91 2113 -91 
Q 1303 -91 875 529 
Q 447 1150 447 2328 
Q 447 3434 972 4092 
Q 1497 4750 2381 4750 
Q 2619 4750 2861 4703 
Q 3103 4656 3366 4563 
z
" transform="scale(0.015625)"/>
       </defs>
       <use xlink:href="#DejaVuSans-36"/>
       <use xlink:href="#DejaVuSans-30" transform="translate(63.623047 0)"/>
       <use xlink:href="#DejaVuSans-30" transform="translate(127.246094 0)"/>
      </g>
     </g>
    </g>
    <g id="xtick_5">
     <g id="line2d_5">
      <path d="M 824.85893 609.894375 
L 824.85893 54.554375 
" clip-path="url(#pd5155f373a)" style="fill: none; stroke: #cccccc; stroke-opacity: 0.3; stroke-width: 1.5; stroke-linecap: round"/>
     </g>
     <g id="text_5">
      <!-- 800 -->
      <g style="fill: #262626" transform="translate(794.31893 646.709375) scale(0.32 -0.32)">
       <defs>
        <path id="DejaVuSans-38" d="M 2034 2216 
Q 1584 2216 1326 1975 
Q 1069 1734 1069 1313 
Q 1069 891 1326 650 
Q 1584 409 2034 409 
Q 2484 409 2743 651 
Q 3003 894 3003 1313 
Q 3003 1734 2745 1975 
Q 2488 2216 2034 2216 
z
M 1403 2484 
Q 997 2584 770 2862 
Q 544 3141 544 3541 
Q 544 4100 942 4425 
Q 1341 4750 2034 4750 
Q 2731 4750 3128 4425 
Q 3525 4100 3525 3541 
Q 3525 3141 3298 2862 
Q 3072 2584 2669 2484 
Q 3125 2378 3379 2068 
Q 3634 1759 3634 1313 
Q 3634 634 3220 271 
Q 2806 -91 2034 -91 
Q 1263 -91 848 271 
Q 434 634 434 1313 
Q 434 1759 690 2068 
Q 947 2378 1403 2484 
z
M 1172 3481 
Q 1172 3119 1398 2916 
Q 1625 2713 2034 2713 
Q 2441 2713 2670 2916 
Q 2900 3119 2900 3481 
Q 2900 3844 2670 4047 
Q 2441 4250 2034 4250 
Q 1625 4250 1398 4047 
Q 1172 3844 1172 3481 
z
" transform="scale(0.015625)"/>
       </defs>
       <use xlink:href="#DejaVuSans-38"/>
       <use xlink:href="#DejaVuSans-30" transform="translate(63.623047 0)"/>
       <use xlink:href="#DejaVuSans-30" transform="translate(127.246094 0)"/>
      </g>
     </g>
    </g>
    <g id="xtick_6">
     <g id="line2d_6">
      <path d="M 1001.507479 609.894375 
L 1001.507479 54.554375 
" clip-path="url(#pd5155f373a)" style="fill: none; stroke: #cccccc; stroke-opacity: 0.3; stroke-width: 1.5; stroke-linecap: round"/>
     </g>
     <g id="text_6">
      <!-- 1000 -->
      <g style="fill: #262626" transform="translate(960.787479 646.709375) scale(0.32 -0.32)">
       <defs>
        <path id="DejaVuSans-31" d="M 794 531 
L 1825 531 
L 1825 4091 
L 703 3866 
L 703 4441 
L 1819 4666 
L 2450 4666 
L 2450 531 
L 3481 531 
L 3481 0 
L 794 0 
L 794 531 
z
" transform="scale(0.015625)"/>
       </defs>
       <use xlink:href="#DejaVuSans-31"/>
       <use xlink:href="#DejaVuSans-30" transform="translate(63.623047 0)"/>
       <use xlink:href="#DejaVuSans-30" transform="translate(127.246094 0)"/>
       <use xlink:href="#DejaVuSans-30" transform="translate(190.869141 0)"/>
      </g>
     </g>
    </g>
    <g id="text_7">
     <!-- Epoch -->
     <g style="fill: #262626" transform="translate(511.332727 681.679375) scale(0.32 -0.32)">
      <defs>
       <path id="DejaVuSans-45" d="M 628 4666 
L 3578 4666 
L 3578 4134 
L 1259 4134 
L 1259 2753 
L 3481 2753 
L 3481 2222 
L 1259 2222 
L 1259 531 
L 3634 531 
L 3634 0 
L 628 0 
L 628 4666 
z
" transform="scale(0.015625)"/>
       <path id="DejaVuSans-70" d="M 1159 525 
L 1159 -1331 
L 581 -1331 
L 581 3500 
L 1159 3500 
L 1159 2969 
Q 1341 3281 1617 3432 
Q 1894 3584 2278 3584 
Q 2916 3584 3314 3078 
Q 3713 2572 3713 1747 
Q 3713 922 3314 415 
Q 2916 -91 2278 -91 
Q 1894 -91 1617 61 
Q 1341 213 1159 525 
z
M 3116 1747 
Q 3116 2381 2855 2742 
Q 2594 3103 2138 3103 
Q 1681 3103 1420 2742 
Q 1159 2381 1159 1747 
Q 1159 1113 1420 752 
Q 1681 391 2138 391 
Q 2594 391 2855 752 
Q 3116 1113 3116 1747 
z
" transform="scale(0.015625)"/>
       <path id="DejaVuSans-6f" d="M 1959 3097 
Q 1497 3097 1228 2736 
Q 959 2375 959 1747 
Q 959 1119 1226 758 
Q 1494 397 1959 397 
Q 2419 397 2687 759 
Q 2956 1122 2956 1747 
Q 2956 2369 2687 2733 
Q 2419 3097 1959 3097 
z
M 1959 3584 
Q 2709 3584 3137 3096 
Q 3566 2609 3566 1747 
Q 3566 888 3137 398 
Q 2709 -91 1959 -91 
Q 1206 -91 779 398 
Q 353 888 353 1747 
Q 353 2609 779 3096 
Q 1206 3584 1959 3584 
z
" transform="scale(0.015625)"/>
       <path id="DejaVuSans-63" d="M 3122 3366 
L 3122 2828 
Q 2878 2963 2633 3030 
Q 2388 3097 2138 3097 
Q 1578 3097 1268 2742 
Q 959 2388 959 1747 
Q 959 1106 1268 751 
Q 1578 397 2138 397 
Q 2388 397 2633 464 
Q 2878 531 3122 666 
L 3122 134 
Q 2881 22 2623 -34 
Q 2366 -91 2075 -91 
Q 1284 -91 818 406 
Q 353 903 353 1747 
Q 353 2603 823 3093 
Q 1294 3584 2113 3584 
Q 2378 3584 2631 3529 
Q 2884 3475 3122 3366 
z
" transform="scale(0.015625)"/>
       <path id="DejaVuSans-68" d="M 3513 2113 
L 3513 0 
L 2938 0 
L 2938 2094 
Q 2938 2591 2744 2837 
Q 2550 3084 2163 3084 
Q 1697 3084 1428 2787 
Q 1159 2491 1159 1978 
L 1159 0 
L 581 0 
L 581 4863 
L 1159 4863 
L 1159 2956 
Q 1366 3272 1645 3428 
Q 1925 3584 2291 3584 
Q 2894 3584 3203 3211 
Q 3513 2838 3513 2113 
z
" transform="scale(0.015625)"/>
      </defs>
      <use xlink:href="#DejaVuSans-45"/>
      <use xlink:href="#DejaVuSans-70" transform="translate(63.183594 0)"/>
      <use xlink:href="#DejaVuSans-6f" transform="translate(126.660156 0)"/>
      <use xlink:href="#DejaVuSans-63" transform="translate(187.841797 0)"/>
      <use xlink:href="#DejaVuSans-68" transform="translate(242.822266 0)"/>
     </g>
    </g>
   </g>
   <g id="matplotlib.axis_2">
    <g id="ytick_1">
     <g id="line2d_7">
      <path d="M 75.03 587.093114 
L 1045.625455 587.093114 
" clip-path="url(#pd5155f373a)" style="fill: none; stroke: #cccccc; stroke-opacity: 0.3; stroke-width: 1.5; stroke-linecap: round"/>
     </g>
     <g id="text_8">
      <!-- 0 -->
      <g style="fill: #262626" transform="translate(42.17 599.250614) scale(0.32 -0.32)">
       <use xlink:href="#DejaVuSans-30"/>
      </g>
     </g>
    </g>
    <g id="ytick_2">
     <g id="line2d_8">
      <path d="M 75.03 509.024952 
L 1045.625455 509.024952 
" clip-path="url(#pd5155f373a)" style="fill: none; stroke: #cccccc; stroke-opacity: 0.3; stroke-width: 1.5; stroke-linecap: round"/>
     </g>
     <g id="text_9">
      <!-- 1 -->
      <g style="fill: #262626" transform="translate(42.17 521.182452) scale(0.32 -0.32)">
       <use xlink:href="#DejaVuSans-31"/>
      </g>
     </g>
    </g>
    <g id="ytick_3">
     <g id="line2d_9">
      <path d="M 75.03 430.95679 
L 1045.625455 430.95679 
" clip-path="url(#pd5155f373a)" style="fill: none; stroke: #cccccc; stroke-opacity: 0.3; stroke-width: 1.5; stroke-linecap: round"/>
     </g>
     <g id="text_10">
      <!-- 2 -->
      <g style="fill: #262626" transform="translate(42.17 443.11429) scale(0.32 -0.32)">
       <use xlink:href="#DejaVuSans-32"/>
      </g>
     </g>
    </g>
    <g id="ytick_4">
     <g id="line2d_10">
      <path d="M 75.03 352.888628 
L 1045.625455 352.888628 
" clip-path="url(#pd5155f373a)" style="fill: none; stroke: #cccccc; stroke-opacity: 0.3; stroke-width: 1.5; stroke-linecap: round"/>
     </g>
     <g id="text_11">
      <!-- 3 -->
      <g style="fill: #262626" transform="translate(42.17 365.046128) scale(0.32 -0.32)">
       <defs>
        <path id="DejaVuSans-33" d="M 2597 2516 
Q 3050 2419 3304 2112 
Q 3559 1806 3559 1356 
Q 3559 666 3084 287 
Q 2609 -91 1734 -91 
Q 1441 -91 1130 -33 
Q 819 25 488 141 
L 488 750 
Q 750 597 1062 519 
Q 1375 441 1716 441 
Q 2309 441 2620 675 
Q 2931 909 2931 1356 
Q 2931 1769 2642 2001 
Q 2353 2234 1838 2234 
L 1294 2234 
L 1294 2753 
L 1863 2753 
Q 2328 2753 2575 2939 
Q 2822 3125 2822 3475 
Q 2822 3834 2567 4026 
Q 2313 4219 1838 4219 
Q 1578 4219 1281 4162 
Q 984 4106 628 3988 
L 628 4550 
Q 988 4650 1302 4700 
Q 1616 4750 1894 4750 
Q 2613 4750 3031 4423 
Q 3450 4097 3450 3541 
Q 3450 3153 3228 2886 
Q 3006 2619 2597 2516 
z
" transform="scale(0.015625)"/>
       </defs>
       <use xlink:href="#DejaVuSans-33"/>
      </g>
     </g>
    </g>
    <g id="ytick_5">
     <g id="line2d_11">
      <path d="M 75.03 274.820466 
L 1045.625455 274.820466 
" clip-path="url(#pd5155f373a)" style="fill: none; stroke: #cccccc; stroke-opacity: 0.3; stroke-width: 1.5; stroke-linecap: round"/>
     </g>
     <g id="text_12">
      <!-- 4 -->
      <g style="fill: #262626" transform="translate(42.17 286.977966) scale(0.32 -0.32)">
       <use xlink:href="#DejaVuSans-34"/>
      </g>
     </g>
    </g>
    <g id="ytick_6">
     <g id="line2d_12">
      <path d="M 75.03 196.752303 
L 1045.625455 196.752303 
" clip-path="url(#pd5155f373a)" style="fill: none; stroke: #cccccc; stroke-opacity: 0.3; stroke-width: 1.5; stroke-linecap: round"/>
     </g>
     <g id="text_13">
      <!-- 5 -->
      <g style="fill: #262626" transform="translate(42.17 208.909803) scale(0.32 -0.32)">
       <defs>
        <path id="DejaVuSans-35" d="M 691 4666 
L 3169 4666 
L 3169 4134 
L 1269 4134 
L 1269 2991 
Q 1406 3038 1543 3061 
Q 1681 3084 1819 3084 
Q 2600 3084 3056 2656 
Q 3513 2228 3513 1497 
Q 3513 744 3044 326 
Q 2575 -91 1722 -91 
Q 1428 -91 1123 -41 
Q 819 9 494 109 
L 494 744 
Q 775 591 1075 516 
Q 1375 441 1709 441 
Q 2250 441 2565 725 
Q 2881 1009 2881 1497 
Q 2881 1984 2565 2268 
Q 2250 2553 1709 2553 
Q 1456 2553 1204 2497 
Q 953 2441 691 2322 
L 691 4666 
z
" transform="scale(0.015625)"/>
       </defs>
       <use xlink:href="#DejaVuSans-35"/>
      </g>
     </g>
    </g>
    <g id="ytick_7">
     <g id="line2d_13">
      <path d="M 75.03 118.684141 
L 1045.625455 118.684141 
" clip-path="url(#pd5155f373a)" style="fill: none; stroke: #cccccc; stroke-opacity: 0.3; stroke-width: 1.5; stroke-linecap: round"/>
     </g>
     <g id="text_14">
      <!-- 6 -->
      <g style="fill: #262626" transform="translate(42.17 130.841641) scale(0.32 -0.32)">
       <use xlink:href="#DejaVuSans-36"/>
      </g>
     </g>
    </g>
    <g id="text_15">
     <!-- Loss -->
     <g style="fill: #262626" transform="translate(31.515 367.319375) rotate(-90) scale(0.32 -0.32)">
      <defs>
       <path id="DejaVuSans-4c" d="M 628 4666 
L 1259 4666 
L 1259 531 
L 3531 531 
L 3531 0 
L 628 0 
L 628 4666 
z
" transform="scale(0.015625)"/>
       <path id="DejaVuSans-73" d="M 2834 3397 
L 2834 2853 
Q 2591 2978 2328 3040 
Q 2066 3103 1784 3103 
Q 1356 3103 1142 2972 
Q 928 2841 928 2578 
Q 928 2378 1081 2264 
Q 1234 2150 1697 2047 
L 1894 2003 
Q 2506 1872 2764 1633 
Q 3022 1394 3022 966 
Q 3022 478 2636 193 
Q 2250 -91 1575 -91 
Q 1294 -91 989 -36 
Q 684 19 347 128 
L 347 722 
Q 666 556 975 473 
Q 1284 391 1588 391 
Q 1994 391 2212 530 
Q 2431 669 2431 922 
Q 2431 1156 2273 1281 
Q 2116 1406 1581 1522 
L 1381 1569 
Q 847 1681 609 1914 
Q 372 2147 372 2553 
Q 372 3047 722 3315 
Q 1072 3584 1716 3584 
Q 2034 3584 2315 3537 
Q 2597 3491 2834 3397 
z
" transform="scale(0.015625)"/>
      </defs>
      <use xlink:href="#DejaVuSans-4c"/>
      <use xlink:href="#DejaVuSans-6f" transform="translate(53.962891 0)"/>
      <use xlink:href="#DejaVuSans-73" transform="translate(115.144531 0)"/>
      <use xlink:href="#DejaVuSans-73" transform="translate(167.244141 0)"/>
     </g>
    </g>
   </g>
   <g id="FillBetweenPolyCollection_1"/>
   <g id="FillBetweenPolyCollection_2"/>
   <g id="line2d_14">
    <path d="M 119.147975 80.586289 
L 120.031218 205.993087 
L 120.914461 214.521555 
L 121.797703 216.873221 
L 122.680946 218.766413 
L 123.564189 221.894535 
L 124.447432 229.928086 
L 126.213917 257.632718 
L 127.09716 279.198704 
L 127.980403 307.043305 
L 128.863645 330.994496 
L 129.746888 346.506562 
L 130.630131 359.50879 
L 131.513374 368.96565 
L 132.396616 375.41986 
L 133.279859 384.058144 
L 134.163102 391.173614 
L 135.046345 394.357853 
L 135.929587 395.45043 
L 136.81283 403.739983 
L 137.696073 407.101715 
L 138.579316 405.383539 
L 139.462558 411.542567 
L 140.345801 420.574179 
L 141.229044 420.664061 
L 142.112287 424.865215 
L 142.995529 425.741325 
L 143.878772 424.901008 
L 144.762015 431.452814 
L 145.645258 431.506205 
L 146.5285 433.340655 
L 147.411743 438.750132 
L 148.294986 440.804838 
L 149.178229 437.740364 
L 150.944714 442.302441 
L 151.827957 442.411597 
L 152.7112 448.047266 
L 153.594442 451.322374 
L 154.477685 446.95226 
L 155.360928 452.338303 
L 156.244171 453.045612 
L 157.127413 454.371744 
L 158.010656 449.128806 
L 158.893899 457.358007 
L 159.777142 463.037147 
L 160.660384 461.572247 
L 161.543627 461.345216 
L 162.42687 462.364049 
L 163.310113 464.152497 
L 164.193355 467.041108 
L 165.076598 467.321539 
L 165.959841 470.568773 
L 166.843084 462.748126 
L 167.726326 475.311927 
L 168.609569 477.376581 
L 169.492812 475.86217 
L 170.376055 475.427178 
L 171.259297 468.874097 
L 172.14254 475.643273 
L 173.025783 480.877677 
L 173.909026 476.272994 
L 174.792268 475.157188 
L 175.675511 476.86119 
L 176.558754 476.979307 
L 177.441997 481.890638 
L 178.325239 485.832487 
L 179.208482 485.337868 
L 180.091725 486.56671 
L 180.974967 480.574361 
L 181.85821 488.102591 
L 182.741453 489.227052 
L 183.624696 488.404064 
L 184.507938 491.276276 
L 186.274424 485.150138 
L 187.157667 491.272917 
L 188.040909 499.820351 
L 188.924152 488.290358 
L 189.807395 495.866143 
L 190.690638 498.721111 
L 191.57388 493.750256 
L 192.457123 492.445464 
L 193.340366 496.192809 
L 194.223609 502.872653 
L 195.106851 503.103993 
L 195.990094 495.976359 
L 196.873337 497.376003 
L 197.75658 502.745853 
L 198.639822 502.493629 
L 199.523065 505.043001 
L 200.406308 503.291313 
L 201.289551 496.249373 
L 202.172793 503.324276 
L 203.056036 509.034951 
L 203.939279 506.564485 
L 204.822522 507.778195 
L 205.705764 511.318917 
L 206.589007 509.829494 
L 207.47225 505.986638 
L 208.355493 506.512266 
L 209.238735 514.297958 
L 210.121978 510.019206 
L 211.005221 511.293767 
L 211.888464 497.511114 
L 213.654949 513.625195 
L 214.538192 507.831762 
L 215.421435 508.425346 
L 216.304677 509.449652 
L 217.18792 516.312321 
L 218.071163 512.30454 
L 218.954406 514.301411 
L 219.837648 519.753037 
L 220.720891 517.692626 
L 221.604134 505.095638 
L 222.487377 520.809612 
L 223.370619 518.533105 
L 224.253862 521.001311 
L 225.137105 508.085866 
L 226.020348 501.710882 
L 226.90359 513.994596 
L 227.786833 518.495568 
L 228.670076 526.116178 
L 229.553319 514.223349 
L 230.436561 499.214073 
L 232.203047 524.282425 
L 233.08629 531.211775 
L 233.969532 521.330322 
L 234.852775 514.179445 
L 235.736018 516.330873 
L 236.619261 522.211135 
L 237.502503 520.241132 
L 239.268989 527.669945 
L 240.152232 523.93274 
L 241.035474 518.731212 
L 241.918717 516.750687 
L 242.80196 529.032107 
L 243.685203 529.796236 
L 244.568445 506.043146 
L 245.451688 514.10122 
L 246.334931 529.056443 
L 247.218174 534.516119 
L 248.101416 521.945683 
L 248.984659 526.311525 
L 249.867902 537.473588 
L 250.751144 515.629144 
L 251.634387 507.99497 
L 252.51763 531.592916 
L 253.400873 539.067234 
L 254.284115 529.824589 
L 255.167358 513.777719 
L 256.050601 532.440706 
L 256.933844 531.928744 
L 257.817086 528.877699 
L 258.700329 520.53522 
L 259.583572 530.374786 
L 260.466815 533.996926 
L 261.350057 529.894536 
L 262.2333 530.429913 
L 263.116543 520.601966 
L 263.999786 538.370516 
L 264.883028 538.994001 
L 265.766271 517.246298 
L 266.649514 531.99402 
L 267.532757 539.064809 
L 268.415999 529.289035 
L 269.299242 534.07242 
L 270.182485 537.221197 
L 271.065728 531.693161 
L 271.94897 529.492967 
L 272.832213 530.320999 
L 273.715456 543.004988 
L 274.598699 545.435735 
L 275.481941 502.28469 
L 276.365184 516.903732 
L 277.248427 534.443715 
L 278.13167 535.033683 
L 279.014912 530.214473 
L 279.898155 535.39522 
L 280.781398 546.865904 
L 281.664641 550.239366 
L 282.547883 486.966869 
L 283.431126 527.806034 
L 284.314369 545.936953 
L 285.197612 548.290654 
L 286.080854 552.415296 
L 286.964097 509.211793 
L 287.84734 488.296872 
L 288.730583 533.535382 
L 289.613825 547.156689 
L 290.497068 553.34596 
L 291.380311 555.913418 
L 292.263554 530.927035 
L 293.146796 494.276536 
L 294.030039 523.838014 
L 294.913282 535.232827 
L 295.796525 540.693429 
L 296.679767 549.797754 
L 297.56301 547.835934 
L 298.446253 530.166633 
L 299.329496 523.114145 
L 300.212738 539.056555 
L 301.095981 548.259233 
L 301.979224 553.527065 
L 302.862467 493.560014 
L 303.745709 481.703857 
L 304.628952 516.488027 
L 305.512195 540.492614 
L 306.395438 553.106944 
L 307.27868 558.273262 
L 308.161923 555.896718 
L 309.045166 516.75904 
L 309.928409 495.251052 
L 310.811651 527.963336 
L 311.694894 547.897291 
L 312.578137 557.685141 
L 313.46138 558.680266 
L 314.344622 554.899071 
L 315.227865 488.527979 
L 316.994351 539.630776 
L 317.877593 549.933217 
L 318.760836 552.594506 
L 319.644079 552.755824 
L 320.527321 559.033278 
L 321.410564 559.806646 
L 322.293807 473.399228 
L 324.060292 536.396357 
L 324.943535 550.795062 
L 325.826778 558.53243 
L 326.710021 560.927157 
L 327.593263 561.311306 
L 328.476506 559.42111 
L 329.359749 448.4538 
L 330.242992 467.010582 
L 331.126234 527.240253 
L 332.009477 548.881721 
L 332.89272 556.730632 
L 333.775963 561.131312 
L 334.659205 563.490912 
L 335.542448 562.421493 
L 336.425691 474.478366 
L 337.308934 481.341687 
L 338.192176 532.639013 
L 339.075419 550.214283 
L 339.958662 556.04185 
L 341.725147 563.300599 
L 342.60839 561.757485 
L 343.491633 559.386565 
L 344.374876 482.72471 
L 345.258118 498.791151 
L 346.141361 542.219412 
L 347.024604 550.776663 
L 348.791089 563.054009 
L 349.674332 566.307648 
L 350.557575 563.676645 
L 351.440818 434.883162 
L 352.32406 511.93499 
L 353.207303 542.910346 
L 354.090546 551.275758 
L 354.973789 561.694816 
L 355.857031 564.620524 
L 356.740274 566.17589 
L 357.623517 566.051756 
L 358.50676 452.064963 
L 359.390002 514.987203 
L 360.273245 546.778042 
L 361.156488 557.922192 
L 362.039731 563.470607 
L 362.922973 565.003724 
L 363.806216 565.76692 
L 364.689459 566.146128 
L 365.572702 488.28469 
L 366.455944 513.860932 
L 367.339187 550.627187 
L 368.22243 562.445834 
L 369.105673 565.295728 
L 369.988915 567.241955 
L 370.872158 564.643611 
L 371.755401 457.798984 
L 373.521886 545.456465 
L 374.405129 559.126791 
L 375.288372 565.533768 
L 376.171615 566.280967 
L 377.054857 565.201523 
L 377.9381 565.14041 
L 378.821343 481.079097 
L 379.704586 494.938178 
L 380.587828 544.835902 
L 381.471071 546.742868 
L 382.354314 540.393496 
L 383.237557 551.632444 
L 384.120799 557.365934 
L 385.004042 556.855624 
L 385.887285 562.923758 
L 386.770528 561.890868 
L 387.65377 565.589639 
L 388.537013 499.967505 
L 389.420256 510.68653 
L 390.303498 547.93857 
L 391.186741 558.798953 
L 392.069984 564.649744 
L 392.953227 567.691856 
L 393.836469 566.503384 
L 394.719712 506.042272 
L 395.602955 422.963126 
L 396.486198 517.654525 
L 397.36944 548.621007 
L 398.252683 562.014355 
L 399.135926 567.057697 
L 400.019169 569.363622 
L 400.902411 568.798681 
L 401.785654 569.792403 
L 402.668897 566.880551 
L 403.55214 427.357427 
L 404.435382 507.120843 
L 405.318625 547.664188 
L 406.201868 561.208363 
L 407.085111 567.49571 
L 407.968353 571.399122 
L 408.851596 572.741107 
L 409.734839 570.379548 
L 410.618082 553.327717 
L 411.501324 397.40659 
L 412.384567 499.680392 
L 413.26781 543.942106 
L 414.151053 562.342386 
L 415.034295 567.685965 
L 415.917538 570.870605 
L 416.800781 571.675304 
L 417.684024 573.194702 
L 418.567266 572.340487 
L 419.450509 424.327377 
L 420.333752 494.362314 
L 421.216995 543.106363 
L 422.100237 561.187937 
L 422.98348 568.48065 
L 423.866723 571.239008 
L 424.749966 572.241473 
L 425.633208 568.60984 
L 426.516451 567.997924 
L 427.399694 564.708423 
L 428.282937 438.026835 
L 429.166179 504.943924 
L 430.049422 546.957279 
L 430.932665 557.887209 
L 431.815908 566.336012 
L 432.69915 569.988015 
L 433.582393 571.030716 
L 434.465636 571.745067 
L 435.348879 527.952247 
L 436.232121 489.839128 
L 437.115364 540.701591 
L 437.998607 553.070349 
L 438.88185 559.994499 
L 439.765092 556.061496 
L 440.648335 561.39055 
L 441.531578 564.470485 
L 442.414821 571.860849 
L 443.298063 574.074223 
L 444.181306 574.702879 
L 445.064549 468.022538 
L 445.947792 427.482878 
L 446.831034 528.521481 
L 447.714277 554.49857 
L 448.59752 565.94294 
L 449.480763 571.186629 
L 450.364005 573.665317 
L 451.247248 572.192679 
L 452.130491 573.760922 
L 453.013734 571.941531 
L 453.896976 543.32452 
L 454.780219 465.236615 
L 455.663462 535.824704 
L 456.546705 556.077331 
L 457.429947 565.755217 
L 458.31319 572.990156 
L 459.196433 575.539614 
L 460.079676 576.526293 
L 460.962918 575.635314 
L 461.846161 465.077279 
L 462.729404 466.922292 
L 463.612646 540.297309 
L 464.495889 563.830439 
L 465.379132 569.594528 
L 466.262375 573.616923 
L 467.145617 574.612116 
L 468.02886 573.498556 
L 468.912103 573.000681 
L 469.795346 572.719976 
L 470.678588 574.232398 
L 471.561831 365.750961 
L 472.445074 429.737198 
L 473.328317 537.246296 
L 474.211559 562.862768 
L 475.094802 570.745492 
L 475.978045 573.570097 
L 476.861288 575.088931 
L 477.74453 575.064563 
L 478.627773 575.986168 
L 479.511016 576.697247 
L 480.394259 575.891961 
L 481.277501 430.948023 
L 482.160744 516.424864 
L 483.043987 552.831948 
L 483.92723 564.383682 
L 484.810472 567.771541 
L 485.693715 573.549296 
L 486.576958 574.978011 
L 487.460201 575.77291 
L 488.343443 570.853017 
L 489.226686 536.711464 
L 490.109929 516.147136 
L 490.993172 542.539307 
L 492.759657 563.696875 
L 493.6429 571.016611 
L 494.526143 574.176283 
L 495.409385 574.956056 
L 496.292628 571.97989 
L 497.175871 499.028224 
L 498.059114 469.979638 
L 498.942356 522.482065 
L 499.825599 559.138967 
L 500.708842 571.120275 
L 501.592085 575.46806 
L 502.475327 576.597109 
L 503.35857 577.519235 
L 504.241813 577.838563 
L 505.125056 574.969711 
L 506.008298 569.930495 
L 506.891541 404.199238 
L 507.774784 517.463236 
L 508.658027 554.616574 
L 509.541269 567.84308 
L 510.424512 573.348492 
L 511.307755 576.418581 
L 512.190998 577.731987 
L 513.07424 578.548715 
L 513.957483 578.816461 
L 514.840726 578.006526 
L 515.723969 335.821026 
L 516.607211 450.68679 
L 517.490454 526.766201 
L 518.373697 555.241932 
L 519.25694 566.936511 
L 520.140182 572.890611 
L 521.023425 575.71178 
L 521.906668 577.237998 
L 522.789911 577.647917 
L 523.673153 578.2244 
L 524.556396 578.313376 
L 525.439639 545.505231 
L 526.322882 474.164088 
L 527.206124 540.697673 
L 528.089367 558.735316 
L 528.97261 569.489388 
L 530.739095 576.078458 
L 531.622338 578.076646 
L 532.505581 577.743808 
L 533.388823 576.614264 
L 534.272066 577.542976 
L 535.155309 477.813891 
L 536.038552 314.436144 
L 536.921794 495.155549 
L 537.805037 545.527166 
L 538.68828 564.871817 
L 539.571523 572.346414 
L 540.454765 575.486038 
L 541.338008 577.179522 
L 543.104494 578.377543 
L 543.987736 578.842004 
L 544.870979 578.206126 
L 545.754222 469.630478 
L 546.637465 472.951467 
L 547.520707 536.098732 
L 548.40395 558.986718 
L 549.287193 570.262154 
L 550.170436 575.524459 
L 551.936921 577.076962 
L 552.820164 577.478563 
L 553.703407 578.45014 
L 554.586649 577.997609 
L 555.469892 576.461139 
L 556.353135 409.109786 
L 557.236378 525.800224 
L 558.11962 551.970289 
L 559.002863 567.909307 
L 559.886106 575.019523 
L 560.769349 577.860394 
L 561.652591 579.145273 
L 563.419077 579.872544 
L 564.30232 578.527829 
L 565.185562 463.484257 
L 566.068805 493.864167 
L 566.952048 543.933144 
L 567.835291 565.995561 
L 568.718533 575.011477 
L 569.601776 578.33432 
L 570.485019 579.530316 
L 571.368262 580.270441 
L 572.251504 580.35354 
L 573.134747 580.024472 
L 574.01799 485.449191 
L 574.901233 519.17552 
L 575.784475 543.080538 
L 576.667718 550.028352 
L 577.550961 569.50938 
L 578.434204 573.350435 
L 579.317446 573.849882 
L 580.200689 577.452197 
L 581.083932 579.686056 
L 581.967175 580.386487 
L 582.850417 580.807109 
L 583.73366 570.613475 
L 584.616903 461.63862 
L 585.500146 540.423453 
L 586.383388 563.946534 
L 587.266631 572.399324 
L 588.149874 577.067058 
L 589.916359 579.648447 
L 590.799602 579.809282 
L 591.682845 518.90017 
L 592.566088 430.965891 
L 593.44933 505.646264 
L 594.332573 545.906637 
L 595.215816 567.231763 
L 596.099059 575.359868 
L 596.982301 579.063024 
L 597.865544 580.201992 
L 598.748787 580.751611 
L 599.63203 581.056199 
L 600.515272 580.829575 
L 601.398515 579.44259 
L 602.281758 566.677391 
L 603.165 378.593825 
L 604.048243 525.666118 
L 604.931486 559.830224 
L 605.814729 571.70243 
L 606.697971 576.224559 
L 607.581214 578.144252 
L 608.464457 577.719873 
L 609.3477 579.175411 
L 610.230942 578.240462 
L 611.114185 575.539355 
L 611.997428 441.906796 
L 613.763913 542.79355 
L 614.647156 561.690723 
L 615.530399 566.82927 
L 616.413642 574.135537 
L 617.296884 576.17212 
L 618.180127 577.276875 
L 619.06337 579.325141 
L 619.946613 580.144878 
L 620.829855 580.626568 
L 621.713098 580.770798 
L 622.596341 416.217662 
L 623.479584 496.715841 
L 624.362826 556.700739 
L 625.246069 570.714505 
L 626.129312 577.023323 
L 627.012555 579.330016 
L 627.895797 580.62578 
L 628.77904 581.153003 
L 629.662283 581.431633 
L 631.428768 571.36165 
L 632.312011 439.784981 
L 633.195254 520.841072 
L 634.078497 564.559118 
L 634.961739 572.323794 
L 635.844982 576.69815 
L 636.728225 579.230326 
L 637.611468 580.21512 
L 638.49471 580.775881 
L 639.377953 581.129827 
L 640.261196 580.786704 
L 641.144439 435.96137 
L 642.027681 440.351735 
L 642.910924 536.721152 
L 643.794167 565.885666 
L 644.67741 575.368398 
L 645.560652 578.021007 
L 646.443895 579.757576 
L 647.327138 580.804679 
L 648.210381 581.336334 
L 649.093623 581.437458 
L 649.976866 578.049486 
L 650.860109 573.99291 
L 651.743352 415.421998 
L 652.626594 509.233416 
L 653.509837 540.898482 
L 654.39308 556.580726 
L 655.276323 569.034968 
L 656.159565 575.365035 
L 657.042808 578.167802 
L 657.926051 579.24429 
L 658.809294 579.18036 
L 660.575779 562.920547 
L 661.459022 563.454042 
L 662.342265 575.144775 
L 663.225507 579.127488 
L 664.10875 581.029579 
L 664.991993 581.472202 
L 665.875236 522.433462 
L 666.758478 402.027894 
L 667.641721 534.538226 
L 668.524964 566.595725 
L 669.408207 575.223373 
L 670.291449 579.307357 
L 671.174692 580.50455 
L 672.941177 581.978238 
L 673.82442 581.921602 
L 674.707663 582.441294 
L 675.590906 582.256468 
L 676.474148 434.514338 
L 677.357391 388.348548 
L 678.240634 521.551927 
L 679.123877 561.427043 
L 680.007119 573.728459 
L 680.890362 578.728707 
L 681.773605 580.434342 
L 682.656848 580.89151 
L 683.54009 581.658455 
L 684.423333 581.980042 
L 685.306576 582.128509 
L 686.189819 582.109155 
L 687.073061 578.997653 
L 687.956304 579.961319 
L 688.839547 404.404594 
L 689.72279 415.169588 
L 690.606032 516.252937 
L 691.489275 551.282561 
L 692.372518 570.89093 
L 693.255761 577.578913 
L 694.139003 580.008042 
L 695.022246 580.955769 
L 695.905489 581.578197 
L 696.788732 581.966619 
L 697.671974 582.194724 
L 698.555217 581.949061 
L 699.43846 581.174381 
L 700.321703 579.099777 
L 701.204945 409.619798 
L 702.088188 401.882081 
L 702.971431 518.299993 
L 703.854674 561.540426 
L 704.737916 573.240501 
L 705.621159 577.669982 
L 706.504402 579.966292 
L 707.387645 580.971326 
L 708.270887 581.513801 
L 709.15413 581.664019 
L 710.037373 580.700637 
L 710.920616 581.243789 
L 711.803858 575.993911 
L 712.687101 406.182554 
L 713.570344 530.760236 
L 714.453587 561.801754 
L 715.336829 575.396429 
L 716.220072 579.294451 
L 717.103315 581.003658 
L 717.986558 581.644623 
L 719.753043 581.827418 
L 720.636286 581.21501 
L 721.519529 580.970549 
L 722.402771 468.35099 
L 723.286014 474.469944 
L 724.169257 541.251807 
L 725.0525 565.957844 
L 725.935742 575.344958 
L 726.818985 579.553119 
L 728.585471 582.31208 
L 729.468713 582.615348 
L 730.351956 582.723378 
L 731.235199 582.525589 
L 732.118442 581.50266 
L 733.001684 390.889283 
L 733.884927 453.174646 
L 734.76817 546.283209 
L 735.651413 572.402683 
L 736.534655 578.480197 
L 737.417898 580.783967 
L 738.301141 581.895782 
L 739.184384 582.163526 
L 740.067626 582.676995 
L 740.950869 582.729076 
L 741.834112 582.529897 
L 742.717355 581.035716 
L 743.600597 472.94579 
L 745.367083 560.909584 
L 746.250325 572.882476 
L 747.133568 578.272796 
L 748.016811 581.301181 
L 748.900054 582.338552 
L 749.783296 582.579467 
L 750.666539 581.408814 
L 751.549782 581.656256 
L 752.433025 581.773679 
L 753.316267 496.034841 
L 754.19951 477.284894 
L 755.082753 541.865809 
L 755.965996 570.309266 
L 756.849238 576.962869 
L 758.615724 581.945175 
L 759.498967 582.64426 
L 760.382209 582.689217 
L 761.265452 582.189101 
L 763.031938 581.913812 
L 763.91518 582.053191 
L 764.798423 440.736594 
L 765.681666 383.492219 
L 766.564909 518.23991 
L 767.448151 563.007937 
L 768.331394 574.862682 
L 769.214637 579.638152 
L 770.09788 581.314523 
L 770.981122 581.854849 
L 771.864365 582.184545 
L 772.747608 582.353843 
L 773.630851 581.545015 
L 774.514093 581.843049 
L 775.397336 581.295138 
L 776.280579 560.709591 
L 777.163822 417.78807 
L 778.047064 522.132519 
L 778.930307 553.864336 
L 779.81355 571.224446 
L 780.696793 578.097531 
L 781.580035 580.993765 
L 782.463278 582.030727 
L 783.346521 582.593815 
L 784.229764 582.586341 
L 785.113006 582.29172 
L 785.996249 580.184154 
L 786.879492 465.367575 
L 787.762735 490.70486 
L 788.645977 542.343146 
L 789.52922 569.911571 
L 790.412463 578.342043 
L 791.295706 580.515756 
L 792.178948 581.833125 
L 793.062191 582.428982 
L 793.945434 582.728339 
L 794.828677 582.053006 
L 795.711919 581.102722 
L 796.595162 488.86088 
L 797.478405 525.538228 
L 798.361648 536.858753 
L 799.24489 545.324486 
L 800.128133 567.315583 
L 801.011376 572.1366 
L 801.894619 578.023423 
L 802.777861 581.408951 
L 803.661104 582.41633 
L 804.544347 583.058444 
L 805.42759 583.213418 
L 806.310832 583.500433 
L 807.194075 583.437511 
L 808.077318 583.094278 
L 808.960561 457.337151 
L 809.843803 413.377445 
L 810.727046 535.365421 
L 811.610289 567.271764 
L 812.493532 577.04145 
L 813.376774 580.438895 
L 814.260017 581.78521 
L 815.14326 582.436095 
L 816.909745 583.228682 
L 817.792988 583.305355 
L 818.676231 582.67383 
L 819.559473 582.32695 
L 820.442716 463.989104 
L 821.325959 433.145239 
L 822.209202 533.956401 
L 823.092444 567.308866 
L 823.975687 578.30872 
L 824.85893 581.695355 
L 825.742173 582.62707 
L 826.625415 583.232137 
L 827.508658 583.461513 
L 828.391901 583.271945 
L 829.275144 578.493355 
L 830.158386 553.45749 
L 831.041629 511.627687 
L 831.924872 539.730867 
L 832.808115 562.40289 
L 833.691357 575.587419 
L 834.5746 579.881266 
L 835.457843 581.851959 
L 836.341086 581.895153 
L 837.224328 582.741257 
L 838.107571 583.344899 
L 838.990814 583.533562 
L 839.874057 582.73181 
L 840.757299 582.973708 
L 841.640542 582.883014 
L 842.523785 466.179312 
L 843.407028 410.930724 
L 844.29027 533.729775 
L 845.173513 567.010327 
L 846.056756 576.703461 
L 846.939999 580.740232 
L 847.823241 582.340346 
L 848.706484 583.17968 
L 850.47297 583.718245 
L 851.356212 583.275994 
L 852.239455 581.918641 
L 853.122698 466.873396 
L 854.005941 442.036993 
L 854.889183 551.248739 
L 855.772426 571.609574 
L 856.655669 578.341957 
L 857.538912 581.82938 
L 858.422154 582.839268 
L 859.305397 583.423144 
L 860.18864 583.629041 
L 861.071883 583.131204 
L 861.955125 583.161237 
L 862.838368 582.82887 
L 863.721611 580.002141 
L 864.604854 471.913807 
L 865.488096 489.378524 
L 866.371339 555.38592 
L 867.254582 568.098248 
L 868.137825 539.332686 
L 869.021067 525.967633 
L 869.90431 568.415949 
L 870.787553 579.224268 
L 871.670796 582.209526 
L 872.554038 583.21052 
L 874.320524 583.655409 
L 876.087009 583.782699 
L 876.970252 579.392439 
L 877.853495 533.107848 
L 878.736738 473.600415 
L 879.61998 543.720114 
L 880.503223 571.93953 
L 881.386466 579.939895 
L 882.269709 582.304733 
L 883.152951 583.161209 
L 884.036194 583.702844 
L 884.919437 583.725659 
L 885.802679 582.39229 
L 886.685922 557.403325 
L 887.569165 507.448718 
L 888.452408 543.990169 
L 889.33565 567.048272 
L 890.218893 577.260268 
L 891.102136 580.507426 
L 891.985379 582.341035 
L 892.868621 583.620197 
L 893.751864 583.903529 
L 894.635107 581.617257 
L 895.51835 530.88028 
L 896.401592 507.599073 
L 897.284835 548.369147 
L 898.168078 549.322146 
L 899.051321 536.203811 
L 899.934563 568.094054 
L 900.817806 578.13199 
L 901.701049 581.332365 
L 903.467534 583.12213 
L 904.350777 583.470664 
L 905.23402 583.342456 
L 906.117263 580.647076 
L 907.000505 580.769311 
L 907.883748 549.233504 
L 908.766991 488.025896 
L 909.650234 541.723285 
L 910.533476 570.283259 
L 911.416719 579.898074 
L 912.299962 582.945189 
L 913.183205 583.275841 
L 914.066447 584.011529 
L 914.94969 584.238936 
L 915.832933 583.786684 
L 916.716176 582.065049 
L 917.599418 582.339168 
L 918.482661 578.29367 
L 919.365904 444.165034 
L 920.249147 542.996063 
L 921.132389 568.670668 
L 922.015632 578.378039 
L 922.898875 582.335997 
L 923.782118 583.598583 
L 924.66536 584.124939 
L 925.548603 584.42418 
L 926.431846 584.518712 
L 928.198331 583.825727 
L 929.081574 572.678162 
L 929.964817 420.195723 
L 930.84806 522.86932 
L 931.731302 561.844829 
L 932.614545 576.106561 
L 933.497788 581.608303 
L 934.381031 583.072794 
L 935.264273 583.668037 
L 937.030759 584.227088 
L 937.914002 584.319065 
L 938.797244 584.054058 
L 939.680487 583.56982 
L 940.56373 475.279289 
L 941.446973 425.669274 
L 942.330215 536.937159 
L 943.213458 569.780085 
L 944.096701 578.843948 
L 944.979944 581.294943 
L 945.863186 582.754701 
L 947.629672 583.79885 
L 948.512915 584.038148 
L 951.162643 584.258844 
L 952.045886 584.03108 
L 952.929128 582.940769 
L 953.812371 398.866661 
L 954.695614 519.203947 
L 955.578857 558.656101 
L 956.462099 575.037059 
L 957.345342 580.125173 
L 958.228585 582.577576 
L 959.111827 583.493843 
L 959.99507 584.161125 
L 961.761556 584.507829 
L 962.644798 583.313573 
L 963.528041 549.572557 
L 964.411284 458.006648 
L 965.294527 538.097227 
L 966.177769 568.389544 
L 967.061012 577.334506 
L 967.944255 580.670627 
L 968.827498 582.536651 
L 970.593983 583.997825 
L 971.477226 584.119386 
L 972.360469 581.343427 
L 973.243711 581.856868 
L 974.126954 494.162439 
L 975.010197 493.867099 
L 975.89344 560.229945 
L 976.776682 576.680273 
L 977.659925 581.636785 
L 978.543168 583.510387 
L 979.426411 584.354438 
L 980.309653 584.651648 
L 981.192896 584.19705 
L 982.076139 581.227209 
L 982.959382 556.155435 
L 983.842624 503.158119 
L 984.725867 560.882351 
L 985.60911 574.846707 
L 986.492353 580.88099 
L 987.375595 582.825951 
L 988.258838 583.718152 
L 989.142081 584.437836 
L 990.025324 584.623482 
L 990.908566 584.242313 
L 991.791809 546.09607 
L 992.675052 443.932717 
L 993.558295 549.21011 
L 994.441537 573.232215 
L 995.32478 579.985196 
L 996.208023 582.634997 
L 997.091266 583.753394 
L 998.857751 584.432446 
L 999.740994 584.52135 
L 1000.624237 584.376761 
L 1001.507479 583.290791 
L 1001.507479 583.290791 
" clip-path="url(#pd5155f373a)" style="fill: none; stroke: #4c72b0; stroke-width: 6; stroke-linecap: round"/>
   </g>
   <g id="line2d_15">
    <path d="M 119.147975 193.087796 
L 120.031218 210.302867 
L 120.914461 214.782694 
L 121.797703 217.324286 
L 122.680946 217.967027 
L 123.564189 223.554024 
L 124.447432 233.643593 
L 125.330674 241.666162 
L 126.213917 262.67391 
L 127.980403 319.401731 
L 128.863645 337.264363 
L 129.746888 351.251307 
L 131.513374 373.186758 
L 132.396616 380.82983 
L 133.279859 384.497613 
L 134.163102 385.622744 
L 135.046345 377.438038 
L 135.929587 395.305473 
L 137.696073 400.34996 
L 138.579316 401.299199 
L 139.462558 410.030418 
L 140.345801 411.088226 
L 141.229044 417.976451 
L 142.112287 415.416954 
L 142.995529 406.710528 
L 143.878772 415.74817 
L 144.762015 425.969668 
L 145.645258 425.278143 
L 146.5285 426.709586 
L 148.294986 431.466271 
L 149.178229 422.504541 
L 150.061471 431.354789 
L 150.944714 425.425836 
L 151.827957 438.862759 
L 152.7112 441.970313 
L 154.477685 442.747355 
L 155.360928 443.717338 
L 156.244171 445.600061 
L 157.127413 451.562145 
L 158.010656 446.451843 
L 158.893899 453.755284 
L 159.777142 449.503102 
L 160.660384 450.302843 
L 161.543627 455.187045 
L 162.42687 455.905419 
L 163.310113 456.785614 
L 164.193355 457.934318 
L 165.076598 462.622265 
L 165.959841 431.873307 
L 166.843084 466.024285 
L 167.726326 460.690014 
L 168.609569 463.314088 
L 169.492812 469.536297 
L 170.376055 457.405674 
L 171.259297 464.044989 
L 172.14254 471.98247 
L 173.025783 463.379662 
L 173.909026 460.970352 
L 174.792268 470.325819 
L 175.675511 465.159985 
L 176.558754 470.193053 
L 177.441997 476.855783 
L 178.325239 472.729387 
L 179.208482 479.829203 
L 180.091725 455.926098 
L 180.974967 480.674889 
L 181.85821 476.512059 
L 182.741453 485.339803 
L 183.624696 478.198248 
L 184.507938 478.114815 
L 185.391181 472.088135 
L 186.274424 473.498314 
L 187.157667 486.510899 
L 188.040909 462.07151 
L 188.924152 488.461261 
L 189.807395 489.453022 
L 190.690638 483.591903 
L 191.57388 490.68259 
L 192.457123 473.5201 
L 193.340366 481.483378 
L 194.223609 495.576061 
L 195.106851 480.999713 
L 195.990094 490.211134 
L 196.873337 485.695971 
L 197.75658 492.831533 
L 198.639822 493.450524 
L 199.523065 486.883185 
L 200.406308 464.850807 
L 201.289551 475.299195 
L 203.056036 500.131894 
L 203.939279 493.665912 
L 204.822522 506.177848 
L 205.705764 501.84134 
L 206.589007 508.411815 
L 207.47225 501.64396 
L 208.355493 508.588945 
L 209.238735 474.928836 
L 210.121978 499.65572 
L 211.005221 457.561678 
L 211.888464 493.812172 
L 213.654949 505.658585 
L 215.421435 494.371527 
L 216.304677 506.513485 
L 217.18792 496.007415 
L 218.071163 516.297384 
L 218.954406 509.375875 
L 219.837648 514.55309 
L 220.720891 463.524851 
L 221.604134 512.336387 
L 222.487377 508.525 
L 223.370619 502.936402 
L 224.253862 508.258566 
L 225.137105 485.659117 
L 226.020348 498.41316 
L 226.90359 512.956783 
L 227.786833 513.173451 
L 228.670076 520.086021 
L 229.553319 479.413251 
L 230.436561 497.876839 
L 231.319804 503.198025 
L 232.203047 516.91725 
L 233.08629 515.983603 
L 233.969532 486.561526 
L 234.852775 515.916308 
L 235.736018 510.62527 
L 236.619261 494.412206 
L 237.502503 496.447005 
L 238.385746 527.637345 
L 239.268989 500.842823 
L 240.152232 511.354282 
L 241.035474 494.285303 
L 241.918717 517.227787 
L 242.80196 516.292135 
L 243.685203 508.232712 
L 244.568445 517.741787 
L 245.451688 519.683401 
L 246.334931 526.506002 
L 247.218174 525.591643 
L 248.101416 488.98125 
L 248.984659 525.070407 
L 249.867902 527.890122 
L 250.751144 497.90836 
L 251.634387 517.697661 
L 252.51763 526.340403 
L 253.400873 529.54949 
L 254.284115 499.396833 
L 255.167358 525.25776 
L 256.050601 522.196473 
L 256.933844 531.742327 
L 257.817086 516.450694 
L 258.700329 512.926137 
L 259.583572 516.575317 
L 260.466815 502.545112 
L 261.350057 523.174641 
L 262.2333 503.709694 
L 263.116543 524.728283 
L 263.999786 527.397764 
L 264.883028 497.679216 
L 265.766271 517.402879 
L 266.649514 523.984009 
L 267.532757 529.692404 
L 268.415999 531.262165 
L 269.299242 523.806703 
L 270.182485 532.814746 
L 271.065728 534.109748 
L 271.94897 516.480791 
L 272.832213 528.215247 
L 273.715456 533.217078 
L 274.598699 511.020162 
L 275.481941 469.855173 
L 276.365184 514.937954 
L 277.248427 528.417653 
L 278.13167 519.509761 
L 279.898155 533.729519 
L 280.781398 539.217547 
L 281.664641 529.224825 
L 282.547883 503.338804 
L 283.431126 522.51843 
L 284.314369 537.582152 
L 285.197612 542.576119 
L 286.080854 542.758968 
L 286.964097 404.65557 
L 287.84734 526.207679 
L 288.730583 534.090228 
L 289.613825 539.937377 
L 290.497068 544.932475 
L 291.380311 544.821784 
L 292.263554 490.924465 
L 293.146796 481.384227 
L 294.030039 521.71089 
L 294.913282 531.508316 
L 295.796525 536.448566 
L 296.679767 539.58886 
L 297.56301 539.240683 
L 298.446253 479.8479 
L 299.329496 521.171349 
L 300.212738 536.758722 
L 301.095981 537.79158 
L 301.979224 545.943193 
L 302.862467 346.120084 
L 303.745709 506.41117 
L 304.628952 522.151983 
L 305.512195 542.431273 
L 306.395438 548.917318 
L 307.27868 549.610346 
L 308.161923 537.673602 
L 309.045166 499.43606 
L 309.928409 504.29976 
L 310.811651 538.471425 
L 311.694894 547.121175 
L 312.578137 552.217285 
L 313.46138 547.617088 
L 314.344622 540.813729 
L 315.227865 498.766591 
L 316.111108 515.518034 
L 316.994351 537.940413 
L 317.877593 543.675555 
L 318.760836 536.007533 
L 319.644079 545.816779 
L 320.527321 548.668163 
L 321.410564 539.041441 
L 322.293807 478.460001 
L 323.17705 523.703462 
L 324.060292 538.886074 
L 324.943535 549.408491 
L 325.826778 553.606254 
L 326.710021 553.418415 
L 327.593263 552.354118 
L 328.476506 548.049987 
L 329.359749 403.936163 
L 330.242992 503.101815 
L 331.126234 531.061993 
L 332.009477 544.836418 
L 332.89272 551.679758 
L 333.775963 556.169699 
L 334.659205 554.94948 
L 335.542448 550.791078 
L 336.425691 371.345086 
L 337.308934 518.908271 
L 338.192176 542.668104 
L 339.075419 549.098 
L 339.958662 547.496332 
L 340.841905 552.997945 
L 341.725147 555.130788 
L 342.60839 550.824991 
L 343.491633 554.620257 
L 344.374876 474.637144 
L 345.258118 525.207091 
L 346.141361 541.047721 
L 347.024604 548.95218 
L 347.907847 551.510965 
L 348.791089 556.363704 
L 349.674332 558.999977 
L 350.557575 432.53749 
L 351.440818 428.811299 
L 352.32406 531.547194 
L 353.207303 543.507499 
L 354.090546 549.503987 
L 354.973789 558.977209 
L 355.857031 558.176656 
L 356.740274 557.921895 
L 357.623517 558.051978 
L 358.50676 484.012406 
L 359.390002 530.463393 
L 360.273245 548.692185 
L 361.156488 553.27165 
L 362.039731 556.783511 
L 362.922973 557.215014 
L 363.806216 556.102907 
L 364.689459 555.953983 
L 365.572702 501.182174 
L 366.455944 530.708785 
L 367.339187 552.762213 
L 368.22243 556.176409 
L 369.105673 555.970106 
L 369.988915 560.941533 
L 370.872158 559.522927 
L 371.755401 458.461044 
L 372.638644 535.065735 
L 373.521886 543.722008 
L 374.405129 556.790074 
L 375.288372 558.438642 
L 376.171615 553.790645 
L 377.054857 558.872188 
L 377.9381 555.704775 
L 378.821343 497.695065 
L 379.704586 532.763156 
L 380.587828 542.89761 
L 381.471071 545.127157 
L 382.354314 537.135322 
L 383.237557 550.238392 
L 384.120799 550.69139 
L 385.004042 556.773825 
L 385.887285 547.551664 
L 386.770528 558.257811 
L 387.65377 558.042804 
L 388.537013 465.353411 
L 389.420256 540.305145 
L 390.303498 549.378203 
L 391.186741 555.564159 
L 392.069984 560.94415 
L 392.953227 559.303488 
L 393.836469 560.325036 
L 394.719712 254.083796 
L 395.602955 487.961682 
L 396.486198 538.559516 
L 397.36944 553.271392 
L 399.135926 565.448053 
L 400.019169 560.986669 
L 400.902411 562.101449 
L 401.785654 563.806075 
L 402.668897 521.032515 
L 403.55214 427.611233 
L 404.435382 533.709106 
L 405.318625 553.675031 
L 406.201868 560.636877 
L 407.085111 565.263409 
L 407.968353 566.304728 
L 408.851596 565.788865 
L 409.734839 556.644119 
L 410.618082 253.304958 
L 411.501324 498.509007 
L 412.384567 506.759287 
L 413.26781 551.220522 
L 414.151053 560.290274 
L 415.034295 565.0698 
L 415.917538 565.89652 
L 416.800781 566.361351 
L 417.684024 567.282801 
L 418.567266 565.014578 
L 419.450509 478.394604 
L 420.333752 531.264366 
L 421.216995 553.669829 
L 422.100237 559.236912 
L 422.98348 566.145607 
L 423.866723 566.759453 
L 424.749966 567.194716 
L 425.633208 559.838493 
L 426.516451 558.00482 
L 427.399694 533.684299 
L 428.282937 485.742075 
L 429.166179 528.918755 
L 430.049422 547.381737 
L 430.932665 551.884081 
L 431.815908 565.282701 
L 432.69915 564.615212 
L 433.582393 568.050037 
L 434.465636 565.766166 
L 435.348879 379.629428 
L 436.232121 513.355001 
L 437.115364 539.23622 
L 437.998607 554.547448 
L 438.88185 555.096131 
L 439.765092 549.172354 
L 440.648335 561.369869 
L 442.414821 568.653139 
L 443.298063 570.618272 
L 444.181306 568.837229 
L 445.064549 193.167087 
L 445.947792 473.915689 
L 446.831034 540.845287 
L 447.714277 560.548217 
L 449.480763 568.756623 
L 450.364005 569.011778 
L 452.130491 568.972008 
L 453.013734 559.535963 
L 453.896976 394.746974 
L 454.780219 519.340882 
L 455.663462 553.369647 
L 456.546705 553.52955 
L 457.429947 567.617029 
L 458.31319 570.065431 
L 459.196433 571.231421 
L 460.079676 570.122208 
L 460.962918 568.607986 
L 461.846161 340.797669 
L 462.729404 508.590015 
L 463.612646 554.966036 
L 464.495889 562.809635 
L 465.379132 568.75152 
L 466.262375 570.592351 
L 467.145617 569.231224 
L 468.02886 568.253273 
L 468.912103 568.976122 
L 469.795346 567.574791 
L 470.678588 570.127057 
L 471.561831 346.642957 
L 472.445074 510.28826 
L 473.328317 554.960298 
L 474.211559 564.631564 
L 475.094802 569.233075 
L 475.978045 570.787908 
L 476.861288 571.490759 
L 477.74453 571.295717 
L 478.627773 572.12008 
L 479.511016 572.006126 
L 480.394259 567.90858 
L 481.277501 444.439388 
L 482.160744 543.107164 
L 483.043987 553.369244 
L 483.92723 556.081963 
L 484.810472 567.498976 
L 485.693715 570.474488 
L 486.576958 571.994009 
L 487.460201 570.131245 
L 488.343443 566.00225 
L 489.226686 534.681011 
L 490.109929 538.305906 
L 490.993172 535.832679 
L 491.876414 556.450654 
L 492.759657 562.556027 
L 493.6429 567.298916 
L 494.526143 568.582399 
L 495.409385 568.068241 
L 496.292628 563.11769 
L 497.175871 490.027611 
L 498.059114 517.587793 
L 498.942356 534.426842 
L 499.825599 562.934316 
L 500.708842 569.379639 
L 501.592085 571.180848 
L 502.475327 572.660427 
L 503.35857 573.364781 
L 504.241813 573.602387 
L 505.125056 568.309196 
L 506.008298 493.1033 
L 506.891541 470.613435 
L 507.774784 544.72576 
L 508.658027 558.890563 
L 509.541269 566.500078 
L 510.424512 571.938353 
L 511.307755 573.229771 
L 512.190998 573.119507 
L 513.07424 574.264781 
L 514.840726 572.505892 
L 515.723969 346.89304 
L 516.607211 491.423718 
L 517.490454 544.408936 
L 518.373697 562.538313 
L 519.25694 565.399781 
L 520.140182 570.273469 
L 521.023425 572.256583 
L 521.906668 573.172159 
L 522.789911 572.810799 
L 523.673153 572.068263 
L 524.556396 572.215329 
L 525.439639 278.536084 
L 526.322882 535.33591 
L 527.206124 554.315627 
L 528.089367 563.994965 
L 528.97261 563.382252 
L 529.855853 566.948665 
L 530.739095 573.667212 
L 531.622338 572.904109 
L 532.505581 572.914106 
L 534.272066 571.003076 
L 535.155309 515.705545 
L 536.038552 407.4406 
L 536.921794 512.442229 
L 537.805037 554.803913 
L 538.68828 566.346172 
L 539.571523 570.251643 
L 540.454765 572.463477 
L 542.221251 574.137258 
L 543.104494 573.388998 
L 543.987736 574.05137 
L 544.870979 569.878788 
L 545.754222 336.828784 
L 546.637465 501.540779 
L 547.520707 548.160282 
L 548.40395 561.520683 
L 549.287193 569.37627 
L 550.170436 570.718409 
L 551.053678 571.764284 
L 551.936921 572.208111 
L 552.820164 573.844664 
L 553.703407 572.631332 
L 554.586649 573.842057 
L 555.469892 549.97223 
L 556.353135 491.579118 
L 557.236378 557.9501 
L 558.11962 556.003724 
L 559.002863 567.351886 
L 559.886106 572.957697 
L 560.769349 573.865001 
L 561.652591 574.963308 
L 562.535834 575.135957 
L 563.419077 574.202839 
L 564.30232 568.372562 
L 565.185562 494.653168 
L 566.068805 517.458033 
L 566.952048 547.176293 
L 567.835291 567.422794 
L 568.718533 573.345921 
L 569.601776 575.309353 
L 570.485019 575.712016 
L 571.368262 575.854403 
L 572.251504 575.170746 
L 573.134747 575.387894 
L 574.01799 441.704185 
L 574.901233 549.151205 
L 575.784475 515.367521 
L 576.667718 557.811837 
L 577.550961 566.697386 
L 578.434204 570.003095 
L 579.317446 566.31977 
L 580.200689 574.758087 
L 581.083932 575.66423 
L 581.967175 575.668493 
L 582.850417 571.750459 
L 583.73366 418.067933 
L 584.616903 480.272516 
L 585.500146 556.350261 
L 587.266631 570.327792 
L 588.149874 574.354382 
L 589.033117 574.12307 
L 589.916359 575.429179 
L 590.799602 570.816722 
L 591.682845 332.749935 
L 592.566088 500.751415 
L 593.44933 508.017743 
L 594.332573 555.675162 
L 595.215816 565.98374 
L 596.099059 573.704066 
L 596.982301 575.679867 
L 597.865544 576.054142 
L 598.748787 576.243582 
L 599.63203 576.225482 
L 600.515272 575.246438 
L 601.398515 572.848979 
L 602.281758 292.429944 
L 603.165 503.21352 
L 604.048243 537.41553 
L 604.931486 562.756782 
L 605.814729 569.72983 
L 606.697971 573.205483 
L 607.581214 573.078144 
L 608.464457 574.684198 
L 609.3477 572.500137 
L 610.230942 572.220831 
L 611.114185 564.06458 
L 611.997428 466.365068 
L 612.880671 541.597071 
L 613.763913 540.922247 
L 614.647156 559.667357 
L 615.530399 566.513237 
L 616.413642 572.070207 
L 617.296884 572.244499 
L 618.180127 572.89286 
L 619.06337 574.252145 
L 619.946613 575.087187 
L 620.829855 575.593098 
L 621.713098 574.660111 
L 622.596341 440.015269 
L 623.479584 534.44278 
L 624.362826 561.467254 
L 625.246069 571.598682 
L 627.012555 575.502808 
L 627.895797 576.15806 
L 628.77904 576.288716 
L 629.662283 576.070154 
L 630.545526 565.150121 
L 631.428768 520.192855 
L 632.312011 435.44423 
L 633.195254 555.655702 
L 634.078497 565.657483 
L 634.961739 572.532637 
L 635.844982 573.68716 
L 636.728225 575.154117 
L 637.611468 574.869937 
L 638.49471 575.647261 
L 639.377953 574.699419 
L 640.261196 574.93444 
L 641.144439 471.601668 
L 642.027681 517.875414 
L 642.910924 549.749901 
L 643.794167 569.312692 
L 644.67741 570.972231 
L 645.560652 573.841345 
L 646.443895 575.411916 
L 647.327138 576.16869 
L 649.093623 575.677648 
L 649.976866 573.909926 
L 650.860109 530.578472 
L 651.743352 480.814263 
L 652.626594 535.170279 
L 653.509837 545.490043 
L 654.39308 554.244148 
L 655.276323 565.63807 
L 656.159565 572.292678 
L 657.042808 572.73556 
L 657.926051 575.278924 
L 658.809294 571.842008 
L 659.692536 566.81636 
L 660.575779 553.150385 
L 661.459022 561.770168 
L 662.342265 572.588027 
L 663.225507 574.861189 
L 664.10875 575.456632 
L 664.991993 576.188437 
L 665.875236 246.569992 
L 666.758478 452.90326 
L 667.641721 555.076962 
L 668.524964 568.016866 
L 669.408207 573.208902 
L 670.291449 574.739015 
L 671.174692 574.734062 
L 672.057935 575.739075 
L 672.941177 576.224362 
L 673.82442 576.409778 
L 674.707663 576.151897 
L 675.590906 574.662674 
L 676.474148 301.50405 
L 677.357391 486.463176 
L 678.240634 543.646086 
L 679.123877 566.52071 
L 680.007119 572.234195 
L 680.890362 575.190422 
L 681.773605 576.069076 
L 682.656848 576.29037 
L 683.54009 576.715224 
L 684.423333 576.445074 
L 685.306576 576.702358 
L 686.189819 574.825614 
L 687.073061 572.336681 
L 687.956304 572.351094 
L 688.839547 314.840844 
L 689.72279 443.810012 
L 690.606032 539.411205 
L 691.489275 560.593844 
L 692.372518 570.879447 
L 693.255761 573.837248 
L 694.139003 574.923206 
L 695.022246 575.225306 
L 695.905489 575.728325 
L 697.671974 575.53865 
L 698.555217 574.020069 
L 699.43846 575.025096 
L 700.321703 569.875993 
L 701.204945 250.915099 
L 702.088188 502.692359 
L 702.971431 549.429924 
L 703.854674 564.452996 
L 704.737916 571.631359 
L 705.621159 574.041269 
L 706.504402 575.399999 
L 707.387645 575.278029 
L 708.270887 576.10192 
L 709.15413 575.434739 
L 710.037373 574.27844 
L 710.920616 572.565058 
L 711.803858 500.206969 
L 712.687101 511.589563 
L 714.453587 568.3728 
L 715.336829 573.407652 
L 716.220072 574.517304 
L 717.103315 576.112886 
L 717.986558 575.53283 
L 718.8698 575.925246 
L 719.753043 574.253736 
L 720.636286 573.631846 
L 721.519529 574.772784 
L 722.402771 343.546962 
L 723.286014 509.402147 
L 724.169257 549.403759 
L 725.0525 568.644484 
L 725.935742 574.213732 
L 726.818985 575.193243 
L 727.702228 577.205366 
L 728.585471 577.341689 
L 729.468713 577.125219 
L 730.351956 577.335733 
L 731.235199 575.876291 
L 732.118442 572.721625 
L 733.001684 273.982289 
L 733.884927 498.757545 
L 734.76817 559.848937 
L 735.651413 571.254864 
L 736.534655 574.728729 
L 737.417898 576.138275 
L 738.301141 576.589026 
L 740.067626 576.960002 
L 741.834112 576.536316 
L 742.717355 571.541633 
L 743.600597 519.813859 
L 744.48384 544.210271 
L 745.367083 563.093505 
L 747.133568 575.011979 
L 748.016811 576.732937 
L 748.900054 576.73809 
L 749.783296 574.956994 
L 750.666539 574.688152 
L 751.549782 575.780648 
L 752.433025 575.216407 
L 753.316267 451.967525 
L 755.082753 562.641489 
L 755.965996 569.637172 
L 756.849238 573.360079 
L 757.732481 576.107644 
L 758.615724 577.02987 
L 759.498967 577.242025 
L 761.265452 575.315292 
L 762.148695 577.313571 
L 763.031938 574.189191 
L 763.91518 574.21798 
L 764.798423 79.797102 
L 765.681666 461.040662 
L 766.564909 547.164404 
L 767.448151 566.942506 
L 768.331394 572.922147 
L 769.214637 575.745784 
L 770.09788 576.876205 
L 770.981122 576.985838 
L 771.864365 576.936334 
L 772.747608 576.314401 
L 773.630851 575.242449 
L 774.514093 576.660594 
L 775.397336 574.016763 
L 776.280579 197.687751 
L 777.163822 486.120056 
L 778.047064 543.374585 
L 778.930307 567.420013 
L 779.81355 570.300121 
L 780.696793 575.673818 
L 782.463278 577.036516 
L 783.346521 577.52777 
L 784.229764 577.154702 
L 785.113006 575.584805 
L 785.996249 575.518248 
L 786.879492 465.829585 
L 787.762735 525.513576 
L 788.645977 560.391345 
L 789.52922 570.188072 
L 790.412463 574.821383 
L 791.295706 576.137656 
L 792.178948 576.729587 
L 793.062191 576.9681 
L 793.945434 574.715891 
L 794.828677 575.018195 
L 795.711919 569.501766 
L 796.595162 508.900003 
L 797.478405 525.664317 
L 798.361648 504.845136 
L 799.24489 554.516744 
L 800.128133 571.115882 
L 801.011376 570.340944 
L 801.894619 575.396108 
L 802.777861 576.535427 
L 803.661104 577.265846 
L 804.544347 577.151226 
L 805.42759 577.746668 
L 807.194075 577.523597 
L 808.077318 576.792186 
L 808.960561 288.367865 
L 809.843803 509.675333 
L 810.727046 565.709337 
L 812.493532 575.498192 
L 813.376774 577.403019 
L 815.14326 578.602642 
L 816.026502 578.544288 
L 816.909745 578.641107 
L 817.792988 577.377995 
L 818.676231 577.878788 
L 819.559473 577.349433 
L 820.442716 306.530817 
L 821.325959 476.984221 
L 822.209202 554.433697 
L 823.092444 571.547562 
L 823.975687 576.174261 
L 824.85893 577.519481 
L 825.742173 578.256187 
L 826.625415 578.200719 
L 827.508658 578.317607 
L 828.391901 578.031429 
L 829.275144 575.259803 
L 830.158386 508.828353 
L 831.041629 539.880906 
L 831.924872 532.368228 
L 832.808115 565.88816 
L 833.691357 574.184978 
L 834.5746 576.792728 
L 835.457843 577.544796 
L 836.341086 577.371382 
L 837.224328 578.437141 
L 838.107571 578.644262 
L 838.990814 577.033632 
L 839.874057 576.832269 
L 840.757299 577.006406 
L 841.640542 576.58963 
L 842.523785 357.806454 
L 843.407028 515.355381 
L 844.29027 548.548836 
L 845.173513 566.658397 
L 846.056756 574.370163 
L 846.939999 576.94798 
L 847.823241 577.904197 
L 848.706484 578.111685 
L 849.589727 578.146721 
L 851.356212 578.000112 
L 852.239455 565.842019 
L 853.122698 407.678603 
L 854.005941 532.838669 
L 854.889183 558.164216 
L 855.772426 572.155228 
L 856.655669 576.136057 
L 857.538912 577.520832 
L 858.422154 578.208758 
L 859.305397 578.411911 
L 860.18864 577.663435 
L 861.071883 577.469079 
L 861.955125 577.439856 
L 862.838368 574.645519 
L 863.721611 573.896834 
L 864.604854 425.675472 
L 865.488096 540.239846 
L 866.371339 564.340121 
L 868.137825 523.858391 
L 869.021067 558.486201 
L 869.90431 572.024961 
L 870.787553 575.77467 
L 871.670796 576.897158 
L 872.554038 577.408499 
L 875.203767 577.398396 
L 876.087009 575.961048 
L 876.970252 558.632586 
L 877.853495 509.869712 
L 878.736738 549.973411 
L 879.61998 557.548152 
L 880.503223 570.492327 
L 881.386466 575.857577 
L 882.269709 576.717937 
L 883.152951 577.421652 
L 884.036194 577.197486 
L 884.919437 576.36533 
L 885.802679 573.659305 
L 886.685922 497.619878 
L 887.569165 490.537968 
L 888.452408 562.952966 
L 889.33565 568.018617 
L 890.218893 575.015639 
L 891.102136 573.918646 
L 891.985379 577.072517 
L 892.868621 577.272221 
L 893.751864 577.270948 
L 894.635107 554.233337 
L 895.51835 431.508532 
L 896.401592 517.536808 
L 897.284835 548.941643 
L 898.168078 496.158635 
L 899.051321 561.138855 
L 899.934563 569.543532 
L 900.817806 573.935304 
L 901.701049 575.747645 
L 902.584292 577.123643 
L 903.467534 577.214808 
L 904.350777 577.838237 
L 905.23402 577.14196 
L 906.117263 574.755011 
L 907.000505 569.220944 
L 907.883748 464.62775 
L 908.766991 530.975108 
L 909.650234 559.428283 
L 910.533476 569.29229 
L 911.416719 576.973169 
L 912.299962 577.870194 
L 913.183205 578.286504 
L 914.066447 578.334785 
L 914.94969 578.262604 
L 915.832933 574.859705 
L 916.716176 576.627778 
L 917.599418 576.752476 
L 918.482661 473.740197 
L 920.249147 553.648899 
L 921.132389 569.835468 
L 922.015632 576.206062 
L 922.898875 577.306459 
L 923.782118 577.826243 
L 924.66536 578.119081 
L 926.431846 578.254494 
L 928.198331 576.763862 
L 929.081574 502.96555 
L 929.964817 470.808945 
L 930.84806 534.018619 
L 931.731302 563.425759 
L 932.614545 575.105318 
L 933.497788 577.081929 
L 934.381031 577.782847 
L 936.147516 578.32236 
L 937.914002 577.800053 
L 938.797244 575.931591 
L 939.680487 576.188928 
L 940.56373 478.945183 
L 941.446973 500.56255 
L 942.330215 558.45806 
L 943.213458 570.739348 
L 944.096701 574.585799 
L 944.979944 576.366159 
L 945.863186 577.739044 
L 946.746429 577.995959 
L 947.629672 577.955317 
L 948.512915 577.524065 
L 949.396157 577.632916 
L 950.2794 577.180123 
L 951.162643 577.427503 
L 952.045886 575.691777 
L 952.929128 567.1896 
L 953.812371 456.176665 
L 954.695614 548.148665 
L 955.578857 562.740949 
L 956.462099 572.227273 
L 957.345342 576.289942 
L 958.228585 577.209425 
L 959.111827 577.702204 
L 960.878313 577.760504 
L 961.761556 577.381305 
L 962.644798 566.540456 
L 963.528041 379.062293 
L 964.411284 488.525038 
L 965.294527 550.145792 
L 966.177769 566.181499 
L 967.061012 573.420976 
L 967.944255 576.330775 
L 968.827498 576.678597 
L 969.71074 577.452582 
L 970.593983 577.339311 
L 971.477226 576.566089 
L 972.360469 572.272814 
L 973.243711 575.61527 
L 974.126954 336.775831 
L 975.010197 538.718144 
L 975.89344 566.102485 
L 976.776682 574.403166 
L 977.659925 576.570729 
L 978.543168 578.025612 
L 979.426411 577.959385 
L 980.309653 577.455172 
L 981.192896 575.479783 
L 982.076139 572.356291 
L 982.959382 438.0473 
L 983.842624 549.690972 
L 985.60911 573.284141 
L 986.492353 574.933018 
L 987.375595 577.595321 
L 988.258838 577.316488 
L 989.142081 577.896908 
L 990.025324 577.584088 
L 990.908566 576.912498 
L 991.791809 248.129678 
L 992.675052 492.401203 
L 993.558295 563.639822 
L 994.441537 572.2898 
L 995.32478 576.235796 
L 996.208023 578.218966 
L 997.091266 578.32483 
L 997.974508 578.290419 
L 998.857751 578.482464 
L 1000.624237 577.675133 
L 1001.507479 575.187847 
L 1001.507479 575.187847 
" clip-path="url(#pd5155f373a)" style="fill: none; stroke: #dd8452; stroke-width: 6; stroke-linecap: round"/>
   </g>
   <g id="line2d_16"/>
   <g id="line2d_17"/>
   <g id="patch_3">
    <path d="M 75.03 609.894375 
L 75.03 54.554375 
" style="fill: none; stroke: #cccccc; stroke-width: 1.875; stroke-linejoin: miter; stroke-linecap: square"/>
   </g>
   <g id="patch_4">
    <path d="M 1045.625455 609.894375 
L 1045.625455 54.554375 
" style="fill: none; stroke: #cccccc; stroke-width: 1.875; stroke-linejoin: miter; stroke-linecap: square"/>
   </g>
   <g id="patch_5">
    <path d="M 75.03 609.894375 
L 1045.625455 609.894375 
" style="fill: none; stroke: #cccccc; stroke-width: 1.875; stroke-linejoin: miter; stroke-linecap: square"/>
   </g>
   <g id="patch_6">
    <path d="M 75.03 54.554375 
L 1045.625455 54.554375 
" style="fill: none; stroke: #cccccc; stroke-width: 1.875; stroke-linejoin: miter; stroke-linecap: square"/>
   </g>
   <g id="text_16">
    <!-- Training Progress: Loss -->
    <g style="fill: #262626" transform="translate(323.329602 34.554375) scale(0.36 -0.36)">
     <defs>
      <path id="DejaVuSans-Bold-54" d="M 31 4666 
L 4331 4666 
L 4331 3756 
L 2784 3756 
L 2784 0 
L 1581 0 
L 1581 3756 
L 31 3756 
L 31 4666 
z
" transform="scale(0.015625)"/>
      <path id="DejaVuSans-Bold-72" d="M 3138 2547 
Q 2991 2616 2845 2648 
Q 2700 2681 2553 2681 
Q 2122 2681 1889 2404 
Q 1656 2128 1656 1613 
L 1656 0 
L 538 0 
L 538 3500 
L 1656 3500 
L 1656 2925 
Q 1872 3269 2151 3426 
Q 2431 3584 2822 3584 
Q 2878 3584 2943 3579 
Q 3009 3575 3134 3559 
L 3138 2547 
z
" transform="scale(0.015625)"/>
      <path id="DejaVuSans-Bold-61" d="M 2106 1575 
Q 1756 1575 1579 1456 
Q 1403 1338 1403 1106 
Q 1403 894 1545 773 
Q 1688 653 1941 653 
Q 2256 653 2472 879 
Q 2688 1106 2688 1447 
L 2688 1575 
L 2106 1575 
z
M 3816 1997 
L 3816 0 
L 2688 0 
L 2688 519 
Q 2463 200 2181 54 
Q 1900 -91 1497 -91 
Q 953 -91 614 226 
Q 275 544 275 1050 
Q 275 1666 698 1953 
Q 1122 2241 2028 2241 
L 2688 2241 
L 2688 2328 
Q 2688 2594 2478 2717 
Q 2269 2841 1825 2841 
Q 1466 2841 1156 2769 
Q 847 2697 581 2553 
L 581 3406 
Q 941 3494 1303 3539 
Q 1666 3584 2028 3584 
Q 2975 3584 3395 3211 
Q 3816 2838 3816 1997 
z
" transform="scale(0.015625)"/>
      <path id="DejaVuSans-Bold-69" d="M 538 3500 
L 1656 3500 
L 1656 0 
L 538 0 
L 538 3500 
z
M 538 4863 
L 1656 4863 
L 1656 3950 
L 538 3950 
L 538 4863 
z
" transform="scale(0.015625)"/>
      <path id="DejaVuSans-Bold-6e" d="M 4056 2131 
L 4056 0 
L 2931 0 
L 2931 347 
L 2931 1631 
Q 2931 2084 2911 2256 
Q 2891 2428 2841 2509 
Q 2775 2619 2662 2680 
Q 2550 2741 2406 2741 
Q 2056 2741 1856 2470 
Q 1656 2200 1656 1722 
L 1656 0 
L 538 0 
L 538 3500 
L 1656 3500 
L 1656 2988 
Q 1909 3294 2193 3439 
Q 2478 3584 2822 3584 
Q 3428 3584 3742 3212 
Q 4056 2841 4056 2131 
z
" transform="scale(0.015625)"/>
      <path id="DejaVuSans-Bold-67" d="M 2919 594 
Q 2688 288 2409 144 
Q 2131 0 1766 0 
Q 1125 0 706 504 
Q 288 1009 288 1791 
Q 288 2575 706 3076 
Q 1125 3578 1766 3578 
Q 2131 3578 2409 3434 
Q 2688 3291 2919 2981 
L 2919 3500 
L 4044 3500 
L 4044 353 
Q 4044 -491 3511 -936 
Q 2978 -1381 1966 -1381 
Q 1638 -1381 1331 -1331 
Q 1025 -1281 716 -1178 
L 716 -306 
Q 1009 -475 1290 -558 
Q 1572 -641 1856 -641 
Q 2406 -641 2662 -400 
Q 2919 -159 2919 353 
L 2919 594 
z
M 2181 2772 
Q 1834 2772 1640 2515 
Q 1447 2259 1447 1791 
Q 1447 1309 1634 1061 
Q 1822 813 2181 813 
Q 2531 813 2725 1069 
Q 2919 1325 2919 1791 
Q 2919 2259 2725 2515 
Q 2531 2772 2181 2772 
z
" transform="scale(0.015625)"/>
      <path id="DejaVuSans-Bold-20" transform="scale(0.015625)"/>
      <path id="DejaVuSans-Bold-50" d="M 588 4666 
L 2584 4666 
Q 3475 4666 3951 4270 
Q 4428 3875 4428 3144 
Q 4428 2409 3951 2014 
Q 3475 1619 2584 1619 
L 1791 1619 
L 1791 0 
L 588 0 
L 588 4666 
z
M 1791 3794 
L 1791 2491 
L 2456 2491 
Q 2806 2491 2997 2661 
Q 3188 2831 3188 3144 
Q 3188 3456 2997 3625 
Q 2806 3794 2456 3794 
L 1791 3794 
z
" transform="scale(0.015625)"/>
      <path id="DejaVuSans-Bold-6f" d="M 2203 2784 
Q 1831 2784 1636 2517 
Q 1441 2250 1441 1747 
Q 1441 1244 1636 976 
Q 1831 709 2203 709 
Q 2569 709 2762 976 
Q 2956 1244 2956 1747 
Q 2956 2250 2762 2517 
Q 2569 2784 2203 2784 
z
M 2203 3584 
Q 3106 3584 3614 3096 
Q 4122 2609 4122 1747 
Q 4122 884 3614 396 
Q 3106 -91 2203 -91 
Q 1297 -91 786 396 
Q 275 884 275 1747 
Q 275 2609 786 3096 
Q 1297 3584 2203 3584 
z
" transform="scale(0.015625)"/>
      <path id="DejaVuSans-Bold-65" d="M 4031 1759 
L 4031 1441 
L 1416 1441 
Q 1456 1047 1700 850 
Q 1944 653 2381 653 
Q 2734 653 3104 758 
Q 3475 863 3866 1075 
L 3866 213 
Q 3469 63 3072 -14 
Q 2675 -91 2278 -91 
Q 1328 -91 801 392 
Q 275 875 275 1747 
Q 275 2603 792 3093 
Q 1309 3584 2216 3584 
Q 3041 3584 3536 3087 
Q 4031 2591 4031 1759 
z
M 2881 2131 
Q 2881 2450 2695 2645 
Q 2509 2841 2209 2841 
Q 1884 2841 1681 2658 
Q 1478 2475 1428 2131 
L 2881 2131 
z
" transform="scale(0.015625)"/>
      <path id="DejaVuSans-Bold-73" d="M 3272 3391 
L 3272 2541 
Q 2913 2691 2578 2766 
Q 2244 2841 1947 2841 
Q 1628 2841 1473 2761 
Q 1319 2681 1319 2516 
Q 1319 2381 1436 2309 
Q 1553 2238 1856 2203 
L 2053 2175 
Q 2913 2066 3209 1816 
Q 3506 1566 3506 1031 
Q 3506 472 3093 190 
Q 2681 -91 1863 -91 
Q 1516 -91 1145 -36 
Q 775 19 384 128 
L 384 978 
Q 719 816 1070 734 
Q 1422 653 1784 653 
Q 2113 653 2278 743 
Q 2444 834 2444 1013 
Q 2444 1163 2330 1236 
Q 2216 1309 1875 1350 
L 1678 1375 
Q 931 1469 631 1722 
Q 331 1975 331 2491 
Q 331 3047 712 3315 
Q 1094 3584 1881 3584 
Q 2191 3584 2531 3537 
Q 2872 3491 3272 3391 
z
" transform="scale(0.015625)"/>
      <path id="DejaVuSans-Bold-3a" d="M 716 3500 
L 1844 3500 
L 1844 2291 
L 716 2291 
L 716 3500 
z
M 716 1209 
L 1844 1209 
L 1844 0 
L 716 0 
L 716 1209 
z
" transform="scale(0.015625)"/>
      <path id="DejaVuSans-Bold-4c" d="M 588 4666 
L 1791 4666 
L 1791 909 
L 3903 909 
L 3903 0 
L 588 0 
L 588 4666 
z
" transform="scale(0.015625)"/>
     </defs>
     <use xlink:href="#DejaVuSans-Bold-54"/>
     <use xlink:href="#DejaVuSans-Bold-72" transform="translate(57.212891 0)"/>
     <use xlink:href="#DejaVuSans-Bold-61" transform="translate(106.529297 0)"/>
     <use xlink:href="#DejaVuSans-Bold-69" transform="translate(174.009766 0)"/>
     <use xlink:href="#DejaVuSans-Bold-6e" transform="translate(208.287109 0)"/>
     <use xlink:href="#DejaVuSans-Bold-69" transform="translate(279.478516 0)"/>
     <use xlink:href="#DejaVuSans-Bold-6e" transform="translate(313.755859 0)"/>
     <use xlink:href="#DejaVuSans-Bold-67" transform="translate(384.947266 0)"/>
     <use xlink:href="#DejaVuSans-Bold-20" transform="translate(456.529297 0)"/>
     <use xlink:href="#DejaVuSans-Bold-50" transform="translate(491.34375 0)"/>
     <use xlink:href="#DejaVuSans-Bold-72" transform="translate(564.634766 0)"/>
     <use xlink:href="#DejaVuSans-Bold-6f" transform="translate(613.951172 0)"/>
     <use xlink:href="#DejaVuSans-Bold-67" transform="translate(682.652344 0)"/>
     <use xlink:href="#DejaVuSans-Bold-72" transform="translate(754.234375 0)"/>
     <use xlink:href="#DejaVuSans-Bold-65" transform="translate(803.550781 0)"/>
     <use xlink:href="#DejaVuSans-Bold-73" transform="translate(871.373047 0)"/>
     <use xlink:href="#DejaVuSans-Bold-73" transform="translate(930.894531 0)"/>
     <use xlink:href="#DejaVuSans-Bold-3a" transform="translate(990.416016 0)"/>
     <use xlink:href="#DejaVuSans-Bold-20" transform="translate(1030.40625 0)"/>
     <use xlink:href="#DejaVuSans-Bold-4c" transform="translate(1065.220703 0)"/>
     <use xlink:href="#DejaVuSans-Bold-6f" transform="translate(1128.941406 0)"/>
     <use xlink:href="#DejaVuSans-Bold-73" transform="translate(1197.642578 0)"/>
     <use xlink:href="#DejaVuSans-Bold-73" transform="translate(1257.164062 0)"/>
    </g>
   </g>
   <g id="legend_1">
    <g id="patch_7">
     <path d="M 846.345455 174.094375 
L 1023.225455 174.094375 
Q 1029.625455 174.094375 1029.625455 167.694375 
L 1029.625455 76.954375 
Q 1029.625455 70.554375 1023.225455 70.554375 
L 846.345455 70.554375 
Q 839.945455 70.554375 839.945455 76.954375 
L 839.945455 167.694375 
Q 839.945455 174.094375 846.345455 174.094375 
z
" style="fill: #ffffff; opacity: 0.8; stroke: #cccccc; stroke-width: 1.5; stroke-linejoin: miter"/>
    </g>
    <g id="line2d_18">
     <path d="M 852.745455 96.469375 
L 884.745455 96.469375 
L 916.745455 96.469375 
" style="fill: none; stroke: #4c72b0; stroke-width: 6; stroke-linecap: round"/>
    </g>
    <g id="text_17">
     <!-- train -->
     <g style="fill: #262626" transform="translate(942.345455 107.669375) scale(0.32 -0.32)">
      <defs>
       <path id="DejaVuSans-74" d="M 1172 4494 
L 1172 3500 
L 2356 3500 
L 2356 3053 
L 1172 3053 
L 1172 1153 
Q 1172 725 1289 603 
Q 1406 481 1766 481 
L 2356 481 
L 2356 0 
L 1766 0 
Q 1100 0 847 248 
Q 594 497 594 1153 
L 594 3053 
L 172 3053 
L 172 3500 
L 594 3500 
L 594 4494 
L 1172 4494 
z
" transform="scale(0.015625)"/>
       <path id="DejaVuSans-72" d="M 2631 2963 
Q 2534 3019 2420 3045 
Q 2306 3072 2169 3072 
Q 1681 3072 1420 2755 
Q 1159 2438 1159 1844 
L 1159 0 
L 581 0 
L 581 3500 
L 1159 3500 
L 1159 2956 
Q 1341 3275 1631 3429 
Q 1922 3584 2338 3584 
Q 2397 3584 2469 3576 
Q 2541 3569 2628 3553 
L 2631 2963 
z
" transform="scale(0.015625)"/>
       <path id="DejaVuSans-61" d="M 2194 1759 
Q 1497 1759 1228 1600 
Q 959 1441 959 1056 
Q 959 750 1161 570 
Q 1363 391 1709 391 
Q 2188 391 2477 730 
Q 2766 1069 2766 1631 
L 2766 1759 
L 2194 1759 
z
M 3341 1997 
L 3341 0 
L 2766 0 
L 2766 531 
Q 2569 213 2275 61 
Q 1981 -91 1556 -91 
Q 1019 -91 701 211 
Q 384 513 384 1019 
Q 384 1609 779 1909 
Q 1175 2209 1959 2209 
L 2766 2209 
L 2766 2266 
Q 2766 2663 2505 2880 
Q 2244 3097 1772 3097 
Q 1472 3097 1187 3025 
Q 903 2953 641 2809 
L 641 3341 
Q 956 3463 1253 3523 
Q 1550 3584 1831 3584 
Q 2591 3584 2966 3190 
Q 3341 2797 3341 1997 
z
" transform="scale(0.015625)"/>
       <path id="DejaVuSans-69" d="M 603 3500 
L 1178 3500 
L 1178 0 
L 603 0 
L 603 3500 
z
M 603 4863 
L 1178 4863 
L 1178 4134 
L 603 4134 
L 603 4863 
z
" transform="scale(0.015625)"/>
       <path id="DejaVuSans-6e" d="M 3513 2113 
L 3513 0 
L 2938 0 
L 2938 2094 
Q 2938 2591 2744 2837 
Q 2550 3084 2163 3084 
Q 1697 3084 1428 2787 
Q 1159 2491 1159 1978 
L 1159 0 
L 581 0 
L 581 3500 
L 1159 3500 
L 1159 2956 
Q 1366 3272 1645 3428 
Q 1925 3584 2291 3584 
Q 2894 3584 3203 3211 
Q 3513 2838 3513 2113 
z
" transform="scale(0.015625)"/>
      </defs>
      <use xlink:href="#DejaVuSans-74"/>
      <use xlink:href="#DejaVuSans-72" transform="translate(39.208984 0)"/>
      <use xlink:href="#DejaVuSans-61" transform="translate(80.322266 0)"/>
      <use xlink:href="#DejaVuSans-69" transform="translate(141.601562 0)"/>
      <use xlink:href="#DejaVuSans-6e" transform="translate(169.384766 0)"/>
     </g>
    </g>
    <g id="line2d_19">
     <path d="M 852.745455 143.439375 
L 884.745455 143.439375 
L 916.745455 143.439375 
" style="fill: none; stroke: #dd8452; stroke-width: 6; stroke-linecap: round"/>
    </g>
    <g id="text_18">
     <!-- val -->
     <g style="fill: #262626" transform="translate(942.345455 154.639375) scale(0.32 -0.32)">
      <defs>
       <path id="DejaVuSans-76" d="M 191 3500 
L 800 3500 
L 1894 563 
L 2988 3500 
L 3597 3500 
L 2284 0 
L 1503 0 
L 191 3500 
z
" transform="scale(0.015625)"/>
       <path id="DejaVuSans-6c" d="M 603 4863 
L 1178 4863 
L 1178 0 
L 603 0 
L 603 4863 
z
" transform="scale(0.015625)"/>
      </defs>
      <use xlink:href="#DejaVuSans-76"/>
      <use xlink:href="#DejaVuSans-61" transform="translate(59.179688 0)"/>
      <use xlink:href="#DejaVuSans-6c" transform="translate(120.458984 0)"/>
     </g>
    </g>
   </g>
  </g>
 </g>
 <defs>
  <clipPath id="pd5155f373a">
   <rect x="75.03" y="54.554375" width="970.595455" height="555.34"/>
  </clipPath>
 </defs>
</svg>
