<?xml version="1.0" encoding="utf-8" standalone="no"?>
<!DOCTYPE svg PUBLIC "-//W3C//DTD SVG 1.1//EN"
  "http://www.w3.org/Graphics/SVG/1.1/DTD/svg11.dtd">
<svg xmlns:xlink="http://www.w3.org/1999/xlink" width="1052.955455pt" height="695.534375pt" viewBox="0 0 1052.955455 695.534375" xmlns="http://www.w3.org/2000/svg" version="1.1">
 <metadata>
  <rdf:RDF xmlns:dc="http://purl.org/dc/elements/1.1/" xmlns:cc="http://creativecommons.org/ns#" xmlns:rdf="http://www.w3.org/1999/02/22-rdf-syntax-ns#">
   <cc:Work>
    <dc:type rdf:resource="http://purl.org/dc/dcmitype/StillImage"/>
    <dc:date>2026-04-10T18:26:10.905051</dc:date>
    <dc:format>image/svg+xml</dc:format>
    <dc:creator>
     <cc:Agent>
      <dc:title>Matplotlib v3.10.8, https://matplotlib.org/</dc:title>
     </cc:Agent>
    </dc:creator>
   </cc:Work>
  </rdf:RDF>
 </metadata>
 <defs>
  <style type="text/css">*{stroke-linejoin: round; stroke-linecap: butt}</style>
 </defs>
 <g id="figure_1">
  <g id="patch_1">
   <path d="M 0 695.534375 
L 1052.955455 695.534375 
L 1052.955455 0 
L 0 0 
z
" style="fill: #ffffff"/>
  </g>
  <g id="axes_1">
   <g id="patch_2">
    <path d="M 115.75 609.894375 
L 1045.755455 609.894375 
L 1045.755455 54.554375 
L 115.75 54.554375 
z
" style="fill: #ffffff"/>
   </g>
   <g id="matplotlib.axis_1">
    <g id="xtick_1">
     <g id="line2d_1">
      <path d="M 157.176669 609.894375 
L 157.176669 54.554375 
" clip-path="url(#p6f2cb858ad)" style="fill: none; stroke: #cccccc; stroke-opacity: 0.3; stroke-width: 1.5; stroke-linecap: round"/>
     </g>
     <g id="text_1">
      <!-- 0 -->
      <g style="fill: #262626" transform="translate(146.996669 646.709375) scale(0.32 -0.32)">
       <defs>
        <path id="DejaVuSans-30" d="M 2034 4250 
Q 1547 4250 1301 3770 
Q 1056 3291 1056 2328 
Q 1056 1369 1301 889 
Q 1547 409 2034 409 
Q 2525 409 2770 889 
Q 3016 1369 3016 2328 
Q 3016 3291 2770 3770 
Q 2525 4250 2034 4250 
z
M 2034 4750 
Q 2819 4750 3233 4129 
Q 3647 3509 3647 2328 
Q 3647 1150 3233 529 
Q 2819 -91 2034 -91 
Q 1250 -91 836 529 
Q 422 1150 422 2328 
Q 422 3509 836 4129 
Q 1250 4750 2034 4750 
z
" transform="scale(0.015625)"/>
       </defs>
       <use xlink:href="#DejaVuSans-30"/>
      </g>
     </g>
    </g>
    <g id="xtick_2">
     <g id="line2d_2">
      <path d="M 326.437831 609.894375 
L 326.437831 54.554375 
" clip-path="url(#p6f2cb858ad)" style="fill: none; stroke: #cccccc; stroke-opacity: 0.3; stroke-width: 1.5; stroke-linecap: round"/>
     </g>
     <g id="text_2">
      <!-- 200 -->
      <g style="fill: #262626" transform="translate(295.897831 646.709375) scale(0.32 -0.32)">
       <defs>
        <path id="DejaVuSans-32" d="M 1228 531 
L 3431 531 
L 3431 0 
L 469 0 
L 469 531 
Q 828 903 1448 1529 
Q 2069 2156 2228 2338 
Q 2531 2678 2651 2914 
Q 2772 3150 2772 3378 
Q 2772 3750 2511 3984 
Q 2250 4219 1831 4219 
Q 1534 4219 1204 4116 
Q 875 4013 500 3803 
L 500 4441 
Q 881 4594 1212 4672 
Q 1544 4750 1819 4750 
Q 2544 4750 2975 4387 
Q 3406 4025 3406 3419 
Q 3406 3131 3298 2873 
Q 3191 2616 2906 2266 
Q 2828 2175 2409 1742 
Q 1991 1309 1228 531 
z
" transform="scale(0.015625)"/>
       </defs>
       <use xlink:href="#DejaVuSans-32"/>
       <use xlink:href="#DejaVuSans-30" transform="translate(63.623047 0)"/>
       <use xlink:href="#DejaVuSans-30" transform="translate(127.246094 0)"/>
      </g>
     </g>
    </g>
    <g id="xtick_3">
     <g id="line2d_3">
      <path d="M 495.698993 609.894375 
L 495.698993 54.554375 
" clip-path="url(#p6f2cb858ad)" style="fill: none; stroke: #cccccc; stroke-opacity: 0.3; stroke-width: 1.5; stroke-linecap: round"/>
     </g>
     <g id="text_3">
      <!-- 400 -->
      <g style="fill: #262626" transform="translate(465.158993 646.709375) scale(0.32 -0.32)">
       <defs>
        <path id="DejaVuSans-34" d="M 2419 4116 
L 825 1625 
L 2419 1625 
L 2419 4116 
z
M 2253 4666 
L 3047 4666 
L 3047 1625 
L 3713 1625 
L 3713 1100 
L 3047 1100 
L 3047 0 
L 2419 0 
L 2419 1100 
L 313 1100 
L 313 1709 
L 2253 4666 
z
" transform="scale(0.015625)"/>
       </defs>
       <use xlink:href="#DejaVuSans-34"/>
       <use xlink:href="#DejaVuSans-30" transform="translate(63.623047 0)"/>
       <use xlink:href="#DejaVuSans-30" transform="translate(127.246094 0)"/>
      </g>
     </g>
    </g>
    <g id="xtick_4">
     <g id="line2d_4">
      <path d="M 664.960155 609.894375 
L 664.960155 54.554375 
" clip-path="url(#p6f2cb858ad)" style="fill: none; stroke: #cccccc; stroke-opacity: 0.3; stroke-width: 1.5; stroke-linecap: round"/>
     </g>
     <g id="text_4">
      <!-- 600 -->
      <g style="fill: #262626" transform="translate(634.420155 646.709375) scale(0.32 -0.32)">
       <defs>
        <path id="DejaVuSans-36" d="M 2113 2584 
Q 1688 2584 1439 2293 
Q 1191 2003 1191 1497 
Q 1191 994 1439 701 
Q 1688 409 2113 409 
Q 2538 409 2786 701 
Q 3034 994 3034 1497 
Q 3034 2003 2786 2293 
Q 2538 2584 2113 2584 
z
M 3366 4563 
L 3366 3988 
Q 3128 4100 2886 4159 
Q 2644 4219 2406 4219 
Q 1781 4219 1451 3797 
Q 1122 3375 1075 2522 
Q 1259 2794 1537 2939 
Q 1816 3084 2150 3084 
Q 2853 3084 3261 2657 
Q 3669 2231 3669 1497 
Q 3669 778 3244 343 
Q 2819 -91 2113 -91 
Q 1303 -91 875 529 
Q 447 1150 447 2328 
Q 447 3434 972 4092 
Q 1497 4750 2381 4750 
Q 2619 4750 2861 4703 
Q 3103 4656 3366 4563 
z
" transform="scale(0.015625)"/>
       </defs>
       <use xlink:href="#DejaVuSans-36"/>
       <use xlink:href="#DejaVuSans-30" transform="translate(63.623047 0)"/>
       <use xlink:href="#DejaVuSans-30" transform="translate(127.246094 0)"/>
      </g>
     </g>
    </g>
    <g id="xtick_5">
     <g id="line2d_5">
      <path d="M 834.221317 609.894375 
L 834.221317 54.554375 
" clip-path="url(#p6f2cb858ad)" style="fill: none; stroke: #cccccc; stroke-opacity: 0.3; stroke-width: 1.5; stroke-linecap: round"/>
     </g>
     <g id="text_5">
      <!-- 800 -->
      <g style="fill: #262626" transform="translate(803.681317 646.709375) scale(0.32 -0.32)">
       <defs>
        <path id="DejaVuSans-38" d="M 2034 2216 
Q 1584 2216 1326 1975 
Q 1069 1734 1069 1313 
Q 1069 891 1326 650 
Q 1584 409 2034 409 
Q 2484 409 2743 651 
Q 3003 894 3003 1313 
Q 3003 1734 2745 1975 
Q 2488 2216 2034 2216 
z
M 1403 2484 
Q 997 2584 770 2862 
Q 544 3141 544 3541 
Q 544 4100 942 4425 
Q 1341 4750 2034 4750 
Q 2731 4750 3128 4425 
Q 3525 4100 3525 3541 
Q 3525 3141 3298 2862 
Q 3072 2584 2669 2484 
Q 3125 2378 3379 2068 
Q 3634 1759 3634 1313 
Q 3634 634 3220 271 
Q 2806 -91 2034 -91 
Q 1263 -91 848 271 
Q 434 634 434 1313 
Q 434 1759 690 2068 
Q 947 2378 1403 2484 
z
M 1172 3481 
Q 1172 3119 1398 2916 
Q 1625 2713 2034 2713 
Q 2441 2713 2670 2916 
Q 2900 3119 2900 3481 
Q 2900 3844 2670 4047 
Q 2441 4250 2034 4250 
Q 1625 4250 1398 4047 
Q 1172 3844 1172 3481 
z
" transform="scale(0.015625)"/>
       </defs>
       <use xlink:href="#DejaVuSans-38"/>
       <use xlink:href="#DejaVuSans-30" transform="translate(63.623047 0)"/>
       <use xlink:href="#DejaVuSans-30" transform="translate(127.246094 0)"/>
      </g>
     </g>
    </g>
    <g id="xtick_6">
     <g id="line2d_6">
      <path d="M 1003.482479 609.894375 
L 1003.482479 54.554375 
" clip-path="url(#p6f2cb858ad)" style="fill: none; stroke: #cccccc; stroke-opacity: 0.3; stroke-width: 1.5; stroke-linecap: round"/>
     </g>
     <g id="text_6">
      <!-- 1000 -->
      <g style="fill: #262626" transform="translate(962.762479 646.709375) scale(0.32 -0.32)">
       <defs>
        <path id="DejaVuSans-31" d="M 794 531 
L 1825 531 
L 1825 4091 
L 703 3866 
L 703 4441 
L 1819 4666 
L 2450 4666 
L 2450 531 
L 3481 531 
L 3481 0 
L 794 0 
L 794 531 
z
" transform="scale(0.015625)"/>
       </defs>
       <use xlink:href="#DejaVuSans-31"/>
       <use xlink:href="#DejaVuSans-30" transform="translate(63.623047 0)"/>
       <use xlink:href="#DejaVuSans-30" transform="translate(127.246094 0)"/>
       <use xlink:href="#DejaVuSans-30" transform="translate(190.869141 0)"/>
      </g>
     </g>
    </g>
    <g id="text_7">
     <!-- Epoch -->
     <g style="fill: #262626" transform="translate(531.757727 681.679375) scale(0.32 -0.32)">
      <defs>
       <path id="DejaVuSans-45" d="M 628 4666 
L 3578 4666 
L 3578 4134 
L 1259 4134 
L 1259 2753 
L 3481 2753 
L 3481 2222 
L 1259 2222 
L 1259 531 
L 3634 531 
L 3634 0 
L 628 0 
L 628 4666 
z
" transform="scale(0.015625)"/>
       <path id="DejaVuSans-70" d="M 1159 525 
L 1159 -1331 
L 581 -1331 
L 581 3500 
L 1159 3500 
L 1159 2969 
Q 1341 3281 1617 3432 
Q 1894 3584 2278 3584 
Q 2916 3584 3314 3078 
Q 3713 2572 3713 1747 
Q 3713 922 3314 415 
Q 2916 -91 2278 -91 
Q 1894 -91 1617 61 
Q 1341 213 1159 525 
z
M 3116 1747 
Q 3116 2381 2855 2742 
Q 2594 3103 2138 3103 
Q 1681 3103 1420 2742 
Q 1159 2381 1159 1747 
Q 1159 1113 1420 752 
Q 1681 391 2138 391 
Q 2594 391 2855 752 
Q 3116 1113 3116 1747 
z
" transform="scale(0.015625)"/>
       <path id="DejaVuSans-6f" d="M 1959 3097 
Q 1497 3097 1228 2736 
Q 959 2375 959 1747 
Q 959 1119 1226 758 
Q 1494 397 1959 397 
Q 2419 397 2687 759 
Q 2956 1122 2956 1747 
Q 2956 2369 2687 2733 
Q 2419 3097 1959 3097 
z
M 1959 3584 
Q 2709 3584 3137 3096 
Q 3566 2609 3566 1747 
Q 3566 888 3137 398 
Q 2709 -91 1959 -91 
Q 1206 -91 779 398 
Q 353 888 353 1747 
Q 353 2609 779 3096 
Q 1206 3584 1959 3584 
z
" transform="scale(0.015625)"/>
       <path id="DejaVuSans-63" d="M 3122 3366 
L 3122 2828 
Q 2878 2963 2633 3030 
Q 2388 3097 2138 3097 
Q 1578 3097 1268 2742 
Q 959 2388 959 1747 
Q 959 1106 1268 751 
Q 1578 397 2138 397 
Q 2388 397 2633 464 
Q 2878 531 3122 666 
L 3122 134 
Q 2881 22 2623 -34 
Q 2366 -91 2075 -91 
Q 1284 -91 818 406 
Q 353 903 353 1747 
Q 353 2603 823 3093 
Q 1294 3584 2113 3584 
Q 2378 3584 2631 3529 
Q 2884 3475 3122 3366 
z
" transform="scale(0.015625)"/>
       <path id="DejaVuSans-68" d="M 3513 2113 
L 3513 0 
L 2938 0 
L 2938 2094 
Q 2938 2591 2744 2837 
Q 2550 3084 2163 3084 
Q 1697 3084 1428 2787 
Q 1159 2491 1159 1978 
L 1159 0 
L 581 0 
L 581 4863 
L 1159 4863 
L 1159 2956 
Q 1366 3272 1645 3428 
Q 1925 3584 2291 3584 
Q 2894 3584 3203 3211 
Q 3513 2838 3513 2113 
z
" transform="scale(0.015625)"/>
      </defs>
      <use xlink:href="#DejaVuSans-45"/>
      <use xlink:href="#DejaVuSans-70" transform="translate(63.183594 0)"/>
      <use xlink:href="#DejaVuSans-6f" transform="translate(126.660156 0)"/>
      <use xlink:href="#DejaVuSans-63" transform="translate(187.841797 0)"/>
      <use xlink:href="#DejaVuSans-68" transform="translate(242.822266 0)"/>
     </g>
    </g>
   </g>
   <g id="matplotlib.axis_2">
    <g id="ytick_1">
     <g id="line2d_7">
      <path d="M 115.75 588.317521 
L 1045.755455 588.317521 
" clip-path="url(#p6f2cb858ad)" style="fill: none; stroke: #cccccc; stroke-opacity: 0.3; stroke-width: 1.5; stroke-linecap: round"/>
     </g>
     <g id="text_8">
      <!-- 0 -->
      <g style="fill: #262626" transform="translate(82.89 600.475021) scale(0.32 -0.32)">
       <use xlink:href="#DejaVuSans-30"/>
      </g>
     </g>
    </g>
    <g id="ytick_2">
     <g id="line2d_8">
      <path d="M 115.75 486.549686 
L 1045.755455 486.549686 
" clip-path="url(#p6f2cb858ad)" style="fill: none; stroke: #cccccc; stroke-opacity: 0.3; stroke-width: 1.5; stroke-linecap: round"/>
     </g>
     <g id="text_9">
      <!-- 20 -->
      <g style="fill: #262626" transform="translate(62.53 498.707186) scale(0.32 -0.32)">
       <use xlink:href="#DejaVuSans-32"/>
       <use xlink:href="#DejaVuSans-30" transform="translate(63.623047 0)"/>
      </g>
     </g>
    </g>
    <g id="ytick_3">
     <g id="line2d_9">
      <path d="M 115.75 384.78185 
L 1045.755455 384.78185 
" clip-path="url(#p6f2cb858ad)" style="fill: none; stroke: #cccccc; stroke-opacity: 0.3; stroke-width: 1.5; stroke-linecap: round"/>
     </g>
     <g id="text_10">
      <!-- 40 -->
      <g style="fill: #262626" transform="translate(62.53 396.93935) scale(0.32 -0.32)">
       <use xlink:href="#DejaVuSans-34"/>
       <use xlink:href="#DejaVuSans-30" transform="translate(63.623047 0)"/>
      </g>
     </g>
    </g>
    <g id="ytick_4">
     <g id="line2d_10">
      <path d="M 115.75 283.014014 
L 1045.755455 283.014014 
" clip-path="url(#p6f2cb858ad)" style="fill: none; stroke: #cccccc; stroke-opacity: 0.3; stroke-width: 1.5; stroke-linecap: round"/>
     </g>
     <g id="text_11">
      <!-- 60 -->
      <g style="fill: #262626" transform="translate(62.53 295.171514) scale(0.32 -0.32)">
       <use xlink:href="#DejaVuSans-36"/>
       <use xlink:href="#DejaVuSans-30" transform="translate(63.623047 0)"/>
      </g>
     </g>
    </g>
    <g id="ytick_5">
     <g id="line2d_11">
      <path d="M 115.75 181.246178 
L 1045.755455 181.246178 
" clip-path="url(#p6f2cb858ad)" style="fill: none; stroke: #cccccc; stroke-opacity: 0.3; stroke-width: 1.5; stroke-linecap: round"/>
     </g>
     <g id="text_12">
      <!-- 80 -->
      <g style="fill: #262626" transform="translate(62.53 193.403678) scale(0.32 -0.32)">
       <use xlink:href="#DejaVuSans-38"/>
       <use xlink:href="#DejaVuSans-30" transform="translate(63.623047 0)"/>
      </g>
     </g>
    </g>
    <g id="ytick_6">
     <g id="line2d_12">
      <path d="M 115.75 79.478343 
L 1045.755455 79.478343 
" clip-path="url(#p6f2cb858ad)" style="fill: none; stroke: #cccccc; stroke-opacity: 0.3; stroke-width: 1.5; stroke-linecap: round"/>
     </g>
     <g id="text_13">
      <!-- 100 -->
      <g style="fill: #262626" transform="translate(42.17 91.635843) scale(0.32 -0.32)">
       <use xlink:href="#DejaVuSans-31"/>
       <use xlink:href="#DejaVuSans-30" transform="translate(63.623047 0)"/>
       <use xlink:href="#DejaVuSans-30" transform="translate(127.246094 0)"/>
      </g>
     </g>
    </g>
    <g id="text_14">
     <!-- Accuracy (%) -->
     <g style="fill: #262626" transform="translate(31.515 438.046875) rotate(-90) scale(0.32 -0.32)">
      <defs>
       <path id="DejaVuSans-41" d="M 2188 4044 
L 1331 1722 
L 3047 1722 
L 2188 4044 
z
M 1831 4666 
L 2547 4666 
L 4325 0 
L 3669 0 
L 3244 1197 
L 1141 1197 
L 716 0 
L 50 0 
L 1831 4666 
z
" transform="scale(0.015625)"/>
       <path id="DejaVuSans-75" d="M 544 1381 
L 544 3500 
L 1119 3500 
L 1119 1403 
Q 1119 906 1312 657 
Q 1506 409 1894 409 
Q 2359 409 2629 706 
Q 2900 1003 2900 1516 
L 2900 3500 
L 3475 3500 
L 3475 0 
L 2900 0 
L 2900 538 
Q 2691 219 2414 64 
Q 2138 -91 1772 -91 
Q 1169 -91 856 284 
Q 544 659 544 1381 
z
M 1991 3584 
L 1991 3584 
z
" transform="scale(0.015625)"/>
       <path id="DejaVuSans-72" d="M 2631 2963 
Q 2534 3019 2420 3045 
Q 2306 3072 2169 3072 
Q 1681 3072 1420 2755 
Q 1159 2438 1159 1844 
L 1159 0 
L 581 0 
L 581 3500 
L 1159 3500 
L 1159 2956 
Q 1341 3275 1631 3429 
Q 1922 3584 2338 3584 
Q 2397 3584 2469 3576 
Q 2541 3569 2628 3553 
L 2631 2963 
z
" transform="scale(0.015625)"/>
       <path id="DejaVuSans-61" d="M 2194 1759 
Q 1497 1759 1228 1600 
Q 959 1441 959 1056 
Q 959 750 1161 570 
Q 1363 391 1709 391 
Q 2188 391 2477 730 
Q 2766 1069 2766 1631 
L 2766 1759 
L 2194 1759 
z
M 3341 1997 
L 3341 0 
L 2766 0 
L 2766 531 
Q 2569 213 2275 61 
Q 1981 -91 1556 -91 
Q 1019 -91 701 211 
Q 384 513 384 1019 
Q 384 1609 779 1909 
Q 1175 2209 1959 2209 
L 2766 2209 
L 2766 2266 
Q 2766 2663 2505 2880 
Q 2244 3097 1772 3097 
Q 1472 3097 1187 3025 
Q 903 2953 641 2809 
L 641 3341 
Q 956 3463 1253 3523 
Q 1550 3584 1831 3584 
Q 2591 3584 2966 3190 
Q 3341 2797 3341 1997 
z
" transform="scale(0.015625)"/>
       <path id="DejaVuSans-79" d="M 2059 -325 
Q 1816 -950 1584 -1140 
Q 1353 -1331 966 -1331 
L 506 -1331 
L 506 -850 
L 844 -850 
Q 1081 -850 1212 -737 
Q 1344 -625 1503 -206 
L 1606 56 
L 191 3500 
L 800 3500 
L 1894 763 
L 2988 3500 
L 3597 3500 
L 2059 -325 
z
" transform="scale(0.015625)"/>
       <path id="DejaVuSans-20" transform="scale(0.015625)"/>
       <path id="DejaVuSans-28" d="M 1984 4856 
Q 1566 4138 1362 3434 
Q 1159 2731 1159 2009 
Q 1159 1288 1364 580 
Q 1569 -128 1984 -844 
L 1484 -844 
Q 1016 -109 783 600 
Q 550 1309 550 2009 
Q 550 2706 781 3412 
Q 1013 4119 1484 4856 
L 1984 4856 
z
" transform="scale(0.015625)"/>
       <path id="DejaVuSans-25" d="M 4653 2053 
Q 4381 2053 4226 1822 
Q 4072 1591 4072 1178 
Q 4072 772 4226 539 
Q 4381 306 4653 306 
Q 4919 306 5073 539 
Q 5228 772 5228 1178 
Q 5228 1588 5073 1820 
Q 4919 2053 4653 2053 
z
M 4653 2450 
Q 5147 2450 5437 2106 
Q 5728 1763 5728 1178 
Q 5728 594 5436 251 
Q 5144 -91 4653 -91 
Q 4153 -91 3862 251 
Q 3572 594 3572 1178 
Q 3572 1766 3864 2108 
Q 4156 2450 4653 2450 
z
M 1428 4353 
Q 1159 4353 1004 4120 
Q 850 3888 850 3481 
Q 850 3069 1003 2837 
Q 1156 2606 1428 2606 
Q 1700 2606 1854 2837 
Q 2009 3069 2009 3481 
Q 2009 3884 1853 4118 
Q 1697 4353 1428 4353 
z
M 4250 4750 
L 4750 4750 
L 1831 -91 
L 1331 -91 
L 4250 4750 
z
M 1428 4750 
Q 1922 4750 2215 4408 
Q 2509 4066 2509 3481 
Q 2509 2891 2217 2550 
Q 1925 2209 1428 2209 
Q 931 2209 642 2551 
Q 353 2894 353 3481 
Q 353 4063 643 4406 
Q 934 4750 1428 4750 
z
" transform="scale(0.015625)"/>
       <path id="DejaVuSans-29" d="M 513 4856 
L 1013 4856 
Q 1481 4119 1714 3412 
Q 1947 2706 1947 2009 
Q 1947 1309 1714 600 
Q 1481 -109 1013 -844 
L 513 -844 
Q 928 -128 1133 580 
Q 1338 1288 1338 2009 
Q 1338 2731 1133 3434 
Q 928 4138 513 4856 
z
" transform="scale(0.015625)"/>
      </defs>
      <use xlink:href="#DejaVuSans-41"/>
      <use xlink:href="#DejaVuSans-63" transform="translate(66.658203 0)"/>
      <use xlink:href="#DejaVuSans-63" transform="translate(121.638672 0)"/>
      <use xlink:href="#DejaVuSans-75" transform="translate(176.619141 0)"/>
      <use xlink:href="#DejaVuSans-72" transform="translate(239.998047 0)"/>
      <use xlink:href="#DejaVuSans-61" transform="translate(281.111328 0)"/>
      <use xlink:href="#DejaVuSans-63" transform="translate(342.390625 0)"/>
      <use xlink:href="#DejaVuSans-79" transform="translate(397.371094 0)"/>
      <use xlink:href="#DejaVuSans-20" transform="translate(456.550781 0)"/>
      <use xlink:href="#DejaVuSans-28" transform="translate(488.337891 0)"/>
      <use xlink:href="#DejaVuSans-25" transform="translate(527.351562 0)"/>
      <use xlink:href="#DejaVuSans-29" transform="translate(622.371094 0)"/>
     </g>
    </g>
   </g>
   <g id="FillBetweenPolyCollection_1"/>
   <g id="FillBetweenPolyCollection_2"/>
   <g id="line2d_13">
    <path d="M 158.022975 583.85402 
L 158.869281 583.375787 
L 159.715587 583.296082 
L 160.561893 582.977261 
L 161.408198 579.86875 
L 162.254504 578.832581 
L 163.10081 580.187572 
L 164.793422 574.847311 
L 165.639727 567.833238 
L 166.486033 564.246496 
L 167.332339 551.174813 
L 168.178645 547.109839 
L 169.024951 528.618188 
L 169.871257 519.452066 
L 170.717562 526.864669 
L 171.563868 510.445361 
L 172.410174 502.235708 
L 173.25648 496.098394 
L 174.102786 514.590041 
L 174.949091 487.011977 
L 175.795397 481.352893 
L 176.641703 476.650278 
L 177.488009 487.569912 
L 178.334315 476.251753 
L 179.18062 467.245041 
L 180.026926 463.578592 
L 180.873232 470.034726 
L 182.565844 454.412469 
L 183.41215 460.230971 
L 184.258455 440.623445 
L 185.104761 444.289894 
L 185.951067 444.608714 
L 187.643679 434.964354 
L 188.489984 422.928841 
L 189.33629 447.717228 
L 190.182596 426.356175 
L 191.028902 424.841778 
L 191.875208 417.03065 
L 192.721513 420.856509 
L 193.567819 437.833752 
L 194.414125 435.92083 
L 195.260431 405.234252 
L 196.106737 413.204791 
L 196.953042 401.089573 
L 197.799348 404.038676 
L 198.645654 410.016573 
L 199.49196 384.11233 
L 200.338266 405.234252 
L 202.030877 376.699727 
L 203.723489 389.691701 
L 204.569795 404.357497 
L 205.416101 366.258316 
L 206.262406 377.975009 
L 207.108712 385.547022 
L 207.955018 371.359457 
L 208.801324 370.721816 
L 209.64763 381.083522 
L 210.493935 372.395638 
L 211.340241 367.214777 
L 212.186547 356.215446 
L 213.032853 363.707738 
L 213.879159 339.317893 
L 214.725464 363.229508 
L 215.57177 355.657495 
L 216.418076 332.622651 
L 217.264382 367.932138 
L 218.110688 361.077471 
L 218.956994 325.449163 
L 219.803299 334.057342 
L 220.649605 363.707738 
L 221.495911 346.33197 
L 222.342217 322.73919 
L 224.034828 351.512816 
L 224.881134 338.042611 
L 225.72744 313.094815 
L 226.573746 353.983688 
L 227.420052 333.339996 
L 228.266357 286.234111 
L 229.112663 363.468623 
L 229.958969 361.794816 
L 230.805275 364.185984 
L 231.651581 375.504136 
L 232.497886 357.570432 
L 233.344192 309.189266 
L 234.190498 277.705637 
L 235.036804 300.899907 
L 235.88311 316.043933 
L 236.729416 282.408268 
L 237.575721 332.463241 
L 238.422027 319.550957 
L 239.268333 316.522164 
L 240.114639 302.494009 
L 240.960945 314.210716 
L 241.80725 305.044571 
L 242.653556 304.167815 
L 243.499862 327.12297 
L 244.346168 299.2261 
L 246.038779 277.227407 
L 246.885085 302.175188 
L 247.731391 283.364729 
L 249.424003 315.804818 
L 251.116614 269.575689 
L 251.96292 316.362753 
L 252.809226 260.170459 
L 253.655532 291.255562 
L 254.501838 248.533456 
L 255.348143 331.905305 
L 256.194449 298.58846 
L 257.040755 246.540829 
L 257.887061 283.603844 
L 258.733367 331.66619 
L 259.579672 303.76929 
L 260.425978 266.228045 
L 261.272284 298.58846 
L 262.11859 279.857675 
L 262.964896 281.292366 
L 263.811201 262.721022 
L 264.657507 310.623957 
L 265.503813 289.103494 
L 266.350119 256.344585 
L 267.196425 252.996971 
L 268.04273 264.633944 
L 268.889036 240.244098 
L 269.735342 285.676176 
L 270.581648 286.473227 
L 271.427954 247.656701 
L 272.27426 257.460456 
L 273.120565 182.776522 
L 273.966871 267.981587 
L 274.813177 367.852433 
L 275.659483 282.806793 
L 276.505789 236.816779 
L 277.352094 213.78192 
L 278.1984 226.773909 
L 279.044706 221.752458 
L 279.891012 280.017085 
L 280.737318 296.675507 
L 281.583623 244.309087 
L 282.429929 233.548841 
L 283.276235 214.499266 
L 284.122541 297.392853 
L 284.968847 229.404176 
L 285.815153 242.31643 
L 286.661458 273.321828 
L 288.35407 255.149009 
L 289.200376 234.983562 
L 290.046682 285.197945 
L 290.892987 271.249496 
L 291.739293 226.853614 
L 292.585599 302.573714 
L 293.431905 255.069303 
L 294.278211 201.108751 
L 295.124516 210.513981 
L 295.970822 175.284214 
L 296.817128 289.900545 
L 297.663434 289.183199 
L 298.50974 202.384033 
L 299.356045 216.810713 
L 300.202351 273.082712 
L 301.048657 245.185843 
L 301.894963 245.424958 
L 302.741269 197.442318 
L 303.587575 213.62251 
L 304.43388 255.786649 
L 305.280186 245.345253 
L 306.126492 194.81205 
L 306.972798 306.638703 
L 307.819104 223.107445 
L 308.665409 168.190431 
L 309.511715 181.341831 
L 310.358021 265.271584 
L 311.204327 214.897791 
L 312.050633 236.737074 
L 312.896938 183.175047 
L 313.743244 264.793354 
L 314.58955 291.574382 
L 315.435856 218.564225 
L 316.282162 155.756408 
L 317.128467 140.213857 
L 317.974773 222.868329 
L 318.821079 285.676176 
L 319.667385 207.564893 
L 320.513691 153.604341 
L 321.359997 195.051165 
L 322.206302 163.726947 
L 323.052608 212.187818 
L 323.898914 185.008264 
L 324.74522 296.994328 
L 325.591526 228.766536 
L 326.437831 190.507945 
L 327.284137 178.392712 
L 328.130443 210.912537 
L 328.976749 228.2086 
L 329.823055 193.935264 
L 330.66936 178.552122 
L 331.515666 323.376831 
L 332.361972 243.910562 
L 333.208278 179.668024 
L 334.054584 198.956714 
L 334.900889 233.38943 
L 336.593501 140.293562 
L 337.439807 144.916457 
L 338.286113 288.147033 
L 339.132419 280.814136 
L 339.978724 231.476508 
L 340.82503 169.943943 
L 341.671336 135.511227 
L 342.517642 155.676703 
L 343.363948 164.922523 
L 344.210253 220.716292 
L 345.056559 358.606598 
L 345.902865 227.88978 
L 346.749171 173.211882 
L 347.595477 179.110088 
L 348.441782 210.274866 
L 349.288088 324.014472 
L 350.134394 279.618559 
L 350.9807 193.297623 
L 351.827006 176.559495 
L 352.673311 150.017612 
L 353.519617 134.156241 
L 354.365923 129.373905 
L 355.212229 152.48847 
L 356.058535 315.326587 
L 356.904841 298.668165 
L 357.751146 248.214636 
L 358.597452 182.617112 
L 359.443758 136.387983 
L 360.290064 122.519238 
L 361.13637 148.503216 
L 361.982675 163.328422 
L 362.828981 370.721816 
L 364.521593 217.528059 
L 366.214204 141.329728 
L 367.06051 116.063126 
L 367.906816 185.008264 
L 368.753122 311.022483 
L 370.445734 182.696817 
L 372.138345 130.011546 
L 372.984651 114.628405 
L 373.830957 338.202022 
L 374.677263 335.412329 
L 375.523568 229.404176 
L 376.369874 165.161638 
L 377.21618 127.620394 
L 378.062486 111.679317 
L 378.908792 109.925805 
L 379.755097 115.345781 
L 380.601403 214.738381 
L 381.447709 370.16388 
L 382.294015 242.794691 
L 383.140321 174.885689 
L 383.986626 139.815332 
L 384.832932 115.266076 
L 385.679238 111.121381 
L 386.525544 109.288164 
L 387.37185 264.793354 
L 388.218156 378.851765 
L 389.064461 230.201227 
L 389.910767 153.843456 
L 390.757073 107.933178 
L 391.603379 101.716151 
L 392.449685 106.976687 
L 393.29599 100.201755 
L 394.142296 147.865575 
L 394.988602 340.832304 
L 395.834908 250.127558 
L 396.681214 185.5662 
L 397.527519 130.489776 
L 400.066437 109.925805 
L 401.759048 358.925418 
L 402.605354 230.838868 
L 403.45166 196.724972 
L 404.297966 154.082571 
L 405.144272 140.931203 
L 405.990578 116.621062 
L 406.836883 103.629073 
L 407.683189 112.316957 
L 408.529495 125.069831 
L 409.375801 357.490727 
L 410.222107 234.106776 
L 411.068412 176.00156 
L 411.914718 131.207153 
L 412.761024 109.049049 
L 413.60733 109.766395 
L 414.453636 118.533984 
L 415.299941 339.557008 
L 416.992553 181.501241 
L 417.838859 142.684715 
L 418.685165 111.121381 
L 419.53147 101.556741 
L 420.377776 97.571457 
L 421.224082 243.272921 
L 422.070388 298.508755 
L 422.916694 203.978165 
L 423.763 134.475061 
L 425.455611 105.6217 
L 426.301917 95.89765 
L 427.148223 102.832022 
L 427.994529 291.255562 
L 428.840834 271.329201 
L 429.68714 191.703521 
L 430.533446 148.901741 
L 431.379752 117.577523 
L 432.226058 114.150174 
L 433.072363 105.46229 
L 433.918669 103.549368 
L 434.764975 112.237252 
L 435.611281 347.208726 
L 436.457587 335.492034 
L 438.150198 159.183727 
L 438.996504 121.243957 
L 439.84281 102.433497 
L 441.535422 91.832691 
L 442.381727 113.990764 
L 443.228033 140.532677 
L 444.074339 316.840984 
L 445.766951 157.66933 
L 446.613256 112.237252 
L 447.459562 110.244625 
L 448.305868 106.020226 
L 449.152174 311.022483 
L 449.99848 290.13966 
L 450.844785 209.796635 
L 451.691091 193.058508 
L 452.537397 186.602366 
L 453.383703 159.582252 
L 454.230009 183.015637 
L 455.076314 191.304996 
L 455.92262 168.509252 
L 456.768926 119.012214 
L 457.615232 103.549368 
L 458.461538 101.317626 
L 459.307844 104.505829 
L 460.154149 275.5536 
L 461.000455 381.402342 
L 462.693067 149.539382 
L 463.539373 106.657866 
L 464.385678 98.687328 
L 465.231984 95.817945 
L 466.07829 91.115315 
L 466.924596 92.390626 
L 467.770902 93.347087 
L 468.617207 311.261598 
L 471.156125 120.845431 
L 472.002431 95.817945 
L 472.848737 99.643819 
L 473.695042 92.629742 
L 474.541348 201.507277 
L 475.387654 273.481238 
L 476.23396 231.875034 
L 477.080266 211.151652 
L 477.926571 152.010239 
L 478.772877 118.773099 
L 479.619183 114.389289 
L 480.465489 106.339046 
L 481.311795 102.274087 
L 482.1581 95.57883 
L 483.004406 243.352626 
L 483.850712 295.798752 
L 484.697018 199.83347 
L 485.543324 131.765088 
L 486.389629 98.687328 
L 487.235935 95.977355 
L 488.082241 97.172931 
L 488.928547 93.905023 
L 489.774853 107.853473 
L 490.621159 354.860444 
L 491.467464 259.134293 
L 492.31377 197.282907 
L 493.160076 126.026292 
L 494.006382 96.37588 
L 494.852688 89.202393 
L 495.698993 92.390626 
L 496.545299 94.223843 
L 497.391605 97.252636 
L 498.237911 225.100072 
L 499.084217 388.814945 
L 500.776828 177.515956 
L 501.623134 120.765726 
L 502.46944 97.172931 
L 503.315746 91.19502 
L 504.162051 89.600918 
L 505.008357 93.107972 
L 505.854663 97.651162 
L 506.700969 104.266714 
L 507.547275 98.209097 
L 508.393581 335.252918 
L 509.239886 295.161111 
L 510.086192 178.392712 
L 510.932498 128.65656 
L 511.778804 104.665239 
L 512.62511 95.180304 
L 513.471415 92.470331 
L 514.317721 87.528586 
L 515.164027 88.166227 
L 516.010333 148.10469 
L 516.856639 340.593189 
L 517.702944 205.811381 
L 518.54925 128.018919 
L 519.395556 97.651162 
L 520.241862 89.680623 
L 521.088168 90.8762 
L 521.934473 89.361803 
L 522.780779 184.290919 
L 523.627085 409.458637 
L 524.473391 300.501382 
L 525.319697 222.150984 
L 526.166003 122.200418 
L 527.012308 98.448213 
L 527.858614 91.03561 
L 528.70492 89.361803 
L 529.551226 92.310921 
L 530.397532 93.825318 
L 531.243837 100.520575 
L 532.090143 128.895675 
L 532.936449 323.297126 
L 534.629061 135.112702 
L 535.475366 97.412047 
L 536.321672 87.767701 
L 537.167978 87.448881 
L 538.014284 113.353123 
L 538.86059 337.723791 
L 539.706895 212.586344 
L 540.553201 130.728892 
L 541.399507 96.694701 
L 542.245813 88.724162 
L 543.092119 90.716789 
L 543.938425 138.779135 
L 544.78473 142.286189 
L 545.631036 216.731008 
L 546.477342 152.886995 
L 547.323648 133.917125 
L 548.169954 124.990126 
L 549.016259 121.562777 
L 549.862565 98.926443 
L 550.708871 94.542664 
L 551.555177 104.027599 
L 552.401483 317.080099 
L 553.247788 359.005123 
L 554.094094 222.390099 
L 554.9404 142.365894 
L 555.786706 99.006148 
L 556.633012 89.282098 
L 557.479317 85.775074 
L 558.325623 86.253305 
L 560.018235 87.608291 
L 560.864541 89.202393 
L 562.557152 403.0822 
L 563.403458 291.733792 
L 564.249764 196.326446 
L 565.09607 114.787815 
L 565.942376 96.37588 
L 567.634987 89.680623 
L 568.481293 86.731535 
L 569.327599 87.608291 
L 570.173905 90.8762 
L 571.02021 86.890945 
L 571.866516 87.767701 
L 572.712822 293.646714 
L 573.559128 350.396944 
L 574.405434 219.520716 
L 575.25174 124.511895 
L 576.098045 93.825318 
L 576.944351 87.289471 
L 577.790657 88.325637 
L 578.636963 89.042983 
L 579.483269 88.405342 
L 580.329574 92.071806 
L 581.17588 99.882934 
L 582.022186 392.481394 
L 582.868492 273.800058 
L 583.714798 171.378665 
L 584.561103 108.331703 
L 585.407409 93.665908 
L 586.253715 88.006817 
L 587.100021 84.579498 
L 588.792632 86.65183 
L 589.638938 109.925805 
L 590.485244 321.862404 
L 591.33155 218.085994 
L 592.177856 155.437588 
L 593.024162 184.290919 
L 593.870467 162.53134 
L 594.716773 172.255421 
L 595.563079 159.104022 
L 596.409385 115.18634 
L 597.255691 144.199111 
L 598.101996 216.810713 
L 598.948302 209.318405 
L 599.794608 143.003535 
L 600.640914 104.187009 
L 601.48722 97.890277 
L 602.333525 87.369176 
L 603.179831 86.253305 
L 604.026137 85.535959 
L 604.872443 86.01419 
L 605.718749 86.890945 
L 606.565054 114.86752 
L 607.41136 449.072214 
L 608.257666 287.828213 
L 609.103972 152.64788 
L 609.950278 97.332341 
L 610.796584 86.81124 
L 611.642889 86.253305 
L 613.335501 84.260678 
L 614.181807 88.724162 
L 615.028113 94.223843 
L 615.874418 90.955905 
L 616.720724 88.405342 
L 617.56703 92.868857 
L 618.413336 379.170585 
L 619.259642 318.913316 
L 620.105947 190.029715 
L 620.952253 111.360496 
L 621.798559 94.702074 
L 622.644865 88.325637 
L 624.337476 88.006817 
L 625.183782 85.775074 
L 626.030088 87.528586 
L 626.876394 87.608291 
L 627.7227 87.369176 
L 628.569006 254.750483 
L 629.415311 336.847035 
L 630.261617 215.216611 
L 631.107923 123.95396 
L 631.954229 93.745613 
L 632.800535 85.934485 
L 634.493146 84.340383 
L 635.339452 87.209766 
L 636.185758 87.289471 
L 637.032064 85.137434 
L 637.878369 269.416279 
L 638.724675 272.046546 
L 639.570981 160.219893 
L 640.417287 113.512534 
L 641.263593 91.513871 
L 642.109898 86.970651 
L 642.956204 86.49242 
L 643.80251 85.535959 
L 644.648816 85.934485 
L 645.495122 87.687996 
L 646.341428 247.01906 
L 647.187733 333.499407 
L 648.034039 173.610407 
L 648.880345 107.215802 
L 649.726651 88.485047 
L 650.572957 85.695369 
L 651.419262 83.782447 
L 652.265568 83.543332 
L 653.111874 83.463627 
L 653.95818 84.898318 
L 654.804486 119.331035 
L 655.650791 352.628702 
L 656.497097 190.42824 
L 657.343403 119.968675 
L 658.189709 93.825318 
L 659.036015 86.572125 
L 659.882321 84.818613 
L 660.728626 83.782447 
L 661.574932 83.782447 
L 662.421238 85.854779 
L 663.267544 84.898318 
L 664.11385 85.217139 
L 664.960155 165.161638 
L 665.806461 413.045381 
L 667.499073 155.596998 
L 668.345379 104.107304 
L 669.191684 89.680623 
L 670.03799 85.695369 
L 670.884296 83.782447 
L 671.730602 84.101268 
L 672.576908 83.224481 
L 673.423213 84.101268 
L 674.269519 85.456254 
L 675.115825 103.708778 
L 675.962131 347.447841 
L 676.808437 201.427572 
L 677.654743 113.990764 
L 678.501048 89.760328 
L 679.347354 83.463627 
L 681.039966 83.304186 
L 681.886272 82.666546 
L 682.732577 82.188315 
L 683.578883 84.021563 
L 685.271495 316.203343 
L 686.117801 170.581584 
L 686.964106 110.643151 
L 687.810412 89.521213 
L 688.656718 86.01419 
L 689.503024 84.180973 
L 690.34933 83.383892 
L 691.195635 82.985366 
L 692.041941 82.985366 
L 692.888247 113.193713 
L 693.734553 370.32329 
L 694.580859 251.801395 
L 695.427165 173.929228 
L 696.27347 109.288164 
L 697.119776 90.318264 
L 697.966082 84.499793 
L 698.812388 83.144776 
L 699.658694 82.347726 
L 700.504999 84.021563 
L 701.351305 83.304186 
L 702.197611 84.898318 
L 703.043917 116.222537 
L 703.890223 400.053407 
L 705.582834 181.580946 
L 706.42914 101.636446 
L 707.275446 88.405342 
L 708.121752 84.818613 
L 708.968057 82.586841 
L 709.814363 83.463627 
L 710.660669 85.456254 
L 711.506975 83.543332 
L 712.353281 82.347726 
L 713.199587 86.731535 
L 714.892198 338.680252 
L 715.738504 213.223984 
L 716.58481 121.801892 
L 717.431116 90.477674 
L 718.277421 85.615664 
L 719.123727 83.623037 
L 719.970033 84.579498 
L 720.816339 86.49242 
L 721.662645 85.854779 
L 722.50895 87.448881 
L 723.355256 156.792575 
L 724.201562 196.645267 
L 725.047868 218.723665 
L 725.894174 151.771124 
L 726.740479 140.771793 
L 727.586785 100.520575 
L 728.433091 87.209766 
L 729.279397 83.224481 
L 730.125703 82.028905 
L 730.972009 81.9492 
L 731.818314 83.144776 
L 732.66462 85.535959 
L 733.510926 153.285521 
L 734.357232 406.589239 
L 736.049843 149.061151 
L 736.896149 97.252636 
L 737.742455 84.659203 
L 738.588761 83.304186 
L 739.435067 83.144776 
L 740.281372 81.550675 
L 741.127678 82.347726 
L 741.973984 82.028905 
L 742.82029 83.463627 
L 743.666596 93.028267 
L 744.512901 349.281073 
L 745.359207 264.394828 
L 746.205513 158.785202 
L 747.051819 103.947893 
L 747.898125 86.253305 
L 748.744431 82.905661 
L 749.590736 82.825956 
L 750.437042 81.78979 
L 751.283348 82.746251 
L 752.129654 88.086522 
L 752.97596 87.050356 
L 753.822265 142.047074 
L 754.668571 365.620676 
L 756.361183 150.894368 
L 757.207489 103.071138 
L 758.053794 88.644457 
L 758.9001 84.021563 
L 759.746406 83.463627 
L 761.439018 83.623037 
L 762.285324 84.659203 
L 763.131629 84.499793 
L 763.977935 86.253305 
L 764.824241 280.734431 
L 765.670547 331.98501 
L 766.516853 206.847547 
L 768.209464 101.556741 
L 769.05577 87.130061 
L 769.902076 84.898318 
L 770.748382 82.188315 
L 771.594687 82.347726 
L 772.440993 82.985366 
L 773.287299 82.825956 
L 774.133605 84.978024 
L 774.979911 89.521213 
L 775.826216 275.872421 
L 776.672522 253.554907 
L 777.518828 152.80729 
L 778.365134 106.418751 
L 779.21144 88.564752 
L 780.057746 85.217139 
L 780.904051 84.101268 
L 781.750357 84.021563 
L 782.596663 83.065071 
L 783.442969 82.427431 
L 784.289275 97.252636 
L 785.13558 320.826238 
L 785.981886 209.637225 
L 786.828192 141.010908 
L 787.674498 93.267382 
L 788.520804 84.818613 
L 789.367109 82.985366 
L 790.213415 84.101268 
L 791.059721 83.224481 
L 791.906027 84.579498 
L 792.752333 83.065071 
L 793.598638 90.955905 
L 794.444944 364.345394 
L 795.29125 230.998278 
L 796.137556 129.692726 
L 796.983862 93.028267 
L 797.830168 82.427431 
L 798.676473 83.144776 
L 800.369085 82.427431 
L 801.215391 81.9492 
L 802.061697 82.507136 
L 802.908002 82.586841 
L 803.754308 89.441508 
L 804.600614 367.932138 
L 805.44692 247.33788 
L 806.293226 155.836114 
L 807.139531 95.57883 
L 807.985837 83.383892 
L 808.832143 82.905661 
L 809.678449 82.586841 
L 810.524755 82.507136 
L 811.37106 82.188315 
L 812.217366 85.296844 
L 813.063672 83.543332 
L 813.909978 83.702742 
L 814.756284 88.006817 
L 815.60259 339.317893 
L 816.448895 263.278957 
L 817.295201 160.299598 
L 818.141507 108.809934 
L 818.987813 86.253305 
L 819.834119 82.507136 
L 820.680424 81.9492 
L 821.52673 82.347726 
L 822.373036 81.710085 
L 823.219342 82.188315 
L 824.065648 83.144776 
L 824.911953 84.499793 
L 825.758259 225.100072 
L 826.604565 283.364729 
L 828.297177 114.5487 
L 829.143482 88.803867 
L 829.989788 83.623037 
L 830.836094 82.905661 
L 831.6824 83.543332 
L 832.528706 93.267382 
L 833.375012 235.382088 
L 834.221317 201.188456 
L 835.067623 225.100072 
L 835.913929 141.329728 
L 836.760235 105.14347 
L 838.452846 88.644457 
L 839.299152 84.978024 
L 840.145458 85.137434 
L 840.991764 82.507136 
L 841.83807 81.9492 
L 842.684375 81.869495 
L 843.530681 81.47097 
L 844.376987 82.586841 
L 845.223293 330.630024 
L 846.069599 297.074033 
L 846.915904 165.161638 
L 847.76221 95.100599 
L 848.608516 85.535959 
L 849.454822 83.144776 
L 850.301128 83.782447 
L 851.147434 82.10861 
L 851.993739 83.304186 
L 852.840045 82.905661 
L 853.686351 81.78979 
L 854.532657 81.47097 
L 855.378963 124.033665 
L 856.225268 275.952126 
L 857.071574 188.116793 
L 857.91788 123.236614 
L 858.764186 90.318264 
L 859.610492 84.101268 
L 860.456797 83.702742 
L 861.303103 82.347726 
L 862.149409 82.507136 
L 862.995715 224.462431 
L 863.842021 257.380751 
L 864.688327 133.19978 
L 865.534632 94.781779 
L 866.380938 86.970651 
L 867.227244 83.782447 
L 868.07355 82.586841 
L 868.919856 81.78979 
L 869.766161 81.550675 
L 870.612467 82.347726 
L 871.458773 261.684856 
L 872.305079 208.202534 
L 873.151385 132.083908 
L 873.99769 97.571457 
L 874.843996 83.383892 
L 875.690302 82.905661 
L 876.536608 82.10861 
L 877.382914 81.78979 
L 878.229219 82.26802 
L 879.075525 81.311559 
L 879.921831 86.33301 
L 880.768137 397.901355 
L 882.460749 165.560164 
L 883.307054 113.592239 
L 884.15336 88.006817 
L 884.999666 83.065071 
L 886.692278 80.913034 
L 888.384889 81.311559 
L 889.231195 81.63038 
L 890.077501 81.63038 
L 890.923807 82.347726 
L 891.770112 85.535959 
L 892.616418 373.511509 
L 894.30903 152.010239 
L 895.155336 94.622369 
L 896.001641 84.978024 
L 896.847947 82.825956 
L 898.540559 80.992739 
L 899.386865 81.869495 
L 900.233171 82.028905 
L 901.079476 83.782447 
L 901.925782 87.927112 
L 902.772088 204.934625 
L 903.618394 200.949341 
L 904.4647 122.917763 
L 905.311005 90.477674 
L 906.157311 85.137434 
L 907.003617 82.825956 
L 907.849923 84.101268 
L 908.696229 84.180973 
L 909.542534 83.224481 
L 910.38884 82.666546 
L 911.235146 82.507136 
L 912.081452 322.73919 
L 912.927758 298.508755 
L 913.774063 172.893062 
L 914.620369 113.512534 
L 915.466675 87.289471 
L 916.312981 82.586841 
L 917.159287 81.78979 
L 918.005593 81.63038 
L 918.851898 82.028905 
L 919.698204 81.869495 
L 920.54451 81.550675 
L 921.390816 81.869495 
L 922.237122 82.347726 
L 923.083427 240.403508 
L 923.929733 264.076008 
L 924.776039 155.915819 
L 925.622345 163.806652 
L 926.468651 146.271443 
L 927.314956 110.085215 
L 928.161262 101.158216 
L 929.007568 84.738908 
L 929.853874 82.746251 
L 930.70018 82.10861 
L 931.546485 82.26802 
L 932.392791 81.869495 
L 933.239097 81.710085 
L 934.085403 82.905661 
L 934.931709 84.978024 
L 935.778015 256.025764 
L 936.62432 346.17256 
L 937.470626 191.623816 
L 938.316932 112.237252 
L 939.163238 88.166227 
L 940.009544 82.507136 
L 940.855849 81.63038 
L 941.702155 80.992739 
L 942.548461 80.913034 
L 945.087378 82.10861 
L 945.933684 85.854779 
L 946.77999 85.137434 
L 947.626296 83.543332 
L 949.318908 305.044571 
L 950.165213 202.543443 
L 951.011519 123.95396 
L 951.857825 94.702074 
L 952.704131 84.499793 
L 953.550437 81.47097 
L 954.396742 80.753624 
L 955.243048 81.231854 
L 956.089354 80.833329 
L 956.93566 81.550675 
L 957.781966 81.311559 
L 958.628271 81.550675 
L 959.474577 273.242123 
L 960.320883 264.474533 
L 962.013495 122.917763 
L 962.8598 93.347087 
L 963.706106 88.485047 
L 964.552412 91.832691 
L 965.398718 83.144776 
L 966.245024 81.710085 
L 967.09133 83.065071 
L 967.937635 83.623037 
L 968.783941 87.767701 
L 969.630247 87.448881 
L 970.476553 84.021563 
L 971.322859 83.941857 
L 972.169164 90.238559 
L 973.01547 84.738908 
L 973.861776 264.315123 
L 974.708082 303.29106 
L 975.554388 178.631827 
L 976.400693 108.969344 
L 977.246999 88.006817 
L 978.093305 82.427431 
L 978.939611 82.10861 
L 979.785917 82.427431 
L 980.632222 81.63038 
L 981.478528 89.282098 
L 982.324834 90.318264 
L 983.17114 88.325637 
L 984.017446 86.970651 
L 984.863752 83.463627 
L 985.710057 225.817417 
L 986.556363 268.380113 
L 987.402669 149.379972 
L 988.248975 105.860815 
L 989.095281 86.572125 
L 989.941586 82.10861 
L 990.787892 80.833329 
L 991.634198 80.355098 
L 992.480504 80.434804 
L 993.32681 80.275393 
L 994.173115 82.905661 
L 995.019421 239.048522 
L 995.865727 195.688806 
L 996.712033 114.229879 
L 997.558339 87.608291 
L 998.404644 82.825956 
L 999.25095 81.78979 
L 1000.097256 81.072444 
L 1000.943562 81.231854 
L 1001.789868 80.913034 
L 1002.636174 81.072444 
L 1003.482479 81.072444 
L 1003.482479 81.072444 
" clip-path="url(#p6f2cb858ad)" style="fill: none; stroke: #4c72b0; stroke-width: 6; stroke-linecap: round"/>
   </g>
   <g id="line2d_14">
    <path d="M 158.022975 584.17349 
L 158.869281 583.695333 
L 159.715587 584.651648 
L 160.561893 582.818711 
L 161.408198 583.296868 
L 162.254504 581.862396 
L 163.10081 578.834066 
L 163.947116 577.877751 
L 164.793422 567.836445 
L 165.639727 560.106233 
L 166.486033 557.396676 
L 167.332339 558.910841 
L 168.178645 545.203661 
L 169.024951 520.339475 
L 169.871257 527.432143 
L 170.717562 529.902625 
L 171.563868 527.432143 
L 172.410174 496.431605 
L 173.25648 509.023082 
L 174.102786 513.804659 
L 174.949091 489.259247 
L 175.795397 484.079206 
L 176.641703 509.580934 
L 177.488009 491.570338 
L 178.334315 479.377326 
L 179.18062 475.153601 
L 180.026926 490.534332 
L 180.873232 482.166579 
L 181.719538 464.395061 
L 182.565844 459.215019 
L 183.41215 474.834827 
L 184.258455 457.38209 
L 185.104761 451.803584 
L 185.951067 435.22746 
L 186.797373 460.649498 
L 187.643679 454.831907 
L 188.489984 441.921655 
L 189.33629 459.374399 
L 191.028902 432.119431 
L 191.875208 410.68204 
L 192.721513 422.157828 
L 193.567819 404.784774 
L 194.414125 417.296561 
L 195.260431 414.108843 
L 196.106737 428.055094 
L 196.953042 404.705069 
L 197.799348 407.892787 
L 198.645654 421.201503 
L 199.49196 408.769406 
L 200.338266 406.139548 
L 201.184572 399.843802 
L 202.030877 434.271135 
L 202.877183 409.167871 
L 203.723489 434.271135 
L 204.569795 368.444807 
L 205.416101 402.95183 
L 206.262406 373.863919 
L 207.108712 401.915831 
L 207.955018 358.562879 
L 208.801324 372.27006 
L 209.64763 398.170253 
L 210.493935 411.31959 
L 211.340241 377.370412 
L 212.186547 412.754054 
L 213.032853 331.546996 
L 213.879159 412.036829 
L 214.725464 352.187458 
L 215.57177 339.356896 
L 216.418076 344.058783 
L 217.264382 334.017474 
L 218.110688 338.002122 
L 218.956994 326.207574 
L 219.803299 336.567643 
L 220.649605 394.982535 
L 221.495911 321.665082 
L 222.342217 362.866301 
L 223.188523 381.833214 
L 224.034828 313.536408 
L 224.881134 315.050562 
L 225.72744 413.232209 
L 226.573746 347.166796 
L 227.420052 326.287249 
L 228.266357 266.517598 
L 229.112663 348.760655 
L 229.958969 322.940151 
L 230.805275 369.321427 
L 231.651581 348.99974 
L 234.190498 274.805652 
L 235.036804 286.52051 
L 235.88311 287.795579 
L 236.729416 316.086576 
L 237.575721 383.586453 
L 238.422027 316.8038 
L 239.268333 340.233515 
L 240.114639 303.574789 
L 240.960945 292.258396 
L 241.80725 333.300235 
L 242.653556 341.34922 
L 243.499862 299.111972 
L 244.346168 279.587229 
L 245.192474 327.801433 
L 246.038779 348.36219 
L 246.885085 277.355821 
L 247.731391 333.858079 
L 248.577697 320.071223 
L 249.424003 341.907064 
L 250.270308 288.194044 
L 251.116614 280.702919 
L 251.96292 340.871065 
L 252.809226 228.264982 
L 253.655532 245.717726 
L 254.501838 303.255999 
L 255.348143 259.026442 
L 256.194449 241.414319 
L 257.040755 238.385981 
L 257.887061 289.628523 
L 258.733367 300.387071 
L 259.579672 255.041795 
L 260.425978 255.998135 
L 261.272284 300.86521 
L 262.11859 262.931415 
L 262.964896 265.003414 
L 263.811201 294.56948 
L 265.503813 270.42254 
L 266.350119 326.127869 
L 267.196425 336.169178 
L 268.04273 271.37885 
L 268.889036 220.534772 
L 269.735342 232.329335 
L 270.581648 231.851165 
L 271.427954 252.969796 
L 272.27426 203.161733 
L 273.120565 188.976382 
L 273.966871 354.976711 
L 274.813177 289.628523 
L 275.659483 267.473907 
L 276.505789 223.56311 
L 277.352094 250.658683 
L 278.1984 256.316894 
L 279.044706 170.24857 
L 279.891012 329.714052 
L 280.737318 243.406642 
L 281.583623 290.505157 
L 282.429929 204.357128 
L 283.276235 394.105916 
L 284.968847 198.061366 
L 285.815153 386.535101 
L 286.661458 216.868915 
L 287.507764 249.383614 
L 288.35407 243.326937 
L 289.200376 288.512834 
L 290.046682 318.397659 
L 290.892987 257.034119 
L 291.739293 222.208336 
L 292.585599 264.445569 
L 293.431905 267.155117 
L 294.278211 191.845341 
L 295.124516 189.056087 
L 295.970822 376.573482 
L 296.817128 357.447189 
L 297.663434 210.652858 
L 298.50974 216.709535 
L 299.356045 202.364804 
L 300.202351 229.699461 
L 301.048657 299.749521 
L 301.894963 256.077809 
L 302.741269 191.606256 
L 303.587575 214.557801 
L 304.43388 337.045797 
L 305.280186 261.736021 
L 306.126492 294.171015 
L 306.972798 298.633832 
L 307.819104 215.115676 
L 308.665409 169.531315 
L 309.511715 374.899933 
L 310.358021 216.550125 
L 311.204327 283.810931 
L 312.050633 192.96103 
L 312.896938 163.554344 
L 313.743244 360.475512 
L 314.58955 208.89962 
L 315.435856 172.479948 
L 316.282162 152.477036 
L 317.128467 121.157731 
L 317.974773 313.536408 
L 318.821079 263.409555 
L 319.667385 180.369568 
L 320.513691 186.984059 
L 321.359997 154.628739 
L 322.206302 216.550125 
L 323.052608 170.567329 
L 323.898914 473.161278 
L 324.74522 248.267894 
L 325.591526 240.617389 
L 326.437831 190.251482 
L 327.284137 257.432583 
L 328.130443 259.345232 
L 328.976749 195.590903 
L 329.823055 196.069073 
L 330.66936 395.06224 
L 331.515666 209.855929 
L 332.361972 201.488169 
L 333.208278 160.207246 
L 334.054584 265.322204 
L 334.900889 200.611565 
L 335.747195 155.266289 
L 336.593501 130.95997 
L 337.439807 154.788149 
L 338.286113 319.274294 
L 339.132419 217.904899 
L 339.978724 236.553067 
L 340.82503 138.769855 
L 341.671336 144.507741 
L 342.517642 238.625066 
L 343.363948 138.132305 
L 344.210253 284.050016 
L 345.056559 257.113824 
L 346.749171 176.22551 
L 347.595477 192.32348 
L 348.441782 402.633055 
L 349.288088 325.091855 
L 350.134394 175.827076 
L 350.9807 193.200115 
L 351.827006 155.186614 
L 352.673311 137.335375 
L 353.519617 141.718488 
L 354.365923 135.741516 
L 355.212229 186.027749 
L 356.058535 243.167558 
L 357.751146 220.853562 
L 358.597452 170.886089 
L 359.443758 146.181305 
L 360.290064 140.443419 
L 361.13637 162.04019 
L 361.982675 508.863695 
L 362.828981 319.114884 
L 363.675287 255.201205 
L 364.521593 208.42145 
L 365.367899 154.867824 
L 366.214204 118.607563 
L 367.06051 130.242715 
L 367.906816 390.121268 
L 368.753122 245.558346 
L 369.599428 224.51942 
L 370.445734 176.623975 
L 371.292039 141.957572 
L 372.138345 130.242715 
L 372.984651 140.124629 
L 373.830957 404.306604 
L 374.677263 340.63198 
L 375.523568 185.07144 
L 376.369874 175.986456 
L 377.21618 127.214377 
L 378.062486 118.368478 
L 378.908792 149.289318 
L 379.755097 107.849014 
L 380.601403 441.602895 
L 381.447709 240.936149 
L 382.294015 181.644637 
L 383.986626 143.232672 
L 384.832932 116.615239 
L 385.679238 135.821221 
L 386.525544 97.329551 
L 387.37185 489.418627 
L 388.218156 285.643875 
L 389.064461 175.747371 
L 389.910767 108.645944 
L 390.757073 101.473578 
L 391.603379 110.797647 
L 392.449685 101.553284 
L 393.29599 108.725649 
L 394.142296 575.965122 
L 394.988602 299.111972 
L 395.834908 195.909663 
L 396.681214 145.703135 
L 397.527519 122.831295 
L 398.373825 139.168319 
L 399.220131 110.319508 
L 400.066437 114.304155 
L 400.912743 391.476058 
L 401.759048 258.627978 
L 402.605354 229.221291 
L 403.45166 166.104512 
L 404.297966 169.7704 
L 405.144272 118.288773 
L 405.990578 107.530255 
L 406.836883 113.905691 
L 407.683189 122.034365 
L 408.529495 334.894094 
L 409.375801 192.96103 
L 410.222107 212.167012 
L 411.068412 137.096321 
L 411.914718 123.548519 
L 412.761024 113.188436 
L 413.60733 119.643577 
L 415.299941 299.749521 
L 416.146247 242.450333 
L 416.992553 175.587991 
L 417.838859 117.651253 
L 418.685165 114.22445 
L 419.53147 98.126481 
L 420.377776 159.250936 
L 421.224082 370.676201 
L 422.070388 223.324025 
L 422.916694 153.592755 
L 423.763 128.409771 
L 424.609305 123.946984 
L 425.455611 101.632958 
L 426.301917 96.134157 
L 427.148223 97.728016 
L 427.994529 342.783684 
L 428.840834 182.840031 
L 429.68714 183.716666 
L 430.533446 134.466447 
L 431.379752 136.299391 
L 432.226058 106.01607 
L 433.072363 113.427521 
L 433.918669 104.183157 
L 434.764975 123.628224 
L 435.611281 268.748976 
L 436.457587 284.289101 
L 438.150198 159.808781 
L 438.996504 113.108761 
L 439.84281 106.813 
L 440.689116 93.185524 
L 442.381727 122.990675 
L 443.228033 405.342619 
L 444.074339 309.23297 
L 444.920645 154.1506 
L 445.766951 129.84425 
L 446.613256 96.452917 
L 447.459562 109.283494 
L 448.305868 149.528403 
L 449.152174 210.174689 
L 449.99848 281.818608 
L 450.844785 202.444479 
L 451.691091 230.735476 
L 452.537397 184.035426 
L 453.383703 128.091011 
L 454.230009 201.647549 
L 455.076314 134.625827 
L 455.92262 151.919191 
L 456.768926 112.789971 
L 457.615232 104.820676 
L 458.461538 102.111128 
L 459.307844 110.080423 
L 460.154149 472.603425 
L 461.846761 213.999956 
L 462.693067 120.918646 
L 463.539373 103.784692 
L 464.385678 100.836029 
L 465.231984 89.599341 
L 466.07829 88.403947 
L 466.924596 92.787059 
L 467.770902 107.609929 
L 468.617207 358.722274 
L 469.463513 219.179998 
L 470.309819 153.35367 
L 471.156125 98.843705 
L 472.002431 97.807721 
L 472.848737 106.65362 
L 473.695042 93.902748 
L 474.541348 343.899388 
L 475.387654 294.967944 
L 476.23396 168.575005 
L 477.080266 177.420905 
L 477.926571 120.201422 
L 478.772877 98.206186 
L 479.619183 102.031423 
L 480.465489 103.386227 
L 481.311795 89.599341 
L 482.1581 90.55565 
L 483.004406 286.281425 
L 483.850712 264.206484 
L 484.697018 153.83181 
L 485.543324 106.414535 
L 486.389629 98.524945 
L 487.235935 97.967101 
L 488.082241 93.663694 
L 488.928547 95.496607 
L 489.774853 363.66323 
L 490.621159 258.388893 
L 491.467464 248.506979 
L 492.31377 153.03488 
L 493.160076 103.465902 
L 494.006382 91.67137 
L 494.852688 91.751045 
L 495.698993 89.041497 
L 497.391605 103.704987 
L 498.237911 364.061695 
L 499.084217 350.195134 
L 499.930522 231.77149 
L 500.776828 133.191348 
L 501.623134 103.944072 
L 502.46944 92.547974 
L 503.315746 89.918101 
L 504.162051 95.257522 
L 505.008357 91.35258 
L 505.854663 105.298846 
L 506.700969 100.995439 
L 507.547275 98.524945 
L 508.393581 387.49141 
L 509.239886 176.70368 
L 510.086192 173.675342 
L 510.932498 112.471212 
L 511.778804 95.974777 
L 512.62511 95.416932 
L 513.471415 86.889793 
L 514.317721 90.794735 
L 515.164027 92.627679 
L 516.010333 461.127653 
L 516.856639 244.362952 
L 517.702944 168.575005 
L 518.54925 112.710296 
L 519.395556 95.815397 
L 520.241862 101.792368 
L 521.088168 91.67137 
L 521.934473 88.483652 
L 522.780779 460.410413 
L 524.473391 237.270291 
L 525.319697 154.867824 
L 526.166003 113.029056 
L 527.012308 92.308889 
L 527.858614 90.55565 
L 528.70492 87.766397 
L 529.551226 95.496607 
L 530.397532 88.643032 
L 531.243837 109.681958 
L 532.936449 308.754831 
L 533.782755 172.639358 
L 534.629061 120.042042 
L 535.475366 88.643032 
L 536.321672 85.455314 
L 537.167978 93.823074 
L 538.014284 274.486862 
L 538.86059 296.083664 
L 539.706895 159.649401 
L 540.553201 107.928719 
L 541.399507 93.663694 
L 542.245813 86.331918 
L 543.092119 115.579224 
L 543.938425 167.618696 
L 544.78473 111.753957 
L 545.631036 164.032513 
L 546.477342 118.448183 
L 547.323648 133.908603 
L 548.169954 153.51305 
L 549.016259 113.108761 
L 549.862565 91.113495 
L 550.708871 89.439961 
L 551.555177 110.877353 
L 552.401483 436.263459 
L 553.247788 266.676978 
L 554.094094 197.264437 
L 554.9404 102.908058 
L 555.786706 91.67137 
L 556.633012 85.694399 
L 557.479317 85.614694 
L 558.325623 87.766397 
L 559.171929 85.136524 
L 560.018235 88.005482 
L 560.864541 98.206186 
L 561.710847 514.442201 
L 563.403458 194.236129 
L 564.249764 137.972925 
L 565.09607 104.103452 
L 565.942376 91.751045 
L 566.788681 91.03382 
L 567.634987 87.527312 
L 568.481293 89.360256 
L 569.327599 86.810088 
L 570.173905 87.447638 
L 571.02021 86.810088 
L 571.866516 102.111128 
L 572.712822 336.567643 
L 573.559128 292.577156 
L 574.405434 153.03488 
L 575.25174 102.509593 
L 576.098045 89.838426 
L 576.944351 86.969468 
L 577.790657 87.527312 
L 578.636963 88.324242 
L 579.483269 91.83075 
L 580.329574 93.982453 
L 581.17588 328.837418 
L 582.022186 327.402969 
L 583.714798 129.605165 
L 584.561103 103.704987 
L 585.407409 88.882117 
L 586.253715 86.331918 
L 587.100021 85.534989 
L 587.946327 89.599341 
L 588.792632 91.751045 
L 589.638938 346.449571 
L 591.33155 192.562565 
L 592.177856 289.548818 
L 593.024162 106.33486 
L 593.870467 198.778621 
L 594.716773 213.282732 
L 595.563079 106.892705 
L 596.409385 99.24217 
L 597.255691 142.674827 
L 598.101996 285.72358 
L 598.948302 189.056087 
L 599.794608 131.11935 
L 600.640914 97.568636 
L 601.48722 86.889793 
L 602.333525 85.455314 
L 603.179831 86.331918 
L 604.026137 91.67137 
L 604.872443 87.846102 
L 605.718749 89.280581 
L 606.565054 584.571955 
L 607.41136 323.737081 
L 609.103972 109.283494 
L 609.950278 91.113495 
L 610.796584 87.367932 
L 611.642889 89.041497 
L 612.489195 83.064525 
L 613.335501 86.252243 
L 614.181807 94.301213 
L 615.028113 90.236891 
L 615.874418 88.085187 
L 616.720724 92.866764 
L 617.56703 139.248024 
L 618.413336 442.718585 
L 619.259642 201.727254 
L 620.952253 96.771707 
L 621.798559 88.244567 
L 622.644865 98.44524 
L 623.491171 93.823074 
L 624.337476 84.499004 
L 625.183782 87.925777 
L 626.030088 92.866764 
L 626.876394 100.278184 
L 627.7227 90.475976 
L 628.569006 466.626462 
L 629.415311 306.682802 
L 630.261617 175.747371 
L 631.107923 105.856691 
L 631.954229 87.049173 
L 632.800535 87.208553 
L 634.493146 84.499004 
L 635.339452 90.635356 
L 636.185758 90.157186 
L 637.032064 86.013158 
L 637.878369 255.1215 
L 638.724675 216.868915 
L 639.570981 137.255701 
L 640.417287 86.889793 
L 641.263593 85.136524 
L 642.109898 90.077511 
L 642.956204 94.141833 
L 643.80251 85.614694 
L 644.648816 89.519636 
L 645.495122 90.794735 
L 646.341428 423.353207 
L 647.187733 237.031207 
L 648.034039 125.222083 
L 648.880345 93.743368 
L 649.726651 86.650708 
L 650.572957 85.534989 
L 651.419262 84.10054 
L 652.265568 81.550371 
L 653.111874 84.738059 
L 653.95818 83.94116 
L 654.804486 543.76919 
L 655.650791 265.481583 
L 656.497097 160.366626 
L 657.343403 103.864367 
L 658.189709 88.643032 
L 659.036015 83.94116 
L 659.882321 83.383285 
L 660.728626 84.658384 
L 661.574932 91.03382 
L 662.421238 82.347301 
L 663.267544 84.897469 
L 664.11385 84.339625 
L 664.960155 531.098019 
L 665.806461 330.032812 
L 666.652767 206.349451 
L 667.499073 124.106364 
L 668.345379 96.452917 
L 669.191684 92.149509 
L 670.03799 84.578679 
L 670.884296 82.905145 
L 671.730602 83.702075 
L 672.576908 85.056849 
L 673.423213 84.738059 
L 674.269519 86.172538 
L 675.115825 443.993669 
L 676.808437 132.075659 
L 677.654743 97.568636 
L 678.501048 84.339625 
L 679.347354 83.064525 
L 680.19366 84.020835 
L 681.039966 82.666061 
L 681.886272 82.586356 
L 682.732577 84.339625 
L 683.578883 90.316566 
L 684.425189 409.167871 
L 685.271495 222.606801 
L 686.117801 140.762178 
L 686.964106 90.077511 
L 687.810412 86.252243 
L 688.656718 85.375609 
L 689.503024 85.216229 
L 690.34933 83.78175 
L 692.041941 84.897469 
L 692.888247 508.38554 
L 693.734553 287.078355 
L 694.580859 159.410316 
L 695.427165 139.566784 
L 696.27347 97.807721 
L 697.119776 85.933453 
L 697.966082 82.506681 
L 698.812388 85.694399 
L 699.658694 81.072202 
L 700.504999 85.933453 
L 701.351305 81.470666 
L 702.197611 88.244567 
L 703.043917 534.365427 
L 703.890223 399.126578 
L 704.736528 212.963942 
L 705.582834 129.84425 
L 706.42914 86.092863 
L 707.275446 86.411623 
L 708.121752 82.82544 
L 708.968057 85.295934 
L 709.814363 83.223905 
L 710.660669 85.136524 
L 711.506975 82.506681 
L 712.353281 86.172538 
L 713.199587 88.164862 
L 714.045892 315.767786 
L 714.892198 310.18928 
L 715.738504 152.795826 
L 716.58481 100.437564 
L 717.431116 86.969468 
L 718.277421 82.267596 
L 719.123727 82.267596 
L 719.970033 85.455314 
L 720.816339 93.265229 
L 721.662645 86.730383 
L 722.50895 108.008394 
L 723.355256 191.685961 
L 724.201562 198.380156 
L 725.047868 161.641725 
L 725.894174 157.736783 
L 726.740479 94.062158 
L 727.586785 86.730383 
L 728.433091 83.14423 
L 729.279397 83.30361 
L 730.125703 81.789426 
L 730.972009 84.499004 
L 731.818314 82.028511 
L 732.66462 84.977144 
L 733.510926 354.737626 
L 734.357232 351.788993 
L 735.203538 206.747916 
L 736.049843 110.239803 
L 736.896149 84.897469 
L 737.742455 82.98482 
L 738.588761 82.426976 
L 739.435067 81.311287 
L 740.281372 82.426976 
L 741.127678 82.586356 
L 741.973984 84.339625 
L 742.82029 85.375609 
L 743.666596 183.955751 
L 744.512901 350.035739 
L 745.359207 200.452155 
L 746.205513 113.666606 
L 747.051819 93.982453 
L 747.898125 85.375609 
L 748.744431 82.905145 
L 749.590736 82.82544 
L 750.437042 82.267596 
L 751.283348 83.78175 
L 752.129654 86.969468 
L 752.97596 87.288258 
L 753.822265 367.169723 
L 754.668571 269.466231 
L 756.361183 123.22976 
L 757.207489 91.591665 
L 758.053794 84.977144 
L 758.9001 84.499004 
L 759.746406 85.853779 
L 760.592712 81.869131 
L 761.439018 83.62237 
L 762.285324 87.128848 
L 763.131629 89.599341 
L 763.977935 97.409256 
L 764.824241 453.238048 
L 765.670547 215.99228 
L 767.363158 123.07035 
L 768.209464 96.373242 
L 769.05577 82.82544 
L 769.902076 82.267596 
L 770.748382 85.774073 
L 771.594687 81.470666 
L 772.440993 82.98482 
L 773.287299 82.108216 
L 774.133605 91.751045 
L 774.979911 99.40158 
L 775.826216 313.775462 
L 776.672522 209.298084 
L 777.518828 135.661842 
L 778.365134 94.141833 
L 779.21144 87.128848 
L 780.057746 89.041497 
L 780.904051 85.694399 
L 781.750357 82.82544 
L 782.596663 84.10054 
L 783.442969 83.62237 
L 784.289275 432.677291 
L 785.13558 208.341775 
L 785.981886 151.361347 
L 786.828192 110.399183 
L 787.674498 87.128848 
L 788.520804 83.78175 
L 789.367109 83.30361 
L 790.213415 82.187891 
L 791.059721 86.172538 
L 791.906027 83.383285 
L 792.752333 82.82544 
L 793.598638 245.398966 
L 794.444944 286.998649 
L 795.29125 187.462228 
L 796.137556 105.537931 
L 796.983862 83.46299 
L 797.830168 84.25992 
L 798.676473 88.164862 
L 799.522779 82.98482 
L 800.369085 81.231581 
L 801.215391 82.905145 
L 802.061697 82.108216 
L 802.908002 86.810088 
L 803.754308 299.749521 
L 804.600614 288.751888 
L 806.293226 105.219141 
L 807.139531 83.94116 
L 807.985837 83.542695 
L 808.832143 81.789426 
L 809.678449 83.46299 
L 810.524755 83.78175 
L 811.37106 82.745766 
L 812.217366 87.367932 
L 813.063672 81.390961 
L 813.909978 87.208553 
L 814.756284 98.365566 
L 815.60259 230.018221 
L 816.448895 168.654711 
L 817.295201 119.245112 
L 818.141507 96.532622 
L 818.987813 80.912822 
L 819.834119 81.789426 
L 820.680424 80.912822 
L 821.52673 81.869131 
L 822.373036 81.390961 
L 823.219342 82.666061 
L 824.065648 83.542695 
L 824.911953 90.635356 
L 825.758259 310.826829 
L 826.604565 234.401333 
L 827.450871 140.363713 
L 828.297177 91.83075 
L 829.143482 83.46299 
L 830.836094 85.216229 
L 831.6824 82.98482 
L 833.375012 211.051323 
L 834.221317 253.527641 
L 835.067623 175.109821 
L 835.913929 115.18076 
L 836.760235 106.733325 
L 837.606541 88.882117 
L 838.452846 85.933453 
L 839.299152 88.961791 
L 840.145458 82.82544 
L 840.991764 80.833117 
L 841.83807 82.347301 
L 842.684375 80.594032 
L 843.530681 81.231581 
L 844.376987 84.25992 
L 845.223293 308.117281 
L 846.069599 226.750828 
L 846.915904 110.877353 
L 847.76221 88.802412 
L 848.608516 88.802412 
L 849.454822 82.347301 
L 850.301128 81.550371 
L 851.147434 82.82544 
L 851.993739 81.948836 
L 852.840045 81.311287 
L 854.532657 81.550371 
L 855.378963 353.303147 
L 856.225268 190.729621 
L 857.91788 99.56096 
L 858.764186 89.280581 
L 859.610492 87.208553 
L 860.456797 81.072202 
L 861.303103 82.028511 
L 862.149409 87.208553 
L 862.995715 290.345747 
L 863.842021 182.600946 
L 864.688327 100.836029 
L 865.534632 89.439961 
L 866.380938 88.005482 
L 867.227244 88.085187 
L 868.07355 83.223905 
L 868.919856 82.028511 
L 869.766161 82.426976 
L 870.612467 102.908058 
L 871.458773 237.509376 
L 873.151385 124.345449 
L 873.99769 85.614694 
L 874.843996 85.853779 
L 875.690302 81.630046 
L 876.536608 81.311287 
L 877.382914 83.78175 
L 878.229219 81.151907 
L 879.075525 81.151907 
L 879.921831 135.741516 
L 880.768137 400.242267 
L 881.614443 289.548818 
L 882.460749 160.047866 
L 883.307054 91.1932 
L 884.15336 84.419299 
L 884.999666 81.709751 
L 885.845972 81.072202 
L 886.692278 81.231581 
L 888.384889 81.948836 
L 889.231195 80.673737 
L 890.077501 81.151907 
L 890.923807 85.056849 
L 891.770112 144.667151 
L 892.616418 237.270291 
L 893.462724 226.352363 
L 894.30903 106.255155 
L 895.155336 87.686722 
L 896.001641 81.789426 
L 896.847947 81.948836 
L 897.694253 80.753442 
L 898.540559 80.195567 
L 899.386865 81.151907 
L 900.233171 83.542695 
L 901.079476 84.578679 
L 901.925782 85.295934 
L 902.772088 278.551215 
L 903.618394 159.410316 
L 904.4647 100.596974 
L 905.311005 87.925777 
L 906.157311 83.46299 
L 907.003617 81.948836 
L 907.849923 87.686722 
L 908.696229 82.187891 
L 909.542534 84.020835 
L 910.38884 81.550371 
L 911.235146 81.709751 
L 912.081452 293.294411 
L 912.927758 241.334614 
L 913.774063 148.014249 
L 914.620369 88.005482 
L 915.466675 83.702075 
L 916.312981 83.861455 
L 917.159287 81.151907 
L 918.005593 80.753442 
L 918.851898 82.905145 
L 919.698204 80.036187 
L 920.54451 82.82544 
L 921.390816 81.072202 
L 922.237122 81.231581 
L 923.083427 400.561042 
L 923.929733 145.703135 
L 924.776039 120.679561 
L 925.622345 218.940913 
L 926.468651 102.270508 
L 927.314956 113.507226 
L 928.161262 91.83075 
L 929.007568 82.506681 
L 929.853874 81.550371 
L 930.70018 82.187891 
L 931.546485 80.833117 
L 932.392791 82.187891 
L 933.239097 81.630046 
L 934.085403 82.426976 
L 934.931709 83.46299 
L 935.778015 470.212637 
L 936.62432 200.37248 
L 937.470626 130.720885 
L 938.316932 92.149509 
L 939.163238 84.738059 
L 940.009544 81.311287 
L 940.855849 82.426976 
L 941.702155 80.354977 
L 942.548461 81.470666 
L 943.394767 81.311287 
L 944.241073 81.789426 
L 945.087378 81.869131 
L 945.933684 86.810088 
L 946.77999 81.869131 
L 947.626296 86.730383 
L 948.472602 416.898096 
L 949.318908 207.226056 
L 950.165213 136.219686 
L 951.011519 92.229215 
L 952.704131 82.347301 
L 954.396742 81.470666 
L 955.243048 80.514357 
L 956.089354 81.470666 
L 956.93566 81.630046 
L 957.781966 81.550371 
L 958.628271 88.643032 
L 959.474577 367.169723 
L 960.320883 317.680435 
L 961.167189 141.559108 
L 962.013495 93.823074 
L 962.8598 90.954115 
L 963.706106 107.052085 
L 964.552412 89.041497 
L 965.398718 80.673737 
L 966.245024 81.630046 
L 967.09133 81.948836 
L 967.937635 92.866764 
L 968.783941 86.092863 
L 969.630247 83.30361 
L 970.476553 82.347301 
L 971.322859 95.098142 
L 972.169164 95.974777 
L 973.01547 87.447638 
L 973.861776 439.690262 
L 974.708082 258.149838 
L 975.554388 131.677194 
L 976.400693 95.735692 
L 977.246999 85.853779 
L 978.093305 82.666061 
L 978.939611 82.905145 
L 979.785917 81.231581 
L 980.632222 91.35258 
L 981.478528 94.779383 
L 982.324834 88.563327 
L 983.17114 99.72034 
L 984.017446 85.375609 
L 984.863752 86.491328 
L 985.710057 362.866301 
L 986.556363 161.960485 
L 987.402669 113.188436 
L 988.248975 98.843705 
L 989.095281 87.367932 
L 989.941586 81.948836 
L 990.787892 80.434652 
L 991.634198 81.151907 
L 992.480504 79.797102 
L 993.32681 80.753442 
L 994.173115 115.02138 
L 995.019421 241.175234 
L 995.865727 148.811178 
L 996.712033 93.663694 
L 997.558339 82.82544 
L 999.25095 80.514357 
L 1000.097256 80.514357 
L 1000.943562 81.550371 
L 1001.789868 81.789426 
L 1002.636174 81.550371 
L 1003.482479 82.028511 
L 1003.482479 82.028511 
" clip-path="url(#p6f2cb858ad)" style="fill: none; stroke: #dd8452; stroke-width: 6; stroke-linecap: round"/>
   </g>
   <g id="line2d_15"/>
   <g id="line2d_16"/>
   <g id="patch_3">
    <path d="M 115.75 609.894375 
L 115.75 54.554375 
" style="fill: none; stroke: #cccccc; stroke-width: 1.875; stroke-linejoin: miter; stroke-linecap: square"/>
   </g>
   <g id="patch_4">
    <path d="M 1045.755455 609.894375 
L 1045.755455 54.554375 
" style="fill: none; stroke: #cccccc; stroke-width: 1.875; stroke-linejoin: miter; stroke-linecap: square"/>
   </g>
   <g id="patch_5">
    <path d="M 115.75 609.894375 
L 1045.755455 609.894375 
" style="fill: none; stroke: #cccccc; stroke-width: 1.875; stroke-linejoin: miter; stroke-linecap: square"/>
   </g>
   <g id="patch_6">
    <path d="M 115.75 54.554375 
L 1045.755455 54.554375 
" style="fill: none; stroke: #cccccc; stroke-width: 1.875; stroke-linejoin: miter; stroke-linecap: square"/>
   </g>
   <g id="text_15">
    <!-- Training Progress: Accuracy -->
    <g style="fill: #262626" transform="translate(297.50304 34.554375) scale(0.36 -0.36)">
     <defs>
      <path id="DejaVuSans-Bold-54" d="M 31 4666 
L 4331 4666 
L 4331 3756 
L 2784 3756 
L 2784 0 
L 1581 0 
L 1581 3756 
L 31 3756 
L 31 4666 
z
" transform="scale(0.015625)"/>
      <path id="DejaVuSans-Bold-72" d="M 3138 2547 
Q 2991 2616 2845 2648 
Q 2700 2681 2553 2681 
Q 2122 2681 1889 2404 
Q 1656 2128 1656 1613 
L 1656 0 
L 538 0 
L 538 3500 
L 1656 3500 
L 1656 2925 
Q 1872 3269 2151 3426 
Q 2431 3584 2822 3584 
Q 2878 3584 2943 3579 
Q 3009 3575 3134 3559 
L 3138 2547 
z
" transform="scale(0.015625)"/>
      <path id="DejaVuSans-Bold-61" d="M 2106 1575 
Q 1756 1575 1579 1456 
Q 1403 1338 1403 1106 
Q 1403 894 1545 773 
Q 1688 653 1941 653 
Q 2256 653 2472 879 
Q 2688 1106 2688 1447 
L 2688 1575 
L 2106 1575 
z
M 3816 1997 
L 3816 0 
L 2688 0 
L 2688 519 
Q 2463 200 2181 54 
Q 1900 -91 1497 -91 
Q 953 -91 614 226 
Q 275 544 275 1050 
Q 275 1666 698 1953 
Q 1122 2241 2028 2241 
L 2688 2241 
L 2688 2328 
Q 2688 2594 2478 2717 
Q 2269 2841 1825 2841 
Q 1466 2841 1156 2769 
Q 847 2697 581 2553 
L 581 3406 
Q 941 3494 1303 3539 
Q 1666 3584 2028 3584 
Q 2975 3584 3395 3211 
Q 3816 2838 3816 1997 
z
" transform="scale(0.015625)"/>
      <path id="DejaVuSans-Bold-69" d="M 538 3500 
L 1656 3500 
L 1656 0 
L 538 0 
L 538 3500 
z
M 538 4863 
L 1656 4863 
L 1656 3950 
L 538 3950 
L 538 4863 
z
" transform="scale(0.015625)"/>
      <path id="DejaVuSans-Bold-6e" d="M 4056 2131 
L 4056 0 
L 2931 0 
L 2931 347 
L 2931 1631 
Q 2931 2084 2911 2256 
Q 2891 2428 2841 2509 
Q 2775 2619 2662 2680 
Q 2550 2741 2406 2741 
Q 2056 2741 1856 2470 
Q 1656 2200 1656 1722 
L 1656 0 
L 538 0 
L 538 3500 
L 1656 3500 
L 1656 2988 
Q 1909 3294 2193 3439 
Q 2478 3584 2822 3584 
Q 3428 3584 3742 3212 
Q 4056 2841 4056 2131 
z
" transform="scale(0.015625)"/>
      <path id="DejaVuSans-Bold-67" d="M 2919 594 
Q 2688 288 2409 144 
Q 2131 0 1766 0 
Q 1125 0 706 504 
Q 288 1009 288 1791 
Q 288 2575 706 3076 
Q 1125 3578 1766 3578 
Q 2131 3578 2409 3434 
Q 2688 3291 2919 2981 
L 2919 3500 
L 4044 3500 
L 4044 353 
Q 4044 -491 3511 -936 
Q 2978 -1381 1966 -1381 
Q 1638 -1381 1331 -1331 
Q 1025 -1281 716 -1178 
L 716 -306 
Q 1009 -475 1290 -558 
Q 1572 -641 1856 -641 
Q 2406 -641 2662 -400 
Q 2919 -159 2919 353 
L 2919 594 
z
M 2181 2772 
Q 1834 2772 1640 2515 
Q 1447 2259 1447 1791 
Q 1447 1309 1634 1061 
Q 1822 813 2181 813 
Q 2531 813 2725 1069 
Q 2919 1325 2919 1791 
Q 2919 2259 2725 2515 
Q 2531 2772 2181 2772 
z
" transform="scale(0.015625)"/>
      <path id="DejaVuSans-Bold-20" transform="scale(0.015625)"/>
      <path id="DejaVuSans-Bold-50" d="M 588 4666 
L 2584 4666 
Q 3475 4666 3951 4270 
Q 4428 3875 4428 3144 
Q 4428 2409 3951 2014 
Q 3475 1619 2584 1619 
L 1791 1619 
L 1791 0 
L 588 0 
L 588 4666 
z
M 1791 3794 
L 1791 2491 
L 2456 2491 
Q 2806 2491 2997 2661 
Q 3188 2831 3188 3144 
Q 3188 3456 2997 3625 
Q 2806 3794 2456 3794 
L 1791 3794 
z
" transform="scale(0.015625)"/>
      <path id="DejaVuSans-Bold-6f" d="M 2203 2784 
Q 1831 2784 1636 2517 
Q 1441 2250 1441 1747 
Q 1441 1244 1636 976 
Q 1831 709 2203 709 
Q 2569 709 2762 976 
Q 2956 1244 2956 1747 
Q 2956 2250 2762 2517 
Q 2569 2784 2203 2784 
z
M 2203 3584 
Q 3106 3584 3614 3096 
Q 4122 2609 4122 1747 
Q 4122 884 3614 396 
Q 3106 -91 2203 -91 
Q 1297 -91 786 396 
Q 275 884 275 1747 
Q 275 2609 786 3096 
Q 1297 3584 2203 3584 
z
" transform="scale(0.015625)"/>
      <path id="DejaVuSans-Bold-65" d="M 4031 1759 
L 4031 1441 
L 1416 1441 
Q 1456 1047 1700 850 
Q 1944 653 2381 653 
Q 2734 653 3104 758 
Q 3475 863 3866 1075 
L 3866 213 
Q 3469 63 3072 -14 
Q 2675 -91 2278 -91 
Q 1328 -91 801 392 
Q 275 875 275 1747 
Q 275 2603 792 3093 
Q 1309 3584 2216 3584 
Q 3041 3584 3536 3087 
Q 4031 2591 4031 1759 
z
M 2881 2131 
Q 2881 2450 2695 2645 
Q 2509 2841 2209 2841 
Q 1884 2841 1681 2658 
Q 1478 2475 1428 2131 
L 2881 2131 
z
" transform="scale(0.015625)"/>
      <path id="DejaVuSans-Bold-73" d="M 3272 3391 
L 3272 2541 
Q 2913 2691 2578 2766 
Q 2244 2841 1947 2841 
Q 1628 2841 1473 2761 
Q 1319 2681 1319 2516 
Q 1319 2381 1436 2309 
Q 1553 2238 1856 2203 
L 2053 2175 
Q 2913 2066 3209 1816 
Q 3506 1566 3506 1031 
Q 3506 472 3093 190 
Q 2681 -91 1863 -91 
Q 1516 -91 1145 -36 
Q 775 19 384 128 
L 384 978 
Q 719 816 1070 734 
Q 1422 653 1784 653 
Q 2113 653 2278 743 
Q 2444 834 2444 1013 
Q 2444 1163 2330 1236 
Q 2216 1309 1875 1350 
L 1678 1375 
Q 931 1469 631 1722 
Q 331 1975 331 2491 
Q 331 3047 712 3315 
Q 1094 3584 1881 3584 
Q 2191 3584 2531 3537 
Q 2872 3491 3272 3391 
z
" transform="scale(0.015625)"/>
      <path id="DejaVuSans-Bold-3a" d="M 716 3500 
L 1844 3500 
L 1844 2291 
L 716 2291 
L 716 3500 
z
M 716 1209 
L 1844 1209 
L 1844 0 
L 716 0 
L 716 1209 
z
" transform="scale(0.015625)"/>
      <path id="DejaVuSans-Bold-41" d="M 3419 850 
L 1538 850 
L 1241 0 
L 31 0 
L 1759 4666 
L 3194 4666 
L 4922 0 
L 3713 0 
L 3419 850 
z
M 1838 1716 
L 3116 1716 
L 2478 3572 
L 1838 1716 
z
" transform="scale(0.015625)"/>
      <path id="DejaVuSans-Bold-63" d="M 3366 3391 
L 3366 2478 
Q 3138 2634 2908 2709 
Q 2678 2784 2431 2784 
Q 1963 2784 1702 2511 
Q 1441 2238 1441 1747 
Q 1441 1256 1702 982 
Q 1963 709 2431 709 
Q 2694 709 2930 787 
Q 3166 866 3366 1019 
L 3366 103 
Q 3103 6 2833 -42 
Q 2563 -91 2291 -91 
Q 1344 -91 809 395 
Q 275 881 275 1747 
Q 275 2613 809 3098 
Q 1344 3584 2291 3584 
Q 2566 3584 2833 3536 
Q 3100 3488 3366 3391 
z
" transform="scale(0.015625)"/>
      <path id="DejaVuSans-Bold-75" d="M 500 1363 
L 500 3500 
L 1625 3500 
L 1625 3150 
Q 1625 2866 1622 2436 
Q 1619 2006 1619 1863 
Q 1619 1441 1641 1255 
Q 1663 1069 1716 984 
Q 1784 875 1895 815 
Q 2006 756 2150 756 
Q 2500 756 2700 1025 
Q 2900 1294 2900 1772 
L 2900 3500 
L 4019 3500 
L 4019 0 
L 2900 0 
L 2900 506 
Q 2647 200 2364 54 
Q 2081 -91 1741 -91 
Q 1134 -91 817 281 
Q 500 653 500 1363 
z
" transform="scale(0.015625)"/>
      <path id="DejaVuSans-Bold-79" d="M 78 3500 
L 1197 3500 
L 2138 1125 
L 2938 3500 
L 4056 3500 
L 2584 -331 
Q 2363 -916 2067 -1148 
Q 1772 -1381 1288 -1381 
L 641 -1381 
L 641 -647 
L 991 -647 
Q 1275 -647 1404 -556 
Q 1534 -466 1606 -231 
L 1638 -134 
L 78 3500 
z
" transform="scale(0.015625)"/>
     </defs>
     <use xlink:href="#DejaVuSans-Bold-54"/>
     <use xlink:href="#DejaVuSans-Bold-72" transform="translate(57.212891 0)"/>
     <use xlink:href="#DejaVuSans-Bold-61" transform="translate(106.529297 0)"/>
     <use xlink:href="#DejaVuSans-Bold-69" transform="translate(174.009766 0)"/>
     <use xlink:href="#DejaVuSans-Bold-6e" transform="translate(208.287109 0)"/>
     <use xlink:href="#DejaVuSans-Bold-69" transform="translate(279.478516 0)"/>
     <use xlink:href="#DejaVuSans-Bold-6e" transform="translate(313.755859 0)"/>
     <use xlink:href="#DejaVuSans-Bold-67" transform="translate(384.947266 0)"/>
     <use xlink:href="#DejaVuSans-Bold-20" transform="translate(456.529297 0)"/>
     <use xlink:href="#DejaVuSans-Bold-50" transform="translate(491.34375 0)"/>
     <use xlink:href="#DejaVuSans-Bold-72" transform="translate(564.634766 0)"/>
     <use xlink:href="#DejaVuSans-Bold-6f" transform="translate(613.951172 0)"/>
     <use xlink:href="#DejaVuSans-Bold-67" transform="translate(682.652344 0)"/>
     <use xlink:href="#DejaVuSans-Bold-72" transform="translate(754.234375 0)"/>
     <use xlink:href="#DejaVuSans-Bold-65" transform="translate(803.550781 0)"/>
     <use xlink:href="#DejaVuSans-Bold-73" transform="translate(871.373047 0)"/>
     <use xlink:href="#DejaVuSans-Bold-73" transform="translate(930.894531 0)"/>
     <use xlink:href="#DejaVuSans-Bold-3a" transform="translate(990.416016 0)"/>
     <use xlink:href="#DejaVuSans-Bold-20" transform="translate(1030.40625 0)"/>
     <use xlink:href="#DejaVuSans-Bold-41" transform="translate(1065.220703 0)"/>
     <use xlink:href="#DejaVuSans-Bold-63" transform="translate(1142.613281 0)"/>
     <use xlink:href="#DejaVuSans-Bold-63" transform="translate(1201.890625 0)"/>
     <use xlink:href="#DejaVuSans-Bold-75" transform="translate(1261.167969 0)"/>
     <use xlink:href="#DejaVuSans-Bold-72" transform="translate(1332.359375 0)"/>
     <use xlink:href="#DejaVuSans-Bold-61" transform="translate(1381.675781 0)"/>
     <use xlink:href="#DejaVuSans-Bold-63" transform="translate(1449.15625 0)"/>
     <use xlink:href="#DejaVuSans-Bold-79" transform="translate(1508.433594 0)"/>
    </g>
   </g>
   <g id="legend_1">
    <g id="patch_7">
     <path d="M 846.475455 593.894375 
L 1023.355455 593.894375 
Q 1029.755455 593.894375 1029.755455 587.494375 
L 1029.755455 496.754375 
Q 1029.755455 490.354375 1023.355455 490.354375 
L 846.475455 490.354375 
Q 840.075455 490.354375 840.075455 496.754375 
L 840.075455 587.494375 
Q 840.075455 593.894375 846.475455 593.894375 
z
" style="fill: #ffffff; opacity: 0.8; stroke: #cccccc; stroke-width: 1.5; stroke-linejoin: miter"/>
    </g>
    <g id="line2d_17">
     <path d="M 852.875455 516.269375 
L 884.875455 516.269375 
L 916.875455 516.269375 
" style="fill: none; stroke: #4c72b0; stroke-width: 6; stroke-linecap: round"/>
    </g>
    <g id="text_16">
     <!-- train -->
     <g style="fill: #262626" transform="translate(942.475455 527.469375) scale(0.32 -0.32)">
      <defs>
       <path id="DejaVuSans-74" d="M 1172 4494 
L 1172 3500 
L 2356 3500 
L 2356 3053 
L 1172 3053 
L 1172 1153 
Q 1172 725 1289 603 
Q 1406 481 1766 481 
L 2356 481 
L 2356 0 
L 1766 0 
Q 1100 0 847 248 
Q 594 497 594 1153 
L 594 3053 
L 172 3053 
L 172 3500 
L 594 3500 
L 594 4494 
L 1172 4494 
z
" transform="scale(0.015625)"/>
       <path id="DejaVuSans-69" d="M 603 3500 
L 1178 3500 
L 1178 0 
L 603 0 
L 603 3500 
z
M 603 4863 
L 1178 4863 
L 1178 4134 
L 603 4134 
L 603 4863 
z
" transform="scale(0.015625)"/>
       <path id="DejaVuSans-6e" d="M 3513 2113 
L 3513 0 
L 2938 0 
L 2938 2094 
Q 2938 2591 2744 2837 
Q 2550 3084 2163 3084 
Q 1697 3084 1428 2787 
Q 1159 2491 1159 1978 
L 1159 0 
L 581 0 
L 581 3500 
L 1159 3500 
L 1159 2956 
Q 1366 3272 1645 3428 
Q 1925 3584 2291 3584 
Q 2894 3584 3203 3211 
Q 3513 2838 3513 2113 
z
" transform="scale(0.015625)"/>
      </defs>
      <use xlink:href="#DejaVuSans-74"/>
      <use xlink:href="#DejaVuSans-72" transform="translate(39.208984 0)"/>
      <use xlink:href="#DejaVuSans-61" transform="translate(80.322266 0)"/>
      <use xlink:href="#DejaVuSans-69" transform="translate(141.601562 0)"/>
      <use xlink:href="#DejaVuSans-6e" transform="translate(169.384766 0)"/>
     </g>
    </g>
    <g id="line2d_18">
     <path d="M 852.875455 563.239375 
L 884.875455 563.239375 
L 916.875455 563.239375 
" style="fill: none; stroke: #dd8452; stroke-width: 6; stroke-linecap: round"/>
    </g>
    <g id="text_17">
     <!-- val -->
     <g style="fill: #262626" transform="translate(942.475455 574.439375) scale(0.32 -0.32)">
      <defs>
       <path id="DejaVuSans-76" d="M 191 3500 
L 800 3500 
L 1894 563 
L 2988 3500 
L 3597 3500 
L 2284 0 
L 1503 0 
L 191 3500 
z
" transform="scale(0.015625)"/>
       <path id="DejaVuSans-6c" d="M 603 4863 
L 1178 4863 
L 1178 0 
L 603 0 
L 603 4863 
z
" transform="scale(0.015625)"/>
      </defs>
      <use xlink:href="#DejaVuSans-76"/>
      <use xlink:href="#DejaVuSans-61" transform="translate(59.179688 0)"/>
      <use xlink:href="#DejaVuSans-6c" transform="translate(120.458984 0)"/>
     </g>
    </g>
   </g>
  </g>
 </g>
 <defs>
  <clipPath id="p6f2cb858ad">
   <rect x="115.75" y="54.554375" width="930.005455" height="555.34"/>
  </clipPath>
 </defs>
</svg>
