<?xml version="1.0" encoding="utf-8" standalone="no"?>
<!DOCTYPE svg PUBLIC "-//W3C//DTD SVG 1.1//EN"
  "http://www.w3.org/Graphics/SVG/1.1/DTD/svg11.dtd">
<svg xmlns:xlink="http://www.w3.org/1999/xlink" width="1052.845455pt" height="695.534375pt" viewBox="0 0 1052.845455 695.534375" xmlns="http://www.w3.org/2000/svg" version="1.1">
 <metadata>
  <rdf:RDF xmlns:dc="http://purl.org/dc/elements/1.1/" xmlns:cc="http://creativecommons.org/ns#" xmlns:rdf="http://www.w3.org/1999/02/22-rdf-syntax-ns#">
   <cc:Work>
    <dc:type rdf:resource="http://purl.org/dc/dcmitype/StillImage"/>
    <dc:date>2026-04-10T18:26:10.846941</dc:date>
    <dc:format>image/svg+xml</dc:format>
    <dc:creator>
     <cc:Agent>
      <dc:title>Matplotlib v3.10.8, https://matplotlib.org/</dc:title>
     </cc:Agent>
    </dc:creator>
   </cc:Work>
  </rdf:RDF>
 </metadata>
 <defs>
  <style type="text/css">*{stroke-linejoin: round; stroke-linecap: butt}</style>
 </defs>
 <g id="figure_1">
  <g id="patch_1">
   <path d="M 0 695.534375 
L 1052.845455 695.534375 
L 1052.845455 0 
L 0 0 
z
" style="fill: #ffffff"/>
  </g>
  <g id="axes_1">
   <g id="patch_2">
    <path d="M 95.39 609.894375 
L 1045.645455 609.894375 
L 1045.645455 54.554375 
L 95.39 54.554375 
z
" style="fill: #ffffff"/>
   </g>
   <g id="matplotlib.axis_1">
    <g id="xtick_1">
     <g id="line2d_1">
      <path d="M 137.718696 609.894375 
L 137.718696 54.554375 
" clip-path="url(#pac2c854ad8)" style="fill: none; stroke: #cccccc; stroke-opacity: 0.3; stroke-width: 1.5; stroke-linecap: round"/>
     </g>
     <g id="text_1">
      <!-- 0 -->
      <g style="fill: #262626" transform="translate(127.538696 646.709375) scale(0.32 -0.32)">
       <defs>
        <path id="DejaVuSans-30" d="M 2034 4250 
Q 1547 4250 1301 3770 
Q 1056 3291 1056 2328 
Q 1056 1369 1301 889 
Q 1547 409 2034 409 
Q 2525 409 2770 889 
Q 3016 1369 3016 2328 
Q 3016 3291 2770 3770 
Q 2525 4250 2034 4250 
z
M 2034 4750 
Q 2819 4750 3233 4129 
Q 3647 3509 3647 2328 
Q 3647 1150 3233 529 
Q 2819 -91 2034 -91 
Q 1250 -91 836 529 
Q 422 1150 422 2328 
Q 422 3509 836 4129 
Q 1250 4750 2034 4750 
z
" transform="scale(0.015625)"/>
       </defs>
       <use xlink:href="#DejaVuSans-30"/>
      </g>
     </g>
    </g>
    <g id="xtick_2">
     <g id="line2d_2">
      <path d="M 310.665362 609.894375 
L 310.665362 54.554375 
" clip-path="url(#pac2c854ad8)" style="fill: none; stroke: #cccccc; stroke-opacity: 0.3; stroke-width: 1.5; stroke-linecap: round"/>
     </g>
     <g id="text_2">
      <!-- 200 -->
      <g style="fill: #262626" transform="translate(280.125362 646.709375) scale(0.32 -0.32)">
       <defs>
        <path id="DejaVuSans-32" d="M 1228 531 
L 3431 531 
L 3431 0 
L 469 0 
L 469 531 
Q 828 903 1448 1529 
Q 2069 2156 2228 2338 
Q 2531 2678 2651 2914 
Q 2772 3150 2772 3378 
Q 2772 3750 2511 3984 
Q 2250 4219 1831 4219 
Q 1534 4219 1204 4116 
Q 875 4013 500 3803 
L 500 4441 
Q 881 4594 1212 4672 
Q 1544 4750 1819 4750 
Q 2544 4750 2975 4387 
Q 3406 4025 3406 3419 
Q 3406 3131 3298 2873 
Q 3191 2616 2906 2266 
Q 2828 2175 2409 1742 
Q 1991 1309 1228 531 
z
" transform="scale(0.015625)"/>
       </defs>
       <use xlink:href="#DejaVuSans-32"/>
       <use xlink:href="#DejaVuSans-30" transform="translate(63.623047 0)"/>
       <use xlink:href="#DejaVuSans-30" transform="translate(127.246094 0)"/>
      </g>
     </g>
    </g>
    <g id="xtick_3">
     <g id="line2d_3">
      <path d="M 483.612028 609.894375 
L 483.612028 54.554375 
" clip-path="url(#pac2c854ad8)" style="fill: none; stroke: #cccccc; stroke-opacity: 0.3; stroke-width: 1.5; stroke-linecap: round"/>
     </g>
     <g id="text_3">
      <!-- 400 -->
      <g style="fill: #262626" transform="translate(453.072028 646.709375) scale(0.32 -0.32)">
       <defs>
        <path id="DejaVuSans-34" d="M 2419 4116 
L 825 1625 
L 2419 1625 
L 2419 4116 
z
M 2253 4666 
L 3047 4666 
L 3047 1625 
L 3713 1625 
L 3713 1100 
L 3047 1100 
L 3047 0 
L 2419 0 
L 2419 1100 
L 313 1100 
L 313 1709 
L 2253 4666 
z
" transform="scale(0.015625)"/>
       </defs>
       <use xlink:href="#DejaVuSans-34"/>
       <use xlink:href="#DejaVuSans-30" transform="translate(63.623047 0)"/>
       <use xlink:href="#DejaVuSans-30" transform="translate(127.246094 0)"/>
      </g>
     </g>
    </g>
    <g id="xtick_4">
     <g id="line2d_4">
      <path d="M 656.558693 609.894375 
L 656.558693 54.554375 
" clip-path="url(#pac2c854ad8)" style="fill: none; stroke: #cccccc; stroke-opacity: 0.3; stroke-width: 1.5; stroke-linecap: round"/>
     </g>
     <g id="text_4">
      <!-- 600 -->
      <g style="fill: #262626" transform="translate(626.018693 646.709375) scale(0.32 -0.32)">
       <defs>
        <path id="DejaVuSans-36" d="M 2113 2584 
Q 1688 2584 1439 2293 
Q 1191 2003 1191 1497 
Q 1191 994 1439 701 
Q 1688 409 2113 409 
Q 2538 409 2786 701 
Q 3034 994 3034 1497 
Q 3034 2003 2786 2293 
Q 2538 2584 2113 2584 
z
M 3366 4563 
L 3366 3988 
Q 3128 4100 2886 4159 
Q 2644 4219 2406 4219 
Q 1781 4219 1451 3797 
Q 1122 3375 1075 2522 
Q 1259 2794 1537 2939 
Q 1816 3084 2150 3084 
Q 2853 3084 3261 2657 
Q 3669 2231 3669 1497 
Q 3669 778 3244 343 
Q 2819 -91 2113 -91 
Q 1303 -91 875 529 
Q 447 1150 447 2328 
Q 447 3434 972 4092 
Q 1497 4750 2381 4750 
Q 2619 4750 2861 4703 
Q 3103 4656 3366 4563 
z
" transform="scale(0.015625)"/>
       </defs>
       <use xlink:href="#DejaVuSans-36"/>
       <use xlink:href="#DejaVuSans-30" transform="translate(63.623047 0)"/>
       <use xlink:href="#DejaVuSans-30" transform="translate(127.246094 0)"/>
      </g>
     </g>
    </g>
    <g id="xtick_5">
     <g id="line2d_5">
      <path d="M 829.505359 609.894375 
L 829.505359 54.554375 
" clip-path="url(#pac2c854ad8)" style="fill: none; stroke: #cccccc; stroke-opacity: 0.3; stroke-width: 1.5; stroke-linecap: round"/>
     </g>
     <g id="text_5">
      <!-- 800 -->
      <g style="fill: #262626" transform="translate(798.965359 646.709375) scale(0.32 -0.32)">
       <defs>
        <path id="DejaVuSans-38" d="M 2034 2216 
Q 1584 2216 1326 1975 
Q 1069 1734 1069 1313 
Q 1069 891 1326 650 
Q 1584 409 2034 409 
Q 2484 409 2743 651 
Q 3003 894 3003 1313 
Q 3003 1734 2745 1975 
Q 2488 2216 2034 2216 
z
M 1403 2484 
Q 997 2584 770 2862 
Q 544 3141 544 3541 
Q 544 4100 942 4425 
Q 1341 4750 2034 4750 
Q 2731 4750 3128 4425 
Q 3525 4100 3525 3541 
Q 3525 3141 3298 2862 
Q 3072 2584 2669 2484 
Q 3125 2378 3379 2068 
Q 3634 1759 3634 1313 
Q 3634 634 3220 271 
Q 2806 -91 2034 -91 
Q 1263 -91 848 271 
Q 434 634 434 1313 
Q 434 1759 690 2068 
Q 947 2378 1403 2484 
z
M 1172 3481 
Q 1172 3119 1398 2916 
Q 1625 2713 2034 2713 
Q 2441 2713 2670 2916 
Q 2900 3119 2900 3481 
Q 2900 3844 2670 4047 
Q 2441 4250 2034 4250 
Q 1625 4250 1398 4047 
Q 1172 3844 1172 3481 
z
" transform="scale(0.015625)"/>
       </defs>
       <use xlink:href="#DejaVuSans-38"/>
       <use xlink:href="#DejaVuSans-30" transform="translate(63.623047 0)"/>
       <use xlink:href="#DejaVuSans-30" transform="translate(127.246094 0)"/>
      </g>
     </g>
    </g>
    <g id="xtick_6">
     <g id="line2d_6">
      <path d="M 1002.452025 609.894375 
L 1002.452025 54.554375 
" clip-path="url(#pac2c854ad8)" style="fill: none; stroke: #cccccc; stroke-opacity: 0.3; stroke-width: 1.5; stroke-linecap: round"/>
     </g>
     <g id="text_6">
      <!-- 1000 -->
      <g style="fill: #262626" transform="translate(961.732025 646.709375) scale(0.32 -0.32)">
       <defs>
        <path id="DejaVuSans-31" d="M 794 531 
L 1825 531 
L 1825 4091 
L 703 3866 
L 703 4441 
L 1819 4666 
L 2450 4666 
L 2450 531 
L 3481 531 
L 3481 0 
L 794 0 
L 794 531 
z
" transform="scale(0.015625)"/>
       </defs>
       <use xlink:href="#DejaVuSans-31"/>
       <use xlink:href="#DejaVuSans-30" transform="translate(63.623047 0)"/>
       <use xlink:href="#DejaVuSans-30" transform="translate(127.246094 0)"/>
       <use xlink:href="#DejaVuSans-30" transform="translate(190.869141 0)"/>
      </g>
     </g>
    </g>
    <g id="text_7">
     <!-- Epoch -->
     <g style="fill: #262626" transform="translate(521.522727 681.679375) scale(0.32 -0.32)">
      <defs>
       <path id="DejaVuSans-45" d="M 628 4666 
L 3578 4666 
L 3578 4134 
L 1259 4134 
L 1259 2753 
L 3481 2753 
L 3481 2222 
L 1259 2222 
L 1259 531 
L 3634 531 
L 3634 0 
L 628 0 
L 628 4666 
z
" transform="scale(0.015625)"/>
       <path id="DejaVuSans-70" d="M 1159 525 
L 1159 -1331 
L 581 -1331 
L 581 3500 
L 1159 3500 
L 1159 2969 
Q 1341 3281 1617 3432 
Q 1894 3584 2278 3584 
Q 2916 3584 3314 3078 
Q 3713 2572 3713 1747 
Q 3713 922 3314 415 
Q 2916 -91 2278 -91 
Q 1894 -91 1617 61 
Q 1341 213 1159 525 
z
M 3116 1747 
Q 3116 2381 2855 2742 
Q 2594 3103 2138 3103 
Q 1681 3103 1420 2742 
Q 1159 2381 1159 1747 
Q 1159 1113 1420 752 
Q 1681 391 2138 391 
Q 2594 391 2855 752 
Q 3116 1113 3116 1747 
z
" transform="scale(0.015625)"/>
       <path id="DejaVuSans-6f" d="M 1959 3097 
Q 1497 3097 1228 2736 
Q 959 2375 959 1747 
Q 959 1119 1226 758 
Q 1494 397 1959 397 
Q 2419 397 2687 759 
Q 2956 1122 2956 1747 
Q 2956 2369 2687 2733 
Q 2419 3097 1959 3097 
z
M 1959 3584 
Q 2709 3584 3137 3096 
Q 3566 2609 3566 1747 
Q 3566 888 3137 398 
Q 2709 -91 1959 -91 
Q 1206 -91 779 398 
Q 353 888 353 1747 
Q 353 2609 779 3096 
Q 1206 3584 1959 3584 
z
" transform="scale(0.015625)"/>
       <path id="DejaVuSans-63" d="M 3122 3366 
L 3122 2828 
Q 2878 2963 2633 3030 
Q 2388 3097 2138 3097 
Q 1578 3097 1268 2742 
Q 959 2388 959 1747 
Q 959 1106 1268 751 
Q 1578 397 2138 397 
Q 2388 397 2633 464 
Q 2878 531 3122 666 
L 3122 134 
Q 2881 22 2623 -34 
Q 2366 -91 2075 -91 
Q 1284 -91 818 406 
Q 353 903 353 1747 
Q 353 2603 823 3093 
Q 1294 3584 2113 3584 
Q 2378 3584 2631 3529 
Q 2884 3475 3122 3366 
z
" transform="scale(0.015625)"/>
       <path id="DejaVuSans-68" d="M 3513 2113 
L 3513 0 
L 2938 0 
L 2938 2094 
Q 2938 2591 2744 2837 
Q 2550 3084 2163 3084 
Q 1697 3084 1428 2787 
Q 1159 2491 1159 1978 
L 1159 0 
L 581 0 
L 581 4863 
L 1159 4863 
L 1159 2956 
Q 1366 3272 1645 3428 
Q 1925 3584 2291 3584 
Q 2894 3584 3203 3211 
Q 3513 2838 3513 2113 
z
" transform="scale(0.015625)"/>
      </defs>
      <use xlink:href="#DejaVuSans-45"/>
      <use xlink:href="#DejaVuSans-70" transform="translate(63.183594 0)"/>
      <use xlink:href="#DejaVuSans-6f" transform="translate(126.660156 0)"/>
      <use xlink:href="#DejaVuSans-63" transform="translate(187.841797 0)"/>
      <use xlink:href="#DejaVuSans-68" transform="translate(242.822266 0)"/>
     </g>
    </g>
   </g>
   <g id="matplotlib.axis_2">
    <g id="ytick_1">
     <g id="line2d_7">
      <path d="M 95.39 585.812659 
L 1045.645455 585.812659 
" clip-path="url(#pac2c854ad8)" style="fill: none; stroke: #cccccc; stroke-opacity: 0.3; stroke-width: 1.5; stroke-linecap: round"/>
     </g>
     <g id="text_8">
      <!-- 0 -->
      <g style="fill: #262626" transform="translate(62.53 597.970159) scale(0.32 -0.32)">
       <use xlink:href="#DejaVuSans-30"/>
      </g>
     </g>
    </g>
    <g id="ytick_2">
     <g id="line2d_8">
      <path d="M 95.39 501.182809 
L 1045.645455 501.182809 
" clip-path="url(#pac2c854ad8)" style="fill: none; stroke: #cccccc; stroke-opacity: 0.3; stroke-width: 1.5; stroke-linecap: round"/>
     </g>
     <g id="text_9">
      <!-- 2 -->
      <g style="fill: #262626" transform="translate(62.53 513.340309) scale(0.32 -0.32)">
       <use xlink:href="#DejaVuSans-32"/>
      </g>
     </g>
    </g>
    <g id="ytick_3">
     <g id="line2d_9">
      <path d="M 95.39 416.55296 
L 1045.645455 416.55296 
" clip-path="url(#pac2c854ad8)" style="fill: none; stroke: #cccccc; stroke-opacity: 0.3; stroke-width: 1.5; stroke-linecap: round"/>
     </g>
     <g id="text_10">
      <!-- 4 -->
      <g style="fill: #262626" transform="translate(62.53 428.71046) scale(0.32 -0.32)">
       <use xlink:href="#DejaVuSans-34"/>
      </g>
     </g>
    </g>
    <g id="ytick_4">
     <g id="line2d_10">
      <path d="M 95.39 331.923111 
L 1045.645455 331.923111 
" clip-path="url(#pac2c854ad8)" style="fill: none; stroke: #cccccc; stroke-opacity: 0.3; stroke-width: 1.5; stroke-linecap: round"/>
     </g>
     <g id="text_11">
      <!-- 6 -->
      <g style="fill: #262626" transform="translate(62.53 344.080611) scale(0.32 -0.32)">
       <use xlink:href="#DejaVuSans-36"/>
      </g>
     </g>
    </g>
    <g id="ytick_5">
     <g id="line2d_11">
      <path d="M 95.39 247.293262 
L 1045.645455 247.293262 
" clip-path="url(#pac2c854ad8)" style="fill: none; stroke: #cccccc; stroke-opacity: 0.3; stroke-width: 1.5; stroke-linecap: round"/>
     </g>
     <g id="text_12">
      <!-- 8 -->
      <g style="fill: #262626" transform="translate(62.53 259.450762) scale(0.32 -0.32)">
       <use xlink:href="#DejaVuSans-38"/>
      </g>
     </g>
    </g>
    <g id="ytick_6">
     <g id="line2d_12">
      <path d="M 95.39 162.663413 
L 1045.645455 162.663413 
" clip-path="url(#pac2c854ad8)" style="fill: none; stroke: #cccccc; stroke-opacity: 0.3; stroke-width: 1.5; stroke-linecap: round"/>
     </g>
     <g id="text_13">
      <!-- 10 -->
      <g style="fill: #262626" transform="translate(42.17 174.820913) scale(0.32 -0.32)">
       <use xlink:href="#DejaVuSans-31"/>
       <use xlink:href="#DejaVuSans-30" transform="translate(63.623047 0)"/>
      </g>
     </g>
    </g>
    <g id="ytick_7">
     <g id="line2d_13">
      <path d="M 95.39 78.033563 
L 1045.645455 78.033563 
" clip-path="url(#pac2c854ad8)" style="fill: none; stroke: #cccccc; stroke-opacity: 0.3; stroke-width: 1.5; stroke-linecap: round"/>
     </g>
     <g id="text_14">
      <!-- 12 -->
      <g style="fill: #262626" transform="translate(42.17 90.191063) scale(0.32 -0.32)">
       <use xlink:href="#DejaVuSans-31"/>
       <use xlink:href="#DejaVuSans-32" transform="translate(63.623047 0)"/>
      </g>
     </g>
    </g>
    <g id="text_15">
     <!-- Loss -->
     <g style="fill: #262626" transform="translate(31.515 367.319375) rotate(-90) scale(0.32 -0.32)">
      <defs>
       <path id="DejaVuSans-4c" d="M 628 4666 
L 1259 4666 
L 1259 531 
L 3531 531 
L 3531 0 
L 628 0 
L 628 4666 
z
" transform="scale(0.015625)"/>
       <path id="DejaVuSans-73" d="M 2834 3397 
L 2834 2853 
Q 2591 2978 2328 3040 
Q 2066 3103 1784 3103 
Q 1356 3103 1142 2972 
Q 928 2841 928 2578 
Q 928 2378 1081 2264 
Q 1234 2150 1697 2047 
L 1894 2003 
Q 2506 1872 2764 1633 
Q 3022 1394 3022 966 
Q 3022 478 2636 193 
Q 2250 -91 1575 -91 
Q 1294 -91 989 -36 
Q 684 19 347 128 
L 347 722 
Q 666 556 975 473 
Q 1284 391 1588 391 
Q 1994 391 2212 530 
Q 2431 669 2431 922 
Q 2431 1156 2273 1281 
Q 2116 1406 1581 1522 
L 1381 1569 
Q 847 1681 609 1914 
Q 372 2147 372 2553 
Q 372 3047 722 3315 
Q 1072 3584 1716 3584 
Q 2034 3584 2315 3537 
Q 2597 3491 2834 3397 
z
" transform="scale(0.015625)"/>
      </defs>
      <use xlink:href="#DejaVuSans-4c"/>
      <use xlink:href="#DejaVuSans-6f" transform="translate(53.962891 0)"/>
      <use xlink:href="#DejaVuSans-73" transform="translate(115.144531 0)"/>
      <use xlink:href="#DejaVuSans-73" transform="translate(167.244141 0)"/>
     </g>
    </g>
   </g>
   <g id="FillBetweenPolyCollection_1"/>
   <g id="FillBetweenPolyCollection_2"/>
   <g id="line2d_14">
    <path d="M 138.58343 302.921753 
L 139.448163 376.705622 
L 140.312896 383.497028 
L 141.17763 385.247492 
L 142.042363 386.08013 
L 142.907096 386.572719 
L 143.77183 388.627719 
L 144.636563 393.556213 
L 146.36603 410.223494 
L 148.095496 434.165498 
L 148.96023 443.377881 
L 149.824963 454.392927 
L 150.689696 461.242091 
L 151.55443 464.309085 
L 152.419163 471.213696 
L 153.283896 475.6757 
L 154.14863 479.49658 
L 155.013363 475.922802 
L 155.878096 482.491925 
L 156.74283 485.997342 
L 157.607563 487.229925 
L 159.33703 490.628735 
L 160.201763 494.283949 
L 161.066496 495.972226 
L 161.93123 495.766861 
L 162.795963 497.431915 
L 163.660696 499.547094 
L 164.52543 500.206075 
L 165.390163 503.504216 
L 166.254896 503.553802 
L 167.984363 504.905844 
L 169.71383 508.667983 
L 170.578563 506.603625 
L 173.172763 510.520958 
L 174.037496 512.768657 
L 174.90223 509.57685 
L 175.766963 511.602947 
L 176.631696 514.153149 
L 177.49643 514.025497 
L 178.361163 516.237851 
L 179.225896 517.558729 
L 180.09063 516.368993 
L 180.955363 520.094444 
L 181.820096 518.944382 
L 182.684829 518.608102 
L 183.549563 520.944424 
L 184.414296 521.905612 
L 185.279029 520.080971 
L 186.143763 518.810516 
L 187.008496 524.268024 
L 187.873229 523.03302 
L 188.737963 523.055387 
L 189.602696 524.079875 
L 190.467429 524.740874 
L 191.332163 524.309554 
L 192.196896 525.160185 
L 193.926363 528.290122 
L 194.791096 528.265702 
L 195.655829 531.783029 
L 196.520563 529.186258 
L 197.385296 529.673611 
L 198.250029 532.119345 
L 199.114763 528.298591 
L 199.979496 530.564389 
L 200.844229 534.551798 
L 201.708963 533.325445 
L 202.573696 529.529313 
L 203.438429 533.133009 
L 204.303163 534.944544 
L 205.167896 534.526743 
L 206.032629 533.506748 
L 206.897363 534.714195 
L 207.762096 537.039223 
L 208.626829 534.214246 
L 209.491563 535.950147 
L 210.356296 541.31772 
L 211.221029 529.200816 
L 212.085763 531.544332 
L 212.950496 532.575106 
L 213.815229 531.176196 
L 214.679963 531.292367 
L 215.544696 540.406961 
L 216.409429 542.716402 
L 217.274163 540.814407 
L 218.138896 539.954787 
L 219.003629 543.268969 
L 219.868363 538.19322 
L 220.733096 538.906756 
L 221.597829 539.201855 
L 222.462563 541.66766 
L 224.192029 540.941791 
L 225.056763 540.952404 
L 225.921496 539.250406 
L 226.786229 541.263145 
L 228.515696 546.259635 
L 229.380429 542.655805 
L 230.245163 545.414812 
L 231.974629 542.439801 
L 232.839363 544.333229 
L 233.704096 546.67272 
L 234.568829 541.757414 
L 235.433563 547.460912 
L 236.298296 545.634561 
L 237.163029 550.590733 
L 238.027763 539.630129 
L 238.892496 542.439428 
L 239.757229 549.702921 
L 240.621962 543.086939 
L 241.486696 539.475893 
L 242.351429 543.336351 
L 243.216162 548.278848 
L 244.080896 545.366435 
L 244.945629 547.382299 
L 245.810362 548.001198 
L 246.675096 550.08851 
L 247.539829 542.85782 
L 248.404562 546.219083 
L 249.269296 548.809141 
L 250.134029 549.433485 
L 250.998762 549.651892 
L 251.863496 552.618651 
L 252.728229 545.719901 
L 253.592962 547.332677 
L 254.457696 550.968135 
L 255.322429 550.624525 
L 256.187162 558.44099 
L 257.051896 539.926382 
L 257.916629 524.719784 
L 258.781362 545.604618 
L 259.646096 552.689695 
L 260.510829 554.975211 
L 261.375562 554.700865 
L 262.240296 555.33913 
L 263.105029 547.89539 
L 263.969762 545.047431 
L 264.834496 552.006105 
L 266.563962 556.201214 
L 267.428696 546.121526 
L 268.293429 554.630439 
L 269.158162 553.117389 
L 270.022896 548.956501 
L 271.752362 552.045428 
L 272.617096 554.056417 
L 273.481829 547.513824 
L 274.346562 550.5778 
L 275.211296 556.462091 
L 276.076029 543.687976 
L 277.805496 557.90469 
L 278.670229 558.203894 
L 279.534962 561.562789 
L 280.399696 546.810024 
L 281.264429 547.986834 
L 282.129162 558.310751 
L 282.993896 557.524082 
L 283.858629 549.602362 
L 284.723362 553.955015 
L 285.588096 554.761758 
L 286.452829 560.086156 
L 287.317562 558.644499 
L 288.182296 551.264512 
L 289.047029 550.573378 
L 289.911762 560.3867 
L 290.776496 545.766662 
L 291.641229 556.426627 
L 292.505962 563.691719 
L 293.370696 561.336863 
L 294.235429 550.580756 
L 295.100162 558.572367 
L 295.964896 555.749731 
L 296.829629 562.275848 
L 297.694362 548.173926 
L 298.559096 545.788426 
L 299.423829 558.202731 
L 300.288562 565.331571 
L 301.153295 567.274937 
L 302.018029 546.78796 
L 302.882762 544.983615 
L 303.747495 559.087104 
L 304.612229 566.193503 
L 305.476962 561.820912 
L 306.341695 565.09354 
L 307.206429 558.884493 
L 308.071162 559.74921 
L 308.935895 541.680191 
L 309.800629 555.953635 
L 310.665362 561.101076 
L 311.530095 563.003586 
L 312.394829 558.064456 
L 313.259562 557.964263 
L 314.124295 561.283176 
L 314.989029 563.327465 
L 315.853762 539.962409 
L 316.718495 553.507898 
L 317.583229 563.514554 
L 318.447962 561.254885 
L 319.312695 556.647483 
L 320.177429 564.137411 
L 321.042162 569.025999 
L 321.906895 568.313849 
L 322.771629 538.437492 
L 325.365829 565.013403 
L 326.230562 569.572237 
L 327.095295 566.95445 
L 327.960029 566.579909 
L 328.824762 548.292599 
L 329.689495 522.896742 
L 330.554229 556.109432 
L 331.418962 563.939108 
L 332.283695 564.327494 
L 333.148429 559.523476 
L 334.013162 536.296804 
L 334.877895 547.019276 
L 335.742629 562.199888 
L 336.607362 564.465931 
L 337.472095 568.219948 
L 338.336829 570.194087 
L 339.201562 570.897332 
L 340.066295 568.21994 
L 340.931029 531.223532 
L 341.795762 539.43913 
L 343.525229 564.118729 
L 344.389962 570.07593 
L 345.254695 571.892421 
L 346.119429 569.405655 
L 346.984162 566.159721 
L 347.848895 513.910335 
L 348.713629 542.676154 
L 349.578362 558.747597 
L 350.443095 565.287718 
L 351.307829 569.777074 
L 352.172562 572.659459 
L 353.037295 561.372239 
L 353.902029 540.611241 
L 354.766762 554.349578 
L 355.631495 563.493096 
L 357.360962 571.000483 
L 358.225695 573.216541 
L 359.090428 526.848346 
L 359.955162 520.796812 
L 360.819895 555.644266 
L 361.684628 566.452643 
L 362.549362 571.065217 
L 363.414095 573.616507 
L 364.278828 574.430362 
L 365.143562 574.107227 
L 366.008295 547.344501 
L 366.873028 509.094547 
L 367.737762 553.714318 
L 368.602495 565.008394 
L 369.467228 569.920363 
L 370.331962 573.073731 
L 371.196695 574.55843 
L 372.061428 574.992338 
L 372.926162 517.640059 
L 373.790895 510.911097 
L 374.655628 555.679685 
L 375.520362 567.738021 
L 376.385095 573.381476 
L 377.249828 574.683276 
L 378.114562 574.617206 
L 378.979295 575.754371 
L 379.844028 567.098979 
L 380.708762 514.531499 
L 381.573495 550.895812 
L 382.438228 564.302595 
L 383.302962 571.001115 
L 384.167695 572.81077 
L 385.897162 574.689323 
L 386.761895 525.615774 
L 387.626628 511.50946 
L 388.491362 554.991858 
L 389.356095 562.462234 
L 390.220828 567.778981 
L 391.085562 570.133091 
L 391.950295 574.017069 
L 392.815028 575.39402 
L 393.679762 574.707433 
L 394.544495 572.729533 
L 395.409228 514.653234 
L 396.273962 555.047159 
L 397.138695 565.326378 
L 398.003428 571.536248 
L 398.868162 574.817215 
L 399.732895 575.131985 
L 400.597628 573.842416 
L 401.462362 523.463523 
L 402.327095 549.470112 
L 403.191828 564.635854 
L 404.056562 570.684801 
L 404.921295 574.313611 
L 405.786028 576.141378 
L 406.650762 576.992656 
L 407.515495 542.154529 
L 408.380228 539.158413 
L 409.244962 561.198439 
L 410.109695 570.575211 
L 410.974428 573.824252 
L 411.839162 576.018868 
L 412.703895 577.371625 
L 413.568628 576.559321 
L 414.433362 527.606872 
L 415.298095 547.258153 
L 416.162828 563.765883 
L 417.027561 570.394608 
L 417.892295 573.893785 
L 418.757028 574.684358 
L 419.621761 576.212119 
L 420.486495 576.940925 
L 421.351228 575.836952 
L 422.215961 497.062498 
L 423.080695 522.868746 
L 423.945428 555.023158 
L 424.810161 567.681262 
L 425.674895 573.072228 
L 426.539628 576.361789 
L 427.404361 577.536678 
L 428.269095 578.247234 
L 429.133828 576.031574 
L 429.998561 571.180217 
L 430.863295 528.582829 
L 431.728028 553.622044 
L 432.592761 568.047135 
L 433.457495 574.466801 
L 434.322228 575.540982 
L 435.186961 576.151463 
L 436.051695 529.877785 
L 436.916428 541.037452 
L 437.781161 559.92359 
L 438.645895 564.524876 
L 439.510628 565.329553 
L 440.375361 568.796959 
L 441.240095 564.839626 
L 442.104828 561.559876 
L 442.969561 566.503971 
L 443.834295 574.307768 
L 444.699028 576.849253 
L 445.563761 577.654062 
L 446.428495 577.315839 
L 447.293228 515.424785 
L 448.157961 499.58529 
L 449.022695 549.861341 
L 449.887428 568.373163 
L 450.752161 575.027154 
L 451.616895 577.352763 
L 452.481628 578.376653 
L 453.346361 579.04226 
L 454.211095 579.036358 
L 455.075828 579.214561 
L 455.940561 521.971471 
L 456.805295 548.603282 
L 457.670028 562.322395 
L 458.534761 573.456398 
L 459.399495 577.408715 
L 460.264228 578.113311 
L 461.128961 579.108792 
L 461.993695 551.611383 
L 462.858428 543.727168 
L 463.723161 555.46658 
L 464.587895 560.877082 
L 465.452628 570.058914 
L 466.317361 574.880031 
L 467.182095 575.379545 
L 469.776295 578.825175 
L 470.641028 534.744194 
L 471.505761 532.743405 
L 472.370495 561.223419 
L 473.235228 572.885413 
L 474.099961 577.504216 
L 474.964694 578.674929 
L 476.694161 579.390588 
L 477.558894 577.122717 
L 478.423628 502.988549 
L 479.288361 547.617317 
L 480.153094 562.067272 
L 481.017828 573.546843 
L 481.882561 577.535265 
L 482.747294 579.411893 
L 483.612028 579.594152 
L 485.341494 579.276684 
L 486.206228 509.185915 
L 487.070961 463.876665 
L 487.935694 542.86919 
L 488.800428 565.213822 
L 489.665161 573.698756 
L 490.529894 577.222671 
L 491.394628 578.915944 
L 492.259361 579.525029 
L 493.124094 579.544952 
L 493.988828 578.895689 
L 494.853561 578.103029 
L 495.718294 579.055304 
L 496.583028 501.895135 
L 498.312494 566.320723 
L 499.177228 572.980501 
L 500.041961 577.144337 
L 500.906694 579.049448 
L 501.771428 579.545814 
L 502.636161 580.334643 
L 503.500894 580.489318 
L 504.365628 560.147881 
L 505.230361 512.988226 
L 506.095094 560.60597 
L 506.959828 573.288858 
L 507.824561 577.570462 
L 508.689294 579.639912 
L 510.418761 580.69403 
L 511.283494 536.913554 
L 512.148228 477.942633 
L 513.012961 535.735985 
L 513.877694 557.148892 
L 514.742428 572.81674 
L 515.607161 576.873824 
L 516.471894 578.965383 
L 517.336628 579.882346 
L 518.201361 579.603077 
L 519.066094 579.750508 
L 519.930828 578.89489 
L 520.795561 574.55984 
L 521.660294 522.653126 
L 522.525028 555.224553 
L 523.389761 572.279622 
L 524.254494 577.979465 
L 525.119228 579.846612 
L 525.983961 580.664899 
L 526.848694 576.413622 
L 527.713428 527.625208 
L 528.578161 557.349889 
L 529.442894 573.631846 
L 530.307628 578.399685 
L 531.172361 580.168042 
L 532.037094 580.055812 
L 532.901827 572.982094 
L 533.766561 571.811622 
L 534.631294 559.577897 
L 535.496027 569.474357 
L 536.360761 573.067365 
L 537.225494 574.788498 
L 538.090227 575.545822 
L 538.954961 578.470109 
L 539.819694 579.241659 
L 540.684427 577.391923 
L 541.549161 479.207742 
L 542.413894 507.134627 
L 543.278627 558.104455 
L 544.143361 571.109539 
L 545.008094 577.577095 
L 545.872827 579.849002 
L 546.737561 580.819879 
L 547.602294 581.237088 
L 549.331761 581.341913 
L 550.196494 581.089593 
L 551.061227 498.380057 
L 551.925961 458.659907 
L 552.790694 537.012231 
L 553.655427 562.089687 
L 554.520161 574.022833 
L 555.384894 577.664231 
L 556.249627 579.243197 
L 557.114361 580.119892 
L 557.979094 580.735236 
L 558.843827 580.811339 
L 559.708561 580.623733 
L 560.573294 581.198515 
L 561.438027 581.224585 
L 562.302761 496.782144 
L 563.167494 501.5293 
L 564.032227 557.475588 
L 564.896961 573.026661 
L 565.761694 577.82493 
L 566.626427 579.7033 
L 567.491161 580.503707 
L 568.355894 580.558253 
L 569.220627 580.870579 
L 570.085361 580.611383 
L 570.950094 578.169627 
L 571.814827 487.575532 
L 572.679561 544.501909 
L 573.544294 567.268062 
L 574.409027 576.31532 
L 575.273761 579.225378 
L 576.138494 580.488097 
L 577.003227 581.164304 
L 577.867961 581.483913 
L 578.732694 581.360444 
L 579.597427 577.274937 
L 580.462161 518.387679 
L 581.326894 558.904844 
L 582.191627 569.680071 
L 583.056361 565.706051 
L 583.921094 569.393628 
L 584.785827 567.471137 
L 585.650561 569.731598 
L 586.515294 576.127361 
L 587.380027 570.91737 
L 588.244761 560.363844 
L 589.109494 561.380416 
L 589.974227 571.967972 
L 590.83896 577.880663 
L 591.703694 579.784844 
L 592.568427 581.238586 
L 593.43316 581.646874 
L 595.162627 582.008613 
L 596.02736 581.977984 
L 596.892094 569.379954 
L 597.756827 382.991041 
L 598.62156 538.387442 
L 599.486294 569.114776 
L 600.351027 577.411744 
L 601.21576 579.915978 
L 602.080494 581.005899 
L 603.80996 581.878031 
L 604.674694 581.61728 
L 605.539427 580.748324 
L 607.268894 581.640178 
L 608.133627 580.845191 
L 608.99836 456.828028 
L 609.863094 522.531291 
L 610.727827 564.126132 
L 611.59256 575.522547 
L 612.457294 578.697903 
L 613.322027 580.215094 
L 614.18676 581.086475 
L 615.051494 581.407188 
L 615.916227 581.934152 
L 616.78096 581.746932 
L 617.645694 581.879762 
L 618.510427 581.73837 
L 619.37516 516.810125 
L 620.239894 503.995176 
L 621.104627 559.298552 
L 621.96936 574.362659 
L 622.834094 578.932135 
L 623.698827 580.970382 
L 624.56356 581.708651 
L 625.428294 582.063648 
L 626.293027 581.943582 
L 627.15776 581.978786 
L 628.022494 582.263608 
L 628.887227 527.197318 
L 629.75196 542.394988 
L 630.616694 568.975502 
L 631.481427 576.526444 
L 632.34616 580.145851 
L 633.210894 581.621514 
L 634.075627 581.948339 
L 635.805094 582.360407 
L 636.669827 582.049693 
L 637.53456 524.054946 
L 638.399294 515.720691 
L 639.264027 565.087875 
L 640.12876 577.520714 
L 640.993494 580.68978 
L 641.858227 581.835687 
L 642.72296 582.390702 
L 643.587694 582.650552 
L 644.452427 582.669626 
L 645.31716 582.574637 
L 646.181894 566.89038 
L 647.046627 493.588144 
L 647.91136 562.321444 
L 648.776093 575.090318 
L 649.640827 579.733347 
L 650.50556 581.541299 
L 651.370293 582.195988 
L 652.235027 582.509063 
L 653.09976 582.682848 
L 653.964493 582.49837 
L 655.69396 582.592751 
L 656.558693 530.041892 
L 657.423427 452.818843 
L 658.28816 539.886492 
L 659.152893 568.654849 
L 660.017627 576.966381 
L 660.88236 580.234933 
L 661.747093 581.591904 
L 662.611827 582.259579 
L 664.341293 582.779347 
L 665.206027 582.767422 
L 666.07076 582.613879 
L 666.935493 576.364453 
L 667.800227 495.230286 
L 668.66496 558.928142 
L 669.529693 575.833019 
L 670.394427 580.831841 
L 671.25916 582.046501 
L 672.123893 582.579034 
L 674.718093 583.097634 
L 675.582827 582.866609 
L 676.44756 522.772808 
L 677.312293 511.695329 
L 678.177027 566.450536 
L 679.04176 576.694835 
L 679.906493 580.615095 
L 680.771227 581.910331 
L 681.63596 582.541663 
L 682.500693 582.819669 
L 684.23016 583.060592 
L 685.094893 570.559991 
L 685.959627 495.183797 
L 686.82436 547.447726 
L 687.689093 567.1496 
L 688.553827 576.709031 
L 689.41856 580.63482 
L 690.283293 582.051335 
L 691.148027 582.593596 
L 692.01276 582.935702 
L 692.877493 582.874131 
L 693.742227 583.007633 
L 694.60696 582.875167 
L 695.471693 568.711623 
L 696.336427 451.494595 
L 697.20116 531.05205 
L 698.065893 564.634252 
L 698.930627 576.9541 
L 699.79536 580.614748 
L 700.660093 581.866157 
L 701.524827 582.477881 
L 702.38956 582.630555 
L 703.254293 582.541427 
L 704.119027 582.842167 
L 704.98376 583.01058 
L 705.848493 582.80539 
L 706.713226 531.515271 
L 707.57796 507.710503 
L 708.442693 557.357652 
L 709.307426 575.007213 
L 710.17216 579.965947 
L 711.036893 581.736275 
L 711.901626 582.494437 
L 712.76636 582.694153 
L 713.631093 582.528463 
L 714.495826 582.552224 
L 715.36056 582.352611 
L 717.090026 560.656486 
L 717.95476 555.58951 
L 718.819493 570.1355 
L 719.684226 572.374293 
L 720.54896 578.850306 
L 721.413693 581.868675 
L 722.278426 582.838671 
L 723.14316 583.208038 
L 724.007893 583.406975 
L 724.872626 583.328051 
L 725.73736 582.958504 
L 726.602093 540.06493 
L 727.466826 436.796531 
L 728.33156 537.926451 
L 729.196293 570.758995 
L 730.061026 578.427917 
L 730.92576 581.221372 
L 731.790493 582.121967 
L 732.655226 582.760104 
L 734.384693 583.267984 
L 736.11416 583.197423 
L 736.978893 581.397912 
L 737.843626 506.74131 
L 738.70836 543.484034 
L 739.573093 569.509585 
L 740.437826 578.374824 
L 741.30256 581.565162 
L 742.167293 582.753418 
L 743.89676 583.356458 
L 744.761493 583.312187 
L 745.626226 582.594111 
L 746.49096 582.418941 
L 747.355693 548.007556 
L 748.220426 479.026842 
L 749.08516 549.604927 
L 749.949893 570.44913 
L 750.814626 578.280084 
L 751.67936 581.088229 
L 752.544093 582.328961 
L 753.408826 582.939139 
L 755.138293 583.241212 
L 756.003026 582.951894 
L 756.86776 583.103084 
L 757.732493 582.82742 
L 758.597226 506.985648 
L 759.46196 514.333091 
L 760.326693 557.747223 
L 761.191426 570.132711 
L 762.05616 578.093464 
L 762.920893 580.878832 
L 763.785626 582.198343 
L 764.650359 582.90386 
L 765.515093 583.190506 
L 767.244559 583.137634 
L 768.109293 583.041564 
L 768.974026 582.276766 
L 769.838759 518.431111 
L 770.703493 546.444751 
L 771.568226 569.752181 
L 772.432959 577.775038 
L 773.297693 581.043676 
L 774.162426 582.469484 
L 775.027159 582.855369 
L 777.621359 583.656586 
L 778.486093 578.834649 
L 779.350826 512.017909 
L 780.215559 557.690401 
L 781.080293 571.867601 
L 781.945026 580.180442 
L 782.809759 582.360462 
L 783.674493 583.094716 
L 784.539226 583.207272 
L 785.403959 583.459566 
L 786.268693 583.278464 
L 787.133426 583.488734 
L 787.998159 582.038543 
L 788.862893 488.63579 
L 789.727626 549.755236 
L 790.592359 573.994069 
L 791.457093 580.492472 
L 792.321826 582.677314 
L 793.186559 583.165958 
L 796.645493 583.792468 
L 797.510226 583.67634 
L 798.374959 581.838972 
L 799.239693 479.579126 
L 800.104426 548.707424 
L 800.969159 570.75685 
L 801.833893 579.362001 
L 802.698626 582.221584 
L 803.563359 583.107563 
L 804.428093 583.452757 
L 806.157559 583.597174 
L 807.022293 583.227752 
L 808.751759 583.626787 
L 809.616493 582.657978 
L 810.481226 486.435896 
L 811.345959 544.349207 
L 812.210693 569.1323 
L 813.075426 577.240878 
L 813.940159 581.796441 
L 814.804893 582.977988 
L 815.669626 583.357954 
L 818.263826 583.816696 
L 819.993293 583.575179 
L 820.858026 540.551325 
L 821.722759 536.321733 
L 822.587492 559.573327 
L 823.452226 577.074059 
L 824.316959 581.306237 
L 825.181692 582.916179 
L 826.046426 583.372481 
L 826.911159 583.52084 
L 827.775892 580.742147 
L 828.640626 548.917057 
L 829.505359 561.478337 
L 830.370092 555.066973 
L 831.234826 573.350875 
L 832.099559 579.002732 
L 833.829026 582.259896 
L 834.693759 582.995091 
L 837.287959 584.011651 
L 839.017426 584.004534 
L 839.882159 583.993342 
L 840.746892 460.711205 
L 841.611626 525.904022 
L 842.476359 567.368778 
L 843.341092 579.36087 
L 844.205826 582.096361 
L 845.070559 582.891149 
L 846.800026 583.646542 
L 850.258959 584.124476 
L 851.123692 566.206726 
L 851.988426 524.126122 
L 852.853159 561.441788 
L 853.717892 575.652494 
L 854.582626 581.021071 
L 855.447359 582.819847 
L 856.312092 583.476486 
L 857.176826 583.8567 
L 858.041559 583.848719 
L 858.906292 542.080363 
L 859.771026 546.833004 
L 860.635759 573.27109 
L 861.500492 580.494292 
L 862.365226 582.528535 
L 863.229959 583.33955 
L 864.094692 583.773856 
L 865.824159 584.167117 
L 866.688892 583.993511 
L 867.553626 538.456802 
L 868.418359 558.213882 
L 869.283092 573.984078 
L 870.147826 580.188494 
L 871.012559 582.860003 
L 871.877292 583.585672 
L 872.742026 583.946335 
L 874.471492 584.218411 
L 875.336226 584.209781 
L 876.200959 583.128258 
L 877.065692 439.021384 
L 877.930426 531.919418 
L 878.795159 567.513323 
L 879.659892 576.900811 
L 880.524625 581.294433 
L 881.389359 582.95341 
L 882.254092 583.546679 
L 883.118825 583.835463 
L 886.577759 584.160313 
L 887.442492 583.971885 
L 888.307225 583.310213 
L 889.171959 470.865617 
L 890.036692 540.311229 
L 890.901425 570.489415 
L 891.766159 579.695031 
L 892.630892 582.202379 
L 893.495625 583.271948 
L 894.360359 583.690808 
L 895.225092 583.945002 
L 896.089825 583.857886 
L 896.954559 583.950176 
L 897.819292 583.824472 
L 898.684025 583.061441 
L 899.548759 550.735067 
L 900.413492 558.201238 
L 901.278225 575.823066 
L 902.142959 581.404113 
L 903.007692 582.886926 
L 903.872425 583.664989 
L 904.737159 583.427749 
L 905.601892 583.464209 
L 907.331359 584.017796 
L 908.196092 584.155965 
L 909.060825 459.499334 
L 909.925559 517.696737 
L 910.790292 565.721929 
L 911.655025 577.046133 
L 912.519759 581.817518 
L 913.384492 583.131339 
L 914.249225 583.676361 
L 915.113959 583.933116 
L 918.572892 584.254258 
L 919.437625 584.167414 
L 920.302359 529.416758 
L 921.167092 534.213141 
L 922.031825 567.794703 
L 922.896559 570.163106 
L 923.761292 571.611358 
L 924.626025 578.19276 
L 925.490759 579.641923 
L 926.355492 582.589228 
L 927.220225 583.589912 
L 928.084959 583.870427 
L 928.949692 583.887082 
L 929.814425 584.078532 
L 931.543892 584.020451 
L 932.408625 583.902133 
L 933.273359 481.187713 
L 934.138092 497.196324 
L 935.002825 561.483623 
L 935.867559 576.661378 
L 936.732292 581.522275 
L 937.597025 583.005421 
L 938.461758 583.57788 
L 940.191225 584.053537 
L 941.920692 584.188374 
L 942.785425 584.008904 
L 943.650158 583.452584 
L 944.514892 583.606351 
L 945.379625 583.971009 
L 946.244358 544.664122 
L 947.109092 519.125983 
L 947.973825 560.115 
L 948.838558 575.503453 
L 949.703292 580.7856 
L 950.568025 582.908905 
L 951.432758 583.82805 
L 952.297492 584.123764 
L 954.026958 584.366622 
L 956.621158 584.379686 
L 957.485892 521.342927 
L 958.350625 532.612797 
L 959.215358 562.571204 
L 960.080092 575.509934 
L 960.944825 580.666798 
L 961.809558 582.183444 
L 962.674292 582.008647 
L 963.539025 583.527129 
L 964.403758 584.051712 
L 966.133225 583.865771 
L 966.997958 582.974985 
L 967.862692 582.794185 
L 968.727425 583.670989 
L 969.592158 583.320105 
L 970.456892 582.643067 
L 971.321625 583.447011 
L 972.186358 484.035763 
L 973.051092 506.841234 
L 973.915825 563.133102 
L 974.780558 577.152592 
L 975.645292 581.706712 
L 976.510025 583.220284 
L 977.374758 583.720827 
L 978.239492 583.89931 
L 979.104225 583.864843 
L 979.968958 582.754241 
L 980.833692 582.452175 
L 981.698425 583.119855 
L 982.563158 583.298757 
L 983.427892 583.786304 
L 984.292625 528.640002 
L 985.157358 531.421971 
L 986.022092 570.297334 
L 986.886825 578.77142 
L 987.751558 582.143892 
L 988.616292 583.443958 
L 989.481025 584.093194 
L 991.210492 584.506527 
L 992.075225 584.554821 
L 992.939958 584.030146 
L 993.804692 539.505271 
L 995.534158 576.563847 
L 996.398891 582.076484 
L 997.263625 583.69949 
L 998.128358 584.239747 
L 1000.722558 584.628336 
L 1002.452025 584.651648 
L 1002.452025 584.651648 
" clip-path="url(#pac2c854ad8)" style="fill: none; stroke: #4c72b0; stroke-width: 6; stroke-linecap: round"/>
   </g>
   <g id="line2d_15">
    <path d="M 138.58343 364.970347 
L 139.448163 381.669689 
L 140.312896 383.961006 
L 142.042363 384.858514 
L 142.907096 385.603864 
L 143.77183 389.508339 
L 144.636563 395.931771 
L 145.501296 404.676686 
L 148.095496 434.799903 
L 148.96023 447.224608 
L 149.824963 456.424027 
L 150.689696 459.741422 
L 151.55443 463.699588 
L 152.419163 472.054324 
L 153.283896 475.288669 
L 154.14863 477.393023 
L 155.013363 476.131425 
L 155.878096 483.36872 
L 156.74283 485.182622 
L 157.607563 484.431087 
L 159.33703 490.455553 
L 160.201763 492.901358 
L 161.066496 490.307835 
L 161.93123 493.479691 
L 163.660696 498.259034 
L 164.52543 500.173893 
L 165.390163 500.562468 
L 166.254896 502.368349 
L 167.11963 502.909051 
L 167.984363 502.936265 
L 168.849096 502.176149 
L 169.71383 506.174176 
L 170.578563 495.714885 
L 171.443296 505.475814 
L 172.30803 507.225995 
L 173.172763 512.18532 
L 174.037496 511.007156 
L 174.90223 514.953337 
L 175.766963 508.669269 
L 176.631696 510.409433 
L 177.49643 511.059375 
L 178.361163 515.333805 
L 179.225896 515.969815 
L 180.09063 516.392873 
L 180.955363 516.470712 
L 181.820096 516.918225 
L 182.684829 517.953912 
L 183.549563 515.264991 
L 184.414296 518.061861 
L 185.279029 509.95291 
L 186.143763 520.692647 
L 187.008496 520.593526 
L 187.873229 524.561059 
L 188.737963 517.149699 
L 189.602696 523.141912 
L 190.467429 522.651895 
L 191.332163 522.424532 
L 192.196896 521.212157 
L 193.061629 522.454032 
L 193.926363 522.208267 
L 194.791096 531.12765 
L 195.655829 525.667922 
L 196.520563 529.986016 
L 197.385296 530.051119 
L 198.250029 531.662076 
L 199.114763 531.791615 
L 199.979496 530.800812 
L 200.844229 533.646406 
L 201.708963 533.415855 
L 202.573696 528.721175 
L 203.438429 533.70378 
L 204.303163 532.638725 
L 205.167896 527.971406 
L 206.032629 537.150396 
L 206.897363 535.043519 
L 207.762096 526.691503 
L 208.626829 534.510359 
L 209.491563 537.668423 
L 210.356296 538.89351 
L 211.221029 533.022412 
L 212.085763 533.473249 
L 212.950496 531.237883 
L 213.815229 530.813262 
L 214.679963 537.036368 
L 215.544696 537.727003 
L 216.409429 541.983234 
L 217.274163 541.232082 
L 218.138896 541.964308 
L 219.003629 538.76669 
L 219.868363 527.561539 
L 220.733096 538.676452 
L 221.597829 534.448303 
L 222.462563 541.159489 
L 223.327296 543.559043 
L 224.192029 539.039841 
L 225.056763 538.115028 
L 226.786229 544.330637 
L 227.650963 540.892437 
L 228.515696 536.468891 
L 229.380429 544.841632 
L 230.245163 540.889517 
L 231.109896 543.623119 
L 231.974629 538.730522 
L 232.839363 543.189046 
L 233.704096 544.744814 
L 234.568829 539.198117 
L 235.433563 549.10713 
L 236.298296 547.542507 
L 237.163029 542.965522 
L 238.027763 544.633607 
L 238.892496 545.609009 
L 239.757229 547.220027 
L 240.621962 544.377007 
L 241.486696 544.628918 
L 242.351429 547.738252 
L 243.216162 546.734291 
L 244.080896 544.650397 
L 244.945629 549.169006 
L 245.810362 549.629362 
L 246.675096 543.645732 
L 247.539829 547.232232 
L 248.404562 547.569678 
L 249.269296 540.410603 
L 250.134029 538.48783 
L 250.998762 547.996469 
L 251.863496 552.731775 
L 252.728229 551.246307 
L 253.592962 551.534667 
L 254.457696 549.628308 
L 255.322429 557.010985 
L 256.187162 556.350702 
L 257.051896 533.927325 
L 257.916629 542.163312 
L 258.781362 544.677843 
L 259.646096 552.87802 
L 260.510829 550.664804 
L 261.375562 549.428882 
L 262.240296 558.855682 
L 263.105029 540.882399 
L 263.969762 551.319511 
L 264.834496 545.197603 
L 265.699229 556.027091 
L 266.563962 527.220663 
L 267.428696 544.084753 
L 268.293429 557.119118 
L 269.158162 530.907979 
L 270.022896 555.563413 
L 270.887629 549.883228 
L 271.752362 551.851547 
L 272.617096 545.923445 
L 273.481829 541.13505 
L 274.346562 551.355371 
L 275.211296 556.893568 
L 276.076029 549.938405 
L 276.940762 547.326344 
L 277.805496 558.180743 
L 278.670229 559.422148 
L 279.534962 537.619362 
L 280.399696 537.603094 
L 281.264429 555.603122 
L 282.129162 555.815713 
L 282.993896 555.135011 
L 283.858629 554.124059 
L 284.723362 545.254852 
L 285.588096 551.007244 
L 286.452829 560.265371 
L 287.317562 557.008524 
L 288.182296 535.93336 
L 289.047029 554.649564 
L 289.911762 548.560753 
L 290.776496 544.555422 
L 291.641229 557.95623 
L 292.505962 561.972822 
L 293.370696 534.900104 
L 294.235429 555.685433 
L 295.100162 550.017743 
L 295.964896 560.112004 
L 296.829629 562.823458 
L 297.694362 531.349938 
L 298.559096 558.616001 
L 299.423829 562.202768 
L 300.288562 563.742936 
L 301.153295 566.579242 
L 302.018029 540.279042 
L 303.747495 561.856202 
L 304.612229 560.905381 
L 305.476962 564.94879 
L 306.341695 557.537096 
L 307.206429 563.771558 
L 308.071162 485.451717 
L 308.935895 549.437105 
L 309.800629 552.666922 
L 310.665362 561.334803 
L 311.530095 553.410825 
L 312.394829 550.974335 
L 313.259562 561.316494 
L 314.124295 560.426064 
L 314.989029 536.696133 
L 315.853762 559.839014 
L 316.718495 559.778187 
L 317.583229 564.949784 
L 318.447962 552.228847 
L 319.312695 560.32294 
L 320.177429 564.409901 
L 321.042162 569.173775 
L 321.906895 565.934777 
L 322.771629 537.196768 
L 323.636362 554.267401 
L 324.501095 555.228419 
L 325.365829 568.128094 
L 326.230562 568.476717 
L 327.095295 553.069137 
L 327.960029 568.96859 
L 328.824762 541.6881 
L 329.689495 549.647009 
L 330.554229 553.685741 
L 331.418962 563.543489 
L 332.283695 561.946763 
L 333.148429 522.212862 
L 334.013162 537.154925 
L 334.877895 562.929071 
L 335.742629 560.373936 
L 336.607362 566.51708 
L 337.472095 567.833335 
L 338.336829 568.701729 
L 339.201562 569.065669 
L 340.066295 562.82423 
L 340.931029 551.176398 
L 341.795762 551.067282 
L 342.660495 557.809488 
L 343.525229 565.590809 
L 344.389962 568.109391 
L 345.254695 569.369512 
L 346.119429 565.84254 
L 346.984162 474.929412 
L 347.848895 536.406765 
L 348.713629 552.879942 
L 350.443095 565.968256 
L 351.307829 569.67818 
L 352.172562 571.375612 
L 353.037295 518.730992 
L 353.902029 553.379207 
L 354.766762 557.453585 
L 355.631495 563.44775 
L 356.496229 566.440808 
L 357.360962 570.218196 
L 358.225695 569.483692 
L 359.090428 454.292131 
L 359.955162 531.437427 
L 360.819895 562.902536 
L 361.684628 564.517047 
L 362.549362 569.912351 
L 363.414095 571.328106 
L 364.278828 569.331206 
L 365.143562 572.71844 
L 366.008295 482.703867 
L 366.873028 556.096897 
L 367.737762 562.055138 
L 370.331962 571.944186 
L 371.196695 571.134023 
L 372.061428 573.925763 
L 372.926162 453.079827 
L 373.790895 542.792219 
L 374.655628 561.320416 
L 375.520362 570.939457 
L 376.385095 572.805631 
L 377.249828 573.06627 
L 378.114562 573.677939 
L 378.979295 573.648476 
L 379.844028 394.832672 
L 380.708762 538.357933 
L 381.573495 556.192426 
L 382.438228 567.506329 
L 383.302962 571.270584 
L 384.167695 568.471077 
L 385.032428 572.971023 
L 385.897162 572.961363 
L 386.761895 497.559324 
L 387.626628 544.946885 
L 388.491362 555.891628 
L 389.356095 562.903797 
L 390.220828 564.383153 
L 391.085562 571.865864 
L 391.950295 573.291799 
L 392.815028 572.653175 
L 393.679762 571.679169 
L 394.544495 534.898394 
L 395.409228 557.235945 
L 396.273962 555.845941 
L 397.138695 569.595145 
L 398.868162 573.376063 
L 399.732895 572.141916 
L 400.597628 560.871887 
L 401.462362 530.485198 
L 402.327095 553.966844 
L 403.191828 565.163394 
L 404.056562 569.978674 
L 404.921295 572.99107 
L 405.786028 574.702602 
L 406.650762 569.132628 
L 407.515495 517.372094 
L 408.380228 558.54881 
L 409.244962 567.395139 
L 410.109695 570.583208 
L 410.974428 572.398448 
L 411.839162 575.118092 
L 412.703895 575.707581 
L 413.568628 575.258339 
L 414.433362 522.560507 
L 415.298095 561.097941 
L 416.162828 565.104819 
L 417.027561 569.787471 
L 417.892295 570.323478 
L 418.757028 573.991094 
L 419.621761 573.892899 
L 420.486495 575.119758 
L 421.351228 572.675338 
L 422.215961 540.397165 
L 423.080695 545.145324 
L 423.945428 559.056981 
L 424.810161 567.332878 
L 425.674895 573.009005 
L 426.539628 574.27782 
L 427.404361 575.788786 
L 428.269095 575.004767 
L 429.133828 572.299425 
L 429.998561 492.460463 
L 430.863295 540.372044 
L 431.728028 566.992256 
L 432.592761 569.678273 
L 433.457495 574.517438 
L 434.322228 574.055873 
L 435.186961 570.532019 
L 436.916428 541.495735 
L 437.781161 563.564037 
L 438.645895 557.349077 
L 440.375361 571.502655 
L 441.240095 558.297651 
L 442.104828 569.13948 
L 442.969561 566.252011 
L 443.834295 572.894214 
L 444.699028 575.150325 
L 445.563761 575.364802 
L 446.428495 574.778021 
L 447.293228 410.570544 
L 448.157961 524.18279 
L 449.022695 557.121761 
L 449.887428 570.312694 
L 450.752161 574.768674 
L 451.616895 575.385345 
L 452.481628 576.65472 
L 453.346361 576.861637 
L 454.211095 576.937919 
L 455.075828 574.796044 
L 455.940561 505.857518 
L 456.805295 554.470145 
L 457.670028 566.892418 
L 458.534761 573.712454 
L 459.399495 575.730438 
L 460.264228 575.623376 
L 461.128961 576.925474 
L 461.993695 526.030746 
L 462.858428 532.176296 
L 463.723161 565.249573 
L 464.587895 563.673943 
L 465.452628 572.169598 
L 466.317361 575.185689 
L 467.182095 574.646301 
L 468.046828 573.175014 
L 468.911561 576.411188 
L 469.776295 576.882675 
L 470.641028 537.767877 
L 471.505761 541.405143 
L 472.370495 567.474117 
L 473.235228 573.191657 
L 474.099961 575.445871 
L 474.964694 576.325695 
L 476.694161 576.912208 
L 477.558894 461.187148 
L 478.423628 539.361422 
L 479.288361 549.552471 
L 480.153094 567.514915 
L 481.017828 573.578788 
L 481.882561 575.967402 
L 482.747294 576.951905 
L 483.612028 577.412989 
L 484.476761 576.128077 
L 485.341494 575.630776 
L 486.206228 447.361834 
L 487.070961 509.817642 
L 487.935694 553.730994 
L 488.800428 569.411857 
L 489.665161 573.136329 
L 490.529894 575.872979 
L 491.394628 576.846141 
L 492.259361 576.638056 
L 493.124094 577.206943 
L 493.988828 575.247618 
L 494.853561 575.720004 
L 495.718294 575.427692 
L 496.583028 502.559398 
L 497.447761 563.030566 
L 498.312494 565.901325 
L 499.177228 573.071004 
L 500.041961 576.621415 
L 500.906694 575.713264 
L 501.771428 577.70332 
L 503.500894 577.635301 
L 504.365628 457.004468 
L 505.230361 550.273649 
L 506.095094 564.379206 
L 506.959828 573.214312 
L 507.824561 575.966471 
L 509.554028 577.832571 
L 510.418761 578.248492 
L 511.283494 470.312012 
L 512.148228 517.471457 
L 513.012961 553.832186 
L 513.877694 566.726861 
L 514.742428 572.645693 
L 515.607161 575.965445 
L 516.471894 577.142232 
L 517.336628 577.78791 
L 518.201361 576.547274 
L 519.066094 577.899781 
L 519.930828 575.635197 
L 520.795561 552.092676 
L 521.660294 531.897188 
L 522.525028 562.14044 
L 523.389761 573.046392 
L 524.254494 576.791417 
L 525.119228 578.007103 
L 525.983961 578.200496 
L 526.848694 548.669423 
L 527.713428 524.974967 
L 528.578161 565.930382 
L 529.442894 574.28239 
L 530.307628 576.543149 
L 531.172361 578.202821 
L 532.037094 572.082096 
L 532.901827 566.951753 
L 533.766561 574.067943 
L 534.631294 565.291415 
L 535.496027 573.644305 
L 536.360761 571.535163 
L 537.225494 569.774742 
L 538.090227 573.841539 
L 538.954961 577.007333 
L 539.819694 577.666709 
L 540.684427 573.975142 
L 541.549161 420.617128 
L 542.413894 548.031855 
L 544.143361 573.557714 
L 545.008094 577.453041 
L 545.872827 578.637869 
L 546.737561 579.443696 
L 547.602294 579.28134 
L 548.467027 579.553486 
L 549.331761 579.170273 
L 550.196494 577.677254 
L 551.061227 330.566771 
L 551.925961 514.283006 
L 552.790694 559.593794 
L 553.655427 570.094163 
L 554.520161 574.465635 
L 555.384894 577.275035 
L 556.249627 577.798423 
L 557.114361 578.895653 
L 559.708561 579.093768 
L 560.573294 579.504841 
L 561.438027 578.150919 
L 562.302761 500.792176 
L 564.032227 567.983087 
L 564.896961 574.411989 
L 565.761694 576.848682 
L 566.626427 578.601406 
L 567.491161 579.248989 
L 569.220627 578.53687 
L 570.085361 578.575179 
L 570.950094 525.556931 
L 571.814827 520.113472 
L 572.679561 552.799621 
L 573.544294 571.137945 
L 574.409027 575.840471 
L 575.273761 578.324415 
L 576.138494 579.093168 
L 577.003227 579.544695 
L 577.867961 579.175656 
L 578.732694 579.117202 
L 579.597427 482.162812 
L 580.462161 548.393942 
L 581.326894 563.205662 
L 582.191627 545.238818 
L 583.056361 574.868115 
L 583.921094 565.424645 
L 584.785827 561.604788 
L 585.650561 574.807892 
L 586.515294 577.022131 
L 587.380027 571.024295 
L 588.244761 546.082177 
L 589.109494 563.271349 
L 589.974227 571.295601 
L 590.83896 577.609954 
L 591.703694 579.556025 
L 592.568427 579.886285 
L 593.43316 580.06991 
L 594.297894 580.125708 
L 595.162627 580.304377 
L 596.02736 579.967782 
L 596.892094 79.797102 
L 597.756827 512.372283 
L 598.62156 557.349818 
L 599.486294 573.020383 
L 600.351027 577.199704 
L 601.21576 579.326507 
L 602.080494 579.442578 
L 602.945227 580.027392 
L 603.80996 580.378901 
L 604.674694 578.864073 
L 605.539427 580.070376 
L 606.40416 580.007779 
L 607.268894 579.752371 
L 608.133627 572.597492 
L 608.99836 452.763285 
L 609.863094 560.75927 
L 610.727827 569.385364 
L 611.59256 576.096863 
L 612.457294 578.348281 
L 613.322027 578.587108 
L 614.18676 579.707308 
L 615.051494 580.382798 
L 616.78096 580.013792 
L 617.645694 578.666708 
L 618.510427 580.366947 
L 619.37516 368.272266 
L 620.239894 530.720441 
L 621.104627 565.881229 
L 621.96936 576.163981 
L 622.834094 578.841529 
L 623.698827 580.122162 
L 624.56356 580.432322 
L 625.428294 580.541893 
L 626.293027 579.690542 
L 627.15776 580.554867 
L 628.022494 580.816417 
L 628.887227 542.346184 
L 629.75196 558.245858 
L 630.616694 571.107732 
L 631.481427 578.725944 
L 632.34616 580.014366 
L 633.210894 580.485898 
L 634.075627 580.107892 
L 634.94036 581.060129 
L 635.805094 580.693838 
L 636.669827 580.567153 
L 637.53456 463.014154 
L 638.399294 540.049373 
L 639.264027 573.022332 
L 640.12876 578.382116 
L 640.993494 580.366358 
L 641.858227 581.033053 
L 643.587694 581.400443 
L 644.452427 581.158303 
L 645.31716 581.427921 
L 646.181894 370.732992 
L 647.046627 543.492024 
L 647.91136 566.823453 
L 648.776093 576.967753 
L 649.640827 579.734264 
L 650.50556 580.752503 
L 651.370293 581.188657 
L 652.235027 581.346922 
L 653.09976 580.95426 
L 653.964493 581.375575 
L 654.829227 581.408272 
L 655.69396 581.320172 
L 656.558693 338.327213 
L 657.423427 506.385135 
L 658.28816 559.326599 
L 659.152893 572.832857 
L 660.017627 577.720605 
L 660.88236 579.680571 
L 661.747093 580.858016 
L 662.611827 581.269338 
L 663.47656 581.518316 
L 664.341293 581.272009 
L 665.206027 581.652875 
L 666.07076 581.668292 
L 666.935493 414.720859 
L 667.800227 532.559519 
L 668.66496 571.831349 
L 669.529693 578.182217 
L 670.394427 580.529405 
L 671.25916 581.269533 
L 674.718093 581.910113 
L 675.582827 581.217558 
L 676.44756 466.533696 
L 677.312293 558.116837 
L 678.177027 571.4171 
L 679.04176 578.87864 
L 679.906493 580.464966 
L 680.771227 581.231547 
L 681.63596 581.682019 
L 684.23016 581.954515 
L 685.094893 427.590786 
L 685.959627 535.32013 
L 686.82436 567.658099 
L 687.689093 571.091892 
L 688.553827 578.012463 
L 689.41856 580.315272 
L 690.283293 581.197142 
L 692.01276 582.026316 
L 692.877493 581.713273 
L 693.742227 582.116511 
L 694.60696 581.492115 
L 695.471693 280.576451 
L 696.336427 482.598945 
L 697.20116 554.209911 
L 698.065893 572.815218 
L 698.930627 579.112886 
L 700.660093 581.43245 
L 701.524827 581.489086 
L 702.38956 581.774384 
L 703.254293 581.558094 
L 704.119027 581.915124 
L 704.98376 582.140344 
L 705.848493 581.4221 
L 706.713226 501.412095 
L 707.57796 533.11556 
L 708.442693 570.240954 
L 709.307426 577.752118 
L 710.17216 580.038225 
L 711.036893 581.394011 
L 711.901626 581.819176 
L 712.76636 581.438827 
L 713.631093 580.718553 
L 714.495826 581.706224 
L 715.36056 578.910797 
L 716.225293 563.893459 
L 717.090026 557.164343 
L 717.95476 570.285877 
L 718.819493 570.583923 
L 719.684226 578.214413 
L 720.54896 580.381539 
L 721.413693 581.606486 
L 723.14316 582.404669 
L 724.872626 582.480393 
L 725.73736 581.872193 
L 726.602093 516.371657 
L 727.466826 513.207841 
L 728.33156 560.975409 
L 729.196293 574.400693 
L 730.061026 579.502466 
L 730.92576 580.936683 
L 732.655226 581.882812 
L 735.249426 582.172649 
L 736.11416 581.982168 
L 736.978893 561.998934 
L 737.843626 503.505139 
L 738.70836 560.279279 
L 739.573093 574.824857 
L 740.437826 579.219627 
L 741.30256 581.284403 
L 742.167293 581.7751 
L 743.89676 582.148814 
L 744.761493 582.020634 
L 745.626226 581.655426 
L 746.49096 581.483394 
L 747.355693 493.00973 
L 748.220426 544.633483 
L 749.08516 561.127372 
L 749.949893 574.357378 
L 750.814626 579.055306 
L 751.67936 580.922303 
L 752.544093 581.722553 
L 754.27356 582.283495 
L 755.138293 582.186245 
L 756.003026 581.813194 
L 756.86776 581.690076 
L 757.732493 580.621471 
L 758.597226 412.972514 
L 759.46196 551.632037 
L 760.326693 565.59116 
L 761.191426 573.297065 
L 762.05616 578.138969 
L 762.920893 580.905786 
L 763.785626 581.619324 
L 764.650359 581.833561 
L 765.515093 582.215143 
L 766.379826 582.106153 
L 767.244559 582.353676 
L 768.109293 581.674776 
L 768.974026 579.795303 
L 769.838759 528.732046 
L 770.703493 555.267291 
L 771.568226 572.995319 
L 772.432959 578.716207 
L 773.297693 580.55771 
L 774.162426 581.625047 
L 775.027159 581.794071 
L 775.891893 582.114385 
L 776.756626 582.583084 
L 777.621359 582.111041 
L 778.486093 483.170216 
L 779.350826 553.26435 
L 780.215559 570.560755 
L 781.080293 576.729424 
L 781.945026 580.24279 
L 782.809759 581.830824 
L 783.674493 582.130419 
L 786.268693 582.332807 
L 787.133426 582.418047 
L 787.998159 543.223085 
L 788.862893 538.823898 
L 789.727626 565.580734 
L 790.592359 577.610438 
L 791.457093 581.219945 
L 792.321826 581.883152 
L 793.186559 581.869194 
L 794.051293 582.454777 
L 794.916026 582.618816 
L 795.780759 582.513562 
L 796.645493 582.765358 
L 797.510226 582.365472 
L 798.374959 477.770632 
L 800.104426 564.165036 
L 800.969159 576.936914 
L 801.833893 580.609867 
L 802.698626 581.738651 
L 803.563359 582.344497 
L 804.428093 582.438968 
L 805.292826 582.274651 
L 806.157559 582.367863 
L 807.022293 581.962595 
L 807.887026 582.591356 
L 808.751759 582.236493 
L 809.616493 579.686851 
L 810.481226 553.87281 
L 811.345959 566.80149 
L 813.075426 579.209104 
L 813.940159 581.78656 
L 815.669626 582.569525 
L 816.534359 582.407725 
L 817.399093 582.784146 
L 818.263826 582.709584 
L 819.128559 582.384945 
L 819.993293 581.688968 
L 820.858026 512.445345 
L 822.587492 572.499478 
L 823.452226 578.703065 
L 824.316959 581.300065 
L 825.181692 581.881295 
L 826.046426 582.051136 
L 826.911159 582.444884 
L 827.775892 572.288321 
L 828.640626 554.584727 
L 829.505359 546.181205 
L 830.370092 566.064099 
L 831.234826 575.86241 
L 832.099559 578.904652 
L 832.964292 580.79008 
L 833.829026 582.116422 
L 834.693759 581.739953 
L 835.558492 582.515626 
L 836.423226 582.658507 
L 837.287959 582.63574 
L 838.152692 582.865913 
L 839.017426 582.836197 
L 839.882159 582.303407 
L 840.746892 518.361878 
L 841.611626 552.916874 
L 842.476359 575.346161 
L 843.341092 579.872159 
L 845.070559 582.042102 
L 845.935292 582.37525 
L 849.394226 582.916429 
L 850.258959 582.822571 
L 851.123692 481.019837 
L 851.988426 562.127946 
L 853.717892 578.736275 
L 854.582626 581.026945 
L 855.447359 581.664194 
L 856.312092 582.659032 
L 857.176826 582.788392 
L 858.041559 581.776638 
L 858.906292 538.958158 
L 859.771026 564.245188 
L 860.635759 577.807442 
L 861.500492 580.74213 
L 862.365226 581.557211 
L 864.094692 582.684794 
L 864.959426 582.889577 
L 865.824159 582.957421 
L 866.688892 579.90886 
L 867.553626 548.79852 
L 869.283092 574.36592 
L 870.147826 580.974894 
L 871.012559 582.227548 
L 871.877292 582.666271 
L 872.742026 582.873158 
L 875.336226 583.065523 
L 876.200959 571.608226 
L 877.065692 468.653223 
L 877.930426 545.428722 
L 878.795159 569.692272 
L 879.659892 579.18219 
L 880.524625 581.392202 
L 881.389359 582.309511 
L 882.254092 582.668442 
L 883.983559 582.853876 
L 884.848292 582.758526 
L 885.713025 582.910094 
L 886.577759 582.798018 
L 887.442492 582.155175 
L 888.307225 567.447084 
L 889.171959 549.628169 
L 890.036692 554.382376 
L 890.901425 577.157855 
L 891.766159 579.931353 
L 892.630892 581.719508 
L 893.495625 582.186795 
L 895.225092 582.642518 
L 896.954559 582.534225 
L 897.819292 582.396891 
L 898.684025 581.905282 
L 899.548759 529.387511 
L 900.413492 567.755676 
L 901.278225 578.656045 
L 902.142959 580.980306 
L 903.007692 582.192708 
L 903.872425 582.433711 
L 904.737159 581.957247 
L 905.601892 582.558849 
L 906.466625 582.212613 
L 907.331359 582.787274 
L 908.196092 582.807029 
L 909.060825 496.846005 
L 909.925559 544.343429 
L 910.790292 570.147678 
L 911.655025 579.430368 
L 912.519759 581.413199 
L 913.384492 582.011374 
L 914.249225 582.457371 
L 915.113959 582.684115 
L 915.978692 582.706852 
L 916.843425 582.845417 
L 917.708159 582.75284 
L 918.572892 582.915918 
L 919.437625 582.619058 
L 920.302359 453.801287 
L 921.167092 567.289165 
L 922.031825 575.316917 
L 922.896559 555.947196 
L 923.761292 578.138173 
L 924.626025 575.134175 
L 925.490759 579.220304 
L 926.355492 582.017914 
L 927.220225 582.523029 
L 928.084959 582.596085 
L 928.949692 582.784236 
L 929.814425 582.754437 
L 930.679159 582.883279 
L 931.543892 582.733833 
L 932.408625 582.706349 
L 933.273359 422.790902 
L 934.138092 554.51054 
L 935.002825 571.803661 
L 935.867559 579.208395 
L 936.732292 581.090896 
L 937.597025 582.036805 
L 939.326492 582.607567 
L 941.055958 582.656582 
L 941.920692 582.289265 
L 942.785425 582.64813 
L 943.650158 581.670517 
L 944.514892 582.607081 
L 945.379625 582.094585 
L 946.244358 458.105212 
L 947.109092 553.035096 
L 947.973825 573.168358 
L 948.838558 579.311268 
L 950.568025 582.11865 
L 951.432758 582.472607 
L 952.297492 582.657985 
L 953.162225 583.022127 
L 954.026958 582.884471 
L 954.891692 582.992215 
L 955.756425 582.887034 
L 956.621158 582.227407 
L 957.485892 488.562002 
L 958.350625 537.868522 
L 959.215358 570.808244 
L 960.080092 577.899065 
L 960.944825 580.029568 
L 961.809558 578.03473 
L 962.674292 580.892122 
L 963.539025 582.528398 
L 964.403758 582.74635 
L 965.268492 582.822578 
L 966.133225 581.145496 
L 966.997958 579.938353 
L 967.862692 582.314055 
L 968.727425 582.100222 
L 969.592158 579.944844 
L 970.456892 580.299149 
L 971.321625 581.224962 
L 972.186358 420.627247 
L 973.051092 540.438357 
L 973.915825 572.498303 
L 974.780558 578.914577 
L 975.645292 581.123962 
L 976.510025 582.112126 
L 977.374758 582.160601 
L 978.239492 582.405107 
L 979.104225 580.521685 
L 979.968958 579.564468 
L 980.833692 581.416379 
L 981.698425 579.90669 
L 982.563158 581.88275 
L 983.427892 581.137792 
L 984.292625 457.172313 
L 985.157358 565.022059 
L 986.022092 574.094325 
L 986.886825 579.175959 
L 987.751558 581.274508 
L 988.616292 582.152337 
L 989.481025 582.6376 
L 992.075225 582.893843 
L 992.939958 575.066659 
L 993.804692 545.672141 
L 994.669425 564.041874 
L 995.534158 579.066409 
L 996.398891 581.555386 
L 997.263625 582.51268 
L 998.993091 582.980153 
L 999.857825 582.862327 
L 1002.452025 582.847229 
L 1002.452025 582.847229 
" clip-path="url(#pac2c854ad8)" style="fill: none; stroke: #dd8452; stroke-width: 6; stroke-linecap: round"/>
   </g>
   <g id="line2d_16"/>
   <g id="line2d_17"/>
   <g id="patch_3">
    <path d="M 95.39 609.894375 
L 95.39 54.554375 
" style="fill: none; stroke: #cccccc; stroke-width: 1.875; stroke-linejoin: miter; stroke-linecap: square"/>
   </g>
   <g id="patch_4">
    <path d="M 1045.645455 609.894375 
L 1045.645455 54.554375 
" style="fill: none; stroke: #cccccc; stroke-width: 1.875; stroke-linejoin: miter; stroke-linecap: square"/>
   </g>
   <g id="patch_5">
    <path d="M 95.39 609.894375 
L 1045.645455 609.894375 
" style="fill: none; stroke: #cccccc; stroke-width: 1.875; stroke-linejoin: miter; stroke-linecap: square"/>
   </g>
   <g id="patch_6">
    <path d="M 95.39 54.554375 
L 1045.645455 54.554375 
" style="fill: none; stroke: #cccccc; stroke-width: 1.875; stroke-linejoin: miter; stroke-linecap: square"/>
   </g>
   <g id="text_16">
    <!-- Training Progress: Loss -->
    <g style="fill: #262626" transform="translate(333.519602 34.554375) scale(0.36 -0.36)">
     <defs>
      <path id="DejaVuSans-Bold-54" d="M 31 4666 
L 4331 4666 
L 4331 3756 
L 2784 3756 
L 2784 0 
L 1581 0 
L 1581 3756 
L 31 3756 
L 31 4666 
z
" transform="scale(0.015625)"/>
      <path id="DejaVuSans-Bold-72" d="M 3138 2547 
Q 2991 2616 2845 2648 
Q 2700 2681 2553 2681 
Q 2122 2681 1889 2404 
Q 1656 2128 1656 1613 
L 1656 0 
L 538 0 
L 538 3500 
L 1656 3500 
L 1656 2925 
Q 1872 3269 2151 3426 
Q 2431 3584 2822 3584 
Q 2878 3584 2943 3579 
Q 3009 3575 3134 3559 
L 3138 2547 
z
" transform="scale(0.015625)"/>
      <path id="DejaVuSans-Bold-61" d="M 2106 1575 
Q 1756 1575 1579 1456 
Q 1403 1338 1403 1106 
Q 1403 894 1545 773 
Q 1688 653 1941 653 
Q 2256 653 2472 879 
Q 2688 1106 2688 1447 
L 2688 1575 
L 2106 1575 
z
M 3816 1997 
L 3816 0 
L 2688 0 
L 2688 519 
Q 2463 200 2181 54 
Q 1900 -91 1497 -91 
Q 953 -91 614 226 
Q 275 544 275 1050 
Q 275 1666 698 1953 
Q 1122 2241 2028 2241 
L 2688 2241 
L 2688 2328 
Q 2688 2594 2478 2717 
Q 2269 2841 1825 2841 
Q 1466 2841 1156 2769 
Q 847 2697 581 2553 
L 581 3406 
Q 941 3494 1303 3539 
Q 1666 3584 2028 3584 
Q 2975 3584 3395 3211 
Q 3816 2838 3816 1997 
z
" transform="scale(0.015625)"/>
      <path id="DejaVuSans-Bold-69" d="M 538 3500 
L 1656 3500 
L 1656 0 
L 538 0 
L 538 3500 
z
M 538 4863 
L 1656 4863 
L 1656 3950 
L 538 3950 
L 538 4863 
z
" transform="scale(0.015625)"/>
      <path id="DejaVuSans-Bold-6e" d="M 4056 2131 
L 4056 0 
L 2931 0 
L 2931 347 
L 2931 1631 
Q 2931 2084 2911 2256 
Q 2891 2428 2841 2509 
Q 2775 2619 2662 2680 
Q 2550 2741 2406 2741 
Q 2056 2741 1856 2470 
Q 1656 2200 1656 1722 
L 1656 0 
L 538 0 
L 538 3500 
L 1656 3500 
L 1656 2988 
Q 1909 3294 2193 3439 
Q 2478 3584 2822 3584 
Q 3428 3584 3742 3212 
Q 4056 2841 4056 2131 
z
" transform="scale(0.015625)"/>
      <path id="DejaVuSans-Bold-67" d="M 2919 594 
Q 2688 288 2409 144 
Q 2131 0 1766 0 
Q 1125 0 706 504 
Q 288 1009 288 1791 
Q 288 2575 706 3076 
Q 1125 3578 1766 3578 
Q 2131 3578 2409 3434 
Q 2688 3291 2919 2981 
L 2919 3500 
L 4044 3500 
L 4044 353 
Q 4044 -491 3511 -936 
Q 2978 -1381 1966 -1381 
Q 1638 -1381 1331 -1331 
Q 1025 -1281 716 -1178 
L 716 -306 
Q 1009 -475 1290 -558 
Q 1572 -641 1856 -641 
Q 2406 -641 2662 -400 
Q 2919 -159 2919 353 
L 2919 594 
z
M 2181 2772 
Q 1834 2772 1640 2515 
Q 1447 2259 1447 1791 
Q 1447 1309 1634 1061 
Q 1822 813 2181 813 
Q 2531 813 2725 1069 
Q 2919 1325 2919 1791 
Q 2919 2259 2725 2515 
Q 2531 2772 2181 2772 
z
" transform="scale(0.015625)"/>
      <path id="DejaVuSans-Bold-20" transform="scale(0.015625)"/>
      <path id="DejaVuSans-Bold-50" d="M 588 4666 
L 2584 4666 
Q 3475 4666 3951 4270 
Q 4428 3875 4428 3144 
Q 4428 2409 3951 2014 
Q 3475 1619 2584 1619 
L 1791 1619 
L 1791 0 
L 588 0 
L 588 4666 
z
M 1791 3794 
L 1791 2491 
L 2456 2491 
Q 2806 2491 2997 2661 
Q 3188 2831 3188 3144 
Q 3188 3456 2997 3625 
Q 2806 3794 2456 3794 
L 1791 3794 
z
" transform="scale(0.015625)"/>
      <path id="DejaVuSans-Bold-6f" d="M 2203 2784 
Q 1831 2784 1636 2517 
Q 1441 2250 1441 1747 
Q 1441 1244 1636 976 
Q 1831 709 2203 709 
Q 2569 709 2762 976 
Q 2956 1244 2956 1747 
Q 2956 2250 2762 2517 
Q 2569 2784 2203 2784 
z
M 2203 3584 
Q 3106 3584 3614 3096 
Q 4122 2609 4122 1747 
Q 4122 884 3614 396 
Q 3106 -91 2203 -91 
Q 1297 -91 786 396 
Q 275 884 275 1747 
Q 275 2609 786 3096 
Q 1297 3584 2203 3584 
z
" transform="scale(0.015625)"/>
      <path id="DejaVuSans-Bold-65" d="M 4031 1759 
L 4031 1441 
L 1416 1441 
Q 1456 1047 1700 850 
Q 1944 653 2381 653 
Q 2734 653 3104 758 
Q 3475 863 3866 1075 
L 3866 213 
Q 3469 63 3072 -14 
Q 2675 -91 2278 -91 
Q 1328 -91 801 392 
Q 275 875 275 1747 
Q 275 2603 792 3093 
Q 1309 3584 2216 3584 
Q 3041 3584 3536 3087 
Q 4031 2591 4031 1759 
z
M 2881 2131 
Q 2881 2450 2695 2645 
Q 2509 2841 2209 2841 
Q 1884 2841 1681 2658 
Q 1478 2475 1428 2131 
L 2881 2131 
z
" transform="scale(0.015625)"/>
      <path id="DejaVuSans-Bold-73" d="M 3272 3391 
L 3272 2541 
Q 2913 2691 2578 2766 
Q 2244 2841 1947 2841 
Q 1628 2841 1473 2761 
Q 1319 2681 1319 2516 
Q 1319 2381 1436 2309 
Q 1553 2238 1856 2203 
L 2053 2175 
Q 2913 2066 3209 1816 
Q 3506 1566 3506 1031 
Q 3506 472 3093 190 
Q 2681 -91 1863 -91 
Q 1516 -91 1145 -36 
Q 775 19 384 128 
L 384 978 
Q 719 816 1070 734 
Q 1422 653 1784 653 
Q 2113 653 2278 743 
Q 2444 834 2444 1013 
Q 2444 1163 2330 1236 
Q 2216 1309 1875 1350 
L 1678 1375 
Q 931 1469 631 1722 
Q 331 1975 331 2491 
Q 331 3047 712 3315 
Q 1094 3584 1881 3584 
Q 2191 3584 2531 3537 
Q 2872 3491 3272 3391 
z
" transform="scale(0.015625)"/>
      <path id="DejaVuSans-Bold-3a" d="M 716 3500 
L 1844 3500 
L 1844 2291 
L 716 2291 
L 716 3500 
z
M 716 1209 
L 1844 1209 
L 1844 0 
L 716 0 
L 716 1209 
z
" transform="scale(0.015625)"/>
      <path id="DejaVuSans-Bold-4c" d="M 588 4666 
L 1791 4666 
L 1791 909 
L 3903 909 
L 3903 0 
L 588 0 
L 588 4666 
z
" transform="scale(0.015625)"/>
     </defs>
     <use xlink:href="#DejaVuSans-Bold-54"/>
     <use xlink:href="#DejaVuSans-Bold-72" transform="translate(57.212891 0)"/>
     <use xlink:href="#DejaVuSans-Bold-61" transform="translate(106.529297 0)"/>
     <use xlink:href="#DejaVuSans-Bold-69" transform="translate(174.009766 0)"/>
     <use xlink:href="#DejaVuSans-Bold-6e" transform="translate(208.287109 0)"/>
     <use xlink:href="#DejaVuSans-Bold-69" transform="translate(279.478516 0)"/>
     <use xlink:href="#DejaVuSans-Bold-6e" transform="translate(313.755859 0)"/>
     <use xlink:href="#DejaVuSans-Bold-67" transform="translate(384.947266 0)"/>
     <use xlink:href="#DejaVuSans-Bold-20" transform="translate(456.529297 0)"/>
     <use xlink:href="#DejaVuSans-Bold-50" transform="translate(491.34375 0)"/>
     <use xlink:href="#DejaVuSans-Bold-72" transform="translate(564.634766 0)"/>
     <use xlink:href="#DejaVuSans-Bold-6f" transform="translate(613.951172 0)"/>
     <use xlink:href="#DejaVuSans-Bold-67" transform="translate(682.652344 0)"/>
     <use xlink:href="#DejaVuSans-Bold-72" transform="translate(754.234375 0)"/>
     <use xlink:href="#DejaVuSans-Bold-65" transform="translate(803.550781 0)"/>
     <use xlink:href="#DejaVuSans-Bold-73" transform="translate(871.373047 0)"/>
     <use xlink:href="#DejaVuSans-Bold-73" transform="translate(930.894531 0)"/>
     <use xlink:href="#DejaVuSans-Bold-3a" transform="translate(990.416016 0)"/>
     <use xlink:href="#DejaVuSans-Bold-20" transform="translate(1030.40625 0)"/>
     <use xlink:href="#DejaVuSans-Bold-4c" transform="translate(1065.220703 0)"/>
     <use xlink:href="#DejaVuSans-Bold-6f" transform="translate(1128.941406 0)"/>
     <use xlink:href="#DejaVuSans-Bold-73" transform="translate(1197.642578 0)"/>
     <use xlink:href="#DejaVuSans-Bold-73" transform="translate(1257.164062 0)"/>
    </g>
   </g>
   <g id="legend_1">
    <g id="patch_7">
     <path d="M 846.365455 174.094375 
L 1023.245455 174.094375 
Q 1029.645455 174.094375 1029.645455 167.694375 
L 1029.645455 76.954375 
Q 1029.645455 70.554375 1023.245455 70.554375 
L 846.365455 70.554375 
Q 839.965455 70.554375 839.965455 76.954375 
L 839.965455 167.694375 
Q 839.965455 174.094375 846.365455 174.094375 
z
" style="fill: #ffffff; opacity: 0.8; stroke: #cccccc; stroke-width: 1.5; stroke-linejoin: miter"/>
    </g>
    <g id="line2d_18">
     <path d="M 852.765455 96.469375 
L 884.765455 96.469375 
L 916.765455 96.469375 
" style="fill: none; stroke: #4c72b0; stroke-width: 6; stroke-linecap: round"/>
    </g>
    <g id="text_17">
     <!-- train -->
     <g style="fill: #262626" transform="translate(942.365455 107.669375) scale(0.32 -0.32)">
      <defs>
       <path id="DejaVuSans-74" d="M 1172 4494 
L 1172 3500 
L 2356 3500 
L 2356 3053 
L 1172 3053 
L 1172 1153 
Q 1172 725 1289 603 
Q 1406 481 1766 481 
L 2356 481 
L 2356 0 
L 1766 0 
Q 1100 0 847 248 
Q 594 497 594 1153 
L 594 3053 
L 172 3053 
L 172 3500 
L 594 3500 
L 594 4494 
L 1172 4494 
z
" transform="scale(0.015625)"/>
       <path id="DejaVuSans-72" d="M 2631 2963 
Q 2534 3019 2420 3045 
Q 2306 3072 2169 3072 
Q 1681 3072 1420 2755 
Q 1159 2438 1159 1844 
L 1159 0 
L 581 0 
L 581 3500 
L 1159 3500 
L 1159 2956 
Q 1341 3275 1631 3429 
Q 1922 3584 2338 3584 
Q 2397 3584 2469 3576 
Q 2541 3569 2628 3553 
L 2631 2963 
z
" transform="scale(0.015625)"/>
       <path id="DejaVuSans-61" d="M 2194 1759 
Q 1497 1759 1228 1600 
Q 959 1441 959 1056 
Q 959 750 1161 570 
Q 1363 391 1709 391 
Q 2188 391 2477 730 
Q 2766 1069 2766 1631 
L 2766 1759 
L 2194 1759 
z
M 3341 1997 
L 3341 0 
L 2766 0 
L 2766 531 
Q 2569 213 2275 61 
Q 1981 -91 1556 -91 
Q 1019 -91 701 211 
Q 384 513 384 1019 
Q 384 1609 779 1909 
Q 1175 2209 1959 2209 
L 2766 2209 
L 2766 2266 
Q 2766 2663 2505 2880 
Q 2244 3097 1772 3097 
Q 1472 3097 1187 3025 
Q 903 2953 641 2809 
L 641 3341 
Q 956 3463 1253 3523 
Q 1550 3584 1831 3584 
Q 2591 3584 2966 3190 
Q 3341 2797 3341 1997 
z
" transform="scale(0.015625)"/>
       <path id="DejaVuSans-69" d="M 603 3500 
L 1178 3500 
L 1178 0 
L 603 0 
L 603 3500 
z
M 603 4863 
L 1178 4863 
L 1178 4134 
L 603 4134 
L 603 4863 
z
" transform="scale(0.015625)"/>
       <path id="DejaVuSans-6e" d="M 3513 2113 
L 3513 0 
L 2938 0 
L 2938 2094 
Q 2938 2591 2744 2837 
Q 2550 3084 2163 3084 
Q 1697 3084 1428 2787 
Q 1159 2491 1159 1978 
L 1159 0 
L 581 0 
L 581 3500 
L 1159 3500 
L 1159 2956 
Q 1366 3272 1645 3428 
Q 1925 3584 2291 3584 
Q 2894 3584 3203 3211 
Q 3513 2838 3513 2113 
z
" transform="scale(0.015625)"/>
      </defs>
      <use xlink:href="#DejaVuSans-74"/>
      <use xlink:href="#DejaVuSans-72" transform="translate(39.208984 0)"/>
      <use xlink:href="#DejaVuSans-61" transform="translate(80.322266 0)"/>
      <use xlink:href="#DejaVuSans-69" transform="translate(141.601562 0)"/>
      <use xlink:href="#DejaVuSans-6e" transform="translate(169.384766 0)"/>
     </g>
    </g>
    <g id="line2d_19">
     <path d="M 852.765455 143.439375 
L 884.765455 143.439375 
L 916.765455 143.439375 
" style="fill: none; stroke: #dd8452; stroke-width: 6; stroke-linecap: round"/>
    </g>
    <g id="text_18">
     <!-- val -->
     <g style="fill: #262626" transform="translate(942.365455 154.639375) scale(0.32 -0.32)">
      <defs>
       <path id="DejaVuSans-76" d="M 191 3500 
L 800 3500 
L 1894 563 
L 2988 3500 
L 3597 3500 
L 2284 0 
L 1503 0 
L 191 3500 
z
" transform="scale(0.015625)"/>
       <path id="DejaVuSans-6c" d="M 603 4863 
L 1178 4863 
L 1178 0 
L 603 0 
L 603 4863 
z
" transform="scale(0.015625)"/>
      </defs>
      <use xlink:href="#DejaVuSans-76"/>
      <use xlink:href="#DejaVuSans-61" transform="translate(59.179688 0)"/>
      <use xlink:href="#DejaVuSans-6c" transform="translate(120.458984 0)"/>
     </g>
    </g>
   </g>
  </g>
 </g>
 <defs>
  <clipPath id="pac2c854ad8">
   <rect x="95.39" y="54.554375" width="950.255455" height="555.34"/>
  </clipPath>
 </defs>
</svg>
