<?xml version="1.0" encoding="utf-8" standalone="no"?>
<!DOCTYPE svg PUBLIC "-//W3C//DTD SVG 1.1//EN"
  "http://www.w3.org/Graphics/SVG/1.1/DTD/svg11.dtd">
<svg xmlns:xlink="http://www.w3.org/1999/xlink" width="1052.845455pt" height="695.534375pt" viewBox="0 0 1052.845455 695.534375" xmlns="http://www.w3.org/2000/svg" version="1.1">
 <metadata>
  <rdf:RDF xmlns:dc="http://purl.org/dc/elements/1.1/" xmlns:cc="http://creativecommons.org/ns#" xmlns:rdf="http://www.w3.org/1999/02/22-rdf-syntax-ns#">
   <cc:Work>
    <dc:type rdf:resource="http://purl.org/dc/dcmitype/StillImage"/>
    <dc:date>2026-04-10T18:06:53.603708</dc:date>
    <dc:format>image/svg+xml</dc:format>
    <dc:creator>
     <cc:Agent>
      <dc:title>Matplotlib v3.10.8, https://matplotlib.org/</dc:title>
     </cc:Agent>
    </dc:creator>
   </cc:Work>
  </rdf:RDF>
 </metadata>
 <defs>
  <style type="text/css">*{stroke-linejoin: round; stroke-linecap: butt}</style>
 </defs>
 <g id="figure_1">
  <g id="patch_1">
   <path d="M 0 695.534375 
L 1052.845455 695.534375 
L 1052.845455 0 
L 0 0 
z
" style="fill: #ffffff"/>
  </g>
  <g id="axes_1">
   <g id="patch_2">
    <path d="M 95.39 609.894375 
L 1045.645455 609.894375 
L 1045.645455 54.554375 
L 95.39 54.554375 
z
" style="fill: #ffffff"/>
   </g>
   <g id="matplotlib.axis_1">
    <g id="xtick_1">
     <g id="line2d_1">
      <path d="M 137.718696 609.894375 
L 137.718696 54.554375 
" clip-path="url(#p020883931e)" style="fill: none; stroke: #cccccc; stroke-opacity: 0.3; stroke-width: 1.5; stroke-linecap: round"/>
     </g>
     <g id="text_1">
      <!-- 0 -->
      <g style="fill: #262626" transform="translate(127.538696 646.709375) scale(0.32 -0.32)">
       <defs>
        <path id="DejaVuSans-30" d="M 2034 4250 
Q 1547 4250 1301 3770 
Q 1056 3291 1056 2328 
Q 1056 1369 1301 889 
Q 1547 409 2034 409 
Q 2525 409 2770 889 
Q 3016 1369 3016 2328 
Q 3016 3291 2770 3770 
Q 2525 4250 2034 4250 
z
M 2034 4750 
Q 2819 4750 3233 4129 
Q 3647 3509 3647 2328 
Q 3647 1150 3233 529 
Q 2819 -91 2034 -91 
Q 1250 -91 836 529 
Q 422 1150 422 2328 
Q 422 3509 836 4129 
Q 1250 4750 2034 4750 
z
" transform="scale(0.015625)"/>
       </defs>
       <use xlink:href="#DejaVuSans-30"/>
      </g>
     </g>
    </g>
    <g id="xtick_2">
     <g id="line2d_2">
      <path d="M 310.665362 609.894375 
L 310.665362 54.554375 
" clip-path="url(#p020883931e)" style="fill: none; stroke: #cccccc; stroke-opacity: 0.3; stroke-width: 1.5; stroke-linecap: round"/>
     </g>
     <g id="text_2">
      <!-- 200 -->
      <g style="fill: #262626" transform="translate(280.125362 646.709375) scale(0.32 -0.32)">
       <defs>
        <path id="DejaVuSans-32" d="M 1228 531 
L 3431 531 
L 3431 0 
L 469 0 
L 469 531 
Q 828 903 1448 1529 
Q 2069 2156 2228 2338 
Q 2531 2678 2651 2914 
Q 2772 3150 2772 3378 
Q 2772 3750 2511 3984 
Q 2250 4219 1831 4219 
Q 1534 4219 1204 4116 
Q 875 4013 500 3803 
L 500 4441 
Q 881 4594 1212 4672 
Q 1544 4750 1819 4750 
Q 2544 4750 2975 4387 
Q 3406 4025 3406 3419 
Q 3406 3131 3298 2873 
Q 3191 2616 2906 2266 
Q 2828 2175 2409 1742 
Q 1991 1309 1228 531 
z
" transform="scale(0.015625)"/>
       </defs>
       <use xlink:href="#DejaVuSans-32"/>
       <use xlink:href="#DejaVuSans-30" transform="translate(63.623047 0)"/>
       <use xlink:href="#DejaVuSans-30" transform="translate(127.246094 0)"/>
      </g>
     </g>
    </g>
    <g id="xtick_3">
     <g id="line2d_3">
      <path d="M 483.612028 609.894375 
L 483.612028 54.554375 
" clip-path="url(#p020883931e)" style="fill: none; stroke: #cccccc; stroke-opacity: 0.3; stroke-width: 1.5; stroke-linecap: round"/>
     </g>
     <g id="text_3">
      <!-- 400 -->
      <g style="fill: #262626" transform="translate(453.072028 646.709375) scale(0.32 -0.32)">
       <defs>
        <path id="DejaVuSans-34" d="M 2419 4116 
L 825 1625 
L 2419 1625 
L 2419 4116 
z
M 2253 4666 
L 3047 4666 
L 3047 1625 
L 3713 1625 
L 3713 1100 
L 3047 1100 
L 3047 0 
L 2419 0 
L 2419 1100 
L 313 1100 
L 313 1709 
L 2253 4666 
z
" transform="scale(0.015625)"/>
       </defs>
       <use xlink:href="#DejaVuSans-34"/>
       <use xlink:href="#DejaVuSans-30" transform="translate(63.623047 0)"/>
       <use xlink:href="#DejaVuSans-30" transform="translate(127.246094 0)"/>
      </g>
     </g>
    </g>
    <g id="xtick_4">
     <g id="line2d_4">
      <path d="M 656.558693 609.894375 
L 656.558693 54.554375 
" clip-path="url(#p020883931e)" style="fill: none; stroke: #cccccc; stroke-opacity: 0.3; stroke-width: 1.5; stroke-linecap: round"/>
     </g>
     <g id="text_4">
      <!-- 600 -->
      <g style="fill: #262626" transform="translate(626.018693 646.709375) scale(0.32 -0.32)">
       <defs>
        <path id="DejaVuSans-36" d="M 2113 2584 
Q 1688 2584 1439 2293 
Q 1191 2003 1191 1497 
Q 1191 994 1439 701 
Q 1688 409 2113 409 
Q 2538 409 2786 701 
Q 3034 994 3034 1497 
Q 3034 2003 2786 2293 
Q 2538 2584 2113 2584 
z
M 3366 4563 
L 3366 3988 
Q 3128 4100 2886 4159 
Q 2644 4219 2406 4219 
Q 1781 4219 1451 3797 
Q 1122 3375 1075 2522 
Q 1259 2794 1537 2939 
Q 1816 3084 2150 3084 
Q 2853 3084 3261 2657 
Q 3669 2231 3669 1497 
Q 3669 778 3244 343 
Q 2819 -91 2113 -91 
Q 1303 -91 875 529 
Q 447 1150 447 2328 
Q 447 3434 972 4092 
Q 1497 4750 2381 4750 
Q 2619 4750 2861 4703 
Q 3103 4656 3366 4563 
z
" transform="scale(0.015625)"/>
       </defs>
       <use xlink:href="#DejaVuSans-36"/>
       <use xlink:href="#DejaVuSans-30" transform="translate(63.623047 0)"/>
       <use xlink:href="#DejaVuSans-30" transform="translate(127.246094 0)"/>
      </g>
     </g>
    </g>
    <g id="xtick_5">
     <g id="line2d_5">
      <path d="M 829.505359 609.894375 
L 829.505359 54.554375 
" clip-path="url(#p020883931e)" style="fill: none; stroke: #cccccc; stroke-opacity: 0.3; stroke-width: 1.5; stroke-linecap: round"/>
     </g>
     <g id="text_5">
      <!-- 800 -->
      <g style="fill: #262626" transform="translate(798.965359 646.709375) scale(0.32 -0.32)">
       <defs>
        <path id="DejaVuSans-38" d="M 2034 2216 
Q 1584 2216 1326 1975 
Q 1069 1734 1069 1313 
Q 1069 891 1326 650 
Q 1584 409 2034 409 
Q 2484 409 2743 651 
Q 3003 894 3003 1313 
Q 3003 1734 2745 1975 
Q 2488 2216 2034 2216 
z
M 1403 2484 
Q 997 2584 770 2862 
Q 544 3141 544 3541 
Q 544 4100 942 4425 
Q 1341 4750 2034 4750 
Q 2731 4750 3128 4425 
Q 3525 4100 3525 3541 
Q 3525 3141 3298 2862 
Q 3072 2584 2669 2484 
Q 3125 2378 3379 2068 
Q 3634 1759 3634 1313 
Q 3634 634 3220 271 
Q 2806 -91 2034 -91 
Q 1263 -91 848 271 
Q 434 634 434 1313 
Q 434 1759 690 2068 
Q 947 2378 1403 2484 
z
M 1172 3481 
Q 1172 3119 1398 2916 
Q 1625 2713 2034 2713 
Q 2441 2713 2670 2916 
Q 2900 3119 2900 3481 
Q 2900 3844 2670 4047 
Q 2441 4250 2034 4250 
Q 1625 4250 1398 4047 
Q 1172 3844 1172 3481 
z
" transform="scale(0.015625)"/>
       </defs>
       <use xlink:href="#DejaVuSans-38"/>
       <use xlink:href="#DejaVuSans-30" transform="translate(63.623047 0)"/>
       <use xlink:href="#DejaVuSans-30" transform="translate(127.246094 0)"/>
      </g>
     </g>
    </g>
    <g id="xtick_6">
     <g id="line2d_6">
      <path d="M 1002.452025 609.894375 
L 1002.452025 54.554375 
" clip-path="url(#p020883931e)" style="fill: none; stroke: #cccccc; stroke-opacity: 0.3; stroke-width: 1.5; stroke-linecap: round"/>
     </g>
     <g id="text_6">
      <!-- 1000 -->
      <g style="fill: #262626" transform="translate(961.732025 646.709375) scale(0.32 -0.32)">
       <defs>
        <path id="DejaVuSans-31" d="M 794 531 
L 1825 531 
L 1825 4091 
L 703 3866 
L 703 4441 
L 1819 4666 
L 2450 4666 
L 2450 531 
L 3481 531 
L 3481 0 
L 794 0 
L 794 531 
z
" transform="scale(0.015625)"/>
       </defs>
       <use xlink:href="#DejaVuSans-31"/>
       <use xlink:href="#DejaVuSans-30" transform="translate(63.623047 0)"/>
       <use xlink:href="#DejaVuSans-30" transform="translate(127.246094 0)"/>
       <use xlink:href="#DejaVuSans-30" transform="translate(190.869141 0)"/>
      </g>
     </g>
    </g>
    <g id="text_7">
     <!-- Epoch -->
     <g style="fill: #262626" transform="translate(521.522727 681.679375) scale(0.32 -0.32)">
      <defs>
       <path id="DejaVuSans-45" d="M 628 4666 
L 3578 4666 
L 3578 4134 
L 1259 4134 
L 1259 2753 
L 3481 2753 
L 3481 2222 
L 1259 2222 
L 1259 531 
L 3634 531 
L 3634 0 
L 628 0 
L 628 4666 
z
" transform="scale(0.015625)"/>
       <path id="DejaVuSans-70" d="M 1159 525 
L 1159 -1331 
L 581 -1331 
L 581 3500 
L 1159 3500 
L 1159 2969 
Q 1341 3281 1617 3432 
Q 1894 3584 2278 3584 
Q 2916 3584 3314 3078 
Q 3713 2572 3713 1747 
Q 3713 922 3314 415 
Q 2916 -91 2278 -91 
Q 1894 -91 1617 61 
Q 1341 213 1159 525 
z
M 3116 1747 
Q 3116 2381 2855 2742 
Q 2594 3103 2138 3103 
Q 1681 3103 1420 2742 
Q 1159 2381 1159 1747 
Q 1159 1113 1420 752 
Q 1681 391 2138 391 
Q 2594 391 2855 752 
Q 3116 1113 3116 1747 
z
" transform="scale(0.015625)"/>
       <path id="DejaVuSans-6f" d="M 1959 3097 
Q 1497 3097 1228 2736 
Q 959 2375 959 1747 
Q 959 1119 1226 758 
Q 1494 397 1959 397 
Q 2419 397 2687 759 
Q 2956 1122 2956 1747 
Q 2956 2369 2687 2733 
Q 2419 3097 1959 3097 
z
M 1959 3584 
Q 2709 3584 3137 3096 
Q 3566 2609 3566 1747 
Q 3566 888 3137 398 
Q 2709 -91 1959 -91 
Q 1206 -91 779 398 
Q 353 888 353 1747 
Q 353 2609 779 3096 
Q 1206 3584 1959 3584 
z
" transform="scale(0.015625)"/>
       <path id="DejaVuSans-63" d="M 3122 3366 
L 3122 2828 
Q 2878 2963 2633 3030 
Q 2388 3097 2138 3097 
Q 1578 3097 1268 2742 
Q 959 2388 959 1747 
Q 959 1106 1268 751 
Q 1578 397 2138 397 
Q 2388 397 2633 464 
Q 2878 531 3122 666 
L 3122 134 
Q 2881 22 2623 -34 
Q 2366 -91 2075 -91 
Q 1284 -91 818 406 
Q 353 903 353 1747 
Q 353 2603 823 3093 
Q 1294 3584 2113 3584 
Q 2378 3584 2631 3529 
Q 2884 3475 3122 3366 
z
" transform="scale(0.015625)"/>
       <path id="DejaVuSans-68" d="M 3513 2113 
L 3513 0 
L 2938 0 
L 2938 2094 
Q 2938 2591 2744 2837 
Q 2550 3084 2163 3084 
Q 1697 3084 1428 2787 
Q 1159 2491 1159 1978 
L 1159 0 
L 581 0 
L 581 4863 
L 1159 4863 
L 1159 2956 
Q 1366 3272 1645 3428 
Q 1925 3584 2291 3584 
Q 2894 3584 3203 3211 
Q 3513 2838 3513 2113 
z
" transform="scale(0.015625)"/>
      </defs>
      <use xlink:href="#DejaVuSans-45"/>
      <use xlink:href="#DejaVuSans-70" transform="translate(63.183594 0)"/>
      <use xlink:href="#DejaVuSans-6f" transform="translate(126.660156 0)"/>
      <use xlink:href="#DejaVuSans-63" transform="translate(187.841797 0)"/>
      <use xlink:href="#DejaVuSans-68" transform="translate(242.822266 0)"/>
     </g>
    </g>
   </g>
   <g id="matplotlib.axis_2">
    <g id="ytick_1">
     <g id="line2d_7">
      <path d="M 95.39 599.402913 
L 1045.645455 599.402913 
" clip-path="url(#p020883931e)" style="fill: none; stroke: #cccccc; stroke-opacity: 0.3; stroke-width: 1.5; stroke-linecap: round"/>
     </g>
     <g id="text_8">
      <!-- 0 -->
      <g style="fill: #262626" transform="translate(62.53 611.560413) scale(0.32 -0.32)">
       <use xlink:href="#DejaVuSans-30"/>
      </g>
     </g>
    </g>
    <g id="ytick_2">
     <g id="line2d_8">
      <path d="M 95.39 504.151885 
L 1045.645455 504.151885 
" clip-path="url(#p020883931e)" style="fill: none; stroke: #cccccc; stroke-opacity: 0.3; stroke-width: 1.5; stroke-linecap: round"/>
     </g>
     <g id="text_9">
      <!-- 5 -->
      <g style="fill: #262626" transform="translate(62.53 516.309385) scale(0.32 -0.32)">
       <defs>
        <path id="DejaVuSans-35" d="M 691 4666 
L 3169 4666 
L 3169 4134 
L 1269 4134 
L 1269 2991 
Q 1406 3038 1543 3061 
Q 1681 3084 1819 3084 
Q 2600 3084 3056 2656 
Q 3513 2228 3513 1497 
Q 3513 744 3044 326 
Q 2575 -91 1722 -91 
Q 1428 -91 1123 -41 
Q 819 9 494 109 
L 494 744 
Q 775 591 1075 516 
Q 1375 441 1709 441 
Q 2250 441 2565 725 
Q 2881 1009 2881 1497 
Q 2881 1984 2565 2268 
Q 2250 2553 1709 2553 
Q 1456 2553 1204 2497 
Q 953 2441 691 2322 
L 691 4666 
z
" transform="scale(0.015625)"/>
       </defs>
       <use xlink:href="#DejaVuSans-35"/>
      </g>
     </g>
    </g>
    <g id="ytick_3">
     <g id="line2d_9">
      <path d="M 95.39 408.900856 
L 1045.645455 408.900856 
" clip-path="url(#p020883931e)" style="fill: none; stroke: #cccccc; stroke-opacity: 0.3; stroke-width: 1.5; stroke-linecap: round"/>
     </g>
     <g id="text_10">
      <!-- 10 -->
      <g style="fill: #262626" transform="translate(42.17 421.058356) scale(0.32 -0.32)">
       <use xlink:href="#DejaVuSans-31"/>
       <use xlink:href="#DejaVuSans-30" transform="translate(63.623047 0)"/>
      </g>
     </g>
    </g>
    <g id="ytick_4">
     <g id="line2d_10">
      <path d="M 95.39 313.649827 
L 1045.645455 313.649827 
" clip-path="url(#p020883931e)" style="fill: none; stroke: #cccccc; stroke-opacity: 0.3; stroke-width: 1.5; stroke-linecap: round"/>
     </g>
     <g id="text_11">
      <!-- 15 -->
      <g style="fill: #262626" transform="translate(42.17 325.807327) scale(0.32 -0.32)">
       <use xlink:href="#DejaVuSans-31"/>
       <use xlink:href="#DejaVuSans-35" transform="translate(63.623047 0)"/>
      </g>
     </g>
    </g>
    <g id="ytick_5">
     <g id="line2d_11">
      <path d="M 95.39 218.398799 
L 1045.645455 218.398799 
" clip-path="url(#p020883931e)" style="fill: none; stroke: #cccccc; stroke-opacity: 0.3; stroke-width: 1.5; stroke-linecap: round"/>
     </g>
     <g id="text_12">
      <!-- 20 -->
      <g style="fill: #262626" transform="translate(42.17 230.556299) scale(0.32 -0.32)">
       <use xlink:href="#DejaVuSans-32"/>
       <use xlink:href="#DejaVuSans-30" transform="translate(63.623047 0)"/>
      </g>
     </g>
    </g>
    <g id="ytick_6">
     <g id="line2d_12">
      <path d="M 95.39 123.14777 
L 1045.645455 123.14777 
" clip-path="url(#p020883931e)" style="fill: none; stroke: #cccccc; stroke-opacity: 0.3; stroke-width: 1.5; stroke-linecap: round"/>
     </g>
     <g id="text_13">
      <!-- 25 -->
      <g style="fill: #262626" transform="translate(42.17 135.30527) scale(0.32 -0.32)">
       <use xlink:href="#DejaVuSans-32"/>
       <use xlink:href="#DejaVuSans-35" transform="translate(63.623047 0)"/>
      </g>
     </g>
    </g>
    <g id="text_14">
     <!-- Accuracy (%) -->
     <g style="fill: #262626" transform="translate(31.515 438.046875) rotate(-90) scale(0.32 -0.32)">
      <defs>
       <path id="DejaVuSans-41" d="M 2188 4044 
L 1331 1722 
L 3047 1722 
L 2188 4044 
z
M 1831 4666 
L 2547 4666 
L 4325 0 
L 3669 0 
L 3244 1197 
L 1141 1197 
L 716 0 
L 50 0 
L 1831 4666 
z
" transform="scale(0.015625)"/>
       <path id="DejaVuSans-75" d="M 544 1381 
L 544 3500 
L 1119 3500 
L 1119 1403 
Q 1119 906 1312 657 
Q 1506 409 1894 409 
Q 2359 409 2629 706 
Q 2900 1003 2900 1516 
L 2900 3500 
L 3475 3500 
L 3475 0 
L 2900 0 
L 2900 538 
Q 2691 219 2414 64 
Q 2138 -91 1772 -91 
Q 1169 -91 856 284 
Q 544 659 544 1381 
z
M 1991 3584 
L 1991 3584 
z
" transform="scale(0.015625)"/>
       <path id="DejaVuSans-72" d="M 2631 2963 
Q 2534 3019 2420 3045 
Q 2306 3072 2169 3072 
Q 1681 3072 1420 2755 
Q 1159 2438 1159 1844 
L 1159 0 
L 581 0 
L 581 3500 
L 1159 3500 
L 1159 2956 
Q 1341 3275 1631 3429 
Q 1922 3584 2338 3584 
Q 2397 3584 2469 3576 
Q 2541 3569 2628 3553 
L 2631 2963 
z
" transform="scale(0.015625)"/>
       <path id="DejaVuSans-61" d="M 2194 1759 
Q 1497 1759 1228 1600 
Q 959 1441 959 1056 
Q 959 750 1161 570 
Q 1363 391 1709 391 
Q 2188 391 2477 730 
Q 2766 1069 2766 1631 
L 2766 1759 
L 2194 1759 
z
M 3341 1997 
L 3341 0 
L 2766 0 
L 2766 531 
Q 2569 213 2275 61 
Q 1981 -91 1556 -91 
Q 1019 -91 701 211 
Q 384 513 384 1019 
Q 384 1609 779 1909 
Q 1175 2209 1959 2209 
L 2766 2209 
L 2766 2266 
Q 2766 2663 2505 2880 
Q 2244 3097 1772 3097 
Q 1472 3097 1187 3025 
Q 903 2953 641 2809 
L 641 3341 
Q 956 3463 1253 3523 
Q 1550 3584 1831 3584 
Q 2591 3584 2966 3190 
Q 3341 2797 3341 1997 
z
" transform="scale(0.015625)"/>
       <path id="DejaVuSans-79" d="M 2059 -325 
Q 1816 -950 1584 -1140 
Q 1353 -1331 966 -1331 
L 506 -1331 
L 506 -850 
L 844 -850 
Q 1081 -850 1212 -737 
Q 1344 -625 1503 -206 
L 1606 56 
L 191 3500 
L 800 3500 
L 1894 763 
L 2988 3500 
L 3597 3500 
L 2059 -325 
z
" transform="scale(0.015625)"/>
       <path id="DejaVuSans-20" transform="scale(0.015625)"/>
       <path id="DejaVuSans-28" d="M 1984 4856 
Q 1566 4138 1362 3434 
Q 1159 2731 1159 2009 
Q 1159 1288 1364 580 
Q 1569 -128 1984 -844 
L 1484 -844 
Q 1016 -109 783 600 
Q 550 1309 550 2009 
Q 550 2706 781 3412 
Q 1013 4119 1484 4856 
L 1984 4856 
z
" transform="scale(0.015625)"/>
       <path id="DejaVuSans-25" d="M 4653 2053 
Q 4381 2053 4226 1822 
Q 4072 1591 4072 1178 
Q 4072 772 4226 539 
Q 4381 306 4653 306 
Q 4919 306 5073 539 
Q 5228 772 5228 1178 
Q 5228 1588 5073 1820 
Q 4919 2053 4653 2053 
z
M 4653 2450 
Q 5147 2450 5437 2106 
Q 5728 1763 5728 1178 
Q 5728 594 5436 251 
Q 5144 -91 4653 -91 
Q 4153 -91 3862 251 
Q 3572 594 3572 1178 
Q 3572 1766 3864 2108 
Q 4156 2450 4653 2450 
z
M 1428 4353 
Q 1159 4353 1004 4120 
Q 850 3888 850 3481 
Q 850 3069 1003 2837 
Q 1156 2606 1428 2606 
Q 1700 2606 1854 2837 
Q 2009 3069 2009 3481 
Q 2009 3884 1853 4118 
Q 1697 4353 1428 4353 
z
M 4250 4750 
L 4750 4750 
L 1831 -91 
L 1331 -91 
L 4250 4750 
z
M 1428 4750 
Q 1922 4750 2215 4408 
Q 2509 4066 2509 3481 
Q 2509 2891 2217 2550 
Q 1925 2209 1428 2209 
Q 931 2209 642 2551 
Q 353 2894 353 3481 
Q 353 4063 643 4406 
Q 934 4750 1428 4750 
z
" transform="scale(0.015625)"/>
       <path id="DejaVuSans-29" d="M 513 4856 
L 1013 4856 
Q 1481 4119 1714 3412 
Q 1947 2706 1947 2009 
Q 1947 1309 1714 600 
Q 1481 -109 1013 -844 
L 513 -844 
Q 928 -128 1133 580 
Q 1338 1288 1338 2009 
Q 1338 2731 1133 3434 
Q 928 4138 513 4856 
z
" transform="scale(0.015625)"/>
      </defs>
      <use xlink:href="#DejaVuSans-41"/>
      <use xlink:href="#DejaVuSans-63" transform="translate(66.658203 0)"/>
      <use xlink:href="#DejaVuSans-63" transform="translate(121.638672 0)"/>
      <use xlink:href="#DejaVuSans-75" transform="translate(176.619141 0)"/>
      <use xlink:href="#DejaVuSans-72" transform="translate(239.998047 0)"/>
      <use xlink:href="#DejaVuSans-61" transform="translate(281.111328 0)"/>
      <use xlink:href="#DejaVuSans-63" transform="translate(342.390625 0)"/>
      <use xlink:href="#DejaVuSans-79" transform="translate(397.371094 0)"/>
      <use xlink:href="#DejaVuSans-20" transform="translate(456.550781 0)"/>
      <use xlink:href="#DejaVuSans-28" transform="translate(488.337891 0)"/>
      <use xlink:href="#DejaVuSans-25" transform="translate(527.351562 0)"/>
      <use xlink:href="#DejaVuSans-29" transform="translate(622.371094 0)"/>
     </g>
    </g>
   </g>
   <g id="FillBetweenPolyCollection_1"/>
   <g id="FillBetweenPolyCollection_2"/>
   <g id="line2d_13">
    <path d="M 138.58343 584.350601 
L 139.448163 582.243278 
L 140.312896 578.931769 
L 141.17763 574.416076 
L 142.042363 578.329677 
L 142.907096 571.405613 
L 143.77183 565.685735 
L 144.636563 563.879458 
L 145.501296 567.492012 
L 147.230763 564.481551 
L 148.095496 567.492012 
L 148.96023 558.761673 
L 149.824963 564.481551 
L 150.689696 559.363765 
L 151.55443 561.170042 
L 152.419163 559.062717 
L 153.283896 557.858533 
L 154.14863 561.170042 
L 155.013363 557.25644 
L 155.878096 559.965857 
L 156.74283 559.363765 
L 158.472296 553.643887 
L 159.33703 556.052256 
L 160.201763 554.848072 
L 161.066496 559.664809 
L 161.93123 555.149116 
L 162.795963 554.848072 
L 163.660696 553.342839 
L 164.52543 554.848072 
L 165.390163 547.321914 
L 166.254896 552.439699 
L 167.11963 548.827146 
L 167.984363 550.633423 
L 168.849096 547.020869 
L 169.71383 557.858533 
L 170.578563 547.020869 
L 171.443296 541.602036 
L 172.30803 551.235515 
L 173.172763 547.622962 
L 174.037496 546.418777 
L 174.90223 544.913545 
L 175.766963 542.80622 
L 176.631696 537.989479 
L 177.49643 540.698896 
L 178.361163 537.38739 
L 179.225896 543.408312 
L 180.09063 534.979021 
L 180.955363 539.193663 
L 181.820096 529.259144 
L 182.684829 534.979021 
L 183.549563 537.989479 
L 184.414296 533.473786 
L 185.279029 529.861232 
L 186.143763 532.871697 
L 187.008496 528.054952 
L 189.602696 522.636126 
L 190.467429 521.431941 
L 191.332163 519.625661 
L 192.196896 516.013108 
L 193.061629 517.518337 
L 194.791096 514.507872 
L 195.655829 515.109968 
L 196.520563 518.722521 
L 197.385296 511.798459 
L 198.250029 509.992179 
L 199.114763 506.078581 
L 199.979496 505.777537 
L 200.844229 507.282765 
L 201.708963 505.777537 
L 202.573696 511.196363 
L 203.438429 504.874397 
L 204.303163 501.562888 
L 205.167896 500.960792 
L 206.897363 497.950334 
L 207.762096 493.13359 
L 208.626829 500.659748 
L 209.491563 489.822081 
L 210.356296 491.327316 
L 211.221029 494.93987 
L 212.085763 493.13359 
L 212.950496 488.015808 
L 213.815229 484.102203 
L 214.679963 484.403254 
L 215.544696 486.811623 
L 216.409429 482.596974 
L 217.274163 482.898018 
L 218.138896 479.586517 
L 219.003629 483.19907 
L 219.868363 482.898018 
L 220.733096 479.887561 
L 221.597829 480.48965 
L 222.462563 485.306387 
L 223.327296 472.361396 
L 224.192029 477.178148 
L 225.056763 467.845702 
L 225.921496 474.46872 
L 226.786229 471.759307 
L 227.650963 477.178148 
L 228.515696 472.361396 
L 229.380429 473.565587 
L 230.245163 461.824787 
L 231.109896 462.125832 
L 231.974629 463.631068 
L 232.839363 469.049894 
L 234.568829 465.437334 
L 235.433563 466.340481 
L 236.298296 460.319552 
L 237.163029 455.502814 
L 238.027763 453.997578 
L 238.892496 449.782929 
L 239.757229 453.696534 
L 240.621962 456.104902 
L 241.486696 453.696534 
L 242.351429 457.911183 
L 243.216162 452.492356 
L 244.080896 452.492356 
L 244.945629 454.599681 
L 245.810362 459.416419 
L 246.675096 448.277707 
L 247.539829 446.772471 
L 248.404562 447.976663 
L 249.269296 451.288165 
L 250.134029 441.052601 
L 250.998762 443.762014 
L 251.863496 440.751542 
L 252.728229 443.46097 
L 253.592962 441.353645 
L 254.457696 445.267236 
L 255.322429 445.568294 
L 256.187162 445.568294 
L 257.051896 438.945276 
L 257.916629 440.149454 
L 258.781362 436.536907 
L 259.646096 435.63376 
L 260.510829 437.741085 
L 261.375562 436.837952 
L 262.240296 436.536907 
L 263.105029 435.332716 
L 263.969762 427.505506 
L 264.834496 431.720155 
L 265.699229 427.806565 
L 266.563962 426.602373 
L 267.428696 431.419111 
L 268.293429 415.463662 
L 269.158162 422.989813 
L 270.022896 428.107609 
L 270.887629 427.204462 
L 271.752362 435.332716 
L 272.617096 435.63376 
L 273.481829 423.591916 
L 274.346562 419.678311 
L 275.211296 418.47412 
L 276.076029 425.097138 
L 276.940762 419.979355 
L 277.805496 419.979355 
L 278.670229 412.15216 
L 279.534962 413.356338 
L 280.399696 418.775178 
L 281.264429 410.044836 
L 282.129162 415.162618 
L 282.993896 410.947969 
L 283.858629 395.895653 
L 284.723362 405.529142 
L 286.452829 410.646924 
L 287.317562 407.636467 
L 288.182296 397.400889 
L 289.047029 398.906124 
L 289.911762 405.228098 
L 290.776496 402.518671 
L 291.641229 408.5396 
L 292.505962 405.529142 
L 293.370696 403.421818 
L 294.235429 408.238556 
L 295.100162 419.377267 
L 295.964896 401.615538 
L 296.829629 399.207169 
L 297.694362 388.068458 
L 298.559096 398.002977 
L 299.423829 400.110302 
L 300.288562 399.508213 
L 301.153295 408.238556 
L 302.018029 397.099844 
L 302.882762 398.002977 
L 303.747495 413.055293 
L 304.612229 398.002977 
L 305.476962 396.497756 
L 306.341695 401.013449 
L 307.206429 389.874738 
L 308.071162 388.971591 
L 308.935895 396.497756 
L 309.800629 394.691475 
L 310.665362 388.369502 
L 311.530095 392.283107 
L 312.394829 393.487284 
L 313.259562 393.788328 
L 314.124295 398.002977 
L 314.989029 391.681018 
L 315.853762 396.196711 
L 317.583229 388.369502 
L 318.447962 375.123466 
L 319.312695 383.552764 
L 320.177429 383.25172 
L 321.042162 374.521377 
L 321.906895 380.542307 
L 322.771629 380.241248 
L 323.636362 381.746484 
L 324.501095 378.434982 
L 325.365829 379.338115 
L 326.230562 371.811964 
L 327.095295 370.607773 
L 327.960029 377.230791 
L 328.824762 389.272635 
L 330.554229 370.306728 
L 331.418962 371.51092 
L 332.283695 379.940204 
L 334.013162 370.005684 
L 334.877895 379.940204 
L 335.742629 377.531835 
L 336.607362 383.25172 
L 337.472095 368.199404 
L 338.336829 366.393124 
L 339.201562 369.70464 
L 340.066295 365.791035 
L 340.931029 373.61823 
L 341.795762 372.715097 
L 342.660495 368.500448 
L 343.525229 370.908817 
L 344.389962 379.338115 
L 345.254695 372.113009 
L 346.119429 367.898359 
L 346.984162 370.306728 
L 347.848895 369.102537 
L 348.713629 363.68371 
L 349.578362 363.984755 
L 350.443095 360.071164 
L 351.307829 359.77012 
L 352.172562 358.26487 
L 353.037295 370.306728 
L 353.902029 365.188946 
L 354.766762 356.759648 
L 355.631495 360.071164 
L 357.360962 368.801492 
L 358.225695 362.178475 
L 359.090428 372.715097 
L 359.955162 361.87743 
L 360.819895 372.414053 
L 361.684628 372.113009 
L 362.549362 372.414053 
L 363.414095 364.887902 
L 364.278828 378.133938 
L 365.143562 367.597315 
L 366.008295 353.749177 
L 366.873028 360.372209 
L 367.737762 360.673253 
L 368.602495 349.534527 
L 369.467228 353.448132 
L 370.331962 354.652338 
L 371.196695 348.33035 
L 372.061428 364.887902 
L 372.926162 354.652338 
L 373.790895 360.974297 
L 374.655628 353.448132 
L 375.520362 355.555471 
L 376.385095 348.029306 
L 377.249828 357.060693 
L 378.114562 370.306728 
L 378.979295 357.963826 
L 379.844028 363.68371 
L 380.708762 355.856515 
L 381.573495 355.555471 
L 382.438228 362.479533 
L 383.302962 355.856515 
L 384.167695 338.696875 
L 385.032428 341.406302 
L 385.897162 340.202096 
L 386.761895 340.503141 
L 387.626628 344.115701 
L 388.491362 345.018834 
L 389.356095 348.631394 
L 390.220828 349.835572 
L 391.085562 334.482226 
L 391.950295 350.437689 
L 392.815028 338.696875 
L 393.679762 339.298963 
L 394.544495 340.202096 
L 395.409228 345.620951 
L 396.273962 332.073871 
L 397.138695 348.33035 
L 398.003428 341.707346 
L 398.868162 364.586843 
L 399.732895 355.254427 
L 401.462362 340.503141 
L 402.327095 342.008391 
L 403.191828 341.105258 
L 404.056562 334.78327 
L 404.921295 340.202096 
L 405.786028 344.115701 
L 406.650762 339.600008 
L 407.515495 337.793742 
L 408.380228 329.665488 
L 409.244962 336.288492 
L 410.109695 332.374915 
L 410.974428 348.631394 
L 411.839162 333.579093 
L 413.568628 342.911524 
L 414.433362 322.741412 
L 415.298095 323.644573 
L 416.162828 338.094786 
L 417.027561 337.492697 
L 417.892295 328.160266 
L 418.757028 322.440367 
L 419.621761 320.634101 
L 421.351228 334.482226 
L 422.215961 330.568621 
L 423.080695 342.911524 
L 423.945428 338.39583 
L 424.810161 325.149795 
L 425.674895 318.225718 
L 426.539628 323.644573 
L 427.404361 324.84875 
L 428.269095 322.741412 
L 429.133828 333.278048 
L 429.998561 317.924674 
L 430.863295 318.225718 
L 431.728028 314.312142 
L 432.592761 313.40898 
L 433.457495 307.990154 
L 434.322228 317.322585 
L 435.186961 291.432602 
L 436.051695 308.893287 
L 436.916428 320.333057 
L 437.781161 328.762355 
L 438.645895 320.032013 
L 439.510628 315.215275 
L 440.375361 314.914231 
L 441.240095 326.353972 
L 442.104828 322.741412 
L 442.969561 317.924674 
L 443.834295 319.12888 
L 444.699028 307.388065 
L 445.563761 298.055634 
L 446.428495 305.280755 
L 447.293228 310.398537 
L 448.157961 316.720497 
L 449.022695 315.215275 
L 449.887428 319.730968 
L 450.752161 311.602714 
L 451.616895 310.097493 
L 452.481628 321.537234 
L 453.346361 317.62363 
L 454.211095 307.388065 
L 455.075828 310.699581 
L 455.940561 316.419452 
L 456.805295 304.979682 
L 457.670028 304.076549 
L 458.534761 304.076549 
L 459.399495 305.581799 
L 460.264228 307.68911 
L 461.128961 307.990154 
L 461.993695 309.194331 
L 462.858428 293.539941 
L 463.723161 295.346207 
L 464.587895 302.571328 
L 465.452628 303.775505 
L 466.317361 319.429924 
L 467.182095 292.335764 
L 468.046828 292.034719 
L 468.911561 291.131558 
L 469.776295 304.979682 
L 470.641028 302.270283 
L 471.505761 306.785977 
L 472.370495 322.139323 
L 473.235228 315.817364 
L 474.099961 319.12888 
L 474.964694 313.40898 
L 475.829428 298.657723 
L 476.694161 294.14203 
L 477.558894 304.076549 
L 479.288361 284.20751 
L 480.153094 289.325292 
L 481.017828 286.31482 
L 481.882561 286.615865 
L 482.747294 303.775505 
L 483.612028 311.602714 
L 484.476761 293.539941 
L 485.341494 300.765062 
L 486.206228 288.422159 
L 487.070961 306.484932 
L 487.935694 305.882844 
L 488.800428 286.31482 
L 489.665161 279.992861 
L 490.529894 282.100171 
L 491.394628 278.788684 
L 492.259361 289.024248 
L 493.124094 291.733675 
L 493.988828 288.121115 
L 494.853561 286.31482 
L 495.718294 300.162945 
L 496.583028 306.484932 
L 497.447761 314.613186 
L 498.312494 301.36715 
L 499.177228 284.508554 
L 500.041961 275.477167 
L 500.906694 287.519026 
L 501.771428 280.59495 
L 502.636161 284.508554 
L 503.500894 283.906466 
L 504.365628 268.553091 
L 505.230361 286.31482 
L 506.095094 292.636808 
L 506.959828 278.788684 
L 507.824561 262.532176 
L 508.689294 275.176123 
L 509.554028 276.681345 
L 510.418761 270.66043 
L 511.283494 273.068784 
L 512.148228 274.875079 
L 513.012961 273.068784 
L 513.877694 268.553091 
L 514.742428 271.563563 
L 515.607161 278.186595 
L 516.471894 279.390772 
L 517.336628 270.961474 
L 518.201361 264.639486 
L 519.066094 285.411687 
L 519.930828 281.498083 
L 520.795561 290.529469 
L 521.660294 276.079256 
L 522.525028 279.390772 
L 523.389761 277.584478 
L 524.254494 271.864607 
L 525.119228 281.799127 
L 525.983961 282.100171 
L 526.848694 283.003333 
L 527.713428 267.649958 
L 528.578161 258.016483 
L 529.442894 266.445781 
L 530.307628 255.6081 
L 531.172361 274.574034 
L 532.037094 260.72591 
L 532.901827 260.72591 
L 533.766561 273.670901 
L 534.631294 277.885522 
L 535.496027 269.757297 
L 536.360761 270.961474 
L 537.225494 271.864607 
L 538.090227 257.715438 
L 538.954961 254.403922 
L 539.819694 252.296612 
L 540.684427 263.134265 
L 541.549161 268.252047 
L 542.413894 260.72591 
L 543.278627 249.587185 
L 544.143361 257.11335 
L 545.008094 253.199745 
L 545.872827 258.016483 
L 546.737561 259.822749 
L 547.602294 280.59495 
L 549.331761 246.275668 
L 550.196494 249.587185 
L 551.061227 260.123793 
L 551.925961 263.134265 
L 552.790694 261.629043 
L 553.655427 262.532176 
L 554.520161 275.778212 
L 555.384894 251.995568 
L 556.249627 261.026954 
L 557.114361 248.684052 
L 557.979094 243.265225 
L 558.843827 261.629043 
L 559.708561 266.746825 
L 560.573294 264.338442 
L 561.438027 263.134265 
L 562.302761 267.047869 
L 563.167494 276.982389 
L 564.032227 249.888229 
L 564.896961 247.479874 
L 565.761694 236.642193 
L 566.626427 231.524411 
L 567.491161 236.341149 
L 568.355894 243.265225 
L 569.220627 255.006011 
L 570.085361 272.466696 
L 570.950094 255.006011 
L 571.814827 244.168358 
L 572.679561 255.909172 
L 573.544294 248.985096 
L 574.409027 243.56627 
L 575.273761 263.736353 
L 576.138494 253.801834 
L 577.003227 258.016483 
L 577.867961 247.479874 
L 578.732694 242.362092 
L 579.597427 231.524411 
L 580.462161 242.663137 
L 581.326894 240.856842 
L 582.191627 271.563563 
L 583.056361 276.3803 
L 583.921094 243.56627 
L 584.785827 235.438016 
L 585.650561 223.396157 
L 586.515294 232.1265 
L 587.380027 237.244282 
L 588.244761 243.265225 
L 589.109494 240.856842 
L 589.974227 237.545326 
L 590.83896 246.275668 
L 591.703694 239.35162 
L 592.568427 231.524411 
L 593.43316 231.825455 
L 594.297894 229.417101 
L 595.162627 238.749532 
L 596.02736 249.888229 
L 596.892094 236.943237 
L 597.756827 229.116056 
L 598.62156 232.728588 
L 599.486294 231.825455 
L 600.351027 240.254753 
L 601.21576 233.63175 
L 602.080494 235.438016 
L 602.945227 233.029633 
L 603.80996 234.233838 
L 604.674694 236.642193 
L 605.539427 209.849077 
L 606.40416 216.773154 
L 607.268894 231.223367 
L 608.133627 233.932794 
L 608.99836 233.932794 
L 609.863094 251.092406 
L 610.727827 227.911851 
L 611.59256 233.932794 
L 612.457294 235.136971 
L 613.322027 225.202452 
L 614.18676 238.749532 
L 615.051494 237.545326 
L 615.916227 225.503496 
L 616.78096 244.168358 
L 617.645694 224.600363 
L 618.510427 248.684052 
L 619.37516 241.157886 
L 621.104627 228.513939 
L 621.96936 238.147443 
L 622.834094 222.493024 
L 623.698827 234.835927 
L 624.56356 240.254753 
L 625.428294 236.341149 
L 626.293027 234.233838 
L 627.15776 226.406629 
L 628.022494 225.503496 
L 628.887227 216.171065 
L 629.75196 228.815012 
L 630.616694 217.676287 
L 631.481427 220.385714 
L 632.34616 221.288847 
L 633.210894 205.935472 
L 634.075627 221.589891 
L 634.94036 222.794069 
L 635.805094 214.665815 
L 636.669827 223.697202 
L 637.53456 222.19198 
L 638.399294 230.922322 
L 639.264027 221.589891 
L 640.12876 220.987803 
L 641.858227 212.25746 
L 642.72296 221.288847 
L 643.587694 223.998246 
L 644.452427 221.589891 
L 645.31716 209.548033 
L 646.181894 191.485259 
L 647.91136 215.267932 
L 648.776093 213.461638 
L 649.640827 224.901407 
L 650.50556 217.676287 
L 651.370293 219.181508 
L 652.235027 206.53759 
L 653.09976 202.021896 
L 653.964493 217.977331 
L 654.829227 221.589891 
L 655.69396 214.966859 
L 656.558693 206.53759 
L 657.423427 212.859549 
L 658.28816 202.021896 
L 659.152893 207.440723 
L 660.017627 201.118735 
L 660.88236 214.665815 
L 661.747093 249.587185 
L 662.611827 229.116056 
L 663.47656 213.160593 
L 664.341293 195.09782 
L 665.206027 209.246988 
L 666.07076 211.354327 
L 666.935493 211.655372 
L 667.800227 211.655372 
L 668.66496 223.396157 
L 669.529693 208.042811 
L 670.394427 195.699908 
L 671.25916 191.485259 
L 672.123893 195.09782 
L 674.718093 219.783625 
L 675.582827 217.676287 
L 676.44756 193.592598 
L 677.312293 200.215602 
L 678.177027 218.880464 
L 679.04176 228.815012 
L 679.906493 221.890936 
L 680.771227 192.087348 
L 681.63596 178.540268 
L 682.500693 185.765389 
L 683.365427 190.582126 
L 684.23016 207.741767 
L 685.094893 192.388392 
L 685.959627 196.904086 
L 686.82436 186.367477 
L 687.689093 200.215602 
L 688.553827 196.603041 
L 689.41856 206.53759 
L 690.283293 219.783625 
L 691.148027 201.419779 
L 692.01276 200.215602 
L 692.877493 187.571655 
L 693.742227 196.904086 
L 694.60696 208.6449 
L 695.471693 190.582126 
L 696.336427 184.862256 
L 697.20116 198.409336 
L 698.065893 204.129206 
L 698.930627 229.718145 
L 699.79536 217.074198 
L 700.660093 224.901407 
L 701.524827 198.71038 
L 702.38956 179.744474 
L 703.254293 178.540268 
L 704.119027 193.291554 
L 704.98376 177.938179 
L 705.848493 186.066433 
L 706.713226 196.301997 
L 707.57796 216.773154 
L 708.442693 212.25746 
L 709.307426 193.893642 
L 710.17216 196.000953 
L 711.036893 182.453873 
L 711.901626 180.045518 
L 712.76636 178.841312 
L 713.631093 186.367477 
L 714.495826 223.396157 
L 715.36056 213.461638 
L 716.225293 193.592598 
L 717.090026 179.744474 
L 717.95476 180.647607 
L 718.819493 174.927736 
L 719.684226 168.304704 
L 720.54896 192.087348 
L 721.413693 179.744474 
L 722.278426 177.938179 
L 723.14316 189.980038 
L 724.007893 206.236517 
L 724.872626 204.430251 
L 725.73736 189.377949 
L 726.602093 192.990509 
L 727.466826 178.841312 
L 728.33156 176.734002 
L 729.196293 184.561211 
L 730.061026 194.796775 
L 730.92576 179.443429 
L 731.790493 176.131913 
L 732.655226 179.443429 
L 733.51996 164.692143 
L 734.384693 190.281082 
L 735.249426 182.152828 
L 736.11416 164.993188 
L 736.978893 162.885877 
L 737.843626 189.076905 
L 738.70836 181.55074 
L 739.573093 189.980038 
L 740.437826 188.77586 
L 741.30256 184.260167 
L 742.167293 187.27061 
L 743.032026 201.118735 
L 743.89676 197.20513 
L 744.761493 183.357006 
L 745.626226 165.896349 
L 746.49096 163.487966 
L 747.355693 164.391099 
L 748.220426 158.06914 
L 749.08516 165.294232 
L 749.949893 175.830869 
L 750.814626 193.893642 
L 751.67936 189.377949 
L 752.544093 177.637135 
L 753.408826 171.014131 
L 754.27356 155.058668 
L 755.138293 158.06914 
L 756.003026 174.626663 
L 756.86776 176.131913 
L 757.732493 186.066433 
L 758.597226 180.948651 
L 759.46196 196.603041 
L 760.326693 173.121441 
L 761.191426 171.61622 
L 762.05616 175.830869 
L 762.920893 157.467051 
L 763.785626 154.757624 
L 764.650359 167.702615 
L 765.515093 154.456579 
L 766.379826 175.830869 
L 767.244559 188.173743 
L 768.109293 161.380656 
L 768.974026 156.262845 
L 769.838759 166.498438 
L 770.703493 168.906792 
L 771.568226 202.925029 
L 772.432959 170.713087 
L 773.297693 173.422486 
L 774.162426 170.713087 
L 775.027159 179.142357 
L 775.891893 183.65805 
L 776.756626 166.197393 
L 777.621359 191.184215 
L 778.486093 201.720823 
L 779.350826 162.584833 
L 780.215559 151.747152 
L 781.080293 161.380656 
L 781.945026 151.145063 
L 782.809759 152.650313 
L 783.674493 176.131913 
L 785.403959 160.477494 
L 786.268693 168.906792 
L 787.133426 173.121441 
L 787.998159 168.605748 
L 788.862893 164.993188 
L 789.727626 175.529825 
L 790.592359 166.498438 
L 791.457093 168.906792 
L 792.321826 170.713087 
L 793.186559 176.734002 
L 794.051293 173.121441 
L 794.916026 157.467051 
L 795.780759 150.24193 
L 796.645493 164.391099 
L 797.510226 149.338797 
L 798.374959 154.456579 
L 799.239693 156.262845 
L 800.104426 166.197393 
L 800.969159 158.671228 
L 801.833893 165.896349 
L 802.698626 156.56389 
L 803.563359 180.948651 
L 804.428093 146.930414 
L 805.292826 141.511588 
L 806.157559 130.071846 
L 807.022293 165.595276 
L 807.887026 172.218308 
L 808.751759 168.605748 
L 809.616493 156.56389 
L 810.481226 168.605748 
L 811.345959 173.422486 
L 812.210693 170.713087 
L 813.075426 137.296939 
L 813.940159 141.812632 
L 814.804893 151.747152 
L 815.669626 149.037753 
L 816.534359 165.595276 
L 817.399093 156.864962 
L 818.263826 190.281082 
L 819.128559 180.647607 
L 819.993293 160.477494 
L 820.858026 146.328326 
L 821.722759 151.747152 
L 822.587492 140.909499 
L 823.452226 157.166007 
L 824.316959 140.006366 
L 825.181692 149.338797 
L 826.046426 136.69485 
L 826.911159 130.372891 
L 827.775892 137.296939 
L 828.640626 140.608455 
L 829.505359 153.252402 
L 830.370092 155.359712 
L 831.234826 164.090055 
L 832.099559 165.595276 
L 832.964292 164.090055 
L 833.829026 174.024574 
L 834.693759 143.618927 
L 835.558492 143.01681 
L 836.423226 171.315175 
L 837.287959 155.961801 
L 838.152692 155.961801 
L 839.017426 148.435664 
L 839.882159 156.262845 
L 840.746892 149.037753 
L 841.611626 157.166007 
L 842.476359 138.200072 
L 843.341092 138.80216 
L 844.205826 138.80216 
L 845.070559 128.265552 
L 845.935292 133.985423 
L 846.800026 135.791717 
L 847.664759 147.231459 
L 848.529492 151.747152 
L 849.394226 158.671228 
L 850.258959 155.058668 
L 851.123692 138.501116 
L 851.988426 148.435664 
L 852.853159 118.331004 
L 853.717892 142.414721 
L 854.582626 153.252402 
L 855.447359 133.383334 
L 856.312092 133.985423 
L 857.176826 146.62937 
L 858.041559 141.812632 
L 858.906292 150.844019 
L 859.771026 136.092761 
L 860.635759 126.158242 
L 861.500492 140.006366 
L 862.365226 157.166007 
L 863.229959 154.456579 
L 864.094692 146.62937 
L 864.959426 132.781245 
L 865.824159 135.490673 
L 866.688892 135.490673 
L 867.553626 156.262845 
L 868.418359 133.383334 
L 869.283092 137.296939 
L 870.147826 127.964508 
L 871.012559 138.501116 
L 871.877292 139.404278 
L 872.742026 122.846697 
L 873.606759 120.137327 
L 874.471492 135.189628 
L 875.336226 134.888584 
L 876.200959 134.888584 
L 877.065692 149.338797 
L 877.930426 139.103233 
L 878.795159 131.577068 
L 879.659892 121.040431 
L 880.524625 138.80216 
L 881.389359 118.933149 
L 882.254092 118.933149 
L 883.118825 130.974979 
L 883.983559 151.145063 
L 884.848292 134.58754 
L 885.713025 131.878112 
L 886.577759 121.040431 
L 887.442492 140.608455 
L 888.307225 134.888584 
L 889.171959 140.006366 
L 890.036692 111.10594 
L 890.901425 136.69485 
L 891.766159 138.80216 
L 892.630892 124.954036 
L 893.495625 119.535238 
L 894.360359 120.137327 
L 895.225092 131.878112 
L 896.089825 134.58754 
L 896.954559 145.425193 
L 897.819292 141.511588 
L 898.684025 125.857197 
L 899.548759 146.930414 
L 900.413492 145.425193 
L 901.278225 135.791717 
L 903.007692 202.021896 
L 903.872425 156.864962 
L 904.737159 158.06914 
L 905.601892 141.210544 
L 906.466625 137.296939 
L 907.331359 114.417456 
L 908.196092 108.697529 
L 909.060825 112.310117 
L 909.925559 138.80216 
L 910.790292 144.221015 
L 911.655025 136.995894 
L 912.519759 121.341504 
L 913.384492 115.320561 
L 914.249225 112.611133 
L 915.113959 106.590247 
L 915.978692 118.632077 
L 916.843425 110.804867 
L 917.708159 125.556153 
L 918.572892 117.126827 
L 919.437625 138.200072 
L 920.302359 127.663463 
L 921.167092 131.878112 
L 922.031825 111.10594 
L 922.896559 112.009045 
L 923.761292 121.943593 
L 924.626025 142.113677 
L 925.490759 136.393806 
L 926.355492 175.830869 
L 927.220225 166.498438 
L 928.084959 175.830869 
L 928.949692 137.597983 
L 929.814425 129.168685 
L 930.679159 112.310117 
L 931.543892 113.815311 
L 932.408625 79.797102 
L 933.273359 80.399191 
L 934.138092 90.935828 
L 935.002825 110.202779 
L 935.867559 138.200072 
L 936.732292 134.888584 
L 937.597025 123.14777 
L 938.461758 141.511588 
L 939.326492 129.770774 
L 940.191225 131.276024 
L 941.055958 117.728915 
L 941.920692 111.708029 
L 942.785425 125.857197 
L 943.650158 115.922649 
L 944.514892 114.116383 
L 945.379625 135.490673 
L 946.244358 112.310117 
L 947.109092 111.406956 
L 947.973825 107.493351 
L 948.838558 119.836254 
L 949.703292 102.977658 
L 950.568025 100.26823 
L 951.432758 112.009045 
L 952.297492 152.048196 
L 953.162225 145.726237 
L 954.026958 110.804867 
L 954.891692 115.019545 
L 955.756425 114.718472 
L 956.621158 123.448814 
L 957.485892 119.836254 
L 958.350625 111.708029 
L 959.215358 97.859876 
L 960.080092 123.14777 
L 960.944825 107.493351 
L 961.809558 109.299617 
L 962.674292 124.050903 
L 963.539025 115.922649 
L 964.403758 114.417456 
L 965.268492 119.535238 
L 966.133225 123.14777 
L 966.997958 106.590247 
L 967.862692 118.331004 
L 968.727425 96.05361 
L 969.592158 92.441078 
L 970.456892 93.043166 
L 971.321625 113.815311 
L 972.186358 118.029988 
L 973.051092 105.687085 
L 973.915825 109.299617 
L 974.780558 120.137327 
L 975.645292 119.535238 
L 976.510025 121.943593 
L 977.374758 130.673935 
L 978.239492 108.09544 
L 979.104225 104.783924 
L 979.968958 92.441078 
L 980.833692 96.05361 
L 981.698425 102.375569 
L 982.563158 114.417456 
L 983.427892 118.632077 
L 984.292625 128.867641 
L 985.157358 148.736709 
L 986.022092 132.480201 
L 986.886825 111.708029 
L 987.751558 111.406956 
L 988.616292 85.516973 
L 989.481025 101.472465 
L 990.345758 108.396513 
L 991.210492 131.577068 
L 992.075225 110.202779 
L 992.939958 112.310117 
L 993.804692 103.880819 
L 994.669425 84.914884 
L 995.534158 93.946271 
L 996.398891 92.140005 
L 997.263625 102.074553 
L 998.128358 101.472465 
L 998.993091 131.577068 
L 999.857825 120.137327 
L 1000.722558 89.129562 
L 1002.452025 98.160948 
L 1002.452025 98.160948 
" clip-path="url(#p020883931e)" style="fill: none; stroke: #4c72b0; stroke-width: 6; stroke-linecap: round"/>
   </g>
   <g id="line2d_14">
    <path d="M 138.58343 584.651648 
L 139.448163 566.588875 
L 140.312896 584.651648 
L 141.17763 583.447462 
L 142.042363 581.039094 
L 142.907096 570.201428 
L 143.77183 573.813983 
L 144.636563 571.104567 
L 145.501296 571.706659 
L 146.36603 571.405613 
L 147.230763 568.395152 
L 148.095496 569.599336 
L 148.96023 569.599336 
L 149.824963 566.889919 
L 150.689696 568.696196 
L 151.55443 566.889919 
L 152.419163 565.685735 
L 153.283896 567.492012 
L 154.14863 565.685735 
L 155.013363 563.277366 
L 155.878096 565.384687 
L 156.74283 562.976318 
L 157.607563 567.492012 
L 158.472296 567.492012 
L 159.33703 563.277366 
L 160.201763 564.481551 
L 161.066496 566.889919 
L 161.93123 561.772134 
L 162.795963 561.772134 
L 163.660696 560.868994 
L 164.52543 560.266902 
L 165.390163 558.761673 
L 167.11963 556.955393 
L 167.984363 555.450164 
L 168.849096 554.848072 
L 169.71383 561.170042 
L 170.578563 555.751208 
L 171.443296 561.772134 
L 172.30803 557.858533 
L 173.172763 557.557485 
L 174.037496 556.3533 
L 174.90223 555.450164 
L 175.766963 557.25644 
L 176.631696 552.138655 
L 177.49643 558.761673 
L 178.361163 555.751208 
L 179.225896 546.418777 
L 180.09063 552.138655 
L 180.955363 553.643887 
L 181.820096 550.332378 
L 182.684829 553.041791 
L 183.549563 550.332378 
L 184.414296 559.664809 
L 185.279029 551.235515 
L 186.143763 545.214593 
L 187.008496 547.924006 
L 187.873229 545.816685 
L 188.737963 545.515637 
L 189.602696 540.698896 
L 190.467429 539.494715 
L 191.332163 539.494715 
L 192.196896 545.214593 
L 193.061629 539.795759 
L 193.926363 535.882154 
L 194.791096 538.892619 
L 195.655829 537.086346 
L 196.520563 534.979021 
L 197.385296 537.688435 
L 198.250029 533.172741 
L 199.114763 534.075881 
L 199.979496 535.882154 
L 200.844229 531.366461 
L 201.708963 540.999944 
L 202.573696 541.300992 
L 203.438429 533.774837 
L 204.303163 528.958092 
L 205.167896 527.452863 
L 206.032629 527.753908 
L 206.897363 522.335074 
L 207.762096 531.968557 
L 208.626829 522.03403 
L 209.491563 522.93717 
L 210.356296 531.968557 
L 211.221029 522.03403 
L 212.085763 525.947635 
L 212.950496 525.646583 
L 213.815229 523.539259 
L 214.679963 519.023565 
L 215.544696 525.044495 
L 216.409429 519.023565 
L 217.274163 521.732986 
L 218.138896 526.248679 
L 219.003629 522.335074 
L 219.868363 526.248679 
L 220.733096 519.926706 
L 221.597829 518.722521 
L 222.462563 529.560188 
L 223.327296 519.926706 
L 224.192029 518.722521 
L 225.056763 516.013108 
L 225.921496 520.829846 
L 226.786229 519.324617 
L 227.650963 520.227757 
L 228.515696 526.549723 
L 229.380429 516.314152 
L 230.245163 513.905783 
L 231.109896 516.314152 
L 231.974629 516.013108 
L 232.839363 520.528801 
L 233.704096 521.431941 
L 234.568829 521.13089 
L 235.433563 514.808923 
L 236.298296 513.604739 
L 237.163029 512.099503 
L 238.027763 509.691134 
L 238.892496 516.314152 
L 239.757229 514.507872 
L 240.621962 511.798459 
L 241.486696 522.636126 
L 242.351429 512.099503 
L 243.216162 511.798459 
L 244.080896 516.013108 
L 244.945629 510.594274 
L 245.810362 509.691134 
L 246.675096 511.798459 
L 247.539829 521.732986 
L 248.404562 514.206828 
L 249.269296 511.196363 
L 250.134029 509.691134 
L 250.998762 509.691134 
L 251.863496 516.615197 
L 252.728229 517.518337 
L 253.592962 507.58381 
L 254.457696 512.701599 
L 255.322429 519.324617 
L 256.187162 508.48695 
L 257.051896 516.916248 
L 257.916629 509.39009 
L 258.781362 505.476485 
L 259.646096 509.39009 
L 260.510829 508.48695 
L 261.375562 506.078581 
L 262.240296 511.196363 
L 263.105029 507.884861 
L 263.969762 512.701599 
L 264.834496 509.992179 
L 265.699229 505.777537 
L 266.563962 508.185906 
L 267.428696 508.185906 
L 268.293429 509.691134 
L 269.158162 505.777537 
L 270.022896 525.044495 
L 270.887629 514.206828 
L 271.752362 510.895319 
L 272.617096 514.206828 
L 273.481829 506.078581 
L 274.346562 514.507872 
L 275.211296 509.691134 
L 276.076029 510.29323 
L 276.940762 506.379625 
L 277.805496 509.089046 
L 278.670229 510.594274 
L 279.534962 504.272301 
L 280.399696 505.777537 
L 281.264429 509.39009 
L 282.129162 510.594274 
L 282.993896 504.272301 
L 283.858629 508.185906 
L 284.723362 508.48695 
L 285.588096 502.466028 
L 286.452829 508.185906 
L 287.317562 507.58381 
L 288.182296 505.175441 
L 289.047029 504.573352 
L 289.911762 509.089046 
L 290.776496 507.884861 
L 291.641229 504.874397 
L 292.505962 507.884861 
L 293.370696 503.369168 
L 294.235429 507.58381 
L 295.100162 506.379625 
L 295.964896 505.777537 
L 296.829629 516.916248 
L 297.694362 508.185906 
L 298.559096 508.185906 
L 299.423829 503.670212 
L 300.288562 505.175441 
L 301.153295 506.981721 
L 302.018029 502.466028 
L 302.882762 522.636126 
L 303.747495 505.777537 
L 304.612229 504.874397 
L 305.476962 502.767072 
L 306.341695 507.282765 
L 307.206429 506.981721 
L 308.071162 508.787994 
L 308.935895 500.960792 
L 309.800629 503.670212 
L 310.665362 514.808923 
L 311.530095 501.863932 
L 312.394829 504.874397 
L 313.259562 509.39009 
L 314.124295 509.691134 
L 314.989029 509.691134 
L 315.853762 497.649283 
L 316.718495 504.272301 
L 317.583229 515.109968 
L 318.447962 503.971257 
L 319.312695 503.971257 
L 320.177429 502.466028 
L 321.042162 502.164976 
L 321.906895 504.272301 
L 322.771629 506.68067 
L 323.636362 505.175441 
L 324.501095 500.659748 
L 325.365829 504.272301 
L 326.230562 501.562888 
L 327.095295 501.562888 
L 327.960029 499.455563 
L 328.824762 507.58381 
L 329.689495 504.272301 
L 330.554229 507.58381 
L 331.418962 507.58381 
L 332.283695 512.099503 
L 333.148429 503.670212 
L 334.013162 501.261843 
L 334.877895 508.48695 
L 335.742629 500.659748 
L 336.607362 510.594274 
L 337.472095 503.670212 
L 338.336829 506.379625 
L 339.201562 506.379625 
L 340.066295 506.078581 
L 340.931029 504.573352 
L 341.795762 509.992179 
L 342.660495 506.981721 
L 343.525229 509.992179 
L 344.389962 525.345539 
L 345.254695 511.798459 
L 346.119429 501.863932 
L 346.984162 507.58381 
L 347.848895 509.691134 
L 348.713629 501.261843 
L 349.578362 504.874397 
L 350.443095 500.057659 
L 351.307829 506.68067 
L 352.172562 507.58381 
L 353.037295 510.29323 
L 353.902029 500.057659 
L 354.766762 504.272301 
L 355.631495 506.078581 
L 356.496229 505.175441 
L 357.360962 506.379625 
L 358.225695 502.767072 
L 359.090428 507.58381 
L 359.955162 510.895319 
L 360.819895 531.968557 
L 361.684628 506.68067 
L 362.549362 502.466028 
L 363.414095 520.528801 
L 364.278828 504.272301 
L 365.143562 510.594274 
L 366.008295 509.39009 
L 366.873028 501.562888 
L 367.737762 505.476485 
L 368.602495 516.916248 
L 369.467228 502.767072 
L 370.331962 502.466028 
L 371.196695 519.023565 
L 372.061428 508.185906 
L 372.926162 510.895319 
L 373.790895 509.691134 
L 374.655628 503.369168 
L 375.520362 508.185906 
L 376.385095 508.48695 
L 377.249828 506.68067 
L 378.114562 505.777537 
L 378.979295 510.895319 
L 379.844028 511.196363 
L 380.708762 506.68067 
L 381.573495 503.971257 
L 382.438228 507.282765 
L 383.302962 516.314152 
L 384.167695 502.466028 
L 385.032428 511.497415 
L 385.897162 502.767072 
L 386.761895 502.466028 
L 388.491362 507.58381 
L 389.356095 515.411012 
L 390.220828 509.089046 
L 391.085562 509.39009 
L 391.950295 505.175441 
L 392.815028 511.196363 
L 393.679762 507.282765 
L 394.544495 512.099503 
L 395.409228 505.777537 
L 396.273962 503.670212 
L 397.138695 504.874397 
L 398.003428 508.185906 
L 398.868162 507.58381 
L 399.732895 505.777537 
L 400.597628 507.282765 
L 401.462362 504.573352 
L 402.327095 514.507872 
L 403.191828 506.68067 
L 404.056562 506.078581 
L 404.921295 513.905783 
L 405.786028 509.089046 
L 406.650762 500.057659 
L 407.515495 511.798459 
L 408.380228 506.981721 
L 410.109695 502.466028 
L 410.974428 513.303688 
L 411.839162 506.078581 
L 412.703895 501.261843 
L 413.568628 500.358703 
L 414.433362 503.670212 
L 415.298095 522.636126 
L 416.162828 513.604739 
L 417.027561 500.960792 
L 417.892295 503.369168 
L 418.757028 509.992179 
L 419.621761 506.68067 
L 420.486495 500.057659 
L 421.351228 512.099503 
L 422.215961 508.185906 
L 423.080695 505.175441 
L 423.945428 512.099503 
L 424.810161 506.68067 
L 425.674895 505.476485 
L 426.539628 508.48695 
L 427.404361 512.701599 
L 428.269095 513.002643 
L 429.133828 506.379625 
L 429.998561 504.272301 
L 430.863295 513.303688 
L 431.728028 501.261843 
L 432.592761 509.089046 
L 433.457495 506.379625 
L 434.322228 502.767072 
L 435.186961 502.767072 
L 436.051695 506.981721 
L 436.916428 503.369168 
L 437.781161 510.594274 
L 438.645895 506.078581 
L 439.510628 507.282765 
L 440.375361 507.282765 
L 441.240095 504.874397 
L 442.104828 509.089046 
L 442.969561 506.981721 
L 443.834295 509.089046 
L 444.699028 505.476485 
L 445.563761 500.358703 
L 446.428495 510.594274 
L 447.293228 512.400555 
L 448.157961 512.701599 
L 449.887428 505.777537 
L 450.752161 514.507872 
L 451.616895 499.455563 
L 452.481628 513.905783 
L 453.346361 500.057659 
L 454.211095 501.261843 
L 455.075828 506.68067 
L 455.940561 505.175441 
L 456.805295 509.691134 
L 457.670028 509.089046 
L 458.534761 507.282765 
L 459.399495 512.099503 
L 460.264228 506.078581 
L 461.128961 506.68067 
L 461.993695 503.971257 
L 462.858428 507.58381 
L 463.723161 504.874397 
L 464.587895 509.089046 
L 465.452628 512.400555 
L 466.317361 508.787994 
L 467.182095 513.002643 
L 468.046828 503.068116 
L 468.911561 515.712056 
L 469.776295 506.981721 
L 470.641028 506.981721 
L 471.505761 507.282765 
L 472.370495 516.615197 
L 473.235228 517.819381 
L 474.099961 510.29323 
L 474.964694 508.48695 
L 475.829428 508.185906 
L 476.694161 508.185906 
L 477.558894 510.594274 
L 478.423628 503.369168 
L 479.288361 507.58381 
L 480.153094 505.777537 
L 481.017828 503.670212 
L 481.882561 512.400555 
L 482.747294 531.065417 
L 483.612028 507.884861 
L 484.476761 508.185906 
L 485.341494 507.58381 
L 486.206228 505.777537 
L 487.070961 509.992179 
L 487.935694 509.691134 
L 488.800428 508.185906 
L 489.665161 506.078581 
L 490.529894 506.078581 
L 491.394628 509.992179 
L 492.259361 511.497415 
L 493.124094 505.175441 
L 493.988828 505.175441 
L 494.853561 504.272301 
L 495.718294 510.594274 
L 496.583028 515.411012 
L 497.447761 533.774837 
L 498.312494 513.303688 
L 499.177228 507.884861 
L 500.041961 509.089046 
L 500.906694 516.013108 
L 501.771428 509.992179 
L 502.636161 505.476485 
L 503.500894 511.196363 
L 504.365628 507.58381 
L 505.230361 508.787994 
L 506.095094 501.261843 
L 506.959828 510.594274 
L 507.824561 508.48695 
L 508.689294 501.863932 
L 509.554028 505.175441 
L 510.418761 509.39009 
L 511.283494 507.884861 
L 512.148228 507.58381 
L 513.012961 509.992179 
L 513.877694 513.604739 
L 514.742428 508.185906 
L 515.607161 510.29323 
L 516.471894 509.089046 
L 517.336628 512.099503 
L 518.201361 506.078581 
L 519.066094 503.670212 
L 519.930828 509.691134 
L 520.795561 511.196363 
L 521.660294 512.400555 
L 522.525028 518.421477 
L 523.389761 512.400555 
L 524.254494 512.099503 
L 525.119228 531.366461 
L 525.983961 526.549723 
L 526.848694 507.282765 
L 527.713428 512.099503 
L 528.578161 507.282765 
L 529.442894 499.455563 
L 530.307628 513.002643 
L 531.172361 506.078581 
L 532.037094 507.282765 
L 532.901827 507.884861 
L 533.766561 509.089046 
L 534.631294 514.206828 
L 535.496027 523.238214 
L 536.360761 507.58381 
L 537.225494 506.981721 
L 538.954961 508.787994 
L 539.819694 508.185906 
L 540.684427 506.379625 
L 541.549161 501.562888 
L 542.413894 519.023565 
L 543.278627 513.002643 
L 544.143361 501.562888 
L 545.008094 509.992179 
L 545.872827 514.206828 
L 546.737561 514.206828 
L 547.602294 513.905783 
L 548.467027 501.562888 
L 549.331761 510.29323 
L 550.196494 514.808923 
L 551.061227 504.874397 
L 551.925961 510.895319 
L 552.790694 512.400555 
L 553.655427 516.615197 
L 554.520161 506.981721 
L 555.384894 517.518337 
L 557.114361 503.971257 
L 557.979094 505.476485 
L 558.843827 526.248679 
L 559.708561 511.196363 
L 560.573294 503.369168 
L 561.438027 513.604739 
L 562.302761 513.604739 
L 563.167494 508.185906 
L 564.032227 507.884861 
L 564.896961 503.971257 
L 565.761694 509.39009 
L 566.626427 510.594274 
L 567.491161 510.895319 
L 568.355894 511.497415 
L 569.220627 509.39009 
L 570.085361 510.594274 
L 570.950094 511.196363 
L 571.814827 513.002643 
L 572.679561 508.48695 
L 573.544294 509.992179 
L 574.409027 510.29323 
L 575.273761 506.379625 
L 576.138494 513.905783 
L 577.003227 519.023565 
L 577.867961 503.670212 
L 578.732694 505.476485 
L 579.597427 503.369168 
L 580.462161 510.29323 
L 581.326894 518.421477 
L 582.191627 527.753908 
L 583.056361 510.29323 
L 583.921094 511.196363 
L 584.785827 503.369168 
L 586.515294 517.217292 
L 588.244761 506.379625 
L 589.109494 506.078581 
L 589.974227 512.400555 
L 590.83896 512.400555 
L 591.703694 511.497415 
L 592.568427 509.39009 
L 593.43316 509.089046 
L 594.297894 514.808923 
L 595.162627 513.303688 
L 596.02736 514.507872 
L 596.892094 516.916248 
L 597.756827 509.39009 
L 598.62156 523.238214 
L 599.486294 513.905783 
L 600.351027 509.089046 
L 601.21576 513.002643 
L 602.080494 508.185906 
L 602.945227 516.013108 
L 603.80996 512.400555 
L 604.674694 507.884861 
L 605.539427 509.089046 
L 606.40416 511.196363 
L 607.268894 513.905783 
L 608.133627 510.594274 
L 608.99836 517.518337 
L 609.863094 506.68067 
L 610.727827 510.29323 
L 611.59256 506.981721 
L 612.457294 511.497415 
L 613.322027 515.109968 
L 614.18676 505.175441 
L 615.051494 509.39009 
L 615.916227 511.798459 
L 616.78096 507.884861 
L 617.645694 513.303688 
L 618.510427 504.874397 
L 619.37516 511.196363 
L 620.239894 508.185906 
L 621.104627 509.691134 
L 621.96936 514.507872 
L 622.834094 514.206828 
L 623.698827 514.206828 
L 624.56356 518.722521 
L 625.428294 520.528801 
L 626.293027 508.48695 
L 627.15776 509.691134 
L 628.022494 512.701599 
L 628.887227 509.992179 
L 629.75196 520.829846 
L 630.616694 507.884861 
L 631.481427 512.701599 
L 632.34616 509.992179 
L 633.210894 511.798459 
L 634.075627 520.528801 
L 634.94036 507.884861 
L 635.805094 507.58381 
L 636.669827 519.023565 
L 637.53456 510.895319 
L 638.399294 506.68067 
L 639.264027 508.787994 
L 640.993494 511.798459 
L 641.858227 512.099503 
L 642.72296 509.089046 
L 643.587694 518.120432 
L 644.452427 524.74345 
L 645.31716 509.39009 
L 646.181894 508.48695 
L 647.046627 518.421477 
L 647.91136 513.303688 
L 648.776093 506.379625 
L 649.640827 509.691134 
L 651.370293 513.303688 
L 653.09976 505.777537 
L 653.964493 513.905783 
L 654.829227 511.196363 
L 655.69396 516.615197 
L 656.558693 506.981721 
L 657.423427 509.992179 
L 658.28816 510.895319 
L 659.152893 521.732986 
L 660.017627 522.335074 
L 660.88236 520.528801 
L 661.747093 519.926706 
L 662.611827 515.109968 
L 663.47656 513.303688 
L 664.341293 522.93717 
L 665.206027 516.615197 
L 666.07076 514.206828 
L 666.935493 513.905783 
L 667.800227 514.206828 
L 668.66496 513.002643 
L 669.529693 514.808923 
L 670.394427 508.185906 
L 671.25916 514.206828 
L 672.123893 512.701599 
L 672.988627 519.023565 
L 674.718093 510.594274 
L 675.582827 517.217292 
L 676.44756 512.400555 
L 677.312293 511.196363 
L 678.177027 511.798459 
L 679.04176 521.431941 
L 679.906493 507.58381 
L 680.771227 512.400555 
L 681.63596 510.895319 
L 682.500693 510.594274 
L 683.365427 509.992179 
L 684.23016 511.196363 
L 685.094893 515.109968 
L 685.959627 517.819381 
L 686.82436 515.411012 
L 687.689093 515.712056 
L 688.553827 520.829846 
L 689.41856 519.324617 
L 690.283293 515.712056 
L 691.148027 523.539259 
L 692.01276 513.604739 
L 692.877493 510.895319 
L 693.742227 510.594274 
L 694.60696 515.712056 
L 695.471693 516.615197 
L 696.336427 513.604739 
L 697.20116 520.829846 
L 698.930627 510.29323 
L 699.79536 510.594274 
L 700.660093 517.217292 
L 701.524827 513.002643 
L 702.38956 506.981721 
L 703.254293 511.497415 
L 704.119027 512.099503 
L 704.98376 511.798459 
L 705.848493 513.303688 
L 706.713226 520.829846 
L 707.57796 524.442399 
L 708.442693 516.314152 
L 709.307426 516.314152 
L 710.17216 514.206828 
L 711.036893 515.411012 
L 711.901626 513.905783 
L 712.76636 508.787994 
L 713.631093 514.808923 
L 714.495826 524.442399 
L 715.36056 512.400555 
L 716.225293 515.109968 
L 717.090026 518.421477 
L 717.95476 512.701599 
L 718.819493 513.303688 
L 719.684226 511.196363 
L 720.54896 514.507872 
L 721.413693 517.217292 
L 722.278426 512.701599 
L 723.14316 512.701599 
L 724.007893 512.400555 
L 724.872626 524.141355 
L 725.73736 510.594274 
L 726.602093 510.29323 
L 727.466826 509.691134 
L 728.33156 512.701599 
L 729.196293 513.002643 
L 730.061026 516.314152 
L 730.92576 516.615197 
L 731.790493 513.604739 
L 732.655226 514.507872 
L 733.51996 509.089046 
L 734.384693 519.625661 
L 735.249426 515.712056 
L 736.11416 510.895319 
L 736.978893 514.507872 
L 737.843626 522.93717 
L 738.70836 511.798459 
L 739.573093 519.324617 
L 740.437826 515.411012 
L 741.30256 514.808923 
L 742.167293 524.442399 
L 743.032026 513.002643 
L 743.89676 510.29323 
L 744.761493 517.819381 
L 745.626226 513.002643 
L 746.49096 513.905783 
L 747.355693 510.594274 
L 748.220426 509.39009 
L 749.08516 514.206828 
L 749.949893 512.400555 
L 750.814626 515.411012 
L 751.67936 517.819381 
L 752.544093 514.808923 
L 753.408826 519.324617 
L 754.27356 511.196363 
L 755.138293 513.303688 
L 756.003026 516.916248 
L 756.86776 518.421477 
L 757.732493 520.528801 
L 758.597226 513.604739 
L 759.46196 512.099503 
L 760.326693 517.217292 
L 761.191426 507.884861 
L 762.05616 509.089046 
L 762.920893 517.217292 
L 763.785626 515.411012 
L 764.650359 513.303688 
L 765.515093 510.895319 
L 766.379826 518.120432 
L 767.244559 522.93717 
L 768.109293 512.701599 
L 768.974026 511.497415 
L 769.838759 515.109968 
L 770.703493 513.604739 
L 771.568226 515.712056 
L 772.432959 514.507872 
L 773.297693 508.48695 
L 774.162426 518.120432 
L 775.027159 515.712056 
L 776.756626 509.992179 
L 777.621359 535.280066 
L 778.486093 520.227757 
L 779.350826 513.604739 
L 780.215559 509.992179 
L 781.080293 512.400555 
L 781.945026 509.691134 
L 782.809759 522.335074 
L 783.674493 516.615197 
L 784.539226 515.411012 
L 785.403959 516.615197 
L 786.268693 512.400555 
L 787.133426 521.431941 
L 787.998159 513.604739 
L 788.862893 515.109968 
L 789.727626 521.431941 
L 790.592359 517.518337 
L 791.457093 526.549723 
L 792.321826 510.895319 
L 793.186559 518.120432 
L 794.051293 513.002643 
L 794.916026 515.109968 
L 795.780759 514.206828 
L 796.645493 510.594274 
L 797.510226 512.701599 
L 798.374959 517.819381 
L 799.239693 515.712056 
L 800.104426 510.594274 
L 800.969159 514.206828 
L 801.833893 511.798459 
L 802.698626 521.732986 
L 803.563359 520.227757 
L 804.428093 515.712056 
L 805.292826 518.120432 
L 806.157559 514.808923 
L 807.022293 516.314152 
L 807.887026 512.400555 
L 808.751759 521.13089 
L 809.616493 513.905783 
L 810.481226 518.120432 
L 811.345959 517.217292 
L 812.210693 511.798459 
L 813.075426 516.615197 
L 813.940159 525.646583 
L 814.804893 520.829846 
L 815.669626 531.366461 
L 816.534359 519.625661 
L 817.399093 514.507872 
L 818.263826 521.431941 
L 819.128559 517.819381 
L 819.993293 522.93717 
L 820.858026 517.518337 
L 821.722759 519.023565 
L 822.587492 516.314152 
L 823.452226 514.206828 
L 824.316959 515.411012 
L 825.181692 510.594274 
L 826.046426 521.732986 
L 826.911159 520.528801 
L 827.775892 515.411012 
L 828.640626 517.518337 
L 829.505359 512.099503 
L 830.370092 520.528801 
L 831.234826 513.905783 
L 832.099559 517.217292 
L 832.964292 522.636126 
L 833.829026 513.303688 
L 834.693759 518.421477 
L 835.558492 519.324617 
L 836.423226 517.819381 
L 837.287959 518.120432 
L 838.152692 512.701599 
L 839.882159 521.431941 
L 840.746892 512.400555 
L 841.611626 513.303688 
L 842.476359 522.636126 
L 843.341092 517.217292 
L 844.205826 514.507872 
L 845.070559 517.819381 
L 845.935292 513.303688 
L 846.800026 520.528801 
L 847.664759 515.109968 
L 848.529492 516.916248 
L 849.394226 527.452863 
L 850.258959 516.615197 
L 851.123692 516.314152 
L 851.988426 522.636126 
L 852.853159 516.314152 
L 853.717892 526.549723 
L 854.582626 514.808923 
L 855.447359 522.335074 
L 856.312092 525.044495 
L 858.041559 513.002643 
L 858.906292 518.421477 
L 859.771026 515.712056 
L 860.635759 517.819381 
L 861.500492 519.023565 
L 862.365226 516.013108 
L 863.229959 514.507872 
L 864.094692 514.507872 
L 864.959426 515.411012 
L 865.824159 515.712056 
L 866.688892 518.421477 
L 867.553626 519.625661 
L 868.418359 514.808923 
L 869.283092 518.120432 
L 870.147826 522.03403 
L 871.012559 516.314152 
L 871.877292 513.002643 
L 873.606759 518.120432 
L 874.471492 519.926706 
L 875.336226 515.712056 
L 876.200959 512.099503 
L 877.065692 512.701599 
L 877.930426 518.722521 
L 878.795159 514.808923 
L 879.659892 517.819381 
L 880.524625 519.324617 
L 881.389359 518.722521 
L 882.254092 513.303688 
L 883.118825 525.947635 
L 883.983559 520.227757 
L 884.848292 516.615197 
L 885.713025 516.615197 
L 886.577759 517.217292 
L 887.442492 516.013108 
L 888.307225 521.13089 
L 889.171959 513.604739 
L 890.036692 519.926706 
L 890.901425 516.013108 
L 891.766159 514.808923 
L 892.630892 524.442399 
L 893.495625 515.109968 
L 894.360359 524.74345 
L 895.225092 515.411012 
L 896.089825 520.829846 
L 896.954559 512.099503 
L 897.819292 518.421477 
L 898.684025 516.916248 
L 899.548759 515.712056 
L 900.413492 522.93717 
L 901.278225 516.615197 
L 902.142959 520.528801 
L 903.007692 521.732986 
L 903.872425 515.411012 
L 904.737159 528.054952 
L 905.601892 523.84031 
L 906.466625 517.217292 
L 907.331359 518.421477 
L 908.196092 514.808923 
L 909.060825 520.829846 
L 909.925559 524.442399 
L 910.790292 523.238214 
L 911.655025 518.722521 
L 912.519759 514.808923 
L 913.384492 516.314152 
L 914.249225 515.411012 
L 915.113959 515.712056 
L 915.978692 519.926706 
L 916.843425 519.023565 
L 917.708159 515.411012 
L 918.572892 519.324617 
L 919.437625 516.916248 
L 920.302359 525.044495 
L 921.167092 520.528801 
L 922.031825 520.528801 
L 922.896559 514.206828 
L 923.761292 530.764372 
L 924.626025 526.549723 
L 925.490759 513.002643 
L 926.355492 525.947635 
L 927.220225 514.206828 
L 928.084959 517.819381 
L 928.949692 525.646583 
L 929.814425 515.411012 
L 930.679159 516.615197 
L 931.543892 515.109968 
L 933.273359 515.712056 
L 934.138092 516.916248 
L 935.002825 517.518337 
L 935.867559 510.594274 
L 936.732292 526.248679 
L 937.597025 514.808923 
L 938.461758 515.712056 
L 939.326492 515.109968 
L 940.191225 526.248679 
L 941.055958 517.819381 
L 942.785425 523.84031 
L 943.650158 517.518337 
L 944.514892 525.345539 
L 945.379625 519.023565 
L 946.244358 522.636126 
L 947.109092 519.023565 
L 947.973825 514.507872 
L 948.838558 520.829846 
L 949.703292 520.528801 
L 950.568025 522.636126 
L 951.432758 521.431941 
L 952.297492 525.646583 
L 953.162225 523.238214 
L 954.026958 521.431941 
L 954.891692 521.13089 
L 955.756425 518.120432 
L 956.621158 522.335074 
L 957.485892 517.518337 
L 958.350625 517.518337 
L 959.215358 520.528801 
L 960.080092 513.905783 
L 960.944825 518.120432 
L 961.809558 514.808923 
L 962.674292 515.411012 
L 963.539025 518.421477 
L 964.403758 517.518337 
L 965.268492 518.421477 
L 966.133225 517.819381 
L 966.997958 518.120432 
L 967.862692 519.625661 
L 968.727425 518.722521 
L 969.592158 519.625661 
L 970.456892 521.431941 
L 972.186358 512.701599 
L 973.051092 523.238214 
L 973.915825 520.829846 
L 974.780558 528.054952 
L 975.645292 522.335074 
L 976.510025 523.238214 
L 977.374758 519.926706 
L 978.239492 519.324617 
L 979.104225 526.549723 
L 979.968958 514.507872 
L 980.833692 522.03403 
L 981.698425 517.217292 
L 983.427892 520.227757 
L 984.292625 524.141355 
L 985.157358 520.227757 
L 986.022092 522.335074 
L 986.886825 516.314152 
L 988.616292 521.732986 
L 989.481025 522.03403 
L 990.345758 528.356004 
L 991.210492 519.625661 
L 992.075225 520.829846 
L 993.804692 519.625661 
L 994.669425 521.431941 
L 995.534158 516.013108 
L 996.398891 519.625661 
L 997.263625 519.625661 
L 998.128358 519.023565 
L 998.993091 522.636126 
L 999.857825 519.324617 
L 1000.722558 515.109968 
L 1001.587291 520.528801 
L 1002.452025 523.238214 
L 1002.452025 523.238214 
" clip-path="url(#p020883931e)" style="fill: none; stroke: #dd8452; stroke-width: 6; stroke-linecap: round"/>
   </g>
   <g id="line2d_15"/>
   <g id="line2d_16"/>
   <g id="patch_3">
    <path d="M 95.39 609.894375 
L 95.39 54.554375 
" style="fill: none; stroke: #cccccc; stroke-width: 1.875; stroke-linejoin: miter; stroke-linecap: square"/>
   </g>
   <g id="patch_4">
    <path d="M 1045.645455 609.894375 
L 1045.645455 54.554375 
" style="fill: none; stroke: #cccccc; stroke-width: 1.875; stroke-linejoin: miter; stroke-linecap: square"/>
   </g>
   <g id="patch_5">
    <path d="M 95.39 609.894375 
L 1045.645455 609.894375 
" style="fill: none; stroke: #cccccc; stroke-width: 1.875; stroke-linejoin: miter; stroke-linecap: square"/>
   </g>
   <g id="patch_6">
    <path d="M 95.39 54.554375 
L 1045.645455 54.554375 
" style="fill: none; stroke: #cccccc; stroke-width: 1.875; stroke-linejoin: miter; stroke-linecap: square"/>
   </g>
   <g id="text_15">
    <!-- Training Progress: Accuracy -->
    <g style="fill: #262626" transform="translate(287.26804 34.554375) scale(0.36 -0.36)">
     <defs>
      <path id="DejaVuSans-Bold-54" d="M 31 4666 
L 4331 4666 
L 4331 3756 
L 2784 3756 
L 2784 0 
L 1581 0 
L 1581 3756 
L 31 3756 
L 31 4666 
z
" transform="scale(0.015625)"/>
      <path id="DejaVuSans-Bold-72" d="M 3138 2547 
Q 2991 2616 2845 2648 
Q 2700 2681 2553 2681 
Q 2122 2681 1889 2404 
Q 1656 2128 1656 1613 
L 1656 0 
L 538 0 
L 538 3500 
L 1656 3500 
L 1656 2925 
Q 1872 3269 2151 3426 
Q 2431 3584 2822 3584 
Q 2878 3584 2943 3579 
Q 3009 3575 3134 3559 
L 3138 2547 
z
" transform="scale(0.015625)"/>
      <path id="DejaVuSans-Bold-61" d="M 2106 1575 
Q 1756 1575 1579 1456 
Q 1403 1338 1403 1106 
Q 1403 894 1545 773 
Q 1688 653 1941 653 
Q 2256 653 2472 879 
Q 2688 1106 2688 1447 
L 2688 1575 
L 2106 1575 
z
M 3816 1997 
L 3816 0 
L 2688 0 
L 2688 519 
Q 2463 200 2181 54 
Q 1900 -91 1497 -91 
Q 953 -91 614 226 
Q 275 544 275 1050 
Q 275 1666 698 1953 
Q 1122 2241 2028 2241 
L 2688 2241 
L 2688 2328 
Q 2688 2594 2478 2717 
Q 2269 2841 1825 2841 
Q 1466 2841 1156 2769 
Q 847 2697 581 2553 
L 581 3406 
Q 941 3494 1303 3539 
Q 1666 3584 2028 3584 
Q 2975 3584 3395 3211 
Q 3816 2838 3816 1997 
z
" transform="scale(0.015625)"/>
      <path id="DejaVuSans-Bold-69" d="M 538 3500 
L 1656 3500 
L 1656 0 
L 538 0 
L 538 3500 
z
M 538 4863 
L 1656 4863 
L 1656 3950 
L 538 3950 
L 538 4863 
z
" transform="scale(0.015625)"/>
      <path id="DejaVuSans-Bold-6e" d="M 4056 2131 
L 4056 0 
L 2931 0 
L 2931 347 
L 2931 1631 
Q 2931 2084 2911 2256 
Q 2891 2428 2841 2509 
Q 2775 2619 2662 2680 
Q 2550 2741 2406 2741 
Q 2056 2741 1856 2470 
Q 1656 2200 1656 1722 
L 1656 0 
L 538 0 
L 538 3500 
L 1656 3500 
L 1656 2988 
Q 1909 3294 2193 3439 
Q 2478 3584 2822 3584 
Q 3428 3584 3742 3212 
Q 4056 2841 4056 2131 
z
" transform="scale(0.015625)"/>
      <path id="DejaVuSans-Bold-67" d="M 2919 594 
Q 2688 288 2409 144 
Q 2131 0 1766 0 
Q 1125 0 706 504 
Q 288 1009 288 1791 
Q 288 2575 706 3076 
Q 1125 3578 1766 3578 
Q 2131 3578 2409 3434 
Q 2688 3291 2919 2981 
L 2919 3500 
L 4044 3500 
L 4044 353 
Q 4044 -491 3511 -936 
Q 2978 -1381 1966 -1381 
Q 1638 -1381 1331 -1331 
Q 1025 -1281 716 -1178 
L 716 -306 
Q 1009 -475 1290 -558 
Q 1572 -641 1856 -641 
Q 2406 -641 2662 -400 
Q 2919 -159 2919 353 
L 2919 594 
z
M 2181 2772 
Q 1834 2772 1640 2515 
Q 1447 2259 1447 1791 
Q 1447 1309 1634 1061 
Q 1822 813 2181 813 
Q 2531 813 2725 1069 
Q 2919 1325 2919 1791 
Q 2919 2259 2725 2515 
Q 2531 2772 2181 2772 
z
" transform="scale(0.015625)"/>
      <path id="DejaVuSans-Bold-20" transform="scale(0.015625)"/>
      <path id="DejaVuSans-Bold-50" d="M 588 4666 
L 2584 4666 
Q 3475 4666 3951 4270 
Q 4428 3875 4428 3144 
Q 4428 2409 3951 2014 
Q 3475 1619 2584 1619 
L 1791 1619 
L 1791 0 
L 588 0 
L 588 4666 
z
M 1791 3794 
L 1791 2491 
L 2456 2491 
Q 2806 2491 2997 2661 
Q 3188 2831 3188 3144 
Q 3188 3456 2997 3625 
Q 2806 3794 2456 3794 
L 1791 3794 
z
" transform="scale(0.015625)"/>
      <path id="DejaVuSans-Bold-6f" d="M 2203 2784 
Q 1831 2784 1636 2517 
Q 1441 2250 1441 1747 
Q 1441 1244 1636 976 
Q 1831 709 2203 709 
Q 2569 709 2762 976 
Q 2956 1244 2956 1747 
Q 2956 2250 2762 2517 
Q 2569 2784 2203 2784 
z
M 2203 3584 
Q 3106 3584 3614 3096 
Q 4122 2609 4122 1747 
Q 4122 884 3614 396 
Q 3106 -91 2203 -91 
Q 1297 -91 786 396 
Q 275 884 275 1747 
Q 275 2609 786 3096 
Q 1297 3584 2203 3584 
z
" transform="scale(0.015625)"/>
      <path id="DejaVuSans-Bold-65" d="M 4031 1759 
L 4031 1441 
L 1416 1441 
Q 1456 1047 1700 850 
Q 1944 653 2381 653 
Q 2734 653 3104 758 
Q 3475 863 3866 1075 
L 3866 213 
Q 3469 63 3072 -14 
Q 2675 -91 2278 -91 
Q 1328 -91 801 392 
Q 275 875 275 1747 
Q 275 2603 792 3093 
Q 1309 3584 2216 3584 
Q 3041 3584 3536 3087 
Q 4031 2591 4031 1759 
z
M 2881 2131 
Q 2881 2450 2695 2645 
Q 2509 2841 2209 2841 
Q 1884 2841 1681 2658 
Q 1478 2475 1428 2131 
L 2881 2131 
z
" transform="scale(0.015625)"/>
      <path id="DejaVuSans-Bold-73" d="M 3272 3391 
L 3272 2541 
Q 2913 2691 2578 2766 
Q 2244 2841 1947 2841 
Q 1628 2841 1473 2761 
Q 1319 2681 1319 2516 
Q 1319 2381 1436 2309 
Q 1553 2238 1856 2203 
L 2053 2175 
Q 2913 2066 3209 1816 
Q 3506 1566 3506 1031 
Q 3506 472 3093 190 
Q 2681 -91 1863 -91 
Q 1516 -91 1145 -36 
Q 775 19 384 128 
L 384 978 
Q 719 816 1070 734 
Q 1422 653 1784 653 
Q 2113 653 2278 743 
Q 2444 834 2444 1013 
Q 2444 1163 2330 1236 
Q 2216 1309 1875 1350 
L 1678 1375 
Q 931 1469 631 1722 
Q 331 1975 331 2491 
Q 331 3047 712 3315 
Q 1094 3584 1881 3584 
Q 2191 3584 2531 3537 
Q 2872 3491 3272 3391 
z
" transform="scale(0.015625)"/>
      <path id="DejaVuSans-Bold-3a" d="M 716 3500 
L 1844 3500 
L 1844 2291 
L 716 2291 
L 716 3500 
z
M 716 1209 
L 1844 1209 
L 1844 0 
L 716 0 
L 716 1209 
z
" transform="scale(0.015625)"/>
      <path id="DejaVuSans-Bold-41" d="M 3419 850 
L 1538 850 
L 1241 0 
L 31 0 
L 1759 4666 
L 3194 4666 
L 4922 0 
L 3713 0 
L 3419 850 
z
M 1838 1716 
L 3116 1716 
L 2478 3572 
L 1838 1716 
z
" transform="scale(0.015625)"/>
      <path id="DejaVuSans-Bold-63" d="M 3366 3391 
L 3366 2478 
Q 3138 2634 2908 2709 
Q 2678 2784 2431 2784 
Q 1963 2784 1702 2511 
Q 1441 2238 1441 1747 
Q 1441 1256 1702 982 
Q 1963 709 2431 709 
Q 2694 709 2930 787 
Q 3166 866 3366 1019 
L 3366 103 
Q 3103 6 2833 -42 
Q 2563 -91 2291 -91 
Q 1344 -91 809 395 
Q 275 881 275 1747 
Q 275 2613 809 3098 
Q 1344 3584 2291 3584 
Q 2566 3584 2833 3536 
Q 3100 3488 3366 3391 
z
" transform="scale(0.015625)"/>
      <path id="DejaVuSans-Bold-75" d="M 500 1363 
L 500 3500 
L 1625 3500 
L 1625 3150 
Q 1625 2866 1622 2436 
Q 1619 2006 1619 1863 
Q 1619 1441 1641 1255 
Q 1663 1069 1716 984 
Q 1784 875 1895 815 
Q 2006 756 2150 756 
Q 2500 756 2700 1025 
Q 2900 1294 2900 1772 
L 2900 3500 
L 4019 3500 
L 4019 0 
L 2900 0 
L 2900 506 
Q 2647 200 2364 54 
Q 2081 -91 1741 -91 
Q 1134 -91 817 281 
Q 500 653 500 1363 
z
" transform="scale(0.015625)"/>
      <path id="DejaVuSans-Bold-79" d="M 78 3500 
L 1197 3500 
L 2138 1125 
L 2938 3500 
L 4056 3500 
L 2584 -331 
Q 2363 -916 2067 -1148 
Q 1772 -1381 1288 -1381 
L 641 -1381 
L 641 -647 
L 991 -647 
Q 1275 -647 1404 -556 
Q 1534 -466 1606 -231 
L 1638 -134 
L 78 3500 
z
" transform="scale(0.015625)"/>
     </defs>
     <use xlink:href="#DejaVuSans-Bold-54"/>
     <use xlink:href="#DejaVuSans-Bold-72" transform="translate(57.212891 0)"/>
     <use xlink:href="#DejaVuSans-Bold-61" transform="translate(106.529297 0)"/>
     <use xlink:href="#DejaVuSans-Bold-69" transform="translate(174.009766 0)"/>
     <use xlink:href="#DejaVuSans-Bold-6e" transform="translate(208.287109 0)"/>
     <use xlink:href="#DejaVuSans-Bold-69" transform="translate(279.478516 0)"/>
     <use xlink:href="#DejaVuSans-Bold-6e" transform="translate(313.755859 0)"/>
     <use xlink:href="#DejaVuSans-Bold-67" transform="translate(384.947266 0)"/>
     <use xlink:href="#DejaVuSans-Bold-20" transform="translate(456.529297 0)"/>
     <use xlink:href="#DejaVuSans-Bold-50" transform="translate(491.34375 0)"/>
     <use xlink:href="#DejaVuSans-Bold-72" transform="translate(564.634766 0)"/>
     <use xlink:href="#DejaVuSans-Bold-6f" transform="translate(613.951172 0)"/>
     <use xlink:href="#DejaVuSans-Bold-67" transform="translate(682.652344 0)"/>
     <use xlink:href="#DejaVuSans-Bold-72" transform="translate(754.234375 0)"/>
     <use xlink:href="#DejaVuSans-Bold-65" transform="translate(803.550781 0)"/>
     <use xlink:href="#DejaVuSans-Bold-73" transform="translate(871.373047 0)"/>
     <use xlink:href="#DejaVuSans-Bold-73" transform="translate(930.894531 0)"/>
     <use xlink:href="#DejaVuSans-Bold-3a" transform="translate(990.416016 0)"/>
     <use xlink:href="#DejaVuSans-Bold-20" transform="translate(1030.40625 0)"/>
     <use xlink:href="#DejaVuSans-Bold-41" transform="translate(1065.220703 0)"/>
     <use xlink:href="#DejaVuSans-Bold-63" transform="translate(1142.613281 0)"/>
     <use xlink:href="#DejaVuSans-Bold-63" transform="translate(1201.890625 0)"/>
     <use xlink:href="#DejaVuSans-Bold-75" transform="translate(1261.167969 0)"/>
     <use xlink:href="#DejaVuSans-Bold-72" transform="translate(1332.359375 0)"/>
     <use xlink:href="#DejaVuSans-Bold-61" transform="translate(1381.675781 0)"/>
     <use xlink:href="#DejaVuSans-Bold-63" transform="translate(1449.15625 0)"/>
     <use xlink:href="#DejaVuSans-Bold-79" transform="translate(1508.433594 0)"/>
    </g>
   </g>
   <g id="legend_1">
    <g id="patch_7">
     <path d="M 117.79 174.094375 
L 294.67 174.094375 
Q 301.07 174.094375 301.07 167.694375 
L 301.07 76.954375 
Q 301.07 70.554375 294.67 70.554375 
L 117.79 70.554375 
Q 111.39 70.554375 111.39 76.954375 
L 111.39 167.694375 
Q 111.39 174.094375 117.79 174.094375 
z
" style="fill: #ffffff; opacity: 0.8; stroke: #cccccc; stroke-width: 1.5; stroke-linejoin: miter"/>
    </g>
    <g id="line2d_17">
     <path d="M 124.19 96.469375 
L 156.19 96.469375 
L 188.19 96.469375 
" style="fill: none; stroke: #4c72b0; stroke-width: 6; stroke-linecap: round"/>
    </g>
    <g id="text_16">
     <!-- train -->
     <g style="fill: #262626" transform="translate(213.79 107.669375) scale(0.32 -0.32)">
      <defs>
       <path id="DejaVuSans-74" d="M 1172 4494 
L 1172 3500 
L 2356 3500 
L 2356 3053 
L 1172 3053 
L 1172 1153 
Q 1172 725 1289 603 
Q 1406 481 1766 481 
L 2356 481 
L 2356 0 
L 1766 0 
Q 1100 0 847 248 
Q 594 497 594 1153 
L 594 3053 
L 172 3053 
L 172 3500 
L 594 3500 
L 594 4494 
L 1172 4494 
z
" transform="scale(0.015625)"/>
       <path id="DejaVuSans-69" d="M 603 3500 
L 1178 3500 
L 1178 0 
L 603 0 
L 603 3500 
z
M 603 4863 
L 1178 4863 
L 1178 4134 
L 603 4134 
L 603 4863 
z
" transform="scale(0.015625)"/>
       <path id="DejaVuSans-6e" d="M 3513 2113 
L 3513 0 
L 2938 0 
L 2938 2094 
Q 2938 2591 2744 2837 
Q 2550 3084 2163 3084 
Q 1697 3084 1428 2787 
Q 1159 2491 1159 1978 
L 1159 0 
L 581 0 
L 581 3500 
L 1159 3500 
L 1159 2956 
Q 1366 3272 1645 3428 
Q 1925 3584 2291 3584 
Q 2894 3584 3203 3211 
Q 3513 2838 3513 2113 
z
" transform="scale(0.015625)"/>
      </defs>
      <use xlink:href="#DejaVuSans-74"/>
      <use xlink:href="#DejaVuSans-72" transform="translate(39.208984 0)"/>
      <use xlink:href="#DejaVuSans-61" transform="translate(80.322266 0)"/>
      <use xlink:href="#DejaVuSans-69" transform="translate(141.601562 0)"/>
      <use xlink:href="#DejaVuSans-6e" transform="translate(169.384766 0)"/>
     </g>
    </g>
    <g id="line2d_18">
     <path d="M 124.19 143.439375 
L 156.19 143.439375 
L 188.19 143.439375 
" style="fill: none; stroke: #dd8452; stroke-width: 6; stroke-linecap: round"/>
    </g>
    <g id="text_17">
     <!-- val -->
     <g style="fill: #262626" transform="translate(213.79 154.639375) scale(0.32 -0.32)">
      <defs>
       <path id="DejaVuSans-76" d="M 191 3500 
L 800 3500 
L 1894 563 
L 2988 3500 
L 3597 3500 
L 2284 0 
L 1503 0 
L 191 3500 
z
" transform="scale(0.015625)"/>
       <path id="DejaVuSans-6c" d="M 603 4863 
L 1178 4863 
L 1178 0 
L 603 0 
L 603 4863 
z
" transform="scale(0.015625)"/>
      </defs>
      <use xlink:href="#DejaVuSans-76"/>
      <use xlink:href="#DejaVuSans-61" transform="translate(59.179688 0)"/>
      <use xlink:href="#DejaVuSans-6c" transform="translate(120.458984 0)"/>
     </g>
    </g>
   </g>
  </g>
 </g>
 <defs>
  <clipPath id="p020883931e">
   <rect x="95.39" y="54.554375" width="950.255455" height="555.34"/>
  </clipPath>
 </defs>
</svg>
