<?xml version="1.0" encoding="utf-8" standalone="no"?>
<!DOCTYPE svg PUBLIC "-//W3C//DTD SVG 1.1//EN"
  "http://www.w3.org/Graphics/SVG/1.1/DTD/svg11.dtd">
<svg xmlns:xlink="http://www.w3.org/1999/xlink" width="1052.845455pt" height="695.534375pt" viewBox="0 0 1052.845455 695.534375" xmlns="http://www.w3.org/2000/svg" version="1.1">
 <metadata>
  <rdf:RDF xmlns:dc="http://purl.org/dc/elements/1.1/" xmlns:cc="http://creativecommons.org/ns#" xmlns:rdf="http://www.w3.org/1999/02/22-rdf-syntax-ns#">
   <cc:Work>
    <dc:type rdf:resource="http://purl.org/dc/dcmitype/StillImage"/>
    <dc:date>2026-04-10T18:06:53.547995</dc:date>
    <dc:format>image/svg+xml</dc:format>
    <dc:creator>
     <cc:Agent>
      <dc:title>Matplotlib v3.10.8, https://matplotlib.org/</dc:title>
     </cc:Agent>
    </dc:creator>
   </cc:Work>
  </rdf:RDF>
 </metadata>
 <defs>
  <style type="text/css">*{stroke-linejoin: round; stroke-linecap: butt}</style>
 </defs>
 <g id="figure_1">
  <g id="patch_1">
   <path d="M 0 695.534375 
L 1052.845455 695.534375 
L 1052.845455 0 
L 0 0 
z
" style="fill: #ffffff"/>
  </g>
  <g id="axes_1">
   <g id="patch_2">
    <path d="M 95.39 609.894375 
L 1045.645455 609.894375 
L 1045.645455 54.554375 
L 95.39 54.554375 
z
" style="fill: #ffffff"/>
   </g>
   <g id="matplotlib.axis_1">
    <g id="xtick_1">
     <g id="line2d_1">
      <path d="M 137.718696 609.894375 
L 137.718696 54.554375 
" clip-path="url(#p39d346c603)" style="fill: none; stroke: #cccccc; stroke-opacity: 0.3; stroke-width: 1.5; stroke-linecap: round"/>
     </g>
     <g id="text_1">
      <!-- 0 -->
      <g style="fill: #262626" transform="translate(127.538696 646.709375) scale(0.32 -0.32)">
       <defs>
        <path id="DejaVuSans-30" d="M 2034 4250 
Q 1547 4250 1301 3770 
Q 1056 3291 1056 2328 
Q 1056 1369 1301 889 
Q 1547 409 2034 409 
Q 2525 409 2770 889 
Q 3016 1369 3016 2328 
Q 3016 3291 2770 3770 
Q 2525 4250 2034 4250 
z
M 2034 4750 
Q 2819 4750 3233 4129 
Q 3647 3509 3647 2328 
Q 3647 1150 3233 529 
Q 2819 -91 2034 -91 
Q 1250 -91 836 529 
Q 422 1150 422 2328 
Q 422 3509 836 4129 
Q 1250 4750 2034 4750 
z
" transform="scale(0.015625)"/>
       </defs>
       <use xlink:href="#DejaVuSans-30"/>
      </g>
     </g>
    </g>
    <g id="xtick_2">
     <g id="line2d_2">
      <path d="M 310.665362 609.894375 
L 310.665362 54.554375 
" clip-path="url(#p39d346c603)" style="fill: none; stroke: #cccccc; stroke-opacity: 0.3; stroke-width: 1.5; stroke-linecap: round"/>
     </g>
     <g id="text_2">
      <!-- 200 -->
      <g style="fill: #262626" transform="translate(280.125362 646.709375) scale(0.32 -0.32)">
       <defs>
        <path id="DejaVuSans-32" d="M 1228 531 
L 3431 531 
L 3431 0 
L 469 0 
L 469 531 
Q 828 903 1448 1529 
Q 2069 2156 2228 2338 
Q 2531 2678 2651 2914 
Q 2772 3150 2772 3378 
Q 2772 3750 2511 3984 
Q 2250 4219 1831 4219 
Q 1534 4219 1204 4116 
Q 875 4013 500 3803 
L 500 4441 
Q 881 4594 1212 4672 
Q 1544 4750 1819 4750 
Q 2544 4750 2975 4387 
Q 3406 4025 3406 3419 
Q 3406 3131 3298 2873 
Q 3191 2616 2906 2266 
Q 2828 2175 2409 1742 
Q 1991 1309 1228 531 
z
" transform="scale(0.015625)"/>
       </defs>
       <use xlink:href="#DejaVuSans-32"/>
       <use xlink:href="#DejaVuSans-30" transform="translate(63.623047 0)"/>
       <use xlink:href="#DejaVuSans-30" transform="translate(127.246094 0)"/>
      </g>
     </g>
    </g>
    <g id="xtick_3">
     <g id="line2d_3">
      <path d="M 483.612028 609.894375 
L 483.612028 54.554375 
" clip-path="url(#p39d346c603)" style="fill: none; stroke: #cccccc; stroke-opacity: 0.3; stroke-width: 1.5; stroke-linecap: round"/>
     </g>
     <g id="text_3">
      <!-- 400 -->
      <g style="fill: #262626" transform="translate(453.072028 646.709375) scale(0.32 -0.32)">
       <defs>
        <path id="DejaVuSans-34" d="M 2419 4116 
L 825 1625 
L 2419 1625 
L 2419 4116 
z
M 2253 4666 
L 3047 4666 
L 3047 1625 
L 3713 1625 
L 3713 1100 
L 3047 1100 
L 3047 0 
L 2419 0 
L 2419 1100 
L 313 1100 
L 313 1709 
L 2253 4666 
z
" transform="scale(0.015625)"/>
       </defs>
       <use xlink:href="#DejaVuSans-34"/>
       <use xlink:href="#DejaVuSans-30" transform="translate(63.623047 0)"/>
       <use xlink:href="#DejaVuSans-30" transform="translate(127.246094 0)"/>
      </g>
     </g>
    </g>
    <g id="xtick_4">
     <g id="line2d_4">
      <path d="M 656.558693 609.894375 
L 656.558693 54.554375 
" clip-path="url(#p39d346c603)" style="fill: none; stroke: #cccccc; stroke-opacity: 0.3; stroke-width: 1.5; stroke-linecap: round"/>
     </g>
     <g id="text_4">
      <!-- 600 -->
      <g style="fill: #262626" transform="translate(626.018693 646.709375) scale(0.32 -0.32)">
       <defs>
        <path id="DejaVuSans-36" d="M 2113 2584 
Q 1688 2584 1439 2293 
Q 1191 2003 1191 1497 
Q 1191 994 1439 701 
Q 1688 409 2113 409 
Q 2538 409 2786 701 
Q 3034 994 3034 1497 
Q 3034 2003 2786 2293 
Q 2538 2584 2113 2584 
z
M 3366 4563 
L 3366 3988 
Q 3128 4100 2886 4159 
Q 2644 4219 2406 4219 
Q 1781 4219 1451 3797 
Q 1122 3375 1075 2522 
Q 1259 2794 1537 2939 
Q 1816 3084 2150 3084 
Q 2853 3084 3261 2657 
Q 3669 2231 3669 1497 
Q 3669 778 3244 343 
Q 2819 -91 2113 -91 
Q 1303 -91 875 529 
Q 447 1150 447 2328 
Q 447 3434 972 4092 
Q 1497 4750 2381 4750 
Q 2619 4750 2861 4703 
Q 3103 4656 3366 4563 
z
" transform="scale(0.015625)"/>
       </defs>
       <use xlink:href="#DejaVuSans-36"/>
       <use xlink:href="#DejaVuSans-30" transform="translate(63.623047 0)"/>
       <use xlink:href="#DejaVuSans-30" transform="translate(127.246094 0)"/>
      </g>
     </g>
    </g>
    <g id="xtick_5">
     <g id="line2d_5">
      <path d="M 829.505359 609.894375 
L 829.505359 54.554375 
" clip-path="url(#p39d346c603)" style="fill: none; stroke: #cccccc; stroke-opacity: 0.3; stroke-width: 1.5; stroke-linecap: round"/>
     </g>
     <g id="text_5">
      <!-- 800 -->
      <g style="fill: #262626" transform="translate(798.965359 646.709375) scale(0.32 -0.32)">
       <defs>
        <path id="DejaVuSans-38" d="M 2034 2216 
Q 1584 2216 1326 1975 
Q 1069 1734 1069 1313 
Q 1069 891 1326 650 
Q 1584 409 2034 409 
Q 2484 409 2743 651 
Q 3003 894 3003 1313 
Q 3003 1734 2745 1975 
Q 2488 2216 2034 2216 
z
M 1403 2484 
Q 997 2584 770 2862 
Q 544 3141 544 3541 
Q 544 4100 942 4425 
Q 1341 4750 2034 4750 
Q 2731 4750 3128 4425 
Q 3525 4100 3525 3541 
Q 3525 3141 3298 2862 
Q 3072 2584 2669 2484 
Q 3125 2378 3379 2068 
Q 3634 1759 3634 1313 
Q 3634 634 3220 271 
Q 2806 -91 2034 -91 
Q 1263 -91 848 271 
Q 434 634 434 1313 
Q 434 1759 690 2068 
Q 947 2378 1403 2484 
z
M 1172 3481 
Q 1172 3119 1398 2916 
Q 1625 2713 2034 2713 
Q 2441 2713 2670 2916 
Q 2900 3119 2900 3481 
Q 2900 3844 2670 4047 
Q 2441 4250 2034 4250 
Q 1625 4250 1398 4047 
Q 1172 3844 1172 3481 
z
" transform="scale(0.015625)"/>
       </defs>
       <use xlink:href="#DejaVuSans-38"/>
       <use xlink:href="#DejaVuSans-30" transform="translate(63.623047 0)"/>
       <use xlink:href="#DejaVuSans-30" transform="translate(127.246094 0)"/>
      </g>
     </g>
    </g>
    <g id="xtick_6">
     <g id="line2d_6">
      <path d="M 1002.452025 609.894375 
L 1002.452025 54.554375 
" clip-path="url(#p39d346c603)" style="fill: none; stroke: #cccccc; stroke-opacity: 0.3; stroke-width: 1.5; stroke-linecap: round"/>
     </g>
     <g id="text_6">
      <!-- 1000 -->
      <g style="fill: #262626" transform="translate(961.732025 646.709375) scale(0.32 -0.32)">
       <defs>
        <path id="DejaVuSans-31" d="M 794 531 
L 1825 531 
L 1825 4091 
L 703 3866 
L 703 4441 
L 1819 4666 
L 2450 4666 
L 2450 531 
L 3481 531 
L 3481 0 
L 794 0 
L 794 531 
z
" transform="scale(0.015625)"/>
       </defs>
       <use xlink:href="#DejaVuSans-31"/>
       <use xlink:href="#DejaVuSans-30" transform="translate(63.623047 0)"/>
       <use xlink:href="#DejaVuSans-30" transform="translate(127.246094 0)"/>
       <use xlink:href="#DejaVuSans-30" transform="translate(190.869141 0)"/>
      </g>
     </g>
    </g>
    <g id="text_7">
     <!-- Epoch -->
     <g style="fill: #262626" transform="translate(521.522727 681.679375) scale(0.32 -0.32)">
      <defs>
       <path id="DejaVuSans-45" d="M 628 4666 
L 3578 4666 
L 3578 4134 
L 1259 4134 
L 1259 2753 
L 3481 2753 
L 3481 2222 
L 1259 2222 
L 1259 531 
L 3634 531 
L 3634 0 
L 628 0 
L 628 4666 
z
" transform="scale(0.015625)"/>
       <path id="DejaVuSans-70" d="M 1159 525 
L 1159 -1331 
L 581 -1331 
L 581 3500 
L 1159 3500 
L 1159 2969 
Q 1341 3281 1617 3432 
Q 1894 3584 2278 3584 
Q 2916 3584 3314 3078 
Q 3713 2572 3713 1747 
Q 3713 922 3314 415 
Q 2916 -91 2278 -91 
Q 1894 -91 1617 61 
Q 1341 213 1159 525 
z
M 3116 1747 
Q 3116 2381 2855 2742 
Q 2594 3103 2138 3103 
Q 1681 3103 1420 2742 
Q 1159 2381 1159 1747 
Q 1159 1113 1420 752 
Q 1681 391 2138 391 
Q 2594 391 2855 752 
Q 3116 1113 3116 1747 
z
" transform="scale(0.015625)"/>
       <path id="DejaVuSans-6f" d="M 1959 3097 
Q 1497 3097 1228 2736 
Q 959 2375 959 1747 
Q 959 1119 1226 758 
Q 1494 397 1959 397 
Q 2419 397 2687 759 
Q 2956 1122 2956 1747 
Q 2956 2369 2687 2733 
Q 2419 3097 1959 3097 
z
M 1959 3584 
Q 2709 3584 3137 3096 
Q 3566 2609 3566 1747 
Q 3566 888 3137 398 
Q 2709 -91 1959 -91 
Q 1206 -91 779 398 
Q 353 888 353 1747 
Q 353 2609 779 3096 
Q 1206 3584 1959 3584 
z
" transform="scale(0.015625)"/>
       <path id="DejaVuSans-63" d="M 3122 3366 
L 3122 2828 
Q 2878 2963 2633 3030 
Q 2388 3097 2138 3097 
Q 1578 3097 1268 2742 
Q 959 2388 959 1747 
Q 959 1106 1268 751 
Q 1578 397 2138 397 
Q 2388 397 2633 464 
Q 2878 531 3122 666 
L 3122 134 
Q 2881 22 2623 -34 
Q 2366 -91 2075 -91 
Q 1284 -91 818 406 
Q 353 903 353 1747 
Q 353 2603 823 3093 
Q 1294 3584 2113 3584 
Q 2378 3584 2631 3529 
Q 2884 3475 3122 3366 
z
" transform="scale(0.015625)"/>
       <path id="DejaVuSans-68" d="M 3513 2113 
L 3513 0 
L 2938 0 
L 2938 2094 
Q 2938 2591 2744 2837 
Q 2550 3084 2163 3084 
Q 1697 3084 1428 2787 
Q 1159 2491 1159 1978 
L 1159 0 
L 581 0 
L 581 4863 
L 1159 4863 
L 1159 2956 
Q 1366 3272 1645 3428 
Q 1925 3584 2291 3584 
Q 2894 3584 3203 3211 
Q 3513 2838 3513 2113 
z
" transform="scale(0.015625)"/>
      </defs>
      <use xlink:href="#DejaVuSans-45"/>
      <use xlink:href="#DejaVuSans-70" transform="translate(63.183594 0)"/>
      <use xlink:href="#DejaVuSans-6f" transform="translate(126.660156 0)"/>
      <use xlink:href="#DejaVuSans-63" transform="translate(187.841797 0)"/>
      <use xlink:href="#DejaVuSans-68" transform="translate(242.822266 0)"/>
     </g>
    </g>
   </g>
   <g id="matplotlib.axis_2">
    <g id="ytick_1">
     <g id="line2d_7">
      <path d="M 95.39 531.627979 
L 1045.645455 531.627979 
" clip-path="url(#p39d346c603)" style="fill: none; stroke: #cccccc; stroke-opacity: 0.3; stroke-width: 1.5; stroke-linecap: round"/>
     </g>
     <g id="text_8">
      <!-- 4 -->
      <g style="fill: #262626" transform="translate(62.53 543.785479) scale(0.32 -0.32)">
       <use xlink:href="#DejaVuSans-34"/>
      </g>
     </g>
    </g>
    <g id="ytick_2">
     <g id="line2d_8">
      <path d="M 95.39 446.282943 
L 1045.645455 446.282943 
" clip-path="url(#p39d346c603)" style="fill: none; stroke: #cccccc; stroke-opacity: 0.3; stroke-width: 1.5; stroke-linecap: round"/>
     </g>
     <g id="text_9">
      <!-- 6 -->
      <g style="fill: #262626" transform="translate(62.53 458.440443) scale(0.32 -0.32)">
       <use xlink:href="#DejaVuSans-36"/>
      </g>
     </g>
    </g>
    <g id="ytick_3">
     <g id="line2d_9">
      <path d="M 95.39 360.937907 
L 1045.645455 360.937907 
" clip-path="url(#p39d346c603)" style="fill: none; stroke: #cccccc; stroke-opacity: 0.3; stroke-width: 1.5; stroke-linecap: round"/>
     </g>
     <g id="text_10">
      <!-- 8 -->
      <g style="fill: #262626" transform="translate(62.53 373.095407) scale(0.32 -0.32)">
       <use xlink:href="#DejaVuSans-38"/>
      </g>
     </g>
    </g>
    <g id="ytick_4">
     <g id="line2d_10">
      <path d="M 95.39 275.592871 
L 1045.645455 275.592871 
" clip-path="url(#p39d346c603)" style="fill: none; stroke: #cccccc; stroke-opacity: 0.3; stroke-width: 1.5; stroke-linecap: round"/>
     </g>
     <g id="text_11">
      <!-- 10 -->
      <g style="fill: #262626" transform="translate(42.17 287.750371) scale(0.32 -0.32)">
       <use xlink:href="#DejaVuSans-31"/>
       <use xlink:href="#DejaVuSans-30" transform="translate(63.623047 0)"/>
      </g>
     </g>
    </g>
    <g id="ytick_5">
     <g id="line2d_11">
      <path d="M 95.39 190.247835 
L 1045.645455 190.247835 
" clip-path="url(#p39d346c603)" style="fill: none; stroke: #cccccc; stroke-opacity: 0.3; stroke-width: 1.5; stroke-linecap: round"/>
     </g>
     <g id="text_12">
      <!-- 12 -->
      <g style="fill: #262626" transform="translate(42.17 202.405335) scale(0.32 -0.32)">
       <use xlink:href="#DejaVuSans-31"/>
       <use xlink:href="#DejaVuSans-32" transform="translate(63.623047 0)"/>
      </g>
     </g>
    </g>
    <g id="ytick_6">
     <g id="line2d_12">
      <path d="M 95.39 104.902799 
L 1045.645455 104.902799 
" clip-path="url(#p39d346c603)" style="fill: none; stroke: #cccccc; stroke-opacity: 0.3; stroke-width: 1.5; stroke-linecap: round"/>
     </g>
     <g id="text_13">
      <!-- 14 -->
      <g style="fill: #262626" transform="translate(42.17 117.060299) scale(0.32 -0.32)">
       <use xlink:href="#DejaVuSans-31"/>
       <use xlink:href="#DejaVuSans-34" transform="translate(63.623047 0)"/>
      </g>
     </g>
    </g>
    <g id="text_14">
     <!-- Loss -->
     <g style="fill: #262626" transform="translate(31.515 367.319375) rotate(-90) scale(0.32 -0.32)">
      <defs>
       <path id="DejaVuSans-4c" d="M 628 4666 
L 1259 4666 
L 1259 531 
L 3531 531 
L 3531 0 
L 628 0 
L 628 4666 
z
" transform="scale(0.015625)"/>
       <path id="DejaVuSans-73" d="M 2834 3397 
L 2834 2853 
Q 2591 2978 2328 3040 
Q 2066 3103 1784 3103 
Q 1356 3103 1142 2972 
Q 928 2841 928 2578 
Q 928 2378 1081 2264 
Q 1234 2150 1697 2047 
L 1894 2003 
Q 2506 1872 2764 1633 
Q 3022 1394 3022 966 
Q 3022 478 2636 193 
Q 2250 -91 1575 -91 
Q 1294 -91 989 -36 
Q 684 19 347 128 
L 347 722 
Q 666 556 975 473 
Q 1284 391 1588 391 
Q 1994 391 2212 530 
Q 2431 669 2431 922 
Q 2431 1156 2273 1281 
Q 2116 1406 1581 1522 
L 1381 1569 
Q 847 1681 609 1914 
Q 372 2147 372 2553 
Q 372 3047 722 3315 
Q 1072 3584 1716 3584 
Q 2034 3584 2315 3537 
Q 2597 3491 2834 3397 
z
" transform="scale(0.015625)"/>
      </defs>
      <use xlink:href="#DejaVuSans-4c"/>
      <use xlink:href="#DejaVuSans-6f" transform="translate(53.962891 0)"/>
      <use xlink:href="#DejaVuSans-73" transform="translate(115.144531 0)"/>
      <use xlink:href="#DejaVuSans-73" transform="translate(167.244141 0)"/>
     </g>
    </g>
   </g>
   <g id="FillBetweenPolyCollection_1"/>
   <g id="FillBetweenPolyCollection_2"/>
   <g id="line2d_13">
    <path d="M 138.58343 434.89861 
L 139.448163 492.636284 
L 140.312896 497.061085 
L 141.17763 498.616087 
L 142.042363 499.405156 
L 144.636563 500.375871 
L 145.501296 500.710491 
L 146.36603 500.859295 
L 147.230763 501.143473 
L 148.095496 501.054023 
L 148.96023 501.412084 
L 149.824963 501.12931 
L 151.55443 501.570716 
L 152.419163 501.591267 
L 153.283896 502.086453 
L 154.14863 501.895061 
L 155.013363 502.357221 
L 155.878096 502.077886 
L 156.74283 502.210351 
L 157.607563 502.457618 
L 158.472296 502.457719 
L 160.201763 503.0334 
L 161.066496 502.68824 
L 161.93123 502.801211 
L 162.795963 503.162731 
L 163.660696 503.345272 
L 164.52543 503.200884 
L 165.390163 503.546125 
L 166.254896 503.028456 
L 167.11963 503.433826 
L 168.849096 503.979046 
L 169.71383 503.147715 
L 171.443296 504.255207 
L 173.172763 504.420086 
L 174.037496 504.36537 
L 177.49643 505.477237 
L 178.361163 505.369496 
L 179.225896 505.397474 
L 180.955363 506.095384 
L 182.684829 506.234136 
L 183.549563 505.434588 
L 184.414296 506.237392 
L 185.279029 506.450963 
L 187.008496 507.326347 
L 189.602696 507.712041 
L 190.467429 508.224969 
L 192.196896 508.524225 
L 193.061629 508.474312 
L 193.926363 508.981034 
L 194.791096 509.663501 
L 195.655829 509.276485 
L 196.520563 508.643036 
L 197.385296 509.82551 
L 198.250029 510.276683 
L 199.114763 510.414092 
L 199.979496 510.911658 
L 200.844229 510.804425 
L 201.708963 510.885389 
L 202.573696 510.461523 
L 203.438429 510.876436 
L 206.897363 512.035978 
L 207.762096 512.650177 
L 208.626829 512.26424 
L 209.491563 513.016031 
L 210.356296 513.249971 
L 211.221029 513.323264 
L 212.085763 513.865961 
L 212.950496 514.264107 
L 213.815229 513.795395 
L 214.679963 514.346292 
L 215.544696 514.221438 
L 216.409429 514.215679 
L 217.274163 514.969953 
L 218.138896 514.760432 
L 219.868363 515.150744 
L 220.733096 515.621064 
L 221.597829 515.820819 
L 222.462563 515.807389 
L 223.327296 516.190763 
L 224.192029 516.323899 
L 225.056763 516.892438 
L 225.921496 517.01831 
L 226.786229 517.25874 
L 228.515696 517.526334 
L 229.380429 518.376894 
L 230.245163 518.263414 
L 231.109896 518.412727 
L 231.974629 518.264798 
L 233.704096 518.326615 
L 235.433563 518.80833 
L 236.298296 519.797581 
L 237.163029 520.154767 
L 238.027763 520.322209 
L 238.892496 520.32048 
L 239.757229 520.105037 
L 241.486696 520.619328 
L 242.351429 520.580851 
L 243.216162 521.156552 
L 244.080896 521.202396 
L 244.945629 521.553416 
L 245.810362 520.816336 
L 246.675096 521.982512 
L 247.539829 522.187882 
L 248.404562 522.093306 
L 249.269296 522.282296 
L 250.134029 523.037344 
L 250.998762 523.375973 
L 251.863496 523.516556 
L 252.728229 523.245543 
L 253.592962 523.696573 
L 255.322429 523.356418 
L 256.187162 523.809158 
L 257.051896 523.756111 
L 257.916629 524.186936 
L 258.781362 524.9032 
L 259.646096 524.686658 
L 260.510829 525.051231 
L 263.105029 525.689827 
L 263.969762 526.815613 
L 264.834496 525.990711 
L 265.699229 526.589609 
L 267.428696 526.735584 
L 269.158162 527.700622 
L 270.022896 527.768705 
L 270.887629 527.414531 
L 271.752362 525.780477 
L 274.346562 528.371063 
L 276.076029 528.910911 
L 276.940762 528.329838 
L 277.805496 529.292372 
L 278.670229 529.774962 
L 279.534962 529.307592 
L 280.399696 529.4999 
L 281.264429 529.806501 
L 282.129162 530.388104 
L 283.858629 530.861089 
L 284.723362 530.37734 
L 286.452829 531.154708 
L 287.317562 531.093034 
L 289.911762 532.226826 
L 291.641229 531.588789 
L 292.505962 532.13988 
L 293.370696 532.123306 
L 294.235429 531.860331 
L 295.100162 530.434313 
L 295.964896 532.185571 
L 296.829629 532.959745 
L 297.694362 533.078048 
L 298.559096 533.625069 
L 300.288562 533.59588 
L 301.153295 533.575522 
L 302.018029 534.011546 
L 302.882762 533.673792 
L 303.747495 532.838452 
L 304.612229 533.278097 
L 305.476962 534.530578 
L 308.071162 535.236903 
L 308.935895 535.250953 
L 309.800629 534.54063 
L 310.665362 535.572133 
L 311.530095 535.560637 
L 312.394829 535.187203 
L 315.853762 535.51049 
L 316.718495 536.066606 
L 317.583229 536.051203 
L 318.447962 536.994254 
L 319.312695 537.306166 
L 320.177429 536.520211 
L 321.042162 537.115995 
L 321.906895 536.995211 
L 322.771629 537.408058 
L 323.636362 537.359447 
L 324.501095 538.2991 
L 326.230562 538.051487 
L 327.095295 539.075279 
L 328.824762 538.094889 
L 329.689495 538.479036 
L 330.554229 539.168767 
L 331.418962 538.966377 
L 332.283695 538.952134 
L 333.148429 538.660285 
L 334.013162 538.700187 
L 334.877895 538.183301 
L 335.742629 539.166305 
L 336.607362 537.850929 
L 337.472095 539.232822 
L 338.336829 540.296567 
L 339.201562 539.747979 
L 340.066295 540.150184 
L 340.931029 539.662731 
L 341.795762 539.025101 
L 342.660495 540.277847 
L 343.525229 540.405916 
L 344.389962 539.938231 
L 345.254695 540.102387 
L 346.984162 540.900399 
L 347.848895 540.256186 
L 348.713629 540.5208 
L 349.578362 541.657919 
L 351.307829 541.617111 
L 352.172562 540.993704 
L 353.037295 541.206156 
L 353.902029 542.106904 
L 354.766762 542.114616 
L 355.631495 541.937925 
L 356.496229 541.025274 
L 357.360962 541.30877 
L 358.225695 542.625784 
L 359.090428 542.194369 
L 359.955162 542.218542 
L 360.819895 540.946192 
L 361.684628 541.225639 
L 363.414095 542.215256 
L 364.278828 540.839671 
L 365.143562 542.033642 
L 366.008295 542.981587 
L 366.873028 543.141175 
L 367.737762 542.269107 
L 368.602495 543.425058 
L 369.467228 543.423175 
L 370.331962 543.948231 
L 371.196695 543.886984 
L 372.061428 543.230715 
L 372.926162 543.227775 
L 373.790895 543.494037 
L 374.655628 544.134689 
L 375.520362 544.30443 
L 376.385095 545.02103 
L 378.114562 543.717354 
L 378.979295 544.21197 
L 379.844028 543.454715 
L 380.708762 543.482784 
L 381.573495 544.332663 
L 382.438228 543.813925 
L 383.302962 544.355798 
L 384.167695 545.386315 
L 385.032428 545.440786 
L 385.897162 546.69167 
L 388.491362 545.817231 
L 389.356095 545.273242 
L 390.220828 545.359323 
L 391.085562 547.173212 
L 392.815028 546.745998 
L 393.679762 546.554098 
L 394.544495 546.647556 
L 395.409228 546.033163 
L 396.273962 547.077394 
L 397.138695 546.259492 
L 398.003428 546.457975 
L 398.868162 545.429951 
L 399.732895 545.865934 
L 400.597628 546.600867 
L 401.462362 547.617171 
L 402.327095 547.108627 
L 403.191828 547.960765 
L 404.056562 547.516927 
L 404.921295 546.913431 
L 405.786028 546.470794 
L 406.650762 547.735504 
L 407.515495 548.443904 
L 408.380228 548.101704 
L 409.244962 547.498207 
L 410.109695 548.602454 
L 410.974428 546.826657 
L 411.839162 547.255264 
L 412.703895 548.046205 
L 413.568628 547.148957 
L 414.433362 549.700546 
L 415.298095 548.783875 
L 416.162828 548.346224 
L 417.027561 548.896806 
L 417.892295 549.127907 
L 418.757028 550.291193 
L 419.621761 550.231879 
L 420.486495 549.280149 
L 421.351228 549.058816 
L 422.215961 549.116756 
L 423.080695 548.440455 
L 423.945428 549.691288 
L 424.810161 549.754122 
L 425.674895 550.307929 
L 426.539628 550.654453 
L 427.404361 549.85228 
L 428.269095 550.4946 
L 429.133828 550.209323 
L 429.998561 551.002808 
L 430.863295 551.451518 
L 431.728028 550.513839 
L 432.592761 550.493939 
L 433.457495 551.167523 
L 434.322228 552.090563 
L 435.186961 552.479288 
L 436.051695 552.079097 
L 436.916428 550.392881 
L 437.781161 550.692218 
L 438.645895 551.446645 
L 440.375361 551.962269 
L 441.240095 551.338059 
L 442.104828 551.089825 
L 442.969561 551.589751 
L 443.834295 551.812835 
L 444.699028 552.198661 
L 445.563761 552.869661 
L 446.428495 553.182713 
L 447.293228 552.315091 
L 448.157961 552.363051 
L 449.022695 551.302114 
L 449.887428 551.937526 
L 450.752161 551.357053 
L 451.616895 552.711986 
L 452.481628 552.636851 
L 453.346361 552.920164 
L 454.211095 553.771121 
L 455.075828 553.331506 
L 455.940561 553.476078 
L 456.805295 552.924946 
L 457.670028 553.123053 
L 458.534761 553.592813 
L 459.399495 552.662836 
L 460.264228 553.039006 
L 461.128961 553.659157 
L 461.993695 552.823685 
L 462.858428 554.066592 
L 463.723161 554.507225 
L 464.587895 554.092048 
L 465.452628 552.535814 
L 466.317361 553.82485 
L 467.182095 554.786397 
L 468.046828 554.611497 
L 468.911561 555.431485 
L 469.776295 554.244138 
L 470.641028 554.018093 
L 471.505761 553.571621 
L 472.370495 552.481343 
L 473.235228 553.210152 
L 474.099961 552.327818 
L 474.964694 553.401767 
L 475.829428 554.246396 
L 476.694161 555.690157 
L 477.558894 555.129564 
L 478.423628 555.267217 
L 480.153094 556.301691 
L 481.017828 556.361035 
L 481.882561 555.416835 
L 482.747294 554.267436 
L 483.612028 554.322894 
L 484.476761 554.944653 
L 485.341494 554.866954 
L 486.206228 556.431307 
L 487.070961 554.50167 
L 487.935694 556.257394 
L 488.800428 557.105146 
L 489.665161 557.074563 
L 490.529894 557.305643 
L 491.394628 557.290372 
L 492.259361 556.355898 
L 493.988828 556.253904 
L 494.853561 556.261067 
L 495.718294 555.912009 
L 496.583028 554.269237 
L 497.447761 553.42063 
L 498.312494 555.411463 
L 499.177228 556.729036 
L 500.041961 557.747242 
L 501.771428 556.726869 
L 502.636161 557.240937 
L 503.500894 558.030769 
L 504.365628 558.43501 
L 505.230361 558.275839 
L 506.095094 557.082407 
L 506.959828 557.768933 
L 507.824561 559.021455 
L 508.689294 558.114785 
L 509.554028 558.272715 
L 510.418761 559.28794 
L 511.283494 558.362958 
L 513.012961 558.814812 
L 513.877694 558.328936 
L 514.742428 558.909257 
L 515.607161 557.850426 
L 516.471894 557.347265 
L 517.336628 559.104047 
L 518.201361 559.427567 
L 519.066094 558.436149 
L 519.930828 557.95361 
L 520.795561 557.295988 
L 521.660294 558.452417 
L 522.525028 558.876131 
L 524.254494 559.286374 
L 525.119228 558.266458 
L 525.983961 558.405302 
L 526.848694 558.314764 
L 527.713428 560.336058 
L 528.578161 560.797923 
L 529.442894 559.876319 
L 530.307628 560.379002 
L 531.172361 560.157902 
L 532.037094 560.19111 
L 532.901827 561.158579 
L 533.766561 560.457178 
L 534.631294 558.520125 
L 535.496027 559.530131 
L 536.360761 558.540137 
L 537.225494 559.462036 
L 538.090227 560.573476 
L 538.954961 562.437654 
L 539.819694 560.900527 
L 540.684427 560.383926 
L 541.549161 560.293846 
L 542.413894 560.60118 
L 543.278627 561.060532 
L 544.143361 561.715163 
L 545.008094 562.05365 
L 545.872827 561.781202 
L 546.737561 561.956163 
L 547.602294 559.584429 
L 548.467027 560.760707 
L 549.331761 561.690705 
L 550.196494 561.869379 
L 551.061227 561.464518 
L 551.925961 560.805198 
L 552.790694 561.189589 
L 553.655427 560.960289 
L 554.520161 560.263162 
L 555.384894 562.112455 
L 556.249627 562.069796 
L 557.979094 563.133113 
L 558.843827 561.54533 
L 559.708561 561.502925 
L 560.573294 562.269703 
L 561.438027 560.763047 
L 562.302761 561.894295 
L 563.167494 560.491464 
L 564.032227 563.025524 
L 564.896961 563.523211 
L 565.761694 563.554618 
L 566.626427 564.098557 
L 567.491161 564.141338 
L 568.355894 563.674813 
L 569.220627 563.559227 
L 570.085361 562.121774 
L 570.950094 562.530461 
L 571.814827 563.314086 
L 572.679561 562.361462 
L 573.544294 563.161142 
L 574.409027 562.25841 
L 575.273761 561.73312 
L 577.003227 562.475318 
L 577.867961 562.447156 
L 578.732694 562.76676 
L 579.597427 564.262357 
L 580.462161 564.161299 
L 581.326894 563.410505 
L 582.191627 561.46809 
L 583.056361 560.095119 
L 583.921094 563.49445 
L 584.785827 565.213303 
L 589.109494 563.756154 
L 589.974227 564.279388 
L 590.83896 563.424565 
L 591.703694 563.553489 
L 592.568427 564.837977 
L 593.43316 565.074846 
L 594.297894 564.994157 
L 595.162627 564.573516 
L 596.02736 563.762085 
L 596.892094 564.514599 
L 597.756827 565.465616 
L 598.62156 565.240641 
L 599.486294 564.330827 
L 600.351027 564.434683 
L 601.21576 564.784523 
L 602.080494 565.356939 
L 602.945227 565.716933 
L 603.80996 564.849779 
L 604.674694 565.785556 
L 605.539427 567.234088 
L 607.268894 566.363089 
L 608.133627 565.714694 
L 608.99836 565.317718 
L 609.863094 564.559049 
L 610.727827 565.826058 
L 611.59256 565.194329 
L 612.457294 564.867461 
L 613.322027 566.18242 
L 614.18676 564.49537 
L 615.051494 564.958538 
L 615.916227 565.055455 
L 616.78096 564.654511 
L 617.645694 566.527845 
L 618.510427 564.442476 
L 619.37516 565.527728 
L 620.239894 565.678974 
L 621.104627 566.370872 
L 622.834094 566.155642 
L 623.698827 566.421558 
L 624.56356 565.357702 
L 625.428294 564.987117 
L 626.293027 565.959326 
L 627.15776 566.356323 
L 628.022494 567.456805 
L 628.887227 567.337414 
L 629.75196 566.251755 
L 630.616694 567.181489 
L 631.481427 567.527239 
L 632.34616 566.608484 
L 633.210894 567.753894 
L 634.075627 566.959138 
L 634.94036 567.133671 
L 635.805094 568.87329 
L 637.53456 567.17454 
L 638.399294 566.846075 
L 639.264027 567.485231 
L 640.12876 567.578262 
L 641.858227 568.301577 
L 642.72296 568.197314 
L 643.587694 566.958273 
L 644.452427 566.631456 
L 645.31716 567.872888 
L 646.181894 568.878947 
L 647.046627 568.187466 
L 647.91136 568.199257 
L 648.776093 568.501464 
L 650.50556 567.388894 
L 651.370293 567.745134 
L 652.235027 569.050021 
L 653.09976 568.472743 
L 653.964493 567.745613 
L 655.69396 567.757099 
L 656.558693 569.347954 
L 657.423427 568.675448 
L 658.28816 569.135014 
L 659.152893 568.905684 
L 660.017627 569.380541 
L 660.88236 569.146918 
L 661.747093 564.769863 
L 662.611827 567.006559 
L 663.47656 568.529116 
L 664.341293 568.789559 
L 665.206027 569.372911 
L 666.935493 568.889426 
L 667.800227 569.282597 
L 668.66496 568.242731 
L 670.394427 569.900744 
L 671.25916 570.226106 
L 672.123893 570.879516 
L 672.988627 569.05698 
L 673.85336 569.220739 
L 674.718093 567.996369 
L 675.582827 569.141454 
L 676.44756 570.048785 
L 678.177027 568.700496 
L 679.04176 568.022882 
L 679.906493 568.947661 
L 680.771227 570.367819 
L 681.63596 571.219457 
L 682.500693 571.181508 
L 683.365427 571.540414 
L 684.23016 569.713025 
L 685.094893 570.798928 
L 685.959627 570.304008 
L 686.82436 571.483491 
L 687.689093 570.780717 
L 688.553827 570.596783 
L 689.41856 568.904982 
L 690.283293 569.268628 
L 691.148027 569.373226 
L 692.01276 569.747443 
L 692.877493 571.647789 
L 693.742227 570.246118 
L 694.60696 570.485795 
L 695.471693 571.340883 
L 696.336427 572.479009 
L 697.20116 570.150198 
L 698.065893 569.79697 
L 698.930627 568.107916 
L 699.79536 569.176076 
L 700.660093 567.710024 
L 701.524827 570.759016 
L 702.38956 572.196347 
L 703.254293 571.45654 
L 704.119027 570.87273 
L 704.98376 572.274004 
L 705.848493 571.415122 
L 706.713226 570.155896 
L 707.57796 569.290583 
L 708.442693 569.430048 
L 709.307426 570.657887 
L 710.17216 570.652047 
L 711.036893 572.038203 
L 711.901626 572.0895 
L 712.76636 572.495094 
L 713.631093 571.041729 
L 714.495826 568.770289 
L 715.36056 569.993907 
L 716.225293 570.849452 
L 717.090026 572.72301 
L 717.95476 571.755419 
L 718.819493 573.061191 
L 719.684226 572.486344 
L 720.54896 571.526476 
L 721.413693 572.560716 
L 722.278426 572.593791 
L 723.14316 571.01547 
L 724.007893 570.3223 
L 724.872626 570.290955 
L 725.73736 569.971829 
L 726.602093 571.569674 
L 727.466826 572.76982 
L 729.196293 572.174524 
L 730.061026 572.878559 
L 730.92576 572.202299 
L 731.790493 572.770482 
L 732.655226 573.194704 
L 733.51996 572.694025 
L 734.384693 571.762256 
L 735.249426 572.531313 
L 736.11416 574.263627 
L 736.978893 573.859844 
L 737.843626 572.862688 
L 738.70836 573.159939 
L 739.573093 572.29011 
L 741.30256 571.939282 
L 743.032026 571.115592 
L 743.89676 571.229346 
L 744.761493 573.081773 
L 745.626226 573.585657 
L 746.49096 573.08508 
L 747.355693 574.336482 
L 748.220426 575.265972 
L 749.08516 573.594956 
L 749.949893 573.191641 
L 750.814626 571.700551 
L 751.67936 572.812357 
L 752.544093 573.719047 
L 753.408826 573.837828 
L 754.27356 575.019641 
L 755.138293 574.625248 
L 756.86776 573.361424 
L 757.732493 573.247333 
L 758.597226 573.356174 
L 759.46196 572.964224 
L 762.05616 574.769627 
L 762.920893 575.556122 
L 763.785626 575.012631 
L 764.650359 573.752265 
L 765.515093 574.722033 
L 767.244559 572.561509 
L 768.109293 575.414663 
L 768.974026 575.51452 
L 770.703493 574.501076 
L 771.568226 572.356423 
L 772.432959 574.141916 
L 773.297693 574.426348 
L 774.162426 574.12458 
L 775.027159 573.445888 
L 775.891893 574.233919 
L 776.756626 573.504377 
L 777.621359 571.875227 
L 778.486093 572.300284 
L 779.350826 574.628067 
L 780.215559 575.75786 
L 781.080293 575.284539 
L 781.945026 575.904843 
L 782.809759 576.350603 
L 783.674493 575.120444 
L 785.403959 575.204857 
L 786.268693 574.674806 
L 787.133426 574.31765 
L 787.998159 575.29866 
L 788.862893 574.615451 
L 789.727626 574.669454 
L 790.592359 576.325158 
L 791.457093 575.393858 
L 792.321826 575.157833 
L 793.186559 574.526043 
L 794.051293 574.819499 
L 794.916026 575.393634 
L 795.780759 576.60546 
L 796.645493 576.229218 
L 797.510226 577.088691 
L 798.374959 575.721478 
L 799.239693 576.045803 
L 800.104426 575.181925 
L 800.969159 575.69758 
L 801.833893 575.531786 
L 802.698626 574.905062 
L 803.563359 574.740926 
L 804.428093 576.911847 
L 805.292826 577.684302 
L 806.157559 577.553374 
L 807.022293 576.18197 
L 807.887026 575.439986 
L 808.751759 575.863811 
L 809.616493 575.953749 
L 810.481226 575.748856 
L 811.345959 575.001266 
L 812.210693 575.560232 
L 813.075426 577.572511 
L 813.940159 578.048519 
L 814.804893 576.509723 
L 815.669626 576.78387 
L 816.534359 574.886444 
L 817.399093 576.058225 
L 818.263826 573.759936 
L 819.128559 573.640362 
L 819.993293 575.809066 
L 820.858026 576.662841 
L 821.722759 577.082118 
L 822.587492 577.871096 
L 823.452226 576.747223 
L 824.316959 577.819626 
L 825.181692 577.170601 
L 826.046426 578.04395 
L 826.911159 577.758623 
L 827.775892 577.331339 
L 828.640626 577.341909 
L 829.505359 576.235638 
L 830.370092 576.542086 
L 831.234826 575.626545 
L 832.099559 575.948957 
L 832.964292 576.562729 
L 833.829026 574.730569 
L 834.693759 577.103717 
L 835.558492 576.212787 
L 836.423226 574.787319 
L 837.287959 576.668589 
L 838.152692 577.027739 
L 839.017426 578.022748 
L 839.882159 576.774703 
L 840.746892 576.717292 
L 841.611626 575.728 
L 842.476359 578.000691 
L 843.341092 577.887262 
L 844.205826 579.196859 
L 845.070559 578.941433 
L 845.935292 578.412969 
L 846.800026 578.648597 
L 847.664759 577.266612 
L 848.529492 576.925063 
L 849.394226 576.031142 
L 850.258959 577.305629 
L 851.123692 578.132504 
L 851.988426 578.466494 
L 852.853159 578.63592 
L 853.717892 577.597671 
L 854.582626 577.463193 
L 856.312092 578.738677 
L 857.176826 577.631001 
L 858.041559 578.146432 
L 858.906292 578.12756 
L 859.771026 579.349356 
L 860.635759 579.505912 
L 862.365226 576.476475 
L 864.094692 578.423377 
L 864.959426 578.945808 
L 865.824159 578.618991 
L 866.688892 579.138064 
L 867.553626 577.533708 
L 868.418359 578.324679 
L 869.283092 578.415787 
L 870.147826 579.93866 
L 871.012559 578.911135 
L 871.877292 579.322833 
L 872.742026 579.339304 
L 873.606759 580.409743 
L 874.471492 579.788666 
L 875.336226 578.579343 
L 876.200959 578.937373 
L 877.065692 578.410029 
L 877.930426 579.411264 
L 878.795159 578.716894 
L 879.659892 579.387519 
L 880.524625 578.282041 
L 881.389359 580.248273 
L 882.254092 580.877418 
L 883.118825 579.680161 
L 883.983559 578.075083 
L 885.713025 579.438419 
L 886.577759 579.457932 
L 887.442492 578.385835 
L 888.307225 579.047303 
L 889.171959 578.274766 
L 890.036692 580.757966 
L 890.901425 578.853093 
L 891.766159 578.744008 
L 892.630892 579.584079 
L 893.495625 579.625242 
L 894.360359 580.060859 
L 895.225092 579.230789 
L 896.089825 578.902009 
L 896.954559 577.740117 
L 897.819292 578.799456 
L 898.684025 579.658399 
L 900.413492 578.10127 
L 901.278225 579.546018 
L 902.142959 575.679216 
L 903.007692 573.57354 
L 903.872425 577.511224 
L 904.737159 576.867743 
L 905.601892 578.603689 
L 906.466625 579.18406 
L 907.331359 581.493022 
L 908.196092 581.82051 
L 909.060825 581.249499 
L 909.925559 579.214806 
L 910.790292 578.526591 
L 911.655025 579.806674 
L 912.519759 579.436832 
L 913.384492 581.388291 
L 914.249225 581.483316 
L 915.978692 580.972565 
L 916.843425 581.44259 
L 918.572892 580.348384 
L 920.302359 579.782511 
L 921.167092 579.934479 
L 922.031825 581.094357 
L 922.896559 581.182829 
L 923.761292 580.038751 
L 924.626025 578.402632 
L 925.490759 578.948015 
L 926.355492 575.268464 
L 927.220225 574.669597 
L 928.084959 575.406962 
L 928.949692 579.740706 
L 929.814425 581.164282 
L 930.679159 581.235031 
L 933.273359 583.505281 
L 934.138092 583.340514 
L 935.867559 579.243028 
L 936.732292 579.379725 
L 937.597025 580.122493 
L 938.461758 577.646771 
L 939.326492 579.653516 
L 940.191225 580.702701 
L 941.055958 581.223606 
L 941.920692 582.045201 
L 942.785425 580.672861 
L 943.650158 580.765159 
L 944.514892 579.445001 
L 945.379625 579.46017 
L 946.244358 581.528183 
L 947.109092 582.647436 
L 947.973825 582.333123 
L 948.838558 581.401049 
L 949.703292 582.090404 
L 950.568025 582.472394 
L 951.432758 581.791148 
L 952.297492 578.732267 
L 953.162225 578.665099 
L 954.026958 581.208366 
L 954.891692 581.379705 
L 955.756425 580.338027 
L 957.485892 579.976578 
L 958.350625 581.519016 
L 959.215358 582.705895 
L 960.080092 581.218377 
L 961.809558 582.241609 
L 962.674292 581.641123 
L 963.539025 581.885287 
L 964.403758 581.237565 
L 965.268492 581.782164 
L 966.133225 580.937597 
L 966.997958 581.261382 
L 967.862692 582.413344 
L 969.592158 583.485452 
L 970.456892 582.936243 
L 971.321625 581.006067 
L 972.186358 581.525171 
L 973.051092 582.642359 
L 973.915825 581.730216 
L 974.780558 581.32794 
L 975.645292 581.080174 
L 976.510025 580.287504 
L 977.374758 581.023729 
L 978.239492 581.96619 
L 979.104225 582.698326 
L 979.968958 584.142178 
L 980.833692 583.421142 
L 981.698425 584.02177 
L 983.427892 580.664987 
L 984.292625 580.78391 
L 985.157358 578.058052 
L 986.886825 581.355287 
L 987.751558 582.358365 
L 988.616292 583.820967 
L 989.481025 583.658877 
L 990.345758 582.949296 
L 991.210492 581.344655 
L 992.075225 581.234574 
L 992.939958 581.852853 
L 993.804692 582.908723 
L 994.669425 584.150104 
L 996.398891 583.541235 
L 997.263625 583.659222 
L 998.128358 581.980759 
L 998.993091 580.700137 
L 999.857825 581.159816 
L 1000.722558 584.651648 
L 1001.587291 584.085418 
L 1002.452025 582.520344 
L 1002.452025 582.520344 
" clip-path="url(#p39d346c603)" style="fill: none; stroke: #4c72b0; stroke-width: 6; stroke-linecap: round"/>
   </g>
   <g id="line2d_14">
    <path d="M 138.58343 485.578716 
L 139.448163 495.916437 
L 141.17763 498.072251 
L 142.042363 498.456174 
L 142.907096 499.274055 
L 144.636563 499.534182 
L 145.501296 499.520773 
L 146.36603 500.166308 
L 147.230763 500.215102 
L 148.96023 499.622309 
L 149.824963 499.807515 
L 150.689696 500.252461 
L 151.55443 499.942624 
L 152.419163 500.103332 
L 153.283896 500.464323 
L 154.14863 500.137028 
L 155.013363 500.314339 
L 155.878096 500.059502 
L 156.74283 500.435754 
L 157.607563 499.803994 
L 158.472296 500.485952 
L 159.33703 500.598578 
L 160.201763 499.833275 
L 161.066496 499.775528 
L 161.93123 499.601533 
L 162.795963 500.422955 
L 163.660696 499.774795 
L 164.52543 500.328094 
L 165.390163 499.668885 
L 166.254896 498.674587 
L 167.11963 499.867663 
L 167.984363 499.515381 
L 168.849096 497.48312 
L 170.578563 499.652912 
L 171.443296 499.215779 
L 172.30803 498.313311 
L 173.172763 499.352232 
L 174.037496 498.356632 
L 174.90223 499.097599 
L 175.766963 498.310117 
L 176.631696 498.587824 
L 177.49643 496.568423 
L 179.225896 498.701813 
L 180.09063 497.969596 
L 180.955363 497.611209 
L 181.820096 497.653655 
L 182.684829 497.131 
L 183.549563 497.06312 
L 184.414296 496.339266 
L 185.279029 496.775808 
L 186.143763 496.514867 
L 187.008496 496.51678 
L 187.873229 494.934206 
L 188.737963 495.642698 
L 189.602696 496.062311 
L 190.467429 494.894732 
L 191.332163 495.372947 
L 192.196896 494.596269 
L 193.061629 493.504241 
L 193.926363 494.833668 
L 194.791096 492.738878 
L 195.655829 493.979852 
L 196.520563 494.532336 
L 197.385296 493.44332 
L 198.250029 492.87765 
L 199.114763 491.894422 
L 199.979496 492.870528 
L 200.844229 492.592129 
L 201.708963 491.885978 
L 202.573696 491.40117 
L 203.438429 490.732458 
L 204.303163 488.985372 
L 205.167896 490.268019 
L 206.032629 489.547563 
L 206.897363 490.09376 
L 207.762096 490.231617 
L 208.626829 489.987381 
L 209.491563 489.17127 
L 210.356296 488.678364 
L 211.221029 489.349192 
L 212.085763 487.390834 
L 212.950496 488.364417 
L 213.815229 486.882728 
L 214.679963 486.245474 
L 215.544696 486.921369 
L 217.274163 487.534836 
L 219.003629 485.03433 
L 219.868363 485.038929 
L 220.733096 483.908993 
L 221.597829 483.714935 
L 222.462563 484.246645 
L 223.327296 481.872397 
L 224.192029 483.286369 
L 225.056763 480.803627 
L 225.921496 482.230072 
L 226.786229 480.307506 
L 227.650963 480.348873 
L 229.380429 480.602794 
L 230.245163 479.759966 
L 231.109896 478.259719 
L 231.974629 479.030699 
L 232.839363 481.130393 
L 233.704096 478.565079 
L 234.568829 479.165382 
L 235.433563 477.312426 
L 236.298296 478.025658 
L 237.163029 476.446767 
L 238.027763 476.023817 
L 238.892496 474.838494 
L 239.757229 474.879149 
L 240.621962 476.273505 
L 241.486696 473.854371 
L 242.351429 475.37232 
L 243.216162 473.838662 
L 244.080896 473.463448 
L 244.945629 469.359716 
L 245.810362 473.726525 
L 247.539829 470.071219 
L 248.404562 470.215302 
L 249.269296 470.574991 
L 250.134029 470.018233 
L 250.998762 468.146374 
L 251.863496 467.254996 
L 252.728229 466.972568 
L 253.592962 466.979079 
L 254.457696 467.177084 
L 255.322429 469.158333 
L 256.187162 466.683873 
L 257.051896 467.977385 
L 257.916629 465.925 
L 258.781362 467.204452 
L 259.646096 463.374703 
L 260.510829 465.0838 
L 261.375562 462.838334 
L 262.240296 462.722005 
L 263.105029 463.740008 
L 263.969762 462.519076 
L 264.834496 461.826497 
L 265.699229 459.33877 
L 266.563962 461.412154 
L 267.428696 459.751444 
L 268.293429 458.632659 
L 269.158162 456.566926 
L 270.022896 458.11971 
L 270.887629 457.13459 
L 271.752362 453.620884 
L 272.617096 459.766603 
L 273.481829 457.408594 
L 274.346562 456.468218 
L 275.211296 455.214669 
L 276.076029 453.276618 
L 276.940762 454.247699 
L 277.805496 454.216119 
L 278.670229 453.173638 
L 279.534962 451.132241 
L 280.399696 454.76136 
L 281.264429 451.0421 
L 282.129162 451.682324 
L 282.993896 449.774653 
L 283.858629 451.278379 
L 284.723362 451.192023 
L 285.588096 447.756778 
L 286.452829 446.246764 
L 287.317562 448.739111 
L 288.182296 446.998699 
L 289.047029 443.993099 
L 289.911762 444.43837 
L 290.776496 439.769334 
L 291.641229 442.303576 
L 292.505962 445.695908 
L 293.370696 438.314321 
L 294.235429 446.59107 
L 295.100162 442.209122 
L 295.964896 439.580832 
L 296.829629 439.543616 
L 297.694362 440.054082 
L 298.559096 440.06393 
L 299.423829 437.190388 
L 300.288562 437.072919 
L 301.153295 437.296949 
L 302.018029 436.353908 
L 302.882762 440.201298 
L 303.747495 430.244224 
L 304.612229 436.543977 
L 305.476962 435.223402 
L 306.341695 435.439741 
L 307.206429 435.438642 
L 308.071162 433.723319 
L 308.935895 428.915225 
L 309.800629 432.69211 
L 310.665362 434.406966 
L 311.530095 426.787431 
L 312.394829 427.180226 
L 313.259562 432.787562 
L 314.124295 427.604967 
L 314.989029 432.176984 
L 315.853762 426.618076 
L 316.718495 427.956272 
L 318.447962 425.725721 
L 319.312695 429.387662 
L 320.177429 421.757322 
L 321.042162 423.74374 
L 321.906895 421.48867 
L 322.771629 421.000586 
L 323.636362 425.660425 
L 324.501095 421.764078 
L 325.365829 419.436387 
L 326.230562 422.500181 
L 327.095295 418.721994 
L 327.960029 419.270348 
L 328.824762 418.259325 
L 329.689495 414.548998 
L 331.418962 419.333325 
L 332.283695 414.260506 
L 333.148429 416.638314 
L 334.013162 416.799021 
L 334.877895 412.372613 
L 335.742629 413.0785 
L 336.607362 411.420883 
L 337.472095 415.148262 
L 338.336829 413.371366 
L 339.201562 415.499649 
L 340.066295 411.452585 
L 340.931029 411.817564 
L 341.795762 412.724447 
L 342.660495 414.141797 
L 343.525229 410.26596 
L 344.389962 409.357897 
L 345.254695 409.415522 
L 346.119429 406.480549 
L 346.984162 407.234966 
L 347.848895 409.331811 
L 348.713629 408.516107 
L 349.578362 404.429365 
L 350.443095 407.786616 
L 351.307829 400.738815 
L 352.172562 401.949105 
L 353.037295 404.225337 
L 353.902029 401.828463 
L 354.766762 403.387616 
L 355.631495 402.663884 
L 356.496229 399.746207 
L 357.360962 403.848535 
L 358.225695 401.887899 
L 359.090428 402.086514 
L 359.955162 402.502241 
L 360.819895 406.437554 
L 361.684628 403.160758 
L 362.549362 401.076691 
L 363.414095 402.763934 
L 364.278828 398.702505 
L 365.143562 399.689152 
L 366.008295 400.332001 
L 366.873028 395.596244 
L 367.737762 401.102472 
L 368.602495 395.104254 
L 369.467228 393.489103 
L 370.331962 396.160286 
L 371.196695 394.00838 
L 372.061428 390.818347 
L 372.926162 391.507976 
L 373.790895 391.105089 
L 374.655628 389.975478 
L 375.520362 393.60181 
L 376.385095 387.651653 
L 377.249828 393.68666 
L 378.114562 394.051233 
L 378.979295 381.715964 
L 379.844028 391.990037 
L 380.708762 388.960711 
L 381.573495 386.848402 
L 382.438228 383.671269 
L 383.302962 389.776558 
L 384.167695 386.566767 
L 385.032428 385.366489 
L 385.897162 383.117503 
L 386.761895 384.673339 
L 387.626628 383.014156 
L 388.491362 385.892094 
L 389.356095 378.556697 
L 390.220828 382.402866 
L 391.085562 379.405059 
L 391.950295 380.211953 
L 392.815028 379.708344 
L 393.679762 380.761385 
L 394.544495 374.600018 
L 395.409228 381.724774 
L 397.138695 374.08066 
L 398.003428 376.398503 
L 398.868162 381.176095 
L 399.732895 377.283471 
L 400.597628 376.816814 
L 401.462362 373.483573 
L 402.327095 374.381177 
L 403.191828 373.943169 
L 404.056562 375.906817 
L 404.921295 370.367524 
L 405.786028 377.506951 
L 406.650762 371.701529 
L 407.515495 374.646065 
L 408.380228 367.64307 
L 409.244962 369.310718 
L 410.109695 369.158252 
L 410.974428 371.056889 
L 411.839162 369.376951 
L 412.703895 366.32571 
L 413.568628 367.07504 
L 414.433362 368.864144 
L 415.298095 366.011133 
L 416.162828 367.670866 
L 417.027561 361.986553 
L 417.892295 367.687917 
L 418.757028 362.400571 
L 419.621761 364.396816 
L 420.486495 358.705667 
L 421.351228 365.122359 
L 422.215961 364.3467 
L 423.080695 358.350435 
L 423.945428 364.963056 
L 424.810161 364.794434 
L 425.674895 357.163667 
L 426.539628 362.906744 
L 427.404361 362.003462 
L 428.269095 363.806281 
L 429.133828 360.678635 
L 429.998561 360.539456 
L 430.863295 358.175809 
L 431.728028 354.133792 
L 432.592761 360.055502 
L 433.457495 356.428174 
L 434.322228 353.426949 
L 435.186961 354.210015 
L 436.051695 347.775824 
L 436.916428 351.625961 
L 437.781161 352.584996 
L 438.645895 352.476704 
L 439.510628 351.425576 
L 440.375361 349.398727 
L 441.240095 356.594009 
L 442.104828 351.070994 
L 442.969561 351.728067 
L 443.834295 347.385715 
L 444.699028 352.192445 
L 445.563761 347.399267 
L 446.428495 353.815999 
L 447.293228 344.889238 
L 448.157961 348.945255 
L 449.022695 348.317321 
L 449.887428 344.01249 
L 450.752161 343.237848 
L 451.616895 345.086653 
L 452.481628 345.597221 
L 453.346361 340.901346 
L 454.211095 341.988002 
L 455.075828 339.000084 
L 455.940561 339.703469 
L 456.805295 339.854979 
L 457.670028 341.114388 
L 458.534761 339.611252 
L 459.399495 341.2274 
L 460.264228 341.365195 
L 461.128961 336.937993 
L 461.993695 342.469839 
L 462.858428 344.450254 
L 463.723161 334.392234 
L 464.587895 336.675628 
L 465.452628 331.017626 
L 466.317361 333.43149 
L 467.182095 337.346822 
L 468.046828 336.802599 
L 468.911561 332.689649 
L 469.776295 335.274476 
L 470.641028 332.85585 
L 471.505761 337.465979 
L 472.370495 339.998065 
L 473.235228 336.566564 
L 474.099961 327.505995 
L 474.964694 332.475671 
L 475.829428 332.540011 
L 476.694161 332.069324 
L 477.558894 328.801909 
L 478.423628 323.793247 
L 479.288361 329.498456 
L 480.153094 329.092598 
L 481.017828 327.451097 
L 481.882561 329.80286 
L 482.747294 333.404387 
L 483.612028 326.70604 
L 484.476761 322.379601 
L 485.341494 330.471083 
L 486.206228 324.065541 
L 487.070961 323.066137 
L 487.935694 327.738937 
L 488.800428 323.276208 
L 489.665161 326.496824 
L 490.529894 324.482591 
L 491.394628 322.981246 
L 492.259361 324.95873 
L 493.124094 316.542537 
L 493.988828 319.085163 
L 494.853561 319.632438 
L 495.718294 318.562142 
L 496.583028 327.954055 
L 497.447761 325.003292 
L 498.312494 322.999518 
L 499.177228 319.898141 
L 500.041961 318.779498 
L 500.906694 320.054738 
L 501.771428 319.350255 
L 502.636161 317.039472 
L 503.500894 318.013727 
L 504.365628 311.643102 
L 505.230361 316.908961 
L 506.095094 314.742404 
L 506.959828 313.199224 
L 507.824561 310.378321 
L 508.689294 316.67199 
L 509.554028 310.818038 
L 510.418761 307.575813 
L 511.283494 309.978567 
L 512.148228 307.364724 
L 513.012961 312.244707 
L 513.877694 309.178328 
L 514.742428 307.873949 
L 515.607161 304.723941 
L 516.471894 302.849253 
L 518.201361 308.147587 
L 519.066094 304.447698 
L 519.930828 298.796858 
L 520.795561 300.360061 
L 522.525028 309.087698 
L 523.389761 300.253235 
L 524.254494 295.12037 
L 525.119228 304.600389 
L 525.983961 304.585697 
L 526.848694 301.065439 
L 527.713428 298.625408 
L 529.442894 303.162691 
L 530.307628 299.098942 
L 531.172361 299.28248 
L 532.037094 297.648752 
L 532.901827 300.963171 
L 533.766561 298.214585 
L 534.631294 287.579012 
L 535.496027 300.914133 
L 536.360761 297.129434 
L 537.225494 305.60777 
L 538.090227 297.248876 
L 538.954961 296.866337 
L 539.819694 294.537363 
L 540.684427 296.741157 
L 541.549161 289.536352 
L 542.413894 289.449833 
L 543.278627 294.942611 
L 544.143361 292.177665 
L 545.008094 287.595493 
L 545.872827 294.476482 
L 546.737561 286.627913 
L 547.602294 284.222391 
L 548.467027 291.606745 
L 549.331761 296.064876 
L 550.196494 288.317476 
L 551.061227 293.035733 
L 551.925961 288.053361 
L 552.790694 289.359489 
L 553.655427 287.256824 
L 554.520161 290.168193 
L 555.384894 293.594281 
L 556.249627 285.29167 
L 557.114361 283.813277 
L 557.979094 288.749989 
L 558.843827 288.886605 
L 559.708561 285.49405 
L 560.573294 278.829765 
L 561.438027 277.673438 
L 562.302761 279.34135 
L 563.167494 278.829887 
L 564.032227 281.739913 
L 564.896961 286.36335 
L 565.761694 279.324706 
L 566.626427 283.929138 
L 567.491161 279.340455 
L 568.355894 279.620645 
L 569.220627 278.348905 
L 570.085361 270.349191 
L 570.950094 279.316282 
L 571.814827 278.515513 
L 572.679561 275.944441 
L 573.544294 284.231669 
L 574.409027 269.491774 
L 575.273761 274.155092 
L 576.138494 272.117826 
L 577.003227 275.578343 
L 577.867961 269.881354 
L 578.732694 274.664969 
L 579.597427 270.333239 
L 580.462161 277.110698 
L 581.326894 276.346474 
L 582.191627 272.548345 
L 583.056361 277.67881 
L 583.921094 270.670321 
L 584.785827 269.09963 
L 585.650561 274.884074 
L 586.515294 273.745287 
L 587.380027 266.705015 
L 588.244761 270.912542 
L 589.109494 266.091934 
L 589.974227 268.43568 
L 590.83896 264.712717 
L 591.703694 267.65823 
L 592.568427 269.117699 
L 593.43316 267.083322 
L 594.297894 268.869903 
L 595.162627 266.791575 
L 596.02736 259.814666 
L 596.892094 259.998529 
L 597.756827 260.946535 
L 598.62156 263.174786 
L 599.486294 260.959517 
L 600.351027 267.403841 
L 601.21576 264.860402 
L 602.080494 263.320111 
L 602.945227 259.15621 
L 603.80996 260.952192 
L 604.674694 264.151605 
L 605.539427 255.498115 
L 606.40416 257.584135 
L 607.268894 260.228256 
L 608.133627 255.8763 
L 608.99836 255.017092 
L 609.863094 251.250666 
L 610.727827 255.79849 
L 611.59256 259.745565 
L 613.322027 257.039424 
L 614.18676 251.071931 
L 615.051494 253.508056 
L 615.916227 253.29481 
L 616.78096 246.699545 
L 617.645694 247.511546 
L 618.510427 251.813854 
L 619.37516 257.506122 
L 620.239894 250.031464 
L 621.104627 250.38808 
L 621.96936 250.163114 
L 622.834094 252.908974 
L 623.698827 248.208541 
L 624.56356 248.857882 
L 625.428294 253.417874 
L 626.293027 252.224025 
L 627.15776 243.283916 
L 628.022494 247.836827 
L 628.887227 249.84402 
L 629.75196 249.811992 
L 630.616694 248.277928 
L 631.481427 241.289136 
L 632.34616 248.588395 
L 633.210894 247.913294 
L 634.075627 246.744229 
L 634.94036 245.964663 
L 635.805094 242.278814 
L 636.669827 250.261028 
L 637.53456 239.827672 
L 638.399294 247.52933 
L 639.264027 241.596714 
L 640.12876 240.873429 
L 640.993494 241.451918 
L 641.858227 238.691449 
L 642.72296 232.693922 
L 643.587694 234.884327 
L 644.452427 243.570861 
L 645.31716 239.754542 
L 646.181894 240.476606 
L 647.046627 239.806063 
L 647.91136 237.904231 
L 648.776093 243.465256 
L 649.640827 234.065041 
L 650.50556 236.64527 
L 651.370293 234.628595 
L 652.235027 230.701177 
L 653.09976 235.952181 
L 653.964493 230.334061 
L 654.829227 221.506516 
L 655.69396 235.599391 
L 656.558693 230.67098 
L 657.423427 232.825654 
L 658.28816 226.18595 
L 659.152893 228.186346 
L 660.017627 235.147953 
L 660.88236 221.242075 
L 661.747093 234.551721 
L 662.611827 232.523367 
L 664.341293 223.019459 
L 665.206027 228.071259 
L 666.07076 224.429565 
L 666.935493 226.67674 
L 667.800227 229.631409 
L 668.66496 230.80373 
L 669.529693 228.258215 
L 670.394427 226.822959 
L 671.25916 234.745229 
L 672.123893 221.605569 
L 672.988627 225.766052 
L 673.85336 224.627509 
L 674.718093 226.931332 
L 675.582827 220.3368 
L 676.44756 221.010435 
L 677.312293 223.632255 
L 678.177027 228.151389 
L 679.04176 222.019078 
L 679.906493 220.845211 
L 680.771227 224.001731 
L 681.63596 215.534912 
L 682.500693 223.278976 
L 683.365427 215.781203 
L 684.23016 225.813259 
L 685.094893 226.171869 
L 685.959627 221.537567 
L 686.82436 211.619052 
L 687.689093 224.623113 
L 688.553827 222.04785 
L 689.41856 215.678853 
L 690.283293 204.964331 
L 691.148027 217.730323 
L 692.01276 214.94686 
L 692.877493 222.122241 
L 693.742227 218.817955 
L 694.60696 214.213117 
L 695.471693 212.423972 
L 696.336427 204.500969 
L 697.20116 211.731534 
L 698.065893 215.469108 
L 698.930627 209.350633 
L 699.79536 214.879508 
L 700.660093 213.137977 
L 701.524827 214.343913 
L 702.38956 205.483567 
L 703.254293 203.194394 
L 704.119027 206.092822 
L 704.98376 214.967126 
L 705.848493 206.403167 
L 706.713226 201.964936 
L 707.57796 205.566016 
L 708.442693 207.178949 
L 709.307426 215.353572 
L 710.17216 210.601944 
L 711.036893 211.884957 
L 711.901626 201.97979 
L 712.76636 210.219649 
L 713.631093 202.008522 
L 714.495826 212.683529 
L 715.36056 204.247395 
L 716.225293 202.468993 
L 717.090026 203.231305 
L 717.95476 204.325856 
L 718.819493 201.152284 
L 719.684226 198.698131 
L 720.54896 199.533451 
L 721.413693 199.726755 
L 722.278426 198.725275 
L 723.14316 195.062297 
L 724.007893 199.646218 
L 724.872626 201.089939 
L 725.73736 195.197651 
L 726.602093 199.566211 
L 727.466826 204.989928 
L 728.33156 201.433451 
L 729.196293 200.350132 
L 730.061026 198.462137 
L 730.92576 196.204177 
L 731.790493 203.399215 
L 732.655226 201.625941 
L 733.51996 198.356613 
L 734.384693 198.845816 
L 735.249426 196.152657 
L 736.11416 197.58718 
L 736.978893 200.695068 
L 738.70836 189.949332 
L 739.573093 192.93139 
L 740.437826 194.059149 
L 741.30256 191.324643 
L 742.167293 193.662081 
L 743.032026 197.748579 
L 743.89676 186.930893 
L 744.761493 194.752074 
L 745.626226 186.484583 
L 746.49096 188.897389 
L 747.355693 189.268208 
L 748.220426 184.018954 
L 749.08516 195.350138 
L 749.949893 192.977986 
L 750.814626 189.850035 
L 752.544093 179.827502 
L 753.408826 189.632801 
L 754.27356 186.519337 
L 755.138293 181.617664 
L 756.003026 186.086376 
L 756.86776 184.610465 
L 757.732493 190.960539 
L 758.597226 186.100741 
L 760.326693 185.528519 
L 761.191426 184.559677 
L 762.920893 187.636027 
L 763.785626 175.195519 
L 764.650359 182.642422 
L 765.515093 183.620299 
L 766.379826 169.850222 
L 767.244559 181.778168 
L 768.109293 182.991713 
L 768.974026 183.471475 
L 769.838759 176.643634 
L 770.703493 176.457411 
L 771.568226 185.08571 
L 772.432959 179.236478 
L 773.297693 171.09612 
L 774.162426 183.575737 
L 775.027159 180.340145 
L 775.891893 171.856112 
L 776.756626 173.431768 
L 777.621359 177.859825 
L 778.486093 172.933571 
L 779.350826 173.412722 
L 780.215559 173.175873 
L 781.080293 177.913706 
L 781.945026 175.885311 
L 782.809759 172.589326 
L 783.674493 171.75771 
L 784.539226 169.68573 
L 785.403959 157.28665 
L 786.268693 175.399526 
L 787.133426 174.140239 
L 787.998159 168.764583 
L 788.862893 167.780887 
L 789.727626 173.936883 
L 790.592359 172.191119 
L 791.457093 172.957948 
L 792.321826 167.066027 
L 793.186559 171.199365 
L 794.051293 163.948493 
L 794.916026 173.622997 
L 795.780759 169.676899 
L 796.645493 159.705561 
L 797.510226 167.429521 
L 798.374959 167.797003 
L 799.239693 159.821625 
L 800.104426 157.206439 
L 800.969159 159.724485 
L 801.833893 165.664101 
L 802.698626 163.249016 
L 803.563359 158.491568 
L 804.428093 165.664345 
L 805.292826 163.334273 
L 806.157559 165.289782 
L 807.022293 165.895253 
L 807.887026 160.119314 
L 808.751759 167.732174 
L 809.616493 158.079606 
L 810.481226 164.524296 
L 811.345959 156.303605 
L 812.210693 159.275408 
L 813.075426 164.858978 
L 813.940159 158.086076 
L 814.804893 167.977569 
L 815.669626 160.151382 
L 816.534359 153.632544 
L 817.399093 156.894507 
L 818.263826 158.567466 
L 819.128559 159.972688 
L 819.993293 152.231066 
L 820.858026 157.929723 
L 821.722759 152.942305 
L 822.587492 158.798821 
L 823.452226 161.340144 
L 824.316959 151.445029 
L 825.181692 154.536395 
L 826.046426 152.026408 
L 826.911159 156.119824 
L 827.775892 155.116472 
L 828.640626 149.381514 
L 829.505359 141.706837 
L 830.370092 151.126707 
L 831.234826 148.685902 
L 832.099559 149.281362 
L 832.964292 155.218292 
L 833.829026 159.808562 
L 834.693759 145.785439 
L 835.558492 143.596134 
L 836.423226 155.833896 
L 838.152692 142.809568 
L 839.017426 144.416111 
L 839.882159 153.677431 
L 840.746892 142.983297 
L 841.611626 152.764302 
L 842.476359 147.804759 
L 843.341092 147.734478 
L 844.205826 149.645791 
L 845.070559 148.812669 
L 845.935292 142.419784 
L 846.800026 148.015766 
L 847.664759 139.503369 
L 848.529492 145.011204 
L 849.394226 144.190576 
L 850.258959 146.635613 
L 851.123692 150.87826 
L 851.988426 138.854435 
L 852.853159 134.09422 
L 853.717892 146.635328 
L 854.582626 139.647309 
L 855.447359 136.800402 
L 856.312092 142.142443 
L 857.176826 145.091456 
L 858.041559 136.287636 
L 858.906292 140.972279 
L 859.771026 146.343499 
L 860.635759 139.631601 
L 861.500492 150.903085 
L 862.365226 143.511812 
L 863.229959 137.279716 
L 864.094692 136.785833 
L 864.959426 133.14361 
L 865.824159 141.710581 
L 866.688892 141.201925 
L 867.553626 129.734655 
L 868.418359 135.945182 
L 869.283092 143.885195 
L 870.147826 136.476709 
L 871.012559 139.424541 
L 871.877292 140.967437 
L 872.742026 134.392479 
L 873.606759 132.123206 
L 874.471492 134.297984 
L 875.336226 129.918314 
L 876.200959 128.265215 
L 877.065692 127.778535 
L 877.930426 133.584914 
L 878.795159 130.340003 
L 879.659892 136.265864 
L 880.524625 134.367451 
L 881.389359 127.956579 
L 882.254092 132.981641 
L 883.118825 118.233566 
L 883.983559 130.424935 
L 884.848292 137.306819 
L 885.713025 129.095732 
L 886.577759 133.287469 
L 887.442492 122.476742 
L 888.307225 125.556551 
L 889.171959 128.219636 
L 890.036692 132.459515 
L 890.901425 138.781875 
L 891.766159 130.068441 
L 892.630892 132.162111 
L 894.360359 117.153177 
L 895.225092 121.165039 
L 896.089825 126.270068 
L 896.954559 119.970539 
L 897.819292 120.367159 
L 898.684025 116.499319 
L 899.548759 119.071653 
L 900.413492 126.972313 
L 901.278225 112.02841 
L 902.142959 116.635609 
L 903.007692 114.912676 
L 903.872425 123.790561 
L 905.601892 111.66162 
L 906.466625 119.808936 
L 907.331359 123.841879 
L 908.196092 117.235789 
L 909.060825 125.602862 
L 909.925559 121.856906 
L 910.790292 120.235631 
L 911.655025 118.922381 
L 912.519759 119.66056 
L 913.384492 127.685098 
L 914.249225 116.004541 
L 915.113959 120.504833 
L 915.978692 117.592894 
L 916.843425 118.388698 
L 917.708159 118.060446 
L 918.572892 107.522747 
L 919.437625 122.01623 
L 920.302359 118.630105 
L 921.167092 109.840162 
L 922.031825 107.955097 
L 922.896559 116.86615 
L 923.761292 121.430415 
L 924.626025 119.192885 
L 925.490759 95.147596 
L 926.355492 101.787056 
L 927.220225 126.337786 
L 928.084959 119.397055 
L 928.949692 120.414081 
L 929.814425 114.299066 
L 930.679159 106.756203 
L 931.543892 110.776366 
L 932.408625 115.456126 
L 933.273359 110.96141 
L 934.138092 115.145944 
L 935.002825 116.949047 
L 935.867559 107.242882 
L 936.732292 109.600098 
L 937.597025 104.72622 
L 938.461758 110.445633 
L 939.326492 120.034757 
L 940.191225 111.026523 
L 941.055958 113.517302 
L 941.920692 113.005106 
L 942.785425 117.356574 
L 943.650158 103.293203 
L 944.514892 110.365137 
L 945.379625 114.727592 
L 946.244358 112.211785 
L 947.109092 104.831378 
L 947.973825 101.014693 
L 948.838558 98.822782 
L 949.703292 110.021177 
L 950.568025 110.713899 
L 951.432758 114.74798 
L 952.297492 103.527244 
L 953.162225 102.856254 
L 954.026958 105.791959 
L 954.891692 96.269983 
L 955.756425 97.41288 
L 956.621158 109.25622 
L 958.350625 97.255958 
L 959.215358 108.770191 
L 960.944825 96.440864 
L 961.809558 94.384348 
L 962.674292 96.200393 
L 963.539025 99.321427 
L 964.403758 96.716577 
L 965.268492 96.15339 
L 966.133225 100.155485 
L 966.997958 94.258151 
L 967.862692 105.117509 
L 968.727425 102.572605 
L 969.592158 100.493503 
L 970.456892 100.642693 
L 971.321625 103.143077 
L 972.186358 86.767866 
L 973.051092 97.847551 
L 973.915825 89.437625 
L 974.780558 98.392832 
L 975.645292 91.597223 
L 976.510025 106.519435 
L 977.374758 102.163247 
L 978.239492 86.584817 
L 979.104225 99.518109 
L 979.968958 95.376102 
L 980.833692 89.951489 
L 981.698425 92.061357 
L 982.563158 86.781825 
L 983.427892 97.911199 
L 984.292625 90.285275 
L 986.022092 93.92408 
L 986.886825 87.413544 
L 987.751558 91.899633 
L 988.616292 91.608455 
L 989.481025 92.859033 
L 990.345758 91.301284 
L 991.210492 88.689109 
L 992.075225 96.031791 
L 992.939958 97.522515 
L 993.804692 89.656364 
L 994.669425 92.908194 
L 995.534158 93.780302 
L 996.398891 85.392555 
L 997.263625 89.649894 
L 998.128358 79.797102 
L 998.993091 86.71952 
L 999.857825 88.605927 
L 1000.722558 83.042542 
L 1001.587291 90.280718 
L 1002.452025 92.024528 
L 1002.452025 92.024528 
" clip-path="url(#p39d346c603)" style="fill: none; stroke: #dd8452; stroke-width: 6; stroke-linecap: round"/>
   </g>
   <g id="line2d_15"/>
   <g id="line2d_16"/>
   <g id="patch_3">
    <path d="M 95.39 609.894375 
L 95.39 54.554375 
" style="fill: none; stroke: #cccccc; stroke-width: 1.875; stroke-linejoin: miter; stroke-linecap: square"/>
   </g>
   <g id="patch_4">
    <path d="M 1045.645455 609.894375 
L 1045.645455 54.554375 
" style="fill: none; stroke: #cccccc; stroke-width: 1.875; stroke-linejoin: miter; stroke-linecap: square"/>
   </g>
   <g id="patch_5">
    <path d="M 95.39 609.894375 
L 1045.645455 609.894375 
" style="fill: none; stroke: #cccccc; stroke-width: 1.875; stroke-linejoin: miter; stroke-linecap: square"/>
   </g>
   <g id="patch_6">
    <path d="M 95.39 54.554375 
L 1045.645455 54.554375 
" style="fill: none; stroke: #cccccc; stroke-width: 1.875; stroke-linejoin: miter; stroke-linecap: square"/>
   </g>
   <g id="text_15">
    <!-- Training Progress: Loss -->
    <g style="fill: #262626" transform="translate(333.519602 34.554375) scale(0.36 -0.36)">
     <defs>
      <path id="DejaVuSans-Bold-54" d="M 31 4666 
L 4331 4666 
L 4331 3756 
L 2784 3756 
L 2784 0 
L 1581 0 
L 1581 3756 
L 31 3756 
L 31 4666 
z
" transform="scale(0.015625)"/>
      <path id="DejaVuSans-Bold-72" d="M 3138 2547 
Q 2991 2616 2845 2648 
Q 2700 2681 2553 2681 
Q 2122 2681 1889 2404 
Q 1656 2128 1656 1613 
L 1656 0 
L 538 0 
L 538 3500 
L 1656 3500 
L 1656 2925 
Q 1872 3269 2151 3426 
Q 2431 3584 2822 3584 
Q 2878 3584 2943 3579 
Q 3009 3575 3134 3559 
L 3138 2547 
z
" transform="scale(0.015625)"/>
      <path id="DejaVuSans-Bold-61" d="M 2106 1575 
Q 1756 1575 1579 1456 
Q 1403 1338 1403 1106 
Q 1403 894 1545 773 
Q 1688 653 1941 653 
Q 2256 653 2472 879 
Q 2688 1106 2688 1447 
L 2688 1575 
L 2106 1575 
z
M 3816 1997 
L 3816 0 
L 2688 0 
L 2688 519 
Q 2463 200 2181 54 
Q 1900 -91 1497 -91 
Q 953 -91 614 226 
Q 275 544 275 1050 
Q 275 1666 698 1953 
Q 1122 2241 2028 2241 
L 2688 2241 
L 2688 2328 
Q 2688 2594 2478 2717 
Q 2269 2841 1825 2841 
Q 1466 2841 1156 2769 
Q 847 2697 581 2553 
L 581 3406 
Q 941 3494 1303 3539 
Q 1666 3584 2028 3584 
Q 2975 3584 3395 3211 
Q 3816 2838 3816 1997 
z
" transform="scale(0.015625)"/>
      <path id="DejaVuSans-Bold-69" d="M 538 3500 
L 1656 3500 
L 1656 0 
L 538 0 
L 538 3500 
z
M 538 4863 
L 1656 4863 
L 1656 3950 
L 538 3950 
L 538 4863 
z
" transform="scale(0.015625)"/>
      <path id="DejaVuSans-Bold-6e" d="M 4056 2131 
L 4056 0 
L 2931 0 
L 2931 347 
L 2931 1631 
Q 2931 2084 2911 2256 
Q 2891 2428 2841 2509 
Q 2775 2619 2662 2680 
Q 2550 2741 2406 2741 
Q 2056 2741 1856 2470 
Q 1656 2200 1656 1722 
L 1656 0 
L 538 0 
L 538 3500 
L 1656 3500 
L 1656 2988 
Q 1909 3294 2193 3439 
Q 2478 3584 2822 3584 
Q 3428 3584 3742 3212 
Q 4056 2841 4056 2131 
z
" transform="scale(0.015625)"/>
      <path id="DejaVuSans-Bold-67" d="M 2919 594 
Q 2688 288 2409 144 
Q 2131 0 1766 0 
Q 1125 0 706 504 
Q 288 1009 288 1791 
Q 288 2575 706 3076 
Q 1125 3578 1766 3578 
Q 2131 3578 2409 3434 
Q 2688 3291 2919 2981 
L 2919 3500 
L 4044 3500 
L 4044 353 
Q 4044 -491 3511 -936 
Q 2978 -1381 1966 -1381 
Q 1638 -1381 1331 -1331 
Q 1025 -1281 716 -1178 
L 716 -306 
Q 1009 -475 1290 -558 
Q 1572 -641 1856 -641 
Q 2406 -641 2662 -400 
Q 2919 -159 2919 353 
L 2919 594 
z
M 2181 2772 
Q 1834 2772 1640 2515 
Q 1447 2259 1447 1791 
Q 1447 1309 1634 1061 
Q 1822 813 2181 813 
Q 2531 813 2725 1069 
Q 2919 1325 2919 1791 
Q 2919 2259 2725 2515 
Q 2531 2772 2181 2772 
z
" transform="scale(0.015625)"/>
      <path id="DejaVuSans-Bold-20" transform="scale(0.015625)"/>
      <path id="DejaVuSans-Bold-50" d="M 588 4666 
L 2584 4666 
Q 3475 4666 3951 4270 
Q 4428 3875 4428 3144 
Q 4428 2409 3951 2014 
Q 3475 1619 2584 1619 
L 1791 1619 
L 1791 0 
L 588 0 
L 588 4666 
z
M 1791 3794 
L 1791 2491 
L 2456 2491 
Q 2806 2491 2997 2661 
Q 3188 2831 3188 3144 
Q 3188 3456 2997 3625 
Q 2806 3794 2456 3794 
L 1791 3794 
z
" transform="scale(0.015625)"/>
      <path id="DejaVuSans-Bold-6f" d="M 2203 2784 
Q 1831 2784 1636 2517 
Q 1441 2250 1441 1747 
Q 1441 1244 1636 976 
Q 1831 709 2203 709 
Q 2569 709 2762 976 
Q 2956 1244 2956 1747 
Q 2956 2250 2762 2517 
Q 2569 2784 2203 2784 
z
M 2203 3584 
Q 3106 3584 3614 3096 
Q 4122 2609 4122 1747 
Q 4122 884 3614 396 
Q 3106 -91 2203 -91 
Q 1297 -91 786 396 
Q 275 884 275 1747 
Q 275 2609 786 3096 
Q 1297 3584 2203 3584 
z
" transform="scale(0.015625)"/>
      <path id="DejaVuSans-Bold-65" d="M 4031 1759 
L 4031 1441 
L 1416 1441 
Q 1456 1047 1700 850 
Q 1944 653 2381 653 
Q 2734 653 3104 758 
Q 3475 863 3866 1075 
L 3866 213 
Q 3469 63 3072 -14 
Q 2675 -91 2278 -91 
Q 1328 -91 801 392 
Q 275 875 275 1747 
Q 275 2603 792 3093 
Q 1309 3584 2216 3584 
Q 3041 3584 3536 3087 
Q 4031 2591 4031 1759 
z
M 2881 2131 
Q 2881 2450 2695 2645 
Q 2509 2841 2209 2841 
Q 1884 2841 1681 2658 
Q 1478 2475 1428 2131 
L 2881 2131 
z
" transform="scale(0.015625)"/>
      <path id="DejaVuSans-Bold-73" d="M 3272 3391 
L 3272 2541 
Q 2913 2691 2578 2766 
Q 2244 2841 1947 2841 
Q 1628 2841 1473 2761 
Q 1319 2681 1319 2516 
Q 1319 2381 1436 2309 
Q 1553 2238 1856 2203 
L 2053 2175 
Q 2913 2066 3209 1816 
Q 3506 1566 3506 1031 
Q 3506 472 3093 190 
Q 2681 -91 1863 -91 
Q 1516 -91 1145 -36 
Q 775 19 384 128 
L 384 978 
Q 719 816 1070 734 
Q 1422 653 1784 653 
Q 2113 653 2278 743 
Q 2444 834 2444 1013 
Q 2444 1163 2330 1236 
Q 2216 1309 1875 1350 
L 1678 1375 
Q 931 1469 631 1722 
Q 331 1975 331 2491 
Q 331 3047 712 3315 
Q 1094 3584 1881 3584 
Q 2191 3584 2531 3537 
Q 2872 3491 3272 3391 
z
" transform="scale(0.015625)"/>
      <path id="DejaVuSans-Bold-3a" d="M 716 3500 
L 1844 3500 
L 1844 2291 
L 716 2291 
L 716 3500 
z
M 716 1209 
L 1844 1209 
L 1844 0 
L 716 0 
L 716 1209 
z
" transform="scale(0.015625)"/>
      <path id="DejaVuSans-Bold-4c" d="M 588 4666 
L 1791 4666 
L 1791 909 
L 3903 909 
L 3903 0 
L 588 0 
L 588 4666 
z
" transform="scale(0.015625)"/>
     </defs>
     <use xlink:href="#DejaVuSans-Bold-54"/>
     <use xlink:href="#DejaVuSans-Bold-72" transform="translate(57.212891 0)"/>
     <use xlink:href="#DejaVuSans-Bold-61" transform="translate(106.529297 0)"/>
     <use xlink:href="#DejaVuSans-Bold-69" transform="translate(174.009766 0)"/>
     <use xlink:href="#DejaVuSans-Bold-6e" transform="translate(208.287109 0)"/>
     <use xlink:href="#DejaVuSans-Bold-69" transform="translate(279.478516 0)"/>
     <use xlink:href="#DejaVuSans-Bold-6e" transform="translate(313.755859 0)"/>
     <use xlink:href="#DejaVuSans-Bold-67" transform="translate(384.947266 0)"/>
     <use xlink:href="#DejaVuSans-Bold-20" transform="translate(456.529297 0)"/>
     <use xlink:href="#DejaVuSans-Bold-50" transform="translate(491.34375 0)"/>
     <use xlink:href="#DejaVuSans-Bold-72" transform="translate(564.634766 0)"/>
     <use xlink:href="#DejaVuSans-Bold-6f" transform="translate(613.951172 0)"/>
     <use xlink:href="#DejaVuSans-Bold-67" transform="translate(682.652344 0)"/>
     <use xlink:href="#DejaVuSans-Bold-72" transform="translate(754.234375 0)"/>
     <use xlink:href="#DejaVuSans-Bold-65" transform="translate(803.550781 0)"/>
     <use xlink:href="#DejaVuSans-Bold-73" transform="translate(871.373047 0)"/>
     <use xlink:href="#DejaVuSans-Bold-73" transform="translate(930.894531 0)"/>
     <use xlink:href="#DejaVuSans-Bold-3a" transform="translate(990.416016 0)"/>
     <use xlink:href="#DejaVuSans-Bold-20" transform="translate(1030.40625 0)"/>
     <use xlink:href="#DejaVuSans-Bold-4c" transform="translate(1065.220703 0)"/>
     <use xlink:href="#DejaVuSans-Bold-6f" transform="translate(1128.941406 0)"/>
     <use xlink:href="#DejaVuSans-Bold-73" transform="translate(1197.642578 0)"/>
     <use xlink:href="#DejaVuSans-Bold-73" transform="translate(1257.164062 0)"/>
    </g>
   </g>
   <g id="legend_1">
    <g id="patch_7">
     <path d="M 117.79 174.094375 
L 294.67 174.094375 
Q 301.07 174.094375 301.07 167.694375 
L 301.07 76.954375 
Q 301.07 70.554375 294.67 70.554375 
L 117.79 70.554375 
Q 111.39 70.554375 111.39 76.954375 
L 111.39 167.694375 
Q 111.39 174.094375 117.79 174.094375 
z
" style="fill: #ffffff; opacity: 0.8; stroke: #cccccc; stroke-width: 1.5; stroke-linejoin: miter"/>
    </g>
    <g id="line2d_17">
     <path d="M 124.19 96.469375 
L 156.19 96.469375 
L 188.19 96.469375 
" style="fill: none; stroke: #4c72b0; stroke-width: 6; stroke-linecap: round"/>
    </g>
    <g id="text_16">
     <!-- train -->
     <g style="fill: #262626" transform="translate(213.79 107.669375) scale(0.32 -0.32)">
      <defs>
       <path id="DejaVuSans-74" d="M 1172 4494 
L 1172 3500 
L 2356 3500 
L 2356 3053 
L 1172 3053 
L 1172 1153 
Q 1172 725 1289 603 
Q 1406 481 1766 481 
L 2356 481 
L 2356 0 
L 1766 0 
Q 1100 0 847 248 
Q 594 497 594 1153 
L 594 3053 
L 172 3053 
L 172 3500 
L 594 3500 
L 594 4494 
L 1172 4494 
z
" transform="scale(0.015625)"/>
       <path id="DejaVuSans-72" d="M 2631 2963 
Q 2534 3019 2420 3045 
Q 2306 3072 2169 3072 
Q 1681 3072 1420 2755 
Q 1159 2438 1159 1844 
L 1159 0 
L 581 0 
L 581 3500 
L 1159 3500 
L 1159 2956 
Q 1341 3275 1631 3429 
Q 1922 3584 2338 3584 
Q 2397 3584 2469 3576 
Q 2541 3569 2628 3553 
L 2631 2963 
z
" transform="scale(0.015625)"/>
       <path id="DejaVuSans-61" d="M 2194 1759 
Q 1497 1759 1228 1600 
Q 959 1441 959 1056 
Q 959 750 1161 570 
Q 1363 391 1709 391 
Q 2188 391 2477 730 
Q 2766 1069 2766 1631 
L 2766 1759 
L 2194 1759 
z
M 3341 1997 
L 3341 0 
L 2766 0 
L 2766 531 
Q 2569 213 2275 61 
Q 1981 -91 1556 -91 
Q 1019 -91 701 211 
Q 384 513 384 1019 
Q 384 1609 779 1909 
Q 1175 2209 1959 2209 
L 2766 2209 
L 2766 2266 
Q 2766 2663 2505 2880 
Q 2244 3097 1772 3097 
Q 1472 3097 1187 3025 
Q 903 2953 641 2809 
L 641 3341 
Q 956 3463 1253 3523 
Q 1550 3584 1831 3584 
Q 2591 3584 2966 3190 
Q 3341 2797 3341 1997 
z
" transform="scale(0.015625)"/>
       <path id="DejaVuSans-69" d="M 603 3500 
L 1178 3500 
L 1178 0 
L 603 0 
L 603 3500 
z
M 603 4863 
L 1178 4863 
L 1178 4134 
L 603 4134 
L 603 4863 
z
" transform="scale(0.015625)"/>
       <path id="DejaVuSans-6e" d="M 3513 2113 
L 3513 0 
L 2938 0 
L 2938 2094 
Q 2938 2591 2744 2837 
Q 2550 3084 2163 3084 
Q 1697 3084 1428 2787 
Q 1159 2491 1159 1978 
L 1159 0 
L 581 0 
L 581 3500 
L 1159 3500 
L 1159 2956 
Q 1366 3272 1645 3428 
Q 1925 3584 2291 3584 
Q 2894 3584 3203 3211 
Q 3513 2838 3513 2113 
z
" transform="scale(0.015625)"/>
      </defs>
      <use xlink:href="#DejaVuSans-74"/>
      <use xlink:href="#DejaVuSans-72" transform="translate(39.208984 0)"/>
      <use xlink:href="#DejaVuSans-61" transform="translate(80.322266 0)"/>
      <use xlink:href="#DejaVuSans-69" transform="translate(141.601562 0)"/>
      <use xlink:href="#DejaVuSans-6e" transform="translate(169.384766 0)"/>
     </g>
    </g>
    <g id="line2d_18">
     <path d="M 124.19 143.439375 
L 156.19 143.439375 
L 188.19 143.439375 
" style="fill: none; stroke: #dd8452; stroke-width: 6; stroke-linecap: round"/>
    </g>
    <g id="text_17">
     <!-- val -->
     <g style="fill: #262626" transform="translate(213.79 154.639375) scale(0.32 -0.32)">
      <defs>
       <path id="DejaVuSans-76" d="M 191 3500 
L 800 3500 
L 1894 563 
L 2988 3500 
L 3597 3500 
L 2284 0 
L 1503 0 
L 191 3500 
z
" transform="scale(0.015625)"/>
       <path id="DejaVuSans-6c" d="M 603 4863 
L 1178 4863 
L 1178 0 
L 603 0 
L 603 4863 
z
" transform="scale(0.015625)"/>
      </defs>
      <use xlink:href="#DejaVuSans-76"/>
      <use xlink:href="#DejaVuSans-61" transform="translate(59.179688 0)"/>
      <use xlink:href="#DejaVuSans-6c" transform="translate(120.458984 0)"/>
     </g>
    </g>
   </g>
  </g>
 </g>
 <defs>
  <clipPath id="p39d346c603">
   <rect x="95.39" y="54.554375" width="950.255455" height="555.34"/>
  </clipPath>
 </defs>
</svg>
