<?xml version="1.0" encoding="utf-8" standalone="no"?>
<!DOCTYPE svg PUBLIC "-//W3C//DTD SVG 1.1//EN"
  "http://www.w3.org/Graphics/SVG/1.1/DTD/svg11.dtd">
<svg xmlns:xlink="http://www.w3.org/1999/xlink" width="1052.955455pt" height="695.534375pt" viewBox="0 0 1052.955455 695.534375" xmlns="http://www.w3.org/2000/svg" version="1.1">
 <metadata>
  <rdf:RDF xmlns:dc="http://purl.org/dc/elements/1.1/" xmlns:cc="http://creativecommons.org/ns#" xmlns:rdf="http://www.w3.org/1999/02/22-rdf-syntax-ns#">
   <cc:Work>
    <dc:type rdf:resource="http://purl.org/dc/dcmitype/StillImage"/>
    <dc:date>2026-04-12T00:25:09.368573</dc:date>
    <dc:format>image/svg+xml</dc:format>
    <dc:creator>
     <cc:Agent>
      <dc:title>Matplotlib v3.10.8, https://matplotlib.org/</dc:title>
     </cc:Agent>
    </dc:creator>
   </cc:Work>
  </rdf:RDF>
 </metadata>
 <defs>
  <style type="text/css">*{stroke-linejoin: round; stroke-linecap: butt}</style>
 </defs>
 <g id="figure_1">
  <g id="patch_1">
   <path d="M 0 695.534375 
L 1052.955455 695.534375 
L 1052.955455 0 
L 0 0 
z
" style="fill: #ffffff"/>
  </g>
  <g id="axes_1">
   <g id="patch_2">
    <path d="M 115.75 609.894375 
L 1045.755455 609.894375 
L 1045.755455 54.554375 
L 115.75 54.554375 
z
" style="fill: #ffffff"/>
   </g>
   <g id="matplotlib.axis_1">
    <g id="xtick_1">
     <g id="line2d_1">
      <path d="M 157.176669 609.894375 
L 157.176669 54.554375 
" clip-path="url(#pf29201cea7)" style="fill: none; stroke: #cccccc; stroke-opacity: 0.3; stroke-width: 1.5; stroke-linecap: round"/>
     </g>
     <g id="text_1">
      <!-- 0 -->
      <g style="fill: #262626" transform="translate(146.996669 646.709375) scale(0.32 -0.32)">
       <defs>
        <path id="DejaVuSans-30" d="M 2034 4250 
Q 1547 4250 1301 3770 
Q 1056 3291 1056 2328 
Q 1056 1369 1301 889 
Q 1547 409 2034 409 
Q 2525 409 2770 889 
Q 3016 1369 3016 2328 
Q 3016 3291 2770 3770 
Q 2525 4250 2034 4250 
z
M 2034 4750 
Q 2819 4750 3233 4129 
Q 3647 3509 3647 2328 
Q 3647 1150 3233 529 
Q 2819 -91 2034 -91 
Q 1250 -91 836 529 
Q 422 1150 422 2328 
Q 422 3509 836 4129 
Q 1250 4750 2034 4750 
z
" transform="scale(0.015625)"/>
       </defs>
       <use xlink:href="#DejaVuSans-30"/>
      </g>
     </g>
    </g>
    <g id="xtick_2">
     <g id="line2d_2">
      <path d="M 326.437831 609.894375 
L 326.437831 54.554375 
" clip-path="url(#pf29201cea7)" style="fill: none; stroke: #cccccc; stroke-opacity: 0.3; stroke-width: 1.5; stroke-linecap: round"/>
     </g>
     <g id="text_2">
      <!-- 200 -->
      <g style="fill: #262626" transform="translate(295.897831 646.709375) scale(0.32 -0.32)">
       <defs>
        <path id="DejaVuSans-32" d="M 1228 531 
L 3431 531 
L 3431 0 
L 469 0 
L 469 531 
Q 828 903 1448 1529 
Q 2069 2156 2228 2338 
Q 2531 2678 2651 2914 
Q 2772 3150 2772 3378 
Q 2772 3750 2511 3984 
Q 2250 4219 1831 4219 
Q 1534 4219 1204 4116 
Q 875 4013 500 3803 
L 500 4441 
Q 881 4594 1212 4672 
Q 1544 4750 1819 4750 
Q 2544 4750 2975 4387 
Q 3406 4025 3406 3419 
Q 3406 3131 3298 2873 
Q 3191 2616 2906 2266 
Q 2828 2175 2409 1742 
Q 1991 1309 1228 531 
z
" transform="scale(0.015625)"/>
       </defs>
       <use xlink:href="#DejaVuSans-32"/>
       <use xlink:href="#DejaVuSans-30" transform="translate(63.623047 0)"/>
       <use xlink:href="#DejaVuSans-30" transform="translate(127.246094 0)"/>
      </g>
     </g>
    </g>
    <g id="xtick_3">
     <g id="line2d_3">
      <path d="M 495.698993 609.894375 
L 495.698993 54.554375 
" clip-path="url(#pf29201cea7)" style="fill: none; stroke: #cccccc; stroke-opacity: 0.3; stroke-width: 1.5; stroke-linecap: round"/>
     </g>
     <g id="text_3">
      <!-- 400 -->
      <g style="fill: #262626" transform="translate(465.158993 646.709375) scale(0.32 -0.32)">
       <defs>
        <path id="DejaVuSans-34" d="M 2419 4116 
L 825 1625 
L 2419 1625 
L 2419 4116 
z
M 2253 4666 
L 3047 4666 
L 3047 1625 
L 3713 1625 
L 3713 1100 
L 3047 1100 
L 3047 0 
L 2419 0 
L 2419 1100 
L 313 1100 
L 313 1709 
L 2253 4666 
z
" transform="scale(0.015625)"/>
       </defs>
       <use xlink:href="#DejaVuSans-34"/>
       <use xlink:href="#DejaVuSans-30" transform="translate(63.623047 0)"/>
       <use xlink:href="#DejaVuSans-30" transform="translate(127.246094 0)"/>
      </g>
     </g>
    </g>
    <g id="xtick_4">
     <g id="line2d_4">
      <path d="M 664.960155 609.894375 
L 664.960155 54.554375 
" clip-path="url(#pf29201cea7)" style="fill: none; stroke: #cccccc; stroke-opacity: 0.3; stroke-width: 1.5; stroke-linecap: round"/>
     </g>
     <g id="text_4">
      <!-- 600 -->
      <g style="fill: #262626" transform="translate(634.420155 646.709375) scale(0.32 -0.32)">
       <defs>
        <path id="DejaVuSans-36" d="M 2113 2584 
Q 1688 2584 1439 2293 
Q 1191 2003 1191 1497 
Q 1191 994 1439 701 
Q 1688 409 2113 409 
Q 2538 409 2786 701 
Q 3034 994 3034 1497 
Q 3034 2003 2786 2293 
Q 2538 2584 2113 2584 
z
M 3366 4563 
L 3366 3988 
Q 3128 4100 2886 4159 
Q 2644 4219 2406 4219 
Q 1781 4219 1451 3797 
Q 1122 3375 1075 2522 
Q 1259 2794 1537 2939 
Q 1816 3084 2150 3084 
Q 2853 3084 3261 2657 
Q 3669 2231 3669 1497 
Q 3669 778 3244 343 
Q 2819 -91 2113 -91 
Q 1303 -91 875 529 
Q 447 1150 447 2328 
Q 447 3434 972 4092 
Q 1497 4750 2381 4750 
Q 2619 4750 2861 4703 
Q 3103 4656 3366 4563 
z
" transform="scale(0.015625)"/>
       </defs>
       <use xlink:href="#DejaVuSans-36"/>
       <use xlink:href="#DejaVuSans-30" transform="translate(63.623047 0)"/>
       <use xlink:href="#DejaVuSans-30" transform="translate(127.246094 0)"/>
      </g>
     </g>
    </g>
    <g id="xtick_5">
     <g id="line2d_5">
      <path d="M 834.221317 609.894375 
L 834.221317 54.554375 
" clip-path="url(#pf29201cea7)" style="fill: none; stroke: #cccccc; stroke-opacity: 0.3; stroke-width: 1.5; stroke-linecap: round"/>
     </g>
     <g id="text_5">
      <!-- 800 -->
      <g style="fill: #262626" transform="translate(803.681317 646.709375) scale(0.32 -0.32)">
       <defs>
        <path id="DejaVuSans-38" d="M 2034 2216 
Q 1584 2216 1326 1975 
Q 1069 1734 1069 1313 
Q 1069 891 1326 650 
Q 1584 409 2034 409 
Q 2484 409 2743 651 
Q 3003 894 3003 1313 
Q 3003 1734 2745 1975 
Q 2488 2216 2034 2216 
z
M 1403 2484 
Q 997 2584 770 2862 
Q 544 3141 544 3541 
Q 544 4100 942 4425 
Q 1341 4750 2034 4750 
Q 2731 4750 3128 4425 
Q 3525 4100 3525 3541 
Q 3525 3141 3298 2862 
Q 3072 2584 2669 2484 
Q 3125 2378 3379 2068 
Q 3634 1759 3634 1313 
Q 3634 634 3220 271 
Q 2806 -91 2034 -91 
Q 1263 -91 848 271 
Q 434 634 434 1313 
Q 434 1759 690 2068 
Q 947 2378 1403 2484 
z
M 1172 3481 
Q 1172 3119 1398 2916 
Q 1625 2713 2034 2713 
Q 2441 2713 2670 2916 
Q 2900 3119 2900 3481 
Q 2900 3844 2670 4047 
Q 2441 4250 2034 4250 
Q 1625 4250 1398 4047 
Q 1172 3844 1172 3481 
z
" transform="scale(0.015625)"/>
       </defs>
       <use xlink:href="#DejaVuSans-38"/>
       <use xlink:href="#DejaVuSans-30" transform="translate(63.623047 0)"/>
       <use xlink:href="#DejaVuSans-30" transform="translate(127.246094 0)"/>
      </g>
     </g>
    </g>
    <g id="xtick_6">
     <g id="line2d_6">
      <path d="M 1003.482479 609.894375 
L 1003.482479 54.554375 
" clip-path="url(#pf29201cea7)" style="fill: none; stroke: #cccccc; stroke-opacity: 0.3; stroke-width: 1.5; stroke-linecap: round"/>
     </g>
     <g id="text_6">
      <!-- 1000 -->
      <g style="fill: #262626" transform="translate(962.762479 646.709375) scale(0.32 -0.32)">
       <defs>
        <path id="DejaVuSans-31" d="M 794 531 
L 1825 531 
L 1825 4091 
L 703 3866 
L 703 4441 
L 1819 4666 
L 2450 4666 
L 2450 531 
L 3481 531 
L 3481 0 
L 794 0 
L 794 531 
z
" transform="scale(0.015625)"/>
       </defs>
       <use xlink:href="#DejaVuSans-31"/>
       <use xlink:href="#DejaVuSans-30" transform="translate(63.623047 0)"/>
       <use xlink:href="#DejaVuSans-30" transform="translate(127.246094 0)"/>
       <use xlink:href="#DejaVuSans-30" transform="translate(190.869141 0)"/>
      </g>
     </g>
    </g>
    <g id="text_7">
     <!-- Epoch -->
     <g style="fill: #262626" transform="translate(531.757727 681.679375) scale(0.32 -0.32)">
      <defs>
       <path id="DejaVuSans-45" d="M 628 4666 
L 3578 4666 
L 3578 4134 
L 1259 4134 
L 1259 2753 
L 3481 2753 
L 3481 2222 
L 1259 2222 
L 1259 531 
L 3634 531 
L 3634 0 
L 628 0 
L 628 4666 
z
" transform="scale(0.015625)"/>
       <path id="DejaVuSans-70" d="M 1159 525 
L 1159 -1331 
L 581 -1331 
L 581 3500 
L 1159 3500 
L 1159 2969 
Q 1341 3281 1617 3432 
Q 1894 3584 2278 3584 
Q 2916 3584 3314 3078 
Q 3713 2572 3713 1747 
Q 3713 922 3314 415 
Q 2916 -91 2278 -91 
Q 1894 -91 1617 61 
Q 1341 213 1159 525 
z
M 3116 1747 
Q 3116 2381 2855 2742 
Q 2594 3103 2138 3103 
Q 1681 3103 1420 2742 
Q 1159 2381 1159 1747 
Q 1159 1113 1420 752 
Q 1681 391 2138 391 
Q 2594 391 2855 752 
Q 3116 1113 3116 1747 
z
" transform="scale(0.015625)"/>
       <path id="DejaVuSans-6f" d="M 1959 3097 
Q 1497 3097 1228 2736 
Q 959 2375 959 1747 
Q 959 1119 1226 758 
Q 1494 397 1959 397 
Q 2419 397 2687 759 
Q 2956 1122 2956 1747 
Q 2956 2369 2687 2733 
Q 2419 3097 1959 3097 
z
M 1959 3584 
Q 2709 3584 3137 3096 
Q 3566 2609 3566 1747 
Q 3566 888 3137 398 
Q 2709 -91 1959 -91 
Q 1206 -91 779 398 
Q 353 888 353 1747 
Q 353 2609 779 3096 
Q 1206 3584 1959 3584 
z
" transform="scale(0.015625)"/>
       <path id="DejaVuSans-63" d="M 3122 3366 
L 3122 2828 
Q 2878 2963 2633 3030 
Q 2388 3097 2138 3097 
Q 1578 3097 1268 2742 
Q 959 2388 959 1747 
Q 959 1106 1268 751 
Q 1578 397 2138 397 
Q 2388 397 2633 464 
Q 2878 531 3122 666 
L 3122 134 
Q 2881 22 2623 -34 
Q 2366 -91 2075 -91 
Q 1284 -91 818 406 
Q 353 903 353 1747 
Q 353 2603 823 3093 
Q 1294 3584 2113 3584 
Q 2378 3584 2631 3529 
Q 2884 3475 3122 3366 
z
" transform="scale(0.015625)"/>
       <path id="DejaVuSans-68" d="M 3513 2113 
L 3513 0 
L 2938 0 
L 2938 2094 
Q 2938 2591 2744 2837 
Q 2550 3084 2163 3084 
Q 1697 3084 1428 2787 
Q 1159 2491 1159 1978 
L 1159 0 
L 581 0 
L 581 4863 
L 1159 4863 
L 1159 2956 
Q 1366 3272 1645 3428 
Q 1925 3584 2291 3584 
Q 2894 3584 3203 3211 
Q 3513 2838 3513 2113 
z
" transform="scale(0.015625)"/>
      </defs>
      <use xlink:href="#DejaVuSans-45"/>
      <use xlink:href="#DejaVuSans-70" transform="translate(63.183594 0)"/>
      <use xlink:href="#DejaVuSans-6f" transform="translate(126.660156 0)"/>
      <use xlink:href="#DejaVuSans-63" transform="translate(187.841797 0)"/>
      <use xlink:href="#DejaVuSans-68" transform="translate(242.822266 0)"/>
     </g>
    </g>
   </g>
   <g id="matplotlib.axis_2">
    <g id="ytick_1">
     <g id="line2d_7">
      <path d="M 115.75 589.799872 
L 1045.755455 589.799872 
" clip-path="url(#pf29201cea7)" style="fill: none; stroke: #cccccc; stroke-opacity: 0.3; stroke-width: 1.5; stroke-linecap: round"/>
     </g>
     <g id="text_8">
      <!-- 0 -->
      <g style="fill: #262626" transform="translate(82.89 601.957372) scale(0.32 -0.32)">
       <use xlink:href="#DejaVuSans-30"/>
      </g>
     </g>
    </g>
    <g id="ytick_2">
     <g id="line2d_8">
      <path d="M 115.75 487.799318 
L 1045.755455 487.799318 
" clip-path="url(#pf29201cea7)" style="fill: none; stroke: #cccccc; stroke-opacity: 0.3; stroke-width: 1.5; stroke-linecap: round"/>
     </g>
     <g id="text_9">
      <!-- 20 -->
      <g style="fill: #262626" transform="translate(62.53 499.956818) scale(0.32 -0.32)">
       <use xlink:href="#DejaVuSans-32"/>
       <use xlink:href="#DejaVuSans-30" transform="translate(63.623047 0)"/>
      </g>
     </g>
    </g>
    <g id="ytick_3">
     <g id="line2d_9">
      <path d="M 115.75 385.798764 
L 1045.755455 385.798764 
" clip-path="url(#pf29201cea7)" style="fill: none; stroke: #cccccc; stroke-opacity: 0.3; stroke-width: 1.5; stroke-linecap: round"/>
     </g>
     <g id="text_10">
      <!-- 40 -->
      <g style="fill: #262626" transform="translate(62.53 397.956264) scale(0.32 -0.32)">
       <use xlink:href="#DejaVuSans-34"/>
       <use xlink:href="#DejaVuSans-30" transform="translate(63.623047 0)"/>
      </g>
     </g>
    </g>
    <g id="ytick_4">
     <g id="line2d_10">
      <path d="M 115.75 283.79821 
L 1045.755455 283.79821 
" clip-path="url(#pf29201cea7)" style="fill: none; stroke: #cccccc; stroke-opacity: 0.3; stroke-width: 1.5; stroke-linecap: round"/>
     </g>
     <g id="text_11">
      <!-- 60 -->
      <g style="fill: #262626" transform="translate(62.53 295.95571) scale(0.32 -0.32)">
       <use xlink:href="#DejaVuSans-36"/>
       <use xlink:href="#DejaVuSans-30" transform="translate(63.623047 0)"/>
      </g>
     </g>
    </g>
    <g id="ytick_5">
     <g id="line2d_11">
      <path d="M 115.75 181.797656 
L 1045.755455 181.797656 
" clip-path="url(#pf29201cea7)" style="fill: none; stroke: #cccccc; stroke-opacity: 0.3; stroke-width: 1.5; stroke-linecap: round"/>
     </g>
     <g id="text_12">
      <!-- 80 -->
      <g style="fill: #262626" transform="translate(62.53 193.955156) scale(0.32 -0.32)">
       <use xlink:href="#DejaVuSans-38"/>
       <use xlink:href="#DejaVuSans-30" transform="translate(63.623047 0)"/>
      </g>
     </g>
    </g>
    <g id="ytick_6">
     <g id="line2d_12">
      <path d="M 115.75 79.797102 
L 1045.755455 79.797102 
" clip-path="url(#pf29201cea7)" style="fill: none; stroke: #cccccc; stroke-opacity: 0.3; stroke-width: 1.5; stroke-linecap: round"/>
     </g>
     <g id="text_13">
      <!-- 100 -->
      <g style="fill: #262626" transform="translate(42.17 91.954602) scale(0.32 -0.32)">
       <use xlink:href="#DejaVuSans-31"/>
       <use xlink:href="#DejaVuSans-30" transform="translate(63.623047 0)"/>
       <use xlink:href="#DejaVuSans-30" transform="translate(127.246094 0)"/>
      </g>
     </g>
    </g>
    <g id="text_14">
     <!-- Accuracy (%) -->
     <g style="fill: #262626" transform="translate(31.515 438.046875) rotate(-90) scale(0.32 -0.32)">
      <defs>
       <path id="DejaVuSans-41" d="M 2188 4044 
L 1331 1722 
L 3047 1722 
L 2188 4044 
z
M 1831 4666 
L 2547 4666 
L 4325 0 
L 3669 0 
L 3244 1197 
L 1141 1197 
L 716 0 
L 50 0 
L 1831 4666 
z
" transform="scale(0.015625)"/>
       <path id="DejaVuSans-75" d="M 544 1381 
L 544 3500 
L 1119 3500 
L 1119 1403 
Q 1119 906 1312 657 
Q 1506 409 1894 409 
Q 2359 409 2629 706 
Q 2900 1003 2900 1516 
L 2900 3500 
L 3475 3500 
L 3475 0 
L 2900 0 
L 2900 538 
Q 2691 219 2414 64 
Q 2138 -91 1772 -91 
Q 1169 -91 856 284 
Q 544 659 544 1381 
z
M 1991 3584 
L 1991 3584 
z
" transform="scale(0.015625)"/>
       <path id="DejaVuSans-72" d="M 2631 2963 
Q 2534 3019 2420 3045 
Q 2306 3072 2169 3072 
Q 1681 3072 1420 2755 
Q 1159 2438 1159 1844 
L 1159 0 
L 581 0 
L 581 3500 
L 1159 3500 
L 1159 2956 
Q 1341 3275 1631 3429 
Q 1922 3584 2338 3584 
Q 2397 3584 2469 3576 
Q 2541 3569 2628 3553 
L 2631 2963 
z
" transform="scale(0.015625)"/>
       <path id="DejaVuSans-61" d="M 2194 1759 
Q 1497 1759 1228 1600 
Q 959 1441 959 1056 
Q 959 750 1161 570 
Q 1363 391 1709 391 
Q 2188 391 2477 730 
Q 2766 1069 2766 1631 
L 2766 1759 
L 2194 1759 
z
M 3341 1997 
L 3341 0 
L 2766 0 
L 2766 531 
Q 2569 213 2275 61 
Q 1981 -91 1556 -91 
Q 1019 -91 701 211 
Q 384 513 384 1019 
Q 384 1609 779 1909 
Q 1175 2209 1959 2209 
L 2766 2209 
L 2766 2266 
Q 2766 2663 2505 2880 
Q 2244 3097 1772 3097 
Q 1472 3097 1187 3025 
Q 903 2953 641 2809 
L 641 3341 
Q 956 3463 1253 3523 
Q 1550 3584 1831 3584 
Q 2591 3584 2966 3190 
Q 3341 2797 3341 1997 
z
" transform="scale(0.015625)"/>
       <path id="DejaVuSans-79" d="M 2059 -325 
Q 1816 -950 1584 -1140 
Q 1353 -1331 966 -1331 
L 506 -1331 
L 506 -850 
L 844 -850 
Q 1081 -850 1212 -737 
Q 1344 -625 1503 -206 
L 1606 56 
L 191 3500 
L 800 3500 
L 1894 763 
L 2988 3500 
L 3597 3500 
L 2059 -325 
z
" transform="scale(0.015625)"/>
       <path id="DejaVuSans-20" transform="scale(0.015625)"/>
       <path id="DejaVuSans-28" d="M 1984 4856 
Q 1566 4138 1362 3434 
Q 1159 2731 1159 2009 
Q 1159 1288 1364 580 
Q 1569 -128 1984 -844 
L 1484 -844 
Q 1016 -109 783 600 
Q 550 1309 550 2009 
Q 550 2706 781 3412 
Q 1013 4119 1484 4856 
L 1984 4856 
z
" transform="scale(0.015625)"/>
       <path id="DejaVuSans-25" d="M 4653 2053 
Q 4381 2053 4226 1822 
Q 4072 1591 4072 1178 
Q 4072 772 4226 539 
Q 4381 306 4653 306 
Q 4919 306 5073 539 
Q 5228 772 5228 1178 
Q 5228 1588 5073 1820 
Q 4919 2053 4653 2053 
z
M 4653 2450 
Q 5147 2450 5437 2106 
Q 5728 1763 5728 1178 
Q 5728 594 5436 251 
Q 5144 -91 4653 -91 
Q 4153 -91 3862 251 
Q 3572 594 3572 1178 
Q 3572 1766 3864 2108 
Q 4156 2450 4653 2450 
z
M 1428 4353 
Q 1159 4353 1004 4120 
Q 850 3888 850 3481 
Q 850 3069 1003 2837 
Q 1156 2606 1428 2606 
Q 1700 2606 1854 2837 
Q 2009 3069 2009 3481 
Q 2009 3884 1853 4118 
Q 1697 4353 1428 4353 
z
M 4250 4750 
L 4750 4750 
L 1831 -91 
L 1331 -91 
L 4250 4750 
z
M 1428 4750 
Q 1922 4750 2215 4408 
Q 2509 4066 2509 3481 
Q 2509 2891 2217 2550 
Q 1925 2209 1428 2209 
Q 931 2209 642 2551 
Q 353 2894 353 3481 
Q 353 4063 643 4406 
Q 934 4750 1428 4750 
z
" transform="scale(0.015625)"/>
       <path id="DejaVuSans-29" d="M 513 4856 
L 1013 4856 
Q 1481 4119 1714 3412 
Q 1947 2706 1947 2009 
Q 1947 1309 1714 600 
Q 1481 -109 1013 -844 
L 513 -844 
Q 928 -128 1133 580 
Q 1338 1288 1338 2009 
Q 1338 2731 1133 3434 
Q 928 4138 513 4856 
z
" transform="scale(0.015625)"/>
      </defs>
      <use xlink:href="#DejaVuSans-41"/>
      <use xlink:href="#DejaVuSans-63" transform="translate(66.658203 0)"/>
      <use xlink:href="#DejaVuSans-63" transform="translate(121.638672 0)"/>
      <use xlink:href="#DejaVuSans-75" transform="translate(176.619141 0)"/>
      <use xlink:href="#DejaVuSans-72" transform="translate(239.998047 0)"/>
      <use xlink:href="#DejaVuSans-61" transform="translate(281.111328 0)"/>
      <use xlink:href="#DejaVuSans-63" transform="translate(342.390625 0)"/>
      <use xlink:href="#DejaVuSans-79" transform="translate(397.371094 0)"/>
      <use xlink:href="#DejaVuSans-20" transform="translate(456.550781 0)"/>
      <use xlink:href="#DejaVuSans-28" transform="translate(488.337891 0)"/>
      <use xlink:href="#DejaVuSans-25" transform="translate(527.351562 0)"/>
      <use xlink:href="#DejaVuSans-29" transform="translate(622.371094 0)"/>
     </g>
    </g>
   </g>
   <g id="FillBetweenPolyCollection_1"/>
   <g id="FillBetweenPolyCollection_2"/>
   <g id="line2d_13">
    <path d="M 158.022975 584.651648 
L 158.869281 580.708328 
L 159.715587 578.408057 
L 160.561893 575.66964 
L 161.408198 575.01242 
L 162.254504 570.630953 
L 163.10081 567.783 
L 164.793422 559.458212 
L 165.639727 557.59609 
L 166.486033 551.462035 
L 167.332339 548.066397 
L 168.178645 542.589565 
L 169.024951 539.632073 
L 169.871257 533.059872 
L 170.717562 524.077869 
L 171.563868 519.915474 
L 172.410174 512.138366 
L 173.25648 501.513311 
L 174.102786 494.722035 
L 174.949091 485.082805 
L 175.795397 471.828869 
L 178.334315 424.728096 
L 179.18062 411.255086 
L 180.873232 368.864391 
L 181.719538 345.094942 
L 182.565844 330.855159 
L 184.258455 295.25574 
L 185.104761 271.705357 
L 185.951067 261.628 
L 186.797373 233.586599 
L 187.643679 219.237305 
L 188.489984 210.912515 
L 189.33629 190.319605 
L 190.182596 188.786091 
L 191.028902 172.465118 
L 191.875208 167.864604 
L 192.721513 156.582309 
L 193.567819 160.306555 
L 194.414125 156.472783 
L 195.260431 146.83356 
L 196.953042 132.155628 
L 197.799348 128.102774 
L 198.645654 122.516405 
L 199.49196 122.297323 
L 200.338266 118.682633 
L 201.184572 114.301141 
L 202.030877 111.343667 
L 202.877183 112.110409 
L 203.723489 110.686451 
L 204.569795 111.343667 
L 206.262406 105.319134 
L 207.108712 104.004701 
L 207.955018 103.128403 
L 208.801324 107.728947 
L 209.64763 107.509895 
L 210.493935 111.124585 
L 211.340241 107.181257 
L 212.186547 104.114257 
L 213.032853 99.404157 
L 213.879159 96.118075 
L 214.725464 94.913168 
L 215.57177 94.475004 
L 216.418076 92.831963 
L 217.264382 89.655408 
L 218.110688 89.545882 
L 218.956994 91.517531 
L 219.803299 91.298448 
L 220.649605 92.393829 
L 221.495911 93.270128 
L 222.342217 93.598736 
L 223.188523 96.556209 
L 224.034828 99.075548 
L 224.881134 99.842321 
L 225.72744 101.594888 
L 226.573746 95.132251 
L 227.420052 93.160571 
L 228.266357 90.42215 
L 229.112663 89.436325 
L 229.958969 90.641232 
L 230.805275 90.42215 
L 231.651581 91.846139 
L 232.497886 87.35512 
L 233.344192 89.545882 
L 234.190498 86.588378 
L 235.036804 86.697904 
L 235.88311 88.779109 
L 236.729416 88.450501 
L 237.575721 88.669583 
L 238.422027 89.984016 
L 239.268333 96.227601 
L 240.114639 95.351303 
L 240.960945 91.955665 
L 241.80725 97.213425 
L 242.653556 97.980198 
L 244.346168 97.542034 
L 245.192474 93.051045 
L 246.038779 93.598736 
L 246.885085 90.531706 
L 248.577697 93.708262 
L 249.424003 88.121893 
L 250.270308 87.464676 
L 251.116614 87.245594 
L 251.96292 88.888635 
L 252.809226 87.464676 
L 253.655532 84.726255 
L 254.501838 87.026512 
L 255.348143 86.916986 
L 256.194449 93.817788 
L 257.040755 93.708262 
L 257.887061 91.188922 
L 259.579672 89.326799 
L 261.272284 84.726255 
L 262.11859 86.697904 
L 263.811201 83.849956 
L 264.657507 82.64505 
L 266.350119 83.630874 
L 267.196425 82.425967 
L 268.04273 82.316442 
L 269.735342 97.761116 
L 270.581648 97.1039 
L 271.427954 93.708262 
L 272.27426 93.927344 
L 273.120565 88.888635 
L 273.966871 89.87449 
L 274.813177 87.464676 
L 275.659483 87.026512 
L 276.505789 88.998191 
L 277.352094 86.040688 
L 278.1984 85.931162 
L 279.044706 89.764934 
L 279.891012 85.821605 
L 280.737318 86.478852 
L 281.583623 84.835781 
L 282.429929 84.507173 
L 283.276235 83.74043 
L 284.122541 83.74043 
L 284.968847 84.288121 
L 285.815153 83.959482 
L 286.661458 85.164389 
L 287.507764 85.821605 
L 288.35407 85.492997 
L 289.200376 83.630874 
L 290.892987 87.136068 
L 291.739293 87.245594 
L 292.585599 88.012367 
L 293.431905 86.80746 
L 294.278211 84.616729 
L 295.124516 84.397647 
L 295.970822 83.630874 
L 296.817128 82.316442 
L 297.663434 82.316442 
L 298.50974 84.178565 
L 299.356045 85.602553 
L 300.202351 87.574202 
L 301.048657 87.245594 
L 301.894963 87.136068 
L 302.741269 85.602553 
L 303.587575 85.492997 
L 304.43388 87.683728 
L 305.280186 86.25977 
L 306.126492 86.697904 
L 306.972798 84.835781 
L 307.819104 86.150244 
L 308.665409 87.026512 
L 309.511715 86.697904 
L 310.358021 84.726255 
L 311.204327 83.630874 
L 312.050633 83.521348 
L 312.896938 82.864132 
L 313.743244 83.083214 
L 314.58955 81.440143 
L 315.435856 85.602553 
L 316.282162 87.136068 
L 317.128467 85.492997 
L 317.974773 86.80746 
L 318.821079 87.464676 
L 319.667385 87.136068 
L 320.513691 88.450501 
L 321.359997 86.916986 
L 322.206302 90.203098 
L 323.052608 86.916986 
L 323.898914 88.121893 
L 324.74522 84.945337 
L 325.591526 83.083214 
L 326.437831 82.64505 
L 327.284137 81.111535 
L 328.130443 81.221091 
L 328.976749 80.892483 
L 329.823055 81.440143 
L 330.66936 81.549699 
L 332.361972 80.563844 
L 333.208278 80.892483 
L 334.054584 81.878307 
L 334.900889 86.588378 
L 335.747195 92.284273 
L 337.439807 89.107717 
L 339.132419 85.383471 
L 339.978724 84.288121 
L 340.82503 82.64505 
L 341.671336 81.549699 
L 342.517642 81.768751 
L 343.363948 81.002009 
L 344.210253 81.221091 
L 345.056559 80.454319 
L 345.902865 80.673401 
L 346.749171 81.440143 
L 347.595477 80.892483 
L 348.441782 81.659225 
L 349.288088 81.330617 
L 350.134394 83.302266 
L 350.9807 83.521348 
L 351.827006 85.273945 
L 352.673311 88.888635 
L 353.519617 88.888635 
L 354.365923 87.574202 
L 355.212229 86.478852 
L 356.058535 87.793285 
L 356.904841 84.616729 
L 357.751146 85.931162 
L 358.597452 82.425967 
L 359.443758 82.64505 
L 360.290064 82.206916 
L 361.13637 83.959482 
L 361.982675 83.411822 
L 362.828981 81.659225 
L 363.675287 83.19274 
L 364.521593 82.973658 
L 365.367899 82.425967 
L 366.214204 82.206916 
L 367.06051 82.973658 
L 367.906816 82.754606 
L 368.753122 84.069039 
L 370.445734 84.507173 
L 371.292039 82.973658 
L 372.138345 86.150244 
L 372.984651 85.712079 
L 373.830957 86.150244 
L 374.677263 84.616729 
L 375.523568 85.054863 
L 376.369874 86.478852 
L 377.21618 85.054863 
L 378.062486 83.959482 
L 378.908792 83.083214 
L 379.755097 81.768751 
L 380.601403 80.892483 
L 381.447709 80.782927 
L 383.140321 81.221091 
L 383.986626 81.111535 
L 384.832932 80.782927 
L 385.679238 81.440143 
L 386.525544 81.659225 
L 387.37185 82.535524 
L 388.218156 82.973658 
L 389.064461 84.616729 
L 389.910767 84.616729 
L 390.757073 85.492997 
L 391.603379 83.521348 
L 392.449685 82.864132 
L 393.29599 84.397647 
L 394.142296 84.069039 
L 394.988602 83.083214 
L 395.834908 82.864132 
L 396.681214 83.74043 
L 397.527519 84.069039 
L 398.373825 83.959482 
L 399.220131 84.178565 
L 400.066437 82.425967 
L 400.912743 87.026512 
L 401.759048 85.164389 
L 402.605354 82.864132 
L 403.45166 82.754606 
L 404.297966 85.054863 
L 405.144272 82.864132 
L 405.990578 82.206916 
L 406.836883 82.206916 
L 407.683189 82.864132 
L 410.222107 81.659225 
L 411.068412 81.878307 
L 411.914718 81.768751 
L 412.761024 83.083214 
L 413.60733 83.849956 
L 414.453636 83.302266 
L 415.299941 82.097359 
L 416.992553 81.659225 
L 417.838859 80.892483 
L 418.685165 81.111535 
L 419.53147 82.206916 
L 420.377776 83.74043 
L 421.224082 83.411822 
L 422.070388 82.206916 
L 422.916694 82.097359 
L 423.763 81.440143 
L 424.609305 82.097359 
L 426.301917 82.425967 
L 427.148223 82.425967 
L 427.994529 82.754606 
L 429.68714 81.440143 
L 430.533446 81.440143 
L 431.379752 81.002009 
L 432.226058 82.973658 
L 433.072363 82.316442 
L 433.918669 84.726255 
L 434.764975 86.369296 
L 435.611281 86.040688 
L 437.303892 86.369296 
L 438.150198 83.849956 
L 438.996504 87.683728 
L 439.84281 82.097359 
L 440.689116 81.549699 
L 441.535422 81.440143 
L 442.381727 80.673401 
L 443.228033 80.344793 
L 444.074339 80.235236 
L 444.920645 80.673401 
L 445.766951 80.673401 
L 447.459562 80.344793 
L 448.305868 80.673401 
L 449.99848 80.782927 
L 450.844785 81.111535 
L 451.691091 81.768751 
L 452.537397 84.507173 
L 453.383703 84.507173 
L 454.230009 82.754606 
L 455.076314 83.302266 
L 455.92262 84.069039 
L 456.768926 83.74043 
L 457.615232 83.849956 
L 458.461538 81.768751 
L 459.307844 81.878307 
L 460.154149 83.19274 
L 461.846761 82.64505 
L 463.539373 82.754606 
L 464.385678 84.069039 
L 465.231984 84.397647 
L 466.07829 83.849956 
L 466.924596 83.630874 
L 467.770902 82.316442 
L 468.617207 82.64505 
L 469.463513 81.002009 
L 471.156125 81.878307 
L 472.002431 81.659225 
L 472.848737 81.221091 
L 473.695042 81.549699 
L 474.541348 81.111535 
L 475.387654 81.878307 
L 476.23396 81.878307 
L 477.080266 81.221091 
L 479.619183 83.411822 
L 480.465489 83.849956 
L 481.311795 85.164389 
L 482.1581 86.040688 
L 483.004406 85.931162 
L 483.850712 82.973658 
L 485.543324 80.454319 
L 486.389629 80.563844 
L 488.082241 81.330617 
L 488.928547 81.878307 
L 489.774853 81.111535 
L 490.621159 80.563844 
L 494.006382 80.454319 
L 494.852688 80.892483 
L 497.391605 82.754606 
L 498.237911 82.097359 
L 499.084217 82.754606 
L 499.930522 82.206916 
L 500.776828 81.111535 
L 501.623134 81.111535 
L 502.46944 81.659225 
L 503.315746 85.273945 
L 504.162051 83.630874 
L 505.008357 83.302266 
L 505.854663 81.878307 
L 506.700969 82.864132 
L 507.547275 82.425967 
L 508.393581 80.892483 
L 509.239886 80.892483 
L 510.086192 80.344793 
L 510.932498 80.563844 
L 512.62511 80.016185 
L 513.471415 81.659225 
L 514.317721 81.768751 
L 515.164027 82.097359 
L 516.010333 81.659225 
L 516.856639 82.097359 
L 517.702944 82.973658 
L 518.54925 82.535524 
L 519.395556 81.330617 
L 520.241862 81.330617 
L 521.088168 80.782927 
L 521.934473 81.549699 
L 522.780779 81.111535 
L 523.627085 81.002009 
L 524.473391 80.563844 
L 525.319697 80.782927 
L 526.166003 80.782927 
L 527.012308 81.987833 
L 527.858614 80.892483 
L 528.70492 80.673401 
L 529.551226 81.002009 
L 530.397532 81.549699 
L 531.243837 81.440143 
L 532.090143 83.19274 
L 532.936449 81.659225 
L 533.782755 82.097359 
L 534.629061 82.754606 
L 535.475366 83.849956 
L 536.321672 85.164389 
L 537.167978 84.835781 
L 538.014284 81.659225 
L 538.86059 81.659225 
L 539.706895 80.563844 
L 540.553201 80.782927 
L 541.399507 80.235236 
L 542.245813 80.235236 
L 543.092119 80.454319 
L 543.938425 80.454319 
L 544.78473 80.12571 
L 546.477342 81.878307 
L 547.323648 82.206916 
L 548.169954 81.659225 
L 549.016259 80.782927 
L 550.708871 83.083214 
L 551.555177 81.878307 
L 552.401483 83.083214 
L 554.094094 81.221091 
L 554.9404 80.673401 
L 555.786706 81.002009 
L 556.633012 80.892483 
L 557.479317 80.235236 
L 558.325623 80.344793 
L 559.171929 80.235236 
L 560.018235 80.563844 
L 560.864541 80.12571 
L 561.710847 81.002009 
L 562.557152 80.563844 
L 563.403458 81.659225 
L 564.249764 81.659225 
L 565.942376 84.507173 
L 566.788681 84.069039 
L 567.634987 84.726255 
L 568.481293 84.178565 
L 569.327599 83.083214 
L 570.173905 81.330617 
L 571.02021 81.330617 
L 571.866516 80.892483 
L 572.712822 80.016185 
L 575.25174 79.906628 
L 576.098045 79.797102 
L 577.790657 80.016185 
L 578.636963 81.768751 
L 579.483269 81.330617 
L 580.329574 81.768751 
L 581.17588 81.330617 
L 582.022186 82.864132 
L 582.868492 82.206916 
L 583.714798 81.111535 
L 584.561103 81.440143 
L 585.407409 81.221091 
L 586.253715 80.563844 
L 587.100021 80.12571 
L 587.946327 80.235236 
L 588.792632 80.782927 
L 589.638938 81.549699 
L 591.33155 81.768751 
L 592.177856 81.549699 
L 593.024162 81.768751 
L 593.870467 81.440143 
L 594.716773 81.659225 
L 595.563079 82.097359 
L 596.409385 82.206916 
L 597.255691 81.768751 
L 598.101996 81.878307 
L 598.948302 80.454319 
L 599.794608 80.673401 
L 600.640914 79.906628 
L 601.48722 79.906628 
L 602.333525 80.454319 
L 603.179831 80.016185 
L 604.026137 80.235236 
L 604.872443 80.235236 
L 605.718749 80.673401 
L 606.565054 81.330617 
L 607.41136 80.563844 
L 608.257666 81.659225 
L 609.103972 82.535524 
L 609.950278 84.069039 
L 610.796584 85.273945 
L 611.642889 81.987833 
L 612.489195 82.973658 
L 613.335501 81.768751 
L 614.181807 81.659225 
L 615.028113 80.454319 
L 615.874418 80.016185 
L 616.720724 80.454319 
L 618.413336 80.454319 
L 619.259642 80.12571 
L 620.105947 80.235236 
L 620.952253 80.016185 
L 622.644865 80.016185 
L 623.491171 80.782927 
L 624.337476 80.454319 
L 625.183782 81.330617 
L 626.030088 80.892483 
L 626.876394 81.002009 
L 627.7227 80.12571 
L 628.569006 80.454319 
L 629.415311 80.454319 
L 630.261617 80.016185 
L 631.107923 80.235236 
L 631.954229 80.782927 
L 632.800535 80.892483 
L 633.64684 81.330617 
L 634.493146 80.454319 
L 635.339452 80.673401 
L 636.185758 81.440143 
L 637.032064 80.673401 
L 637.878369 81.440143 
L 638.724675 81.111535 
L 640.417287 81.002009 
L 641.263593 80.782927 
L 642.109898 80.344793 
L 642.956204 80.782927 
L 643.80251 80.235236 
L 646.341428 80.673401 
L 647.187733 81.330617 
L 648.034039 80.782927 
L 650.572957 83.19274 
L 653.111874 81.002009 
L 653.95818 80.782927 
L 654.804486 79.906628 
L 657.343403 79.797102 
L 658.189709 80.12571 
L 659.036015 79.797102 
L 662.421238 79.906628 
L 665.806461 80.892483 
L 666.652767 81.330617 
L 667.499073 81.111535 
L 668.345379 82.206916 
L 669.191684 82.973658 
L 670.03799 81.221091 
L 670.884296 81.549699 
L 671.730602 80.673401 
L 672.576908 80.892483 
L 673.423213 82.316442 
L 674.269519 81.002009 
L 675.115825 81.111535 
L 675.962131 81.440143 
L 676.808437 81.440143 
L 677.654743 81.111535 
L 679.347354 80.892483 
L 680.19366 80.454319 
L 681.039966 80.344793 
L 681.886272 80.673401 
L 682.732577 81.221091 
L 683.578883 82.973658 
L 684.425189 81.987833 
L 685.271495 81.440143 
L 686.117801 81.440143 
L 686.964106 80.673401 
L 688.656718 79.906628 
L 689.503024 80.12571 
L 692.041941 79.906628 
L 692.888247 80.016185 
L 693.734553 79.906628 
L 696.27347 80.12571 
L 697.119776 80.563844 
L 698.812388 80.344793 
L 699.658694 83.302266 
L 700.504999 82.206916 
L 701.351305 81.440143 
L 703.043917 80.454319 
L 703.890223 80.454319 
L 704.736528 80.892483 
L 705.582834 80.673401 
L 706.42914 81.330617 
L 707.275446 81.002009 
L 708.121752 80.892483 
L 708.968057 80.344793 
L 709.814363 80.344793 
L 710.660669 80.673401 
L 711.506975 81.330617 
L 712.353281 80.454319 
L 713.199587 81.002009 
L 714.045892 81.330617 
L 714.892198 81.002009 
L 715.738504 80.892483 
L 716.58481 81.659225 
L 720.816339 80.016185 
L 721.662645 79.906628 
L 724.201562 80.235236 
L 725.047868 80.12571 
L 726.740479 80.563844 
L 727.586785 80.235236 
L 728.433091 80.673401 
L 730.125703 80.782927 
L 730.972009 81.002009 
L 731.818314 81.768751 
L 732.66462 82.097359 
L 733.510926 81.111535 
L 734.357232 81.330617 
L 735.203538 80.673401 
L 736.049843 80.235236 
L 736.896149 81.002009 
L 737.742455 80.563844 
L 738.588761 81.330617 
L 739.435067 80.892483 
L 740.281372 79.906628 
L 741.127678 80.563844 
L 742.82029 80.235236 
L 743.666596 79.906628 
L 744.512901 80.235236 
L 745.359207 79.797102 
L 747.898125 80.016185 
L 748.744431 80.454319 
L 749.590736 81.878307 
L 750.437042 82.206916 
L 751.283348 81.440143 
L 752.97596 81.987833 
L 753.822265 80.892483 
L 754.668571 80.782927 
L 756.361183 81.549699 
L 757.207489 80.892483 
L 758.053794 81.111535 
L 758.9001 80.344793 
L 760.592712 79.906628 
L 761.439018 80.016185 
L 762.285324 79.797102 
L 763.977935 80.563844 
L 764.824241 79.797102 
L 766.516853 79.906628 
L 767.363158 80.12571 
L 768.209464 79.797102 
L 774.133605 79.906628 
L 774.979911 80.563844 
L 775.826216 80.892483 
L 776.672522 81.768751 
L 777.518828 81.330617 
L 778.365134 81.878307 
L 779.21144 81.987833 
L 780.904051 81.221091 
L 781.750357 81.330617 
L 782.596663 80.782927 
L 783.442969 80.892483 
L 784.289275 80.673401 
L 785.13558 80.892483 
L 785.981886 80.454319 
L 786.828192 80.673401 
L 787.674498 80.016185 
L 788.520804 80.344793 
L 789.367109 80.344793 
L 790.213415 80.563844 
L 791.906027 79.906628 
L 793.598638 79.797102 
L 797.830168 80.344793 
L 798.676473 82.64505 
L 799.522779 81.330617 
L 801.215391 80.344793 
L 802.061697 80.454319 
L 802.908002 80.235236 
L 804.600614 80.12571 
L 805.44692 79.906628 
L 806.293226 80.016185 
L 807.139531 79.906628 
L 807.985837 80.12571 
L 808.832143 79.906628 
L 809.678449 80.344793 
L 810.524755 80.344793 
L 811.37106 80.016185 
L 813.063672 80.12571 
L 813.909978 80.454319 
L 814.756284 80.344793 
L 815.60259 80.782927 
L 816.448895 80.673401 
L 817.295201 80.782927 
L 818.141507 80.235236 
L 819.834119 80.235236 
L 820.680424 80.563844 
L 821.52673 80.235236 
L 822.373036 80.673401 
L 823.219342 80.344793 
L 824.065648 81.111535 
L 824.911953 81.221091 
L 825.758259 80.673401 
L 826.604565 80.344793 
L 827.450871 80.235236 
L 828.297177 80.454319 
L 829.989788 80.344793 
L 830.836094 80.016185 
L 831.6824 79.906628 
L 832.528706 80.12571 
L 833.375012 79.797102 
L 834.221317 80.12571 
L 835.913929 79.797102 
L 836.760235 79.906628 
L 837.606541 80.235236 
L 838.452846 80.892483 
L 839.299152 81.768751 
L 840.145458 81.659225 
L 840.991764 80.892483 
L 841.83807 80.782927 
L 842.684375 80.12571 
L 845.223293 80.016185 
L 846.069599 79.906628 
L 846.915904 80.12571 
L 847.76221 79.797102 
L 851.993739 79.906628 
L 855.378963 80.782927 
L 857.071574 80.454319 
L 857.91788 80.892483 
L 858.764186 81.549699 
L 859.610492 81.330617 
L 860.456797 80.563844 
L 861.303103 81.221091 
L 862.149409 80.016185 
L 862.995715 80.12571 
L 863.842021 79.797102 
L 864.688327 80.563844 
L 865.534632 80.344793 
L 866.380938 80.782927 
L 869.766161 79.906628 
L 878.229219 80.016185 
L 879.075525 80.454319 
L 880.768137 81.878307 
L 881.614443 82.206916 
L 882.460749 81.878307 
L 883.307054 83.302266 
L 884.999666 80.673401 
L 885.845972 80.454319 
L 886.692278 80.016185 
L 887.538583 80.12571 
L 888.384889 79.797102 
L 907.003617 79.797102 
L 907.849923 80.563844 
L 908.696229 81.111535 
L 909.542534 81.002009 
L 910.38884 81.549699 
L 911.235146 81.111535 
L 912.081452 81.987833 
L 912.927758 81.221091 
L 914.620369 80.016185 
L 915.466675 80.12571 
L 917.159287 79.797102 
L 930.70018 79.906628 
L 931.546485 80.12571 
L 932.392791 81.002009 
L 934.085403 83.302266 
L 934.931709 81.549699 
L 936.62432 80.12571 
L 937.470626 80.782927 
L 938.316932 80.12571 
L 940.855849 80.016185 
L 943.394767 79.797102 
L 945.087378 79.906628 
L 945.933684 81.440143 
L 946.77999 80.673401 
L 949.318908 80.016185 
L 950.165213 80.016185 
L 951.011519 79.797102 
L 951.857825 79.906628 
L 953.550437 79.797102 
L 955.243048 80.344793 
L 956.93566 80.016185 
L 958.628271 79.906628 
L 959.474577 80.235236 
L 961.167189 79.906628 
L 962.8598 80.12571 
L 963.706106 80.892483 
L 964.552412 82.864132 
L 965.398718 81.878307 
L 966.245024 81.111535 
L 967.937635 80.235236 
L 972.169164 79.797102 
L 1003.482479 79.797102 
L 1003.482479 79.797102 
" clip-path="url(#pf29201cea7)" style="fill: none; stroke: #4c72b0; stroke-width: 6; stroke-linecap: round"/>
   </g>
   <g id="line2d_14">
    <path d="M 158.022975 581.036938 
L 159.715587 581.365548 
L 161.408198 582.789524 
L 162.254504 582.679988 
L 163.10081 583.556281 
L 163.947116 583.337208 
L 164.793422 583.665818 
L 165.639727 583.227671 
L 168.178645 583.884891 
L 169.024951 583.446744 
L 170.717562 583.884891 
L 172.410174 583.446744 
L 173.25648 583.556281 
L 174.102786 583.118134 
L 174.949091 583.556281 
L 175.795397 583.665818 
L 176.641703 583.227671 
L 179.18062 583.227671 
L 180.026926 582.899061 
L 180.873232 582.899061 
L 181.719538 582.570451 
L 182.565844 583.118134 
L 183.41215 582.460914 
L 185.104761 583.008598 
L 185.951067 582.132304 
L 186.797373 582.460914 
L 188.489984 582.241841 
L 189.33629 580.160644 
L 190.182596 582.351378 
L 191.028902 582.351378 
L 191.875208 581.694158 
L 192.721513 581.913231 
L 193.567819 581.913231 
L 194.414125 581.256011 
L 195.260431 581.365548 
L 196.953042 582.132304 
L 197.799348 581.584621 
L 198.645654 581.475084 
L 199.49196 580.817864 
L 200.338266 582.460914 
L 201.184572 581.475084 
L 202.030877 581.365548 
L 202.877183 580.817864 
L 203.723489 581.475084 
L 204.569795 580.598791 
L 205.416101 581.365548 
L 206.262406 581.694158 
L 207.108712 581.584621 
L 207.955018 581.694158 
L 208.801324 581.036938 
L 209.64763 581.256011 
L 210.493935 580.379718 
L 211.340241 580.708328 
L 212.186547 580.708328 
L 213.032853 579.832034 
L 213.879159 581.475084 
L 214.725464 580.927401 
L 215.57177 581.036938 
L 216.418076 580.708328 
L 218.110688 581.036938 
L 218.956994 580.270181 
L 220.649605 580.270181 
L 221.495911 579.941571 
L 222.342217 580.051107 
L 223.188523 580.598791 
L 224.881134 579.832034 
L 225.72744 580.708328 
L 226.573746 580.927401 
L 227.420052 580.817864 
L 228.266357 580.160644 
L 229.112663 580.270181 
L 229.958969 580.708328 
L 230.805275 580.489254 
L 231.651581 579.612961 
L 232.497886 580.051107 
L 233.344192 579.503424 
L 234.190498 579.503424 
L 235.036804 578.408057 
L 235.88311 579.832034 
L 236.729416 580.160644 
L 237.575721 580.051107 
L 239.268333 578.627131 
L 240.114639 578.627131 
L 240.960945 578.408057 
L 241.80725 579.174814 
L 242.653556 578.736667 
L 243.499862 578.627131 
L 244.346168 579.174814 
L 245.192474 578.079447 
L 246.885085 579.284351 
L 247.731391 576.984081 
L 248.577697 578.188984 
L 249.424003 578.079447 
L 250.270308 578.298521 
L 251.116614 577.312691 
L 251.96292 578.408057 
L 252.809226 578.079447 
L 253.655532 578.627131 
L 254.501838 578.627131 
L 255.348143 578.079447 
L 256.194449 578.408057 
L 257.040755 577.093617 
L 257.887061 576.655471 
L 259.579672 578.408057 
L 260.425978 577.422227 
L 261.272284 576.765007 
L 262.11859 576.326861 
L 262.964896 579.065277 
L 263.811201 579.065277 
L 264.657507 577.969911 
L 265.503813 578.736667 
L 266.350119 578.517594 
L 268.04273 577.531763 
L 268.889036 576.436397 
L 269.735342 576.984081 
L 270.581648 576.765007 
L 271.427954 578.079447 
L 272.27426 578.736667 
L 273.120565 577.312691 
L 273.966871 576.545933 
L 274.813177 577.093617 
L 275.659483 576.874543 
L 276.505789 577.203153 
L 277.352094 577.750837 
L 278.1984 576.545933 
L 279.044706 576.107787 
L 279.891012 576.874543 
L 281.583623 576.217324 
L 282.429929 575.121957 
L 283.276235 576.326861 
L 284.968847 576.217324 
L 285.815153 576.436397 
L 287.507764 577.422227 
L 288.35407 576.107787 
L 289.200376 575.34103 
L 290.046682 577.312691 
L 290.892987 575.66964 
L 291.739293 574.3552 
L 292.585599 574.793347 
L 293.431905 574.245664 
L 296.817128 573.807517 
L 297.663434 574.68381 
L 298.50974 575.121957 
L 299.356045 573.807517 
L 300.202351 575.34103 
L 301.894963 574.574274 
L 302.741269 573.040761 
L 303.587575 573.150296 
L 304.43388 574.464737 
L 305.280186 573.259834 
L 306.126492 573.259834 
L 306.972798 572.274004 
L 307.819104 571.726321 
L 309.511715 572.821686 
L 310.358021 572.602614 
L 311.204327 572.054931 
L 312.050633 571.178636 
L 312.896938 571.835856 
L 313.743244 570.959563 
L 314.58955 572.164466 
L 315.435856 572.274004 
L 316.282162 570.302343 
L 317.128467 569.864196 
L 317.974773 571.178636 
L 318.821079 571.069101 
L 320.513691 569.42605 
L 321.359997 570.302343 
L 322.206302 567.563926 
L 323.052608 569.535586 
L 323.898914 570.850026 
L 324.74522 569.206976 
L 325.591526 569.75466 
L 326.437831 568.549756 
L 327.284137 567.673463 
L 328.130443 567.235315 
L 328.976749 568.659293 
L 330.66936 570.411881 
L 331.515666 570.521416 
L 332.361972 569.206976 
L 333.208278 569.864196 
L 334.054584 568.878366 
L 334.900889 568.330683 
L 335.747195 569.535586 
L 336.593501 568.987903 
L 337.439807 566.687633 
L 338.286113 567.344853 
L 339.132419 566.578095 
L 339.978724 566.906705 
L 340.82503 565.592265 
L 341.671336 566.46856 
L 342.517642 566.030413 
L 343.363948 564.277825 
L 344.210253 563.182459 
L 345.902865 564.82551 
L 346.749171 564.058752 
L 347.595477 562.963387 
L 348.441782 565.15412 
L 349.288088 565.373192 
L 350.134394 566.578095 
L 350.9807 564.715972 
L 351.827006 565.48273 
L 352.673311 563.83968 
L 354.365923 563.511069 
L 355.212229 564.4969 
L 356.058535 563.401532 
L 356.904841 562.963387 
L 357.751146 564.82551 
L 358.597452 562.525239 
L 359.443758 561.429872 
L 360.290064 561.210799 
L 361.13637 561.210799 
L 361.982675 562.525239 
L 362.828981 562.525239 
L 363.675287 563.072922 
L 364.521593 560.772652 
L 365.367899 558.800991 
L 367.06051 560.115432 
L 367.906816 557.815161 
L 368.753122 560.882189 
L 369.599428 558.910529 
L 370.445734 558.253309 
L 371.292039 556.829333 
L 372.138345 558.472381 
L 372.984651 558.362846 
L 373.830957 555.733964 
L 374.677263 554.748135 
L 375.523568 556.062576 
L 376.369874 553.543233 
L 377.21618 553.433695 
L 378.062486 554.419523 
L 378.908792 553.214621 
L 379.755097 552.99555 
L 380.601403 549.709449 
L 381.447709 550.695277 
L 382.294015 548.175934 
L 383.140321 547.847322 
L 383.986626 549.490375 
L 384.832932 550.257132 
L 385.679238 547.080569 
L 386.525544 550.257132 
L 387.37185 550.476203 
L 388.218156 552.119255 
L 389.064461 552.99555 
L 389.910767 552.776475 
L 390.757073 553.433695 
L 391.603379 550.147595 
L 392.449685 550.257132 
L 393.29599 550.147595 
L 394.142296 549.709449 
L 394.988602 547.847322 
L 395.834908 548.285472 
L 396.681214 548.175934 
L 397.527519 547.409177 
L 398.373825 553.324158 
L 399.220131 552.99555 
L 400.066437 551.790643 
L 400.912743 555.295818 
L 402.605354 548.395009 
L 403.45166 546.532886 
L 404.297966 548.61408 
L 405.144272 549.599912 
L 405.990578 549.052229 
L 406.836883 545.327979 
L 407.683189 547.409177 
L 409.375801 543.356319 
L 410.222107 543.137248 
L 411.068412 545.766129 
L 412.761024 541.275125 
L 413.60733 541.603733 
L 414.453636 537.989025 
L 415.299941 539.74161 
L 416.146247 537.660413 
L 416.992553 536.126902 
L 417.838859 537.11273 
L 418.685165 535.14107 
L 419.53147 536.784118 
L 420.377776 536.126902 
L 421.224082 536.674584 
L 422.070388 534.264775 
L 422.916694 533.498021 
L 423.763 530.211921 
L 424.609305 531.197749 
L 425.455611 531.745432 
L 426.301917 532.621727 
L 427.148223 531.307286 
L 427.994529 529.007014 
L 428.840834 531.307286 
L 429.68714 528.897481 
L 430.533446 530.430992 
L 431.379752 529.773772 
L 432.226058 533.498021 
L 433.072363 534.264775 
L 433.918669 531.635895 
L 434.764975 531.088212 
L 435.611281 530.978674 
L 436.457587 530.211921 
L 437.303892 527.035354 
L 438.150198 526.706746 
L 438.996504 525.830451 
L 439.84281 523.858794 
L 440.689116 518.820108 
L 441.535422 518.272418 
L 442.381727 520.025007 
L 443.228033 518.710567 
L 444.074339 517.177052 
L 444.920645 516.410295 
L 445.766951 516.410295 
L 446.613256 517.067519 
L 447.459562 512.138366 
L 448.305868 515.42447 
L 449.152174 517.286593 
L 449.99848 520.463157 
L 450.844785 521.229914 
L 451.691091 515.753079 
L 452.537397 516.519836 
L 453.383703 520.57269 
L 454.230009 515.42447 
L 455.076314 515.314929 
L 455.92262 514.986321 
L 456.768926 516.081687 
L 457.615232 515.972153 
L 458.461538 511.919291 
L 459.307844 509.180877 
L 460.154149 507.09968 
L 461.000455 507.09968 
L 461.846761 507.975971 
L 462.693067 505.128023 
L 463.539373 509.838094 
L 464.385678 512.247907 
L 466.07829 507.537829 
L 466.924596 503.923117 
L 467.770902 504.908949 
L 468.617207 507.209213 
L 469.463513 506.004314 
L 470.309819 505.566165 
L 471.156125 501.732386 
L 472.002431 505.018482 
L 472.848737 503.046826 
L 473.695042 503.046826 
L 474.541348 498.446281 
L 475.387654 499.979796 
L 476.23396 496.584158 
L 477.080266 492.640838 
L 477.926571 490.231032 
L 478.772877 489.792883 
L 479.619183 493.18852 
L 480.465489 496.036475 
L 481.311795 505.34709 
L 482.1581 503.813583 
L 483.004406 496.365084 
L 483.850712 492.640838 
L 484.697018 493.18852 
L 485.543324 488.807058 
L 486.389629 485.520954 
L 487.235935 486.616319 
L 488.082241 484.863737 
L 488.928547 489.902424 
L 489.774853 492.202696 
L 490.621159 488.368909 
L 491.467464 487.711685 
L 493.160076 477.196171 
L 494.006382 470.62397 
L 494.852688 471.062112 
L 495.698993 480.920417 
L 496.545299 477.305704 
L 497.391605 478.291536 
L 498.237911 479.71551 
L 499.084217 478.181995 
L 499.930522 473.362384 
L 500.776828 475.662656 
L 501.623134 471.609794 
L 502.46944 474.0196 
L 503.315746 474.786358 
L 504.162051 477.962921 
L 505.008357 475.881731 
L 505.854663 482.234857 
L 506.700969 476.64848 
L 507.547275 475.77219 
L 508.393581 469.747671 
L 509.239886 465.475743 
L 510.086192 457.808176 
L 510.932498 455.288837 
L 511.778804 454.960229 
L 512.62511 451.345508 
L 513.471415 451.674117 
L 514.317721 458.246325 
L 515.164027 461.86103 
L 516.010333 459.889366 
L 516.856639 461.86103 
L 517.702944 459.77984 
L 518.54925 459.670299 
L 519.395556 461.203814 
L 521.088168 447.183113 
L 521.934473 444.992382 
L 522.780779 442.363502 
L 523.627085 436.010375 
L 524.473391 439.406013 
L 525.319697 434.586402 
L 526.166003 438.639256 
L 527.012308 435.134077 
L 527.858614 434.695943 
L 528.70492 435.353159 
L 529.551226 436.558066 
L 530.397532 438.420189 
L 531.243837 432.83382 
L 532.090143 433.819644 
L 532.936449 432.505196 
L 533.782755 425.604395 
L 534.629061 429.109574 
L 535.475366 437.653431 
L 536.321672 439.62508 
L 537.167978 430.862156 
L 538.014284 428.123734 
L 538.86059 420.237093 
L 539.706895 416.403306 
L 540.553201 415.636548 
L 542.245813 409.064355 
L 543.092119 407.202232 
L 543.938425 398.658374 
L 544.78473 396.905777 
L 546.477342 413.007668 
L 547.323648 417.279604 
L 548.169954 411.145545 
L 549.016259 416.403306 
L 549.862565 418.92266 
L 550.708871 423.742272 
L 551.555177 422.318298 
L 552.401483 419.360809 
L 553.247788 411.255086 
L 554.094094 411.364627 
L 554.9404 401.944471 
L 555.786706 394.60552 
L 556.633012 391.53849 
L 557.479317 390.881259 
L 558.325623 385.952121 
L 559.171929 382.994618 
L 560.018235 386.828405 
L 560.864541 384.966282 
L 561.710847 386.171189 
L 562.557152 392.743382 
L 563.403458 396.68671 
L 564.249764 396.248561 
L 565.09607 408.188056 
L 565.942376 407.421299 
L 566.788681 417.060537 
L 567.634987 418.484511 
L 568.481293 407.749907 
L 569.327599 401.944471 
L 570.173905 394.60552 
L 571.02021 391.97664 
L 571.866516 378.06548 
L 572.712822 373.574477 
L 573.559128 367.878567 
L 574.405434 359.882384 
L 576.098045 349.366863 
L 576.944351 348.05243 
L 577.790657 350.571769 
L 579.483269 370.836055 
L 580.329574 377.955939 
L 581.17588 383.432767 
L 582.022186 383.870916 
L 582.868492 381.461118 
L 583.714798 368.316716 
L 584.561103 363.60663 
L 585.407409 359.772843 
L 586.253715 354.515082 
L 587.100021 350.681311 
L 587.946327 348.600105 
L 588.792632 346.957065 
L 590.485244 359.991926 
L 591.33155 358.89656 
L 592.177856 349.476404 
L 593.024162 355.610463 
L 593.870467 352.324351 
L 594.716773 351.886202 
L 595.563079 355.391381 
L 597.255691 347.723822 
L 598.101996 346.957065 
L 598.948302 348.819188 
L 599.794608 342.466061 
L 600.640914 330.526551 
L 601.48722 323.078059 
L 602.333525 317.601216 
L 603.179831 314.315134 
L 604.026137 311.576713 
L 604.872443 310.590888 
L 605.718749 322.092234 
L 606.565054 322.749451 
L 607.41136 337.098759 
L 608.257666 341.589763 
L 609.103972 338.194125 
L 609.950278 348.271497 
L 610.796584 344.328184 
L 611.642889 332.826838 
L 612.489195 334.141271 
L 613.335501 331.293323 
L 614.181807 321.6541 
L 615.028113 315.520041 
L 615.874418 307.085694 
L 616.720724 311.467187 
L 617.56703 310.80994 
L 618.413336 309.824115 
L 619.259642 306.866642 
L 620.952253 296.679729 
L 621.798559 295.693904 
L 622.644865 288.902629 
L 623.491171 298.541852 
L 624.337476 313.87697 
L 625.183782 307.085694 
L 626.030088 307.742941 
L 626.876394 314.753268 
L 627.7227 310.80994 
L 628.569006 305.442653 
L 629.415311 297.008337 
L 630.261617 292.517318 
L 631.107923 287.150031 
L 631.954229 285.835599 
L 632.800535 291.860102 
L 633.64684 294.927132 
L 634.493146 289.450288 
L 635.339452 288.245412 
L 636.185758 296.022512 
L 637.032064 292.626874 
L 637.878369 296.241564 
L 638.724675 285.397434 
L 639.570981 282.001797 
L 640.417287 281.454137 
L 641.263593 278.277551 
L 642.109898 277.948942 
L 642.956204 275.210521 
L 643.80251 270.281399 
L 644.648816 266.666679 
L 645.495122 266.776204 
L 646.341428 273.56748 
L 647.187733 265.461772 
L 648.034039 280.687364 
L 648.880345 276.963118 
L 649.726651 276.415428 
L 650.572957 279.263405 
L 651.419262 282.768569 
L 652.265568 274.881913 
L 653.111874 272.143522 
L 653.95818 258.232362 
L 654.804486 253.412735 
L 655.650791 249.798015 
L 656.497097 240.049266 
L 657.343403 233.586599 
L 658.189709 229.971879 
L 659.036015 227.562065 
L 659.882321 222.413861 
L 660.728626 222.194779 
L 661.574932 223.618767 
L 662.421238 222.194779 
L 663.267544 221.31848 
L 664.11385 226.247633 
L 664.960155 237.529927 
L 665.806461 245.307027 
L 666.652767 259.546795 
L 667.499073 264.256865 
L 668.345379 262.613824 
L 669.191684 256.479765 
L 670.884296 252.536437 
L 671.730602 247.607284 
L 672.576908 246.402377 
L 673.423213 243.55443 
L 674.269519 239.830184 
L 675.115825 233.257991 
L 675.962131 234.024733 
L 676.808437 241.582781 
L 677.654743 227.890704 
L 678.501048 225.919025 
L 679.347354 226.795323 
L 680.19366 219.894522 
L 681.039966 208.940835 
L 681.886272 211.569731 
L 683.578883 233.696125 
L 684.425189 235.010588 
L 685.271495 222.413861 
L 686.117801 225.261808 
L 686.964106 219.018223 
L 687.810412 215.184421 
L 689.503024 199.520695 
L 690.34933 193.934326 
L 691.195635 191.414986 
L 692.041941 191.414986 
L 692.888247 187.252576 
L 693.734553 187.800266 
L 694.580859 186.923968 
L 695.427165 186.376277 
L 696.27347 188.567008 
L 697.119776 187.909792 
L 697.966082 191.524512 
L 698.812388 197.110881 
L 699.658694 207.188269 
L 700.504999 221.647088 
L 701.351305 218.799141 
L 702.197611 204.230765 
L 703.043917 196.344139 
L 703.890223 189.662389 
L 704.736528 191.524512 
L 705.582834 192.729419 
L 706.42914 191.85312 
L 707.275446 199.849303 
L 708.121752 187.800266 
L 708.968057 185.500009 
L 709.814363 175.860756 
L 710.660669 185.171401 
L 711.506975 186.047669 
L 712.353281 196.453665 
L 713.199587 197.98718 
L 714.045892 186.485834 
L 714.892198 187.800266 
L 715.738504 186.157225 
L 717.431116 193.824769 
L 719.123727 174.765405 
L 719.970033 169.945778 
L 720.816339 168.740872 
L 722.50895 159.101649 
L 723.355256 159.539813 
L 724.201562 151.872239 
L 725.047868 157.67769 
L 725.894174 158.006298 
L 726.740479 164.578492 
L 727.586785 157.020474 
L 728.433091 158.115824 
L 729.279397 170.055335 
L 730.125703 169.179036 
L 730.972009 172.355592 
L 731.818314 179.694558 
L 732.66462 179.694558 
L 733.510926 174.765405 
L 734.357232 173.012808 
L 735.203538 165.235708 
L 736.049843 159.649339 
L 736.896149 156.253701 
L 737.742455 151.653157 
L 738.588761 162.497287 
L 739.435067 159.758865 
L 740.281372 158.444432 
L 741.127678 158.22535 
L 741.973984 153.296228 
L 742.82029 154.720186 
L 744.512901 143.985583 
L 745.359207 138.180162 
L 746.205513 136.318039 
L 747.051819 136.756173 
L 747.898125 139.494594 
L 748.744431 139.713677 
L 749.590736 144.314191 
L 750.437042 154.172496 
L 751.283348 158.006298 
L 752.129654 159.211205 
L 752.97596 157.020474 
L 753.822265 149.791034 
L 754.668571 151.762713 
L 755.514877 143.328366 
L 756.361183 142.342542 
L 757.207489 147.600303 
L 758.053794 147.600303 
L 759.746406 134.565442 
L 760.592712 130.950722 
L 761.439018 128.869547 
L 762.285324 128.102774 
L 763.131629 128.650465 
L 763.977935 128.869547 
L 764.824241 126.678785 
L 765.670547 121.201973 
L 766.516853 120.4352 
L 767.363158 123.173621 
L 768.209464 122.625931 
L 769.05577 118.682633 
L 769.902076 116.930036 
L 770.748382 116.382346 
L 771.594687 114.191615 
L 772.440993 112.329492 
L 773.287299 114.520223 
L 774.133605 112.439018 
L 774.979911 119.777984 
L 775.826216 135.222658 
L 776.672522 139.385068 
L 777.518828 146.066788 
L 778.365134 138.399214 
L 779.21144 129.636289 
L 780.057746 134.565442 
L 780.904051 137.851554 
L 781.750357 139.932728 
L 782.596663 133.360535 
L 783.442969 131.060278 
L 784.289275 126.459733 
L 785.13558 127.226476 
L 785.981886 126.678785 
L 786.828192 124.159446 
L 787.674498 120.325674 
L 789.367109 117.587252 
L 790.213415 116.82051 
L 791.059721 116.27282 
L 791.906027 114.848831 
L 792.752333 114.520223 
L 793.598638 110.467369 
L 794.444944 106.962205 
L 795.29125 107.619421 
L 796.137556 105.209608 
L 796.983862 109.04341 
L 797.830168 110.467369 
L 798.676473 118.463551 
L 799.522779 120.106592 
L 800.369085 122.845013 
L 801.215391 122.406879 
L 802.061697 119.997066 
L 802.908002 114.958387 
L 804.600614 109.262462 
L 805.44692 107.728947 
L 806.293226 106.52404 
L 807.139531 103.237959 
L 807.985837 104.552392 
L 808.832143 104.442866 
L 809.678449 107.181257 
L 811.37106 108.386163 
L 812.217366 105.319134 
L 813.063672 101.594888 
L 813.909978 105.42869 
L 814.756284 109.919678 
L 815.60259 105.757298 
L 816.448895 105.100082 
L 817.295201 105.538216 
L 818.141507 109.700626 
L 818.987813 104.333309 
L 819.834119 106.52404 
L 820.680424 103.347485 
L 821.52673 111.234141 
L 822.373036 103.785649 
L 823.219342 110.576895 
L 824.065648 109.481544 
L 824.911953 105.319134 
L 825.758259 108.933854 
L 826.604565 105.319134 
L 828.297177 101.81397 
L 829.143482 106.414515 
L 829.989788 105.866824 
L 830.836094 101.485362 
L 831.6824 101.375836 
L 832.528706 99.185105 
L 833.375012 101.485362 
L 834.221317 100.499537 
L 835.067623 97.1039 
L 835.913929 96.775291 
L 836.760235 95.789467 
L 837.606541 98.418332 
L 838.452846 102.690269 
L 839.299152 104.004701 
L 840.145458 105.100082 
L 840.991764 103.457011 
L 841.83807 101.047228 
L 842.684375 96.337127 
L 843.530681 95.351303 
L 844.376987 94.146396 
L 845.223293 93.270128 
L 846.069599 93.379654 
L 846.915904 90.96984 
L 847.76221 90.42215 
L 848.608516 90.312624 
L 850.301128 90.750758 
L 851.147434 90.641232 
L 851.993739 89.655408 
L 852.840045 90.860314 
L 853.686351 94.255952 
L 854.532657 96.008519 
L 855.378963 97.432508 
L 856.225268 99.185105 
L 857.071574 98.089724 
L 857.91788 101.594888 
L 858.764186 99.513713 
L 859.610492 96.994374 
L 860.456797 95.132251 
L 862.149409 94.365478 
L 863.842021 92.503355 
L 864.688327 95.132251 
L 865.534632 94.365478 
L 866.380938 97.761116 
L 867.227244 94.694086 
L 868.919856 91.846139 
L 869.766161 90.96984 
L 870.612467 91.188922 
L 871.458773 89.87449 
L 872.305079 88.340975 
L 873.151385 87.793285 
L 873.99769 87.902811 
L 874.843996 86.916986 
L 875.690302 87.026512 
L 877.382914 86.80746 
L 878.229219 89.217243 
L 879.075525 93.598736 
L 879.921831 94.475004 
L 880.768137 101.485362 
L 881.614443 96.884817 
L 882.460749 99.513713 
L 883.307054 107.400339 
L 884.15336 101.26628 
L 884.999666 99.623239 
L 885.845972 96.994374 
L 886.692278 92.941489 
L 887.538583 91.298448 
L 888.384889 90.42215 
L 889.231195 90.641232 
L 890.077501 89.984016 
L 890.923807 90.093542 
L 891.770112 88.888635 
L 892.616418 88.888635 
L 893.462724 88.121893 
L 894.30903 88.012367 
L 896.001641 86.697904 
L 896.847947 86.369296 
L 898.540559 86.25977 
L 899.386865 85.712079 
L 901.925782 85.273945 
L 903.618394 83.849956 
L 904.4647 84.397647 
L 905.311005 84.616729 
L 906.157311 83.849956 
L 907.003617 84.726255 
L 907.849923 91.517531 
L 908.696229 90.531706 
L 909.542534 102.033052 
L 910.38884 97.761116 
L 911.235146 96.994374 
L 912.927758 96.227601 
L 913.774063 92.503355 
L 914.620369 91.736613 
L 915.466675 90.312624 
L 916.312981 88.340975 
L 918.005593 86.916986 
L 918.851898 85.821605 
L 919.698204 85.164389 
L 921.390816 85.383471 
L 923.083427 84.397647 
L 924.776039 84.507173 
L 925.622345 84.069039 
L 926.468651 84.288121 
L 927.314956 83.74043 
L 929.007568 83.630874 
L 929.853874 85.931162 
L 930.70018 83.630874 
L 931.546485 86.150244 
L 932.392791 89.764934 
L 933.239097 95.022694 
L 934.085403 96.994374 
L 934.931709 92.722437 
L 935.778015 90.531706 
L 936.62432 89.655408 
L 937.470626 91.079366 
L 938.316932 90.312624 
L 939.163238 88.121893 
L 940.009544 87.464676 
L 940.855849 85.712079 
L 942.548461 84.069039 
L 943.394767 85.821605 
L 944.241073 85.273945 
L 945.933684 86.80746 
L 946.77999 90.312624 
L 947.626296 90.312624 
L 949.318908 90.860314 
L 950.165213 87.464676 
L 951.011519 86.478852 
L 951.857825 84.835781 
L 953.550437 84.397647 
L 954.396742 85.164389 
L 955.243048 86.150244 
L 956.089354 88.998191 
L 956.93566 86.040688 
L 957.781966 86.478852 
L 958.628271 86.588378 
L 959.474577 85.383471 
L 961.167189 85.492997 
L 962.013495 84.616729 
L 962.8598 87.136068 
L 963.706106 87.026512 
L 964.552412 91.079366 
L 965.398718 88.340975 
L 966.245024 90.96984 
L 967.09133 87.35512 
L 967.937635 86.588378 
L 968.783941 86.25977 
L 969.630247 86.150244 
L 970.476553 84.616729 
L 971.322859 83.74043 
L 972.169164 82.535524 
L 973.01547 82.425967 
L 974.708082 81.768751 
L 975.554388 82.097359 
L 977.246999 81.549699 
L 978.093305 81.221091 
L 980.632222 81.221091 
L 981.478528 81.002009 
L 984.017446 80.892483 
L 984.863752 80.673401 
L 988.248975 80.563844 
L 989.095281 80.344793 
L 989.941586 80.673401 
L 992.480504 80.454319 
L 995.019421 80.344793 
L 995.865727 80.12571 
L 1000.097256 80.673401 
L 1000.943562 80.344793 
L 1001.789868 80.235236 
L 1002.636174 80.454319 
L 1003.482479 80.235236 
L 1003.482479 80.235236 
" clip-path="url(#pf29201cea7)" style="fill: none; stroke: #dd8452; stroke-width: 6; stroke-linecap: round"/>
   </g>
   <g id="line2d_15"/>
   <g id="line2d_16"/>
   <g id="patch_3">
    <path d="M 115.75 609.894375 
L 115.75 54.554375 
" style="fill: none; stroke: #cccccc; stroke-width: 1.875; stroke-linejoin: miter; stroke-linecap: square"/>
   </g>
   <g id="patch_4">
    <path d="M 1045.755455 609.894375 
L 1045.755455 54.554375 
" style="fill: none; stroke: #cccccc; stroke-width: 1.875; stroke-linejoin: miter; stroke-linecap: square"/>
   </g>
   <g id="patch_5">
    <path d="M 115.75 609.894375 
L 1045.755455 609.894375 
" style="fill: none; stroke: #cccccc; stroke-width: 1.875; stroke-linejoin: miter; stroke-linecap: square"/>
   </g>
   <g id="patch_6">
    <path d="M 115.75 54.554375 
L 1045.755455 54.554375 
" style="fill: none; stroke: #cccccc; stroke-width: 1.875; stroke-linejoin: miter; stroke-linecap: square"/>
   </g>
   <g id="text_15">
    <!-- Training Progress: Accuracy -->
    <g style="fill: #262626" transform="translate(297.50304 34.554375) scale(0.36 -0.36)">
     <defs>
      <path id="DejaVuSans-Bold-54" d="M 31 4666 
L 4331 4666 
L 4331 3756 
L 2784 3756 
L 2784 0 
L 1581 0 
L 1581 3756 
L 31 3756 
L 31 4666 
z
" transform="scale(0.015625)"/>
      <path id="DejaVuSans-Bold-72" d="M 3138 2547 
Q 2991 2616 2845 2648 
Q 2700 2681 2553 2681 
Q 2122 2681 1889 2404 
Q 1656 2128 1656 1613 
L 1656 0 
L 538 0 
L 538 3500 
L 1656 3500 
L 1656 2925 
Q 1872 3269 2151 3426 
Q 2431 3584 2822 3584 
Q 2878 3584 2943 3579 
Q 3009 3575 3134 3559 
L 3138 2547 
z
" transform="scale(0.015625)"/>
      <path id="DejaVuSans-Bold-61" d="M 2106 1575 
Q 1756 1575 1579 1456 
Q 1403 1338 1403 1106 
Q 1403 894 1545 773 
Q 1688 653 1941 653 
Q 2256 653 2472 879 
Q 2688 1106 2688 1447 
L 2688 1575 
L 2106 1575 
z
M 3816 1997 
L 3816 0 
L 2688 0 
L 2688 519 
Q 2463 200 2181 54 
Q 1900 -91 1497 -91 
Q 953 -91 614 226 
Q 275 544 275 1050 
Q 275 1666 698 1953 
Q 1122 2241 2028 2241 
L 2688 2241 
L 2688 2328 
Q 2688 2594 2478 2717 
Q 2269 2841 1825 2841 
Q 1466 2841 1156 2769 
Q 847 2697 581 2553 
L 581 3406 
Q 941 3494 1303 3539 
Q 1666 3584 2028 3584 
Q 2975 3584 3395 3211 
Q 3816 2838 3816 1997 
z
" transform="scale(0.015625)"/>
      <path id="DejaVuSans-Bold-69" d="M 538 3500 
L 1656 3500 
L 1656 0 
L 538 0 
L 538 3500 
z
M 538 4863 
L 1656 4863 
L 1656 3950 
L 538 3950 
L 538 4863 
z
" transform="scale(0.015625)"/>
      <path id="DejaVuSans-Bold-6e" d="M 4056 2131 
L 4056 0 
L 2931 0 
L 2931 347 
L 2931 1631 
Q 2931 2084 2911 2256 
Q 2891 2428 2841 2509 
Q 2775 2619 2662 2680 
Q 2550 2741 2406 2741 
Q 2056 2741 1856 2470 
Q 1656 2200 1656 1722 
L 1656 0 
L 538 0 
L 538 3500 
L 1656 3500 
L 1656 2988 
Q 1909 3294 2193 3439 
Q 2478 3584 2822 3584 
Q 3428 3584 3742 3212 
Q 4056 2841 4056 2131 
z
" transform="scale(0.015625)"/>
      <path id="DejaVuSans-Bold-67" d="M 2919 594 
Q 2688 288 2409 144 
Q 2131 0 1766 0 
Q 1125 0 706 504 
Q 288 1009 288 1791 
Q 288 2575 706 3076 
Q 1125 3578 1766 3578 
Q 2131 3578 2409 3434 
Q 2688 3291 2919 2981 
L 2919 3500 
L 4044 3500 
L 4044 353 
Q 4044 -491 3511 -936 
Q 2978 -1381 1966 -1381 
Q 1638 -1381 1331 -1331 
Q 1025 -1281 716 -1178 
L 716 -306 
Q 1009 -475 1290 -558 
Q 1572 -641 1856 -641 
Q 2406 -641 2662 -400 
Q 2919 -159 2919 353 
L 2919 594 
z
M 2181 2772 
Q 1834 2772 1640 2515 
Q 1447 2259 1447 1791 
Q 1447 1309 1634 1061 
Q 1822 813 2181 813 
Q 2531 813 2725 1069 
Q 2919 1325 2919 1791 
Q 2919 2259 2725 2515 
Q 2531 2772 2181 2772 
z
" transform="scale(0.015625)"/>
      <path id="DejaVuSans-Bold-20" transform="scale(0.015625)"/>
      <path id="DejaVuSans-Bold-50" d="M 588 4666 
L 2584 4666 
Q 3475 4666 3951 4270 
Q 4428 3875 4428 3144 
Q 4428 2409 3951 2014 
Q 3475 1619 2584 1619 
L 1791 1619 
L 1791 0 
L 588 0 
L 588 4666 
z
M 1791 3794 
L 1791 2491 
L 2456 2491 
Q 2806 2491 2997 2661 
Q 3188 2831 3188 3144 
Q 3188 3456 2997 3625 
Q 2806 3794 2456 3794 
L 1791 3794 
z
" transform="scale(0.015625)"/>
      <path id="DejaVuSans-Bold-6f" d="M 2203 2784 
Q 1831 2784 1636 2517 
Q 1441 2250 1441 1747 
Q 1441 1244 1636 976 
Q 1831 709 2203 709 
Q 2569 709 2762 976 
Q 2956 1244 2956 1747 
Q 2956 2250 2762 2517 
Q 2569 2784 2203 2784 
z
M 2203 3584 
Q 3106 3584 3614 3096 
Q 4122 2609 4122 1747 
Q 4122 884 3614 396 
Q 3106 -91 2203 -91 
Q 1297 -91 786 396 
Q 275 884 275 1747 
Q 275 2609 786 3096 
Q 1297 3584 2203 3584 
z
" transform="scale(0.015625)"/>
      <path id="DejaVuSans-Bold-65" d="M 4031 1759 
L 4031 1441 
L 1416 1441 
Q 1456 1047 1700 850 
Q 1944 653 2381 653 
Q 2734 653 3104 758 
Q 3475 863 3866 1075 
L 3866 213 
Q 3469 63 3072 -14 
Q 2675 -91 2278 -91 
Q 1328 -91 801 392 
Q 275 875 275 1747 
Q 275 2603 792 3093 
Q 1309 3584 2216 3584 
Q 3041 3584 3536 3087 
Q 4031 2591 4031 1759 
z
M 2881 2131 
Q 2881 2450 2695 2645 
Q 2509 2841 2209 2841 
Q 1884 2841 1681 2658 
Q 1478 2475 1428 2131 
L 2881 2131 
z
" transform="scale(0.015625)"/>
      <path id="DejaVuSans-Bold-73" d="M 3272 3391 
L 3272 2541 
Q 2913 2691 2578 2766 
Q 2244 2841 1947 2841 
Q 1628 2841 1473 2761 
Q 1319 2681 1319 2516 
Q 1319 2381 1436 2309 
Q 1553 2238 1856 2203 
L 2053 2175 
Q 2913 2066 3209 1816 
Q 3506 1566 3506 1031 
Q 3506 472 3093 190 
Q 2681 -91 1863 -91 
Q 1516 -91 1145 -36 
Q 775 19 384 128 
L 384 978 
Q 719 816 1070 734 
Q 1422 653 1784 653 
Q 2113 653 2278 743 
Q 2444 834 2444 1013 
Q 2444 1163 2330 1236 
Q 2216 1309 1875 1350 
L 1678 1375 
Q 931 1469 631 1722 
Q 331 1975 331 2491 
Q 331 3047 712 3315 
Q 1094 3584 1881 3584 
Q 2191 3584 2531 3537 
Q 2872 3491 3272 3391 
z
" transform="scale(0.015625)"/>
      <path id="DejaVuSans-Bold-3a" d="M 716 3500 
L 1844 3500 
L 1844 2291 
L 716 2291 
L 716 3500 
z
M 716 1209 
L 1844 1209 
L 1844 0 
L 716 0 
L 716 1209 
z
" transform="scale(0.015625)"/>
      <path id="DejaVuSans-Bold-41" d="M 3419 850 
L 1538 850 
L 1241 0 
L 31 0 
L 1759 4666 
L 3194 4666 
L 4922 0 
L 3713 0 
L 3419 850 
z
M 1838 1716 
L 3116 1716 
L 2478 3572 
L 1838 1716 
z
" transform="scale(0.015625)"/>
      <path id="DejaVuSans-Bold-63" d="M 3366 3391 
L 3366 2478 
Q 3138 2634 2908 2709 
Q 2678 2784 2431 2784 
Q 1963 2784 1702 2511 
Q 1441 2238 1441 1747 
Q 1441 1256 1702 982 
Q 1963 709 2431 709 
Q 2694 709 2930 787 
Q 3166 866 3366 1019 
L 3366 103 
Q 3103 6 2833 -42 
Q 2563 -91 2291 -91 
Q 1344 -91 809 395 
Q 275 881 275 1747 
Q 275 2613 809 3098 
Q 1344 3584 2291 3584 
Q 2566 3584 2833 3536 
Q 3100 3488 3366 3391 
z
" transform="scale(0.015625)"/>
      <path id="DejaVuSans-Bold-75" d="M 500 1363 
L 500 3500 
L 1625 3500 
L 1625 3150 
Q 1625 2866 1622 2436 
Q 1619 2006 1619 1863 
Q 1619 1441 1641 1255 
Q 1663 1069 1716 984 
Q 1784 875 1895 815 
Q 2006 756 2150 756 
Q 2500 756 2700 1025 
Q 2900 1294 2900 1772 
L 2900 3500 
L 4019 3500 
L 4019 0 
L 2900 0 
L 2900 506 
Q 2647 200 2364 54 
Q 2081 -91 1741 -91 
Q 1134 -91 817 281 
Q 500 653 500 1363 
z
" transform="scale(0.015625)"/>
      <path id="DejaVuSans-Bold-79" d="M 78 3500 
L 1197 3500 
L 2138 1125 
L 2938 3500 
L 4056 3500 
L 2584 -331 
Q 2363 -916 2067 -1148 
Q 1772 -1381 1288 -1381 
L 641 -1381 
L 641 -647 
L 991 -647 
Q 1275 -647 1404 -556 
Q 1534 -466 1606 -231 
L 1638 -134 
L 78 3500 
z
" transform="scale(0.015625)"/>
     </defs>
     <use xlink:href="#DejaVuSans-Bold-54"/>
     <use xlink:href="#DejaVuSans-Bold-72" transform="translate(57.212891 0)"/>
     <use xlink:href="#DejaVuSans-Bold-61" transform="translate(106.529297 0)"/>
     <use xlink:href="#DejaVuSans-Bold-69" transform="translate(174.009766 0)"/>
     <use xlink:href="#DejaVuSans-Bold-6e" transform="translate(208.287109 0)"/>
     <use xlink:href="#DejaVuSans-Bold-69" transform="translate(279.478516 0)"/>
     <use xlink:href="#DejaVuSans-Bold-6e" transform="translate(313.755859 0)"/>
     <use xlink:href="#DejaVuSans-Bold-67" transform="translate(384.947266 0)"/>
     <use xlink:href="#DejaVuSans-Bold-20" transform="translate(456.529297 0)"/>
     <use xlink:href="#DejaVuSans-Bold-50" transform="translate(491.34375 0)"/>
     <use xlink:href="#DejaVuSans-Bold-72" transform="translate(564.634766 0)"/>
     <use xlink:href="#DejaVuSans-Bold-6f" transform="translate(613.951172 0)"/>
     <use xlink:href="#DejaVuSans-Bold-67" transform="translate(682.652344 0)"/>
     <use xlink:href="#DejaVuSans-Bold-72" transform="translate(754.234375 0)"/>
     <use xlink:href="#DejaVuSans-Bold-65" transform="translate(803.550781 0)"/>
     <use xlink:href="#DejaVuSans-Bold-73" transform="translate(871.373047 0)"/>
     <use xlink:href="#DejaVuSans-Bold-73" transform="translate(930.894531 0)"/>
     <use xlink:href="#DejaVuSans-Bold-3a" transform="translate(990.416016 0)"/>
     <use xlink:href="#DejaVuSans-Bold-20" transform="translate(1030.40625 0)"/>
     <use xlink:href="#DejaVuSans-Bold-41" transform="translate(1065.220703 0)"/>
     <use xlink:href="#DejaVuSans-Bold-63" transform="translate(1142.613281 0)"/>
     <use xlink:href="#DejaVuSans-Bold-63" transform="translate(1201.890625 0)"/>
     <use xlink:href="#DejaVuSans-Bold-75" transform="translate(1261.167969 0)"/>
     <use xlink:href="#DejaVuSans-Bold-72" transform="translate(1332.359375 0)"/>
     <use xlink:href="#DejaVuSans-Bold-61" transform="translate(1381.675781 0)"/>
     <use xlink:href="#DejaVuSans-Bold-63" transform="translate(1449.15625 0)"/>
     <use xlink:href="#DejaVuSans-Bold-79" transform="translate(1508.433594 0)"/>
    </g>
   </g>
   <g id="legend_1">
    <g id="patch_7">
     <path d="M 846.475455 593.894375 
L 1023.355455 593.894375 
Q 1029.755455 593.894375 1029.755455 587.494375 
L 1029.755455 496.754375 
Q 1029.755455 490.354375 1023.355455 490.354375 
L 846.475455 490.354375 
Q 840.075455 490.354375 840.075455 496.754375 
L 840.075455 587.494375 
Q 840.075455 593.894375 846.475455 593.894375 
z
" style="fill: #ffffff; opacity: 0.8; stroke: #cccccc; stroke-width: 1.5; stroke-linejoin: miter"/>
    </g>
    <g id="line2d_17">
     <path d="M 852.875455 516.269375 
L 884.875455 516.269375 
L 916.875455 516.269375 
" style="fill: none; stroke: #4c72b0; stroke-width: 6; stroke-linecap: round"/>
    </g>
    <g id="text_16">
     <!-- train -->
     <g style="fill: #262626" transform="translate(942.475455 527.469375) scale(0.32 -0.32)">
      <defs>
       <path id="DejaVuSans-74" d="M 1172 4494 
L 1172 3500 
L 2356 3500 
L 2356 3053 
L 1172 3053 
L 1172 1153 
Q 1172 725 1289 603 
Q 1406 481 1766 481 
L 2356 481 
L 2356 0 
L 1766 0 
Q 1100 0 847 248 
Q 594 497 594 1153 
L 594 3053 
L 172 3053 
L 172 3500 
L 594 3500 
L 594 4494 
L 1172 4494 
z
" transform="scale(0.015625)"/>
       <path id="DejaVuSans-69" d="M 603 3500 
L 1178 3500 
L 1178 0 
L 603 0 
L 603 3500 
z
M 603 4863 
L 1178 4863 
L 1178 4134 
L 603 4134 
L 603 4863 
z
" transform="scale(0.015625)"/>
       <path id="DejaVuSans-6e" d="M 3513 2113 
L 3513 0 
L 2938 0 
L 2938 2094 
Q 2938 2591 2744 2837 
Q 2550 3084 2163 3084 
Q 1697 3084 1428 2787 
Q 1159 2491 1159 1978 
L 1159 0 
L 581 0 
L 581 3500 
L 1159 3500 
L 1159 2956 
Q 1366 3272 1645 3428 
Q 1925 3584 2291 3584 
Q 2894 3584 3203 3211 
Q 3513 2838 3513 2113 
z
" transform="scale(0.015625)"/>
      </defs>
      <use xlink:href="#DejaVuSans-74"/>
      <use xlink:href="#DejaVuSans-72" transform="translate(39.208984 0)"/>
      <use xlink:href="#DejaVuSans-61" transform="translate(80.322266 0)"/>
      <use xlink:href="#DejaVuSans-69" transform="translate(141.601562 0)"/>
      <use xlink:href="#DejaVuSans-6e" transform="translate(169.384766 0)"/>
     </g>
    </g>
    <g id="line2d_18">
     <path d="M 852.875455 563.239375 
L 884.875455 563.239375 
L 916.875455 563.239375 
" style="fill: none; stroke: #dd8452; stroke-width: 6; stroke-linecap: round"/>
    </g>
    <g id="text_17">
     <!-- val -->
     <g style="fill: #262626" transform="translate(942.475455 574.439375) scale(0.32 -0.32)">
      <defs>
       <path id="DejaVuSans-76" d="M 191 3500 
L 800 3500 
L 1894 563 
L 2988 3500 
L 3597 3500 
L 2284 0 
L 1503 0 
L 191 3500 
z
" transform="scale(0.015625)"/>
       <path id="DejaVuSans-6c" d="M 603 4863 
L 1178 4863 
L 1178 0 
L 603 0 
L 603 4863 
z
" transform="scale(0.015625)"/>
      </defs>
      <use xlink:href="#DejaVuSans-76"/>
      <use xlink:href="#DejaVuSans-61" transform="translate(59.179688 0)"/>
      <use xlink:href="#DejaVuSans-6c" transform="translate(120.458984 0)"/>
     </g>
    </g>
   </g>
  </g>
 </g>
 <defs>
  <clipPath id="pf29201cea7">
   <rect x="115.75" y="54.554375" width="930.005455" height="555.34"/>
  </clipPath>
 </defs>
</svg>
