<?xml version="1.0" encoding="utf-8" standalone="no"?>
<!DOCTYPE svg PUBLIC "-//W3C//DTD SVG 1.1//EN"
  "http://www.w3.org/Graphics/SVG/1.1/DTD/svg11.dtd">
<svg xmlns:xlink="http://www.w3.org/1999/xlink" width="1052.825455pt" height="695.534375pt" viewBox="0 0 1052.825455 695.534375" xmlns="http://www.w3.org/2000/svg" version="1.1">
 <metadata>
  <rdf:RDF xmlns:dc="http://purl.org/dc/elements/1.1/" xmlns:cc="http://creativecommons.org/ns#" xmlns:rdf="http://www.w3.org/1999/02/22-rdf-syntax-ns#">
   <cc:Work>
    <dc:type rdf:resource="http://purl.org/dc/dcmitype/StillImage"/>
    <dc:date>2026-04-12T00:25:09.338070</dc:date>
    <dc:format>image/svg+xml</dc:format>
    <dc:creator>
     <cc:Agent>
      <dc:title>Matplotlib v3.10.8, https://matplotlib.org/</dc:title>
     </cc:Agent>
    </dc:creator>
   </cc:Work>
  </rdf:RDF>
 </metadata>
 <defs>
  <style type="text/css">*{stroke-linejoin: round; stroke-linecap: butt}</style>
 </defs>
 <g id="figure_1">
  <g id="patch_1">
   <path d="M 0 695.534375 
L 1052.825455 695.534375 
L 1052.825455 0 
L 0 0 
z
" style="fill: #ffffff"/>
  </g>
  <g id="axes_1">
   <g id="patch_2">
    <path d="M 75.03 609.894375 
L 1045.625455 609.894375 
L 1045.625455 54.554375 
L 75.03 54.554375 
z
" style="fill: #ffffff"/>
   </g>
   <g id="matplotlib.axis_1">
    <g id="xtick_1">
     <g id="line2d_1">
      <path d="M 118.264732 609.894375 
L 118.264732 54.554375 
" clip-path="url(#pe137a16b2d)" style="fill: none; stroke: #cccccc; stroke-opacity: 0.3; stroke-width: 1.5; stroke-linecap: round"/>
     </g>
     <g id="text_1">
      <!-- 0 -->
      <g style="fill: #262626" transform="translate(108.084732 646.709375) scale(0.32 -0.32)">
       <defs>
        <path id="DejaVuSans-30" d="M 2034 4250 
Q 1547 4250 1301 3770 
Q 1056 3291 1056 2328 
Q 1056 1369 1301 889 
Q 1547 409 2034 409 
Q 2525 409 2770 889 
Q 3016 1369 3016 2328 
Q 3016 3291 2770 3770 
Q 2525 4250 2034 4250 
z
M 2034 4750 
Q 2819 4750 3233 4129 
Q 3647 3509 3647 2328 
Q 3647 1150 3233 529 
Q 2819 -91 2034 -91 
Q 1250 -91 836 529 
Q 422 1150 422 2328 
Q 422 3509 836 4129 
Q 1250 4750 2034 4750 
z
" transform="scale(0.015625)"/>
       </defs>
       <use xlink:href="#DejaVuSans-30"/>
      </g>
     </g>
    </g>
    <g id="xtick_2">
     <g id="line2d_2">
      <path d="M 294.913282 609.894375 
L 294.913282 54.554375 
" clip-path="url(#pe137a16b2d)" style="fill: none; stroke: #cccccc; stroke-opacity: 0.3; stroke-width: 1.5; stroke-linecap: round"/>
     </g>
     <g id="text_2">
      <!-- 200 -->
      <g style="fill: #262626" transform="translate(264.373282 646.709375) scale(0.32 -0.32)">
       <defs>
        <path id="DejaVuSans-32" d="M 1228 531 
L 3431 531 
L 3431 0 
L 469 0 
L 469 531 
Q 828 903 1448 1529 
Q 2069 2156 2228 2338 
Q 2531 2678 2651 2914 
Q 2772 3150 2772 3378 
Q 2772 3750 2511 3984 
Q 2250 4219 1831 4219 
Q 1534 4219 1204 4116 
Q 875 4013 500 3803 
L 500 4441 
Q 881 4594 1212 4672 
Q 1544 4750 1819 4750 
Q 2544 4750 2975 4387 
Q 3406 4025 3406 3419 
Q 3406 3131 3298 2873 
Q 3191 2616 2906 2266 
Q 2828 2175 2409 1742 
Q 1991 1309 1228 531 
z
" transform="scale(0.015625)"/>
       </defs>
       <use xlink:href="#DejaVuSans-32"/>
       <use xlink:href="#DejaVuSans-30" transform="translate(63.623047 0)"/>
       <use xlink:href="#DejaVuSans-30" transform="translate(127.246094 0)"/>
      </g>
     </g>
    </g>
    <g id="xtick_3">
     <g id="line2d_3">
      <path d="M 471.561831 609.894375 
L 471.561831 54.554375 
" clip-path="url(#pe137a16b2d)" style="fill: none; stroke: #cccccc; stroke-opacity: 0.3; stroke-width: 1.5; stroke-linecap: round"/>
     </g>
     <g id="text_3">
      <!-- 400 -->
      <g style="fill: #262626" transform="translate(441.021831 646.709375) scale(0.32 -0.32)">
       <defs>
        <path id="DejaVuSans-34" d="M 2419 4116 
L 825 1625 
L 2419 1625 
L 2419 4116 
z
M 2253 4666 
L 3047 4666 
L 3047 1625 
L 3713 1625 
L 3713 1100 
L 3047 1100 
L 3047 0 
L 2419 0 
L 2419 1100 
L 313 1100 
L 313 1709 
L 2253 4666 
z
" transform="scale(0.015625)"/>
       </defs>
       <use xlink:href="#DejaVuSans-34"/>
       <use xlink:href="#DejaVuSans-30" transform="translate(63.623047 0)"/>
       <use xlink:href="#DejaVuSans-30" transform="translate(127.246094 0)"/>
      </g>
     </g>
    </g>
    <g id="xtick_4">
     <g id="line2d_4">
      <path d="M 648.210381 609.894375 
L 648.210381 54.554375 
" clip-path="url(#pe137a16b2d)" style="fill: none; stroke: #cccccc; stroke-opacity: 0.3; stroke-width: 1.5; stroke-linecap: round"/>
     </g>
     <g id="text_4">
      <!-- 600 -->
      <g style="fill: #262626" transform="translate(617.670381 646.709375) scale(0.32 -0.32)">
       <defs>
        <path id="DejaVuSans-36" d="M 2113 2584 
Q 1688 2584 1439 2293 
Q 1191 2003 1191 1497 
Q 1191 994 1439 701 
Q 1688 409 2113 409 
Q 2538 409 2786 701 
Q 3034 994 3034 1497 
Q 3034 2003 2786 2293 
Q 2538 2584 2113 2584 
z
M 3366 4563 
L 3366 3988 
Q 3128 4100 2886 4159 
Q 2644 4219 2406 4219 
Q 1781 4219 1451 3797 
Q 1122 3375 1075 2522 
Q 1259 2794 1537 2939 
Q 1816 3084 2150 3084 
Q 2853 3084 3261 2657 
Q 3669 2231 3669 1497 
Q 3669 778 3244 343 
Q 2819 -91 2113 -91 
Q 1303 -91 875 529 
Q 447 1150 447 2328 
Q 447 3434 972 4092 
Q 1497 4750 2381 4750 
Q 2619 4750 2861 4703 
Q 3103 4656 3366 4563 
z
" transform="scale(0.015625)"/>
       </defs>
       <use xlink:href="#DejaVuSans-36"/>
       <use xlink:href="#DejaVuSans-30" transform="translate(63.623047 0)"/>
       <use xlink:href="#DejaVuSans-30" transform="translate(127.246094 0)"/>
      </g>
     </g>
    </g>
    <g id="xtick_5">
     <g id="line2d_5">
      <path d="M 824.85893 609.894375 
L 824.85893 54.554375 
" clip-path="url(#pe137a16b2d)" style="fill: none; stroke: #cccccc; stroke-opacity: 0.3; stroke-width: 1.5; stroke-linecap: round"/>
     </g>
     <g id="text_5">
      <!-- 800 -->
      <g style="fill: #262626" transform="translate(794.31893 646.709375) scale(0.32 -0.32)">
       <defs>
        <path id="DejaVuSans-38" d="M 2034 2216 
Q 1584 2216 1326 1975 
Q 1069 1734 1069 1313 
Q 1069 891 1326 650 
Q 1584 409 2034 409 
Q 2484 409 2743 651 
Q 3003 894 3003 1313 
Q 3003 1734 2745 1975 
Q 2488 2216 2034 2216 
z
M 1403 2484 
Q 997 2584 770 2862 
Q 544 3141 544 3541 
Q 544 4100 942 4425 
Q 1341 4750 2034 4750 
Q 2731 4750 3128 4425 
Q 3525 4100 3525 3541 
Q 3525 3141 3298 2862 
Q 3072 2584 2669 2484 
Q 3125 2378 3379 2068 
Q 3634 1759 3634 1313 
Q 3634 634 3220 271 
Q 2806 -91 2034 -91 
Q 1263 -91 848 271 
Q 434 634 434 1313 
Q 434 1759 690 2068 
Q 947 2378 1403 2484 
z
M 1172 3481 
Q 1172 3119 1398 2916 
Q 1625 2713 2034 2713 
Q 2441 2713 2670 2916 
Q 2900 3119 2900 3481 
Q 2900 3844 2670 4047 
Q 2441 4250 2034 4250 
Q 1625 4250 1398 4047 
Q 1172 3844 1172 3481 
z
" transform="scale(0.015625)"/>
       </defs>
       <use xlink:href="#DejaVuSans-38"/>
       <use xlink:href="#DejaVuSans-30" transform="translate(63.623047 0)"/>
       <use xlink:href="#DejaVuSans-30" transform="translate(127.246094 0)"/>
      </g>
     </g>
    </g>
    <g id="xtick_6">
     <g id="line2d_6">
      <path d="M 1001.507479 609.894375 
L 1001.507479 54.554375 
" clip-path="url(#pe137a16b2d)" style="fill: none; stroke: #cccccc; stroke-opacity: 0.3; stroke-width: 1.5; stroke-linecap: round"/>
     </g>
     <g id="text_6">
      <!-- 1000 -->
      <g style="fill: #262626" transform="translate(960.787479 646.709375) scale(0.32 -0.32)">
       <defs>
        <path id="DejaVuSans-31" d="M 794 531 
L 1825 531 
L 1825 4091 
L 703 3866 
L 703 4441 
L 1819 4666 
L 2450 4666 
L 2450 531 
L 3481 531 
L 3481 0 
L 794 0 
L 794 531 
z
" transform="scale(0.015625)"/>
       </defs>
       <use xlink:href="#DejaVuSans-31"/>
       <use xlink:href="#DejaVuSans-30" transform="translate(63.623047 0)"/>
       <use xlink:href="#DejaVuSans-30" transform="translate(127.246094 0)"/>
       <use xlink:href="#DejaVuSans-30" transform="translate(190.869141 0)"/>
      </g>
     </g>
    </g>
    <g id="text_7">
     <!-- Epoch -->
     <g style="fill: #262626" transform="translate(511.332727 681.679375) scale(0.32 -0.32)">
      <defs>
       <path id="DejaVuSans-45" d="M 628 4666 
L 3578 4666 
L 3578 4134 
L 1259 4134 
L 1259 2753 
L 3481 2753 
L 3481 2222 
L 1259 2222 
L 1259 531 
L 3634 531 
L 3634 0 
L 628 0 
L 628 4666 
z
" transform="scale(0.015625)"/>
       <path id="DejaVuSans-70" d="M 1159 525 
L 1159 -1331 
L 581 -1331 
L 581 3500 
L 1159 3500 
L 1159 2969 
Q 1341 3281 1617 3432 
Q 1894 3584 2278 3584 
Q 2916 3584 3314 3078 
Q 3713 2572 3713 1747 
Q 3713 922 3314 415 
Q 2916 -91 2278 -91 
Q 1894 -91 1617 61 
Q 1341 213 1159 525 
z
M 3116 1747 
Q 3116 2381 2855 2742 
Q 2594 3103 2138 3103 
Q 1681 3103 1420 2742 
Q 1159 2381 1159 1747 
Q 1159 1113 1420 752 
Q 1681 391 2138 391 
Q 2594 391 2855 752 
Q 3116 1113 3116 1747 
z
" transform="scale(0.015625)"/>
       <path id="DejaVuSans-6f" d="M 1959 3097 
Q 1497 3097 1228 2736 
Q 959 2375 959 1747 
Q 959 1119 1226 758 
Q 1494 397 1959 397 
Q 2419 397 2687 759 
Q 2956 1122 2956 1747 
Q 2956 2369 2687 2733 
Q 2419 3097 1959 3097 
z
M 1959 3584 
Q 2709 3584 3137 3096 
Q 3566 2609 3566 1747 
Q 3566 888 3137 398 
Q 2709 -91 1959 -91 
Q 1206 -91 779 398 
Q 353 888 353 1747 
Q 353 2609 779 3096 
Q 1206 3584 1959 3584 
z
" transform="scale(0.015625)"/>
       <path id="DejaVuSans-63" d="M 3122 3366 
L 3122 2828 
Q 2878 2963 2633 3030 
Q 2388 3097 2138 3097 
Q 1578 3097 1268 2742 
Q 959 2388 959 1747 
Q 959 1106 1268 751 
Q 1578 397 2138 397 
Q 2388 397 2633 464 
Q 2878 531 3122 666 
L 3122 134 
Q 2881 22 2623 -34 
Q 2366 -91 2075 -91 
Q 1284 -91 818 406 
Q 353 903 353 1747 
Q 353 2603 823 3093 
Q 1294 3584 2113 3584 
Q 2378 3584 2631 3529 
Q 2884 3475 3122 3366 
z
" transform="scale(0.015625)"/>
       <path id="DejaVuSans-68" d="M 3513 2113 
L 3513 0 
L 2938 0 
L 2938 2094 
Q 2938 2591 2744 2837 
Q 2550 3084 2163 3084 
Q 1697 3084 1428 2787 
Q 1159 2491 1159 1978 
L 1159 0 
L 581 0 
L 581 4863 
L 1159 4863 
L 1159 2956 
Q 1366 3272 1645 3428 
Q 1925 3584 2291 3584 
Q 2894 3584 3203 3211 
Q 3513 2838 3513 2113 
z
" transform="scale(0.015625)"/>
      </defs>
      <use xlink:href="#DejaVuSans-45"/>
      <use xlink:href="#DejaVuSans-70" transform="translate(63.183594 0)"/>
      <use xlink:href="#DejaVuSans-6f" transform="translate(126.660156 0)"/>
      <use xlink:href="#DejaVuSans-63" transform="translate(187.841797 0)"/>
      <use xlink:href="#DejaVuSans-68" transform="translate(242.822266 0)"/>
     </g>
    </g>
   </g>
   <g id="matplotlib.axis_2">
    <g id="ytick_1">
     <g id="line2d_7">
      <path d="M 75.03 584.652997 
L 1045.625455 584.652997 
" clip-path="url(#pe137a16b2d)" style="fill: none; stroke: #cccccc; stroke-opacity: 0.3; stroke-width: 1.5; stroke-linecap: round"/>
     </g>
     <g id="text_8">
      <!-- 0 -->
      <g style="fill: #262626" transform="translate(42.17 596.810497) scale(0.32 -0.32)">
       <use xlink:href="#DejaVuSans-30"/>
      </g>
     </g>
    </g>
    <g id="ytick_2">
     <g id="line2d_8">
      <path d="M 75.03 472.229283 
L 1045.625455 472.229283 
" clip-path="url(#pe137a16b2d)" style="fill: none; stroke: #cccccc; stroke-opacity: 0.3; stroke-width: 1.5; stroke-linecap: round"/>
     </g>
     <g id="text_9">
      <!-- 2 -->
      <g style="fill: #262626" transform="translate(42.17 484.386783) scale(0.32 -0.32)">
       <use xlink:href="#DejaVuSans-32"/>
      </g>
     </g>
    </g>
    <g id="ytick_3">
     <g id="line2d_9">
      <path d="M 75.03 359.805568 
L 1045.625455 359.805568 
" clip-path="url(#pe137a16b2d)" style="fill: none; stroke: #cccccc; stroke-opacity: 0.3; stroke-width: 1.5; stroke-linecap: round"/>
     </g>
     <g id="text_10">
      <!-- 4 -->
      <g style="fill: #262626" transform="translate(42.17 371.963068) scale(0.32 -0.32)">
       <use xlink:href="#DejaVuSans-34"/>
      </g>
     </g>
    </g>
    <g id="ytick_4">
     <g id="line2d_10">
      <path d="M 75.03 247.381854 
L 1045.625455 247.381854 
" clip-path="url(#pe137a16b2d)" style="fill: none; stroke: #cccccc; stroke-opacity: 0.3; stroke-width: 1.5; stroke-linecap: round"/>
     </g>
     <g id="text_11">
      <!-- 6 -->
      <g style="fill: #262626" transform="translate(42.17 259.539354) scale(0.32 -0.32)">
       <use xlink:href="#DejaVuSans-36"/>
      </g>
     </g>
    </g>
    <g id="ytick_5">
     <g id="line2d_11">
      <path d="M 75.03 134.958139 
L 1045.625455 134.958139 
" clip-path="url(#pe137a16b2d)" style="fill: none; stroke: #cccccc; stroke-opacity: 0.3; stroke-width: 1.5; stroke-linecap: round"/>
     </g>
     <g id="text_12">
      <!-- 8 -->
      <g style="fill: #262626" transform="translate(42.17 147.115639) scale(0.32 -0.32)">
       <use xlink:href="#DejaVuSans-38"/>
      </g>
     </g>
    </g>
    <g id="text_13">
     <!-- Loss -->
     <g style="fill: #262626" transform="translate(31.515 367.319375) rotate(-90) scale(0.32 -0.32)">
      <defs>
       <path id="DejaVuSans-4c" d="M 628 4666 
L 1259 4666 
L 1259 531 
L 3531 531 
L 3531 0 
L 628 0 
L 628 4666 
z
" transform="scale(0.015625)"/>
       <path id="DejaVuSans-73" d="M 2834 3397 
L 2834 2853 
Q 2591 2978 2328 3040 
Q 2066 3103 1784 3103 
Q 1356 3103 1142 2972 
Q 928 2841 928 2578 
Q 928 2378 1081 2264 
Q 1234 2150 1697 2047 
L 1894 2003 
Q 2506 1872 2764 1633 
Q 3022 1394 3022 966 
Q 3022 478 2636 193 
Q 2250 -91 1575 -91 
Q 1294 -91 989 -36 
Q 684 19 347 128 
L 347 722 
Q 666 556 975 473 
Q 1284 391 1588 391 
Q 1994 391 2212 530 
Q 2431 669 2431 922 
Q 2431 1156 2273 1281 
Q 2116 1406 1581 1522 
L 1381 1569 
Q 847 1681 609 1914 
Q 372 2147 372 2553 
Q 372 3047 722 3315 
Q 1072 3584 1716 3584 
Q 2034 3584 2315 3537 
Q 2597 3491 2834 3397 
z
" transform="scale(0.015625)"/>
      </defs>
      <use xlink:href="#DejaVuSans-4c"/>
      <use xlink:href="#DejaVuSans-6f" transform="translate(53.962891 0)"/>
      <use xlink:href="#DejaVuSans-73" transform="translate(115.144531 0)"/>
      <use xlink:href="#DejaVuSans-73" transform="translate(167.244141 0)"/>
     </g>
    </g>
   </g>
   <g id="FillBetweenPolyCollection_1"/>
   <g id="FillBetweenPolyCollection_2"/>
   <g id="line2d_12">
    <path d="M 119.147975 320.714275 
L 120.031218 326.227382 
L 120.914461 330.161578 
L 121.797703 330.832533 
L 122.680946 333.219448 
L 123.564189 336.273377 
L 124.447432 339.832506 
L 126.213917 347.960441 
L 127.09716 351.475827 
L 128.863645 360.786618 
L 129.746888 365.173438 
L 130.630131 367.997685 
L 131.513374 372.568715 
L 132.396616 375.872913 
L 135.046345 393.905493 
L 135.929587 397.368048 
L 136.81283 403.206192 
L 137.696073 410.845921 
L 138.579316 417.176198 
L 140.345801 433.637842 
L 142.112287 447.476522 
L 142.995529 457.275252 
L 143.878772 464.710279 
L 144.762015 473.25356 
L 146.5285 487.417171 
L 147.411743 496.331968 
L 148.294986 503.464473 
L 149.178229 512.379994 
L 150.061471 515.282615 
L 151.827957 529.589815 
L 152.7112 532.455369 
L 153.594442 537.246473 
L 154.477685 539.61756 
L 155.360928 542.461367 
L 156.244171 543.834283 
L 157.127413 544.643302 
L 158.010656 551.292522 
L 158.893899 553.876954 
L 159.777142 557.717237 
L 160.660384 559.627127 
L 161.543627 559.606875 
L 162.42687 560.757258 
L 163.310113 563.888239 
L 165.076598 567.008003 
L 165.959841 567.34257 
L 166.843084 568.118099 
L 167.726326 568.493229 
L 168.609569 569.452675 
L 169.492812 570.945844 
L 170.376055 571.31656 
L 171.259297 571.214848 
L 172.14254 569.994516 
L 173.025783 570.298156 
L 173.909026 569.68707 
L 175.675511 571.857678 
L 176.558754 573.970545 
L 177.441997 575.685915 
L 178.325239 576.47941 
L 179.208482 576.328496 
L 180.974967 578.362031 
L 181.85821 578.45915 
L 182.741453 577.659176 
L 183.624696 578.205921 
L 184.507938 577.808591 
L 185.391181 577.541213 
L 186.274424 576.692505 
L 187.157667 575.338024 
L 188.040909 575.502281 
L 188.924152 575.057138 
L 189.807395 574.119142 
L 190.690638 576.793279 
L 191.57388 577.799324 
L 192.457123 579.251515 
L 193.340366 579.381986 
L 194.223609 579.229152 
L 195.990094 579.293246 
L 196.873337 579.826546 
L 197.75658 579.913957 
L 198.639822 580.390188 
L 199.523065 580.597312 
L 200.406308 579.8541 
L 201.289551 580.399368 
L 203.056036 579.202564 
L 203.939279 576.993543 
L 204.822522 577.823734 
L 205.705764 578.171867 
L 206.589007 576.79782 
L 207.47225 575.730821 
L 208.355493 576.637768 
L 209.238735 576.956808 
L 210.121978 578.627527 
L 211.005221 578.746773 
L 211.888464 578.188814 
L 212.771706 578.689302 
L 213.654949 578.980367 
L 214.538192 580.537513 
L 215.421435 579.342629 
L 216.304677 578.740853 
L 217.18792 580.212372 
L 218.071163 581.059318 
L 218.954406 581.516061 
L 219.837648 581.014233 
L 220.720891 580.117731 
L 221.604134 577.749194 
L 223.370619 579.56962 
L 224.253862 579.872968 
L 225.137105 580.653309 
L 226.020348 580.965956 
L 226.90359 581.830101 
L 227.786833 581.788741 
L 229.553319 582.430707 
L 230.436561 582.864352 
L 233.08629 582.984139 
L 233.969532 582.230353 
L 234.852775 577.951489 
L 235.736018 576.448242 
L 236.619261 577.111886 
L 237.502503 578.783514 
L 238.385746 578.758357 
L 239.268989 580.454987 
L 240.152232 579.953393 
L 241.035474 581.056982 
L 241.918717 580.522153 
L 242.80196 580.997823 
L 243.685203 581.119426 
L 244.568445 580.85667 
L 245.451688 580.143373 
L 246.334931 581.374244 
L 247.218174 581.433143 
L 248.101416 582.175581 
L 248.984659 582.204082 
L 249.867902 582.476762 
L 251.634387 582.379365 
L 252.51763 582.460781 
L 253.400873 581.765469 
L 254.284115 581.953495 
L 255.167358 582.348545 
L 256.050601 582.49262 
L 256.933844 582.004732 
L 257.817086 581.911117 
L 258.700329 581.066284 
L 259.583572 581.150411 
L 260.466815 581.726336 
L 261.350057 582.569655 
L 262.2333 582.692232 
L 263.116543 583.042854 
L 264.883028 583.323294 
L 266.649514 582.009903 
L 267.532757 581.603136 
L 268.415999 581.830144 
L 269.299242 581.526911 
L 270.182485 582.15757 
L 271.065728 582.099286 
L 271.94897 581.397444 
L 272.832213 581.772345 
L 273.715456 581.717456 
L 274.598699 581.852634 
L 275.481941 581.717435 
L 276.365184 581.369248 
L 277.248427 581.581479 
L 278.13167 582.314351 
L 279.014912 582.533311 
L 279.898155 582.868531 
L 282.547883 583.091078 
L 283.431126 581.653324 
L 284.314369 581.470708 
L 285.197612 582.113985 
L 286.080854 581.282501 
L 287.84734 580.936072 
L 288.730583 581.327371 
L 289.613825 580.513032 
L 290.497068 580.712537 
L 291.380311 579.945514 
L 292.263554 581.389152 
L 293.146796 582.418953 
L 294.030039 583.033238 
L 294.913282 583.271506 
L 295.796525 583.756088 
L 296.679767 583.820698 
L 298.446253 583.618017 
L 299.329496 583.807091 
L 300.212738 583.803397 
L 301.095981 584.097209 
L 301.979224 583.954974 
L 302.862467 581.048335 
L 303.745709 581.043786 
L 304.628952 579.358993 
L 305.512195 580.048615 
L 306.395438 580.43771 
L 307.27868 581.460616 
L 308.161923 582.26354 
L 309.045166 582.457097 
L 310.811651 583.686799 
L 315.227865 584.123279 
L 316.111108 583.865344 
L 316.994351 583.955157 
L 317.877593 583.889576 
L 318.760836 583.295763 
L 319.644079 583.153923 
L 320.527321 582.868943 
L 321.410564 581.960527 
L 322.293807 580.466518 
L 323.17705 581.417066 
L 324.060292 581.416663 
L 324.943535 581.692958 
L 325.826778 581.68447 
L 326.710021 582.545786 
L 327.593263 582.63451 
L 328.476506 583.30866 
L 330.242992 583.222867 
L 331.126234 582.945747 
L 332.009477 583.259638 
L 332.89272 583.451321 
L 334.659205 583.218264 
L 335.542448 583.57913 
L 336.425691 583.575937 
L 337.308934 583.119339 
L 338.192176 583.439172 
L 339.075419 582.65655 
L 339.958662 583.044538 
L 340.841905 582.80537 
L 341.725147 582.83672 
L 342.60839 581.864683 
L 344.374876 582.26526 
L 345.258118 581.056296 
L 346.141361 581.646828 
L 347.024604 581.824144 
L 347.907847 582.159471 
L 348.791089 582.782029 
L 349.674332 583.224182 
L 352.32406 584.001468 
L 353.207303 584.08109 
L 354.090546 583.900176 
L 354.973789 584.040273 
L 357.623517 583.758846 
L 358.50676 582.718207 
L 359.390002 582.228617 
L 360.273245 582.157707 
L 361.156488 581.851151 
L 362.922973 582.694154 
L 363.806216 583.068893 
L 364.689459 582.695578 
L 365.572702 582.588483 
L 366.455944 583.008132 
L 370.872158 582.881616 
L 371.755401 582.977607 
L 372.638644 581.419312 
L 374.405129 583.219919 
L 375.288372 582.995186 
L 376.171615 582.552542 
L 377.054857 583.162592 
L 377.9381 583.592311 
L 378.821343 583.575389 
L 379.704586 583.672979 
L 381.471071 583.344691 
L 382.354314 583.790372 
L 384.120799 583.534651 
L 385.004042 583.006004 
L 385.887285 582.847403 
L 387.65377 583.717074 
L 388.537013 583.707504 
L 390.303498 583.973469 
L 392.953227 583.106182 
L 394.719712 583.564633 
L 396.486198 583.947075 
L 397.36944 583.60732 
L 399.135926 583.459716 
L 400.019169 583.696111 
L 400.902411 583.640789 
L 402.668897 583.918736 
L 404.435382 583.945569 
L 405.318625 583.640787 
L 406.201868 583.087421 
L 407.085111 582.026627 
L 407.968353 581.431333 
L 408.851596 581.774117 
L 409.734839 581.482098 
L 410.618082 582.126358 
L 411.501324 582.307788 
L 412.384567 581.893488 
L 413.26781 583.492387 
L 414.151053 583.591364 
L 415.034295 583.949618 
L 415.917538 583.943494 
L 416.800781 584.218543 
L 417.684024 584.261968 
L 419.450509 584.182248 
L 421.216995 584.324834 
L 422.100237 584.132304 
L 423.866723 584.166611 
L 424.749966 583.904786 
L 425.633208 583.511726 
L 426.516451 582.417458 
L 427.399694 582.633154 
L 428.282937 583.13908 
L 429.166179 582.941054 
L 430.049422 582.459059 
L 431.815908 583.498672 
L 432.69915 583.559779 
L 433.582393 583.211949 
L 434.465636 583.07362 
L 435.348879 583.379515 
L 436.232121 583.178573 
L 437.115364 583.32276 
L 437.998607 583.03884 
L 439.765092 582.068004 
L 440.648335 582.920778 
L 441.531578 582.980097 
L 442.414821 583.455889 
L 443.298063 583.503346 
L 444.181306 583.8193 
L 445.064549 583.960178 
L 445.947792 583.632735 
L 446.831034 583.607979 
L 447.714277 583.866267 
L 449.480763 583.886391 
L 450.364005 583.548999 
L 451.247248 583.803263 
L 452.130491 583.916224 
L 454.780219 583.083073 
L 455.663462 582.063111 
L 456.546705 582.090548 
L 457.429947 582.003643 
L 458.31319 582.117203 
L 459.196433 583.220981 
L 460.962918 584.157517 
L 462.729404 584.219534 
L 464.495889 583.672006 
L 466.262375 584.14892 
L 467.145617 584.16524 
L 468.02886 584.308447 
L 468.912103 584.122917 
L 470.678588 584.07769 
L 473.328317 583.359282 
L 474.211559 583.525729 
L 475.094802 583.485152 
L 476.861288 583.979103 
L 477.74453 583.934241 
L 478.627773 582.626665 
L 479.511016 582.527256 
L 482.160744 583.587644 
L 483.043987 583.330227 
L 483.92723 583.456944 
L 484.810472 584.042657 
L 485.693715 584.082308 
L 486.576958 584.257547 
L 488.343443 584.320693 
L 490.109929 583.806498 
L 490.993172 583.534675 
L 492.759657 583.823787 
L 494.526143 583.456013 
L 495.409385 583.329537 
L 496.292628 583.903067 
L 497.175871 583.522781 
L 498.059114 583.831986 
L 498.942356 583.968579 
L 499.825599 583.923647 
L 501.592085 584.274887 
L 502.475327 583.949257 
L 503.35857 583.978657 
L 504.241813 583.653189 
L 505.125056 584.099974 
L 506.008298 584.14594 
L 507.774784 583.789052 
L 508.658027 583.759371 
L 509.541269 583.447232 
L 510.424512 583.764801 
L 511.307755 583.557033 
L 512.190998 582.778458 
L 513.07424 582.701876 
L 513.957483 582.202069 
L 514.840726 582.676357 
L 515.723969 583.493804 
L 516.607211 583.933463 
L 517.490454 584.211576 
L 518.373697 584.20782 
L 519.25694 584.348836 
L 520.140182 584.36024 
L 521.023425 584.242881 
L 521.906668 584.31404 
L 522.789911 584.225386 
L 523.673153 583.995903 
L 524.556396 583.541975 
L 527.206124 584.028079 
L 528.089367 583.553095 
L 528.97261 583.289367 
L 529.855853 583.454833 
L 530.739095 583.210198 
L 532.505581 584.019665 
L 533.388823 584.145493 
L 534.272066 583.991147 
L 536.921794 584.375388 
L 538.68828 584.332105 
L 541.338008 584.217952 
L 542.221251 583.886085 
L 543.104494 583.774959 
L 543.987736 583.301132 
L 544.870979 581.437936 
L 545.754222 581.592718 
L 546.637465 581.975862 
L 548.40395 583.294844 
L 549.287193 583.905144 
L 550.170436 583.990251 
L 552.820164 584.47245 
L 556.353135 584.556246 
L 558.11962 584.004071 
L 560.769349 583.812121 
L 561.652591 583.287463 
L 564.30232 584.092552 
L 565.185562 584.018291 
L 566.068805 584.224551 
L 567.835291 584.374044 
L 568.718533 584.014097 
L 569.601776 583.997927 
L 570.485019 583.824469 
L 571.368262 583.956774 
L 573.134747 583.649118 
L 574.01799 583.732891 
L 574.901233 583.950142 
L 575.784475 583.419073 
L 577.550961 583.776634 
L 578.434204 583.902773 
L 579.317446 584.173902 
L 583.73366 584.439633 
L 586.383388 584.279093 
L 587.266631 583.926324 
L 588.149874 583.900073 
L 589.916359 583.072043 
L 590.799602 581.851606 
L 591.682845 582.670973 
L 592.566088 583.116724 
L 593.44933 583.187655 
L 594.332573 583.853382 
L 596.099059 584.272074 
L 598.748787 584.343987 
L 599.63203 584.304473 
L 601.398515 584.434313 
L 603.165 584.493 
L 604.048243 584.201594 
L 604.931486 584.128117 
L 605.814729 584.197409 
L 606.697971 583.977097 
L 607.581214 584.175697 
L 611.997428 584.444085 
L 612.880671 584.397772 
L 613.763913 584.194189 
L 615.530399 584.156738 
L 616.413642 584.249105 
L 617.296884 584.013059 
L 618.180127 584.120694 
L 619.06337 584.063169 
L 619.946613 583.873005 
L 620.829855 584.008177 
L 621.713098 583.988928 
L 623.479584 584.265539 
L 624.362826 584.325492 
L 625.246069 584.268459 
L 626.129312 584.402087 
L 628.77904 584.173269 
L 629.662283 583.841857 
L 630.545526 584.138234 
L 631.428768 583.967193 
L 632.312011 582.752211 
L 633.195254 582.751387 
L 634.078497 583.654978 
L 634.961739 583.805574 
L 635.844982 584.133221 
L 636.728225 584.217056 
L 637.611468 584.47168 
L 638.49471 584.43617 
L 639.377953 584.556766 
L 647.327138 584.455807 
L 649.093623 584.244334 
L 649.976866 583.53368 
L 650.860109 583.873544 
L 652.626594 583.67026 
L 653.509837 583.911796 
L 654.39308 583.864076 
L 655.276323 584.178408 
L 656.159565 584.083903 
L 657.042808 583.517446 
L 657.926051 583.953042 
L 659.692536 583.896455 
L 660.575779 584.120876 
L 661.459022 584.140589 
L 662.342265 583.897154 
L 664.991993 584.274081 
L 665.875236 583.91181 
L 666.758478 583.835925 
L 667.641721 583.219575 
L 668.524964 583.628011 
L 670.291449 583.868412 
L 671.174692 584.175297 
L 672.941177 584.478378 
L 673.82442 584.303722 
L 674.707663 584.53082 
L 678.240634 584.573903 
L 682.656848 584.359317 
L 684.423333 583.399359 
L 686.189819 583.812459 
L 687.073061 584.10721 
L 687.956304 584.277661 
L 690.606032 584.233178 
L 691.489275 584.068187 
L 695.905489 584.29138 
L 696.788732 584.040205 
L 697.671974 584.154724 
L 699.43846 584.077806 
L 700.321703 584.193118 
L 701.204945 583.854131 
L 702.971431 584.05749 
L 706.504402 584.504402 
L 711.803858 584.414806 
L 712.687101 584.262274 
L 713.570344 584.379853 
L 715.336829 584.128234 
L 716.220072 584.263101 
L 718.8698 583.813314 
L 721.519529 584.284428 
L 722.402771 584.285649 
L 723.286014 584.12497 
L 725.0525 584.220111 
L 726.818985 584.359679 
L 727.702228 584.17409 
L 728.585471 584.409219 
L 729.468713 584.354127 
L 731.235199 584.522199 
L 733.001684 584.594368 
L 734.76817 584.452325 
L 737.417898 583.77506 
L 739.184384 583.917807 
L 740.067626 583.950145 
L 741.834112 584.250627 
L 743.600597 583.469874 
L 744.48384 583.949534 
L 747.133568 584.454831 
L 749.783296 584.541866 
L 750.666539 584.388388 
L 754.19951 584.598229 
L 755.082753 584.535815 
L 757.732481 584.617966 
L 762.148695 584.594249 
L 764.798423 583.893902 
L 766.564909 583.931292 
L 767.448151 583.959615 
L 768.331394 583.825903 
L 770.09788 584.015932 
L 770.981122 584.26148 
L 772.747608 584.22415 
L 784.229764 584.6122 
L 785.113006 584.382344 
L 785.996249 584.533126 
L 786.879492 583.401339 
L 787.762735 583.338626 
L 788.645977 584.002197 
L 790.412463 584.389129 
L 797.478405 584.569232 
L 798.361648 584.484384 
L 799.24489 584.52333 
L 800.128133 584.382584 
L 801.011376 584.48764 
L 807.194075 584.285532 
L 808.077318 584.449009 
L 810.727046 584.319794 
L 811.610289 584.446167 
L 814.260017 584.040571 
L 817.792988 584.440454 
L 818.676231 584.31189 
L 822.209202 584.539155 
L 823.092444 584.450377 
L 823.975687 584.535661 
L 825.742173 584.501012 
L 826.625415 584.584297 
L 827.508658 584.524463 
L 828.391901 584.344912 
L 830.158386 583.807424 
L 831.924872 584.222904 
L 838.990814 584.591813 
L 844.29027 584.536569 
L 846.056756 584.005548 
L 846.939999 584.29494 
L 848.706484 584.237002 
L 849.589727 584.217083 
L 850.47297 583.773118 
L 851.356212 584.093571 
L 852.239455 584.270268 
L 853.122698 584.045774 
L 854.005941 584.441315 
L 855.772426 584.522127 
L 857.538912 584.086143 
L 858.422154 584.110692 
L 860.18864 584.448851 
L 864.604854 584.603979 
L 869.021067 584.616305 
L 870.787553 584.569886 
L 872.554038 584.247965 
L 873.437281 583.6562 
L 874.320524 583.673474 
L 875.203767 583.312928 
L 876.087009 583.134996 
L 876.970252 583.912055 
L 877.853495 584.215427 
L 881.386466 584.581469 
L 893.751864 584.642922 
L 900.817806 584.588619 
L 901.701049 584.320447 
L 902.584292 584.196688 
L 903.467534 584.19002 
L 904.350777 583.863005 
L 905.23402 583.411273 
L 906.117263 583.683315 
L 907.883748 584.353272 
L 908.766991 584.497256 
L 925.548603 584.600799 
L 926.431846 584.51978 
L 927.315089 583.608434 
L 929.081574 583.343579 
L 929.964817 584.115269 
L 930.84806 584.273413 
L 931.731302 584.015572 
L 933.497788 584.455212 
L 939.680487 584.592959 
L 940.56373 584.382726 
L 941.446973 583.971123 
L 942.330215 584.264127 
L 946.746429 584.575056 
L 950.2794 584.58225 
L 951.162643 584.408022 
L 952.045886 584.518242 
L 953.812371 584.470957 
L 954.695614 584.548231 
L 955.578857 584.346043 
L 956.462099 584.54654 
L 958.228585 584.512336 
L 959.111827 584.418199 
L 959.99507 584.093092 
L 960.878313 583.408567 
L 962.644798 584.236165 
L 963.528041 584.248405 
L 964.411284 584.448149 
L 972.360469 584.631752 
L 982.959382 584.648926 
L 1001.507479 584.651648 
L 1001.507479 584.651648 
" clip-path="url(#pe137a16b2d)" style="fill: none; stroke: #4c72b0; stroke-width: 6; stroke-linecap: round"/>
   </g>
   <g id="line2d_13">
    <path d="M 119.147975 324.566746 
L 120.031218 326.228427 
L 120.914461 326.283858 
L 121.797703 323.219528 
L 122.680946 313.899463 
L 123.564189 308.734673 
L 124.447432 302.14496 
L 125.330674 292.170987 
L 126.213917 289.858185 
L 127.980403 279.382926 
L 130.630131 269.605157 
L 131.513374 268.371239 
L 132.396616 264.510378 
L 133.279859 262.215401 
L 135.929587 252.446076 
L 136.81283 250.695835 
L 137.696073 246.286486 
L 140.345801 239.216635 
L 141.229044 236.103361 
L 142.112287 234.220173 
L 143.878772 229.942297 
L 144.762015 226.532787 
L 145.645258 224.760272 
L 146.5285 221.180986 
L 147.411743 219.601459 
L 148.294986 217.467868 
L 149.178229 216.989552 
L 150.061471 210.875957 
L 150.944714 210.248398 
L 151.827957 210.064443 
L 152.7112 204.174446 
L 155.360928 191.937473 
L 156.244171 188.395954 
L 157.127413 188.597224 
L 158.010656 182.848001 
L 158.893899 181.775684 
L 159.777142 179.674527 
L 160.660384 176.729367 
L 161.543627 174.220844 
L 162.42687 170.01365 
L 164.193355 163.037773 
L 165.076598 158.896678 
L 165.959841 158.050505 
L 166.843084 154.404638 
L 167.726326 154.953636 
L 168.609569 152.880595 
L 169.492812 147.670078 
L 170.376055 145.007592 
L 171.259297 141.563157 
L 172.14254 141.820742 
L 173.025783 141.721997 
L 173.909026 140.133249 
L 174.792268 133.74076 
L 175.675511 134.0259 
L 176.558754 136.250248 
L 177.441997 134.433158 
L 178.325239 126.704467 
L 179.208482 125.733148 
L 180.091725 124.484246 
L 180.974967 117.504725 
L 181.85821 113.472935 
L 182.741453 117.489768 
L 183.624696 115.79276 
L 184.507938 108.821761 
L 185.391181 113.884858 
L 186.274424 110.328677 
L 187.157667 108.719692 
L 188.040909 111.332108 
L 188.924152 109.057689 
L 189.807395 111.235292 
L 190.690638 108.100951 
L 191.57388 103.711169 
L 192.457123 101.10599 
L 193.340366 100.22768 
L 194.223609 96.739956 
L 195.106851 95.819296 
L 195.990094 96.647804 
L 196.873337 98.973901 
L 197.75658 95.483389 
L 198.639822 96.173268 
L 199.523065 97.283003 
L 200.406308 93.732719 
L 201.289551 91.775981 
L 202.172793 95.1418 
L 203.056036 92.392685 
L 203.939279 93.813238 
L 204.822522 91.631508 
L 205.705764 90.354087 
L 206.589007 90.242851 
L 207.47225 93.024453 
L 208.355493 87.775927 
L 209.238735 86.561549 
L 210.121978 88.593607 
L 211.005221 88.121965 
L 211.888464 91.67568 
L 212.771706 93.25888 
L 213.654949 92.382982 
L 214.538192 90.543216 
L 215.421435 86.889093 
L 216.304677 92.348673 
L 217.18792 92.07983 
L 218.071163 90.189082 
L 218.954406 86.045574 
L 219.837648 81.261614 
L 220.720891 82.964359 
L 221.604134 85.158312 
L 222.487377 90.379605 
L 223.370619 90.003117 
L 224.253862 88.542465 
L 225.137105 86.41 
L 226.020348 91.955352 
L 226.90359 95.826426 
L 227.786833 91.361753 
L 228.670076 88.132097 
L 229.553319 87.772871 
L 230.436561 88.807556 
L 231.319804 83.630275 
L 232.203047 82.156757 
L 233.08629 84.00569 
L 233.969532 79.797102 
L 234.852775 87.687742 
L 235.736018 87.657561 
L 236.619261 94.793832 
L 237.502503 89.101112 
L 238.385746 89.538873 
L 239.268989 89.690423 
L 240.152232 86.281878 
L 241.035474 91.484944 
L 241.918717 89.964948 
L 242.80196 89.731861 
L 243.685203 90.512874 
L 244.568445 92.08251 
L 245.451688 95.361485 
L 246.334931 94.557904 
L 247.218174 95.07018 
L 248.101416 99.698624 
L 248.984659 99.655256 
L 249.867902 98.396491 
L 250.751144 99.091034 
L 251.634387 102.413645 
L 253.400873 94.428227 
L 254.284115 93.93734 
L 255.167358 102.766867 
L 256.050601 103.23942 
L 256.933844 94.305197 
L 257.817086 92.755127 
L 258.700329 89.604007 
L 259.583572 93.437983 
L 260.466815 96.201037 
L 261.350057 96.625343 
L 262.2333 100.075648 
L 263.116543 105.259684 
L 263.999786 101.978725 
L 264.883028 96.886252 
L 265.766271 94.211705 
L 266.649514 95.150592 
L 267.532757 96.548201 
L 268.415999 100.622341 
L 269.299242 98.584654 
L 270.182485 104.43482 
L 271.94897 107.305357 
L 272.832213 110.635206 
L 273.715456 115.786327 
L 274.598699 119.411662 
L 275.481941 117.64641 
L 276.365184 112.487302 
L 277.248427 116.139441 
L 278.13167 115.758665 
L 279.014912 118.813184 
L 279.898155 120.223659 
L 280.781398 119.604274 
L 281.664641 123.903031 
L 282.547883 123.246013 
L 283.431126 119.769655 
L 284.314369 120.199535 
L 285.197612 123.931925 
L 286.080854 126.28386 
L 287.84734 143.783485 
L 288.730583 141.016786 
L 289.613825 145.813479 
L 290.497068 142.772924 
L 291.380311 138.341676 
L 292.263554 145.198463 
L 293.146796 145.577014 
L 294.030039 145.253277 
L 294.913282 147.889173 
L 295.796525 146.383517 
L 296.679767 148.828328 
L 297.56301 147.384107 
L 298.446253 146.632472 
L 299.329496 141.271745 
L 300.212738 143.879925 
L 301.095981 143.812299 
L 301.979224 144.943638 
L 302.862467 147.128987 
L 303.745709 154.83787 
L 304.628952 147.096983 
L 305.512195 151.26491 
L 306.395438 148.731244 
L 307.27868 151.042357 
L 308.161923 156.920158 
L 309.045166 152.931684 
L 309.928409 157.90488 
L 310.811651 160.368721 
L 311.694894 160.813827 
L 313.46138 162.392577 
L 314.344622 160.836288 
L 315.227865 161.177851 
L 316.111108 164.001695 
L 316.994351 159.014025 
L 317.877593 154.837307 
L 318.760836 157.673482 
L 319.644079 152.217628 
L 320.527321 155.114325 
L 321.410564 155.600012 
L 322.293807 164.039837 
L 323.17705 165.671069 
L 324.060292 166.204413 
L 324.943535 165.073315 
L 325.826778 171.13089 
L 326.710021 171.555464 
L 327.593263 171.204493 
L 329.359749 179.895498 
L 330.242992 182.015472 
L 331.126234 178.938813 
L 333.775963 175.812218 
L 335.542448 184.333152 
L 336.425691 186.744592 
L 337.308934 181.595964 
L 338.192176 186.225856 
L 339.075419 180.633383 
L 339.958662 183.886251 
L 340.841905 185.429619 
L 341.725147 187.851271 
L 342.60839 182.270351 
L 343.491633 183.683291 
L 344.374876 191.236765 
L 345.258118 196.527105 
L 346.141361 191.276515 
L 347.024604 192.804311 
L 347.907847 199.264078 
L 348.791089 204.017161 
L 349.674332 205.961784 
L 350.557575 207.281688 
L 351.440818 210.051121 
L 352.32406 211.63239 
L 353.207303 209.395578 
L 354.090546 211.856819 
L 354.973789 211.138341 
L 355.857031 211.562459 
L 356.740274 212.836475 
L 357.623517 209.895069 
L 358.50676 212.737623 
L 359.390002 208.10816 
L 360.273245 207.555061 
L 361.156488 206.486818 
L 362.039731 204.262229 
L 362.922973 209.211998 
L 363.806216 211.829587 
L 364.689459 209.702831 
L 365.572702 213.48722 
L 366.455944 213.692565 
L 367.339187 213.518233 
L 368.22243 216.369337 
L 369.988915 207.347545 
L 370.872158 213.493225 
L 371.755401 212.517134 
L 372.638644 205.925679 
L 373.521886 205.952215 
L 374.405129 215.523969 
L 375.288372 220.835537 
L 376.171615 223.231109 
L 377.054857 220.810717 
L 377.9381 220.059082 
L 378.821343 223.505527 
L 379.704586 225.897293 
L 380.587828 227.514775 
L 381.471071 229.718189 
L 382.354314 225.265793 
L 383.237557 223.616603 
L 384.120799 225.199856 
L 385.004042 221.049432 
L 385.887285 234.755849 
L 386.770528 242.691573 
L 387.65377 240.0991 
L 388.537013 246.36092 
L 389.420256 246.415654 
L 390.303498 247.949239 
L 391.186741 250.75475 
L 392.069984 251.030213 
L 392.953227 246.511638 
L 393.836469 243.606899 
L 394.719712 245.418682 
L 395.602955 249.163268 
L 396.486198 250.373116 
L 397.36944 252.932406 
L 398.252683 250.683183 
L 399.135926 252.598081 
L 400.019169 252.697684 
L 400.902411 251.717358 
L 401.785654 249.82897 
L 402.668897 249.908175 
L 403.55214 256.055463 
L 404.435382 256.524611 
L 405.318625 250.387295 
L 406.201868 254.637858 
L 407.968353 258.823609 
L 408.851596 263.320902 
L 409.734839 260.873544 
L 410.618082 260.824466 
L 411.501324 266.05565 
L 412.384567 270.28544 
L 413.26781 273.854111 
L 414.151053 278.882926 
L 415.034295 279.107515 
L 415.917538 279.556615 
L 416.800781 282.739176 
L 417.684024 286.491508 
L 418.567266 288.293347 
L 419.450509 288.820606 
L 420.333752 289.715294 
L 421.216995 292.655762 
L 422.100237 290.099474 
L 422.98348 283.895765 
L 423.866723 282.015632 
L 424.749966 284.629897 
L 425.633208 285.961541 
L 426.516451 279.555167 
L 427.399694 274.729983 
L 428.282937 281.660399 
L 430.049422 288.572081 
L 430.932665 286.152251 
L 431.815908 287.435354 
L 432.69915 294.665251 
L 433.582393 297.471164 
L 434.465636 297.987782 
L 435.348879 301.050718 
L 436.232121 297.557151 
L 437.115364 299.772466 
L 437.998607 296.155843 
L 438.88185 295.119255 
L 439.765092 300.032545 
L 440.648335 303.748932 
L 441.531578 305.030427 
L 442.414821 304.210603 
L 443.298063 311.41056 
L 444.181306 312.218564 
L 445.064549 312.803103 
L 445.947792 316.071062 
L 446.831034 309.33701 
L 447.714277 313.347624 
L 448.59752 315.862768 
L 449.480763 317.763782 
L 450.364005 313.612206 
L 451.247248 316.286029 
L 452.130491 320.360624 
L 453.013734 320.827896 
L 453.896976 319.797018 
L 454.780219 321.485959 
L 455.663462 318.720976 
L 456.546705 307.636329 
L 458.31319 320.722879 
L 459.196433 323.255606 
L 460.962918 335.840789 
L 461.846161 340.865717 
L 462.729404 340.765845 
L 463.612646 339.838752 
L 464.495889 332.337251 
L 465.379132 329.935836 
L 466.262375 334.132657 
L 467.145617 337.084919 
L 468.02886 343.563958 
L 468.912103 346.216499 
L 469.795346 345.823661 
L 470.678588 352.153778 
L 471.561831 343.690526 
L 472.445074 342.827226 
L 473.328317 340.040398 
L 474.211559 344.401419 
L 475.094802 345.614591 
L 475.978045 351.933798 
L 476.861288 353.75306 
L 477.74453 358.406565 
L 478.627773 358.601215 
L 479.511016 349.249709 
L 480.394259 344.48821 
L 481.277501 346.960843 
L 482.160744 342.689508 
L 483.043987 350.746948 
L 483.92723 352.937068 
L 484.810472 357.817121 
L 485.693715 361.667635 
L 486.576958 366.056265 
L 487.460201 367.764679 
L 488.343443 368.601162 
L 489.226686 372.278081 
L 490.109929 370.520495 
L 490.993172 365.875969 
L 491.876414 363.5436 
L 492.759657 364.543949 
L 493.6429 359.92301 
L 494.526143 359.8508 
L 495.409385 363.033281 
L 496.292628 361.995581 
L 497.175871 370.242244 
L 498.059114 376.386462 
L 498.942356 379.41072 
L 499.825599 381.302191 
L 500.708842 389.916938 
L 501.592085 387.546455 
L 502.475327 389.224231 
L 503.35857 389.723816 
L 504.241813 388.302593 
L 506.008298 390.149985 
L 506.891541 387.345077 
L 507.774784 387.938756 
L 508.658027 391.611307 
L 509.541269 391.36128 
L 510.424512 389.162234 
L 511.307755 396.983425 
L 512.190998 393.360033 
L 513.07424 388.445806 
L 513.957483 390.732916 
L 514.840726 389.07807 
L 515.723969 396.306117 
L 516.607211 406.505109 
L 517.490454 409.290169 
L 518.373697 410.169752 
L 519.25694 413.558811 
L 520.140182 416.202587 
L 521.023425 416.991211 
L 521.906668 420.229123 
L 522.789911 420.728627 
L 523.673153 414.309467 
L 524.556396 409.010457 
L 525.439639 406.682216 
L 526.322882 411.331514 
L 527.206124 410.811223 
L 528.089367 407.923384 
L 528.97261 401.726188 
L 529.855853 402.04569 
L 530.739095 403.564145 
L 531.622338 411.942348 
L 532.505581 414.041375 
L 533.388823 420.692897 
L 534.272066 421.333497 
L 535.155309 425.076488 
L 536.038552 426.062161 
L 537.805037 432.718548 
L 538.68828 430.9968 
L 539.571523 431.412662 
L 540.454765 431.335065 
L 541.338008 429.131798 
L 542.221251 427.521701 
L 543.987736 414.92447 
L 544.870979 413.676011 
L 545.754222 407.804174 
L 546.637465 406.847154 
L 547.520707 414.346872 
L 548.40395 417.560004 
L 549.287193 423.372121 
L 550.170436 428.019717 
L 551.053678 434.8718 
L 551.936921 440.432256 
L 552.820164 444.82949 
L 554.586649 454.351817 
L 555.469892 456.57055 
L 556.353135 457.234818 
L 557.236378 457.396312 
L 558.11962 448.598989 
L 559.886106 435.92849 
L 560.769349 434.008741 
L 561.652591 431.465774 
L 562.535834 430.577252 
L 563.419077 437.505699 
L 564.30232 443.526619 
L 565.185562 446.008272 
L 566.068805 450.173973 
L 566.952048 455.270494 
L 567.835291 457.921896 
L 568.718533 459.205039 
L 569.601776 453.347796 
L 570.485019 449.731896 
L 571.368262 451.538949 
L 572.251504 456.839326 
L 573.134747 453.16691 
L 574.01799 454.930795 
L 574.901233 452.597797 
L 575.784475 452.155438 
L 577.550961 454.323311 
L 578.434204 457.048933 
L 579.317446 454.558288 
L 581.083932 469.483357 
L 582.850417 475.50996 
L 583.73366 477.080722 
L 584.616903 477.988584 
L 585.500146 475.554186 
L 586.383388 471.324557 
L 587.266631 472.971429 
L 588.149874 464.102581 
L 589.033117 458.593454 
L 589.916359 461.668585 
L 590.799602 454.061745 
L 591.682845 454.692227 
L 592.566088 463.044483 
L 593.44933 458.564225 
L 594.332573 467.125605 
L 595.215816 474.59462 
L 596.099059 476.235535 
L 596.982301 480.067273 
L 597.865544 477.147598 
L 598.748787 477.41959 
L 599.63203 477.916099 
L 600.515272 480.595893 
L 601.398515 484.192085 
L 602.281758 485.403575 
L 603.165 487.260663 
L 604.048243 488.310311 
L 604.931486 481.187871 
L 605.814729 476.136796 
L 606.697971 477.764999 
L 607.581214 478.13378 
L 608.464457 476.747885 
L 609.3477 478.005872 
L 611.114185 482.919664 
L 611.997428 487.921018 
L 612.880671 486.749834 
L 613.763913 489.308776 
L 614.647156 486.796138 
L 615.530399 485.597012 
L 616.413642 486.293592 
L 617.296884 488.555962 
L 618.180127 484.44947 
L 619.06337 487.988202 
L 619.946613 486.562877 
L 620.829855 492.022665 
L 621.713098 495.172391 
L 622.596341 496.516232 
L 623.479584 497.494326 
L 624.362826 495.872657 
L 625.246069 497.905237 
L 626.129312 501.486044 
L 627.012555 504.503265 
L 627.895797 503.771472 
L 628.77904 499.093869 
L 629.662283 502.981159 
L 630.545526 498.948116 
L 631.428768 497.472387 
L 632.312011 495.494541 
L 633.195254 494.298483 
L 634.078497 495.405505 
L 634.961739 499.784036 
L 635.844982 501.018765 
L 636.728225 506.99375 
L 637.611468 508.729296 
L 638.49471 512.561041 
L 639.377953 515.435498 
L 640.261196 517.874264 
L 641.144439 519.749298 
L 642.027681 521.207564 
L 642.910924 523.07851 
L 643.794167 523.667606 
L 644.67741 524.095423 
L 646.443895 525.701835 
L 647.327138 520.936805 
L 648.210381 515.372482 
L 649.093623 513.837952 
L 649.976866 506.04197 
L 650.860109 501.228029 
L 651.743352 502.705313 
L 652.626594 506.269756 
L 653.509837 507.336558 
L 654.39308 511.363731 
L 655.276323 510.810625 
L 656.159565 512.938641 
L 657.042808 513.865634 
L 657.926051 516.989126 
L 658.809294 521.892612 
L 660.575779 515.899976 
L 661.459022 523.156543 
L 662.342265 523.800245 
L 663.225507 521.64881 
L 664.10875 524.95609 
L 664.991993 529.114169 
L 665.875236 526.089245 
L 666.758478 521.28496 
L 667.641721 519.250953 
L 668.524964 519.227238 
L 669.408207 524.236841 
L 670.291449 522.250987 
L 671.174692 526.10463 
L 672.941177 530.523073 
L 673.82442 534.364879 
L 674.707663 537.013299 
L 675.590906 538.899611 
L 676.474148 539.303234 
L 677.357391 540.768506 
L 678.240634 540.652673 
L 679.123877 541.352647 
L 680.007119 541.594639 
L 680.890362 540.66185 
L 681.773605 541.272449 
L 683.54009 536.179651 
L 684.423333 530.279931 
L 685.306576 525.345095 
L 686.189819 525.739012 
L 687.073061 531.570083 
L 687.956304 533.631823 
L 688.839547 537.389512 
L 690.606032 536.506213 
L 691.489275 537.274678 
L 692.372518 535.324858 
L 693.255761 539.691214 
L 695.022246 545.270282 
L 695.905489 542.101709 
L 696.788732 540.022838 
L 697.671974 537.119332 
L 698.555217 536.715732 
L 699.43846 540.179135 
L 700.321703 541.00555 
L 701.204945 542.113707 
L 702.088188 538.743977 
L 702.971431 536.250366 
L 703.854674 538.826436 
L 704.737916 542.83448 
L 705.621159 545.560705 
L 706.504402 546.799049 
L 707.387645 548.969187 
L 708.270887 551.77268 
L 709.15413 551.934331 
L 710.037373 554.883206 
L 710.920616 553.744784 
L 711.803858 552.060571 
L 712.687101 549.141837 
L 713.570344 551.820814 
L 714.453587 552.264066 
L 715.336829 546.358654 
L 716.220072 546.224196 
L 717.986558 543.565929 
L 718.8698 542.629652 
L 719.753043 546.237618 
L 720.636286 547.402462 
L 721.519529 548.96598 
L 723.286014 553.191244 
L 724.169257 555.024346 
L 725.0525 552.100408 
L 725.935742 553.026289 
L 726.818985 554.194859 
L 727.702228 554.136553 
L 728.585471 555.790988 
L 729.468713 556.352781 
L 730.351956 557.848574 
L 732.118442 562.186052 
L 733.001684 562.437387 
L 733.884927 562.167055 
L 734.76817 561.328367 
L 735.651413 561.100758 
L 736.534655 558.244379 
L 737.417898 556.463471 
L 738.301141 554.325756 
L 739.184384 554.154566 
L 740.067626 553.408623 
L 741.834112 556.305261 
L 742.717355 556.622718 
L 743.600597 558.349274 
L 744.48384 555.558226 
L 745.367083 555.660138 
L 746.250325 559.536015 
L 747.133568 562.690962 
L 748.016811 563.765155 
L 748.900054 565.431584 
L 749.783296 566.176059 
L 750.666539 564.900694 
L 751.549782 564.540669 
L 752.433025 565.684021 
L 753.316267 568.03861 
L 754.19951 568.742491 
L 755.082753 568.344677 
L 755.965996 568.149036 
L 756.849238 569.715099 
L 757.732481 570.518175 
L 760.382209 572.220078 
L 761.265452 571.693486 
L 762.148695 572.238045 
L 763.031938 570.222674 
L 763.91518 564.134491 
L 764.798423 561.613648 
L 765.681666 556.554319 
L 766.564909 558.888371 
L 767.448151 563.519089 
L 768.331394 561.492752 
L 769.214637 560.277828 
L 770.09788 558.538324 
L 770.981122 561.739026 
L 771.864365 562.405631 
L 772.747608 564.216794 
L 773.630851 564.609863 
L 774.514093 566.090209 
L 775.397336 568.105024 
L 776.280579 568.71314 
L 777.163822 569.493044 
L 778.047064 570.121181 
L 778.930307 569.755591 
L 780.696793 571.13766 
L 781.580035 572.018557 
L 782.463278 573.147736 
L 783.346521 573.674678 
L 784.229764 573.406727 
L 785.113006 574.446997 
L 785.996249 572.554743 
L 786.879492 572.916502 
L 787.762735 569.911027 
L 788.645977 569.622692 
L 789.52922 568.552022 
L 790.412463 569.094944 
L 791.295706 570.082604 
L 792.178948 572.174496 
L 793.062191 572.223433 
L 793.945434 573.57363 
L 794.828677 574.293034 
L 795.711919 574.647668 
L 796.595162 575.529627 
L 797.478405 575.830649 
L 798.361648 575.82968 
L 799.24489 574.384635 
L 800.128133 574.464402 
L 801.011376 572.966811 
L 801.894619 575.01833 
L 802.777861 575.985443 
L 803.661104 574.36181 
L 804.544347 573.228703 
L 805.42759 573.935542 
L 806.310832 574.049369 
L 807.194075 573.084712 
L 808.077318 571.350674 
L 808.960561 574.049318 
L 809.843803 573.833131 
L 810.727046 576.106031 
L 811.610289 572.50789 
L 812.493532 575.449527 
L 813.376774 573.104347 
L 814.260017 573.240261 
L 815.14326 574.44249 
L 816.026502 574.995364 
L 816.909745 575.113458 
L 817.792988 575.655999 
L 818.676231 576.425763 
L 819.559473 574.392657 
L 820.442716 573.964053 
L 822.209202 576.36435 
L 823.092444 577.248928 
L 823.975687 575.315994 
L 824.85893 576.686897 
L 825.742173 577.823316 
L 827.508658 578.024689 
L 828.391901 576.129511 
L 829.275144 574.709812 
L 831.041629 573.603588 
L 831.924872 574.454489 
L 833.691357 577.975904 
L 835.457843 578.837027 
L 836.341086 578.370643 
L 837.224328 578.226701 
L 838.107571 579.246906 
L 839.874057 579.666416 
L 840.757299 579.793357 
L 841.640542 579.304381 
L 842.523785 579.451791 
L 843.407028 580.359038 
L 844.29027 579.134559 
L 845.173513 579.275482 
L 846.056756 577.046474 
L 846.939999 577.367961 
L 847.823241 577.214404 
L 848.706484 578.05082 
L 849.589727 576.491091 
L 850.47297 576.459193 
L 851.356212 577.332914 
L 852.239455 577.882315 
L 853.122698 578.145704 
L 854.005941 577.47557 
L 854.889183 578.411067 
L 855.772426 579.054264 
L 856.655669 577.785118 
L 857.538912 577.8517 
L 858.422154 577.155562 
L 859.305397 578.368174 
L 860.18864 578.959176 
L 861.071883 579.04733 
L 861.955125 579.597367 
L 862.838368 579.792007 
L 865.488096 581.462711 
L 866.371339 581.273235 
L 867.254582 581.697019 
L 869.021067 581.362177 
L 869.90431 581.834974 
L 870.787553 581.188995 
L 871.670796 579.063877 
L 872.554038 578.820456 
L 873.437281 576.152336 
L 874.320524 577.377118 
L 875.203767 576.396328 
L 876.087009 572.948079 
L 876.970252 575.318983 
L 877.853495 575.949559 
L 878.736738 577.105957 
L 879.61998 579.359927 
L 880.503223 580.097346 
L 882.269709 580.543299 
L 883.152951 580.659649 
L 884.919437 581.354323 
L 889.33565 582.086003 
L 891.985379 582.292828 
L 895.51835 582.330905 
L 896.401592 582.462973 
L 897.284835 582.747743 
L 898.168078 582.876687 
L 899.051321 582.876931 
L 899.934563 583.098563 
L 900.817806 582.929912 
L 901.701049 580.812902 
L 902.584292 580.970091 
L 903.467534 576.211605 
L 904.350777 578.566366 
L 905.23402 578.388323 
L 907.000505 579.012671 
L 907.883748 580.302369 
L 908.766991 580.638805 
L 909.650234 581.254491 
L 910.533476 581.674637 
L 914.066447 582.673903 
L 915.832933 582.931987 
L 919.365904 583.157535 
L 920.249147 583.390362 
L 921.132389 583.264995 
L 922.898875 583.490811 
L 923.782118 583.495931 
L 924.66536 582.266502 
L 925.548603 583.390682 
L 926.431846 582.372223 
L 927.315089 581.546798 
L 928.198331 579.545697 
L 929.081574 578.370945 
L 929.964817 579.79185 
L 930.84806 580.463565 
L 931.731302 580.96503 
L 932.614545 580.145955 
L 934.381031 582.12835 
L 935.264273 581.700189 
L 936.147516 582.460093 
L 937.030759 582.515829 
L 937.914002 582.33521 
L 938.797244 581.731465 
L 939.680487 582.11075 
L 940.56373 582.169987 
L 941.446973 581.587393 
L 942.330215 579.875642 
L 943.213458 580.656846 
L 944.979944 581.173356 
L 945.863186 582.045073 
L 946.746429 582.100335 
L 948.512915 582.913437 
L 949.396157 583.127575 
L 950.2794 582.869573 
L 951.162643 582.156714 
L 952.045886 581.793017 
L 952.929128 582.638405 
L 953.812371 582.584065 
L 954.695614 581.812702 
L 955.578857 582.673635 
L 956.462099 582.500044 
L 957.345342 582.708588 
L 958.228585 582.759601 
L 959.111827 581.734956 
L 959.99507 582.383296 
L 960.878313 579.821631 
L 961.761556 581.375045 
L 962.644798 581.099975 
L 963.528041 582.444183 
L 965.294527 582.519198 
L 966.177769 582.160805 
L 967.061012 583.097833 
L 968.827498 583.796697 
L 970.593983 583.965029 
L 980.309653 584.311616 
L 990.908566 584.453427 
L 991.791809 584.295599 
L 996.208023 584.492003 
L 1001.507479 584.512064 
L 1001.507479 584.512064 
" clip-path="url(#pe137a16b2d)" style="fill: none; stroke: #dd8452; stroke-width: 6; stroke-linecap: round"/>
   </g>
   <g id="line2d_14"/>
   <g id="line2d_15"/>
   <g id="patch_3">
    <path d="M 75.03 609.894375 
L 75.03 54.554375 
" style="fill: none; stroke: #cccccc; stroke-width: 1.875; stroke-linejoin: miter; stroke-linecap: square"/>
   </g>
   <g id="patch_4">
    <path d="M 1045.625455 609.894375 
L 1045.625455 54.554375 
" style="fill: none; stroke: #cccccc; stroke-width: 1.875; stroke-linejoin: miter; stroke-linecap: square"/>
   </g>
   <g id="patch_5">
    <path d="M 75.03 609.894375 
L 1045.625455 609.894375 
" style="fill: none; stroke: #cccccc; stroke-width: 1.875; stroke-linejoin: miter; stroke-linecap: square"/>
   </g>
   <g id="patch_6">
    <path d="M 75.03 54.554375 
L 1045.625455 54.554375 
" style="fill: none; stroke: #cccccc; stroke-width: 1.875; stroke-linejoin: miter; stroke-linecap: square"/>
   </g>
   <g id="text_14">
    <!-- Training Progress: Loss -->
    <g style="fill: #262626" transform="translate(323.329602 34.554375) scale(0.36 -0.36)">
     <defs>
      <path id="DejaVuSans-Bold-54" d="M 31 4666 
L 4331 4666 
L 4331 3756 
L 2784 3756 
L 2784 0 
L 1581 0 
L 1581 3756 
L 31 3756 
L 31 4666 
z
" transform="scale(0.015625)"/>
      <path id="DejaVuSans-Bold-72" d="M 3138 2547 
Q 2991 2616 2845 2648 
Q 2700 2681 2553 2681 
Q 2122 2681 1889 2404 
Q 1656 2128 1656 1613 
L 1656 0 
L 538 0 
L 538 3500 
L 1656 3500 
L 1656 2925 
Q 1872 3269 2151 3426 
Q 2431 3584 2822 3584 
Q 2878 3584 2943 3579 
Q 3009 3575 3134 3559 
L 3138 2547 
z
" transform="scale(0.015625)"/>
      <path id="DejaVuSans-Bold-61" d="M 2106 1575 
Q 1756 1575 1579 1456 
Q 1403 1338 1403 1106 
Q 1403 894 1545 773 
Q 1688 653 1941 653 
Q 2256 653 2472 879 
Q 2688 1106 2688 1447 
L 2688 1575 
L 2106 1575 
z
M 3816 1997 
L 3816 0 
L 2688 0 
L 2688 519 
Q 2463 200 2181 54 
Q 1900 -91 1497 -91 
Q 953 -91 614 226 
Q 275 544 275 1050 
Q 275 1666 698 1953 
Q 1122 2241 2028 2241 
L 2688 2241 
L 2688 2328 
Q 2688 2594 2478 2717 
Q 2269 2841 1825 2841 
Q 1466 2841 1156 2769 
Q 847 2697 581 2553 
L 581 3406 
Q 941 3494 1303 3539 
Q 1666 3584 2028 3584 
Q 2975 3584 3395 3211 
Q 3816 2838 3816 1997 
z
" transform="scale(0.015625)"/>
      <path id="DejaVuSans-Bold-69" d="M 538 3500 
L 1656 3500 
L 1656 0 
L 538 0 
L 538 3500 
z
M 538 4863 
L 1656 4863 
L 1656 3950 
L 538 3950 
L 538 4863 
z
" transform="scale(0.015625)"/>
      <path id="DejaVuSans-Bold-6e" d="M 4056 2131 
L 4056 0 
L 2931 0 
L 2931 347 
L 2931 1631 
Q 2931 2084 2911 2256 
Q 2891 2428 2841 2509 
Q 2775 2619 2662 2680 
Q 2550 2741 2406 2741 
Q 2056 2741 1856 2470 
Q 1656 2200 1656 1722 
L 1656 0 
L 538 0 
L 538 3500 
L 1656 3500 
L 1656 2988 
Q 1909 3294 2193 3439 
Q 2478 3584 2822 3584 
Q 3428 3584 3742 3212 
Q 4056 2841 4056 2131 
z
" transform="scale(0.015625)"/>
      <path id="DejaVuSans-Bold-67" d="M 2919 594 
Q 2688 288 2409 144 
Q 2131 0 1766 0 
Q 1125 0 706 504 
Q 288 1009 288 1791 
Q 288 2575 706 3076 
Q 1125 3578 1766 3578 
Q 2131 3578 2409 3434 
Q 2688 3291 2919 2981 
L 2919 3500 
L 4044 3500 
L 4044 353 
Q 4044 -491 3511 -936 
Q 2978 -1381 1966 -1381 
Q 1638 -1381 1331 -1331 
Q 1025 -1281 716 -1178 
L 716 -306 
Q 1009 -475 1290 -558 
Q 1572 -641 1856 -641 
Q 2406 -641 2662 -400 
Q 2919 -159 2919 353 
L 2919 594 
z
M 2181 2772 
Q 1834 2772 1640 2515 
Q 1447 2259 1447 1791 
Q 1447 1309 1634 1061 
Q 1822 813 2181 813 
Q 2531 813 2725 1069 
Q 2919 1325 2919 1791 
Q 2919 2259 2725 2515 
Q 2531 2772 2181 2772 
z
" transform="scale(0.015625)"/>
      <path id="DejaVuSans-Bold-20" transform="scale(0.015625)"/>
      <path id="DejaVuSans-Bold-50" d="M 588 4666 
L 2584 4666 
Q 3475 4666 3951 4270 
Q 4428 3875 4428 3144 
Q 4428 2409 3951 2014 
Q 3475 1619 2584 1619 
L 1791 1619 
L 1791 0 
L 588 0 
L 588 4666 
z
M 1791 3794 
L 1791 2491 
L 2456 2491 
Q 2806 2491 2997 2661 
Q 3188 2831 3188 3144 
Q 3188 3456 2997 3625 
Q 2806 3794 2456 3794 
L 1791 3794 
z
" transform="scale(0.015625)"/>
      <path id="DejaVuSans-Bold-6f" d="M 2203 2784 
Q 1831 2784 1636 2517 
Q 1441 2250 1441 1747 
Q 1441 1244 1636 976 
Q 1831 709 2203 709 
Q 2569 709 2762 976 
Q 2956 1244 2956 1747 
Q 2956 2250 2762 2517 
Q 2569 2784 2203 2784 
z
M 2203 3584 
Q 3106 3584 3614 3096 
Q 4122 2609 4122 1747 
Q 4122 884 3614 396 
Q 3106 -91 2203 -91 
Q 1297 -91 786 396 
Q 275 884 275 1747 
Q 275 2609 786 3096 
Q 1297 3584 2203 3584 
z
" transform="scale(0.015625)"/>
      <path id="DejaVuSans-Bold-65" d="M 4031 1759 
L 4031 1441 
L 1416 1441 
Q 1456 1047 1700 850 
Q 1944 653 2381 653 
Q 2734 653 3104 758 
Q 3475 863 3866 1075 
L 3866 213 
Q 3469 63 3072 -14 
Q 2675 -91 2278 -91 
Q 1328 -91 801 392 
Q 275 875 275 1747 
Q 275 2603 792 3093 
Q 1309 3584 2216 3584 
Q 3041 3584 3536 3087 
Q 4031 2591 4031 1759 
z
M 2881 2131 
Q 2881 2450 2695 2645 
Q 2509 2841 2209 2841 
Q 1884 2841 1681 2658 
Q 1478 2475 1428 2131 
L 2881 2131 
z
" transform="scale(0.015625)"/>
      <path id="DejaVuSans-Bold-73" d="M 3272 3391 
L 3272 2541 
Q 2913 2691 2578 2766 
Q 2244 2841 1947 2841 
Q 1628 2841 1473 2761 
Q 1319 2681 1319 2516 
Q 1319 2381 1436 2309 
Q 1553 2238 1856 2203 
L 2053 2175 
Q 2913 2066 3209 1816 
Q 3506 1566 3506 1031 
Q 3506 472 3093 190 
Q 2681 -91 1863 -91 
Q 1516 -91 1145 -36 
Q 775 19 384 128 
L 384 978 
Q 719 816 1070 734 
Q 1422 653 1784 653 
Q 2113 653 2278 743 
Q 2444 834 2444 1013 
Q 2444 1163 2330 1236 
Q 2216 1309 1875 1350 
L 1678 1375 
Q 931 1469 631 1722 
Q 331 1975 331 2491 
Q 331 3047 712 3315 
Q 1094 3584 1881 3584 
Q 2191 3584 2531 3537 
Q 2872 3491 3272 3391 
z
" transform="scale(0.015625)"/>
      <path id="DejaVuSans-Bold-3a" d="M 716 3500 
L 1844 3500 
L 1844 2291 
L 716 2291 
L 716 3500 
z
M 716 1209 
L 1844 1209 
L 1844 0 
L 716 0 
L 716 1209 
z
" transform="scale(0.015625)"/>
      <path id="DejaVuSans-Bold-4c" d="M 588 4666 
L 1791 4666 
L 1791 909 
L 3903 909 
L 3903 0 
L 588 0 
L 588 4666 
z
" transform="scale(0.015625)"/>
     </defs>
     <use xlink:href="#DejaVuSans-Bold-54"/>
     <use xlink:href="#DejaVuSans-Bold-72" transform="translate(57.212891 0)"/>
     <use xlink:href="#DejaVuSans-Bold-61" transform="translate(106.529297 0)"/>
     <use xlink:href="#DejaVuSans-Bold-69" transform="translate(174.009766 0)"/>
     <use xlink:href="#DejaVuSans-Bold-6e" transform="translate(208.287109 0)"/>
     <use xlink:href="#DejaVuSans-Bold-69" transform="translate(279.478516 0)"/>
     <use xlink:href="#DejaVuSans-Bold-6e" transform="translate(313.755859 0)"/>
     <use xlink:href="#DejaVuSans-Bold-67" transform="translate(384.947266 0)"/>
     <use xlink:href="#DejaVuSans-Bold-20" transform="translate(456.529297 0)"/>
     <use xlink:href="#DejaVuSans-Bold-50" transform="translate(491.34375 0)"/>
     <use xlink:href="#DejaVuSans-Bold-72" transform="translate(564.634766 0)"/>
     <use xlink:href="#DejaVuSans-Bold-6f" transform="translate(613.951172 0)"/>
     <use xlink:href="#DejaVuSans-Bold-67" transform="translate(682.652344 0)"/>
     <use xlink:href="#DejaVuSans-Bold-72" transform="translate(754.234375 0)"/>
     <use xlink:href="#DejaVuSans-Bold-65" transform="translate(803.550781 0)"/>
     <use xlink:href="#DejaVuSans-Bold-73" transform="translate(871.373047 0)"/>
     <use xlink:href="#DejaVuSans-Bold-73" transform="translate(930.894531 0)"/>
     <use xlink:href="#DejaVuSans-Bold-3a" transform="translate(990.416016 0)"/>
     <use xlink:href="#DejaVuSans-Bold-20" transform="translate(1030.40625 0)"/>
     <use xlink:href="#DejaVuSans-Bold-4c" transform="translate(1065.220703 0)"/>
     <use xlink:href="#DejaVuSans-Bold-6f" transform="translate(1128.941406 0)"/>
     <use xlink:href="#DejaVuSans-Bold-73" transform="translate(1197.642578 0)"/>
     <use xlink:href="#DejaVuSans-Bold-73" transform="translate(1257.164062 0)"/>
    </g>
   </g>
   <g id="legend_1">
    <g id="patch_7">
     <path d="M 846.345455 174.094375 
L 1023.225455 174.094375 
Q 1029.625455 174.094375 1029.625455 167.694375 
L 1029.625455 76.954375 
Q 1029.625455 70.554375 1023.225455 70.554375 
L 846.345455 70.554375 
Q 839.945455 70.554375 839.945455 76.954375 
L 839.945455 167.694375 
Q 839.945455 174.094375 846.345455 174.094375 
z
" style="fill: #ffffff; opacity: 0.8; stroke: #cccccc; stroke-width: 1.5; stroke-linejoin: miter"/>
    </g>
    <g id="line2d_16">
     <path d="M 852.745455 96.469375 
L 884.745455 96.469375 
L 916.745455 96.469375 
" style="fill: none; stroke: #4c72b0; stroke-width: 6; stroke-linecap: round"/>
    </g>
    <g id="text_15">
     <!-- train -->
     <g style="fill: #262626" transform="translate(942.345455 107.669375) scale(0.32 -0.32)">
      <defs>
       <path id="DejaVuSans-74" d="M 1172 4494 
L 1172 3500 
L 2356 3500 
L 2356 3053 
L 1172 3053 
L 1172 1153 
Q 1172 725 1289 603 
Q 1406 481 1766 481 
L 2356 481 
L 2356 0 
L 1766 0 
Q 1100 0 847 248 
Q 594 497 594 1153 
L 594 3053 
L 172 3053 
L 172 3500 
L 594 3500 
L 594 4494 
L 1172 4494 
z
" transform="scale(0.015625)"/>
       <path id="DejaVuSans-72" d="M 2631 2963 
Q 2534 3019 2420 3045 
Q 2306 3072 2169 3072 
Q 1681 3072 1420 2755 
Q 1159 2438 1159 1844 
L 1159 0 
L 581 0 
L 581 3500 
L 1159 3500 
L 1159 2956 
Q 1341 3275 1631 3429 
Q 1922 3584 2338 3584 
Q 2397 3584 2469 3576 
Q 2541 3569 2628 3553 
L 2631 2963 
z
" transform="scale(0.015625)"/>
       <path id="DejaVuSans-61" d="M 2194 1759 
Q 1497 1759 1228 1600 
Q 959 1441 959 1056 
Q 959 750 1161 570 
Q 1363 391 1709 391 
Q 2188 391 2477 730 
Q 2766 1069 2766 1631 
L 2766 1759 
L 2194 1759 
z
M 3341 1997 
L 3341 0 
L 2766 0 
L 2766 531 
Q 2569 213 2275 61 
Q 1981 -91 1556 -91 
Q 1019 -91 701 211 
Q 384 513 384 1019 
Q 384 1609 779 1909 
Q 1175 2209 1959 2209 
L 2766 2209 
L 2766 2266 
Q 2766 2663 2505 2880 
Q 2244 3097 1772 3097 
Q 1472 3097 1187 3025 
Q 903 2953 641 2809 
L 641 3341 
Q 956 3463 1253 3523 
Q 1550 3584 1831 3584 
Q 2591 3584 2966 3190 
Q 3341 2797 3341 1997 
z
" transform="scale(0.015625)"/>
       <path id="DejaVuSans-69" d="M 603 3500 
L 1178 3500 
L 1178 0 
L 603 0 
L 603 3500 
z
M 603 4863 
L 1178 4863 
L 1178 4134 
L 603 4134 
L 603 4863 
z
" transform="scale(0.015625)"/>
       <path id="DejaVuSans-6e" d="M 3513 2113 
L 3513 0 
L 2938 0 
L 2938 2094 
Q 2938 2591 2744 2837 
Q 2550 3084 2163 3084 
Q 1697 3084 1428 2787 
Q 1159 2491 1159 1978 
L 1159 0 
L 581 0 
L 581 3500 
L 1159 3500 
L 1159 2956 
Q 1366 3272 1645 3428 
Q 1925 3584 2291 3584 
Q 2894 3584 3203 3211 
Q 3513 2838 3513 2113 
z
" transform="scale(0.015625)"/>
      </defs>
      <use xlink:href="#DejaVuSans-74"/>
      <use xlink:href="#DejaVuSans-72" transform="translate(39.208984 0)"/>
      <use xlink:href="#DejaVuSans-61" transform="translate(80.322266 0)"/>
      <use xlink:href="#DejaVuSans-69" transform="translate(141.601562 0)"/>
      <use xlink:href="#DejaVuSans-6e" transform="translate(169.384766 0)"/>
     </g>
    </g>
    <g id="line2d_17">
     <path d="M 852.745455 143.439375 
L 884.745455 143.439375 
L 916.745455 143.439375 
" style="fill: none; stroke: #dd8452; stroke-width: 6; stroke-linecap: round"/>
    </g>
    <g id="text_16">
     <!-- val -->
     <g style="fill: #262626" transform="translate(942.345455 154.639375) scale(0.32 -0.32)">
      <defs>
       <path id="DejaVuSans-76" d="M 191 3500 
L 800 3500 
L 1894 563 
L 2988 3500 
L 3597 3500 
L 2284 0 
L 1503 0 
L 191 3500 
z
" transform="scale(0.015625)"/>
       <path id="DejaVuSans-6c" d="M 603 4863 
L 1178 4863 
L 1178 0 
L 603 0 
L 603 4863 
z
" transform="scale(0.015625)"/>
      </defs>
      <use xlink:href="#DejaVuSans-76"/>
      <use xlink:href="#DejaVuSans-61" transform="translate(59.179688 0)"/>
      <use xlink:href="#DejaVuSans-6c" transform="translate(120.458984 0)"/>
     </g>
    </g>
   </g>
  </g>
 </g>
 <defs>
  <clipPath id="pe137a16b2d">
   <rect x="75.03" y="54.554375" width="970.595455" height="555.34"/>
  </clipPath>
 </defs>
</svg>
