<?xml version="1.0" encoding="utf-8" standalone="no"?>
<!DOCTYPE svg PUBLIC "-//W3C//DTD SVG 1.1//EN"
  "http://www.w3.org/Graphics/SVG/1.1/DTD/svg11.dtd">
<svg xmlns:xlink="http://www.w3.org/1999/xlink" width="1052.955455pt" height="695.534375pt" viewBox="0 0 1052.955455 695.534375" xmlns="http://www.w3.org/2000/svg" version="1.1">
 <metadata>
  <rdf:RDF xmlns:dc="http://purl.org/dc/elements/1.1/" xmlns:cc="http://creativecommons.org/ns#" xmlns:rdf="http://www.w3.org/1999/02/22-rdf-syntax-ns#">
   <cc:Work>
    <dc:type rdf:resource="http://purl.org/dc/dcmitype/StillImage"/>
    <dc:date>2026-04-10T14:10:54.658741</dc:date>
    <dc:format>image/svg+xml</dc:format>
    <dc:creator>
     <cc:Agent>
      <dc:title>Matplotlib v3.10.8, https://matplotlib.org/</dc:title>
     </cc:Agent>
    </dc:creator>
   </cc:Work>
  </rdf:RDF>
 </metadata>
 <defs>
  <style type="text/css">*{stroke-linejoin: round; stroke-linecap: butt}</style>
 </defs>
 <g id="figure_1">
  <g id="patch_1">
   <path d="M 0 695.534375 
L 1052.955455 695.534375 
L 1052.955455 0 
L 0 0 
z
" style="fill: #ffffff"/>
  </g>
  <g id="axes_1">
   <g id="patch_2">
    <path d="M 115.75 609.894375 
L 1045.755455 609.894375 
L 1045.755455 54.554375 
L 115.75 54.554375 
z
" style="fill: #ffffff"/>
   </g>
   <g id="matplotlib.axis_1">
    <g id="xtick_1">
     <g id="line2d_1">
      <path d="M 157.176669 609.894375 
L 157.176669 54.554375 
" clip-path="url(#pe112604b78)" style="fill: none; stroke: #cccccc; stroke-opacity: 0.3; stroke-width: 1.5; stroke-linecap: round"/>
     </g>
     <g id="text_1">
      <!-- 0 -->
      <g style="fill: #262626" transform="translate(146.996669 646.709375) scale(0.32 -0.32)">
       <defs>
        <path id="DejaVuSans-30" d="M 2034 4250 
Q 1547 4250 1301 3770 
Q 1056 3291 1056 2328 
Q 1056 1369 1301 889 
Q 1547 409 2034 409 
Q 2525 409 2770 889 
Q 3016 1369 3016 2328 
Q 3016 3291 2770 3770 
Q 2525 4250 2034 4250 
z
M 2034 4750 
Q 2819 4750 3233 4129 
Q 3647 3509 3647 2328 
Q 3647 1150 3233 529 
Q 2819 -91 2034 -91 
Q 1250 -91 836 529 
Q 422 1150 422 2328 
Q 422 3509 836 4129 
Q 1250 4750 2034 4750 
z
" transform="scale(0.015625)"/>
       </defs>
       <use xlink:href="#DejaVuSans-30"/>
      </g>
     </g>
    </g>
    <g id="xtick_2">
     <g id="line2d_2">
      <path d="M 326.437831 609.894375 
L 326.437831 54.554375 
" clip-path="url(#pe112604b78)" style="fill: none; stroke: #cccccc; stroke-opacity: 0.3; stroke-width: 1.5; stroke-linecap: round"/>
     </g>
     <g id="text_2">
      <!-- 200 -->
      <g style="fill: #262626" transform="translate(295.897831 646.709375) scale(0.32 -0.32)">
       <defs>
        <path id="DejaVuSans-32" d="M 1228 531 
L 3431 531 
L 3431 0 
L 469 0 
L 469 531 
Q 828 903 1448 1529 
Q 2069 2156 2228 2338 
Q 2531 2678 2651 2914 
Q 2772 3150 2772 3378 
Q 2772 3750 2511 3984 
Q 2250 4219 1831 4219 
Q 1534 4219 1204 4116 
Q 875 4013 500 3803 
L 500 4441 
Q 881 4594 1212 4672 
Q 1544 4750 1819 4750 
Q 2544 4750 2975 4387 
Q 3406 4025 3406 3419 
Q 3406 3131 3298 2873 
Q 3191 2616 2906 2266 
Q 2828 2175 2409 1742 
Q 1991 1309 1228 531 
z
" transform="scale(0.015625)"/>
       </defs>
       <use xlink:href="#DejaVuSans-32"/>
       <use xlink:href="#DejaVuSans-30" transform="translate(63.623047 0)"/>
       <use xlink:href="#DejaVuSans-30" transform="translate(127.246094 0)"/>
      </g>
     </g>
    </g>
    <g id="xtick_3">
     <g id="line2d_3">
      <path d="M 495.698993 609.894375 
L 495.698993 54.554375 
" clip-path="url(#pe112604b78)" style="fill: none; stroke: #cccccc; stroke-opacity: 0.3; stroke-width: 1.5; stroke-linecap: round"/>
     </g>
     <g id="text_3">
      <!-- 400 -->
      <g style="fill: #262626" transform="translate(465.158993 646.709375) scale(0.32 -0.32)">
       <defs>
        <path id="DejaVuSans-34" d="M 2419 4116 
L 825 1625 
L 2419 1625 
L 2419 4116 
z
M 2253 4666 
L 3047 4666 
L 3047 1625 
L 3713 1625 
L 3713 1100 
L 3047 1100 
L 3047 0 
L 2419 0 
L 2419 1100 
L 313 1100 
L 313 1709 
L 2253 4666 
z
" transform="scale(0.015625)"/>
       </defs>
       <use xlink:href="#DejaVuSans-34"/>
       <use xlink:href="#DejaVuSans-30" transform="translate(63.623047 0)"/>
       <use xlink:href="#DejaVuSans-30" transform="translate(127.246094 0)"/>
      </g>
     </g>
    </g>
    <g id="xtick_4">
     <g id="line2d_4">
      <path d="M 664.960155 609.894375 
L 664.960155 54.554375 
" clip-path="url(#pe112604b78)" style="fill: none; stroke: #cccccc; stroke-opacity: 0.3; stroke-width: 1.5; stroke-linecap: round"/>
     </g>
     <g id="text_4">
      <!-- 600 -->
      <g style="fill: #262626" transform="translate(634.420155 646.709375) scale(0.32 -0.32)">
       <defs>
        <path id="DejaVuSans-36" d="M 2113 2584 
Q 1688 2584 1439 2293 
Q 1191 2003 1191 1497 
Q 1191 994 1439 701 
Q 1688 409 2113 409 
Q 2538 409 2786 701 
Q 3034 994 3034 1497 
Q 3034 2003 2786 2293 
Q 2538 2584 2113 2584 
z
M 3366 4563 
L 3366 3988 
Q 3128 4100 2886 4159 
Q 2644 4219 2406 4219 
Q 1781 4219 1451 3797 
Q 1122 3375 1075 2522 
Q 1259 2794 1537 2939 
Q 1816 3084 2150 3084 
Q 2853 3084 3261 2657 
Q 3669 2231 3669 1497 
Q 3669 778 3244 343 
Q 2819 -91 2113 -91 
Q 1303 -91 875 529 
Q 447 1150 447 2328 
Q 447 3434 972 4092 
Q 1497 4750 2381 4750 
Q 2619 4750 2861 4703 
Q 3103 4656 3366 4563 
z
" transform="scale(0.015625)"/>
       </defs>
       <use xlink:href="#DejaVuSans-36"/>
       <use xlink:href="#DejaVuSans-30" transform="translate(63.623047 0)"/>
       <use xlink:href="#DejaVuSans-30" transform="translate(127.246094 0)"/>
      </g>
     </g>
    </g>
    <g id="xtick_5">
     <g id="line2d_5">
      <path d="M 834.221317 609.894375 
L 834.221317 54.554375 
" clip-path="url(#pe112604b78)" style="fill: none; stroke: #cccccc; stroke-opacity: 0.3; stroke-width: 1.5; stroke-linecap: round"/>
     </g>
     <g id="text_5">
      <!-- 800 -->
      <g style="fill: #262626" transform="translate(803.681317 646.709375) scale(0.32 -0.32)">
       <defs>
        <path id="DejaVuSans-38" d="M 2034 2216 
Q 1584 2216 1326 1975 
Q 1069 1734 1069 1313 
Q 1069 891 1326 650 
Q 1584 409 2034 409 
Q 2484 409 2743 651 
Q 3003 894 3003 1313 
Q 3003 1734 2745 1975 
Q 2488 2216 2034 2216 
z
M 1403 2484 
Q 997 2584 770 2862 
Q 544 3141 544 3541 
Q 544 4100 942 4425 
Q 1341 4750 2034 4750 
Q 2731 4750 3128 4425 
Q 3525 4100 3525 3541 
Q 3525 3141 3298 2862 
Q 3072 2584 2669 2484 
Q 3125 2378 3379 2068 
Q 3634 1759 3634 1313 
Q 3634 634 3220 271 
Q 2806 -91 2034 -91 
Q 1263 -91 848 271 
Q 434 634 434 1313 
Q 434 1759 690 2068 
Q 947 2378 1403 2484 
z
M 1172 3481 
Q 1172 3119 1398 2916 
Q 1625 2713 2034 2713 
Q 2441 2713 2670 2916 
Q 2900 3119 2900 3481 
Q 2900 3844 2670 4047 
Q 2441 4250 2034 4250 
Q 1625 4250 1398 4047 
Q 1172 3844 1172 3481 
z
" transform="scale(0.015625)"/>
       </defs>
       <use xlink:href="#DejaVuSans-38"/>
       <use xlink:href="#DejaVuSans-30" transform="translate(63.623047 0)"/>
       <use xlink:href="#DejaVuSans-30" transform="translate(127.246094 0)"/>
      </g>
     </g>
    </g>
    <g id="xtick_6">
     <g id="line2d_6">
      <path d="M 1003.482479 609.894375 
L 1003.482479 54.554375 
" clip-path="url(#pe112604b78)" style="fill: none; stroke: #cccccc; stroke-opacity: 0.3; stroke-width: 1.5; stroke-linecap: round"/>
     </g>
     <g id="text_6">
      <!-- 1000 -->
      <g style="fill: #262626" transform="translate(962.762479 646.709375) scale(0.32 -0.32)">
       <defs>
        <path id="DejaVuSans-31" d="M 794 531 
L 1825 531 
L 1825 4091 
L 703 3866 
L 703 4441 
L 1819 4666 
L 2450 4666 
L 2450 531 
L 3481 531 
L 3481 0 
L 794 0 
L 794 531 
z
" transform="scale(0.015625)"/>
       </defs>
       <use xlink:href="#DejaVuSans-31"/>
       <use xlink:href="#DejaVuSans-30" transform="translate(63.623047 0)"/>
       <use xlink:href="#DejaVuSans-30" transform="translate(127.246094 0)"/>
       <use xlink:href="#DejaVuSans-30" transform="translate(190.869141 0)"/>
      </g>
     </g>
    </g>
    <g id="text_7">
     <!-- Epoch -->
     <g style="fill: #262626" transform="translate(531.757727 681.679375) scale(0.32 -0.32)">
      <defs>
       <path id="DejaVuSans-45" d="M 628 4666 
L 3578 4666 
L 3578 4134 
L 1259 4134 
L 1259 2753 
L 3481 2753 
L 3481 2222 
L 1259 2222 
L 1259 531 
L 3634 531 
L 3634 0 
L 628 0 
L 628 4666 
z
" transform="scale(0.015625)"/>
       <path id="DejaVuSans-70" d="M 1159 525 
L 1159 -1331 
L 581 -1331 
L 581 3500 
L 1159 3500 
L 1159 2969 
Q 1341 3281 1617 3432 
Q 1894 3584 2278 3584 
Q 2916 3584 3314 3078 
Q 3713 2572 3713 1747 
Q 3713 922 3314 415 
Q 2916 -91 2278 -91 
Q 1894 -91 1617 61 
Q 1341 213 1159 525 
z
M 3116 1747 
Q 3116 2381 2855 2742 
Q 2594 3103 2138 3103 
Q 1681 3103 1420 2742 
Q 1159 2381 1159 1747 
Q 1159 1113 1420 752 
Q 1681 391 2138 391 
Q 2594 391 2855 752 
Q 3116 1113 3116 1747 
z
" transform="scale(0.015625)"/>
       <path id="DejaVuSans-6f" d="M 1959 3097 
Q 1497 3097 1228 2736 
Q 959 2375 959 1747 
Q 959 1119 1226 758 
Q 1494 397 1959 397 
Q 2419 397 2687 759 
Q 2956 1122 2956 1747 
Q 2956 2369 2687 2733 
Q 2419 3097 1959 3097 
z
M 1959 3584 
Q 2709 3584 3137 3096 
Q 3566 2609 3566 1747 
Q 3566 888 3137 398 
Q 2709 -91 1959 -91 
Q 1206 -91 779 398 
Q 353 888 353 1747 
Q 353 2609 779 3096 
Q 1206 3584 1959 3584 
z
" transform="scale(0.015625)"/>
       <path id="DejaVuSans-63" d="M 3122 3366 
L 3122 2828 
Q 2878 2963 2633 3030 
Q 2388 3097 2138 3097 
Q 1578 3097 1268 2742 
Q 959 2388 959 1747 
Q 959 1106 1268 751 
Q 1578 397 2138 397 
Q 2388 397 2633 464 
Q 2878 531 3122 666 
L 3122 134 
Q 2881 22 2623 -34 
Q 2366 -91 2075 -91 
Q 1284 -91 818 406 
Q 353 903 353 1747 
Q 353 2603 823 3093 
Q 1294 3584 2113 3584 
Q 2378 3584 2631 3529 
Q 2884 3475 3122 3366 
z
" transform="scale(0.015625)"/>
       <path id="DejaVuSans-68" d="M 3513 2113 
L 3513 0 
L 2938 0 
L 2938 2094 
Q 2938 2591 2744 2837 
Q 2550 3084 2163 3084 
Q 1697 3084 1428 2787 
Q 1159 2491 1159 1978 
L 1159 0 
L 581 0 
L 581 4863 
L 1159 4863 
L 1159 2956 
Q 1366 3272 1645 3428 
Q 1925 3584 2291 3584 
Q 2894 3584 3203 3211 
Q 3513 2838 3513 2113 
z
" transform="scale(0.015625)"/>
      </defs>
      <use xlink:href="#DejaVuSans-45"/>
      <use xlink:href="#DejaVuSans-70" transform="translate(63.183594 0)"/>
      <use xlink:href="#DejaVuSans-6f" transform="translate(126.660156 0)"/>
      <use xlink:href="#DejaVuSans-63" transform="translate(187.841797 0)"/>
      <use xlink:href="#DejaVuSans-68" transform="translate(242.822266 0)"/>
     </g>
    </g>
   </g>
   <g id="matplotlib.axis_2">
    <g id="ytick_1">
     <g id="line2d_7">
      <path d="M 115.75 588.849351 
L 1045.755455 588.849351 
" clip-path="url(#pe112604b78)" style="fill: none; stroke: #cccccc; stroke-opacity: 0.3; stroke-width: 1.5; stroke-linecap: round"/>
     </g>
     <g id="text_8">
      <!-- 0 -->
      <g style="fill: #262626" transform="translate(82.89 601.006851) scale(0.32 -0.32)">
       <use xlink:href="#DejaVuSans-30"/>
      </g>
     </g>
    </g>
    <g id="ytick_2">
     <g id="line2d_8">
      <path d="M 115.75 486.68371 
L 1045.755455 486.68371 
" clip-path="url(#pe112604b78)" style="fill: none; stroke: #cccccc; stroke-opacity: 0.3; stroke-width: 1.5; stroke-linecap: round"/>
     </g>
     <g id="text_9">
      <!-- 20 -->
      <g style="fill: #262626" transform="translate(62.53 498.84121) scale(0.32 -0.32)">
       <use xlink:href="#DejaVuSans-32"/>
       <use xlink:href="#DejaVuSans-30" transform="translate(63.623047 0)"/>
      </g>
     </g>
    </g>
    <g id="ytick_3">
     <g id="line2d_9">
      <path d="M 115.75 384.518069 
L 1045.755455 384.518069 
" clip-path="url(#pe112604b78)" style="fill: none; stroke: #cccccc; stroke-opacity: 0.3; stroke-width: 1.5; stroke-linecap: round"/>
     </g>
     <g id="text_10">
      <!-- 40 -->
      <g style="fill: #262626" transform="translate(62.53 396.675569) scale(0.32 -0.32)">
       <use xlink:href="#DejaVuSans-34"/>
       <use xlink:href="#DejaVuSans-30" transform="translate(63.623047 0)"/>
      </g>
     </g>
    </g>
    <g id="ytick_4">
     <g id="line2d_10">
      <path d="M 115.75 282.352429 
L 1045.755455 282.352429 
" clip-path="url(#pe112604b78)" style="fill: none; stroke: #cccccc; stroke-opacity: 0.3; stroke-width: 1.5; stroke-linecap: round"/>
     </g>
     <g id="text_11">
      <!-- 60 -->
      <g style="fill: #262626" transform="translate(62.53 294.509929) scale(0.32 -0.32)">
       <use xlink:href="#DejaVuSans-36"/>
       <use xlink:href="#DejaVuSans-30" transform="translate(63.623047 0)"/>
      </g>
     </g>
    </g>
    <g id="ytick_5">
     <g id="line2d_11">
      <path d="M 115.75 180.186788 
L 1045.755455 180.186788 
" clip-path="url(#pe112604b78)" style="fill: none; stroke: #cccccc; stroke-opacity: 0.3; stroke-width: 1.5; stroke-linecap: round"/>
     </g>
     <g id="text_12">
      <!-- 80 -->
      <g style="fill: #262626" transform="translate(62.53 192.344288) scale(0.32 -0.32)">
       <use xlink:href="#DejaVuSans-38"/>
       <use xlink:href="#DejaVuSans-30" transform="translate(63.623047 0)"/>
      </g>
     </g>
    </g>
    <g id="ytick_6">
     <g id="line2d_12">
      <path d="M 115.75 78.021147 
L 1045.755455 78.021147 
" clip-path="url(#pe112604b78)" style="fill: none; stroke: #cccccc; stroke-opacity: 0.3; stroke-width: 1.5; stroke-linecap: round"/>
     </g>
     <g id="text_13">
      <!-- 100 -->
      <g style="fill: #262626" transform="translate(42.17 90.178647) scale(0.32 -0.32)">
       <use xlink:href="#DejaVuSans-31"/>
       <use xlink:href="#DejaVuSans-30" transform="translate(63.623047 0)"/>
       <use xlink:href="#DejaVuSans-30" transform="translate(127.246094 0)"/>
      </g>
     </g>
    </g>
    <g id="text_14">
     <!-- Accuracy (%) -->
     <g style="fill: #262626" transform="translate(31.515 438.046875) rotate(-90) scale(0.32 -0.32)">
      <defs>
       <path id="DejaVuSans-41" d="M 2188 4044 
L 1331 1722 
L 3047 1722 
L 2188 4044 
z
M 1831 4666 
L 2547 4666 
L 4325 0 
L 3669 0 
L 3244 1197 
L 1141 1197 
L 716 0 
L 50 0 
L 1831 4666 
z
" transform="scale(0.015625)"/>
       <path id="DejaVuSans-75" d="M 544 1381 
L 544 3500 
L 1119 3500 
L 1119 1403 
Q 1119 906 1312 657 
Q 1506 409 1894 409 
Q 2359 409 2629 706 
Q 2900 1003 2900 1516 
L 2900 3500 
L 3475 3500 
L 3475 0 
L 2900 0 
L 2900 538 
Q 2691 219 2414 64 
Q 2138 -91 1772 -91 
Q 1169 -91 856 284 
Q 544 659 544 1381 
z
M 1991 3584 
L 1991 3584 
z
" transform="scale(0.015625)"/>
       <path id="DejaVuSans-72" d="M 2631 2963 
Q 2534 3019 2420 3045 
Q 2306 3072 2169 3072 
Q 1681 3072 1420 2755 
Q 1159 2438 1159 1844 
L 1159 0 
L 581 0 
L 581 3500 
L 1159 3500 
L 1159 2956 
Q 1341 3275 1631 3429 
Q 1922 3584 2338 3584 
Q 2397 3584 2469 3576 
Q 2541 3569 2628 3553 
L 2631 2963 
z
" transform="scale(0.015625)"/>
       <path id="DejaVuSans-61" d="M 2194 1759 
Q 1497 1759 1228 1600 
Q 959 1441 959 1056 
Q 959 750 1161 570 
Q 1363 391 1709 391 
Q 2188 391 2477 730 
Q 2766 1069 2766 1631 
L 2766 1759 
L 2194 1759 
z
M 3341 1997 
L 3341 0 
L 2766 0 
L 2766 531 
Q 2569 213 2275 61 
Q 1981 -91 1556 -91 
Q 1019 -91 701 211 
Q 384 513 384 1019 
Q 384 1609 779 1909 
Q 1175 2209 1959 2209 
L 2766 2209 
L 2766 2266 
Q 2766 2663 2505 2880 
Q 2244 3097 1772 3097 
Q 1472 3097 1187 3025 
Q 903 2953 641 2809 
L 641 3341 
Q 956 3463 1253 3523 
Q 1550 3584 1831 3584 
Q 2591 3584 2966 3190 
Q 3341 2797 3341 1997 
z
" transform="scale(0.015625)"/>
       <path id="DejaVuSans-79" d="M 2059 -325 
Q 1816 -950 1584 -1140 
Q 1353 -1331 966 -1331 
L 506 -1331 
L 506 -850 
L 844 -850 
Q 1081 -850 1212 -737 
Q 1344 -625 1503 -206 
L 1606 56 
L 191 3500 
L 800 3500 
L 1894 763 
L 2988 3500 
L 3597 3500 
L 2059 -325 
z
" transform="scale(0.015625)"/>
       <path id="DejaVuSans-20" transform="scale(0.015625)"/>
       <path id="DejaVuSans-28" d="M 1984 4856 
Q 1566 4138 1362 3434 
Q 1159 2731 1159 2009 
Q 1159 1288 1364 580 
Q 1569 -128 1984 -844 
L 1484 -844 
Q 1016 -109 783 600 
Q 550 1309 550 2009 
Q 550 2706 781 3412 
Q 1013 4119 1484 4856 
L 1984 4856 
z
" transform="scale(0.015625)"/>
       <path id="DejaVuSans-25" d="M 4653 2053 
Q 4381 2053 4226 1822 
Q 4072 1591 4072 1178 
Q 4072 772 4226 539 
Q 4381 306 4653 306 
Q 4919 306 5073 539 
Q 5228 772 5228 1178 
Q 5228 1588 5073 1820 
Q 4919 2053 4653 2053 
z
M 4653 2450 
Q 5147 2450 5437 2106 
Q 5728 1763 5728 1178 
Q 5728 594 5436 251 
Q 5144 -91 4653 -91 
Q 4153 -91 3862 251 
Q 3572 594 3572 1178 
Q 3572 1766 3864 2108 
Q 4156 2450 4653 2450 
z
M 1428 4353 
Q 1159 4353 1004 4120 
Q 850 3888 850 3481 
Q 850 3069 1003 2837 
Q 1156 2606 1428 2606 
Q 1700 2606 1854 2837 
Q 2009 3069 2009 3481 
Q 2009 3884 1853 4118 
Q 1697 4353 1428 4353 
z
M 4250 4750 
L 4750 4750 
L 1831 -91 
L 1331 -91 
L 4250 4750 
z
M 1428 4750 
Q 1922 4750 2215 4408 
Q 2509 4066 2509 3481 
Q 2509 2891 2217 2550 
Q 1925 2209 1428 2209 
Q 931 2209 642 2551 
Q 353 2894 353 3481 
Q 353 4063 643 4406 
Q 934 4750 1428 4750 
z
" transform="scale(0.015625)"/>
       <path id="DejaVuSans-29" d="M 513 4856 
L 1013 4856 
Q 1481 4119 1714 3412 
Q 1947 2706 1947 2009 
Q 1947 1309 1714 600 
Q 1481 -109 1013 -844 
L 513 -844 
Q 928 -128 1133 580 
Q 1338 1288 1338 2009 
Q 1338 2731 1133 3434 
Q 928 4138 513 4856 
z
" transform="scale(0.015625)"/>
      </defs>
      <use xlink:href="#DejaVuSans-41"/>
      <use xlink:href="#DejaVuSans-63" transform="translate(66.658203 0)"/>
      <use xlink:href="#DejaVuSans-63" transform="translate(121.638672 0)"/>
      <use xlink:href="#DejaVuSans-75" transform="translate(176.619141 0)"/>
      <use xlink:href="#DejaVuSans-72" transform="translate(239.998047 0)"/>
      <use xlink:href="#DejaVuSans-61" transform="translate(281.111328 0)"/>
      <use xlink:href="#DejaVuSans-63" transform="translate(342.390625 0)"/>
      <use xlink:href="#DejaVuSans-79" transform="translate(397.371094 0)"/>
      <use xlink:href="#DejaVuSans-20" transform="translate(456.550781 0)"/>
      <use xlink:href="#DejaVuSans-28" transform="translate(488.337891 0)"/>
      <use xlink:href="#DejaVuSans-25" transform="translate(527.351562 0)"/>
      <use xlink:href="#DejaVuSans-29" transform="translate(622.371094 0)"/>
     </g>
    </g>
   </g>
   <g id="FillBetweenPolyCollection_1"/>
   <g id="FillBetweenPolyCollection_2"/>
   <g id="line2d_13">
    <path d="M 158.022975 584.651648 
L 158.869281 580.453944 
L 159.715587 579.88887 
L 160.561893 577.547842 
L 161.408198 577.144217 
L 162.254504 575.28754 
L 163.947116 567.780109 
L 164.793422 560.676303 
L 165.639727 559.546154 
L 167.332339 544.127667 
L 168.178645 539.364888 
L 169.024951 530.242956 
L 169.871257 518.295642 
L 170.717562 510.465315 
L 173.25648 479.547613 
L 174.102786 464.371305 
L 174.949091 452.34327 
L 175.795397 437.974209 
L 176.641703 418.600194 
L 177.488009 409.155352 
L 178.334315 387.11742 
L 179.18062 371.376033 
L 180.026926 351.194757 
L 180.873232 335.372654 
L 181.719538 328.18813 
L 184.258455 276.604798 
L 185.104761 274.021612 
L 185.951067 256.907885 
L 186.797373 250.692071 
L 187.643679 237.695334 
L 188.489984 230.510796 
L 189.33629 221.8732 
L 190.182596 217.594776 
L 191.028902 204.598039 
L 191.875208 203.225729 
L 192.721513 197.817146 
L 193.567819 190.55189 
L 194.414125 189.906094 
L 195.260431 182.479374 
L 196.106737 179.896188 
L 196.953042 173.276729 
L 197.799348 170.128434 
L 198.645654 170.854978 
L 199.49196 160.441426 
L 200.338266 155.194308 
L 201.184572 153.256918 
L 202.030877 151.803861 
L 202.877183 150.673702 
L 203.723489 144.780787 
L 204.569795 144.780787 
L 205.416101 140.098717 
L 207.108712 125.648923 
L 207.955018 127.424878 
L 208.801324 127.10198 
L 209.64763 122.177759 
L 210.493935 119.836725 
L 212.186547 121.693397 
L 213.032853 115.073938 
L 213.879159 121.128317 
L 214.725464 117.737871 
L 215.57177 115.477583 
L 216.418076 112.087137 
L 217.264382 114.347424 
L 218.110688 111.844956 
L 218.956994 110.230434 
L 219.803299 105.38693 
L 220.649605 106.032757 
L 221.495911 105.790576 
L 222.342217 104.660417 
L 223.188523 105.225497 
L 224.034828 101.027789 
L 224.881134 102.803745 
L 225.72744 105.064032 
L 226.573746 101.673586 
L 227.420052 103.853156 
L 228.266357 100.866325 
L 229.112663 98.686754 
L 229.958969 100.301276 
L 230.805275 98.363856 
L 231.651581 99.0904 
L 232.497886 101.027789 
L 233.344192 100.220529 
L 234.190498 97.072263 
L 235.88311 97.960241 
L 236.729416 95.054127 
L 237.575721 95.538489 
L 238.422027 95.296308 
L 239.268333 94.731228 
L 240.114639 97.556626 
L 240.960945 95.780671 
L 241.80725 97.233697 
L 242.653556 95.861387 
L 243.499862 94.811945 
L 244.346168 93.03602 
L 245.192474 94.569795 
L 246.038779 93.116737 
L 246.885085 93.762534 
L 247.731391 94.650512 
L 248.577697 94.166149 
L 249.424003 95.054127 
L 250.270308 94.166149 
L 251.116614 91.66368 
L 251.96292 94.731228 
L 252.809226 93.439636 
L 253.655532 92.551658 
L 254.501838 93.358919 
L 255.348143 93.03602 
L 256.194449 94.004715 
L 257.040755 94.004715 
L 257.887061 93.197454 
L 258.733367 93.116737 
L 260.425978 92.551658 
L 261.272284 91.744397 
L 262.11859 93.197454 
L 262.964896 91.744397 
L 263.811201 89.403393 
L 264.657507 88.999747 
L 265.503813 90.452804 
L 266.350119 90.129906 
L 267.196425 93.278171 
L 268.04273 91.017884 
L 268.889036 93.03602 
L 269.735342 90.049189 
L 270.581648 90.372087 
L 271.427954 90.210623 
L 272.27426 91.744397 
L 273.120565 91.66368 
L 273.966871 89.887725 
L 274.813177 87.627437 
L 275.659483 90.452804 
L 276.505789 88.031052 
L 277.352094 89.645544 
L 278.1984 91.502246 
L 279.891012 89.403393 
L 280.737318 90.533521 
L 281.583623 89.645544 
L 282.429929 88.273234 
L 284.122541 90.937167 
L 284.968847 91.260065 
L 285.815153 87.627437 
L 286.661458 89.080494 
L 287.507764 89.080494 
L 288.35407 88.596132 
L 289.200376 88.676849 
L 290.046682 89.322645 
L 290.892987 88.273234 
L 291.739293 88.91903 
L 292.585599 88.676849 
L 293.431905 88.676849 
L 294.278211 87.788871 
L 295.124516 88.91903 
L 295.970822 86.900893 
L 296.817128 87.708154 
L 297.663434 88.838313 
L 298.50974 88.031052 
L 299.356045 89.564827 
L 300.202351 87.062358 
L 301.048657 89.807008 
L 301.894963 87.950335 
L 302.741269 87.627437 
L 303.587575 88.273234 
L 304.43388 87.385256 
L 305.280186 85.447867 
L 306.126492 88.515415 
L 306.972798 88.111769 
L 307.819104 89.887725 
L 308.665409 89.322645 
L 310.358021 85.770765 
L 311.204327 87.062358 
L 312.050633 87.304539 
L 312.896938 86.900893 
L 313.743244 86.335814 
L 314.58955 87.304539 
L 315.435856 87.54669 
L 316.282162 86.73946 
L 317.128467 87.223792 
L 318.821079 86.981641 
L 319.667385 87.143075 
L 320.513691 85.528584 
L 321.359997 87.062358 
L 322.206302 87.54669 
L 323.052608 86.900893 
L 323.898914 86.012916 
L 324.74522 85.528584 
L 325.591526 86.255097 
L 326.437831 85.932199 
L 327.284137 85.851482 
L 328.130443 85.528584 
L 328.976749 86.981641 
L 329.823055 87.465973 
L 330.66936 88.999747 
L 334.054584 85.124938 
L 334.900889 86.497278 
L 335.747195 86.981641 
L 336.593501 86.658743 
L 337.439807 85.367119 
L 339.132419 86.093663 
L 339.978724 84.721323 
L 340.82503 85.932199 
L 341.671336 87.465973 
L 343.363948 86.497278 
L 344.210253 85.286402 
L 345.056559 85.528584 
L 345.902865 86.012916 
L 347.595477 85.044221 
L 348.441782 86.416561 
L 349.288088 86.012916 
L 350.134394 87.304539 
L 350.9807 85.690018 
L 351.827006 86.335814 
L 352.673311 84.963504 
L 353.519617 86.981641 
L 354.365923 85.528584 
L 355.212229 85.690018 
L 356.058535 86.012916 
L 356.904841 84.317708 
L 357.751146 85.447867 
L 358.597452 85.851482 
L 359.443758 86.093663 
L 360.290064 85.447867 
L 361.13637 86.255097 
L 361.982675 84.721323 
L 362.828981 86.17438 
L 363.675287 85.609301 
L 364.521593 85.770765 
L 366.214204 83.268266 
L 367.06051 84.398425 
L 368.753122 84.317708 
L 369.599428 84.963504 
L 370.445734 86.658743 
L 371.292039 86.17438 
L 372.138345 86.577995 
L 372.984651 86.335814 
L 373.830957 85.932199 
L 374.677263 86.012916 
L 375.523568 85.609301 
L 376.369874 85.367119 
L 377.21618 87.385256 
L 378.062486 85.124938 
L 378.908792 87.223792 
L 380.601403 86.497278 
L 381.447709 85.690018 
L 382.294015 85.044221 
L 383.140321 84.640606 
L 383.986626 85.367119 
L 384.832932 84.721323 
L 385.679238 84.236991 
L 386.525544 85.851482 
L 387.37185 84.963504 
L 388.218156 85.044221 
L 389.064461 84.075526 
L 389.910767 83.99481 
L 391.603379 85.205685 
L 392.449685 84.317708 
L 393.29599 83.99481 
L 394.988602 85.528584 
L 395.834908 86.17438 
L 397.527519 84.075526 
L 398.373825 84.317708 
L 400.066437 84.398425 
L 400.912743 85.124938 
L 402.605354 85.447867 
L 403.45166 85.124938 
L 404.297966 84.317708 
L 405.990578 85.044221 
L 406.836883 83.187549 
L 407.683189 83.914062 
L 408.529495 83.42973 
L 409.375801 84.882787 
L 410.222107 84.156243 
L 411.068412 84.640606 
L 411.914718 84.317708 
L 412.761024 84.236991 
L 413.60733 84.317708 
L 414.453636 83.510447 
L 416.146247 83.99481 
L 416.992553 83.752628 
L 417.838859 84.640606 
L 419.53147 84.236991 
L 420.377776 86.17438 
L 421.224082 86.255097 
L 422.070388 83.99481 
L 422.916694 86.093663 
L 423.763 84.398425 
L 424.609305 84.075526 
L 426.301917 83.671911 
L 427.148223 84.559889 
L 427.994529 83.752628 
L 428.840834 84.479142 
L 429.68714 83.833345 
L 430.533446 83.833345 
L 431.379752 85.286402 
L 432.226058 83.752628 
L 434.764975 84.640606 
L 435.611281 84.640606 
L 436.457587 86.335814 
L 437.303892 83.752628 
L 438.150198 83.591164 
L 438.996504 84.80204 
L 439.84281 85.609301 
L 440.689116 84.721323 
L 441.535422 85.851482 
L 442.381727 85.205685 
L 443.228033 85.286402 
L 444.920645 83.42973 
L 445.766951 83.42973 
L 446.613256 84.236991 
L 447.459562 82.864651 
L 448.305868 83.268266 
L 449.152174 83.106832 
L 449.99848 82.380288 
L 450.844785 83.510447 
L 452.537397 83.914062 
L 453.383703 83.187549 
L 454.230009 83.671911 
L 455.076314 83.591164 
L 455.92262 83.349013 
L 456.768926 83.591164 
L 457.615232 84.559889 
L 458.461538 84.559889 
L 459.307844 83.99481 
L 460.154149 84.479142 
L 461.000455 84.236991 
L 461.846761 83.510447 
L 462.693067 84.398425 
L 463.539373 84.963504 
L 464.385678 82.622469 
L 465.231984 82.461035 
L 466.07829 82.622469 
L 466.924596 83.671911 
L 467.770902 84.479142 
L 468.617207 83.026115 
L 469.463513 84.317708 
L 470.309819 83.349013 
L 471.156125 84.640606 
L 472.002431 83.42973 
L 472.848737 83.42973 
L 473.695042 83.591164 
L 474.541348 83.99481 
L 475.387654 83.026115 
L 476.23396 83.591164 
L 477.926571 83.671911 
L 478.772877 85.044221 
L 479.619183 84.156243 
L 480.465489 84.398425 
L 481.311795 85.044221 
L 482.1581 84.317708 
L 483.004406 83.187549 
L 483.850712 83.026115 
L 484.697018 82.541752 
L 486.389629 83.914062 
L 487.235935 84.156243 
L 488.082241 83.349013 
L 488.928547 84.156243 
L 490.621159 84.479142 
L 491.467464 82.380288 
L 493.160076 82.622469 
L 494.006382 82.05739 
L 494.852688 84.156243 
L 495.698993 84.398425 
L 496.545299 84.075526 
L 497.391605 83.510447 
L 498.237911 85.124938 
L 499.084217 84.559889 
L 499.930522 85.124938 
L 500.776828 84.640606 
L 501.623134 84.963504 
L 502.46944 83.510447 
L 503.315746 83.671911 
L 504.162051 83.349013 
L 505.008357 82.622469 
L 505.854663 83.026115 
L 506.700969 83.99481 
L 507.547275 83.42973 
L 508.393581 83.591164 
L 509.239886 82.864651 
L 510.086192 82.864651 
L 510.932498 83.591164 
L 511.778804 83.42973 
L 513.471415 82.541752 
L 514.317721 82.380288 
L 515.164027 82.622469 
L 516.010333 83.510447 
L 516.856639 84.236991 
L 517.702944 83.106832 
L 518.54925 81.411593 
L 519.395556 82.218854 
L 520.241862 82.703186 
L 521.088168 82.622469 
L 521.934473 83.349013 
L 522.780779 82.945367 
L 523.627085 83.510447 
L 524.473391 83.914062 
L 525.319697 83.268266 
L 526.166003 83.591164 
L 527.012308 82.864651 
L 527.858614 83.752628 
L 528.70492 83.026115 
L 529.551226 83.42973 
L 530.397532 83.349013 
L 531.243837 83.752628 
L 532.090143 82.380288 
L 532.936449 82.864651 
L 533.782755 83.026115 
L 535.475366 82.461035 
L 536.321672 82.864651 
L 537.167978 82.622469 
L 538.014284 83.106832 
L 539.706895 84.640606 
L 540.553201 84.317708 
L 541.399507 83.106832 
L 542.245813 83.510447 
L 543.092119 83.510447 
L 543.938425 82.622469 
L 544.78473 83.99481 
L 545.631036 82.461035 
L 546.477342 82.783934 
L 547.323648 81.895956 
L 549.016259 83.591164 
L 549.862565 83.268266 
L 550.708871 83.752628 
L 551.555177 82.299571 
L 552.401483 82.299571 
L 553.247788 83.510447 
L 554.094094 83.752628 
L 554.9404 81.653775 
L 556.633012 83.752628 
L 557.479317 83.833345 
L 558.325623 82.622469 
L 559.171929 83.510447 
L 560.018235 83.591164 
L 560.864541 81.653775 
L 562.557152 82.461035 
L 563.403458 83.914062 
L 564.249764 82.299571 
L 565.09607 83.026115 
L 566.788681 82.945367 
L 567.634987 83.268266 
L 569.327599 82.380288 
L 570.173905 83.349013 
L 571.02021 82.380288 
L 571.866516 82.622469 
L 572.712822 83.268266 
L 573.559128 83.026115 
L 574.405434 82.622469 
L 575.25174 82.703186 
L 576.098045 81.895956 
L 577.790657 82.783934 
L 578.636963 82.05739 
L 579.483269 81.653775 
L 580.329574 81.895956 
L 581.17588 81.653775 
L 582.022186 81.653775 
L 582.868492 82.541752 
L 583.714798 82.864651 
L 584.561103 83.671911 
L 585.407409 82.541752 
L 586.253715 82.703186 
L 587.100021 83.187549 
L 587.946327 83.510447 
L 588.792632 82.945367 
L 589.638938 83.268266 
L 590.485244 83.026115 
L 591.33155 83.026115 
L 592.177856 83.268266 
L 593.024162 82.864651 
L 593.870467 83.510447 
L 594.716773 83.349013 
L 595.563079 82.05739 
L 596.409385 83.106832 
L 597.255691 80.765797 
L 598.101996 82.138137 
L 598.948302 82.218854 
L 599.794608 81.734492 
L 600.640914 82.138137 
L 601.48722 82.05739 
L 602.333525 83.187549 
L 603.179831 82.380288 
L 604.026137 83.106832 
L 604.872443 80.927261 
L 605.718749 81.49231 
L 606.565054 82.299571 
L 607.41136 80.927261 
L 608.257666 82.380288 
L 609.950278 82.541752 
L 610.796584 81.734492 
L 611.642889 82.218854 
L 612.489195 81.976673 
L 613.335501 83.42973 
L 614.181807 82.541752 
L 615.028113 83.026115 
L 615.874418 83.026115 
L 616.720724 83.187549 
L 617.56703 82.622469 
L 619.259642 83.106832 
L 620.105947 81.411593 
L 620.952253 82.703186 
L 621.798559 82.622469 
L 622.644865 82.945367 
L 623.491171 81.734492 
L 624.337476 81.573058 
L 625.183782 82.461035 
L 626.030088 81.573058 
L 626.876394 82.461035 
L 627.7227 82.945367 
L 628.569006 82.138137 
L 629.415311 82.622469 
L 630.261617 82.541752 
L 631.107923 82.138137 
L 631.954229 82.380288 
L 632.800535 82.864651 
L 633.64684 82.461035 
L 634.493146 82.541752 
L 635.339452 82.138137 
L 636.185758 81.895956 
L 637.032064 82.541752 
L 637.878369 81.895956 
L 638.724675 81.895956 
L 639.570981 81.734492 
L 640.417287 82.299571 
L 641.263593 82.703186 
L 642.109898 82.783934 
L 642.956204 82.218854 
L 643.80251 82.05739 
L 644.648816 81.653775 
L 645.495122 81.815239 
L 646.341428 82.380288 
L 647.187733 81.976673 
L 648.034039 82.05739 
L 648.880345 81.330876 
L 649.726651 81.815239 
L 650.572957 81.411593 
L 651.419262 81.411593 
L 652.265568 81.895956 
L 653.95818 82.541752 
L 654.804486 82.461035 
L 655.650791 81.815239 
L 656.497097 82.541752 
L 657.343403 82.380288 
L 658.189709 82.783934 
L 659.036015 81.734492 
L 659.882321 81.976673 
L 660.728626 81.653775 
L 661.574932 81.815239 
L 662.421238 81.411593 
L 663.267544 80.765797 
L 664.11385 81.815239 
L 664.960155 83.187549 
L 665.806461 82.218854 
L 666.652767 80.927261 
L 667.499073 82.380288 
L 668.345379 82.622469 
L 669.191684 82.138137 
L 670.03799 82.461035 
L 670.884296 81.976673 
L 671.730602 82.541752 
L 672.576908 82.864651 
L 673.423213 82.945367 
L 674.269519 82.622469 
L 675.115825 83.268266 
L 675.962131 82.783934 
L 676.808437 81.330876 
L 677.654743 82.299571 
L 678.501048 82.380288 
L 679.347354 81.815239 
L 680.19366 81.088695 
L 681.039966 81.250159 
L 681.886272 82.622469 
L 682.732577 81.088695 
L 683.578883 81.815239 
L 684.425189 82.380288 
L 685.271495 81.895956 
L 686.117801 82.541752 
L 686.964106 82.299571 
L 687.810412 81.573058 
L 689.503024 81.49231 
L 690.34933 81.815239 
L 691.195635 81.330876 
L 692.041941 81.250159 
L 692.888247 82.05739 
L 694.580859 82.945367 
L 695.427165 82.05739 
L 696.27347 82.461035 
L 697.119776 82.703186 
L 697.966082 81.895956 
L 698.812388 83.026115 
L 699.658694 81.250159 
L 700.504999 82.622469 
L 701.351305 81.976673 
L 702.197611 81.815239 
L 703.043917 80.927261 
L 703.890223 80.604363 
L 704.736528 82.541752 
L 705.582834 81.411593 
L 706.42914 82.380288 
L 707.275446 81.734492 
L 708.121752 81.573058 
L 708.968057 82.299571 
L 709.814363 80.765797 
L 710.660669 81.734492 
L 711.506975 81.573058 
L 712.353281 80.846514 
L 713.199587 82.380288 
L 714.045892 81.007978 
L 714.892198 81.250159 
L 715.738504 81.653775 
L 716.58481 81.250159 
L 717.431116 81.088695 
L 718.277421 82.05739 
L 719.123727 81.330876 
L 719.970033 80.765797 
L 720.816339 81.573058 
L 721.662645 81.976673 
L 722.50895 83.187549 
L 724.201562 81.49231 
L 725.047868 81.330876 
L 725.894174 82.299571 
L 726.740479 82.05739 
L 727.586785 81.653775 
L 728.433091 81.49231 
L 729.279397 80.604363 
L 730.125703 81.653775 
L 730.972009 80.927261 
L 731.818314 81.330876 
L 732.66462 81.411593 
L 733.510926 82.218854 
L 734.357232 81.734492 
L 735.203538 82.05739 
L 736.049843 81.330876 
L 736.896149 81.411593 
L 737.742455 81.815239 
L 738.588761 81.653775 
L 739.435067 81.653775 
L 740.281372 82.541752 
L 741.127678 81.653775 
L 741.973984 81.895956 
L 742.82029 81.49231 
L 743.666596 81.49231 
L 744.512901 80.442899 
L 745.359207 80.765797 
L 746.205513 80.604363 
L 747.051819 81.734492 
L 747.898125 81.49231 
L 749.590736 82.138137 
L 750.437042 81.734492 
L 751.283348 81.088695 
L 752.129654 81.250159 
L 752.97596 80.200717 
L 753.822265 81.976673 
L 756.361183 81.250159 
L 757.207489 80.68508 
L 758.053794 81.976673 
L 758.9001 80.927261 
L 759.746406 82.138137 
L 760.592712 81.653775 
L 762.285324 82.380288 
L 763.131629 81.976673 
L 763.977935 82.541752 
L 764.824241 82.945367 
L 765.670547 82.05739 
L 766.516853 81.653775 
L 767.363158 80.846514 
L 768.209464 81.411593 
L 769.05577 80.523616 
L 769.902076 82.864651 
L 770.748382 81.250159 
L 772.440993 81.49231 
L 773.287299 81.330876 
L 774.133605 81.573058 
L 774.979911 81.088695 
L 775.826216 82.380288 
L 776.672522 82.864651 
L 777.518828 82.622469 
L 778.365134 82.218854 
L 779.21144 81.411593 
L 780.057746 80.12 
L 780.904051 81.573058 
L 781.750357 81.734492 
L 782.596663 81.49231 
L 783.442969 81.411593 
L 784.289275 81.976673 
L 785.13558 81.815239 
L 785.981886 80.68508 
L 786.828192 81.49231 
L 787.674498 80.846514 
L 788.520804 81.49231 
L 790.213415 80.604363 
L 791.059721 81.169412 
L 791.906027 81.895956 
L 792.752333 81.250159 
L 793.598638 81.734492 
L 794.444944 82.703186 
L 795.29125 81.895956 
L 796.137556 81.49231 
L 796.983862 82.05739 
L 797.830168 81.007978 
L 798.676473 81.734492 
L 799.522779 80.765797 
L 800.369085 81.734492 
L 801.215391 80.039284 
L 802.061697 81.734492 
L 802.908002 81.330876 
L 803.754308 80.362182 
L 804.600614 81.007978 
L 805.44692 80.927261 
L 806.293226 81.330876 
L 807.139531 81.976673 
L 807.985837 80.523616 
L 808.832143 81.330876 
L 809.678449 81.976673 
L 810.524755 81.330876 
L 811.37106 81.895956 
L 812.217366 81.250159 
L 813.063672 81.573058 
L 813.909978 82.461035 
L 814.756284 81.411593 
L 815.60259 82.945367 
L 816.448895 81.976673 
L 817.295201 81.815239 
L 818.141507 81.250159 
L 818.987813 81.976673 
L 819.834119 81.49231 
L 820.680424 81.411593 
L 821.52673 80.765797 
L 822.373036 81.653775 
L 823.219342 81.007978 
L 824.065648 81.734492 
L 824.911953 81.653775 
L 825.758259 80.604363 
L 826.604565 80.442899 
L 827.450871 80.523616 
L 828.297177 81.734492 
L 829.143482 81.007978 
L 829.989788 81.895956 
L 830.836094 81.653775 
L 831.6824 82.138137 
L 833.375012 80.442899 
L 834.221317 80.200717 
L 835.067623 80.604363 
L 835.913929 80.68508 
L 836.760235 81.169412 
L 837.606541 80.362182 
L 838.452846 80.604363 
L 839.299152 81.169412 
L 840.145458 81.007978 
L 840.991764 79.958536 
L 841.83807 81.49231 
L 842.684375 81.330876 
L 843.530681 82.05739 
L 845.223293 80.523616 
L 846.069599 81.007978 
L 846.915904 81.169412 
L 847.76221 81.169412 
L 848.608516 80.765797 
L 849.454822 80.765797 
L 850.301128 80.927261 
L 851.147434 82.05739 
L 851.993739 80.846514 
L 852.840045 81.007978 
L 853.686351 81.734492 
L 854.532657 80.846514 
L 855.378963 81.895956 
L 856.225268 80.362182 
L 857.071574 80.200717 
L 857.91788 80.442899 
L 858.764186 81.411593 
L 859.610492 80.523616 
L 860.456797 81.815239 
L 861.303103 80.846514 
L 862.149409 81.088695 
L 862.995715 81.815239 
L 863.842021 80.362182 
L 864.688327 81.088695 
L 865.534632 81.088695 
L 867.227244 80.523616 
L 868.07355 81.976673 
L 868.919856 80.846514 
L 869.766161 82.541752 
L 870.612467 81.169412 
L 871.458773 81.250159 
L 873.151385 80.927261 
L 873.99769 81.895956 
L 874.843996 80.765797 
L 875.690302 81.573058 
L 876.536608 81.007978 
L 877.382914 79.958536 
L 878.229219 80.846514 
L 879.075525 80.68508 
L 879.921831 80.362182 
L 880.768137 81.088695 
L 881.614443 81.250159 
L 882.460749 80.846514 
L 883.307054 79.877819 
L 884.15336 81.330876 
L 884.999666 80.765797 
L 885.845972 80.604363 
L 886.692278 81.653775 
L 887.538583 81.088695 
L 888.384889 80.68508 
L 889.231195 82.05739 
L 890.077501 80.927261 
L 890.923807 81.815239 
L 892.616418 80.68508 
L 893.462724 81.330876 
L 894.30903 79.958536 
L 895.155336 80.523616 
L 896.001641 80.362182 
L 896.847947 80.846514 
L 898.540559 81.169412 
L 899.386865 80.68508 
L 900.233171 81.49231 
L 901.079476 81.573058 
L 901.925782 81.169412 
L 902.772088 81.169412 
L 903.618394 81.895956 
L 904.4647 81.653775 
L 905.311005 80.68508 
L 906.157311 80.442899 
L 907.003617 80.927261 
L 907.849923 80.442899 
L 908.696229 80.927261 
L 909.542534 80.765797 
L 910.38884 81.169412 
L 911.235146 82.05739 
L 912.927758 81.007978 
L 913.774063 81.49231 
L 914.620369 80.68508 
L 915.466675 81.250159 
L 916.312981 80.846514 
L 917.159287 81.653775 
L 918.005593 81.088695 
L 919.698204 80.523616 
L 920.54451 80.927261 
L 922.237122 81.088695 
L 923.083427 81.49231 
L 923.929733 82.05739 
L 924.776039 81.088695 
L 925.622345 80.442899 
L 927.314956 81.330876 
L 929.007568 81.169412 
L 929.853874 82.218854 
L 930.70018 81.734492 
L 931.546485 80.68508 
L 932.392791 81.411593 
L 933.239097 82.622469 
L 934.085403 80.846514 
L 934.931709 79.958536 
L 936.62432 79.797102 
L 937.470626 80.362182 
L 938.316932 81.49231 
L 939.163238 80.12 
L 940.009544 81.976673 
L 940.855849 81.007978 
L 941.702155 80.442899 
L 942.548461 81.330876 
L 943.394767 81.088695 
L 944.241073 81.169412 
L 945.087378 80.442899 
L 945.933684 80.442899 
L 946.77999 81.007978 
L 948.472602 80.442899 
L 949.318908 80.68508 
L 950.165213 80.523616 
L 951.011519 81.49231 
L 951.857825 80.927261 
L 952.704131 81.815239 
L 954.396742 80.765797 
L 955.243048 80.604363 
L 956.089354 81.330876 
L 956.93566 80.68508 
L 957.781966 81.411593 
L 958.628271 80.362182 
L 959.474577 80.927261 
L 960.320883 80.523616 
L 961.167189 80.68508 
L 962.013495 81.976673 
L 962.8598 81.573058 
L 963.706106 80.12 
L 964.552412 80.927261 
L 965.398718 81.169412 
L 966.245024 80.68508 
L 967.09133 80.68508 
L 967.937635 80.523616 
L 969.630247 80.68508 
L 970.476553 80.442899 
L 971.322859 80.846514 
L 972.169164 80.604363 
L 973.01547 81.250159 
L 973.861776 80.927261 
L 975.554388 81.169412 
L 976.400693 81.007978 
L 977.246999 80.523616 
L 978.093305 81.976673 
L 978.939611 80.523616 
L 979.785917 80.927261 
L 982.324834 80.362182 
L 983.17114 80.68508 
L 984.017446 80.604363 
L 984.863752 81.250159 
L 986.556363 80.68508 
L 987.402669 81.088695 
L 988.248975 80.523616 
L 989.095281 80.68508 
L 989.941586 81.330876 
L 990.787892 80.846514 
L 991.634198 80.523616 
L 992.480504 80.927261 
L 993.32681 81.169412 
L 994.173115 81.007978 
L 995.019421 80.362182 
L 995.865727 81.088695 
L 996.712033 79.797102 
L 997.558339 81.330876 
L 998.404644 81.007978 
L 999.25095 81.088695 
L 1000.097256 81.007978 
L 1000.943562 80.281434 
L 1001.789868 80.765797 
L 1002.636174 80.846514 
L 1003.482479 80.68508 
L 1003.482479 80.68508 
" clip-path="url(#pe112604b78)" style="fill: none; stroke: #4c72b0; stroke-width: 6; stroke-linecap: round"/>
   </g>
   <g id="line2d_14">
    <path d="M 158.022975 580.85757 
L 158.869281 581.34192 
L 159.715587 580.53467 
L 160.561893 582.794972 
L 161.408198 583.521497 
L 162.254504 583.440772 
L 164.793422 583.682947 
L 166.486033 583.360047 
L 167.332339 583.521497 
L 168.178645 582.714247 
L 169.024951 582.633521 
L 169.871257 582.310621 
L 170.717562 582.149171 
L 171.563868 582.472071 
L 172.410174 581.906996 
L 173.25648 581.906996 
L 174.102786 581.50337 
L 174.949091 581.50337 
L 175.795397 581.18047 
L 176.641703 580.05032 
L 177.488009 580.85757 
L 178.334315 580.453944 
L 179.18062 579.808144 
L 180.026926 579.727419 
L 180.873232 580.37322 
L 181.719538 580.69612 
L 183.41215 579.969594 
L 184.258455 580.37322 
L 185.104761 579.88887 
L 185.951067 579.969594 
L 186.797373 578.839444 
L 187.643679 579.727419 
L 189.33629 579.485244 
L 190.182596 579.081618 
L 191.028902 579.323794 
L 191.875208 578.920168 
L 192.721513 579.485244 
L 193.567819 579.565968 
L 194.414125 579.485244 
L 195.260431 579.727419 
L 196.953042 579.323794 
L 197.799348 579.243068 
L 198.645654 579.646694 
L 199.49196 579.727419 
L 200.338266 579.969594 
L 201.184572 579.646694 
L 202.030877 580.05032 
L 203.723489 579.323794 
L 204.569795 579.323794 
L 205.416101 579.081618 
L 206.262406 579.081618 
L 207.108712 579.323794 
L 207.955018 578.597268 
L 208.801324 579.565968 
L 209.64763 579.162344 
L 210.493935 579.162344 
L 211.340241 579.565968 
L 212.186547 580.131044 
L 213.032853 579.323794 
L 213.879159 579.323794 
L 216.418076 579.88887 
L 217.264382 578.839444 
L 218.110688 579.565968 
L 218.956994 579.969594 
L 219.803299 578.839444 
L 220.649605 579.485244 
L 221.495911 579.646694 
L 222.342217 579.323794 
L 223.188523 579.565968 
L 224.034828 579.000894 
L 224.881134 579.243068 
L 225.72744 578.920168 
L 226.573746 579.243068 
L 227.420052 579.243068 
L 228.266357 578.677993 
L 229.112663 579.485244 
L 230.805275 579.243068 
L 231.651581 579.646694 
L 232.497886 579.162344 
L 233.344192 578.839444 
L 234.190498 578.758718 
L 235.036804 578.355093 
L 235.88311 578.920168 
L 236.729416 578.839444 
L 237.575721 579.162344 
L 238.422027 578.677993 
L 239.268333 579.162344 
L 240.960945 579.243068 
L 241.80725 578.839444 
L 242.653556 578.920168 
L 243.499862 578.839444 
L 244.346168 578.032192 
L 245.192474 578.758718 
L 246.038779 578.597268 
L 246.885085 577.870742 
L 248.577697 578.597268 
L 249.424003 578.193643 
L 250.270308 577.467117 
L 251.116614 578.516543 
L 251.96292 578.274368 
L 252.809226 577.790018 
L 254.501838 577.870742 
L 255.348143 578.677993 
L 256.194449 577.063492 
L 257.040755 578.758718 
L 257.887061 578.032192 
L 259.579672 578.112918 
L 260.425978 578.597268 
L 261.272284 578.758718 
L 262.11859 578.677993 
L 262.964896 578.193643 
L 263.811201 576.982767 
L 264.657507 577.709292 
L 265.503813 577.305667 
L 266.350119 578.193643 
L 267.196425 578.435818 
L 268.04273 577.790018 
L 268.889036 578.355093 
L 269.735342 577.790018 
L 270.581648 578.112918 
L 271.427954 578.274368 
L 272.27426 577.628567 
L 273.120565 578.435818 
L 273.966871 579.081618 
L 274.813177 577.790018 
L 275.659483 577.467117 
L 276.505789 578.355093 
L 277.352094 578.355093 
L 278.1984 577.386392 
L 279.044706 577.386392 
L 280.737318 577.790018 
L 281.583623 577.951468 
L 282.429929 576.982767 
L 283.276235 577.224942 
L 284.122541 577.305667 
L 284.968847 577.870742 
L 285.815153 576.579142 
L 286.661458 577.144217 
L 287.507764 577.547842 
L 288.35407 577.790018 
L 289.200376 577.144217 
L 290.046682 578.112918 
L 290.892987 576.902042 
L 291.739293 577.628567 
L 292.585599 576.417691 
L 293.431905 577.144217 
L 294.278211 577.224942 
L 295.124516 576.256241 
L 295.970822 577.144217 
L 296.817128 576.498416 
L 297.663434 576.821317 
L 298.50974 577.305667 
L 299.356045 576.902042 
L 300.202351 576.175516 
L 301.048657 575.610441 
L 301.894963 575.529716 
L 303.587575 576.336966 
L 304.43388 576.498416 
L 305.280186 576.336966 
L 306.126492 575.933341 
L 306.972798 574.96464 
L 308.665409 576.014066 
L 309.511715 577.305667 
L 310.358021 576.498416 
L 311.204327 576.982767 
L 312.050633 575.771891 
L 312.896938 576.256241 
L 313.743244 575.933341 
L 314.58955 576.902042 
L 315.435856 577.063492 
L 316.282162 576.902042 
L 317.974773 575.448991 
L 318.821079 576.094791 
L 319.667385 577.144217 
L 320.513691 576.740592 
L 321.359997 575.771891 
L 322.206302 575.206815 
L 323.052608 576.256241 
L 323.898914 576.014066 
L 324.74522 576.659866 
L 325.591526 575.448991 
L 326.437831 575.610441 
L 327.284137 574.722465 
L 328.130443 576.256241 
L 328.976749 576.740592 
L 329.823055 576.256241 
L 330.66936 576.256241 
L 331.515666 575.529716 
L 332.361972 575.045365 
L 333.208278 574.80319 
L 334.054584 575.045365 
L 334.900889 574.96464 
L 335.747195 575.368265 
L 337.439807 575.28754 
L 338.286113 574.076665 
L 339.132419 574.31884 
L 340.82503 575.12609 
L 341.671336 575.12609 
L 342.517642 575.691166 
L 343.363948 575.206815 
L 344.210253 575.28754 
L 345.056559 575.045365 
L 345.902865 575.045365 
L 346.749171 575.610441 
L 347.595477 575.206815 
L 348.441782 574.48029 
L 349.288088 573.592314 
L 350.134394 573.915215 
L 350.9807 573.350139 
L 351.827006 574.80319 
L 352.673311 573.995939 
L 353.519617 573.753764 
L 354.365923 573.673039 
L 355.212229 573.430864 
L 356.058535 573.753764 
L 356.904841 573.027239 
L 357.751146 573.430864 
L 358.597452 573.350139 
L 359.443758 572.785064 
L 360.290064 573.592314 
L 361.13637 573.592314 
L 361.982675 574.31884 
L 362.828981 574.80319 
L 364.521593 575.529716 
L 365.367899 574.722465 
L 366.214204 574.80319 
L 367.906816 574.31884 
L 368.753122 573.592314 
L 369.599428 573.188689 
L 370.445734 573.834489 
L 371.292039 574.64174 
L 372.138345 573.350139 
L 372.984651 574.31884 
L 373.830957 572.946513 
L 374.677263 573.269414 
L 375.523568 572.381438 
L 376.369874 573.430864 
L 377.21618 572.865789 
L 378.062486 572.946513 
L 378.908792 573.834489 
L 380.601403 573.107963 
L 381.447709 572.462164 
L 382.294015 573.995939 
L 383.140321 574.31884 
L 383.986626 573.269414 
L 384.832932 573.430864 
L 385.679238 572.300713 
L 386.525544 573.430864 
L 388.218156 572.623613 
L 389.064461 573.027239 
L 389.910767 573.107963 
L 390.757073 572.865789 
L 391.603379 573.915215 
L 392.449685 573.995939 
L 393.29599 574.561015 
L 394.142296 574.157389 
L 394.988602 573.350139 
L 395.834908 572.946513 
L 397.527519 573.027239 
L 398.373825 572.623613 
L 399.220131 571.654913 
L 400.066437 572.865789 
L 400.912743 571.170562 
L 401.759048 572.058537 
L 402.605354 572.058537 
L 403.45166 572.704338 
L 404.297966 572.219988 
L 405.144272 571.977813 
L 405.990578 571.977813 
L 406.836883 572.381438 
L 407.683189 572.219988 
L 408.529495 572.381438 
L 410.222107 570.444037 
L 411.068412 569.798237 
L 412.761024 570.605486 
L 413.60733 570.524761 
L 414.453636 572.381438 
L 415.299941 572.219988 
L 416.146247 570.928388 
L 416.992553 572.219988 
L 418.685165 572.946513 
L 419.53147 571.574188 
L 421.224082 572.462164 
L 422.070388 569.959686 
L 422.916694 570.121137 
L 423.763 568.829536 
L 424.609305 569.798237 
L 425.455611 569.878961 
L 426.301917 569.556061 
L 427.148223 570.524761 
L 427.994529 570.444037 
L 428.840834 571.574188 
L 429.68714 570.766937 
L 431.379752 572.704338 
L 432.226058 570.686212 
L 433.072363 571.493462 
L 433.918669 570.282586 
L 434.764975 571.089837 
L 435.611281 570.766937 
L 436.457587 570.040412 
L 437.303892 571.816362 
L 438.996504 571.009112 
L 439.84281 570.282586 
L 440.689116 570.928388 
L 441.535422 571.332013 
L 442.381727 571.089837 
L 443.228033 569.878961 
L 444.074339 569.71751 
L 444.920645 569.959686 
L 445.766951 569.313885 
L 446.613256 567.780109 
L 447.459562 569.39461 
L 448.305868 570.444037 
L 449.152174 569.878961 
L 449.99848 570.524761 
L 450.844785 570.121137 
L 451.691091 570.201861 
L 452.537397 569.556061 
L 453.383703 570.121137 
L 454.230009 570.121137 
L 455.076314 569.798237 
L 455.92262 570.605486 
L 456.768926 569.07171 
L 457.615232 569.636786 
L 458.461538 570.524761 
L 459.307844 571.089837 
L 460.154149 568.990985 
L 461.846761 569.636786 
L 462.693067 571.654913 
L 463.539373 570.121137 
L 464.385678 569.878961 
L 465.231984 568.990985 
L 466.07829 569.07171 
L 466.924596 569.959686 
L 467.770902 568.022285 
L 468.617207 569.636786 
L 469.463513 569.39461 
L 470.309819 570.040412 
L 471.156125 568.990985 
L 472.002431 569.313885 
L 473.695042 568.183734 
L 474.541348 569.152436 
L 475.387654 569.475336 
L 476.23396 570.201861 
L 477.080266 568.990985 
L 477.926571 569.152436 
L 478.772877 569.556061 
L 479.619183 568.587361 
L 480.465489 566.327058 
L 481.311795 568.022285 
L 483.004406 567.699385 
L 483.850712 567.134309 
L 484.697018 567.134309 
L 485.543324 567.295758 
L 486.389629 568.183734 
L 487.235935 567.295758 
L 489.774853 567.780109 
L 490.621159 567.215034 
L 491.467464 568.74881 
L 492.31377 568.668085 
L 493.160076 569.959686 
L 494.006382 568.74881 
L 494.852688 568.910261 
L 496.545299 567.780109 
L 497.391605 567.457209 
L 498.237911 566.649958 
L 499.084217 567.295758 
L 499.930522 568.506634 
L 500.776828 567.376485 
L 501.623134 569.152436 
L 502.46944 567.860834 
L 503.315746 566.165609 
L 504.162051 567.61866 
L 505.008357 568.264461 
L 505.854663 568.183734 
L 506.700969 568.506634 
L 507.547275 568.345185 
L 508.393581 568.668085 
L 509.239886 567.699385 
L 510.086192 569.152436 
L 510.932498 567.61866 
L 511.778804 566.972858 
L 512.62511 566.730684 
L 513.471415 567.295758 
L 514.317721 567.053585 
L 515.164027 567.537934 
L 516.010333 569.07171 
L 516.856639 568.022285 
L 517.702944 567.699385 
L 518.54925 568.506634 
L 519.395556 566.892134 
L 520.241862 567.457209 
L 521.088168 567.376485 
L 521.934473 566.811409 
L 522.780779 568.506634 
L 523.627085 568.910261 
L 524.473391 569.556061 
L 525.319697 568.829536 
L 526.166003 566.488509 
L 527.012308 566.811409 
L 527.858614 567.376485 
L 528.70492 567.215034 
L 529.551226 566.730684 
L 531.243837 567.457209 
L 532.090143 567.537934 
L 532.936449 567.376485 
L 533.782755 566.004158 
L 534.629061 566.407782 
L 535.475366 565.439082 
L 536.321672 565.519809 
L 537.167978 566.407782 
L 538.014284 565.116182 
L 538.86059 565.842709 
L 540.553201 566.569233 
L 541.399507 565.196907 
L 542.245813 565.923433 
L 543.092119 564.631833 
L 543.938425 565.681258 
L 544.78473 564.793282 
L 545.631036 564.874006 
L 546.477342 564.712557 
L 547.323648 563.098057 
L 549.016259 562.69443 
L 550.708871 563.420957 
L 551.555177 563.986031 
L 552.401483 563.824582 
L 553.247788 565.035457 
L 554.094094 564.147482 
L 554.9404 563.743857 
L 555.786706 565.519809 
L 556.633012 563.420957 
L 557.479317 564.066757 
L 558.325623 565.439082 
L 559.171929 564.712557 
L 560.018235 564.631833 
L 560.864541 565.196907 
L 561.710847 566.004158 
L 562.557152 564.147482 
L 563.403458 564.793282 
L 564.249764 563.986031 
L 565.09607 563.582406 
L 565.942376 563.824582 
L 566.788681 563.743857 
L 567.634987 563.34023 
L 568.481293 563.34023 
L 569.327599 563.663131 
L 570.173905 564.470382 
L 571.02021 564.551106 
L 571.866516 565.196907 
L 572.712822 565.358358 
L 573.559128 565.116182 
L 574.405434 564.551106 
L 575.25174 565.116182 
L 576.098045 564.874006 
L 576.944351 563.986031 
L 577.790657 563.34023 
L 578.636963 563.420957 
L 579.483269 564.147482 
L 580.329574 562.775155 
L 581.17588 561.967905 
L 582.022186 561.72573 
L 582.868492 562.290805 
L 583.714798 564.228206 
L 584.561103 563.743857 
L 585.407409 563.098057 
L 586.253715 562.69443 
L 587.100021 562.129354 
L 587.946327 562.290805 
L 588.792632 561.887179 
L 589.638938 562.452255 
L 590.485244 562.290805 
L 591.33155 563.01733 
L 592.177856 562.775155 
L 593.024162 564.712557 
L 593.870467 563.824582 
L 594.716773 563.663131 
L 595.563079 562.855881 
L 596.409385 563.34023 
L 597.255691 562.69443 
L 598.101996 563.259506 
L 598.948302 564.389657 
L 599.794608 562.37153 
L 600.640914 562.936606 
L 601.48722 562.855881 
L 602.333525 563.501681 
L 603.179831 563.663131 
L 604.026137 564.389657 
L 604.872443 564.147482 
L 605.718749 564.066757 
L 606.565054 562.37153 
L 607.41136 561.564279 
L 608.257666 561.07993 
L 609.103972 562.37153 
L 609.950278 562.855881 
L 610.796584 563.743857 
L 611.642889 563.582406 
L 612.489195 562.290805 
L 613.335501 562.210081 
L 614.181807 561.887179 
L 615.028113 563.259506 
L 615.874418 562.69443 
L 616.720724 561.645005 
L 617.56703 559.869054 
L 618.413336 560.999205 
L 619.259642 561.645005 
L 620.105947 561.645005 
L 620.952253 560.111229 
L 621.798559 561.806454 
L 623.491171 559.546154 
L 624.337476 560.434129 
L 625.183782 559.465427 
L 626.030088 560.353403 
L 626.876394 559.303978 
L 627.7227 558.738902 
L 629.415311 561.483554 
L 630.261617 560.434129 
L 631.107923 561.07993 
L 631.954229 562.37153 
L 632.800535 561.72573 
L 633.64684 560.272678 
L 634.493146 559.384703 
L 635.339452 561.564279 
L 637.032064 563.259506 
L 637.878369 562.775155 
L 638.724675 560.030503 
L 639.570981 560.272678 
L 640.417287 561.241379 
L 642.109898 559.949778 
L 642.956204 558.981078 
L 643.80251 558.900353 
L 644.648816 558.658178 
L 645.495122 559.223253 
L 646.341428 560.111229 
L 647.187733 558.738902 
L 648.034039 559.869054 
L 649.726651 558.254551 
L 650.572957 558.981078 
L 651.419262 557.285851 
L 653.111874 557.124402 
L 653.95818 557.689477 
L 654.804486 557.366575 
L 655.650791 556.559324 
L 656.497097 558.496727 
L 657.343403 558.012377 
L 658.189709 557.366575 
L 659.036015 557.124402 
L 659.882321 558.335278 
L 661.574932 558.416002 
L 662.421238 559.465427 
L 663.267544 558.819627 
L 664.11385 557.770202 
L 664.960155 560.757029 
L 666.652767 558.981078 
L 667.499073 558.577451 
L 668.345379 558.900353 
L 669.191684 562.290805 
L 670.03799 560.999205 
L 670.884296 560.676303 
L 671.730602 560.030503 
L 672.576908 558.981078 
L 673.423213 558.900353 
L 674.269519 560.595578 
L 675.115825 560.434129 
L 675.962131 560.111229 
L 676.808437 560.111229 
L 677.654743 557.931651 
L 678.501048 558.577451 
L 679.347354 556.155701 
L 680.19366 555.994248 
L 681.039966 556.074977 
L 681.886272 556.720777 
L 682.732577 554.541199 
L 683.578883 555.913524 
L 684.425189 555.994248 
L 685.271495 555.186999 
L 686.117801 554.944825 
L 686.964106 554.218301 
L 687.810412 554.218301 
L 688.656718 555.67135 
L 689.503024 554.621923 
L 690.34933 555.106275 
L 691.195635 554.783372 
L 692.041941 553.249598 
L 692.888247 556.397875 
L 693.734553 555.267724 
L 694.580859 555.106275 
L 695.427165 555.267724 
L 697.119776 554.37975 
L 697.966082 551.392922 
L 698.812388 552.926696 
L 699.658694 553.814674 
L 700.504999 553.572497 
L 701.351305 553.733949 
L 702.197611 553.572497 
L 703.043917 552.442349 
L 703.890223 551.635096 
L 704.736528 553.088149 
L 705.582834 551.71582 
L 706.42914 551.554371 
L 707.275446 551.554371 
L 708.121752 551.231473 
L 708.968057 550.666397 
L 709.814363 552.442349 
L 710.660669 552.119447 
L 711.506975 551.635096 
L 712.353281 550.747122 
L 714.045892 552.119447 
L 714.892198 551.796545 
L 715.738504 550.101322 
L 716.58481 551.312198 
L 717.431116 552.038722 
L 718.277421 552.361621 
L 719.123727 550.908571 
L 719.970033 552.200172 
L 720.816339 552.119447 
L 721.662645 552.603798 
L 723.355256 551.312198 
L 724.201562 551.150745 
L 725.047868 550.343495 
L 725.894174 551.150745 
L 726.740479 553.330323 
L 727.586785 552.361621 
L 729.279397 552.523074 
L 730.125703 553.007425 
L 730.972009 550.585669 
L 731.818314 552.684523 
L 732.66462 551.957998 
L 733.510926 553.653225 
L 734.357232 551.71582 
L 735.203538 552.119447 
L 736.049843 552.038722 
L 736.896149 552.361621 
L 737.742455 553.088149 
L 738.588761 552.926696 
L 739.435067 551.877273 
L 740.281372 549.455521 
L 742.82029 552.684523 
L 743.666596 552.200172 
L 744.512901 551.392922 
L 745.359207 551.312198 
L 746.205513 550.989296 
L 747.051819 550.343495 
L 747.898125 551.877273 
L 748.744431 551.07002 
L 749.590736 552.361621 
L 750.437042 552.523074 
L 751.283348 550.666397 
L 752.129654 549.697695 
L 752.97596 552.200172 
L 753.822265 551.392922 
L 754.668571 551.554371 
L 755.514877 552.200172 
L 756.361183 551.312198 
L 757.207489 549.455521 
L 758.053794 549.374793 
L 758.9001 549.939869 
L 759.746406 549.132619 
L 761.439018 550.747122 
L 762.285324 548.406095 
L 763.131629 550.262771 
L 763.977935 550.504945 
L 765.670547 549.697695 
L 766.516853 550.585669 
L 767.363158 549.132619 
L 768.209464 548.406095 
L 769.05577 548.809721 
L 769.902076 546.549419 
L 770.748382 548.890446 
L 771.594687 548.486819 
L 772.440993 545.984343 
L 773.287299 547.841019 
L 774.133605 548.567544 
L 774.979911 549.939869 
L 775.826216 549.213344 
L 776.672522 550.262771 
L 777.518828 550.182046 
L 778.365134 548.97117 
L 779.21144 548.32537 
L 780.057746 548.406095 
L 780.904051 546.468694 
L 781.750357 548.083193 
L 782.596663 547.437392 
L 783.442969 548.648268 
L 784.289275 548.163917 
L 785.13558 548.32537 
L 785.981886 547.67957 
L 786.828192 548.244646 
L 788.520804 548.32537 
L 789.367109 547.03377 
L 790.213415 546.387969 
L 791.059721 546.549419 
L 791.906027 545.499992 
L 792.752333 547.437392 
L 793.598638 547.03377 
L 794.444944 549.213344 
L 795.29125 548.083193 
L 796.137556 547.760294 
L 796.983862 549.859144 
L 797.830168 547.760294 
L 798.676473 548.002468 
L 799.522779 549.213344 
L 800.369085 548.002468 
L 801.215391 548.244646 
L 802.061697 547.03377 
L 802.908002 546.630143 
L 803.754308 546.630143 
L 804.600614 547.841019 
L 805.44692 547.114494 
L 806.293226 545.903618 
L 807.139531 544.934916 
L 808.832143 547.275943 
L 809.678449 547.356668 
L 810.524755 546.710868 
L 811.37106 547.67957 
L 812.217366 548.890446 
L 813.063672 549.616971 
L 813.909978 548.002468 
L 814.756284 545.742165 
L 816.448895 545.338543 
L 817.295201 544.36984 
L 818.987813 545.499992 
L 819.834119 544.692742 
L 820.680424 545.903618 
L 821.52673 546.307241 
L 822.373036 545.338543 
L 823.219342 545.338543 
L 824.065648 546.226517 
L 824.911953 543.158964 
L 825.758259 541.544462 
L 826.604565 543.562591 
L 827.450871 543.158964 
L 828.297177 540.737213 
L 829.989788 544.612018 
L 830.836094 545.015641 
L 831.6824 542.674613 
L 832.528706 542.674613 
L 833.375012 543.158964 
L 834.221317 542.593889 
L 835.913929 544.208391 
L 836.760235 543.07824 
L 837.606541 543.562591 
L 838.452846 545.338543 
L 839.299152 545.177094 
L 840.145458 545.580716 
L 840.991764 544.36984 
L 841.83807 544.934916 
L 842.684375 544.934916 
L 843.530681 544.127667 
L 844.376987 541.786639 
L 845.223293 542.513164 
L 846.069599 542.270991 
L 847.76221 542.593889 
L 848.608516 541.383013 
L 849.454822 543.158964 
L 850.301128 543.643316 
L 851.147434 542.916791 
L 851.993739 540.737213 
L 852.840045 542.997515 
L 853.686351 543.07824 
L 854.532657 541.302288 
L 855.378963 543.158964 
L 856.225268 545.338543 
L 857.071574 543.562591 
L 857.91788 541.060115 
L 858.764186 542.593889 
L 859.610492 543.804765 
L 860.456797 541.62519 
L 861.303103 541.948089 
L 862.149409 539.364888 
L 862.995715 540.495039 
L 863.842021 542.513164 
L 864.688327 543.401142 
L 865.534632 542.997515 
L 866.380938 543.07824 
L 867.227244 543.966214 
L 868.07355 542.674613 
L 868.919856 542.43244 
L 869.766161 541.060115 
L 870.612467 540.575763 
L 871.458773 539.768514 
L 872.305079 540.737213 
L 873.151385 541.948089 
L 873.99769 541.302288 
L 874.843996 541.867364 
L 875.690302 540.495039 
L 876.536608 539.929963 
L 877.382914 538.315461 
L 878.229219 538.315461 
L 879.075525 539.768514 
L 879.921831 540.010688 
L 880.768137 540.495039 
L 881.614443 538.557638 
L 882.460749 537.02386 
L 883.307054 540.091412 
L 884.999666 541.705915 
L 885.845972 540.575763 
L 886.692278 541.302288 
L 887.538583 540.737213 
L 888.384889 540.817937 
L 889.231195 541.62519 
L 890.077501 542.755338 
L 890.923807 538.961261 
L 891.770112 539.768514 
L 892.616418 539.041986 
L 893.462724 538.073287 
L 894.30903 536.781687 
L 895.155336 537.185309 
L 896.001641 539.607061 
L 896.847947 540.010688 
L 897.694253 538.961261 
L 898.540559 538.396185 
L 899.386865 535.490082 
L 900.233171 535.08646 
L 901.079476 535.328633 
L 901.925782 536.135883 
L 902.772088 537.669661 
L 903.618394 536.700958 
L 904.4647 537.508211 
L 905.311005 536.620234 
L 906.157311 536.37806 
L 907.003617 537.427487 
L 907.849923 536.700958 
L 908.696229 535.08646 
L 909.542534 535.409358 
L 910.38884 533.06833 
L 911.235146 533.391233 
L 912.081452 534.279206 
L 912.927758 538.396185 
L 913.774063 538.961261 
L 914.620369 536.620234 
L 915.466675 537.185309 
L 916.312981 535.247909 
L 917.159287 534.844282 
L 918.851898 535.490082 
L 919.698204 537.266034 
L 920.54451 535.974433 
L 921.390816 537.02386 
L 922.237122 537.104585 
L 923.083427 539.526337 
L 923.929733 538.799812 
L 924.776039 535.409358 
L 925.622345 534.198482 
L 926.468651 535.005735 
L 927.314956 535.005735 
L 929.007568 537.427487 
L 929.853874 538.154012 
L 930.70018 537.266034 
L 931.546485 537.185309 
L 932.392791 536.216611 
L 933.239097 537.669661 
L 934.085403 535.490082 
L 934.931709 535.490082 
L 936.62432 531.77673 
L 937.470626 532.503255 
L 938.316932 534.037033 
L 939.163238 535.812984 
L 940.009544 533.552682 
L 940.855849 533.552682 
L 941.702155 535.812984 
L 942.548461 537.104585 
L 943.394767 533.956308 
L 944.241073 532.745432 
L 945.087378 534.440659 
L 945.933684 533.875584 
L 947.626296 535.08646 
L 948.472602 535.490082 
L 949.318908 537.346762 
L 951.011519 534.279206 
L 951.857825 534.440659 
L 952.704131 532.745432 
L 954.396742 533.875584 
L 955.243048 533.633406 
L 956.089354 531.373107 
L 956.93566 530.646579 
L 957.781966 532.42253 
L 958.628271 529.435703 
L 959.474577 531.050205 
L 960.320883 530.081503 
L 961.167189 530.32368 
L 962.013495 530.888756 
L 962.8598 532.099632 
L 963.706106 530.32368 
L 964.552412 531.13093 
L 965.398718 530.242956 
L 966.245024 531.292379 
L 967.09133 530.000778 
L 967.937635 532.099632 
L 968.783941 531.696005 
L 969.630247 532.180357 
L 970.476553 531.373107 
L 971.322859 532.664708 
L 972.169164 531.615281 
L 973.861776 535.328633 
L 974.708082 534.037033 
L 975.554388 531.453832 
L 976.400693 532.018907 
L 977.246999 534.763558 
L 978.093305 534.198482 
L 978.939611 534.844282 
L 980.632222 532.583983 
L 981.478528 532.987606 
L 982.324834 533.875584 
L 983.17114 533.956308 
L 984.017446 530.565854 
L 984.863752 531.13093 
L 985.710057 535.005735 
L 986.556363 533.229783 
L 987.402669 531.857455 
L 988.248975 529.03208 
L 989.095281 529.274254 
L 989.941586 530.565854 
L 990.787892 529.03208 
L 991.634198 529.435703 
L 992.480504 529.67788 
L 993.32681 531.373107 
L 994.173115 531.453832 
L 995.019421 532.42253 
L 995.865727 531.77673 
L 996.712033 529.354978 
L 997.558339 528.144102 
L 998.404644 530.32368 
L 999.25095 531.77673 
L 1000.097256 530.888756 
L 1000.943562 529.193529 
L 1001.789868 528.789902 
L 1002.636174 529.112805 
L 1003.482479 530.000778 
L 1003.482479 530.000778 
" clip-path="url(#pe112604b78)" style="fill: none; stroke: #dd8452; stroke-width: 6; stroke-linecap: round"/>
   </g>
   <g id="line2d_15"/>
   <g id="line2d_16"/>
   <g id="patch_3">
    <path d="M 115.75 609.894375 
L 115.75 54.554375 
" style="fill: none; stroke: #cccccc; stroke-width: 1.875; stroke-linejoin: miter; stroke-linecap: square"/>
   </g>
   <g id="patch_4">
    <path d="M 1045.755455 609.894375 
L 1045.755455 54.554375 
" style="fill: none; stroke: #cccccc; stroke-width: 1.875; stroke-linejoin: miter; stroke-linecap: square"/>
   </g>
   <g id="patch_5">
    <path d="M 115.75 609.894375 
L 1045.755455 609.894375 
" style="fill: none; stroke: #cccccc; stroke-width: 1.875; stroke-linejoin: miter; stroke-linecap: square"/>
   </g>
   <g id="patch_6">
    <path d="M 115.75 54.554375 
L 1045.755455 54.554375 
" style="fill: none; stroke: #cccccc; stroke-width: 1.875; stroke-linejoin: miter; stroke-linecap: square"/>
   </g>
   <g id="text_15">
    <!-- Training Progress: Accuracy -->
    <g style="fill: #262626" transform="translate(297.50304 34.554375) scale(0.36 -0.36)">
     <defs>
      <path id="DejaVuSans-Bold-54" d="M 31 4666 
L 4331 4666 
L 4331 3756 
L 2784 3756 
L 2784 0 
L 1581 0 
L 1581 3756 
L 31 3756 
L 31 4666 
z
" transform="scale(0.015625)"/>
      <path id="DejaVuSans-Bold-72" d="M 3138 2547 
Q 2991 2616 2845 2648 
Q 2700 2681 2553 2681 
Q 2122 2681 1889 2404 
Q 1656 2128 1656 1613 
L 1656 0 
L 538 0 
L 538 3500 
L 1656 3500 
L 1656 2925 
Q 1872 3269 2151 3426 
Q 2431 3584 2822 3584 
Q 2878 3584 2943 3579 
Q 3009 3575 3134 3559 
L 3138 2547 
z
" transform="scale(0.015625)"/>
      <path id="DejaVuSans-Bold-61" d="M 2106 1575 
Q 1756 1575 1579 1456 
Q 1403 1338 1403 1106 
Q 1403 894 1545 773 
Q 1688 653 1941 653 
Q 2256 653 2472 879 
Q 2688 1106 2688 1447 
L 2688 1575 
L 2106 1575 
z
M 3816 1997 
L 3816 0 
L 2688 0 
L 2688 519 
Q 2463 200 2181 54 
Q 1900 -91 1497 -91 
Q 953 -91 614 226 
Q 275 544 275 1050 
Q 275 1666 698 1953 
Q 1122 2241 2028 2241 
L 2688 2241 
L 2688 2328 
Q 2688 2594 2478 2717 
Q 2269 2841 1825 2841 
Q 1466 2841 1156 2769 
Q 847 2697 581 2553 
L 581 3406 
Q 941 3494 1303 3539 
Q 1666 3584 2028 3584 
Q 2975 3584 3395 3211 
Q 3816 2838 3816 1997 
z
" transform="scale(0.015625)"/>
      <path id="DejaVuSans-Bold-69" d="M 538 3500 
L 1656 3500 
L 1656 0 
L 538 0 
L 538 3500 
z
M 538 4863 
L 1656 4863 
L 1656 3950 
L 538 3950 
L 538 4863 
z
" transform="scale(0.015625)"/>
      <path id="DejaVuSans-Bold-6e" d="M 4056 2131 
L 4056 0 
L 2931 0 
L 2931 347 
L 2931 1631 
Q 2931 2084 2911 2256 
Q 2891 2428 2841 2509 
Q 2775 2619 2662 2680 
Q 2550 2741 2406 2741 
Q 2056 2741 1856 2470 
Q 1656 2200 1656 1722 
L 1656 0 
L 538 0 
L 538 3500 
L 1656 3500 
L 1656 2988 
Q 1909 3294 2193 3439 
Q 2478 3584 2822 3584 
Q 3428 3584 3742 3212 
Q 4056 2841 4056 2131 
z
" transform="scale(0.015625)"/>
      <path id="DejaVuSans-Bold-67" d="M 2919 594 
Q 2688 288 2409 144 
Q 2131 0 1766 0 
Q 1125 0 706 504 
Q 288 1009 288 1791 
Q 288 2575 706 3076 
Q 1125 3578 1766 3578 
Q 2131 3578 2409 3434 
Q 2688 3291 2919 2981 
L 2919 3500 
L 4044 3500 
L 4044 353 
Q 4044 -491 3511 -936 
Q 2978 -1381 1966 -1381 
Q 1638 -1381 1331 -1331 
Q 1025 -1281 716 -1178 
L 716 -306 
Q 1009 -475 1290 -558 
Q 1572 -641 1856 -641 
Q 2406 -641 2662 -400 
Q 2919 -159 2919 353 
L 2919 594 
z
M 2181 2772 
Q 1834 2772 1640 2515 
Q 1447 2259 1447 1791 
Q 1447 1309 1634 1061 
Q 1822 813 2181 813 
Q 2531 813 2725 1069 
Q 2919 1325 2919 1791 
Q 2919 2259 2725 2515 
Q 2531 2772 2181 2772 
z
" transform="scale(0.015625)"/>
      <path id="DejaVuSans-Bold-20" transform="scale(0.015625)"/>
      <path id="DejaVuSans-Bold-50" d="M 588 4666 
L 2584 4666 
Q 3475 4666 3951 4270 
Q 4428 3875 4428 3144 
Q 4428 2409 3951 2014 
Q 3475 1619 2584 1619 
L 1791 1619 
L 1791 0 
L 588 0 
L 588 4666 
z
M 1791 3794 
L 1791 2491 
L 2456 2491 
Q 2806 2491 2997 2661 
Q 3188 2831 3188 3144 
Q 3188 3456 2997 3625 
Q 2806 3794 2456 3794 
L 1791 3794 
z
" transform="scale(0.015625)"/>
      <path id="DejaVuSans-Bold-6f" d="M 2203 2784 
Q 1831 2784 1636 2517 
Q 1441 2250 1441 1747 
Q 1441 1244 1636 976 
Q 1831 709 2203 709 
Q 2569 709 2762 976 
Q 2956 1244 2956 1747 
Q 2956 2250 2762 2517 
Q 2569 2784 2203 2784 
z
M 2203 3584 
Q 3106 3584 3614 3096 
Q 4122 2609 4122 1747 
Q 4122 884 3614 396 
Q 3106 -91 2203 -91 
Q 1297 -91 786 396 
Q 275 884 275 1747 
Q 275 2609 786 3096 
Q 1297 3584 2203 3584 
z
" transform="scale(0.015625)"/>
      <path id="DejaVuSans-Bold-65" d="M 4031 1759 
L 4031 1441 
L 1416 1441 
Q 1456 1047 1700 850 
Q 1944 653 2381 653 
Q 2734 653 3104 758 
Q 3475 863 3866 1075 
L 3866 213 
Q 3469 63 3072 -14 
Q 2675 -91 2278 -91 
Q 1328 -91 801 392 
Q 275 875 275 1747 
Q 275 2603 792 3093 
Q 1309 3584 2216 3584 
Q 3041 3584 3536 3087 
Q 4031 2591 4031 1759 
z
M 2881 2131 
Q 2881 2450 2695 2645 
Q 2509 2841 2209 2841 
Q 1884 2841 1681 2658 
Q 1478 2475 1428 2131 
L 2881 2131 
z
" transform="scale(0.015625)"/>
      <path id="DejaVuSans-Bold-73" d="M 3272 3391 
L 3272 2541 
Q 2913 2691 2578 2766 
Q 2244 2841 1947 2841 
Q 1628 2841 1473 2761 
Q 1319 2681 1319 2516 
Q 1319 2381 1436 2309 
Q 1553 2238 1856 2203 
L 2053 2175 
Q 2913 2066 3209 1816 
Q 3506 1566 3506 1031 
Q 3506 472 3093 190 
Q 2681 -91 1863 -91 
Q 1516 -91 1145 -36 
Q 775 19 384 128 
L 384 978 
Q 719 816 1070 734 
Q 1422 653 1784 653 
Q 2113 653 2278 743 
Q 2444 834 2444 1013 
Q 2444 1163 2330 1236 
Q 2216 1309 1875 1350 
L 1678 1375 
Q 931 1469 631 1722 
Q 331 1975 331 2491 
Q 331 3047 712 3315 
Q 1094 3584 1881 3584 
Q 2191 3584 2531 3537 
Q 2872 3491 3272 3391 
z
" transform="scale(0.015625)"/>
      <path id="DejaVuSans-Bold-3a" d="M 716 3500 
L 1844 3500 
L 1844 2291 
L 716 2291 
L 716 3500 
z
M 716 1209 
L 1844 1209 
L 1844 0 
L 716 0 
L 716 1209 
z
" transform="scale(0.015625)"/>
      <path id="DejaVuSans-Bold-41" d="M 3419 850 
L 1538 850 
L 1241 0 
L 31 0 
L 1759 4666 
L 3194 4666 
L 4922 0 
L 3713 0 
L 3419 850 
z
M 1838 1716 
L 3116 1716 
L 2478 3572 
L 1838 1716 
z
" transform="scale(0.015625)"/>
      <path id="DejaVuSans-Bold-63" d="M 3366 3391 
L 3366 2478 
Q 3138 2634 2908 2709 
Q 2678 2784 2431 2784 
Q 1963 2784 1702 2511 
Q 1441 2238 1441 1747 
Q 1441 1256 1702 982 
Q 1963 709 2431 709 
Q 2694 709 2930 787 
Q 3166 866 3366 1019 
L 3366 103 
Q 3103 6 2833 -42 
Q 2563 -91 2291 -91 
Q 1344 -91 809 395 
Q 275 881 275 1747 
Q 275 2613 809 3098 
Q 1344 3584 2291 3584 
Q 2566 3584 2833 3536 
Q 3100 3488 3366 3391 
z
" transform="scale(0.015625)"/>
      <path id="DejaVuSans-Bold-75" d="M 500 1363 
L 500 3500 
L 1625 3500 
L 1625 3150 
Q 1625 2866 1622 2436 
Q 1619 2006 1619 1863 
Q 1619 1441 1641 1255 
Q 1663 1069 1716 984 
Q 1784 875 1895 815 
Q 2006 756 2150 756 
Q 2500 756 2700 1025 
Q 2900 1294 2900 1772 
L 2900 3500 
L 4019 3500 
L 4019 0 
L 2900 0 
L 2900 506 
Q 2647 200 2364 54 
Q 2081 -91 1741 -91 
Q 1134 -91 817 281 
Q 500 653 500 1363 
z
" transform="scale(0.015625)"/>
      <path id="DejaVuSans-Bold-79" d="M 78 3500 
L 1197 3500 
L 2138 1125 
L 2938 3500 
L 4056 3500 
L 2584 -331 
Q 2363 -916 2067 -1148 
Q 1772 -1381 1288 -1381 
L 641 -1381 
L 641 -647 
L 991 -647 
Q 1275 -647 1404 -556 
Q 1534 -466 1606 -231 
L 1638 -134 
L 78 3500 
z
" transform="scale(0.015625)"/>
     </defs>
     <use xlink:href="#DejaVuSans-Bold-54"/>
     <use xlink:href="#DejaVuSans-Bold-72" transform="translate(57.212891 0)"/>
     <use xlink:href="#DejaVuSans-Bold-61" transform="translate(106.529297 0)"/>
     <use xlink:href="#DejaVuSans-Bold-69" transform="translate(174.009766 0)"/>
     <use xlink:href="#DejaVuSans-Bold-6e" transform="translate(208.287109 0)"/>
     <use xlink:href="#DejaVuSans-Bold-69" transform="translate(279.478516 0)"/>
     <use xlink:href="#DejaVuSans-Bold-6e" transform="translate(313.755859 0)"/>
     <use xlink:href="#DejaVuSans-Bold-67" transform="translate(384.947266 0)"/>
     <use xlink:href="#DejaVuSans-Bold-20" transform="translate(456.529297 0)"/>
     <use xlink:href="#DejaVuSans-Bold-50" transform="translate(491.34375 0)"/>
     <use xlink:href="#DejaVuSans-Bold-72" transform="translate(564.634766 0)"/>
     <use xlink:href="#DejaVuSans-Bold-6f" transform="translate(613.951172 0)"/>
     <use xlink:href="#DejaVuSans-Bold-67" transform="translate(682.652344 0)"/>
     <use xlink:href="#DejaVuSans-Bold-72" transform="translate(754.234375 0)"/>
     <use xlink:href="#DejaVuSans-Bold-65" transform="translate(803.550781 0)"/>
     <use xlink:href="#DejaVuSans-Bold-73" transform="translate(871.373047 0)"/>
     <use xlink:href="#DejaVuSans-Bold-73" transform="translate(930.894531 0)"/>
     <use xlink:href="#DejaVuSans-Bold-3a" transform="translate(990.416016 0)"/>
     <use xlink:href="#DejaVuSans-Bold-20" transform="translate(1030.40625 0)"/>
     <use xlink:href="#DejaVuSans-Bold-41" transform="translate(1065.220703 0)"/>
     <use xlink:href="#DejaVuSans-Bold-63" transform="translate(1142.613281 0)"/>
     <use xlink:href="#DejaVuSans-Bold-63" transform="translate(1201.890625 0)"/>
     <use xlink:href="#DejaVuSans-Bold-75" transform="translate(1261.167969 0)"/>
     <use xlink:href="#DejaVuSans-Bold-72" transform="translate(1332.359375 0)"/>
     <use xlink:href="#DejaVuSans-Bold-61" transform="translate(1381.675781 0)"/>
     <use xlink:href="#DejaVuSans-Bold-63" transform="translate(1449.15625 0)"/>
     <use xlink:href="#DejaVuSans-Bold-79" transform="translate(1508.433594 0)"/>
    </g>
   </g>
   <g id="legend_1">
    <g id="patch_7">
     <path d="M 846.475455 383.994375 
L 1023.355455 383.994375 
Q 1029.755455 383.994375 1029.755455 377.594375 
L 1029.755455 286.854375 
Q 1029.755455 280.454375 1023.355455 280.454375 
L 846.475455 280.454375 
Q 840.075455 280.454375 840.075455 286.854375 
L 840.075455 377.594375 
Q 840.075455 383.994375 846.475455 383.994375 
z
" style="fill: #ffffff; opacity: 0.8; stroke: #cccccc; stroke-width: 1.5; stroke-linejoin: miter"/>
    </g>
    <g id="line2d_17">
     <path d="M 852.875455 306.369375 
L 884.875455 306.369375 
L 916.875455 306.369375 
" style="fill: none; stroke: #4c72b0; stroke-width: 6; stroke-linecap: round"/>
    </g>
    <g id="text_16">
     <!-- train -->
     <g style="fill: #262626" transform="translate(942.475455 317.569375) scale(0.32 -0.32)">
      <defs>
       <path id="DejaVuSans-74" d="M 1172 4494 
L 1172 3500 
L 2356 3500 
L 2356 3053 
L 1172 3053 
L 1172 1153 
Q 1172 725 1289 603 
Q 1406 481 1766 481 
L 2356 481 
L 2356 0 
L 1766 0 
Q 1100 0 847 248 
Q 594 497 594 1153 
L 594 3053 
L 172 3053 
L 172 3500 
L 594 3500 
L 594 4494 
L 1172 4494 
z
" transform="scale(0.015625)"/>
       <path id="DejaVuSans-69" d="M 603 3500 
L 1178 3500 
L 1178 0 
L 603 0 
L 603 3500 
z
M 603 4863 
L 1178 4863 
L 1178 4134 
L 603 4134 
L 603 4863 
z
" transform="scale(0.015625)"/>
       <path id="DejaVuSans-6e" d="M 3513 2113 
L 3513 0 
L 2938 0 
L 2938 2094 
Q 2938 2591 2744 2837 
Q 2550 3084 2163 3084 
Q 1697 3084 1428 2787 
Q 1159 2491 1159 1978 
L 1159 0 
L 581 0 
L 581 3500 
L 1159 3500 
L 1159 2956 
Q 1366 3272 1645 3428 
Q 1925 3584 2291 3584 
Q 2894 3584 3203 3211 
Q 3513 2838 3513 2113 
z
" transform="scale(0.015625)"/>
      </defs>
      <use xlink:href="#DejaVuSans-74"/>
      <use xlink:href="#DejaVuSans-72" transform="translate(39.208984 0)"/>
      <use xlink:href="#DejaVuSans-61" transform="translate(80.322266 0)"/>
      <use xlink:href="#DejaVuSans-69" transform="translate(141.601562 0)"/>
      <use xlink:href="#DejaVuSans-6e" transform="translate(169.384766 0)"/>
     </g>
    </g>
    <g id="line2d_18">
     <path d="M 852.875455 353.339375 
L 884.875455 353.339375 
L 916.875455 353.339375 
" style="fill: none; stroke: #dd8452; stroke-width: 6; stroke-linecap: round"/>
    </g>
    <g id="text_17">
     <!-- val -->
     <g style="fill: #262626" transform="translate(942.475455 364.539375) scale(0.32 -0.32)">
      <defs>
       <path id="DejaVuSans-76" d="M 191 3500 
L 800 3500 
L 1894 563 
L 2988 3500 
L 3597 3500 
L 2284 0 
L 1503 0 
L 191 3500 
z
" transform="scale(0.015625)"/>
       <path id="DejaVuSans-6c" d="M 603 4863 
L 1178 4863 
L 1178 0 
L 603 0 
L 603 4863 
z
" transform="scale(0.015625)"/>
      </defs>
      <use xlink:href="#DejaVuSans-76"/>
      <use xlink:href="#DejaVuSans-61" transform="translate(59.179688 0)"/>
      <use xlink:href="#DejaVuSans-6c" transform="translate(120.458984 0)"/>
     </g>
    </g>
   </g>
  </g>
 </g>
 <defs>
  <clipPath id="pe112604b78">
   <rect x="115.75" y="54.554375" width="930.005455" height="555.34"/>
  </clipPath>
 </defs>
</svg>
