<?xml version="1.0" encoding="utf-8" standalone="no"?>
<!DOCTYPE svg PUBLIC "-//W3C//DTD SVG 1.1//EN"
  "http://www.w3.org/Graphics/SVG/1.1/DTD/svg11.dtd">
<svg xmlns:xlink="http://www.w3.org/1999/xlink" width="1052.935455pt" height="695.534375pt" viewBox="0 0 1052.935455 695.534375" xmlns="http://www.w3.org/2000/svg" version="1.1">
 <metadata>
  <rdf:RDF xmlns:dc="http://purl.org/dc/elements/1.1/" xmlns:cc="http://creativecommons.org/ns#" xmlns:rdf="http://www.w3.org/1999/02/22-rdf-syntax-ns#">
   <cc:Work>
    <dc:type rdf:resource="http://purl.org/dc/dcmitype/StillImage"/>
    <dc:date>2026-04-10T14:10:54.600553</dc:date>
    <dc:format>image/svg+xml</dc:format>
    <dc:creator>
     <cc:Agent>
      <dc:title>Matplotlib v3.10.8, https://matplotlib.org/</dc:title>
     </cc:Agent>
    </dc:creator>
   </cc:Work>
  </rdf:RDF>
 </metadata>
 <defs>
  <style type="text/css">*{stroke-linejoin: round; stroke-linecap: butt}</style>
 </defs>
 <g id="figure_1">
  <g id="patch_1">
   <path d="M 0 695.534375 
L 1052.935455 695.534375 
L 1052.935455 0 
L 0 0 
z
" style="fill: #ffffff"/>
  </g>
  <g id="axes_1">
   <g id="patch_2">
    <path d="M 95.39 609.894375 
L 1045.735455 609.894375 
L 1045.735455 54.554375 
L 95.39 54.554375 
z
" style="fill: #ffffff"/>
   </g>
   <g id="matplotlib.axis_1">
    <g id="xtick_1">
     <g id="line2d_1">
      <path d="M 137.722705 609.894375 
L 137.722705 54.554375 
" clip-path="url(#p4a7d800802)" style="fill: none; stroke: #cccccc; stroke-opacity: 0.3; stroke-width: 1.5; stroke-linecap: round"/>
     </g>
     <g id="text_1">
      <!-- 0 -->
      <g style="fill: #262626" transform="translate(127.542705 646.709375) scale(0.32 -0.32)">
       <defs>
        <path id="DejaVuSans-30" d="M 2034 4250 
Q 1547 4250 1301 3770 
Q 1056 3291 1056 2328 
Q 1056 1369 1301 889 
Q 1547 409 2034 409 
Q 2525 409 2770 889 
Q 3016 1369 3016 2328 
Q 3016 3291 2770 3770 
Q 2525 4250 2034 4250 
z
M 2034 4750 
Q 2819 4750 3233 4129 
Q 3647 3509 3647 2328 
Q 3647 1150 3233 529 
Q 2819 -91 2034 -91 
Q 1250 -91 836 529 
Q 422 1150 422 2328 
Q 422 3509 836 4129 
Q 1250 4750 2034 4750 
z
" transform="scale(0.015625)"/>
       </defs>
       <use xlink:href="#DejaVuSans-30"/>
      </g>
     </g>
    </g>
    <g id="xtick_2">
     <g id="line2d_2">
      <path d="M 310.685751 609.894375 
L 310.685751 54.554375 
" clip-path="url(#p4a7d800802)" style="fill: none; stroke: #cccccc; stroke-opacity: 0.3; stroke-width: 1.5; stroke-linecap: round"/>
     </g>
     <g id="text_2">
      <!-- 200 -->
      <g style="fill: #262626" transform="translate(280.145751 646.709375) scale(0.32 -0.32)">
       <defs>
        <path id="DejaVuSans-32" d="M 1228 531 
L 3431 531 
L 3431 0 
L 469 0 
L 469 531 
Q 828 903 1448 1529 
Q 2069 2156 2228 2338 
Q 2531 2678 2651 2914 
Q 2772 3150 2772 3378 
Q 2772 3750 2511 3984 
Q 2250 4219 1831 4219 
Q 1534 4219 1204 4116 
Q 875 4013 500 3803 
L 500 4441 
Q 881 4594 1212 4672 
Q 1544 4750 1819 4750 
Q 2544 4750 2975 4387 
Q 3406 4025 3406 3419 
Q 3406 3131 3298 2873 
Q 3191 2616 2906 2266 
Q 2828 2175 2409 1742 
Q 1991 1309 1228 531 
z
" transform="scale(0.015625)"/>
       </defs>
       <use xlink:href="#DejaVuSans-32"/>
       <use xlink:href="#DejaVuSans-30" transform="translate(63.623047 0)"/>
       <use xlink:href="#DejaVuSans-30" transform="translate(127.246094 0)"/>
      </g>
     </g>
    </g>
    <g id="xtick_3">
     <g id="line2d_3">
      <path d="M 483.648797 609.894375 
L 483.648797 54.554375 
" clip-path="url(#p4a7d800802)" style="fill: none; stroke: #cccccc; stroke-opacity: 0.3; stroke-width: 1.5; stroke-linecap: round"/>
     </g>
     <g id="text_3">
      <!-- 400 -->
      <g style="fill: #262626" transform="translate(453.108797 646.709375) scale(0.32 -0.32)">
       <defs>
        <path id="DejaVuSans-34" d="M 2419 4116 
L 825 1625 
L 2419 1625 
L 2419 4116 
z
M 2253 4666 
L 3047 4666 
L 3047 1625 
L 3713 1625 
L 3713 1100 
L 3047 1100 
L 3047 0 
L 2419 0 
L 2419 1100 
L 313 1100 
L 313 1709 
L 2253 4666 
z
" transform="scale(0.015625)"/>
       </defs>
       <use xlink:href="#DejaVuSans-34"/>
       <use xlink:href="#DejaVuSans-30" transform="translate(63.623047 0)"/>
       <use xlink:href="#DejaVuSans-30" transform="translate(127.246094 0)"/>
      </g>
     </g>
    </g>
    <g id="xtick_4">
     <g id="line2d_4">
      <path d="M 656.611843 609.894375 
L 656.611843 54.554375 
" clip-path="url(#p4a7d800802)" style="fill: none; stroke: #cccccc; stroke-opacity: 0.3; stroke-width: 1.5; stroke-linecap: round"/>
     </g>
     <g id="text_4">
      <!-- 600 -->
      <g style="fill: #262626" transform="translate(626.071843 646.709375) scale(0.32 -0.32)">
       <defs>
        <path id="DejaVuSans-36" d="M 2113 2584 
Q 1688 2584 1439 2293 
Q 1191 2003 1191 1497 
Q 1191 994 1439 701 
Q 1688 409 2113 409 
Q 2538 409 2786 701 
Q 3034 994 3034 1497 
Q 3034 2003 2786 2293 
Q 2538 2584 2113 2584 
z
M 3366 4563 
L 3366 3988 
Q 3128 4100 2886 4159 
Q 2644 4219 2406 4219 
Q 1781 4219 1451 3797 
Q 1122 3375 1075 2522 
Q 1259 2794 1537 2939 
Q 1816 3084 2150 3084 
Q 2853 3084 3261 2657 
Q 3669 2231 3669 1497 
Q 3669 778 3244 343 
Q 2819 -91 2113 -91 
Q 1303 -91 875 529 
Q 447 1150 447 2328 
Q 447 3434 972 4092 
Q 1497 4750 2381 4750 
Q 2619 4750 2861 4703 
Q 3103 4656 3366 4563 
z
" transform="scale(0.015625)"/>
       </defs>
       <use xlink:href="#DejaVuSans-36"/>
       <use xlink:href="#DejaVuSans-30" transform="translate(63.623047 0)"/>
       <use xlink:href="#DejaVuSans-30" transform="translate(127.246094 0)"/>
      </g>
     </g>
    </g>
    <g id="xtick_5">
     <g id="line2d_5">
      <path d="M 829.574888 609.894375 
L 829.574888 54.554375 
" clip-path="url(#p4a7d800802)" style="fill: none; stroke: #cccccc; stroke-opacity: 0.3; stroke-width: 1.5; stroke-linecap: round"/>
     </g>
     <g id="text_5">
      <!-- 800 -->
      <g style="fill: #262626" transform="translate(799.034888 646.709375) scale(0.32 -0.32)">
       <defs>
        <path id="DejaVuSans-38" d="M 2034 2216 
Q 1584 2216 1326 1975 
Q 1069 1734 1069 1313 
Q 1069 891 1326 650 
Q 1584 409 2034 409 
Q 2484 409 2743 651 
Q 3003 894 3003 1313 
Q 3003 1734 2745 1975 
Q 2488 2216 2034 2216 
z
M 1403 2484 
Q 997 2584 770 2862 
Q 544 3141 544 3541 
Q 544 4100 942 4425 
Q 1341 4750 2034 4750 
Q 2731 4750 3128 4425 
Q 3525 4100 3525 3541 
Q 3525 3141 3298 2862 
Q 3072 2584 2669 2484 
Q 3125 2378 3379 2068 
Q 3634 1759 3634 1313 
Q 3634 634 3220 271 
Q 2806 -91 2034 -91 
Q 1263 -91 848 271 
Q 434 634 434 1313 
Q 434 1759 690 2068 
Q 947 2378 1403 2484 
z
M 1172 3481 
Q 1172 3119 1398 2916 
Q 1625 2713 2034 2713 
Q 2441 2713 2670 2916 
Q 2900 3119 2900 3481 
Q 2900 3844 2670 4047 
Q 2441 4250 2034 4250 
Q 1625 4250 1398 4047 
Q 1172 3844 1172 3481 
z
" transform="scale(0.015625)"/>
       </defs>
       <use xlink:href="#DejaVuSans-38"/>
       <use xlink:href="#DejaVuSans-30" transform="translate(63.623047 0)"/>
       <use xlink:href="#DejaVuSans-30" transform="translate(127.246094 0)"/>
      </g>
     </g>
    </g>
    <g id="xtick_6">
     <g id="line2d_6">
      <path d="M 1002.537934 609.894375 
L 1002.537934 54.554375 
" clip-path="url(#p4a7d800802)" style="fill: none; stroke: #cccccc; stroke-opacity: 0.3; stroke-width: 1.5; stroke-linecap: round"/>
     </g>
     <g id="text_6">
      <!-- 1000 -->
      <g style="fill: #262626" transform="translate(961.817934 646.709375) scale(0.32 -0.32)">
       <defs>
        <path id="DejaVuSans-31" d="M 794 531 
L 1825 531 
L 1825 4091 
L 703 3866 
L 703 4441 
L 1819 4666 
L 2450 4666 
L 2450 531 
L 3481 531 
L 3481 0 
L 794 0 
L 794 531 
z
" transform="scale(0.015625)"/>
       </defs>
       <use xlink:href="#DejaVuSans-31"/>
       <use xlink:href="#DejaVuSans-30" transform="translate(63.623047 0)"/>
       <use xlink:href="#DejaVuSans-30" transform="translate(127.246094 0)"/>
       <use xlink:href="#DejaVuSans-30" transform="translate(190.869141 0)"/>
      </g>
     </g>
    </g>
    <g id="text_7">
     <!-- Epoch -->
     <g style="fill: #262626" transform="translate(521.567727 681.679375) scale(0.32 -0.32)">
      <defs>
       <path id="DejaVuSans-45" d="M 628 4666 
L 3578 4666 
L 3578 4134 
L 1259 4134 
L 1259 2753 
L 3481 2753 
L 3481 2222 
L 1259 2222 
L 1259 531 
L 3634 531 
L 3634 0 
L 628 0 
L 628 4666 
z
" transform="scale(0.015625)"/>
       <path id="DejaVuSans-70" d="M 1159 525 
L 1159 -1331 
L 581 -1331 
L 581 3500 
L 1159 3500 
L 1159 2969 
Q 1341 3281 1617 3432 
Q 1894 3584 2278 3584 
Q 2916 3584 3314 3078 
Q 3713 2572 3713 1747 
Q 3713 922 3314 415 
Q 2916 -91 2278 -91 
Q 1894 -91 1617 61 
Q 1341 213 1159 525 
z
M 3116 1747 
Q 3116 2381 2855 2742 
Q 2594 3103 2138 3103 
Q 1681 3103 1420 2742 
Q 1159 2381 1159 1747 
Q 1159 1113 1420 752 
Q 1681 391 2138 391 
Q 2594 391 2855 752 
Q 3116 1113 3116 1747 
z
" transform="scale(0.015625)"/>
       <path id="DejaVuSans-6f" d="M 1959 3097 
Q 1497 3097 1228 2736 
Q 959 2375 959 1747 
Q 959 1119 1226 758 
Q 1494 397 1959 397 
Q 2419 397 2687 759 
Q 2956 1122 2956 1747 
Q 2956 2369 2687 2733 
Q 2419 3097 1959 3097 
z
M 1959 3584 
Q 2709 3584 3137 3096 
Q 3566 2609 3566 1747 
Q 3566 888 3137 398 
Q 2709 -91 1959 -91 
Q 1206 -91 779 398 
Q 353 888 353 1747 
Q 353 2609 779 3096 
Q 1206 3584 1959 3584 
z
" transform="scale(0.015625)"/>
       <path id="DejaVuSans-63" d="M 3122 3366 
L 3122 2828 
Q 2878 2963 2633 3030 
Q 2388 3097 2138 3097 
Q 1578 3097 1268 2742 
Q 959 2388 959 1747 
Q 959 1106 1268 751 
Q 1578 397 2138 397 
Q 2388 397 2633 464 
Q 2878 531 3122 666 
L 3122 134 
Q 2881 22 2623 -34 
Q 2366 -91 2075 -91 
Q 1284 -91 818 406 
Q 353 903 353 1747 
Q 353 2603 823 3093 
Q 1294 3584 2113 3584 
Q 2378 3584 2631 3529 
Q 2884 3475 3122 3366 
z
" transform="scale(0.015625)"/>
       <path id="DejaVuSans-68" d="M 3513 2113 
L 3513 0 
L 2938 0 
L 2938 2094 
Q 2938 2591 2744 2837 
Q 2550 3084 2163 3084 
Q 1697 3084 1428 2787 
Q 1159 2491 1159 1978 
L 1159 0 
L 581 0 
L 581 4863 
L 1159 4863 
L 1159 2956 
Q 1366 3272 1645 3428 
Q 1925 3584 2291 3584 
Q 2894 3584 3203 3211 
Q 3513 2838 3513 2113 
z
" transform="scale(0.015625)"/>
      </defs>
      <use xlink:href="#DejaVuSans-45"/>
      <use xlink:href="#DejaVuSans-70" transform="translate(63.183594 0)"/>
      <use xlink:href="#DejaVuSans-6f" transform="translate(126.660156 0)"/>
      <use xlink:href="#DejaVuSans-63" transform="translate(187.841797 0)"/>
      <use xlink:href="#DejaVuSans-68" transform="translate(242.822266 0)"/>
     </g>
    </g>
   </g>
   <g id="matplotlib.axis_2">
    <g id="ytick_1">
     <g id="line2d_7">
      <path d="M 95.39 585.196536 
L 1045.735455 585.196536 
" clip-path="url(#p4a7d800802)" style="fill: none; stroke: #cccccc; stroke-opacity: 0.3; stroke-width: 1.5; stroke-linecap: round"/>
     </g>
     <g id="text_8">
      <!-- 0 -->
      <g style="fill: #262626" transform="translate(62.53 597.354036) scale(0.32 -0.32)">
       <use xlink:href="#DejaVuSans-30"/>
      </g>
     </g>
    </g>
    <g id="ytick_2">
     <g id="line2d_8">
      <path d="M 95.39 490.429366 
L 1045.735455 490.429366 
" clip-path="url(#p4a7d800802)" style="fill: none; stroke: #cccccc; stroke-opacity: 0.3; stroke-width: 1.5; stroke-linecap: round"/>
     </g>
     <g id="text_9">
      <!-- 2 -->
      <g style="fill: #262626" transform="translate(62.53 502.586866) scale(0.32 -0.32)">
       <use xlink:href="#DejaVuSans-32"/>
      </g>
     </g>
    </g>
    <g id="ytick_3">
     <g id="line2d_9">
      <path d="M 95.39 395.662197 
L 1045.735455 395.662197 
" clip-path="url(#p4a7d800802)" style="fill: none; stroke: #cccccc; stroke-opacity: 0.3; stroke-width: 1.5; stroke-linecap: round"/>
     </g>
     <g id="text_10">
      <!-- 4 -->
      <g style="fill: #262626" transform="translate(62.53 407.819697) scale(0.32 -0.32)">
       <use xlink:href="#DejaVuSans-34"/>
      </g>
     </g>
    </g>
    <g id="ytick_4">
     <g id="line2d_10">
      <path d="M 95.39 300.895027 
L 1045.735455 300.895027 
" clip-path="url(#p4a7d800802)" style="fill: none; stroke: #cccccc; stroke-opacity: 0.3; stroke-width: 1.5; stroke-linecap: round"/>
     </g>
     <g id="text_11">
      <!-- 6 -->
      <g style="fill: #262626" transform="translate(62.53 313.052527) scale(0.32 -0.32)">
       <use xlink:href="#DejaVuSans-36"/>
      </g>
     </g>
    </g>
    <g id="ytick_5">
     <g id="line2d_11">
      <path d="M 95.39 206.127857 
L 1045.735455 206.127857 
" clip-path="url(#p4a7d800802)" style="fill: none; stroke: #cccccc; stroke-opacity: 0.3; stroke-width: 1.5; stroke-linecap: round"/>
     </g>
     <g id="text_12">
      <!-- 8 -->
      <g style="fill: #262626" transform="translate(62.53 218.285357) scale(0.32 -0.32)">
       <use xlink:href="#DejaVuSans-38"/>
      </g>
     </g>
    </g>
    <g id="ytick_6">
     <g id="line2d_12">
      <path d="M 95.39 111.360688 
L 1045.735455 111.360688 
" clip-path="url(#p4a7d800802)" style="fill: none; stroke: #cccccc; stroke-opacity: 0.3; stroke-width: 1.5; stroke-linecap: round"/>
     </g>
     <g id="text_13">
      <!-- 10 -->
      <g style="fill: #262626" transform="translate(42.17 123.518188) scale(0.32 -0.32)">
       <use xlink:href="#DejaVuSans-31"/>
       <use xlink:href="#DejaVuSans-30" transform="translate(63.623047 0)"/>
      </g>
     </g>
    </g>
    <g id="text_14">
     <!-- Loss -->
     <g style="fill: #262626" transform="translate(31.515 367.319375) rotate(-90) scale(0.32 -0.32)">
      <defs>
       <path id="DejaVuSans-4c" d="M 628 4666 
L 1259 4666 
L 1259 531 
L 3531 531 
L 3531 0 
L 628 0 
L 628 4666 
z
" transform="scale(0.015625)"/>
       <path id="DejaVuSans-73" d="M 2834 3397 
L 2834 2853 
Q 2591 2978 2328 3040 
Q 2066 3103 1784 3103 
Q 1356 3103 1142 2972 
Q 928 2841 928 2578 
Q 928 2378 1081 2264 
Q 1234 2150 1697 2047 
L 1894 2003 
Q 2506 1872 2764 1633 
Q 3022 1394 3022 966 
Q 3022 478 2636 193 
Q 2250 -91 1575 -91 
Q 1294 -91 989 -36 
Q 684 19 347 128 
L 347 722 
Q 666 556 975 473 
Q 1284 391 1588 391 
Q 1994 391 2212 530 
Q 2431 669 2431 922 
Q 2431 1156 2273 1281 
Q 2116 1406 1581 1522 
L 1381 1569 
Q 847 1681 609 1914 
Q 372 2147 372 2553 
Q 372 3047 722 3315 
Q 1072 3584 1716 3584 
Q 2034 3584 2315 3537 
Q 2597 3491 2834 3397 
z
" transform="scale(0.015625)"/>
      </defs>
      <use xlink:href="#DejaVuSans-4c"/>
      <use xlink:href="#DejaVuSans-6f" transform="translate(53.962891 0)"/>
      <use xlink:href="#DejaVuSans-73" transform="translate(115.144531 0)"/>
      <use xlink:href="#DejaVuSans-73" transform="translate(167.244141 0)"/>
     </g>
    </g>
   </g>
   <g id="FillBetweenPolyCollection_1"/>
   <g id="FillBetweenPolyCollection_2"/>
   <g id="line2d_13">
    <path d="M 138.587521 356.901279 
L 139.452336 360.525466 
L 140.317151 362.446474 
L 141.181966 363.345002 
L 142.046782 364.825807 
L 142.911597 366.541773 
L 143.776412 369.172693 
L 147.235673 384.299027 
L 149.830119 398.592626 
L 155.01901 437.363857 
L 156.74864 451.029619 
L 157.613456 459.709123 
L 159.343086 474.215244 
L 161.072717 488.808884 
L 161.937532 495.653773 
L 165.396793 518.592533 
L 166.261608 522.263642 
L 167.126423 527.195499 
L 168.856054 535.319189 
L 172.315315 546.419537 
L 173.18013 548.430751 
L 174.044945 549.701454 
L 174.90976 551.673399 
L 175.774575 553.00868 
L 176.639391 555.016052 
L 177.504206 555.878503 
L 179.233836 558.814869 
L 180.098652 558.736202 
L 180.963467 561.047783 
L 181.828282 562.371278 
L 182.693097 563.15916 
L 183.557913 563.502714 
L 185.287543 565.496994 
L 186.152358 566.013051 
L 187.017173 566.904236 
L 187.881989 567.959525 
L 188.746804 569.224587 
L 192.206065 571.282458 
L 193.07088 571.47332 
L 193.935695 571.439979 
L 194.800511 572.65986 
L 195.665326 571.714208 
L 196.530141 572.608339 
L 197.394956 573.113082 
L 198.259771 573.76459 
L 199.124587 573.708682 
L 200.854217 575.187675 
L 201.719032 575.524899 
L 202.583848 575.725985 
L 203.448663 575.577802 
L 204.313478 576.265971 
L 205.178293 576.404435 
L 206.043108 576.953768 
L 206.907924 576.648977 
L 207.772739 576.476659 
L 208.637554 577.080832 
L 209.502369 576.64699 
L 210.367185 577.273609 
L 211.232 577.596632 
L 213.826446 578.063181 
L 214.691261 577.542683 
L 215.556076 578.314396 
L 216.420891 578.53797 
L 217.285706 579.018893 
L 218.150522 578.826139 
L 219.015337 579.272327 
L 219.880152 579.471977 
L 220.744967 579.407774 
L 221.609783 579.131241 
L 222.474598 578.729982 
L 223.339413 579.180142 
L 224.204228 578.934095 
L 225.069044 579.249756 
L 225.933859 579.187247 
L 226.798674 579.885518 
L 227.663489 579.485237 
L 228.528304 579.933241 
L 231.987565 579.979605 
L 233.717196 580.308297 
L 234.582011 580.12477 
L 236.311641 580.350768 
L 238.906087 580.332652 
L 240.635718 580.249148 
L 241.500533 579.976356 
L 242.365348 580.50156 
L 243.230163 580.498542 
L 244.094979 580.777923 
L 245.824609 580.72337 
L 246.689424 581.226314 
L 248.419055 581.363578 
L 249.28387 580.940483 
L 250.148685 580.70577 
L 251.0135 581.072722 
L 251.878316 580.477377 
L 252.743131 581.232902 
L 254.472761 581.191831 
L 255.337577 580.915708 
L 256.202392 580.851206 
L 257.067207 581.565876 
L 257.932022 582.043344 
L 258.796837 581.332701 
L 259.661653 581.650811 
L 261.391283 581.287744 
L 262.256098 581.411777 
L 263.120914 581.789528 
L 263.985729 581.300758 
L 264.850544 581.409487 
L 265.715359 581.737006 
L 268.309805 581.418262 
L 269.17462 581.820123 
L 270.904251 581.599016 
L 271.769066 581.997151 
L 272.633881 581.81095 
L 273.498696 581.991865 
L 274.363512 581.902441 
L 275.228327 581.489294 
L 276.093142 581.860241 
L 277.822772 582.121571 
L 278.687588 581.93048 
L 279.552403 582.229887 
L 281.282033 581.949426 
L 282.146849 582.187837 
L 283.011664 581.788878 
L 283.876479 582.145784 
L 284.741294 581.525246 
L 285.606109 582.064935 
L 286.470925 581.96713 
L 287.33574 582.183607 
L 288.200555 582.177072 
L 289.06537 582.669215 
L 289.930186 581.899632 
L 290.795001 582.115276 
L 291.659816 581.572214 
L 292.524631 581.796561 
L 294.254262 582.50733 
L 295.119077 582.463919 
L 295.983892 582.538416 
L 296.848707 582.308825 
L 297.713523 582.535868 
L 298.578338 582.4026 
L 301.172784 582.39689 
L 302.037599 582.702549 
L 303.767229 582.407335 
L 304.632045 582.5581 
L 305.49686 582.240519 
L 308.091305 582.468971 
L 308.956121 582.854149 
L 310.685751 582.745327 
L 311.550566 582.733639 
L 315.874642 582.066964 
L 317.604273 582.593233 
L 318.469088 582.836645 
L 320.198719 582.42036 
L 321.063534 582.697185 
L 321.928349 582.661243 
L 322.793164 583.020704 
L 323.65798 582.747769 
L 324.522795 582.869885 
L 325.38761 582.699567 
L 326.252425 582.176598 
L 327.11724 582.270351 
L 327.982056 582.589585 
L 328.846871 583.090327 
L 330.576501 582.805432 
L 331.441317 582.991416 
L 332.306132 582.797448 
L 334.035762 582.645741 
L 334.900578 582.493619 
L 335.765393 582.905666 
L 336.630208 582.771088 
L 337.495023 582.875386 
L 338.359838 582.458047 
L 339.224654 582.897052 
L 340.089469 582.680008 
L 340.954284 582.773403 
L 341.819099 582.99253 
L 345.27836 582.921466 
L 346.143175 582.777096 
L 347.007991 583.123512 
L 347.872806 582.846229 
L 348.737621 583.005359 
L 349.602436 583.028924 
L 351.332067 583.458137 
L 352.196882 583.040251 
L 353.061697 583.277645 
L 353.926513 583.371883 
L 354.791328 582.856521 
L 355.656143 582.499805 
L 356.520958 582.94097 
L 357.385773 582.314357 
L 358.250589 582.739585 
L 359.115404 582.891411 
L 359.980219 582.929173 
L 360.845034 582.747663 
L 361.70985 583.130571 
L 362.574665 582.783138 
L 363.43948 582.860777 
L 365.169111 582.53718 
L 366.033926 582.763286 
L 366.898741 582.668093 
L 367.763556 583.164444 
L 369.493187 583.184449 
L 370.358002 582.960466 
L 371.222817 583.166688 
L 372.087632 582.808622 
L 372.952448 583.148452 
L 373.817263 583.167513 
L 374.682078 583.420196 
L 375.546893 583.256488 
L 376.411708 583.287348 
L 377.276524 583.133373 
L 378.141339 583.131936 
L 379.006154 583.412904 
L 379.870969 583.295371 
L 380.735785 582.858486 
L 381.6006 582.821065 
L 382.465415 583.134268 
L 383.33023 583.226441 
L 384.195046 583.074374 
L 385.059861 583.291391 
L 386.789491 582.924308 
L 388.519122 583.206429 
L 389.383937 582.922083 
L 390.248752 583.250211 
L 391.978383 583.028299 
L 392.843198 583.469946 
L 393.708013 583.361392 
L 394.572828 583.533334 
L 396.302459 583.232101 
L 397.167274 583.242525 
L 398.032089 582.998416 
L 398.896904 583.5845 
L 399.76172 583.190462 
L 400.626535 583.600696 
L 401.49135 583.363134 
L 402.356165 583.378599 
L 403.220981 583.618886 
L 404.085796 583.35018 
L 404.950611 583.206629 
L 405.815426 583.254955 
L 406.680241 582.94713 
L 407.545057 583.042986 
L 408.409872 583.341956 
L 409.274687 583.033641 
L 411.004318 583.429673 
L 411.869133 583.398367 
L 412.733948 583.5837 
L 413.598763 583.235683 
L 414.463579 583.147749 
L 416.193209 583.30879 
L 417.058024 583.347207 
L 417.922839 583.254033 
L 418.787655 583.381305 
L 420.517285 583.170653 
L 421.3821 583.296822 
L 422.246916 583.096731 
L 423.111731 582.768697 
L 423.976546 583.520487 
L 425.706177 583.385796 
L 426.570992 582.926926 
L 427.435807 583.2398 
L 428.300622 582.910444 
L 429.165437 583.083217 
L 430.030253 582.955832 
L 431.759883 583.468203 
L 433.489514 583.446898 
L 434.354329 583.783277 
L 435.219144 583.781645 
L 436.083959 583.635658 
L 436.948774 583.838168 
L 437.81359 583.356722 
L 439.54322 583.462905 
L 440.408035 583.601672 
L 441.272851 583.443795 
L 442.137666 583.561053 
L 443.002481 583.43115 
L 443.867296 583.438414 
L 444.732112 583.081766 
L 445.596927 583.363307 
L 446.461742 583.44566 
L 448.191372 583.300331 
L 449.056188 583.477456 
L 449.921003 583.381101 
L 450.785818 583.053492 
L 451.650633 583.701813 
L 454.245079 583.675389 
L 455.109894 583.549172 
L 455.97471 583.713639 
L 456.839525 583.389074 
L 457.70434 583.502179 
L 462.028416 583.586953 
L 462.893231 583.659185 
L 463.758047 583.351553 
L 464.622862 583.641545 
L 465.487677 583.436607 
L 466.352492 583.077275 
L 467.217307 583.510724 
L 468.082123 583.28551 
L 468.946938 583.253067 
L 470.676568 583.699133 
L 471.541384 583.49739 
L 472.406199 583.737941 
L 473.271014 583.775417 
L 474.135829 583.290089 
L 475.000645 583.273721 
L 475.86546 583.647919 
L 476.730275 583.302456 
L 477.59509 583.502388 
L 478.459905 583.252806 
L 479.324721 583.664559 
L 480.189536 583.91961 
L 481.054351 583.771766 
L 481.919166 583.838793 
L 482.783982 583.371767 
L 483.648797 583.461065 
L 484.513612 583.241474 
L 485.378427 583.710505 
L 486.243242 583.372054 
L 487.108058 583.375615 
L 487.972873 583.121908 
L 488.837688 583.467633 
L 489.702503 583.245715 
L 491.432134 583.532832 
L 493.161764 583.794246 
L 494.891395 583.480409 
L 495.75621 583.743283 
L 496.621025 583.089408 
L 497.48584 583.655737 
L 498.350656 583.769629 
L 500.945101 583.591138 
L 501.809917 583.848863 
L 502.674732 583.889235 
L 504.404362 583.659568 
L 506.133993 583.733113 
L 506.998808 583.9553 
L 507.863623 583.956248 
L 508.728438 583.640082 
L 509.593254 583.745196 
L 511.322884 583.792854 
L 513.052515 583.483999 
L 513.91733 583.737443 
L 514.782145 583.63991 
L 515.64696 583.770524 
L 516.511775 583.416323 
L 517.376591 583.54601 
L 518.241406 583.79756 
L 519.106221 583.784623 
L 519.971036 583.526626 
L 521.700667 583.899062 
L 522.565482 583.662554 
L 523.430297 583.88311 
L 524.295113 583.931287 
L 525.159928 583.843486 
L 526.024743 583.907314 
L 528.619189 583.106312 
L 529.484004 583.317139 
L 530.348819 583.736812 
L 532.07845 583.42466 
L 532.943265 583.639221 
L 533.80808 583.596748 
L 534.672895 584.013323 
L 535.537711 583.848619 
L 536.402526 584.12124 
L 537.267341 584.038858 
L 538.132156 583.535781 
L 538.996971 583.859722 
L 539.861787 583.432395 
L 540.726602 583.85298 
L 541.591417 583.912257 
L 542.456232 583.844946 
L 543.321048 583.513571 
L 544.185863 584.011559 
L 545.050678 583.624994 
L 545.915493 583.520575 
L 547.645124 583.885712 
L 548.509939 583.630264 
L 549.374754 583.924634 
L 550.239569 583.991504 
L 551.9692 583.740608 
L 552.834015 583.459917 
L 553.69883 583.663245 
L 554.563646 583.64945 
L 555.428461 583.808221 
L 556.293276 583.543375 
L 557.158091 583.603178 
L 558.022906 583.83149 
L 558.887722 583.901931 
L 559.752537 583.793845 
L 563.211798 583.814469 
L 564.076613 583.723728 
L 564.941428 583.787018 
L 565.806244 583.989514 
L 567.535874 583.831794 
L 568.400689 584.087178 
L 571.85995 584.060103 
L 572.724765 583.784488 
L 574.454396 583.654043 
L 576.184026 583.949342 
L 577.048841 583.525655 
L 577.913657 583.409625 
L 578.778472 583.617042 
L 579.643287 583.578522 
L 580.508102 583.765931 
L 584.832179 583.725231 
L 585.696994 583.847514 
L 586.561809 583.737885 
L 587.426624 584.211257 
L 589.156255 583.895059 
L 590.02107 584.016781 
L 591.7507 583.65666 
L 592.615516 583.839401 
L 593.480331 583.901614 
L 594.345146 583.770088 
L 595.209961 584.276326 
L 596.939592 584.051561 
L 597.804407 584.180799 
L 598.669222 583.996588 
L 601.263668 584.037891 
L 602.128483 583.710186 
L 602.993298 583.90482 
L 603.858114 583.601811 
L 604.722929 583.813228 
L 606.452559 583.712999 
L 608.18219 583.978788 
L 609.047005 583.684832 
L 610.776635 584.153567 
L 612.506266 583.744505 
L 613.371081 583.804233 
L 614.235896 584.112563 
L 615.100712 584.034263 
L 615.965527 583.786373 
L 616.830342 584.209601 
L 617.695157 583.985957 
L 618.559972 583.964517 
L 619.424788 584.056889 
L 620.289603 583.926465 
L 622.019233 584.051337 
L 623.748864 583.674865 
L 624.613679 583.795208 
L 625.478494 583.640102 
L 627.208125 584.045128 
L 628.07294 583.730148 
L 628.937755 584.158999 
L 631.532201 583.987704 
L 632.397016 583.657165 
L 633.261831 583.669844 
L 634.126647 583.996721 
L 635.856277 583.957594 
L 636.721092 584.085844 
L 637.585907 583.691203 
L 638.450723 584.134777 
L 641.045168 584.02992 
L 641.909984 584.147821 
L 643.639614 584.176684 
L 644.504429 583.956844 
L 645.369245 583.865427 
L 646.23406 584.0691 
L 647.098875 583.92305 
L 647.96369 584.030716 
L 648.828505 583.824004 
L 649.693321 583.749967 
L 650.558136 584.042038 
L 653.152582 584.181931 
L 654.882212 584.358193 
L 656.611843 583.874145 
L 658.341473 584.238463 
L 659.206288 583.974869 
L 660.071103 583.850994 
L 660.935919 584.077495 
L 662.665549 583.929195 
L 666.12481 583.911927 
L 666.989625 583.634073 
L 667.85444 583.6232 
L 668.719256 584.275213 
L 669.584071 583.805577 
L 670.448886 583.967489 
L 671.313701 584.00452 
L 672.178517 584.217909 
L 673.043332 584.204027 
L 673.908147 583.817769 
L 674.772962 584.154198 
L 675.637778 584.017265 
L 678.232223 584.019443 
L 679.961854 584.174905 
L 681.691484 584.389294 
L 682.556299 584.209134 
L 685.150745 584.028325 
L 686.01556 583.775118 
L 688.610006 583.977026 
L 689.474821 583.707247 
L 690.339636 583.848376 
L 691.204452 583.816427 
L 692.069267 584.174802 
L 692.934082 584.026119 
L 693.798897 584.172047 
L 694.663713 584.100013 
L 696.393343 584.447007 
L 697.258158 583.91475 
L 698.122973 584.097656 
L 698.987789 583.910749 
L 699.852604 584.176072 
L 700.717419 584.270132 
L 701.582234 584.12528 
L 702.44705 584.381446 
L 703.311865 584.122218 
L 704.17668 584.186176 
L 705.041495 584.377004 
L 705.906311 583.991584 
L 706.771126 584.411329 
L 708.500756 584.044063 
L 709.365571 584.263642 
L 710.230387 584.107473 
L 711.095202 584.104201 
L 711.960017 584.261278 
L 713.689648 584.221047 
L 715.419278 583.874594 
L 717.148908 584.213233 
L 718.013724 583.936917 
L 720.608169 584.047636 
L 721.472985 584.275519 
L 722.3378 584.236912 
L 723.202615 584.084789 
L 724.06743 584.329601 
L 725.797061 584.023034 
L 726.661876 584.109198 
L 728.391506 583.952597 
L 729.256322 584.302361 
L 732.715583 584.033172 
L 733.580398 584.028665 
L 734.445213 584.158188 
L 736.174844 584.143875 
L 737.039659 584.212813 
L 737.904474 584.481698 
L 738.769289 584.327237 
L 739.634104 584.453304 
L 740.49892 584.109509 
L 741.363735 584.143983 
L 742.22855 584.316708 
L 743.093365 584.160606 
L 743.958181 584.128826 
L 744.822996 584.254568 
L 745.687811 584.248681 
L 746.552626 584.499278 
L 747.417441 584.164808 
L 748.282257 584.149156 
L 749.147072 584.287165 
L 750.011887 584.279517 
L 750.876702 584.42519 
L 751.741518 584.116316 
L 752.606333 584.171518 
L 753.471148 583.78332 
L 754.335963 584.191492 
L 756.065594 584.043413 
L 756.930409 584.241147 
L 757.795224 583.926634 
L 758.660039 583.977765 
L 760.38967 584.393408 
L 761.254485 584.35488 
L 762.1193 584.185925 
L 762.984116 584.349403 
L 763.848931 583.95692 
L 764.713746 584.171252 
L 767.308192 584.29243 
L 770.767453 583.609076 
L 772.497083 584.05982 
L 774.226714 584.327184 
L 775.091529 583.940897 
L 777.685974 584.229599 
L 779.415605 584.066614 
L 780.28042 584.317227 
L 781.145235 584.130436 
L 782.874866 584.255517 
L 783.739681 584.188309 
L 784.604496 584.365466 
L 786.334127 584.028931 
L 787.198942 584.318032 
L 788.928572 584.194072 
L 789.793388 584.254558 
L 791.523018 584.073768 
L 792.387833 584.27882 
L 793.252649 584.143318 
L 794.117464 584.293712 
L 794.982279 584.159328 
L 795.847094 584.425627 
L 797.576725 584.156313 
L 798.44154 584.324107 
L 799.306355 584.159313 
L 800.17117 584.409499 
L 801.900801 584.182837 
L 802.765616 584.380219 
L 804.495247 584.083808 
L 805.360062 584.379676 
L 806.224877 584.168446 
L 807.954507 584.028556 
L 808.819323 583.941626 
L 809.684138 584.122494 
L 810.548953 583.870175 
L 811.413768 584.024869 
L 812.278584 584.052 
L 813.143399 584.270655 
L 814.008214 584.099239 
L 816.60266 584.246344 
L 817.467475 584.158708 
L 818.33229 584.298353 
L 819.197105 584.009245 
L 820.061921 584.137243 
L 820.926736 584.512285 
L 822.656366 584.358547 
L 823.521182 584.004885 
L 824.385997 584.263452 
L 825.250812 584.192399 
L 826.115627 584.004989 
L 828.710073 584.464506 
L 835.628595 584.350173 
L 836.49341 584.553658 
L 837.358225 584.273726 
L 838.22304 584.278055 
L 839.087856 584.099153 
L 839.952671 584.213738 
L 840.817486 584.498114 
L 842.547117 584.224249 
L 844.276747 584.382913 
L 846.006378 584.257119 
L 846.871193 584.195143 
L 848.600823 584.374627 
L 849.465638 584.271388 
L 850.330454 584.386833 
L 851.195269 584.160377 
L 852.060084 584.486228 
L 852.924899 584.610324 
L 854.65453 584.252794 
L 855.519345 584.464439 
L 856.38416 584.063028 
L 857.248976 584.359075 
L 858.113791 584.381023 
L 858.978606 584.060358 
L 859.843421 584.439883 
L 861.573052 584.201459 
L 862.437867 584.26478 
L 863.302682 584.499156 
L 864.167497 584.096098 
L 865.032313 584.420563 
L 865.897128 584.003187 
L 866.761943 584.367179 
L 867.626758 584.126615 
L 868.491573 584.334725 
L 869.356389 584.421714 
L 870.221204 584.174104 
L 871.086019 584.40032 
L 871.950834 584.34094 
L 874.54528 584.494116 
L 876.274911 584.332385 
L 877.139726 584.138138 
L 878.004541 584.341263 
L 878.869356 584.405399 
L 879.734171 584.629874 
L 880.598987 584.330239 
L 881.463802 584.371529 
L 882.328617 584.281666 
L 883.193432 584.077078 
L 884.923063 584.484471 
L 885.787878 584.132025 
L 886.652693 584.354405 
L 887.517509 584.158269 
L 890.976769 584.546184 
L 891.841585 584.289002 
L 892.7064 583.847717 
L 893.571215 584.433864 
L 896.165661 584.432434 
L 897.030476 584.148242 
L 898.760106 584.141224 
L 899.624922 584.243591 
L 901.354552 584.037366 
L 903.948998 584.540848 
L 907.408259 584.31852 
L 908.273074 584.16222 
L 911.732335 584.397076 
L 912.59715 584.172635 
L 913.461965 584.265501 
L 914.326781 584.123774 
L 915.191596 584.401249 
L 919.515672 584.29935 
L 920.380487 584.099581 
L 921.245302 584.133766 
L 922.110118 584.388959 
L 922.974933 584.498127 
L 923.839748 584.258559 
L 924.704563 584.191928 
L 925.569379 584.328352 
L 928.163824 583.985733 
L 929.028639 584.22712 
L 930.75827 584.02483 
L 931.623085 584.501342 
L 935.082346 584.529553 
L 935.947161 584.248735 
L 936.811977 584.489143 
L 937.676792 584.041512 
L 938.541607 584.388767 
L 939.406422 584.571138 
L 940.271237 584.343029 
L 942.865683 584.561749 
L 943.730498 584.577163 
L 945.460129 584.355661 
L 946.324944 584.415349 
L 947.189759 584.295246 
L 948.054574 584.382142 
L 950.64902 584.198238 
L 951.513835 584.336014 
L 952.378651 584.238248 
L 954.973096 584.399898 
L 955.837912 584.303472 
L 956.702727 584.561253 
L 957.567542 584.328903 
L 959.297172 584.387907 
L 960.161988 584.019148 
L 961.891618 584.499461 
L 962.756433 584.560277 
L 963.621249 584.226079 
L 964.486064 584.483712 
L 967.08051 584.527277 
L 973.134216 584.37464 
L 973.999031 584.124571 
L 974.863847 584.394317 
L 978.323107 584.439956 
L 979.187923 584.252122 
L 980.917553 584.486404 
L 981.782368 584.325193 
L 982.647184 584.400103 
L 983.511999 584.271109 
L 987.836075 584.37392 
L 988.70089 584.315549 
L 990.430521 584.507832 
L 992.160151 584.337956 
L 993.024966 584.337797 
L 993.889782 584.501012 
L 994.754597 584.434911 
L 995.619412 584.492182 
L 996.484227 584.284215 
L 997.349043 584.474208 
L 998.213858 584.190355 
L 999.943488 584.463112 
L 1000.808303 584.29926 
L 1002.537934 584.418003 
L 1002.537934 584.418003 
" clip-path="url(#p4a7d800802)" style="fill: none; stroke: #4c72b0; stroke-width: 6; stroke-linecap: round"/>
   </g>
   <g id="line2d_14">
    <path d="M 138.587521 359.663472 
L 139.452336 361.057154 
L 140.317151 361.259553 
L 141.181966 359.823259 
L 142.046782 355.637651 
L 142.911597 352.225105 
L 143.776412 345.166683 
L 144.641227 341.969279 
L 145.506042 339.802423 
L 146.370858 337.00069 
L 147.235673 335.804008 
L 148.100488 334.8588 
L 148.965303 335.245433 
L 149.830119 336.062644 
L 150.694934 337.898924 
L 151.559749 338.494351 
L 152.424564 338.795261 
L 153.28938 338.015872 
L 154.154195 338.528694 
L 155.01901 338.65416 
L 155.883825 338.543177 
L 156.74864 340.097165 
L 157.613456 340.675442 
L 158.478271 341.578331 
L 159.343086 342.069711 
L 160.207901 343.52033 
L 161.072717 342.579708 
L 161.937532 343.507496 
L 162.802347 340.670403 
L 163.667162 340.72542 
L 164.531978 338.224711 
L 165.396793 337.312604 
L 166.261608 334.953153 
L 167.126423 332.085536 
L 167.991238 330.077336 
L 168.856054 325.67462 
L 169.720869 323.253871 
L 170.585684 320.213588 
L 171.450499 318.601534 
L 172.315315 313.429099 
L 173.18013 309.500342 
L 174.044945 306.211003 
L 174.90976 302.112134 
L 175.774575 299.426536 
L 176.639391 298.034843 
L 177.504206 292.940019 
L 178.369021 289.802965 
L 179.233836 285.167754 
L 180.098652 284.214548 
L 180.963467 282.307254 
L 181.828282 276.673806 
L 182.693097 274.304866 
L 183.557913 270.145106 
L 185.287543 263.066755 
L 186.152358 257.943282 
L 187.017173 255.230639 
L 189.611619 248.064623 
L 190.476434 242.977142 
L 191.34125 241.1607 
L 192.206065 236.156863 
L 193.07088 235.068476 
L 193.935695 233.221282 
L 195.665326 226.536705 
L 196.530141 225.014417 
L 197.394956 221.455867 
L 198.259771 217.415314 
L 199.989402 211.128418 
L 201.719032 207.322867 
L 202.583848 203.034116 
L 203.448663 201.541178 
L 205.178293 195.671553 
L 206.043108 193.758 
L 206.907924 192.50185 
L 207.772739 189.572053 
L 208.637554 188.699508 
L 209.502369 185.66266 
L 210.367185 183.616795 
L 211.232 181.23274 
L 212.096815 177.481506 
L 213.826446 174.05075 
L 214.691261 174.59726 
L 215.556076 174.058341 
L 216.420891 171.061982 
L 217.285706 169.40266 
L 218.150522 165.964989 
L 219.015337 164.183749 
L 219.880152 161.816052 
L 220.744967 161.137275 
L 221.609783 159.199275 
L 222.474598 157.625812 
L 223.339413 157.169001 
L 224.204228 157.045456 
L 225.069044 159.794363 
L 225.933859 158.408748 
L 226.798674 155.582794 
L 227.663489 154.585484 
L 228.528304 151.205745 
L 229.39312 150.452859 
L 230.257935 149.263723 
L 231.12275 149.635534 
L 231.987565 148.184938 
L 233.717196 143.44977 
L 234.582011 143.482215 
L 235.446826 142.454312 
L 236.311641 140.9494 
L 237.176457 139.095677 
L 238.041272 134.826086 
L 238.906087 133.771295 
L 239.770902 133.688284 
L 240.635718 135.328717 
L 241.500533 135.373861 
L 242.365348 133.532474 
L 243.230163 133.407438 
L 244.094979 132.749357 
L 244.959794 130.567566 
L 245.824609 129.050633 
L 246.689424 128.942723 
L 247.554239 125.60153 
L 248.419055 127.125964 
L 249.28387 124.871825 
L 250.148685 125.826116 
L 251.0135 124.578552 
L 251.878316 122.926731 
L 252.743131 120.586373 
L 253.607946 120.981276 
L 254.472761 120.389442 
L 255.337577 116.698851 
L 256.202392 115.922151 
L 257.067207 116.17123 
L 257.932022 116.794515 
L 258.796837 116.448055 
L 259.661653 111.450929 
L 260.526468 110.673641 
L 261.391283 112.618871 
L 262.256098 112.112127 
L 263.120914 115.560056 
L 263.985729 115.923733 
L 266.580174 110.73076 
L 267.44499 110.41435 
L 268.309805 111.392229 
L 269.17462 107.100179 
L 270.039435 110.949065 
L 270.904251 110.01285 
L 271.769066 111.935169 
L 272.633881 110.880379 
L 273.498696 112.295186 
L 274.363512 110.971434 
L 275.228327 108.288728 
L 276.093142 106.651141 
L 276.957957 105.934045 
L 277.822772 104.00567 
L 278.687588 103.973767 
L 279.552403 105.502811 
L 280.417218 103.717413 
L 281.282033 106.370159 
L 282.146849 103.461917 
L 283.011664 102.542286 
L 283.876479 102.389955 
L 284.741294 102.063559 
L 285.606109 105.179216 
L 286.470925 103.512393 
L 287.33574 104.096319 
L 288.200555 101.91873 
L 289.06537 103.212612 
L 289.930186 101.334397 
L 290.795001 101.881268 
L 291.659816 101.388307 
L 292.524631 98.335642 
L 293.389447 100.421408 
L 294.254262 99.404848 
L 295.119077 99.223913 
L 295.983892 98.569674 
L 296.848707 95.116549 
L 297.713523 95.893701 
L 298.578338 96.108798 
L 299.443153 98.312913 
L 300.307968 96.245132 
L 301.172784 99.832783 
L 302.037599 95.777837 
L 302.902414 98.635061 
L 303.767229 96.372518 
L 304.632045 96.425841 
L 305.49686 97.452117 
L 306.361675 96.327013 
L 307.22649 96.977863 
L 308.091305 96.96268 
L 308.956121 97.151116 
L 309.820936 96.415538 
L 310.685751 99.499021 
L 311.550566 98.004772 
L 312.415382 98.049554 
L 313.280197 94.287611 
L 314.145012 95.072806 
L 315.009827 97.384244 
L 315.874642 102.007661 
L 316.739458 100.685671 
L 317.604273 97.210223 
L 318.469088 97.35112 
L 319.333903 94.702983 
L 320.198719 96.001972 
L 321.063534 96.020228 
L 321.928349 93.962344 
L 322.793164 92.97249 
L 323.65798 93.207018 
L 324.522795 95.30625 
L 325.38761 91.181217 
L 326.252425 92.697879 
L 327.11724 91.998225 
L 327.982056 88.265835 
L 328.846871 88.695759 
L 330.576501 89.183252 
L 331.441317 89.675536 
L 332.306132 87.062194 
L 333.170947 85.755026 
L 334.035762 87.242496 
L 334.900578 89.162556 
L 337.495023 84.045364 
L 338.359838 88.274692 
L 339.224654 88.866255 
L 340.089469 90.054261 
L 340.954284 89.253792 
L 341.819099 88.652197 
L 342.683915 86.138089 
L 343.54873 87.338251 
L 345.27836 89.26048 
L 346.143175 85.596189 
L 347.007991 88.958259 
L 347.872806 86.69811 
L 348.737621 88.678361 
L 349.602436 84.081515 
L 350.467252 85.56894 
L 351.332067 87.680237 
L 352.196882 87.094911 
L 353.061697 86.755816 
L 353.926513 85.639299 
L 354.791328 88.957129 
L 355.656143 90.00966 
L 356.520958 87.349051 
L 357.385773 91.263144 
L 358.250589 88.321462 
L 359.980219 86.427341 
L 360.845034 88.836205 
L 361.70985 87.296768 
L 362.574665 92.484544 
L 363.43948 91.041088 
L 364.304295 88.979317 
L 365.169111 86.220875 
L 366.033926 87.611009 
L 366.898741 86.634575 
L 367.763556 86.500366 
L 368.628371 83.206349 
L 369.493187 84.985195 
L 370.358002 87.870752 
L 371.222817 85.010455 
L 372.087632 85.366676 
L 373.817263 89.394238 
L 374.682078 88.70213 
L 375.546893 86.789391 
L 376.411708 86.991339 
L 377.276524 88.338227 
L 378.141339 85.455426 
L 379.006154 84.111068 
L 379.870969 82.160552 
L 380.735785 83.494787 
L 381.6006 86.255896 
L 382.465415 87.665913 
L 383.33023 87.301603 
L 384.195046 84.246182 
L 385.059861 81.740208 
L 385.924676 83.922542 
L 386.789491 85.021526 
L 387.654306 86.683108 
L 388.519122 87.668805 
L 389.383937 85.485025 
L 390.248752 85.938627 
L 391.113567 86.17912 
L 391.978383 88.659337 
L 392.843198 93.035166 
L 394.572828 89.809927 
L 395.437644 91.069737 
L 396.302459 93.936722 
L 397.167274 95.589175 
L 398.032089 94.675599 
L 398.896904 86.413694 
L 399.76172 86.213102 
L 400.626535 87.948522 
L 401.49135 85.577616 
L 402.356165 86.194033 
L 403.220981 85.567223 
L 404.085796 86.201579 
L 404.950611 87.427363 
L 405.815426 87.952046 
L 406.680241 87.637128 
L 407.545057 87.113754 
L 408.409872 85.388593 
L 409.274687 84.024035 
L 410.139502 86.883383 
L 411.004318 87.724567 
L 411.869133 88.88537 
L 412.733948 84.474158 
L 413.598763 84.528881 
L 414.463579 85.944637 
L 415.328394 86.139897 
L 416.193209 89.709427 
L 417.058024 90.212827 
L 417.922839 87.045791 
L 418.787655 85.977037 
L 419.65247 84.652427 
L 420.517285 82.005329 
L 421.3821 82.496393 
L 422.246916 87.319001 
L 423.111731 89.388996 
L 424.841361 85.639705 
L 425.706177 86.505336 
L 426.570992 83.090441 
L 427.435807 82.010752 
L 428.300622 82.714698 
L 429.165437 79.797102 
L 430.030253 83.932077 
L 430.895068 87.48299 
L 431.759883 87.534233 
L 432.624698 89.39591 
L 433.489514 90.763585 
L 434.354329 84.822381 
L 435.219144 81.92643 
L 436.083959 87.24087 
L 436.948774 85.501157 
L 437.81359 82.157072 
L 438.678405 83.721589 
L 439.54322 83.540066 
L 440.408035 84.104019 
L 441.272851 83.276934 
L 442.137666 84.652065 
L 443.002481 86.781077 
L 443.867296 85.483805 
L 444.732112 86.521649 
L 445.596927 88.813927 
L 446.461742 90.257835 
L 447.326557 92.746366 
L 448.191372 92.39001 
L 449.056188 91.912232 
L 449.921003 89.740291 
L 450.785818 89.978254 
L 451.650633 89.63943 
L 453.380264 93.916613 
L 454.245079 90.306187 
L 455.109894 96.716629 
L 455.97471 96.844602 
L 456.839525 95.998131 
L 457.70434 94.663398 
L 458.569155 97.49003 
L 459.43397 99.456453 
L 460.298786 95.987467 
L 461.163601 93.78403 
L 462.028416 95.621937 
L 463.758047 94.603207 
L 464.622862 92.267368 
L 465.487677 88.757351 
L 466.352492 87.787063 
L 467.217307 92.894991 
L 468.082123 93.291611 
L 468.946938 92.459103 
L 469.811753 93.388947 
L 470.676568 93.917381 
L 471.541384 98.592132 
L 472.406199 101.422966 
L 473.271014 97.847471 
L 474.135829 97.265307 
L 475.000645 98.460227 
L 475.86546 97.401912 
L 476.730275 94.15331 
L 477.59509 94.209028 
L 478.459905 92.788572 
L 479.324721 89.594423 
L 480.189536 92.950438 
L 481.054351 94.300444 
L 481.919166 93.297033 
L 482.783982 90.939504 
L 483.648797 91.272001 
L 484.513612 93.778246 
L 485.378427 94.600812 
L 486.243242 95.721758 
L 487.108058 94.583369 
L 487.972873 94.261718 
L 488.837688 97.48045 
L 489.702503 95.73902 
L 490.567319 94.787215 
L 491.432134 96.743109 
L 492.296949 98.29904 
L 493.161764 96.366463 
L 494.02658 97.195943 
L 494.891395 99.421567 
L 495.75621 97.581808 
L 496.621025 98.460995 
L 497.48584 98.904792 
L 498.350656 97.307649 
L 499.215471 101.86979 
L 500.080286 101.315282 
L 500.945101 98.282049 
L 502.674732 96.08182 
L 503.539547 97.430562 
L 504.404362 93.47833 
L 505.269178 91.433505 
L 506.133993 93.608156 
L 507.863623 100.804743 
L 509.593254 92.668642 
L 510.458069 93.336347 
L 511.322884 93.821988 
L 513.052515 91.357181 
L 513.91733 92.537008 
L 514.782145 96.160222 
L 515.64696 96.243234 
L 516.511775 95.293145 
L 517.376591 95.596451 
L 518.241406 99.645431 
L 519.106221 98.133966 
L 519.971036 98.276129 
L 520.835852 97.862112 
L 521.700667 96.895349 
L 522.565482 97.430652 
L 523.430297 99.995055 
L 524.295113 101.75709 
L 525.159928 100.142008 
L 526.024743 95.357855 
L 526.889558 92.284449 
L 527.754373 96.883148 
L 528.619189 97.965277 
L 529.484004 96.762902 
L 530.348819 97.100234 
L 531.213634 97.661611 
L 532.07845 97.178636 
L 532.943265 99.275563 
L 533.80808 100.730859 
L 534.672895 98.098358 
L 535.537711 97.947699 
L 536.402526 100.392352 
L 537.267341 100.880207 
L 538.132156 102.253667 
L 538.996971 102.904924 
L 539.861787 102.150185 
L 540.726602 103.345647 
L 541.591417 105.471269 
L 542.456232 104.273909 
L 543.321048 103.431099 
L 544.185863 104.192028 
L 545.050678 105.298604 
L 546.780308 99.964959 
L 547.645124 96.055927 
L 549.374754 101.861024 
L 550.239569 98.486211 
L 551.104385 96.648032 
L 551.9692 97.95999 
L 552.834015 97.052379 
L 553.69883 101.085228 
L 555.428461 98.161215 
L 556.293276 97.457901 
L 557.158091 97.156674 
L 558.022906 95.094045 
L 559.752537 97.942638 
L 560.617352 96.943385 
L 561.482167 97.283021 
L 562.346983 99.696223 
L 563.211798 95.986789 
L 564.076613 96.074545 
L 564.941428 95.932744 
L 565.806244 96.870541 
L 566.671059 99.211802 
L 568.400689 100.587431 
L 569.265504 102.159901 
L 570.13032 105.603129 
L 570.995135 104.772881 
L 571.85995 104.296684 
L 572.724765 99.83929 
L 573.589581 99.223461 
L 574.454396 98.013765 
L 576.184026 107.64556 
L 577.048841 106.72028 
L 578.778472 106.890234 
L 579.643287 107.389431 
L 580.508102 108.364147 
L 581.372918 108.092384 
L 582.237733 107.410715 
L 583.102548 106.957384 
L 583.967363 106.132377 
L 584.832179 105.059602 
L 585.696994 105.559522 
L 586.561809 105.024942 
L 587.426624 104.929911 
L 588.291439 107.94403 
L 589.156255 108.074037 
L 590.02107 107.604167 
L 590.885885 103.425766 
L 591.7507 102.778757 
L 592.615516 101.693917 
L 593.480331 104.029666 
L 594.345146 105.161728 
L 595.209961 101.326851 
L 596.074777 100.683908 
L 596.939592 101.221832 
L 597.804407 103.889852 
L 598.669222 104.474727 
L 599.534037 101.563141 
L 601.263668 98.466011 
L 602.128483 99.359704 
L 602.993298 104.200117 
L 603.858114 105.989853 
L 604.722929 106.482091 
L 605.587744 105.408548 
L 606.452559 110.819103 
L 607.317374 110.846036 
L 608.18219 110.295504 
L 609.047005 110.131831 
L 609.91182 111.380932 
L 610.776635 111.744609 
L 611.641451 110.423433 
L 613.371081 109.433985 
L 614.235896 108.661985 
L 615.100712 108.353212 
L 616.830342 109.825679 
L 617.695157 109.346997 
L 618.559972 111.55658 
L 619.424788 110.21412 
L 620.289603 109.487443 
L 621.154418 107.459157 
L 622.019233 109.537919 
L 622.884049 109.284321 
L 623.748864 109.9997 
L 624.613679 110.221847 
L 625.478494 114.860492 
L 626.34331 111.860924 
L 627.208125 108.08913 
L 628.07294 107.698837 
L 628.937755 109.055034 
L 629.80257 107.641809 
L 630.667386 108.907223 
L 631.532201 111.049791 
L 632.397016 111.484549 
L 633.261831 109.543703 
L 634.126647 107.313786 
L 635.856277 110.97776 
L 636.721092 110.683854 
L 637.585907 111.182826 
L 638.450723 113.729514 
L 639.315538 113.647407 
L 640.180353 113.809995 
L 641.045168 112.097983 
L 641.909984 111.770321 
L 642.774799 114.546206 
L 643.639614 114.174576 
L 644.504429 115.896529 
L 645.369245 116.613083 
L 646.23406 120.207061 
L 647.098875 117.791509 
L 647.96369 112.957333 
L 648.828505 113.21902 
L 649.693321 114.572054 
L 650.558136 113.744336 
L 651.422951 114.982366 
L 652.287766 114.41046 
L 653.152582 115.706376 
L 654.017397 116.595595 
L 654.882212 116.477202 
L 655.747027 116.17471 
L 657.476658 116.749869 
L 658.341473 116.333638 
L 659.206288 117.229455 
L 660.071103 113.877507 
L 660.935919 111.568735 
L 661.800734 110.459403 
L 662.665549 114.292202 
L 663.530364 115.097099 
L 664.39518 111.947551 
L 665.259995 115.728428 
L 666.12481 118.955159 
L 666.989625 117.175951 
L 667.85444 114.836994 
L 668.719256 113.974075 
L 669.584071 113.439856 
L 670.448886 115.962504 
L 671.313701 120.389849 
L 672.178517 121.854363 
L 673.043332 119.868328 
L 673.908147 121.624082 
L 674.772962 122.175066 
L 675.637778 123.593759 
L 676.502593 122.679912 
L 677.367408 121.409211 
L 678.232223 123.199805 
L 679.097038 127.434104 
L 679.961854 127.126461 
L 680.826669 124.754245 
L 681.691484 124.404938 
L 682.556299 126.116814 
L 683.421115 121.727202 
L 684.28593 121.426834 
L 685.150745 117.820294 
L 686.01556 122.149625 
L 686.880375 121.727745 
L 687.745191 124.379497 
L 688.610006 127.698547 
L 689.474821 132.388572 
L 690.339636 134.055983 
L 691.204452 134.050832 
L 692.069267 130.68736 
L 692.934082 131.379016 
L 693.798897 131.559047 
L 694.663713 132.834628 
L 695.528528 132.348264 
L 696.393343 133.514986 
L 697.258158 134.139446 
L 698.122973 134.904397 
L 698.987789 133.767816 
L 699.852604 132.444787 
L 700.717419 132.297111 
L 701.582234 131.357054 
L 702.44705 126.602274 
L 704.17668 127.509885 
L 705.041495 126.268783 
L 705.906311 127.881199 
L 706.771126 126.017851 
L 707.635941 126.04397 
L 708.500756 128.897263 
L 709.365571 130.531686 
L 710.230387 127.81057 
L 711.095202 129.686028 
L 711.960017 127.76145 
L 712.824832 128.971191 
L 713.689648 129.378746 
L 714.554463 133.6177 
L 715.419278 129.866647 
L 716.284093 128.893241 
L 717.148908 129.459408 
L 718.013724 128.973225 
L 718.878539 125.880071 
L 719.743354 125.780747 
L 720.608169 127.393209 
L 721.472985 130.024897 
L 722.3378 129.769717 
L 723.202615 131.304455 
L 724.932246 125.466461 
L 725.797061 123.74017 
L 726.661876 121.583819 
L 727.526691 124.051383 
L 728.391506 123.22615 
L 729.256322 125.208751 
L 730.121137 128.025757 
L 730.985952 126.333945 
L 731.850767 122.638203 
L 732.715583 124.675165 
L 733.580398 125.423442 
L 734.445213 124.162727 
L 735.310028 125.528324 
L 736.174844 125.523534 
L 737.039659 125.407219 
L 737.904474 129.600848 
L 738.769289 130.671002 
L 739.634104 131.452492 
L 740.49892 131.436496 
L 741.363735 134.78406 
L 742.22855 134.402443 
L 743.093365 133.772741 
L 743.958181 136.150696 
L 744.822996 133.926156 
L 745.687811 133.059757 
L 746.552626 133.471696 
L 747.417441 133.484168 
L 748.282257 132.910138 
L 749.147072 129.439525 
L 750.011887 126.804312 
L 750.876702 129.915089 
L 751.741518 133.593976 
L 752.606333 132.340627 
L 753.471148 132.303527 
L 754.335963 132.798025 
L 755.200779 130.857043 
L 756.930409 137.026088 
L 757.795224 136.903175 
L 758.660039 133.355923 
L 760.38967 130.650261 
L 761.254485 132.673983 
L 762.1193 133.810609 
L 762.984116 134.384503 
L 763.848931 138.864989 
L 764.713746 138.746279 
L 765.578561 137.749149 
L 766.443377 140.613965 
L 767.308192 140.378533 
L 768.173007 140.801362 
L 769.037822 141.554202 
L 769.902637 140.698423 
L 770.767453 138.554228 
L 771.632268 139.486376 
L 772.497083 144.809131 
L 773.361898 144.197685 
L 774.226714 142.044995 
L 775.091529 140.70136 
L 775.956344 139.79646 
L 776.821159 140.70737 
L 777.685974 144.136952 
L 778.55079 141.840065 
L 779.415605 143.80572 
L 780.28042 142.791961 
L 781.145235 143.43409 
L 782.010051 143.135303 
L 782.874866 143.909699 
L 783.739681 143.151526 
L 784.604496 144.467054 
L 785.469312 144.258238 
L 786.334127 142.112958 
L 787.198942 137.306754 
L 788.063757 137.727143 
L 788.928572 136.316177 
L 789.793388 137.268073 
L 790.658203 141.748513 
L 791.523018 142.400222 
L 792.387833 141.329661 
L 793.252649 138.781165 
L 794.117464 139.1241 
L 794.982279 141.526276 
L 796.71191 144.235824 
L 797.576725 142.36267 
L 798.44154 144.010514 
L 799.306355 145.15062 
L 800.17117 143.73143 
L 801.035986 143.43409 
L 801.900801 144.034193 
L 802.765616 145.583571 
L 803.630431 144.62919 
L 804.495247 141.522119 
L 805.360062 140.778316 
L 806.224877 139.668848 
L 807.089692 139.840609 
L 807.954507 137.446929 
L 808.819323 138.731819 
L 809.684138 140.693994 
L 810.548953 141.648782 
L 811.413768 140.216984 
L 812.278584 143.394414 
L 813.143399 141.846527 
L 814.008214 142.323853 
L 814.873029 144.760146 
L 816.60266 145.349766 
L 817.467475 144.623677 
L 818.33229 145.144836 
L 819.197105 147.541183 
L 820.061921 150.280465 
L 821.791551 152.833209 
L 822.656366 155.736706 
L 823.521182 157.633991 
L 824.385997 153.498836 
L 825.250812 147.668705 
L 826.115627 144.97086 
L 828.710073 153.628165 
L 829.574888 154.398222 
L 830.439703 150.623672 
L 831.304519 151.030007 
L 832.169334 151.872592 
L 833.034149 148.877226 
L 833.898964 147.439644 
L 834.76378 147.954251 
L 835.628595 147.781269 
L 836.49341 147.302226 
L 837.358225 153.480263 
L 838.22304 153.169276 
L 839.087856 151.802233 
L 839.952671 151.841909 
L 840.817486 153.279219 
L 841.682301 153.815743 
L 842.547117 152.336497 
L 843.411932 153.028875 
L 844.276747 154.784901 
L 845.141562 154.088365 
L 846.006378 152.372874 
L 846.871193 150.379292 
L 847.736008 149.536391 
L 848.600823 147.840195 
L 849.465638 149.497258 
L 850.330454 153.312207 
L 851.195269 152.532299 
L 852.060084 150.918391 
L 852.924899 151.599291 
L 853.789715 152.475406 
L 855.519345 147.45415 
L 856.38416 150.915318 
L 858.113791 151.056442 
L 858.978606 148.57618 
L 859.843421 150.50103 
L 860.708236 152.752728 
L 861.573052 151.523239 
L 862.437867 149.626452 
L 863.302682 146.818302 
L 864.167497 150.134144 
L 865.032313 148.980166 
L 865.897128 154.492983 
L 866.761943 154.727466 
L 867.626758 155.130773 
L 868.491573 153.122686 
L 869.356389 153.889355 
L 871.086019 158.56876 
L 871.950834 160.06093 
L 872.81565 162.197126 
L 873.680465 160.862348 
L 874.54528 160.034856 
L 875.410095 156.690184 
L 876.274911 157.512343 
L 877.139726 154.062743 
L 878.004541 155.613296 
L 878.869356 157.85424 
L 879.734171 158.46433 
L 880.598987 158.678026 
L 881.463802 157.568829 
L 882.328617 157.01405 
L 883.193432 158.278514 
L 884.923063 156.930993 
L 885.787878 155.492733 
L 886.652693 154.961949 
L 887.517509 160.302237 
L 888.382324 159.373251 
L 889.247139 160.577209 
L 890.111954 165.773028 
L 890.976769 167.716405 
L 891.841585 166.961577 
L 892.7064 164.198932 
L 893.571215 162.121616 
L 894.43603 164.550182 
L 895.300846 161.821293 
L 896.165661 163.473295 
L 897.030476 167.655717 
L 898.760106 164.230293 
L 899.624922 166.717152 
L 900.489737 169.634386 
L 901.354552 168.272495 
L 902.219367 169.019913 
L 903.084183 167.606688 
L 903.948998 169.076851 
L 904.813813 167.869414 
L 905.678628 167.302208 
L 906.543444 165.756309 
L 908.273074 166.243215 
L 910.002704 160.991045 
L 910.86752 159.958894 
L 911.732335 162.072361 
L 912.59715 166.71914 
L 914.326781 169.9564 
L 915.191596 168.374847 
L 916.056411 168.638477 
L 916.921226 167.084715 
L 917.786041 166.38696 
L 918.650857 169.206406 
L 919.515672 166.478602 
L 920.380487 161.313329 
L 922.110118 166.612315 
L 922.974933 166.662203 
L 923.839748 164.802967 
L 924.704563 165.311699 
L 925.569379 166.133362 
L 927.299009 165.517126 
L 928.163824 166.980285 
L 929.028639 165.659876 
L 929.893455 167.67786 
L 930.75827 166.053288 
L 931.623085 161.021954 
L 932.4879 163.252911 
L 933.352716 168.826054 
L 934.217531 169.885047 
L 935.082346 168.636353 
L 935.947161 165.542748 
L 936.811977 167.05236 
L 937.676792 167.073509 
L 938.541607 166.248999 
L 939.406422 166.425686 
L 940.271237 167.4779 
L 941.136053 168.855653 
L 942.000868 173.167766 
L 942.865683 172.942728 
L 943.730498 173.105632 
L 944.595314 171.223214 
L 945.460129 171.808903 
L 946.324944 170.884707 
L 947.189759 172.899798 
L 948.054574 171.113768 
L 948.91939 172.363411 
L 949.784205 170.912408 
L 950.64902 171.578532 
L 951.513835 170.693741 
L 952.378651 168.817559 
L 953.243466 168.591074 
L 954.108281 168.903733 
L 954.973096 171.961278 
L 955.837912 172.671416 
L 956.702727 171.144089 
L 957.567542 175.526742 
L 958.432357 176.647598 
L 959.297172 175.109697 
L 960.161988 175.326286 
L 961.026803 175.162432 
L 961.891618 177.1923 
L 962.756433 174.221653 
L 964.486064 171.03871 
L 965.350879 172.069324 
L 966.215694 168.668618 
L 967.08051 168.33951 
L 967.945325 167.022717 
L 968.81014 167.678628 
L 969.674955 167.078389 
L 970.53977 167.65269 
L 971.404586 168.461519 
L 972.269401 167.224122 
L 973.134216 167.651334 
L 973.999031 170.712991 
L 974.863847 170.19486 
L 976.593477 169.760598 
L 977.458292 172.11031 
L 978.323107 171.69191 
L 979.187923 172.474755 
L 980.052738 168.977391 
L 980.917553 169.690194 
L 982.647184 175.155338 
L 983.511999 172.472406 
L 984.376814 171.525932 
L 985.241629 171.456252 
L 986.106445 173.017786 
L 986.97126 173.841617 
L 988.70089 176.853838 
L 989.565705 176.251385 
L 990.430521 175.043993 
L 991.295336 175.207214 
L 992.160151 174.971285 
L 993.024966 173.650515 
L 993.889782 173.312867 
L 994.754597 171.330356 
L 995.619412 177.348969 
L 996.484227 182.154812 
L 997.349043 181.383127 
L 998.213858 179.561895 
L 999.078673 180.621023 
L 999.943488 182.03339 
L 1000.808303 181.760451 
L 1001.673119 180.833093 
L 1002.537934 178.613117 
L 1002.537934 178.613117 
" clip-path="url(#p4a7d800802)" style="fill: none; stroke: #dd8452; stroke-width: 6; stroke-linecap: round"/>
   </g>
   <g id="line2d_15"/>
   <g id="line2d_16"/>
   <g id="patch_3">
    <path d="M 95.39 609.894375 
L 95.39 54.554375 
" style="fill: none; stroke: #cccccc; stroke-width: 1.875; stroke-linejoin: miter; stroke-linecap: square"/>
   </g>
   <g id="patch_4">
    <path d="M 1045.735455 609.894375 
L 1045.735455 54.554375 
" style="fill: none; stroke: #cccccc; stroke-width: 1.875; stroke-linejoin: miter; stroke-linecap: square"/>
   </g>
   <g id="patch_5">
    <path d="M 95.39 609.894375 
L 1045.735455 609.894375 
" style="fill: none; stroke: #cccccc; stroke-width: 1.875; stroke-linejoin: miter; stroke-linecap: square"/>
   </g>
   <g id="patch_6">
    <path d="M 95.39 54.554375 
L 1045.735455 54.554375 
" style="fill: none; stroke: #cccccc; stroke-width: 1.875; stroke-linejoin: miter; stroke-linecap: square"/>
   </g>
   <g id="text_15">
    <!-- Training Progress: Loss -->
    <g style="fill: #262626" transform="translate(333.564602 34.554375) scale(0.36 -0.36)">
     <defs>
      <path id="DejaVuSans-Bold-54" d="M 31 4666 
L 4331 4666 
L 4331 3756 
L 2784 3756 
L 2784 0 
L 1581 0 
L 1581 3756 
L 31 3756 
L 31 4666 
z
" transform="scale(0.015625)"/>
      <path id="DejaVuSans-Bold-72" d="M 3138 2547 
Q 2991 2616 2845 2648 
Q 2700 2681 2553 2681 
Q 2122 2681 1889 2404 
Q 1656 2128 1656 1613 
L 1656 0 
L 538 0 
L 538 3500 
L 1656 3500 
L 1656 2925 
Q 1872 3269 2151 3426 
Q 2431 3584 2822 3584 
Q 2878 3584 2943 3579 
Q 3009 3575 3134 3559 
L 3138 2547 
z
" transform="scale(0.015625)"/>
      <path id="DejaVuSans-Bold-61" d="M 2106 1575 
Q 1756 1575 1579 1456 
Q 1403 1338 1403 1106 
Q 1403 894 1545 773 
Q 1688 653 1941 653 
Q 2256 653 2472 879 
Q 2688 1106 2688 1447 
L 2688 1575 
L 2106 1575 
z
M 3816 1997 
L 3816 0 
L 2688 0 
L 2688 519 
Q 2463 200 2181 54 
Q 1900 -91 1497 -91 
Q 953 -91 614 226 
Q 275 544 275 1050 
Q 275 1666 698 1953 
Q 1122 2241 2028 2241 
L 2688 2241 
L 2688 2328 
Q 2688 2594 2478 2717 
Q 2269 2841 1825 2841 
Q 1466 2841 1156 2769 
Q 847 2697 581 2553 
L 581 3406 
Q 941 3494 1303 3539 
Q 1666 3584 2028 3584 
Q 2975 3584 3395 3211 
Q 3816 2838 3816 1997 
z
" transform="scale(0.015625)"/>
      <path id="DejaVuSans-Bold-69" d="M 538 3500 
L 1656 3500 
L 1656 0 
L 538 0 
L 538 3500 
z
M 538 4863 
L 1656 4863 
L 1656 3950 
L 538 3950 
L 538 4863 
z
" transform="scale(0.015625)"/>
      <path id="DejaVuSans-Bold-6e" d="M 4056 2131 
L 4056 0 
L 2931 0 
L 2931 347 
L 2931 1631 
Q 2931 2084 2911 2256 
Q 2891 2428 2841 2509 
Q 2775 2619 2662 2680 
Q 2550 2741 2406 2741 
Q 2056 2741 1856 2470 
Q 1656 2200 1656 1722 
L 1656 0 
L 538 0 
L 538 3500 
L 1656 3500 
L 1656 2988 
Q 1909 3294 2193 3439 
Q 2478 3584 2822 3584 
Q 3428 3584 3742 3212 
Q 4056 2841 4056 2131 
z
" transform="scale(0.015625)"/>
      <path id="DejaVuSans-Bold-67" d="M 2919 594 
Q 2688 288 2409 144 
Q 2131 0 1766 0 
Q 1125 0 706 504 
Q 288 1009 288 1791 
Q 288 2575 706 3076 
Q 1125 3578 1766 3578 
Q 2131 3578 2409 3434 
Q 2688 3291 2919 2981 
L 2919 3500 
L 4044 3500 
L 4044 353 
Q 4044 -491 3511 -936 
Q 2978 -1381 1966 -1381 
Q 1638 -1381 1331 -1331 
Q 1025 -1281 716 -1178 
L 716 -306 
Q 1009 -475 1290 -558 
Q 1572 -641 1856 -641 
Q 2406 -641 2662 -400 
Q 2919 -159 2919 353 
L 2919 594 
z
M 2181 2772 
Q 1834 2772 1640 2515 
Q 1447 2259 1447 1791 
Q 1447 1309 1634 1061 
Q 1822 813 2181 813 
Q 2531 813 2725 1069 
Q 2919 1325 2919 1791 
Q 2919 2259 2725 2515 
Q 2531 2772 2181 2772 
z
" transform="scale(0.015625)"/>
      <path id="DejaVuSans-Bold-20" transform="scale(0.015625)"/>
      <path id="DejaVuSans-Bold-50" d="M 588 4666 
L 2584 4666 
Q 3475 4666 3951 4270 
Q 4428 3875 4428 3144 
Q 4428 2409 3951 2014 
Q 3475 1619 2584 1619 
L 1791 1619 
L 1791 0 
L 588 0 
L 588 4666 
z
M 1791 3794 
L 1791 2491 
L 2456 2491 
Q 2806 2491 2997 2661 
Q 3188 2831 3188 3144 
Q 3188 3456 2997 3625 
Q 2806 3794 2456 3794 
L 1791 3794 
z
" transform="scale(0.015625)"/>
      <path id="DejaVuSans-Bold-6f" d="M 2203 2784 
Q 1831 2784 1636 2517 
Q 1441 2250 1441 1747 
Q 1441 1244 1636 976 
Q 1831 709 2203 709 
Q 2569 709 2762 976 
Q 2956 1244 2956 1747 
Q 2956 2250 2762 2517 
Q 2569 2784 2203 2784 
z
M 2203 3584 
Q 3106 3584 3614 3096 
Q 4122 2609 4122 1747 
Q 4122 884 3614 396 
Q 3106 -91 2203 -91 
Q 1297 -91 786 396 
Q 275 884 275 1747 
Q 275 2609 786 3096 
Q 1297 3584 2203 3584 
z
" transform="scale(0.015625)"/>
      <path id="DejaVuSans-Bold-65" d="M 4031 1759 
L 4031 1441 
L 1416 1441 
Q 1456 1047 1700 850 
Q 1944 653 2381 653 
Q 2734 653 3104 758 
Q 3475 863 3866 1075 
L 3866 213 
Q 3469 63 3072 -14 
Q 2675 -91 2278 -91 
Q 1328 -91 801 392 
Q 275 875 275 1747 
Q 275 2603 792 3093 
Q 1309 3584 2216 3584 
Q 3041 3584 3536 3087 
Q 4031 2591 4031 1759 
z
M 2881 2131 
Q 2881 2450 2695 2645 
Q 2509 2841 2209 2841 
Q 1884 2841 1681 2658 
Q 1478 2475 1428 2131 
L 2881 2131 
z
" transform="scale(0.015625)"/>
      <path id="DejaVuSans-Bold-73" d="M 3272 3391 
L 3272 2541 
Q 2913 2691 2578 2766 
Q 2244 2841 1947 2841 
Q 1628 2841 1473 2761 
Q 1319 2681 1319 2516 
Q 1319 2381 1436 2309 
Q 1553 2238 1856 2203 
L 2053 2175 
Q 2913 2066 3209 1816 
Q 3506 1566 3506 1031 
Q 3506 472 3093 190 
Q 2681 -91 1863 -91 
Q 1516 -91 1145 -36 
Q 775 19 384 128 
L 384 978 
Q 719 816 1070 734 
Q 1422 653 1784 653 
Q 2113 653 2278 743 
Q 2444 834 2444 1013 
Q 2444 1163 2330 1236 
Q 2216 1309 1875 1350 
L 1678 1375 
Q 931 1469 631 1722 
Q 331 1975 331 2491 
Q 331 3047 712 3315 
Q 1094 3584 1881 3584 
Q 2191 3584 2531 3537 
Q 2872 3491 3272 3391 
z
" transform="scale(0.015625)"/>
      <path id="DejaVuSans-Bold-3a" d="M 716 3500 
L 1844 3500 
L 1844 2291 
L 716 2291 
L 716 3500 
z
M 716 1209 
L 1844 1209 
L 1844 0 
L 716 0 
L 716 1209 
z
" transform="scale(0.015625)"/>
      <path id="DejaVuSans-Bold-4c" d="M 588 4666 
L 1791 4666 
L 1791 909 
L 3903 909 
L 3903 0 
L 588 0 
L 588 4666 
z
" transform="scale(0.015625)"/>
     </defs>
     <use xlink:href="#DejaVuSans-Bold-54"/>
     <use xlink:href="#DejaVuSans-Bold-72" transform="translate(57.212891 0)"/>
     <use xlink:href="#DejaVuSans-Bold-61" transform="translate(106.529297 0)"/>
     <use xlink:href="#DejaVuSans-Bold-69" transform="translate(174.009766 0)"/>
     <use xlink:href="#DejaVuSans-Bold-6e" transform="translate(208.287109 0)"/>
     <use xlink:href="#DejaVuSans-Bold-69" transform="translate(279.478516 0)"/>
     <use xlink:href="#DejaVuSans-Bold-6e" transform="translate(313.755859 0)"/>
     <use xlink:href="#DejaVuSans-Bold-67" transform="translate(384.947266 0)"/>
     <use xlink:href="#DejaVuSans-Bold-20" transform="translate(456.529297 0)"/>
     <use xlink:href="#DejaVuSans-Bold-50" transform="translate(491.34375 0)"/>
     <use xlink:href="#DejaVuSans-Bold-72" transform="translate(564.634766 0)"/>
     <use xlink:href="#DejaVuSans-Bold-6f" transform="translate(613.951172 0)"/>
     <use xlink:href="#DejaVuSans-Bold-67" transform="translate(682.652344 0)"/>
     <use xlink:href="#DejaVuSans-Bold-72" transform="translate(754.234375 0)"/>
     <use xlink:href="#DejaVuSans-Bold-65" transform="translate(803.550781 0)"/>
     <use xlink:href="#DejaVuSans-Bold-73" transform="translate(871.373047 0)"/>
     <use xlink:href="#DejaVuSans-Bold-73" transform="translate(930.894531 0)"/>
     <use xlink:href="#DejaVuSans-Bold-3a" transform="translate(990.416016 0)"/>
     <use xlink:href="#DejaVuSans-Bold-20" transform="translate(1030.40625 0)"/>
     <use xlink:href="#DejaVuSans-Bold-4c" transform="translate(1065.220703 0)"/>
     <use xlink:href="#DejaVuSans-Bold-6f" transform="translate(1128.941406 0)"/>
     <use xlink:href="#DejaVuSans-Bold-73" transform="translate(1197.642578 0)"/>
     <use xlink:href="#DejaVuSans-Bold-73" transform="translate(1257.164062 0)"/>
    </g>
   </g>
   <g id="legend_1">
    <g id="patch_7">
     <path d="M 846.455455 383.994375 
L 1023.335455 383.994375 
Q 1029.735455 383.994375 1029.735455 377.594375 
L 1029.735455 286.854375 
Q 1029.735455 280.454375 1023.335455 280.454375 
L 846.455455 280.454375 
Q 840.055455 280.454375 840.055455 286.854375 
L 840.055455 377.594375 
Q 840.055455 383.994375 846.455455 383.994375 
z
" style="fill: #ffffff; opacity: 0.8; stroke: #cccccc; stroke-width: 1.5; stroke-linejoin: miter"/>
    </g>
    <g id="line2d_17">
     <path d="M 852.855455 306.369375 
L 884.855455 306.369375 
L 916.855455 306.369375 
" style="fill: none; stroke: #4c72b0; stroke-width: 6; stroke-linecap: round"/>
    </g>
    <g id="text_16">
     <!-- train -->
     <g style="fill: #262626" transform="translate(942.455455 317.569375) scale(0.32 -0.32)">
      <defs>
       <path id="DejaVuSans-74" d="M 1172 4494 
L 1172 3500 
L 2356 3500 
L 2356 3053 
L 1172 3053 
L 1172 1153 
Q 1172 725 1289 603 
Q 1406 481 1766 481 
L 2356 481 
L 2356 0 
L 1766 0 
Q 1100 0 847 248 
Q 594 497 594 1153 
L 594 3053 
L 172 3053 
L 172 3500 
L 594 3500 
L 594 4494 
L 1172 4494 
z
" transform="scale(0.015625)"/>
       <path id="DejaVuSans-72" d="M 2631 2963 
Q 2534 3019 2420 3045 
Q 2306 3072 2169 3072 
Q 1681 3072 1420 2755 
Q 1159 2438 1159 1844 
L 1159 0 
L 581 0 
L 581 3500 
L 1159 3500 
L 1159 2956 
Q 1341 3275 1631 3429 
Q 1922 3584 2338 3584 
Q 2397 3584 2469 3576 
Q 2541 3569 2628 3553 
L 2631 2963 
z
" transform="scale(0.015625)"/>
       <path id="DejaVuSans-61" d="M 2194 1759 
Q 1497 1759 1228 1600 
Q 959 1441 959 1056 
Q 959 750 1161 570 
Q 1363 391 1709 391 
Q 2188 391 2477 730 
Q 2766 1069 2766 1631 
L 2766 1759 
L 2194 1759 
z
M 3341 1997 
L 3341 0 
L 2766 0 
L 2766 531 
Q 2569 213 2275 61 
Q 1981 -91 1556 -91 
Q 1019 -91 701 211 
Q 384 513 384 1019 
Q 384 1609 779 1909 
Q 1175 2209 1959 2209 
L 2766 2209 
L 2766 2266 
Q 2766 2663 2505 2880 
Q 2244 3097 1772 3097 
Q 1472 3097 1187 3025 
Q 903 2953 641 2809 
L 641 3341 
Q 956 3463 1253 3523 
Q 1550 3584 1831 3584 
Q 2591 3584 2966 3190 
Q 3341 2797 3341 1997 
z
" transform="scale(0.015625)"/>
       <path id="DejaVuSans-69" d="M 603 3500 
L 1178 3500 
L 1178 0 
L 603 0 
L 603 3500 
z
M 603 4863 
L 1178 4863 
L 1178 4134 
L 603 4134 
L 603 4863 
z
" transform="scale(0.015625)"/>
       <path id="DejaVuSans-6e" d="M 3513 2113 
L 3513 0 
L 2938 0 
L 2938 2094 
Q 2938 2591 2744 2837 
Q 2550 3084 2163 3084 
Q 1697 3084 1428 2787 
Q 1159 2491 1159 1978 
L 1159 0 
L 581 0 
L 581 3500 
L 1159 3500 
L 1159 2956 
Q 1366 3272 1645 3428 
Q 1925 3584 2291 3584 
Q 2894 3584 3203 3211 
Q 3513 2838 3513 2113 
z
" transform="scale(0.015625)"/>
      </defs>
      <use xlink:href="#DejaVuSans-74"/>
      <use xlink:href="#DejaVuSans-72" transform="translate(39.208984 0)"/>
      <use xlink:href="#DejaVuSans-61" transform="translate(80.322266 0)"/>
      <use xlink:href="#DejaVuSans-69" transform="translate(141.601562 0)"/>
      <use xlink:href="#DejaVuSans-6e" transform="translate(169.384766 0)"/>
     </g>
    </g>
    <g id="line2d_18">
     <path d="M 852.855455 353.339375 
L 884.855455 353.339375 
L 916.855455 353.339375 
" style="fill: none; stroke: #dd8452; stroke-width: 6; stroke-linecap: round"/>
    </g>
    <g id="text_17">
     <!-- val -->
     <g style="fill: #262626" transform="translate(942.455455 364.539375) scale(0.32 -0.32)">
      <defs>
       <path id="DejaVuSans-76" d="M 191 3500 
L 800 3500 
L 1894 563 
L 2988 3500 
L 3597 3500 
L 2284 0 
L 1503 0 
L 191 3500 
z
" transform="scale(0.015625)"/>
       <path id="DejaVuSans-6c" d="M 603 4863 
L 1178 4863 
L 1178 0 
L 603 0 
L 603 4863 
z
" transform="scale(0.015625)"/>
      </defs>
      <use xlink:href="#DejaVuSans-76"/>
      <use xlink:href="#DejaVuSans-61" transform="translate(59.179688 0)"/>
      <use xlink:href="#DejaVuSans-6c" transform="translate(120.458984 0)"/>
     </g>
    </g>
   </g>
  </g>
 </g>
 <defs>
  <clipPath id="p4a7d800802">
   <rect x="95.39" y="54.554375" width="950.345455" height="555.34"/>
  </clipPath>
 </defs>
</svg>
