<?xml version="1.0" encoding="utf-8" standalone="no"?>
<!DOCTYPE svg PUBLIC "-//W3C//DTD SVG 1.1//EN"
  "http://www.w3.org/Graphics/SVG/1.1/DTD/svg11.dtd">
<svg xmlns:xlink="http://www.w3.org/1999/xlink" width="1052.955455pt" height="695.534375pt" viewBox="0 0 1052.955455 695.534375" xmlns="http://www.w3.org/2000/svg" version="1.1">
 <metadata>
  <rdf:RDF xmlns:dc="http://purl.org/dc/elements/1.1/" xmlns:cc="http://creativecommons.org/ns#" xmlns:rdf="http://www.w3.org/1999/02/22-rdf-syntax-ns#">
   <cc:Work>
    <dc:type rdf:resource="http://purl.org/dc/dcmitype/StillImage"/>
    <dc:date>2026-04-13T13:32:37.581183</dc:date>
    <dc:format>image/svg+xml</dc:format>
    <dc:creator>
     <cc:Agent>
      <dc:title>Matplotlib v3.10.8, https://matplotlib.org/</dc:title>
     </cc:Agent>
    </dc:creator>
   </cc:Work>
  </rdf:RDF>
 </metadata>
 <defs>
  <style type="text/css">*{stroke-linejoin: round; stroke-linecap: butt}</style>
 </defs>
 <g id="figure_1">
  <g id="patch_1">
   <path d="M 0 695.534375 
L 1052.955455 695.534375 
L 1052.955455 0 
L 0 0 
z
" style="fill: #ffffff"/>
  </g>
  <g id="axes_1">
   <g id="patch_2">
    <path d="M 115.75 609.894375 
L 1045.755455 609.894375 
L 1045.755455 54.554375 
L 115.75 54.554375 
z
" style="fill: #ffffff"/>
   </g>
   <g id="matplotlib.axis_1">
    <g id="xtick_1">
     <g id="line2d_1">
      <path d="M 157.176669 609.894375 
L 157.176669 54.554375 
" clip-path="url(#pa4c3871174)" style="fill: none; stroke: #cccccc; stroke-opacity: 0.3; stroke-width: 1.5; stroke-linecap: round"/>
     </g>
     <g id="text_1">
      <!-- 0 -->
      <g style="fill: #262626" transform="translate(146.996669 646.709375) scale(0.32 -0.32)">
       <defs>
        <path id="DejaVuSans-30" d="M 2034 4250 
Q 1547 4250 1301 3770 
Q 1056 3291 1056 2328 
Q 1056 1369 1301 889 
Q 1547 409 2034 409 
Q 2525 409 2770 889 
Q 3016 1369 3016 2328 
Q 3016 3291 2770 3770 
Q 2525 4250 2034 4250 
z
M 2034 4750 
Q 2819 4750 3233 4129 
Q 3647 3509 3647 2328 
Q 3647 1150 3233 529 
Q 2819 -91 2034 -91 
Q 1250 -91 836 529 
Q 422 1150 422 2328 
Q 422 3509 836 4129 
Q 1250 4750 2034 4750 
z
" transform="scale(0.015625)"/>
       </defs>
       <use xlink:href="#DejaVuSans-30"/>
      </g>
     </g>
    </g>
    <g id="xtick_2">
     <g id="line2d_2">
      <path d="M 326.437831 609.894375 
L 326.437831 54.554375 
" clip-path="url(#pa4c3871174)" style="fill: none; stroke: #cccccc; stroke-opacity: 0.3; stroke-width: 1.5; stroke-linecap: round"/>
     </g>
     <g id="text_2">
      <!-- 200 -->
      <g style="fill: #262626" transform="translate(295.897831 646.709375) scale(0.32 -0.32)">
       <defs>
        <path id="DejaVuSans-32" d="M 1228 531 
L 3431 531 
L 3431 0 
L 469 0 
L 469 531 
Q 828 903 1448 1529 
Q 2069 2156 2228 2338 
Q 2531 2678 2651 2914 
Q 2772 3150 2772 3378 
Q 2772 3750 2511 3984 
Q 2250 4219 1831 4219 
Q 1534 4219 1204 4116 
Q 875 4013 500 3803 
L 500 4441 
Q 881 4594 1212 4672 
Q 1544 4750 1819 4750 
Q 2544 4750 2975 4387 
Q 3406 4025 3406 3419 
Q 3406 3131 3298 2873 
Q 3191 2616 2906 2266 
Q 2828 2175 2409 1742 
Q 1991 1309 1228 531 
z
" transform="scale(0.015625)"/>
       </defs>
       <use xlink:href="#DejaVuSans-32"/>
       <use xlink:href="#DejaVuSans-30" transform="translate(63.623047 0)"/>
       <use xlink:href="#DejaVuSans-30" transform="translate(127.246094 0)"/>
      </g>
     </g>
    </g>
    <g id="xtick_3">
     <g id="line2d_3">
      <path d="M 495.698993 609.894375 
L 495.698993 54.554375 
" clip-path="url(#pa4c3871174)" style="fill: none; stroke: #cccccc; stroke-opacity: 0.3; stroke-width: 1.5; stroke-linecap: round"/>
     </g>
     <g id="text_3">
      <!-- 400 -->
      <g style="fill: #262626" transform="translate(465.158993 646.709375) scale(0.32 -0.32)">
       <defs>
        <path id="DejaVuSans-34" d="M 2419 4116 
L 825 1625 
L 2419 1625 
L 2419 4116 
z
M 2253 4666 
L 3047 4666 
L 3047 1625 
L 3713 1625 
L 3713 1100 
L 3047 1100 
L 3047 0 
L 2419 0 
L 2419 1100 
L 313 1100 
L 313 1709 
L 2253 4666 
z
" transform="scale(0.015625)"/>
       </defs>
       <use xlink:href="#DejaVuSans-34"/>
       <use xlink:href="#DejaVuSans-30" transform="translate(63.623047 0)"/>
       <use xlink:href="#DejaVuSans-30" transform="translate(127.246094 0)"/>
      </g>
     </g>
    </g>
    <g id="xtick_4">
     <g id="line2d_4">
      <path d="M 664.960155 609.894375 
L 664.960155 54.554375 
" clip-path="url(#pa4c3871174)" style="fill: none; stroke: #cccccc; stroke-opacity: 0.3; stroke-width: 1.5; stroke-linecap: round"/>
     </g>
     <g id="text_4">
      <!-- 600 -->
      <g style="fill: #262626" transform="translate(634.420155 646.709375) scale(0.32 -0.32)">
       <defs>
        <path id="DejaVuSans-36" d="M 2113 2584 
Q 1688 2584 1439 2293 
Q 1191 2003 1191 1497 
Q 1191 994 1439 701 
Q 1688 409 2113 409 
Q 2538 409 2786 701 
Q 3034 994 3034 1497 
Q 3034 2003 2786 2293 
Q 2538 2584 2113 2584 
z
M 3366 4563 
L 3366 3988 
Q 3128 4100 2886 4159 
Q 2644 4219 2406 4219 
Q 1781 4219 1451 3797 
Q 1122 3375 1075 2522 
Q 1259 2794 1537 2939 
Q 1816 3084 2150 3084 
Q 2853 3084 3261 2657 
Q 3669 2231 3669 1497 
Q 3669 778 3244 343 
Q 2819 -91 2113 -91 
Q 1303 -91 875 529 
Q 447 1150 447 2328 
Q 447 3434 972 4092 
Q 1497 4750 2381 4750 
Q 2619 4750 2861 4703 
Q 3103 4656 3366 4563 
z
" transform="scale(0.015625)"/>
       </defs>
       <use xlink:href="#DejaVuSans-36"/>
       <use xlink:href="#DejaVuSans-30" transform="translate(63.623047 0)"/>
       <use xlink:href="#DejaVuSans-30" transform="translate(127.246094 0)"/>
      </g>
     </g>
    </g>
    <g id="xtick_5">
     <g id="line2d_5">
      <path d="M 834.221317 609.894375 
L 834.221317 54.554375 
" clip-path="url(#pa4c3871174)" style="fill: none; stroke: #cccccc; stroke-opacity: 0.3; stroke-width: 1.5; stroke-linecap: round"/>
     </g>
     <g id="text_5">
      <!-- 800 -->
      <g style="fill: #262626" transform="translate(803.681317 646.709375) scale(0.32 -0.32)">
       <defs>
        <path id="DejaVuSans-38" d="M 2034 2216 
Q 1584 2216 1326 1975 
Q 1069 1734 1069 1313 
Q 1069 891 1326 650 
Q 1584 409 2034 409 
Q 2484 409 2743 651 
Q 3003 894 3003 1313 
Q 3003 1734 2745 1975 
Q 2488 2216 2034 2216 
z
M 1403 2484 
Q 997 2584 770 2862 
Q 544 3141 544 3541 
Q 544 4100 942 4425 
Q 1341 4750 2034 4750 
Q 2731 4750 3128 4425 
Q 3525 4100 3525 3541 
Q 3525 3141 3298 2862 
Q 3072 2584 2669 2484 
Q 3125 2378 3379 2068 
Q 3634 1759 3634 1313 
Q 3634 634 3220 271 
Q 2806 -91 2034 -91 
Q 1263 -91 848 271 
Q 434 634 434 1313 
Q 434 1759 690 2068 
Q 947 2378 1403 2484 
z
M 1172 3481 
Q 1172 3119 1398 2916 
Q 1625 2713 2034 2713 
Q 2441 2713 2670 2916 
Q 2900 3119 2900 3481 
Q 2900 3844 2670 4047 
Q 2441 4250 2034 4250 
Q 1625 4250 1398 4047 
Q 1172 3844 1172 3481 
z
" transform="scale(0.015625)"/>
       </defs>
       <use xlink:href="#DejaVuSans-38"/>
       <use xlink:href="#DejaVuSans-30" transform="translate(63.623047 0)"/>
       <use xlink:href="#DejaVuSans-30" transform="translate(127.246094 0)"/>
      </g>
     </g>
    </g>
    <g id="xtick_6">
     <g id="line2d_6">
      <path d="M 1003.482479 609.894375 
L 1003.482479 54.554375 
" clip-path="url(#pa4c3871174)" style="fill: none; stroke: #cccccc; stroke-opacity: 0.3; stroke-width: 1.5; stroke-linecap: round"/>
     </g>
     <g id="text_6">
      <!-- 1000 -->
      <g style="fill: #262626" transform="translate(962.762479 646.709375) scale(0.32 -0.32)">
       <defs>
        <path id="DejaVuSans-31" d="M 794 531 
L 1825 531 
L 1825 4091 
L 703 3866 
L 703 4441 
L 1819 4666 
L 2450 4666 
L 2450 531 
L 3481 531 
L 3481 0 
L 794 0 
L 794 531 
z
" transform="scale(0.015625)"/>
       </defs>
       <use xlink:href="#DejaVuSans-31"/>
       <use xlink:href="#DejaVuSans-30" transform="translate(63.623047 0)"/>
       <use xlink:href="#DejaVuSans-30" transform="translate(127.246094 0)"/>
       <use xlink:href="#DejaVuSans-30" transform="translate(190.869141 0)"/>
      </g>
     </g>
    </g>
    <g id="text_7">
     <!-- Epoch -->
     <g style="fill: #262626" transform="translate(531.757727 681.679375) scale(0.32 -0.32)">
      <defs>
       <path id="DejaVuSans-45" d="M 628 4666 
L 3578 4666 
L 3578 4134 
L 1259 4134 
L 1259 2753 
L 3481 2753 
L 3481 2222 
L 1259 2222 
L 1259 531 
L 3634 531 
L 3634 0 
L 628 0 
L 628 4666 
z
" transform="scale(0.015625)"/>
       <path id="DejaVuSans-70" d="M 1159 525 
L 1159 -1331 
L 581 -1331 
L 581 3500 
L 1159 3500 
L 1159 2969 
Q 1341 3281 1617 3432 
Q 1894 3584 2278 3584 
Q 2916 3584 3314 3078 
Q 3713 2572 3713 1747 
Q 3713 922 3314 415 
Q 2916 -91 2278 -91 
Q 1894 -91 1617 61 
Q 1341 213 1159 525 
z
M 3116 1747 
Q 3116 2381 2855 2742 
Q 2594 3103 2138 3103 
Q 1681 3103 1420 2742 
Q 1159 2381 1159 1747 
Q 1159 1113 1420 752 
Q 1681 391 2138 391 
Q 2594 391 2855 752 
Q 3116 1113 3116 1747 
z
" transform="scale(0.015625)"/>
       <path id="DejaVuSans-6f" d="M 1959 3097 
Q 1497 3097 1228 2736 
Q 959 2375 959 1747 
Q 959 1119 1226 758 
Q 1494 397 1959 397 
Q 2419 397 2687 759 
Q 2956 1122 2956 1747 
Q 2956 2369 2687 2733 
Q 2419 3097 1959 3097 
z
M 1959 3584 
Q 2709 3584 3137 3096 
Q 3566 2609 3566 1747 
Q 3566 888 3137 398 
Q 2709 -91 1959 -91 
Q 1206 -91 779 398 
Q 353 888 353 1747 
Q 353 2609 779 3096 
Q 1206 3584 1959 3584 
z
" transform="scale(0.015625)"/>
       <path id="DejaVuSans-63" d="M 3122 3366 
L 3122 2828 
Q 2878 2963 2633 3030 
Q 2388 3097 2138 3097 
Q 1578 3097 1268 2742 
Q 959 2388 959 1747 
Q 959 1106 1268 751 
Q 1578 397 2138 397 
Q 2388 397 2633 464 
Q 2878 531 3122 666 
L 3122 134 
Q 2881 22 2623 -34 
Q 2366 -91 2075 -91 
Q 1284 -91 818 406 
Q 353 903 353 1747 
Q 353 2603 823 3093 
Q 1294 3584 2113 3584 
Q 2378 3584 2631 3529 
Q 2884 3475 3122 3366 
z
" transform="scale(0.015625)"/>
       <path id="DejaVuSans-68" d="M 3513 2113 
L 3513 0 
L 2938 0 
L 2938 2094 
Q 2938 2591 2744 2837 
Q 2550 3084 2163 3084 
Q 1697 3084 1428 2787 
Q 1159 2491 1159 1978 
L 1159 0 
L 581 0 
L 581 4863 
L 1159 4863 
L 1159 2956 
Q 1366 3272 1645 3428 
Q 1925 3584 2291 3584 
Q 2894 3584 3203 3211 
Q 3513 2838 3513 2113 
z
" transform="scale(0.015625)"/>
      </defs>
      <use xlink:href="#DejaVuSans-45"/>
      <use xlink:href="#DejaVuSans-70" transform="translate(63.183594 0)"/>
      <use xlink:href="#DejaVuSans-6f" transform="translate(126.660156 0)"/>
      <use xlink:href="#DejaVuSans-63" transform="translate(187.841797 0)"/>
      <use xlink:href="#DejaVuSans-68" transform="translate(242.822266 0)"/>
     </g>
    </g>
   </g>
   <g id="matplotlib.axis_2">
    <g id="ytick_1">
     <g id="line2d_7">
      <path d="M 115.75 584.730729 
L 1045.755455 584.730729 
" clip-path="url(#pa4c3871174)" style="fill: none; stroke: #cccccc; stroke-opacity: 0.3; stroke-width: 1.5; stroke-linecap: round"/>
     </g>
     <g id="text_8">
      <!-- 0 -->
      <g style="fill: #262626" transform="translate(82.89 596.888229) scale(0.32 -0.32)">
       <use xlink:href="#DejaVuSans-30"/>
      </g>
     </g>
    </g>
    <g id="ytick_2">
     <g id="line2d_8">
      <path d="M 115.75 483.744004 
L 1045.755455 483.744004 
" clip-path="url(#pa4c3871174)" style="fill: none; stroke: #cccccc; stroke-opacity: 0.3; stroke-width: 1.5; stroke-linecap: round"/>
     </g>
     <g id="text_9">
      <!-- 20 -->
      <g style="fill: #262626" transform="translate(62.53 495.901504) scale(0.32 -0.32)">
       <use xlink:href="#DejaVuSans-32"/>
       <use xlink:href="#DejaVuSans-30" transform="translate(63.623047 0)"/>
      </g>
     </g>
    </g>
    <g id="ytick_3">
     <g id="line2d_9">
      <path d="M 115.75 382.757278 
L 1045.755455 382.757278 
" clip-path="url(#pa4c3871174)" style="fill: none; stroke: #cccccc; stroke-opacity: 0.3; stroke-width: 1.5; stroke-linecap: round"/>
     </g>
     <g id="text_10">
      <!-- 40 -->
      <g style="fill: #262626" transform="translate(62.53 394.914778) scale(0.32 -0.32)">
       <use xlink:href="#DejaVuSans-34"/>
       <use xlink:href="#DejaVuSans-30" transform="translate(63.623047 0)"/>
      </g>
     </g>
    </g>
    <g id="ytick_4">
     <g id="line2d_10">
      <path d="M 115.75 281.770553 
L 1045.755455 281.770553 
" clip-path="url(#pa4c3871174)" style="fill: none; stroke: #cccccc; stroke-opacity: 0.3; stroke-width: 1.5; stroke-linecap: round"/>
     </g>
     <g id="text_11">
      <!-- 60 -->
      <g style="fill: #262626" transform="translate(62.53 293.928053) scale(0.32 -0.32)">
       <use xlink:href="#DejaVuSans-36"/>
       <use xlink:href="#DejaVuSans-30" transform="translate(63.623047 0)"/>
      </g>
     </g>
    </g>
    <g id="ytick_5">
     <g id="line2d_11">
      <path d="M 115.75 180.783828 
L 1045.755455 180.783828 
" clip-path="url(#pa4c3871174)" style="fill: none; stroke: #cccccc; stroke-opacity: 0.3; stroke-width: 1.5; stroke-linecap: round"/>
     </g>
     <g id="text_12">
      <!-- 80 -->
      <g style="fill: #262626" transform="translate(62.53 192.941328) scale(0.32 -0.32)">
       <use xlink:href="#DejaVuSans-38"/>
       <use xlink:href="#DejaVuSans-30" transform="translate(63.623047 0)"/>
      </g>
     </g>
    </g>
    <g id="ytick_6">
     <g id="line2d_12">
      <path d="M 115.75 79.797102 
L 1045.755455 79.797102 
" clip-path="url(#pa4c3871174)" style="fill: none; stroke: #cccccc; stroke-opacity: 0.3; stroke-width: 1.5; stroke-linecap: round"/>
     </g>
     <g id="text_13">
      <!-- 100 -->
      <g style="fill: #262626" transform="translate(42.17 91.954602) scale(0.32 -0.32)">
       <use xlink:href="#DejaVuSans-31"/>
       <use xlink:href="#DejaVuSans-30" transform="translate(63.623047 0)"/>
       <use xlink:href="#DejaVuSans-30" transform="translate(127.246094 0)"/>
      </g>
     </g>
    </g>
    <g id="text_14">
     <!-- Accuracy (%) -->
     <g style="fill: #262626" transform="translate(31.515 438.046875) rotate(-90) scale(0.32 -0.32)">
      <defs>
       <path id="DejaVuSans-41" d="M 2188 4044 
L 1331 1722 
L 3047 1722 
L 2188 4044 
z
M 1831 4666 
L 2547 4666 
L 4325 0 
L 3669 0 
L 3244 1197 
L 1141 1197 
L 716 0 
L 50 0 
L 1831 4666 
z
" transform="scale(0.015625)"/>
       <path id="DejaVuSans-75" d="M 544 1381 
L 544 3500 
L 1119 3500 
L 1119 1403 
Q 1119 906 1312 657 
Q 1506 409 1894 409 
Q 2359 409 2629 706 
Q 2900 1003 2900 1516 
L 2900 3500 
L 3475 3500 
L 3475 0 
L 2900 0 
L 2900 538 
Q 2691 219 2414 64 
Q 2138 -91 1772 -91 
Q 1169 -91 856 284 
Q 544 659 544 1381 
z
M 1991 3584 
L 1991 3584 
z
" transform="scale(0.015625)"/>
       <path id="DejaVuSans-72" d="M 2631 2963 
Q 2534 3019 2420 3045 
Q 2306 3072 2169 3072 
Q 1681 3072 1420 2755 
Q 1159 2438 1159 1844 
L 1159 0 
L 581 0 
L 581 3500 
L 1159 3500 
L 1159 2956 
Q 1341 3275 1631 3429 
Q 1922 3584 2338 3584 
Q 2397 3584 2469 3576 
Q 2541 3569 2628 3553 
L 2631 2963 
z
" transform="scale(0.015625)"/>
       <path id="DejaVuSans-61" d="M 2194 1759 
Q 1497 1759 1228 1600 
Q 959 1441 959 1056 
Q 959 750 1161 570 
Q 1363 391 1709 391 
Q 2188 391 2477 730 
Q 2766 1069 2766 1631 
L 2766 1759 
L 2194 1759 
z
M 3341 1997 
L 3341 0 
L 2766 0 
L 2766 531 
Q 2569 213 2275 61 
Q 1981 -91 1556 -91 
Q 1019 -91 701 211 
Q 384 513 384 1019 
Q 384 1609 779 1909 
Q 1175 2209 1959 2209 
L 2766 2209 
L 2766 2266 
Q 2766 2663 2505 2880 
Q 2244 3097 1772 3097 
Q 1472 3097 1187 3025 
Q 903 2953 641 2809 
L 641 3341 
Q 956 3463 1253 3523 
Q 1550 3584 1831 3584 
Q 2591 3584 2966 3190 
Q 3341 2797 3341 1997 
z
" transform="scale(0.015625)"/>
       <path id="DejaVuSans-79" d="M 2059 -325 
Q 1816 -950 1584 -1140 
Q 1353 -1331 966 -1331 
L 506 -1331 
L 506 -850 
L 844 -850 
Q 1081 -850 1212 -737 
Q 1344 -625 1503 -206 
L 1606 56 
L 191 3500 
L 800 3500 
L 1894 763 
L 2988 3500 
L 3597 3500 
L 2059 -325 
z
" transform="scale(0.015625)"/>
       <path id="DejaVuSans-20" transform="scale(0.015625)"/>
       <path id="DejaVuSans-28" d="M 1984 4856 
Q 1566 4138 1362 3434 
Q 1159 2731 1159 2009 
Q 1159 1288 1364 580 
Q 1569 -128 1984 -844 
L 1484 -844 
Q 1016 -109 783 600 
Q 550 1309 550 2009 
Q 550 2706 781 3412 
Q 1013 4119 1484 4856 
L 1984 4856 
z
" transform="scale(0.015625)"/>
       <path id="DejaVuSans-25" d="M 4653 2053 
Q 4381 2053 4226 1822 
Q 4072 1591 4072 1178 
Q 4072 772 4226 539 
Q 4381 306 4653 306 
Q 4919 306 5073 539 
Q 5228 772 5228 1178 
Q 5228 1588 5073 1820 
Q 4919 2053 4653 2053 
z
M 4653 2450 
Q 5147 2450 5437 2106 
Q 5728 1763 5728 1178 
Q 5728 594 5436 251 
Q 5144 -91 4653 -91 
Q 4153 -91 3862 251 
Q 3572 594 3572 1178 
Q 3572 1766 3864 2108 
Q 4156 2450 4653 2450 
z
M 1428 4353 
Q 1159 4353 1004 4120 
Q 850 3888 850 3481 
Q 850 3069 1003 2837 
Q 1156 2606 1428 2606 
Q 1700 2606 1854 2837 
Q 2009 3069 2009 3481 
Q 2009 3884 1853 4118 
Q 1697 4353 1428 4353 
z
M 4250 4750 
L 4750 4750 
L 1831 -91 
L 1331 -91 
L 4250 4750 
z
M 1428 4750 
Q 1922 4750 2215 4408 
Q 2509 4066 2509 3481 
Q 2509 2891 2217 2550 
Q 1925 2209 1428 2209 
Q 931 2209 642 2551 
Q 353 2894 353 3481 
Q 353 4063 643 4406 
Q 934 4750 1428 4750 
z
" transform="scale(0.015625)"/>
       <path id="DejaVuSans-29" d="M 513 4856 
L 1013 4856 
Q 1481 4119 1714 3412 
Q 1947 2706 1947 2009 
Q 1947 1309 1714 600 
Q 1481 -109 1013 -844 
L 513 -844 
Q 928 -128 1133 580 
Q 1338 1288 1338 2009 
Q 1338 2731 1133 3434 
Q 928 4138 513 4856 
z
" transform="scale(0.015625)"/>
      </defs>
      <use xlink:href="#DejaVuSans-41"/>
      <use xlink:href="#DejaVuSans-63" transform="translate(66.658203 0)"/>
      <use xlink:href="#DejaVuSans-63" transform="translate(121.638672 0)"/>
      <use xlink:href="#DejaVuSans-75" transform="translate(176.619141 0)"/>
      <use xlink:href="#DejaVuSans-72" transform="translate(239.998047 0)"/>
      <use xlink:href="#DejaVuSans-61" transform="translate(281.111328 0)"/>
      <use xlink:href="#DejaVuSans-63" transform="translate(342.390625 0)"/>
      <use xlink:href="#DejaVuSans-79" transform="translate(397.371094 0)"/>
      <use xlink:href="#DejaVuSans-20" transform="translate(456.550781 0)"/>
      <use xlink:href="#DejaVuSans-28" transform="translate(488.337891 0)"/>
      <use xlink:href="#DejaVuSans-25" transform="translate(527.351562 0)"/>
      <use xlink:href="#DejaVuSans-29" transform="translate(622.371094 0)"/>
     </g>
    </g>
   </g>
   <g id="FillBetweenPolyCollection_1"/>
   <g id="FillBetweenPolyCollection_2"/>
   <g id="line2d_13">
    <path d="M 158.022975 581.725172 
L 158.869281 577.612304 
L 159.715587 576.267713 
L 160.561893 573.103968 
L 161.408198 572.075751 
L 162.254504 569.544755 
L 163.10081 566.539198 
L 163.947116 564.799139 
L 164.793422 564.008202 
L 165.639727 561.477207 
L 166.486033 560.607177 
L 167.332339 559.262585 
L 168.178645 555.307904 
L 169.024951 554.675156 
L 170.717562 549.138603 
L 171.563868 548.18948 
L 172.410174 546.923983 
L 173.25648 544.313893 
L 174.102786 542.573832 
L 174.949091 536.641811 
L 175.795397 536.167251 
L 176.641703 534.743564 
L 177.488009 530.314324 
L 178.334315 526.75511 
L 179.18062 525.568706 
L 180.026926 520.902186 
L 180.873232 519.399405 
L 181.719538 514.653784 
L 183.41215 507.772643 
L 184.258455 505.637117 
L 185.104761 500.179655 
L 185.951067 496.541348 
L 186.797373 492.270294 
L 187.643679 489.739301 
L 188.489984 484.440026 
L 189.33629 482.779059 
L 190.182596 477.875259 
L 191.028902 474.790605 
L 191.875208 470.044991 
L 193.567819 463.87569 
L 194.414125 459.367349 
L 196.106737 453.356242 
L 196.953042 450.113401 
L 197.799348 443.706813 
L 198.645654 440.147599 
L 199.49196 435.085612 
L 201.184572 426.938971 
L 202.030877 422.351544 
L 202.877183 420.611476 
L 204.569795 409.775662 
L 206.262406 402.81542 
L 207.108712 398.939833 
L 208.801324 388.499471 
L 209.64763 388.183098 
L 210.493935 380.985576 
L 211.340241 379.957363 
L 213.032853 370.782509 
L 213.879159 366.986015 
L 214.725464 364.455014 
L 215.57177 358.364814 
L 217.264382 352.907345 
L 218.110688 349.585411 
L 218.956994 345.077077 
L 219.803299 339.06597 
L 220.649605 335.11129 
L 222.342217 329.574743 
L 223.188523 325.382767 
L 224.034828 320.399859 
L 224.881134 319.292552 
L 225.72744 313.123274 
L 227.420052 303.394737 
L 228.266357 300.705564 
L 229.112663 298.570045 
L 230.805275 291.76799 
L 231.651581 285.045028 
L 232.497886 281.644016 
L 233.344192 280.062119 
L 234.190498 274.209214 
L 235.036804 273.101908 
L 235.88311 266.774413 
L 236.729416 265.825293 
L 237.575721 259.893265 
L 240.960945 245.419129 
L 241.80725 242.967236 
L 242.653556 240.119847 
L 243.499862 235.611528 
L 244.346168 230.312246 
L 245.192474 227.227607 
L 246.038779 222.481978 
L 246.885085 221.374672 
L 247.731391 218.922779 
L 248.577697 214.572617 
L 249.424003 212.595284 
L 250.270308 207.058722 
L 251.116614 202.70859 
L 251.96292 199.149361 
L 253.655532 194.482855 
L 256.194449 181.906959 
L 257.040755 181.195119 
L 257.887061 174.393064 
L 258.733367 172.494824 
L 259.579672 170.121995 
L 261.272284 162.766317 
L 262.11859 159.681648 
L 262.964896 156.043356 
L 263.811201 151.772287 
L 265.503813 146.631191 
L 266.350119 142.755619 
L 267.196425 141.569219 
L 268.04273 136.349031 
L 268.889036 135.004444 
L 269.735342 134.134418 
L 270.581648 129.072416 
L 271.427954 127.96511 
L 272.27426 124.247724 
L 273.966871 119.027535 
L 274.813177 117.445669 
L 275.659483 114.756466 
L 276.505789 112.779134 
L 277.352094 109.931774 
L 278.1984 108.982655 
L 279.044706 106.135265 
L 279.891012 104.869772 
L 280.737318 103.050626 
L 281.583623 100.836013 
L 282.429929 99.491397 
L 283.276235 97.751344 
L 284.122541 95.536731 
L 284.968847 94.745798 
L 285.815153 92.926652 
L 286.661458 91.502942 
L 287.507764 89.446516 
L 288.35407 89.76289 
L 289.200376 87.073717 
L 290.046682 86.67825 
L 290.892987 86.520064 
L 291.739293 85.570944 
L 292.585599 85.017291 
L 295.124516 82.802648 
L 295.970822 83.356301 
L 296.817128 82.169902 
L 297.663434 81.695342 
L 298.50974 81.616248 
L 299.356045 81.062595 
L 300.202351 81.378969 
L 301.048657 80.983502 
L 301.894963 80.983502 
L 302.741269 80.825315 
L 303.587575 80.508942 
L 306.126492 80.034382 
L 307.819104 80.034382 
L 308.665409 79.876196 
L 465.231984 79.797102 
L 466.07829 80.508942 
L 466.924596 80.588035 
L 467.770902 80.508942 
L 468.617207 80.746222 
L 471.156125 79.797102 
L 472.002431 79.876196 
L 473.695042 79.797102 
L 588.792632 79.876196 
L 589.638938 80.429849 
L 591.33155 80.588035 
L 592.177856 80.271662 
L 593.024162 80.429849 
L 593.870467 80.192569 
L 594.716773 80.192569 
L 595.563079 79.955289 
L 596.409385 79.876196 
L 597.255691 79.955289 
L 599.794608 79.797102 
L 676.808437 79.797102 
L 677.654743 80.034382 
L 678.501048 79.955289 
L 679.347354 80.983502 
L 681.039966 80.983502 
L 681.886272 80.350755 
L 682.732577 80.508942 
L 683.578883 79.955289 
L 684.425189 79.797102 
L 685.271495 79.876196 
L 686.964106 79.797102 
L 769.902076 79.797102 
L 770.748382 79.955289 
L 771.594687 80.667129 
L 772.440993 80.825315 
L 774.133605 80.588035 
L 774.979911 80.192569 
L 776.672522 79.876196 
L 855.378963 79.797102 
L 856.225268 80.034382 
L 857.071574 80.508942 
L 858.764186 80.588035 
L 859.610492 81.299875 
L 860.456797 80.825315 
L 861.303103 80.588035 
L 862.149409 80.113476 
L 862.995715 80.271662 
L 863.842021 79.876196 
L 865.534632 79.797102 
L 941.702155 79.797102 
L 942.548461 80.192569 
L 943.394767 80.983502 
L 944.241073 80.904409 
L 945.087378 80.588035 
L 946.77999 80.588035 
L 947.626296 80.113476 
L 950.165213 80.113476 
L 951.011519 79.797102 
L 952.704131 79.955289 
L 953.550437 79.797102 
L 956.089354 79.955289 
L 956.93566 79.797102 
L 959.474577 80.113476 
L 960.320883 80.588035 
L 962.8598 80.825315 
L 964.552412 80.192569 
L 965.398718 80.192569 
L 967.937635 79.797102 
L 1003.482479 79.797102 
L 1003.482479 79.797102 
" clip-path="url(#pa4c3871174)" style="fill: none; stroke: #4c72b0; stroke-width: 6; stroke-linecap: round"/>
   </g>
   <g id="line2d_14">
    <path d="M 158.022975 581.409318 
L 158.869281 582.279211 
L 159.715587 582.516455 
L 160.561893 583.228186 
L 161.408198 582.83278 
L 162.254504 583.623592 
L 163.10081 583.544511 
L 164.793422 584.256242 
L 165.639727 583.781754 
L 166.486033 584.098079 
L 170.717562 584.098079 
L 171.563868 584.256242 
L 172.410174 584.098079 
L 173.25648 584.17716 
L 174.102786 584.098079 
L 177.488009 584.414404 
L 179.18062 584.335323 
L 180.026926 584.651648 
L 181.719538 584.414404 
L 182.565844 584.651648 
L 183.41215 584.493485 
L 184.258455 584.572567 
L 185.104761 584.493485 
L 185.951067 584.651648 
L 186.797373 584.493485 
L 187.643679 584.572567 
L 188.489984 584.493485 
L 190.182596 584.572567 
L 195.260431 584.572567 
L 196.953042 584.335323 
L 197.799348 584.493485 
L 200.338266 584.335323 
L 202.030877 584.493485 
L 202.877183 584.414404 
L 203.723489 584.572567 
L 204.569795 584.335323 
L 205.416101 584.493485 
L 206.262406 584.256242 
L 210.493935 584.256242 
L 211.340241 584.018998 
L 212.186547 584.018998 
L 213.879159 584.256242 
L 215.57177 584.17716 
L 217.264382 584.098079 
L 218.110688 584.018998 
L 218.956994 584.17716 
L 221.495911 584.17716 
L 222.342217 584.335323 
L 224.034828 584.17716 
L 225.72744 584.335323 
L 227.420052 584.256242 
L 231.651581 584.256242 
L 232.497886 584.414404 
L 233.344192 584.018998 
L 234.190498 584.256242 
L 235.036804 584.098079 
L 235.88311 584.17716 
L 237.575721 584.018998 
L 238.422027 584.17716 
L 240.960945 584.098079 
L 241.80725 584.018998 
L 244.346168 584.256242 
L 245.192474 583.939917 
L 246.038779 584.17716 
L 246.885085 584.018998 
L 251.116614 584.018998 
L 251.96292 584.17716 
L 252.809226 584.018998 
L 253.655532 584.098079 
L 254.501838 584.018998 
L 256.194449 584.098079 
L 259.579672 584.098079 
L 260.425978 584.256242 
L 262.11859 584.17716 
L 263.811201 584.17716 
L 264.657507 584.335323 
L 265.503813 584.098079 
L 266.350119 584.256242 
L 267.196425 584.256242 
L 268.04273 584.098079 
L 269.735342 584.17716 
L 270.581648 584.256242 
L 271.427954 584.098079 
L 272.27426 584.256242 
L 273.120565 584.256242 
L 273.966871 584.098079 
L 274.813177 584.256242 
L 275.659483 584.17716 
L 276.505789 584.256242 
L 277.352094 584.17716 
L 279.044706 584.335323 
L 279.891012 584.17716 
L 281.583623 584.256242 
L 282.429929 584.17716 
L 283.276235 584.335323 
L 284.122541 584.256242 
L 284.968847 584.335323 
L 285.815153 584.17716 
L 288.35407 584.414404 
L 289.200376 584.256242 
L 290.046682 584.414404 
L 290.892987 584.335323 
L 292.585599 584.414404 
L 294.278211 584.335323 
L 295.124516 584.414404 
L 295.970822 584.17716 
L 296.817128 584.493485 
L 297.663434 584.256242 
L 298.50974 584.414404 
L 311.204327 584.493485 
L 312.050633 584.17716 
L 312.896938 584.493485 
L 313.743244 584.335323 
L 315.435856 584.414404 
L 316.282162 584.493485 
L 317.974773 584.414404 
L 340.82503 584.493485 
L 341.671336 584.572567 
L 343.363948 584.335323 
L 344.210253 584.493485 
L 345.056559 584.414404 
L 345.902865 584.493485 
L 346.749171 584.414404 
L 347.595477 584.493485 
L 348.441782 584.414404 
L 349.288088 584.493485 
L 350.134394 584.335323 
L 351.827006 584.414404 
L 353.519617 584.414404 
L 354.365923 584.572567 
L 358.597452 584.493485 
L 359.443758 584.414404 
L 361.982675 584.572567 
L 362.828981 584.335323 
L 363.675287 584.256242 
L 364.521593 584.493485 
L 365.367899 584.414404 
L 367.06051 584.572567 
L 367.906816 584.335323 
L 369.599428 584.414404 
L 394.988602 584.414404 
L 395.834908 584.572567 
L 396.681214 584.335323 
L 397.527519 584.335323 
L 398.373825 584.493485 
L 400.066437 584.335323 
L 400.912743 584.493485 
L 403.45166 584.335323 
L 404.297966 584.414404 
L 405.144272 584.335323 
L 405.990578 584.493485 
L 406.836883 584.335323 
L 407.683189 584.414404 
L 408.529495 584.256242 
L 411.068412 584.493485 
L 414.453636 584.256242 
L 415.299941 584.493485 
L 416.146247 584.414404 
L 416.992553 584.493485 
L 419.53147 584.335323 
L 431.379752 584.335323 
L 432.226058 584.17716 
L 433.072363 584.335323 
L 433.918669 584.256242 
L 435.611281 584.335323 
L 436.457587 584.17716 
L 438.150198 584.414404 
L 438.996504 584.335323 
L 440.689116 584.414404 
L 441.535422 584.414404 
L 443.228033 584.17716 
L 444.920645 584.256242 
L 458.461538 584.17716 
L 459.307844 584.414404 
L 460.154149 584.335323 
L 461.000455 584.414404 
L 461.846761 584.256242 
L 462.693067 584.335323 
L 463.539373 584.256242 
L 464.385678 584.335323 
L 466.924596 584.17716 
L 467.770902 584.256242 
L 468.617207 584.17716 
L 471.156125 584.335323 
L 472.002431 584.098079 
L 472.848737 584.335323 
L 473.695042 584.098079 
L 475.387654 584.17716 
L 494.852688 584.256242 
L 495.698993 584.335323 
L 496.545299 584.256242 
L 498.237911 584.335323 
L 514.317721 584.256242 
L 515.164027 584.17716 
L 516.856639 584.335323 
L 519.395556 584.17716 
L 520.241862 584.335323 
L 521.088168 584.17716 
L 523.627085 584.256242 
L 524.473391 584.335323 
L 525.319697 584.17716 
L 527.012308 584.414404 
L 527.858614 584.256242 
L 532.090143 584.17716 
L 532.936449 584.414404 
L 533.782755 584.17716 
L 534.629061 584.256242 
L 535.475366 584.17716 
L 537.167978 584.335323 
L 538.86059 584.256242 
L 540.553201 584.335323 
L 541.399507 584.256242 
L 542.245813 584.335323 
L 543.938425 584.256242 
L 544.78473 584.335323 
L 545.631036 584.256242 
L 546.477342 584.414404 
L 547.323648 584.256242 
L 549.016259 584.256242 
L 549.862565 584.414404 
L 550.708871 584.256242 
L 555.786706 584.256242 
L 556.633012 584.414404 
L 559.171929 584.256242 
L 561.710847 584.256242 
L 562.557152 584.414404 
L 563.403458 584.256242 
L 564.249764 584.335323 
L 565.09607 584.256242 
L 566.788681 584.414404 
L 568.481293 584.335323 
L 577.790657 584.256242 
L 578.636963 584.098079 
L 579.483269 584.256242 
L 580.329574 584.17716 
L 582.022186 584.256242 
L 582.868492 584.098079 
L 583.714798 584.335323 
L 584.561103 584.098079 
L 585.407409 584.018998 
L 589.638938 584.335323 
L 591.33155 584.335323 
L 592.177856 584.098079 
L 593.870467 584.256242 
L 594.716773 584.17716 
L 595.563079 584.335323 
L 596.409385 584.17716 
L 598.101996 584.414404 
L 600.640914 584.335323 
L 601.48722 584.256242 
L 604.026137 584.414404 
L 616.720724 584.335323 
L 618.413336 584.256242 
L 675.962131 584.256242 
L 676.808437 584.572567 
L 677.654743 584.17716 
L 681.039966 584.256242 
L 681.886272 584.018998 
L 682.732577 584.17716 
L 683.578883 584.018998 
L 685.271495 584.098079 
L 686.117801 583.939917 
L 687.810412 584.018998 
L 711.506975 584.098079 
L 713.199587 584.17716 
L 763.977935 584.256242 
L 765.670547 584.335323 
L 767.363158 584.256242 
L 769.05577 584.335323 
L 769.902076 584.335323 
L 770.748382 584.018998 
L 771.594687 584.256242 
L 773.287299 584.17716 
L 774.133605 584.572567 
L 774.979911 584.256242 
L 775.826216 584.335323 
L 776.672522 584.17716 
L 844.376987 584.256242 
L 846.069599 584.335323 
L 856.225268 584.256242 
L 857.071574 584.098079 
L 857.91788 584.335323 
L 859.610492 584.17716 
L 861.303103 584.414404 
L 863.842021 584.335323 
L 864.688327 584.17716 
L 874.843996 584.256242 
L 875.690302 584.414404 
L 891.770112 584.335323 
L 893.462724 584.256242 
L 919.698204 584.256242 
L 920.54451 584.414404 
L 922.237122 584.335323 
L 923.083427 584.414404 
L 924.776039 584.256242 
L 925.622345 584.414404 
L 927.314956 584.335323 
L 941.702155 584.256242 
L 942.548461 584.17716 
L 943.394767 584.414404 
L 945.933684 584.098079 
L 946.77999 584.493485 
L 948.472602 584.098079 
L 949.318908 583.939917 
L 950.165213 584.17716 
L 951.011519 584.098079 
L 951.857825 584.335323 
L 954.396742 584.17716 
L 958.628271 584.17716 
L 959.474577 584.493485 
L 960.320883 584.098079 
L 962.013495 584.018998 
L 963.706106 584.414404 
L 965.398718 584.098079 
L 967.09133 584.335323 
L 994.173115 584.256242 
L 995.865727 584.17716 
L 1003.482479 584.17716 
L 1003.482479 584.17716 
" clip-path="url(#pa4c3871174)" style="fill: none; stroke: #dd8452; stroke-width: 6; stroke-linecap: round"/>
   </g>
   <g id="line2d_15"/>
   <g id="line2d_16"/>
   <g id="patch_3">
    <path d="M 115.75 609.894375 
L 115.75 54.554375 
" style="fill: none; stroke: #cccccc; stroke-width: 1.875; stroke-linejoin: miter; stroke-linecap: square"/>
   </g>
   <g id="patch_4">
    <path d="M 1045.755455 609.894375 
L 1045.755455 54.554375 
" style="fill: none; stroke: #cccccc; stroke-width: 1.875; stroke-linejoin: miter; stroke-linecap: square"/>
   </g>
   <g id="patch_5">
    <path d="M 115.75 609.894375 
L 1045.755455 609.894375 
" style="fill: none; stroke: #cccccc; stroke-width: 1.875; stroke-linejoin: miter; stroke-linecap: square"/>
   </g>
   <g id="patch_6">
    <path d="M 115.75 54.554375 
L 1045.755455 54.554375 
" style="fill: none; stroke: #cccccc; stroke-width: 1.875; stroke-linejoin: miter; stroke-linecap: square"/>
   </g>
   <g id="text_15">
    <!-- Training Progress: Accuracy -->
    <g style="fill: #262626" transform="translate(297.50304 34.554375) scale(0.36 -0.36)">
     <defs>
      <path id="DejaVuSans-Bold-54" d="M 31 4666 
L 4331 4666 
L 4331 3756 
L 2784 3756 
L 2784 0 
L 1581 0 
L 1581 3756 
L 31 3756 
L 31 4666 
z
" transform="scale(0.015625)"/>
      <path id="DejaVuSans-Bold-72" d="M 3138 2547 
Q 2991 2616 2845 2648 
Q 2700 2681 2553 2681 
Q 2122 2681 1889 2404 
Q 1656 2128 1656 1613 
L 1656 0 
L 538 0 
L 538 3500 
L 1656 3500 
L 1656 2925 
Q 1872 3269 2151 3426 
Q 2431 3584 2822 3584 
Q 2878 3584 2943 3579 
Q 3009 3575 3134 3559 
L 3138 2547 
z
" transform="scale(0.015625)"/>
      <path id="DejaVuSans-Bold-61" d="M 2106 1575 
Q 1756 1575 1579 1456 
Q 1403 1338 1403 1106 
Q 1403 894 1545 773 
Q 1688 653 1941 653 
Q 2256 653 2472 879 
Q 2688 1106 2688 1447 
L 2688 1575 
L 2106 1575 
z
M 3816 1997 
L 3816 0 
L 2688 0 
L 2688 519 
Q 2463 200 2181 54 
Q 1900 -91 1497 -91 
Q 953 -91 614 226 
Q 275 544 275 1050 
Q 275 1666 698 1953 
Q 1122 2241 2028 2241 
L 2688 2241 
L 2688 2328 
Q 2688 2594 2478 2717 
Q 2269 2841 1825 2841 
Q 1466 2841 1156 2769 
Q 847 2697 581 2553 
L 581 3406 
Q 941 3494 1303 3539 
Q 1666 3584 2028 3584 
Q 2975 3584 3395 3211 
Q 3816 2838 3816 1997 
z
" transform="scale(0.015625)"/>
      <path id="DejaVuSans-Bold-69" d="M 538 3500 
L 1656 3500 
L 1656 0 
L 538 0 
L 538 3500 
z
M 538 4863 
L 1656 4863 
L 1656 3950 
L 538 3950 
L 538 4863 
z
" transform="scale(0.015625)"/>
      <path id="DejaVuSans-Bold-6e" d="M 4056 2131 
L 4056 0 
L 2931 0 
L 2931 347 
L 2931 1631 
Q 2931 2084 2911 2256 
Q 2891 2428 2841 2509 
Q 2775 2619 2662 2680 
Q 2550 2741 2406 2741 
Q 2056 2741 1856 2470 
Q 1656 2200 1656 1722 
L 1656 0 
L 538 0 
L 538 3500 
L 1656 3500 
L 1656 2988 
Q 1909 3294 2193 3439 
Q 2478 3584 2822 3584 
Q 3428 3584 3742 3212 
Q 4056 2841 4056 2131 
z
" transform="scale(0.015625)"/>
      <path id="DejaVuSans-Bold-67" d="M 2919 594 
Q 2688 288 2409 144 
Q 2131 0 1766 0 
Q 1125 0 706 504 
Q 288 1009 288 1791 
Q 288 2575 706 3076 
Q 1125 3578 1766 3578 
Q 2131 3578 2409 3434 
Q 2688 3291 2919 2981 
L 2919 3500 
L 4044 3500 
L 4044 353 
Q 4044 -491 3511 -936 
Q 2978 -1381 1966 -1381 
Q 1638 -1381 1331 -1331 
Q 1025 -1281 716 -1178 
L 716 -306 
Q 1009 -475 1290 -558 
Q 1572 -641 1856 -641 
Q 2406 -641 2662 -400 
Q 2919 -159 2919 353 
L 2919 594 
z
M 2181 2772 
Q 1834 2772 1640 2515 
Q 1447 2259 1447 1791 
Q 1447 1309 1634 1061 
Q 1822 813 2181 813 
Q 2531 813 2725 1069 
Q 2919 1325 2919 1791 
Q 2919 2259 2725 2515 
Q 2531 2772 2181 2772 
z
" transform="scale(0.015625)"/>
      <path id="DejaVuSans-Bold-20" transform="scale(0.015625)"/>
      <path id="DejaVuSans-Bold-50" d="M 588 4666 
L 2584 4666 
Q 3475 4666 3951 4270 
Q 4428 3875 4428 3144 
Q 4428 2409 3951 2014 
Q 3475 1619 2584 1619 
L 1791 1619 
L 1791 0 
L 588 0 
L 588 4666 
z
M 1791 3794 
L 1791 2491 
L 2456 2491 
Q 2806 2491 2997 2661 
Q 3188 2831 3188 3144 
Q 3188 3456 2997 3625 
Q 2806 3794 2456 3794 
L 1791 3794 
z
" transform="scale(0.015625)"/>
      <path id="DejaVuSans-Bold-6f" d="M 2203 2784 
Q 1831 2784 1636 2517 
Q 1441 2250 1441 1747 
Q 1441 1244 1636 976 
Q 1831 709 2203 709 
Q 2569 709 2762 976 
Q 2956 1244 2956 1747 
Q 2956 2250 2762 2517 
Q 2569 2784 2203 2784 
z
M 2203 3584 
Q 3106 3584 3614 3096 
Q 4122 2609 4122 1747 
Q 4122 884 3614 396 
Q 3106 -91 2203 -91 
Q 1297 -91 786 396 
Q 275 884 275 1747 
Q 275 2609 786 3096 
Q 1297 3584 2203 3584 
z
" transform="scale(0.015625)"/>
      <path id="DejaVuSans-Bold-65" d="M 4031 1759 
L 4031 1441 
L 1416 1441 
Q 1456 1047 1700 850 
Q 1944 653 2381 653 
Q 2734 653 3104 758 
Q 3475 863 3866 1075 
L 3866 213 
Q 3469 63 3072 -14 
Q 2675 -91 2278 -91 
Q 1328 -91 801 392 
Q 275 875 275 1747 
Q 275 2603 792 3093 
Q 1309 3584 2216 3584 
Q 3041 3584 3536 3087 
Q 4031 2591 4031 1759 
z
M 2881 2131 
Q 2881 2450 2695 2645 
Q 2509 2841 2209 2841 
Q 1884 2841 1681 2658 
Q 1478 2475 1428 2131 
L 2881 2131 
z
" transform="scale(0.015625)"/>
      <path id="DejaVuSans-Bold-73" d="M 3272 3391 
L 3272 2541 
Q 2913 2691 2578 2766 
Q 2244 2841 1947 2841 
Q 1628 2841 1473 2761 
Q 1319 2681 1319 2516 
Q 1319 2381 1436 2309 
Q 1553 2238 1856 2203 
L 2053 2175 
Q 2913 2066 3209 1816 
Q 3506 1566 3506 1031 
Q 3506 472 3093 190 
Q 2681 -91 1863 -91 
Q 1516 -91 1145 -36 
Q 775 19 384 128 
L 384 978 
Q 719 816 1070 734 
Q 1422 653 1784 653 
Q 2113 653 2278 743 
Q 2444 834 2444 1013 
Q 2444 1163 2330 1236 
Q 2216 1309 1875 1350 
L 1678 1375 
Q 931 1469 631 1722 
Q 331 1975 331 2491 
Q 331 3047 712 3315 
Q 1094 3584 1881 3584 
Q 2191 3584 2531 3537 
Q 2872 3491 3272 3391 
z
" transform="scale(0.015625)"/>
      <path id="DejaVuSans-Bold-3a" d="M 716 3500 
L 1844 3500 
L 1844 2291 
L 716 2291 
L 716 3500 
z
M 716 1209 
L 1844 1209 
L 1844 0 
L 716 0 
L 716 1209 
z
" transform="scale(0.015625)"/>
      <path id="DejaVuSans-Bold-41" d="M 3419 850 
L 1538 850 
L 1241 0 
L 31 0 
L 1759 4666 
L 3194 4666 
L 4922 0 
L 3713 0 
L 3419 850 
z
M 1838 1716 
L 3116 1716 
L 2478 3572 
L 1838 1716 
z
" transform="scale(0.015625)"/>
      <path id="DejaVuSans-Bold-63" d="M 3366 3391 
L 3366 2478 
Q 3138 2634 2908 2709 
Q 2678 2784 2431 2784 
Q 1963 2784 1702 2511 
Q 1441 2238 1441 1747 
Q 1441 1256 1702 982 
Q 1963 709 2431 709 
Q 2694 709 2930 787 
Q 3166 866 3366 1019 
L 3366 103 
Q 3103 6 2833 -42 
Q 2563 -91 2291 -91 
Q 1344 -91 809 395 
Q 275 881 275 1747 
Q 275 2613 809 3098 
Q 1344 3584 2291 3584 
Q 2566 3584 2833 3536 
Q 3100 3488 3366 3391 
z
" transform="scale(0.015625)"/>
      <path id="DejaVuSans-Bold-75" d="M 500 1363 
L 500 3500 
L 1625 3500 
L 1625 3150 
Q 1625 2866 1622 2436 
Q 1619 2006 1619 1863 
Q 1619 1441 1641 1255 
Q 1663 1069 1716 984 
Q 1784 875 1895 815 
Q 2006 756 2150 756 
Q 2500 756 2700 1025 
Q 2900 1294 2900 1772 
L 2900 3500 
L 4019 3500 
L 4019 0 
L 2900 0 
L 2900 506 
Q 2647 200 2364 54 
Q 2081 -91 1741 -91 
Q 1134 -91 817 281 
Q 500 653 500 1363 
z
" transform="scale(0.015625)"/>
      <path id="DejaVuSans-Bold-79" d="M 78 3500 
L 1197 3500 
L 2138 1125 
L 2938 3500 
L 4056 3500 
L 2584 -331 
Q 2363 -916 2067 -1148 
Q 1772 -1381 1288 -1381 
L 641 -1381 
L 641 -647 
L 991 -647 
Q 1275 -647 1404 -556 
Q 1534 -466 1606 -231 
L 1638 -134 
L 78 3500 
z
" transform="scale(0.015625)"/>
     </defs>
     <use xlink:href="#DejaVuSans-Bold-54"/>
     <use xlink:href="#DejaVuSans-Bold-72" transform="translate(57.212891 0)"/>
     <use xlink:href="#DejaVuSans-Bold-61" transform="translate(106.529297 0)"/>
     <use xlink:href="#DejaVuSans-Bold-69" transform="translate(174.009766 0)"/>
     <use xlink:href="#DejaVuSans-Bold-6e" transform="translate(208.287109 0)"/>
     <use xlink:href="#DejaVuSans-Bold-69" transform="translate(279.478516 0)"/>
     <use xlink:href="#DejaVuSans-Bold-6e" transform="translate(313.755859 0)"/>
     <use xlink:href="#DejaVuSans-Bold-67" transform="translate(384.947266 0)"/>
     <use xlink:href="#DejaVuSans-Bold-20" transform="translate(456.529297 0)"/>
     <use xlink:href="#DejaVuSans-Bold-50" transform="translate(491.34375 0)"/>
     <use xlink:href="#DejaVuSans-Bold-72" transform="translate(564.634766 0)"/>
     <use xlink:href="#DejaVuSans-Bold-6f" transform="translate(613.951172 0)"/>
     <use xlink:href="#DejaVuSans-Bold-67" transform="translate(682.652344 0)"/>
     <use xlink:href="#DejaVuSans-Bold-72" transform="translate(754.234375 0)"/>
     <use xlink:href="#DejaVuSans-Bold-65" transform="translate(803.550781 0)"/>
     <use xlink:href="#DejaVuSans-Bold-73" transform="translate(871.373047 0)"/>
     <use xlink:href="#DejaVuSans-Bold-73" transform="translate(930.894531 0)"/>
     <use xlink:href="#DejaVuSans-Bold-3a" transform="translate(990.416016 0)"/>
     <use xlink:href="#DejaVuSans-Bold-20" transform="translate(1030.40625 0)"/>
     <use xlink:href="#DejaVuSans-Bold-41" transform="translate(1065.220703 0)"/>
     <use xlink:href="#DejaVuSans-Bold-63" transform="translate(1142.613281 0)"/>
     <use xlink:href="#DejaVuSans-Bold-63" transform="translate(1201.890625 0)"/>
     <use xlink:href="#DejaVuSans-Bold-75" transform="translate(1261.167969 0)"/>
     <use xlink:href="#DejaVuSans-Bold-72" transform="translate(1332.359375 0)"/>
     <use xlink:href="#DejaVuSans-Bold-61" transform="translate(1381.675781 0)"/>
     <use xlink:href="#DejaVuSans-Bold-63" transform="translate(1449.15625 0)"/>
     <use xlink:href="#DejaVuSans-Bold-79" transform="translate(1508.433594 0)"/>
    </g>
   </g>
   <g id="legend_1">
    <g id="patch_7">
     <path d="M 846.475455 383.994375 
L 1023.355455 383.994375 
Q 1029.755455 383.994375 1029.755455 377.594375 
L 1029.755455 286.854375 
Q 1029.755455 280.454375 1023.355455 280.454375 
L 846.475455 280.454375 
Q 840.075455 280.454375 840.075455 286.854375 
L 840.075455 377.594375 
Q 840.075455 383.994375 846.475455 383.994375 
z
" style="fill: #ffffff; opacity: 0.8; stroke: #cccccc; stroke-width: 1.5; stroke-linejoin: miter"/>
    </g>
    <g id="line2d_17">
     <path d="M 852.875455 306.369375 
L 884.875455 306.369375 
L 916.875455 306.369375 
" style="fill: none; stroke: #4c72b0; stroke-width: 6; stroke-linecap: round"/>
    </g>
    <g id="text_16">
     <!-- train -->
     <g style="fill: #262626" transform="translate(942.475455 317.569375) scale(0.32 -0.32)">
      <defs>
       <path id="DejaVuSans-74" d="M 1172 4494 
L 1172 3500 
L 2356 3500 
L 2356 3053 
L 1172 3053 
L 1172 1153 
Q 1172 725 1289 603 
Q 1406 481 1766 481 
L 2356 481 
L 2356 0 
L 1766 0 
Q 1100 0 847 248 
Q 594 497 594 1153 
L 594 3053 
L 172 3053 
L 172 3500 
L 594 3500 
L 594 4494 
L 1172 4494 
z
" transform="scale(0.015625)"/>
       <path id="DejaVuSans-69" d="M 603 3500 
L 1178 3500 
L 1178 0 
L 603 0 
L 603 3500 
z
M 603 4863 
L 1178 4863 
L 1178 4134 
L 603 4134 
L 603 4863 
z
" transform="scale(0.015625)"/>
       <path id="DejaVuSans-6e" d="M 3513 2113 
L 3513 0 
L 2938 0 
L 2938 2094 
Q 2938 2591 2744 2837 
Q 2550 3084 2163 3084 
Q 1697 3084 1428 2787 
Q 1159 2491 1159 1978 
L 1159 0 
L 581 0 
L 581 3500 
L 1159 3500 
L 1159 2956 
Q 1366 3272 1645 3428 
Q 1925 3584 2291 3584 
Q 2894 3584 3203 3211 
Q 3513 2838 3513 2113 
z
" transform="scale(0.015625)"/>
      </defs>
      <use xlink:href="#DejaVuSans-74"/>
      <use xlink:href="#DejaVuSans-72" transform="translate(39.208984 0)"/>
      <use xlink:href="#DejaVuSans-61" transform="translate(80.322266 0)"/>
      <use xlink:href="#DejaVuSans-69" transform="translate(141.601562 0)"/>
      <use xlink:href="#DejaVuSans-6e" transform="translate(169.384766 0)"/>
     </g>
    </g>
    <g id="line2d_18">
     <path d="M 852.875455 353.339375 
L 884.875455 353.339375 
L 916.875455 353.339375 
" style="fill: none; stroke: #dd8452; stroke-width: 6; stroke-linecap: round"/>
    </g>
    <g id="text_17">
     <!-- val -->
     <g style="fill: #262626" transform="translate(942.475455 364.539375) scale(0.32 -0.32)">
      <defs>
       <path id="DejaVuSans-76" d="M 191 3500 
L 800 3500 
L 1894 563 
L 2988 3500 
L 3597 3500 
L 2284 0 
L 1503 0 
L 191 3500 
z
" transform="scale(0.015625)"/>
       <path id="DejaVuSans-6c" d="M 603 4863 
L 1178 4863 
L 1178 0 
L 603 0 
L 603 4863 
z
" transform="scale(0.015625)"/>
      </defs>
      <use xlink:href="#DejaVuSans-76"/>
      <use xlink:href="#DejaVuSans-61" transform="translate(59.179688 0)"/>
      <use xlink:href="#DejaVuSans-6c" transform="translate(120.458984 0)"/>
     </g>
    </g>
   </g>
  </g>
 </g>
 <defs>
  <clipPath id="pa4c3871174">
   <rect x="115.75" y="54.554375" width="930.005455" height="555.34"/>
  </clipPath>
 </defs>
</svg>
