<?xml version="1.0" encoding="utf-8" standalone="no"?>
<!DOCTYPE svg PUBLIC "-//W3C//DTD SVG 1.1//EN"
  "http://www.w3.org/Graphics/SVG/1.1/DTD/svg11.dtd">
<svg xmlns:xlink="http://www.w3.org/1999/xlink" width="1052.845455pt" height="695.534375pt" viewBox="0 0 1052.845455 695.534375" xmlns="http://www.w3.org/2000/svg" version="1.1">
 <metadata>
  <rdf:RDF xmlns:dc="http://purl.org/dc/elements/1.1/" xmlns:cc="http://creativecommons.org/ns#" xmlns:rdf="http://www.w3.org/1999/02/22-rdf-syntax-ns#">
   <cc:Work>
    <dc:type rdf:resource="http://purl.org/dc/dcmitype/StillImage"/>
    <dc:date>2026-04-13T13:32:37.522948</dc:date>
    <dc:format>image/svg+xml</dc:format>
    <dc:creator>
     <cc:Agent>
      <dc:title>Matplotlib v3.10.8, https://matplotlib.org/</dc:title>
     </cc:Agent>
    </dc:creator>
   </cc:Work>
  </rdf:RDF>
 </metadata>
 <defs>
  <style type="text/css">*{stroke-linejoin: round; stroke-linecap: butt}</style>
 </defs>
 <g id="figure_1">
  <g id="patch_1">
   <path d="M 0 695.534375 
L 1052.845455 695.534375 
L 1052.845455 0 
L 0 0 
z
" style="fill: #ffffff"/>
  </g>
  <g id="axes_1">
   <g id="patch_2">
    <path d="M 95.39 609.894375 
L 1045.645455 609.894375 
L 1045.645455 54.554375 
L 95.39 54.554375 
z
" style="fill: #ffffff"/>
   </g>
   <g id="matplotlib.axis_1">
    <g id="xtick_1">
     <g id="line2d_1">
      <path d="M 137.718696 609.894375 
L 137.718696 54.554375 
" clip-path="url(#pc2be279dfd)" style="fill: none; stroke: #cccccc; stroke-opacity: 0.3; stroke-width: 1.5; stroke-linecap: round"/>
     </g>
     <g id="text_1">
      <!-- 0 -->
      <g style="fill: #262626" transform="translate(127.538696 646.709375) scale(0.32 -0.32)">
       <defs>
        <path id="DejaVuSans-30" d="M 2034 4250 
Q 1547 4250 1301 3770 
Q 1056 3291 1056 2328 
Q 1056 1369 1301 889 
Q 1547 409 2034 409 
Q 2525 409 2770 889 
Q 3016 1369 3016 2328 
Q 3016 3291 2770 3770 
Q 2525 4250 2034 4250 
z
M 2034 4750 
Q 2819 4750 3233 4129 
Q 3647 3509 3647 2328 
Q 3647 1150 3233 529 
Q 2819 -91 2034 -91 
Q 1250 -91 836 529 
Q 422 1150 422 2328 
Q 422 3509 836 4129 
Q 1250 4750 2034 4750 
z
" transform="scale(0.015625)"/>
       </defs>
       <use xlink:href="#DejaVuSans-30"/>
      </g>
     </g>
    </g>
    <g id="xtick_2">
     <g id="line2d_2">
      <path d="M 310.665362 609.894375 
L 310.665362 54.554375 
" clip-path="url(#pc2be279dfd)" style="fill: none; stroke: #cccccc; stroke-opacity: 0.3; stroke-width: 1.5; stroke-linecap: round"/>
     </g>
     <g id="text_2">
      <!-- 200 -->
      <g style="fill: #262626" transform="translate(280.125362 646.709375) scale(0.32 -0.32)">
       <defs>
        <path id="DejaVuSans-32" d="M 1228 531 
L 3431 531 
L 3431 0 
L 469 0 
L 469 531 
Q 828 903 1448 1529 
Q 2069 2156 2228 2338 
Q 2531 2678 2651 2914 
Q 2772 3150 2772 3378 
Q 2772 3750 2511 3984 
Q 2250 4219 1831 4219 
Q 1534 4219 1204 4116 
Q 875 4013 500 3803 
L 500 4441 
Q 881 4594 1212 4672 
Q 1544 4750 1819 4750 
Q 2544 4750 2975 4387 
Q 3406 4025 3406 3419 
Q 3406 3131 3298 2873 
Q 3191 2616 2906 2266 
Q 2828 2175 2409 1742 
Q 1991 1309 1228 531 
z
" transform="scale(0.015625)"/>
       </defs>
       <use xlink:href="#DejaVuSans-32"/>
       <use xlink:href="#DejaVuSans-30" transform="translate(63.623047 0)"/>
       <use xlink:href="#DejaVuSans-30" transform="translate(127.246094 0)"/>
      </g>
     </g>
    </g>
    <g id="xtick_3">
     <g id="line2d_3">
      <path d="M 483.612028 609.894375 
L 483.612028 54.554375 
" clip-path="url(#pc2be279dfd)" style="fill: none; stroke: #cccccc; stroke-opacity: 0.3; stroke-width: 1.5; stroke-linecap: round"/>
     </g>
     <g id="text_3">
      <!-- 400 -->
      <g style="fill: #262626" transform="translate(453.072028 646.709375) scale(0.32 -0.32)">
       <defs>
        <path id="DejaVuSans-34" d="M 2419 4116 
L 825 1625 
L 2419 1625 
L 2419 4116 
z
M 2253 4666 
L 3047 4666 
L 3047 1625 
L 3713 1625 
L 3713 1100 
L 3047 1100 
L 3047 0 
L 2419 0 
L 2419 1100 
L 313 1100 
L 313 1709 
L 2253 4666 
z
" transform="scale(0.015625)"/>
       </defs>
       <use xlink:href="#DejaVuSans-34"/>
       <use xlink:href="#DejaVuSans-30" transform="translate(63.623047 0)"/>
       <use xlink:href="#DejaVuSans-30" transform="translate(127.246094 0)"/>
      </g>
     </g>
    </g>
    <g id="xtick_4">
     <g id="line2d_4">
      <path d="M 656.558693 609.894375 
L 656.558693 54.554375 
" clip-path="url(#pc2be279dfd)" style="fill: none; stroke: #cccccc; stroke-opacity: 0.3; stroke-width: 1.5; stroke-linecap: round"/>
     </g>
     <g id="text_4">
      <!-- 600 -->
      <g style="fill: #262626" transform="translate(626.018693 646.709375) scale(0.32 -0.32)">
       <defs>
        <path id="DejaVuSans-36" d="M 2113 2584 
Q 1688 2584 1439 2293 
Q 1191 2003 1191 1497 
Q 1191 994 1439 701 
Q 1688 409 2113 409 
Q 2538 409 2786 701 
Q 3034 994 3034 1497 
Q 3034 2003 2786 2293 
Q 2538 2584 2113 2584 
z
M 3366 4563 
L 3366 3988 
Q 3128 4100 2886 4159 
Q 2644 4219 2406 4219 
Q 1781 4219 1451 3797 
Q 1122 3375 1075 2522 
Q 1259 2794 1537 2939 
Q 1816 3084 2150 3084 
Q 2853 3084 3261 2657 
Q 3669 2231 3669 1497 
Q 3669 778 3244 343 
Q 2819 -91 2113 -91 
Q 1303 -91 875 529 
Q 447 1150 447 2328 
Q 447 3434 972 4092 
Q 1497 4750 2381 4750 
Q 2619 4750 2861 4703 
Q 3103 4656 3366 4563 
z
" transform="scale(0.015625)"/>
       </defs>
       <use xlink:href="#DejaVuSans-36"/>
       <use xlink:href="#DejaVuSans-30" transform="translate(63.623047 0)"/>
       <use xlink:href="#DejaVuSans-30" transform="translate(127.246094 0)"/>
      </g>
     </g>
    </g>
    <g id="xtick_5">
     <g id="line2d_5">
      <path d="M 829.505359 609.894375 
L 829.505359 54.554375 
" clip-path="url(#pc2be279dfd)" style="fill: none; stroke: #cccccc; stroke-opacity: 0.3; stroke-width: 1.5; stroke-linecap: round"/>
     </g>
     <g id="text_5">
      <!-- 800 -->
      <g style="fill: #262626" transform="translate(798.965359 646.709375) scale(0.32 -0.32)">
       <defs>
        <path id="DejaVuSans-38" d="M 2034 2216 
Q 1584 2216 1326 1975 
Q 1069 1734 1069 1313 
Q 1069 891 1326 650 
Q 1584 409 2034 409 
Q 2484 409 2743 651 
Q 3003 894 3003 1313 
Q 3003 1734 2745 1975 
Q 2488 2216 2034 2216 
z
M 1403 2484 
Q 997 2584 770 2862 
Q 544 3141 544 3541 
Q 544 4100 942 4425 
Q 1341 4750 2034 4750 
Q 2731 4750 3128 4425 
Q 3525 4100 3525 3541 
Q 3525 3141 3298 2862 
Q 3072 2584 2669 2484 
Q 3125 2378 3379 2068 
Q 3634 1759 3634 1313 
Q 3634 634 3220 271 
Q 2806 -91 2034 -91 
Q 1263 -91 848 271 
Q 434 634 434 1313 
Q 434 1759 690 2068 
Q 947 2378 1403 2484 
z
M 1172 3481 
Q 1172 3119 1398 2916 
Q 1625 2713 2034 2713 
Q 2441 2713 2670 2916 
Q 2900 3119 2900 3481 
Q 2900 3844 2670 4047 
Q 2441 4250 2034 4250 
Q 1625 4250 1398 4047 
Q 1172 3844 1172 3481 
z
" transform="scale(0.015625)"/>
       </defs>
       <use xlink:href="#DejaVuSans-38"/>
       <use xlink:href="#DejaVuSans-30" transform="translate(63.623047 0)"/>
       <use xlink:href="#DejaVuSans-30" transform="translate(127.246094 0)"/>
      </g>
     </g>
    </g>
    <g id="xtick_6">
     <g id="line2d_6">
      <path d="M 1002.452025 609.894375 
L 1002.452025 54.554375 
" clip-path="url(#pc2be279dfd)" style="fill: none; stroke: #cccccc; stroke-opacity: 0.3; stroke-width: 1.5; stroke-linecap: round"/>
     </g>
     <g id="text_6">
      <!-- 1000 -->
      <g style="fill: #262626" transform="translate(961.732025 646.709375) scale(0.32 -0.32)">
       <defs>
        <path id="DejaVuSans-31" d="M 794 531 
L 1825 531 
L 1825 4091 
L 703 3866 
L 703 4441 
L 1819 4666 
L 2450 4666 
L 2450 531 
L 3481 531 
L 3481 0 
L 794 0 
L 794 531 
z
" transform="scale(0.015625)"/>
       </defs>
       <use xlink:href="#DejaVuSans-31"/>
       <use xlink:href="#DejaVuSans-30" transform="translate(63.623047 0)"/>
       <use xlink:href="#DejaVuSans-30" transform="translate(127.246094 0)"/>
       <use xlink:href="#DejaVuSans-30" transform="translate(190.869141 0)"/>
      </g>
     </g>
    </g>
    <g id="text_7">
     <!-- Epoch -->
     <g style="fill: #262626" transform="translate(521.522727 681.679375) scale(0.32 -0.32)">
      <defs>
       <path id="DejaVuSans-45" d="M 628 4666 
L 3578 4666 
L 3578 4134 
L 1259 4134 
L 1259 2753 
L 3481 2753 
L 3481 2222 
L 1259 2222 
L 1259 531 
L 3634 531 
L 3634 0 
L 628 0 
L 628 4666 
z
" transform="scale(0.015625)"/>
       <path id="DejaVuSans-70" d="M 1159 525 
L 1159 -1331 
L 581 -1331 
L 581 3500 
L 1159 3500 
L 1159 2969 
Q 1341 3281 1617 3432 
Q 1894 3584 2278 3584 
Q 2916 3584 3314 3078 
Q 3713 2572 3713 1747 
Q 3713 922 3314 415 
Q 2916 -91 2278 -91 
Q 1894 -91 1617 61 
Q 1341 213 1159 525 
z
M 3116 1747 
Q 3116 2381 2855 2742 
Q 2594 3103 2138 3103 
Q 1681 3103 1420 2742 
Q 1159 2381 1159 1747 
Q 1159 1113 1420 752 
Q 1681 391 2138 391 
Q 2594 391 2855 752 
Q 3116 1113 3116 1747 
z
" transform="scale(0.015625)"/>
       <path id="DejaVuSans-6f" d="M 1959 3097 
Q 1497 3097 1228 2736 
Q 959 2375 959 1747 
Q 959 1119 1226 758 
Q 1494 397 1959 397 
Q 2419 397 2687 759 
Q 2956 1122 2956 1747 
Q 2956 2369 2687 2733 
Q 2419 3097 1959 3097 
z
M 1959 3584 
Q 2709 3584 3137 3096 
Q 3566 2609 3566 1747 
Q 3566 888 3137 398 
Q 2709 -91 1959 -91 
Q 1206 -91 779 398 
Q 353 888 353 1747 
Q 353 2609 779 3096 
Q 1206 3584 1959 3584 
z
" transform="scale(0.015625)"/>
       <path id="DejaVuSans-63" d="M 3122 3366 
L 3122 2828 
Q 2878 2963 2633 3030 
Q 2388 3097 2138 3097 
Q 1578 3097 1268 2742 
Q 959 2388 959 1747 
Q 959 1106 1268 751 
Q 1578 397 2138 397 
Q 2388 397 2633 464 
Q 2878 531 3122 666 
L 3122 134 
Q 2881 22 2623 -34 
Q 2366 -91 2075 -91 
Q 1284 -91 818 406 
Q 353 903 353 1747 
Q 353 2603 823 3093 
Q 1294 3584 2113 3584 
Q 2378 3584 2631 3529 
Q 2884 3475 3122 3366 
z
" transform="scale(0.015625)"/>
       <path id="DejaVuSans-68" d="M 3513 2113 
L 3513 0 
L 2938 0 
L 2938 2094 
Q 2938 2591 2744 2837 
Q 2550 3084 2163 3084 
Q 1697 3084 1428 2787 
Q 1159 2491 1159 1978 
L 1159 0 
L 581 0 
L 581 4863 
L 1159 4863 
L 1159 2956 
Q 1366 3272 1645 3428 
Q 1925 3584 2291 3584 
Q 2894 3584 3203 3211 
Q 3513 2838 3513 2113 
z
" transform="scale(0.015625)"/>
      </defs>
      <use xlink:href="#DejaVuSans-45"/>
      <use xlink:href="#DejaVuSans-70" transform="translate(63.183594 0)"/>
      <use xlink:href="#DejaVuSans-6f" transform="translate(126.660156 0)"/>
      <use xlink:href="#DejaVuSans-63" transform="translate(187.841797 0)"/>
      <use xlink:href="#DejaVuSans-68" transform="translate(242.822266 0)"/>
     </g>
    </g>
   </g>
   <g id="matplotlib.axis_2">
    <g id="ytick_1">
     <g id="line2d_7">
      <path d="M 95.39 584.651648 
L 1045.645455 584.651648 
" clip-path="url(#pc2be279dfd)" style="fill: none; stroke: #cccccc; stroke-opacity: 0.3; stroke-width: 1.5; stroke-linecap: round"/>
     </g>
     <g id="text_8">
      <!-- 0 -->
      <g style="fill: #262626" transform="translate(62.53 596.809148) scale(0.32 -0.32)">
       <use xlink:href="#DejaVuSans-30"/>
      </g>
     </g>
    </g>
    <g id="ytick_2">
     <g id="line2d_8">
      <path d="M 95.39 455.603503 
L 1045.645455 455.603503 
" clip-path="url(#pc2be279dfd)" style="fill: none; stroke: #cccccc; stroke-opacity: 0.3; stroke-width: 1.5; stroke-linecap: round"/>
     </g>
     <g id="text_9">
      <!-- 20 -->
      <g style="fill: #262626" transform="translate(42.17 467.761003) scale(0.32 -0.32)">
       <use xlink:href="#DejaVuSans-32"/>
       <use xlink:href="#DejaVuSans-30" transform="translate(63.623047 0)"/>
      </g>
     </g>
    </g>
    <g id="ytick_3">
     <g id="line2d_9">
      <path d="M 95.39 326.555357 
L 1045.645455 326.555357 
" clip-path="url(#pc2be279dfd)" style="fill: none; stroke: #cccccc; stroke-opacity: 0.3; stroke-width: 1.5; stroke-linecap: round"/>
     </g>
     <g id="text_10">
      <!-- 40 -->
      <g style="fill: #262626" transform="translate(42.17 338.712857) scale(0.32 -0.32)">
       <use xlink:href="#DejaVuSans-34"/>
       <use xlink:href="#DejaVuSans-30" transform="translate(63.623047 0)"/>
      </g>
     </g>
    </g>
    <g id="ytick_4">
     <g id="line2d_10">
      <path d="M 95.39 197.507212 
L 1045.645455 197.507212 
" clip-path="url(#pc2be279dfd)" style="fill: none; stroke: #cccccc; stroke-opacity: 0.3; stroke-width: 1.5; stroke-linecap: round"/>
     </g>
     <g id="text_11">
      <!-- 60 -->
      <g style="fill: #262626" transform="translate(42.17 209.664712) scale(0.32 -0.32)">
       <use xlink:href="#DejaVuSans-36"/>
       <use xlink:href="#DejaVuSans-30" transform="translate(63.623047 0)"/>
      </g>
     </g>
    </g>
    <g id="ytick_5">
     <g id="line2d_11">
      <path d="M 95.39 68.459066 
L 1045.645455 68.459066 
" clip-path="url(#pc2be279dfd)" style="fill: none; stroke: #cccccc; stroke-opacity: 0.3; stroke-width: 1.5; stroke-linecap: round"/>
     </g>
     <g id="text_12">
      <!-- 80 -->
      <g style="fill: #262626" transform="translate(42.17 80.616566) scale(0.32 -0.32)">
       <use xlink:href="#DejaVuSans-38"/>
       <use xlink:href="#DejaVuSans-30" transform="translate(63.623047 0)"/>
      </g>
     </g>
    </g>
    <g id="text_13">
     <!-- Loss -->
     <g style="fill: #262626" transform="translate(31.515 367.319375) rotate(-90) scale(0.32 -0.32)">
      <defs>
       <path id="DejaVuSans-4c" d="M 628 4666 
L 1259 4666 
L 1259 531 
L 3531 531 
L 3531 0 
L 628 0 
L 628 4666 
z
" transform="scale(0.015625)"/>
       <path id="DejaVuSans-73" d="M 2834 3397 
L 2834 2853 
Q 2591 2978 2328 3040 
Q 2066 3103 1784 3103 
Q 1356 3103 1142 2972 
Q 928 2841 928 2578 
Q 928 2378 1081 2264 
Q 1234 2150 1697 2047 
L 1894 2003 
Q 2506 1872 2764 1633 
Q 3022 1394 3022 966 
Q 3022 478 2636 193 
Q 2250 -91 1575 -91 
Q 1294 -91 989 -36 
Q 684 19 347 128 
L 347 722 
Q 666 556 975 473 
Q 1284 391 1588 391 
Q 1994 391 2212 530 
Q 2431 669 2431 922 
Q 2431 1156 2273 1281 
Q 2116 1406 1581 1522 
L 1381 1569 
Q 847 1681 609 1914 
Q 372 2147 372 2553 
Q 372 3047 722 3315 
Q 1072 3584 1716 3584 
Q 2034 3584 2315 3537 
Q 2597 3491 2834 3397 
z
" transform="scale(0.015625)"/>
      </defs>
      <use xlink:href="#DejaVuSans-4c"/>
      <use xlink:href="#DejaVuSans-6f" transform="translate(53.962891 0)"/>
      <use xlink:href="#DejaVuSans-73" transform="translate(115.144531 0)"/>
      <use xlink:href="#DejaVuSans-73" transform="translate(167.244141 0)"/>
     </g>
    </g>
   </g>
   <g id="FillBetweenPolyCollection_1"/>
   <g id="FillBetweenPolyCollection_2"/>
   <g id="line2d_12">
    <path d="M 138.58343 553.952224 
L 140.312896 554.302081 
L 145.501296 555.23668 
L 151.55443 556.800037 
L 167.984363 561.376298 
L 172.30803 562.646857 
L 179.225896 564.605253 
L 180.955363 565.054863 
L 187.008496 566.713001 
L 192.196896 568.072008 
L 202.573696 570.592533 
L 205.167896 571.125058 
L 208.626829 571.905719 
L 211.221029 572.450227 
L 225.921496 575.33899 
L 235.433563 577.001762 
L 250.998762 579.480559 
L 255.322429 580.049474 
L 265.699229 581.350869 
L 275.211296 582.346109 
L 285.588096 583.183578 
L 297.694362 583.84757 
L 317.583229 584.375579 
L 341.795762 584.589448 
L 380.708762 584.6476 
L 670.394427 584.63381 
L 672.988627 584.605548 
L 677.312293 584.648422 
L 716.225293 584.651644 
L 1002.452025 584.651641 
L 1002.452025 584.651641 
" clip-path="url(#pc2be279dfd)" style="fill: none; stroke: #4c72b0; stroke-width: 6; stroke-linecap: round"/>
   </g>
   <g id="line2d_13">
    <path d="M 138.58343 553.952203 
L 141.17763 553.740756 
L 145.501296 553.105786 
L 148.095496 552.43432 
L 153.283896 550.63066 
L 178.361163 540.730142 
L 196.520563 532.526991 
L 200.844229 530.373366 
L 204.303163 528.687893 
L 206.032629 527.806682 
L 222.462563 518.851531 
L 223.327296 518.235782 
L 224.192029 517.851299 
L 229.380429 514.665339 
L 230.245163 514.065066 
L 231.109896 513.614907 
L 232.839363 512.494005 
L 234.568829 511.404055 
L 236.298296 510.211126 
L 238.027763 509.168311 
L 251.863496 499.065399 
L 253.592962 497.721875 
L 254.457696 496.98348 
L 255.322429 496.394203 
L 256.187162 495.606273 
L 257.916629 494.328038 
L 260.510829 492.040809 
L 263.105029 489.882126 
L 264.834496 488.318621 
L 265.699229 487.612889 
L 266.563962 486.737739 
L 268.293429 485.311568 
L 270.022896 483.730526 
L 275.211296 478.815237 
L 279.534962 474.549191 
L 280.399696 473.571782 
L 281.264429 472.903303 
L 282.129162 471.760686 
L 283.858629 470.153343 
L 285.588096 468.231595 
L 294.235429 458.883771 
L 295.100162 457.766087 
L 296.829629 455.922783 
L 298.559096 453.823813 
L 306.341695 444.735187 
L 307.206429 443.434375 
L 308.935895 441.586924 
L 311.530095 438.186749 
L 314.989029 433.912088 
L 316.718495 431.525615 
L 317.583229 430.691336 
L 319.312695 428.246097 
L 321.042162 426.068363 
L 321.906895 424.784535 
L 322.771629 423.78949 
L 334.013162 408.441024 
L 336.607362 404.683491 
L 337.472095 403.604943 
L 339.201562 401.039772 
L 345.254695 392.234244 
L 352.172562 381.935952 
L 353.037295 380.543662 
L 353.902029 379.499155 
L 355.631495 376.61276 
L 359.955162 369.962604 
L 361.684628 367.262918 
L 372.061428 350.59246 
L 383.302962 331.902498 
L 384.167695 330.10009 
L 387.626628 324.286317 
L 389.356095 321.370693 
L 392.815028 315.486672 
L 393.679762 313.683895 
L 396.273962 309.403302 
L 398.003428 306.471063 
L 400.597628 302.10789 
L 404.056562 295.745743 
L 404.921295 294.378633 
L 406.650762 291.13355 
L 409.244962 286.375274 
L 410.109695 284.754197 
L 410.974428 283.394053 
L 414.433362 276.835461 
L 415.298095 275.40753 
L 423.080695 260.514005 
L 423.945428 259.074136 
L 424.810161 257.175488 
L 426.539628 254.106641 
L 427.404361 252.411255 
L 428.269095 251.089632 
L 430.863295 245.988335 
L 431.728028 244.579578 
L 433.457495 241.157767 
L 434.322228 239.696214 
L 435.186961 237.807485 
L 436.916428 234.824615 
L 437.781161 233.013395 
L 439.510628 230.008496 
L 442.104828 224.869712 
L 446.428495 216.656445 
L 448.157961 213.788178 
L 449.887428 209.816688 
L 450.752161 208.826738 
L 451.616895 208.160905 
L 452.481628 207.236897 
L 453.346361 207.78788 
L 454.211095 208.187833 
L 455.075828 207.631434 
L 455.940561 206.677888 
L 456.805295 207.952548 
L 457.670028 208.421863 
L 458.534761 208.281883 
L 461.128961 209.327559 
L 463.723161 209.96127 
L 468.911561 210.94962 
L 476.694161 212.07534 
L 481.882561 212.498947 
L 486.206228 212.628712 
L 490.529894 212.439849 
L 493.124094 212.165231 
L 495.718294 211.694833 
L 499.177228 210.7851 
L 500.906694 210.230744 
L 505.230361 208.343221 
L 506.959828 207.295232 
L 507.824561 206.827197 
L 508.689294 206.135396 
L 509.554028 205.607968 
L 512.148228 203.534978 
L 513.012961 202.638267 
L 513.877694 201.928572 
L 515.607161 200.172881 
L 516.471894 199.276538 
L 522.525028 191.389161 
L 524.254494 188.859754 
L 525.983961 186.111677 
L 526.848694 184.693715 
L 527.713428 183.495752 
L 536.360761 169.662499 
L 538.090227 167.057306 
L 539.819694 164.888322 
L 541.549161 162.347617 
L 543.278627 160.221462 
L 544.143361 158.877342 
L 545.008094 157.957566 
L 547.602294 154.525245 
L 554.520161 145.601791 
L 559.708561 138.497753 
L 560.573294 137.013777 
L 561.438027 135.867454 
L 563.167494 133.01622 
L 564.896961 130.324977 
L 565.761694 128.810183 
L 568.355894 125.074962 
L 569.220627 123.335246 
L 570.085361 122.142256 
L 570.950094 120.639818 
L 571.814827 118.871796 
L 573.544294 115.852153 
L 574.409027 114.60383 
L 575.273761 113.099818 
L 577.003227 110.857041 
L 578.732694 111.367043 
L 579.597427 109.382467 
L 581.326894 112.954644 
L 582.191627 112.680445 
L 583.056361 113.599875 
L 583.921094 113.619074 
L 584.785827 114.30733 
L 585.650561 115.232816 
L 586.515294 115.670502 
L 587.380027 115.229665 
L 589.109494 116.365355 
L 589.974227 116.50275 
L 590.83896 116.934381 
L 596.02736 118.626986 
L 604.674694 120.995638 
L 614.18676 123.318509 
L 625.428294 125.464109 
L 630.616694 126.169694 
L 634.94036 126.578778 
L 639.264027 126.651291 
L 642.72296 126.326337 
L 647.91136 124.964347 
L 648.776093 124.657558 
L 651.370293 123.377139 
L 654.829227 120.999724 
L 656.558693 119.442496 
L 657.423427 118.680989 
L 661.747093 113.510379 
L 662.611827 112.165225 
L 663.47656 111.092252 
L 664.341293 109.480283 
L 667.800227 104.090855 
L 668.66496 102.170226 
L 669.529693 102.770512 
L 670.394427 102.711537 
L 671.25916 102.332383 
L 672.123893 102.564837 
L 672.988627 104.86526 
L 673.85336 105.995042 
L 675.582827 107.305736 
L 676.44756 107.501516 
L 677.312293 108.064733 
L 678.177027 108.175348 
L 679.906493 109.054461 
L 682.500693 110.031882 
L 688.553827 111.925829 
L 699.79536 115.149375 
L 711.036893 117.955811 
L 717.95476 119.384112 
L 725.73736 120.51665 
L 729.196293 120.661774 
L 731.790493 120.49499 
L 734.384693 120.014328 
L 736.11416 119.50472 
L 738.70836 118.519767 
L 741.30256 117.143993 
L 743.89676 115.356378 
L 748.220426 111.03948 
L 749.949893 108.971561 
L 750.814626 107.537157 
L 752.544093 105.265089 
L 757.732493 96.236977 
L 759.46196 92.684638 
L 762.920893 86.62059 
L 763.785626 87.008703 
L 765.515093 85.472397 
L 766.379826 86.744595 
L 767.244559 86.327585 
L 768.109293 86.810314 
L 768.974026 88.767717 
L 769.838759 89.274568 
L 770.703493 89.093753 
L 771.568226 90.251792 
L 775.891893 92.219286 
L 781.080293 93.902439 
L 794.051293 97.826548 
L 807.022293 101.399513 
L 812.210693 102.65266 
L 817.399093 103.640862 
L 819.128559 103.889759 
L 822.587492 104.218011 
L 825.181692 104.239326 
L 828.640626 103.724943 
L 830.370092 103.298137 
L 832.099559 102.685495 
L 834.693759 101.321585 
L 837.287959 99.529589 
L 839.882159 97.233744 
L 842.476359 94.248266 
L 843.341092 92.948943 
L 844.205826 91.96527 
L 845.935292 89.207076 
L 846.800026 88.084334 
L 850.258959 82.509858 
L 851.123692 82.192683 
L 852.853159 82.239843 
L 853.717892 82.804537 
L 854.582626 81.802206 
L 855.447359 83.320594 
L 856.312092 84.060834 
L 857.176826 84.267493 
L 858.041559 83.46936 
L 858.906292 85.323187 
L 859.771026 86.381096 
L 860.635759 86.96494 
L 864.094692 88.379554 
L 869.283092 90.107554 
L 877.930426 92.778762 
L 885.713025 94.999435 
L 900.413492 98.567527 
L 910.790292 100.333383 
L 914.249225 100.47767 
L 916.843425 100.226312 
L 918.572892 99.935276 
L 922.031825 98.679127 
L 924.626025 97.309703 
L 927.220225 95.266201 
L 928.084959 94.565983 
L 930.679159 91.618065 
L 931.543892 90.603427 
L 935.867559 84.121779 
L 937.597025 80.537983 
L 938.461758 79.797102 
L 940.191225 80.429386 
L 941.055958 80.207516 
L 942.785425 80.549847 
L 943.650158 82.798826 
L 944.514892 83.460056 
L 945.379625 83.948939 
L 946.244358 85.230097 
L 947.973825 85.673395 
L 948.838558 86.372727 
L 949.703292 86.62502 
L 950.568025 86.610892 
L 951.432758 86.925705 
L 952.297492 87.44378 
L 953.162225 87.416754 
L 954.026958 87.631929 
L 954.891692 87.500589 
L 955.756425 88.138534 
L 956.621158 88.181559 
L 957.485892 88.420856 
L 958.350625 88.134793 
L 959.215358 88.207552 
L 960.080092 90.841445 
L 961.809558 91.345637 
L 962.674292 89.475369 
L 963.539025 90.320367 
L 964.403758 91.771853 
L 969.592158 93.916124 
L 978.239492 96.573154 
L 986.022092 98.763749 
L 995.534158 101.224212 
L 1002.452025 102.772973 
L 1002.452025 102.772973 
" clip-path="url(#pc2be279dfd)" style="fill: none; stroke: #dd8452; stroke-width: 6; stroke-linecap: round"/>
   </g>
   <g id="line2d_14"/>
   <g id="line2d_15"/>
   <g id="patch_3">
    <path d="M 95.39 609.894375 
L 95.39 54.554375 
" style="fill: none; stroke: #cccccc; stroke-width: 1.875; stroke-linejoin: miter; stroke-linecap: square"/>
   </g>
   <g id="patch_4">
    <path d="M 1045.645455 609.894375 
L 1045.645455 54.554375 
" style="fill: none; stroke: #cccccc; stroke-width: 1.875; stroke-linejoin: miter; stroke-linecap: square"/>
   </g>
   <g id="patch_5">
    <path d="M 95.39 609.894375 
L 1045.645455 609.894375 
" style="fill: none; stroke: #cccccc; stroke-width: 1.875; stroke-linejoin: miter; stroke-linecap: square"/>
   </g>
   <g id="patch_6">
    <path d="M 95.39 54.554375 
L 1045.645455 54.554375 
" style="fill: none; stroke: #cccccc; stroke-width: 1.875; stroke-linejoin: miter; stroke-linecap: square"/>
   </g>
   <g id="text_14">
    <!-- Training Progress: Loss -->
    <g style="fill: #262626" transform="translate(333.519602 34.554375) scale(0.36 -0.36)">
     <defs>
      <path id="DejaVuSans-Bold-54" d="M 31 4666 
L 4331 4666 
L 4331 3756 
L 2784 3756 
L 2784 0 
L 1581 0 
L 1581 3756 
L 31 3756 
L 31 4666 
z
" transform="scale(0.015625)"/>
      <path id="DejaVuSans-Bold-72" d="M 3138 2547 
Q 2991 2616 2845 2648 
Q 2700 2681 2553 2681 
Q 2122 2681 1889 2404 
Q 1656 2128 1656 1613 
L 1656 0 
L 538 0 
L 538 3500 
L 1656 3500 
L 1656 2925 
Q 1872 3269 2151 3426 
Q 2431 3584 2822 3584 
Q 2878 3584 2943 3579 
Q 3009 3575 3134 3559 
L 3138 2547 
z
" transform="scale(0.015625)"/>
      <path id="DejaVuSans-Bold-61" d="M 2106 1575 
Q 1756 1575 1579 1456 
Q 1403 1338 1403 1106 
Q 1403 894 1545 773 
Q 1688 653 1941 653 
Q 2256 653 2472 879 
Q 2688 1106 2688 1447 
L 2688 1575 
L 2106 1575 
z
M 3816 1997 
L 3816 0 
L 2688 0 
L 2688 519 
Q 2463 200 2181 54 
Q 1900 -91 1497 -91 
Q 953 -91 614 226 
Q 275 544 275 1050 
Q 275 1666 698 1953 
Q 1122 2241 2028 2241 
L 2688 2241 
L 2688 2328 
Q 2688 2594 2478 2717 
Q 2269 2841 1825 2841 
Q 1466 2841 1156 2769 
Q 847 2697 581 2553 
L 581 3406 
Q 941 3494 1303 3539 
Q 1666 3584 2028 3584 
Q 2975 3584 3395 3211 
Q 3816 2838 3816 1997 
z
" transform="scale(0.015625)"/>
      <path id="DejaVuSans-Bold-69" d="M 538 3500 
L 1656 3500 
L 1656 0 
L 538 0 
L 538 3500 
z
M 538 4863 
L 1656 4863 
L 1656 3950 
L 538 3950 
L 538 4863 
z
" transform="scale(0.015625)"/>
      <path id="DejaVuSans-Bold-6e" d="M 4056 2131 
L 4056 0 
L 2931 0 
L 2931 347 
L 2931 1631 
Q 2931 2084 2911 2256 
Q 2891 2428 2841 2509 
Q 2775 2619 2662 2680 
Q 2550 2741 2406 2741 
Q 2056 2741 1856 2470 
Q 1656 2200 1656 1722 
L 1656 0 
L 538 0 
L 538 3500 
L 1656 3500 
L 1656 2988 
Q 1909 3294 2193 3439 
Q 2478 3584 2822 3584 
Q 3428 3584 3742 3212 
Q 4056 2841 4056 2131 
z
" transform="scale(0.015625)"/>
      <path id="DejaVuSans-Bold-67" d="M 2919 594 
Q 2688 288 2409 144 
Q 2131 0 1766 0 
Q 1125 0 706 504 
Q 288 1009 288 1791 
Q 288 2575 706 3076 
Q 1125 3578 1766 3578 
Q 2131 3578 2409 3434 
Q 2688 3291 2919 2981 
L 2919 3500 
L 4044 3500 
L 4044 353 
Q 4044 -491 3511 -936 
Q 2978 -1381 1966 -1381 
Q 1638 -1381 1331 -1331 
Q 1025 -1281 716 -1178 
L 716 -306 
Q 1009 -475 1290 -558 
Q 1572 -641 1856 -641 
Q 2406 -641 2662 -400 
Q 2919 -159 2919 353 
L 2919 594 
z
M 2181 2772 
Q 1834 2772 1640 2515 
Q 1447 2259 1447 1791 
Q 1447 1309 1634 1061 
Q 1822 813 2181 813 
Q 2531 813 2725 1069 
Q 2919 1325 2919 1791 
Q 2919 2259 2725 2515 
Q 2531 2772 2181 2772 
z
" transform="scale(0.015625)"/>
      <path id="DejaVuSans-Bold-20" transform="scale(0.015625)"/>
      <path id="DejaVuSans-Bold-50" d="M 588 4666 
L 2584 4666 
Q 3475 4666 3951 4270 
Q 4428 3875 4428 3144 
Q 4428 2409 3951 2014 
Q 3475 1619 2584 1619 
L 1791 1619 
L 1791 0 
L 588 0 
L 588 4666 
z
M 1791 3794 
L 1791 2491 
L 2456 2491 
Q 2806 2491 2997 2661 
Q 3188 2831 3188 3144 
Q 3188 3456 2997 3625 
Q 2806 3794 2456 3794 
L 1791 3794 
z
" transform="scale(0.015625)"/>
      <path id="DejaVuSans-Bold-6f" d="M 2203 2784 
Q 1831 2784 1636 2517 
Q 1441 2250 1441 1747 
Q 1441 1244 1636 976 
Q 1831 709 2203 709 
Q 2569 709 2762 976 
Q 2956 1244 2956 1747 
Q 2956 2250 2762 2517 
Q 2569 2784 2203 2784 
z
M 2203 3584 
Q 3106 3584 3614 3096 
Q 4122 2609 4122 1747 
Q 4122 884 3614 396 
Q 3106 -91 2203 -91 
Q 1297 -91 786 396 
Q 275 884 275 1747 
Q 275 2609 786 3096 
Q 1297 3584 2203 3584 
z
" transform="scale(0.015625)"/>
      <path id="DejaVuSans-Bold-65" d="M 4031 1759 
L 4031 1441 
L 1416 1441 
Q 1456 1047 1700 850 
Q 1944 653 2381 653 
Q 2734 653 3104 758 
Q 3475 863 3866 1075 
L 3866 213 
Q 3469 63 3072 -14 
Q 2675 -91 2278 -91 
Q 1328 -91 801 392 
Q 275 875 275 1747 
Q 275 2603 792 3093 
Q 1309 3584 2216 3584 
Q 3041 3584 3536 3087 
Q 4031 2591 4031 1759 
z
M 2881 2131 
Q 2881 2450 2695 2645 
Q 2509 2841 2209 2841 
Q 1884 2841 1681 2658 
Q 1478 2475 1428 2131 
L 2881 2131 
z
" transform="scale(0.015625)"/>
      <path id="DejaVuSans-Bold-73" d="M 3272 3391 
L 3272 2541 
Q 2913 2691 2578 2766 
Q 2244 2841 1947 2841 
Q 1628 2841 1473 2761 
Q 1319 2681 1319 2516 
Q 1319 2381 1436 2309 
Q 1553 2238 1856 2203 
L 2053 2175 
Q 2913 2066 3209 1816 
Q 3506 1566 3506 1031 
Q 3506 472 3093 190 
Q 2681 -91 1863 -91 
Q 1516 -91 1145 -36 
Q 775 19 384 128 
L 384 978 
Q 719 816 1070 734 
Q 1422 653 1784 653 
Q 2113 653 2278 743 
Q 2444 834 2444 1013 
Q 2444 1163 2330 1236 
Q 2216 1309 1875 1350 
L 1678 1375 
Q 931 1469 631 1722 
Q 331 1975 331 2491 
Q 331 3047 712 3315 
Q 1094 3584 1881 3584 
Q 2191 3584 2531 3537 
Q 2872 3491 3272 3391 
z
" transform="scale(0.015625)"/>
      <path id="DejaVuSans-Bold-3a" d="M 716 3500 
L 1844 3500 
L 1844 2291 
L 716 2291 
L 716 3500 
z
M 716 1209 
L 1844 1209 
L 1844 0 
L 716 0 
L 716 1209 
z
" transform="scale(0.015625)"/>
      <path id="DejaVuSans-Bold-4c" d="M 588 4666 
L 1791 4666 
L 1791 909 
L 3903 909 
L 3903 0 
L 588 0 
L 588 4666 
z
" transform="scale(0.015625)"/>
     </defs>
     <use xlink:href="#DejaVuSans-Bold-54"/>
     <use xlink:href="#DejaVuSans-Bold-72" transform="translate(57.212891 0)"/>
     <use xlink:href="#DejaVuSans-Bold-61" transform="translate(106.529297 0)"/>
     <use xlink:href="#DejaVuSans-Bold-69" transform="translate(174.009766 0)"/>
     <use xlink:href="#DejaVuSans-Bold-6e" transform="translate(208.287109 0)"/>
     <use xlink:href="#DejaVuSans-Bold-69" transform="translate(279.478516 0)"/>
     <use xlink:href="#DejaVuSans-Bold-6e" transform="translate(313.755859 0)"/>
     <use xlink:href="#DejaVuSans-Bold-67" transform="translate(384.947266 0)"/>
     <use xlink:href="#DejaVuSans-Bold-20" transform="translate(456.529297 0)"/>
     <use xlink:href="#DejaVuSans-Bold-50" transform="translate(491.34375 0)"/>
     <use xlink:href="#DejaVuSans-Bold-72" transform="translate(564.634766 0)"/>
     <use xlink:href="#DejaVuSans-Bold-6f" transform="translate(613.951172 0)"/>
     <use xlink:href="#DejaVuSans-Bold-67" transform="translate(682.652344 0)"/>
     <use xlink:href="#DejaVuSans-Bold-72" transform="translate(754.234375 0)"/>
     <use xlink:href="#DejaVuSans-Bold-65" transform="translate(803.550781 0)"/>
     <use xlink:href="#DejaVuSans-Bold-73" transform="translate(871.373047 0)"/>
     <use xlink:href="#DejaVuSans-Bold-73" transform="translate(930.894531 0)"/>
     <use xlink:href="#DejaVuSans-Bold-3a" transform="translate(990.416016 0)"/>
     <use xlink:href="#DejaVuSans-Bold-20" transform="translate(1030.40625 0)"/>
     <use xlink:href="#DejaVuSans-Bold-4c" transform="translate(1065.220703 0)"/>
     <use xlink:href="#DejaVuSans-Bold-6f" transform="translate(1128.941406 0)"/>
     <use xlink:href="#DejaVuSans-Bold-73" transform="translate(1197.642578 0)"/>
     <use xlink:href="#DejaVuSans-Bold-73" transform="translate(1257.164062 0)"/>
    </g>
   </g>
   <g id="legend_1">
    <g id="patch_7">
     <path d="M 117.79 174.094375 
L 294.67 174.094375 
Q 301.07 174.094375 301.07 167.694375 
L 301.07 76.954375 
Q 301.07 70.554375 294.67 70.554375 
L 117.79 70.554375 
Q 111.39 70.554375 111.39 76.954375 
L 111.39 167.694375 
Q 111.39 174.094375 117.79 174.094375 
z
" style="fill: #ffffff; opacity: 0.8; stroke: #cccccc; stroke-width: 1.5; stroke-linejoin: miter"/>
    </g>
    <g id="line2d_16">
     <path d="M 124.19 96.469375 
L 156.19 96.469375 
L 188.19 96.469375 
" style="fill: none; stroke: #4c72b0; stroke-width: 6; stroke-linecap: round"/>
    </g>
    <g id="text_15">
     <!-- train -->
     <g style="fill: #262626" transform="translate(213.79 107.669375) scale(0.32 -0.32)">
      <defs>
       <path id="DejaVuSans-74" d="M 1172 4494 
L 1172 3500 
L 2356 3500 
L 2356 3053 
L 1172 3053 
L 1172 1153 
Q 1172 725 1289 603 
Q 1406 481 1766 481 
L 2356 481 
L 2356 0 
L 1766 0 
Q 1100 0 847 248 
Q 594 497 594 1153 
L 594 3053 
L 172 3053 
L 172 3500 
L 594 3500 
L 594 4494 
L 1172 4494 
z
" transform="scale(0.015625)"/>
       <path id="DejaVuSans-72" d="M 2631 2963 
Q 2534 3019 2420 3045 
Q 2306 3072 2169 3072 
Q 1681 3072 1420 2755 
Q 1159 2438 1159 1844 
L 1159 0 
L 581 0 
L 581 3500 
L 1159 3500 
L 1159 2956 
Q 1341 3275 1631 3429 
Q 1922 3584 2338 3584 
Q 2397 3584 2469 3576 
Q 2541 3569 2628 3553 
L 2631 2963 
z
" transform="scale(0.015625)"/>
       <path id="DejaVuSans-61" d="M 2194 1759 
Q 1497 1759 1228 1600 
Q 959 1441 959 1056 
Q 959 750 1161 570 
Q 1363 391 1709 391 
Q 2188 391 2477 730 
Q 2766 1069 2766 1631 
L 2766 1759 
L 2194 1759 
z
M 3341 1997 
L 3341 0 
L 2766 0 
L 2766 531 
Q 2569 213 2275 61 
Q 1981 -91 1556 -91 
Q 1019 -91 701 211 
Q 384 513 384 1019 
Q 384 1609 779 1909 
Q 1175 2209 1959 2209 
L 2766 2209 
L 2766 2266 
Q 2766 2663 2505 2880 
Q 2244 3097 1772 3097 
Q 1472 3097 1187 3025 
Q 903 2953 641 2809 
L 641 3341 
Q 956 3463 1253 3523 
Q 1550 3584 1831 3584 
Q 2591 3584 2966 3190 
Q 3341 2797 3341 1997 
z
" transform="scale(0.015625)"/>
       <path id="DejaVuSans-69" d="M 603 3500 
L 1178 3500 
L 1178 0 
L 603 0 
L 603 3500 
z
M 603 4863 
L 1178 4863 
L 1178 4134 
L 603 4134 
L 603 4863 
z
" transform="scale(0.015625)"/>
       <path id="DejaVuSans-6e" d="M 3513 2113 
L 3513 0 
L 2938 0 
L 2938 2094 
Q 2938 2591 2744 2837 
Q 2550 3084 2163 3084 
Q 1697 3084 1428 2787 
Q 1159 2491 1159 1978 
L 1159 0 
L 581 0 
L 581 3500 
L 1159 3500 
L 1159 2956 
Q 1366 3272 1645 3428 
Q 1925 3584 2291 3584 
Q 2894 3584 3203 3211 
Q 3513 2838 3513 2113 
z
" transform="scale(0.015625)"/>
      </defs>
      <use xlink:href="#DejaVuSans-74"/>
      <use xlink:href="#DejaVuSans-72" transform="translate(39.208984 0)"/>
      <use xlink:href="#DejaVuSans-61" transform="translate(80.322266 0)"/>
      <use xlink:href="#DejaVuSans-69" transform="translate(141.601562 0)"/>
      <use xlink:href="#DejaVuSans-6e" transform="translate(169.384766 0)"/>
     </g>
    </g>
    <g id="line2d_17">
     <path d="M 124.19 143.439375 
L 156.19 143.439375 
L 188.19 143.439375 
" style="fill: none; stroke: #dd8452; stroke-width: 6; stroke-linecap: round"/>
    </g>
    <g id="text_16">
     <!-- val -->
     <g style="fill: #262626" transform="translate(213.79 154.639375) scale(0.32 -0.32)">
      <defs>
       <path id="DejaVuSans-76" d="M 191 3500 
L 800 3500 
L 1894 563 
L 2988 3500 
L 3597 3500 
L 2284 0 
L 1503 0 
L 191 3500 
z
" transform="scale(0.015625)"/>
       <path id="DejaVuSans-6c" d="M 603 4863 
L 1178 4863 
L 1178 0 
L 603 0 
L 603 4863 
z
" transform="scale(0.015625)"/>
      </defs>
      <use xlink:href="#DejaVuSans-76"/>
      <use xlink:href="#DejaVuSans-61" transform="translate(59.179688 0)"/>
      <use xlink:href="#DejaVuSans-6c" transform="translate(120.458984 0)"/>
     </g>
    </g>
   </g>
  </g>
 </g>
 <defs>
  <clipPath id="pc2be279dfd">
   <rect x="95.39" y="54.554375" width="950.255455" height="555.34"/>
  </clipPath>
 </defs>
</svg>
