<?xml version="1.0" encoding="utf-8" standalone="no"?>
<!DOCTYPE svg PUBLIC "-//W3C//DTD SVG 1.1//EN"
  "http://www.w3.org/Graphics/SVG/1.1/DTD/svg11.dtd">
<svg xmlns:xlink="http://www.w3.org/1999/xlink" width="1055.59pt" height="695.534375pt" viewBox="0 0 1055.59 695.534375" xmlns="http://www.w3.org/2000/svg" version="1.1">
 <metadata>
  <rdf:RDF xmlns:dc="http://purl.org/dc/elements/1.1/" xmlns:cc="http://creativecommons.org/ns#" xmlns:rdf="http://www.w3.org/1999/02/22-rdf-syntax-ns#">
   <cc:Work>
    <dc:type rdf:resource="http://purl.org/dc/dcmitype/StillImage"/>
    <dc:date>2026-04-13T11:36:28.646584</dc:date>
    <dc:format>image/svg+xml</dc:format>
    <dc:creator>
     <cc:Agent>
      <dc:title>Matplotlib v3.10.8, https://matplotlib.org/</dc:title>
     </cc:Agent>
    </dc:creator>
   </cc:Work>
  </rdf:RDF>
 </metadata>
 <defs>
  <style type="text/css">*{stroke-linejoin: round; stroke-linecap: butt}</style>
 </defs>
 <g id="figure_1">
  <g id="patch_1">
   <path d="M 0 695.534375 
L 1055.59 695.534375 
L 1055.59 0 
L 0 0 
z
" style="fill: #ffffff"/>
  </g>
  <g id="axes_1">
   <g id="patch_2">
    <path d="M 125.92 609.894375 
L 1048.39 609.894375 
L 1048.39 54.554375 
L 125.92 54.554375 
z
" style="fill: #ffffff"/>
   </g>
   <g id="matplotlib.axis_1">
    <g id="xtick_1">
     <g id="line2d_1">
      <path d="M 166.169875 609.894375 
L 166.169875 54.554375 
" clip-path="url(#p48de2ff5a9)" style="fill: none; stroke: #cccccc; stroke-opacity: 0.3; stroke-width: 1.5; stroke-linecap: round"/>
     </g>
     <g id="text_1">
      <!-- 0 -->
      <g style="fill: #262626" transform="translate(155.989875 646.709375) scale(0.32 -0.32)">
       <defs>
        <path id="DejaVuSans-30" d="M 2034 4250 
Q 1547 4250 1301 3770 
Q 1056 3291 1056 2328 
Q 1056 1369 1301 889 
Q 1547 409 2034 409 
Q 2525 409 2770 889 
Q 3016 1369 3016 2328 
Q 3016 3291 2770 3770 
Q 2525 4250 2034 4250 
z
M 2034 4750 
Q 2819 4750 3233 4129 
Q 3647 3509 3647 2328 
Q 3647 1150 3233 529 
Q 2819 -91 2034 -91 
Q 1250 -91 836 529 
Q 422 1150 422 2328 
Q 422 3509 836 4129 
Q 1250 4750 2034 4750 
z
" transform="scale(0.015625)"/>
       </defs>
       <use xlink:href="#DejaVuSans-30"/>
      </g>
     </g>
    </g>
    <g id="xtick_2">
     <g id="line2d_2">
      <path d="M 334.227809 609.894375 
L 334.227809 54.554375 
" clip-path="url(#p48de2ff5a9)" style="fill: none; stroke: #cccccc; stroke-opacity: 0.3; stroke-width: 1.5; stroke-linecap: round"/>
     </g>
     <g id="text_2">
      <!-- 100 -->
      <g style="fill: #262626" transform="translate(303.687809 646.709375) scale(0.32 -0.32)">
       <defs>
        <path id="DejaVuSans-31" d="M 794 531 
L 1825 531 
L 1825 4091 
L 703 3866 
L 703 4441 
L 1819 4666 
L 2450 4666 
L 2450 531 
L 3481 531 
L 3481 0 
L 794 0 
L 794 531 
z
" transform="scale(0.015625)"/>
       </defs>
       <use xlink:href="#DejaVuSans-31"/>
       <use xlink:href="#DejaVuSans-30" transform="translate(63.623047 0)"/>
       <use xlink:href="#DejaVuSans-30" transform="translate(127.246094 0)"/>
      </g>
     </g>
    </g>
    <g id="xtick_3">
     <g id="line2d_3">
      <path d="M 502.285743 609.894375 
L 502.285743 54.554375 
" clip-path="url(#p48de2ff5a9)" style="fill: none; stroke: #cccccc; stroke-opacity: 0.3; stroke-width: 1.5; stroke-linecap: round"/>
     </g>
     <g id="text_3">
      <!-- 200 -->
      <g style="fill: #262626" transform="translate(471.745743 646.709375) scale(0.32 -0.32)">
       <defs>
        <path id="DejaVuSans-32" d="M 1228 531 
L 3431 531 
L 3431 0 
L 469 0 
L 469 531 
Q 828 903 1448 1529 
Q 2069 2156 2228 2338 
Q 2531 2678 2651 2914 
Q 2772 3150 2772 3378 
Q 2772 3750 2511 3984 
Q 2250 4219 1831 4219 
Q 1534 4219 1204 4116 
Q 875 4013 500 3803 
L 500 4441 
Q 881 4594 1212 4672 
Q 1544 4750 1819 4750 
Q 2544 4750 2975 4387 
Q 3406 4025 3406 3419 
Q 3406 3131 3298 2873 
Q 3191 2616 2906 2266 
Q 2828 2175 2409 1742 
Q 1991 1309 1228 531 
z
" transform="scale(0.015625)"/>
       </defs>
       <use xlink:href="#DejaVuSans-32"/>
       <use xlink:href="#DejaVuSans-30" transform="translate(63.623047 0)"/>
       <use xlink:href="#DejaVuSans-30" transform="translate(127.246094 0)"/>
      </g>
     </g>
    </g>
    <g id="xtick_4">
     <g id="line2d_4">
      <path d="M 670.343677 609.894375 
L 670.343677 54.554375 
" clip-path="url(#p48de2ff5a9)" style="fill: none; stroke: #cccccc; stroke-opacity: 0.3; stroke-width: 1.5; stroke-linecap: round"/>
     </g>
     <g id="text_4">
      <!-- 300 -->
      <g style="fill: #262626" transform="translate(639.803677 646.709375) scale(0.32 -0.32)">
       <defs>
        <path id="DejaVuSans-33" d="M 2597 2516 
Q 3050 2419 3304 2112 
Q 3559 1806 3559 1356 
Q 3559 666 3084 287 
Q 2609 -91 1734 -91 
Q 1441 -91 1130 -33 
Q 819 25 488 141 
L 488 750 
Q 750 597 1062 519 
Q 1375 441 1716 441 
Q 2309 441 2620 675 
Q 2931 909 2931 1356 
Q 2931 1769 2642 2001 
Q 2353 2234 1838 2234 
L 1294 2234 
L 1294 2753 
L 1863 2753 
Q 2328 2753 2575 2939 
Q 2822 3125 2822 3475 
Q 2822 3834 2567 4026 
Q 2313 4219 1838 4219 
Q 1578 4219 1281 4162 
Q 984 4106 628 3988 
L 628 4550 
Q 988 4650 1302 4700 
Q 1616 4750 1894 4750 
Q 2613 4750 3031 4423 
Q 3450 4097 3450 3541 
Q 3450 3153 3228 2886 
Q 3006 2619 2597 2516 
z
" transform="scale(0.015625)"/>
       </defs>
       <use xlink:href="#DejaVuSans-33"/>
       <use xlink:href="#DejaVuSans-30" transform="translate(63.623047 0)"/>
       <use xlink:href="#DejaVuSans-30" transform="translate(127.246094 0)"/>
      </g>
     </g>
    </g>
    <g id="xtick_5">
     <g id="line2d_5">
      <path d="M 838.401611 609.894375 
L 838.401611 54.554375 
" clip-path="url(#p48de2ff5a9)" style="fill: none; stroke: #cccccc; stroke-opacity: 0.3; stroke-width: 1.5; stroke-linecap: round"/>
     </g>
     <g id="text_5">
      <!-- 400 -->
      <g style="fill: #262626" transform="translate(807.861611 646.709375) scale(0.32 -0.32)">
       <defs>
        <path id="DejaVuSans-34" d="M 2419 4116 
L 825 1625 
L 2419 1625 
L 2419 4116 
z
M 2253 4666 
L 3047 4666 
L 3047 1625 
L 3713 1625 
L 3713 1100 
L 3047 1100 
L 3047 0 
L 2419 0 
L 2419 1100 
L 313 1100 
L 313 1709 
L 2253 4666 
z
" transform="scale(0.015625)"/>
       </defs>
       <use xlink:href="#DejaVuSans-34"/>
       <use xlink:href="#DejaVuSans-30" transform="translate(63.623047 0)"/>
       <use xlink:href="#DejaVuSans-30" transform="translate(127.246094 0)"/>
      </g>
     </g>
    </g>
    <g id="xtick_6">
     <g id="line2d_6">
      <path d="M 1006.459545 609.894375 
L 1006.459545 54.554375 
" clip-path="url(#p48de2ff5a9)" style="fill: none; stroke: #cccccc; stroke-opacity: 0.3; stroke-width: 1.5; stroke-linecap: round"/>
     </g>
     <g id="text_6">
      <!-- 500 -->
      <g style="fill: #262626" transform="translate(975.919545 646.709375) scale(0.32 -0.32)">
       <defs>
        <path id="DejaVuSans-35" d="M 691 4666 
L 3169 4666 
L 3169 4134 
L 1269 4134 
L 1269 2991 
Q 1406 3038 1543 3061 
Q 1681 3084 1819 3084 
Q 2600 3084 3056 2656 
Q 3513 2228 3513 1497 
Q 3513 744 3044 326 
Q 2575 -91 1722 -91 
Q 1428 -91 1123 -41 
Q 819 9 494 109 
L 494 744 
Q 775 591 1075 516 
Q 1375 441 1709 441 
Q 2250 441 2565 725 
Q 2881 1009 2881 1497 
Q 2881 1984 2565 2268 
Q 2250 2553 1709 2553 
Q 1456 2553 1204 2497 
Q 953 2441 691 2322 
L 691 4666 
z
" transform="scale(0.015625)"/>
       </defs>
       <use xlink:href="#DejaVuSans-35"/>
       <use xlink:href="#DejaVuSans-30" transform="translate(63.623047 0)"/>
       <use xlink:href="#DejaVuSans-30" transform="translate(127.246094 0)"/>
      </g>
     </g>
    </g>
    <g id="text_7">
     <!-- Epoch -->
     <g style="fill: #262626" transform="translate(538.16 681.679375) scale(0.32 -0.32)">
      <defs>
       <path id="DejaVuSans-45" d="M 628 4666 
L 3578 4666 
L 3578 4134 
L 1259 4134 
L 1259 2753 
L 3481 2753 
L 3481 2222 
L 1259 2222 
L 1259 531 
L 3634 531 
L 3634 0 
L 628 0 
L 628 4666 
z
" transform="scale(0.015625)"/>
       <path id="DejaVuSans-70" d="M 1159 525 
L 1159 -1331 
L 581 -1331 
L 581 3500 
L 1159 3500 
L 1159 2969 
Q 1341 3281 1617 3432 
Q 1894 3584 2278 3584 
Q 2916 3584 3314 3078 
Q 3713 2572 3713 1747 
Q 3713 922 3314 415 
Q 2916 -91 2278 -91 
Q 1894 -91 1617 61 
Q 1341 213 1159 525 
z
M 3116 1747 
Q 3116 2381 2855 2742 
Q 2594 3103 2138 3103 
Q 1681 3103 1420 2742 
Q 1159 2381 1159 1747 
Q 1159 1113 1420 752 
Q 1681 391 2138 391 
Q 2594 391 2855 752 
Q 3116 1113 3116 1747 
z
" transform="scale(0.015625)"/>
       <path id="DejaVuSans-6f" d="M 1959 3097 
Q 1497 3097 1228 2736 
Q 959 2375 959 1747 
Q 959 1119 1226 758 
Q 1494 397 1959 397 
Q 2419 397 2687 759 
Q 2956 1122 2956 1747 
Q 2956 2369 2687 2733 
Q 2419 3097 1959 3097 
z
M 1959 3584 
Q 2709 3584 3137 3096 
Q 3566 2609 3566 1747 
Q 3566 888 3137 398 
Q 2709 -91 1959 -91 
Q 1206 -91 779 398 
Q 353 888 353 1747 
Q 353 2609 779 3096 
Q 1206 3584 1959 3584 
z
" transform="scale(0.015625)"/>
       <path id="DejaVuSans-63" d="M 3122 3366 
L 3122 2828 
Q 2878 2963 2633 3030 
Q 2388 3097 2138 3097 
Q 1578 3097 1268 2742 
Q 959 2388 959 1747 
Q 959 1106 1268 751 
Q 1578 397 2138 397 
Q 2388 397 2633 464 
Q 2878 531 3122 666 
L 3122 134 
Q 2881 22 2623 -34 
Q 2366 -91 2075 -91 
Q 1284 -91 818 406 
Q 353 903 353 1747 
Q 353 2603 823 3093 
Q 1294 3584 2113 3584 
Q 2378 3584 2631 3529 
Q 2884 3475 3122 3366 
z
" transform="scale(0.015625)"/>
       <path id="DejaVuSans-68" d="M 3513 2113 
L 3513 0 
L 2938 0 
L 2938 2094 
Q 2938 2591 2744 2837 
Q 2550 3084 2163 3084 
Q 1697 3084 1428 2787 
Q 1159 2491 1159 1978 
L 1159 0 
L 581 0 
L 581 4863 
L 1159 4863 
L 1159 2956 
Q 1366 3272 1645 3428 
Q 1925 3584 2291 3584 
Q 2894 3584 3203 3211 
Q 3513 2838 3513 2113 
z
" transform="scale(0.015625)"/>
      </defs>
      <use xlink:href="#DejaVuSans-45"/>
      <use xlink:href="#DejaVuSans-70" transform="translate(63.183594 0)"/>
      <use xlink:href="#DejaVuSans-6f" transform="translate(126.660156 0)"/>
      <use xlink:href="#DejaVuSans-63" transform="translate(187.841797 0)"/>
      <use xlink:href="#DejaVuSans-68" transform="translate(242.822266 0)"/>
     </g>
    </g>
   </g>
   <g id="matplotlib.axis_2">
    <g id="ytick_1">
     <g id="line2d_7">
      <path d="M 125.92 516.402067 
L 1048.39 516.402067 
" clip-path="url(#p48de2ff5a9)" style="fill: none; stroke: #cccccc; stroke-opacity: 0.3; stroke-width: 1.5; stroke-linecap: round"/>
     </g>
     <g id="text_8">
      <!-- 4.75 -->
      <g style="fill: #262626" transform="translate(42.17 528.559567) scale(0.32 -0.32)">
       <defs>
        <path id="DejaVuSans-2e" d="M 684 794 
L 1344 794 
L 1344 0 
L 684 0 
L 684 794 
z
" transform="scale(0.015625)"/>
        <path id="DejaVuSans-37" d="M 525 4666 
L 3525 4666 
L 3525 4397 
L 1831 0 
L 1172 0 
L 2766 4134 
L 525 4134 
L 525 4666 
z
" transform="scale(0.015625)"/>
       </defs>
       <use xlink:href="#DejaVuSans-34"/>
       <use xlink:href="#DejaVuSans-2e" transform="translate(63.623047 0)"/>
       <use xlink:href="#DejaVuSans-37" transform="translate(95.410156 0)"/>
       <use xlink:href="#DejaVuSans-35" transform="translate(159.033203 0)"/>
      </g>
     </g>
    </g>
    <g id="ytick_2">
     <g id="line2d_8">
      <path d="M 125.92 379.937264 
L 1048.39 379.937264 
" clip-path="url(#p48de2ff5a9)" style="fill: none; stroke: #cccccc; stroke-opacity: 0.3; stroke-width: 1.5; stroke-linecap: round"/>
     </g>
     <g id="text_9">
      <!-- 4.80 -->
      <g style="fill: #262626" transform="translate(42.17 392.094764) scale(0.32 -0.32)">
       <defs>
        <path id="DejaVuSans-38" d="M 2034 2216 
Q 1584 2216 1326 1975 
Q 1069 1734 1069 1313 
Q 1069 891 1326 650 
Q 1584 409 2034 409 
Q 2484 409 2743 651 
Q 3003 894 3003 1313 
Q 3003 1734 2745 1975 
Q 2488 2216 2034 2216 
z
M 1403 2484 
Q 997 2584 770 2862 
Q 544 3141 544 3541 
Q 544 4100 942 4425 
Q 1341 4750 2034 4750 
Q 2731 4750 3128 4425 
Q 3525 4100 3525 3541 
Q 3525 3141 3298 2862 
Q 3072 2584 2669 2484 
Q 3125 2378 3379 2068 
Q 3634 1759 3634 1313 
Q 3634 634 3220 271 
Q 2806 -91 2034 -91 
Q 1263 -91 848 271 
Q 434 634 434 1313 
Q 434 1759 690 2068 
Q 947 2378 1403 2484 
z
M 1172 3481 
Q 1172 3119 1398 2916 
Q 1625 2713 2034 2713 
Q 2441 2713 2670 2916 
Q 2900 3119 2900 3481 
Q 2900 3844 2670 4047 
Q 2441 4250 2034 4250 
Q 1625 4250 1398 4047 
Q 1172 3844 1172 3481 
z
" transform="scale(0.015625)"/>
       </defs>
       <use xlink:href="#DejaVuSans-34"/>
       <use xlink:href="#DejaVuSans-2e" transform="translate(63.623047 0)"/>
       <use xlink:href="#DejaVuSans-38" transform="translate(95.410156 0)"/>
       <use xlink:href="#DejaVuSans-30" transform="translate(159.033203 0)"/>
      </g>
     </g>
    </g>
    <g id="ytick_3">
     <g id="line2d_9">
      <path d="M 125.92 243.47246 
L 1048.39 243.47246 
" clip-path="url(#p48de2ff5a9)" style="fill: none; stroke: #cccccc; stroke-opacity: 0.3; stroke-width: 1.5; stroke-linecap: round"/>
     </g>
     <g id="text_10">
      <!-- 4.85 -->
      <g style="fill: #262626" transform="translate(42.17 255.62996) scale(0.32 -0.32)">
       <use xlink:href="#DejaVuSans-34"/>
       <use xlink:href="#DejaVuSans-2e" transform="translate(63.623047 0)"/>
       <use xlink:href="#DejaVuSans-38" transform="translate(95.410156 0)"/>
       <use xlink:href="#DejaVuSans-35" transform="translate(159.033203 0)"/>
      </g>
     </g>
    </g>
    <g id="ytick_4">
     <g id="line2d_10">
      <path d="M 125.92 107.007656 
L 1048.39 107.007656 
" clip-path="url(#p48de2ff5a9)" style="fill: none; stroke: #cccccc; stroke-opacity: 0.3; stroke-width: 1.5; stroke-linecap: round"/>
     </g>
     <g id="text_11">
      <!-- 4.90 -->
      <g style="fill: #262626" transform="translate(42.17 119.165156) scale(0.32 -0.32)">
       <defs>
        <path id="DejaVuSans-39" d="M 703 97 
L 703 672 
Q 941 559 1184 500 
Q 1428 441 1663 441 
Q 2288 441 2617 861 
Q 2947 1281 2994 2138 
Q 2813 1869 2534 1725 
Q 2256 1581 1919 1581 
Q 1219 1581 811 2004 
Q 403 2428 403 3163 
Q 403 3881 828 4315 
Q 1253 4750 1959 4750 
Q 2769 4750 3195 4129 
Q 3622 3509 3622 2328 
Q 3622 1225 3098 567 
Q 2575 -91 1691 -91 
Q 1453 -91 1209 -44 
Q 966 3 703 97 
z
M 1959 2075 
Q 2384 2075 2632 2365 
Q 2881 2656 2881 3163 
Q 2881 3666 2632 3958 
Q 2384 4250 1959 4250 
Q 1534 4250 1286 3958 
Q 1038 3666 1038 3163 
Q 1038 2656 1286 2365 
Q 1534 2075 1959 2075 
z
" transform="scale(0.015625)"/>
       </defs>
       <use xlink:href="#DejaVuSans-34"/>
       <use xlink:href="#DejaVuSans-2e" transform="translate(63.623047 0)"/>
       <use xlink:href="#DejaVuSans-39" transform="translate(95.410156 0)"/>
       <use xlink:href="#DejaVuSans-30" transform="translate(159.033203 0)"/>
      </g>
     </g>
    </g>
    <g id="text_12">
     <!-- Loss -->
     <g style="fill: #262626" transform="translate(31.515 367.319375) rotate(-90) scale(0.32 -0.32)">
      <defs>
       <path id="DejaVuSans-4c" d="M 628 4666 
L 1259 4666 
L 1259 531 
L 3531 531 
L 3531 0 
L 628 0 
L 628 4666 
z
" transform="scale(0.015625)"/>
       <path id="DejaVuSans-73" d="M 2834 3397 
L 2834 2853 
Q 2591 2978 2328 3040 
Q 2066 3103 1784 3103 
Q 1356 3103 1142 2972 
Q 928 2841 928 2578 
Q 928 2378 1081 2264 
Q 1234 2150 1697 2047 
L 1894 2003 
Q 2506 1872 2764 1633 
Q 3022 1394 3022 966 
Q 3022 478 2636 193 
Q 2250 -91 1575 -91 
Q 1294 -91 989 -36 
Q 684 19 347 128 
L 347 722 
Q 666 556 975 473 
Q 1284 391 1588 391 
Q 1994 391 2212 530 
Q 2431 669 2431 922 
Q 2431 1156 2273 1281 
Q 2116 1406 1581 1522 
L 1381 1569 
Q 847 1681 609 1914 
Q 372 2147 372 2553 
Q 372 3047 722 3315 
Q 1072 3584 1716 3584 
Q 2034 3584 2315 3537 
Q 2597 3491 2834 3397 
z
" transform="scale(0.015625)"/>
      </defs>
      <use xlink:href="#DejaVuSans-4c"/>
      <use xlink:href="#DejaVuSans-6f" transform="translate(53.962891 0)"/>
      <use xlink:href="#DejaVuSans-73" transform="translate(115.144531 0)"/>
      <use xlink:href="#DejaVuSans-73" transform="translate(167.244141 0)"/>
     </g>
    </g>
   </g>
   <g id="FillBetweenPolyCollection_1"/>
   <g id="FillBetweenPolyCollection_2"/>
   <g id="line2d_11">
    <path d="M 167.850455 79.797102 
L 169.531034 280.123586 
L 171.211613 425.257734 
L 172.892193 493.754586 
L 174.572772 529.621991 
L 176.253351 544.20321 
L 177.933931 552.515442 
L 179.61451 561.546063 
L 181.295089 564.839982 
L 182.975669 568.500904 
L 184.656248 572.535336 
L 186.336827 569.630545 
L 188.017407 574.802427 
L 189.697986 574.625433 
L 191.378565 578.754869 
L 193.059145 577.551047 
L 194.739724 581.784598 
L 196.420303 578.281149 
L 198.100883 580.423302 
L 199.781462 580.241102 
L 201.462041 582.443121 
L 203.142621 582.950679 
L 204.8232 578.524516 
L 206.503779 582.994928 
L 208.184359 582.142491 
L 209.864938 581.098744 
L 211.545517 582.366337 
L 213.226097 584.021756 
L 214.906676 584.00744 
L 218.267835 581.679182 
L 219.948414 582.193247 
L 221.628993 584.651648 
L 223.309573 579.77519 
L 224.990152 581.257519 
L 226.670731 581.266629 
L 228.351311 581.07662 
L 230.03189 582.630527 
L 231.712469 581.767679 
L 233.393049 580.67578 
L 235.073628 582.838756 
L 236.754208 582.371543 
L 238.434787 579.016457 
L 240.115366 580.647148 
L 241.795946 580.192949 
L 243.476525 580.073218 
L 246.837684 577.776194 
L 248.518263 579.188246 
L 250.198842 579.885812 
L 251.879422 577.724137 
L 253.560001 578.16402 
L 255.24058 578.085934 
L 256.92116 578.275943 
L 258.601739 578.015657 
L 260.282318 576.693405 
L 261.962898 577.076025 
L 263.643477 575.433621 
L 265.324056 576.391473 
L 267.004636 576.00625 
L 268.685215 576.7806 
L 270.365794 575.548146 
L 272.046374 575.225392 
L 273.726953 575.631438 
L 275.407532 576.330306 
L 277.088112 574.249319 
L 278.768691 575.122579 
L 280.44927 574.834963 
L 282.12985 575.529926 
L 283.810429 574.491385 
L 285.491008 573.106664 
L 287.171588 574.734753 
L 288.852167 571.863799 
L 292.213326 573.234204 
L 293.893905 572.055109 
L 295.574484 571.27295 
L 297.255064 571.287265 
L 298.935643 571.656871 
L 300.616222 570.827861 
L 303.977381 570.356743 
L 305.65796 570.101663 
L 307.33854 570.421814 
L 310.699698 568.787219 
L 312.380278 569.146413 
L 314.060857 568.5881 
L 315.741437 570.121184 
L 317.422016 568.425421 
L 319.102595 568.603717 
L 320.783175 567.911356 
L 324.144333 567.643262 
L 325.824913 566.226005 
L 327.505492 567.209886 
L 329.186071 566.444645 
L 330.866651 566.353545 
L 332.54723 566.643764 
L 334.227809 566.024283 
L 335.908389 565.797834 
L 337.588968 565.321511 
L 339.269547 565.882427 
L 340.950127 563.789728 
L 342.630706 563.97323 
L 344.311285 565.014374 
L 345.991865 564.787925 
L 347.672444 564.298587 
L 349.353023 563.019282 
L 351.033603 563.103875 
L 352.714182 563.755891 
L 354.394761 563.072641 
L 356.075341 562.665293 
L 357.75592 562.121295 
L 359.436499 561.859708 
L 361.117079 562.385486 
L 362.797658 561.674905 
L 364.478237 561.45236 
L 366.158817 560.244634 
L 367.839396 561.10618 
L 369.519975 560.862813 
L 371.200555 559.315413 
L 374.561713 560.153534 
L 376.242293 559.543163 
L 377.922872 558.040012 
L 379.603451 557.82007 
L 381.284031 559.033002 
L 382.96461 556.532956 
L 384.645189 557.308608 
L 386.325769 557.670405 
L 388.006348 556.916878 
L 389.686927 556.411923 
L 391.367507 556.853108 
L 393.048086 556.49131 
L 394.728666 556.483502 
L 396.409245 556.212804 
L 398.089824 555.752098 
L 399.770404 555.593324 
L 401.450983 556.028001 
L 403.131562 554.756504 
L 404.812142 555.088369 
L 406.492721 553.78824 
L 408.1733 554.332238 
L 409.85388 553.617753 
L 411.534459 553.837695 
L 413.215038 552.861622 
L 414.895618 553.77002 
L 416.576197 552.518045 
L 419.937356 552.494619 
L 421.617935 552.406122 
L 423.298514 551.664307 
L 428.340252 551.138529 
L 430.020832 551.154147 
L 431.701411 550.607546 
L 433.38199 550.366782 
L 435.06257 550.252256 
L 436.743149 549.739492 
L 438.423728 549.669215 
L 440.104308 549.484412 
L 443.465466 548.6541 
L 445.146046 548.758214 
L 446.826625 548.156954 
L 448.507204 548.423747 
L 450.187784 547.838103 
L 451.868363 548.223327 
L 453.548942 547.592133 
L 455.229522 547.753511 
L 456.910101 546.940117 
L 458.59068 547.032518 
L 460.27126 546.161862 
L 461.951839 546.328445 
L 463.632418 545.90548 
L 465.312998 546.118915 
L 466.993577 545.584027 
L 468.674156 545.664716 
L 470.354736 545.092087 
L 472.035315 545.144144 
L 473.715895 545.374497 
L 477.077053 544.481716 
L 478.757633 544.570213 
L 482.118791 543.963747 
L 487.160529 543.734695 
L 488.841109 543.201109 
L 490.521688 543.234946 
L 492.202267 543.026718 
L 493.882847 542.431964 
L 497.244005 542.620671 
L 498.924585 541.881459 
L 500.605164 542.079277 
L 505.646902 541.665422 
L 510.68864 540.870248 
L 512.369219 541.069367 
L 514.049799 540.747914 
L 522.452695 540.060759 
L 524.133275 539.534981 
L 525.813854 539.924109 
L 527.494433 539.421757 
L 530.855592 539.382714 
L 532.536171 539.126333 
L 534.216751 539.071672 
L 535.89733 538.821798 
L 537.577909 538.860841 
L 540.939068 538.435273 
L 544.300227 538.433972 
L 545.980806 538.03183 
L 549.341965 537.869151 
L 551.022544 537.807984 
L 554.383703 537.525574 
L 561.10602 537.028428 
L 562.7866 536.814993 
L 566.147758 536.733003 
L 569.508917 536.423263 
L 571.189496 536.498746 
L 574.550655 536.23846 
L 576.231234 536.224144 
L 577.911814 535.948241 
L 579.592393 536.041944 
L 581.272972 535.985982 
L 582.953552 535.729601 
L 584.634131 535.734806 
L 587.99529 535.434176 
L 593.037028 535.223345 
L 601.439924 534.878466 
L 603.120504 534.851136 
L 604.801083 534.633797 
L 606.481662 534.658524 
L 608.162242 534.422965 
L 611.5234 534.395635 
L 613.20398 534.387827 
L 614.884559 534.184804 
L 616.565138 534.212134 
L 621.606876 533.975273 
L 624.968035 533.964862 
L 626.648615 533.695466 
L 628.329194 533.742318 
L 643.454408 533.184004 
L 645.134987 533.263391 
L 651.857305 533.000503 
L 656.899043 532.810494 
L 660.260201 532.815699 
L 665.301939 532.611375 
L 668.663098 532.576236 
L 670.343677 532.483835 
L 672.024257 532.545002 
L 680.427153 532.286018 
L 698.913526 531.93333 
L 744.289168 531.293027 
L 848.485087 530.594159 
L 964.445062 530.345586 
L 1006.459545 530.309146 
L 1006.459545 530.309146 
" clip-path="url(#p48de2ff5a9)" style="fill: none; stroke: #4c72b0; stroke-width: 6; stroke-linecap: round"/>
   </g>
   <g id="line2d_12">
    <path d="M 167.850455 146.828545 
L 169.531034 333.743794 
L 171.211613 429.553753 
L 172.892193 473.810175 
L 174.572772 493.568482 
L 176.253351 504.827151 
L 177.933931 510.67968 
L 179.61451 514.003532 
L 181.295089 516.866678 
L 182.975669 519.427891 
L 184.656248 520.899808 
L 186.336827 521.06509 
L 188.017407 522.766059 
L 189.697986 523.074498 
L 191.378565 524.008924 
L 194.739724 526.112035 
L 196.420303 526.460818 
L 198.100883 527.513675 
L 201.462041 528.776061 
L 203.142621 528.527488 
L 204.8232 528.533996 
L 206.503779 528.999907 
L 208.184359 529.07539 
L 209.864938 529.433283 
L 211.545517 529.385131 
L 213.226097 529.593359 
L 214.906676 530.280514 
L 216.587255 530.23106 
L 218.267835 530.527786 
L 219.948414 531.001506 
L 221.628993 531.261792 
L 223.309573 530.985889 
L 226.670731 532.187109 
L 230.03189 532.720695 
L 238.434787 532.421366 
L 240.115366 532.863852 
L 241.795946 533.048655 
L 246.837684 533.17099 
L 250.198842 533.569227 
L 251.879422 533.065574 
L 255.24058 533.459907 
L 256.92116 533.646012 
L 261.962898 533.540596 
L 265.324056 533.882872 
L 267.004636 534.075484 
L 268.685215 534.031235 
L 270.365794 534.154871 
L 273.726953 534.245971 
L 275.407532 534.355291 
L 277.088112 534.187406 
L 280.44927 534.355291 
L 282.12985 534.340975 
L 283.810429 534.157474 
L 285.491008 534.121034 
L 287.171588 534.411252 
L 288.852167 534.311042 
L 292.213326 534.584343 
L 297.255064 534.780858 
L 303.977381 535.067173 
L 310.699698 535.222043 
L 317.422016 535.352186 
L 327.505492 535.461506 
L 332.54723 535.625486 
L 342.630706 535.643706 
L 345.991865 535.676242 
L 359.436499 535.602061 
L 376.242293 535.579936 
L 381.284031 535.568223 
L 389.686927 535.561716 
L 394.728666 535.525276 
L 413.215038 535.206426 
L 426.659673 534.942236 
L 448.507204 534.497147 
L 556.064282 532.189712 
L 599.759345 531.549408 
L 648.496146 531.052262 
L 700.594105 530.716493 
L 784.623073 530.435384 
L 890.499571 530.300036 
L 1006.459545 530.254486 
L 1006.459545 530.254486 
" clip-path="url(#p48de2ff5a9)" style="fill: none; stroke: #dd8452; stroke-width: 6; stroke-linecap: round"/>
   </g>
   <g id="line2d_13"/>
   <g id="line2d_14"/>
   <g id="patch_3">
    <path d="M 125.92 609.894375 
L 125.92 54.554375 
" style="fill: none; stroke: #cccccc; stroke-width: 1.875; stroke-linejoin: miter; stroke-linecap: square"/>
   </g>
   <g id="patch_4">
    <path d="M 1048.39 609.894375 
L 1048.39 54.554375 
" style="fill: none; stroke: #cccccc; stroke-width: 1.875; stroke-linejoin: miter; stroke-linecap: square"/>
   </g>
   <g id="patch_5">
    <path d="M 125.92 609.894375 
L 1048.39 609.894375 
" style="fill: none; stroke: #cccccc; stroke-width: 1.875; stroke-linejoin: miter; stroke-linecap: square"/>
   </g>
   <g id="patch_6">
    <path d="M 125.92 54.554375 
L 1048.39 54.554375 
" style="fill: none; stroke: #cccccc; stroke-width: 1.875; stroke-linejoin: miter; stroke-linecap: square"/>
   </g>
   <g id="text_13">
    <!-- Training Progress: Loss -->
    <g style="fill: #262626" transform="translate(350.156875 34.554375) scale(0.36 -0.36)">
     <defs>
      <path id="DejaVuSans-Bold-54" d="M 31 4666 
L 4331 4666 
L 4331 3756 
L 2784 3756 
L 2784 0 
L 1581 0 
L 1581 3756 
L 31 3756 
L 31 4666 
z
" transform="scale(0.015625)"/>
      <path id="DejaVuSans-Bold-72" d="M 3138 2547 
Q 2991 2616 2845 2648 
Q 2700 2681 2553 2681 
Q 2122 2681 1889 2404 
Q 1656 2128 1656 1613 
L 1656 0 
L 538 0 
L 538 3500 
L 1656 3500 
L 1656 2925 
Q 1872 3269 2151 3426 
Q 2431 3584 2822 3584 
Q 2878 3584 2943 3579 
Q 3009 3575 3134 3559 
L 3138 2547 
z
" transform="scale(0.015625)"/>
      <path id="DejaVuSans-Bold-61" d="M 2106 1575 
Q 1756 1575 1579 1456 
Q 1403 1338 1403 1106 
Q 1403 894 1545 773 
Q 1688 653 1941 653 
Q 2256 653 2472 879 
Q 2688 1106 2688 1447 
L 2688 1575 
L 2106 1575 
z
M 3816 1997 
L 3816 0 
L 2688 0 
L 2688 519 
Q 2463 200 2181 54 
Q 1900 -91 1497 -91 
Q 953 -91 614 226 
Q 275 544 275 1050 
Q 275 1666 698 1953 
Q 1122 2241 2028 2241 
L 2688 2241 
L 2688 2328 
Q 2688 2594 2478 2717 
Q 2269 2841 1825 2841 
Q 1466 2841 1156 2769 
Q 847 2697 581 2553 
L 581 3406 
Q 941 3494 1303 3539 
Q 1666 3584 2028 3584 
Q 2975 3584 3395 3211 
Q 3816 2838 3816 1997 
z
" transform="scale(0.015625)"/>
      <path id="DejaVuSans-Bold-69" d="M 538 3500 
L 1656 3500 
L 1656 0 
L 538 0 
L 538 3500 
z
M 538 4863 
L 1656 4863 
L 1656 3950 
L 538 3950 
L 538 4863 
z
" transform="scale(0.015625)"/>
      <path id="DejaVuSans-Bold-6e" d="M 4056 2131 
L 4056 0 
L 2931 0 
L 2931 347 
L 2931 1631 
Q 2931 2084 2911 2256 
Q 2891 2428 2841 2509 
Q 2775 2619 2662 2680 
Q 2550 2741 2406 2741 
Q 2056 2741 1856 2470 
Q 1656 2200 1656 1722 
L 1656 0 
L 538 0 
L 538 3500 
L 1656 3500 
L 1656 2988 
Q 1909 3294 2193 3439 
Q 2478 3584 2822 3584 
Q 3428 3584 3742 3212 
Q 4056 2841 4056 2131 
z
" transform="scale(0.015625)"/>
      <path id="DejaVuSans-Bold-67" d="M 2919 594 
Q 2688 288 2409 144 
Q 2131 0 1766 0 
Q 1125 0 706 504 
Q 288 1009 288 1791 
Q 288 2575 706 3076 
Q 1125 3578 1766 3578 
Q 2131 3578 2409 3434 
Q 2688 3291 2919 2981 
L 2919 3500 
L 4044 3500 
L 4044 353 
Q 4044 -491 3511 -936 
Q 2978 -1381 1966 -1381 
Q 1638 -1381 1331 -1331 
Q 1025 -1281 716 -1178 
L 716 -306 
Q 1009 -475 1290 -558 
Q 1572 -641 1856 -641 
Q 2406 -641 2662 -400 
Q 2919 -159 2919 353 
L 2919 594 
z
M 2181 2772 
Q 1834 2772 1640 2515 
Q 1447 2259 1447 1791 
Q 1447 1309 1634 1061 
Q 1822 813 2181 813 
Q 2531 813 2725 1069 
Q 2919 1325 2919 1791 
Q 2919 2259 2725 2515 
Q 2531 2772 2181 2772 
z
" transform="scale(0.015625)"/>
      <path id="DejaVuSans-Bold-20" transform="scale(0.015625)"/>
      <path id="DejaVuSans-Bold-50" d="M 588 4666 
L 2584 4666 
Q 3475 4666 3951 4270 
Q 4428 3875 4428 3144 
Q 4428 2409 3951 2014 
Q 3475 1619 2584 1619 
L 1791 1619 
L 1791 0 
L 588 0 
L 588 4666 
z
M 1791 3794 
L 1791 2491 
L 2456 2491 
Q 2806 2491 2997 2661 
Q 3188 2831 3188 3144 
Q 3188 3456 2997 3625 
Q 2806 3794 2456 3794 
L 1791 3794 
z
" transform="scale(0.015625)"/>
      <path id="DejaVuSans-Bold-6f" d="M 2203 2784 
Q 1831 2784 1636 2517 
Q 1441 2250 1441 1747 
Q 1441 1244 1636 976 
Q 1831 709 2203 709 
Q 2569 709 2762 976 
Q 2956 1244 2956 1747 
Q 2956 2250 2762 2517 
Q 2569 2784 2203 2784 
z
M 2203 3584 
Q 3106 3584 3614 3096 
Q 4122 2609 4122 1747 
Q 4122 884 3614 396 
Q 3106 -91 2203 -91 
Q 1297 -91 786 396 
Q 275 884 275 1747 
Q 275 2609 786 3096 
Q 1297 3584 2203 3584 
z
" transform="scale(0.015625)"/>
      <path id="DejaVuSans-Bold-65" d="M 4031 1759 
L 4031 1441 
L 1416 1441 
Q 1456 1047 1700 850 
Q 1944 653 2381 653 
Q 2734 653 3104 758 
Q 3475 863 3866 1075 
L 3866 213 
Q 3469 63 3072 -14 
Q 2675 -91 2278 -91 
Q 1328 -91 801 392 
Q 275 875 275 1747 
Q 275 2603 792 3093 
Q 1309 3584 2216 3584 
Q 3041 3584 3536 3087 
Q 4031 2591 4031 1759 
z
M 2881 2131 
Q 2881 2450 2695 2645 
Q 2509 2841 2209 2841 
Q 1884 2841 1681 2658 
Q 1478 2475 1428 2131 
L 2881 2131 
z
" transform="scale(0.015625)"/>
      <path id="DejaVuSans-Bold-73" d="M 3272 3391 
L 3272 2541 
Q 2913 2691 2578 2766 
Q 2244 2841 1947 2841 
Q 1628 2841 1473 2761 
Q 1319 2681 1319 2516 
Q 1319 2381 1436 2309 
Q 1553 2238 1856 2203 
L 2053 2175 
Q 2913 2066 3209 1816 
Q 3506 1566 3506 1031 
Q 3506 472 3093 190 
Q 2681 -91 1863 -91 
Q 1516 -91 1145 -36 
Q 775 19 384 128 
L 384 978 
Q 719 816 1070 734 
Q 1422 653 1784 653 
Q 2113 653 2278 743 
Q 2444 834 2444 1013 
Q 2444 1163 2330 1236 
Q 2216 1309 1875 1350 
L 1678 1375 
Q 931 1469 631 1722 
Q 331 1975 331 2491 
Q 331 3047 712 3315 
Q 1094 3584 1881 3584 
Q 2191 3584 2531 3537 
Q 2872 3491 3272 3391 
z
" transform="scale(0.015625)"/>
      <path id="DejaVuSans-Bold-3a" d="M 716 3500 
L 1844 3500 
L 1844 2291 
L 716 2291 
L 716 3500 
z
M 716 1209 
L 1844 1209 
L 1844 0 
L 716 0 
L 716 1209 
z
" transform="scale(0.015625)"/>
      <path id="DejaVuSans-Bold-4c" d="M 588 4666 
L 1791 4666 
L 1791 909 
L 3903 909 
L 3903 0 
L 588 0 
L 588 4666 
z
" transform="scale(0.015625)"/>
     </defs>
     <use xlink:href="#DejaVuSans-Bold-54"/>
     <use xlink:href="#DejaVuSans-Bold-72" transform="translate(57.212891 0)"/>
     <use xlink:href="#DejaVuSans-Bold-61" transform="translate(106.529297 0)"/>
     <use xlink:href="#DejaVuSans-Bold-69" transform="translate(174.009766 0)"/>
     <use xlink:href="#DejaVuSans-Bold-6e" transform="translate(208.287109 0)"/>
     <use xlink:href="#DejaVuSans-Bold-69" transform="translate(279.478516 0)"/>
     <use xlink:href="#DejaVuSans-Bold-6e" transform="translate(313.755859 0)"/>
     <use xlink:href="#DejaVuSans-Bold-67" transform="translate(384.947266 0)"/>
     <use xlink:href="#DejaVuSans-Bold-20" transform="translate(456.529297 0)"/>
     <use xlink:href="#DejaVuSans-Bold-50" transform="translate(491.34375 0)"/>
     <use xlink:href="#DejaVuSans-Bold-72" transform="translate(564.634766 0)"/>
     <use xlink:href="#DejaVuSans-Bold-6f" transform="translate(613.951172 0)"/>
     <use xlink:href="#DejaVuSans-Bold-67" transform="translate(682.652344 0)"/>
     <use xlink:href="#DejaVuSans-Bold-72" transform="translate(754.234375 0)"/>
     <use xlink:href="#DejaVuSans-Bold-65" transform="translate(803.550781 0)"/>
     <use xlink:href="#DejaVuSans-Bold-73" transform="translate(871.373047 0)"/>
     <use xlink:href="#DejaVuSans-Bold-73" transform="translate(930.894531 0)"/>
     <use xlink:href="#DejaVuSans-Bold-3a" transform="translate(990.416016 0)"/>
     <use xlink:href="#DejaVuSans-Bold-20" transform="translate(1030.40625 0)"/>
     <use xlink:href="#DejaVuSans-Bold-4c" transform="translate(1065.220703 0)"/>
     <use xlink:href="#DejaVuSans-Bold-6f" transform="translate(1128.941406 0)"/>
     <use xlink:href="#DejaVuSans-Bold-73" transform="translate(1197.642578 0)"/>
     <use xlink:href="#DejaVuSans-Bold-73" transform="translate(1257.164062 0)"/>
    </g>
   </g>
   <g id="legend_1">
    <g id="patch_7">
     <path d="M 849.11 174.094375 
L 1025.99 174.094375 
Q 1032.39 174.094375 1032.39 167.694375 
L 1032.39 76.954375 
Q 1032.39 70.554375 1025.99 70.554375 
L 849.11 70.554375 
Q 842.71 70.554375 842.71 76.954375 
L 842.71 167.694375 
Q 842.71 174.094375 849.11 174.094375 
z
" style="fill: #ffffff; opacity: 0.8; stroke: #cccccc; stroke-width: 1.5; stroke-linejoin: miter"/>
    </g>
    <g id="line2d_15">
     <path d="M 855.51 96.469375 
L 887.51 96.469375 
L 919.51 96.469375 
" style="fill: none; stroke: #4c72b0; stroke-width: 6; stroke-linecap: round"/>
    </g>
    <g id="text_14">
     <!-- train -->
     <g style="fill: #262626" transform="translate(945.11 107.669375) scale(0.32 -0.32)">
      <defs>
       <path id="DejaVuSans-74" d="M 1172 4494 
L 1172 3500 
L 2356 3500 
L 2356 3053 
L 1172 3053 
L 1172 1153 
Q 1172 725 1289 603 
Q 1406 481 1766 481 
L 2356 481 
L 2356 0 
L 1766 0 
Q 1100 0 847 248 
Q 594 497 594 1153 
L 594 3053 
L 172 3053 
L 172 3500 
L 594 3500 
L 594 4494 
L 1172 4494 
z
" transform="scale(0.015625)"/>
       <path id="DejaVuSans-72" d="M 2631 2963 
Q 2534 3019 2420 3045 
Q 2306 3072 2169 3072 
Q 1681 3072 1420 2755 
Q 1159 2438 1159 1844 
L 1159 0 
L 581 0 
L 581 3500 
L 1159 3500 
L 1159 2956 
Q 1341 3275 1631 3429 
Q 1922 3584 2338 3584 
Q 2397 3584 2469 3576 
Q 2541 3569 2628 3553 
L 2631 2963 
z
" transform="scale(0.015625)"/>
       <path id="DejaVuSans-61" d="M 2194 1759 
Q 1497 1759 1228 1600 
Q 959 1441 959 1056 
Q 959 750 1161 570 
Q 1363 391 1709 391 
Q 2188 391 2477 730 
Q 2766 1069 2766 1631 
L 2766 1759 
L 2194 1759 
z
M 3341 1997 
L 3341 0 
L 2766 0 
L 2766 531 
Q 2569 213 2275 61 
Q 1981 -91 1556 -91 
Q 1019 -91 701 211 
Q 384 513 384 1019 
Q 384 1609 779 1909 
Q 1175 2209 1959 2209 
L 2766 2209 
L 2766 2266 
Q 2766 2663 2505 2880 
Q 2244 3097 1772 3097 
Q 1472 3097 1187 3025 
Q 903 2953 641 2809 
L 641 3341 
Q 956 3463 1253 3523 
Q 1550 3584 1831 3584 
Q 2591 3584 2966 3190 
Q 3341 2797 3341 1997 
z
" transform="scale(0.015625)"/>
       <path id="DejaVuSans-69" d="M 603 3500 
L 1178 3500 
L 1178 0 
L 603 0 
L 603 3500 
z
M 603 4863 
L 1178 4863 
L 1178 4134 
L 603 4134 
L 603 4863 
z
" transform="scale(0.015625)"/>
       <path id="DejaVuSans-6e" d="M 3513 2113 
L 3513 0 
L 2938 0 
L 2938 2094 
Q 2938 2591 2744 2837 
Q 2550 3084 2163 3084 
Q 1697 3084 1428 2787 
Q 1159 2491 1159 1978 
L 1159 0 
L 581 0 
L 581 3500 
L 1159 3500 
L 1159 2956 
Q 1366 3272 1645 3428 
Q 1925 3584 2291 3584 
Q 2894 3584 3203 3211 
Q 3513 2838 3513 2113 
z
" transform="scale(0.015625)"/>
      </defs>
      <use xlink:href="#DejaVuSans-74"/>
      <use xlink:href="#DejaVuSans-72" transform="translate(39.208984 0)"/>
      <use xlink:href="#DejaVuSans-61" transform="translate(80.322266 0)"/>
      <use xlink:href="#DejaVuSans-69" transform="translate(141.601562 0)"/>
      <use xlink:href="#DejaVuSans-6e" transform="translate(169.384766 0)"/>
     </g>
    </g>
    <g id="line2d_16">
     <path d="M 855.51 143.439375 
L 887.51 143.439375 
L 919.51 143.439375 
" style="fill: none; stroke: #dd8452; stroke-width: 6; stroke-linecap: round"/>
    </g>
    <g id="text_15">
     <!-- val -->
     <g style="fill: #262626" transform="translate(945.11 154.639375) scale(0.32 -0.32)">
      <defs>
       <path id="DejaVuSans-76" d="M 191 3500 
L 800 3500 
L 1894 563 
L 2988 3500 
L 3597 3500 
L 2284 0 
L 1503 0 
L 191 3500 
z
" transform="scale(0.015625)"/>
       <path id="DejaVuSans-6c" d="M 603 4863 
L 1178 4863 
L 1178 0 
L 603 0 
L 603 4863 
z
" transform="scale(0.015625)"/>
      </defs>
      <use xlink:href="#DejaVuSans-76"/>
      <use xlink:href="#DejaVuSans-61" transform="translate(59.179688 0)"/>
      <use xlink:href="#DejaVuSans-6c" transform="translate(120.458984 0)"/>
     </g>
    </g>
   </g>
  </g>
 </g>
 <defs>
  <clipPath id="p48de2ff5a9">
   <rect x="125.92" y="54.554375" width="922.47" height="555.34"/>
  </clipPath>
 </defs>
</svg>
