<?xml version="1.0" encoding="utf-8" standalone="no"?>
<!DOCTYPE svg PUBLIC "-//W3C//DTD SVG 1.1//EN"
  "http://www.w3.org/Graphics/SVG/1.1/DTD/svg11.dtd">
<svg xmlns:xlink="http://www.w3.org/1999/xlink" width="1055.59pt" height="695.534375pt" viewBox="0 0 1055.59 695.534375" xmlns="http://www.w3.org/2000/svg" version="1.1">
 <metadata>
  <rdf:RDF xmlns:dc="http://purl.org/dc/elements/1.1/" xmlns:cc="http://creativecommons.org/ns#" xmlns:rdf="http://www.w3.org/1999/02/22-rdf-syntax-ns#">
   <cc:Work>
    <dc:type rdf:resource="http://purl.org/dc/dcmitype/StillImage"/>
    <dc:date>2026-04-10T14:16:27.494982</dc:date>
    <dc:format>image/svg+xml</dc:format>
    <dc:creator>
     <cc:Agent>
      <dc:title>Matplotlib v3.10.8, https://matplotlib.org/</dc:title>
     </cc:Agent>
    </dc:creator>
   </cc:Work>
  </rdf:RDF>
 </metadata>
 <defs>
  <style type="text/css">*{stroke-linejoin: round; stroke-linecap: butt}</style>
 </defs>
 <g id="figure_1">
  <g id="patch_1">
   <path d="M 0 695.534375 
L 1055.59 695.534375 
L 1055.59 0 
L 0 0 
z
" style="fill: #ffffff"/>
  </g>
  <g id="axes_1">
   <g id="patch_2">
    <path d="M 115.75 609.894375 
L 1048.39 609.894375 
L 1048.39 54.554375 
L 115.75 54.554375 
z
" style="fill: #ffffff"/>
   </g>
   <g id="matplotlib.axis_1">
    <g id="xtick_1">
     <g id="line2d_1">
      <path d="M 153.632863 609.894375 
L 153.632863 54.554375 
" clip-path="url(#p6691b44a01)" style="fill: none; stroke: #cccccc; stroke-opacity: 0.3; stroke-width: 1.5; stroke-linecap: round"/>
     </g>
     <g id="text_1">
      <!-- 0 -->
      <g style="fill: #262626" transform="translate(143.452863 646.709375) scale(0.32 -0.32)">
       <defs>
        <path id="DejaVuSans-30" d="M 2034 4250 
Q 1547 4250 1301 3770 
Q 1056 3291 1056 2328 
Q 1056 1369 1301 889 
Q 1547 409 2034 409 
Q 2525 409 2770 889 
Q 3016 1369 3016 2328 
Q 3016 3291 2770 3770 
Q 2525 4250 2034 4250 
z
M 2034 4750 
Q 2819 4750 3233 4129 
Q 3647 3509 3647 2328 
Q 3647 1150 3233 529 
Q 2819 -91 2034 -91 
Q 1250 -91 836 529 
Q 422 1150 422 2328 
Q 422 3509 836 4129 
Q 1250 4750 2034 4750 
z
" transform="scale(0.015625)"/>
       </defs>
       <use xlink:href="#DejaVuSans-30"/>
      </g>
     </g>
    </g>
    <g id="xtick_2">
     <g id="line2d_2">
      <path d="M 266.379478 609.894375 
L 266.379478 54.554375 
" clip-path="url(#p6691b44a01)" style="fill: none; stroke: #cccccc; stroke-opacity: 0.3; stroke-width: 1.5; stroke-linecap: round"/>
     </g>
     <g id="text_2">
      <!-- 25 -->
      <g style="fill: #262626" transform="translate(246.019478 646.709375) scale(0.32 -0.32)">
       <defs>
        <path id="DejaVuSans-32" d="M 1228 531 
L 3431 531 
L 3431 0 
L 469 0 
L 469 531 
Q 828 903 1448 1529 
Q 2069 2156 2228 2338 
Q 2531 2678 2651 2914 
Q 2772 3150 2772 3378 
Q 2772 3750 2511 3984 
Q 2250 4219 1831 4219 
Q 1534 4219 1204 4116 
Q 875 4013 500 3803 
L 500 4441 
Q 881 4594 1212 4672 
Q 1544 4750 1819 4750 
Q 2544 4750 2975 4387 
Q 3406 4025 3406 3419 
Q 3406 3131 3298 2873 
Q 3191 2616 2906 2266 
Q 2828 2175 2409 1742 
Q 1991 1309 1228 531 
z
" transform="scale(0.015625)"/>
        <path id="DejaVuSans-35" d="M 691 4666 
L 3169 4666 
L 3169 4134 
L 1269 4134 
L 1269 2991 
Q 1406 3038 1543 3061 
Q 1681 3084 1819 3084 
Q 2600 3084 3056 2656 
Q 3513 2228 3513 1497 
Q 3513 744 3044 326 
Q 2575 -91 1722 -91 
Q 1428 -91 1123 -41 
Q 819 9 494 109 
L 494 744 
Q 775 591 1075 516 
Q 1375 441 1709 441 
Q 2250 441 2565 725 
Q 2881 1009 2881 1497 
Q 2881 1984 2565 2268 
Q 2250 2553 1709 2553 
Q 1456 2553 1204 2497 
Q 953 2441 691 2322 
L 691 4666 
z
" transform="scale(0.015625)"/>
       </defs>
       <use xlink:href="#DejaVuSans-32"/>
       <use xlink:href="#DejaVuSans-35" transform="translate(63.623047 0)"/>
      </g>
     </g>
    </g>
    <g id="xtick_3">
     <g id="line2d_3">
      <path d="M 379.126093 609.894375 
L 379.126093 54.554375 
" clip-path="url(#p6691b44a01)" style="fill: none; stroke: #cccccc; stroke-opacity: 0.3; stroke-width: 1.5; stroke-linecap: round"/>
     </g>
     <g id="text_3">
      <!-- 50 -->
      <g style="fill: #262626" transform="translate(358.766093 646.709375) scale(0.32 -0.32)">
       <use xlink:href="#DejaVuSans-35"/>
       <use xlink:href="#DejaVuSans-30" transform="translate(63.623047 0)"/>
      </g>
     </g>
    </g>
    <g id="xtick_4">
     <g id="line2d_4">
      <path d="M 491.872708 609.894375 
L 491.872708 54.554375 
" clip-path="url(#p6691b44a01)" style="fill: none; stroke: #cccccc; stroke-opacity: 0.3; stroke-width: 1.5; stroke-linecap: round"/>
     </g>
     <g id="text_4">
      <!-- 75 -->
      <g style="fill: #262626" transform="translate(471.512708 646.709375) scale(0.32 -0.32)">
       <defs>
        <path id="DejaVuSans-37" d="M 525 4666 
L 3525 4666 
L 3525 4397 
L 1831 0 
L 1172 0 
L 2766 4134 
L 525 4134 
L 525 4666 
z
" transform="scale(0.015625)"/>
       </defs>
       <use xlink:href="#DejaVuSans-37"/>
       <use xlink:href="#DejaVuSans-35" transform="translate(63.623047 0)"/>
      </g>
     </g>
    </g>
    <g id="xtick_5">
     <g id="line2d_5">
      <path d="M 604.619323 609.894375 
L 604.619323 54.554375 
" clip-path="url(#p6691b44a01)" style="fill: none; stroke: #cccccc; stroke-opacity: 0.3; stroke-width: 1.5; stroke-linecap: round"/>
     </g>
     <g id="text_5">
      <!-- 100 -->
      <g style="fill: #262626" transform="translate(574.079323 646.709375) scale(0.32 -0.32)">
       <defs>
        <path id="DejaVuSans-31" d="M 794 531 
L 1825 531 
L 1825 4091 
L 703 3866 
L 703 4441 
L 1819 4666 
L 2450 4666 
L 2450 531 
L 3481 531 
L 3481 0 
L 794 0 
L 794 531 
z
" transform="scale(0.015625)"/>
       </defs>
       <use xlink:href="#DejaVuSans-31"/>
       <use xlink:href="#DejaVuSans-30" transform="translate(63.623047 0)"/>
       <use xlink:href="#DejaVuSans-30" transform="translate(127.246094 0)"/>
      </g>
     </g>
    </g>
    <g id="xtick_6">
     <g id="line2d_6">
      <path d="M 717.365938 609.894375 
L 717.365938 54.554375 
" clip-path="url(#p6691b44a01)" style="fill: none; stroke: #cccccc; stroke-opacity: 0.3; stroke-width: 1.5; stroke-linecap: round"/>
     </g>
     <g id="text_6">
      <!-- 125 -->
      <g style="fill: #262626" transform="translate(686.825938 646.709375) scale(0.32 -0.32)">
       <use xlink:href="#DejaVuSans-31"/>
       <use xlink:href="#DejaVuSans-32" transform="translate(63.623047 0)"/>
       <use xlink:href="#DejaVuSans-35" transform="translate(127.246094 0)"/>
      </g>
     </g>
    </g>
    <g id="xtick_7">
     <g id="line2d_7">
      <path d="M 830.112553 609.894375 
L 830.112553 54.554375 
" clip-path="url(#p6691b44a01)" style="fill: none; stroke: #cccccc; stroke-opacity: 0.3; stroke-width: 1.5; stroke-linecap: round"/>
     </g>
     <g id="text_7">
      <!-- 150 -->
      <g style="fill: #262626" transform="translate(799.572553 646.709375) scale(0.32 -0.32)">
       <use xlink:href="#DejaVuSans-31"/>
       <use xlink:href="#DejaVuSans-35" transform="translate(63.623047 0)"/>
       <use xlink:href="#DejaVuSans-30" transform="translate(127.246094 0)"/>
      </g>
     </g>
    </g>
    <g id="xtick_8">
     <g id="line2d_8">
      <path d="M 942.859168 609.894375 
L 942.859168 54.554375 
" clip-path="url(#p6691b44a01)" style="fill: none; stroke: #cccccc; stroke-opacity: 0.3; stroke-width: 1.5; stroke-linecap: round"/>
     </g>
     <g id="text_8">
      <!-- 175 -->
      <g style="fill: #262626" transform="translate(912.319168 646.709375) scale(0.32 -0.32)">
       <use xlink:href="#DejaVuSans-31"/>
       <use xlink:href="#DejaVuSans-37" transform="translate(63.623047 0)"/>
       <use xlink:href="#DejaVuSans-35" transform="translate(127.246094 0)"/>
      </g>
     </g>
    </g>
    <g id="text_9">
     <!-- Epoch -->
     <g style="fill: #262626" transform="translate(533.075 681.679375) scale(0.32 -0.32)">
      <defs>
       <path id="DejaVuSans-45" d="M 628 4666 
L 3578 4666 
L 3578 4134 
L 1259 4134 
L 1259 2753 
L 3481 2753 
L 3481 2222 
L 1259 2222 
L 1259 531 
L 3634 531 
L 3634 0 
L 628 0 
L 628 4666 
z
" transform="scale(0.015625)"/>
       <path id="DejaVuSans-70" d="M 1159 525 
L 1159 -1331 
L 581 -1331 
L 581 3500 
L 1159 3500 
L 1159 2969 
Q 1341 3281 1617 3432 
Q 1894 3584 2278 3584 
Q 2916 3584 3314 3078 
Q 3713 2572 3713 1747 
Q 3713 922 3314 415 
Q 2916 -91 2278 -91 
Q 1894 -91 1617 61 
Q 1341 213 1159 525 
z
M 3116 1747 
Q 3116 2381 2855 2742 
Q 2594 3103 2138 3103 
Q 1681 3103 1420 2742 
Q 1159 2381 1159 1747 
Q 1159 1113 1420 752 
Q 1681 391 2138 391 
Q 2594 391 2855 752 
Q 3116 1113 3116 1747 
z
" transform="scale(0.015625)"/>
       <path id="DejaVuSans-6f" d="M 1959 3097 
Q 1497 3097 1228 2736 
Q 959 2375 959 1747 
Q 959 1119 1226 758 
Q 1494 397 1959 397 
Q 2419 397 2687 759 
Q 2956 1122 2956 1747 
Q 2956 2369 2687 2733 
Q 2419 3097 1959 3097 
z
M 1959 3584 
Q 2709 3584 3137 3096 
Q 3566 2609 3566 1747 
Q 3566 888 3137 398 
Q 2709 -91 1959 -91 
Q 1206 -91 779 398 
Q 353 888 353 1747 
Q 353 2609 779 3096 
Q 1206 3584 1959 3584 
z
" transform="scale(0.015625)"/>
       <path id="DejaVuSans-63" d="M 3122 3366 
L 3122 2828 
Q 2878 2963 2633 3030 
Q 2388 3097 2138 3097 
Q 1578 3097 1268 2742 
Q 959 2388 959 1747 
Q 959 1106 1268 751 
Q 1578 397 2138 397 
Q 2388 397 2633 464 
Q 2878 531 3122 666 
L 3122 134 
Q 2881 22 2623 -34 
Q 2366 -91 2075 -91 
Q 1284 -91 818 406 
Q 353 903 353 1747 
Q 353 2603 823 3093 
Q 1294 3584 2113 3584 
Q 2378 3584 2631 3529 
Q 2884 3475 3122 3366 
z
" transform="scale(0.015625)"/>
       <path id="DejaVuSans-68" d="M 3513 2113 
L 3513 0 
L 2938 0 
L 2938 2094 
Q 2938 2591 2744 2837 
Q 2550 3084 2163 3084 
Q 1697 3084 1428 2787 
Q 1159 2491 1159 1978 
L 1159 0 
L 581 0 
L 581 4863 
L 1159 4863 
L 1159 2956 
Q 1366 3272 1645 3428 
Q 1925 3584 2291 3584 
Q 2894 3584 3203 3211 
Q 3513 2838 3513 2113 
z
" transform="scale(0.015625)"/>
      </defs>
      <use xlink:href="#DejaVuSans-45"/>
      <use xlink:href="#DejaVuSans-70" transform="translate(63.183594 0)"/>
      <use xlink:href="#DejaVuSans-6f" transform="translate(126.660156 0)"/>
      <use xlink:href="#DejaVuSans-63" transform="translate(187.841797 0)"/>
      <use xlink:href="#DejaVuSans-68" transform="translate(242.822266 0)"/>
     </g>
    </g>
   </g>
   <g id="matplotlib.axis_2">
    <g id="ytick_1">
     <g id="line2d_9">
      <path d="M 115.75 588.601492 
L 1048.39 588.601492 
" clip-path="url(#p6691b44a01)" style="fill: none; stroke: #cccccc; stroke-opacity: 0.3; stroke-width: 1.5; stroke-linecap: round"/>
     </g>
     <g id="text_10">
      <!-- 0 -->
      <g style="fill: #262626" transform="translate(82.89 600.758992) scale(0.32 -0.32)">
       <use xlink:href="#DejaVuSans-30"/>
      </g>
     </g>
    </g>
    <g id="ytick_2">
     <g id="line2d_10">
      <path d="M 115.75 486.582666 
L 1048.39 486.582666 
" clip-path="url(#p6691b44a01)" style="fill: none; stroke: #cccccc; stroke-opacity: 0.3; stroke-width: 1.5; stroke-linecap: round"/>
     </g>
     <g id="text_11">
      <!-- 20 -->
      <g style="fill: #262626" transform="translate(62.53 498.740166) scale(0.32 -0.32)">
       <use xlink:href="#DejaVuSans-32"/>
       <use xlink:href="#DejaVuSans-30" transform="translate(63.623047 0)"/>
      </g>
     </g>
    </g>
    <g id="ytick_3">
     <g id="line2d_11">
      <path d="M 115.75 384.563841 
L 1048.39 384.563841 
" clip-path="url(#p6691b44a01)" style="fill: none; stroke: #cccccc; stroke-opacity: 0.3; stroke-width: 1.5; stroke-linecap: round"/>
     </g>
     <g id="text_12">
      <!-- 40 -->
      <g style="fill: #262626" transform="translate(62.53 396.721341) scale(0.32 -0.32)">
       <defs>
        <path id="DejaVuSans-34" d="M 2419 4116 
L 825 1625 
L 2419 1625 
L 2419 4116 
z
M 2253 4666 
L 3047 4666 
L 3047 1625 
L 3713 1625 
L 3713 1100 
L 3047 1100 
L 3047 0 
L 2419 0 
L 2419 1100 
L 313 1100 
L 313 1709 
L 2253 4666 
z
" transform="scale(0.015625)"/>
       </defs>
       <use xlink:href="#DejaVuSans-34"/>
       <use xlink:href="#DejaVuSans-30" transform="translate(63.623047 0)"/>
      </g>
     </g>
    </g>
    <g id="ytick_4">
     <g id="line2d_12">
      <path d="M 115.75 282.545016 
L 1048.39 282.545016 
" clip-path="url(#p6691b44a01)" style="fill: none; stroke: #cccccc; stroke-opacity: 0.3; stroke-width: 1.5; stroke-linecap: round"/>
     </g>
     <g id="text_13">
      <!-- 60 -->
      <g style="fill: #262626" transform="translate(62.53 294.702516) scale(0.32 -0.32)">
       <defs>
        <path id="DejaVuSans-36" d="M 2113 2584 
Q 1688 2584 1439 2293 
Q 1191 2003 1191 1497 
Q 1191 994 1439 701 
Q 1688 409 2113 409 
Q 2538 409 2786 701 
Q 3034 994 3034 1497 
Q 3034 2003 2786 2293 
Q 2538 2584 2113 2584 
z
M 3366 4563 
L 3366 3988 
Q 3128 4100 2886 4159 
Q 2644 4219 2406 4219 
Q 1781 4219 1451 3797 
Q 1122 3375 1075 2522 
Q 1259 2794 1537 2939 
Q 1816 3084 2150 3084 
Q 2853 3084 3261 2657 
Q 3669 2231 3669 1497 
Q 3669 778 3244 343 
Q 2819 -91 2113 -91 
Q 1303 -91 875 529 
Q 447 1150 447 2328 
Q 447 3434 972 4092 
Q 1497 4750 2381 4750 
Q 2619 4750 2861 4703 
Q 3103 4656 3366 4563 
z
" transform="scale(0.015625)"/>
       </defs>
       <use xlink:href="#DejaVuSans-36"/>
       <use xlink:href="#DejaVuSans-30" transform="translate(63.623047 0)"/>
      </g>
     </g>
    </g>
    <g id="ytick_5">
     <g id="line2d_13">
      <path d="M 115.75 180.526191 
L 1048.39 180.526191 
" clip-path="url(#p6691b44a01)" style="fill: none; stroke: #cccccc; stroke-opacity: 0.3; stroke-width: 1.5; stroke-linecap: round"/>
     </g>
     <g id="text_14">
      <!-- 80 -->
      <g style="fill: #262626" transform="translate(62.53 192.683691) scale(0.32 -0.32)">
       <defs>
        <path id="DejaVuSans-38" d="M 2034 2216 
Q 1584 2216 1326 1975 
Q 1069 1734 1069 1313 
Q 1069 891 1326 650 
Q 1584 409 2034 409 
Q 2484 409 2743 651 
Q 3003 894 3003 1313 
Q 3003 1734 2745 1975 
Q 2488 2216 2034 2216 
z
M 1403 2484 
Q 997 2584 770 2862 
Q 544 3141 544 3541 
Q 544 4100 942 4425 
Q 1341 4750 2034 4750 
Q 2731 4750 3128 4425 
Q 3525 4100 3525 3541 
Q 3525 3141 3298 2862 
Q 3072 2584 2669 2484 
Q 3125 2378 3379 2068 
Q 3634 1759 3634 1313 
Q 3634 634 3220 271 
Q 2806 -91 2034 -91 
Q 1263 -91 848 271 
Q 434 634 434 1313 
Q 434 1759 690 2068 
Q 947 2378 1403 2484 
z
M 1172 3481 
Q 1172 3119 1398 2916 
Q 1625 2713 2034 2713 
Q 2441 2713 2670 2916 
Q 2900 3119 2900 3481 
Q 2900 3844 2670 4047 
Q 2441 4250 2034 4250 
Q 1625 4250 1398 4047 
Q 1172 3844 1172 3481 
z
" transform="scale(0.015625)"/>
       </defs>
       <use xlink:href="#DejaVuSans-38"/>
       <use xlink:href="#DejaVuSans-30" transform="translate(63.623047 0)"/>
      </g>
     </g>
    </g>
    <g id="ytick_6">
     <g id="line2d_14">
      <path d="M 115.75 78.507365 
L 1048.39 78.507365 
" clip-path="url(#p6691b44a01)" style="fill: none; stroke: #cccccc; stroke-opacity: 0.3; stroke-width: 1.5; stroke-linecap: round"/>
     </g>
     <g id="text_15">
      <!-- 100 -->
      <g style="fill: #262626" transform="translate(42.17 90.664865) scale(0.32 -0.32)">
       <use xlink:href="#DejaVuSans-31"/>
       <use xlink:href="#DejaVuSans-30" transform="translate(63.623047 0)"/>
       <use xlink:href="#DejaVuSans-30" transform="translate(127.246094 0)"/>
      </g>
     </g>
    </g>
    <g id="text_16">
     <!-- Accuracy (%) -->
     <g style="fill: #262626" transform="translate(31.515 438.046875) rotate(-90) scale(0.32 -0.32)">
      <defs>
       <path id="DejaVuSans-41" d="M 2188 4044 
L 1331 1722 
L 3047 1722 
L 2188 4044 
z
M 1831 4666 
L 2547 4666 
L 4325 0 
L 3669 0 
L 3244 1197 
L 1141 1197 
L 716 0 
L 50 0 
L 1831 4666 
z
" transform="scale(0.015625)"/>
       <path id="DejaVuSans-75" d="M 544 1381 
L 544 3500 
L 1119 3500 
L 1119 1403 
Q 1119 906 1312 657 
Q 1506 409 1894 409 
Q 2359 409 2629 706 
Q 2900 1003 2900 1516 
L 2900 3500 
L 3475 3500 
L 3475 0 
L 2900 0 
L 2900 538 
Q 2691 219 2414 64 
Q 2138 -91 1772 -91 
Q 1169 -91 856 284 
Q 544 659 544 1381 
z
M 1991 3584 
L 1991 3584 
z
" transform="scale(0.015625)"/>
       <path id="DejaVuSans-72" d="M 2631 2963 
Q 2534 3019 2420 3045 
Q 2306 3072 2169 3072 
Q 1681 3072 1420 2755 
Q 1159 2438 1159 1844 
L 1159 0 
L 581 0 
L 581 3500 
L 1159 3500 
L 1159 2956 
Q 1341 3275 1631 3429 
Q 1922 3584 2338 3584 
Q 2397 3584 2469 3576 
Q 2541 3569 2628 3553 
L 2631 2963 
z
" transform="scale(0.015625)"/>
       <path id="DejaVuSans-61" d="M 2194 1759 
Q 1497 1759 1228 1600 
Q 959 1441 959 1056 
Q 959 750 1161 570 
Q 1363 391 1709 391 
Q 2188 391 2477 730 
Q 2766 1069 2766 1631 
L 2766 1759 
L 2194 1759 
z
M 3341 1997 
L 3341 0 
L 2766 0 
L 2766 531 
Q 2569 213 2275 61 
Q 1981 -91 1556 -91 
Q 1019 -91 701 211 
Q 384 513 384 1019 
Q 384 1609 779 1909 
Q 1175 2209 1959 2209 
L 2766 2209 
L 2766 2266 
Q 2766 2663 2505 2880 
Q 2244 3097 1772 3097 
Q 1472 3097 1187 3025 
Q 903 2953 641 2809 
L 641 3341 
Q 956 3463 1253 3523 
Q 1550 3584 1831 3584 
Q 2591 3584 2966 3190 
Q 3341 2797 3341 1997 
z
" transform="scale(0.015625)"/>
       <path id="DejaVuSans-79" d="M 2059 -325 
Q 1816 -950 1584 -1140 
Q 1353 -1331 966 -1331 
L 506 -1331 
L 506 -850 
L 844 -850 
Q 1081 -850 1212 -737 
Q 1344 -625 1503 -206 
L 1606 56 
L 191 3500 
L 800 3500 
L 1894 763 
L 2988 3500 
L 3597 3500 
L 2059 -325 
z
" transform="scale(0.015625)"/>
       <path id="DejaVuSans-20" transform="scale(0.015625)"/>
       <path id="DejaVuSans-28" d="M 1984 4856 
Q 1566 4138 1362 3434 
Q 1159 2731 1159 2009 
Q 1159 1288 1364 580 
Q 1569 -128 1984 -844 
L 1484 -844 
Q 1016 -109 783 600 
Q 550 1309 550 2009 
Q 550 2706 781 3412 
Q 1013 4119 1484 4856 
L 1984 4856 
z
" transform="scale(0.015625)"/>
       <path id="DejaVuSans-25" d="M 4653 2053 
Q 4381 2053 4226 1822 
Q 4072 1591 4072 1178 
Q 4072 772 4226 539 
Q 4381 306 4653 306 
Q 4919 306 5073 539 
Q 5228 772 5228 1178 
Q 5228 1588 5073 1820 
Q 4919 2053 4653 2053 
z
M 4653 2450 
Q 5147 2450 5437 2106 
Q 5728 1763 5728 1178 
Q 5728 594 5436 251 
Q 5144 -91 4653 -91 
Q 4153 -91 3862 251 
Q 3572 594 3572 1178 
Q 3572 1766 3864 2108 
Q 4156 2450 4653 2450 
z
M 1428 4353 
Q 1159 4353 1004 4120 
Q 850 3888 850 3481 
Q 850 3069 1003 2837 
Q 1156 2606 1428 2606 
Q 1700 2606 1854 2837 
Q 2009 3069 2009 3481 
Q 2009 3884 1853 4118 
Q 1697 4353 1428 4353 
z
M 4250 4750 
L 4750 4750 
L 1831 -91 
L 1331 -91 
L 4250 4750 
z
M 1428 4750 
Q 1922 4750 2215 4408 
Q 2509 4066 2509 3481 
Q 2509 2891 2217 2550 
Q 1925 2209 1428 2209 
Q 931 2209 642 2551 
Q 353 2894 353 3481 
Q 353 4063 643 4406 
Q 934 4750 1428 4750 
z
" transform="scale(0.015625)"/>
       <path id="DejaVuSans-29" d="M 513 4856 
L 1013 4856 
Q 1481 4119 1714 3412 
Q 1947 2706 1947 2009 
Q 1947 1309 1714 600 
Q 1481 -109 1013 -844 
L 513 -844 
Q 928 -128 1133 580 
Q 1338 1288 1338 2009 
Q 1338 2731 1133 3434 
Q 928 4138 513 4856 
z
" transform="scale(0.015625)"/>
      </defs>
      <use xlink:href="#DejaVuSans-41"/>
      <use xlink:href="#DejaVuSans-63" transform="translate(66.658203 0)"/>
      <use xlink:href="#DejaVuSans-63" transform="translate(121.638672 0)"/>
      <use xlink:href="#DejaVuSans-75" transform="translate(176.619141 0)"/>
      <use xlink:href="#DejaVuSans-72" transform="translate(239.998047 0)"/>
      <use xlink:href="#DejaVuSans-61" transform="translate(281.111328 0)"/>
      <use xlink:href="#DejaVuSans-63" transform="translate(342.390625 0)"/>
      <use xlink:href="#DejaVuSans-79" transform="translate(397.371094 0)"/>
      <use xlink:href="#DejaVuSans-20" transform="translate(456.550781 0)"/>
      <use xlink:href="#DejaVuSans-28" transform="translate(488.337891 0)"/>
      <use xlink:href="#DejaVuSans-25" transform="translate(527.351562 0)"/>
      <use xlink:href="#DejaVuSans-29" transform="translate(622.371094 0)"/>
     </g>
    </g>
   </g>
   <g id="FillBetweenPolyCollection_1"/>
   <g id="FillBetweenPolyCollection_2"/>
   <g id="line2d_15">
    <path d="M 158.142727 584.329211 
L 162.652592 583.845557 
L 167.162456 578.283532 
L 171.672321 579.734495 
L 180.69205 575.86526 
L 185.201915 574.575516 
L 189.711779 570.303235 
L 194.221644 567.481919 
L 198.731509 564.338164 
L 203.241373 557.728221 
L 207.751238 555.148731 
L 212.261103 551.037672 
L 216.770967 547.410264 
L 221.280832 539.188139 
L 225.790696 532.820022 
L 230.300561 525.887645 
L 234.810426 519.277698 
L 243.830155 502.430405 
L 248.340019 498.158129 
L 252.849884 489.613569 
L 257.359749 476.877335 
L 261.869613 467.526682 
L 266.379478 452.775226 
L 270.889342 446.326497 
L 275.399207 434.557572 
L 279.909072 420.854043 
L 284.418936 403.44249 
L 293.438665 373.294694 
L 297.94853 363.540992 
L 302.458395 355.802525 
L 306.968259 337.907321 
L 311.478124 327.428148 
L 315.987988 315.094957 
L 320.497853 305.099436 
L 329.517582 288.332736 
L 334.027447 277.047478 
L 338.537311 269.63143 
L 352.066905 255.8473 
L 356.57677 245.609946 
L 361.086634 242.143771 
L 365.596499 233.437986 
L 370.106364 232.95432 
L 374.616228 225.618904 
L 379.126093 221.265997 
L 383.635957 225.135237 
L 388.145822 220.218093 
L 392.655687 216.510084 
L 397.165551 214.011181 
L 401.675416 215.462151 
L 406.18528 208.449169 
L 410.695145 205.46663 
L 415.20501 206.433932 
L 419.714874 198.050613 
L 424.224739 199.340349 
L 428.734603 199.743385 
L 433.244468 194.342574 
L 437.754333 189.989697 
L 442.264197 187.087759 
L 446.774062 179.349307 
L 451.283926 184.105219 
L 455.793791 178.220772 
L 460.303656 179.591141 
L 464.81352 177.978939 
L 469.323385 174.593365 
L 473.83325 166.210015 
L 478.343114 161.534704 
L 482.852979 160.406169 
L 487.362843 157.181797 
L 491.872708 153.070753 
L 496.382573 152.506485 
L 500.892437 147.347508 
L 505.402302 143.7201 
L 509.912166 140.253895 
L 514.422031 135.659185 
L 518.931896 134.53065 
L 523.44176 129.291071 
L 527.951625 126.14733 
L 532.461489 122.519923 
L 536.971354 119.940419 
L 541.481219 118.650682 
L 545.991083 116.554844 
L 550.500948 113.572305 
L 555.010812 112.846836 
L 559.520677 108.413327 
L 564.030542 107.687858 
L 568.540406 104.866521 
L 573.050271 104.382885 
L 577.560135 99.868776 
L 582.07 102.125815 
L 586.579865 102.448249 
L 591.089729 99.788144 
L 595.599594 96.321969 
L 600.109458 96.321969 
L 604.619323 95.999535 
L 609.129188 93.581263 
L 613.639052 94.387364 
L 618.148917 93.823096 
L 622.658781 93.500662 
L 627.168646 91.566027 
L 631.678511 92.130294 
L 636.188375 92.452728 
L 640.69824 91.001759 
L 645.208104 90.518123 
L 649.717969 89.067154 
L 654.227834 90.840557 
L 658.737698 91.001759 
L 663.247563 91.404825 
L 667.757427 89.55082 
L 672.267292 87.374352 
L 676.777157 86.810084 
L 681.287021 86.810084 
L 685.796886 88.099851 
L 690.30675 86.326448 
L 694.816615 86.004014 
L 699.32648 86.004014 
L 703.836344 84.875479 
L 708.346209 84.875479 
L 712.856074 86.890715 
L 717.365938 86.326448 
L 721.875803 86.890715 
L 726.385667 85.117312 
L 730.895532 84.230611 
L 735.405397 83.908176 
L 739.915261 83.343909 
L 744.425126 84.069378 
L 748.93499 85.520347 
L 753.444855 84.15001 
L 757.95472 82.940874 
L 762.464584 81.89294 
L 766.974449 81.570506 
L 771.484313 81.651107 
L 780.504043 82.940874 
L 785.013907 83.343909 
L 794.033636 82.940874 
L 798.543501 82.779641 
L 803.053366 82.779641 
L 807.56323 83.908176 
L 812.073095 83.827575 
L 816.582959 82.61844 
L 830.112553 81.570506 
L 834.622418 80.683804 
L 839.132282 81.16747 
L 843.642147 80.522602 
L 848.152012 81.248071 
L 852.661876 82.134773 
L 857.171741 81.89294 
L 861.681605 81.248071 
L 866.19147 82.215374 
L 870.701335 81.086869 
L 875.211199 81.248071 
L 879.721064 80.522602 
L 884.230928 80.845036 
L 888.740793 80.603203 
L 897.760522 81.086869 
L 902.270387 81.89294 
L 906.780251 81.409304 
L 911.290116 81.16747 
L 915.799981 80.683804 
L 920.309845 79.877734 
L 924.81971 80.925637 
L 929.329574 80.200168 
L 933.839439 80.36137 
L 938.349304 81.328672 
L 942.859168 80.764405 
L 947.369033 81.248071 
L 951.878897 80.441971 
L 956.388762 80.441971 
L 960.898627 80.280769 
L 965.408491 80.522602 
L 969.918356 80.200168 
L 974.428221 80.119536 
L 978.938085 80.200168 
L 983.44795 80.603203 
L 987.957814 79.797102 
L 992.467679 80.038936 
L 996.977544 79.877734 
L 1001.487408 80.764405 
L 1005.997273 80.200168 
L 1005.997273 80.200168 
" clip-path="url(#p6691b44a01)" style="fill: none; stroke: #4c72b0; stroke-width: 6; stroke-linecap: round"/>
   </g>
   <g id="line2d_16">
    <path d="M 158.142727 584.651648 
L 162.652592 580.540585 
L 167.162456 581.427286 
L 171.672321 581.991549 
L 176.182186 582.233376 
L 180.69205 583.039467 
L 185.201915 583.200685 
L 189.711779 583.684339 
L 194.221644 583.684339 
L 198.731509 582.958857 
L 203.241373 583.361903 
L 207.751238 583.523121 
L 212.261103 583.120076 
L 216.770967 583.039467 
L 221.280832 581.991549 
L 230.300561 582.394594 
L 234.810426 581.427286 
L 239.32029 581.02424 
L 243.830155 581.185458 
L 248.340019 580.379367 
L 252.849884 579.734495 
L 261.869613 579.089623 
L 266.379478 578.525359 
L 270.889342 578.364141 
L 275.399207 576.75196 
L 279.909072 576.671351 
L 284.418936 575.623433 
L 293.438665 574.897952 
L 297.94853 573.043944 
L 302.458395 573.205162 
L 306.968259 571.270543 
L 311.478124 571.996026 
L 315.987988 569.90019 
L 320.497853 569.980799 
L 325.007718 568.932882 
L 329.517582 569.255318 
L 334.027447 568.932882 
L 338.537311 567.884963 
L 343.047176 566.353391 
L 347.557041 565.708519 
L 352.066905 566.434 
L 356.57677 566.595219 
L 361.086634 565.063647 
L 365.596499 562.16172 
L 370.106364 564.096339 
L 374.616228 563.04842 
L 379.126093 562.725984 
L 383.635957 561.033193 
L 388.145822 562.16172 
L 392.655687 562.564765 
L 401.675416 559.66284 
L 406.18528 560.952584 
L 410.695145 560.307712 
L 415.20501 559.340404 
L 419.714874 557.970049 
L 428.734603 558.77614 
L 433.244468 558.131268 
L 437.754333 557.647613 
L 442.264197 556.599696 
L 446.774062 557.567004 
L 451.283926 556.116041 
L 455.793791 555.632386 
L 460.303656 556.277258 
L 464.81352 555.712994 
L 469.323385 556.922132 
L 473.83325 553.858986 
L 478.343114 555.954824 
L 482.852979 555.309952 
L 487.362843 552.246808 
L 491.872708 550.231579 
L 496.382573 552.004978 
L 500.892437 549.264272 
L 505.402302 549.344881 
L 509.912166 545.556252 
L 514.422031 545.314427 
L 518.931896 545.314427 
L 523.44176 543.944074 
L 527.951625 539.429965 
L 532.461489 537.737174 
L 536.971354 534.512813 
L 541.481219 533.545502 
L 545.991083 527.661044 
L 550.500948 523.63059 
L 555.010812 516.698209 
L 559.520677 511.539232 
L 564.030542 509.765828 
L 568.540406 504.284416 
L 573.050271 494.208287 
L 577.560135 492.031841 
L 582.07 482.439363 
L 586.579865 479.456823 
L 591.089729 470.186787 
L 595.599594 465.833895 
L 600.109458 462.04527 
L 604.619323 452.775226 
L 609.129188 446.084679 
L 613.639052 436.492193 
L 618.148917 433.751487 
L 622.658781 429.479211 
L 627.168646 417.226635 
L 631.678511 409.729987 
L 640.69824 400.218117 
L 645.208104 388.852243 
L 649.717969 386.272755 
L 654.227834 374.423214 
L 658.737698 371.360074 
L 663.247563 359.913584 
L 667.757427 349.756846 
L 672.267292 343.872384 
L 676.777157 336.214533 
L 681.287021 335.650266 
L 685.796886 317.190794 
L 690.30675 318.39993 
L 694.816615 307.678909 
L 699.32648 296.635485 
L 703.836344 290.589805 
L 708.346209 281.964622 
L 712.856074 275.838342 
L 717.365938 274.467974 
L 721.875803 260.683843 
L 726.385667 257.298269 
L 730.895532 246.254814 
L 735.405397 239.241832 
L 744.425126 226.989242 
L 748.93499 232.148219 
L 753.444855 214.736681 
L 757.95472 199.098516 
L 762.464584 206.756366 
L 766.974449 193.375271 
L 771.484313 198.856683 
L 775.994178 184.830719 
L 780.504043 186.44289 
L 785.013907 184.427684 
L 789.523772 182.896084 
L 794.033636 173.303628 
L 798.543501 162.01834 
L 803.053366 168.708888 
L 807.56323 162.260173 
L 812.073095 151.619784 
L 816.582959 149.362714 
L 821.092824 142.833399 
L 825.602689 138.077456 
L 830.112553 134.450049 
L 834.622418 127.598269 
L 839.132282 128.323769 
L 843.642147 127.275835 
L 848.152012 121.713822 
L 852.661876 124.535129 
L 857.171741 123.487225 
L 861.681605 121.55259 
L 866.19147 113.733537 
L 870.701335 110.9122 
L 875.211199 106.962358 
L 879.721064 108.171494 
L 884.230928 104.382885 
L 888.740793 104.947122 
L 893.250658 100.755477 
L 897.760522 100.836078 
L 902.270387 99.546341 
L 906.780251 100.352412 
L 911.290116 94.064899 
L 915.799981 93.742465 
L 920.309845 94.790399 
L 924.81971 91.485426 
L 929.329574 89.228356 
L 933.839439 91.162991 
L 938.349304 92.613961 
L 942.859168 92.533329 
L 947.369033 89.228356 
L 951.878897 86.971316 
L 956.388762 85.762181 
L 960.898627 87.777417 
L 965.408491 85.600948 
L 969.918356 87.858018 
L 974.428221 85.600948 
L 978.938085 84.714277 
L 983.44795 83.42451 
L 987.957814 83.021475 
L 992.467679 84.15001 
L 996.977544 83.585742 
L 1001.487408 83.42451 
L 1005.997273 83.505141 
L 1005.997273 83.505141 
" clip-path="url(#p6691b44a01)" style="fill: none; stroke: #dd8452; stroke-width: 6; stroke-linecap: round"/>
   </g>
   <g id="line2d_17"/>
   <g id="line2d_18"/>
   <g id="patch_3">
    <path d="M 115.75 609.894375 
L 115.75 54.554375 
" style="fill: none; stroke: #cccccc; stroke-width: 1.875; stroke-linejoin: miter; stroke-linecap: square"/>
   </g>
   <g id="patch_4">
    <path d="M 1048.39 609.894375 
L 1048.39 54.554375 
" style="fill: none; stroke: #cccccc; stroke-width: 1.875; stroke-linejoin: miter; stroke-linecap: square"/>
   </g>
   <g id="patch_5">
    <path d="M 115.75 609.894375 
L 1048.39 609.894375 
" style="fill: none; stroke: #cccccc; stroke-width: 1.875; stroke-linejoin: miter; stroke-linecap: square"/>
   </g>
   <g id="patch_6">
    <path d="M 115.75 54.554375 
L 1048.39 54.554375 
" style="fill: none; stroke: #cccccc; stroke-width: 1.875; stroke-linejoin: miter; stroke-linecap: square"/>
   </g>
   <g id="text_17">
    <!-- Training Progress: Accuracy -->
    <g style="fill: #262626" transform="translate(298.820312 34.554375) scale(0.36 -0.36)">
     <defs>
      <path id="DejaVuSans-Bold-54" d="M 31 4666 
L 4331 4666 
L 4331 3756 
L 2784 3756 
L 2784 0 
L 1581 0 
L 1581 3756 
L 31 3756 
L 31 4666 
z
" transform="scale(0.015625)"/>
      <path id="DejaVuSans-Bold-72" d="M 3138 2547 
Q 2991 2616 2845 2648 
Q 2700 2681 2553 2681 
Q 2122 2681 1889 2404 
Q 1656 2128 1656 1613 
L 1656 0 
L 538 0 
L 538 3500 
L 1656 3500 
L 1656 2925 
Q 1872 3269 2151 3426 
Q 2431 3584 2822 3584 
Q 2878 3584 2943 3579 
Q 3009 3575 3134 3559 
L 3138 2547 
z
" transform="scale(0.015625)"/>
      <path id="DejaVuSans-Bold-61" d="M 2106 1575 
Q 1756 1575 1579 1456 
Q 1403 1338 1403 1106 
Q 1403 894 1545 773 
Q 1688 653 1941 653 
Q 2256 653 2472 879 
Q 2688 1106 2688 1447 
L 2688 1575 
L 2106 1575 
z
M 3816 1997 
L 3816 0 
L 2688 0 
L 2688 519 
Q 2463 200 2181 54 
Q 1900 -91 1497 -91 
Q 953 -91 614 226 
Q 275 544 275 1050 
Q 275 1666 698 1953 
Q 1122 2241 2028 2241 
L 2688 2241 
L 2688 2328 
Q 2688 2594 2478 2717 
Q 2269 2841 1825 2841 
Q 1466 2841 1156 2769 
Q 847 2697 581 2553 
L 581 3406 
Q 941 3494 1303 3539 
Q 1666 3584 2028 3584 
Q 2975 3584 3395 3211 
Q 3816 2838 3816 1997 
z
" transform="scale(0.015625)"/>
      <path id="DejaVuSans-Bold-69" d="M 538 3500 
L 1656 3500 
L 1656 0 
L 538 0 
L 538 3500 
z
M 538 4863 
L 1656 4863 
L 1656 3950 
L 538 3950 
L 538 4863 
z
" transform="scale(0.015625)"/>
      <path id="DejaVuSans-Bold-6e" d="M 4056 2131 
L 4056 0 
L 2931 0 
L 2931 347 
L 2931 1631 
Q 2931 2084 2911 2256 
Q 2891 2428 2841 2509 
Q 2775 2619 2662 2680 
Q 2550 2741 2406 2741 
Q 2056 2741 1856 2470 
Q 1656 2200 1656 1722 
L 1656 0 
L 538 0 
L 538 3500 
L 1656 3500 
L 1656 2988 
Q 1909 3294 2193 3439 
Q 2478 3584 2822 3584 
Q 3428 3584 3742 3212 
Q 4056 2841 4056 2131 
z
" transform="scale(0.015625)"/>
      <path id="DejaVuSans-Bold-67" d="M 2919 594 
Q 2688 288 2409 144 
Q 2131 0 1766 0 
Q 1125 0 706 504 
Q 288 1009 288 1791 
Q 288 2575 706 3076 
Q 1125 3578 1766 3578 
Q 2131 3578 2409 3434 
Q 2688 3291 2919 2981 
L 2919 3500 
L 4044 3500 
L 4044 353 
Q 4044 -491 3511 -936 
Q 2978 -1381 1966 -1381 
Q 1638 -1381 1331 -1331 
Q 1025 -1281 716 -1178 
L 716 -306 
Q 1009 -475 1290 -558 
Q 1572 -641 1856 -641 
Q 2406 -641 2662 -400 
Q 2919 -159 2919 353 
L 2919 594 
z
M 2181 2772 
Q 1834 2772 1640 2515 
Q 1447 2259 1447 1791 
Q 1447 1309 1634 1061 
Q 1822 813 2181 813 
Q 2531 813 2725 1069 
Q 2919 1325 2919 1791 
Q 2919 2259 2725 2515 
Q 2531 2772 2181 2772 
z
" transform="scale(0.015625)"/>
      <path id="DejaVuSans-Bold-20" transform="scale(0.015625)"/>
      <path id="DejaVuSans-Bold-50" d="M 588 4666 
L 2584 4666 
Q 3475 4666 3951 4270 
Q 4428 3875 4428 3144 
Q 4428 2409 3951 2014 
Q 3475 1619 2584 1619 
L 1791 1619 
L 1791 0 
L 588 0 
L 588 4666 
z
M 1791 3794 
L 1791 2491 
L 2456 2491 
Q 2806 2491 2997 2661 
Q 3188 2831 3188 3144 
Q 3188 3456 2997 3625 
Q 2806 3794 2456 3794 
L 1791 3794 
z
" transform="scale(0.015625)"/>
      <path id="DejaVuSans-Bold-6f" d="M 2203 2784 
Q 1831 2784 1636 2517 
Q 1441 2250 1441 1747 
Q 1441 1244 1636 976 
Q 1831 709 2203 709 
Q 2569 709 2762 976 
Q 2956 1244 2956 1747 
Q 2956 2250 2762 2517 
Q 2569 2784 2203 2784 
z
M 2203 3584 
Q 3106 3584 3614 3096 
Q 4122 2609 4122 1747 
Q 4122 884 3614 396 
Q 3106 -91 2203 -91 
Q 1297 -91 786 396 
Q 275 884 275 1747 
Q 275 2609 786 3096 
Q 1297 3584 2203 3584 
z
" transform="scale(0.015625)"/>
      <path id="DejaVuSans-Bold-65" d="M 4031 1759 
L 4031 1441 
L 1416 1441 
Q 1456 1047 1700 850 
Q 1944 653 2381 653 
Q 2734 653 3104 758 
Q 3475 863 3866 1075 
L 3866 213 
Q 3469 63 3072 -14 
Q 2675 -91 2278 -91 
Q 1328 -91 801 392 
Q 275 875 275 1747 
Q 275 2603 792 3093 
Q 1309 3584 2216 3584 
Q 3041 3584 3536 3087 
Q 4031 2591 4031 1759 
z
M 2881 2131 
Q 2881 2450 2695 2645 
Q 2509 2841 2209 2841 
Q 1884 2841 1681 2658 
Q 1478 2475 1428 2131 
L 2881 2131 
z
" transform="scale(0.015625)"/>
      <path id="DejaVuSans-Bold-73" d="M 3272 3391 
L 3272 2541 
Q 2913 2691 2578 2766 
Q 2244 2841 1947 2841 
Q 1628 2841 1473 2761 
Q 1319 2681 1319 2516 
Q 1319 2381 1436 2309 
Q 1553 2238 1856 2203 
L 2053 2175 
Q 2913 2066 3209 1816 
Q 3506 1566 3506 1031 
Q 3506 472 3093 190 
Q 2681 -91 1863 -91 
Q 1516 -91 1145 -36 
Q 775 19 384 128 
L 384 978 
Q 719 816 1070 734 
Q 1422 653 1784 653 
Q 2113 653 2278 743 
Q 2444 834 2444 1013 
Q 2444 1163 2330 1236 
Q 2216 1309 1875 1350 
L 1678 1375 
Q 931 1469 631 1722 
Q 331 1975 331 2491 
Q 331 3047 712 3315 
Q 1094 3584 1881 3584 
Q 2191 3584 2531 3537 
Q 2872 3491 3272 3391 
z
" transform="scale(0.015625)"/>
      <path id="DejaVuSans-Bold-3a" d="M 716 3500 
L 1844 3500 
L 1844 2291 
L 716 2291 
L 716 3500 
z
M 716 1209 
L 1844 1209 
L 1844 0 
L 716 0 
L 716 1209 
z
" transform="scale(0.015625)"/>
      <path id="DejaVuSans-Bold-41" d="M 3419 850 
L 1538 850 
L 1241 0 
L 31 0 
L 1759 4666 
L 3194 4666 
L 4922 0 
L 3713 0 
L 3419 850 
z
M 1838 1716 
L 3116 1716 
L 2478 3572 
L 1838 1716 
z
" transform="scale(0.015625)"/>
      <path id="DejaVuSans-Bold-63" d="M 3366 3391 
L 3366 2478 
Q 3138 2634 2908 2709 
Q 2678 2784 2431 2784 
Q 1963 2784 1702 2511 
Q 1441 2238 1441 1747 
Q 1441 1256 1702 982 
Q 1963 709 2431 709 
Q 2694 709 2930 787 
Q 3166 866 3366 1019 
L 3366 103 
Q 3103 6 2833 -42 
Q 2563 -91 2291 -91 
Q 1344 -91 809 395 
Q 275 881 275 1747 
Q 275 2613 809 3098 
Q 1344 3584 2291 3584 
Q 2566 3584 2833 3536 
Q 3100 3488 3366 3391 
z
" transform="scale(0.015625)"/>
      <path id="DejaVuSans-Bold-75" d="M 500 1363 
L 500 3500 
L 1625 3500 
L 1625 3150 
Q 1625 2866 1622 2436 
Q 1619 2006 1619 1863 
Q 1619 1441 1641 1255 
Q 1663 1069 1716 984 
Q 1784 875 1895 815 
Q 2006 756 2150 756 
Q 2500 756 2700 1025 
Q 2900 1294 2900 1772 
L 2900 3500 
L 4019 3500 
L 4019 0 
L 2900 0 
L 2900 506 
Q 2647 200 2364 54 
Q 2081 -91 1741 -91 
Q 1134 -91 817 281 
Q 500 653 500 1363 
z
" transform="scale(0.015625)"/>
      <path id="DejaVuSans-Bold-79" d="M 78 3500 
L 1197 3500 
L 2138 1125 
L 2938 3500 
L 4056 3500 
L 2584 -331 
Q 2363 -916 2067 -1148 
Q 1772 -1381 1288 -1381 
L 641 -1381 
L 641 -647 
L 991 -647 
Q 1275 -647 1404 -556 
Q 1534 -466 1606 -231 
L 1638 -134 
L 78 3500 
z
" transform="scale(0.015625)"/>
     </defs>
     <use xlink:href="#DejaVuSans-Bold-54"/>
     <use xlink:href="#DejaVuSans-Bold-72" transform="translate(57.212891 0)"/>
     <use xlink:href="#DejaVuSans-Bold-61" transform="translate(106.529297 0)"/>
     <use xlink:href="#DejaVuSans-Bold-69" transform="translate(174.009766 0)"/>
     <use xlink:href="#DejaVuSans-Bold-6e" transform="translate(208.287109 0)"/>
     <use xlink:href="#DejaVuSans-Bold-69" transform="translate(279.478516 0)"/>
     <use xlink:href="#DejaVuSans-Bold-6e" transform="translate(313.755859 0)"/>
     <use xlink:href="#DejaVuSans-Bold-67" transform="translate(384.947266 0)"/>
     <use xlink:href="#DejaVuSans-Bold-20" transform="translate(456.529297 0)"/>
     <use xlink:href="#DejaVuSans-Bold-50" transform="translate(491.34375 0)"/>
     <use xlink:href="#DejaVuSans-Bold-72" transform="translate(564.634766 0)"/>
     <use xlink:href="#DejaVuSans-Bold-6f" transform="translate(613.951172 0)"/>
     <use xlink:href="#DejaVuSans-Bold-67" transform="translate(682.652344 0)"/>
     <use xlink:href="#DejaVuSans-Bold-72" transform="translate(754.234375 0)"/>
     <use xlink:href="#DejaVuSans-Bold-65" transform="translate(803.550781 0)"/>
     <use xlink:href="#DejaVuSans-Bold-73" transform="translate(871.373047 0)"/>
     <use xlink:href="#DejaVuSans-Bold-73" transform="translate(930.894531 0)"/>
     <use xlink:href="#DejaVuSans-Bold-3a" transform="translate(990.416016 0)"/>
     <use xlink:href="#DejaVuSans-Bold-20" transform="translate(1030.40625 0)"/>
     <use xlink:href="#DejaVuSans-Bold-41" transform="translate(1065.220703 0)"/>
     <use xlink:href="#DejaVuSans-Bold-63" transform="translate(1142.613281 0)"/>
     <use xlink:href="#DejaVuSans-Bold-63" transform="translate(1201.890625 0)"/>
     <use xlink:href="#DejaVuSans-Bold-75" transform="translate(1261.167969 0)"/>
     <use xlink:href="#DejaVuSans-Bold-72" transform="translate(1332.359375 0)"/>
     <use xlink:href="#DejaVuSans-Bold-61" transform="translate(1381.675781 0)"/>
     <use xlink:href="#DejaVuSans-Bold-63" transform="translate(1449.15625 0)"/>
     <use xlink:href="#DejaVuSans-Bold-79" transform="translate(1508.433594 0)"/>
    </g>
   </g>
   <g id="legend_1">
    <g id="patch_7">
     <path d="M 138.15 174.094375 
L 315.03 174.094375 
Q 321.43 174.094375 321.43 167.694375 
L 321.43 76.954375 
Q 321.43 70.554375 315.03 70.554375 
L 138.15 70.554375 
Q 131.75 70.554375 131.75 76.954375 
L 131.75 167.694375 
Q 131.75 174.094375 138.15 174.094375 
z
" style="fill: #ffffff; opacity: 0.8; stroke: #cccccc; stroke-width: 1.5; stroke-linejoin: miter"/>
    </g>
    <g id="line2d_19">
     <path d="M 144.55 96.469375 
L 176.55 96.469375 
L 208.55 96.469375 
" style="fill: none; stroke: #4c72b0; stroke-width: 6; stroke-linecap: round"/>
    </g>
    <g id="text_18">
     <!-- train -->
     <g style="fill: #262626" transform="translate(234.15 107.669375) scale(0.32 -0.32)">
      <defs>
       <path id="DejaVuSans-74" d="M 1172 4494 
L 1172 3500 
L 2356 3500 
L 2356 3053 
L 1172 3053 
L 1172 1153 
Q 1172 725 1289 603 
Q 1406 481 1766 481 
L 2356 481 
L 2356 0 
L 1766 0 
Q 1100 0 847 248 
Q 594 497 594 1153 
L 594 3053 
L 172 3053 
L 172 3500 
L 594 3500 
L 594 4494 
L 1172 4494 
z
" transform="scale(0.015625)"/>
       <path id="DejaVuSans-69" d="M 603 3500 
L 1178 3500 
L 1178 0 
L 603 0 
L 603 3500 
z
M 603 4863 
L 1178 4863 
L 1178 4134 
L 603 4134 
L 603 4863 
z
" transform="scale(0.015625)"/>
       <path id="DejaVuSans-6e" d="M 3513 2113 
L 3513 0 
L 2938 0 
L 2938 2094 
Q 2938 2591 2744 2837 
Q 2550 3084 2163 3084 
Q 1697 3084 1428 2787 
Q 1159 2491 1159 1978 
L 1159 0 
L 581 0 
L 581 3500 
L 1159 3500 
L 1159 2956 
Q 1366 3272 1645 3428 
Q 1925 3584 2291 3584 
Q 2894 3584 3203 3211 
Q 3513 2838 3513 2113 
z
" transform="scale(0.015625)"/>
      </defs>
      <use xlink:href="#DejaVuSans-74"/>
      <use xlink:href="#DejaVuSans-72" transform="translate(39.208984 0)"/>
      <use xlink:href="#DejaVuSans-61" transform="translate(80.322266 0)"/>
      <use xlink:href="#DejaVuSans-69" transform="translate(141.601562 0)"/>
      <use xlink:href="#DejaVuSans-6e" transform="translate(169.384766 0)"/>
     </g>
    </g>
    <g id="line2d_20">
     <path d="M 144.55 143.439375 
L 176.55 143.439375 
L 208.55 143.439375 
" style="fill: none; stroke: #dd8452; stroke-width: 6; stroke-linecap: round"/>
    </g>
    <g id="text_19">
     <!-- val -->
     <g style="fill: #262626" transform="translate(234.15 154.639375) scale(0.32 -0.32)">
      <defs>
       <path id="DejaVuSans-76" d="M 191 3500 
L 800 3500 
L 1894 563 
L 2988 3500 
L 3597 3500 
L 2284 0 
L 1503 0 
L 191 3500 
z
" transform="scale(0.015625)"/>
       <path id="DejaVuSans-6c" d="M 603 4863 
L 1178 4863 
L 1178 0 
L 603 0 
L 603 4863 
z
" transform="scale(0.015625)"/>
      </defs>
      <use xlink:href="#DejaVuSans-76"/>
      <use xlink:href="#DejaVuSans-61" transform="translate(59.179688 0)"/>
      <use xlink:href="#DejaVuSans-6c" transform="translate(120.458984 0)"/>
     </g>
    </g>
   </g>
  </g>
 </g>
 <defs>
  <clipPath id="p6691b44a01">
   <rect x="115.75" y="54.554375" width="932.64" height="555.34"/>
  </clipPath>
 </defs>
</svg>
